<?plantuml 1.2026.2beta3?><svg xmlns="http://www.w3.org/2000/svg" xmlns:xlink="http://www.w3.org/1999/xlink" contentStyleType="text/css" data-diagram-type="CLASS" height="402px" preserveAspectRatio="none" style="width:1089px;height:402px;background:#FFFFFF;" version="1.1" viewBox="0 0 1089 402" width="1089px" zoomAndPan="magnify"><title>Hyperion Parameter Model</title><defs/><g><g class="title" data-source-line="3"><text fill="#000000" font-family="sans-serif" font-size="14" font-weight="bold" lengthAdjust="spacing" textLength="212.4951" x="431.6874" y="22.9951">Hyperion Parameter Model</text></g><!--cluster mx_bluesky.common.parameters--><g class="cluster" data-qualified-name="mx_bluesky.common.parameters" data-source-line="6" id="ent0002"><path d="M201.37,43.2969 L462.6825,43.2969 A3.75,3.75 0 0 1 465.1825,45.7969 L472.1825,65.5938 L1080.37,65.5938 A2.5,2.5 0 0 1 1082.87,68.0938 L1082.87,237.2869 A2.5,2.5 0 0 1 1080.37,239.7869 L201.37,239.7869 A2.5,2.5 0 0 1 198.87,237.2869 L198.87,45.7969 A2.5,2.5 0 0 1 201.37,43.2969" fill="none" style="stroke:#000000;stroke-width:1.5;"/><line style="stroke:#000000;stroke-width:1.5;" x1="198.87" x2="472.1825" y1="65.5938" y2="65.5938"/><text fill="#000000" font-family="sans-serif" font-size="14" font-weight="bold" lengthAdjust="spacing" textLength="260.3125" x="202.87" y="58.292">mx_bluesky.common.parameters</text></g><!--cluster mx_bluesky.hyperion.parameters--><g class="cluster" data-qualified-name="mx_bluesky.hyperion.parameters" data-source-line="27" id="ent0006"><path d="M188.37,263.7869 L452.9022,263.7869 A3.75,3.75 0 0 1 455.4022,266.2869 L462.4022,286.0838 L553.37,286.0838 A2.5,2.5 0 0 1 555.87,288.5838 L555.87,392.8769 A2.5,2.5 0 0 1 553.37,395.3769 L188.37,395.3769 A2.5,2.5 0 0 1 185.87,392.8769 L185.87,266.2869 A2.5,2.5 0 0 1 188.37,263.7869" fill="none" style="stroke:#000000;stroke-width:1.5;"/><line style="stroke:#000000;stroke-width:1.5;" x1="185.87" x2="462.4022" y1="286.0838" y2="286.0838"/><text fill="#000000" font-family="sans-serif" font-size="14" font-weight="bold" lengthAdjust="spacing" textLength="263.5322" x="189.87" y="278.782">mx_bluesky.hyperion.parameters</text></g><!--class WithVisit--><g class="entity" data-qualified-name="mx_bluesky.common.parameters.WithVisit" data-source-line="8" id="ent0003"><rect fill="#F1F1F1" height="129.4844" rx="2.5" ry="2.5" style="stroke:#181818;stroke-width:0.5;" width="271.7861" x="222.97" y="86.2969"/><ellipse cx="323.4959" cy="102.2969" fill="#ADD1B2" rx="11" ry="11" style="stroke:#181818;stroke-width:1;"/><path d="M326.4646,107.9375 Q325.8865,108.2344 325.2459,108.375 Q324.6053,108.5313 323.9021,108.5313 Q321.4021,108.5313 320.074,106.8906 Q318.7615,105.2344 318.7615,102.1094 Q318.7615,98.9844 320.074,97.3281 Q321.4021,95.6719 323.9021,95.6719 Q324.6053,95.6719 325.2459,95.8281 Q325.9021,95.9844 326.4646,96.2813 L326.4646,99 Q325.8396,98.4219 325.2459,98.1563 Q324.6521,97.875 324.0271,97.875 Q322.6834,97.875 321.9959,98.9531 Q321.3084,100.0156 321.3084,102.1094 Q321.3084,104.2031 321.9959,105.2813 Q322.6834,106.3438 324.0271,106.3438 Q324.6521,106.3438 325.2459,106.0781 Q325.8396,105.7969 326.4646,105.2188 L326.4646,107.9375 Z " fill="#000000"/><text fill="#000000" font-family="sans-serif" font-size="14" lengthAdjust="spacing" textLength="62.2344" x="343.9959" y="107.1436">WithVisit</text><line style="stroke:#181818;stroke-width:0.5;" x1="223.97" x2="493.7561" y1="118.2969" y2="118.2969"/><text fill="#000000" font-family="sans-serif" font-size="14" lengthAdjust="spacing" textLength="87.9717" x="228.97" y="135.292">str beamline</text><text fill="#000000" font-family="sans-serif" font-size="14" lengthAdjust="spacing" textLength="51.8369" x="228.97" y="151.5889">str visit</text><text fill="#000000" font-family="sans-serif" font-size="14" lengthAdjust="spacing" textLength="259.7861" x="228.97" y="167.8857">str det_dist_to_beam_converter_path</text><text fill="#000000" font-family="sans-serif" font-size="14" lengthAdjust="spacing" textLength="245.752" x="228.97" y="184.1826">float | None detector_distance_mm</text><text fill="#000000" font-family="sans-serif" font-size="14" lengthAdjust="spacing" textLength="131.5918" x="228.97" y="200.4795">str insertion_prefix</text><line style="stroke:#181818;stroke-width:0.5;" x1="223.97" x2="493.7561" y1="207.7813" y2="207.7813"/></g><!--class WithSample--><g class="entity" data-qualified-name="mx_bluesky.common.parameters.WithSample" data-source-line="15" id="ent0004"><rect fill="#F1F1F1" height="96.8906" rx="2.5" ry="2.5" style="stroke:#181818;stroke-width:0.5;" width="176.3086" x="529.71" y="102.5969"/><ellipse cx="571.5843" cy="118.5969" fill="#ADD1B2" rx="11" ry="11" style="stroke:#181818;stroke-width:1;"/><path d="M574.5531,124.2375 Q573.9749,124.5344 573.3343,124.675 Q572.6937,124.8313 571.9906,124.8313 Q569.4906,124.8313 568.1624,123.1906 Q566.8499,121.5344 566.8499,118.4094 Q566.8499,115.2844 568.1624,113.6281 Q569.4906,111.9719 571.9906,111.9719 Q572.6937,111.9719 573.3343,112.1281 Q573.9906,112.2844 574.5531,112.5813 L574.5531,115.3 Q573.9281,114.7219 573.3343,114.4563 Q572.7406,114.175 572.1156,114.175 Q570.7718,114.175 570.0843,115.2531 Q569.3968,116.3156 569.3968,118.4094 Q569.3968,120.5031 570.0843,121.5813 Q570.7718,122.6438 572.1156,122.6438 Q572.7406,122.6438 573.3343,122.3781 Q573.9281,122.0969 574.5531,121.5188 L574.5531,124.2375 Z " fill="#000000"/><text fill="#000000" font-family="sans-serif" font-size="14" lengthAdjust="spacing" textLength="84.5879" x="591.5564" y="123.4436">WithSample</text><line style="stroke:#181818;stroke-width:0.5;" x1="530.71" x2="705.0186" y1="134.5969" y2="134.5969"/><text fill="#000000" font-family="sans-serif" font-size="14" lengthAdjust="spacing" textLength="93.3789" x="535.71" y="151.592">int sample_id</text><text fill="#000000" font-family="sans-serif" font-size="14" lengthAdjust="spacing" textLength="164.3086" x="535.71" y="167.8889">int | None sample_puck</text><text fill="#000000" font-family="sans-serif" font-size="14" lengthAdjust="spacing" textLength="152.3936" x="535.71" y="184.1857">int | None sample_pin</text><line style="stroke:#181818;stroke-width:0.5;" x1="530.71" x2="705.0186" y1="191.4875" y2="191.4875"/></g><!--class MxBlueskyParameters--><g class="entity" data-qualified-name="mx_bluesky.common.parameters.MxBlueskyParameters" data-source-line="22" id="ent0005"><rect fill="#F1F1F1" height="64.2969" rx="2.5" ry="2.5" style="stroke:#181818;stroke-width:0.5;" width="317.4639" x="741.13" y="118.8969"/><ellipse cx="817.7164" cy="134.8969" fill="#ADD1B2" rx="11" ry="11" style="stroke:#181818;stroke-width:1;"/><path d="M820.6852,140.5375 Q820.1071,140.8344 819.4664,140.975 Q818.8258,141.1312 818.1227,141.1312 Q815.6227,141.1312 814.2946,139.4906 Q812.9821,137.8344 812.9821,134.7094 Q812.9821,131.5844 814.2946,129.9281 Q815.6227,128.2719 818.1227,128.2719 Q818.8258,128.2719 819.4664,128.4281 Q820.1227,128.5844 820.6852,128.8812 L820.6852,131.6 Q820.0602,131.0219 819.4664,130.7562 Q818.8727,130.475 818.2477,130.475 Q816.9039,130.475 816.2164,131.5531 Q815.5289,132.6156 815.5289,134.7094 Q815.5289,136.8031 816.2164,137.8812 Q816.9039,138.9437 818.2477,138.9437 Q818.8727,138.9437 819.4664,138.6781 Q820.0602,138.3969 820.6852,137.8187 L820.6852,140.5375 Z " fill="#000000"/><text fill="#000000" font-family="sans-serif" font-size="14" lengthAdjust="spacing" textLength="155.791" x="838.2164" y="139.7436">MxBlueskyParameters</text><line style="stroke:#181818;stroke-width:0.5;" x1="742.13" x2="1057.5939" y1="150.8969" y2="150.8969"/><text fill="#000000" font-family="sans-serif" font-size="14" lengthAdjust="spacing" textLength="305.4639" x="747.13" y="167.892">SemanticVersion parameter_model_version</text><line style="stroke:#181818;stroke-width:0.5;" x1="742.13" x2="1057.5939" y1="175.1937" y2="175.1937"/></g><!--class LoadCentreCollect--><g class="entity" data-qualified-name="mx_bluesky.hyperion.parameters.LoadCentreCollect" data-source-line="28" id="ent0007"><rect fill="#F1F1F1" height="80.5938" rx="2.5" ry="2.5" style="stroke:#181818;stroke-width:0.5;" width="338.6211" x="201.56" y="298.7869"/><ellipse cx="302.185" cy="314.7869" fill="#ADD1B2" rx="11" ry="11" style="stroke:#181818;stroke-width:1;"/><path d="M305.1538,320.4275 Q304.5756,320.7244 303.935,320.865 Q303.2944,321.0212 302.5913,321.0212 Q300.0913,321.0212 298.7631,319.3806 Q297.4506,317.7244 297.4506,314.5994 Q297.4506,311.4744 298.7631,309.8181 Q300.0913,308.1619 302.5913,308.1619 Q303.2944,308.1619 303.935,308.3181 Q304.5913,308.4744 305.1538,308.7712 L305.1538,311.49 Q304.5288,310.9119 303.935,310.6462 Q303.3413,310.365 302.7163,310.365 Q301.3725,310.365 300.685,311.4431 Q299.9975,312.5056 299.9975,314.5994 Q299.9975,316.6931 300.685,317.7712 Q301.3725,318.8337 302.7163,318.8337 Q303.3413,318.8337 303.935,318.5681 Q304.5288,318.2869 305.1538,317.7087 L305.1538,320.4275 Z " fill="#000000"/><text fill="#000000" font-family="sans-serif" font-size="14" lengthAdjust="spacing" textLength="128.8711" x="322.685" y="319.6336">LoadCentreCollect</text><line style="stroke:#181818;stroke-width:0.5;" x1="202.56" x2="539.1811" y1="330.7869" y2="330.7869"/><text fill="#000000" font-family="sans-serif" font-size="14" lengthAdjust="spacing" textLength="326.6211" x="207.56" y="347.782">RobotLoadThenCentre robot_load_then_centre</text><text fill="#000000" font-family="sans-serif" font-size="14" lengthAdjust="spacing" textLength="235.0947" x="207.56" y="364.0789">RotationScan multi_rotation_scan</text><line style="stroke:#181818;stroke-width:0.5;" x1="202.56" x2="539.1811" y1="371.3806" y2="371.3806"/></g><!--class WithCentreSelection--><g class="entity" data-qualified-name="WithCentreSelection" data-source-line="36" id="ent0011"><rect fill="#F1F1F1" height="48" rx="2.5" ry="2.5" style="stroke:#181818;stroke-width:0.5;" width="175.7324" x="7" y="127.0369"/><ellipse cx="22" cy="143.0369" fill="#ADD1B2" rx="11" ry="11" style="stroke:#181818;stroke-width:1;"/><path d="M24.9688,148.6775 Q24.3906,148.9744 23.75,149.115 Q23.1094,149.2713 22.4063,149.2713 Q19.9063,149.2713 18.5781,147.6306 Q17.2656,145.9744 17.2656,142.8494 Q17.2656,139.7244 18.5781,138.0681 Q19.9063,136.4119 22.4063,136.4119 Q23.1094,136.4119 23.75,136.5681 Q24.4063,136.7244 24.9688,137.0213 L24.9688,139.74 Q24.3438,139.1619 23.75,138.8963 Q23.1563,138.615 22.5313,138.615 Q21.1875,138.615 20.5,139.6931 Q19.8125,140.7556 19.8125,142.8494 Q19.8125,144.9431 20.5,146.0213 Q21.1875,147.0838 22.5313,147.0838 Q23.1563,147.0838 23.75,146.8181 Q24.3438,146.5369 24.9688,145.9588 L24.9688,148.6775 Z " fill="#000000"/><text fill="#000000" font-family="sans-serif" font-size="14" lengthAdjust="spacing" textLength="143.7324" x="36" y="147.8836">WithCentreSelection</text><line style="stroke:#181818;stroke-width:0.5;" x1="8" x2="181.7324" y1="159.0369" y2="159.0369"/><line style="stroke:#181818;stroke-width:0.5;" x1="8" x2="181.7324" y1="167.0369" y2="167.0369"/></g><!--reverse link MxBlueskyParameters to LoadCentreCollect--><g class="link" data-entity-1="ent0005" data-entity-2="ent0007" data-link-type="extension" data-source-line="33" id="lnk8"><path codeLine="33" d="M833.7638,192.6848 C798.9738,213.2448 766.64,230.2769 721.87,247.7869 C664.14,270.3469 598.87,288.9169 540.41,303.2269" fill="none" id="MxBlueskyParameters-backto-LoadCentreCollect" style="stroke:#181818;stroke-width:1;"/><polygon fill="none" points="849.26,183.5269,830.7111,187.5193,836.8164,197.8502,849.26,183.5269" style="stroke:#181818;stroke-width:1;"/></g><!--reverse link WithVisit to LoadCentreCollect--><g class="link" data-entity-1="ent0003" data-entity-2="ent0007" data-link-type="extension" data-source-line="34" id="lnk9"><path codeLine="34" d="M364.1568,234.0297 C365.9168,261.3597 366.76,274.4269 368.3,298.3669" fill="none" id="WithVisit-backto-LoadCentreCollect" style="stroke:#181818;stroke-width:1;"/><polygon fill="none" points="363,216.0669,358.1692,234.4153,370.1444,233.6441,363,216.0669" style="stroke:#181818;stroke-width:1;"/></g><!--reverse link WithSample to LoadCentreCollect--><g class="link" data-entity-1="ent0004" data-entity-2="ent0007" data-link-type="extension" data-source-line="35" id="lnk10"><path codeLine="35" d="M555.1131,211.992 C537.7731,227.892 531.08,233.1069 511.87,247.7869 C488.53,265.5969 461.66,283.4169 437.68,298.4569" fill="none" id="WithSample-backto-LoadCentreCollect" style="stroke:#181818;stroke-width:1;"/><polygon fill="none" points="568.38,199.8269,551.0581,207.5697,559.1682,216.4143,568.38,199.8269" style="stroke:#181818;stroke-width:1;"/></g><!--reverse link WithCentreSelection to LoadCentreCollect--><g class="link" data-entity-1="ent0011" data-entity-2="ent0007" data-link-type="extension" data-source-line="36" id="lnk12"><path codeLine="36" d="M132.2106,187.5162 C154.1306,207.9362 174.68,225.5169 206.87,247.7869 C233.19,265.9969 263.54,283.5669 290.92,298.2869" fill="none" id="WithCentreSelection-backto-LoadCentreCollect" style="stroke:#181818;stroke-width:1;"/><polygon fill="none" points="119.04,175.2469,128.1208,191.9064,136.3003,183.126,119.04,175.2469" style="stroke:#181818;stroke-width:1;"/></g><?plantuml-src VL7BJWCn33oJh_2DK_i5dE32WIB4Ld2qqgpRZPgN4c_Lgks_usnA1QBYjElnP3mUtoy7Ms1j7O5yzSXnjg50MJFri3h0Tu79wS2ZT_DqK8ejouFdGw9iOu0tdRKdfWoBs9DJXHY282LfGnqbQNFC468WfGJRwWs1t-FAZLIsXxc9tiSmJzyo1OwAuuPu4CcZCawN0f-MXmzRB1_LNU4CAzBUML6SgbtjjD-U67jR63bY9Q69OKTPT35f7jJTsaNDS89NyLFPPCJTz4G7G-Xzqx6Xo2lP3rEcjTshymyddVR9aLYnWQ5C1Tg-bHVb2vf6ixs9so2Avx-BBlQFBPThh4NcTEJb0DPyI5apluQ5lcQEkuPFakTR8G-NQ_sEkOryYRf_ei2Pdg9paeSCV8-hoBMn72Yq9kIAeSJNerWEQ2QuSbdNf3gZ0_ZHiSLyWR08DdcwiHSyd6QplzFLzTR_4Te9_cCqfACArCnkKxy0?></g></svg>