<svg xmlns="http://www.w3.org/2000/svg" xmlns:xlink="http://www.w3.org/1999/xlink" contentStyleType="text/css" data-diagram-type="CLASS" height="1104px" preserveAspectRatio="none" style="width:4132px;height:1104px;background:#FFFFFF;" version="1.1" viewBox="0 0 4132 1104" width="4132px" zoomAndPan="magnify"><title>Hyperion Parameter Model</title><defs/><g><g class="title" data-source-line="3"><text fill="#000000" font-family="sans-serif" font-size="14" font-weight="bold" lengthAdjust="spacing" textLength="212.4951" x="1952.8124" y="22.9951">Hyperion Parameter Model</text></g><!--cluster mx_bluesky.common.parameters--><g class="cluster" data-entity="mx_bluesky.common.parameters" data-source-line="6" data-uid="ent0002" id="cluster_mx_bluesky.common.parameters"><path d="M1212.5,43.2969 L1473.8125,43.2969 A3.75,3.75 0 0 1 1476.3125,45.7969 L1483.3125,65.5938 L4005.5,65.5938 A2.5,2.5 0 0 1 4008,68.0938 L4008,822.0269 A2.5,2.5 0 0 1 4005.5,824.5269 L1212.5,824.5269 A2.5,2.5 0 0 1 1210,822.0269 L1210,45.7969 A2.5,2.5 0 0 1 1212.5,43.2969" fill="none" style="stroke:#000000;stroke-width:1.5;"/><line style="stroke:#000000;stroke-width:1.5;" x1="1210" x2="1483.3125" y1="65.5938" y2="65.5938"/><text fill="#000000" font-family="sans-serif" font-size="14" font-weight="bold" lengthAdjust="spacing" textLength="260.3125" x="1214" y="58.292">mx_bluesky.common.parameters</text></g><!--cluster mx_bluesky.hyperion.parameters--><g class="cluster" data-entity="mx_bluesky.hyperion.parameters" data-source-line="71" data-uid="ent0015" id="cluster_mx_bluesky.hyperion.parameters"><path d="M8.5,660.4869 L273.0322,660.4869 A3.75,3.75 0 0 1 275.5322,662.9869 L282.5322,682.7838 L1183.5,682.7838 A2.5,2.5 0 0 1 1186,685.2838 L1186,1095.2169 A2.5,2.5 0 0 1 1183.5,1097.7169 L8.5,1097.7169 A2.5,2.5 0 0 1 6,1095.2169 L6,662.9869 A2.5,2.5 0 0 1 8.5,660.4869" fill="none" style="stroke:#000000;stroke-width:1.5;"/><line style="stroke:#000000;stroke-width:1.5;" x1="6" x2="282.5322" y1="682.7838" y2="682.7838"/><text fill="#000000" font-family="sans-serif" font-size="14" font-weight="bold" lengthAdjust="spacing" textLength="263.5322" x="10" y="675.482">mx_bluesky.hyperion.parameters</text></g><!--class OptionalGonioAngleStarts--><g class="entity" data-entity="OptionalGonioAngleStarts" data-source-line="8" data-uid="ent0003" id="entity_OptionalGonioAngleStarts"><rect fill="#F1F1F1" height="113.1875" rx="2.5" ry="2.5" style="stroke:#181818;stroke-width:0.5;" width="219.3203" x="2163.34" y="94.4469"/><ellipse cx="2181.0633" cy="110.4469" fill="#ADD1B2" rx="11" ry="11" style="stroke:#181818;stroke-width:1;"/><path d="M2184.032,116.0875 Q2183.4539,116.3844 2182.8133,116.525 Q2182.1727,116.6813 2181.4695,116.6813 Q2178.9695,116.6813 2177.6414,115.0406 Q2176.3289,113.3844 2176.3289,110.2594 Q2176.3289,107.1344 2177.6414,105.4781 Q2178.9695,103.8219 2181.4695,103.8219 Q2182.1727,103.8219 2182.8133,103.9781 Q2183.4695,104.1344 2184.032,104.4313 L2184.032,107.15 Q2183.407,106.5719 2182.8133,106.3063 Q2182.2195,106.025 2181.5945,106.025 Q2180.2508,106.025 2179.5633,107.1031 Q2178.8758,108.1656 2178.8758,110.2594 Q2178.8758,112.3531 2179.5633,113.4313 Q2180.2508,114.4938 2181.5945,114.4938 Q2182.2195,114.4938 2182.8133,114.2281 Q2183.407,113.9469 2184.032,113.3688 L2184.032,116.0875 Z " fill="#000000"/><text fill="#000000" font-family="sans-serif" font-size="14" lengthAdjust="spacing" textLength="181.2686" x="2195.6685" y="115.2936">OptionalGonioAngleStarts</text><line style="stroke:#181818;stroke-width:0.5;" x1="2164.34" x2="2381.6603" y1="126.4469" y2="126.4469"/><text fill="#000000" font-family="sans-serif" font-size="14" lengthAdjust="spacing" textLength="207.3203" x="2169.34" y="143.442">float | None omega_start_deg</text><text fill="#000000" font-family="sans-serif" font-size="14" lengthAdjust="spacing" textLength="180.6875" x="2169.34" y="159.7389">float | None phi_start_deg</text><text fill="#000000" font-family="sans-serif" font-size="14" lengthAdjust="spacing" textLength="179.498" x="2169.34" y="176.0357">float | None chi_start_deg</text><text fill="#000000" font-family="sans-serif" font-size="14" lengthAdjust="spacing" textLength="202.0771" x="2169.34" y="192.3326">float | None kappa_start_deg</text><line style="stroke:#181818;stroke-width:0.5;" x1="2164.34" x2="2381.6603" y1="199.6344" y2="199.6344"/></g><!--class WithCentreSelection--><g class="entity" data-entity="WithCentreSelection" data-source-line="14" data-uid="ent0004" id="entity_WithCentreSelection"><rect fill="#F1F1F1" height="64.2969" rx="2.5" ry="2.5" style="stroke:#181818;stroke-width:0.5;" width="618.6689" x="1233.67" y="118.8869"/><ellipse cx="1466.8883" cy="134.8869" fill="#ADD1B2" rx="11" ry="11" style="stroke:#181818;stroke-width:1;"/><path d="M1469.857,140.5275 Q1469.2789,140.8244 1468.6383,140.965 Q1467.9976,141.1213 1467.2945,141.1213 Q1464.7945,141.1213 1463.4664,139.4806 Q1462.1539,137.8244 1462.1539,134.6994 Q1462.1539,131.5744 1463.4664,129.9181 Q1464.7945,128.2619 1467.2945,128.2619 Q1467.9976,128.2619 1468.6383,128.4181 Q1469.2945,128.5744 1469.857,128.8713 L1469.857,131.59 Q1469.232,131.0119 1468.6383,130.7463 Q1468.0445,130.465 1467.4195,130.465 Q1466.0758,130.465 1465.3883,131.5431 Q1464.7008,132.6056 1464.7008,134.6994 Q1464.7008,136.7931 1465.3883,137.8713 Q1466.0758,138.9338 1467.4195,138.9338 Q1468.0445,138.9338 1468.6383,138.6681 Q1469.232,138.3869 1469.857,137.8088 L1469.857,140.5275 Z " fill="#000000"/><text fill="#000000" font-family="sans-serif" font-size="14" lengthAdjust="spacing" textLength="143.7324" x="1487.3883" y="139.7336">WithCentreSelection</text><line style="stroke:#181818;stroke-width:0.5;" x1="1234.67" x2="1851.3389" y1="150.8869" y2="150.8869"/><text fill="#000000" font-family="sans-serif" font-size="14" lengthAdjust="spacing" textLength="606.6689" x="1239.67" y="167.882">TopNByMaxCountSelection | TopNByMaxCountForEachSampleSelection select_centres</text><line style="stroke:#181818;stroke-width:0.5;" x1="1234.67" x2="1851.3389" y1="175.1838" y2="175.1838"/></g><!--class WithSnapshot--><g class="entity" data-entity="WithSnapshot" data-source-line="17" data-uid="ent0005" id="entity_WithSnapshot"><rect fill="#F1F1F1" height="96.8906" rx="2.5" ry="2.5" style="stroke:#181818;stroke-width:0.5;" width="289.3477" x="2936.33" y="102.5869"/><ellipse cx="3027.9828" cy="118.5869" fill="#ADD1B2" rx="11" ry="11" style="stroke:#181818;stroke-width:1;"/><path d="M3030.9516,124.2275 Q3030.3735,124.5244 3029.7328,124.665 Q3029.0922,124.8213 3028.3891,124.8213 Q3025.8891,124.8213 3024.561,123.1806 Q3023.2485,121.5244 3023.2485,118.3994 Q3023.2485,115.2744 3024.561,113.6181 Q3025.8891,111.9619 3028.3891,111.9619 Q3029.0922,111.9619 3029.7328,112.1181 Q3030.3891,112.2744 3030.9516,112.5713 L3030.9516,115.29 Q3030.3266,114.7119 3029.7328,114.4463 Q3029.1391,114.165 3028.5141,114.165 Q3027.1703,114.165 3026.4828,115.2431 Q3025.7953,116.3056 3025.7953,118.3994 Q3025.7953,120.4931 3026.4828,121.5713 Q3027.1703,122.6338 3028.5141,122.6338 Q3029.1391,122.6338 3029.7328,122.3681 Q3030.3266,122.0869 3030.9516,121.5088 L3030.9516,124.2275 Z " fill="#000000"/><text fill="#000000" font-family="sans-serif" font-size="14" lengthAdjust="spacing" textLength="97.542" x="3048.4828" y="123.4336">WithSnapshot</text><line style="stroke:#181818;stroke-width:0.5;" x1="2937.33" x2="3224.6777" y1="134.5869" y2="134.5869"/><text fill="#000000" font-family="sans-serif" font-size="14" lengthAdjust="spacing" textLength="169.627" x="2942.33" y="151.582">Path snapshot_directory</text><text fill="#000000" font-family="sans-serif" font-size="14" lengthAdjust="spacing" textLength="277.3477" x="2942.33" y="167.8789">list[float] | None snapshot_omegas_deg</text><text fill="#000000" font-family="sans-serif" font-size="14" lengthAdjust="spacing" textLength="171.7051" x="2942.33" y="184.1757">bool use_grid_snapshots</text><line style="stroke:#181818;stroke-width:0.5;" x1="2937.33" x2="3224.6777" y1="191.4775" y2="191.4775"/></g><!--class WithPandaGridScan--><g class="entity" data-entity="WithPandaGridScan" data-source-line="22" data-uid="ent0006" id="entity_WithPandaGridScan"><rect fill="#F1F1F1" height="64.2969" rx="2.5" ry="2.5" style="stroke:#181818;stroke-width:0.5;" width="240.5664" x="1887.72" y="118.8869"/><ellipse cx="1934.3172" cy="134.8869" fill="#ADD1B2" rx="11" ry="11" style="stroke:#181818;stroke-width:1;"/><path d="M1937.2859,140.5275 Q1936.7078,140.8244 1936.0672,140.965 Q1935.4265,141.1213 1934.7234,141.1213 Q1932.2234,141.1213 1930.8953,139.4806 Q1929.5828,137.8244 1929.5828,134.6994 Q1929.5828,131.5744 1930.8953,129.9181 Q1932.2234,128.2619 1934.7234,128.2619 Q1935.4265,128.2619 1936.0672,128.4181 Q1936.7234,128.5744 1937.2859,128.8713 L1937.2859,131.59 Q1936.6609,131.0119 1936.0672,130.7463 Q1935.4734,130.465 1934.8484,130.465 Q1933.5047,130.465 1932.8172,131.5431 Q1932.1297,132.6056 1932.1297,134.6994 Q1932.1297,136.7931 1932.8172,137.8713 Q1933.5047,138.9338 1934.8484,138.9338 Q1935.4734,138.9338 1936.0672,138.6681 Q1936.6609,138.3869 1937.2859,137.8088 L1937.2859,140.5275 Z " fill="#000000"/><text fill="#000000" font-family="sans-serif" font-size="14" lengthAdjust="spacing" textLength="138.8721" x="1954.8172" y="139.7336">WithPandaGridScan</text><line style="stroke:#181818;stroke-width:0.5;" x1="1888.72" x2="2127.2864" y1="150.8869" y2="150.8869"/><text fill="#000000" font-family="sans-serif" font-size="14" lengthAdjust="spacing" textLength="228.5664" x="1893.72" y="167.882">float panda_runup_distance_mm</text><line style="stroke:#181818;stroke-width:0.5;" x1="1888.72" x2="2127.2864" y1="175.1838" y2="175.1838"/></g><!--class WithVisit--><g class="entity" data-entity="WithVisit" data-source-line="25" data-uid="ent0007" id="entity_WithVisit"><rect fill="#F1F1F1" height="129.4844" rx="2.5" ry="2.5" style="stroke:#181818;stroke-width:0.5;" width="271.7861" x="2629.11" y="86.2969"/><ellipse cx="2729.6359" cy="102.2969" fill="#ADD1B2" rx="11" ry="11" style="stroke:#181818;stroke-width:1;"/><path d="M2732.6046,107.9375 Q2732.0265,108.2344 2731.3859,108.375 Q2730.7453,108.5313 2730.0421,108.5313 Q2727.5421,108.5313 2726.214,106.8906 Q2724.9015,105.2344 2724.9015,102.1094 Q2724.9015,98.9844 2726.214,97.3281 Q2727.5421,95.6719 2730.0421,95.6719 Q2730.7453,95.6719 2731.3859,95.8281 Q2732.0421,95.9844 2732.6046,96.2813 L2732.6046,99 Q2731.9796,98.4219 2731.3859,98.1563 Q2730.7921,97.875 2730.1671,97.875 Q2728.8234,97.875 2728.1359,98.9531 Q2727.4484,100.0156 2727.4484,102.1094 Q2727.4484,104.2031 2728.1359,105.2813 Q2728.8234,106.3438 2730.1671,106.3438 Q2730.7921,106.3438 2731.3859,106.0781 Q2731.9796,105.7969 2732.6046,105.2188 L2732.6046,107.9375 Z " fill="#000000"/><text fill="#000000" font-family="sans-serif" font-size="14" lengthAdjust="spacing" textLength="62.2344" x="2750.1359" y="107.1436">WithVisit</text><line style="stroke:#181818;stroke-width:0.5;" x1="2630.11" x2="2899.8961" y1="118.2969" y2="118.2969"/><text fill="#000000" font-family="sans-serif" font-size="14" lengthAdjust="spacing" textLength="87.9717" x="2635.11" y="135.292">str beamline</text><text fill="#000000" font-family="sans-serif" font-size="14" lengthAdjust="spacing" textLength="51.8369" x="2635.11" y="151.5889">str visit</text><text fill="#000000" font-family="sans-serif" font-size="14" lengthAdjust="spacing" textLength="259.7861" x="2635.11" y="167.8857">str det_dist_to_beam_converter_path</text><text fill="#000000" font-family="sans-serif" font-size="14" lengthAdjust="spacing" textLength="131.5918" x="2635.11" y="184.1826">str insertion_prefix</text><text fill="#000000" font-family="sans-serif" font-size="14" lengthAdjust="spacing" textLength="245.752" x="2635.11" y="200.4795">float | None detector_distance_mm</text><line style="stroke:#181818;stroke-width:0.5;" x1="2630.11" x2="2899.8961" y1="207.7813" y2="207.7813"/></g><!--class WithOptionalEnergyChange--><g class="entity" data-entity="WithOptionalEnergyChange" data-source-line="32" data-uid="ent0008" id="entity_WithOptionalEnergyChange"><rect fill="#F1F1F1" height="64.2969" rx="2.5" ry="2.5" style="stroke:#181818;stroke-width:0.5;" width="235.4463" x="3260.28" y="118.8869"/><ellipse cx="3279.4645" cy="134.8869" fill="#ADD1B2" rx="11" ry="11" style="stroke:#181818;stroke-width:1;"/><path d="M3282.4332,140.5275 Q3281.8551,140.8244 3281.2145,140.965 Q3280.5738,141.1213 3279.8707,141.1213 Q3277.3707,141.1213 3276.0426,139.4806 Q3274.7301,137.8244 3274.7301,134.6994 Q3274.7301,131.5744 3276.0426,129.9181 Q3277.3707,128.2619 3279.8707,128.2619 Q3280.5738,128.2619 3281.2145,128.4181 Q3281.8707,128.5744 3282.4332,128.8713 L3282.4332,131.59 Q3281.8082,131.0119 3281.2145,130.7463 Q3280.6207,130.465 3279.9957,130.465 Q3278.652,130.465 3277.9645,131.5431 Q3277.277,132.6056 3277.277,134.6994 Q3277.277,136.7931 3277.9645,137.8713 Q3278.652,138.9338 3279.9957,138.9338 Q3280.6207,138.9338 3281.2145,138.6681 Q3281.8082,138.3869 3282.4332,137.8088 L3282.4332,140.5275 Z " fill="#000000"/><text fill="#000000" font-family="sans-serif" font-size="14" lengthAdjust="spacing" textLength="194.1475" x="3294.3944" y="139.7336">WithOptionalEnergyChange</text><line style="stroke:#181818;stroke-width:0.5;" x1="3261.28" x2="3494.7263" y1="150.8869" y2="150.8869"/><text fill="#000000" font-family="sans-serif" font-size="14" lengthAdjust="spacing" textLength="223.4463" x="3266.28" y="167.882">float | None demand_energy_ev</text><line style="stroke:#181818;stroke-width:0.5;" x1="3261.28" x2="3494.7263" y1="175.1838" y2="175.1838"/></g><!--class WithSample--><g class="entity" data-entity="WithSample" data-source-line="35" data-uid="ent0009" id="entity_WithSample"><rect fill="#F1F1F1" height="96.8906" rx="2.5" ry="2.5" style="stroke:#181818;stroke-width:0.5;" width="176.3086" x="2417.85" y="102.5869"/><ellipse cx="2459.7243" cy="118.5869" fill="#ADD1B2" rx="11" ry="11" style="stroke:#181818;stroke-width:1;"/><path d="M2462.6931,124.2275 Q2462.1149,124.5244 2461.4743,124.665 Q2460.8337,124.8213 2460.1306,124.8213 Q2457.6306,124.8213 2456.3024,123.1806 Q2454.9899,121.5244 2454.9899,118.3994 Q2454.9899,115.2744 2456.3024,113.6181 Q2457.6306,111.9619 2460.1306,111.9619 Q2460.8337,111.9619 2461.4743,112.1181 Q2462.1306,112.2744 2462.6931,112.5713 L2462.6931,115.29 Q2462.0681,114.7119 2461.4743,114.4463 Q2460.8806,114.165 2460.2556,114.165 Q2458.9118,114.165 2458.2243,115.2431 Q2457.5368,116.3056 2457.5368,118.3994 Q2457.5368,120.4931 2458.2243,121.5713 Q2458.9118,122.6338 2460.2556,122.6338 Q2460.8806,122.6338 2461.4743,122.3681 Q2462.0681,122.0869 2462.6931,121.5088 L2462.6931,124.2275 Z " fill="#000000"/><text fill="#000000" font-family="sans-serif" font-size="14" lengthAdjust="spacing" textLength="84.5879" x="2479.6964" y="123.4336">WithSample</text><line style="stroke:#181818;stroke-width:0.5;" x1="2418.85" x2="2593.1586" y1="134.5869" y2="134.5869"/><text fill="#000000" font-family="sans-serif" font-size="14" lengthAdjust="spacing" textLength="93.3789" x="2423.85" y="151.582">int sample_id</text><text fill="#000000" font-family="sans-serif" font-size="14" lengthAdjust="spacing" textLength="164.3086" x="2423.85" y="167.8789">int | None sample_puck</text><text fill="#000000" font-family="sans-serif" font-size="14" lengthAdjust="spacing" textLength="152.3936" x="2423.85" y="184.1757">int | None sample_pin</text><line style="stroke:#181818;stroke-width:0.5;" x1="2418.85" x2="2593.1586" y1="191.4775" y2="191.4775"/></g><!--class SplitScan--><g class="entity" data-entity="SplitScan" data-source-line="40" data-uid="ent0010" id="entity_SplitScan"><rect fill="#F1F1F1" height="48" rx="2.5" ry="2.5" style="stroke:#181818;stroke-width:0.5;" width="97.0781" x="3530.46" y="127.0369"/><ellipse cx="3545.46" cy="143.0369" fill="#ADD1B2" rx="11" ry="11" style="stroke:#181818;stroke-width:1;"/><path d="M3548.4288,148.6775 Q3547.8506,148.9744 3547.21,149.115 Q3546.5694,149.2713 3545.8663,149.2713 Q3543.3663,149.2713 3542.0381,147.6306 Q3540.7256,145.9744 3540.7256,142.8494 Q3540.7256,139.7244 3542.0381,138.0681 Q3543.3663,136.4119 3545.8663,136.4119 Q3546.5694,136.4119 3547.21,136.5681 Q3547.8663,136.7244 3548.4288,137.0213 L3548.4288,139.74 Q3547.8038,139.1619 3547.21,138.8963 Q3546.6163,138.615 3545.9913,138.615 Q3544.6475,138.615 3543.96,139.6931 Q3543.2725,140.7556 3543.2725,142.8494 Q3543.2725,144.9431 3543.96,146.0213 Q3544.6475,147.0838 3545.9913,147.0838 Q3546.6163,147.0838 3547.21,146.8181 Q3547.8038,146.5369 3548.4288,145.9588 L3548.4288,148.6775 Z " fill="#000000"/><text fill="#000000" font-family="sans-serif" font-size="14" lengthAdjust="spacing" textLength="65.0781" x="3559.46" y="147.8836">SplitScan</text><line style="stroke:#181818;stroke-width:0.5;" x1="3531.46" x2="3626.5381" y1="159.0369" y2="159.0369"/><line style="stroke:#181818;stroke-width:0.5;" x1="3531.46" x2="3626.5381" y1="167.0369" y2="167.0369"/></g><!--class DiffractionExperiment--><g class="entity" data-entity="DiffractionExperiment" data-source-line="44" data-uid="ent0011" id="entity_DiffractionExperiment"><rect fill="#F1F1F1" height="210.9688" rx="2.5" ry="2.5" style="stroke:#181818;stroke-width:0.5;" width="332.332" x="3651.83" y="275.7769"/><ellipse cx="3736.6127" cy="291.7769" fill="#ADD1B2" rx="11" ry="11" style="stroke:#181818;stroke-width:1;"/><path d="M3739.5815,297.4175 Q3739.0033,297.7144 3738.3627,297.855 Q3737.7221,298.0113 3737.019,298.0113 Q3734.519,298.0113 3733.1908,296.3706 Q3731.8783,294.7144 3731.8783,291.5894 Q3731.8783,288.4644 3733.1908,286.8081 Q3734.519,285.1519 3737.019,285.1519 Q3737.7221,285.1519 3738.3627,285.3081 Q3739.019,285.4644 3739.5815,285.7613 L3739.5815,288.48 Q3738.9565,287.9019 3738.3627,287.6363 Q3737.769,287.355 3737.144,287.355 Q3735.8002,287.355 3735.1127,288.4331 Q3734.4252,289.4956 3734.4252,291.5894 Q3734.4252,293.6831 3735.1127,294.7613 Q3735.8002,295.8238 3737.144,295.8238 Q3737.769,295.8238 3738.3627,295.5581 Q3738.9565,295.2769 3739.5815,294.6988 L3739.5815,297.4175 Z " fill="#000000"/><text fill="#000000" font-family="sans-serif" font-size="14" lengthAdjust="spacing" textLength="154.2666" x="3757.1127" y="296.6236">DiffractionExperiment</text><line style="stroke:#181818;stroke-width:0.5;" x1="3652.83" x2="3983.162" y1="307.7769" y2="307.7769"/><text fill="#000000" font-family="sans-serif" font-size="14" lengthAdjust="spacing" textLength="91.0137" x="3657.83" y="324.772">str file_name</text><text fill="#000000" font-family="sans-serif" font-size="14" lengthAdjust="spacing" textLength="153.7129" x="3657.83" y="341.0689">float exposure_time_s</text><text fill="#000000" font-family="sans-serif" font-size="14" lengthAdjust="spacing" textLength="89.5029" x="3657.83" y="357.3657">str comment</text><text fill="#000000" font-family="sans-serif" font-size="14" lengthAdjust="spacing" textLength="186.915" x="3657.83" y="373.6626">TriggerMode trigger_mode</text><text fill="#000000" font-family="sans-serif" font-size="14" lengthAdjust="spacing" textLength="157.9854" x="3657.83" y="389.9595">int | None run_number</text><text fill="#000000" font-family="sans-serif" font-size="14" lengthAdjust="spacing" textLength="282.3516" x="3657.83" y="406.2564">ApertureValue | None selected_aperture</text><text fill="#000000" font-family="sans-serif" font-size="14" lengthAdjust="spacing" textLength="159.2979" x="3657.83" y="422.5532">float transmission_frac</text><text fill="#000000" font-family="sans-serif" font-size="14" lengthAdjust="spacing" textLength="320.332" x="3657.83" y="438.8501">IspybExperimentType ispyb_experiment_type</text><text fill="#000000" font-family="sans-serif" font-size="14" lengthAdjust="spacing" textLength="146.1113" x="3657.83" y="455.147">str storage_directory</text><text fill="#000000" font-family="sans-serif" font-size="14" lengthAdjust="spacing" textLength="131.0518" x="3657.83" y="471.4439">bool use_roi_mode</text><line style="stroke:#181818;stroke-width:0.5;" x1="3652.83" x2="3983.162" y1="478.7456" y2="478.7456"/></g><!--class DiffractionExperimentWithSample--><g class="entity" data-entity="DiffractionExperimentWithSample" data-source-line="56" data-uid="ent0012" id="entity_DiffractionExperimentWithSample"><rect fill="#F1F1F1" height="48" rx="2.5" ry="2.5" style="stroke:#181818;stroke-width:0.5;" width="270.8545" x="3682.57" y="546.7469"/><ellipse cx="3697.57" cy="562.7469" fill="#ADD1B2" rx="11" ry="11" style="stroke:#181818;stroke-width:1;"/><path d="M3700.5388,568.3875 Q3699.9606,568.6844 3699.32,568.825 Q3698.6794,568.9813 3697.9763,568.9813 Q3695.4763,568.9813 3694.1481,567.3406 Q3692.8356,565.6844 3692.8356,562.5594 Q3692.8356,559.4344 3694.1481,557.7781 Q3695.4763,556.1219 3697.9763,556.1219 Q3698.6794,556.1219 3699.32,556.2781 Q3699.9763,556.4344 3700.5388,556.7313 L3700.5388,559.45 Q3699.9138,558.8719 3699.32,558.6063 Q3698.7263,558.325 3698.1013,558.325 Q3696.7575,558.325 3696.07,559.4031 Q3695.3825,560.4656 3695.3825,562.5594 Q3695.3825,564.6531 3696.07,565.7313 Q3696.7575,566.7938 3698.1013,566.7938 Q3698.7263,566.7938 3699.32,566.5281 Q3699.9138,566.2469 3700.5388,565.6688 L3700.5388,568.3875 Z " fill="#000000"/><text fill="#000000" font-family="sans-serif" font-size="14" lengthAdjust="spacing" textLength="238.8545" x="3711.57" y="567.5936">DiffractionExperimentWithSample</text><line style="stroke:#181818;stroke-width:0.5;" x1="3683.57" x2="3952.4245" y1="578.7469" y2="578.7469"/><line style="stroke:#181818;stroke-width:0.5;" x1="3683.57" x2="3952.4245" y1="586.7469" y2="586.7469"/></g><!--class MxBlueskyParameters--><g class="entity" data-entity="MxBlueskyParameters" data-source-line="58" data-uid="ent0013" id="entity_MxBlueskyParameters"><rect fill="#F1F1F1" height="64.2969" rx="2.5" ry="2.5" style="stroke:#181818;stroke-width:0.5;" width="317.4639" x="3664.27" y="118.8869"/><ellipse cx="3740.8564" cy="134.8869" fill="#ADD1B2" rx="11" ry="11" style="stroke:#181818;stroke-width:1;"/><path d="M3743.8252,140.5275 Q3743.2471,140.8244 3742.6064,140.965 Q3741.9658,141.1213 3741.2627,141.1213 Q3738.7627,141.1213 3737.4346,139.4806 Q3736.1221,137.8244 3736.1221,134.6994 Q3736.1221,131.5744 3737.4346,129.9181 Q3738.7627,128.2619 3741.2627,128.2619 Q3741.9658,128.2619 3742.6064,128.4181 Q3743.2627,128.5744 3743.8252,128.8713 L3743.8252,131.59 Q3743.2002,131.0119 3742.6064,130.7463 Q3742.0127,130.465 3741.3877,130.465 Q3740.0439,130.465 3739.3564,131.5431 Q3738.6689,132.6056 3738.6689,134.6994 Q3738.6689,136.7931 3739.3564,137.8713 Q3740.0439,138.9338 3741.3877,138.9338 Q3742.0127,138.9338 3742.6064,138.6681 Q3743.2002,138.3869 3743.8252,137.8088 L3743.8252,140.5275 Z " fill="#000000"/><text fill="#000000" font-family="sans-serif" font-size="14" lengthAdjust="spacing" textLength="155.791" x="3761.3564" y="139.7336">MxBlueskyParameters</text><line style="stroke:#181818;stroke-width:0.5;" x1="3665.27" x2="3980.7339" y1="150.8869" y2="150.8869"/><text fill="#000000" font-family="sans-serif" font-size="14" lengthAdjust="spacing" textLength="305.4639" x="3670.27" y="167.882">SemanticVersion parameter_model_version</text><line style="stroke:#181818;stroke-width:0.5;" x1="3665.27" x2="3980.7339" y1="175.1838" y2="175.1838"/></g><!--class GridCommon--><g class="entity" data-entity="GridCommon" data-source-line="61" data-uid="ent0014" id="entity_GridCommon"><rect fill="#F1F1F1" height="145.7813" rx="2.5" ry="2.5" style="stroke:#181818;stroke-width:0.5;" width="332.332" x="3651.83" y="654.7469"/><ellipse cx="3767.5282" cy="670.7469" fill="#ADD1B2" rx="11" ry="11" style="stroke:#181818;stroke-width:1;"/><path d="M3770.497,676.3875 Q3769.9189,676.6844 3769.2782,676.825 Q3768.6376,676.9813 3767.9345,676.9813 Q3765.4345,676.9813 3764.1064,675.3406 Q3762.7939,673.6844 3762.7939,670.5594 Q3762.7939,667.4344 3764.1064,665.7781 Q3765.4345,664.1219 3767.9345,664.1219 Q3768.6376,664.1219 3769.2782,664.2781 Q3769.9345,664.4344 3770.497,664.7313 L3770.497,667.45 Q3769.872,666.8719 3769.2782,666.6063 Q3768.6845,666.325 3768.0595,666.325 Q3766.7157,666.325 3766.0282,667.4031 Q3765.3407,668.4656 3765.3407,670.5594 Q3765.3407,672.6531 3766.0282,673.7313 Q3766.7157,674.7938 3768.0595,674.7938 Q3768.6845,674.7938 3769.2782,674.5281 Q3769.872,674.2469 3770.497,673.6688 L3770.497,676.3875 Z " fill="#000000"/><text fill="#000000" font-family="sans-serif" font-size="14" lengthAdjust="spacing" textLength="92.4355" x="3788.0282" y="675.5936">GridCommon</text><line style="stroke:#181818;stroke-width:0.5;" x1="3652.83" x2="3983.162" y1="686.7469" y2="686.7469"/><text fill="#000000" font-family="sans-serif" font-size="14" lengthAdjust="spacing" textLength="125.2959" x="3657.83" y="703.742">float box_size_um</text><text fill="#000000" font-family="sans-serif" font-size="14" lengthAdjust="spacing" textLength="138.4209" x="3657.83" y="720.0389">float grid_width_um</text><text fill="#000000" font-family="sans-serif" font-size="14" lengthAdjust="spacing" textLength="153.7129" x="3657.83" y="736.3357">float exposure_time_s</text><text fill="#000000" font-family="sans-serif" font-size="14" lengthAdjust="spacing" textLength="320.332" x="3657.83" y="752.6326">IspybExperimentType ispyb_experiment_type</text><text fill="#000000" font-family="sans-serif" font-size="14" lengthAdjust="spacing" textLength="282.3516" x="3657.83" y="768.9295">ApertureValue | None selected_aperture</text><text fill="#000000" font-family="sans-serif" font-size="14" lengthAdjust="spacing" textLength="130.498" x="3657.83" y="785.2264">float tip_offset_um</text><line style="stroke:#181818;stroke-width:0.5;" x1="3652.83" x2="3983.162" y1="792.5281" y2="792.5281"/></g><!--class PinTipCentreThenXrayCentre--><g class="entity" data-entity="PinTipCentreThenXrayCentre" data-source-line="72" data-uid="ent0016" id="entity_PinTipCentreThenXrayCentre"><rect fill="#F1F1F1" height="64.2969" rx="2.5" ry="2.5" style="stroke:#181818;stroke-width:0.5;" width="235.8955" x="336.05" y="1017.4169"/><ellipse cx="351.05" cy="1033.4169" fill="#ADD1B2" rx="11" ry="11" style="stroke:#181818;stroke-width:1;"/><path d="M354.0188,1039.0575 Q353.4406,1039.3544 352.8,1039.495 Q352.1594,1039.6513 351.4563,1039.6513 Q348.9563,1039.6513 347.6281,1038.0106 Q346.3156,1036.3544 346.3156,1033.2294 Q346.3156,1030.1044 347.6281,1028.4481 Q348.9563,1026.7919 351.4563,1026.7919 Q352.1594,1026.7919 352.8,1026.9481 Q353.4563,1027.1044 354.0188,1027.4013 L354.0188,1030.12 Q353.3938,1029.5419 352.8,1029.2763 Q352.2063,1028.995 351.5813,1028.995 Q350.2375,1028.995 349.55,1030.0731 Q348.8625,1031.1356 348.8625,1033.2294 Q348.8625,1035.3231 349.55,1036.4013 Q350.2375,1037.4638 351.5813,1037.4638 Q352.2063,1037.4638 352.8,1037.1981 Q353.3938,1036.9169 354.0188,1036.3388 L354.0188,1039.0575 Z " fill="#000000"/><text fill="#000000" font-family="sans-serif" font-size="14" lengthAdjust="spacing" textLength="203.8955" x="365.05" y="1038.2636">PinTipCentreThenXrayCentre</text><line style="stroke:#181818;stroke-width:0.5;" x1="337.05" x2="570.9455" y1="1049.4169" y2="1049.4169"/><text fill="#000000" font-family="sans-serif" font-size="14" lengthAdjust="spacing" textLength="130.498" x="342.05" y="1066.412">float tip_offset_um</text><line style="stroke:#181818;stroke-width:0.5;" x1="337.05" x2="570.9455" y1="1073.7138" y2="1073.7138"/></g><!--class RotationExperiment--><g class="entity" data-entity="RotationExperiment" data-source-line="75" data-uid="ent0017" id="entity_RotationExperiment"><rect fill="#F1F1F1" height="96.8906" rx="2.5" ry="2.5" style="stroke:#181818;stroke-width:0.5;" width="332.332" x="837.83" y="860.5269"/><ellipse cx="929.7118" cy="876.5269" fill="#ADD1B2" rx="11" ry="11" style="stroke:#181818;stroke-width:1;"/><path d="M932.6806,882.1675 Q932.1025,882.4644 931.4618,882.605 Q930.8212,882.7613 930.1181,882.7613 Q927.6181,882.7613 926.29,881.1206 Q924.9775,879.4644 924.9775,876.3394 Q924.9775,873.2144 926.29,871.5581 Q927.6181,869.9019 930.1181,869.9019 Q930.8212,869.9019 931.4618,870.0581 Q932.1181,870.2144 932.6806,870.5113 L932.6806,873.23 Q932.0556,872.6519 931.4618,872.3863 Q930.8681,872.105 930.2431,872.105 Q928.8993,872.105 928.2118,873.1831 Q927.5243,874.2456 927.5243,876.3394 Q927.5243,878.4331 928.2118,879.5113 Q928.8993,880.5738 930.2431,880.5738 Q930.8681,880.5738 931.4618,880.3081 Q932.0556,880.0269 932.6806,879.4488 L932.6806,882.1675 Z " fill="#000000"/><text fill="#000000" font-family="sans-serif" font-size="14" lengthAdjust="spacing" textLength="140.0684" x="950.2118" y="881.3736">RotationExperiment</text><line style="stroke:#181818;stroke-width:0.5;" x1="838.83" x2="1169.162" y1="892.5269" y2="892.5269"/><text fill="#000000" font-family="sans-serif" font-size="14" lengthAdjust="spacing" textLength="202.8018" x="843.83" y="909.522">float shutter_opening_time_s</text><text fill="#000000" font-family="sans-serif" font-size="14" lengthAdjust="spacing" textLength="202.9385" x="843.83" y="925.8189">float rotation_increment_deg</text><text fill="#000000" font-family="sans-serif" font-size="14" lengthAdjust="spacing" textLength="320.332" x="843.83" y="942.1157">IspybExperimentType ispyb_experiment_type</text><line style="stroke:#181818;stroke-width:0.5;" x1="838.83" x2="1169.162" y1="949.4175" y2="949.4175"/></g><!--class RotationScan--><g class="entity" data-entity="RotationScan" data-source-line="80" data-uid="ent0018" id="entity_RotationScan"><rect fill="#F1F1F1" height="64.2969" rx="2.5" ry="2.5" style="stroke:#181818;stroke-width:0.5;" width="540.001" x="630" y="1017.4169"/><ellipse cx="849.1431" cy="1033.4169" fill="#ADD1B2" rx="11" ry="11" style="stroke:#181818;stroke-width:1;"/><path d="M852.1118,1039.0575 Q851.5337,1039.3544 850.8931,1039.495 Q850.2524,1039.6513 849.5493,1039.6513 Q847.0493,1039.6513 845.7212,1038.0106 Q844.4087,1036.3544 844.4087,1033.2294 Q844.4087,1030.1044 845.7212,1028.4481 Q847.0493,1026.7919 849.5493,1026.7919 Q850.2524,1026.7919 850.8931,1026.9481 Q851.5493,1027.1044 852.1118,1027.4013 L852.1118,1030.12 Q851.4868,1029.5419 850.8931,1029.2763 Q850.2993,1028.995 849.6743,1028.995 Q848.3306,1028.995 847.6431,1030.0731 Q846.9556,1031.1356 846.9556,1033.2294 Q846.9556,1035.3231 847.6431,1036.4013 Q848.3306,1037.4638 849.6743,1037.4638 Q850.2993,1037.4638 850.8931,1037.1981 Q851.4868,1036.9169 852.1118,1036.3388 L852.1118,1039.0575 Z " fill="#000000"/><text fill="#000000" font-family="sans-serif" font-size="14" lengthAdjust="spacing" textLength="93.2148" x="869.6431" y="1038.2636">RotationScan</text><line style="stroke:#181818;stroke-width:0.5;" x1="631" x2="1169.001" y1="1049.4169" y2="1049.4169"/><line style="stroke:#181818;stroke-width:0.5;" x1="631" x2="1169.001" y1="1057.4169" y2="1057.4169"/><text fill="#000000" font-family="sans-serif" font-size="14" lengthAdjust="spacing" textLength="528.001" x="636" y="1074.412">Annotated[list[RotationScanPerSweep], Len(min_length=1)] rotation_scans</text></g><!--class GridCommonWithHyperionDetectorParams--><g class="entity" data-entity="GridCommonWithHyperionDetectorParams" data-source-line="83" data-uid="ent0019" id="entity_GridCommonWithHyperionDetectorParams"><rect fill="#F1F1F1" height="48" rx="2.5" ry="2.5" style="stroke:#181818;stroke-width:0.5;" width="333.2188" x="469.39" y="884.9769"/><ellipse cx="484.39" cy="900.9769" fill="#ADD1B2" rx="11" ry="11" style="stroke:#181818;stroke-width:1;"/><path d="M487.3588,906.6175 Q486.7806,906.9144 486.14,907.055 Q485.4994,907.2113 484.7963,907.2113 Q482.2963,907.2113 480.9681,905.5706 Q479.6556,903.9144 479.6556,900.7894 Q479.6556,897.6644 480.9681,896.0081 Q482.2963,894.3519 484.7963,894.3519 Q485.4994,894.3519 486.14,894.5081 Q486.7963,894.6644 487.3588,894.9613 L487.3588,897.68 Q486.7338,897.1019 486.14,896.8363 Q485.5463,896.555 484.9213,896.555 Q483.5775,896.555 482.89,897.6331 Q482.2025,898.6956 482.2025,900.7894 Q482.2025,902.8831 482.89,903.9613 Q483.5775,905.0238 484.9213,905.0238 Q485.5463,905.0238 486.14,904.7581 Q486.7338,904.4769 487.3588,903.8988 L487.3588,906.6175 Z " fill="#000000"/><text fill="#000000" font-family="sans-serif" font-size="14" lengthAdjust="spacing" textLength="301.2188" x="498.39" y="905.8236">GridCommonWithHyperionDetectorParams</text><line style="stroke:#181818;stroke-width:0.5;" x1="470.39" x2="801.6088" y1="916.9769" y2="916.9769"/><line style="stroke:#181818;stroke-width:0.5;" x1="470.39" x2="801.6088" y1="924.9769" y2="924.9769"/></g><!--class WithHyperionUDCFeatures--><g class="entity" data-entity="WithHyperionUDCFeatures" data-source-line="85" data-uid="ent0020" id="entity_WithHyperionUDCFeatures"><rect fill="#F1F1F1" height="64.2969" rx="2.5" ry="2.5" style="stroke:#181818;stroke-width:0.5;" width="228.6719" x="470.66" y="695.4869"/><ellipse cx="489.7583" cy="711.4869" fill="#ADD1B2" rx="11" ry="11" style="stroke:#181818;stroke-width:1;"/><path d="M492.7271,717.1275 Q492.149,717.4244 491.5083,717.565 Q490.8677,717.7213 490.1646,717.7213 Q487.6646,717.7213 486.3365,716.0806 Q485.024,714.4244 485.024,711.2994 Q485.024,708.1744 486.3365,706.5181 Q487.6646,704.8619 490.1646,704.8619 Q490.8677,704.8619 491.5083,705.0181 Q492.1646,705.1744 492.7271,705.4713 L492.7271,708.19 Q492.1021,707.6119 491.5083,707.3463 Q490.9146,707.065 490.2896,707.065 Q488.9458,707.065 488.2583,708.1431 Q487.5708,709.2056 487.5708,711.2994 Q487.5708,713.3931 488.2583,714.4713 Q488.9458,715.5338 490.2896,715.5338 Q490.9146,715.5338 491.5083,715.2681 Q492.1021,714.9869 492.7271,714.4088 L492.7271,717.1275 Z " fill="#000000"/><text fill="#000000" font-family="sans-serif" font-size="14" lengthAdjust="spacing" textLength="187.5645" x="504.6691" y="716.3336">WithHyperionUDCFeatures</text><line style="stroke:#181818;stroke-width:0.5;" x1="471.66" x2="698.3319" y1="727.4869" y2="727.4869"/><text fill="#000000" font-family="sans-serif" font-size="14" lengthAdjust="spacing" textLength="216.6719" x="476.66" y="744.482">HyperionFeatureFlags features</text><line style="stroke:#181818;stroke-width:0.5;" x1="471.66" x2="698.3319" y1="751.7838" y2="751.7838"/></g><!--class GridScanWithEdgeDetect--><g class="entity" data-entity="GridScanWithEdgeDetect" data-source-line="88" data-uid="ent0021" id="entity_GridScanWithEdgeDetect"><rect fill="#F1F1F1" height="48" rx="2.5" ry="2.5" style="stroke:#181818;stroke-width:0.5;" width="209.4268" x="45.29" y="1025.5669"/><ellipse cx="60.29" cy="1041.5669" fill="#ADD1B2" rx="11" ry="11" style="stroke:#181818;stroke-width:1;"/><path d="M63.2588,1047.2075 Q62.6806,1047.5044 62.04,1047.645 Q61.3994,1047.8013 60.6963,1047.8013 Q58.1963,1047.8013 56.8681,1046.1606 Q55.5556,1044.5044 55.5556,1041.3794 Q55.5556,1038.2544 56.8681,1036.5981 Q58.1963,1034.9419 60.6963,1034.9419 Q61.3994,1034.9419 62.04,1035.0981 Q62.6963,1035.2544 63.2588,1035.5513 L63.2588,1038.27 Q62.6338,1037.6919 62.04,1037.4263 Q61.4463,1037.145 60.8213,1037.145 Q59.4775,1037.145 58.79,1038.2231 Q58.1025,1039.2856 58.1025,1041.3794 Q58.1025,1043.4731 58.79,1044.5513 Q59.4775,1045.6138 60.8213,1045.6138 Q61.4463,1045.6138 62.04,1045.3481 Q62.6338,1045.0669 63.2588,1044.4888 L63.2588,1047.2075 Z " fill="#000000"/><text fill="#000000" font-family="sans-serif" font-size="14" lengthAdjust="spacing" textLength="177.4268" x="74.29" y="1046.4136">GridScanWithEdgeDetect</text><line style="stroke:#181818;stroke-width:0.5;" x1="46.29" x2="253.7168" y1="1057.5669" y2="1057.5669"/><line style="stroke:#181818;stroke-width:0.5;" x1="46.29" x2="253.7168" y1="1065.5669" y2="1065.5669"/></g><!--class LoadCentreCollect--><g class="entity" data-entity="LoadCentreCollect" data-source-line="90" data-uid="ent0022" id="entity_LoadCentreCollect"><rect fill="#F1F1F1" height="80.5938" rx="2.5" ry="2.5" style="stroke:#181818;stroke-width:0.5;" width="338.6211" x="95.69" y="868.6769"/><ellipse cx="196.315" cy="884.6769" fill="#ADD1B2" rx="11" ry="11" style="stroke:#181818;stroke-width:1;"/><path d="M199.2838,890.3175 Q198.7056,890.6144 198.065,890.755 Q197.4244,890.9113 196.7213,890.9113 Q194.2213,890.9113 192.8931,889.2706 Q191.5806,887.6144 191.5806,884.4894 Q191.5806,881.3644 192.8931,879.7081 Q194.2213,878.0519 196.7213,878.0519 Q197.4244,878.0519 198.065,878.2081 Q198.7213,878.3644 199.2838,878.6613 L199.2838,881.38 Q198.6588,880.8019 198.065,880.5363 Q197.4713,880.255 196.8463,880.255 Q195.5025,880.255 194.815,881.3331 Q194.1275,882.3956 194.1275,884.4894 Q194.1275,886.5831 194.815,887.6613 Q195.5025,888.7238 196.8463,888.7238 Q197.4713,888.7238 198.065,888.4581 Q198.6588,888.1769 199.2838,887.5988 L199.2838,890.3175 Z " fill="#000000"/><text fill="#000000" font-family="sans-serif" font-size="14" lengthAdjust="spacing" textLength="128.8711" x="216.815" y="889.5236">LoadCentreCollect</text><line style="stroke:#181818;stroke-width:0.5;" x1="96.69" x2="433.3111" y1="900.6769" y2="900.6769"/><text fill="#000000" font-family="sans-serif" font-size="14" lengthAdjust="spacing" textLength="326.6211" x="101.69" y="917.672">RobotLoadThenCentre robot_load_then_centre</text><text fill="#000000" font-family="sans-serif" font-size="14" lengthAdjust="spacing" textLength="235.0947" x="101.69" y="933.9689">RotationScan multi_rotation_scan</text><line style="stroke:#181818;stroke-width:0.5;" x1="96.69" x2="433.3111" y1="941.2706" y2="941.2706"/></g><!--reverse link GridCommonWithHyperionDetectorParams to PinTipCentreThenXrayCentre--><g class="link" data-entity-1="GridCommonWithHyperionDetectorParams" data-entity-2="PinTipCentreThenXrayCentre" data-source-line="95" data-uid="lnk23" id="link_GridCommonWithHyperionDetectorParams_PinTipCentreThenXrayCentre"><path codeLine="95" d="M591.2179,944.0799 C561.0579,967.0399 528.99,991.4569 495.49,1016.9769" fill="none" id="GridCommonWithHyperionDetectorParams-backto-PinTipCentreThenXrayCentre" style="stroke:#181818;stroke-width:1;"/><polygon fill="none" points="605.54,933.1769,587.5835,939.3059,594.8522,948.854,605.54,933.1769" style="stroke:#181818;stroke-width:1;"/></g><!--reverse link WithHyperionUDCFeatures to PinTipCentreThenXrayCentre--><g class="link" data-entity-1="WithHyperionUDCFeatures" data-entity-2="PinTipCentreThenXrayCentre" data-source-line="96" data-uid="lnk24" id="link_WithHyperionUDCFeatures_PinTipCentreThenXrayCentre"><path codeLine="96" d="M452.3395,744.7211 C317.9695,763.2911 125.56,799.0069 78,860.5269 C51.66,894.5969 51.38,923.5769 78,957.4169 C94.27,978.1069 231.59,1007.6369 335.61,1027.4169" fill="none" id="WithHyperionUDCFeatures-backto-PinTipCentreThenXrayCentre" style="stroke:#181818;stroke-width:1;"/><polygon fill="none" points="470.17,742.2569,451.5181,738.7776,453.1609,750.6646,470.17,742.2569" style="stroke:#181818;stroke-width:1;"/></g><!--reverse link DiffractionExperiment to DiffractionExperimentWithSample--><g class="link" data-entity-1="DiffractionExperiment" data-entity-2="DiffractionExperimentWithSample" data-source-line="97" data-uid="lnk25" id="link_DiffractionExperiment_DiffractionExperimentWithSample"><path codeLine="97" d="M3818,505.2469 C3818,527.4969 3818,530.8969 3818,546.3269" fill="none" id="DiffractionExperiment-backto-DiffractionExperimentWithSample" style="stroke:#181818;stroke-width:1;"/><polygon fill="none" points="3818,487.2469,3812,505.2469,3824,505.2469,3818,487.2469" style="stroke:#181818;stroke-width:1;"/></g><!--reverse link WithSample to DiffractionExperimentWithSample--><g class="link" data-entity-1="WithSample" data-entity-2="DiffractionExperimentWithSample" data-source-line="98" data-uid="lnk26" id="link_WithSample_DiffractionExperimentWithSample"><path codeLine="98" d="M2584.761,209.6282 C2598.281,218.4182 2597.71,217.0969 2612,223.7769 C2983.23,397.2769 3460.12,502.6069 3686.91,546.2669" fill="none" id="WithSample-backto-DiffractionExperimentWithSample" style="stroke:#181818;stroke-width:1;"/><polygon fill="none" points="2569.67,199.8169,2581.4905,214.6586,2588.0314,204.5979,2569.67,199.8169" style="stroke:#181818;stroke-width:1;"/></g><!--reverse link DiffractionExperiment to RotationExperiment--><g class="link" data-entity-1="DiffractionExperiment" data-entity-2="RotationExperiment" data-source-line="99" data-uid="lnk27" id="link_DiffractionExperiment_RotationExperiment"><path codeLine="99" d="M3633.9871,428.9212 C3281.3171,517.0612 2449.66,717.3669 1727,832.5269 C1537.25,862.7669 1317.47,883.7269 1170.5,895.7469" fill="none" id="DiffractionExperiment-backto-RotationExperiment" style="stroke:#181818;stroke-width:1;"/><polygon fill="none" points="3651.45,424.5569,3632.5323,423.1003,3635.4419,434.7422,3651.45,424.5569" style="stroke:#181818;stroke-width:1;"/></g><!--reverse link WithHyperionUDCFeatures to RotationExperiment--><g class="link" data-entity-1="WithHyperionUDCFeatures" data-entity-2="RotationExperiment" data-source-line="100" data-uid="lnk28" id="link_WithHyperionUDCFeatures_RotationExperiment"><path codeLine="100" d="M675.0084,767.1685 C739.6684,794.8385 818.24,828.4669 892.32,860.1769" fill="none" id="WithHyperionUDCFeatures-backto-RotationExperiment" style="stroke:#181818;stroke-width:1;"/><polygon fill="none" points="658.46,760.0869,672.6479,772.6846,677.369,761.6523,658.46,760.0869" style="stroke:#181818;stroke-width:1;"/></g><!--reverse link MxBlueskyParameters to DiffractionExperiment--><g class="link" data-entity-1="MxBlueskyParameters" data-entity-2="DiffractionExperiment" data-source-line="101" data-uid="lnk29" id="link_MxBlueskyParameters_DiffractionExperiment"><path codeLine="101" d="M3821.9223,201.2925 C3821.3923,225.2725 3821.03,241.8669 3820.3,275.3869" fill="none" id="MxBlueskyParameters-backto-DiffractionExperiment" style="stroke:#181818;stroke-width:1;"/><polygon fill="none" points="3822.32,183.2969,3815.9237,201.1599,3827.9208,201.4251,3822.32,183.2969" style="stroke:#181818;stroke-width:1;"/></g><!--reverse link WithSnapshot to DiffractionExperiment--><g class="link" data-entity-1="WithSnapshot" data-entity-2="DiffractionExperiment" data-source-line="102" data-uid="lnk30" id="link_WithSnapshot_DiffractionExperiment"><path codeLine="102" d="M3199.4272,207.0646 C3219.1572,215.5446 3223.29,216.7769 3243,223.7769 C3378.15,271.7869 3535.53,313.6869 3651.44,342.0169" fill="none" id="WithSnapshot-backto-DiffractionExperiment" style="stroke:#181818;stroke-width:1;"/><polygon fill="none" points="3182.89,199.9569,3197.058,212.577,3201.7965,201.5522,3182.89,199.9569" style="stroke:#181818;stroke-width:1;"/></g><!--reverse link WithOptionalEnergyChange to DiffractionExperiment--><g class="link" data-entity-1="WithOptionalEnergyChange" data-entity-2="DiffractionExperiment" data-source-line="103" data-uid="lnk31" id="link_WithOptionalEnergyChange_DiffractionExperiment"><path codeLine="103" d="M3452.934,192.1143 C3476.514,204.6843 3488.06,210.7569 3513,223.7769 C3557.84,247.1969 3606.53,272.3169 3651.57,295.4169" fill="none" id="WithOptionalEnergyChange-backto-DiffractionExperiment" style="stroke:#181818;stroke-width:1;"/><polygon fill="none" points="3437.05,183.6469,3450.1116,197.409,3455.7565,186.8196,3437.05,183.6469" style="stroke:#181818;stroke-width:1;"/></g><!--reverse link WithVisit to DiffractionExperiment--><g class="link" data-entity-1="WithVisit" data-entity-2="DiffractionExperiment" data-source-line="104" data-uid="lnk32" id="link_WithVisit_DiffractionExperiment"><path codeLine="104" d="M2913.7032,222.4422 C2921.1232,225.2122 2911.68,221.4869 2919,223.7769 C3168.02,301.9469 3468.86,344.3169 3651.68,364.5869" fill="none" id="WithVisit-backto-DiffractionExperiment" style="stroke:#181818;stroke-width:1;"/><polygon fill="none" points="2896.84,216.1469,2911.6048,228.0633,2915.8017,216.8211,2896.84,216.1469" style="stroke:#181818;stroke-width:1;"/></g><!--reverse link DiffractionExperimentWithSample to GridCommon--><g class="link" data-entity-1="DiffractionExperimentWithSample" data-entity-2="GridCommon" data-source-line="105" data-uid="lnk33" id="link_DiffractionExperimentWithSample_GridCommon"><path codeLine="105" d="M3818,612.9369 C3818,628.8869 3818,633.0069 3818,654.5669" fill="none" id="DiffractionExperimentWithSample-backto-GridCommon" style="stroke:#181818;stroke-width:1;"/><polygon fill="none" points="3818,594.9369,3812,612.9369,3824,612.9369,3818,594.9369" style="stroke:#181818;stroke-width:1;"/></g><!--reverse link OptionalGonioAngleStarts to GridCommon--><g class="link" data-entity-1="OptionalGonioAngleStarts" data-entity-2="GridCommon" data-source-line="106" data-uid="lnk34" id="link_OptionalGonioAngleStarts_GridCommon"><path codeLine="106" d="M2344.8685,219.9684 C2427.0085,295.0184 2570.87,415.1769 2729,486.7469 C3037.21,626.2369 3432.08,687.0769 3651.68,711.6369" fill="none" id="OptionalGonioAngleStarts-backto-GridCommon" style="stroke:#181818;stroke-width:1;"/><polygon fill="none" points="2331.58,207.8269,2340.8213,224.3979,2348.9157,215.5389,2331.58,207.8269" style="stroke:#181818;stroke-width:1;"/></g><!--reverse link RotationExperiment to RotationScan--><g class="link" data-entity-1="RotationExperiment" data-entity-2="RotationScan" data-source-line="107" data-uid="lnk35" id="link_RotationExperiment_RotationScan"><path codeLine="107" d="M957.4077,972.0651 C942.5977,991.8051 936.65,999.7269 923.45,1017.3169" fill="none" id="RotationExperiment-backto-RotationScan" style="stroke:#181818;stroke-width:1;"/><polygon fill="none" points="968.21,957.6669,952.6082,968.4643,962.2071,975.6659,968.21,957.6669" style="stroke:#181818;stroke-width:1;"/></g><!--reverse link SplitScan to RotationScan--><g class="link" data-entity-1="SplitScan" data-entity-2="RotationScan" data-source-line="108" data-uid="lnk36" id="link_SplitScan_RotationScan"><path codeLine="108" d="M3600.462,190.7851 C3610.282,207.1251 3616.4,212.5469 3636,223.7769 C3777.77,305.0769 3885.41,159.2669 4000,275.7769 C4092.33,369.6669 4037,438.0669 4037,569.7469 C4037,569.7469 4037,569.7469 4037,728.6369 C4037,777.6569 4039.05,802.8969 4000,832.5269 C3777.32,1001.4969 1883.44,1038.4769 1170.21,1046.4269" fill="none" id="SplitScan-backto-RotationScan" style="stroke:#181818;stroke-width:1;"/><polygon fill="none" points="3591.19,175.3569,3595.3193,193.8758,3605.6048,187.6944,3591.19,175.3569" style="stroke:#181818;stroke-width:1;"/></g><!--reverse link GridCommon to GridCommonWithHyperionDetectorParams--><g class="link" data-entity-1="GridCommon" data-entity-2="GridCommonWithHyperionDetectorParams" data-source-line="109" data-uid="lnk37" id="link_GridCommon_GridCommonWithHyperionDetectorParams"><path codeLine="109" d="M3633.3776,738.9825 C3279.2176,758.6025 2443.36,803.6769 1727,832.5269 C1525.51,840.6469 1019.63,832.0669 820,860.5269 C783.75,865.6969 744.34,875.3069 711.33,884.5269" fill="none" id="GridCommon-backto-GridCommonWithHyperionDetectorParams" style="stroke:#181818;stroke-width:1;"/><polygon fill="none" points="3651.35,737.9869,3633.0457,732.9917,3633.7094,744.9733,3651.35,737.9869" style="stroke:#181818;stroke-width:1;"/></g><!--reverse link WithHyperionUDCFeatures to GridCommonWithHyperionDetectorParams--><g class="link" data-entity-1="WithHyperionUDCFeatures" data-entity-2="GridCommonWithHyperionDetectorParams" data-source-line="110" data-uid="lnk38" id="link_WithHyperionUDCFeatures_GridCommonWithHyperionDetectorParams"><path codeLine="110" d="M598.8076,777.1893 C608.9176,812.7093 620.25,852.5969 629.33,884.5169" fill="none" id="WithHyperionUDCFeatures-backto-GridCommonWithHyperionDetectorParams" style="stroke:#181818;stroke-width:1;"/><polygon fill="none" points="593.88,759.8769,593.0368,778.8318,604.5784,775.5467,593.88,759.8769" style="stroke:#181818;stroke-width:1;"/></g><!--reverse link WithPandaGridScan to WithHyperionUDCFeatures--><g class="link" data-entity-1="WithPandaGridScan" data-entity-2="WithHyperionUDCFeatures" data-source-line="111" data-uid="lnk39" id="link_WithPandaGridScan_WithHyperionUDCFeatures"><path codeLine="111" d="M1944.4692,192.6901 C1918.8592,207.7701 1901.68,215.2369 1870,223.7769 C1753.05,255.3369 880.69,206.9569 781,275.7769 C635.25,376.3969 597.01,610.1069 587.75,695.0569" fill="none" id="WithPandaGridScan-backto-WithHyperionUDCFeatures" style="stroke:#181818;stroke-width:1;"/><polygon fill="none" points="1959.98,183.5569,1941.4248,187.5199,1947.5136,197.8604,1959.98,183.5569" style="stroke:#181818;stroke-width:1;"/></g><!--reverse link GridCommonWithHyperionDetectorParams to GridScanWithEdgeDetect--><g class="link" data-entity-1="GridCommonWithHyperionDetectorParams" data-entity-2="GridScanWithEdgeDetect" data-source-line="112" data-uid="lnk40" id="link_GridCommonWithHyperionDetectorParams_GridScanWithEdgeDetect"><path codeLine="112" d="M536.5202,938.3434 C446.9302,963.8934 321.71,999.5969 232.13,1025.1469" fill="none" id="GridCommonWithHyperionDetectorParams-backto-GridScanWithEdgeDetect" style="stroke:#181818;stroke-width:1;"/><polygon fill="none" points="553.83,933.4069,534.8746,932.5735,538.1657,944.1134,553.83,933.4069" style="stroke:#181818;stroke-width:1;"/></g><!--reverse link WithHyperionUDCFeatures to GridScanWithEdgeDetect--><g class="link" data-entity-1="WithHyperionUDCFeatures" data-entity-2="GridScanWithEdgeDetect" data-source-line="113" data-uid="lnk41" id="link_WithHyperionUDCFeatures_GridScanWithEdgeDetect"><path codeLine="113" d="M452.4143,742.7715 C311.3343,760.1015 102.07,795.3069 51,860.5269 C24.45,894.4369 33.7,917.9869 51,957.4169 C63.43,985.7669 89.52,1009.1869 111.79,1025.1869" fill="none" id="WithHyperionUDCFeatures-backto-GridScanWithEdgeDetect" style="stroke:#181818;stroke-width:1;"/><polygon fill="none" points="470.28,740.5769,451.6828,736.8162,453.1458,748.7267,470.28,740.5769" style="stroke:#181818;stroke-width:1;"/></g><!--reverse link MxBlueskyParameters to LoadCentreCollect--><g class="link" data-entity-1="MxBlueskyParameters" data-entity-2="LoadCentreCollect" data-source-line="114" data-uid="lnk42" id="link_MxBlueskyParameters_LoadCentreCollect"><path codeLine="114" d="M3958.0081,190.4175 C4004.3181,209.2175 4036.04,231.5469 4063,275.7769 C4125.12,377.6969 4007.77,827.6569 4002,832.5269 C3964.35,864.3669 500.9,854.2269 452,860.5269 C437.3,862.4269 422.1,865.0769 407,868.1769" fill="none" id="MxBlueskyParameters-backto-LoadCentreCollect" style="stroke:#181818;stroke-width:1;"/><polygon fill="none" points="3941.33,183.6469,3955.7512,195.9769,3960.265,184.8581,3941.33,183.6469" style="stroke:#181818;stroke-width:1;"/></g><!--reverse link WithVisit to LoadCentreCollect--><g class="link" data-entity-1="WithVisit" data-entity-2="LoadCentreCollect" data-source-line="115" data-uid="lnk43" id="link_WithVisit_LoadCentreCollect"><path codeLine="115" d="M2617.0348,223.9878 C2319.3448,365.5678 1584.63,695.1069 915,832.5269 C713.06,873.9769 655.7,828.8169 452,860.5269 C438.51,862.6269 424.58,865.2669 410.69,868.2069" fill="none" id="WithVisit-backto-LoadCentreCollect" style="stroke:#181818;stroke-width:1;"/><polygon fill="none" points="2633.29,216.2569,2614.4578,218.5694,2619.6117,229.4062,2633.29,216.2569" style="stroke:#181818;stroke-width:1;"/></g><!--reverse link WithSample to LoadCentreCollect--><g class="link" data-entity-1="WithSample" data-entity-2="LoadCentreCollect" data-source-line="116" data-uid="lnk44" id="link_WithSample_LoadCentreCollect"><path codeLine="116" d="M2431.93,209.6604 C2417.34,219.1904 2416.27,218.1469 2400,223.7769 C2094.73,329.4669 1983.71,180.6169 1675,275.7769 C1204.39,420.8569 1185.1,679.5569 717,832.5269 C604.43,869.3169 568.59,839.6869 452,860.5269 C439.47,862.7669 426.54,865.3869 413.61,868.2269" fill="none" id="WithSample-backto-LoadCentreCollect" style="stroke:#181818;stroke-width:1;"/><polygon fill="none" points="2447,199.8169,2428.6488,204.6371,2435.2112,214.6837,2447,199.8169" style="stroke:#181818;stroke-width:1;"/></g><!--reverse link WithCentreSelection to LoadCentreCollect--><g class="link" data-entity-1="WithCentreSelection" data-entity-2="LoadCentreCollect" data-source-line="117" data-uid="lnk45" id="link_WithCentreSelection_LoadCentreCollect"><path codeLine="117" d="M1215.2987,166.2567 C990.1487,181.0467 726.59,210.9769 630,275.7769 C408.99,424.0669 304.96,754.4769 274.71,868.4369" fill="none" id="WithCentreSelection-backto-LoadCentreCollect" style="stroke:#181818;stroke-width:1;"/><polygon fill="none" points="1233.26,165.0769,1214.9054,160.2696,1215.692,172.2438,1233.26,165.0769" style="stroke:#181818;stroke-width:1;"/></g><!--reverse link WithHyperionUDCFeatures to LoadCentreCollect--><g class="link" data-entity-1="WithHyperionUDCFeatures" data-entity-2="LoadCentreCollect" data-source-line="118" data-uid="lnk46" id="link_WithHyperionUDCFeatures_LoadCentreCollect"><path codeLine="118" d="M513.1873,768.886 C459.5073,798.966 394.03,835.6569 335.9,868.2469" fill="none" id="WithHyperionUDCFeatures-backto-LoadCentreCollect" style="stroke:#181818;stroke-width:1;"/><polygon fill="none" points="528.89,760.0869,510.2542,763.6518,516.1203,774.1202,528.89,760.0869" style="stroke:#181818;stroke-width:1;"/></g><!--SRC=[bLPBR-Cs43vRluAtja0JeFVsa7MIRO7DrbYxQO55GD3IM292aGGvojhrvh_la9HaovRj13wOdFVZcw5-MbJIivLKmEXVD6YkIj3W14B1bXlMNRXLGcDJgskxoJAKI0f_RYmuQJIR2ITgG73imHIWCW_8D56y5JdCmH8RZMFQQCWoeZsB4bYzvalLW7_UNEUches-jfqPpxOPcXAm8fFRB5V2U_QtHV8br4UZfRdHfO8v2eT-cqrMoWXatzbdSi1C3QNWFl1u0UK1rrRo92y_mtiMrkvRVMsZ-bTYDGMDZl9Ka8SGAQ25iPy_R1x4UceQZJs7Z0qvzyRTYRoQYzggdG7cuuddqQuV-9fhONrba9pC15RCjtTUI4SwncsoYP8UlyRedxhmUx5O7PyIN1gZMEE1bquMl1CP-fi9NOYFn9_dGlUbje7ANQCRIuwfAZe7NjS3pKVfPGZJesDB4BMIrFruUmcST2m0em6EXWSXdXlz0eumm2sbbuIazaIYmd3hO2NN1wqX6p7pav5qoBaZA9URQILq2TiZ8pNbn26AS7WP5ZtsXrIaHkRZXSiYNRi29wfjykTHkjIznRbL4bCvN-bt1FHRkLev4P5mjmuJLXCEsaA6GULXjBhmOMsDRnnm937karIO9z8X73fPbk32L39CPrxJPH0YjP7hfbw2ooOtv0_9tAEWqUnpY724WekMspb79xIlfVUXDo7cRFANjvlbBkm5hGXQB4JZq1Cv4ZL5wgblj0psqTkZqXcPWdqzLvZz_dI23-iFQRFqYobiYNbeCShyaQvXolfr4xqe_fBelPM0-cdSJ3rObcRDlVmVU5Dtf3WxtsI1rHxng2llACixMo0jDwiLRTpW_ZN-HZPirQxguOvDUSwaNaYRbjYY0lsV4vjqsvxoaXI_61H7A4qAlcemLDPOq5ANVHqIrxMANEhSGSmzBgItL-amX7OxtMWT251yZJjmdpi3D_y6O9z-PPz0_rnBpHNe4gi_VllbQHUH9r4_0e40i-wzksqNJaINtmvMHIVpp-tq7aJeL81UHsr9zqgKzEYs_86t46gmSrUKaFpix7yoeaYDcHgb8clonImD1aReN69ICaJZLEc2qsBHxJiIP7VbO7MZKF91tX4yRqcP_VxzwkeCRh8JbRYeDphXIUl2y6UxuzlapxWwnlNvX4RaHpRGcR2o_PVzajpOQtP99xx5vuGkL2kfxg2HdVeOEn8yhismPW6BMVyYZl1sjWvjdyRd-NQzsSBWsoVfdZ3yZgaP7_BB4O_ed0JPqQ8u1C6um7wlnoKEldJFYPvCvaZy1m00]--></g></svg>