<svg xmlns="http://www.w3.org/2000/svg" xmlns:xlink="http://www.w3.org/1999/xlink" contentStyleType="text/css" data-diagram-type="CLASS" height="1391px" preserveAspectRatio="none" style="width:4466px;height:1391px;background:#FFFFFF;" version="1.1" viewBox="0 0 4466 1391" width="4466px" zoomAndPan="magnify"><title>Hyperion Parameter Model</title><defs/><g><g class="title" data-source-line="3"><text fill="#000000" font-family="sans-serif" font-size="14" font-weight="bold" lengthAdjust="spacing" textLength="212.4951" x="2119.8524" y="22.9951">Hyperion Parameter Model</text></g><!--cluster mx_bluesky.common.parameters--><g class="cluster" data-entity="mx_bluesky.common.parameters" data-source-line="6" data-uid="ent0002" id="cluster_mx_bluesky.common.parameters"><path d="M8.5,43.2969 L269.8125,43.2969 A3.75,3.75 0 0 1 272.3125,45.7969 L279.3125,65.5938 L2783.5,65.5938 A2.5,2.5 0 0 1 2786,68.0938 L2786,1109.2969 A2.5,2.5 0 0 1 2783.5,1111.7969 L8.5,1111.7969 A2.5,2.5 0 0 1 6,1109.2969 L6,45.7969 A2.5,2.5 0 0 1 8.5,43.2969" fill="none" style="stroke:#000000;stroke-width:1.5;"/><line style="stroke:#000000;stroke-width:1.5;" x1="6" x2="279.3125" y1="65.5938" y2="65.5938"/><text fill="#000000" font-family="sans-serif" font-size="14" font-weight="bold" lengthAdjust="spacing" textLength="260.3125" x="10" y="58.292">mx_bluesky.common.parameters</text></g><!--cluster mx_bluesky.hyperion.parameters--><g class="cluster" data-entity="mx_bluesky.hyperion.parameters" data-source-line="92" data-uid="ent0019" id="cluster_mx_bluesky.hyperion.parameters"><path d="M2812.5,907.0169 L3077.0322,907.0169 A3.75,3.75 0 0 1 3079.5322,909.5169 L3086.5322,929.3138 L4296.5,929.3138 A2.5,2.5 0 0 1 4299,931.8138 L4299,1382.4869 A2.5,2.5 0 0 1 4296.5,1384.9869 L2812.5,1384.9869 A2.5,2.5 0 0 1 2810,1382.4869 L2810,909.5169 A2.5,2.5 0 0 1 2812.5,907.0169" fill="none" style="stroke:#000000;stroke-width:1.5;"/><line style="stroke:#000000;stroke-width:1.5;" x1="2810" x2="3086.5322" y1="929.3138" y2="929.3138"/><text fill="#000000" font-family="sans-serif" font-size="14" font-weight="bold" lengthAdjust="spacing" textLength="263.5322" x="2814" y="922.012">mx_bluesky.hyperion.parameters</text></g><!--class WithSnapshot--><g class="entity" data-entity="WithSnapshot" data-source-line="8" data-uid="ent0003" id="entity_WithSnapshot"><rect fill="#F1F1F1" height="80.5938" rx="2.5" ry="2.5" style="stroke:#181818;stroke-width:0.5;" width="289.3477" x="1499.33" y="110.7469"/><ellipse cx="1590.9828" cy="126.7469" fill="#ADD1B2" rx="11" ry="11" style="stroke:#181818;stroke-width:1;"/><path d="M1593.9516,132.3875 Q1593.3735,132.6844 1592.7328,132.825 Q1592.0922,132.9813 1591.3891,132.9813 Q1588.8891,132.9813 1587.561,131.3406 Q1586.2485,129.6844 1586.2485,126.5594 Q1586.2485,123.4344 1587.561,121.7781 Q1588.8891,120.1219 1591.3891,120.1219 Q1592.0922,120.1219 1592.7328,120.2781 Q1593.3891,120.4344 1593.9516,120.7313 L1593.9516,123.45 Q1593.3266,122.8719 1592.7328,122.6063 Q1592.1391,122.325 1591.5141,122.325 Q1590.1703,122.325 1589.4828,123.4031 Q1588.7953,124.4656 1588.7953,126.5594 Q1588.7953,128.6531 1589.4828,129.7313 Q1590.1703,130.7938 1591.5141,130.7938 Q1592.1391,130.7938 1592.7328,130.5281 Q1593.3266,130.2469 1593.9516,129.6688 L1593.9516,132.3875 Z " fill="#000000"/><text fill="#000000" font-family="sans-serif" font-size="14" lengthAdjust="spacing" textLength="97.542" x="1611.4828" y="131.5936">WithSnapshot</text><line style="stroke:#181818;stroke-width:0.5;" x1="1500.33" x2="1787.6777" y1="142.7469" y2="142.7469"/><text fill="#000000" font-family="sans-serif" font-size="14" lengthAdjust="spacing" textLength="169.627" x="1505.33" y="159.742">Path snapshot_directory</text><text fill="#000000" font-family="sans-serif" font-size="14" lengthAdjust="spacing" textLength="277.3477" x="1505.33" y="176.0389">list[float] | None snapshot_omegas_deg</text><line style="stroke:#181818;stroke-width:0.5;" x1="1500.33" x2="1787.6777" y1="183.3406" y2="183.3406"/></g><!--class SpecifiedGrid--><g class="entity" data-entity="SpecifiedGrid" data-source-line="12" data-uid="ent0004" id="entity_SpecifiedGrid"><rect fill="#F1F1F1" height="48" rx="2.5" ry="2.5" style="stroke:#181818;stroke-width:0.5;" width="125.6729" x="2158.16" y="357.2669"/><ellipse cx="2173.16" cy="373.2669" fill="#ADD1B2" rx="11" ry="11" style="stroke:#181818;stroke-width:1;"/><path d="M2176.1288,378.9075 Q2175.5506,379.2044 2174.91,379.345 Q2174.2694,379.5013 2173.5663,379.5013 Q2171.0663,379.5013 2169.7381,377.8606 Q2168.4256,376.2044 2168.4256,373.0794 Q2168.4256,369.9544 2169.7381,368.2981 Q2171.0663,366.6419 2173.5663,366.6419 Q2174.2694,366.6419 2174.91,366.7981 Q2175.5663,366.9544 2176.1288,367.2513 L2176.1288,369.97 Q2175.5038,369.3919 2174.91,369.1263 Q2174.3163,368.845 2173.6913,368.845 Q2172.3475,368.845 2171.66,369.9231 Q2170.9725,370.9856 2170.9725,373.0794 Q2170.9725,375.1731 2171.66,376.2513 Q2172.3475,377.3138 2173.6913,377.3138 Q2174.3163,377.3138 2174.91,377.0481 Q2175.5038,376.7669 2176.1288,376.1888 L2176.1288,378.9075 Z " fill="#000000"/><text fill="#000000" font-family="sans-serif" font-size="14" lengthAdjust="spacing" textLength="93.6729" x="2187.16" y="378.1136">SpecifiedGrid</text><line style="stroke:#181818;stroke-width:0.5;" x1="2159.16" x2="2282.8329" y1="389.2669" y2="389.2669"/><line style="stroke:#181818;stroke-width:0.5;" x1="2159.16" x2="2282.8329" y1="397.2669" y2="397.2669"/></g><!--class OptionalGonioAngleStarts--><g class="entity" data-entity="OptionalGonioAngleStarts" data-source-line="14" data-uid="ent0005" id="entity_OptionalGonioAngleStarts"><rect fill="#F1F1F1" height="113.1875" rx="2.5" ry="2.5" style="stroke:#181818;stroke-width:0.5;" width="219.3203" x="1033.34" y="94.4469"/><ellipse cx="1051.0633" cy="110.4469" fill="#ADD1B2" rx="11" ry="11" style="stroke:#181818;stroke-width:1;"/><path d="M1054.032,116.0875 Q1053.4539,116.3844 1052.8133,116.525 Q1052.1727,116.6813 1051.4695,116.6813 Q1048.9695,116.6813 1047.6414,115.0406 Q1046.3289,113.3844 1046.3289,110.2594 Q1046.3289,107.1344 1047.6414,105.4781 Q1048.9695,103.8219 1051.4695,103.8219 Q1052.1727,103.8219 1052.8133,103.9781 Q1053.4695,104.1344 1054.032,104.4313 L1054.032,107.15 Q1053.407,106.5719 1052.8133,106.3063 Q1052.2195,106.025 1051.5945,106.025 Q1050.2508,106.025 1049.5633,107.1031 Q1048.8758,108.1656 1048.8758,110.2594 Q1048.8758,112.3531 1049.5633,113.4313 Q1050.2508,114.4938 1051.5945,114.4938 Q1052.2195,114.4938 1052.8133,114.2281 Q1053.407,113.9469 1054.032,113.3688 L1054.032,116.0875 Z " fill="#000000"/><text fill="#000000" font-family="sans-serif" font-size="14" lengthAdjust="spacing" textLength="181.2686" x="1065.6685" y="115.2936">OptionalGonioAngleStarts</text><line style="stroke:#181818;stroke-width:0.5;" x1="1034.34" x2="1251.6603" y1="126.4469" y2="126.4469"/><text fill="#000000" font-family="sans-serif" font-size="14" lengthAdjust="spacing" textLength="207.3203" x="1039.34" y="143.442">float | None omega_start_deg</text><text fill="#000000" font-family="sans-serif" font-size="14" lengthAdjust="spacing" textLength="180.6875" x="1039.34" y="159.7389">float | None phi_start_deg</text><text fill="#000000" font-family="sans-serif" font-size="14" lengthAdjust="spacing" textLength="179.498" x="1039.34" y="176.0357">float | None chi_start_deg</text><text fill="#000000" font-family="sans-serif" font-size="14" lengthAdjust="spacing" textLength="202.0771" x="1039.34" y="192.3326">float | None kappa_start_deg</text><line style="stroke:#181818;stroke-width:0.5;" x1="1034.34" x2="1251.6603" y1="199.6344" y2="199.6344"/></g><!--class WithVisit--><g class="entity" data-entity="WithVisit" data-source-line="20" data-uid="ent0006" id="entity_WithVisit"><rect fill="#F1F1F1" height="129.4844" rx="2.5" ry="2.5" style="stroke:#181818;stroke-width:0.5;" width="271.7861" x="191.11" y="86.2969"/><ellipse cx="291.6359" cy="102.2969" fill="#ADD1B2" rx="11" ry="11" style="stroke:#181818;stroke-width:1;"/><path d="M294.6046,107.9375 Q294.0265,108.2344 293.3859,108.375 Q292.7453,108.5313 292.0421,108.5313 Q289.5421,108.5313 288.214,106.8906 Q286.9015,105.2344 286.9015,102.1094 Q286.9015,98.9844 288.214,97.3281 Q289.5421,95.6719 292.0421,95.6719 Q292.7453,95.6719 293.3859,95.8281 Q294.0421,95.9844 294.6046,96.2813 L294.6046,99 Q293.9796,98.4219 293.3859,98.1563 Q292.7921,97.875 292.1671,97.875 Q290.8234,97.875 290.1359,98.9531 Q289.4484,100.0156 289.4484,102.1094 Q289.4484,104.2031 290.1359,105.2813 Q290.8234,106.3438 292.1671,106.3438 Q292.7921,106.3438 293.3859,106.0781 Q293.9796,105.7969 294.6046,105.2188 L294.6046,107.9375 Z " fill="#000000"/><text fill="#000000" font-family="sans-serif" font-size="14" lengthAdjust="spacing" textLength="62.2344" x="312.1359" y="107.1436">WithVisit</text><line style="stroke:#181818;stroke-width:0.5;" x1="192.11" x2="461.8961" y1="118.2969" y2="118.2969"/><text fill="#000000" font-family="sans-serif" font-size="14" lengthAdjust="spacing" textLength="87.9717" x="197.11" y="135.292">str beamline</text><text fill="#000000" font-family="sans-serif" font-size="14" lengthAdjust="spacing" textLength="51.8369" x="197.11" y="151.5889">str visit</text><text fill="#000000" font-family="sans-serif" font-size="14" lengthAdjust="spacing" textLength="259.7861" x="197.11" y="167.8857">str det_dist_to_beam_converter_path</text><text fill="#000000" font-family="sans-serif" font-size="14" lengthAdjust="spacing" textLength="131.5918" x="197.11" y="184.1826">str insertion_prefix</text><text fill="#000000" font-family="sans-serif" font-size="14" lengthAdjust="spacing" textLength="245.752" x="197.11" y="200.4795">float | None detector_distance_mm</text><line style="stroke:#181818;stroke-width:0.5;" x1="192.11" x2="461.8961" y1="207.7813" y2="207.7813"/></g><!--class WithSample--><g class="entity" data-entity="WithSample" data-source-line="27" data-uid="ent0007" id="entity_WithSample"><rect fill="#F1F1F1" height="96.8906" rx="2.5" ry="2.5" style="stroke:#181818;stroke-width:0.5;" width="176.3086" x="1287.85" y="102.5969"/><ellipse cx="1329.7243" cy="118.5969" fill="#ADD1B2" rx="11" ry="11" style="stroke:#181818;stroke-width:1;"/><path d="M1332.6931,124.2375 Q1332.1149,124.5344 1331.4743,124.675 Q1330.8337,124.8312 1330.1306,124.8312 Q1327.6306,124.8312 1326.3024,123.1906 Q1324.9899,121.5344 1324.9899,118.4094 Q1324.9899,115.2844 1326.3024,113.6281 Q1327.6306,111.9719 1330.1306,111.9719 Q1330.8337,111.9719 1331.4743,112.1281 Q1332.1306,112.2844 1332.6931,112.5812 L1332.6931,115.3 Q1332.0681,114.7219 1331.4743,114.4562 Q1330.8806,114.175 1330.2556,114.175 Q1328.9118,114.175 1328.2243,115.2531 Q1327.5368,116.3156 1327.5368,118.4094 Q1327.5368,120.5031 1328.2243,121.5812 Q1328.9118,122.6437 1330.2556,122.6437 Q1330.8806,122.6437 1331.4743,122.3781 Q1332.0681,122.0969 1332.6931,121.5187 L1332.6931,124.2375 Z " fill="#000000"/><text fill="#000000" font-family="sans-serif" font-size="14" lengthAdjust="spacing" textLength="84.5879" x="1349.6964" y="123.4436">WithSample</text><line style="stroke:#181818;stroke-width:0.5;" x1="1288.85" x2="1463.1586" y1="134.5969" y2="134.5969"/><text fill="#000000" font-family="sans-serif" font-size="14" lengthAdjust="spacing" textLength="93.3789" x="1293.85" y="151.592">int sample_id</text><text fill="#000000" font-family="sans-serif" font-size="14" lengthAdjust="spacing" textLength="164.3086" x="1293.85" y="167.8889">int | None sample_puck</text><text fill="#000000" font-family="sans-serif" font-size="14" lengthAdjust="spacing" textLength="152.3936" x="1293.85" y="184.1857">int | None sample_pin</text><line style="stroke:#181818;stroke-width:0.5;" x1="1288.85" x2="1463.1586" y1="191.4875" y2="191.4875"/></g><!--class WithPandaGridScan--><g class="entity" data-entity="WithPandaGridScan" data-source-line="32" data-uid="ent0008" id="entity_WithPandaGridScan"><rect fill="#F1F1F1" height="64.2969" rx="2.5" ry="2.5" style="stroke:#181818;stroke-width:0.5;" width="240.5664" x="1823.72" y="118.8969"/><ellipse cx="1870.3172" cy="134.8969" fill="#ADD1B2" rx="11" ry="11" style="stroke:#181818;stroke-width:1;"/><path d="M1873.2859,140.5375 Q1872.7078,140.8344 1872.0672,140.975 Q1871.4265,141.1313 1870.7234,141.1313 Q1868.2234,141.1313 1866.8953,139.4906 Q1865.5828,137.8344 1865.5828,134.7094 Q1865.5828,131.5844 1866.8953,129.9281 Q1868.2234,128.2719 1870.7234,128.2719 Q1871.4265,128.2719 1872.0672,128.4281 Q1872.7234,128.5844 1873.2859,128.8813 L1873.2859,131.6 Q1872.6609,131.0219 1872.0672,130.7563 Q1871.4734,130.475 1870.8484,130.475 Q1869.5047,130.475 1868.8172,131.5531 Q1868.1297,132.6156 1868.1297,134.7094 Q1868.1297,136.8031 1868.8172,137.8813 Q1869.5047,138.9438 1870.8484,138.9438 Q1871.4734,138.9438 1872.0672,138.6781 Q1872.6609,138.3969 1873.2859,137.8188 L1873.2859,140.5375 Z " fill="#000000"/><text fill="#000000" font-family="sans-serif" font-size="14" lengthAdjust="spacing" textLength="138.8721" x="1890.8172" y="139.7436">WithPandaGridScan</text><line style="stroke:#181818;stroke-width:0.5;" x1="1824.72" x2="2063.2864" y1="150.8969" y2="150.8969"/><text fill="#000000" font-family="sans-serif" font-size="14" lengthAdjust="spacing" textLength="228.5664" x="1829.72" y="167.892">float panda_runup_distance_mm</text><line style="stroke:#181818;stroke-width:0.5;" x1="1824.72" x2="2063.2864" y1="175.1938" y2="175.1938"/></g><!--class WithScan--><g class="entity" data-entity="WithScan" data-source-line="35" data-uid="ent0009" id="entity_WithScan"><rect fill="#F1F1F1" height="48" rx="2.5" ry="2.5" style="stroke:#181818;stroke-width:0.5;" width="98.1309" x="497.93" y="127.0369"/><ellipse cx="512.93" cy="143.0369" fill="#ADD1B2" rx="11" ry="11" style="stroke:#181818;stroke-width:1;"/><path d="M515.8988,148.6775 Q515.3206,148.9744 514.68,149.115 Q514.0394,149.2713 513.3363,149.2713 Q510.8363,149.2713 509.5081,147.6306 Q508.1956,145.9744 508.1956,142.8494 Q508.1956,139.7244 509.5081,138.0681 Q510.8363,136.4119 513.3363,136.4119 Q514.0394,136.4119 514.68,136.5681 Q515.3363,136.7244 515.8988,137.0213 L515.8988,139.74 Q515.2738,139.1619 514.68,138.8963 Q514.0863,138.615 513.4613,138.615 Q512.1175,138.615 511.43,139.6931 Q510.7425,140.7556 510.7425,142.8494 Q510.7425,144.9431 511.43,146.0213 Q512.1175,147.0838 513.4613,147.0838 Q514.0863,147.0838 514.68,146.8181 Q515.2738,146.5369 515.8988,145.9588 L515.8988,148.6775 Z " fill="#000000"/><text fill="#000000" font-family="sans-serif" font-size="14" lengthAdjust="spacing" textLength="66.1309" x="526.93" y="147.8836">WithScan</text><line style="stroke:#181818;stroke-width:0.5;" x1="498.93" x2="595.0609" y1="159.0369" y2="159.0369"/><line style="stroke:#181818;stroke-width:0.5;" x1="498.93" x2="595.0609" y1="167.0369" y2="167.0369"/></g><!--class XyzStarts--><g class="entity" data-entity="XyzStarts" data-source-line="37" data-uid="ent0010" id="entity_XyzStarts"><rect fill="#F1F1F1" height="96.8906" rx="2.5" ry="2.5" style="stroke:#181818;stroke-width:0.5;" width="125.3057" x="30.35" y="102.5969"/><ellipse cx="57.3141" cy="118.5969" fill="#ADD1B2" rx="11" ry="11" style="stroke:#181818;stroke-width:1;"/><path d="M60.2829,124.2375 Q59.7047,124.5344 59.0641,124.675 Q58.4235,124.8312 57.7204,124.8312 Q55.2204,124.8312 53.8922,123.1906 Q52.5797,121.5344 52.5797,118.4094 Q52.5797,115.2844 53.8922,113.6281 Q55.2204,111.9719 57.7204,111.9719 Q58.4235,111.9719 59.0641,112.1281 Q59.7204,112.2844 60.2829,112.5812 L60.2829,115.3 Q59.6579,114.7219 59.0641,114.4562 Q58.4704,114.175 57.8454,114.175 Q56.5016,114.175 55.8141,115.2531 Q55.1266,116.3156 55.1266,118.4094 Q55.1266,120.5031 55.8141,121.5812 Q56.5016,122.6437 57.8454,122.6437 Q58.4704,122.6437 59.0641,122.3781 Q59.6579,122.0969 60.2829,121.5187 L60.2829,124.2375 Z " fill="#000000"/><text fill="#000000" font-family="sans-serif" font-size="14" lengthAdjust="spacing" textLength="66.7188" x="73.9728" y="123.4436">XyzStarts</text><line style="stroke:#181818;stroke-width:0.5;" x1="31.35" x2="154.6557" y1="134.5969" y2="134.5969"/><text fill="#000000" font-family="sans-serif" font-size="14" lengthAdjust="spacing" textLength="113.3057" x="36.35" y="151.592">float x_start_um</text><text fill="#000000" font-family="sans-serif" font-size="14" lengthAdjust="spacing" textLength="113.3057" x="36.35" y="167.8889">float y_start_um</text><text fill="#000000" font-family="sans-serif" font-size="14" lengthAdjust="spacing" textLength="112.3691" x="36.35" y="184.1857">float z_start_um</text><line style="stroke:#181818;stroke-width:0.5;" x1="31.35" x2="154.6557" y1="191.4875" y2="191.4875"/></g><!--class SplitScan--><g class="entity" data-entity="SplitScan" data-source-line="42" data-uid="ent0011" id="entity_SplitScan"><rect fill="#F1F1F1" height="48" rx="2.5" ry="2.5" style="stroke:#181818;stroke-width:0.5;" width="97.0781" x="901.46" y="127.0369"/><ellipse cx="916.46" cy="143.0369" fill="#ADD1B2" rx="11" ry="11" style="stroke:#181818;stroke-width:1;"/><path d="M919.4288,148.6775 Q918.8506,148.9744 918.21,149.115 Q917.5694,149.2713 916.8663,149.2713 Q914.3663,149.2713 913.0381,147.6306 Q911.7256,145.9744 911.7256,142.8494 Q911.7256,139.7244 913.0381,138.0681 Q914.3663,136.4119 916.8663,136.4119 Q917.5694,136.4119 918.21,136.5681 Q918.8663,136.7244 919.4288,137.0213 L919.4288,139.74 Q918.8038,139.1619 918.21,138.8963 Q917.6163,138.615 916.9913,138.615 Q915.6475,138.615 914.96,139.6931 Q914.2725,140.7556 914.2725,142.8494 Q914.2725,144.9431 914.96,146.0213 Q915.6475,147.0838 916.9913,147.0838 Q917.6163,147.0838 918.21,146.8181 Q918.8038,146.5369 919.4288,145.9588 L919.4288,148.6775 Z " fill="#000000"/><text fill="#000000" font-family="sans-serif" font-size="14" lengthAdjust="spacing" textLength="65.0781" x="930.46" y="147.8836">SplitScan</text><line style="stroke:#181818;stroke-width:0.5;" x1="902.46" x2="997.5381" y1="159.0369" y2="159.0369"/><line style="stroke:#181818;stroke-width:0.5;" x1="902.46" x2="997.5381" y1="167.0369" y2="167.0369"/></g><!--class WithCentreSelection--><g class="entity" data-entity="WithCentreSelection" data-source-line="44" data-uid="ent0012" id="entity_WithCentreSelection"><rect fill="#F1F1F1" height="64.2969" rx="2.5" ry="2.5" style="stroke:#181818;stroke-width:0.5;" width="306.7861" x="2099.61" y="118.8969"/><ellipse cx="2176.8869" cy="134.8969" fill="#ADD1B2" rx="11" ry="11" style="stroke:#181818;stroke-width:1;"/><path d="M2179.8556,140.5375 Q2179.2775,140.8344 2178.6369,140.975 Q2177.9962,141.1313 2177.2931,141.1313 Q2174.7931,141.1313 2173.465,139.4906 Q2172.1525,137.8344 2172.1525,134.7094 Q2172.1525,131.5844 2173.465,129.9281 Q2174.7931,128.2719 2177.2931,128.2719 Q2177.9962,128.2719 2178.6369,128.4281 Q2179.2931,128.5844 2179.8556,128.8813 L2179.8556,131.6 Q2179.2306,131.0219 2178.6369,130.7563 Q2178.0431,130.475 2177.4181,130.475 Q2176.0744,130.475 2175.3869,131.5531 Q2174.6994,132.6156 2174.6994,134.7094 Q2174.6994,136.8031 2175.3869,137.8813 Q2176.0744,138.9438 2177.4181,138.9438 Q2178.0431,138.9438 2178.6369,138.6781 Q2179.2306,138.3969 2179.8556,137.8188 L2179.8556,140.5375 Z " fill="#000000"/><text fill="#000000" font-family="sans-serif" font-size="14" lengthAdjust="spacing" textLength="143.7324" x="2197.3869" y="139.7436">WithCentreSelection</text><line style="stroke:#181818;stroke-width:0.5;" x1="2100.61" x2="2405.3961" y1="150.8969" y2="150.8969"/><text fill="#000000" font-family="sans-serif" font-size="14" lengthAdjust="spacing" textLength="294.7861" x="2105.61" y="167.892">TopNByMaxCountSelection select_centres</text><line style="stroke:#181818;stroke-width:0.5;" x1="2100.61" x2="2405.3961" y1="175.1938" y2="175.1938"/></g><!--class WithOptionalEnergyChange--><g class="entity" data-entity="WithOptionalEnergyChange" data-source-line="47" data-uid="ent0013" id="entity_WithOptionalEnergyChange"><rect fill="#F1F1F1" height="64.2969" rx="2.5" ry="2.5" style="stroke:#181818;stroke-width:0.5;" width="235.4463" x="631.28" y="118.8969"/><ellipse cx="650.4645" cy="134.8969" fill="#ADD1B2" rx="11" ry="11" style="stroke:#181818;stroke-width:1;"/><path d="M653.4332,140.5375 Q652.8551,140.8344 652.2145,140.975 Q651.5738,141.1313 650.8707,141.1313 Q648.3707,141.1313 647.0426,139.4906 Q645.7301,137.8344 645.7301,134.7094 Q645.7301,131.5844 647.0426,129.9281 Q648.3707,128.2719 650.8707,128.2719 Q651.5738,128.2719 652.2145,128.4281 Q652.8707,128.5844 653.4332,128.8813 L653.4332,131.6 Q652.8082,131.0219 652.2145,130.7563 Q651.6207,130.475 650.9957,130.475 Q649.652,130.475 648.9645,131.5531 Q648.277,132.6156 648.277,134.7094 Q648.277,136.8031 648.9645,137.8813 Q649.652,138.9438 650.9957,138.9438 Q651.6207,138.9438 652.2145,138.6781 Q652.8082,138.3969 653.4332,137.8188 L653.4332,140.5375 Z " fill="#000000"/><text fill="#000000" font-family="sans-serif" font-size="14" lengthAdjust="spacing" textLength="194.1475" x="665.3944" y="139.7436">WithOptionalEnergyChange</text><line style="stroke:#181818;stroke-width:0.5;" x1="632.28" x2="865.7263" y1="150.8969" y2="150.8969"/><text fill="#000000" font-family="sans-serif" font-size="14" lengthAdjust="spacing" textLength="223.4463" x="637.28" y="167.892">float | None demand_energy_ev</text><line style="stroke:#181818;stroke-width:0.5;" x1="632.28" x2="865.7263" y1="175.1938" y2="175.1938"/></g><!--class DiffractionExperimentWithSample--><g class="entity" data-entity="DiffractionExperimentWithSample" data-source-line="52" data-uid="ent0014" id="entity_DiffractionExperimentWithSample"><rect fill="#F1F1F1" height="48" rx="2.5" ry="2.5" style="stroke:#181818;stroke-width:0.5;" width="270.8545" x="2444.57" y="546.7569"/><ellipse cx="2459.57" cy="562.7569" fill="#ADD1B2" rx="11" ry="11" style="stroke:#181818;stroke-width:1;"/><path d="M2462.5388,568.3975 Q2461.9606,568.6944 2461.32,568.835 Q2460.6794,568.9913 2459.9763,568.9913 Q2457.4763,568.9913 2456.1481,567.3506 Q2454.8356,565.6944 2454.8356,562.5694 Q2454.8356,559.4444 2456.1481,557.7881 Q2457.4763,556.1319 2459.9763,556.1319 Q2460.6794,556.1319 2461.32,556.2881 Q2461.9763,556.4444 2462.5388,556.7413 L2462.5388,559.46 Q2461.9138,558.8819 2461.32,558.6163 Q2460.7263,558.335 2460.1013,558.335 Q2458.7575,558.335 2458.07,559.4131 Q2457.3825,560.4756 2457.3825,562.5694 Q2457.3825,564.6631 2458.07,565.7413 Q2458.7575,566.8038 2460.1013,566.8038 Q2460.7263,566.8038 2461.32,566.5381 Q2461.9138,566.2569 2462.5388,565.6788 L2462.5388,568.3975 Z " fill="#000000"/><text fill="#000000" font-family="sans-serif" font-size="14" lengthAdjust="spacing" textLength="238.8545" x="2473.57" y="567.6036">DiffractionExperimentWithSample</text><line style="stroke:#181818;stroke-width:0.5;" x1="2445.57" x2="2714.4245" y1="578.7569" y2="578.7569"/><line style="stroke:#181818;stroke-width:0.5;" x1="2445.57" x2="2714.4245" y1="586.7569" y2="586.7569"/></g><!--class SpecifiedThreeDGridScan--><g class="entity" data-entity="SpecifiedThreeDGridScan" data-source-line="54" data-uid="ent0015" id="entity_SpecifiedThreeDGridScan"><rect fill="#F1F1F1" height="227.2656" rx="2.5" ry="2.5" style="stroke:#181818;stroke-width:0.5;" width="210.8965" x="2429.55" y="860.5369"/><ellipse cx="2444.55" cy="876.5369" fill="#ADD1B2" rx="11" ry="11" style="stroke:#181818;stroke-width:1;"/><path d="M2447.5188,882.1775 Q2446.9406,882.4744 2446.3,882.615 Q2445.6594,882.7713 2444.9563,882.7713 Q2442.4563,882.7713 2441.1281,881.1306 Q2439.8156,879.4744 2439.8156,876.3494 Q2439.8156,873.2244 2441.1281,871.5681 Q2442.4563,869.9119 2444.9563,869.9119 Q2445.6594,869.9119 2446.3,870.0681 Q2446.9563,870.2244 2447.5188,870.5213 L2447.5188,873.24 Q2446.8938,872.6619 2446.3,872.3963 Q2445.7063,872.115 2445.0813,872.115 Q2443.7375,872.115 2443.05,873.1931 Q2442.3625,874.2556 2442.3625,876.3494 Q2442.3625,878.4431 2443.05,879.5213 Q2443.7375,880.5838 2445.0813,880.5838 Q2445.7063,880.5838 2446.3,880.3181 Q2446.8938,880.0369 2447.5188,879.4588 L2447.5188,882.1775 Z " fill="#000000"/><text fill="#000000" font-family="sans-serif" font-size="14" lengthAdjust="spacing" textLength="178.8965" x="2458.55" y="881.3836">SpecifiedThreeDGridScan</text><line style="stroke:#181818;stroke-width:0.5;" x1="2430.55" x2="2639.4465" y1="892.5369" y2="892.5369"/><text fill="#000000" font-family="sans-serif" font-size="14" lengthAdjust="spacing" textLength="160.8975" x="2435.55" y="909.532">float grid1_omega_deg</text><text fill="#000000" font-family="sans-serif" font-size="14" lengthAdjust="spacing" textLength="160.8975" x="2435.55" y="925.8289">float grid2_omega_deg</text><text fill="#000000" font-family="sans-serif" font-size="14" lengthAdjust="spacing" textLength="145.127" x="2435.55" y="942.1257">float x_step_size_um</text><text fill="#000000" font-family="sans-serif" font-size="14" lengthAdjust="spacing" textLength="145.127" x="2435.55" y="958.4226">float y_step_size_um</text><text fill="#000000" font-family="sans-serif" font-size="14" lengthAdjust="spacing" textLength="144.1904" x="2435.55" y="974.7195">float z_step_size_um</text><text fill="#000000" font-family="sans-serif" font-size="14" lengthAdjust="spacing" textLength="122.2129" x="2435.55" y="991.0164">float y2_start_um</text><text fill="#000000" font-family="sans-serif" font-size="14" lengthAdjust="spacing" textLength="121.2764" x="2435.55" y="1007.3132">float z2_start_um</text><text fill="#000000" font-family="sans-serif" font-size="14" lengthAdjust="spacing" textLength="75.5645" x="2435.55" y="1023.6101">int x_steps</text><text fill="#000000" font-family="sans-serif" font-size="14" lengthAdjust="spacing" textLength="75.5645" x="2435.55" y="1039.907">int y_steps</text><text fill="#000000" font-family="sans-serif" font-size="14" lengthAdjust="spacing" textLength="74.6279" x="2435.55" y="1056.2039">int z_steps</text><text fill="#000000" font-family="sans-serif" font-size="14" lengthAdjust="spacing" textLength="154.4102" x="2435.55" y="1072.5007">bool _set_stub_offsets</text><line style="stroke:#181818;stroke-width:0.5;" x1="2430.55" x2="2639.4465" y1="1079.8025" y2="1079.8025"/></g><!--class GridCommon--><g class="entity" data-entity="GridCommon" data-source-line="67" data-uid="ent0016" id="entity_GridCommon"><rect fill="#F1F1F1" height="145.7813" rx="2.5" ry="2.5" style="stroke:#181818;stroke-width:0.5;" width="332.332" x="2429.83" y="654.7569"/><ellipse cx="2545.5282" cy="670.7569" fill="#ADD1B2" rx="11" ry="11" style="stroke:#181818;stroke-width:1;"/><path d="M2548.497,676.3975 Q2547.9189,676.6944 2547.2782,676.835 Q2546.6376,676.9913 2545.9345,676.9913 Q2543.4345,676.9913 2542.1064,675.3506 Q2540.7939,673.6944 2540.7939,670.5694 Q2540.7939,667.4444 2542.1064,665.7881 Q2543.4345,664.1319 2545.9345,664.1319 Q2546.6376,664.1319 2547.2782,664.2881 Q2547.9345,664.4444 2548.497,664.7413 L2548.497,667.46 Q2547.872,666.8819 2547.2782,666.6163 Q2546.6845,666.335 2546.0595,666.335 Q2544.7157,666.335 2544.0282,667.4131 Q2543.3407,668.4756 2543.3407,670.5694 Q2543.3407,672.6631 2544.0282,673.7413 Q2544.7157,674.8038 2546.0595,674.8038 Q2546.6845,674.8038 2547.2782,674.5381 Q2547.872,674.2569 2548.497,673.6788 L2548.497,676.3975 Z " fill="#000000"/><text fill="#000000" font-family="sans-serif" font-size="14" lengthAdjust="spacing" textLength="92.4355" x="2566.0282" y="675.6036">GridCommon</text><line style="stroke:#181818;stroke-width:0.5;" x1="2430.83" x2="2761.162" y1="686.7569" y2="686.7569"/><text fill="#000000" font-family="sans-serif" font-size="14" lengthAdjust="spacing" textLength="125.2959" x="2435.83" y="703.752">float box_size_um</text><text fill="#000000" font-family="sans-serif" font-size="14" lengthAdjust="spacing" textLength="138.4209" x="2435.83" y="720.0489">float grid_width_um</text><text fill="#000000" font-family="sans-serif" font-size="14" lengthAdjust="spacing" textLength="153.7129" x="2435.83" y="736.3457">float exposure_time_s</text><text fill="#000000" font-family="sans-serif" font-size="14" lengthAdjust="spacing" textLength="320.332" x="2435.83" y="752.6426">IspybExperimentType ispyb_experiment_type</text><text fill="#000000" font-family="sans-serif" font-size="14" lengthAdjust="spacing" textLength="282.3516" x="2435.83" y="768.9395">ApertureValue | None selected_aperture</text><text fill="#000000" font-family="sans-serif" font-size="14" lengthAdjust="spacing" textLength="130.498" x="2435.83" y="785.2364">float tip_offset_um</text><line style="stroke:#181818;stroke-width:0.5;" x1="2430.83" x2="2761.162" y1="792.5381" y2="792.5381"/></g><!--class MxBlueskyParameters--><g class="entity" data-entity="MxBlueskyParameters" data-source-line="75" data-uid="ent0017" id="entity_MxBlueskyParameters"><rect fill="#F1F1F1" height="64.2969" rx="2.5" ry="2.5" style="stroke:#181818;stroke-width:0.5;" width="317.4639" x="2442.27" y="118.8969"/><ellipse cx="2518.8564" cy="134.8969" fill="#ADD1B2" rx="11" ry="11" style="stroke:#181818;stroke-width:1;"/><path d="M2521.8252,140.5375 Q2521.2471,140.8344 2520.6064,140.975 Q2519.9658,141.1313 2519.2627,141.1313 Q2516.7627,141.1313 2515.4346,139.4906 Q2514.1221,137.8344 2514.1221,134.7094 Q2514.1221,131.5844 2515.4346,129.9281 Q2516.7627,128.2719 2519.2627,128.2719 Q2519.9658,128.2719 2520.6064,128.4281 Q2521.2627,128.5844 2521.8252,128.8813 L2521.8252,131.6 Q2521.2002,131.0219 2520.6064,130.7563 Q2520.0127,130.475 2519.3877,130.475 Q2518.0439,130.475 2517.3564,131.5531 Q2516.6689,132.6156 2516.6689,134.7094 Q2516.6689,136.8031 2517.3564,137.8813 Q2518.0439,138.9438 2519.3877,138.9438 Q2520.0127,138.9438 2520.6064,138.6781 Q2521.2002,138.3969 2521.8252,137.8188 L2521.8252,140.5375 Z " fill="#000000"/><text fill="#000000" font-family="sans-serif" font-size="14" lengthAdjust="spacing" textLength="155.791" x="2539.3564" y="139.7436">MxBlueskyParameters</text><line style="stroke:#181818;stroke-width:0.5;" x1="2443.27" x2="2758.7339" y1="150.8969" y2="150.8969"/><text fill="#000000" font-family="sans-serif" font-size="14" lengthAdjust="spacing" textLength="305.4639" x="2448.27" y="167.892">SemanticVersion parameter_model_version</text><line style="stroke:#181818;stroke-width:0.5;" x1="2443.27" x2="2758.7339" y1="175.1938" y2="175.1938"/></g><!--class DiffractionExperiment--><g class="entity" data-entity="DiffractionExperiment" data-source-line="78" data-uid="ent0018" id="entity_DiffractionExperiment"><rect fill="#F1F1F1" height="210.9688" rx="2.5" ry="2.5" style="stroke:#181818;stroke-width:0.5;" width="332.332" x="2429.83" y="275.7869"/><ellipse cx="2514.6127" cy="291.7869" fill="#ADD1B2" rx="11" ry="11" style="stroke:#181818;stroke-width:1;"/><path d="M2517.5815,297.4275 Q2517.0033,297.7244 2516.3627,297.865 Q2515.7221,298.0213 2515.019,298.0213 Q2512.519,298.0213 2511.1908,296.3806 Q2509.8783,294.7244 2509.8783,291.5994 Q2509.8783,288.4744 2511.1908,286.8181 Q2512.519,285.1619 2515.019,285.1619 Q2515.7221,285.1619 2516.3627,285.3181 Q2517.019,285.4744 2517.5815,285.7713 L2517.5815,288.49 Q2516.9565,287.9119 2516.3627,287.6463 Q2515.769,287.365 2515.144,287.365 Q2513.8002,287.365 2513.1127,288.4431 Q2512.4252,289.5056 2512.4252,291.5994 Q2512.4252,293.6931 2513.1127,294.7713 Q2513.8002,295.8338 2515.144,295.8338 Q2515.769,295.8338 2516.3627,295.5681 Q2516.9565,295.2869 2517.5815,294.7088 L2517.5815,297.4275 Z " fill="#000000"/><text fill="#000000" font-family="sans-serif" font-size="14" lengthAdjust="spacing" textLength="154.2666" x="2535.1127" y="296.6336">DiffractionExperiment</text><line style="stroke:#181818;stroke-width:0.5;" x1="2430.83" x2="2761.162" y1="307.7869" y2="307.7869"/><text fill="#000000" font-family="sans-serif" font-size="14" lengthAdjust="spacing" textLength="91.0137" x="2435.83" y="324.782">str file_name</text><text fill="#000000" font-family="sans-serif" font-size="14" lengthAdjust="spacing" textLength="153.7129" x="2435.83" y="341.0789">float exposure_time_s</text><text fill="#000000" font-family="sans-serif" font-size="14" lengthAdjust="spacing" textLength="89.5029" x="2435.83" y="357.3757">str comment</text><text fill="#000000" font-family="sans-serif" font-size="14" lengthAdjust="spacing" textLength="186.915" x="2435.83" y="373.6726">TriggerMode trigger_mode</text><text fill="#000000" font-family="sans-serif" font-size="14" lengthAdjust="spacing" textLength="157.9854" x="2435.83" y="389.9695">int | None run_number</text><text fill="#000000" font-family="sans-serif" font-size="14" lengthAdjust="spacing" textLength="282.3516" x="2435.83" y="406.2664">ApertureValue | None selected_aperture</text><text fill="#000000" font-family="sans-serif" font-size="14" lengthAdjust="spacing" textLength="159.2979" x="2435.83" y="422.5632">float transmission_frac</text><text fill="#000000" font-family="sans-serif" font-size="14" lengthAdjust="spacing" textLength="320.332" x="2435.83" y="438.8601">IspybExperimentType ispyb_experiment_type</text><text fill="#000000" font-family="sans-serif" font-size="14" lengthAdjust="spacing" textLength="146.1113" x="2435.83" y="455.157">str storage_directory</text><text fill="#000000" font-family="sans-serif" font-size="14" lengthAdjust="spacing" textLength="131.0518" x="2435.83" y="471.4539">bool use_roi_mode</text><line style="stroke:#181818;stroke-width:0.5;" x1="2430.83" x2="2761.162" y1="478.7556" y2="478.7556"/></g><!--class GridScanWithEdgeDetect--><g class="entity" data-entity="GridScanWithEdgeDetect" data-source-line="93" data-uid="ent0020" id="entity_GridScanWithEdgeDetect"><rect fill="#F1F1F1" height="48" rx="2.5" ry="2.5" style="stroke:#181818;stroke-width:0.5;" width="209.4268" x="3227.29" y="1312.8369"/><ellipse cx="3242.29" cy="1328.8369" fill="#ADD1B2" rx="11" ry="11" style="stroke:#181818;stroke-width:1;"/><path d="M3245.2588,1334.4775 Q3244.6806,1334.7744 3244.04,1334.915 Q3243.3994,1335.0713 3242.6963,1335.0713 Q3240.1963,1335.0713 3238.8681,1333.4306 Q3237.5556,1331.7744 3237.5556,1328.6494 Q3237.5556,1325.5244 3238.8681,1323.8681 Q3240.1963,1322.2119 3242.6963,1322.2119 Q3243.3994,1322.2119 3244.04,1322.3681 Q3244.6963,1322.5244 3245.2588,1322.8213 L3245.2588,1325.54 Q3244.6338,1324.9619 3244.04,1324.6963 Q3243.4463,1324.415 3242.8213,1324.415 Q3241.4775,1324.415 3240.79,1325.4931 Q3240.1025,1326.5556 3240.1025,1328.6494 Q3240.1025,1330.7431 3240.79,1331.8213 Q3241.4775,1332.8838 3242.8213,1332.8838 Q3243.4463,1332.8838 3244.04,1332.6181 Q3244.6338,1332.3369 3245.2588,1331.7588 L3245.2588,1334.4775 Z " fill="#000000"/><text fill="#000000" font-family="sans-serif" font-size="14" lengthAdjust="spacing" textLength="177.4268" x="3256.29" y="1333.6836">GridScanWithEdgeDetect</text><line style="stroke:#181818;stroke-width:0.5;" x1="3228.29" x2="3435.7168" y1="1344.8369" y2="1344.8369"/><line style="stroke:#181818;stroke-width:0.5;" x1="3228.29" x2="3435.7168" y1="1352.8369" y2="1352.8369"/></g><!--class RotationExperiment--><g class="entity" data-entity="RotationExperiment" data-source-line="95" data-uid="ent0021" id="entity_RotationExperiment"><rect fill="#F1F1F1" height="96.8906" rx="2.5" ry="2.5" style="stroke:#181818;stroke-width:0.5;" width="332.332" x="2825.83" y="1147.7969"/><ellipse cx="2917.7118" cy="1163.7969" fill="#ADD1B2" rx="11" ry="11" style="stroke:#181818;stroke-width:1;"/><path d="M2920.6806,1169.4375 Q2920.1025,1169.7344 2919.4618,1169.875 Q2918.8212,1170.0313 2918.1181,1170.0313 Q2915.6181,1170.0313 2914.29,1168.3906 Q2912.9775,1166.7344 2912.9775,1163.6094 Q2912.9775,1160.4844 2914.29,1158.8281 Q2915.6181,1157.1719 2918.1181,1157.1719 Q2918.8212,1157.1719 2919.4618,1157.3281 Q2920.1181,1157.4844 2920.6806,1157.7813 L2920.6806,1160.5 Q2920.0556,1159.9219 2919.4618,1159.6563 Q2918.8681,1159.375 2918.2431,1159.375 Q2916.8993,1159.375 2916.2118,1160.4531 Q2915.5243,1161.5156 2915.5243,1163.6094 Q2915.5243,1165.7031 2916.2118,1166.7813 Q2916.8993,1167.8438 2918.2431,1167.8438 Q2918.8681,1167.8438 2919.4618,1167.5781 Q2920.0556,1167.2969 2920.6806,1166.7188 L2920.6806,1169.4375 Z " fill="#000000"/><text fill="#000000" font-family="sans-serif" font-size="14" lengthAdjust="spacing" textLength="140.0684" x="2938.2118" y="1168.6436">RotationExperiment</text><line style="stroke:#181818;stroke-width:0.5;" x1="2826.83" x2="3157.162" y1="1179.7969" y2="1179.7969"/><text fill="#000000" font-family="sans-serif" font-size="14" lengthAdjust="spacing" textLength="202.8018" x="2831.83" y="1196.792">float shutter_opening_time_s</text><text fill="#000000" font-family="sans-serif" font-size="14" lengthAdjust="spacing" textLength="202.9385" x="2831.83" y="1213.0889">float rotation_increment_deg</text><text fill="#000000" font-family="sans-serif" font-size="14" lengthAdjust="spacing" textLength="320.332" x="2831.83" y="1229.3857">IspybExperimentType ispyb_experiment_type</text><line style="stroke:#181818;stroke-width:0.5;" x1="2826.83" x2="3157.162" y1="1236.6875" y2="1236.6875"/></g><!--class HyperionSpecifiedThreeDGridScan--><g class="entity" data-entity="HyperionSpecifiedThreeDGridScan" data-source-line="100" data-uid="ent0022" id="entity_HyperionSpecifiedThreeDGridScan"><rect fill="#F1F1F1" height="48" rx="2.5" ry="2.5" style="stroke:#181818;stroke-width:0.5;" width="274.293" x="3192.85" y="1172.2469"/><ellipse cx="3207.85" cy="1188.2469" fill="#ADD1B2" rx="11" ry="11" style="stroke:#181818;stroke-width:1;"/><path d="M3210.8188,1193.8875 Q3210.2406,1194.1844 3209.6,1194.325 Q3208.9594,1194.4813 3208.2563,1194.4813 Q3205.7563,1194.4813 3204.4281,1192.8406 Q3203.1156,1191.1844 3203.1156,1188.0594 Q3203.1156,1184.9344 3204.4281,1183.2781 Q3205.7563,1181.6219 3208.2563,1181.6219 Q3208.9594,1181.6219 3209.6,1181.7781 Q3210.2563,1181.9344 3210.8188,1182.2313 L3210.8188,1184.95 Q3210.1938,1184.3719 3209.6,1184.1063 Q3209.0063,1183.825 3208.3813,1183.825 Q3207.0375,1183.825 3206.35,1184.9031 Q3205.6625,1185.9656 3205.6625,1188.0594 Q3205.6625,1190.1531 3206.35,1191.2313 Q3207.0375,1192.2938 3208.3813,1192.2938 Q3209.0063,1192.2938 3209.6,1192.0281 Q3210.1938,1191.7469 3210.8188,1191.1688 L3210.8188,1193.8875 Z " fill="#000000"/><text fill="#000000" font-family="sans-serif" font-size="14" lengthAdjust="spacing" textLength="242.293" x="3221.85" y="1193.0936">HyperionSpecifiedThreeDGridScan</text><line style="stroke:#181818;stroke-width:0.5;" x1="3193.85" x2="3466.143" y1="1204.2469" y2="1204.2469"/><line style="stroke:#181818;stroke-width:0.5;" x1="3193.85" x2="3466.143" y1="1212.2469" y2="1212.2469"/></g><!--class WithHyperionUDCFeatures--><g class="entity" data-entity="WithHyperionUDCFeatures" data-source-line="102" data-uid="ent0023" id="entity_WithHyperionUDCFeatures"><rect fill="#F1F1F1" height="64.2969" rx="2.5" ry="2.5" style="stroke:#181818;stroke-width:0.5;" width="228.6719" x="3388.66" y="942.0169"/><ellipse cx="3407.7583" cy="958.0169" fill="#ADD1B2" rx="11" ry="11" style="stroke:#181818;stroke-width:1;"/><path d="M3410.7271,963.6575 Q3410.149,963.9544 3409.5083,964.095 Q3408.8677,964.2513 3408.1646,964.2513 Q3405.6646,964.2513 3404.3365,962.6106 Q3403.024,960.9544 3403.024,957.8294 Q3403.024,954.7044 3404.3365,953.0481 Q3405.6646,951.3919 3408.1646,951.3919 Q3408.8677,951.3919 3409.5083,951.5481 Q3410.1646,951.7044 3410.7271,952.0013 L3410.7271,954.72 Q3410.1021,954.1419 3409.5083,953.8763 Q3408.9146,953.595 3408.2896,953.595 Q3406.9458,953.595 3406.2583,954.6731 Q3405.5708,955.7356 3405.5708,957.8294 Q3405.5708,959.9231 3406.2583,961.0013 Q3406.9458,962.0638 3408.2896,962.0638 Q3408.9146,962.0638 3409.5083,961.7981 Q3410.1021,961.5169 3410.7271,960.9388 L3410.7271,963.6575 Z " fill="#000000"/><text fill="#000000" font-family="sans-serif" font-size="14" lengthAdjust="spacing" textLength="187.5645" x="3422.6691" y="962.8636">WithHyperionUDCFeatures</text><line style="stroke:#181818;stroke-width:0.5;" x1="3389.66" x2="3616.3319" y1="974.0169" y2="974.0169"/><text fill="#000000" font-family="sans-serif" font-size="14" lengthAdjust="spacing" textLength="216.6719" x="3394.66" y="991.012">HyperionFeatureFlags features</text><line style="stroke:#181818;stroke-width:0.5;" x1="3389.66" x2="3616.3319" y1="998.3138" y2="998.3138"/></g><!--class PinTipCentreThenXrayCentre--><g class="entity" data-entity="PinTipCentreThenXrayCentre" data-source-line="105" data-uid="ent0024" id="entity_PinTipCentreThenXrayCentre"><rect fill="#F1F1F1" height="64.2969" rx="2.5" ry="2.5" style="stroke:#181818;stroke-width:0.5;" width="235.8955" x="4047.05" y="1304.6869"/><ellipse cx="4062.05" cy="1320.6869" fill="#ADD1B2" rx="11" ry="11" style="stroke:#181818;stroke-width:1;"/><path d="M4065.0188,1326.3275 Q4064.4406,1326.6244 4063.8,1326.765 Q4063.1594,1326.9213 4062.4563,1326.9213 Q4059.9563,1326.9213 4058.6281,1325.2806 Q4057.3156,1323.6244 4057.3156,1320.4994 Q4057.3156,1317.3744 4058.6281,1315.7181 Q4059.9563,1314.0619 4062.4563,1314.0619 Q4063.1594,1314.0619 4063.8,1314.2181 Q4064.4563,1314.3744 4065.0188,1314.6713 L4065.0188,1317.39 Q4064.3938,1316.8119 4063.8,1316.5463 Q4063.2063,1316.265 4062.5813,1316.265 Q4061.2375,1316.265 4060.55,1317.3431 Q4059.8625,1318.4056 4059.8625,1320.4994 Q4059.8625,1322.5931 4060.55,1323.6713 Q4061.2375,1324.7338 4062.5813,1324.7338 Q4063.2063,1324.7338 4063.8,1324.4681 Q4064.3938,1324.1869 4065.0188,1323.6088 L4065.0188,1326.3275 Z " fill="#000000"/><text fill="#000000" font-family="sans-serif" font-size="14" lengthAdjust="spacing" textLength="203.8955" x="4076.05" y="1325.5336">PinTipCentreThenXrayCentre</text><line style="stroke:#181818;stroke-width:0.5;" x1="4048.05" x2="4281.9455" y1="1336.6869" y2="1336.6869"/><text fill="#000000" font-family="sans-serif" font-size="14" lengthAdjust="spacing" textLength="130.498" x="4053.05" y="1353.682">float tip_offset_um</text><line style="stroke:#181818;stroke-width:0.5;" x1="4048.05" x2="4281.9455" y1="1360.9838" y2="1360.9838"/></g><!--class LoadCentreCollect--><g class="entity" data-entity="LoadCentreCollect" data-source-line="108" data-uid="ent0025" id="entity_LoadCentreCollect"><rect fill="#F1F1F1" height="80.5938" rx="2.5" ry="2.5" style="stroke:#181818;stroke-width:0.5;" width="338.6211" x="3907.69" y="1155.9469"/><ellipse cx="4008.315" cy="1171.9469" fill="#ADD1B2" rx="11" ry="11" style="stroke:#181818;stroke-width:1;"/><path d="M4011.2838,1177.5875 Q4010.7056,1177.8844 4010.065,1178.025 Q4009.4244,1178.1813 4008.7213,1178.1813 Q4006.2213,1178.1813 4004.8931,1176.5406 Q4003.5806,1174.8844 4003.5806,1171.7594 Q4003.5806,1168.6344 4004.8931,1166.9781 Q4006.2213,1165.3219 4008.7213,1165.3219 Q4009.4244,1165.3219 4010.065,1165.4781 Q4010.7213,1165.6344 4011.2838,1165.9313 L4011.2838,1168.65 Q4010.6588,1168.0719 4010.065,1167.8063 Q4009.4713,1167.525 4008.8463,1167.525 Q4007.5025,1167.525 4006.815,1168.6031 Q4006.1275,1169.6656 4006.1275,1171.7594 Q4006.1275,1173.8531 4006.815,1174.9313 Q4007.5025,1175.9938 4008.8463,1175.9938 Q4009.4713,1175.9938 4010.065,1175.7281 Q4010.6588,1175.4469 4011.2838,1174.8688 L4011.2838,1177.5875 Z " fill="#000000"/><text fill="#000000" font-family="sans-serif" font-size="14" lengthAdjust="spacing" textLength="128.8711" x="4028.815" y="1176.7936">LoadCentreCollect</text><line style="stroke:#181818;stroke-width:0.5;" x1="3908.69" x2="4245.3111" y1="1187.9469" y2="1187.9469"/><text fill="#000000" font-family="sans-serif" font-size="14" lengthAdjust="spacing" textLength="326.6211" x="3913.69" y="1204.942">RobotLoadThenCentre robot_load_then_centre</text><text fill="#000000" font-family="sans-serif" font-size="14" lengthAdjust="spacing" textLength="269.3154" x="3913.69" y="1221.2389">MultiRotationScan multi_rotation_scan</text><line style="stroke:#181818;stroke-width:0.5;" x1="3908.69" x2="4245.3111" y1="1228.5406" y2="1228.5406"/></g><!--class MultiRotationScan--><g class="entity" data-entity="MultiRotationScan" data-source-line="112" data-uid="ent0026" id="entity_MultiRotationScan"><rect fill="#F1F1F1" height="64.2969" rx="2.5" ry="2.5" style="stroke:#181818;stroke-width:0.5;" width="540.001" x="3472" y="1304.6869"/><ellipse cx="3674.0327" cy="1320.6869" fill="#ADD1B2" rx="11" ry="11" style="stroke:#181818;stroke-width:1;"/><path d="M3677.0015,1326.3275 Q3676.4233,1326.6244 3675.7827,1326.765 Q3675.1421,1326.9213 3674.439,1326.9213 Q3671.939,1326.9213 3670.6108,1325.2806 Q3669.2983,1323.6244 3669.2983,1320.4994 Q3669.2983,1317.3744 3670.6108,1315.7181 Q3671.939,1314.0619 3674.439,1314.0619 Q3675.1421,1314.0619 3675.7827,1314.2181 Q3676.439,1314.3744 3677.0015,1314.6713 L3677.0015,1317.39 Q3676.3765,1316.8119 3675.7827,1316.5463 Q3675.189,1316.265 3674.564,1316.265 Q3673.2202,1316.265 3672.5327,1317.3431 Q3671.8452,1318.4056 3671.8452,1320.4994 Q3671.8452,1322.5931 3672.5327,1323.6713 Q3673.2202,1324.7338 3674.564,1324.7338 Q3675.189,1324.7338 3675.7827,1324.4681 Q3676.3765,1324.1869 3677.0015,1323.6088 L3677.0015,1326.3275 Z " fill="#000000"/><text fill="#000000" font-family="sans-serif" font-size="14" lengthAdjust="spacing" textLength="127.4355" x="3694.5327" y="1325.5336">MultiRotationScan</text><line style="stroke:#181818;stroke-width:0.5;" x1="3473" x2="4011.001" y1="1336.6869" y2="1336.6869"/><line style="stroke:#181818;stroke-width:0.5;" x1="3473" x2="4011.001" y1="1344.6869" y2="1344.6869"/><text fill="#000000" font-family="sans-serif" font-size="14" lengthAdjust="spacing" textLength="528.001" x="3478" y="1361.682">Annotated[list[RotationScanPerSweep], Len(min_length=1)] rotation_scans</text></g><!--class GridCommonWithHyperionDetectorParams--><g class="entity" data-entity="GridCommonWithHyperionDetectorParams" data-source-line="115" data-uid="ent0027" id="entity_GridCommonWithHyperionDetectorParams"><rect fill="#F1F1F1" height="48" rx="2.5" ry="2.5" style="stroke:#181818;stroke-width:0.5;" width="333.2188" x="3539.39" y="1172.2469"/><ellipse cx="3554.39" cy="1188.2469" fill="#ADD1B2" rx="11" ry="11" style="stroke:#181818;stroke-width:1;"/><path d="M3557.3588,1193.8875 Q3556.7806,1194.1844 3556.14,1194.325 Q3555.4994,1194.4813 3554.7963,1194.4813 Q3552.2963,1194.4813 3550.9681,1192.8406 Q3549.6556,1191.1844 3549.6556,1188.0594 Q3549.6556,1184.9344 3550.9681,1183.2781 Q3552.2963,1181.6219 3554.7963,1181.6219 Q3555.4994,1181.6219 3556.14,1181.7781 Q3556.7963,1181.9344 3557.3588,1182.2313 L3557.3588,1184.95 Q3556.7338,1184.3719 3556.14,1184.1063 Q3555.5463,1183.825 3554.9213,1183.825 Q3553.5775,1183.825 3552.89,1184.9031 Q3552.2025,1185.9656 3552.2025,1188.0594 Q3552.2025,1190.1531 3552.89,1191.2313 Q3553.5775,1192.2938 3554.9213,1192.2938 Q3555.5463,1192.2938 3556.14,1192.0281 Q3556.7338,1191.7469 3557.3588,1191.1688 L3557.3588,1193.8875 Z " fill="#000000"/><text fill="#000000" font-family="sans-serif" font-size="14" lengthAdjust="spacing" textLength="301.2188" x="3568.39" y="1193.0936">GridCommonWithHyperionDetectorParams</text><line style="stroke:#181818;stroke-width:0.5;" x1="3540.39" x2="3871.6088" y1="1204.2469" y2="1204.2469"/><line style="stroke:#181818;stroke-width:0.5;" x1="3540.39" x2="3871.6088" y1="1212.2469" y2="1212.2469"/></g><!--reverse link XyzStarts to SpecifiedGrid--><g class="link" data-entity-1="XyzStarts" data-entity-2="SpecifiedGrid" data-source-line="118" data-uid="lnk28" id="link_XyzStarts_SpecifiedGrid"><path codeLine="118" d="M159.5018,209.9593 C168.7218,216.3393 163.84,211.7969 174,215.7869 C548.69,362.6069 1854.37,378.3869 2157.7,380.0669" fill="none" id="XyzStarts-backto-SpecifiedGrid" style="stroke:#181818;stroke-width:1;"/><polygon fill="none" points="144.7,199.7169,156.0876,214.8932,162.9159,205.0254,144.7,199.7169" style="stroke:#181818;stroke-width:1;"/></g><!--reverse link WithScan to SpecifiedGrid--><g class="link" data-entity-1="WithScan" data-entity-2="SpecifiedGrid" data-source-line="119" data-uid="lnk29" id="link_WithScan_SpecifiedGrid"><path codeLine="119" d="M576.2513,188.9131 C588.4413,203.1831 594.31,206.7269 614,215.7869 C618.49,217.8469 1860.58,343.7569 2157.7,373.8569" fill="none" id="WithScan-backto-SpecifiedGrid" style="stroke:#181818;stroke-width:1;"/><polygon fill="none" points="564.56,175.2269,571.6892,192.8102,580.8134,185.016,564.56,175.2269" style="stroke:#181818;stroke-width:1;"/></g><!--reverse link GridCommonWithHyperionDetectorParams to GridScanWithEdgeDetect--><g class="link" data-entity-1="GridCommonWithHyperionDetectorParams" data-entity-2="GridScanWithEdgeDetect" data-source-line="120" data-uid="lnk30" id="link_GridCommonWithHyperionDetectorParams_GridScanWithEdgeDetect"><path codeLine="120" d="M3626.1019,1226.8524 C3557.1919,1252.3924 3464.29,1286.8169 3395.28,1312.3869" fill="none" id="GridCommonWithHyperionDetectorParams-backto-GridScanWithEdgeDetect" style="stroke:#181818;stroke-width:1;"/><polygon fill="none" points="3642.98,1220.5969,3624.0168,1221.2263,3628.1871,1232.4784,3642.98,1220.5969" style="stroke:#181818;stroke-width:1;"/></g><!--reverse link WithHyperionUDCFeatures to GridScanWithEdgeDetect--><g class="link" data-entity-1="WithHyperionUDCFeatures" data-entity-2="GridScanWithEdgeDetect" data-source-line="121" data-uid="lnk31" id="link_WithHyperionUDCFeatures_GridScanWithEdgeDetect"><path codeLine="121" d="M3512.8743,1024.3448 C3522.4343,1077.7048 3530.97,1169.7269 3485,1244.6869 C3465.77,1276.0569 3431.35,1297.9569 3400.03,1312.4169" fill="none" id="WithHyperionUDCFeatures-backto-GridScanWithEdgeDetect" style="stroke:#181818;stroke-width:1;"/><polygon fill="none" points="3509.7,1006.6269,3506.9684,1025.4029,3518.7803,1023.2866,3509.7,1006.6269" style="stroke:#181818;stroke-width:1;"/></g><!--reverse link DiffractionExperimentWithSample to RotationExperiment--><g class="link" data-entity-1="DiffractionExperimentWithSample" data-entity-2="RotationExperiment" data-source-line="122" data-uid="lnk32" id="link_DiffractionExperimentWithSample_RotationExperiment"><path codeLine="122" d="M2473.16,602.0629 C2443.13,614.6029 2429.51,626.5669 2412,654.7569 C2302.92,830.3069 2275.6,964.5069 2412,1119.7969 C2439.12,1150.6769 2663.85,1172.6669 2825.43,1184.6669" fill="none" id="DiffractionExperimentWithSample-backto-RotationExperiment" style="stroke:#181818;stroke-width:1;"/><polygon fill="none" points="2489.77,595.1269,2470.848,596.5263,2475.472,607.5996,2489.77,595.1269" style="stroke:#181818;stroke-width:1;"/></g><!--reverse link WithHyperionUDCFeatures to RotationExperiment--><g class="link" data-entity-1="WithHyperionUDCFeatures" data-entity-2="RotationExperiment" data-source-line="123" data-uid="lnk33" id="link_WithHyperionUDCFeatures_RotationExperiment"><path codeLine="123" d="M3413.2581,1013.8171 C3327.8381,1050.6071 3202.25,1104.6969 3103.19,1147.3569" fill="none" id="WithHyperionUDCFeatures-backto-RotationExperiment" style="stroke:#181818;stroke-width:1;"/><polygon fill="none" points="3429.79,1006.6969,3410.8847,1008.3065,3415.6315,1019.3277,3429.79,1006.6969" style="stroke:#181818;stroke-width:1;"/></g><!--reverse link MxBlueskyParameters to DiffractionExperiment--><g class="link" data-entity-1="MxBlueskyParameters" data-entity-2="DiffractionExperiment" data-source-line="124" data-uid="lnk34" id="link_MxBlueskyParameters_DiffractionExperiment"><path codeLine="124" d="M2599.9224,201.2925 C2599.3924,225.2825 2599.03,241.8769 2598.3,275.3969" fill="none" id="MxBlueskyParameters-backto-DiffractionExperiment" style="stroke:#181818;stroke-width:1;"/><polygon fill="none" points="2600.32,183.2969,2593.9239,201.16,2605.921,201.425,2600.32,183.2969" style="stroke:#181818;stroke-width:1;"/></g><!--reverse link WithSnapshot to DiffractionExperiment--><g class="link" data-entity-1="WithSnapshot" data-entity-2="DiffractionExperiment" data-source-line="125" data-uid="lnk35" id="link_WithSnapshot_DiffractionExperiment"><path codeLine="125" d="M1748.884,198.3818 C1772.464,207.6018 1781.46,209.8869 1806,215.7869 C2073.45,280.0969 2160.8,189.5369 2422,275.7869 C2424.51,276.6169 2427.02,277.4869 2429.53,278.3869" fill="none" id="WithSnapshot-backto-DiffractionExperiment" style="stroke:#181818;stroke-width:1;"/><polygon fill="none" points="1732.12,191.8269,1746.6991,203.9698,1751.069,192.7938,1732.12,191.8269" style="stroke:#181818;stroke-width:1;"/></g><!--reverse link WithOptionalEnergyChange to DiffractionExperiment--><g class="link" data-entity-1="WithOptionalEnergyChange" data-entity-2="DiffractionExperiment" data-source-line="126" data-uid="lnk36" id="link_WithOptionalEnergyChange_DiffractionExperiment"><path codeLine="126" d="M818.9575,191.9072 C842.9475,204.3172 856.06,208.9469 884,215.7869 C1216.23,297.1069 2094.23,178.0169 2422,275.7869 C2424.45,276.5169 2426.9,277.2869 2429.34,278.0969" fill="none" id="WithOptionalEnergyChange-backto-DiffractionExperiment" style="stroke:#181818;stroke-width:1;"/><polygon fill="none" points="802.97,183.6369,816.2008,197.2364,821.7143,186.578,802.97,183.6369" style="stroke:#181818;stroke-width:1;"/></g><!--reverse link WithVisit to DiffractionExperiment--><g class="link" data-entity-1="WithVisit" data-entity-2="DiffractionExperiment" data-source-line="127" data-uid="lnk37" id="link_WithVisit_DiffractionExperiment"><path codeLine="127" d="M480.3438,216.3929 C902.3638,307.5829 2007.76,154.0469 2422,275.7869 C2424.45,276.5069 2426.9,277.2669 2429.35,278.0669" fill="none" id="WithVisit-backto-DiffractionExperiment" style="stroke:#181818;stroke-width:1;"/><polygon fill="none" points="463,211.5769,478.7384,222.1741,481.9491,210.6116,463,211.5769" style="stroke:#181818;stroke-width:1;"/></g><!--reverse link GridCommon to SpecifiedThreeDGridScan--><g class="link" data-entity-1="GridCommon" data-entity-2="SpecifiedThreeDGridScan" data-source-line="128" data-uid="lnk38" id="link_GridCommon_SpecifiedThreeDGridScan"><path codeLine="128" d="M2573.591,818.4811 C2568.951,837.0711 2568.21,840.0469 2563.19,860.1669" fill="none" id="GridCommon-backto-SpecifiedThreeDGridScan" style="stroke:#181818;stroke-width:1;"/><polygon fill="none" points="2577.95,801.0169,2567.7696,817.0281,2579.4124,819.9341,2577.95,801.0169" style="stroke:#181818;stroke-width:1;"/></g><!--reverse link SpecifiedGrid to SpecifiedThreeDGridScan--><g class="link" data-entity-1="SpecifiedGrid" data-entity-2="SpecifiedThreeDGridScan" data-source-line="129" data-uid="lnk39" id="link_SpecifiedGrid_SpecifiedThreeDGridScan"><path codeLine="129" d="M2220.5939,423.6269 C2220.5339,490.6169 2227.94,668.9469 2311,800.5369 C2340.16,846.7269 2386.27,885.3669 2429.11,914.3069" fill="none" id="SpecifiedGrid-backto-SpecifiedThreeDGridScan" style="stroke:#181818;stroke-width:1;"/><polygon fill="none" points="2220.61,405.6269,2214.5939,423.6215,2226.5939,423.6322,2220.61,405.6269" style="stroke:#181818;stroke-width:1;"/></g><!--reverse link SplitScan to SpecifiedThreeDGridScan--><g class="link" data-entity-1="SplitScan" data-entity-2="SpecifiedThreeDGridScan" data-source-line="130" data-uid="lnk40" id="link_SplitScan_SpecifiedThreeDGridScan"><path codeLine="130" d="M981.5433,188.5728 C993.7533,201.9528 998.37,204.9269 1016,215.7869 C1084.95,258.2269 1113.64,243.7569 1188,275.7869 C1664.46,480.9969 2205.28,783.3469 2429.26,911.8169" fill="none" id="SplitScan-backto-SpecifiedThreeDGridScan" style="stroke:#181818;stroke-width:1;"/><polygon fill="none" points="969.41,175.2769,977.1113,192.6173,985.9753,184.5284,969.41,175.2769" style="stroke:#181818;stroke-width:1;"/></g><!--reverse link WithOptionalEnergyChange to SpecifiedThreeDGridScan--><g class="link" data-entity-1="WithOptionalEnergyChange" data-entity-2="SpecifiedThreeDGridScan" data-source-line="131" data-uid="lnk41" id="link_WithOptionalEnergyChange_SpecifiedThreeDGridScan"><path codeLine="131" d="M818.9717,191.8592 C842.9717,204.2592 856.07,208.8969 884,215.7869 C1037,253.5069 2185.69,168.3769 2301,275.7869 C2335.53,307.9469 2316,440.4369 2325,486.7569 C2352.6,628.8169 2349.73,669.8969 2412,800.5369 C2421.58,820.6369 2433.5,840.8769 2446.12,860.0669" fill="none" id="WithOptionalEnergyChange-backto-SpecifiedThreeDGridScan" style="stroke:#181818;stroke-width:1;"/><polygon fill="none" points="802.98,183.5969,816.2175,197.1898,821.7258,186.5287,802.98,183.5969" style="stroke:#181818;stroke-width:1;"/></g><!--reverse link DiffractionExperimentWithSample to GridCommon--><g class="link" data-entity-1="DiffractionExperimentWithSample" data-entity-2="GridCommon" data-source-line="132" data-uid="lnk42" id="link_DiffractionExperimentWithSample_GridCommon"><path codeLine="132" d="M2584.2411,612.8425 C2585.8811,628.7925 2586.33,633.0169 2588.56,654.5769" fill="none" id="DiffractionExperimentWithSample-backto-GridCommon" style="stroke:#181818;stroke-width:1;"/><polygon fill="none" points="2582.4,594.9369,2578.2725,613.4562,2590.2096,612.2288,2582.4,594.9369" style="stroke:#181818;stroke-width:1;"/></g><!--reverse link OptionalGonioAngleStarts to GridCommon--><g class="link" data-entity-1="OptionalGonioAngleStarts" data-entity-2="GridCommon" data-source-line="133" data-uid="lnk43" id="link_OptionalGonioAngleStarts_GridCommon"><path codeLine="133" d="M1263.1534,214.4452 C1271.0334,217.4152 1262.13,213.6869 1270,215.7869 C1383.87,246.1869 2241.66,196.6569 2329,275.7869 C2399.33,339.5069 2329.59,397.5569 2362,486.7569 C2381.13,539.4069 2389.85,552.8169 2427,594.7569 C2445.88,616.0669 2468.57,636.4169 2491.1,654.4769" fill="none" id="OptionalGonioAngleStarts-backto-GridCommon" style="stroke:#181818;stroke-width:1;"/><polygon fill="none" points="1246.31,208.0969,1261.0373,220.0597,1265.2695,208.8307,1246.31,208.0969" style="stroke:#181818;stroke-width:1;"/></g><!--reverse link WithHyperionUDCFeatures to HyperionSpecifiedThreeDGridScan--><g class="link" data-entity-1="WithHyperionUDCFeatures" data-entity-2="HyperionSpecifiedThreeDGridScan" data-source-line="134" data-uid="lnk44" id="link_WithHyperionUDCFeatures_HyperionSpecifiedThreeDGridScan"><path codeLine="134" d="M3467.086,1020.8481 C3431.956,1065.5381 3379.62,1132.1269 3348.38,1171.8569" fill="none" id="WithHyperionUDCFeatures-backto-HyperionSpecifiedThreeDGridScan" style="stroke:#181818;stroke-width:1;"/><polygon fill="none" points="3478.21,1006.6969,3462.3689,1017.1401,3471.8031,1024.5561,3478.21,1006.6969" style="stroke:#181818;stroke-width:1;"/></g><!--reverse link SpecifiedThreeDGridScan to HyperionSpecifiedThreeDGridScan--><g class="link" data-entity-1="SpecifiedThreeDGridScan" data-entity-2="HyperionSpecifiedThreeDGridScan" data-source-line="135" data-uid="lnk45" id="link_SpecifiedThreeDGridScan_HyperionSpecifiedThreeDGridScan"><path codeLine="135" d="M2656.3306,1052.8004 C2705.7506,1081.3904 2751.03,1102.8269 2810,1119.7969 C2966.78,1164.9269 3015.72,1117.3769 3176,1147.7969 C3205.82,1153.4569 3238.03,1162.8469 3265.24,1171.7769" fill="none" id="SpecifiedThreeDGridScan-backto-HyperionSpecifiedThreeDGridScan" style="stroke:#181818;stroke-width:1;"/><polygon fill="none" points="2640.75,1043.7869,2653.3261,1057.994,2659.3351,1047.6069,2640.75,1043.7869" style="stroke:#181818;stroke-width:1;"/></g><!--reverse link WithPandaGridScan to WithHyperionUDCFeatures--><g class="link" data-entity-1="WithPandaGridScan" data-entity-2="WithHyperionUDCFeatures" data-source-line="136" data-uid="lnk46" id="link_WithPandaGridScan_WithHyperionUDCFeatures"><path codeLine="136" d="M2015.7086,191.7087 C2040.1886,204.0287 2053.69,208.7769 2082,215.7869 C2204.8,246.1869 3115.92,202.4469 3219,275.7869 C3450.68,440.6169 3493.69,828.7569 3501.38,941.7769" fill="none" id="WithPandaGridScan-backto-WithHyperionUDCFeatures" style="stroke:#181818;stroke-width:1;"/><polygon fill="none" points="1999.63,183.6169,2013.0113,197.0683,2018.4059,186.3492,1999.63,183.6169" style="stroke:#181818;stroke-width:1;"/></g><!--reverse link DiffractionExperiment to DiffractionExperimentWithSample--><g class="link" data-entity-1="DiffractionExperiment" data-entity-2="DiffractionExperimentWithSample" data-source-line="137" data-uid="lnk47" id="link_DiffractionExperiment_DiffractionExperimentWithSample"><path codeLine="137" d="M2585.5092,505.1817 C2583.6092,527.4417 2583.32,530.9069 2582,546.3269" fill="none" id="DiffractionExperiment-backto-DiffractionExperimentWithSample" style="stroke:#181818;stroke-width:1;"/><polygon fill="none" points="2587.04,487.2469,2579.5309,504.6714,2591.4874,505.6919,2587.04,487.2469" style="stroke:#181818;stroke-width:1;"/></g><!--reverse link WithSample to DiffractionExperimentWithSample--><g class="link" data-entity-1="WithSample" data-entity-2="DiffractionExperimentWithSample" data-source-line="138" data-uid="lnk48" id="link_WithSample_DiffractionExperimentWithSample"><path codeLine="138" d="M1461.223,208.4549 C1473.023,214.7649 1469.61,211.8869 1482,215.7869 C1669.83,274.8369 2216.93,147.1469 2366,275.7869 C2438.66,338.4769 2352.91,411.1369 2412,486.7569 C2433.63,514.4369 2466.91,533.5369 2498.16,546.3669" fill="none" id="WithSample-backto-DiffractionExperimentWithSample" style="stroke:#181818;stroke-width:1;"/><polygon fill="none" points="1445.35,199.9669,1458.3937,213.7459,1464.0524,203.1639,1445.35,199.9669" style="stroke:#181818;stroke-width:1;"/></g><!--reverse link GridCommonWithHyperionDetectorParams to PinTipCentreThenXrayCentre--><g class="link" data-entity-1="GridCommonWithHyperionDetectorParams" data-entity-2="PinTipCentreThenXrayCentre" data-source-line="139" data-uid="lnk49" id="link_GridCommonWithHyperionDetectorParams_PinTipCentreThenXrayCentre"><path codeLine="139" d="M3800.8318,1225.8793 C3876.8818,1248.8393 3976.09,1278.7969 4060.31,1304.2269" fill="none" id="GridCommonWithHyperionDetectorParams-backto-PinTipCentreThenXrayCentre" style="stroke:#181818;stroke-width:1;"/><polygon fill="none" points="3783.6,1220.6769,3799.0977,1231.6232,3802.5659,1220.1353,3783.6,1220.6769" style="stroke:#181818;stroke-width:1;"/></g><!--reverse link WithHyperionUDCFeatures to PinTipCentreThenXrayCentre--><g class="link" data-entity-1="WithHyperionUDCFeatures" data-entity-2="PinTipCentreThenXrayCentre" data-source-line="140" data-uid="lnk50" id="link_WithHyperionUDCFeatures_PinTipCentreThenXrayCentre"><path codeLine="140" d="M3635.5152,985.7057 C3827.8052,1003.2857 4184.38,1048.0869 4264,1147.7969 C4290.87,1181.4469 4281.3,1205.2569 4264,1244.6869 C4253.54,1268.5469 4233.41,1288.9169 4214.02,1304.3069" fill="none" id="WithHyperionUDCFeatures-backto-PinTipCentreThenXrayCentre" style="stroke:#181818;stroke-width:1;"/><polygon fill="none" points="3617.59,984.0669,3634.969,991.6808,3636.0615,979.7306,3617.59,984.0669" style="stroke:#181818;stroke-width:1;"/></g><!--reverse link MxBlueskyParameters to LoadCentreCollect--><g class="link" data-entity-1="MxBlueskyParameters" data-entity-2="LoadCentreCollect" data-source-line="141" data-uid="lnk51" id="link_MxBlueskyParameters_LoadCentreCollect"><path codeLine="141" d="M2778.0098,152.1813 C3189.1698,153.8813 4245.64,168.5669 4362,275.7869 C4459.2,365.3469 4407,437.5769 4407,569.7569 C4407,569.7569 4407,569.7569 4407,728.6469 C4407,916.9169 4225.7,1082.4369 4131.86,1155.4969" fill="none" id="MxBlueskyParameters-backto-LoadCentreCollect" style="stroke:#181818;stroke-width:1;"/><polygon fill="none" points="2760.01,152.1069,2777.985,158.1812,2778.0347,146.1813,2760.01,152.1069" style="stroke:#181818;stroke-width:1;"/></g><!--reverse link WithVisit to LoadCentreCollect--><g class="link" data-entity-1="WithVisit" data-entity-2="LoadCentreCollect" data-source-line="142" data-uid="lnk52" id="link_WithVisit_LoadCentreCollect"><path codeLine="142" d="M479.4419,219.8773 C716.0419,326.0673 1162,531.1569 1162,569.7569 C1162,569.7569 1162,569.7569 1162,728.6469 C1162,1311.6169 1838.56,1026.4069 2414,1119.7969 C2737.82,1172.3569 3564.87,1104.0569 3890,1147.7969 C3904.44,1149.7469 3919.37,1152.3969 3934.21,1155.4569" fill="none" id="WithVisit-backto-LoadCentreCollect" style="stroke:#181818;stroke-width:1;"/><polygon fill="none" points="463.02,212.5069,476.9851,225.3512,481.8987,214.4033,463.02,212.5069" style="stroke:#181818;stroke-width:1;"/></g><!--reverse link WithSample to LoadCentreCollect--><g class="link" data-entity-1="WithSample" data-entity-2="LoadCentreCollect" data-source-line="143" data-uid="lnk53" id="link_WithSample_LoadCentreCollect"><path codeLine="143" d="M1460.568,208.3843 C1472.538,214.7943 1469.36,211.9569 1482,215.7869 C1757.95,299.2869 2505.37,182.0069 2778,275.7869 C2991.74,349.3069 3193,343.7169 3193,569.7569 C3193,569.7569 3193,569.7569 3193,728.6469 C3193,919.6469 3213.23,1012.1369 3371,1119.7969 C3418.7,1152.3469 3832.91,1139.0969 3890,1147.7969 C3903.66,1149.8769 3917.77,1152.5269 3931.84,1155.4869" fill="none" id="WithSample-backto-LoadCentreCollect" style="stroke:#181818;stroke-width:1;"/><polygon fill="none" points="1444.7,199.8869,1457.7355,213.6736,1463.4005,203.0949,1444.7,199.8869" style="stroke:#181818;stroke-width:1;"/></g><!--reverse link WithCentreSelection to LoadCentreCollect--><g class="link" data-entity-1="WithCentreSelection" data-entity-2="LoadCentreCollect" data-source-line="144" data-uid="lnk54" id="link_WithCentreSelection_LoadCentreCollect"><path codeLine="144" d="M2335.8327,190.7485 C2364.3427,202.9285 2381.88,208.5569 2414,215.7869 C2811.17,305.1269 2936.77,163.2369 3328,275.7869 C3592.49,351.8669 3873,294.5369 3873,569.7569 C3873,569.7569 3873,569.7569 3873,728.6469 C3873,899.4969 3989.25,1078.2969 4046.24,1155.6769" fill="none" id="WithCentreSelection-backto-LoadCentreCollect" style="stroke:#181818;stroke-width:1;"/><polygon fill="none" points="2319.28,183.6769,2333.4755,196.2661,2338.1899,185.2309,2319.28,183.6769" style="stroke:#181818;stroke-width:1;"/></g><!--reverse link WithHyperionUDCFeatures to LoadCentreCollect--><g class="link" data-entity-1="WithHyperionUDCFeatures" data-entity-2="LoadCentreCollect" data-source-line="145" data-uid="lnk55" id="link_WithHyperionUDCFeatures_LoadCentreCollect"><path codeLine="145" d="M3589.9452,1014.05 C3659.0152,1044.56 3751.11,1083.9769 3847,1119.7969 C3879.97,1132.1169 3915.98,1144.4469 3949.52,1155.4669" fill="none" id="WithHyperionUDCFeatures-backto-LoadCentreCollect" style="stroke:#181818;stroke-width:1;"/><polygon fill="none" points="3573.48,1006.7769,3587.5208,1019.5384,3592.3695,1008.5616,3573.48,1006.7769" style="stroke:#181818;stroke-width:1;"/></g><!--reverse link RotationExperiment to MultiRotationScan--><g class="link" data-entity-1="RotationExperiment" data-entity-2="MultiRotationScan" data-source-line="146" data-uid="lnk56" id="link_RotationExperiment_MultiRotationScan"><path codeLine="146" d="M3175.9762,1245.0249 C3286.9762,1268.2849 3410.3,1288.5369 3514.17,1304.2269" fill="none" id="RotationExperiment-backto-MultiRotationScan" style="stroke:#181818;stroke-width:1;"/><polygon fill="none" points="3158.41,1241.0969,3174.6668,1250.8803,3177.2855,1239.1695,3158.41,1241.0969" style="stroke:#181818;stroke-width:1;"/></g><!--reverse link SplitScan to MultiRotationScan--><g class="link" data-entity-1="SplitScan" data-entity-2="MultiRotationScan" data-source-line="147" data-uid="lnk57" id="link_SplitScan_MultiRotationScan"><path codeLine="147" d="M978.1802,189.2701 C990.0902,203.7801 996.05,207.3269 1016,215.7869 C1196.35,292.2469 2583.3,254.2269 2778,275.7869 C3128.19,314.5569 4336,217.4169 4336,569.7569 C4336,569.7569 4336,569.7569 4336,975.1669 C4336,1099.1569 4355.45,1160.9669 4264,1244.6869 C4242.67,1264.2169 4116.34,1286.5569 3993.31,1304.2269" fill="none" id="SplitScan-backto-MultiRotationScan" style="stroke:#181818;stroke-width:1;"/><polygon fill="none" points="966.76,175.3569,973.5424,193.0769,982.818,185.4634,966.76,175.3569" style="stroke:#181818;stroke-width:1;"/></g><!--reverse link GridCommon to GridCommonWithHyperionDetectorParams--><g class="link" data-entity-1="GridCommon" data-entity-2="GridCommonWithHyperionDetectorParams" data-source-line="148" data-uid="lnk58" id="link_GridCommon_GridCommonWithHyperionDetectorParams"><path codeLine="148" d="M2686.1785,812.8033 C2789.4485,904.9833 2969.62,1049.0369 3167,1119.7969 C3300.56,1167.6769 3344.71,1126.6469 3485,1147.7969 C3526.03,1153.9869 3570.88,1163.1569 3609.38,1171.7969" fill="none" id="GridCommon-backto-GridCommonWithHyperionDetectorParams" style="stroke:#181818;stroke-width:1;"/><polygon fill="none" points="2672.75,800.8169,2682.183,817.2795,2690.174,808.3272,2672.75,800.8169" style="stroke:#181818;stroke-width:1;"/></g><!--reverse link WithHyperionUDCFeatures to GridCommonWithHyperionDetectorParams--><g class="link" data-entity-1="WithHyperionUDCFeatures" data-entity-2="GridCommonWithHyperionDetectorParams" data-source-line="149" data-uid="lnk59" id="link_WithHyperionUDCFeatures_GridCommonWithHyperionDetectorParams"><path codeLine="149" d="M3544.2855,1019.9266 C3585.5155,1064.6166 3647.78,1132.1269 3684.43,1171.8569" fill="none" id="WithHyperionUDCFeatures-backto-GridCommonWithHyperionDetectorParams" style="stroke:#181818;stroke-width:1;"/><polygon fill="none" points="3532.08,1006.6969,3539.8756,1023.9951,3548.6954,1015.8581,3532.08,1006.6969" style="stroke:#181818;stroke-width:1;"/></g><!--SRC=[bLPBRziu43v7luAtxGAR0Ervzv0wQRT0qmrgRxP04H2qD9Q8I2H1KgaLD_zzXwIUriCkVB3uSHwSRnxaRvkC6xBZEH3yPwMLboa8qCn2GhOLQHPKvKpOiiYlL1L5bbjK-BjIeBaKv9vfLe05JUva0dbam1A1Y54iXZKetBPI4o45H15YJom5KkpfDY_1F5LNiImAAQvKOyQGGsHb2ZP3auSepfanv3zkixLWocJI7gABUsOpOkerJRY667rKqKNEZVs-ooMpZ-Gd-O8-Ep5PGCeCJI2DNckpQmKntt58FcgU75hu7sKnCfP_b8BBQv7ciBPCMuEUlUt6jBT8ZTlpPeUxAkEpU_72tXDJgc_rjSV10pVS4M2i9bjWHSwHLRzwTZlXCm77YR7KIkg4Q2p5CsZabYeaBWXnOH32CAdIiEFxeqEW3S-fDyH43BGe1YTPiqBbW4VXmXBZ5vGdOTam7r1Lna-JE1S3Y_TC9CmbOXqpqLAj74frAKerVnQlq23VgfUZTErhDikYGQeHyj8XNNNat0vjEsyh45PZPUT84FA7NZPIVNbVtR7zIfR2jZl4-2yQUmKpCDAKs2rsM5gjCYPIE8noK63m5Bm8XMSqy3fkZHk-ssdc7TxkNKyMwAwVeL6nRp8DS3DYEaNWRUYIVbKw-DqOTfo2eeQ_m16lO_HbMlRTE0bzo5LCy6B2ekelNfh5LigSK9mw29HRAdSx_Ex8Tc6k_8Xf0ztA_V5PN93q1qzirWDXhwGfDL2Bd59qzSceQjkHlC4HY8CJCGejI2sYqSKrhYtgFZ0SSstX-tg0XB9wj_5akQeFtg-_k_txC2FR4UjAUksgmlBu0PUkoDh1IGitV-bpm5iha_LHZn0t-gaRrhCXEoateL47wrppD0NjvZonuTix7NGtjYeLPR45_SiiQ2PCmOqxFdLd_YN6tKaDJYoyNletWY-FqW3LaeV3llhVn4sKrLVQy2xgoiXrYskisoI56pyVk-RwAYqRKHp2CbbfNNga0i55sb8RTdMjIBc8DVXuV9UT7tbpXEP6dktp_lnfXF-zMNq0vhBWQgj1Q-X3pb9y7zJxhVuz5nkkmXZSP22-QLQ5rM6ve3zBbWJ1bSnppz_5LxcLrcquIs4JEK6Ceg64ugWJzG2DBkxAtFA6QHSJAHn2MmuDObtx74kZjsiX7039T_zIwE_UWrx_052FVv3F8DuKND0SH6gplzx-_aW6BgQcIv_Kc_hoz7rh3hxUsbk9_FdpydBuyeYQIsngxnmNGM-wHgEPT2_gdBXKWkwuvfTzJSXFZBWWEtc0gFyCF2KtTSEUql7FgoMXBXb7gHhsMZH8uIdH-fMnBBOSqfpMMNdiWehcNhuZmSL4dvX4qGn-dlBegHZKPWuqpS12YZjoecEUJicVtwdp4tIPs0MzsKuQ3TtZIfyMw0S-BN7q3buIdGreB3uU4a5oDCsF6sSiSDoiv-JdzBGyPU5_]--></g></svg>