<svg xmlns="http://www.w3.org/2000/svg" xmlns:xlink="http://www.w3.org/1999/xlink" contentStyleType="text/css" data-diagram-type="CLASS" height="1391px" preserveAspectRatio="none" style="width:4628px;height:1391px;background:#FFFFFF;" version="1.1" viewBox="0 0 4628 1391" width="4628px" zoomAndPan="magnify"><title>Hyperion Parameter Model</title><defs/><g><text fill="#000000" font-family="sans-serif" font-size="14" font-weight="bold" lengthAdjust="spacing" textLength="212.4951" x="2200.8324" y="22.9951">Hyperion Parameter Model</text><!--cluster mx_bluesky.common.parameters--><g id="cluster_mx_bluesky.common.parameters"><path d="M969.64,43.2969 L1230.9525,43.2969 A3.75,3.75 0 0 1 1233.4525,45.7969 L1240.4525,65.5938 L4535.64,65.5938 A2.5,2.5 0 0 1 4538.14,68.0938 L4538.14,1076.7069 A2.5,2.5 0 0 1 4535.64,1079.2069 L969.64,1079.2069 A2.5,2.5 0 0 1 967.14,1076.7069 L967.14,45.7969 A2.5,2.5 0 0 1 969.64,43.2969 " fill="transparent" style="stroke:#000000;stroke-width:1.5;"/><line style="stroke:#000000;stroke-width:1.5;" x1="967.14" x2="1240.4525" y1="65.5938" y2="65.5938"/><text fill="#000000" font-family="sans-serif" font-size="14" font-weight="bold" lengthAdjust="spacing" textLength="260.3125" x="971.14" y="58.292">mx_bluesky.common.parameters</text></g><!--cluster mx_bluesky.hyperion.parameters--><g id="cluster_mx_bluesky.hyperion.parameters"><path d="M37.64,866.2769 L302.1722,866.2769 A3.75,3.75 0 0 1 304.6722,868.7769 L311.6722,888.5738 L940.64,888.5738 A2.5,2.5 0 0 1 943.14,891.0738 L943.14,1382.4869 A2.5,2.5 0 0 1 940.64,1384.9869 L37.64,1384.9869 A2.5,2.5 0 0 1 35.14,1382.4869 L35.14,868.7769 A2.5,2.5 0 0 1 37.64,866.2769 " fill="transparent" style="stroke:#000000;stroke-width:1.5;"/><line style="stroke:#000000;stroke-width:1.5;" x1="35.14" x2="311.6722" y1="888.5738" y2="888.5738"/><text fill="#000000" font-family="sans-serif" font-size="14" font-weight="bold" lengthAdjust="spacing" textLength="263.5322" x="39.14" y="881.272">mx_bluesky.hyperion.parameters</text></g><!--class OptionalXyzStarts--><g id="elem_OptionalXyzStarts"><rect codeLine="8" fill="#F1F1F1" height="96.8906" id="OptionalXyzStarts" rx="2.5" ry="2.5" style="stroke:#181818;stroke-width:0.5;" width="175.4473" x="991.42" y="102.5969"/><ellipse cx="1014.3113" cy="118.5969" fill="#ADD1B2" rx="11" ry="11" style="stroke:#181818;stroke-width:1;"/><path d="M1017.28,124.2375 Q1016.7019,124.5344 1016.0613,124.675 Q1015.4206,124.8312 1014.7175,124.8312 Q1012.2175,124.8312 1010.8894,123.1906 Q1009.5769,121.5344 1009.5769,118.4094 Q1009.5769,115.2844 1010.8894,113.6281 Q1012.2175,111.9719 1014.7175,111.9719 Q1015.4206,111.9719 1016.0613,112.1281 Q1016.7175,112.2844 1017.28,112.5812 L1017.28,115.3 Q1016.655,114.7219 1016.0613,114.4562 Q1015.4675,114.175 1014.8425,114.175 Q1013.4988,114.175 1012.8113,115.2531 Q1012.1238,116.3156 1012.1238,118.4094 Q1012.1238,120.5031 1012.8113,121.5812 Q1013.4988,122.6437 1014.8425,122.6437 Q1015.4675,122.6437 1016.0613,122.3781 Q1016.655,122.0969 1017.28,121.5187 L1017.28,124.2375 Z " fill="#000000"/><text fill="#000000" font-family="sans-serif" font-size="14" lengthAdjust="spacing" textLength="125.9111" x="1030.0649" y="123.4436">OptionalXyzStarts</text><line style="stroke:#181818;stroke-width:0.5;" x1="992.42" x2="1165.8673" y1="134.5969" y2="134.5969"/><text fill="#000000" font-family="sans-serif" font-size="14" lengthAdjust="spacing" textLength="163.4473" x="997.42" y="151.592">float | None x_start_um</text><text fill="#000000" font-family="sans-serif" font-size="14" lengthAdjust="spacing" textLength="163.4473" x="997.42" y="167.8889">float | None y_start_um</text><text fill="#000000" font-family="sans-serif" font-size="14" lengthAdjust="spacing" textLength="162.5107" x="997.42" y="184.1857">float | None z_start_um</text><line style="stroke:#181818;stroke-width:0.5;" x1="992.42" x2="1165.8673" y1="191.4875" y2="191.4875"/></g><!--class WithScan--><g id="elem_WithScan"><rect codeLine="13" fill="#F1F1F1" height="48" id="WithScan" rx="2.5" ry="2.5" style="stroke:#181818;stroke-width:0.5;" width="98.1309" x="2074.07" y="127.0369"/><ellipse cx="2089.07" cy="143.0369" fill="#ADD1B2" rx="11" ry="11" style="stroke:#181818;stroke-width:1;"/><path d="M2092.0387,148.6775 Q2091.4606,148.9744 2090.82,149.115 Q2090.1794,149.2713 2089.4762,149.2713 Q2086.9762,149.2713 2085.6481,147.6306 Q2084.3356,145.9744 2084.3356,142.8494 Q2084.3356,139.7244 2085.6481,138.0681 Q2086.9762,136.4119 2089.4762,136.4119 Q2090.1794,136.4119 2090.82,136.5681 Q2091.4762,136.7244 2092.0387,137.0213 L2092.0387,139.74 Q2091.4137,139.1619 2090.82,138.8963 Q2090.2262,138.615 2089.6012,138.615 Q2088.2575,138.615 2087.57,139.6931 Q2086.8825,140.7556 2086.8825,142.8494 Q2086.8825,144.9431 2087.57,146.0213 Q2088.2575,147.0838 2089.6012,147.0838 Q2090.2262,147.0838 2090.82,146.8181 Q2091.4137,146.5369 2092.0387,145.9588 L2092.0387,148.6775 Z " fill="#000000"/><text fill="#000000" font-family="sans-serif" font-size="14" lengthAdjust="spacing" textLength="66.1309" x="2103.07" y="147.8836">WithScan</text><line style="stroke:#181818;stroke-width:0.5;" x1="2075.07" x2="2171.2009" y1="159.0369" y2="159.0369"/><line style="stroke:#181818;stroke-width:0.5;" x1="2075.07" x2="2171.2009" y1="167.0369" y2="167.0369"/></g><!--class SpecifiedGrid--><g id="elem_SpecifiedGrid"><rect codeLine="15" fill="#F1F1F1" height="48" id="SpecifiedGrid" rx="2.5" ry="2.5" style="stroke:#181818;stroke-width:0.5;" width="125.6729" x="2418.3" y="349.1169"/><ellipse cx="2433.3" cy="365.1169" fill="#ADD1B2" rx="11" ry="11" style="stroke:#181818;stroke-width:1;"/><path d="M2436.2687,370.7575 Q2435.6906,371.0544 2435.05,371.195 Q2434.4094,371.3513 2433.7062,371.3513 Q2431.2062,371.3513 2429.8781,369.7106 Q2428.5656,368.0544 2428.5656,364.9294 Q2428.5656,361.8044 2429.8781,360.1481 Q2431.2062,358.4919 2433.7062,358.4919 Q2434.4094,358.4919 2435.05,358.6481 Q2435.7062,358.8044 2436.2687,359.1013 L2436.2687,361.82 Q2435.6437,361.2419 2435.05,360.9763 Q2434.4562,360.695 2433.8312,360.695 Q2432.4875,360.695 2431.8,361.7731 Q2431.1125,362.8356 2431.1125,364.9294 Q2431.1125,367.0231 2431.8,368.1013 Q2432.4875,369.1638 2433.8312,369.1638 Q2434.4562,369.1638 2435.05,368.8981 Q2435.6437,368.6169 2436.2687,368.0388 L2436.2687,370.7575 Z " fill="#000000"/><text fill="#000000" font-family="sans-serif" font-size="14" lengthAdjust="spacing" textLength="93.6729" x="2447.3" y="369.9636">SpecifiedGrid</text><line style="stroke:#181818;stroke-width:0.5;" x1="2419.3" x2="2542.9729" y1="381.1169" y2="381.1169"/><line style="stroke:#181818;stroke-width:0.5;" x1="2419.3" x2="2542.9729" y1="389.1169" y2="389.1169"/></g><!--class OptionalGonioAngleStarts--><g id="elem_OptionalGonioAngleStarts"><rect codeLine="17" fill="#F1F1F1" height="113.1875" id="OptionalGonioAngleStarts" rx="2.5" ry="2.5" style="stroke:#181818;stroke-width:0.5;" width="219.3203" x="1819.48" y="94.4469"/><ellipse cx="1837.2033" cy="110.4469" fill="#ADD1B2" rx="11" ry="11" style="stroke:#181818;stroke-width:1;"/><path d="M1840.172,116.0875 Q1839.5939,116.3844 1838.9533,116.525 Q1838.3127,116.6813 1837.6095,116.6813 Q1835.1095,116.6813 1833.7814,115.0406 Q1832.4689,113.3844 1832.4689,110.2594 Q1832.4689,107.1344 1833.7814,105.4781 Q1835.1095,103.8219 1837.6095,103.8219 Q1838.3127,103.8219 1838.9533,103.9781 Q1839.6095,104.1344 1840.172,104.4313 L1840.172,107.15 Q1839.547,106.5719 1838.9533,106.3063 Q1838.3595,106.025 1837.7345,106.025 Q1836.3908,106.025 1835.7033,107.1031 Q1835.0158,108.1656 1835.0158,110.2594 Q1835.0158,112.3531 1835.7033,113.4313 Q1836.3908,114.4938 1837.7345,114.4938 Q1838.3595,114.4938 1838.9533,114.2281 Q1839.547,113.9469 1840.172,113.3688 L1840.172,116.0875 Z " fill="#000000"/><text fill="#000000" font-family="sans-serif" font-size="14" lengthAdjust="spacing" textLength="181.2686" x="1851.8085" y="115.2936">OptionalGonioAngleStarts</text><line style="stroke:#181818;stroke-width:0.5;" x1="1820.48" x2="2037.8003" y1="126.4469" y2="126.4469"/><text fill="#000000" font-family="sans-serif" font-size="14" lengthAdjust="spacing" textLength="207.3203" x="1825.48" y="143.442">float | None omega_start_deg</text><text fill="#000000" font-family="sans-serif" font-size="14" lengthAdjust="spacing" textLength="180.6875" x="1825.48" y="159.7389">float | None phi_start_deg</text><text fill="#000000" font-family="sans-serif" font-size="14" lengthAdjust="spacing" textLength="179.498" x="1825.48" y="176.0357">float | None chi_start_deg</text><text fill="#000000" font-family="sans-serif" font-size="14" lengthAdjust="spacing" textLength="202.0771" x="1825.48" y="192.3326">float | None kappa_start_deg</text><line style="stroke:#181818;stroke-width:0.5;" x1="1820.48" x2="2037.8003" y1="199.6344" y2="199.6344"/></g><!--class WithVisit--><g id="elem_WithVisit"><rect codeLine="23" fill="#F1F1F1" height="129.4844" id="WithVisit" rx="2.5" ry="2.5" style="stroke:#181818;stroke-width:0.5;" width="271.7861" x="2579.25" y="86.2969"/><ellipse cx="2679.7759" cy="102.2969" fill="#ADD1B2" rx="11" ry="11" style="stroke:#181818;stroke-width:1;"/><path d="M2682.7446,107.9375 Q2682.1665,108.2344 2681.5259,108.375 Q2680.8853,108.5313 2680.1821,108.5313 Q2677.6821,108.5313 2676.354,106.8906 Q2675.0415,105.2344 2675.0415,102.1094 Q2675.0415,98.9844 2676.354,97.3281 Q2677.6821,95.6719 2680.1821,95.6719 Q2680.8853,95.6719 2681.5259,95.8281 Q2682.1821,95.9844 2682.7446,96.2813 L2682.7446,99 Q2682.1196,98.4219 2681.5259,98.1563 Q2680.9321,97.875 2680.3071,97.875 Q2678.9634,97.875 2678.2759,98.9531 Q2677.5884,100.0156 2677.5884,102.1094 Q2677.5884,104.2031 2678.2759,105.2813 Q2678.9634,106.3438 2680.3071,106.3438 Q2680.9321,106.3438 2681.5259,106.0781 Q2682.1196,105.7969 2682.7446,105.2188 L2682.7446,107.9375 Z " fill="#000000"/><text fill="#000000" font-family="sans-serif" font-size="14" lengthAdjust="spacing" textLength="62.2344" x="2700.2759" y="107.1436">WithVisit</text><line style="stroke:#181818;stroke-width:0.5;" x1="2580.25" x2="2850.0361" y1="118.2969" y2="118.2969"/><text fill="#000000" font-family="sans-serif" font-size="14" lengthAdjust="spacing" textLength="87.9717" x="2585.25" y="135.292">str beamline</text><text fill="#000000" font-family="sans-serif" font-size="14" lengthAdjust="spacing" textLength="51.8369" x="2585.25" y="151.5889">str visit</text><text fill="#000000" font-family="sans-serif" font-size="14" lengthAdjust="spacing" textLength="259.7861" x="2585.25" y="167.8857">str det_dist_to_beam_converter_path</text><text fill="#000000" font-family="sans-serif" font-size="14" lengthAdjust="spacing" textLength="131.5918" x="2585.25" y="184.1826">str insertion_prefix</text><text fill="#000000" font-family="sans-serif" font-size="14" lengthAdjust="spacing" textLength="245.752" x="2585.25" y="200.4795">float | None detector_distance_mm</text><line style="stroke:#181818;stroke-width:0.5;" x1="2580.25" x2="2850.0361" y1="207.7813" y2="207.7813"/></g><!--class XyzStarts--><g id="elem_XyzStarts"><rect codeLine="30" fill="#F1F1F1" height="96.8906" id="XyzStarts" rx="2.5" ry="2.5" style="stroke:#181818;stroke-width:0.5;" width="125.3057" x="2418.49" y="102.5969"/><ellipse cx="2445.4541" cy="118.5969" fill="#ADD1B2" rx="11" ry="11" style="stroke:#181818;stroke-width:1;"/><path d="M2448.4229,124.2375 Q2447.8447,124.5344 2447.2041,124.675 Q2446.5635,124.8312 2445.8604,124.8312 Q2443.3604,124.8312 2442.0322,123.1906 Q2440.7197,121.5344 2440.7197,118.4094 Q2440.7197,115.2844 2442.0322,113.6281 Q2443.3604,111.9719 2445.8604,111.9719 Q2446.5635,111.9719 2447.2041,112.1281 Q2447.8604,112.2844 2448.4229,112.5812 L2448.4229,115.3 Q2447.7979,114.7219 2447.2041,114.4562 Q2446.6104,114.175 2445.9854,114.175 Q2444.6416,114.175 2443.9541,115.2531 Q2443.2666,116.3156 2443.2666,118.4094 Q2443.2666,120.5031 2443.9541,121.5812 Q2444.6416,122.6437 2445.9854,122.6437 Q2446.6104,122.6437 2447.2041,122.3781 Q2447.7979,122.0969 2448.4229,121.5187 L2448.4229,124.2375 Z " fill="#000000"/><text fill="#000000" font-family="sans-serif" font-size="14" lengthAdjust="spacing" textLength="66.7188" x="2462.1128" y="123.4436">XyzStarts</text><line style="stroke:#181818;stroke-width:0.5;" x1="2419.49" x2="2542.7957" y1="134.5969" y2="134.5969"/><text fill="#000000" font-family="sans-serif" font-size="14" lengthAdjust="spacing" textLength="113.3057" x="2424.49" y="151.592">float x_start_um</text><text fill="#000000" font-family="sans-serif" font-size="14" lengthAdjust="spacing" textLength="113.3057" x="2424.49" y="167.8889">float y_start_um</text><text fill="#000000" font-family="sans-serif" font-size="14" lengthAdjust="spacing" textLength="112.3691" x="2424.49" y="184.1857">float z_start_um</text><line style="stroke:#181818;stroke-width:0.5;" x1="2419.49" x2="2542.7957" y1="191.4875" y2="191.4875"/></g><!--class WithSnapshot--><g id="elem_WithSnapshot"><rect codeLine="35" fill="#F1F1F1" height="80.5938" id="WithSnapshot" rx="2.5" ry="2.5" style="stroke:#181818;stroke-width:0.5;" width="289.3477" x="3156.47" y="110.7469"/><ellipse cx="3248.1228" cy="126.7469" fill="#ADD1B2" rx="11" ry="11" style="stroke:#181818;stroke-width:1;"/><path d="M3251.0916,132.3875 Q3250.5135,132.6844 3249.8728,132.825 Q3249.2322,132.9813 3248.5291,132.9813 Q3246.0291,132.9813 3244.701,131.3406 Q3243.3885,129.6844 3243.3885,126.5594 Q3243.3885,123.4344 3244.701,121.7781 Q3246.0291,120.1219 3248.5291,120.1219 Q3249.2322,120.1219 3249.8728,120.2781 Q3250.5291,120.4344 3251.0916,120.7313 L3251.0916,123.45 Q3250.4666,122.8719 3249.8728,122.6063 Q3249.2791,122.325 3248.6541,122.325 Q3247.3103,122.325 3246.6228,123.4031 Q3245.9353,124.4656 3245.9353,126.5594 Q3245.9353,128.6531 3246.6228,129.7313 Q3247.3103,130.7938 3248.6541,130.7938 Q3249.2791,130.7938 3249.8728,130.5281 Q3250.4666,130.2469 3251.0916,129.6688 L3251.0916,132.3875 Z " fill="#000000"/><text fill="#000000" font-family="sans-serif" font-size="14" lengthAdjust="spacing" textLength="97.542" x="3268.6228" y="131.5936">WithSnapshot</text><line style="stroke:#181818;stroke-width:0.5;" x1="3157.47" x2="3444.8177" y1="142.7469" y2="142.7469"/><text fill="#000000" font-family="sans-serif" font-size="14" lengthAdjust="spacing" textLength="169.627" x="3162.47" y="159.742">Path snapshot_directory</text><text fill="#000000" font-family="sans-serif" font-size="14" lengthAdjust="spacing" textLength="277.3477" x="3162.47" y="176.0389">list[float] | None snapshot_omegas_deg</text><line style="stroke:#181818;stroke-width:0.5;" x1="3157.47" x2="3444.8177" y1="183.3406" y2="183.3406"/></g><!--class WithOptionalEnergyChange--><g id="elem_WithOptionalEnergyChange"><rect codeLine="39" fill="#F1F1F1" height="64.2969" id="WithOptionalEnergyChange" rx="2.5" ry="2.5" style="stroke:#181818;stroke-width:0.5;" width="235.4463" x="2886.42" y="118.8969"/><ellipse cx="2905.6045" cy="134.8969" fill="#ADD1B2" rx="11" ry="11" style="stroke:#181818;stroke-width:1;"/><path d="M2908.5732,140.5375 Q2907.9951,140.8344 2907.3545,140.975 Q2906.7138,141.1313 2906.0107,141.1313 Q2903.5107,141.1313 2902.1826,139.4906 Q2900.8701,137.8344 2900.8701,134.7094 Q2900.8701,131.5844 2902.1826,129.9281 Q2903.5107,128.2719 2906.0107,128.2719 Q2906.7138,128.2719 2907.3545,128.4281 Q2908.0107,128.5844 2908.5732,128.8813 L2908.5732,131.6 Q2907.9482,131.0219 2907.3545,130.7563 Q2906.7607,130.475 2906.1357,130.475 Q2904.792,130.475 2904.1045,131.5531 Q2903.417,132.6156 2903.417,134.7094 Q2903.417,136.8031 2904.1045,137.8813 Q2904.792,138.9438 2906.1357,138.9438 Q2906.7607,138.9438 2907.3545,138.6781 Q2907.9482,138.3969 2908.5732,137.8188 L2908.5732,140.5375 Z " fill="#000000"/><text fill="#000000" font-family="sans-serif" font-size="14" lengthAdjust="spacing" textLength="194.1475" x="2920.5344" y="139.7436">WithOptionalEnergyChange</text><line style="stroke:#181818;stroke-width:0.5;" x1="2887.42" x2="3120.8663" y1="150.8969" y2="150.8969"/><text fill="#000000" font-family="sans-serif" font-size="14" lengthAdjust="spacing" textLength="223.4463" x="2892.42" y="167.892">float | None demand_energy_ev</text><line style="stroke:#181818;stroke-width:0.5;" x1="2887.42" x2="3120.8663" y1="175.1938" y2="175.1938"/></g><!--class WithPandaGridScan--><g id="elem_WithPandaGridScan"><rect codeLine="42" fill="#F1F1F1" height="64.2969" id="WithPandaGridScan" rx="2.5" ry="2.5" style="stroke:#181818;stroke-width:0.5;" width="240.5664" x="1201.86" y="118.8969"/><ellipse cx="1248.4572" cy="134.8969" fill="#ADD1B2" rx="11" ry="11" style="stroke:#181818;stroke-width:1;"/><path d="M1251.4259,140.5375 Q1250.8478,140.8344 1250.2072,140.975 Q1249.5665,141.1313 1248.8634,141.1313 Q1246.3634,141.1313 1245.0353,139.4906 Q1243.7228,137.8344 1243.7228,134.7094 Q1243.7228,131.5844 1245.0353,129.9281 Q1246.3634,128.2719 1248.8634,128.2719 Q1249.5665,128.2719 1250.2072,128.4281 Q1250.8634,128.5844 1251.4259,128.8813 L1251.4259,131.6 Q1250.8009,131.0219 1250.2072,130.7563 Q1249.6134,130.475 1248.9884,130.475 Q1247.6447,130.475 1246.9572,131.5531 Q1246.2697,132.6156 1246.2697,134.7094 Q1246.2697,136.8031 1246.9572,137.8813 Q1247.6447,138.9438 1248.9884,138.9438 Q1249.6134,138.9438 1250.2072,138.6781 Q1250.8009,138.3969 1251.4259,137.8188 L1251.4259,140.5375 Z " fill="#000000"/><text fill="#000000" font-family="sans-serif" font-size="14" lengthAdjust="spacing" textLength="138.8721" x="1268.9572" y="139.7436">WithPandaGridScan</text><line style="stroke:#181818;stroke-width:0.5;" x1="1202.86" x2="1441.4264" y1="150.8969" y2="150.8969"/><text fill="#000000" font-family="sans-serif" font-size="14" lengthAdjust="spacing" textLength="228.5664" x="1207.86" y="167.892">float panda_runup_distance_mm</text><line style="stroke:#181818;stroke-width:0.5;" x1="1202.86" x2="1441.4264" y1="175.1938" y2="175.1938"/></g><!--class WithSample--><g id="elem_WithSample"><rect codeLine="45" fill="#F1F1F1" height="96.8906" id="WithSample" rx="2.5" ry="2.5" style="stroke:#181818;stroke-width:0.5;" width="176.3086" x="2206.99" y="102.5969"/><ellipse cx="2248.8643" cy="118.5969" fill="#ADD1B2" rx="11" ry="11" style="stroke:#181818;stroke-width:1;"/><path d="M2251.8331,124.2375 Q2251.2549,124.5344 2250.6143,124.675 Q2249.9737,124.8312 2249.2706,124.8312 Q2246.7706,124.8312 2245.4424,123.1906 Q2244.1299,121.5344 2244.1299,118.4094 Q2244.1299,115.2844 2245.4424,113.6281 Q2246.7706,111.9719 2249.2706,111.9719 Q2249.9737,111.9719 2250.6143,112.1281 Q2251.2706,112.2844 2251.8331,112.5812 L2251.8331,115.3 Q2251.2081,114.7219 2250.6143,114.4562 Q2250.0206,114.175 2249.3956,114.175 Q2248.0518,114.175 2247.3643,115.2531 Q2246.6768,116.3156 2246.6768,118.4094 Q2246.6768,120.5031 2247.3643,121.5812 Q2248.0518,122.6437 2249.3956,122.6437 Q2250.0206,122.6437 2250.6143,122.3781 Q2251.2081,122.0969 2251.8331,121.5187 L2251.8331,124.2375 Z " fill="#000000"/><text fill="#000000" font-family="sans-serif" font-size="14" lengthAdjust="spacing" textLength="84.5879" x="2268.8364" y="123.4436">WithSample</text><line style="stroke:#181818;stroke-width:0.5;" x1="2207.99" x2="2382.2986" y1="134.5969" y2="134.5969"/><text fill="#000000" font-family="sans-serif" font-size="14" lengthAdjust="spacing" textLength="93.3789" x="2212.99" y="151.592">int sample_id</text><text fill="#000000" font-family="sans-serif" font-size="14" lengthAdjust="spacing" textLength="164.3086" x="2212.99" y="167.8889">int | None sample_puck</text><text fill="#000000" font-family="sans-serif" font-size="14" lengthAdjust="spacing" textLength="152.3936" x="2212.99" y="184.1857">int | None sample_pin</text><line style="stroke:#181818;stroke-width:0.5;" x1="2207.99" x2="2382.2986" y1="191.4875" y2="191.4875"/></g><!--class WithCentreSelection--><g id="elem_WithCentreSelection"><rect codeLine="50" fill="#F1F1F1" height="64.2969" id="WithCentreSelection" rx="2.5" ry="2.5" style="stroke:#181818;stroke-width:0.5;" width="306.7861" x="1477.75" y="118.8969"/><ellipse cx="1555.0269" cy="134.8969" fill="#ADD1B2" rx="11" ry="11" style="stroke:#181818;stroke-width:1;"/><path d="M1557.9956,140.5375 Q1557.4175,140.8344 1556.7769,140.975 Q1556.1362,141.1313 1555.4331,141.1313 Q1552.9331,141.1313 1551.605,139.4906 Q1550.2925,137.8344 1550.2925,134.7094 Q1550.2925,131.5844 1551.605,129.9281 Q1552.9331,128.2719 1555.4331,128.2719 Q1556.1362,128.2719 1556.7769,128.4281 Q1557.4331,128.5844 1557.9956,128.8813 L1557.9956,131.6 Q1557.3706,131.0219 1556.7769,130.7563 Q1556.1831,130.475 1555.5581,130.475 Q1554.2144,130.475 1553.5269,131.5531 Q1552.8394,132.6156 1552.8394,134.7094 Q1552.8394,136.8031 1553.5269,137.8813 Q1554.2144,138.9438 1555.5581,138.9438 Q1556.1831,138.9438 1556.7769,138.6781 Q1557.3706,138.3969 1557.9956,137.8188 L1557.9956,140.5375 Z " fill="#000000"/><text fill="#000000" font-family="sans-serif" font-size="14" lengthAdjust="spacing" textLength="143.7324" x="1575.5269" y="139.7436">WithCentreSelection</text><line style="stroke:#181818;stroke-width:0.5;" x1="1478.75" x2="1783.5361" y1="150.8969" y2="150.8969"/><text fill="#000000" font-family="sans-serif" font-size="14" lengthAdjust="spacing" textLength="294.7861" x="1483.75" y="167.892">TopNByMaxCountSelection select_centres</text><line style="stroke:#181818;stroke-width:0.5;" x1="1478.75" x2="1783.5361" y1="175.1938" y2="175.1938"/></g><!--class SplitScan--><g id="elem_SplitScan"><rect codeLine="53" fill="#F1F1F1" height="48" id="SplitScan" rx="2.5" ry="2.5" style="stroke:#181818;stroke-width:0.5;" width="97.0781" x="3480.6" y="127.0369"/><ellipse cx="3495.6" cy="143.0369" fill="#ADD1B2" rx="11" ry="11" style="stroke:#181818;stroke-width:1;"/><path d="M3498.5688,148.6775 Q3497.9906,148.9744 3497.35,149.115 Q3496.7094,149.2713 3496.0063,149.2713 Q3493.5063,149.2713 3492.1781,147.6306 Q3490.8656,145.9744 3490.8656,142.8494 Q3490.8656,139.7244 3492.1781,138.0681 Q3493.5063,136.4119 3496.0063,136.4119 Q3496.7094,136.4119 3497.35,136.5681 Q3498.0063,136.7244 3498.5688,137.0213 L3498.5688,139.74 Q3497.9438,139.1619 3497.35,138.8963 Q3496.7563,138.615 3496.1313,138.615 Q3494.7875,138.615 3494.1,139.6931 Q3493.4125,140.7556 3493.4125,142.8494 Q3493.4125,144.9431 3494.1,146.0213 Q3494.7875,147.0838 3496.1313,147.0838 Q3496.7563,147.0838 3497.35,146.8181 Q3497.9438,146.5369 3498.5688,145.9588 L3498.5688,148.6775 Z " fill="#000000"/><text fill="#000000" font-family="sans-serif" font-size="14" lengthAdjust="spacing" textLength="65.0781" x="3509.6" y="147.8836">SplitScan</text><line style="stroke:#181818;stroke-width:0.5;" x1="3481.6" x2="3576.6781" y1="159.0369" y2="159.0369"/><line style="stroke:#181818;stroke-width:0.5;" x1="3481.6" x2="3576.6781" y1="167.0369" y2="167.0369"/></g><!--class MxBlueskyParameters--><g id="elem_MxBlueskyParameters"><rect codeLine="57" fill="#F1F1F1" height="64.2969" id="MxBlueskyParameters" rx="2.5" ry="2.5" style="stroke:#181818;stroke-width:0.5;" width="317.4639" x="3612.41" y="118.8969"/><ellipse cx="3688.9964" cy="134.8969" fill="#ADD1B2" rx="11" ry="11" style="stroke:#181818;stroke-width:1;"/><path d="M3691.9652,140.5375 Q3691.3871,140.8344 3690.7464,140.975 Q3690.1058,141.1313 3689.4027,141.1313 Q3686.9027,141.1313 3685.5746,139.4906 Q3684.2621,137.8344 3684.2621,134.7094 Q3684.2621,131.5844 3685.5746,129.9281 Q3686.9027,128.2719 3689.4027,128.2719 Q3690.1058,128.2719 3690.7464,128.4281 Q3691.4027,128.5844 3691.9652,128.8813 L3691.9652,131.6 Q3691.3402,131.0219 3690.7464,130.7563 Q3690.1527,130.475 3689.5277,130.475 Q3688.1839,130.475 3687.4964,131.5531 Q3686.8089,132.6156 3686.8089,134.7094 Q3686.8089,136.8031 3687.4964,137.8813 Q3688.1839,138.9438 3689.5277,138.9438 Q3690.1527,138.9438 3690.7464,138.6781 Q3691.3402,138.3969 3691.9652,137.8188 L3691.9652,140.5375 Z " fill="#000000"/><text fill="#000000" font-family="sans-serif" font-size="14" lengthAdjust="spacing" textLength="155.791" x="3709.4964" y="139.7436">MxBlueskyParameters</text><line style="stroke:#181818;stroke-width:0.5;" x1="3613.41" x2="3928.8739" y1="150.8969" y2="150.8969"/><text fill="#000000" font-family="sans-serif" font-size="14" lengthAdjust="spacing" textLength="305.4639" x="3618.41" y="167.892">SemanticVersion parameter_model_version</text><line style="stroke:#181818;stroke-width:0.5;" x1="3613.41" x2="3928.8739" y1="175.1938" y2="175.1938"/></g><!--class DiffractionExperimentWithSample--><g id="elem_DiffractionExperimentWithSample"><rect codeLine="60" fill="#F1F1F1" height="48" id="DiffractionExperimentWithSample" rx="2.5" ry="2.5" style="stroke:#181818;stroke-width:0.5;" width="270.8545" x="3616.71" y="530.4569"/><ellipse cx="3631.71" cy="546.4569" fill="#ADD1B2" rx="11" ry="11" style="stroke:#181818;stroke-width:1;"/><path d="M3634.6788,552.0975 Q3634.1006,552.3944 3633.46,552.535 Q3632.8194,552.6913 3632.1163,552.6913 Q3629.6163,552.6913 3628.2881,551.0506 Q3626.9756,549.3944 3626.9756,546.2694 Q3626.9756,543.1444 3628.2881,541.4881 Q3629.6163,539.8319 3632.1163,539.8319 Q3632.8194,539.8319 3633.46,539.9881 Q3634.1163,540.1444 3634.6788,540.4413 L3634.6788,543.16 Q3634.0538,542.5819 3633.46,542.3163 Q3632.8663,542.035 3632.2413,542.035 Q3630.8975,542.035 3630.21,543.1131 Q3629.5225,544.1756 3629.5225,546.2694 Q3629.5225,548.3631 3630.21,549.4413 Q3630.8975,550.5038 3632.2413,550.5038 Q3632.8663,550.5038 3633.46,550.2381 Q3634.0538,549.9569 3634.6788,549.3788 L3634.6788,552.0975 Z " fill="#000000"/><text fill="#000000" font-family="sans-serif" font-size="14" lengthAdjust="spacing" textLength="238.8545" x="3645.71" y="551.3036">DiffractionExperimentWithSample</text><line style="stroke:#181818;stroke-width:0.5;" x1="3617.71" x2="3886.5645" y1="562.4569" y2="562.4569"/><line style="stroke:#181818;stroke-width:0.5;" x1="3617.71" x2="3886.5645" y1="570.4569" y2="570.4569"/></g><!--class GridCommon--><g id="elem_GridCommon"><rect codeLine="62" fill="#F1F1F1" height="129.4844" id="GridCommon" rx="2.5" ry="2.5" style="stroke:#181818;stroke-width:0.5;" width="332.332" x="3669.97" y="638.4569"/><ellipse cx="3785.6682" cy="654.4569" fill="#ADD1B2" rx="11" ry="11" style="stroke:#181818;stroke-width:1;"/><path d="M3788.637,660.0975 Q3788.0589,660.3944 3787.4182,660.535 Q3786.7776,660.6913 3786.0745,660.6913 Q3783.5745,660.6913 3782.2464,659.0506 Q3780.9339,657.3944 3780.9339,654.2694 Q3780.9339,651.1444 3782.2464,649.4881 Q3783.5745,647.8319 3786.0745,647.8319 Q3786.7776,647.8319 3787.4182,647.9881 Q3788.0745,648.1444 3788.637,648.4413 L3788.637,651.16 Q3788.012,650.5819 3787.4182,650.3163 Q3786.8245,650.035 3786.1995,650.035 Q3784.8557,650.035 3784.1682,651.1131 Q3783.4807,652.1756 3783.4807,654.2694 Q3783.4807,656.3631 3784.1682,657.4413 Q3784.8557,658.5038 3786.1995,658.5038 Q3786.8245,658.5038 3787.4182,658.2381 Q3788.012,657.9569 3788.637,657.3788 L3788.637,660.0975 Z " fill="#000000"/><text fill="#000000" font-family="sans-serif" font-size="14" lengthAdjust="spacing" textLength="92.4355" x="3806.1682" y="659.3036">GridCommon</text><line style="stroke:#181818;stroke-width:0.5;" x1="3670.97" x2="4001.302" y1="670.4569" y2="670.4569"/><text fill="#000000" font-family="sans-serif" font-size="14" lengthAdjust="spacing" textLength="138.4209" x="3675.97" y="687.452">float grid_width_um</text><text fill="#000000" font-family="sans-serif" font-size="14" lengthAdjust="spacing" textLength="153.7129" x="3675.97" y="703.7489">float exposure_time_s</text><text fill="#000000" font-family="sans-serif" font-size="14" lengthAdjust="spacing" textLength="131.0518" x="3675.97" y="720.0457">bool use_roi_mode</text><text fill="#000000" font-family="sans-serif" font-size="14" lengthAdjust="spacing" textLength="320.332" x="3675.97" y="736.3426">IspybExperimentType ispyb_experiment_type</text><text fill="#000000" font-family="sans-serif" font-size="14" lengthAdjust="spacing" textLength="282.3516" x="3675.97" y="752.6395">ApertureValue | None selected_aperture</text><line style="stroke:#181818;stroke-width:0.5;" x1="3670.97" x2="4001.302" y1="759.9413" y2="759.9413"/></g><!--class ThreeDGridScan--><g id="elem_ThreeDGridScan"><rect codeLine="69" fill="#F1F1F1" height="227.2656" id="ThreeDGridScan" rx="2.5" ry="2.5" style="stroke:#181818;stroke-width:0.5;" width="172.8975" x="3601.69" y="827.9369"/><ellipse cx="3628.5218" cy="843.9369" fill="#ADD1B2" rx="11" ry="11" style="stroke:#181818;stroke-width:1;"/><path d="M3631.4906,849.5775 Q3630.9125,849.8744 3630.2718,850.015 Q3629.6312,850.1713 3628.9281,850.1713 Q3626.4281,850.1713 3625.1,848.5306 Q3623.7875,846.8744 3623.7875,843.7494 Q3623.7875,840.6244 3625.1,838.9681 Q3626.4281,837.3119 3628.9281,837.3119 Q3629.6312,837.3119 3630.2718,837.4681 Q3630.9281,837.6244 3631.4906,837.9213 L3631.4906,840.64 Q3630.8656,840.0619 3630.2718,839.7963 Q3629.6781,839.515 3629.0531,839.515 Q3627.7093,839.515 3627.0218,840.5931 Q3626.3343,841.6556 3626.3343,843.7494 Q3626.3343,845.8431 3627.0218,846.9213 Q3627.7093,847.9838 3629.0531,847.9838 Q3629.6781,847.9838 3630.2718,847.7181 Q3630.8656,847.4369 3631.4906,846.8588 L3631.4906,849.5775 Z " fill="#000000"/><text fill="#000000" font-family="sans-serif" font-size="14" lengthAdjust="spacing" textLength="114.6045" x="3645.1511" y="848.7836">ThreeDGridScan</text><line style="stroke:#181818;stroke-width:0.5;" x1="3602.69" x2="3773.5875" y1="859.9369" y2="859.9369"/><text fill="#000000" font-family="sans-serif" font-size="14" lengthAdjust="spacing" textLength="160.8975" x="3607.69" y="876.932">float grid1_omega_deg</text><text fill="#000000" font-family="sans-serif" font-size="14" lengthAdjust="spacing" textLength="160.8975" x="3607.69" y="893.2289">float grid2_omega_deg</text><text fill="#000000" font-family="sans-serif" font-size="14" lengthAdjust="spacing" textLength="145.127" x="3607.69" y="909.5257">float x_step_size_um</text><text fill="#000000" font-family="sans-serif" font-size="14" lengthAdjust="spacing" textLength="145.127" x="3607.69" y="925.8226">float y_step_size_um</text><text fill="#000000" font-family="sans-serif" font-size="14" lengthAdjust="spacing" textLength="144.1904" x="3607.69" y="942.1195">float z_step_size_um</text><text fill="#000000" font-family="sans-serif" font-size="14" lengthAdjust="spacing" textLength="122.2129" x="3607.69" y="958.4164">float y2_start_um</text><text fill="#000000" font-family="sans-serif" font-size="14" lengthAdjust="spacing" textLength="121.2764" x="3607.69" y="974.7132">float z2_start_um</text><text fill="#000000" font-family="sans-serif" font-size="14" lengthAdjust="spacing" textLength="75.5645" x="3607.69" y="991.0101">int x_steps</text><text fill="#000000" font-family="sans-serif" font-size="14" lengthAdjust="spacing" textLength="75.5645" x="3607.69" y="1007.307">int y_steps</text><text fill="#000000" font-family="sans-serif" font-size="14" lengthAdjust="spacing" textLength="74.6279" x="3607.69" y="1023.6039">int z_steps</text><text fill="#000000" font-family="sans-serif" font-size="14" lengthAdjust="spacing" textLength="154.4102" x="3607.69" y="1039.9007">bool _set_stub_offsets</text><line style="stroke:#181818;stroke-width:0.5;" x1="3602.69" x2="3773.5875" y1="1047.2025" y2="1047.2025"/></g><!--class PinTipCentreThenXrayCentre--><g id="elem_PinTipCentreThenXrayCentre"><rect codeLine="82" fill="#F1F1F1" height="64.2969" id="PinTipCentreThenXrayCentre" rx="2.5" ry="2.5" style="stroke:#181818;stroke-width:0.5;" width="235.8955" x="4033.19" y="909.4269"/><ellipse cx="4048.19" cy="925.4269" fill="#ADD1B2" rx="11" ry="11" style="stroke:#181818;stroke-width:1;"/><path d="M4051.1588,931.0675 Q4050.5806,931.3644 4049.94,931.505 Q4049.2994,931.6613 4048.5963,931.6613 Q4046.0963,931.6613 4044.7681,930.0206 Q4043.4556,928.3644 4043.4556,925.2394 Q4043.4556,922.1144 4044.7681,920.4581 Q4046.0963,918.8019 4048.5963,918.8019 Q4049.2994,918.8019 4049.94,918.9581 Q4050.5963,919.1144 4051.1588,919.4113 L4051.1588,922.13 Q4050.5338,921.5519 4049.94,921.2863 Q4049.3463,921.005 4048.7213,921.005 Q4047.3775,921.005 4046.69,922.0831 Q4046.0025,923.1456 4046.0025,925.2394 Q4046.0025,927.3331 4046.69,928.4113 Q4047.3775,929.4738 4048.7213,929.4738 Q4049.3463,929.4738 4049.94,929.2081 Q4050.5338,928.9269 4051.1588,928.3488 L4051.1588,931.0675 Z " fill="#000000"/><text fill="#000000" font-family="sans-serif" font-size="14" lengthAdjust="spacing" textLength="203.8955" x="4062.19" y="930.2736">PinTipCentreThenXrayCentre</text><line style="stroke:#181818;stroke-width:0.5;" x1="4034.19" x2="4268.0855" y1="941.4269" y2="941.4269"/><text fill="#000000" font-family="sans-serif" font-size="14" lengthAdjust="spacing" textLength="130.498" x="4039.19" y="958.422">float tip_offset_um</text><line style="stroke:#181818;stroke-width:0.5;" x1="4034.19" x2="4268.0855" y1="965.7238" y2="965.7238"/></g><!--class GridScanWithEdgeDetect--><g id="elem_GridScanWithEdgeDetect"><rect codeLine="85" fill="#F1F1F1" height="64.2969" id="GridScanWithEdgeDetect" rx="2.5" ry="2.5" style="stroke:#181818;stroke-width:0.5;" width="209.4268" x="4304.43" y="909.4269"/><ellipse cx="4319.43" cy="925.4269" fill="#ADD1B2" rx="11" ry="11" style="stroke:#181818;stroke-width:1;"/><path d="M4322.3988,931.0675 Q4321.8206,931.3644 4321.18,931.505 Q4320.5394,931.6613 4319.8363,931.6613 Q4317.3363,931.6613 4316.0081,930.0206 Q4314.6956,928.3644 4314.6956,925.2394 Q4314.6956,922.1144 4316.0081,920.4581 Q4317.3363,918.8019 4319.8363,918.8019 Q4320.5394,918.8019 4321.18,918.9581 Q4321.8363,919.1144 4322.3988,919.4113 L4322.3988,922.13 Q4321.7738,921.5519 4321.18,921.2863 Q4320.5863,921.005 4319.9613,921.005 Q4318.6175,921.005 4317.93,922.0831 Q4317.2425,923.1456 4317.2425,925.2394 Q4317.2425,927.3331 4317.93,928.4113 Q4318.6175,929.4738 4319.9613,929.4738 Q4320.5863,929.4738 4321.18,929.2081 Q4321.7738,928.9269 4322.3988,928.3488 L4322.3988,931.0675 Z " fill="#000000"/><text fill="#000000" font-family="sans-serif" font-size="14" lengthAdjust="spacing" textLength="177.4268" x="4333.43" y="930.2736">GridScanWithEdgeDetect</text><line style="stroke:#181818;stroke-width:0.5;" x1="4305.43" x2="4512.8568" y1="941.4269" y2="941.4269"/><text fill="#000000" font-family="sans-serif" font-size="14" lengthAdjust="spacing" textLength="125.2959" x="4310.43" y="958.422">float box_size_um</text><line style="stroke:#181818;stroke-width:0.5;" x1="4305.43" x2="4512.8568" y1="965.7238" y2="965.7238"/></g><!--class DiffractionExperiment--><g id="elem_DiffractionExperiment"><rect codeLine="88" fill="#F1F1F1" height="194.6719" id="DiffractionExperiment" rx="2.5" ry="2.5" style="stroke:#181818;stroke-width:0.5;" width="332.332" x="3601.97" y="275.7869"/><ellipse cx="3686.7527" cy="291.7869" fill="#ADD1B2" rx="11" ry="11" style="stroke:#181818;stroke-width:1;"/><path d="M3689.7215,297.4275 Q3689.1433,297.7244 3688.5027,297.865 Q3687.8621,298.0213 3687.159,298.0213 Q3684.659,298.0213 3683.3308,296.3806 Q3682.0183,294.7244 3682.0183,291.5994 Q3682.0183,288.4744 3683.3308,286.8181 Q3684.659,285.1619 3687.159,285.1619 Q3687.8621,285.1619 3688.5027,285.3181 Q3689.159,285.4744 3689.7215,285.7713 L3689.7215,288.49 Q3689.0965,287.9119 3688.5027,287.6463 Q3687.909,287.365 3687.284,287.365 Q3685.9402,287.365 3685.2527,288.4431 Q3684.5652,289.5056 3684.5652,291.5994 Q3684.5652,293.6931 3685.2527,294.7713 Q3685.9402,295.8338 3687.284,295.8338 Q3687.909,295.8338 3688.5027,295.5681 Q3689.0965,295.2869 3689.7215,294.7088 L3689.7215,297.4275 Z " fill="#000000"/><text fill="#000000" font-family="sans-serif" font-size="14" lengthAdjust="spacing" textLength="154.2666" x="3707.2527" y="296.6336">DiffractionExperiment</text><line style="stroke:#181818;stroke-width:0.5;" x1="3602.97" x2="3933.302" y1="307.7869" y2="307.7869"/><text fill="#000000" font-family="sans-serif" font-size="14" lengthAdjust="spacing" textLength="91.0137" x="3607.97" y="324.782">str file_name</text><text fill="#000000" font-family="sans-serif" font-size="14" lengthAdjust="spacing" textLength="153.7129" x="3607.97" y="341.0789">float exposure_time_s</text><text fill="#000000" font-family="sans-serif" font-size="14" lengthAdjust="spacing" textLength="89.5029" x="3607.97" y="357.3757">str comment</text><text fill="#000000" font-family="sans-serif" font-size="14" lengthAdjust="spacing" textLength="186.915" x="3607.97" y="373.6726">TriggerMode trigger_mode</text><text fill="#000000" font-family="sans-serif" font-size="14" lengthAdjust="spacing" textLength="157.9854" x="3607.97" y="389.9695">int | None run_number</text><text fill="#000000" font-family="sans-serif" font-size="14" lengthAdjust="spacing" textLength="282.3516" x="3607.97" y="406.2664">ApertureValue | None selected_aperture</text><text fill="#000000" font-family="sans-serif" font-size="14" lengthAdjust="spacing" textLength="159.2979" x="3607.97" y="422.5632">float transmission_frac</text><text fill="#000000" font-family="sans-serif" font-size="14" lengthAdjust="spacing" textLength="320.332" x="3607.97" y="438.8601">IspybExperimentType ispyb_experiment_type</text><text fill="#000000" font-family="sans-serif" font-size="14" lengthAdjust="spacing" textLength="146.1113" x="3607.97" y="455.157">str storage_directory</text><line style="stroke:#181818;stroke-width:0.5;" x1="3602.97" x2="3933.302" y1="462.4588" y2="462.4588"/></g><!--class RobotLoadThenCentre--><g id="elem_RobotLoadThenCentre"><rect codeLine="99" fill="#F1F1F1" height="80.5938" id="RobotLoadThenCentre" rx="2.5" ry="2.5" style="stroke:#181818;stroke-width:0.5;" width="189.0967" x="3809.59" y="901.2769"/><ellipse cx="3824.59" cy="917.2769" fill="#ADD1B2" rx="11" ry="11" style="stroke:#181818;stroke-width:1;"/><path d="M3827.5587,922.9175 Q3826.9806,923.2144 3826.34,923.355 Q3825.6994,923.5113 3824.9962,923.5113 Q3822.4962,923.5113 3821.1681,921.8706 Q3819.8556,920.2144 3819.8556,917.0894 Q3819.8556,913.9644 3821.1681,912.3081 Q3822.4962,910.6519 3824.9962,910.6519 Q3825.6994,910.6519 3826.34,910.8081 Q3826.9962,910.9644 3827.5587,911.2613 L3827.5587,913.98 Q3826.9337,913.4019 3826.34,913.1363 Q3825.7462,912.855 3825.1212,912.855 Q3823.7775,912.855 3823.09,913.9331 Q3822.4025,914.9956 3822.4025,917.0894 Q3822.4025,919.1831 3823.09,920.2613 Q3823.7775,921.3238 3825.1212,921.3238 Q3825.7462,921.3238 3826.34,921.0581 Q3826.9337,920.7769 3827.5587,920.1988 L3827.5587,922.9175 Z " fill="#000000"/><text fill="#000000" font-family="sans-serif" font-size="14" lengthAdjust="spacing" textLength="157.0967" x="3838.59" y="922.1236">RobotLoadThenCentre</text><line style="stroke:#181818;stroke-width:0.5;" x1="3810.59" x2="3997.6867" y1="933.2769" y2="933.2769"/><text fill="#000000" font-family="sans-serif" font-size="14" lengthAdjust="spacing" textLength="130.5732" x="3815.59" y="950.272">float thawing_time</text><text fill="#000000" font-family="sans-serif" font-size="14" lengthAdjust="spacing" textLength="130.498" x="3815.59" y="966.5689">float tip_offset_um</text><line style="stroke:#181818;stroke-width:0.5;" x1="3810.59" x2="3997.6867" y1="973.8706" y2="973.8706"/></g><!--class RotationScan--><g id="elem_RotationScan"><rect codeLine="106" fill="#F1F1F1" height="48" id="RotationScan" rx="2.5" ry="2.5" style="stroke:#181818;stroke-width:0.5;" width="125.2148" x="120.53" y="1312.8369"/><ellipse cx="135.53" cy="1328.8369" fill="#ADD1B2" rx="11" ry="11" style="stroke:#181818;stroke-width:1;"/><path d="M138.4988,1334.4775 Q137.9206,1334.7744 137.28,1334.915 Q136.6394,1335.0713 135.9363,1335.0713 Q133.4363,1335.0713 132.1081,1333.4306 Q130.7956,1331.7744 130.7956,1328.6494 Q130.7956,1325.5244 132.1081,1323.8681 Q133.4363,1322.2119 135.9363,1322.2119 Q136.6394,1322.2119 137.28,1322.3681 Q137.9363,1322.5244 138.4988,1322.8213 L138.4988,1325.54 Q137.8738,1324.9619 137.28,1324.6963 Q136.6863,1324.415 136.0613,1324.415 Q134.7175,1324.415 134.03,1325.4931 Q133.3425,1326.5556 133.3425,1328.6494 Q133.3425,1330.7431 134.03,1331.8213 Q134.7175,1332.8838 136.0613,1332.8838 Q136.6863,1332.8838 137.28,1332.6181 Q137.8738,1332.3369 138.4988,1331.7588 L138.4988,1334.4775 Z " fill="#000000"/><text fill="#000000" font-family="sans-serif" font-size="14" lengthAdjust="spacing" textLength="93.2148" x="149.53" y="1333.6836">RotationScan</text><line style="stroke:#181818;stroke-width:0.5;" x1="121.53" x2="244.7448" y1="1344.8369" y2="1344.8369"/><line style="stroke:#181818;stroke-width:0.5;" x1="121.53" x2="244.7448" y1="1352.8369" y2="1352.8369"/></g><!--class HyperionThreeDGridScan--><g id="elem_HyperionThreeDGridScan"><rect codeLine="108" fill="#F1F1F1" height="48" id="HyperionThreeDGridScan" rx="2.5" ry="2.5" style="stroke:#181818;stroke-width:0.5;" width="210.001" x="350.14" y="1155.9469"/><ellipse cx="365.14" cy="1171.9469" fill="#ADD1B2" rx="11" ry="11" style="stroke:#181818;stroke-width:1;"/><path d="M368.1088,1177.5875 Q367.5306,1177.8844 366.89,1178.025 Q366.2494,1178.1813 365.5463,1178.1813 Q363.0463,1178.1813 361.7181,1176.5406 Q360.4056,1174.8844 360.4056,1171.7594 Q360.4056,1168.6344 361.7181,1166.9781 Q363.0463,1165.3219 365.5463,1165.3219 Q366.2494,1165.3219 366.89,1165.4781 Q367.5463,1165.6344 368.1088,1165.9313 L368.1088,1168.65 Q367.4838,1168.0719 366.89,1167.8063 Q366.2963,1167.525 365.6713,1167.525 Q364.3275,1167.525 363.64,1168.6031 Q362.9525,1169.6656 362.9525,1171.7594 Q362.9525,1173.8531 363.64,1174.9313 Q364.3275,1175.9938 365.6713,1175.9938 Q366.2963,1175.9938 366.89,1175.7281 Q367.4838,1175.4469 368.1088,1174.8688 L368.1088,1177.5875 Z " fill="#000000"/><text fill="#000000" font-family="sans-serif" font-size="14" lengthAdjust="spacing" textLength="178.001" x="379.14" y="1176.7936">HyperionThreeDGridScan</text><line style="stroke:#181818;stroke-width:0.5;" x1="351.14" x2="559.141" y1="1187.9469" y2="1187.9469"/><line style="stroke:#181818;stroke-width:0.5;" x1="351.14" x2="559.141" y1="1195.9469" y2="1195.9469"/></g><!--class MultiRotationScan--><g id="elem_MultiRotationScan"><rect codeLine="110" fill="#F1F1F1" height="64.2969" id="MultiRotationScan" rx="2.5" ry="2.5" style="stroke:#181818;stroke-width:0.5;" width="540.001" x="387.14" y="1304.6869"/><ellipse cx="589.1727" cy="1320.6869" fill="#ADD1B2" rx="11" ry="11" style="stroke:#181818;stroke-width:1;"/><path d="M592.1415,1326.3275 Q591.5633,1326.6244 590.9227,1326.765 Q590.2821,1326.9213 589.579,1326.9213 Q587.079,1326.9213 585.7508,1325.2806 Q584.4383,1323.6244 584.4383,1320.4994 Q584.4383,1317.3744 585.7508,1315.7181 Q587.079,1314.0619 589.579,1314.0619 Q590.2821,1314.0619 590.9227,1314.2181 Q591.579,1314.3744 592.1415,1314.6713 L592.1415,1317.39 Q591.5165,1316.8119 590.9227,1316.5463 Q590.329,1316.265 589.704,1316.265 Q588.3602,1316.265 587.6727,1317.3431 Q586.9852,1318.4056 586.9852,1320.4994 Q586.9852,1322.5931 587.6727,1323.6713 Q588.3602,1324.7338 589.704,1324.7338 Q590.329,1324.7338 590.9227,1324.4681 Q591.5165,1324.1869 592.1415,1323.6088 L592.1415,1326.3275 Z " fill="#000000"/><text fill="#000000" font-family="sans-serif" font-size="14" lengthAdjust="spacing" textLength="127.4355" x="609.6727" y="1325.5336">MultiRotationScan</text><line style="stroke:#181818;stroke-width:0.5;" x1="388.14" x2="926.141" y1="1336.6869" y2="1336.6869"/><line style="stroke:#181818;stroke-width:0.5;" x1="388.14" x2="926.141" y1="1344.6869" y2="1344.6869"/><text fill="#000000" font-family="sans-serif" font-size="14" lengthAdjust="spacing" textLength="528.001" x="393.14" y="1361.682">Annotated[list[RotationScanPerSweep], Len(min_length=1)] rotation_scans</text></g><!--class RotationExperiment--><g id="elem_RotationExperiment"><rect codeLine="113" fill="#F1F1F1" height="96.8906" id="RotationExperiment" rx="2.5" ry="2.5" style="stroke:#181818;stroke-width:0.5;" width="332.332" x="594.97" y="1131.5069"/><ellipse cx="686.8518" cy="1147.5069" fill="#ADD1B2" rx="11" ry="11" style="stroke:#181818;stroke-width:1;"/><path d="M689.8206,1153.1475 Q689.2425,1153.4444 688.6018,1153.585 Q687.9612,1153.7413 687.2581,1153.7413 Q684.7581,1153.7413 683.43,1152.1006 Q682.1175,1150.4444 682.1175,1147.3194 Q682.1175,1144.1944 683.43,1142.5381 Q684.7581,1140.8819 687.2581,1140.8819 Q687.9612,1140.8819 688.6018,1141.0381 Q689.2581,1141.1944 689.8206,1141.4913 L689.8206,1144.21 Q689.1956,1143.6319 688.6018,1143.3663 Q688.0081,1143.085 687.3831,1143.085 Q686.0393,1143.085 685.3518,1144.1631 Q684.6643,1145.2256 684.6643,1147.3194 Q684.6643,1149.4131 685.3518,1150.4913 Q686.0393,1151.5538 687.3831,1151.5538 Q688.0081,1151.5538 688.6018,1151.2881 Q689.1956,1151.0069 689.8206,1150.4288 L689.8206,1153.1475 Z " fill="#000000"/><text fill="#000000" font-family="sans-serif" font-size="14" lengthAdjust="spacing" textLength="140.0684" x="707.3518" y="1152.3536">RotationExperiment</text><line style="stroke:#181818;stroke-width:0.5;" x1="595.97" x2="926.302" y1="1163.5069" y2="1163.5069"/><text fill="#000000" font-family="sans-serif" font-size="14" lengthAdjust="spacing" textLength="202.8018" x="600.97" y="1180.502">float shutter_opening_time_s</text><text fill="#000000" font-family="sans-serif" font-size="14" lengthAdjust="spacing" textLength="202.9385" x="600.97" y="1196.7989">float rotation_increment_deg</text><text fill="#000000" font-family="sans-serif" font-size="14" lengthAdjust="spacing" textLength="320.332" x="600.97" y="1213.0957">IspybExperimentType ispyb_experiment_type</text><line style="stroke:#181818;stroke-width:0.5;" x1="595.97" x2="926.302" y1="1220.3975" y2="1220.3975"/></g><!--class LoadCentreCollect--><g id="elem_LoadCentreCollect"><rect codeLine="118" fill="#F1F1F1" height="80.5938" id="LoadCentreCollect" rx="2.5" ry="2.5" style="stroke:#181818;stroke-width:0.5;" width="338.6211" x="324.83" y="901.2769"/><ellipse cx="425.455" cy="917.2769" fill="#ADD1B2" rx="11" ry="11" style="stroke:#181818;stroke-width:1;"/><path d="M428.4238,922.9175 Q427.8456,923.2144 427.205,923.355 Q426.5644,923.5113 425.8613,923.5113 Q423.3613,923.5113 422.0331,921.8706 Q420.7206,920.2144 420.7206,917.0894 Q420.7206,913.9644 422.0331,912.3081 Q423.3613,910.6519 425.8613,910.6519 Q426.5644,910.6519 427.205,910.8081 Q427.8613,910.9644 428.4238,911.2613 L428.4238,913.98 Q427.7988,913.4019 427.205,913.1363 Q426.6113,912.855 425.9863,912.855 Q424.6425,912.855 423.955,913.9331 Q423.2675,914.9956 423.2675,917.0894 Q423.2675,919.1831 423.955,920.2613 Q424.6425,921.3238 425.9863,921.3238 Q426.6113,921.3238 427.205,921.0581 Q427.7988,920.7769 428.4238,920.1988 L428.4238,922.9175 Z " fill="#000000"/><text fill="#000000" font-family="sans-serif" font-size="14" lengthAdjust="spacing" textLength="128.8711" x="445.955" y="922.1236">LoadCentreCollect</text><line style="stroke:#181818;stroke-width:0.5;" x1="325.83" x2="662.4511" y1="933.2769" y2="933.2769"/><text fill="#000000" font-family="sans-serif" font-size="14" lengthAdjust="spacing" textLength="326.6211" x="330.83" y="950.272">RobotLoadThenCentre robot_load_then_centre</text><text fill="#000000" font-family="sans-serif" font-size="14" lengthAdjust="spacing" textLength="269.3154" x="330.83" y="966.5689">MultiRotationScan multi_rotation_scan</text><line style="stroke:#181818;stroke-width:0.5;" x1="325.83" x2="662.4511" y1="973.8706" y2="973.8706"/></g><!--class WithHyperionFeatures--><g id="elem_WithHyperionFeatures"><rect codeLine="122" fill="#F1F1F1" height="64.2969" id="WithHyperionFeatures" rx="2.5" ry="2.5" style="stroke:#181818;stroke-width:0.5;" width="228.6719" x="698.8" y="909.4269"/><ellipse cx="731.7596" cy="925.4269" fill="#ADD1B2" rx="11" ry="11" style="stroke:#181818;stroke-width:1;"/><path d="M734.7283,931.0675 Q734.1502,931.3644 733.5096,931.505 Q732.8689,931.6613 732.1658,931.6613 Q729.6658,931.6613 728.3377,930.0206 Q727.0252,928.3644 727.0252,925.2394 Q727.0252,922.1144 728.3377,920.4581 Q729.6658,918.8019 732.1658,918.8019 Q732.8689,918.8019 733.5096,918.9581 Q734.1658,919.1144 734.7283,919.4113 L734.7283,922.13 Q734.1033,921.5519 733.5096,921.2863 Q732.9158,921.005 732.2908,921.005 Q730.9471,921.005 730.2596,922.0831 Q729.5721,923.1456 729.5721,925.2394 Q729.5721,927.3331 730.2596,928.4113 Q730.9471,929.4738 732.2908,929.4738 Q732.9158,929.4738 733.5096,929.2081 Q734.1033,928.9269 734.7283,928.3488 L734.7283,931.0675 Z " fill="#000000"/><text fill="#000000" font-family="sans-serif" font-size="14" lengthAdjust="spacing" textLength="156.7617" x="749.7506" y="930.2736">WithHyperionFeatures</text><line style="stroke:#181818;stroke-width:0.5;" x1="699.8" x2="926.4719" y1="941.4269" y2="941.4269"/><text fill="#000000" font-family="sans-serif" font-size="14" lengthAdjust="spacing" textLength="216.6719" x="704.8" y="958.422">HyperionFeatureFlags features</text><line style="stroke:#181818;stroke-width:0.5;" x1="699.8" x2="926.4719" y1="965.7238" y2="965.7238"/></g><!--class RotationScanPerSweep--><g id="elem_RotationScanPerSweep"><rect codeLine="125" fill="#F1F1F1" height="129.4844" id="RotationScanPerSweep" rx="2.5" ry="2.5" style="stroke:#181818;stroke-width:0.5;" width="263.0498" x="51.62" y="1115.2069"/><ellipse cx="97.6566" cy="1131.2069" fill="#ADD1B2" rx="11" ry="11" style="stroke:#181818;stroke-width:1;"/><path d="M100.6254,1136.8475 Q100.0472,1137.1444 99.4066,1137.285 Q98.766,1137.4413 98.0629,1137.4413 Q95.5629,1137.4413 94.2347,1135.8006 Q92.9222,1134.1444 92.9222,1131.0194 Q92.9222,1127.8944 94.2347,1126.2381 Q95.5629,1124.5819 98.0629,1124.5819 Q98.766,1124.5819 99.4066,1124.7381 Q100.0629,1124.8944 100.6254,1125.1913 L100.6254,1127.91 Q100.0004,1127.3319 99.4066,1127.0663 Q98.8129,1126.785 98.1879,1126.785 Q96.8441,1126.785 96.1566,1127.8631 Q95.4691,1128.9256 95.4691,1131.0194 Q95.4691,1133.1131 96.1566,1134.1913 Q96.8441,1135.2538 98.1879,1135.2538 Q98.8129,1135.2538 99.4066,1134.9881 Q100.0004,1134.7069 100.6254,1134.1288 L100.6254,1136.8475 Z " fill="#000000"/><text fill="#000000" font-family="sans-serif" font-size="14" lengthAdjust="spacing" textLength="162.4766" x="118.1566" y="1136.0536">RotationScanPerSweep</text><line style="stroke:#181818;stroke-width:0.5;" x1="52.62" x2="313.6698" y1="1147.2069" y2="1147.2069"/><text fill="#000000" font-family="sans-serif" font-size="14" lengthAdjust="spacing" textLength="157.1787" x="57.62" y="1164.202">float omega_start_deg</text><text fill="#000000" font-family="sans-serif" font-size="14" lengthAdjust="spacing" textLength="182.9297" x="57.62" y="1180.4989">RotationAxis rotation_axis</text><text fill="#000000" font-family="sans-serif" font-size="14" lengthAdjust="spacing" textLength="147.3213" x="57.62" y="1196.7957">float scan_width_deg</text><text fill="#000000" font-family="sans-serif" font-size="14" lengthAdjust="spacing" textLength="251.0498" x="57.62" y="1213.0926">RotationDirection rotation_direction</text><text fill="#000000" font-family="sans-serif" font-size="14" lengthAdjust="spacing" textLength="169.1279" x="57.62" y="1229.3895">int nexus_vds_start_img</text><line style="stroke:#181818;stroke-width:0.5;" x1="52.62" x2="313.6698" y1="1236.6913" y2="1236.6913"/></g><!--reverse link WithScan to RotationScan--><g id="link_WithScan_RotationScan"><path codeLine="133" d="M2094.4905,189.133 C2082.3605,203.633 2076.25,207.2869 2056.14,215.7869 C1898.5,282.3769 663.58,187.2369 517.14,275.7869 C332.97,387.1369 89.69,907.2869 34.14,1115.2069 C19.29,1170.8069 6,1194.4869 34.14,1244.6869 C52.6,1277.6269 88.35,1300.0769 120.2,1314.4669 " fill="transparent" id="WithScan-backto-RotationScan" style="stroke:#181818;stroke-width:1;"/><polygon fill="transparent" points="2106.04,175.3269,2089.8884,185.2831,2099.0925,192.9828,2106.04,175.3269" style="stroke:#181818;stroke-width:1;"/></g><!--reverse link RotationScanPerSweep to RotationScan--><g id="link_RotationScanPerSweep_RotationScan"><path codeLine="134" d="M183.14,1262.8469 C183.14,1286.8369 183.14,1294.6369 183.14,1312.6069 " fill="transparent" id="RotationScanPerSweep-backto-RotationScan" style="stroke:#181818;stroke-width:1;"/><polygon fill="transparent" points="183.14,1244.8469,177.14,1262.8469,189.14,1262.8469,183.14,1244.8469" style="stroke:#181818;stroke-width:1;"/></g><!--reverse link RotationExperiment to RotationScan--><g id="link_RotationExperiment_RotationScan"><path codeLine="135" d="M612.1578,1234.431 C595.0478,1240.081 594.79,1239.8869 578.14,1244.6869 C462.17,1278.1569 324.31,1307.6969 245.93,1323.5369 " fill="transparent" id="RotationExperiment-backto-RotationScan" style="stroke:#181818;stroke-width:1;"/><polygon fill="transparent" points="629.25,1228.7869,610.2764,1228.7336,614.0392,1240.1284,629.25,1228.7869" style="stroke:#181818;stroke-width:1;"/></g><!--reverse link GridCommon to RobotLoadThenCentre--><g id="link_GridCommon_RobotLoadThenCentre"><path codeLine="136" d="M3859.5195,785.4644 C3871.7195,827.8444 3882.35,864.8169 3892.76,901.0269 " fill="transparent" id="GridCommon-backto-RobotLoadThenCentre" style="stroke:#181818;stroke-width:1;"/><polygon fill="transparent" points="3854.54,768.1669,3853.7536,787.1242,3865.2853,783.8046,3854.54,768.1669" style="stroke:#181818;stroke-width:1;"/></g><!--reverse link DiffractionExperiment to DiffractionExperimentWithSample--><g id="link_DiffractionExperiment_DiffractionExperimentWithSample"><path codeLine="137" d="M3757.9088,488.8055 C3755.9288,510.9755 3755.6,514.6269 3754.22,530.1669 " fill="transparent" id="DiffractionExperiment-backto-DiffractionExperimentWithSample" style="stroke:#181818;stroke-width:1;"/><polygon fill="transparent" points="3759.51,470.8769,3751.9326,488.2718,3763.885,489.3393,3759.51,470.8769" style="stroke:#181818;stroke-width:1;"/></g><!--reverse link WithSample to DiffractionExperimentWithSample--><g id="link_WithSample_DiffractionExperimentWithSample"><path codeLine="138" d="M2384.1752,208.5071 C2394.9052,214.3871 2390.23,211.2569 2401.14,215.7869 C2630.18,310.7769 3359.56,470.3369 3640.42,530.0069 " fill="transparent" id="WithSample-backto-DiffractionExperimentWithSample" style="stroke:#181818;stroke-width:1;"/><polygon fill="transparent" points="2368.39,199.8569,2381.2918,213.7689,2387.0586,203.2454,2368.39,199.8569" style="stroke:#181818;stroke-width:1;"/></g><!--reverse link ThreeDGridScan to HyperionThreeDGridScan--><g id="link_ThreeDGridScan_HyperionThreeDGridScan"><path codeLine="139" d="M3583.5423,947.7719 C3088.2223,972.4319 652.16,1094.5669 577.14,1115.2069 C545.92,1123.7969 513.57,1141.1469 490.03,1155.5869 " fill="transparent" id="ThreeDGridScan-backto-HyperionThreeDGridScan" style="stroke:#181818;stroke-width:1;"/><polygon fill="transparent" points="3601.52,946.8769,3583.2439,941.7793,3583.8406,953.7645,3601.52,946.8769" style="stroke:#181818;stroke-width:1;"/></g><!--reverse link WithPandaGridScan to HyperionThreeDGridScan--><g id="link_WithPandaGridScan_HyperionThreeDGridScan"><path codeLine="140" d="M1249.6537,191.6535 C1225.2837,203.8135 1212.1,208.4969 1184.14,215.7869 C1016.99,259.3569 564.56,200.3969 409.14,275.7869 C258.11,349.0369 153.14,385.5969 153.14,553.4569 C153.14,553.4569 153.14,553.4569 153.14,704.1969 C153.14,887.6669 189.07,946.7769 307.14,1087.2069 C332.14,1116.9369 369.33,1139.9369 400.18,1155.4769 " fill="transparent" id="WithPandaGridScan-backto-HyperionThreeDGridScan" style="stroke:#181818;stroke-width:1;"/><polygon fill="transparent" points="1265.76,183.6169,1246.9748,186.2847,1252.3326,197.0223,1265.76,183.6169" style="stroke:#181818;stroke-width:1;"/></g><!--reverse link WithHyperionFeatures to HyperionThreeDGridScan--><g id="link_WithHyperionFeatures_HyperionThreeDGridScan"><path codeLine="141" d="M782.3723,988.6893 C759.2123,1021.7493 728.76,1058.2069 681.14,1087.2069 C640.26,1112.1069 621.73,1097.7969 577.14,1115.2069 C548.53,1126.3769 517.91,1142.3869 494.5,1155.5769 " fill="transparent" id="WithHyperionFeatures-backto-HyperionThreeDGridScan" style="stroke:#181818;stroke-width:1;"/><polygon fill="transparent" points="792.7,973.9469,777.4582,985.2467,787.2864,992.1318,792.7,973.9469" style="stroke:#181818;stroke-width:1;"/></g><!--reverse link RotationExperiment to MultiRotationScan--><g id="link_RotationExperiment_MultiRotationScan"><path codeLine="142" d="M719.0566,1243.6311 C702.4666,1268.3411 692.71,1282.8669 678.09,1304.6369 " fill="transparent" id="RotationExperiment-backto-MultiRotationScan" style="stroke:#181818;stroke-width:1;"/><polygon fill="transparent" points="729.09,1228.6869,714.0752,1240.2867,724.038,1246.9756,729.09,1228.6869" style="stroke:#181818;stroke-width:1;"/></g><!--reverse link SplitScan to MultiRotationScan--><g id="link_SplitScan_MultiRotationScan"><path codeLine="143" d="M3553.532,190.1803 C3563.562,204.5303 3568.11,207.0269 3586.14,215.7869 C3775.2,307.6569 4376.47,132.3669 4530.14,275.7869 C4621.16,360.7269 4567.14,428.9569 4567.14,553.4569 C4567.14,553.4569 4567.14,553.4569 4567.14,942.5769 C4567.14,1008.9269 4581.22,1044.8569 4530.14,1087.2069 C4254.22,1315.9669 1761.3,1336.2169 927.43,1336.5369 " fill="transparent" id="SplitScan-backto-MultiRotationScan" style="stroke:#181818;stroke-width:1;"/><polygon fill="transparent" points="3543.22,175.4269,3548.6142,193.6176,3558.4498,186.743,3543.22,175.4269" style="stroke:#181818;stroke-width:1;"/></g><!--reverse link XyzStarts to SpecifiedGrid--><g id="link_XyzStarts_SpecifiedGrid"><path codeLine="144" d="M2481.14,217.7969 C2481.14,263.8169 2481.14,313.4969 2481.14,348.7869 " fill="transparent" id="XyzStarts-backto-SpecifiedGrid" style="stroke:#181818;stroke-width:1;"/><polygon fill="transparent" points="2481.14,199.7969,2475.14,217.7969,2487.14,217.7969,2481.14,199.7969" style="stroke:#181818;stroke-width:1;"/></g><!--reverse link WithScan to SpecifiedGrid--><g id="link_WithScan_SpecifiedGrid"><path codeLine="145" d="M2154.1177,188.6584 C2166.2877,202.2084 2171.12,205.2669 2189.14,215.7869 C2270.02,262.9969 2311.5,226.5069 2391.14,275.7869 C2421.89,294.8069 2448.97,327.0469 2465.19,348.9369 " fill="transparent" id="WithScan-backto-SpecifiedGrid" style="stroke:#181818;stroke-width:1;"/><polygon fill="transparent" points="2142.09,175.2669,2149.6539,192.6677,2158.5816,184.6492,2142.09,175.2669" style="stroke:#181818;stroke-width:1;"/></g><!--reverse link MxBlueskyParameters to DiffractionExperiment--><g id="link_MxBlueskyParameters_DiffractionExperiment"><path codeLine="146" d="M3770.4638,201.5752 C3770.1338,225.6952 3769.91,242.3369 3769.46,275.3569 " fill="transparent" id="MxBlueskyParameters-backto-DiffractionExperiment" style="stroke:#181818;stroke-width:1;"/><polygon fill="transparent" points="3770.71,183.5769,3764.4643,201.4931,3776.4632,201.6573,3770.71,183.5769" style="stroke:#181818;stroke-width:1;"/></g><!--reverse link WithSnapshot to DiffractionExperiment--><g id="link_WithSnapshot_DiffractionExperiment"><path codeLine="147" d="M3419.3517,198.5886 C3476.2917,221.6686 3531.57,245.3569 3594.14,275.7869 C3596.62,276.9869 3599.12,278.2169 3601.63,279.4569 " fill="transparent" id="WithSnapshot-backto-DiffractionExperiment" style="stroke:#181818;stroke-width:1;"/><polygon fill="transparent" points="3402.67,191.8269,3417.0978,204.1492,3421.6056,193.0281,3402.67,191.8269" style="stroke:#181818;stroke-width:1;"/></g><!--reverse link WithOptionalEnergyChange to DiffractionExperiment--><g id="link_WithOptionalEnergyChange_DiffractionExperiment"><path codeLine="148" d="M3076.8147,191.6467 C3100.4047,203.4967 3112.41,207.9169 3139.14,215.7869 C3334.82,273.3469 3400.42,211.9369 3594.14,275.7869 C3596.6,276.5969 3599.06,277.4369 3601.53,278.3169 " fill="transparent" id="WithOptionalEnergyChange-backto-DiffractionExperiment" style="stroke:#181818;stroke-width:1;"/><polygon fill="transparent" points="3060.73,183.5669,3074.1214,197.0083,3079.5079,186.2852,3060.73,183.5669" style="stroke:#181818;stroke-width:1;"/></g><!--reverse link WithVisit to DiffractionExperiment--><g id="link_WithVisit_DiffractionExperiment"><path codeLine="149" d="M2868.5321,216.0577 C2874.5221,217.8277 2863.23,214.3569 2869.14,215.7869 C3183.39,291.8569 3284.7,182.0569 3594.14,275.7869 C3596.62,276.5369 3599.1,277.3269 3601.59,278.1469 " fill="transparent" id="WithVisit-backto-DiffractionExperiment" style="stroke:#181818;stroke-width:1;"/><polygon fill="transparent" points="2851.27,210.9569,2866.8319,221.8118,2870.2324,210.3037,2851.27,210.9569" style="stroke:#181818;stroke-width:1;"/></g><!--reverse link DiffractionExperimentWithSample to RotationExperiment--><g id="link_DiffractionExperimentWithSample_RotationExperiment"><path codeLine="150" d="M3621.8287,582.6199 C3165.4487,677.7499 1470.74,1031.0269 927.56,1144.2569 " fill="transparent" id="DiffractionExperimentWithSample-backto-RotationExperiment" style="stroke:#181818;stroke-width:1;"/><polygon fill="transparent" points="3639.45,578.9469,3620.6044,576.7462,3623.0531,588.4937,3639.45,578.9469" style="stroke:#181818;stroke-width:1;"/></g><!--reverse link WithHyperionFeatures to RotationExperiment--><g id="link_WithHyperionFeatures_RotationExperiment"><path codeLine="151" d="M802.3632,991.5366 C793.5232,1031.7266 781.99,1084.1769 771.68,1131.0469 " fill="transparent" id="WithHyperionFeatures-backto-RotationExperiment" style="stroke:#181818;stroke-width:1;"/><polygon fill="transparent" points="806.23,973.9569,796.5033,990.2477,808.2232,992.8256,806.23,973.9569" style="stroke:#181818;stroke-width:1;"/></g><!--reverse link DiffractionExperimentWithSample to GridCommon--><g id="link_DiffractionExperimentWithSample_GridCommon"><path codeLine="152" d="M3774.3962,594.3263 C3783.6062,610.4063 3787.38,617.0269 3799.51,638.2069 " fill="transparent" id="DiffractionExperimentWithSample-backto-GridCommon" style="stroke:#181818;stroke-width:1;"/><polygon fill="transparent" points="3765.45,578.7069,3769.1897,597.3083,3779.6027,591.3442,3765.45,578.7069" style="stroke:#181818;stroke-width:1;"/></g><!--reverse link OptionalGonioAngleStarts to GridCommon--><g id="link_OptionalGonioAngleStarts_GridCommon"><path codeLine="153" d="M2006.0474,219.7199 C2092.0574,292.6699 2240.06,406.7169 2401.14,470.4569 C2837.01,642.9269 3395.85,687.1169 3669.73,698.3869 " fill="transparent" id="OptionalGonioAngleStarts-backto-GridCommon" style="stroke:#181818;stroke-width:1;"/><polygon fill="transparent" points="1992.32,208.0769,2002.1664,224.2956,2009.9284,215.1441,1992.32,208.0769" style="stroke:#181818;stroke-width:1;"/></g><!--reverse link MxBlueskyParameters to LoadCentreCollect--><g id="link_MxBlueskyParameters_LoadCentreCollect"><path codeLine="154" d="M3683.0923,190.2635 C3651.3823,202.7535 3629.94,209.1069 3594.14,215.7869 C3451.07,242.4569 1103.98,208.1069 975.14,275.7869 C839.41,347.0869 591.87,768.4769 516.51,900.8169 " fill="transparent" id="MxBlueskyParameters-backto-LoadCentreCollect" style="stroke:#181818;stroke-width:1;"/><polygon fill="transparent" points="3699.84,183.6669,3680.8935,184.6809,3685.2912,195.846,3699.84,183.6669" style="stroke:#181818;stroke-width:1;"/></g><!--reverse link WithVisit to LoadCentreCollect--><g id="link_WithVisit_LoadCentreCollect"><path codeLine="155" d="M2561.7471,216.146 C2555.7371,217.816 2567.08,214.4969 2561.14,215.7869 C2365.33,258.1069 923.07,160.6269 759.14,275.7869 C649.85,352.5569 537.22,769.2769 503.94,900.7869 " fill="transparent" id="WithVisit-backto-LoadCentreCollect" style="stroke:#181818;stroke-width:1;"/><polygon fill="transparent" points="2579.09,211.3269,2560.1407,210.365,2563.3535,221.9269,2579.09,211.3269" style="stroke:#181818;stroke-width:1;"/></g><!--reverse link WithSample to LoadCentreCollect--><g id="link_WithSample_LoadCentreCollect"><path codeLine="156" d="M2211.3132,208.5039 C2199.4332,214.9039 2202.7,212.0069 2190.14,215.7869 C2026.16,265.1269 782.25,166.8369 650.14,275.7869 C457.16,434.9369 476.32,783.3469 489.02,900.9269 " fill="transparent" id="WithSample-backto-LoadCentreCollect" style="stroke:#181818;stroke-width:1;"/><polygon fill="transparent" points="2227.16,199.9669,2208.4676,203.2216,2214.1589,213.7861,2227.16,199.9669" style="stroke:#181818;stroke-width:1;"/></g><!--reverse link WithCentreSelection to LoadCentreCollect--><g id="link_WithCentreSelection_LoadCentreCollect"><path codeLine="157" d="M1543.8681,190.3885 C1513.5581,202.5685 1494.07,208.5569 1460.14,215.7869 C1356.15,237.9269 578.56,198.8869 505.14,275.7869 C337.74,451.1069 437.58,786.1369 478.86,900.8769 " fill="transparent" id="WithCentreSelection-backto-LoadCentreCollect" style="stroke:#181818;stroke-width:1;"/><polygon fill="transparent" points="1560.57,183.6769,1541.6309,184.8212,1546.1053,195.9558,1560.57,183.6769" style="stroke:#181818;stroke-width:1;"/></g><!--reverse link GridCommon to ThreeDGridScan--><g id="link_GridCommon_ThreeDGridScan"><path codeLine="158" d="M3786.5367,783.4225 C3774.9767,801.8825 3771.56,807.3369 3758.73,827.8269 " fill="transparent" id="GridCommon-backto-ThreeDGridScan" style="stroke:#181818;stroke-width:1;"/><polygon fill="transparent" points="3796.09,768.1669,3781.4514,780.238,3791.6219,786.6069,3796.09,768.1669" style="stroke:#181818;stroke-width:1;"/></g><!--reverse link SpecifiedGrid to ThreeDGridScan--><g id="link_SpecifiedGrid_ThreeDGridScan"><path codeLine="159" d="M2513.4246,410.8281 C2532.5946,431.9581 2550.95,449.5269 2582.14,470.4569 C2928.23,702.6469 3407.59,858.7069 3601.54,916.0869 " fill="transparent" id="SpecifiedGrid-backto-ThreeDGridScan" style="stroke:#181818;stroke-width:1;"/><polygon fill="transparent" points="2501.33,397.4969,2508.9809,414.8596,2517.8683,406.7965,2501.33,397.4969" style="stroke:#181818;stroke-width:1;"/></g><!--reverse link SplitScan to ThreeDGridScan--><g id="link_SplitScan_ThreeDGridScan"><path codeLine="160" d="M3534.7657,193.0972 C3543.6657,257.4572 3567.86,425.5769 3599.14,578.4569 C3616.34,662.4969 3639.57,756.5469 3657.99,827.7369 " fill="transparent" id="SplitScan-backto-ThreeDGridScan" style="stroke:#181818;stroke-width:1;"/><polygon fill="transparent" points="3532.3,175.2669,3528.8222,193.9191,3540.7091,192.2753,3532.3,175.2669" style="stroke:#181818;stroke-width:1;"/></g><!--reverse link WithOptionalEnergyChange to ThreeDGridScan--><g id="link_WithOptionalEnergyChange_ThreeDGridScan"><path codeLine="161" d="M3043.1743,197.0344 C3138.1443,306.5244 3445.58,660.9469 3601.28,840.4369 " fill="transparent" id="WithOptionalEnergyChange-backto-ThreeDGridScan" style="stroke:#181818;stroke-width:1;"/><polygon fill="transparent" points="3031.38,183.4369,3038.6418,200.9659,3047.7069,193.103,3031.38,183.4369" style="stroke:#181818;stroke-width:1;"/></g><!--reverse link OptionalGonioAngleStarts to RotationScanPerSweep--><g id="link_OptionalGonioAngleStarts_RotationScanPerSweep"><path codeLine="162" d="M1809.3561,214.3771 C1801.3561,217.3771 1810.14,213.6869 1802.14,215.7869 C1663.86,251.9669 632.89,191.9169 517.14,275.7869 C236.74,478.9469 191.43,944.5869 184.35,1114.9769 " fill="transparent" id="OptionalGonioAngleStarts-backto-RotationScanPerSweep" style="stroke:#181818;stroke-width:1;"/><polygon fill="transparent" points="1826.21,208.0569,1807.2493,208.7591,1811.4628,219.9951,1826.21,208.0569" style="stroke:#181818;stroke-width:1;"/></g><!--reverse link OptionalXyzStarts to RotationScanPerSweep--><g id="link_OptionalXyzStarts_RotationScanPerSweep"><path codeLine="163" d="M973.2267,154.2482 C769.6067,159.8082 290.83,182.3269 157.14,275.7869 C42.86,355.6669 11.14,414.0269 11.14,553.4569 C11.14,553.4569 11.14,553.4569 11.14,704.1969 C11.14,858.9269 92.9,1025.9669 143.68,1114.7969 " fill="transparent" id="OptionalXyzStarts-backto-RotationScanPerSweep" style="stroke:#181818;stroke-width:1;"/><polygon fill="transparent" points="991.22,153.7569,973.0629,148.2504,973.3905,160.246,991.22,153.7569" style="stroke:#181818;stroke-width:1;"/></g><!--reverse link GridCommon to PinTipCentreThenXrayCentre--><g id="link_GridCommon_PinTipCentreThenXrayCentre"><path codeLine="164" d="M3947.9123,778.5805 C3975.1523,797.2705 3989.7,807.8869 4016.14,827.9369 C4050.68,854.1269 4088.44,885.9169 4115.22,909.0369 " fill="transparent" id="GridCommon-backto-PinTipCentreThenXrayCentre" style="stroke:#181818;stroke-width:1;"/><polygon fill="transparent" points="3933.07,768.3969,3944.5177,783.5279,3951.3068,773.6331,3933.07,768.3969" style="stroke:#181818;stroke-width:1;"/></g><!--reverse link GridCommon to GridScanWithEdgeDetect--><g id="link_GridCommon_GridScanWithEdgeDetect"><path codeLine="165" d="M4020.2316,734.1458 C4108.3616,752.7558 4198.56,779.5369 4286.14,827.9369 C4323.9,848.8069 4359.37,883.5369 4382.43,908.9269 " fill="transparent" id="GridCommon-backto-GridScanWithEdgeDetect" style="stroke:#181818;stroke-width:1;"/><polygon fill="transparent" points="4002.62,730.4269,4018.992,740.0164,4021.4713,728.2753,4002.62,730.4269" style="stroke:#181818;stroke-width:1;"/></g><!--SRC=[bLVVRzms37u-_nLwsmOi0ThdxI5Dqcv0qmMxGrQW20ITpRE5s98WoSavr_xlfIJBvvzt6V8GYwGewkD7YlVBfk26x7W91F-psigB70HePY4ZsuR41LKb4xQkoalL98db5ZVyrIZGN0foppIhm88cTpA3CZ5WYK29KIo5DIXKMwc9a0AI16LFB0TIxUcshC4yDPUfh2efBbLqOyWXiJ87Mw3BGvAMp1ZoZx9u5Yk_DgzhoxGrXsIrAoMpv3lvWfx9dXedftKrKZHBYjUZuaTxod_S5kkKYKCdMIj8-Ov3zadpx2YEuNoIWiihaPSm7vMi86VjEHda8wqg-A8kFQ5xOahrlVR3V-26Mmp3M4ssmAgI8-n-zUmquJC3tCYDfLPIPqHJAPv18_XKCLi48ouCYl2QL6dOyVqe2FG1AIRMEs8Y1LeTWPocQPgVQMAMCYAOCeLqjxh7w8XfrtYozY4qoQh48BvvBuynmCxC9y5Ca8evl4MEvyrrmKGEXyabAoOo2jw4mlF0mJsgcED5e4oxKpafrRMerImq_aQiKgKxZ0jBZ5zGdeLbZ3v8LPq-pSgv67Yy1c4rLbk9WE2jqFL6gYyVcZkslvQri9s66Fz5Kx_1z8XUSXkv_sDQW7Vx3w5Ukt9tkLqxV2nF7t3fd7T5J2lN2-Xpa7UdtF3TJZCVoEtUzOyAm-WZ4WqThDU-CNJ0vYYYBpopHOyoi5VIr1geHLVK9Akjb2Mf3L0jkGyYMVrjLBCz7hV1neNj3cKKEY6rA4rMLxYswEw1uMKxo3rYa57MQhieDuK6k9bGm4NwBj2kNxrE_7ugTfK1YXh-2gFgc4fVvstVJqkfBtBq2QUOi6ZwYzUuyD1HRDyegBTKxdRuVMJ8FHSRhWBHDWM8hverOTLTt7BLRklNSCJ7vVaso-76TuvkqrRkkmkTv4dRrTnpHTq3iyW1P-LU5To3TQ1vdeDsRnEnuRlbHQ-gi5ofgAijw3Tp85vPCs4gRXpDgOlvV_7DHMgmW-6JsEjc4OL_vLRQpv9b3kunr0LxuIBtTrw2t_tDFBX5-t8Fdznuf6KEzU4h6D_wCT-Z_gukBHzkNLq9uGIGVVEzkQ-z1xr-0L2FlvFF87wjkA0bYDmMVxxxxP7erf8QD3KzC89um8TmRrFKrlKSgK14J1mFWhRpnqMgmOFlg-_jQOeXk5I4D5pBiWmSdiaHdeWoYeTd57keQ7jjifh0H2edeOCR3zfw1FuZC4Swrt97eeybot64Q_KJjFfmTtXDff9eVRN7CR2BXk6gWnZzjCrtiEF6azQr_cvR5aMXmWJiQqEVCzCUoAlS4pFEMkIFxnSNWtYJkU1Fc1rpE6DqV4YYSfAlPBRR1FCp3rPo_7oR_R22mfxvwaec8yPPwp5RJcvOGcz2qgGR3POCkcal60ncvb6UXxgPeU84Z4b_63ndDpVTdTlZP-TJHcUoEwJVoFbyScQCttJ8aTR9qc-HYU4YsfE-DaPZtg0Vpxp5Q2fTCXtNw8Yf0yuiM0mOEbCQotGO6Pz6Swup9PFVfYTinrTT7gecflDZr4y0]--></g></svg>