<svg xmlns="http://www.w3.org/2000/svg" xmlns:xlink="http://www.w3.org/1999/xlink" contentStyleType="text/css" data-diagram-type="CLASS" height="1104px" preserveAspectRatio="none" style="width:4203px;height:1104px;background:#FFFFFF;" version="1.1" viewBox="0 0 4203 1104" width="4203px" zoomAndPan="magnify"><title>Hyperion Parameter Model</title><defs/><g><g class="title" data-source-line="3"><text fill="#000000" font-family="sans-serif" font-size="14" font-weight="bold" lengthAdjust="spacing" textLength="212.4951" x="1988.5624" y="22.9951">Hyperion Parameter Model</text></g><!--cluster mx_bluesky.common.parameters--><g class="cluster" data-entity="mx_bluesky.common.parameters" data-source-line="6" data-uid="ent0002" id="cluster_mx_bluesky.common.parameters"><path d="M1314.75,43.2969 L1576.0625,43.2969 A3.75,3.75 0 0 1 1578.5625,45.7969 L1585.5625,65.5938 L4135.75,65.5938 A2.5,2.5 0 0 1 4138.25,68.0938 L4138.25,822.0269 A2.5,2.5 0 0 1 4135.75,824.5269 L1314.75,824.5269 A2.5,2.5 0 0 1 1312.25,822.0269 L1312.25,45.7969 A2.5,2.5 0 0 1 1314.75,43.2969" fill="none" style="stroke:#000000;stroke-width:1.5;"/><line style="stroke:#000000;stroke-width:1.5;" x1="1312.25" x2="1585.5625" y1="65.5938" y2="65.5938"/><text fill="#000000" font-family="sans-serif" font-size="14" font-weight="bold" lengthAdjust="spacing" textLength="260.3125" x="1316.25" y="58.292">mx_bluesky.common.parameters</text></g><!--cluster mx_bluesky.hyperion.parameters--><g class="cluster" data-entity="mx_bluesky.hyperion.parameters" data-source-line="71" data-uid="ent0015" id="cluster_mx_bluesky.hyperion.parameters"><path d="M110.75,660.4869 L375.2822,660.4869 A3.75,3.75 0 0 1 377.7822,662.9869 L384.7822,682.7838 L1285.75,682.7838 A2.5,2.5 0 0 1 1288.25,685.2838 L1288.25,1095.2169 A2.5,2.5 0 0 1 1285.75,1097.7169 L110.75,1097.7169 A2.5,2.5 0 0 1 108.25,1095.2169 L108.25,662.9869 A2.5,2.5 0 0 1 110.75,660.4869" fill="none" style="stroke:#000000;stroke-width:1.5;"/><line style="stroke:#000000;stroke-width:1.5;" x1="108.25" x2="384.7822" y1="682.7838" y2="682.7838"/><text fill="#000000" font-family="sans-serif" font-size="14" font-weight="bold" lengthAdjust="spacing" textLength="263.5322" x="112.25" y="675.482">mx_bluesky.hyperion.parameters</text></g><!--class WithSnapshot--><g class="entity" data-entity="WithSnapshot" data-source-line="8" data-uid="ent0003" id="entity_WithSnapshot"><rect fill="#F1F1F1" height="96.8906" rx="2.5" ry="2.5" style="stroke:#181818;stroke-width:0.5;" width="289.3477" x="2915.58" y="102.5869"/><ellipse cx="3007.2328" cy="118.5869" fill="#ADD1B2" rx="11" ry="11" style="stroke:#181818;stroke-width:1;"/><path d="M3010.2016,124.2275 Q3009.6235,124.5244 3008.9828,124.665 Q3008.3422,124.8213 3007.6391,124.8213 Q3005.1391,124.8213 3003.811,123.1806 Q3002.4985,121.5244 3002.4985,118.3994 Q3002.4985,115.2744 3003.811,113.6181 Q3005.1391,111.9619 3007.6391,111.9619 Q3008.3422,111.9619 3008.9828,112.1181 Q3009.6391,112.2744 3010.2016,112.5713 L3010.2016,115.29 Q3009.5766,114.7119 3008.9828,114.4463 Q3008.3891,114.165 3007.7641,114.165 Q3006.4203,114.165 3005.7328,115.2431 Q3005.0453,116.3056 3005.0453,118.3994 Q3005.0453,120.4931 3005.7328,121.5713 Q3006.4203,122.6338 3007.7641,122.6338 Q3008.3891,122.6338 3008.9828,122.3681 Q3009.5766,122.0869 3010.2016,121.5088 L3010.2016,124.2275 Z " fill="#000000"/><text fill="#000000" font-family="sans-serif" font-size="14" lengthAdjust="spacing" textLength="97.542" x="3027.7328" y="123.4336">WithSnapshot</text><line style="stroke:#181818;stroke-width:0.5;" x1="2916.58" x2="3203.9277" y1="134.5869" y2="134.5869"/><text fill="#000000" font-family="sans-serif" font-size="14" lengthAdjust="spacing" textLength="169.627" x="2921.58" y="151.582">Path snapshot_directory</text><text fill="#000000" font-family="sans-serif" font-size="14" lengthAdjust="spacing" textLength="277.3477" x="2921.58" y="167.8789">list[float] | None snapshot_omegas_deg</text><text fill="#000000" font-family="sans-serif" font-size="14" lengthAdjust="spacing" textLength="171.7051" x="2921.58" y="184.1757">bool use_grid_snapshots</text><line style="stroke:#181818;stroke-width:0.5;" x1="2916.58" x2="3203.9277" y1="191.4775" y2="191.4775"/></g><!--class WithSample--><g class="entity" data-entity="WithSample" data-source-line="13" data-uid="ent0004" id="entity_WithSample"><rect fill="#F1F1F1" height="96.8906" rx="2.5" ry="2.5" style="stroke:#181818;stroke-width:0.5;" width="176.3086" x="2122.1" y="102.5869"/><ellipse cx="2163.9743" cy="118.5869" fill="#ADD1B2" rx="11" ry="11" style="stroke:#181818;stroke-width:1;"/><path d="M2166.9431,124.2275 Q2166.3649,124.5244 2165.7243,124.665 Q2165.0837,124.8213 2164.3806,124.8213 Q2161.8806,124.8213 2160.5524,123.1806 Q2159.2399,121.5244 2159.2399,118.3994 Q2159.2399,115.2744 2160.5524,113.6181 Q2161.8806,111.9619 2164.3806,111.9619 Q2165.0837,111.9619 2165.7243,112.1181 Q2166.3806,112.2744 2166.9431,112.5713 L2166.9431,115.29 Q2166.3181,114.7119 2165.7243,114.4463 Q2165.1306,114.165 2164.5056,114.165 Q2163.1618,114.165 2162.4743,115.2431 Q2161.7868,116.3056 2161.7868,118.3994 Q2161.7868,120.4931 2162.4743,121.5713 Q2163.1618,122.6338 2164.5056,122.6338 Q2165.1306,122.6338 2165.7243,122.3681 Q2166.3181,122.0869 2166.9431,121.5088 L2166.9431,124.2275 Z " fill="#000000"/><text fill="#000000" font-family="sans-serif" font-size="14" lengthAdjust="spacing" textLength="84.5879" x="2183.9464" y="123.4336">WithSample</text><line style="stroke:#181818;stroke-width:0.5;" x1="2123.1" x2="2297.4086" y1="134.5869" y2="134.5869"/><text fill="#000000" font-family="sans-serif" font-size="14" lengthAdjust="spacing" textLength="93.3789" x="2128.1" y="151.582">int sample_id</text><text fill="#000000" font-family="sans-serif" font-size="14" lengthAdjust="spacing" textLength="164.3086" x="2128.1" y="167.8789">int | None sample_puck</text><text fill="#000000" font-family="sans-serif" font-size="14" lengthAdjust="spacing" textLength="152.3936" x="2128.1" y="184.1757">int | None sample_pin</text><line style="stroke:#181818;stroke-width:0.5;" x1="2123.1" x2="2297.4086" y1="191.4775" y2="191.4775"/></g><!--class SplitScan--><g class="entity" data-entity="SplitScan" data-source-line="18" data-uid="ent0005" id="entity_SplitScan"><rect fill="#F1F1F1" height="48" rx="2.5" ry="2.5" style="stroke:#181818;stroke-width:0.5;" width="97.0781" x="1336.72" y="127.0369"/><ellipse cx="1351.72" cy="143.0369" fill="#ADD1B2" rx="11" ry="11" style="stroke:#181818;stroke-width:1;"/><path d="M1354.6888,148.6775 Q1354.1106,148.9744 1353.47,149.115 Q1352.8294,149.2713 1352.1263,149.2713 Q1349.6263,149.2713 1348.2981,147.6306 Q1346.9856,145.9744 1346.9856,142.8494 Q1346.9856,139.7244 1348.2981,138.0681 Q1349.6263,136.4119 1352.1263,136.4119 Q1352.8294,136.4119 1353.47,136.5681 Q1354.1263,136.7244 1354.6888,137.0213 L1354.6888,139.74 Q1354.0638,139.1619 1353.47,138.8963 Q1352.8763,138.615 1352.2513,138.615 Q1350.9075,138.615 1350.22,139.6931 Q1349.5325,140.7556 1349.5325,142.8494 Q1349.5325,144.9431 1350.22,146.0213 Q1350.9075,147.0838 1352.2513,147.0838 Q1352.8763,147.0838 1353.47,146.8181 Q1354.0638,146.5369 1354.6888,145.9588 L1354.6888,148.6775 Z " fill="#000000"/><text fill="#000000" font-family="sans-serif" font-size="14" lengthAdjust="spacing" textLength="65.0781" x="1365.72" y="147.8836">SplitScan</text><line style="stroke:#181818;stroke-width:0.5;" x1="1337.72" x2="1432.7981" y1="159.0369" y2="159.0369"/><line style="stroke:#181818;stroke-width:0.5;" x1="1337.72" x2="1432.7981" y1="167.0369" y2="167.0369"/></g><!--class WithCentreSelection--><g class="entity" data-entity="WithCentreSelection" data-source-line="20" data-uid="ent0006" id="entity_WithCentreSelection"><rect fill="#F1F1F1" height="64.2969" rx="2.5" ry="2.5" style="stroke:#181818;stroke-width:0.5;" width="618.6689" x="1468.92" y="118.8869"/><ellipse cx="1702.1383" cy="134.8869" fill="#ADD1B2" rx="11" ry="11" style="stroke:#181818;stroke-width:1;"/><path d="M1705.107,140.5275 Q1704.5289,140.8244 1703.8883,140.965 Q1703.2476,141.1213 1702.5445,141.1213 Q1700.0445,141.1213 1698.7164,139.4806 Q1697.4039,137.8244 1697.4039,134.6994 Q1697.4039,131.5744 1698.7164,129.9181 Q1700.0445,128.2619 1702.5445,128.2619 Q1703.2476,128.2619 1703.8883,128.4181 Q1704.5445,128.5744 1705.107,128.8713 L1705.107,131.59 Q1704.482,131.0119 1703.8883,130.7463 Q1703.2945,130.465 1702.6695,130.465 Q1701.3258,130.465 1700.6383,131.5431 Q1699.9508,132.6056 1699.9508,134.6994 Q1699.9508,136.7931 1700.6383,137.8713 Q1701.3258,138.9338 1702.6695,138.9338 Q1703.2945,138.9338 1703.8883,138.6681 Q1704.482,138.3869 1705.107,137.8088 L1705.107,140.5275 Z " fill="#000000"/><text fill="#000000" font-family="sans-serif" font-size="14" lengthAdjust="spacing" textLength="143.7324" x="1722.6383" y="139.7336">WithCentreSelection</text><line style="stroke:#181818;stroke-width:0.5;" x1="1469.92" x2="2086.5889" y1="150.8869" y2="150.8869"/><text fill="#000000" font-family="sans-serif" font-size="14" lengthAdjust="spacing" textLength="606.6689" x="1474.92" y="167.882">TopNByMaxCountSelection | TopNByMaxCountForEachSampleSelection select_centres</text><line style="stroke:#181818;stroke-width:0.5;" x1="1469.92" x2="2086.5889" y1="175.1838" y2="175.1838"/></g><!--class WithPandaGridScan--><g class="entity" data-entity="WithPandaGridScan" data-source-line="23" data-uid="ent0007" id="entity_WithPandaGridScan"><rect fill="#F1F1F1" height="64.2969" rx="2.5" ry="2.5" style="stroke:#181818;stroke-width:0.5;" width="240.5664" x="2332.97" y="118.8869"/><ellipse cx="2379.5672" cy="134.8869" fill="#ADD1B2" rx="11" ry="11" style="stroke:#181818;stroke-width:1;"/><path d="M2382.5359,140.5275 Q2381.9578,140.8244 2381.3172,140.965 Q2380.6765,141.1213 2379.9734,141.1213 Q2377.4734,141.1213 2376.1453,139.4806 Q2374.8328,137.8244 2374.8328,134.6994 Q2374.8328,131.5744 2376.1453,129.9181 Q2377.4734,128.2619 2379.9734,128.2619 Q2380.6765,128.2619 2381.3172,128.4181 Q2381.9734,128.5744 2382.5359,128.8713 L2382.5359,131.59 Q2381.9109,131.0119 2381.3172,130.7463 Q2380.7234,130.465 2380.0984,130.465 Q2378.7547,130.465 2378.0672,131.5431 Q2377.3797,132.6056 2377.3797,134.6994 Q2377.3797,136.7931 2378.0672,137.8713 Q2378.7547,138.9338 2380.0984,138.9338 Q2380.7234,138.9338 2381.3172,138.6681 Q2381.9109,138.3869 2382.5359,137.8088 L2382.5359,140.5275 Z " fill="#000000"/><text fill="#000000" font-family="sans-serif" font-size="14" lengthAdjust="spacing" textLength="138.8721" x="2400.0672" y="139.7336">WithPandaGridScan</text><line style="stroke:#181818;stroke-width:0.5;" x1="2333.97" x2="2572.5364" y1="150.8869" y2="150.8869"/><text fill="#000000" font-family="sans-serif" font-size="14" lengthAdjust="spacing" textLength="228.5664" x="2338.97" y="167.882">float panda_runup_distance_mm</text><line style="stroke:#181818;stroke-width:0.5;" x1="2333.97" x2="2572.5364" y1="175.1838" y2="175.1838"/></g><!--class WithVisit--><g class="entity" data-entity="WithVisit" data-source-line="26" data-uid="ent0008" id="entity_WithVisit"><rect fill="#F1F1F1" height="129.4844" rx="2.5" ry="2.5" style="stroke:#181818;stroke-width:0.5;" width="271.7861" x="2608.36" y="86.2969"/><ellipse cx="2708.8859" cy="102.2969" fill="#ADD1B2" rx="11" ry="11" style="stroke:#181818;stroke-width:1;"/><path d="M2711.8546,107.9375 Q2711.2765,108.2344 2710.6359,108.375 Q2709.9953,108.5313 2709.2921,108.5313 Q2706.7921,108.5313 2705.464,106.8906 Q2704.1515,105.2344 2704.1515,102.1094 Q2704.1515,98.9844 2705.464,97.3281 Q2706.7921,95.6719 2709.2921,95.6719 Q2709.9953,95.6719 2710.6359,95.8281 Q2711.2921,95.9844 2711.8546,96.2813 L2711.8546,99 Q2711.2296,98.4219 2710.6359,98.1563 Q2710.0421,97.875 2709.4171,97.875 Q2708.0734,97.875 2707.3859,98.9531 Q2706.6984,100.0156 2706.6984,102.1094 Q2706.6984,104.2031 2707.3859,105.2813 Q2708.0734,106.3438 2709.4171,106.3438 Q2710.0421,106.3438 2710.6359,106.0781 Q2711.2296,105.7969 2711.8546,105.2188 L2711.8546,107.9375 Z " fill="#000000"/><text fill="#000000" font-family="sans-serif" font-size="14" lengthAdjust="spacing" textLength="62.2344" x="2729.3859" y="107.1436">WithVisit</text><line style="stroke:#181818;stroke-width:0.5;" x1="2609.36" x2="2879.1461" y1="118.2969" y2="118.2969"/><text fill="#000000" font-family="sans-serif" font-size="14" lengthAdjust="spacing" textLength="87.9717" x="2614.36" y="135.292">str beamline</text><text fill="#000000" font-family="sans-serif" font-size="14" lengthAdjust="spacing" textLength="51.8369" x="2614.36" y="151.5889">str visit</text><text fill="#000000" font-family="sans-serif" font-size="14" lengthAdjust="spacing" textLength="259.7861" x="2614.36" y="167.8857">str det_dist_to_beam_converter_path</text><text fill="#000000" font-family="sans-serif" font-size="14" lengthAdjust="spacing" textLength="131.5918" x="2614.36" y="184.1826">str insertion_prefix</text><text fill="#000000" font-family="sans-serif" font-size="14" lengthAdjust="spacing" textLength="245.752" x="2614.36" y="200.4795">float | None detector_distance_mm</text><line style="stroke:#181818;stroke-width:0.5;" x1="2609.36" x2="2879.1461" y1="207.7813" y2="207.7813"/></g><!--class WithOptionalEnergyChange--><g class="entity" data-entity="WithOptionalEnergyChange" data-source-line="33" data-uid="ent0009" id="entity_WithOptionalEnergyChange"><rect fill="#F1F1F1" height="64.2969" rx="2.5" ry="2.5" style="stroke:#181818;stroke-width:0.5;" width="235.4463" x="3239.53" y="118.8869"/><ellipse cx="3258.7145" cy="134.8869" fill="#ADD1B2" rx="11" ry="11" style="stroke:#181818;stroke-width:1;"/><path d="M3261.6832,140.5275 Q3261.1051,140.8244 3260.4645,140.965 Q3259.8238,141.1213 3259.1207,141.1213 Q3256.6207,141.1213 3255.2926,139.4806 Q3253.9801,137.8244 3253.9801,134.6994 Q3253.9801,131.5744 3255.2926,129.9181 Q3256.6207,128.2619 3259.1207,128.2619 Q3259.8238,128.2619 3260.4645,128.4181 Q3261.1207,128.5744 3261.6832,128.8713 L3261.6832,131.59 Q3261.0582,131.0119 3260.4645,130.7463 Q3259.8707,130.465 3259.2457,130.465 Q3257.902,130.465 3257.2145,131.5431 Q3256.527,132.6056 3256.527,134.6994 Q3256.527,136.7931 3257.2145,137.8713 Q3257.902,138.9338 3259.2457,138.9338 Q3259.8707,138.9338 3260.4645,138.6681 Q3261.0582,138.3869 3261.6832,137.8088 L3261.6832,140.5275 Z " fill="#000000"/><text fill="#000000" font-family="sans-serif" font-size="14" lengthAdjust="spacing" textLength="194.1475" x="3273.6444" y="139.7336">WithOptionalEnergyChange</text><line style="stroke:#181818;stroke-width:0.5;" x1="3240.53" x2="3473.9763" y1="150.8869" y2="150.8869"/><text fill="#000000" font-family="sans-serif" font-size="14" lengthAdjust="spacing" textLength="223.4463" x="3245.53" y="167.882">float | None demand_energy_ev</text><line style="stroke:#181818;stroke-width:0.5;" x1="3240.53" x2="3473.9763" y1="175.1838" y2="175.1838"/></g><!--class OptionalGonioAngleStarts--><g class="entity" data-entity="OptionalGonioAngleStarts" data-source-line="36" data-uid="ent0010" id="entity_OptionalGonioAngleStarts"><rect fill="#F1F1F1" height="113.1875" rx="2.5" ry="2.5" style="stroke:#181818;stroke-width:0.5;" width="219.3203" x="3509.59" y="94.4469"/><ellipse cx="3527.3133" cy="110.4469" fill="#ADD1B2" rx="11" ry="11" style="stroke:#181818;stroke-width:1;"/><path d="M3530.282,116.0875 Q3529.7039,116.3844 3529.0633,116.525 Q3528.4227,116.6813 3527.7195,116.6813 Q3525.2195,116.6813 3523.8914,115.0406 Q3522.5789,113.3844 3522.5789,110.2594 Q3522.5789,107.1344 3523.8914,105.4781 Q3525.2195,103.8219 3527.7195,103.8219 Q3528.4227,103.8219 3529.0633,103.9781 Q3529.7195,104.1344 3530.282,104.4313 L3530.282,107.15 Q3529.657,106.5719 3529.0633,106.3063 Q3528.4695,106.025 3527.8445,106.025 Q3526.5008,106.025 3525.8133,107.1031 Q3525.1258,108.1656 3525.1258,110.2594 Q3525.1258,112.3531 3525.8133,113.4313 Q3526.5008,114.4938 3527.8445,114.4938 Q3528.4695,114.4938 3529.0633,114.2281 Q3529.657,113.9469 3530.282,113.3688 L3530.282,116.0875 Z " fill="#000000"/><text fill="#000000" font-family="sans-serif" font-size="14" lengthAdjust="spacing" textLength="181.2686" x="3541.9185" y="115.2936">OptionalGonioAngleStarts</text><line style="stroke:#181818;stroke-width:0.5;" x1="3510.59" x2="3727.9103" y1="126.4469" y2="126.4469"/><text fill="#000000" font-family="sans-serif" font-size="14" lengthAdjust="spacing" textLength="207.3203" x="3515.59" y="143.442">float | None omega_start_deg</text><text fill="#000000" font-family="sans-serif" font-size="14" lengthAdjust="spacing" textLength="180.6875" x="3515.59" y="159.7389">float | None phi_start_deg</text><text fill="#000000" font-family="sans-serif" font-size="14" lengthAdjust="spacing" textLength="179.498" x="3515.59" y="176.0357">float | None chi_start_deg</text><text fill="#000000" font-family="sans-serif" font-size="14" lengthAdjust="spacing" textLength="202.0771" x="3515.59" y="192.3326">float | None kappa_start_deg</text><line style="stroke:#181818;stroke-width:0.5;" x1="3510.59" x2="3727.9103" y1="199.6344" y2="199.6344"/></g><!--class MxBlueskyParameters--><g class="entity" data-entity="MxBlueskyParameters" data-source-line="44" data-uid="ent0011" id="entity_MxBlueskyParameters"><rect fill="#F1F1F1" height="64.2969" rx="2.5" ry="2.5" style="stroke:#181818;stroke-width:0.5;" width="317.4639" x="3763.52" y="118.8869"/><ellipse cx="3840.1064" cy="134.8869" fill="#ADD1B2" rx="11" ry="11" style="stroke:#181818;stroke-width:1;"/><path d="M3843.0752,140.5275 Q3842.4971,140.8244 3841.8564,140.965 Q3841.2158,141.1213 3840.5127,141.1213 Q3838.0127,141.1213 3836.6846,139.4806 Q3835.3721,137.8244 3835.3721,134.6994 Q3835.3721,131.5744 3836.6846,129.9181 Q3838.0127,128.2619 3840.5127,128.2619 Q3841.2158,128.2619 3841.8564,128.4181 Q3842.5127,128.5744 3843.0752,128.8713 L3843.0752,131.59 Q3842.4502,131.0119 3841.8564,130.7463 Q3841.2627,130.465 3840.6377,130.465 Q3839.2939,130.465 3838.6064,131.5431 Q3837.9189,132.6056 3837.9189,134.6994 Q3837.9189,136.7931 3838.6064,137.8713 Q3839.2939,138.9338 3840.6377,138.9338 Q3841.2627,138.9338 3841.8564,138.6681 Q3842.4502,138.3869 3843.0752,137.8088 L3843.0752,140.5275 Z " fill="#000000"/><text fill="#000000" font-family="sans-serif" font-size="14" lengthAdjust="spacing" textLength="155.791" x="3860.6064" y="139.7336">MxBlueskyParameters</text><line style="stroke:#181818;stroke-width:0.5;" x1="3764.52" x2="4079.9839" y1="150.8869" y2="150.8869"/><text fill="#000000" font-family="sans-serif" font-size="14" lengthAdjust="spacing" textLength="305.4639" x="3769.52" y="167.882">SemanticVersion parameter_model_version</text><line style="stroke:#181818;stroke-width:0.5;" x1="3764.52" x2="4079.9839" y1="175.1838" y2="175.1838"/></g><!--class GridCommon--><g class="entity" data-entity="GridCommon" data-source-line="47" data-uid="ent0012" id="entity_GridCommon"><rect fill="#F1F1F1" height="145.7813" rx="2.5" ry="2.5" style="stroke:#181818;stroke-width:0.5;" width="332.332" x="3753.09" y="654.7469"/><ellipse cx="3868.7882" cy="670.7469" fill="#ADD1B2" rx="11" ry="11" style="stroke:#181818;stroke-width:1;"/><path d="M3871.757,676.3875 Q3871.1789,676.6844 3870.5382,676.825 Q3869.8976,676.9813 3869.1945,676.9813 Q3866.6945,676.9813 3865.3664,675.3406 Q3864.0539,673.6844 3864.0539,670.5594 Q3864.0539,667.4344 3865.3664,665.7781 Q3866.6945,664.1219 3869.1945,664.1219 Q3869.8976,664.1219 3870.5382,664.2781 Q3871.1945,664.4344 3871.757,664.7313 L3871.757,667.45 Q3871.132,666.8719 3870.5382,666.6063 Q3869.9445,666.325 3869.3195,666.325 Q3867.9757,666.325 3867.2882,667.4031 Q3866.6007,668.4656 3866.6007,670.5594 Q3866.6007,672.6531 3867.2882,673.7313 Q3867.9757,674.7938 3869.3195,674.7938 Q3869.9445,674.7938 3870.5382,674.5281 Q3871.132,674.2469 3871.757,673.6688 L3871.757,676.3875 Z " fill="#000000"/><text fill="#000000" font-family="sans-serif" font-size="14" lengthAdjust="spacing" textLength="92.4355" x="3889.2882" y="675.5936">GridCommon</text><line style="stroke:#181818;stroke-width:0.5;" x1="3754.09" x2="4084.422" y1="686.7469" y2="686.7469"/><text fill="#000000" font-family="sans-serif" font-size="14" lengthAdjust="spacing" textLength="125.2959" x="3759.09" y="703.742">float box_size_um</text><text fill="#000000" font-family="sans-serif" font-size="14" lengthAdjust="spacing" textLength="138.4209" x="3759.09" y="720.0389">float grid_width_um</text><text fill="#000000" font-family="sans-serif" font-size="14" lengthAdjust="spacing" textLength="153.7129" x="3759.09" y="736.3357">float exposure_time_s</text><text fill="#000000" font-family="sans-serif" font-size="14" lengthAdjust="spacing" textLength="320.332" x="3759.09" y="752.6326">IspybExperimentType ispyb_experiment_type</text><text fill="#000000" font-family="sans-serif" font-size="14" lengthAdjust="spacing" textLength="282.3516" x="3759.09" y="768.9295">ApertureValue | None selected_aperture</text><text fill="#000000" font-family="sans-serif" font-size="14" lengthAdjust="spacing" textLength="130.498" x="3759.09" y="785.2264">float tip_offset_um</text><line style="stroke:#181818;stroke-width:0.5;" x1="3754.09" x2="4084.422" y1="792.5281" y2="792.5281"/></g><!--class DiffractionExperimentWithSample--><g class="entity" data-entity="DiffractionExperimentWithSample" data-source-line="55" data-uid="ent0013" id="entity_DiffractionExperimentWithSample"><rect fill="#F1F1F1" height="48" rx="2.5" ry="2.5" style="stroke:#181818;stroke-width:0.5;" width="270.8545" x="3783.83" y="546.7469"/><ellipse cx="3798.83" cy="562.7469" fill="#ADD1B2" rx="11" ry="11" style="stroke:#181818;stroke-width:1;"/><path d="M3801.7988,568.3875 Q3801.2206,568.6844 3800.58,568.825 Q3799.9394,568.9813 3799.2363,568.9813 Q3796.7363,568.9813 3795.4081,567.3406 Q3794.0956,565.6844 3794.0956,562.5594 Q3794.0956,559.4344 3795.4081,557.7781 Q3796.7363,556.1219 3799.2363,556.1219 Q3799.9394,556.1219 3800.58,556.2781 Q3801.2363,556.4344 3801.7988,556.7313 L3801.7988,559.45 Q3801.1738,558.8719 3800.58,558.6063 Q3799.9863,558.325 3799.3613,558.325 Q3798.0175,558.325 3797.33,559.4031 Q3796.6425,560.4656 3796.6425,562.5594 Q3796.6425,564.6531 3797.33,565.7313 Q3798.0175,566.7938 3799.3613,566.7938 Q3799.9863,566.7938 3800.58,566.5281 Q3801.1738,566.2469 3801.7988,565.6688 L3801.7988,568.3875 Z " fill="#000000"/><text fill="#000000" font-family="sans-serif" font-size="14" lengthAdjust="spacing" textLength="238.8545" x="3812.83" y="567.5936">DiffractionExperimentWithSample</text><line style="stroke:#181818;stroke-width:0.5;" x1="3784.83" x2="4053.6845" y1="578.7469" y2="578.7469"/><line style="stroke:#181818;stroke-width:0.5;" x1="3784.83" x2="4053.6845" y1="586.7469" y2="586.7469"/></g><!--class DiffractionExperiment--><g class="entity" data-entity="DiffractionExperiment" data-source-line="57" data-uid="ent0014" id="entity_DiffractionExperiment"><rect fill="#F1F1F1" height="210.9688" rx="2.5" ry="2.5" style="stroke:#181818;stroke-width:0.5;" width="332.332" x="3753.09" y="275.7769"/><ellipse cx="3837.8727" cy="291.7769" fill="#ADD1B2" rx="11" ry="11" style="stroke:#181818;stroke-width:1;"/><path d="M3840.8415,297.4175 Q3840.2633,297.7144 3839.6227,297.855 Q3838.9821,298.0113 3838.279,298.0113 Q3835.779,298.0113 3834.4508,296.3706 Q3833.1383,294.7144 3833.1383,291.5894 Q3833.1383,288.4644 3834.4508,286.8081 Q3835.779,285.1519 3838.279,285.1519 Q3838.9821,285.1519 3839.6227,285.3081 Q3840.279,285.4644 3840.8415,285.7613 L3840.8415,288.48 Q3840.2165,287.9019 3839.6227,287.6363 Q3839.029,287.355 3838.404,287.355 Q3837.0602,287.355 3836.3727,288.4331 Q3835.6852,289.4956 3835.6852,291.5894 Q3835.6852,293.6831 3836.3727,294.7613 Q3837.0602,295.8238 3838.404,295.8238 Q3839.029,295.8238 3839.6227,295.5581 Q3840.2165,295.2769 3840.8415,294.6988 L3840.8415,297.4175 Z " fill="#000000"/><text fill="#000000" font-family="sans-serif" font-size="14" lengthAdjust="spacing" textLength="154.2666" x="3858.3727" y="296.6236">DiffractionExperiment</text><line style="stroke:#181818;stroke-width:0.5;" x1="3754.09" x2="4084.422" y1="307.7769" y2="307.7769"/><text fill="#000000" font-family="sans-serif" font-size="14" lengthAdjust="spacing" textLength="91.0137" x="3759.09" y="324.772">str file_name</text><text fill="#000000" font-family="sans-serif" font-size="14" lengthAdjust="spacing" textLength="153.7129" x="3759.09" y="341.0689">float exposure_time_s</text><text fill="#000000" font-family="sans-serif" font-size="14" lengthAdjust="spacing" textLength="89.5029" x="3759.09" y="357.3657">str comment</text><text fill="#000000" font-family="sans-serif" font-size="14" lengthAdjust="spacing" textLength="186.915" x="3759.09" y="373.6626">TriggerMode trigger_mode</text><text fill="#000000" font-family="sans-serif" font-size="14" lengthAdjust="spacing" textLength="157.9854" x="3759.09" y="389.9595">int | None run_number</text><text fill="#000000" font-family="sans-serif" font-size="14" lengthAdjust="spacing" textLength="282.3516" x="3759.09" y="406.2564">ApertureValue | None selected_aperture</text><text fill="#000000" font-family="sans-serif" font-size="14" lengthAdjust="spacing" textLength="159.2979" x="3759.09" y="422.5532">float transmission_frac</text><text fill="#000000" font-family="sans-serif" font-size="14" lengthAdjust="spacing" textLength="320.332" x="3759.09" y="438.8501">IspybExperimentType ispyb_experiment_type</text><text fill="#000000" font-family="sans-serif" font-size="14" lengthAdjust="spacing" textLength="146.1113" x="3759.09" y="455.147">str storage_directory</text><text fill="#000000" font-family="sans-serif" font-size="14" lengthAdjust="spacing" textLength="131.0518" x="3759.09" y="471.4439">bool use_roi_mode</text><line style="stroke:#181818;stroke-width:0.5;" x1="3754.09" x2="4084.422" y1="478.7456" y2="478.7456"/></g><!--class GridScanWithEdgeDetect--><g class="entity" data-entity="GridScanWithEdgeDetect" data-source-line="72" data-uid="ent0016" id="entity_GridScanWithEdgeDetect"><rect fill="#F1F1F1" height="48" rx="2.5" ry="2.5" style="stroke:#181818;stroke-width:0.5;" width="209.4268" x="996.54" y="1025.5669"/><ellipse cx="1011.54" cy="1041.5669" fill="#ADD1B2" rx="11" ry="11" style="stroke:#181818;stroke-width:1;"/><path d="M1014.5088,1047.2075 Q1013.9306,1047.5044 1013.29,1047.645 Q1012.6494,1047.8013 1011.9463,1047.8013 Q1009.4463,1047.8013 1008.1181,1046.1606 Q1006.8056,1044.5044 1006.8056,1041.3794 Q1006.8056,1038.2544 1008.1181,1036.5981 Q1009.4463,1034.9419 1011.9463,1034.9419 Q1012.6494,1034.9419 1013.29,1035.0981 Q1013.9463,1035.2544 1014.5088,1035.5513 L1014.5088,1038.27 Q1013.8838,1037.6919 1013.29,1037.4263 Q1012.6963,1037.145 1012.0713,1037.145 Q1010.7275,1037.145 1010.04,1038.2231 Q1009.3525,1039.2856 1009.3525,1041.3794 Q1009.3525,1043.4731 1010.04,1044.5513 Q1010.7275,1045.6138 1012.0713,1045.6138 Q1012.6963,1045.6138 1013.29,1045.3481 Q1013.8838,1045.0669 1014.5088,1044.4888 L1014.5088,1047.2075 Z " fill="#000000"/><text fill="#000000" font-family="sans-serif" font-size="14" lengthAdjust="spacing" textLength="177.4268" x="1025.54" y="1046.4136">GridScanWithEdgeDetect</text><line style="stroke:#181818;stroke-width:0.5;" x1="997.54" x2="1204.9668" y1="1057.5669" y2="1057.5669"/><line style="stroke:#181818;stroke-width:0.5;" x1="997.54" x2="1204.9668" y1="1065.5669" y2="1065.5669"/></g><!--class RotationExperiment--><g class="entity" data-entity="RotationExperiment" data-source-line="74" data-uid="ent0017" id="entity_RotationExperiment"><rect fill="#F1F1F1" height="96.8906" rx="2.5" ry="2.5" style="stroke:#181818;stroke-width:0.5;" width="332.332" x="571.09" y="860.5269"/><ellipse cx="662.9718" cy="876.5269" fill="#ADD1B2" rx="11" ry="11" style="stroke:#181818;stroke-width:1;"/><path d="M665.9406,882.1675 Q665.3625,882.4644 664.7218,882.605 Q664.0812,882.7613 663.3781,882.7613 Q660.8781,882.7613 659.55,881.1206 Q658.2375,879.4644 658.2375,876.3394 Q658.2375,873.2144 659.55,871.5581 Q660.8781,869.9019 663.3781,869.9019 Q664.0812,869.9019 664.7218,870.0581 Q665.3781,870.2144 665.9406,870.5113 L665.9406,873.23 Q665.3156,872.6519 664.7218,872.3863 Q664.1281,872.105 663.5031,872.105 Q662.1593,872.105 661.4718,873.1831 Q660.7843,874.2456 660.7843,876.3394 Q660.7843,878.4331 661.4718,879.5113 Q662.1593,880.5738 663.5031,880.5738 Q664.1281,880.5738 664.7218,880.3081 Q665.3156,880.0269 665.9406,879.4488 L665.9406,882.1675 Z " fill="#000000"/><text fill="#000000" font-family="sans-serif" font-size="14" lengthAdjust="spacing" textLength="140.0684" x="683.4718" y="881.3736">RotationExperiment</text><line style="stroke:#181818;stroke-width:0.5;" x1="572.09" x2="902.422" y1="892.5269" y2="892.5269"/><text fill="#000000" font-family="sans-serif" font-size="14" lengthAdjust="spacing" textLength="202.8018" x="577.09" y="909.522">float shutter_opening_time_s</text><text fill="#000000" font-family="sans-serif" font-size="14" lengthAdjust="spacing" textLength="202.9385" x="577.09" y="925.8189">float rotation_increment_deg</text><text fill="#000000" font-family="sans-serif" font-size="14" lengthAdjust="spacing" textLength="320.332" x="577.09" y="942.1157">IspybExperimentType ispyb_experiment_type</text><line style="stroke:#181818;stroke-width:0.5;" x1="572.09" x2="902.422" y1="949.4175" y2="949.4175"/></g><!--class PinTipCentreThenXrayCentre--><g class="entity" data-entity="PinTipCentreThenXrayCentre" data-source-line="79" data-uid="ent0018" id="entity_PinTipCentreThenXrayCentre"><rect fill="#F1F1F1" height="64.2969" rx="2.5" ry="2.5" style="stroke:#181818;stroke-width:0.5;" width="235.8955" x="721.31" y="1017.4169"/><ellipse cx="736.31" cy="1033.4169" fill="#ADD1B2" rx="11" ry="11" style="stroke:#181818;stroke-width:1;"/><path d="M739.2788,1039.0575 Q738.7006,1039.3544 738.06,1039.495 Q737.4194,1039.6513 736.7163,1039.6513 Q734.2163,1039.6513 732.8881,1038.0106 Q731.5756,1036.3544 731.5756,1033.2294 Q731.5756,1030.1044 732.8881,1028.4481 Q734.2163,1026.7919 736.7163,1026.7919 Q737.4194,1026.7919 738.06,1026.9481 Q738.7163,1027.1044 739.2788,1027.4013 L739.2788,1030.12 Q738.6538,1029.5419 738.06,1029.2763 Q737.4663,1028.995 736.8413,1028.995 Q735.4975,1028.995 734.81,1030.0731 Q734.1225,1031.1356 734.1225,1033.2294 Q734.1225,1035.3231 734.81,1036.4013 Q735.4975,1037.4638 736.8413,1037.4638 Q737.4663,1037.4638 738.06,1037.1981 Q738.6538,1036.9169 739.2788,1036.3388 L739.2788,1039.0575 Z " fill="#000000"/><text fill="#000000" font-family="sans-serif" font-size="14" lengthAdjust="spacing" textLength="203.8955" x="750.31" y="1038.2636">PinTipCentreThenXrayCentre</text><line style="stroke:#181818;stroke-width:0.5;" x1="722.31" x2="956.2055" y1="1049.4169" y2="1049.4169"/><text fill="#000000" font-family="sans-serif" font-size="14" lengthAdjust="spacing" textLength="130.498" x="727.31" y="1066.412">float tip_offset_um</text><line style="stroke:#181818;stroke-width:0.5;" x1="722.31" x2="956.2055" y1="1073.7138" y2="1073.7138"/></g><!--class WithHyperionUDCFeatures--><g class="entity" data-entity="WithHyperionUDCFeatures" data-source-line="82" data-uid="ent0019" id="entity_WithHyperionUDCFeatures"><rect fill="#F1F1F1" height="64.2969" rx="2.5" ry="2.5" style="stroke:#181818;stroke-width:0.5;" width="228.6719" x="600.92" y="695.4869"/><ellipse cx="620.0183" cy="711.4869" fill="#ADD1B2" rx="11" ry="11" style="stroke:#181818;stroke-width:1;"/><path d="M622.9871,717.1275 Q622.409,717.4244 621.7683,717.565 Q621.1277,717.7213 620.4246,717.7213 Q617.9246,717.7213 616.5965,716.0806 Q615.284,714.4244 615.284,711.2994 Q615.284,708.1744 616.5965,706.5181 Q617.9246,704.8619 620.4246,704.8619 Q621.1277,704.8619 621.7683,705.0181 Q622.4246,705.1744 622.9871,705.4713 L622.9871,708.19 Q622.3621,707.6119 621.7683,707.3463 Q621.1746,707.065 620.5496,707.065 Q619.2058,707.065 618.5183,708.1431 Q617.8308,709.2056 617.8308,711.2994 Q617.8308,713.3931 618.5183,714.4713 Q619.2058,715.5338 620.5496,715.5338 Q621.1746,715.5338 621.7683,715.2681 Q622.3621,714.9869 622.9871,714.4088 L622.9871,717.1275 Z " fill="#000000"/><text fill="#000000" font-family="sans-serif" font-size="14" lengthAdjust="spacing" textLength="187.5645" x="634.9291" y="716.3336">WithHyperionUDCFeatures</text><line style="stroke:#181818;stroke-width:0.5;" x1="601.92" x2="828.5919" y1="727.4869" y2="727.4869"/><text fill="#000000" font-family="sans-serif" font-size="14" lengthAdjust="spacing" textLength="216.6719" x="606.92" y="744.482">HyperionFeatureFlags features</text><line style="stroke:#181818;stroke-width:0.5;" x1="601.92" x2="828.5919" y1="751.7838" y2="751.7838"/></g><!--class LoadCentreCollect--><g class="entity" data-entity="LoadCentreCollect" data-source-line="85" data-uid="ent0020" id="entity_LoadCentreCollect"><rect fill="#F1F1F1" height="80.5938" rx="2.5" ry="2.5" style="stroke:#181818;stroke-width:0.5;" width="338.6211" x="160.94" y="868.6769"/><ellipse cx="261.565" cy="884.6769" fill="#ADD1B2" rx="11" ry="11" style="stroke:#181818;stroke-width:1;"/><path d="M264.5338,890.3175 Q263.9556,890.6144 263.315,890.755 Q262.6744,890.9113 261.9713,890.9113 Q259.4713,890.9113 258.1431,889.2706 Q256.8306,887.6144 256.8306,884.4894 Q256.8306,881.3644 258.1431,879.7081 Q259.4713,878.0519 261.9713,878.0519 Q262.6744,878.0519 263.315,878.2081 Q263.9713,878.3644 264.5338,878.6613 L264.5338,881.38 Q263.9088,880.8019 263.315,880.5363 Q262.7213,880.255 262.0963,880.255 Q260.7525,880.255 260.065,881.3331 Q259.3775,882.3956 259.3775,884.4894 Q259.3775,886.5831 260.065,887.6613 Q260.7525,888.7238 262.0963,888.7238 Q262.7213,888.7238 263.315,888.4581 Q263.9088,888.1769 264.5338,887.5988 L264.5338,890.3175 Z " fill="#000000"/><text fill="#000000" font-family="sans-serif" font-size="14" lengthAdjust="spacing" textLength="128.8711" x="282.065" y="889.5236">LoadCentreCollect</text><line style="stroke:#181818;stroke-width:0.5;" x1="161.94" x2="498.5611" y1="900.6769" y2="900.6769"/><text fill="#000000" font-family="sans-serif" font-size="14" lengthAdjust="spacing" textLength="326.6211" x="166.94" y="917.672">RobotLoadThenCentre robot_load_then_centre</text><text fill="#000000" font-family="sans-serif" font-size="14" lengthAdjust="spacing" textLength="235.0947" x="166.94" y="933.9689">RotationScan multi_rotation_scan</text><line style="stroke:#181818;stroke-width:0.5;" x1="161.94" x2="498.5611" y1="941.2706" y2="941.2706"/></g><!--class RotationScan--><g class="entity" data-entity="RotationScan" data-source-line="89" data-uid="ent0021" id="entity_RotationScan"><rect fill="#F1F1F1" height="64.2969" rx="2.5" ry="2.5" style="stroke:#181818;stroke-width:0.5;" width="540.001" x="139.25" y="1017.4169"/><ellipse cx="358.3931" cy="1033.4169" fill="#ADD1B2" rx="11" ry="11" style="stroke:#181818;stroke-width:1;"/><path d="M361.3618,1039.0575 Q360.7837,1039.3544 360.1431,1039.495 Q359.5024,1039.6513 358.7993,1039.6513 Q356.2993,1039.6513 354.9712,1038.0106 Q353.6587,1036.3544 353.6587,1033.2294 Q353.6587,1030.1044 354.9712,1028.4481 Q356.2993,1026.7919 358.7993,1026.7919 Q359.5024,1026.7919 360.1431,1026.9481 Q360.7993,1027.1044 361.3618,1027.4013 L361.3618,1030.12 Q360.7368,1029.5419 360.1431,1029.2763 Q359.5493,1028.995 358.9243,1028.995 Q357.5806,1028.995 356.8931,1030.0731 Q356.2056,1031.1356 356.2056,1033.2294 Q356.2056,1035.3231 356.8931,1036.4013 Q357.5806,1037.4638 358.9243,1037.4638 Q359.5493,1037.4638 360.1431,1037.1981 Q360.7368,1036.9169 361.3618,1036.3388 L361.3618,1039.0575 Z " fill="#000000"/><text fill="#000000" font-family="sans-serif" font-size="14" lengthAdjust="spacing" textLength="93.2148" x="378.8931" y="1038.2636">RotationScan</text><line style="stroke:#181818;stroke-width:0.5;" x1="140.25" x2="678.251" y1="1049.4169" y2="1049.4169"/><line style="stroke:#181818;stroke-width:0.5;" x1="140.25" x2="678.251" y1="1057.4169" y2="1057.4169"/><text fill="#000000" font-family="sans-serif" font-size="14" lengthAdjust="spacing" textLength="528.001" x="145.25" y="1074.412">Annotated[list[RotationScanPerSweep], Len(min_length=1)] rotation_scans</text></g><!--class GridCommonWithHyperionDetectorParams--><g class="entity" data-entity="GridCommonWithHyperionDetectorParams" data-source-line="92" data-uid="ent0022" id="entity_GridCommonWithHyperionDetectorParams"><rect fill="#F1F1F1" height="48" rx="2.5" ry="2.5" style="stroke:#181818;stroke-width:0.5;" width="333.2188" x="938.65" y="884.9769"/><ellipse cx="953.65" cy="900.9769" fill="#ADD1B2" rx="11" ry="11" style="stroke:#181818;stroke-width:1;"/><path d="M956.6188,906.6175 Q956.0406,906.9144 955.4,907.055 Q954.7594,907.2113 954.0563,907.2113 Q951.5563,907.2113 950.2281,905.5706 Q948.9156,903.9144 948.9156,900.7894 Q948.9156,897.6644 950.2281,896.0081 Q951.5563,894.3519 954.0563,894.3519 Q954.7594,894.3519 955.4,894.5081 Q956.0563,894.6644 956.6188,894.9613 L956.6188,897.68 Q955.9938,897.1019 955.4,896.8363 Q954.8063,896.555 954.1813,896.555 Q952.8375,896.555 952.15,897.6331 Q951.4625,898.6956 951.4625,900.7894 Q951.4625,902.8831 952.15,903.9613 Q952.8375,905.0238 954.1813,905.0238 Q954.8063,905.0238 955.4,904.7581 Q955.9938,904.4769 956.6188,903.8988 L956.6188,906.6175 Z " fill="#000000"/><text fill="#000000" font-family="sans-serif" font-size="14" lengthAdjust="spacing" textLength="301.2188" x="967.65" y="905.8236">GridCommonWithHyperionDetectorParams</text><line style="stroke:#181818;stroke-width:0.5;" x1="939.65" x2="1270.8688" y1="916.9769" y2="916.9769"/><line style="stroke:#181818;stroke-width:0.5;" x1="939.65" x2="1270.8688" y1="924.9769" y2="924.9769"/></g><!--reverse link DiffractionExperiment to DiffractionExperimentWithSample--><g class="link" data-entity-1="DiffractionExperiment" data-entity-2="DiffractionExperimentWithSample" data-source-line="95" data-uid="lnk23" id="link_DiffractionExperiment_DiffractionExperimentWithSample"><path codeLine="95" d="M3919.25,505.2469 C3919.25,527.4969 3919.25,530.8969 3919.25,546.3269" fill="none" id="DiffractionExperiment-backto-DiffractionExperimentWithSample" style="stroke:#181818;stroke-width:1;"/><polygon fill="none" points="3919.25,487.2469,3913.25,505.2469,3925.25,505.2469,3919.25,487.2469" style="stroke:#181818;stroke-width:1;"/></g><!--reverse link WithSample to DiffractionExperimentWithSample--><g class="link" data-entity-1="WithSample" data-entity-2="DiffractionExperimentWithSample" data-source-line="96" data-uid="lnk24" id="link_WithSample_DiffractionExperimentWithSample"><path codeLine="96" d="M2286.8673,209.7098 C2300.6073,218.7098 2300.45,217.4169 2315.25,223.7769 C2829.88,444.9569 3500.21,530.4769 3783.48,558.2469" fill="none" id="WithSample-backto-DiffractionExperimentWithSample" style="stroke:#181818;stroke-width:1;"/><polygon fill="none" points="2271.81,199.8469,2283.5797,214.7289,2290.155,204.6906,2271.81,199.8469" style="stroke:#181818;stroke-width:1;"/></g><!--reverse link DiffractionExperimentWithSample to GridCommon--><g class="link" data-entity-1="DiffractionExperimentWithSample" data-entity-2="GridCommon" data-source-line="97" data-uid="lnk25" id="link_DiffractionExperimentWithSample_GridCommon"><path codeLine="97" d="M3919.25,612.9369 C3919.25,628.8869 3919.25,633.0069 3919.25,654.5669" fill="none" id="DiffractionExperimentWithSample-backto-GridCommon" style="stroke:#181818;stroke-width:1;"/><polygon fill="none" points="3919.25,594.9369,3913.25,612.9369,3925.25,612.9369,3919.25,594.9369" style="stroke:#181818;stroke-width:1;"/></g><!--reverse link OptionalGonioAngleStarts to GridCommon--><g class="link" data-entity-1="OptionalGonioAngleStarts" data-entity-2="GridCommon" data-source-line="98" data-uid="lnk26" id="link_OptionalGonioAngleStarts_GridCommon"><path codeLine="98" d="M3718.1843,216.5073 C3729.5943,222.5373 3725.52,219.5769 3737.25,223.7769 C3814.6,251.4569 4049.41,213.7369 4103.25,275.7769 C4196.62,383.3469 4149.05,474.7869 4072.25,594.7469 C4058.26,616.6069 4039.58,636.8469 4020.08,654.5769" fill="none" id="OptionalGonioAngleStarts-backto-GridCommon" style="stroke:#181818;stroke-width:1;"/><polygon fill="none" points="3702.27,208.0969,3715.3808,221.8121,3720.9878,211.2026,3702.27,208.0969" style="stroke:#181818;stroke-width:1;"/></g><!--reverse link GridCommonWithHyperionDetectorParams to GridScanWithEdgeDetect--><g class="link" data-entity-1="GridCommonWithHyperionDetectorParams" data-entity-2="GridScanWithEdgeDetect" data-source-line="99" data-uid="lnk27" id="link_GridCommonWithHyperionDetectorParams_GridScanWithEdgeDetect"><path codeLine="99" d="M1104.0695,951.1693 C1103.3295,976.7493 1102.67,999.6769 1101.93,1025.2969" fill="none" id="GridCommonWithHyperionDetectorParams-backto-GridScanWithEdgeDetect" style="stroke:#181818;stroke-width:1;"/><polygon fill="none" points="1104.59,933.1769,1098.072,950.9958,1110.067,951.3428,1104.59,933.1769" style="stroke:#181818;stroke-width:1;"/></g><!--reverse link WithHyperionUDCFeatures to GridScanWithEdgeDetect--><g class="link" data-entity-1="WithHyperionUDCFeatures" data-entity-2="GridScanWithEdgeDetect" data-source-line="100" data-uid="lnk28" id="link_WithHyperionUDCFeatures_GridScanWithEdgeDetect"><path codeLine="100" d="M638.8243,769.471 C602.1943,791.981 574.12,816.6369 553.25,860.5269 C534.77,899.4169 525.03,924.8969 553.25,957.4169 C615.18,1028.7969 881.47,999.4769 974.25,1017.4169 C985.96,1019.6869 998.2,1022.3269 1010.27,1025.1069" fill="none" id="WithHyperionUDCFeatures-backto-GridScanWithEdgeDetect" style="stroke:#181818;stroke-width:1;"/><polygon fill="none" points="654.16,760.0469,635.6829,764.3591,641.9657,774.583,654.16,760.0469" style="stroke:#181818;stroke-width:1;"/></g><!--reverse link DiffractionExperiment to RotationExperiment--><g class="link" data-entity-1="DiffractionExperiment" data-entity-2="RotationExperiment" data-source-line="101" data-uid="lnk29" id="link_DiffractionExperiment_RotationExperiment"><path codeLine="101" d="M3735.444,436.5116 C3395.994,534.3416 2615.23,746.1369 1928.25,832.5269 C1484.03,888.3969 1364.6,798.0169 921.25,860.5269 C915.54,861.3369 909.74,862.2569 903.91,863.2669" fill="none" id="DiffractionExperiment-backto-RotationExperiment" style="stroke:#181818;stroke-width:1;"/><polygon fill="none" points="3752.74,431.5269,3733.7824,430.7463,3737.1056,442.277,3752.74,431.5269" style="stroke:#181818;stroke-width:1;"/></g><!--reverse link WithHyperionUDCFeatures to RotationExperiment--><g class="link" data-entity-1="WithHyperionUDCFeatures" data-entity-2="RotationExperiment" data-source-line="102" data-uid="lnk30" id="link_WithHyperionUDCFeatures_RotationExperiment"><path codeLine="102" d="M721.2766,777.7436 C724.6666,805.4436 727.5,828.4469 731.4,860.2369" fill="none" id="WithHyperionUDCFeatures-backto-RotationExperiment" style="stroke:#181818;stroke-width:1;"/><polygon fill="none" points="719.09,759.8769,715.321,778.4724,727.2321,777.0147,719.09,759.8769" style="stroke:#181818;stroke-width:1;"/></g><!--reverse link MxBlueskyParameters to DiffractionExperiment--><g class="link" data-entity-1="MxBlueskyParameters" data-entity-2="DiffractionExperiment" data-source-line="103" data-uid="lnk31" id="link_MxBlueskyParameters_DiffractionExperiment"><path codeLine="103" d="M3921.6073,201.2954 C3921.2973,225.2754 3921.07,241.8669 3920.63,275.3869" fill="none" id="MxBlueskyParameters-backto-DiffractionExperiment" style="stroke:#181818;stroke-width:1;"/><polygon fill="none" points="3921.84,183.2969,3915.6078,201.2178,3927.6068,201.3729,3921.84,183.2969" style="stroke:#181818;stroke-width:1;"/></g><!--reverse link WithSnapshot to DiffractionExperiment--><g class="link" data-entity-1="WithSnapshot" data-entity-2="DiffractionExperiment" data-source-line="104" data-uid="lnk32" id="link_WithSnapshot_DiffractionExperiment"><path codeLine="104" d="M3176.7067,207.0125 C3196.9767,215.6925 3201.81,217.0269 3222.25,223.7769 C3399.79,282.3869 3609.93,326.2369 3752.71,352.3869" fill="none" id="WithSnapshot-backto-DiffractionExperiment" style="stroke:#181818;stroke-width:1;"/><polygon fill="none" points="3160.16,199.9269,3174.3448,212.5281,3179.0686,201.4969,3160.16,199.9269" style="stroke:#181818;stroke-width:1;"/></g><!--reverse link WithOptionalEnergyChange to DiffractionExperiment--><g class="link" data-entity-1="WithOptionalEnergyChange" data-entity-2="DiffractionExperiment" data-source-line="105" data-uid="lnk33" id="link_WithOptionalEnergyChange_DiffractionExperiment"><path codeLine="105" d="M3428.3498,192.2787 C3452.4498,205.4687 3465.47,211.8269 3492.25,223.7769 C3576.52,261.3969 3672.84,297.2769 3752.65,325.1769" fill="none" id="WithOptionalEnergyChange-backto-DiffractionExperiment" style="stroke:#181818;stroke-width:1;"/><polygon fill="none" points="3412.56,183.6369,3425.4692,197.542,3431.2304,187.0154,3412.56,183.6369" style="stroke:#181818;stroke-width:1;"/></g><!--reverse link WithVisit to DiffractionExperiment--><g class="link" data-entity-1="WithVisit" data-entity-2="DiffractionExperiment" data-source-line="106" data-uid="lnk34" id="link_WithVisit_DiffractionExperiment"><path codeLine="106" d="M2892.5093,222.3648 C2900.0893,225.1448 2890.77,221.5169 2898.25,223.7769 C3191.53,312.5869 3548.18,352.5569 3752.94,369.3169" fill="none" id="WithVisit-backto-DiffractionExperiment" style="stroke:#181818;stroke-width:1;"/><polygon fill="none" points="2875.61,216.1669,2890.4433,227.9979,2894.5753,216.7317,2875.61,216.1669" style="stroke:#181818;stroke-width:1;"/></g><!--reverse link GridCommonWithHyperionDetectorParams to PinTipCentreThenXrayCentre--><g class="link" data-entity-1="GridCommonWithHyperionDetectorParams" data-entity-2="PinTipCentreThenXrayCentre" data-source-line="107" data-uid="lnk35" id="link_GridCommonWithHyperionDetectorParams_PinTipCentreThenXrayCentre"><path codeLine="107" d="M1044.4672,941.6448 C1000.3472,964.6348 948.62,991.5869 899.75,1017.0469" fill="none" id="GridCommonWithHyperionDetectorParams-backto-PinTipCentreThenXrayCentre" style="stroke:#181818;stroke-width:1;"/><polygon fill="none" points="1060.43,933.3269,1041.6945,936.3238,1047.2398,946.9657,1060.43,933.3269" style="stroke:#181818;stroke-width:1;"/></g><!--reverse link WithHyperionUDCFeatures to PinTipCentreThenXrayCentre--><g class="link" data-entity-1="WithHyperionUDCFeatures" data-entity-2="PinTipCentreThenXrayCentre" data-source-line="108" data-uid="lnk36" id="link_WithHyperionUDCFeatures_PinTipCentreThenXrayCentre"><path codeLine="108" d="M582.6192,737.155 C378.9892,753.705 6,804.4969 143.25,957.4169 C225.97,1049.5769 575.04,997.4569 697.25,1017.4169 C704.98,1018.6769 712.91,1020.0969 720.89,1021.6069" fill="none" id="WithHyperionUDCFeatures-backto-PinTipCentreThenXrayCentre" style="stroke:#181818;stroke-width:1;"/><polygon fill="none" points="600.56,735.6969,582.1331,731.1747,583.1052,743.1353,600.56,735.6969" style="stroke:#181818;stroke-width:1;"/></g><!--reverse link WithPandaGridScan to WithHyperionUDCFeatures--><g class="link" data-entity-1="WithPandaGridScan" data-entity-2="WithHyperionUDCFeatures" data-source-line="109" data-uid="lnk37" id="link_WithPandaGridScan_WithHyperionUDCFeatures"><path codeLine="109" d="M2390.1518,192.8052 C2364.7318,207.8952 2347.75,215.2969 2316.25,223.7769 C2061.52,292.3869 1369.46,164.5369 1130.25,275.7769 C929.37,369.2069 780.69,608.9869 732.22,695.1869" fill="none" id="WithPandaGridScan-backto-WithHyperionUDCFeatures" style="stroke:#181818;stroke-width:1;"/><polygon fill="none" points="2405.63,183.6169,2387.089,187.6458,2393.2145,197.9646,2405.63,183.6169" style="stroke:#181818;stroke-width:1;"/></g><!--reverse link MxBlueskyParameters to LoadCentreCollect--><g class="link" data-entity-1="MxBlueskyParameters" data-entity-2="LoadCentreCollect" data-source-line="110" data-uid="lnk38" id="link_MxBlueskyParameters_LoadCentreCollect"><path codeLine="110" d="M3835.1564,190.7093 C3803.1064,204.2893 3781,212.5569 3745.25,223.7769 C3599.37,269.5569 1212.68,811.3369 1061.25,832.5269 C837.32,863.8669 777.4,830.6869 553.25,860.5269 C535.89,862.8369 517.87,865.7669 499.93,869.0369" fill="none" id="MxBlueskyParameters-backto-LoadCentreCollect" style="stroke:#181818;stroke-width:1;"/><polygon fill="none" points="3851.73,183.6869,3832.8156,185.1848,3837.4972,196.2339,3851.73,183.6869" style="stroke:#181818;stroke-width:1;"/></g><!--reverse link WithVisit to LoadCentreCollect--><g class="link" data-entity-1="WithVisit" data-entity-2="LoadCentreCollect" data-source-line="111" data-uid="lnk39" id="link_WithVisit_LoadCentreCollect"><path codeLine="111" d="M2599.121,222.0758 C2590.821,224.9658 2599.49,221.6269 2591.25,223.7769 C2282.98,304.3169 2182.08,186.4169 1876.25,275.7769 C1377.14,421.6169 1344.71,681.1269 847.25,832.5269 C721.68,870.7469 682.99,840.6169 553.25,860.5269 C535.94,863.1869 517.95,866.3469 500.04,869.7469" fill="none" id="WithVisit-backto-LoadCentreCollect" style="stroke:#181818;stroke-width:1;"/><polygon fill="none" points="2616.12,216.1569,2597.148,216.4095,2601.094,227.7421,2616.12,216.1569" style="stroke:#181818;stroke-width:1;"/></g><!--reverse link WithSample to LoadCentreCollect--><g class="link" data-entity-1="WithSample" data-entity-2="LoadCentreCollect" data-source-line="112" data-uid="lnk40" id="link_WithSample_LoadCentreCollect"><path codeLine="112" d="M2137.5284,209.7292 C2122.9284,219.3892 2121.7,218.3169 2105.25,223.7769 C1844.36,310.4469 1116.39,155.3569 869.25,275.7769 C596,408.9369 407.36,751.3069 349.21,868.1869" fill="none" id="WithSample-backto-LoadCentreCollect" style="stroke:#181818;stroke-width:1;"/><polygon fill="none" points="2152.54,199.7969,2134.2176,204.7253,2140.8392,214.7331,2152.54,199.7969" style="stroke:#181818;stroke-width:1;"/></g><!--reverse link WithCentreSelection to LoadCentreCollect--><g class="link" data-entity-1="WithCentreSelection" data-entity-2="LoadCentreCollect" data-source-line="113" data-uid="lnk41" id="link_WithCentreSelection_LoadCentreCollect"><path codeLine="113" d="M1639.3049,187.7987 C1578.0849,202.4587 1519.94,214.4669 1451.25,223.7769 C1344.19,238.2969 563.19,206.5369 480.25,275.7769 C298.63,427.4169 313.93,754.9669 325.39,868.3769" fill="none" id="WithCentreSelection-backto-LoadCentreCollect" style="stroke:#181818;stroke-width:1;"/><polygon fill="none" points="1656.81,183.6069,1637.9076,181.9637,1640.7022,193.6338,1656.81,183.6069" style="stroke:#181818;stroke-width:1;"/></g><!--reverse link WithHyperionUDCFeatures to LoadCentreCollect--><g class="link" data-entity-1="WithHyperionUDCFeatures" data-entity-2="LoadCentreCollect" data-source-line="114" data-uid="lnk42" id="link_WithHyperionUDCFeatures_LoadCentreCollect"><path codeLine="114" d="M649.3387,769.5235 C613.2187,791.3735 578.43,810.9669 532.25,832.5269 C504.95,845.2769 474.84,857.4769 446.4,868.1969" fill="none" id="WithHyperionUDCFeatures-backto-LoadCentreCollect" style="stroke:#181818;stroke-width:1;"/><polygon fill="none" points="664.74,760.2069,646.2332,764.3898,652.4443,774.6573,664.74,760.2069" style="stroke:#181818;stroke-width:1;"/></g><!--reverse link RotationExperiment to RotationScan--><g class="link" data-entity-1="RotationExperiment" data-entity-2="RotationScan" data-source-line="115" data-uid="lnk43" id="link_RotationExperiment_RotationScan"><path codeLine="115" d="M607.3389,964.8717 C561.0389,984.4317 525.36,999.5069 483.99,1016.9869" fill="none" id="RotationExperiment-backto-RotationScan" style="stroke:#181818;stroke-width:1;"/><polygon fill="none" points="623.92,957.8669,605.004,959.3447,609.6739,970.3988,623.92,957.8669" style="stroke:#181818;stroke-width:1;"/></g><!--reverse link SplitScan to RotationScan--><g class="link" data-entity-1="SplitScan" data-entity-2="RotationScan" data-source-line="116" data-uid="lnk44" id="link_SplitScan_RotationScan"><path codeLine="116" d="M1318.5192,153.9916 C1137.2692,159.7816 521.6,185.6169 344.25,275.7769 C185.31,356.5869 71.25,391.4469 71.25,569.7469 C71.25,569.7469 71.25,569.7469 71.25,728.6369 C71.25,831.5069 38.8,879.7569 106.25,957.4169 C129.58,984.2769 160.49,1003.3769 193.65,1016.9269" fill="none" id="SplitScan-backto-RotationScan" style="stroke:#181818;stroke-width:1;"/><polygon fill="none" points="1336.51,153.4169,1318.3276,147.9946,1318.7107,159.9885,1336.51,153.4169" style="stroke:#181818;stroke-width:1;"/></g><!--reverse link GridCommon to GridCommonWithHyperionDetectorParams--><g class="link" data-entity-1="GridCommon" data-entity-2="GridCommonWithHyperionDetectorParams" data-source-line="117" data-uid="lnk45" id="link_GridCommon_GridCommonWithHyperionDetectorParams"><path codeLine="117" d="M3734.8525,754.4398 C3556.6925,778.5398 3283.49,812.8669 3031.25,832.5269 C2381.95,883.1569 1606.72,900.4069 1272.32,905.7769" fill="none" id="GridCommon-backto-GridCommonWithHyperionDetectorParams" style="stroke:#181818;stroke-width:1;"/><polygon fill="none" points="3752.69,752.0269,3734.0482,748.4939,3735.6568,760.3856,3752.69,752.0269" style="stroke:#181818;stroke-width:1;"/></g><!--reverse link WithHyperionUDCFeatures to GridCommonWithHyperionDetectorParams--><g class="link" data-entity-1="WithHyperionUDCFeatures" data-entity-2="GridCommonWithHyperionDetectorParams" data-source-line="118" data-uid="lnk46" id="link_WithHyperionUDCFeatures_GridCommonWithHyperionDetectorParams"><path codeLine="118" d="M799.9841,767.6063 C877.3241,803.1663 985.11,852.7269 1054.37,884.5769" fill="none" id="WithHyperionUDCFeatures-backto-GridCommonWithHyperionDetectorParams" style="stroke:#181818;stroke-width:1;"/><polygon fill="none" points="783.63,760.0869,797.4777,773.0577,802.4906,762.1549,783.63,760.0869" style="stroke:#181818;stroke-width:1;"/></g><!--SRC=[bLPRRzis57wsVWNVjW5BWBvl3wcJT0MQpgYpR40H4BHqB17X3IILsdFpttj8Ih8LNPp23nRF_Nmytv5-kQ-u8rikWE0_gxs-A461PHuAijcJza2DOChNKboQVPPvxj7Xhxq1oxKYAsQP10-MtEa2HER04uKIPrWEQp2ezjeIfHLa6SgUM0b4xkX6rE2UzfUvbbAhIzE6SUIGULs2hp3a8Si5SuxyotsrLiouIlj3jbWnNn7Nd6d1BUIOOvyj17V-wrPevX_9T_8PSnxDj8IIELf0cIqsMWjIEw2bvGLjJLpsSfgFIIC0it7bYOi7oejqR6CdgQdpfr4vLrt4jH7ShtEc3hqaIr3U8am2Eq0qCTkzDf_Vx-_ORgbhvJiDXkvhRhMzONbJvT7CnIUQnxZzXbPC5Um3DfpAM4ISY0bIQcjL6qJIUQPoe5BsF1-uum5tvotP09E2usN6qtFGfCS2V0n0lQR1YEPQFOF5AwK6xoiPSULGX8LIOs7BTsqL3N0O8rxbP2L_c-3Cn0rEPhbVLaoLS1W4aTWJXMX2uRaBq3f_q8hhArKYRfvPxru7Y9D2NT2bSUbfJSKdTVcCxeaPSnhr1N-3GR_RlK-yw6WLgbk7ZZpF7_0OBhaZ2vM1S_GvoRj6moKl8w-wrZPwHnt_7sWjMr6S_M-yyDM947P6kze2zLm2TTdYepFxpSqki5tYKDqZxt5Re8n29wGUfTdY2iyUVHyOzj1n8Gua59GrsZQJvuRgxHRtHKZVbdxDjrlBuYmVavxISTQmcT6mqcXOGfDT1QkmUT07AMTvMO8D-uluz1o1xN4Q6K9LBJTWVxfHovIJt8Kheg7cdm8rLEgG4hWsJpTTjy6ivgdOb_WRsR1LiwhxE_OuAM4T18HlYXAk8m6FA7_HdWqWJcsvglPX1BK1nLNPGPkqjd6aNEKMOZ-H4c_ll2rXnTKzDsbHtbUW_hDidqw7-L4AFRMlgN-kbxV0mgq4FhNIHdGhM8dlmKRV-N_Ih4Y9bbg82ClYYzve7nIXagJ4Lb56iP228fTLitk3RO8Wu4jaBJod7IeEPGEGcxryfLGGGF4rlivEjIkmwsy0vl5tyWdKhv8hAa2LllhptM-Ff1VTZMo3KqIkcrKR5uqxnE4PvHJvu_l5nJbUPiV7jzcVqQSWnygpgTqzC7nBjqUduUnd4sCpwpC3t911ynb6x4TU2ZCWPwSVI-VinjwdvtpYry2SqTklO9hRyo2TyUjzwIIFYN3Js0xO_xhtSOFJyHstUFN9DsSwsV_GV3Ws_N4AI6JTH-Y8xdXfhoarVOddkN8kmWy0]--></g></svg>