<svg xmlns="http://www.w3.org/2000/svg" xmlns:xlink="http://www.w3.org/1999/xlink" contentStyleType="text/css" data-diagram-type="CLASS" height="1104px" preserveAspectRatio="none" style="width:4171px;height:1104px;background:#FFFFFF;" version="1.1" viewBox="0 0 4171 1104" width="4171px" zoomAndPan="magnify"><title>Hyperion Parameter Model</title><defs/><g><g class="title" data-source-line="3"><text fill="#000000" font-family="sans-serif" font-size="14" font-weight="bold" lengthAdjust="spacing" textLength="212.4951" x="1972.2624" y="22.9951">Hyperion Parameter Model</text></g><!--cluster mx_bluesky.common.parameters--><g class="cluster" data-entity="mx_bluesky.common.parameters" data-source-line="6" data-uid="ent0002" id="cluster_mx_bluesky.common.parameters"><path d="M1282.16,43.2969 L1543.4725,43.2969 A3.75,3.75 0 0 1 1545.9725,45.7969 L1552.9725,65.5938 L4103.16,65.5938 A2.5,2.5 0 0 1 4105.66,68.0938 L4105.66,822.0269 A2.5,2.5 0 0 1 4103.16,824.5269 L1282.16,824.5269 A2.5,2.5 0 0 1 1279.66,822.0269 L1279.66,45.7969 A2.5,2.5 0 0 1 1282.16,43.2969" fill="none" style="stroke:#000000;stroke-width:1.5;"/><line style="stroke:#000000;stroke-width:1.5;" x1="1279.66" x2="1552.9725" y1="65.5938" y2="65.5938"/><text fill="#000000" font-family="sans-serif" font-size="14" font-weight="bold" lengthAdjust="spacing" textLength="260.3125" x="1283.66" y="58.292">mx_bluesky.common.parameters</text></g><!--cluster mx_bluesky.hyperion.parameters--><g class="cluster" data-entity="mx_bluesky.hyperion.parameters" data-source-line="71" data-uid="ent0015" id="cluster_mx_bluesky.hyperion.parameters"><path d="M78.16,660.4869 L342.6922,660.4869 A3.75,3.75 0 0 1 345.1922,662.9869 L352.1922,682.7838 L1253.16,682.7838 A2.5,2.5 0 0 1 1255.66,685.2838 L1255.66,1095.2169 A2.5,2.5 0 0 1 1253.16,1097.7169 L78.16,1097.7169 A2.5,2.5 0 0 1 75.66,1095.2169 L75.66,662.9869 A2.5,2.5 0 0 1 78.16,660.4869" fill="none" style="stroke:#000000;stroke-width:1.5;"/><line style="stroke:#000000;stroke-width:1.5;" x1="75.66" x2="352.1922" y1="682.7838" y2="682.7838"/><text fill="#000000" font-family="sans-serif" font-size="14" font-weight="bold" lengthAdjust="spacing" textLength="263.5322" x="79.66" y="675.482">mx_bluesky.hyperion.parameters</text></g><!--class WithSample--><g class="entity" data-entity="WithSample" data-source-line="8" data-uid="ent0003" id="entity_WithSample"><rect fill="#F1F1F1" height="96.8906" rx="2.5" ry="2.5" style="stroke:#181818;stroke-width:0.5;" width="176.3086" x="2089.51" y="102.5869"/><ellipse cx="2131.3843" cy="118.5869" fill="#ADD1B2" rx="11" ry="11" style="stroke:#181818;stroke-width:1;"/><path d="M2134.3531,124.2275 Q2133.7749,124.5244 2133.1343,124.665 Q2132.4937,124.8213 2131.7906,124.8213 Q2129.2906,124.8213 2127.9624,123.1806 Q2126.6499,121.5244 2126.6499,118.3994 Q2126.6499,115.2744 2127.9624,113.6181 Q2129.2906,111.9619 2131.7906,111.9619 Q2132.4937,111.9619 2133.1343,112.1181 Q2133.7906,112.2744 2134.3531,112.5713 L2134.3531,115.29 Q2133.7281,114.7119 2133.1343,114.4463 Q2132.5406,114.165 2131.9156,114.165 Q2130.5718,114.165 2129.8843,115.2431 Q2129.1968,116.3056 2129.1968,118.3994 Q2129.1968,120.4931 2129.8843,121.5713 Q2130.5718,122.6338 2131.9156,122.6338 Q2132.5406,122.6338 2133.1343,122.3681 Q2133.7281,122.0869 2134.3531,121.5088 L2134.3531,124.2275 Z " fill="#000000"/><text fill="#000000" font-family="sans-serif" font-size="14" lengthAdjust="spacing" textLength="84.5879" x="2151.3564" y="123.4336">WithSample</text><line style="stroke:#181818;stroke-width:0.5;" x1="2090.51" x2="2264.8186" y1="134.5869" y2="134.5869"/><text fill="#000000" font-family="sans-serif" font-size="14" lengthAdjust="spacing" textLength="93.3789" x="2095.51" y="151.582">int sample_id</text><text fill="#000000" font-family="sans-serif" font-size="14" lengthAdjust="spacing" textLength="164.3086" x="2095.51" y="167.8789">int | None sample_puck</text><text fill="#000000" font-family="sans-serif" font-size="14" lengthAdjust="spacing" textLength="152.3936" x="2095.51" y="184.1757">int | None sample_pin</text><line style="stroke:#181818;stroke-width:0.5;" x1="2090.51" x2="2264.8186" y1="191.4775" y2="191.4775"/></g><!--class SplitScan--><g class="entity" data-entity="SplitScan" data-source-line="13" data-uid="ent0004" id="entity_SplitScan"><rect fill="#F1F1F1" height="48" rx="2.5" ry="2.5" style="stroke:#181818;stroke-width:0.5;" width="97.0781" x="1304.12" y="127.0369"/><ellipse cx="1319.12" cy="143.0369" fill="#ADD1B2" rx="11" ry="11" style="stroke:#181818;stroke-width:1;"/><path d="M1322.0888,148.6775 Q1321.5106,148.9744 1320.87,149.115 Q1320.2294,149.2713 1319.5263,149.2713 Q1317.0263,149.2713 1315.6981,147.6306 Q1314.3856,145.9744 1314.3856,142.8494 Q1314.3856,139.7244 1315.6981,138.0681 Q1317.0263,136.4119 1319.5263,136.4119 Q1320.2294,136.4119 1320.87,136.5681 Q1321.5263,136.7244 1322.0888,137.0213 L1322.0888,139.74 Q1321.4638,139.1619 1320.87,138.8963 Q1320.2763,138.615 1319.6513,138.615 Q1318.3075,138.615 1317.62,139.6931 Q1316.9325,140.7556 1316.9325,142.8494 Q1316.9325,144.9431 1317.62,146.0213 Q1318.3075,147.0838 1319.6513,147.0838 Q1320.2763,147.0838 1320.87,146.8181 Q1321.4638,146.5369 1322.0888,145.9588 L1322.0888,148.6775 Z " fill="#000000"/><text fill="#000000" font-family="sans-serif" font-size="14" lengthAdjust="spacing" textLength="65.0781" x="1333.12" y="147.8836">SplitScan</text><line style="stroke:#181818;stroke-width:0.5;" x1="1305.12" x2="1400.1981" y1="159.0369" y2="159.0369"/><line style="stroke:#181818;stroke-width:0.5;" x1="1305.12" x2="1400.1981" y1="167.0369" y2="167.0369"/></g><!--class WithVisit--><g class="entity" data-entity="WithVisit" data-source-line="15" data-uid="ent0005" id="entity_WithVisit"><rect fill="#F1F1F1" height="129.4844" rx="2.5" ry="2.5" style="stroke:#181818;stroke-width:0.5;" width="271.7861" x="2575.77" y="86.2969"/><ellipse cx="2676.2959" cy="102.2969" fill="#ADD1B2" rx="11" ry="11" style="stroke:#181818;stroke-width:1;"/><path d="M2679.2646,107.9375 Q2678.6865,108.2344 2678.0459,108.375 Q2677.4053,108.5313 2676.7021,108.5313 Q2674.2021,108.5313 2672.874,106.8906 Q2671.5615,105.2344 2671.5615,102.1094 Q2671.5615,98.9844 2672.874,97.3281 Q2674.2021,95.6719 2676.7021,95.6719 Q2677.4053,95.6719 2678.0459,95.8281 Q2678.7021,95.9844 2679.2646,96.2813 L2679.2646,99 Q2678.6396,98.4219 2678.0459,98.1563 Q2677.4521,97.875 2676.8271,97.875 Q2675.4834,97.875 2674.7959,98.9531 Q2674.1084,100.0156 2674.1084,102.1094 Q2674.1084,104.2031 2674.7959,105.2813 Q2675.4834,106.3438 2676.8271,106.3438 Q2677.4521,106.3438 2678.0459,106.0781 Q2678.6396,105.7969 2679.2646,105.2188 L2679.2646,107.9375 Z " fill="#000000"/><text fill="#000000" font-family="sans-serif" font-size="14" lengthAdjust="spacing" textLength="62.2344" x="2696.7959" y="107.1436">WithVisit</text><line style="stroke:#181818;stroke-width:0.5;" x1="2576.77" x2="2846.5561" y1="118.2969" y2="118.2969"/><text fill="#000000" font-family="sans-serif" font-size="14" lengthAdjust="spacing" textLength="87.9717" x="2581.77" y="135.292">str beamline</text><text fill="#000000" font-family="sans-serif" font-size="14" lengthAdjust="spacing" textLength="51.8369" x="2581.77" y="151.5889">str visit</text><text fill="#000000" font-family="sans-serif" font-size="14" lengthAdjust="spacing" textLength="259.7861" x="2581.77" y="167.8857">str det_dist_to_beam_converter_path</text><text fill="#000000" font-family="sans-serif" font-size="14" lengthAdjust="spacing" textLength="131.5918" x="2581.77" y="184.1826">str insertion_prefix</text><text fill="#000000" font-family="sans-serif" font-size="14" lengthAdjust="spacing" textLength="245.752" x="2581.77" y="200.4795">float | None detector_distance_mm</text><line style="stroke:#181818;stroke-width:0.5;" x1="2576.77" x2="2846.5561" y1="207.7813" y2="207.7813"/></g><!--class WithSnapshot--><g class="entity" data-entity="WithSnapshot" data-source-line="22" data-uid="ent0006" id="entity_WithSnapshot"><rect fill="#F1F1F1" height="96.8906" rx="2.5" ry="2.5" style="stroke:#181818;stroke-width:0.5;" width="289.3477" x="2882.99" y="102.5869"/><ellipse cx="2974.6428" cy="118.5869" fill="#ADD1B2" rx="11" ry="11" style="stroke:#181818;stroke-width:1;"/><path d="M2977.6116,124.2275 Q2977.0335,124.5244 2976.3928,124.665 Q2975.7522,124.8213 2975.0491,124.8213 Q2972.5491,124.8213 2971.221,123.1806 Q2969.9085,121.5244 2969.9085,118.3994 Q2969.9085,115.2744 2971.221,113.6181 Q2972.5491,111.9619 2975.0491,111.9619 Q2975.7522,111.9619 2976.3928,112.1181 Q2977.0491,112.2744 2977.6116,112.5713 L2977.6116,115.29 Q2976.9866,114.7119 2976.3928,114.4463 Q2975.7991,114.165 2975.1741,114.165 Q2973.8303,114.165 2973.1428,115.2431 Q2972.4553,116.3056 2972.4553,118.3994 Q2972.4553,120.4931 2973.1428,121.5713 Q2973.8303,122.6338 2975.1741,122.6338 Q2975.7991,122.6338 2976.3928,122.3681 Q2976.9866,122.0869 2977.6116,121.5088 L2977.6116,124.2275 Z " fill="#000000"/><text fill="#000000" font-family="sans-serif" font-size="14" lengthAdjust="spacing" textLength="97.542" x="2995.1428" y="123.4336">WithSnapshot</text><line style="stroke:#181818;stroke-width:0.5;" x1="2883.99" x2="3171.3377" y1="134.5869" y2="134.5869"/><text fill="#000000" font-family="sans-serif" font-size="14" lengthAdjust="spacing" textLength="169.627" x="2888.99" y="151.582">Path snapshot_directory</text><text fill="#000000" font-family="sans-serif" font-size="14" lengthAdjust="spacing" textLength="277.3477" x="2888.99" y="167.8789">list[float] | None snapshot_omegas_deg</text><text fill="#000000" font-family="sans-serif" font-size="14" lengthAdjust="spacing" textLength="171.7051" x="2888.99" y="184.1757">bool use_grid_snapshots</text><line style="stroke:#181818;stroke-width:0.5;" x1="2883.99" x2="3171.3377" y1="191.4775" y2="191.4775"/></g><!--class WithCentreSelection--><g class="entity" data-entity="WithCentreSelection" data-source-line="27" data-uid="ent0007" id="entity_WithCentreSelection"><rect fill="#F1F1F1" height="64.2969" rx="2.5" ry="2.5" style="stroke:#181818;stroke-width:0.5;" width="618.6689" x="1436.33" y="118.8869"/><ellipse cx="1669.5483" cy="134.8869" fill="#ADD1B2" rx="11" ry="11" style="stroke:#181818;stroke-width:1;"/><path d="M1672.517,140.5275 Q1671.9389,140.8244 1671.2983,140.965 Q1670.6576,141.1213 1669.9545,141.1213 Q1667.4545,141.1213 1666.1264,139.4806 Q1664.8139,137.8244 1664.8139,134.6994 Q1664.8139,131.5744 1666.1264,129.9181 Q1667.4545,128.2619 1669.9545,128.2619 Q1670.6576,128.2619 1671.2983,128.4181 Q1671.9545,128.5744 1672.517,128.8713 L1672.517,131.59 Q1671.892,131.0119 1671.2983,130.7463 Q1670.7045,130.465 1670.0795,130.465 Q1668.7358,130.465 1668.0483,131.5431 Q1667.3608,132.6056 1667.3608,134.6994 Q1667.3608,136.7931 1668.0483,137.8713 Q1668.7358,138.9338 1670.0795,138.9338 Q1670.7045,138.9338 1671.2983,138.6681 Q1671.892,138.3869 1672.517,137.8088 L1672.517,140.5275 Z " fill="#000000"/><text fill="#000000" font-family="sans-serif" font-size="14" lengthAdjust="spacing" textLength="143.7324" x="1690.0483" y="139.7336">WithCentreSelection</text><line style="stroke:#181818;stroke-width:0.5;" x1="1437.33" x2="2053.9989" y1="150.8869" y2="150.8869"/><text fill="#000000" font-family="sans-serif" font-size="14" lengthAdjust="spacing" textLength="606.6689" x="1442.33" y="167.882">TopNByMaxCountSelection | TopNByMaxCountForEachSampleSelection select_centres</text><line style="stroke:#181818;stroke-width:0.5;" x1="1437.33" x2="2053.9989" y1="175.1838" y2="175.1838"/></g><!--class WithOptionalEnergyChange--><g class="entity" data-entity="WithOptionalEnergyChange" data-source-line="30" data-uid="ent0008" id="entity_WithOptionalEnergyChange"><rect fill="#F1F1F1" height="64.2969" rx="2.5" ry="2.5" style="stroke:#181818;stroke-width:0.5;" width="235.4463" x="3206.94" y="118.8869"/><ellipse cx="3226.1245" cy="134.8869" fill="#ADD1B2" rx="11" ry="11" style="stroke:#181818;stroke-width:1;"/><path d="M3229.0932,140.5275 Q3228.5151,140.8244 3227.8745,140.965 Q3227.2338,141.1213 3226.5307,141.1213 Q3224.0307,141.1213 3222.7026,139.4806 Q3221.3901,137.8244 3221.3901,134.6994 Q3221.3901,131.5744 3222.7026,129.9181 Q3224.0307,128.2619 3226.5307,128.2619 Q3227.2338,128.2619 3227.8745,128.4181 Q3228.5307,128.5744 3229.0932,128.8713 L3229.0932,131.59 Q3228.4682,131.0119 3227.8745,130.7463 Q3227.2807,130.465 3226.6557,130.465 Q3225.312,130.465 3224.6245,131.5431 Q3223.937,132.6056 3223.937,134.6994 Q3223.937,136.7931 3224.6245,137.8713 Q3225.312,138.9338 3226.6557,138.9338 Q3227.2807,138.9338 3227.8745,138.6681 Q3228.4682,138.3869 3229.0932,137.8088 L3229.0932,140.5275 Z " fill="#000000"/><text fill="#000000" font-family="sans-serif" font-size="14" lengthAdjust="spacing" textLength="194.1475" x="3241.0544" y="139.7336">WithOptionalEnergyChange</text><line style="stroke:#181818;stroke-width:0.5;" x1="3207.94" x2="3441.3863" y1="150.8869" y2="150.8869"/><text fill="#000000" font-family="sans-serif" font-size="14" lengthAdjust="spacing" textLength="223.4463" x="3212.94" y="167.882">float | None demand_energy_ev</text><line style="stroke:#181818;stroke-width:0.5;" x1="3207.94" x2="3441.3863" y1="175.1838" y2="175.1838"/></g><!--class OptionalGonioAngleStarts--><g class="entity" data-entity="OptionalGonioAngleStarts" data-source-line="33" data-uid="ent0009" id="entity_OptionalGonioAngleStarts"><rect fill="#F1F1F1" height="113.1875" rx="2.5" ry="2.5" style="stroke:#181818;stroke-width:0.5;" width="219.3203" x="3477" y="94.4469"/><ellipse cx="3494.7233" cy="110.4469" fill="#ADD1B2" rx="11" ry="11" style="stroke:#181818;stroke-width:1;"/><path d="M3497.692,116.0875 Q3497.1139,116.3844 3496.4733,116.525 Q3495.8327,116.6813 3495.1295,116.6813 Q3492.6295,116.6813 3491.3014,115.0406 Q3489.9889,113.3844 3489.9889,110.2594 Q3489.9889,107.1344 3491.3014,105.4781 Q3492.6295,103.8219 3495.1295,103.8219 Q3495.8327,103.8219 3496.4733,103.9781 Q3497.1295,104.1344 3497.692,104.4313 L3497.692,107.15 Q3497.067,106.5719 3496.4733,106.3063 Q3495.8795,106.025 3495.2545,106.025 Q3493.9108,106.025 3493.2233,107.1031 Q3492.5358,108.1656 3492.5358,110.2594 Q3492.5358,112.3531 3493.2233,113.4313 Q3493.9108,114.4938 3495.2545,114.4938 Q3495.8795,114.4938 3496.4733,114.2281 Q3497.067,113.9469 3497.692,113.3688 L3497.692,116.0875 Z " fill="#000000"/><text fill="#000000" font-family="sans-serif" font-size="14" lengthAdjust="spacing" textLength="181.2686" x="3509.3285" y="115.2936">OptionalGonioAngleStarts</text><line style="stroke:#181818;stroke-width:0.5;" x1="3478" x2="3695.3203" y1="126.4469" y2="126.4469"/><text fill="#000000" font-family="sans-serif" font-size="14" lengthAdjust="spacing" textLength="207.3203" x="3483" y="143.442">float | None omega_start_deg</text><text fill="#000000" font-family="sans-serif" font-size="14" lengthAdjust="spacing" textLength="180.6875" x="3483" y="159.7389">float | None phi_start_deg</text><text fill="#000000" font-family="sans-serif" font-size="14" lengthAdjust="spacing" textLength="179.498" x="3483" y="176.0357">float | None chi_start_deg</text><text fill="#000000" font-family="sans-serif" font-size="14" lengthAdjust="spacing" textLength="202.0771" x="3483" y="192.3326">float | None kappa_start_deg</text><line style="stroke:#181818;stroke-width:0.5;" x1="3478" x2="3695.3203" y1="199.6344" y2="199.6344"/></g><!--class WithPandaGridScan--><g class="entity" data-entity="WithPandaGridScan" data-source-line="39" data-uid="ent0010" id="entity_WithPandaGridScan"><rect fill="#F1F1F1" height="64.2969" rx="2.5" ry="2.5" style="stroke:#181818;stroke-width:0.5;" width="240.5664" x="2300.38" y="118.8869"/><ellipse cx="2346.9772" cy="134.8869" fill="#ADD1B2" rx="11" ry="11" style="stroke:#181818;stroke-width:1;"/><path d="M2349.9459,140.5275 Q2349.3678,140.8244 2348.7272,140.965 Q2348.0865,141.1213 2347.3834,141.1213 Q2344.8834,141.1213 2343.5553,139.4806 Q2342.2428,137.8244 2342.2428,134.6994 Q2342.2428,131.5744 2343.5553,129.9181 Q2344.8834,128.2619 2347.3834,128.2619 Q2348.0865,128.2619 2348.7272,128.4181 Q2349.3834,128.5744 2349.9459,128.8713 L2349.9459,131.59 Q2349.3209,131.0119 2348.7272,130.7463 Q2348.1334,130.465 2347.5084,130.465 Q2346.1647,130.465 2345.4772,131.5431 Q2344.7897,132.6056 2344.7897,134.6994 Q2344.7897,136.7931 2345.4772,137.8713 Q2346.1647,138.9338 2347.5084,138.9338 Q2348.1334,138.9338 2348.7272,138.6681 Q2349.3209,138.3869 2349.9459,137.8088 L2349.9459,140.5275 Z " fill="#000000"/><text fill="#000000" font-family="sans-serif" font-size="14" lengthAdjust="spacing" textLength="138.8721" x="2367.4772" y="139.7336">WithPandaGridScan</text><line style="stroke:#181818;stroke-width:0.5;" x1="2301.38" x2="2539.9464" y1="150.8869" y2="150.8869"/><text fill="#000000" font-family="sans-serif" font-size="14" lengthAdjust="spacing" textLength="228.5664" x="2306.38" y="167.882">float panda_runup_distance_mm</text><line style="stroke:#181818;stroke-width:0.5;" x1="2301.38" x2="2539.9464" y1="175.1838" y2="175.1838"/></g><!--class DiffractionExperiment--><g class="entity" data-entity="DiffractionExperiment" data-source-line="44" data-uid="ent0011" id="entity_DiffractionExperiment"><rect fill="#F1F1F1" height="210.9688" rx="2.5" ry="2.5" style="stroke:#181818;stroke-width:0.5;" width="332.332" x="3720.49" y="275.7769"/><ellipse cx="3805.2727" cy="291.7769" fill="#ADD1B2" rx="11" ry="11" style="stroke:#181818;stroke-width:1;"/><path d="M3808.2415,297.4175 Q3807.6633,297.7144 3807.0227,297.855 Q3806.3821,298.0113 3805.679,298.0113 Q3803.179,298.0113 3801.8508,296.3706 Q3800.5383,294.7144 3800.5383,291.5894 Q3800.5383,288.4644 3801.8508,286.8081 Q3803.179,285.1519 3805.679,285.1519 Q3806.3821,285.1519 3807.0227,285.3081 Q3807.679,285.4644 3808.2415,285.7613 L3808.2415,288.48 Q3807.6165,287.9019 3807.0227,287.6363 Q3806.429,287.355 3805.804,287.355 Q3804.4602,287.355 3803.7727,288.4331 Q3803.0852,289.4956 3803.0852,291.5894 Q3803.0852,293.6831 3803.7727,294.7613 Q3804.4602,295.8238 3805.804,295.8238 Q3806.429,295.8238 3807.0227,295.5581 Q3807.6165,295.2769 3808.2415,294.6988 L3808.2415,297.4175 Z " fill="#000000"/><text fill="#000000" font-family="sans-serif" font-size="14" lengthAdjust="spacing" textLength="154.2666" x="3825.7727" y="296.6236">DiffractionExperiment</text><line style="stroke:#181818;stroke-width:0.5;" x1="3721.49" x2="4051.822" y1="307.7769" y2="307.7769"/><text fill="#000000" font-family="sans-serif" font-size="14" lengthAdjust="spacing" textLength="91.0137" x="3726.49" y="324.772">str file_name</text><text fill="#000000" font-family="sans-serif" font-size="14" lengthAdjust="spacing" textLength="153.7129" x="3726.49" y="341.0689">float exposure_time_s</text><text fill="#000000" font-family="sans-serif" font-size="14" lengthAdjust="spacing" textLength="89.5029" x="3726.49" y="357.3657">str comment</text><text fill="#000000" font-family="sans-serif" font-size="14" lengthAdjust="spacing" textLength="186.915" x="3726.49" y="373.6626">TriggerMode trigger_mode</text><text fill="#000000" font-family="sans-serif" font-size="14" lengthAdjust="spacing" textLength="157.9854" x="3726.49" y="389.9595">int | None run_number</text><text fill="#000000" font-family="sans-serif" font-size="14" lengthAdjust="spacing" textLength="282.3516" x="3726.49" y="406.2564">ApertureValue | None selected_aperture</text><text fill="#000000" font-family="sans-serif" font-size="14" lengthAdjust="spacing" textLength="159.2979" x="3726.49" y="422.5532">float transmission_frac</text><text fill="#000000" font-family="sans-serif" font-size="14" lengthAdjust="spacing" textLength="320.332" x="3726.49" y="438.8501">IspybExperimentType ispyb_experiment_type</text><text fill="#000000" font-family="sans-serif" font-size="14" lengthAdjust="spacing" textLength="146.1113" x="3726.49" y="455.147">str storage_directory</text><text fill="#000000" font-family="sans-serif" font-size="14" lengthAdjust="spacing" textLength="131.0518" x="3726.49" y="471.4439">bool use_roi_mode</text><line style="stroke:#181818;stroke-width:0.5;" x1="3721.49" x2="4051.822" y1="478.7456" y2="478.7456"/></g><!--class DiffractionExperimentWithSample--><g class="entity" data-entity="DiffractionExperimentWithSample" data-source-line="56" data-uid="ent0012" id="entity_DiffractionExperimentWithSample"><rect fill="#F1F1F1" height="48" rx="2.5" ry="2.5" style="stroke:#181818;stroke-width:0.5;" width="270.8545" x="3751.23" y="546.7469"/><ellipse cx="3766.23" cy="562.7469" fill="#ADD1B2" rx="11" ry="11" style="stroke:#181818;stroke-width:1;"/><path d="M3769.1988,568.3875 Q3768.6206,568.6844 3767.98,568.825 Q3767.3394,568.9813 3766.6363,568.9813 Q3764.1363,568.9813 3762.8081,567.3406 Q3761.4956,565.6844 3761.4956,562.5594 Q3761.4956,559.4344 3762.8081,557.7781 Q3764.1363,556.1219 3766.6363,556.1219 Q3767.3394,556.1219 3767.98,556.2781 Q3768.6363,556.4344 3769.1988,556.7313 L3769.1988,559.45 Q3768.5738,558.8719 3767.98,558.6063 Q3767.3863,558.325 3766.7613,558.325 Q3765.4175,558.325 3764.73,559.4031 Q3764.0425,560.4656 3764.0425,562.5594 Q3764.0425,564.6531 3764.73,565.7313 Q3765.4175,566.7938 3766.7613,566.7938 Q3767.3863,566.7938 3767.98,566.5281 Q3768.5738,566.2469 3769.1988,565.6688 L3769.1988,568.3875 Z " fill="#000000"/><text fill="#000000" font-family="sans-serif" font-size="14" lengthAdjust="spacing" textLength="238.8545" x="3780.23" y="567.5936">DiffractionExperimentWithSample</text><line style="stroke:#181818;stroke-width:0.5;" x1="3752.23" x2="4021.0845" y1="578.7469" y2="578.7469"/><line style="stroke:#181818;stroke-width:0.5;" x1="3752.23" x2="4021.0845" y1="586.7469" y2="586.7469"/></g><!--class GridCommon--><g class="entity" data-entity="GridCommon" data-source-line="58" data-uid="ent0013" id="entity_GridCommon"><rect fill="#F1F1F1" height="145.7813" rx="2.5" ry="2.5" style="stroke:#181818;stroke-width:0.5;" width="332.332" x="3720.49" y="654.7469"/><ellipse cx="3836.1882" cy="670.7469" fill="#ADD1B2" rx="11" ry="11" style="stroke:#181818;stroke-width:1;"/><path d="M3839.157,676.3875 Q3838.5789,676.6844 3837.9382,676.825 Q3837.2976,676.9813 3836.5945,676.9813 Q3834.0945,676.9813 3832.7664,675.3406 Q3831.4539,673.6844 3831.4539,670.5594 Q3831.4539,667.4344 3832.7664,665.7781 Q3834.0945,664.1219 3836.5945,664.1219 Q3837.2976,664.1219 3837.9382,664.2781 Q3838.5945,664.4344 3839.157,664.7313 L3839.157,667.45 Q3838.532,666.8719 3837.9382,666.6063 Q3837.3445,666.325 3836.7195,666.325 Q3835.3757,666.325 3834.6882,667.4031 Q3834.0007,668.4656 3834.0007,670.5594 Q3834.0007,672.6531 3834.6882,673.7313 Q3835.3757,674.7938 3836.7195,674.7938 Q3837.3445,674.7938 3837.9382,674.5281 Q3838.532,674.2469 3839.157,673.6688 L3839.157,676.3875 Z " fill="#000000"/><text fill="#000000" font-family="sans-serif" font-size="14" lengthAdjust="spacing" textLength="92.4355" x="3856.6882" y="675.5936">GridCommon</text><line style="stroke:#181818;stroke-width:0.5;" x1="3721.49" x2="4051.822" y1="686.7469" y2="686.7469"/><text fill="#000000" font-family="sans-serif" font-size="14" lengthAdjust="spacing" textLength="125.2959" x="3726.49" y="703.742">float box_size_um</text><text fill="#000000" font-family="sans-serif" font-size="14" lengthAdjust="spacing" textLength="138.4209" x="3726.49" y="720.0389">float grid_width_um</text><text fill="#000000" font-family="sans-serif" font-size="14" lengthAdjust="spacing" textLength="153.7129" x="3726.49" y="736.3357">float exposure_time_s</text><text fill="#000000" font-family="sans-serif" font-size="14" lengthAdjust="spacing" textLength="320.332" x="3726.49" y="752.6326">IspybExperimentType ispyb_experiment_type</text><text fill="#000000" font-family="sans-serif" font-size="14" lengthAdjust="spacing" textLength="282.3516" x="3726.49" y="768.9295">ApertureValue | None selected_aperture</text><text fill="#000000" font-family="sans-serif" font-size="14" lengthAdjust="spacing" textLength="130.498" x="3726.49" y="785.2264">float tip_offset_um</text><line style="stroke:#181818;stroke-width:0.5;" x1="3721.49" x2="4051.822" y1="792.5281" y2="792.5281"/></g><!--class MxBlueskyParameters--><g class="entity" data-entity="MxBlueskyParameters" data-source-line="66" data-uid="ent0014" id="entity_MxBlueskyParameters"><rect fill="#F1F1F1" height="64.2969" rx="2.5" ry="2.5" style="stroke:#181818;stroke-width:0.5;" width="317.4639" x="3730.93" y="118.8869"/><ellipse cx="3807.5164" cy="134.8869" fill="#ADD1B2" rx="11" ry="11" style="stroke:#181818;stroke-width:1;"/><path d="M3810.4852,140.5275 Q3809.9071,140.8244 3809.2664,140.965 Q3808.6258,141.1213 3807.9227,141.1213 Q3805.4227,141.1213 3804.0946,139.4806 Q3802.7821,137.8244 3802.7821,134.6994 Q3802.7821,131.5744 3804.0946,129.9181 Q3805.4227,128.2619 3807.9227,128.2619 Q3808.6258,128.2619 3809.2664,128.4181 Q3809.9227,128.5744 3810.4852,128.8713 L3810.4852,131.59 Q3809.8602,131.0119 3809.2664,130.7463 Q3808.6727,130.465 3808.0477,130.465 Q3806.7039,130.465 3806.0164,131.5431 Q3805.3289,132.6056 3805.3289,134.6994 Q3805.3289,136.7931 3806.0164,137.8713 Q3806.7039,138.9338 3808.0477,138.9338 Q3808.6727,138.9338 3809.2664,138.6681 Q3809.8602,138.3869 3810.4852,137.8088 L3810.4852,140.5275 Z " fill="#000000"/><text fill="#000000" font-family="sans-serif" font-size="14" lengthAdjust="spacing" textLength="155.791" x="3828.0164" y="139.7336">MxBlueskyParameters</text><line style="stroke:#181818;stroke-width:0.5;" x1="3731.93" x2="4047.3939" y1="150.8869" y2="150.8869"/><text fill="#000000" font-family="sans-serif" font-size="14" lengthAdjust="spacing" textLength="305.4639" x="3736.93" y="167.882">SemanticVersion parameter_model_version</text><line style="stroke:#181818;stroke-width:0.5;" x1="3731.93" x2="4047.3939" y1="175.1838" y2="175.1838"/></g><!--class WithHyperionUDCFeatures--><g class="entity" data-entity="WithHyperionUDCFeatures" data-source-line="72" data-uid="ent0016" id="entity_WithHyperionUDCFeatures"><rect fill="#F1F1F1" height="64.2969" rx="2.5" ry="2.5" style="stroke:#181818;stroke-width:0.5;" width="228.6719" x="582.32" y="695.4869"/><ellipse cx="601.4183" cy="711.4869" fill="#ADD1B2" rx="11" ry="11" style="stroke:#181818;stroke-width:1;"/><path d="M604.3871,717.1275 Q603.809,717.4244 603.1683,717.565 Q602.5277,717.7213 601.8246,717.7213 Q599.3246,717.7213 597.9965,716.0806 Q596.684,714.4244 596.684,711.2994 Q596.684,708.1744 597.9965,706.5181 Q599.3246,704.8619 601.8246,704.8619 Q602.5277,704.8619 603.1683,705.0181 Q603.8246,705.1744 604.3871,705.4713 L604.3871,708.19 Q603.7621,707.6119 603.1683,707.3463 Q602.5746,707.065 601.9496,707.065 Q600.6058,707.065 599.9183,708.1431 Q599.2308,709.2056 599.2308,711.2994 Q599.2308,713.3931 599.9183,714.4713 Q600.6058,715.5338 601.9496,715.5338 Q602.5746,715.5338 603.1683,715.2681 Q603.7621,714.9869 604.3871,714.4088 L604.3871,717.1275 Z " fill="#000000"/><text fill="#000000" font-family="sans-serif" font-size="14" lengthAdjust="spacing" textLength="187.5645" x="616.3291" y="716.3336">WithHyperionUDCFeatures</text><line style="stroke:#181818;stroke-width:0.5;" x1="583.32" x2="809.9919" y1="727.4869" y2="727.4869"/><text fill="#000000" font-family="sans-serif" font-size="14" lengthAdjust="spacing" textLength="216.6719" x="588.32" y="744.482">HyperionFeatureFlags features</text><line style="stroke:#181818;stroke-width:0.5;" x1="583.32" x2="809.9919" y1="751.7838" y2="751.7838"/></g><!--class GridCommonWithHyperionDetectorParams--><g class="entity" data-entity="GridCommonWithHyperionDetectorParams" data-source-line="75" data-uid="ent0017" id="entity_GridCommonWithHyperionDetectorParams"><rect fill="#F1F1F1" height="48" rx="2.5" ry="2.5" style="stroke:#181818;stroke-width:0.5;" width="333.2188" x="906.05" y="884.9769"/><ellipse cx="921.05" cy="900.9769" fill="#ADD1B2" rx="11" ry="11" style="stroke:#181818;stroke-width:1;"/><path d="M924.0188,906.6175 Q923.4406,906.9144 922.8,907.055 Q922.1594,907.2113 921.4563,907.2113 Q918.9563,907.2113 917.6281,905.5706 Q916.3156,903.9144 916.3156,900.7894 Q916.3156,897.6644 917.6281,896.0081 Q918.9563,894.3519 921.4563,894.3519 Q922.1594,894.3519 922.8,894.5081 Q923.4563,894.6644 924.0188,894.9613 L924.0188,897.68 Q923.3938,897.1019 922.8,896.8363 Q922.2063,896.555 921.5813,896.555 Q920.2375,896.555 919.55,897.6331 Q918.8625,898.6956 918.8625,900.7894 Q918.8625,902.8831 919.55,903.9613 Q920.2375,905.0238 921.5813,905.0238 Q922.2063,905.0238 922.8,904.7581 Q923.3938,904.4769 924.0188,903.8988 L924.0188,906.6175 Z " fill="#000000"/><text fill="#000000" font-family="sans-serif" font-size="14" lengthAdjust="spacing" textLength="301.2188" x="935.05" y="905.8236">GridCommonWithHyperionDetectorParams</text><line style="stroke:#181818;stroke-width:0.5;" x1="907.05" x2="1238.2688" y1="916.9769" y2="916.9769"/><line style="stroke:#181818;stroke-width:0.5;" x1="907.05" x2="1238.2688" y1="924.9769" y2="924.9769"/></g><!--class RotationScan--><g class="entity" data-entity="RotationScan" data-source-line="77" data-uid="ent0018" id="entity_RotationScan"><rect fill="#F1F1F1" height="64.2969" rx="2.5" ry="2.5" style="stroke:#181818;stroke-width:0.5;" width="540.001" x="112.66" y="1017.4169"/><ellipse cx="331.8031" cy="1033.4169" fill="#ADD1B2" rx="11" ry="11" style="stroke:#181818;stroke-width:1;"/><path d="M334.7718,1039.0575 Q334.1937,1039.3544 333.5531,1039.495 Q332.9124,1039.6513 332.2093,1039.6513 Q329.7093,1039.6513 328.3812,1038.0106 Q327.0687,1036.3544 327.0687,1033.2294 Q327.0687,1030.1044 328.3812,1028.4481 Q329.7093,1026.7919 332.2093,1026.7919 Q332.9124,1026.7919 333.5531,1026.9481 Q334.2093,1027.1044 334.7718,1027.4013 L334.7718,1030.12 Q334.1468,1029.5419 333.5531,1029.2763 Q332.9593,1028.995 332.3343,1028.995 Q330.9906,1028.995 330.3031,1030.0731 Q329.6156,1031.1356 329.6156,1033.2294 Q329.6156,1035.3231 330.3031,1036.4013 Q330.9906,1037.4638 332.3343,1037.4638 Q332.9593,1037.4638 333.5531,1037.1981 Q334.1468,1036.9169 334.7718,1036.3388 L334.7718,1039.0575 Z " fill="#000000"/><text fill="#000000" font-family="sans-serif" font-size="14" lengthAdjust="spacing" textLength="93.2148" x="352.3031" y="1038.2636">RotationScan</text><line style="stroke:#181818;stroke-width:0.5;" x1="113.66" x2="651.661" y1="1049.4169" y2="1049.4169"/><line style="stroke:#181818;stroke-width:0.5;" x1="113.66" x2="651.661" y1="1057.4169" y2="1057.4169"/><text fill="#000000" font-family="sans-serif" font-size="14" lengthAdjust="spacing" textLength="528.001" x="118.66" y="1074.412">Annotated[list[RotationScanPerSweep], Len(min_length=1)] rotation_scans</text></g><!--class PinTipCentreThenXrayCentre--><g class="entity" data-entity="PinTipCentreThenXrayCentre" data-source-line="80" data-uid="ent0019" id="entity_PinTipCentreThenXrayCentre"><rect fill="#F1F1F1" height="64.2969" rx="2.5" ry="2.5" style="stroke:#181818;stroke-width:0.5;" width="235.8955" x="948.71" y="1017.4169"/><ellipse cx="963.71" cy="1033.4169" fill="#ADD1B2" rx="11" ry="11" style="stroke:#181818;stroke-width:1;"/><path d="M966.6788,1039.0575 Q966.1006,1039.3544 965.46,1039.495 Q964.8194,1039.6513 964.1163,1039.6513 Q961.6163,1039.6513 960.2881,1038.0106 Q958.9756,1036.3544 958.9756,1033.2294 Q958.9756,1030.1044 960.2881,1028.4481 Q961.6163,1026.7919 964.1163,1026.7919 Q964.8194,1026.7919 965.46,1026.9481 Q966.1163,1027.1044 966.6788,1027.4013 L966.6788,1030.12 Q966.0538,1029.5419 965.46,1029.2763 Q964.8663,1028.995 964.2413,1028.995 Q962.8975,1028.995 962.21,1030.0731 Q961.5225,1031.1356 961.5225,1033.2294 Q961.5225,1035.3231 962.21,1036.4013 Q962.8975,1037.4638 964.2413,1037.4638 Q964.8663,1037.4638 965.46,1037.1981 Q966.0538,1036.9169 966.6788,1036.3388 L966.6788,1039.0575 Z " fill="#000000"/><text fill="#000000" font-family="sans-serif" font-size="14" lengthAdjust="spacing" textLength="203.8955" x="977.71" y="1038.2636">PinTipCentreThenXrayCentre</text><line style="stroke:#181818;stroke-width:0.5;" x1="949.71" x2="1183.6055" y1="1049.4169" y2="1049.4169"/><text fill="#000000" font-family="sans-serif" font-size="14" lengthAdjust="spacing" textLength="130.498" x="954.71" y="1066.412">float tip_offset_um</text><line style="stroke:#181818;stroke-width:0.5;" x1="949.71" x2="1183.6055" y1="1073.7138" y2="1073.7138"/></g><!--class LoadCentreCollect--><g class="entity" data-entity="LoadCentreCollect" data-source-line="83" data-uid="ent0020" id="entity_LoadCentreCollect"><rect fill="#F1F1F1" height="80.5938" rx="2.5" ry="2.5" style="stroke:#181818;stroke-width:0.5;" width="338.6211" x="91.35" y="868.6769"/><ellipse cx="191.975" cy="884.6769" fill="#ADD1B2" rx="11" ry="11" style="stroke:#181818;stroke-width:1;"/><path d="M194.9438,890.3175 Q194.3656,890.6144 193.725,890.755 Q193.0844,890.9113 192.3813,890.9113 Q189.8813,890.9113 188.5531,889.2706 Q187.2406,887.6144 187.2406,884.4894 Q187.2406,881.3644 188.5531,879.7081 Q189.8813,878.0519 192.3813,878.0519 Q193.0844,878.0519 193.725,878.2081 Q194.3813,878.3644 194.9438,878.6613 L194.9438,881.38 Q194.3188,880.8019 193.725,880.5363 Q193.1313,880.255 192.5063,880.255 Q191.1625,880.255 190.475,881.3331 Q189.7875,882.3956 189.7875,884.4894 Q189.7875,886.5831 190.475,887.6613 Q191.1625,888.7238 192.5063,888.7238 Q193.1313,888.7238 193.725,888.4581 Q194.3188,888.1769 194.9438,887.5988 L194.9438,890.3175 Z " fill="#000000"/><text fill="#000000" font-family="sans-serif" font-size="14" lengthAdjust="spacing" textLength="128.8711" x="212.475" y="889.5236">LoadCentreCollect</text><line style="stroke:#181818;stroke-width:0.5;" x1="92.35" x2="428.9711" y1="900.6769" y2="900.6769"/><text fill="#000000" font-family="sans-serif" font-size="14" lengthAdjust="spacing" textLength="326.6211" x="97.35" y="917.672">RobotLoadThenCentre robot_load_then_centre</text><text fill="#000000" font-family="sans-serif" font-size="14" lengthAdjust="spacing" textLength="235.0947" x="97.35" y="933.9689">RotationScan multi_rotation_scan</text><line style="stroke:#181818;stroke-width:0.5;" x1="92.35" x2="428.9711" y1="941.2706" y2="941.2706"/></g><!--class RotationExperiment--><g class="entity" data-entity="RotationExperiment" data-source-line="87" data-uid="ent0021" id="entity_RotationExperiment"><rect fill="#F1F1F1" height="96.8906" rx="2.5" ry="2.5" style="stroke:#181818;stroke-width:0.5;" width="332.332" x="538.49" y="860.5269"/><ellipse cx="630.3718" cy="876.5269" fill="#ADD1B2" rx="11" ry="11" style="stroke:#181818;stroke-width:1;"/><path d="M633.3406,882.1675 Q632.7625,882.4644 632.1218,882.605 Q631.4812,882.7613 630.7781,882.7613 Q628.2781,882.7613 626.95,881.1206 Q625.6375,879.4644 625.6375,876.3394 Q625.6375,873.2144 626.95,871.5581 Q628.2781,869.9019 630.7781,869.9019 Q631.4812,869.9019 632.1218,870.0581 Q632.7781,870.2144 633.3406,870.5113 L633.3406,873.23 Q632.7156,872.6519 632.1218,872.3863 Q631.5281,872.105 630.9031,872.105 Q629.5593,872.105 628.8718,873.1831 Q628.1843,874.2456 628.1843,876.3394 Q628.1843,878.4331 628.8718,879.5113 Q629.5593,880.5738 630.9031,880.5738 Q631.5281,880.5738 632.1218,880.3081 Q632.7156,880.0269 633.3406,879.4488 L633.3406,882.1675 Z " fill="#000000"/><text fill="#000000" font-family="sans-serif" font-size="14" lengthAdjust="spacing" textLength="140.0684" x="650.8718" y="881.3736">RotationExperiment</text><line style="stroke:#181818;stroke-width:0.5;" x1="539.49" x2="869.822" y1="892.5269" y2="892.5269"/><text fill="#000000" font-family="sans-serif" font-size="14" lengthAdjust="spacing" textLength="202.8018" x="544.49" y="909.522">float shutter_opening_time_s</text><text fill="#000000" font-family="sans-serif" font-size="14" lengthAdjust="spacing" textLength="202.9385" x="544.49" y="925.8189">float rotation_increment_deg</text><text fill="#000000" font-family="sans-serif" font-size="14" lengthAdjust="spacing" textLength="320.332" x="544.49" y="942.1157">IspybExperimentType ispyb_experiment_type</text><line style="stroke:#181818;stroke-width:0.5;" x1="539.49" x2="869.822" y1="949.4175" y2="949.4175"/></g><!--class GridScanWithEdgeDetect--><g class="entity" data-entity="GridScanWithEdgeDetect" data-source-line="92" data-uid="ent0022" id="entity_GridScanWithEdgeDetect"><rect fill="#F1F1F1" height="48" rx="2.5" ry="2.5" style="stroke:#181818;stroke-width:0.5;" width="209.4268" x="698.95" y="1025.5669"/><ellipse cx="713.95" cy="1041.5669" fill="#ADD1B2" rx="11" ry="11" style="stroke:#181818;stroke-width:1;"/><path d="M716.9187,1047.2075 Q716.3406,1047.5044 715.7,1047.645 Q715.0594,1047.8013 714.3562,1047.8013 Q711.8562,1047.8013 710.5281,1046.1606 Q709.2156,1044.5044 709.2156,1041.3794 Q709.2156,1038.2544 710.5281,1036.5981 Q711.8562,1034.9419 714.3562,1034.9419 Q715.0594,1034.9419 715.7,1035.0981 Q716.3562,1035.2544 716.9187,1035.5513 L716.9187,1038.27 Q716.2937,1037.6919 715.7,1037.4263 Q715.1062,1037.145 714.4812,1037.145 Q713.1375,1037.145 712.45,1038.2231 Q711.7625,1039.2856 711.7625,1041.3794 Q711.7625,1043.4731 712.45,1044.5513 Q713.1375,1045.6138 714.4812,1045.6138 Q715.1062,1045.6138 715.7,1045.3481 Q716.2937,1045.0669 716.9187,1044.4888 L716.9187,1047.2075 Z " fill="#000000"/><text fill="#000000" font-family="sans-serif" font-size="14" lengthAdjust="spacing" textLength="177.4268" x="727.95" y="1046.4136">GridScanWithEdgeDetect</text><line style="stroke:#181818;stroke-width:0.5;" x1="699.95" x2="907.3768" y1="1057.5669" y2="1057.5669"/><line style="stroke:#181818;stroke-width:0.5;" x1="699.95" x2="907.3768" y1="1065.5669" y2="1065.5669"/></g><!--reverse link WithPandaGridScan to WithHyperionUDCFeatures--><g class="link" data-entity-1="WithPandaGridScan" data-entity-2="WithHyperionUDCFeatures" data-source-line="95" data-uid="lnk23" id="link_WithPandaGridScan_WithHyperionUDCFeatures"><path codeLine="95" d="M2357.136,192.6817 C2331.756,207.6517 2314.94,215.0169 2283.66,223.7769 C1935.44,321.3469 1817.62,170.4969 1471.66,275.7769 C1161.54,370.1569 843.12,609.3369 735.12,695.2869" fill="none" id="WithPandaGridScan-backto-WithHyperionUDCFeatures" style="stroke:#181818;stroke-width:1;"/><polygon fill="none" points="2372.64,183.5369,2354.0878,187.5137,2360.1843,197.8496,2372.64,183.5369" style="stroke:#181818;stroke-width:1;"/></g><!--reverse link DiffractionExperimentWithSample to GridCommon--><g class="link" data-entity-1="DiffractionExperimentWithSample" data-entity-2="GridCommon" data-source-line="96" data-uid="lnk24" id="link_DiffractionExperimentWithSample_GridCommon"><path codeLine="96" d="M3886.66,612.9369 C3886.66,628.8869 3886.66,633.0069 3886.66,654.5669" fill="none" id="DiffractionExperimentWithSample-backto-GridCommon" style="stroke:#181818;stroke-width:1;"/><polygon fill="none" points="3886.66,594.9369,3880.66,612.9369,3892.66,612.9369,3886.66,594.9369" style="stroke:#181818;stroke-width:1;"/></g><!--reverse link OptionalGonioAngleStarts to GridCommon--><g class="link" data-entity-1="OptionalGonioAngleStarts" data-entity-2="GridCommon" data-source-line="97" data-uid="lnk25" id="link_OptionalGonioAngleStarts_GridCommon"><path codeLine="97" d="M3685.5843,216.5073 C3696.9943,222.5373 3692.92,219.5769 3704.66,223.7769 C3782.01,251.4569 4016.81,213.7369 4070.66,275.7769 C4164.02,383.3469 4116.45,474.7869 4039.66,594.7469 C4025.67,616.6069 4006.98,636.8469 3987.48,654.5769" fill="none" id="OptionalGonioAngleStarts-backto-GridCommon" style="stroke:#181818;stroke-width:1;"/><polygon fill="none" points="3669.67,208.0969,3682.7808,221.8121,3688.3878,211.2026,3669.67,208.0969" style="stroke:#181818;stroke-width:1;"/></g><!--reverse link GridCommon to GridCommonWithHyperionDetectorParams--><g class="link" data-entity-1="GridCommon" data-entity-2="GridCommonWithHyperionDetectorParams" data-source-line="98" data-uid="lnk26" id="link_GridCommon_GridCommonWithHyperionDetectorParams"><path codeLine="98" d="M3702.1704,753.4091 C3517.7704,777.3991 3229.48,812.3569 2964.66,832.5269 C2328.55,880.9869 1569.62,899.3269 1239.62,905.3769" fill="none" id="GridCommon-backto-GridCommonWithHyperionDetectorParams" style="stroke:#181818;stroke-width:1;"/><polygon fill="none" points="3720.02,751.0869,3701.3964,747.4592,3702.9445,759.3589,3720.02,751.0869" style="stroke:#181818;stroke-width:1;"/></g><!--reverse link WithHyperionUDCFeatures to GridCommonWithHyperionDetectorParams--><g class="link" data-entity-1="WithHyperionUDCFeatures" data-entity-2="GridCommonWithHyperionDetectorParams" data-source-line="99" data-uid="lnk27" id="link_WithHyperionUDCFeatures_GridCommonWithHyperionDetectorParams"><path codeLine="99" d="M778.8268,767.8355 C853.3868,803.3955 956.83,852.7269 1023.6,884.5769" fill="none" id="WithHyperionUDCFeatures-backto-GridCommonWithHyperionDetectorParams" style="stroke:#181818;stroke-width:1;"/><polygon fill="none" points="762.58,760.0869,776.2439,773.2511,781.4097,762.4199,762.58,760.0869" style="stroke:#181818;stroke-width:1;"/></g><!--reverse link RotationExperiment to RotationScan--><g class="link" data-entity-1="RotationExperiment" data-entity-2="RotationScan" data-source-line="100" data-uid="lnk28" id="link_RotationExperiment_RotationScan"><path codeLine="100" d="M576.8567,964.9838 C531.4167,984.5438 496.64,999.5069 456.03,1016.9869" fill="none" id="RotationExperiment-backto-RotationScan" style="stroke:#181818;stroke-width:1;"/><polygon fill="none" points="593.39,957.8669,574.4844,959.4727,579.229,970.4949,593.39,957.8669" style="stroke:#181818;stroke-width:1;"/></g><!--reverse link SplitScan to RotationScan--><g class="link" data-entity-1="SplitScan" data-entity-2="RotationScan" data-source-line="101" data-uid="lnk29" id="link_SplitScan_RotationScan"><path codeLine="101" d="M1285.8901,152.0561 C1094.5201,152.6861 414.53,162.7869 230.66,275.7769 C97.71,357.4869 38.66,413.6969 38.66,569.7469 C38.66,569.7469 38.66,569.7469 38.66,728.6369 C38.66,831.5069 6,879.9469 73.66,957.4169 C97.11,984.2769 128.05,1003.4069 161.28,1016.9969" fill="none" id="SplitScan-backto-RotationScan" style="stroke:#181818;stroke-width:1;"/><polygon fill="none" points="1303.89,151.9969,1285.8703,146.0562,1285.9098,158.0561,1303.89,151.9969" style="stroke:#181818;stroke-width:1;"/></g><!--reverse link MxBlueskyParameters to DiffractionExperiment--><g class="link" data-entity-1="MxBlueskyParameters" data-entity-2="DiffractionExperiment" data-source-line="102" data-uid="lnk30" id="link_MxBlueskyParameters_DiffractionExperiment"><path codeLine="102" d="M3889.0098,201.2953 C3888.6898,225.2753 3888.48,241.8669 3888.04,275.3869" fill="none" id="MxBlueskyParameters-backto-DiffractionExperiment" style="stroke:#181818;stroke-width:1;"/><polygon fill="none" points="3889.25,183.2969,3883.0104,201.2152,3895.0093,201.3753,3889.25,183.2969" style="stroke:#181818;stroke-width:1;"/></g><!--reverse link WithSnapshot to DiffractionExperiment--><g class="link" data-entity-1="WithSnapshot" data-entity-2="DiffractionExperiment" data-source-line="103" data-uid="lnk31" id="link_WithSnapshot_DiffractionExperiment"><path codeLine="103" d="M3144.1167,207.0125 C3164.3867,215.6925 3169.21,217.0269 3189.66,223.7769 C3367.19,282.3869 3577.33,326.2369 3720.12,352.3869" fill="none" id="WithSnapshot-backto-DiffractionExperiment" style="stroke:#181818;stroke-width:1;"/><polygon fill="none" points="3127.57,199.9269,3141.7548,212.5281,3146.4786,201.4969,3127.57,199.9269" style="stroke:#181818;stroke-width:1;"/></g><!--reverse link WithOptionalEnergyChange to DiffractionExperiment--><g class="link" data-entity-1="WithOptionalEnergyChange" data-entity-2="DiffractionExperiment" data-source-line="104" data-uid="lnk32" id="link_WithOptionalEnergyChange_DiffractionExperiment"><path codeLine="104" d="M3395.7498,192.2787 C3419.8498,205.4687 3432.88,211.8269 3459.66,223.7769 C3543.92,261.3969 3640.24,297.2769 3720.05,325.1769" fill="none" id="WithOptionalEnergyChange-backto-DiffractionExperiment" style="stroke:#181818;stroke-width:1;"/><polygon fill="none" points="3379.96,183.6369,3392.8692,197.542,3398.6304,187.0154,3379.96,183.6369" style="stroke:#181818;stroke-width:1;"/></g><!--reverse link WithVisit to DiffractionExperiment--><g class="link" data-entity-1="WithVisit" data-entity-2="DiffractionExperiment" data-source-line="105" data-uid="lnk33" id="link_WithVisit_DiffractionExperiment"><path codeLine="105" d="M2859.9119,222.3576 C2867.5019,225.1376 2858.18,221.5169 2865.66,223.7769 C3158.93,312.5869 3515.58,352.5569 3720.34,369.3169" fill="none" id="WithVisit-backto-DiffractionExperiment" style="stroke:#181818;stroke-width:1;"/><polygon fill="none" points="2843.01,216.1669,2857.8484,227.9915,2861.9755,216.7236,2843.01,216.1669" style="stroke:#181818;stroke-width:1;"/></g><!--reverse link GridCommonWithHyperionDetectorParams to PinTipCentreThenXrayCentre--><g class="link" data-entity-1="GridCommonWithHyperionDetectorParams" data-entity-2="PinTipCentreThenXrayCentre" data-source-line="106" data-uid="lnk34" id="link_GridCommonWithHyperionDetectorParams_PinTipCentreThenXrayCentre"><path codeLine="106" d="M1070.8768,951.1598 C1069.8768,974.1198 1069.13,991.4569 1068.03,1016.9769" fill="none" id="GridCommonWithHyperionDetectorParams-backto-PinTipCentreThenXrayCentre" style="stroke:#181818;stroke-width:1;"/><polygon fill="none" points="1071.66,933.1769,1064.8825,950.8988,1076.8711,951.4209,1071.66,933.1769" style="stroke:#181818;stroke-width:1;"/></g><!--reverse link WithHyperionUDCFeatures to PinTipCentreThenXrayCentre--><g class="link" data-entity-1="WithHyperionUDCFeatures" data-entity-2="PinTipCentreThenXrayCentre" data-source-line="107" data-uid="lnk35" id="link_WithHyperionUDCFeatures_PinTipCentreThenXrayCentre"><path codeLine="107" d="M639.2322,770.7317 C587.7222,808.5617 522.51,856.8369 520.66,860.5269 C501.39,899.0369 492.53,924.8169 520.66,957.4169 C580.09,1026.3069 836.18,1000.9269 925.66,1017.4169 C933.06,1018.7869 940.65,1020.2569 948.31,1021.7869" fill="none" id="WithHyperionUDCFeatures-backto-PinTipCentreThenXrayCentre" style="stroke:#181818;stroke-width:1;"/><polygon fill="none" points="653.74,760.0769,635.6806,765.8958,642.7838,775.5676,653.74,760.0769" style="stroke:#181818;stroke-width:1;"/></g><!--reverse link MxBlueskyParameters to LoadCentreCollect--><g class="link" data-entity-1="MxBlueskyParameters" data-entity-2="LoadCentreCollect" data-source-line="108" data-uid="lnk36" id="link_MxBlueskyParameters_LoadCentreCollect"><path codeLine="108" d="M3804.0143,190.7349 C3771.7543,204.5549 3749.05,212.9569 3712.66,223.7769 C2760.75,506.8769 2487.97,431.9169 1519.66,652.4869 C1210.22,722.9769 1141.3,777.9669 828.66,832.5269 C693.25,856.1569 656.85,841.9469 520.66,860.5269 C491.34,864.5269 460.28,869.5269 430.24,874.7669" fill="none" id="MxBlueskyParameters-backto-LoadCentreCollect" style="stroke:#181818;stroke-width:1;"/><polygon fill="none" points="3820.56,183.6469,3801.6516,185.2197,3806.377,196.2502,3820.56,183.6469" style="stroke:#181818;stroke-width:1;"/></g><!--reverse link WithVisit to LoadCentreCollect--><g class="link" data-entity-1="WithVisit" data-entity-2="LoadCentreCollect" data-source-line="109" data-uid="lnk37" id="link_WithVisit_LoadCentreCollect"><path codeLine="109" d="M2566.9786,222.0718 C2558.5286,224.9618 2567.06,221.6969 2558.66,223.7769 C2089.22,340.2169 1943.59,169.8869 1471.66,275.7769 C1045.75,371.3469 910.76,386.5069 564.66,652.4869 C484.72,713.9269 505.58,769.7869 426.66,832.5269 C409.31,846.3169 389.04,858.2069 368.74,868.2069" fill="none" id="WithVisit-backto-LoadCentreCollect" style="stroke:#181818;stroke-width:1;"/><polygon fill="none" points="2584.01,216.2469,2565.0369,216.3947,2568.9202,227.749,2584.01,216.2469" style="stroke:#181818;stroke-width:1;"/></g><!--reverse link WithSample to LoadCentreCollect--><g class="link" data-entity-1="WithSample" data-entity-2="LoadCentreCollect" data-source-line="110" data-uid="lnk38" id="link_WithSample_LoadCentreCollect"><path codeLine="110" d="M2104.614,209.8074 C2090.074,219.3974 2088.98,218.2869 2072.66,223.7769 C1851.86,298.0569 1245.48,198.6669 1025.66,275.7769 C681.8,396.3969 383.96,749.2269 290.8,868.2469" fill="none" id="WithSample-backto-LoadCentreCollect" style="stroke:#181818;stroke-width:1;"/><polygon fill="none" points="2119.64,199.8969,2101.3105,204.7988,2107.9175,214.8161,2119.64,199.8969" style="stroke:#181818;stroke-width:1;"/></g><!--reverse link WithCentreSelection to LoadCentreCollect--><g class="link" data-entity-1="WithCentreSelection" data-entity-2="LoadCentreCollect" data-source-line="111" data-uid="lnk39" id="link_WithCentreSelection_LoadCentreCollect"><path codeLine="111" d="M1607.1177,187.8704 C1545.8277,202.5904 1487.51,214.6269 1418.66,223.7769 C1300.34,239.5169 433.58,195.0469 345.66,275.7769 C174.77,432.6969 226.65,756.1769 251.14,868.5069" fill="none" id="WithCentreSelection-backto-LoadCentreCollect" style="stroke:#181818;stroke-width:1;"/><polygon fill="none" points="1624.62,183.6669,1605.7165,182.0363,1608.5189,193.7045,1624.62,183.6669" style="stroke:#181818;stroke-width:1;"/></g><!--reverse link WithHyperionUDCFeatures to LoadCentreCollect--><g class="link" data-entity-1="WithHyperionUDCFeatures" data-entity-2="LoadCentreCollect" data-source-line="112" data-uid="lnk40" id="link_WithHyperionUDCFeatures_LoadCentreCollect"><path codeLine="112" d="M648.3278,771.7995 C621.1878,794.9195 595.22,813.7769 555.66,832.5269 C548.69,835.8369 486.72,851.8169 421.37,868.2269" fill="none" id="WithHyperionUDCFeatures-backto-LoadCentreCollect" style="stroke:#181818;stroke-width:1;"/><polygon fill="none" points="662.03,760.1269,644.4369,767.2321,652.2187,776.3669,662.03,760.1269" style="stroke:#181818;stroke-width:1;"/></g><!--reverse link DiffractionExperiment to RotationExperiment--><g class="link" data-entity-1="DiffractionExperiment" data-entity-2="RotationExperiment" data-source-line="113" data-uid="lnk41" id="link_DiffractionExperiment_RotationExperiment"><path codeLine="113" d="M3702.8263,426.7026 C3318.6863,517.8526 2356.39,735.3469 1523.66,832.5269 C1243.07,865.2769 1168.06,818.8169 888.66,860.5269 C882.79,861.4069 876.83,862.3969 870.83,863.4769" fill="none" id="DiffractionExperiment-backto-RotationExperiment" style="stroke:#181818;stroke-width:1;"/><polygon fill="none" points="3720.34,422.5469,3701.4411,420.8647,3704.2115,432.5405,3720.34,422.5469" style="stroke:#181818;stroke-width:1;"/></g><!--reverse link WithHyperionUDCFeatures to RotationExperiment--><g class="link" data-entity-1="WithHyperionUDCFeatures" data-entity-2="RotationExperiment" data-source-line="114" data-uid="lnk42" id="link_WithHyperionUDCFeatures_RotationExperiment"><path codeLine="114" d="M698.855,777.8589 C700.095,805.5589 701.11,828.4469 702.53,860.2369" fill="none" id="WithHyperionUDCFeatures-backto-RotationExperiment" style="stroke:#181818;stroke-width:1;"/><polygon fill="none" points="698.05,759.8769,692.861,778.1272,704.849,777.5905,698.05,759.8769" style="stroke:#181818;stroke-width:1;"/></g><!--reverse link GridCommonWithHyperionDetectorParams to GridScanWithEdgeDetect--><g class="link" data-entity-1="GridCommonWithHyperionDetectorParams" data-entity-2="GridScanWithEdgeDetect" data-source-line="115" data-uid="lnk43" id="link_GridCommonWithHyperionDetectorParams_GridScanWithEdgeDetect"><path codeLine="115" d="M1011.3297,941.5724 C961.7697,967.1124 898.81,999.5469 849.17,1025.1169" fill="none" id="GridCommonWithHyperionDetectorParams-backto-GridScanWithEdgeDetect" style="stroke:#181818;stroke-width:1;"/><polygon fill="none" points="1027.33,933.3269,1008.5811,936.239,1014.0782,946.9059,1027.33,933.3269" style="stroke:#181818;stroke-width:1;"/></g><!--reverse link WithHyperionUDCFeatures to GridScanWithEdgeDetect--><g class="link" data-entity-1="WithHyperionUDCFeatures" data-entity-2="GridScanWithEdgeDetect" data-source-line="116" data-uid="lnk44" id="link_WithHyperionUDCFeatures_GridScanWithEdgeDetect"><path codeLine="116" d="M644.582,771.2608 C617.032,793.1708 592.4,811.0269 555.66,832.5269 C529.57,847.8069 510.06,835.1269 493.66,860.5269 C470.3,896.7069 467.86,922.9469 493.66,957.4169 C506.64,974.7669 616.87,1004.3769 702.23,1025.1269" fill="none" id="WithHyperionUDCFeatures-backto-GridScanWithEdgeDetect" style="stroke:#181818;stroke-width:1;"/><polygon fill="none" points="658.67,760.0569,640.8473,766.5648,648.3166,775.9568,658.67,760.0569" style="stroke:#181818;stroke-width:1;"/></g><!--reverse link DiffractionExperiment to DiffractionExperimentWithSample--><g class="link" data-entity-1="DiffractionExperiment" data-entity-2="DiffractionExperimentWithSample" data-source-line="117" data-uid="lnk45" id="link_DiffractionExperiment_DiffractionExperimentWithSample"><path codeLine="117" d="M3886.66,505.2469 C3886.66,527.4969 3886.66,530.8969 3886.66,546.3269" fill="none" id="DiffractionExperiment-backto-DiffractionExperimentWithSample" style="stroke:#181818;stroke-width:1;"/><polygon fill="none" points="3886.66,487.2469,3880.66,505.2469,3892.66,505.2469,3886.66,487.2469" style="stroke:#181818;stroke-width:1;"/></g><!--reverse link WithSample to DiffractionExperimentWithSample--><g class="link" data-entity-1="WithSample" data-entity-2="DiffractionExperimentWithSample" data-source-line="118" data-uid="lnk46" id="link_WithSample_DiffractionExperimentWithSample"><path codeLine="118" d="M2254.274,209.7148 C2268.004,218.7148 2267.85,217.4169 2282.66,223.7769 C2797.28,444.9569 3467.62,530.4769 3750.88,558.2469" fill="none" id="WithSample-backto-DiffractionExperimentWithSample" style="stroke:#181818;stroke-width:1;"/><polygon fill="none" points="2239.22,199.8469,2250.9847,214.7328,2257.5634,204.6968,2239.22,199.8469" style="stroke:#181818;stroke-width:1;"/></g><!--SRC=[bLPDR-Cs43sRluAtja0JeFVsa7MIRO7DrbYxQO55GD3IM292aGH9PUrwyzztI4goPCbsSf8uy-Q3Csz6-cbL2aStGWB59w-zlYf0WUKUShhUqVR0ZEJArvMyDZj2lF1eyEVEW1LQqGMtl08FbZxe72HnuAb2YJCyWoKOL7jjgT8A247PCo-0LbksbZMuvzrrfgjAgslJkd5qJxmkm9VeSayooPsZ_mfVBdbb9Ep9J2XFNJmmaQVZT_eP_RTIKsVFatAXo6lZSMcayCkCgtqd2a4UXHCUOpXlwHfu9GMc7KylGPDUS_0i5yuphra0iKoh5x2OF3FSbmaab4CHLeWP2nkn9REDrBnB2Nr0XeM9ZhZAW5NL89EbuiQLEYIpGAVKDMSqiD5oHsOIRRz6jq_TLLkOhg3WZkLGaDbQQqbh1wom8cSjn0tYpK5vYmsJw1opnh0hRJv_s3tmxLpNodSQZ3JKt6jxnxEcFmUOYsyiYtw7iVus0S7b7VAhsCrBhehGsAC2LLpb32A4mKlde3N-g9NGDwh0c9vRxuuTn08m5tIf2WEjASL9NNP6zyoDwNljNsk12VEFMEB4gyRG12cpjQhDKRDVnqI_5PkDvR60TzimOHMMh-5Z65GMHglr35kZNMs1UOGnbr1Xdj06ssT5KO0DKqbzUcSL7WQJWManLLThi6HsW_4ykdlaE9eTds8N8MUyqRR1lUNALSAvGF6GCvdzvSnkVKXxXIi25mlA67H2vb6QCdL8Obm6VK9tHBLQf6HVpnMclnPQOAZ_FEwKhWDhlMLE_0-ihbfH78Hl8lTbJpYgvpikzCxY2SFqPeExCeHlKt_OVaXBiTkfWTJBC0XUP8zu37FLRSfO8CbUaZpowNLgmvRDgXxks0DjsrN-p-ty7dX8CuHjfOteNl82lnMDVgBQVK-tpNABzt27tdpHdeSEDlDnerGGGFurBhA-TW5s-Gt0FFrAFu7wkHAAIL25B__uxPSdQXiaSmWz9BCGQYLCMcIh4jH_bk_IQN- -y9yqpnDmhcLe6UA_wBNsGH4y9IN6HHb3Hpd3gLNDRWlOG-QqggKNR93Yg023sKwPkRBseQdQW1Agw3YOj9qxeJ8BaNTnDxsTeVsEXJn3l-xo0bAlzf4yeoL6V_z-TNMA9EJ2J2RZ0qF8gSqz0XvUZrMdMKPEPFaE3-Fk9ED-Uqdtup2XcnZWX9gi5Eb_vY_XfZwPbspYpymvq5kgaknFZzRvkf-nErciqJGUNsOQq2VTDEBe5-SSzEI5nl39qWx9STINayudy6zlqVHWNnwB2PipLxemywDENC3_0000]--></g></svg>