<svg xmlns="http://www.w3.org/2000/svg" xmlns:xlink="http://www.w3.org/1999/xlink" contentStyleType="text/css" data-diagram-type="CLASS" height="1202px" preserveAspectRatio="none" style="width:5301px;height:1202px;background:#FFFFFF;" version="1.1" viewBox="0 0 5301 1202" width="5301px" zoomAndPan="magnify"><title>Hyperion Parameter Model</title><defs/><g><text fill="#000000" font-family="sans-serif" font-size="14" font-weight="bold" lengthAdjust="spacing" textLength="212.4951" x="2537.6324" y="22.9951">Hyperion Parameter Model</text><!--cluster mx_bluesky.common.parameters--><g id="cluster_mx_bluesky.common.parameters"><path d="M8.5,43.2969 L269.8125,43.2969 A3.75,3.75 0 0 1 272.3125,45.7969 L279.3125,65.5938 L3572.5,65.5938 A2.5,2.5 0 0 1 3575,68.0938 L3575,1076.6969 A2.5,2.5 0 0 1 3572.5,1079.1969 L8.5,1079.1969 A2.5,2.5 0 0 1 6,1076.6969 L6,45.7969 A2.5,2.5 0 0 1 8.5,43.2969 " fill="none" style="stroke:#000000;stroke-width:1.5;"/><line style="stroke:#000000;stroke-width:1.5;" x1="6" x2="279.3125" y1="65.5938" y2="65.5938"/><text fill="#000000" font-family="sans-serif" font-size="14" font-weight="bold" lengthAdjust="spacing" textLength="260.3125" x="10" y="58.292">mx_bluesky.common.parameters</text></g><!--cluster mx_bluesky.hyperion.parameters--><g id="cluster_mx_bluesky.hyperion.parameters"><path d="M3601.5,841.8269 L3866.0322,841.8269 A3.75,3.75 0 0 1 3868.5322,844.3269 L3875.5322,864.1238 L4896.5,864.1238 A2.5,2.5 0 0 1 4899,866.6238 L4899,1192.9969 A2.5,2.5 0 0 1 4896.5,1195.4969 L3601.5,1195.4969 A2.5,2.5 0 0 1 3599,1192.9969 L3599,844.3269 A2.5,2.5 0 0 1 3601.5,841.8269 " fill="none" style="stroke:#000000;stroke-width:1.5;"/><line style="stroke:#000000;stroke-width:1.5;" x1="3599" x2="3875.5322" y1="864.1238" y2="864.1238"/><text fill="#000000" font-family="sans-serif" font-size="14" font-weight="bold" lengthAdjust="spacing" textLength="263.5322" x="3603" y="856.822">mx_bluesky.hyperion.parameters</text></g><!--class OptionalXyzStarts--><g id="elem_OptionalXyzStarts"><rect codeLine="8" fill="#F1F1F1" height="96.8906" id="OptionalXyzStarts" rx="2.5" ry="2.5" style="stroke:#181818;stroke-width:0.5;" width="175.4473" x="1382.28" y="102.5869"/><ellipse cx="1405.1713" cy="118.5869" fill="#ADD1B2" rx="11" ry="11" style="stroke:#181818;stroke-width:1;"/><path d="M1408.14,124.2275 Q1407.5619,124.5244 1406.9213,124.665 Q1406.2806,124.8212 1405.5775,124.8212 Q1403.0775,124.8212 1401.7494,123.1806 Q1400.4369,121.5244 1400.4369,118.3994 Q1400.4369,115.2744 1401.7494,113.6181 Q1403.0775,111.9619 1405.5775,111.9619 Q1406.2806,111.9619 1406.9213,112.1181 Q1407.5775,112.2744 1408.14,112.5712 L1408.14,115.29 Q1407.515,114.7119 1406.9213,114.4462 Q1406.3275,114.165 1405.7025,114.165 Q1404.3588,114.165 1403.6713,115.2431 Q1402.9838,116.3056 1402.9838,118.3994 Q1402.9838,120.4931 1403.6713,121.5712 Q1404.3588,122.6337 1405.7025,122.6337 Q1406.3275,122.6337 1406.9213,122.3681 Q1407.515,122.0869 1408.14,121.5087 L1408.14,124.2275 Z " fill="#000000"/><text fill="#000000" font-family="sans-serif" font-size="14" lengthAdjust="spacing" textLength="125.9111" x="1420.9249" y="123.4336">OptionalXyzStarts</text><line style="stroke:#181818;stroke-width:0.5;" x1="1383.28" x2="1556.7273" y1="134.5869" y2="134.5869"/><text fill="#000000" font-family="sans-serif" font-size="14" lengthAdjust="spacing" textLength="163.4473" x="1388.28" y="151.582">float | None x_start_um</text><text fill="#000000" font-family="sans-serif" font-size="14" lengthAdjust="spacing" textLength="163.4473" x="1388.28" y="167.8789">float | None y_start_um</text><text fill="#000000" font-family="sans-serif" font-size="14" lengthAdjust="spacing" textLength="162.5107" x="1388.28" y="184.1757">float | None z_start_um</text><line style="stroke:#181818;stroke-width:0.5;" x1="1383.28" x2="1556.7273" y1="191.4775" y2="191.4775"/></g><!--class XyzStarts--><g id="elem_XyzStarts"><rect codeLine="13" fill="#F1F1F1" height="96.8906" id="XyzStarts" rx="2.5" ry="2.5" style="stroke:#181818;stroke-width:0.5;" width="125.3057" x="300.35" y="102.5869"/><ellipse cx="327.3141" cy="118.5869" fill="#ADD1B2" rx="11" ry="11" style="stroke:#181818;stroke-width:1;"/><path d="M330.2829,124.2275 Q329.7047,124.5244 329.0641,124.665 Q328.4235,124.8212 327.7204,124.8212 Q325.2204,124.8212 323.8922,123.1806 Q322.5797,121.5244 322.5797,118.3994 Q322.5797,115.2744 323.8922,113.6181 Q325.2204,111.9619 327.7204,111.9619 Q328.4235,111.9619 329.0641,112.1181 Q329.7204,112.2744 330.2829,112.5712 L330.2829,115.29 Q329.6579,114.7119 329.0641,114.4462 Q328.4704,114.165 327.8454,114.165 Q326.5016,114.165 325.8141,115.2431 Q325.1266,116.3056 325.1266,118.3994 Q325.1266,120.4931 325.8141,121.5712 Q326.5016,122.6337 327.8454,122.6337 Q328.4704,122.6337 329.0641,122.3681 Q329.6579,122.0869 330.2829,121.5087 L330.2829,124.2275 Z " fill="#000000"/><text fill="#000000" font-family="sans-serif" font-size="14" lengthAdjust="spacing" textLength="66.7188" x="343.9728" y="123.4336">XyzStarts</text><line style="stroke:#181818;stroke-width:0.5;" x1="301.35" x2="424.6557" y1="134.5869" y2="134.5869"/><text fill="#000000" font-family="sans-serif" font-size="14" lengthAdjust="spacing" textLength="113.3057" x="306.35" y="151.582">float x_start_um</text><text fill="#000000" font-family="sans-serif" font-size="14" lengthAdjust="spacing" textLength="113.3057" x="306.35" y="167.8789">float y_start_um</text><text fill="#000000" font-family="sans-serif" font-size="14" lengthAdjust="spacing" textLength="112.3691" x="306.35" y="184.1757">float z_start_um</text><line style="stroke:#181818;stroke-width:0.5;" x1="301.35" x2="424.6557" y1="191.4775" y2="191.4775"/></g><!--class WithVisit--><g id="elem_WithVisit"><rect codeLine="18" fill="#F1F1F1" height="129.4844" id="WithVisit" rx="2.5" ry="2.5" style="stroke:#181818;stroke-width:0.5;" width="271.7861" x="1726.11" y="86.2969"/><ellipse cx="1826.6359" cy="102.2969" fill="#ADD1B2" rx="11" ry="11" style="stroke:#181818;stroke-width:1;"/><path d="M1829.6046,107.9375 Q1829.0265,108.2344 1828.3859,108.375 Q1827.7453,108.5313 1827.0421,108.5313 Q1824.5421,108.5313 1823.214,106.8906 Q1821.9015,105.2344 1821.9015,102.1094 Q1821.9015,98.9844 1823.214,97.3281 Q1824.5421,95.6719 1827.0421,95.6719 Q1827.7453,95.6719 1828.3859,95.8281 Q1829.0421,95.9844 1829.6046,96.2813 L1829.6046,99 Q1828.9796,98.4219 1828.3859,98.1563 Q1827.7921,97.875 1827.1671,97.875 Q1825.8234,97.875 1825.1359,98.9531 Q1824.4484,100.0156 1824.4484,102.1094 Q1824.4484,104.2031 1825.1359,105.2813 Q1825.8234,106.3438 1827.1671,106.3438 Q1827.7921,106.3438 1828.3859,106.0781 Q1828.9796,105.7969 1829.6046,105.2188 L1829.6046,107.9375 Z " fill="#000000"/><text fill="#000000" font-family="sans-serif" font-size="14" lengthAdjust="spacing" textLength="62.2344" x="1847.1359" y="107.1436">WithVisit</text><line style="stroke:#181818;stroke-width:0.5;" x1="1727.11" x2="1996.8961" y1="118.2969" y2="118.2969"/><text fill="#000000" font-family="sans-serif" font-size="14" lengthAdjust="spacing" textLength="87.9717" x="1732.11" y="135.292">str beamline</text><text fill="#000000" font-family="sans-serif" font-size="14" lengthAdjust="spacing" textLength="51.8369" x="1732.11" y="151.5889">str visit</text><text fill="#000000" font-family="sans-serif" font-size="14" lengthAdjust="spacing" textLength="259.7861" x="1732.11" y="167.8857">str det_dist_to_beam_converter_path</text><text fill="#000000" font-family="sans-serif" font-size="14" lengthAdjust="spacing" textLength="131.5918" x="1732.11" y="184.1826">str insertion_prefix</text><text fill="#000000" font-family="sans-serif" font-size="14" lengthAdjust="spacing" textLength="245.752" x="1732.11" y="200.4795">float | None detector_distance_mm</text><line style="stroke:#181818;stroke-width:0.5;" x1="1727.11" x2="1996.8961" y1="207.7813" y2="207.7813"/></g><!--class WithCentreSelection--><g id="elem_WithCentreSelection"><rect codeLine="25" fill="#F1F1F1" height="64.2969" id="WithCentreSelection" rx="2.5" ry="2.5" style="stroke:#181818;stroke-width:0.5;" width="306.7861" x="2032.61" y="118.8869"/><ellipse cx="2109.8869" cy="134.8869" fill="#ADD1B2" rx="11" ry="11" style="stroke:#181818;stroke-width:1;"/><path d="M2112.8556,140.5275 Q2112.2775,140.8244 2111.6369,140.965 Q2110.9962,141.1213 2110.2931,141.1213 Q2107.7931,141.1213 2106.465,139.4806 Q2105.1525,137.8244 2105.1525,134.6994 Q2105.1525,131.5744 2106.465,129.9181 Q2107.7931,128.2619 2110.2931,128.2619 Q2110.9962,128.2619 2111.6369,128.4181 Q2112.2931,128.5744 2112.8556,128.8713 L2112.8556,131.59 Q2112.2306,131.0119 2111.6369,130.7463 Q2111.0431,130.465 2110.4181,130.465 Q2109.0744,130.465 2108.3869,131.5431 Q2107.6994,132.6056 2107.6994,134.6994 Q2107.6994,136.7931 2108.3869,137.8713 Q2109.0744,138.9338 2110.4181,138.9338 Q2111.0431,138.9338 2111.6369,138.6681 Q2112.2306,138.3869 2112.8556,137.8088 L2112.8556,140.5275 Z " fill="#000000"/><text fill="#000000" font-family="sans-serif" font-size="14" lengthAdjust="spacing" textLength="143.7324" x="2130.3869" y="139.7336">WithCentreSelection</text><line style="stroke:#181818;stroke-width:0.5;" x1="2033.61" x2="2338.3961" y1="150.8869" y2="150.8869"/><text fill="#000000" font-family="sans-serif" font-size="14" lengthAdjust="spacing" textLength="294.7861" x="2038.61" y="167.882">TopNByMaxCountSelection select_centres</text><line style="stroke:#181818;stroke-width:0.5;" x1="2033.61" x2="2338.3961" y1="175.1838" y2="175.1838"/></g><!--class WithPandaGridScan--><g id="elem_WithPandaGridScan"><rect codeLine="28" fill="#F1F1F1" height="64.2969" id="WithPandaGridScan" rx="2.5" ry="2.5" style="stroke:#181818;stroke-width:0.5;" width="240.5664" x="2374.72" y="118.8869"/><ellipse cx="2421.3172" cy="134.8869" fill="#ADD1B2" rx="11" ry="11" style="stroke:#181818;stroke-width:1;"/><path d="M2424.2859,140.5275 Q2423.7078,140.8244 2423.0672,140.965 Q2422.4265,141.1213 2421.7234,141.1213 Q2419.2234,141.1213 2417.8953,139.4806 Q2416.5828,137.8244 2416.5828,134.6994 Q2416.5828,131.5744 2417.8953,129.9181 Q2419.2234,128.2619 2421.7234,128.2619 Q2422.4265,128.2619 2423.0672,128.4181 Q2423.7234,128.5744 2424.2859,128.8713 L2424.2859,131.59 Q2423.6609,131.0119 2423.0672,130.7463 Q2422.4734,130.465 2421.8484,130.465 Q2420.5047,130.465 2419.8172,131.5431 Q2419.1297,132.6056 2419.1297,134.6994 Q2419.1297,136.7931 2419.8172,137.8713 Q2420.5047,138.9338 2421.8484,138.9338 Q2422.4734,138.9338 2423.0672,138.6681 Q2423.6609,138.3869 2424.2859,137.8088 L2424.2859,140.5275 Z " fill="#000000"/><text fill="#000000" font-family="sans-serif" font-size="14" lengthAdjust="spacing" textLength="138.8721" x="2441.8172" y="139.7336">WithPandaGridScan</text><line style="stroke:#181818;stroke-width:0.5;" x1="2375.72" x2="2614.2864" y1="150.8869" y2="150.8869"/><text fill="#000000" font-family="sans-serif" font-size="14" lengthAdjust="spacing" textLength="228.5664" x="2380.72" y="167.882">float panda_runup_distance_mm</text><line style="stroke:#181818;stroke-width:0.5;" x1="2375.72" x2="2614.2864" y1="175.1838" y2="175.1838"/></g><!--class WithSnapshot--><g id="elem_WithSnapshot"><rect codeLine="31" fill="#F1F1F1" height="80.5938" id="WithSnapshot" rx="2.5" ry="2.5" style="stroke:#181818;stroke-width:0.5;" width="289.3477" x="1058.33" y="110.7369"/><ellipse cx="1149.9828" cy="126.7369" fill="#ADD1B2" rx="11" ry="11" style="stroke:#181818;stroke-width:1;"/><path d="M1152.9516,132.3775 Q1152.3735,132.6744 1151.7328,132.815 Q1151.0922,132.9713 1150.3891,132.9713 Q1147.8891,132.9713 1146.561,131.3306 Q1145.2485,129.6744 1145.2485,126.5494 Q1145.2485,123.4244 1146.561,121.7681 Q1147.8891,120.1119 1150.3891,120.1119 Q1151.0922,120.1119 1151.7328,120.2681 Q1152.3891,120.4244 1152.9516,120.7213 L1152.9516,123.44 Q1152.3266,122.8619 1151.7328,122.5963 Q1151.1391,122.315 1150.5141,122.315 Q1149.1703,122.315 1148.4828,123.3931 Q1147.7953,124.4556 1147.7953,126.5494 Q1147.7953,128.6431 1148.4828,129.7213 Q1149.1703,130.7838 1150.5141,130.7838 Q1151.1391,130.7838 1151.7328,130.5181 Q1152.3266,130.2369 1152.9516,129.6588 L1152.9516,132.3775 Z " fill="#000000"/><text fill="#000000" font-family="sans-serif" font-size="14" lengthAdjust="spacing" textLength="97.542" x="1170.4828" y="131.5836">WithSnapshot</text><line style="stroke:#181818;stroke-width:0.5;" x1="1059.33" x2="1346.6777" y1="142.7369" y2="142.7369"/><text fill="#000000" font-family="sans-serif" font-size="14" lengthAdjust="spacing" textLength="169.627" x="1064.33" y="159.732">Path snapshot_directory</text><text fill="#000000" font-family="sans-serif" font-size="14" lengthAdjust="spacing" textLength="277.3477" x="1064.33" y="176.0289">list[float] | None snapshot_omegas_deg</text><line style="stroke:#181818;stroke-width:0.5;" x1="1059.33" x2="1346.6777" y1="183.3306" y2="183.3306"/></g><!--class WithSample--><g id="elem_WithSample"><rect codeLine="35" fill="#F1F1F1" height="96.8906" id="WithSample" rx="2.5" ry="2.5" style="stroke:#181818;stroke-width:0.5;" width="176.3086" x="714.85" y="102.5869"/><ellipse cx="756.7243" cy="118.5869" fill="#ADD1B2" rx="11" ry="11" style="stroke:#181818;stroke-width:1;"/><path d="M759.6931,124.2275 Q759.1149,124.5244 758.4743,124.665 Q757.8337,124.8212 757.1306,124.8212 Q754.6306,124.8212 753.3024,123.1806 Q751.9899,121.5244 751.9899,118.3994 Q751.9899,115.2744 753.3024,113.6181 Q754.6306,111.9619 757.1306,111.9619 Q757.8337,111.9619 758.4743,112.1181 Q759.1306,112.2744 759.6931,112.5712 L759.6931,115.29 Q759.0681,114.7119 758.4743,114.4462 Q757.8806,114.165 757.2556,114.165 Q755.9118,114.165 755.2243,115.2431 Q754.5368,116.3056 754.5368,118.3994 Q754.5368,120.4931 755.2243,121.5712 Q755.9118,122.6337 757.2556,122.6337 Q757.8806,122.6337 758.4743,122.3681 Q759.0681,122.0869 759.6931,121.5087 L759.6931,124.2275 Z " fill="#000000"/><text fill="#000000" font-family="sans-serif" font-size="14" lengthAdjust="spacing" textLength="84.5879" x="776.6964" y="123.4336">WithSample</text><line style="stroke:#181818;stroke-width:0.5;" x1="715.85" x2="890.1586" y1="134.5869" y2="134.5869"/><text fill="#000000" font-family="sans-serif" font-size="14" lengthAdjust="spacing" textLength="93.3789" x="720.85" y="151.582">int sample_id</text><text fill="#000000" font-family="sans-serif" font-size="14" lengthAdjust="spacing" textLength="164.3086" x="720.85" y="167.8789">int | None sample_puck</text><text fill="#000000" font-family="sans-serif" font-size="14" lengthAdjust="spacing" textLength="152.3936" x="720.85" y="184.1757">int | None sample_pin</text><line style="stroke:#181818;stroke-width:0.5;" x1="715.85" x2="890.1586" y1="191.4775" y2="191.4775"/></g><!--class OptionalGonioAngleStarts--><g id="elem_OptionalGonioAngleStarts"><rect codeLine="40" fill="#F1F1F1" height="113.1875" id="OptionalGonioAngleStarts" rx="2.5" ry="2.5" style="stroke:#181818;stroke-width:0.5;" width="219.3203" x="460.34" y="94.4469"/><ellipse cx="478.0633" cy="110.4469" fill="#ADD1B2" rx="11" ry="11" style="stroke:#181818;stroke-width:1;"/><path d="M481.032,116.0875 Q480.4539,116.3844 479.8133,116.525 Q479.1727,116.6813 478.4695,116.6813 Q475.9695,116.6813 474.6414,115.0406 Q473.3289,113.3844 473.3289,110.2594 Q473.3289,107.1344 474.6414,105.4781 Q475.9695,103.8219 478.4695,103.8219 Q479.1727,103.8219 479.8133,103.9781 Q480.4695,104.1344 481.032,104.4313 L481.032,107.15 Q480.407,106.5719 479.8133,106.3063 Q479.2195,106.025 478.5945,106.025 Q477.2508,106.025 476.5633,107.1031 Q475.8758,108.1656 475.8758,110.2594 Q475.8758,112.3531 476.5633,113.4313 Q477.2508,114.4938 478.5945,114.4938 Q479.2195,114.4938 479.8133,114.2281 Q480.407,113.9469 481.032,113.3688 L481.032,116.0875 Z " fill="#000000"/><text fill="#000000" font-family="sans-serif" font-size="14" lengthAdjust="spacing" textLength="181.2686" x="492.6685" y="115.2936">OptionalGonioAngleStarts</text><line style="stroke:#181818;stroke-width:0.5;" x1="461.34" x2="678.6603" y1="126.4469" y2="126.4469"/><text fill="#000000" font-family="sans-serif" font-size="14" lengthAdjust="spacing" textLength="207.3203" x="466.34" y="143.442">float | None omega_start_deg</text><text fill="#000000" font-family="sans-serif" font-size="14" lengthAdjust="spacing" textLength="180.6875" x="466.34" y="159.7389">float | None phi_start_deg</text><text fill="#000000" font-family="sans-serif" font-size="14" lengthAdjust="spacing" textLength="179.498" x="466.34" y="176.0357">float | None chi_start_deg</text><text fill="#000000" font-family="sans-serif" font-size="14" lengthAdjust="spacing" textLength="202.0771" x="466.34" y="192.3326">float | None kappa_start_deg</text><line style="stroke:#181818;stroke-width:0.5;" x1="461.34" x2="678.6603" y1="199.6344" y2="199.6344"/></g><!--class SplitScan--><g id="elem_SplitScan"><rect codeLine="46" fill="#F1F1F1" height="48" id="SplitScan" rx="2.5" ry="2.5" style="stroke:#181818;stroke-width:0.5;" width="97.0781" x="926.46" y="127.0369"/><ellipse cx="941.46" cy="143.0369" fill="#ADD1B2" rx="11" ry="11" style="stroke:#181818;stroke-width:1;"/><path d="M944.4288,148.6775 Q943.8506,148.9744 943.21,149.115 Q942.5694,149.2713 941.8663,149.2713 Q939.3663,149.2713 938.0381,147.6306 Q936.7256,145.9744 936.7256,142.8494 Q936.7256,139.7244 938.0381,138.0681 Q939.3663,136.4119 941.8663,136.4119 Q942.5694,136.4119 943.21,136.5681 Q943.8663,136.7244 944.4288,137.0213 L944.4288,139.74 Q943.8038,139.1619 943.21,138.8963 Q942.6163,138.615 941.9913,138.615 Q940.6475,138.615 939.96,139.6931 Q939.2725,140.7556 939.2725,142.8494 Q939.2725,144.9431 939.96,146.0213 Q940.6475,147.0838 941.9913,147.0838 Q942.6163,147.0838 943.21,146.8181 Q943.8038,146.5369 944.4288,145.9588 L944.4288,148.6775 Z " fill="#000000"/><text fill="#000000" font-family="sans-serif" font-size="14" lengthAdjust="spacing" textLength="65.0781" x="955.46" y="147.8836">SplitScan</text><line style="stroke:#181818;stroke-width:0.5;" x1="927.46" x2="1022.5381" y1="159.0369" y2="159.0369"/><line style="stroke:#181818;stroke-width:0.5;" x1="927.46" x2="1022.5381" y1="167.0369" y2="167.0369"/></g><!--class SpecifiedGrid--><g id="elem_SpecifiedGrid"><rect codeLine="48" fill="#F1F1F1" height="48" id="SpecifiedGrid" rx="2.5" ry="2.5" style="stroke:#181818;stroke-width:0.5;" width="125.6729" x="1579.16" y="349.1169"/><ellipse cx="1594.16" cy="365.1169" fill="#ADD1B2" rx="11" ry="11" style="stroke:#181818;stroke-width:1;"/><path d="M1597.1288,370.7575 Q1596.5506,371.0544 1595.91,371.195 Q1595.2694,371.3513 1594.5663,371.3513 Q1592.0663,371.3513 1590.7381,369.7106 Q1589.4256,368.0544 1589.4256,364.9294 Q1589.4256,361.8044 1590.7381,360.1481 Q1592.0663,358.4919 1594.5663,358.4919 Q1595.2694,358.4919 1595.91,358.6481 Q1596.5663,358.8044 1597.1288,359.1013 L1597.1288,361.82 Q1596.5038,361.2419 1595.91,360.9763 Q1595.3163,360.695 1594.6913,360.695 Q1593.3475,360.695 1592.66,361.7731 Q1591.9725,362.8356 1591.9725,364.9294 Q1591.9725,367.0231 1592.66,368.1013 Q1593.3475,369.1638 1594.6913,369.1638 Q1595.3163,369.1638 1595.91,368.8981 Q1596.5038,368.6169 1597.1288,368.0388 L1597.1288,370.7575 Z " fill="#000000"/><text fill="#000000" font-family="sans-serif" font-size="14" lengthAdjust="spacing" textLength="93.6729" x="1608.16" y="369.9636">SpecifiedGrid</text><line style="stroke:#181818;stroke-width:0.5;" x1="1580.16" x2="1703.8329" y1="381.1169" y2="381.1169"/><line style="stroke:#181818;stroke-width:0.5;" x1="1580.16" x2="1703.8329" y1="389.1169" y2="389.1169"/></g><!--class WithOptionalEnergyChange--><g id="elem_WithOptionalEnergyChange"><rect codeLine="50" fill="#F1F1F1" height="64.2969" id="WithOptionalEnergyChange" rx="2.5" ry="2.5" style="stroke:#181818;stroke-width:0.5;" width="235.4463" x="30.28" y="118.8869"/><ellipse cx="49.4645" cy="134.8869" fill="#ADD1B2" rx="11" ry="11" style="stroke:#181818;stroke-width:1;"/><path d="M52.4332,140.5275 Q51.8551,140.8244 51.2145,140.965 Q50.5738,141.1213 49.8707,141.1213 Q47.3707,141.1213 46.0426,139.4806 Q44.7301,137.8244 44.7301,134.6994 Q44.7301,131.5744 46.0426,129.9181 Q47.3707,128.2619 49.8707,128.2619 Q50.5738,128.2619 51.2145,128.4181 Q51.8707,128.5744 52.4332,128.8713 L52.4332,131.59 Q51.8082,131.0119 51.2145,130.7463 Q50.6207,130.465 49.9957,130.465 Q48.652,130.465 47.9645,131.5431 Q47.277,132.6056 47.277,134.6994 Q47.277,136.7931 47.9645,137.8713 Q48.652,138.9338 49.9957,138.9338 Q50.6207,138.9338 51.2145,138.6681 Q51.8082,138.3869 52.4332,137.8088 L52.4332,140.5275 Z " fill="#000000"/><text fill="#000000" font-family="sans-serif" font-size="14" lengthAdjust="spacing" textLength="194.1475" x="64.3944" y="139.7336">WithOptionalEnergyChange</text><line style="stroke:#181818;stroke-width:0.5;" x1="31.28" x2="264.7263" y1="150.8869" y2="150.8869"/><text fill="#000000" font-family="sans-serif" font-size="14" lengthAdjust="spacing" textLength="223.4463" x="36.28" y="167.882">float | None demand_energy_ev</text><line style="stroke:#181818;stroke-width:0.5;" x1="31.28" x2="264.7263" y1="175.1838" y2="175.1838"/></g><!--class WithScan--><g id="elem_WithScan"><rect codeLine="53" fill="#F1F1F1" height="48" id="WithScan" rx="2.5" ry="2.5" style="stroke:#181818;stroke-width:0.5;" width="98.1309" x="1592.93" y="127.0369"/><ellipse cx="1607.93" cy="143.0369" fill="#ADD1B2" rx="11" ry="11" style="stroke:#181818;stroke-width:1;"/><path d="M1610.8988,148.6775 Q1610.3206,148.9744 1609.68,149.115 Q1609.0394,149.2713 1608.3363,149.2713 Q1605.8363,149.2713 1604.5081,147.6306 Q1603.1956,145.9744 1603.1956,142.8494 Q1603.1956,139.7244 1604.5081,138.0681 Q1605.8363,136.4119 1608.3363,136.4119 Q1609.0394,136.4119 1609.68,136.5681 Q1610.3363,136.7244 1610.8988,137.0213 L1610.8988,139.74 Q1610.2738,139.1619 1609.68,138.8963 Q1609.0863,138.615 1608.4613,138.615 Q1607.1175,138.615 1606.43,139.6931 Q1605.7425,140.7556 1605.7425,142.8494 Q1605.7425,144.9431 1606.43,146.0213 Q1607.1175,147.0838 1608.4613,147.0838 Q1609.0863,147.0838 1609.68,146.8181 Q1610.2738,146.5369 1610.8988,145.9588 L1610.8988,148.6775 Z " fill="#000000"/><text fill="#000000" font-family="sans-serif" font-size="14" lengthAdjust="spacing" textLength="66.1309" x="1621.93" y="147.8836">WithScan</text><line style="stroke:#181818;stroke-width:0.5;" x1="1593.93" x2="1690.0609" y1="159.0369" y2="159.0369"/><line style="stroke:#181818;stroke-width:0.5;" x1="1593.93" x2="1690.0609" y1="167.0369" y2="167.0369"/></g><!--class DiffractionExperiment--><g id="elem_DiffractionExperiment"><rect codeLine="57" fill="#F1F1F1" height="194.6719" id="DiffractionExperiment" rx="2.5" ry="2.5" style="stroke:#181818;stroke-width:0.5;" width="332.332" x="2638.83" y="275.7769"/><ellipse cx="2723.6127" cy="291.7769" fill="#ADD1B2" rx="11" ry="11" style="stroke:#181818;stroke-width:1;"/><path d="M2726.5815,297.4175 Q2726.0033,297.7144 2725.3627,297.855 Q2724.7221,298.0113 2724.019,298.0113 Q2721.519,298.0113 2720.1908,296.3706 Q2718.8783,294.7144 2718.8783,291.5894 Q2718.8783,288.4644 2720.1908,286.8081 Q2721.519,285.1519 2724.019,285.1519 Q2724.7221,285.1519 2725.3627,285.3081 Q2726.019,285.4644 2726.5815,285.7613 L2726.5815,288.48 Q2725.9565,287.9019 2725.3627,287.6363 Q2724.769,287.355 2724.144,287.355 Q2722.8002,287.355 2722.1127,288.4331 Q2721.4252,289.4956 2721.4252,291.5894 Q2721.4252,293.6831 2722.1127,294.7613 Q2722.8002,295.8238 2724.144,295.8238 Q2724.769,295.8238 2725.3627,295.5581 Q2725.9565,295.2769 2726.5815,294.6988 L2726.5815,297.4175 Z " fill="#000000"/><text fill="#000000" font-family="sans-serif" font-size="14" lengthAdjust="spacing" textLength="154.2666" x="2744.1127" y="296.6236">DiffractionExperiment</text><line style="stroke:#181818;stroke-width:0.5;" x1="2639.83" x2="2970.162" y1="307.7769" y2="307.7769"/><text fill="#000000" font-family="sans-serif" font-size="14" lengthAdjust="spacing" textLength="91.0137" x="2644.83" y="324.772">str file_name</text><text fill="#000000" font-family="sans-serif" font-size="14" lengthAdjust="spacing" textLength="153.7129" x="2644.83" y="341.0689">float exposure_time_s</text><text fill="#000000" font-family="sans-serif" font-size="14" lengthAdjust="spacing" textLength="89.5029" x="2644.83" y="357.3657">str comment</text><text fill="#000000" font-family="sans-serif" font-size="14" lengthAdjust="spacing" textLength="186.915" x="2644.83" y="373.6626">TriggerMode trigger_mode</text><text fill="#000000" font-family="sans-serif" font-size="14" lengthAdjust="spacing" textLength="157.9854" x="2644.83" y="389.9595">int | None run_number</text><text fill="#000000" font-family="sans-serif" font-size="14" lengthAdjust="spacing" textLength="282.3516" x="2644.83" y="406.2564">ApertureValue | None selected_aperture</text><text fill="#000000" font-family="sans-serif" font-size="14" lengthAdjust="spacing" textLength="159.2979" x="2644.83" y="422.5532">float transmission_frac</text><text fill="#000000" font-family="sans-serif" font-size="14" lengthAdjust="spacing" textLength="320.332" x="2644.83" y="438.8501">IspybExperimentType ispyb_experiment_type</text><text fill="#000000" font-family="sans-serif" font-size="14" lengthAdjust="spacing" textLength="146.1113" x="2644.83" y="455.147">str storage_directory</text><line style="stroke:#181818;stroke-width:0.5;" x1="2639.83" x2="2970.162" y1="462.4488" y2="462.4488"/></g><!--class PinTipCentreThenXrayCentre--><g id="elem_PinTipCentreThenXrayCentre"><rect codeLine="68" fill="#F1F1F1" height="64.2969" id="PinTipCentreThenXrayCentre" rx="2.5" ry="2.5" style="stroke:#181818;stroke-width:0.5;" width="235.8955" x="3070.05" y="909.4169"/><ellipse cx="3085.05" cy="925.4169" fill="#ADD1B2" rx="11" ry="11" style="stroke:#181818;stroke-width:1;"/><path d="M3088.0188,931.0575 Q3087.4406,931.3544 3086.8,931.495 Q3086.1594,931.6513 3085.4563,931.6513 Q3082.9563,931.6513 3081.6281,930.0106 Q3080.3156,928.3544 3080.3156,925.2294 Q3080.3156,922.1044 3081.6281,920.4481 Q3082.9563,918.7919 3085.4563,918.7919 Q3086.1594,918.7919 3086.8,918.9481 Q3087.4563,919.1044 3088.0188,919.4013 L3088.0188,922.12 Q3087.3938,921.5419 3086.8,921.2763 Q3086.2063,920.995 3085.5813,920.995 Q3084.2375,920.995 3083.55,922.0731 Q3082.8625,923.1356 3082.8625,925.2294 Q3082.8625,927.3231 3083.55,928.4013 Q3084.2375,929.4638 3085.5813,929.4638 Q3086.2063,929.4638 3086.8,929.1981 Q3087.3938,928.9169 3088.0188,928.3388 L3088.0188,931.0575 Z " fill="#000000"/><text fill="#000000" font-family="sans-serif" font-size="14" lengthAdjust="spacing" textLength="203.8955" x="3099.05" y="930.2636">PinTipCentreThenXrayCentre</text><line style="stroke:#181818;stroke-width:0.5;" x1="3071.05" x2="3304.9455" y1="941.4169" y2="941.4169"/><text fill="#000000" font-family="sans-serif" font-size="14" lengthAdjust="spacing" textLength="130.498" x="3076.05" y="958.412">float tip_offset_um</text><line style="stroke:#181818;stroke-width:0.5;" x1="3071.05" x2="3304.9455" y1="965.7138" y2="965.7138"/></g><!--class DiffractionExperimentWithSample--><g id="elem_DiffractionExperimentWithSample"><rect codeLine="71" fill="#F1F1F1" height="48" id="DiffractionExperimentWithSample" rx="2.5" ry="2.5" style="stroke:#181818;stroke-width:0.5;" width="270.8545" x="2703.57" y="530.4469"/><ellipse cx="2718.57" cy="546.4469" fill="#ADD1B2" rx="11" ry="11" style="stroke:#181818;stroke-width:1;"/><path d="M2721.5388,552.0875 Q2720.9606,552.3844 2720.32,552.525 Q2719.6794,552.6813 2718.9763,552.6813 Q2716.4763,552.6813 2715.1481,551.0406 Q2713.8356,549.3844 2713.8356,546.2594 Q2713.8356,543.1344 2715.1481,541.4781 Q2716.4763,539.8219 2718.9763,539.8219 Q2719.6794,539.8219 2720.32,539.9781 Q2720.9763,540.1344 2721.5388,540.4313 L2721.5388,543.15 Q2720.9138,542.5719 2720.32,542.3063 Q2719.7263,542.025 2719.1013,542.025 Q2717.7575,542.025 2717.07,543.1031 Q2716.3825,544.1656 2716.3825,546.2594 Q2716.3825,548.3531 2717.07,549.4313 Q2717.7575,550.4938 2719.1013,550.4938 Q2719.7263,550.4938 2720.32,550.2281 Q2720.9138,549.9469 2721.5388,549.3688 L2721.5388,552.0875 Z " fill="#000000"/><text fill="#000000" font-family="sans-serif" font-size="14" lengthAdjust="spacing" textLength="238.8545" x="2732.57" y="551.2936">DiffractionExperimentWithSample</text><line style="stroke:#181818;stroke-width:0.5;" x1="2704.57" x2="2973.4245" y1="562.4469" y2="562.4469"/><line style="stroke:#181818;stroke-width:0.5;" x1="2704.57" x2="2973.4245" y1="570.4469" y2="570.4469"/></g><!--class GridScanWithEdgeDetect--><g id="elem_GridScanWithEdgeDetect"><rect codeLine="73" fill="#F1F1F1" height="64.2969" id="GridScanWithEdgeDetect" rx="2.5" ry="2.5" style="stroke:#181818;stroke-width:0.5;" width="209.4268" x="3341.29" y="909.4169"/><ellipse cx="3356.29" cy="925.4169" fill="#ADD1B2" rx="11" ry="11" style="stroke:#181818;stroke-width:1;"/><path d="M3359.2588,931.0575 Q3358.6806,931.3544 3358.04,931.495 Q3357.3994,931.6513 3356.6963,931.6513 Q3354.1963,931.6513 3352.8681,930.0106 Q3351.5556,928.3544 3351.5556,925.2294 Q3351.5556,922.1044 3352.8681,920.4481 Q3354.1963,918.7919 3356.6963,918.7919 Q3357.3994,918.7919 3358.04,918.9481 Q3358.6963,919.1044 3359.2588,919.4013 L3359.2588,922.12 Q3358.6338,921.5419 3358.04,921.2763 Q3357.4463,920.995 3356.8213,920.995 Q3355.4775,920.995 3354.79,922.0731 Q3354.1025,923.1356 3354.1025,925.2294 Q3354.1025,927.3231 3354.79,928.4013 Q3355.4775,929.4638 3356.8213,929.4638 Q3357.4463,929.4638 3358.04,929.1981 Q3358.6338,928.9169 3359.2588,928.3388 L3359.2588,931.0575 Z " fill="#000000"/><text fill="#000000" font-family="sans-serif" font-size="14" lengthAdjust="spacing" textLength="177.4268" x="3370.29" y="930.2636">GridScanWithEdgeDetect</text><line style="stroke:#181818;stroke-width:0.5;" x1="3342.29" x2="3549.7168" y1="941.4169" y2="941.4169"/><text fill="#000000" font-family="sans-serif" font-size="14" lengthAdjust="spacing" textLength="125.2959" x="3347.29" y="958.412">float box_size_um</text><line style="stroke:#181818;stroke-width:0.5;" x1="3342.29" x2="3549.7168" y1="965.7138" y2="965.7138"/></g><!--class GridCommon--><g id="elem_GridCommon"><rect codeLine="76" fill="#F1F1F1" height="129.4844" id="GridCommon" rx="2.5" ry="2.5" style="stroke:#181818;stroke-width:0.5;" width="332.332" x="2740.83" y="638.4469"/><ellipse cx="2856.5282" cy="654.4469" fill="#ADD1B2" rx="11" ry="11" style="stroke:#181818;stroke-width:1;"/><path d="M2859.497,660.0875 Q2858.9189,660.3844 2858.2782,660.525 Q2857.6376,660.6813 2856.9345,660.6813 Q2854.4345,660.6813 2853.1064,659.0406 Q2851.7939,657.3844 2851.7939,654.2594 Q2851.7939,651.1344 2853.1064,649.4781 Q2854.4345,647.8219 2856.9345,647.8219 Q2857.6376,647.8219 2858.2782,647.9781 Q2858.9345,648.1344 2859.497,648.4313 L2859.497,651.15 Q2858.872,650.5719 2858.2782,650.3063 Q2857.6845,650.025 2857.0595,650.025 Q2855.7157,650.025 2855.0282,651.1031 Q2854.3407,652.1656 2854.3407,654.2594 Q2854.3407,656.3531 2855.0282,657.4313 Q2855.7157,658.4938 2857.0595,658.4938 Q2857.6845,658.4938 2858.2782,658.2281 Q2858.872,657.9469 2859.497,657.3688 L2859.497,660.0875 Z " fill="#000000"/><text fill="#000000" font-family="sans-serif" font-size="14" lengthAdjust="spacing" textLength="92.4355" x="2877.0282" y="659.2936">GridCommon</text><line style="stroke:#181818;stroke-width:0.5;" x1="2741.83" x2="3072.162" y1="670.4469" y2="670.4469"/><text fill="#000000" font-family="sans-serif" font-size="14" lengthAdjust="spacing" textLength="138.4209" x="2746.83" y="687.442">float grid_width_um</text><text fill="#000000" font-family="sans-serif" font-size="14" lengthAdjust="spacing" textLength="153.7129" x="2746.83" y="703.7389">float exposure_time_s</text><text fill="#000000" font-family="sans-serif" font-size="14" lengthAdjust="spacing" textLength="131.0518" x="2746.83" y="720.0357">bool use_roi_mode</text><text fill="#000000" font-family="sans-serif" font-size="14" lengthAdjust="spacing" textLength="320.332" x="2746.83" y="736.3326">IspybExperimentType ispyb_experiment_type</text><text fill="#000000" font-family="sans-serif" font-size="14" lengthAdjust="spacing" textLength="282.3516" x="2746.83" y="752.6295">ApertureValue | None selected_aperture</text><line style="stroke:#181818;stroke-width:0.5;" x1="2741.83" x2="3072.162" y1="759.9313" y2="759.9313"/></g><!--class MxBlueskyParameters--><g id="elem_MxBlueskyParameters"><rect codeLine="83" fill="#F1F1F1" height="64.2969" id="MxBlueskyParameters" rx="2.5" ry="2.5" style="stroke:#181818;stroke-width:0.5;" width="317.4639" x="2941.27" y="118.8869"/><ellipse cx="3017.8564" cy="134.8869" fill="#ADD1B2" rx="11" ry="11" style="stroke:#181818;stroke-width:1;"/><path d="M3020.8252,140.5275 Q3020.2471,140.8244 3019.6064,140.965 Q3018.9658,141.1213 3018.2627,141.1213 Q3015.7627,141.1213 3014.4346,139.4806 Q3013.1221,137.8244 3013.1221,134.6994 Q3013.1221,131.5744 3014.4346,129.9181 Q3015.7627,128.2619 3018.2627,128.2619 Q3018.9658,128.2619 3019.6064,128.4181 Q3020.2627,128.5744 3020.8252,128.8713 L3020.8252,131.59 Q3020.2002,131.0119 3019.6064,130.7463 Q3019.0127,130.465 3018.3877,130.465 Q3017.0439,130.465 3016.3564,131.5431 Q3015.6689,132.6056 3015.6689,134.6994 Q3015.6689,136.7931 3016.3564,137.8713 Q3017.0439,138.9338 3018.3877,138.9338 Q3019.0127,138.9338 3019.6064,138.6681 Q3020.2002,138.3869 3020.8252,137.8088 L3020.8252,140.5275 Z " fill="#000000"/><text fill="#000000" font-family="sans-serif" font-size="14" lengthAdjust="spacing" textLength="155.791" x="3038.3564" y="139.7336">MxBlueskyParameters</text><line style="stroke:#181818;stroke-width:0.5;" x1="2942.27" x2="3257.7339" y1="150.8869" y2="150.8869"/><text fill="#000000" font-family="sans-serif" font-size="14" lengthAdjust="spacing" textLength="305.4639" x="2947.27" y="167.882">SemanticVersion parameter_model_version</text><line style="stroke:#181818;stroke-width:0.5;" x1="2942.27" x2="3257.7339" y1="175.1838" y2="175.1838"/></g><!--class ThreeDGridScan--><g id="elem_ThreeDGridScan"><rect codeLine="86" fill="#F1F1F1" height="227.2656" id="ThreeDGridScan" rx="2.5" ry="2.5" style="stroke:#181818;stroke-width:0.5;" width="172.8975" x="2638.55" y="827.9369"/><ellipse cx="2665.3818" cy="843.9369" fill="#ADD1B2" rx="11" ry="11" style="stroke:#181818;stroke-width:1;"/><path d="M2668.3506,849.5775 Q2667.7725,849.8744 2667.1318,850.015 Q2666.4912,850.1713 2665.7881,850.1713 Q2663.2881,850.1713 2661.96,848.5306 Q2660.6475,846.8744 2660.6475,843.7494 Q2660.6475,840.6244 2661.96,838.9681 Q2663.2881,837.3119 2665.7881,837.3119 Q2666.4912,837.3119 2667.1318,837.4681 Q2667.7881,837.6244 2668.3506,837.9213 L2668.3506,840.64 Q2667.7256,840.0619 2667.1318,839.7963 Q2666.5381,839.515 2665.9131,839.515 Q2664.5693,839.515 2663.8818,840.5931 Q2663.1943,841.6556 2663.1943,843.7494 Q2663.1943,845.8431 2663.8818,846.9213 Q2664.5693,847.9838 2665.9131,847.9838 Q2666.5381,847.9838 2667.1318,847.7181 Q2667.7256,847.4369 2668.3506,846.8588 L2668.3506,849.5775 Z " fill="#000000"/><text fill="#000000" font-family="sans-serif" font-size="14" lengthAdjust="spacing" textLength="114.6045" x="2682.0111" y="848.7836">ThreeDGridScan</text><line style="stroke:#181818;stroke-width:0.5;" x1="2639.55" x2="2810.4475" y1="859.9369" y2="859.9369"/><text fill="#000000" font-family="sans-serif" font-size="14" lengthAdjust="spacing" textLength="160.8975" x="2644.55" y="876.932">float grid1_omega_deg</text><text fill="#000000" font-family="sans-serif" font-size="14" lengthAdjust="spacing" textLength="160.8975" x="2644.55" y="893.2289">float grid2_omega_deg</text><text fill="#000000" font-family="sans-serif" font-size="14" lengthAdjust="spacing" textLength="145.127" x="2644.55" y="909.5257">float x_step_size_um</text><text fill="#000000" font-family="sans-serif" font-size="14" lengthAdjust="spacing" textLength="145.127" x="2644.55" y="925.8226">float y_step_size_um</text><text fill="#000000" font-family="sans-serif" font-size="14" lengthAdjust="spacing" textLength="144.1904" x="2644.55" y="942.1195">float z_step_size_um</text><text fill="#000000" font-family="sans-serif" font-size="14" lengthAdjust="spacing" textLength="122.2129" x="2644.55" y="958.4164">float y2_start_um</text><text fill="#000000" font-family="sans-serif" font-size="14" lengthAdjust="spacing" textLength="121.2764" x="2644.55" y="974.7132">float z2_start_um</text><text fill="#000000" font-family="sans-serif" font-size="14" lengthAdjust="spacing" textLength="75.5645" x="2644.55" y="991.0101">int x_steps</text><text fill="#000000" font-family="sans-serif" font-size="14" lengthAdjust="spacing" textLength="75.5645" x="2644.55" y="1007.307">int y_steps</text><text fill="#000000" font-family="sans-serif" font-size="14" lengthAdjust="spacing" textLength="74.6279" x="2644.55" y="1023.6039">int z_steps</text><text fill="#000000" font-family="sans-serif" font-size="14" lengthAdjust="spacing" textLength="154.4102" x="2644.55" y="1039.9007">bool _set_stub_offsets</text><line style="stroke:#181818;stroke-width:0.5;" x1="2639.55" x2="2810.4475" y1="1047.2025" y2="1047.2025"/></g><!--class RobotLoadThenCentre--><g id="elem_RobotLoadThenCentre"><rect codeLine="99" fill="#F1F1F1" height="64.2969" id="RobotLoadThenCentre" rx="2.5" ry="2.5" style="stroke:#181818;stroke-width:0.5;" width="189.0967" x="2846.45" y="909.4169"/><ellipse cx="2861.45" cy="925.4169" fill="#ADD1B2" rx="11" ry="11" style="stroke:#181818;stroke-width:1;"/><path d="M2864.4188,931.0575 Q2863.8406,931.3544 2863.2,931.495 Q2862.5594,931.6513 2861.8563,931.6513 Q2859.3563,931.6513 2858.0281,930.0106 Q2856.7156,928.3544 2856.7156,925.2294 Q2856.7156,922.1044 2858.0281,920.4481 Q2859.3563,918.7919 2861.8563,918.7919 Q2862.5594,918.7919 2863.2,918.9481 Q2863.8563,919.1044 2864.4188,919.4013 L2864.4188,922.12 Q2863.7938,921.5419 2863.2,921.2763 Q2862.6063,920.995 2861.9813,920.995 Q2860.6375,920.995 2859.95,922.0731 Q2859.2625,923.1356 2859.2625,925.2294 Q2859.2625,927.3231 2859.95,928.4013 Q2860.6375,929.4638 2861.9813,929.4638 Q2862.6063,929.4638 2863.2,929.1981 Q2863.7938,928.9169 2864.4188,928.3388 L2864.4188,931.0575 Z " fill="#000000"/><text fill="#000000" font-family="sans-serif" font-size="14" lengthAdjust="spacing" textLength="157.0967" x="2875.45" y="930.2636">RobotLoadThenCentre</text><line style="stroke:#181818;stroke-width:0.5;" x1="2847.45" x2="3034.5467" y1="941.4169" y2="941.4169"/><text fill="#000000" font-family="sans-serif" font-size="14" lengthAdjust="spacing" textLength="130.5732" x="2852.45" y="958.412">float thawing_time</text><line style="stroke:#181818;stroke-width:0.5;" x1="2847.45" x2="3034.5467" y1="965.7138" y2="965.7138"/></g><!--class RotationScan--><g id="elem_RotationScan"><rect codeLine="105" fill="#F1F1F1" height="48" id="RotationScan" rx="2.5" ry="2.5" style="stroke:#181818;stroke-width:0.5;" width="125.2148" x="4439.39" y="1123.3469"/><ellipse cx="4454.39" cy="1139.3469" fill="#ADD1B2" rx="11" ry="11" style="stroke:#181818;stroke-width:1;"/><path d="M4457.3588,1144.9875 Q4456.7806,1145.2844 4456.14,1145.425 Q4455.4994,1145.5813 4454.7963,1145.5813 Q4452.2963,1145.5813 4450.9681,1143.9406 Q4449.6556,1142.2844 4449.6556,1139.1594 Q4449.6556,1136.0344 4450.9681,1134.3781 Q4452.2963,1132.7219 4454.7963,1132.7219 Q4455.4994,1132.7219 4456.14,1132.8781 Q4456.7963,1133.0344 4457.3588,1133.3313 L4457.3588,1136.05 Q4456.7338,1135.4719 4456.14,1135.2063 Q4455.5463,1134.925 4454.9213,1134.925 Q4453.5775,1134.925 4452.89,1136.0031 Q4452.2025,1137.0656 4452.2025,1139.1594 Q4452.2025,1141.2531 4452.89,1142.3313 Q4453.5775,1143.3938 4454.9213,1143.3938 Q4455.5463,1143.3938 4456.14,1143.1281 Q4456.7338,1142.8469 4457.3588,1142.2688 L4457.3588,1144.9875 Z " fill="#000000"/><text fill="#000000" font-family="sans-serif" font-size="14" lengthAdjust="spacing" textLength="93.2148" x="4468.39" y="1144.1936">RotationScan</text><line style="stroke:#181818;stroke-width:0.5;" x1="4440.39" x2="4563.6048" y1="1155.3469" y2="1155.3469"/><line style="stroke:#181818;stroke-width:0.5;" x1="4440.39" x2="4563.6048" y1="1163.3469" y2="1163.3469"/></g><!--class WithHyperionFeatures--><g id="elem_WithHyperionFeatures"><rect codeLine="107" fill="#F1F1F1" height="64.2969" id="WithHyperionFeatures" rx="2.5" ry="2.5" style="stroke:#181818;stroke-width:0.5;" width="228.6719" x="3614.66" y="909.4169"/><ellipse cx="3647.6196" cy="925.4169" fill="#ADD1B2" rx="11" ry="11" style="stroke:#181818;stroke-width:1;"/><path d="M3650.5883,931.0575 Q3650.0102,931.3544 3649.3696,931.495 Q3648.7289,931.6513 3648.0258,931.6513 Q3645.5258,931.6513 3644.1977,930.0106 Q3642.8852,928.3544 3642.8852,925.2294 Q3642.8852,922.1044 3644.1977,920.4481 Q3645.5258,918.7919 3648.0258,918.7919 Q3648.7289,918.7919 3649.3696,918.9481 Q3650.0258,919.1044 3650.5883,919.4013 L3650.5883,922.12 Q3649.9633,921.5419 3649.3696,921.2763 Q3648.7758,920.995 3648.1508,920.995 Q3646.8071,920.995 3646.1196,922.0731 Q3645.4321,923.1356 3645.4321,925.2294 Q3645.4321,927.3231 3646.1196,928.4013 Q3646.8071,929.4638 3648.1508,929.4638 Q3648.7758,929.4638 3649.3696,929.1981 Q3649.9633,928.9169 3650.5883,928.3388 L3650.5883,931.0575 Z " fill="#000000"/><text fill="#000000" font-family="sans-serif" font-size="14" lengthAdjust="spacing" textLength="156.7617" x="3665.6106" y="930.2636">WithHyperionFeatures</text><line style="stroke:#181818;stroke-width:0.5;" x1="3615.66" x2="3842.3319" y1="941.4169" y2="941.4169"/><text fill="#000000" font-family="sans-serif" font-size="14" lengthAdjust="spacing" textLength="216.6719" x="3620.66" y="958.412">HyperionFeatureFlags features</text><line style="stroke:#181818;stroke-width:0.5;" x1="3615.66" x2="3842.3319" y1="965.7138" y2="965.7138"/></g><!--class HyperionThreeDGridScan--><g id="elem_HyperionThreeDGridScan"><rect codeLine="110" fill="#F1F1F1" height="48" id="HyperionThreeDGridScan" rx="2.5" ry="2.5" style="stroke:#181818;stroke-width:0.5;" width="210.001" x="3619" y="1123.3469"/><ellipse cx="3634" cy="1139.3469" fill="#ADD1B2" rx="11" ry="11" style="stroke:#181818;stroke-width:1;"/><path d="M3636.9688,1144.9875 Q3636.3906,1145.2844 3635.75,1145.425 Q3635.1094,1145.5813 3634.4063,1145.5813 Q3631.9063,1145.5813 3630.5781,1143.9406 Q3629.2656,1142.2844 3629.2656,1139.1594 Q3629.2656,1136.0344 3630.5781,1134.3781 Q3631.9063,1132.7219 3634.4063,1132.7219 Q3635.1094,1132.7219 3635.75,1132.8781 Q3636.4063,1133.0344 3636.9688,1133.3313 L3636.9688,1136.05 Q3636.3438,1135.4719 3635.75,1135.2063 Q3635.1563,1134.925 3634.5313,1134.925 Q3633.1875,1134.925 3632.5,1136.0031 Q3631.8125,1137.0656 3631.8125,1139.1594 Q3631.8125,1141.2531 3632.5,1142.3313 Q3633.1875,1143.3938 3634.5313,1143.3938 Q3635.1563,1143.3938 3635.75,1143.1281 Q3636.3438,1142.8469 3636.9688,1142.2688 L3636.9688,1144.9875 Z " fill="#000000"/><text fill="#000000" font-family="sans-serif" font-size="14" lengthAdjust="spacing" textLength="178.001" x="3648" y="1144.1936">HyperionThreeDGridScan</text><line style="stroke:#181818;stroke-width:0.5;" x1="3620" x2="3828.001" y1="1155.3469" y2="1155.3469"/><line style="stroke:#181818;stroke-width:0.5;" x1="3620" x2="3828.001" y1="1163.3469" y2="1163.3469"/></g><!--class LoadCentreCollect--><g id="elem_LoadCentreCollect"><rect codeLine="112" fill="#F1F1F1" height="80.5938" id="LoadCentreCollect" rx="2.5" ry="2.5" style="stroke:#181818;stroke-width:0.5;" width="338.6211" x="4544.69" y="901.2669"/><ellipse cx="4645.315" cy="917.2669" fill="#ADD1B2" rx="11" ry="11" style="stroke:#181818;stroke-width:1;"/><path d="M4648.2838,922.9075 Q4647.7056,923.2044 4647.065,923.345 Q4646.4244,923.5013 4645.7213,923.5013 Q4643.2213,923.5013 4641.8931,921.8606 Q4640.5806,920.2044 4640.5806,917.0794 Q4640.5806,913.9544 4641.8931,912.2981 Q4643.2213,910.6419 4645.7213,910.6419 Q4646.4244,910.6419 4647.065,910.7981 Q4647.7213,910.9544 4648.2838,911.2513 L4648.2838,913.97 Q4647.6588,913.3919 4647.065,913.1263 Q4646.4713,912.845 4645.8463,912.845 Q4644.5025,912.845 4643.815,913.9231 Q4643.1275,914.9856 4643.1275,917.0794 Q4643.1275,919.1731 4643.815,920.2513 Q4644.5025,921.3138 4645.8463,921.3138 Q4646.4713,921.3138 4647.065,921.0481 Q4647.6588,920.7669 4648.2838,920.1888 L4648.2838,922.9075 Z " fill="#000000"/><text fill="#000000" font-family="sans-serif" font-size="14" lengthAdjust="spacing" textLength="128.8711" x="4665.815" y="922.1136">LoadCentreCollect</text><line style="stroke:#181818;stroke-width:0.5;" x1="4545.69" x2="4882.3111" y1="933.2669" y2="933.2669"/><text fill="#000000" font-family="sans-serif" font-size="14" lengthAdjust="spacing" textLength="326.6211" x="4550.69" y="950.262">RobotLoadThenCentre robot_load_then_centre</text><text fill="#000000" font-family="sans-serif" font-size="14" lengthAdjust="spacing" textLength="269.3154" x="4550.69" y="966.5589">MultiRotationScan multi_rotation_scan</text><line style="stroke:#181818;stroke-width:0.5;" x1="4545.69" x2="4882.3111" y1="973.8606" y2="973.8606"/></g><!--class RotationScanPerSweep--><g id="elem_RotationScanPerSweep"><rect codeLine="116" fill="#F1F1F1" height="129.4844" id="RotationScanPerSweep" rx="2.5" ry="2.5" style="stroke:#181818;stroke-width:0.5;" width="263.0498" x="4246.48" y="876.8269"/><ellipse cx="4292.5166" cy="892.8269" fill="#ADD1B2" rx="11" ry="11" style="stroke:#181818;stroke-width:1;"/><path d="M4295.4854,898.4675 Q4294.9072,898.7644 4294.2666,898.905 Q4293.626,899.0613 4292.9229,899.0613 Q4290.4229,899.0613 4289.0947,897.4206 Q4287.7822,895.7644 4287.7822,892.6394 Q4287.7822,889.5144 4289.0947,887.8581 Q4290.4229,886.2019 4292.9229,886.2019 Q4293.626,886.2019 4294.2666,886.3581 Q4294.9229,886.5144 4295.4854,886.8113 L4295.4854,889.53 Q4294.8604,888.9519 4294.2666,888.6863 Q4293.6729,888.405 4293.0479,888.405 Q4291.7041,888.405 4291.0166,889.4831 Q4290.3291,890.5456 4290.3291,892.6394 Q4290.3291,894.7331 4291.0166,895.8113 Q4291.7041,896.8738 4293.0479,896.8738 Q4293.6729,896.8738 4294.2666,896.6081 Q4294.8604,896.3269 4295.4854,895.7488 L4295.4854,898.4675 Z " fill="#000000"/><text fill="#000000" font-family="sans-serif" font-size="14" lengthAdjust="spacing" textLength="162.4766" x="4313.0166" y="897.6736">RotationScanPerSweep</text><line style="stroke:#181818;stroke-width:0.5;" x1="4247.48" x2="4508.5298" y1="908.8269" y2="908.8269"/><text fill="#000000" font-family="sans-serif" font-size="14" lengthAdjust="spacing" textLength="157.1787" x="4252.48" y="925.822">float omega_start_deg</text><text fill="#000000" font-family="sans-serif" font-size="14" lengthAdjust="spacing" textLength="182.9297" x="4252.48" y="942.1189">RotationAxis rotation_axis</text><text fill="#000000" font-family="sans-serif" font-size="14" lengthAdjust="spacing" textLength="147.3213" x="4252.48" y="958.4157">float scan_width_deg</text><text fill="#000000" font-family="sans-serif" font-size="14" lengthAdjust="spacing" textLength="251.0498" x="4252.48" y="974.7126">RotationDirection rotation_direction</text><text fill="#000000" font-family="sans-serif" font-size="14" lengthAdjust="spacing" textLength="169.1279" x="4252.48" y="991.0095">int nexus_vds_start_img</text><line style="stroke:#181818;stroke-width:0.5;" x1="4247.48" x2="4508.5298" y1="998.3113" y2="998.3113"/></g><!--class MultiRotationScan--><g id="elem_MultiRotationScan"><rect codeLine="123" fill="#F1F1F1" height="64.2969" id="MultiRotationScan" rx="2.5" ry="2.5" style="stroke:#181818;stroke-width:0.5;" width="540.001" x="3864" y="1115.1969"/><ellipse cx="4066.0327" cy="1131.1969" fill="#ADD1B2" rx="11" ry="11" style="stroke:#181818;stroke-width:1;"/><path d="M4069.0015,1136.8375 Q4068.4233,1137.1344 4067.7827,1137.275 Q4067.1421,1137.4313 4066.439,1137.4313 Q4063.939,1137.4313 4062.6108,1135.7906 Q4061.2983,1134.1344 4061.2983,1131.0094 Q4061.2983,1127.8844 4062.6108,1126.2281 Q4063.939,1124.5719 4066.439,1124.5719 Q4067.1421,1124.5719 4067.7827,1124.7281 Q4068.439,1124.8844 4069.0015,1125.1813 L4069.0015,1127.9 Q4068.3765,1127.3219 4067.7827,1127.0563 Q4067.189,1126.775 4066.564,1126.775 Q4065.2202,1126.775 4064.5327,1127.8531 Q4063.8452,1128.9156 4063.8452,1131.0094 Q4063.8452,1133.1031 4064.5327,1134.1813 Q4065.2202,1135.2438 4066.564,1135.2438 Q4067.189,1135.2438 4067.7827,1134.9781 Q4068.3765,1134.6969 4069.0015,1134.1188 L4069.0015,1136.8375 Z " fill="#000000"/><text fill="#000000" font-family="sans-serif" font-size="14" lengthAdjust="spacing" textLength="127.4355" x="4086.5327" y="1136.0436">MultiRotationScan</text><line style="stroke:#181818;stroke-width:0.5;" x1="3865" x2="4403.001" y1="1147.1969" y2="1147.1969"/><line style="stroke:#181818;stroke-width:0.5;" x1="3865" x2="4403.001" y1="1155.1969" y2="1155.1969"/><text fill="#000000" font-family="sans-serif" font-size="14" lengthAdjust="spacing" textLength="528.001" x="3870" y="1172.192">Annotated[list[RotationScanPerSweep], Len(min_length=1)] rotation_scans</text></g><!--class RotationExperiment--><g id="elem_RotationExperiment"><rect codeLine="126" fill="#F1F1F1" height="96.8906" id="RotationExperiment" rx="2.5" ry="2.5" style="stroke:#181818;stroke-width:0.5;" width="332.332" x="3878.83" y="893.1269"/><ellipse cx="3970.7118" cy="909.1269" fill="#ADD1B2" rx="11" ry="11" style="stroke:#181818;stroke-width:1;"/><path d="M3973.6806,914.7675 Q3973.1025,915.0644 3972.4618,915.205 Q3971.8212,915.3613 3971.1181,915.3613 Q3968.6181,915.3613 3967.29,913.7206 Q3965.9775,912.0644 3965.9775,908.9394 Q3965.9775,905.8144 3967.29,904.1581 Q3968.6181,902.5019 3971.1181,902.5019 Q3971.8212,902.5019 3972.4618,902.6581 Q3973.1181,902.8144 3973.6806,903.1113 L3973.6806,905.83 Q3973.0556,905.2519 3972.4618,904.9863 Q3971.8681,904.705 3971.2431,904.705 Q3969.8993,904.705 3969.2118,905.7831 Q3968.5243,906.8456 3968.5243,908.9394 Q3968.5243,911.0331 3969.2118,912.1113 Q3969.8993,913.1738 3971.2431,913.1738 Q3971.8681,913.1738 3972.4618,912.9081 Q3973.0556,912.6269 3973.6806,912.0488 L3973.6806,914.7675 Z " fill="#000000"/><text fill="#000000" font-family="sans-serif" font-size="14" lengthAdjust="spacing" textLength="140.0684" x="3991.2118" y="913.9736">RotationExperiment</text><line style="stroke:#181818;stroke-width:0.5;" x1="3879.83" x2="4210.162" y1="925.1269" y2="925.1269"/><text fill="#000000" font-family="sans-serif" font-size="14" lengthAdjust="spacing" textLength="202.8018" x="3884.83" y="942.122">float shutter_opening_time_s</text><text fill="#000000" font-family="sans-serif" font-size="14" lengthAdjust="spacing" textLength="202.9385" x="3884.83" y="958.4189">float rotation_increment_deg</text><text fill="#000000" font-family="sans-serif" font-size="14" lengthAdjust="spacing" textLength="320.332" x="3884.83" y="974.7157">IspybExperimentType ispyb_experiment_type</text><line style="stroke:#181818;stroke-width:0.5;" x1="3879.83" x2="4210.162" y1="982.0175" y2="982.0175"/></g><!--reverse link WithScan to RotationScan--><g id="link_WithScan_RotationScan"><path codeLine="132" d="M1670.5649,189.2819 C1682.6749,203.8319 1688.81,207.4669 1709,215.7769 C1862.34,278.8669 4555.59,182.9869 4693,275.7769 C4770.95,328.4169 4735.82,385.4069 4776,470.4469 C4852.51,632.3869 4919.45,653.9569 4962,827.9369 C4989.38,939.8669 5038.11,1000.6769 4962,1087.1969 C4936.17,1116.5569 4684.69,1135.4169 4564.87,1142.8069 " fill="none" id="WithScan-backto-RotationScan" style="stroke:#181818;stroke-width:1;"/><polygon fill="none" points="1659.05,175.4469,1665.9532,193.1202,1675.1766,185.4436,1659.05,175.4469" style="stroke:#181818;stroke-width:1;"/></g><!--reverse link RotationScanPerSweep to RotationScan--><g id="link_RotationScanPerSweep_RotationScan"><path codeLine="133" d="M4426.4188,1022.1426 C4450.5588,1061.8026 4470.74,1094.9669 4487.86,1123.1069 " fill="none" id="RotationScanPerSweep-backto-RotationScan" style="stroke:#181818;stroke-width:1;"/><polygon fill="none" points="4417.06,1006.7669,4421.2936,1025.2622,4431.544,1019.023,4417.06,1006.7669" style="stroke:#181818;stroke-width:1;"/></g><!--reverse link RotationExperiment to RotationScan--><g id="link_RotationExperiment_RotationScan"><path codeLine="134" d="M4104.2446,1002.5979 C4138.9646,1035.3979 4176.35,1064.6169 4229,1087.1969 C4308.66,1121.3569 4338.19,1093.1069 4422,1115.1969 C4430.07,1117.3269 4438.44,1120.0169 4446.59,1122.9169 " fill="none" id="RotationExperiment-backto-RotationScan" style="stroke:#181818;stroke-width:1;"/><polygon fill="none" points="4091.16,990.2369,4100.1242,1006.9594,4108.3649,998.2363,4091.16,990.2369" style="stroke:#181818;stroke-width:1;"/></g><!--reverse link GridCommon to GridScanWithEdgeDetect--><g id="link_GridCommon_GridScanWithEdgeDetect"><path codeLine="135" d="M3091.1346,739.8134 C3170.0846,759.1234 3246.21,784.4469 3323,827.9369 C3360.54,849.1969 3396.05,883.8569 3419.17,909.1269 " fill="none" id="GridCommon-backto-GridScanWithEdgeDetect" style="stroke:#181818;stroke-width:1;"/><polygon fill="none" points="3073.65,735.5369,3089.7091,745.6416,3092.5601,733.9851,3073.65,735.5369" style="stroke:#181818;stroke-width:1;"/></g><!--reverse link XyzStarts to SpecifiedGrid--><g id="link_XyzStarts_SpecifiedGrid"><path codeLine="136" d="M429.827,210.2381 C438.657,216.4181 433.35,211.6869 443,215.7769 C651.83,304.3669 1362.63,354.8069 1578.99,368.3669 " fill="none" id="XyzStarts-backto-SpecifiedGrid" style="stroke:#181818;stroke-width:1;"/><polygon fill="none" points="415.08,199.9169,426.3866,215.1537,433.2674,205.3224,415.08,199.9169" style="stroke:#181818;stroke-width:1;"/></g><!--reverse link WithScan to SpecifiedGrid--><g id="link_WithScan_SpecifiedGrid"><path codeLine="137" d="M1642,193.1769 C1642,235.3269 1642,306.2069 1642,348.6269 " fill="none" id="WithScan-backto-SpecifiedGrid" style="stroke:#181818;stroke-width:1;"/><polygon fill="none" points="1642,175.1769,1636,193.1769,1648,193.1769,1642,175.1769" style="stroke:#181818;stroke-width:1;"/></g><!--reverse link GridCommon to RobotLoadThenCentre--><g id="link_GridCommon_RobotLoadThenCentre"><path codeLine="138" d="M2918.7631,785.9735 C2925.3331,831.6435 2931.32,873.2769 2936.47,909.0969 " fill="none" id="GridCommon-backto-RobotLoadThenCentre" style="stroke:#181818;stroke-width:1;"/><polygon fill="none" points="2916.2,768.1569,2912.8242,786.8278,2924.7019,785.1191,2916.2,768.1569" style="stroke:#181818;stroke-width:1;"/></g><!--reverse link MxBlueskyParameters to DiffractionExperiment--><g id="link_MxBlueskyParameters_DiffractionExperiment"><path codeLine="139" d="M3043.3033,194.3312 C3010.9633,218.4612 2978.97,242.3269 2934.71,275.3469 " fill="none" id="MxBlueskyParameters-backto-DiffractionExperiment" style="stroke:#181818;stroke-width:1;"/><polygon fill="none" points="3057.73,183.5669,3039.7152,189.5222,3046.8914,199.1401,3057.73,183.5669" style="stroke:#181818;stroke-width:1;"/></g><!--reverse link WithSnapshot to DiffractionExperiment--><g id="link_WithSnapshot_DiffractionExperiment"><path codeLine="140" d="M1305.5558,198.4281 C1329.7058,207.9481 1339.58,210.3269 1365,215.7769 C1915.79,333.8169 2089.1,122.0069 2631,275.7769 C2633.49,276.4869 2635.99,277.2369 2638.48,278.0169 " fill="none" id="WithSnapshot-backto-DiffractionExperiment" style="stroke:#181818;stroke-width:1;"/><polygon fill="none" points="1288.81,191.8269,1303.3554,204.0101,1307.7563,192.8462,1288.81,191.8269" style="stroke:#181818;stroke-width:1;"/></g><!--reverse link WithOptionalEnergyChange to DiffractionExperiment--><g id="link_WithOptionalEnergyChange_DiffractionExperiment"><path codeLine="141" d="M217.5801,191.9508 C241.6201,204.4508 254.88,209.0969 283,215.7769 C790.8,336.4669 2127.35,138.7769 2631,275.7769 C2633.5,276.4569 2636,277.1769 2638.5,277.9469 " fill="none" id="WithOptionalEnergyChange-backto-DiffractionExperiment" style="stroke:#181818;stroke-width:1;"/><polygon fill="none" points="201.61,183.6469,214.8121,197.2742,220.3481,186.6274,201.61,183.6469" style="stroke:#181818;stroke-width:1;"/></g><!--reverse link WithVisit to DiffractionExperiment--><g id="link_WithVisit_DiffractionExperiment"><path codeLine="142" d="M2015.3408,216.3026 C2282.1408,283.2726 2368.32,194.1269 2631,275.7769 C2633.47,276.5469 2635.95,277.3569 2638.43,278.1969 " fill="none" id="WithVisit-backto-DiffractionExperiment" style="stroke:#181818;stroke-width:1;"/><polygon fill="none" points="1998.11,211.0969,2013.6055,222.0462,2017.076,210.559,1998.11,211.0969" style="stroke:#181818;stroke-width:1;"/></g><!--reverse link DiffractionExperiment to DiffractionExperimentWithSample--><g id="link_DiffractionExperiment_DiffractionExperimentWithSample"><path codeLine="143" d="M2826.6981,488.5509 C2830.9081,510.7209 2831.64,514.6269 2834.59,530.1669 " fill="none" id="DiffractionExperiment-backto-DiffractionExperimentWithSample" style="stroke:#181818;stroke-width:1;"/><polygon fill="none" points="2823.34,470.8669,2820.8035,489.6702,2832.5928,487.4315,2823.34,470.8669" style="stroke:#181818;stroke-width:1;"/></g><!--reverse link WithSample to DiffractionExperimentWithSample--><g id="link_WithSample_DiffractionExperimentWithSample"><path codeLine="144" d="M887.571,208.3588 C899.551,214.7688 896.36,211.9469 909,215.7769 C1175.75,296.7269 1890.23,213.7269 2162,275.7769 C2378.03,325.1069 2415.42,387.7569 2621,470.4469 C2672.85,491.3069 2732.15,513.7969 2775.8,530.0969 " fill="none" id="WithSample-backto-DiffractionExperimentWithSample" style="stroke:#181818;stroke-width:1;"/><polygon fill="none" points="871.7,199.8669,884.7403,213.6491,890.4016,203.0684,871.7,199.8669" style="stroke:#181818;stroke-width:1;"/></g><!--reverse link ThreeDGridScan to HyperionThreeDGridScan--><g id="link_ThreeDGridScan_HyperionThreeDGridScan"><path codeLine="145" d="M2801.9946,1068.6974 C2813.5346,1081.2074 2814.4,1079.0969 2829,1087.1969 C2896.52,1124.6769 3396.82,1139.5869 3618.63,1144.4069 " fill="none" id="ThreeDGridScan-backto-HyperionThreeDGridScan" style="stroke:#181818;stroke-width:1;"/><polygon fill="none" points="2789.79,1055.4669,2797.5845,1072.7656,2806.4048,1064.6292,2789.79,1055.4669" style="stroke:#181818;stroke-width:1;"/></g><!--reverse link WithPandaGridScan to HyperionThreeDGridScan--><g id="link_WithPandaGridScan_HyperionThreeDGridScan"><path codeLine="146" d="M2561.4088,192.2989 C2584.1788,204.7989 2596.14,209.0869 2623,215.7769 C2746.87,246.6269 4810.5,210.1669 4920,275.7769 C5041.8,348.7569 5078,411.4569 5078,553.4469 C5078,553.4469 5078,553.4469 5078,704.1969 C5078,891.7169 5057.63,984.0869 4901,1087.1969 C4852.03,1119.4369 3904.07,1107.1169 3846,1115.1969 C3832.79,1117.0369 3818.95,1119.7669 3805.53,1122.8569 " fill="none" id="WithPandaGridScan-backto-HyperionThreeDGridScan" style="stroke:#181818;stroke-width:1;"/><polygon fill="none" points="2545.63,183.6369,2558.5214,197.5585,2564.2961,187.0393,2545.63,183.6369" style="stroke:#181818;stroke-width:1;"/></g><!--reverse link WithHyperionFeatures to HyperionThreeDGridScan--><g id="link_WithHyperionFeatures_HyperionThreeDGridScan"><path codeLine="147" d="M3727.7877,991.9514 C3726.7777,1033.0414 3725.48,1086.1269 3724.58,1122.8569 " fill="none" id="WithHyperionFeatures-backto-HyperionThreeDGridScan" style="stroke:#181818;stroke-width:1;"/><polygon fill="none" points="3728.23,973.9569,3721.7895,991.804,3733.7859,992.0989,3728.23,973.9569" style="stroke:#181818;stroke-width:1;"/></g><!--reverse link MxBlueskyParameters to LoadCentreCollect--><g id="link_MxBlueskyParameters_LoadCentreCollect"><path codeLine="148" d="M3276.9737,156.4525 C3740.0237,168.6925 5041.06,208.8369 5104,275.7769 C5294.76,478.6769 4917.58,791.0569 4769.83,900.7969 " fill="none" id="MxBlueskyParameters-backto-LoadCentreCollect" style="stroke:#181818;stroke-width:1;"/><polygon fill="none" points="3258.98,155.9769,3276.8152,162.4504,3277.1323,150.4546,3258.98,155.9769" style="stroke:#181818;stroke-width:1;"/></g><!--reverse link WithVisit to LoadCentreCollect--><g id="link_WithVisit_LoadCentreCollect"><path codeLine="149" d="M2015.3494,216.3962 C2165.6794,248.1562 4672.54,165.9569 4780,275.7769 C4867,364.6869 4761.87,771.3269 4725.5,900.8269 " fill="none" id="WithVisit-backto-LoadCentreCollect" style="stroke:#181818;stroke-width:1;"/><polygon fill="none" points="1997.99,211.6369,2013.7629,222.1827,2016.9358,210.6098,1997.99,211.6369" style="stroke:#181818;stroke-width:1;"/></g><!--reverse link WithSample to LoadCentreCollect--><g id="link_WithSample_LoadCentreCollect"><path codeLine="150" d="M886.9044,208.3324 C899.0644,214.8324 896.11,212.0569 909,215.7769 C1213.29,303.6869 3457.81,177.7769 3759,275.7769 C4167.21,408.6069 4555.75,778.9769 4676.01,901.0069 " fill="none" id="WithSample-backto-LoadCentreCollect" style="stroke:#181818;stroke-width:1;"/><polygon fill="none" points="871.03,199.8469,884.0759,213.6238,889.7329,203.0409,871.03,199.8469" style="stroke:#181818;stroke-width:1;"/></g><!--reverse link WithCentreSelection to LoadCentreCollect--><g id="link_WithCentreSelection_LoadCentreCollect"><path codeLine="151" d="M2271.456,190.4472 C2302.066,202.9372 2322.31,209.0869 2357,215.7769 C2493.09,242.0069 4754.18,176.6069 4851,275.7769 C5003.8,432.2969 4923,561.3869 4851,767.9369 C4832.74,820.3269 4791.21,868.7469 4758.63,900.8969 " fill="none" id="WithCentreSelection-backto-LoadCentreCollect" style="stroke:#181818;stroke-width:1;"/><polygon fill="none" points="2254.79,183.6469,2269.1892,196.0025,2273.7228,184.8919,2254.79,183.6469" style="stroke:#181818;stroke-width:1;"/></g><!--reverse link OptionalGonioAngleStarts to RotationScanPerSweep--><g id="link_OptionalGonioAngleStarts_RotationScanPerSweep"><path codeLine="152" d="M689.0265,214.2765 C697.2765,217.3365 688.74,213.7269 697,215.7769 C1006.58,292.5369 3267.79,165.2769 3567,275.7769 C3907.92,401.6869 4210.29,735.4669 4326.93,876.3669 " fill="none" id="OptionalGonioAngleStarts-backto-RotationScanPerSweep" style="stroke:#181818;stroke-width:1;"/><polygon fill="none" points="672.15,208.0169,686.94,219.902,691.1131,208.651,672.15,208.0169" style="stroke:#181818;stroke-width:1;"/></g><!--reverse link OptionalXyzStarts to RotationScanPerSweep--><g id="link_OptionalXyzStarts_RotationScanPerSweep"><path codeLine="153" d="M1553.1876,208.4022 C1565.2376,214.8922 1562.2,212.0569 1575,215.7769 C1738.45,263.2369 4518.84,154.2569 4638,275.7769 C4808.06,449.2069 4565.31,746.7569 4442.18,876.7069 " fill="none" id="OptionalXyzStarts-backto-RotationScanPerSweep" style="stroke:#181818;stroke-width:1;"/><polygon fill="none" points="1537.34,199.8669,1550.3425,213.6848,1556.0328,203.1197,1537.34,199.8669" style="stroke:#181818;stroke-width:1;"/></g><!--reverse link RotationExperiment to MultiRotationScan--><g id="link_RotationExperiment_MultiRotationScan"><path codeLine="154" d="M4073.0746,1006.8421 C4089.8246,1045.1921 4105.66,1081.4569 4120.19,1114.7269 " fill="none" id="RotationExperiment-backto-MultiRotationScan" style="stroke:#181818;stroke-width:1;"/><polygon fill="none" points="4065.87,990.3469,4067.5762,1009.2437,4078.573,1004.4406,4065.87,990.3469" style="stroke:#181818;stroke-width:1;"/></g><!--reverse link SplitScan to MultiRotationScan--><g id="link_SplitScan_MultiRotationScan"><path codeLine="155" d="M1003.1157,189.3702 C1015.0157,203.9202 1021,207.4569 1041,215.7769 C1341.95,340.9769 3660.63,186.0669 3974,275.7769 C4435.03,407.7669 4664.06,411.0069 4901,827.9369 C4957.93,928.1169 4980.07,1003.3769 4901,1087.1969 C4864.42,1125.9869 4475.13,1110.7769 4422,1115.1969 C4416.11,1115.6869 4410.16,1116.1969 4404.15,1116.7269 " fill="none" id="SplitScan-backto-MultiRotationScan" style="stroke:#181818;stroke-width:1;"/><polygon fill="none" points="991.72,175.4369,998.4712,193.1688,1007.7601,185.5717,991.72,175.4369" style="stroke:#181818;stroke-width:1;"/></g><!--reverse link GridCommon to PinTipCentreThenXrayCentre--><g id="link_GridCommon_PinTipCentreThenXrayCentre"><path codeLine="156" d="M2996.8144,779.7442 C3051.1044,825.4142 3108.01,873.2769 3150.59,909.0969 " fill="none" id="GridCommon-backto-PinTipCentreThenXrayCentre" style="stroke:#181818;stroke-width:1;"/><polygon fill="none" points="2983.04,768.1569,2992.9519,784.3357,3000.6768,775.1527,2983.04,768.1569" style="stroke:#181818;stroke-width:1;"/></g><!--reverse link DiffractionExperimentWithSample to RotationExperiment--><g id="link_DiffractionExperimentWithSample_RotationExperiment"><path codeLine="157" d="M2992.2785,581.9375 C3191.9985,618.9575 3556.78,697.5369 3861,827.9369 C3901.62,845.3469 3943.89,870.6369 3977.65,892.8469 " fill="none" id="DiffractionExperimentWithSample-backto-RotationExperiment" style="stroke:#181818;stroke-width:1;"/><polygon fill="none" points="2974.58,578.6569,2991.185,587.837,2993.3721,576.038,2974.58,578.6569" style="stroke:#181818;stroke-width:1;"/></g><!--reverse link DiffractionExperimentWithSample to GridCommon--><g id="link_DiffractionExperimentWithSample_GridCommon"><path codeLine="158" d="M2857.3414,595.027 C2864.8014,611.117 2867.53,617.0169 2877.34,638.1969 " fill="none" id="DiffractionExperimentWithSample-backto-GridCommon" style="stroke:#181818;stroke-width:1;"/><polygon fill="none" points="2849.77,578.6969,2851.898,597.5508,2862.7847,592.5033,2849.77,578.6969" style="stroke:#181818;stroke-width:1;"/></g><!--reverse link OptionalGonioAngleStarts to GridCommon--><g id="link_OptionalGonioAngleStarts_GridCommon"><path codeLine="159" d="M690.1534,214.4252 C698.0334,217.3952 689.14,213.6669 697,215.7769 C1137.78,333.8969 1278.66,167.6569 1722,275.7769 C1928.17,326.0569 1959.39,395.6969 2158,470.4469 C2355.14,544.6569 2587.63,613.8269 2740.7,656.9369 " fill="none" id="OptionalGonioAngleStarts-backto-GridCommon" style="stroke:#181818;stroke-width:1;"/><polygon fill="none" points="673.31,208.0769,688.0373,220.0397,692.2695,208.8107,673.31,208.0769" style="stroke:#181818;stroke-width:1;"/></g><!--reverse link GridCommon to ThreeDGridScan--><g id="link_GridCommon_ThreeDGridScan"><path codeLine="160" d="M2846.7704,782.4204 C2832.5604,800.8804 2827.59,807.3269 2811.81,827.8169 " fill="none" id="GridCommon-backto-ThreeDGridScan" style="stroke:#181818;stroke-width:1;"/><polygon fill="none" points="2857.75,768.1569,2842.0159,778.7605,2851.5249,786.0803,2857.75,768.1569" style="stroke:#181818;stroke-width:1;"/></g><!--reverse link SpecifiedGrid to ThreeDGridScan--><g id="link_SpecifiedGrid_ThreeDGridScan"><path codeLine="161" d="M1702.7604,405.8986 C1866.6304,491.5986 2419.15,780.5969 2638.09,895.1169 " fill="none" id="SpecifiedGrid-backto-ThreeDGridScan" style="stroke:#181818;stroke-width:1;"/><polygon fill="none" points="1686.81,397.5569,1699.9799,411.2154,1705.541,400.5817,1686.81,397.5569" style="stroke:#181818;stroke-width:1;"/></g><!--reverse link SplitScan to ThreeDGridScan--><g id="link_SplitScan_ThreeDGridScan"><path codeLine="162" d="M1008.1965,188.4383 C1020.5065,201.3783 1024.47,204.1169 1041,215.7769 C1491.87,533.8869 1639.95,564.8069 2153,767.9369 C2320.81,834.3769 2524.76,890.2469 2638.19,919.2269 " fill="none" id="SplitScan-backto-ThreeDGridScan" style="stroke:#181818;stroke-width:1;"/><polygon fill="none" points="995.79,175.3969,1003.8493,192.5738,1012.5436,184.3028,995.79,175.3969" style="stroke:#181818;stroke-width:1;"/></g><!--reverse link WithOptionalEnergyChange to ThreeDGridScan--><g id="link_WithOptionalEnergyChange_ThreeDGridScan"><path codeLine="163" d="M227.8782,191.4036 C250.2282,202.0936 259.41,206.0169 283,215.7769 C955.59,494.2069 1122.79,576.0969 1825,767.9369 C2118.9,848.2269 2476.72,904.9969 2638.36,928.5069 " fill="none" id="WithOptionalEnergyChange-backto-ThreeDGridScan" style="stroke:#181818;stroke-width:1;"/><polygon fill="none" points="211.64,183.6369,225.2893,196.8163,230.4671,185.9909,211.64,183.6369" style="stroke:#181818;stroke-width:1;"/></g><!--SRC=[bLTBRzms43vRluAtja1j83ct1yTsqW9nQdGNRe308BZIh4HO8WcIibTsyjyp94MzjUkULfmP3kVnpKVkBzk26xBd9H3yPRMLvpa8qCn2HdODYGkgIYPiNPKNgaaIoork-AjHeBaKv8vfLe45JMvb1cLYm1A14gDO2XjGgBPI4o4590dA7baEf3hGNLc3UMmkKbbLKboewCQGryJA76o1Bb-Jj6J6a7-KnRDO-RLvsLYchNbDplQbP9Py9r_GCpbGu-IqhYQAPatnqYj-jAVClS_TplqjEFgFs-AU6sxHaR6Qx81L9SS2-DMJquJF32pDkB7KIkgCQ2h54sWi0rNC5i682uCYp9yg3Nj-c2I2FY354dj7JAH0gt4aLo2inbQKQ8PUCAQjL5y-DBViS2LhOJiDCVwBfdw36JcvOo9ZdpJFDYaJNNsKar9TYrgj7hyHJ9b2kbhSOKx4j6lSe7tWJN9MujvltkL3JAipanNapD0Cyh5RLgaIq2aNbXY_e3mBo-WYI5MTFYxAkUWyHe1zaeBBIv6Ni8mp7qpRS1VHMAiAlgfBZ-WUcL93hp6gZIgv3GNlHP3oFOVCzU9rL96OmmrERTvS5Kpay3e3IuKje-1DA3oDIzgUz6C-WDTylzVCe-Jcu2Q_Geoqw7O4Gjt8nxFWeAIfDL2BPjG4ApVdk0V1ftcUWtPiGMpufXKkHYr2I55HLplGoTabdcVHtJr3okXwwA4A6MMjDXvkDHEcuiQuWN4n9sT_6zNi-h2tI5r8U2YZq0cfHMc8r20caQG6-8n5kkDYorMOfsq1ugjcJLXrTRPSKRdV8miE2M6nV4CKHyCuOKvta-LmxOUxyxwJo4Zy1OQ-tPOhJwATMOuY-impMmnuQjQLdPGbgGrGBNdRWVzHgJTs9KPvU_WG2B-xBzniRHmSBK_lSUa8gBi5V3mbVGhopiksq03NCnfo-RuBH36SBYT-FnSxKWVLrN50x7FfoxBj-_ajC1Gv88TJJ5WqmyLBNFW6K0SLO-jT2vkUTl-LEsa_IvOvg4rXLh1dBdBVIp-nFvRkrgAzfCUtQ_HkcSFZc5uSxkBL_X6OQw7hqqJqiMGvFXnQVRSvMasx5FKkbv37bIpBWEk598bsCefvPXH9IBJtKN9sMvUM3-CcbPCWVeE86fGDojSRte7UF0Eehdup7e_MbmTy2dKE6QxY5kUy7QhHZcjF4mwztROiYaB31HngGvyoqnx8gvxYPpbXY9T2E05at_ozk9J8m-_aCuXVAove2IAtnP_lVdiWeqAOMIL6pDqcLTJMZPjK82AUQ9Tovu-BL8CVVf_wssd20JDUBUIFx-VdexOaIwaTCUkFN33gUJ0ebwaqwHvvmMfqdqv27Ukc_XUGcoomN31Ul02IuVFebDtIxNvgZt-37ZDQb1xPq5zPIV_vDlinAOGzouIHpDwR9wsdb7LqmsgJPlmqBUAomR0AonQJ5_YQwTeZT0xsE2l9x8_H4TkrAPfHKDAzEzSCfhEm_Z1AJk1Y7EyfQ4xtzN6SADx0S1hx11sZeL-n65Ld0Oxhipes_Wa0]--></g></svg>