<svg xmlns="http://www.w3.org/2000/svg" xmlns:xlink="http://www.w3.org/1999/xlink" contentStyleType="text/css" data-diagram-type="CLASS" height="1235px" preserveAspectRatio="none" style="width:4888px;height:1235px;background:#FFFFFF;" version="1.1" viewBox="0 0 4888 1235" width="4888px" zoomAndPan="magnify"><title>Hyperion Parameter Model</title><defs/><g><text fill="#000000" font-family="sans-serif" font-size="14" font-weight="bold" lengthAdjust="spacing" textLength="212.4951" x="2331.2474" y="22.9951">Hyperion Parameter Model</text><!--cluster mx_bluesky.common.parameters--><g class="cluster" data-entity="mx_bluesky.common.parameters" data-source-line="6" data-uid="ent0002" id="cluster_mx_bluesky.common.parameters"><path d="M8.5,43.2969 L269.8125,43.2969 A3.75,3.75 0 0 1 272.3125,45.7969 L279.3125,65.5938 L2992.5,65.5938 A2.5,2.5 0 0 1 2995,68.0938 L2995,1109.2969 A2.5,2.5 0 0 1 2992.5,1111.7969 L8.5,1111.7969 A2.5,2.5 0 0 1 6,1109.2969 L6,45.7969 A2.5,2.5 0 0 1 8.5,43.2969 " fill="none" style="stroke:#000000;stroke-width:1.5;"/><line style="stroke:#000000;stroke-width:1.5;" x1="6" x2="279.3125" y1="65.5938" y2="65.5938"/><text fill="#000000" font-family="sans-serif" font-size="14" font-weight="bold" lengthAdjust="spacing" textLength="260.3125" x="10" y="58.292">mx_bluesky.common.parameters</text></g><!--cluster mx_bluesky.hyperion.parameters--><g class="cluster" data-entity="mx_bluesky.hyperion.parameters" data-source-line="97" data-uid="ent0020" id="cluster_mx_bluesky.hyperion.parameters"><path d="M3021.5,660.4969 L3286.0322,660.4969 A3.75,3.75 0 0 1 3288.5322,662.9969 L3295.5322,682.7937 L4803.5,682.7937 A2.5,2.5 0 0 1 4806,685.2937 L4806,1225.5969 A2.5,2.5 0 0 1 4803.5,1228.0969 L3021.5,1228.0969 A2.5,2.5 0 0 1 3019,1225.5969 L3019,662.9969 A2.5,2.5 0 0 1 3021.5,660.4969 " fill="none" style="stroke:#000000;stroke-width:1.5;"/><line style="stroke:#000000;stroke-width:1.5;" x1="3019" x2="3295.5322" y1="682.7937" y2="682.7937"/><text fill="#000000" font-family="sans-serif" font-size="14" font-weight="bold" lengthAdjust="spacing" textLength="263.5322" x="3023" y="675.492">mx_bluesky.hyperion.parameters</text></g><!--class SpecifiedGrid--><g class="entity" data-entity="SpecifiedGrid" data-source-line="8" data-uid="ent0003" id="entity_SpecifiedGrid"><rect fill="#F1F1F1" height="48" rx="2.5" ry="2.5" style="stroke:#181818;stroke-width:0.5;" width="125.6729" x="477.16" y="357.2669"/><ellipse cx="492.16" cy="373.2669" fill="#ADD1B2" rx="11" ry="11" style="stroke:#181818;stroke-width:1;"/><path d="M495.1288,378.9075 Q494.5506,379.2044 493.91,379.345 Q493.2694,379.5012 492.5663,379.5012 Q490.0663,379.5012 488.7381,377.8606 Q487.4256,376.2044 487.4256,373.0794 Q487.4256,369.9544 488.7381,368.2981 Q490.0663,366.6419 492.5663,366.6419 Q493.2694,366.6419 493.91,366.7981 Q494.5663,366.9544 495.1288,367.2512 L495.1288,369.97 Q494.5038,369.3919 493.91,369.1262 Q493.3163,368.845 492.6913,368.845 Q491.3475,368.845 490.66,369.9231 Q489.9725,370.9856 489.9725,373.0794 Q489.9725,375.1731 490.66,376.2512 Q491.3475,377.3137 492.6913,377.3137 Q493.3163,377.3137 493.91,377.0481 Q494.5038,376.7669 495.1288,376.1887 L495.1288,378.9075 Z " fill="#000000"/><text fill="#000000" font-family="sans-serif" font-size="14" lengthAdjust="spacing" textLength="93.6729" x="506.16" y="378.1136">SpecifiedGrid</text><line style="stroke:#181818;stroke-width:0.5;" x1="478.16" x2="601.8329" y1="389.2669" y2="389.2669"/><line style="stroke:#181818;stroke-width:0.5;" x1="478.16" x2="601.8329" y1="397.2669" y2="397.2669"/></g><!--class WithSample--><g class="entity" data-entity="WithSample" data-source-line="10" data-uid="ent0004" id="entity_WithSample"><rect fill="#F1F1F1" height="96.8906" rx="2.5" ry="2.5" style="stroke:#181818;stroke-width:0.5;" width="176.3086" x="1303.85" y="102.5969"/><ellipse cx="1345.7243" cy="118.5969" fill="#ADD1B2" rx="11" ry="11" style="stroke:#181818;stroke-width:1;"/><path d="M1348.6931,124.2375 Q1348.1149,124.5344 1347.4743,124.675 Q1346.8337,124.8312 1346.1306,124.8312 Q1343.6306,124.8312 1342.3024,123.1906 Q1340.9899,121.5344 1340.9899,118.4094 Q1340.9899,115.2844 1342.3024,113.6281 Q1343.6306,111.9719 1346.1306,111.9719 Q1346.8337,111.9719 1347.4743,112.1281 Q1348.1306,112.2844 1348.6931,112.5812 L1348.6931,115.3 Q1348.0681,114.7219 1347.4743,114.4562 Q1346.8806,114.175 1346.2556,114.175 Q1344.9118,114.175 1344.2243,115.2531 Q1343.5368,116.3156 1343.5368,118.4094 Q1343.5368,120.5031 1344.2243,121.5812 Q1344.9118,122.6437 1346.2556,122.6437 Q1346.8806,122.6437 1347.4743,122.3781 Q1348.0681,122.0969 1348.6931,121.5187 L1348.6931,124.2375 Z " fill="#000000"/><text fill="#000000" font-family="sans-serif" font-size="14" lengthAdjust="spacing" textLength="84.5879" x="1365.6964" y="123.4436">WithSample</text><line style="stroke:#181818;stroke-width:0.5;" x1="1304.85" x2="1479.1586" y1="134.5969" y2="134.5969"/><text fill="#000000" font-family="sans-serif" font-size="14" lengthAdjust="spacing" textLength="93.3789" x="1309.85" y="151.592">int sample_id</text><text fill="#000000" font-family="sans-serif" font-size="14" lengthAdjust="spacing" textLength="164.3086" x="1309.85" y="167.8889">int | None sample_puck</text><text fill="#000000" font-family="sans-serif" font-size="14" lengthAdjust="spacing" textLength="152.3936" x="1309.85" y="184.1857">int | None sample_pin</text><line style="stroke:#181818;stroke-width:0.5;" x1="1304.85" x2="1479.1586" y1="191.4875" y2="191.4875"/></g><!--class WithCentreSelection--><g class="entity" data-entity="WithCentreSelection" data-source-line="15" data-uid="ent0005" id="entity_WithCentreSelection"><rect fill="#F1F1F1" height="64.2969" rx="2.5" ry="2.5" style="stroke:#181818;stroke-width:0.5;" width="306.7861" x="2308.61" y="118.8969"/><ellipse cx="2385.8869" cy="134.8969" fill="#ADD1B2" rx="11" ry="11" style="stroke:#181818;stroke-width:1;"/><path d="M2388.8556,140.5375 Q2388.2775,140.8344 2387.6369,140.975 Q2386.9962,141.1312 2386.2931,141.1312 Q2383.7931,141.1312 2382.465,139.4906 Q2381.1525,137.8344 2381.1525,134.7094 Q2381.1525,131.5844 2382.465,129.9281 Q2383.7931,128.2719 2386.2931,128.2719 Q2386.9962,128.2719 2387.6369,128.4281 Q2388.2931,128.5844 2388.8556,128.8812 L2388.8556,131.6 Q2388.2306,131.0219 2387.6369,130.7562 Q2387.0431,130.475 2386.4181,130.475 Q2385.0744,130.475 2384.3869,131.5531 Q2383.6994,132.6156 2383.6994,134.7094 Q2383.6994,136.8031 2384.3869,137.8812 Q2385.0744,138.9437 2386.4181,138.9437 Q2387.0431,138.9437 2387.6369,138.6781 Q2388.2306,138.3969 2388.8556,137.8187 L2388.8556,140.5375 Z " fill="#000000"/><text fill="#000000" font-family="sans-serif" font-size="14" lengthAdjust="spacing" textLength="143.7324" x="2406.3869" y="139.7436">WithCentreSelection</text><line style="stroke:#181818;stroke-width:0.5;" x1="2309.61" x2="2614.3961" y1="150.8969" y2="150.8969"/><text fill="#000000" font-family="sans-serif" font-size="14" lengthAdjust="spacing" textLength="294.7861" x="2314.61" y="167.892">TopNByMaxCountSelection select_centres</text><line style="stroke:#181818;stroke-width:0.5;" x1="2309.61" x2="2614.3961" y1="175.1937" y2="175.1937"/></g><!--class WithVisit--><g class="entity" data-entity="WithVisit" data-source-line="18" data-uid="ent0006" id="entity_WithVisit"><rect fill="#F1F1F1" height="129.4844" rx="2.5" ry="2.5" style="stroke:#181818;stroke-width:0.5;" width="271.7861" x="1515.11" y="86.2969"/><ellipse cx="1615.6359" cy="102.2969" fill="#ADD1B2" rx="11" ry="11" style="stroke:#181818;stroke-width:1;"/><path d="M1618.6046,107.9375 Q1618.0265,108.2344 1617.3859,108.375 Q1616.7453,108.5313 1616.0421,108.5313 Q1613.5421,108.5313 1612.214,106.8906 Q1610.9015,105.2344 1610.9015,102.1094 Q1610.9015,98.9844 1612.214,97.3281 Q1613.5421,95.6719 1616.0421,95.6719 Q1616.7453,95.6719 1617.3859,95.8281 Q1618.0421,95.9844 1618.6046,96.2813 L1618.6046,99 Q1617.9796,98.4219 1617.3859,98.1563 Q1616.7921,97.875 1616.1671,97.875 Q1614.8234,97.875 1614.1359,98.9531 Q1613.4484,100.0156 1613.4484,102.1094 Q1613.4484,104.2031 1614.1359,105.2813 Q1614.8234,106.3438 1616.1671,106.3438 Q1616.7921,106.3438 1617.3859,106.0781 Q1617.9796,105.7969 1618.6046,105.2188 L1618.6046,107.9375 Z " fill="#000000"/><text fill="#000000" font-family="sans-serif" font-size="14" lengthAdjust="spacing" textLength="62.2344" x="1636.1359" y="107.1436">WithVisit</text><line style="stroke:#181818;stroke-width:0.5;" x1="1516.11" x2="1785.8961" y1="118.2969" y2="118.2969"/><text fill="#000000" font-family="sans-serif" font-size="14" lengthAdjust="spacing" textLength="87.9717" x="1521.11" y="135.292">str beamline</text><text fill="#000000" font-family="sans-serif" font-size="14" lengthAdjust="spacing" textLength="51.8369" x="1521.11" y="151.5889">str visit</text><text fill="#000000" font-family="sans-serif" font-size="14" lengthAdjust="spacing" textLength="259.7861" x="1521.11" y="167.8857">str det_dist_to_beam_converter_path</text><text fill="#000000" font-family="sans-serif" font-size="14" lengthAdjust="spacing" textLength="131.5918" x="1521.11" y="184.1826">str insertion_prefix</text><text fill="#000000" font-family="sans-serif" font-size="14" lengthAdjust="spacing" textLength="245.752" x="1521.11" y="200.4795">float | None detector_distance_mm</text><line style="stroke:#181818;stroke-width:0.5;" x1="1516.11" x2="1785.8961" y1="207.7813" y2="207.7813"/></g><!--class WithOptionalEnergyChange--><g class="entity" data-entity="WithOptionalEnergyChange" data-source-line="25" data-uid="ent0007" id="entity_WithOptionalEnergyChange"><rect fill="#F1F1F1" height="64.2969" rx="2.5" ry="2.5" style="stroke:#181818;stroke-width:0.5;" width="235.4463" x="323.28" y="118.8969"/><ellipse cx="342.4645" cy="134.8969" fill="#ADD1B2" rx="11" ry="11" style="stroke:#181818;stroke-width:1;"/><path d="M345.4332,140.5375 Q344.8551,140.8344 344.2145,140.975 Q343.5738,141.1312 342.8707,141.1312 Q340.3707,141.1312 339.0426,139.4906 Q337.7301,137.8344 337.7301,134.7094 Q337.7301,131.5844 339.0426,129.9281 Q340.3707,128.2719 342.8707,128.2719 Q343.5738,128.2719 344.2145,128.4281 Q344.8707,128.5844 345.4332,128.8812 L345.4332,131.6 Q344.8082,131.0219 344.2145,130.7562 Q343.6207,130.475 342.9957,130.475 Q341.652,130.475 340.9645,131.5531 Q340.277,132.6156 340.277,134.7094 Q340.277,136.8031 340.9645,137.8812 Q341.652,138.9437 342.9957,138.9437 Q343.6207,138.9437 344.2145,138.6781 Q344.8082,138.3969 345.4332,137.8187 L345.4332,140.5375 Z " fill="#000000"/><text fill="#000000" font-family="sans-serif" font-size="14" lengthAdjust="spacing" textLength="194.1475" x="357.3944" y="139.7436">WithOptionalEnergyChange</text><line style="stroke:#181818;stroke-width:0.5;" x1="324.28" x2="557.7263" y1="150.8969" y2="150.8969"/><text fill="#000000" font-family="sans-serif" font-size="14" lengthAdjust="spacing" textLength="223.4463" x="329.28" y="167.892">float | None demand_energy_ev</text><line style="stroke:#181818;stroke-width:0.5;" x1="324.28" x2="557.7263" y1="175.1937" y2="175.1937"/></g><!--class SplitScan--><g class="entity" data-entity="SplitScan" data-source-line="28" data-uid="ent0008" id="entity_SplitScan"><rect fill="#F1F1F1" height="48" rx="2.5" ry="2.5" style="stroke:#181818;stroke-width:0.5;" width="97.0781" x="1171.46" y="127.0469"/><ellipse cx="1186.46" cy="143.0469" fill="#ADD1B2" rx="11" ry="11" style="stroke:#181818;stroke-width:1;"/><path d="M1189.4288,148.6875 Q1188.8506,148.9844 1188.21,149.125 Q1187.5694,149.2813 1186.8663,149.2813 Q1184.3663,149.2813 1183.0381,147.6406 Q1181.7256,145.9844 1181.7256,142.8594 Q1181.7256,139.7344 1183.0381,138.0781 Q1184.3663,136.4219 1186.8663,136.4219 Q1187.5694,136.4219 1188.21,136.5781 Q1188.8663,136.7344 1189.4288,137.0313 L1189.4288,139.75 Q1188.8038,139.1719 1188.21,138.9063 Q1187.6163,138.625 1186.9913,138.625 Q1185.6475,138.625 1184.96,139.7031 Q1184.2725,140.7656 1184.2725,142.8594 Q1184.2725,144.9531 1184.96,146.0313 Q1185.6475,147.0938 1186.9913,147.0938 Q1187.6163,147.0938 1188.21,146.8281 Q1188.8038,146.5469 1189.4288,145.9688 L1189.4288,148.6875 Z " fill="#000000"/><text fill="#000000" font-family="sans-serif" font-size="14" lengthAdjust="spacing" textLength="65.0781" x="1200.46" y="147.8936">SplitScan</text><line style="stroke:#181818;stroke-width:0.5;" x1="1172.46" x2="1267.5381" y1="159.0469" y2="159.0469"/><line style="stroke:#181818;stroke-width:0.5;" x1="1172.46" x2="1267.5381" y1="167.0469" y2="167.0469"/></g><!--class WithSnapshot--><g class="entity" data-entity="WithSnapshot" data-source-line="30" data-uid="ent0009" id="entity_WithSnapshot"><rect fill="#F1F1F1" height="80.5938" rx="2.5" ry="2.5" style="stroke:#181818;stroke-width:0.5;" width="289.3477" x="847.33" y="110.7469"/><ellipse cx="938.9828" cy="126.7469" fill="#ADD1B2" rx="11" ry="11" style="stroke:#181818;stroke-width:1;"/><path d="M941.9516,132.3875 Q941.3735,132.6844 940.7328,132.825 Q940.0922,132.9813 939.3891,132.9813 Q936.8891,132.9813 935.561,131.3406 Q934.2485,129.6844 934.2485,126.5594 Q934.2485,123.4344 935.561,121.7781 Q936.8891,120.1219 939.3891,120.1219 Q940.0922,120.1219 940.7328,120.2781 Q941.3891,120.4344 941.9516,120.7313 L941.9516,123.45 Q941.3266,122.8719 940.7328,122.6063 Q940.1391,122.325 939.5141,122.325 Q938.1703,122.325 937.4828,123.4031 Q936.7953,124.4656 936.7953,126.5594 Q936.7953,128.6531 937.4828,129.7313 Q938.1703,130.7938 939.5141,130.7938 Q940.1391,130.7938 940.7328,130.5281 Q941.3266,130.2469 941.9516,129.6688 L941.9516,132.3875 Z " fill="#000000"/><text fill="#000000" font-family="sans-serif" font-size="14" lengthAdjust="spacing" textLength="97.542" x="959.4828" y="131.5936">WithSnapshot</text><line style="stroke:#181818;stroke-width:0.5;" x1="848.33" x2="1135.6777" y1="142.7469" y2="142.7469"/><text fill="#000000" font-family="sans-serif" font-size="14" lengthAdjust="spacing" textLength="169.627" x="853.33" y="159.742">Path snapshot_directory</text><text fill="#000000" font-family="sans-serif" font-size="14" lengthAdjust="spacing" textLength="277.3477" x="853.33" y="176.0389">list[float] | None snapshot_omegas_deg</text><line style="stroke:#181818;stroke-width:0.5;" x1="848.33" x2="1135.6777" y1="183.3406" y2="183.3406"/></g><!--class WithScan--><g class="entity" data-entity="WithScan" data-source-line="34" data-uid="ent0010" id="entity_WithScan"><rect fill="#F1F1F1" height="48" rx="2.5" ry="2.5" style="stroke:#181818;stroke-width:0.5;" width="98.1309" x="29.93" y="127.0469"/><ellipse cx="44.93" cy="143.0469" fill="#ADD1B2" rx="11" ry="11" style="stroke:#181818;stroke-width:1;"/><path d="M47.8988,148.6875 Q47.3206,148.9844 46.68,149.125 Q46.0394,149.2813 45.3363,149.2813 Q42.8363,149.2813 41.5081,147.6406 Q40.1956,145.9844 40.1956,142.8594 Q40.1956,139.7344 41.5081,138.0781 Q42.8363,136.4219 45.3363,136.4219 Q46.0394,136.4219 46.68,136.5781 Q47.3363,136.7344 47.8988,137.0313 L47.8988,139.75 Q47.2738,139.1719 46.68,138.9063 Q46.0863,138.625 45.4613,138.625 Q44.1175,138.625 43.43,139.7031 Q42.7425,140.7656 42.7425,142.8594 Q42.7425,144.9531 43.43,146.0313 Q44.1175,147.0938 45.4613,147.0938 Q46.0863,147.0938 46.68,146.8281 Q47.2738,146.5469 47.8988,145.9688 L47.8988,148.6875 Z " fill="#000000"/><text fill="#000000" font-family="sans-serif" font-size="14" lengthAdjust="spacing" textLength="66.1309" x="58.93" y="147.8936">WithScan</text><line style="stroke:#181818;stroke-width:0.5;" x1="30.93" x2="127.0609" y1="159.0469" y2="159.0469"/><line style="stroke:#181818;stroke-width:0.5;" x1="30.93" x2="127.0609" y1="167.0469" y2="167.0469"/></g><!--class OptionalGonioAngleStarts--><g class="entity" data-entity="OptionalGonioAngleStarts" data-source-line="36" data-uid="ent0011" id="entity_OptionalGonioAngleStarts"><rect fill="#F1F1F1" height="113.1875" rx="2.5" ry="2.5" style="stroke:#181818;stroke-width:0.5;" width="219.3203" x="593.34" y="94.4469"/><ellipse cx="611.0633" cy="110.4469" fill="#ADD1B2" rx="11" ry="11" style="stroke:#181818;stroke-width:1;"/><path d="M614.032,116.0875 Q613.4539,116.3844 612.8133,116.525 Q612.1727,116.6812 611.4695,116.6812 Q608.9695,116.6812 607.6414,115.0406 Q606.3289,113.3844 606.3289,110.2594 Q606.3289,107.1344 607.6414,105.4781 Q608.9695,103.8219 611.4695,103.8219 Q612.1727,103.8219 612.8133,103.9781 Q613.4695,104.1344 614.032,104.4312 L614.032,107.15 Q613.407,106.5719 612.8133,106.3062 Q612.2195,106.025 611.5945,106.025 Q610.2508,106.025 609.5633,107.1031 Q608.8758,108.1656 608.8758,110.2594 Q608.8758,112.3531 609.5633,113.4312 Q610.2508,114.4937 611.5945,114.4937 Q612.2195,114.4937 612.8133,114.2281 Q613.407,113.9469 614.032,113.3687 L614.032,116.0875 Z " fill="#000000"/><text fill="#000000" font-family="sans-serif" font-size="14" lengthAdjust="spacing" textLength="181.2686" x="625.6685" y="115.2936">OptionalGonioAngleStarts</text><line style="stroke:#181818;stroke-width:0.5;" x1="594.34" x2="811.6603" y1="126.4469" y2="126.4469"/><text fill="#000000" font-family="sans-serif" font-size="14" lengthAdjust="spacing" textLength="207.3203" x="599.34" y="143.442">float | None omega_start_deg</text><text fill="#000000" font-family="sans-serif" font-size="14" lengthAdjust="spacing" textLength="180.6875" x="599.34" y="159.7389">float | None phi_start_deg</text><text fill="#000000" font-family="sans-serif" font-size="14" lengthAdjust="spacing" textLength="179.498" x="599.34" y="176.0357">float | None chi_start_deg</text><text fill="#000000" font-family="sans-serif" font-size="14" lengthAdjust="spacing" textLength="202.0771" x="599.34" y="192.3326">float | None kappa_start_deg</text><line style="stroke:#181818;stroke-width:0.5;" x1="594.34" x2="811.6603" y1="199.6344" y2="199.6344"/></g><!--class XyzStarts--><g class="entity" data-entity="XyzStarts" data-source-line="42" data-uid="ent0012" id="entity_XyzStarts"><rect fill="#F1F1F1" height="96.8906" rx="2.5" ry="2.5" style="stroke:#181818;stroke-width:0.5;" width="125.3057" x="163.35" y="102.5969"/><ellipse cx="190.3141" cy="118.5969" fill="#ADD1B2" rx="11" ry="11" style="stroke:#181818;stroke-width:1;"/><path d="M193.2829,124.2375 Q192.7047,124.5344 192.0641,124.675 Q191.4235,124.8312 190.7204,124.8312 Q188.2204,124.8312 186.8922,123.1906 Q185.5797,121.5344 185.5797,118.4094 Q185.5797,115.2844 186.8922,113.6281 Q188.2204,111.9719 190.7204,111.9719 Q191.4235,111.9719 192.0641,112.1281 Q192.7204,112.2844 193.2829,112.5812 L193.2829,115.3 Q192.6579,114.7219 192.0641,114.4562 Q191.4704,114.175 190.8454,114.175 Q189.5016,114.175 188.8141,115.2531 Q188.1266,116.3156 188.1266,118.4094 Q188.1266,120.5031 188.8141,121.5812 Q189.5016,122.6437 190.8454,122.6437 Q191.4704,122.6437 192.0641,122.3781 Q192.6579,122.0969 193.2829,121.5187 L193.2829,124.2375 Z " fill="#000000"/><text fill="#000000" font-family="sans-serif" font-size="14" lengthAdjust="spacing" textLength="66.7188" x="206.9728" y="123.4436">XyzStarts</text><line style="stroke:#181818;stroke-width:0.5;" x1="164.35" x2="287.6557" y1="134.5969" y2="134.5969"/><text fill="#000000" font-family="sans-serif" font-size="14" lengthAdjust="spacing" textLength="113.3057" x="169.35" y="151.592">float x_start_um</text><text fill="#000000" font-family="sans-serif" font-size="14" lengthAdjust="spacing" textLength="113.3057" x="169.35" y="167.8889">float y_start_um</text><text fill="#000000" font-family="sans-serif" font-size="14" lengthAdjust="spacing" textLength="112.3691" x="169.35" y="184.1857">float z_start_um</text><line style="stroke:#181818;stroke-width:0.5;" x1="164.35" x2="287.6557" y1="191.4875" y2="191.4875"/></g><!--class OptionalXyzStarts--><g class="entity" data-entity="OptionalXyzStarts" data-source-line="47" data-uid="ent0013" id="entity_OptionalXyzStarts"><rect fill="#F1F1F1" height="96.8906" rx="2.5" ry="2.5" style="stroke:#181818;stroke-width:0.5;" width="175.4473" x="1822.28" y="102.5969"/><ellipse cx="1845.1713" cy="118.5969" fill="#ADD1B2" rx="11" ry="11" style="stroke:#181818;stroke-width:1;"/><path d="M1848.14,124.2375 Q1847.5619,124.5344 1846.9213,124.675 Q1846.2806,124.8312 1845.5775,124.8312 Q1843.0775,124.8312 1841.7494,123.1906 Q1840.4369,121.5344 1840.4369,118.4094 Q1840.4369,115.2844 1841.7494,113.6281 Q1843.0775,111.9719 1845.5775,111.9719 Q1846.2806,111.9719 1846.9213,112.1281 Q1847.5775,112.2844 1848.14,112.5812 L1848.14,115.3 Q1847.515,114.7219 1846.9213,114.4562 Q1846.3275,114.175 1845.7025,114.175 Q1844.3588,114.175 1843.6713,115.2531 Q1842.9838,116.3156 1842.9838,118.4094 Q1842.9838,120.5031 1843.6713,121.5812 Q1844.3588,122.6437 1845.7025,122.6437 Q1846.3275,122.6437 1846.9213,122.3781 Q1847.515,122.0969 1848.14,121.5187 L1848.14,124.2375 Z " fill="#000000"/><text fill="#000000" font-family="sans-serif" font-size="14" lengthAdjust="spacing" textLength="125.9111" x="1860.9249" y="123.4436">OptionalXyzStarts</text><line style="stroke:#181818;stroke-width:0.5;" x1="1823.28" x2="1996.7273" y1="134.5969" y2="134.5969"/><text fill="#000000" font-family="sans-serif" font-size="14" lengthAdjust="spacing" textLength="163.4473" x="1828.28" y="151.592">float | None x_start_um</text><text fill="#000000" font-family="sans-serif" font-size="14" lengthAdjust="spacing" textLength="163.4473" x="1828.28" y="167.8889">float | None y_start_um</text><text fill="#000000" font-family="sans-serif" font-size="14" lengthAdjust="spacing" textLength="162.5107" x="1828.28" y="184.1857">float | None z_start_um</text><line style="stroke:#181818;stroke-width:0.5;" x1="1823.28" x2="1996.7273" y1="191.4875" y2="191.4875"/></g><!--class WithPandaGridScan--><g class="entity" data-entity="WithPandaGridScan" data-source-line="52" data-uid="ent0014" id="entity_WithPandaGridScan"><rect fill="#F1F1F1" height="64.2969" rx="2.5" ry="2.5" style="stroke:#181818;stroke-width:0.5;" width="240.5664" x="2032.72" y="118.8969"/><ellipse cx="2079.3172" cy="134.8969" fill="#ADD1B2" rx="11" ry="11" style="stroke:#181818;stroke-width:1;"/><path d="M2082.2859,140.5375 Q2081.7078,140.8344 2081.0672,140.975 Q2080.4265,141.1312 2079.7234,141.1312 Q2077.2234,141.1312 2075.8953,139.4906 Q2074.5828,137.8344 2074.5828,134.7094 Q2074.5828,131.5844 2075.8953,129.9281 Q2077.2234,128.2719 2079.7234,128.2719 Q2080.4265,128.2719 2081.0672,128.4281 Q2081.7234,128.5844 2082.2859,128.8812 L2082.2859,131.6 Q2081.6609,131.0219 2081.0672,130.7562 Q2080.4734,130.475 2079.8484,130.475 Q2078.5047,130.475 2077.8172,131.5531 Q2077.1297,132.6156 2077.1297,134.7094 Q2077.1297,136.8031 2077.8172,137.8812 Q2078.5047,138.9437 2079.8484,138.9437 Q2080.4734,138.9437 2081.0672,138.6781 Q2081.6609,138.3969 2082.2859,137.8187 L2082.2859,140.5375 Z " fill="#000000"/><text fill="#000000" font-family="sans-serif" font-size="14" lengthAdjust="spacing" textLength="138.8721" x="2099.8172" y="139.7436">WithPandaGridScan</text><line style="stroke:#181818;stroke-width:0.5;" x1="2033.72" x2="2272.2864" y1="150.8969" y2="150.8969"/><text fill="#000000" font-family="sans-serif" font-size="14" lengthAdjust="spacing" textLength="228.5664" x="2038.72" y="167.892">float panda_runup_distance_mm</text><line style="stroke:#181818;stroke-width:0.5;" x1="2033.72" x2="2272.2864" y1="175.1937" y2="175.1937"/></g><!--class GridCommon--><g class="entity" data-entity="GridCommon" data-source-line="57" data-uid="ent0015" id="entity_GridCommon"><rect fill="#F1F1F1" height="145.7813" rx="2.5" ry="2.5" style="stroke:#181818;stroke-width:0.5;" width="332.332" x="2638.83" y="654.7569"/><ellipse cx="2754.5282" cy="670.7569" fill="#ADD1B2" rx="11" ry="11" style="stroke:#181818;stroke-width:1;"/><path d="M2757.497,676.3975 Q2756.9189,676.6944 2756.2782,676.835 Q2755.6376,676.9912 2754.9345,676.9912 Q2752.4345,676.9912 2751.1064,675.3506 Q2749.7939,673.6944 2749.7939,670.5694 Q2749.7939,667.4444 2751.1064,665.7881 Q2752.4345,664.1319 2754.9345,664.1319 Q2755.6376,664.1319 2756.2782,664.2881 Q2756.9345,664.4444 2757.497,664.7412 L2757.497,667.46 Q2756.872,666.8819 2756.2782,666.6162 Q2755.6845,666.335 2755.0595,666.335 Q2753.7157,666.335 2753.0282,667.4131 Q2752.3407,668.4756 2752.3407,670.5694 Q2752.3407,672.6631 2753.0282,673.7412 Q2753.7157,674.8037 2755.0595,674.8037 Q2755.6845,674.8037 2756.2782,674.5381 Q2756.872,674.2569 2757.497,673.6787 L2757.497,676.3975 Z " fill="#000000"/><text fill="#000000" font-family="sans-serif" font-size="14" lengthAdjust="spacing" textLength="92.4355" x="2775.0282" y="675.6036">GridCommon</text><line style="stroke:#181818;stroke-width:0.5;" x1="2639.83" x2="2970.162" y1="686.7569" y2="686.7569"/><text fill="#000000" font-family="sans-serif" font-size="14" lengthAdjust="spacing" textLength="125.2959" x="2644.83" y="703.752">float box_size_um</text><text fill="#000000" font-family="sans-serif" font-size="14" lengthAdjust="spacing" textLength="138.4209" x="2644.83" y="720.0489">float grid_width_um</text><text fill="#000000" font-family="sans-serif" font-size="14" lengthAdjust="spacing" textLength="153.7129" x="2644.83" y="736.3457">float exposure_time_s</text><text fill="#000000" font-family="sans-serif" font-size="14" lengthAdjust="spacing" textLength="320.332" x="2644.83" y="752.6426">IspybExperimentType ispyb_experiment_type</text><text fill="#000000" font-family="sans-serif" font-size="14" lengthAdjust="spacing" textLength="282.3516" x="2644.83" y="768.9395">ApertureValue | None selected_aperture</text><text fill="#000000" font-family="sans-serif" font-size="14" lengthAdjust="spacing" textLength="130.498" x="2644.83" y="785.2364">float tip_offset_um</text><line style="stroke:#181818;stroke-width:0.5;" x1="2639.83" x2="2970.162" y1="792.5381" y2="792.5381"/></g><!--class DiffractionExperimentWithSample--><g class="entity" data-entity="DiffractionExperimentWithSample" data-source-line="65" data-uid="ent0016" id="entity_DiffractionExperimentWithSample"><rect fill="#F1F1F1" height="48" rx="2.5" ry="2.5" style="stroke:#181818;stroke-width:0.5;" width="270.8545" x="2669.57" y="546.7569"/><ellipse cx="2684.57" cy="562.7569" fill="#ADD1B2" rx="11" ry="11" style="stroke:#181818;stroke-width:1;"/><path d="M2687.5388,568.3975 Q2686.9606,568.6944 2686.32,568.835 Q2685.6794,568.9912 2684.9763,568.9912 Q2682.4763,568.9912 2681.1481,567.3506 Q2679.8356,565.6944 2679.8356,562.5694 Q2679.8356,559.4444 2681.1481,557.7881 Q2682.4763,556.1319 2684.9763,556.1319 Q2685.6794,556.1319 2686.32,556.2881 Q2686.9763,556.4444 2687.5388,556.7412 L2687.5388,559.46 Q2686.9138,558.8819 2686.32,558.6162 Q2685.7263,558.335 2685.1013,558.335 Q2683.7575,558.335 2683.07,559.4131 Q2682.3825,560.4756 2682.3825,562.5694 Q2682.3825,564.6631 2683.07,565.7412 Q2683.7575,566.8037 2685.1013,566.8037 Q2685.7263,566.8037 2686.32,566.5381 Q2686.9138,566.2569 2687.5388,565.6787 L2687.5388,568.3975 Z " fill="#000000"/><text fill="#000000" font-family="sans-serif" font-size="14" lengthAdjust="spacing" textLength="238.8545" x="2698.57" y="567.6036">DiffractionExperimentWithSample</text><line style="stroke:#181818;stroke-width:0.5;" x1="2670.57" x2="2939.4245" y1="578.7569" y2="578.7569"/><line style="stroke:#181818;stroke-width:0.5;" x1="2670.57" x2="2939.4245" y1="586.7569" y2="586.7569"/></g><!--class DiffractionExperiment--><g class="entity" data-entity="DiffractionExperiment" data-source-line="67" data-uid="ent0017" id="entity_DiffractionExperiment"><rect fill="#F1F1F1" height="210.9688" rx="2.5" ry="2.5" style="stroke:#181818;stroke-width:0.5;" width="332.332" x="2638.83" y="275.7869"/><ellipse cx="2723.6127" cy="291.7869" fill="#ADD1B2" rx="11" ry="11" style="stroke:#181818;stroke-width:1;"/><path d="M2726.5815,297.4275 Q2726.0033,297.7244 2725.3627,297.865 Q2724.7221,298.0213 2724.019,298.0213 Q2721.519,298.0213 2720.1908,296.3806 Q2718.8783,294.7244 2718.8783,291.5994 Q2718.8783,288.4744 2720.1908,286.8181 Q2721.519,285.1619 2724.019,285.1619 Q2724.7221,285.1619 2725.3627,285.3181 Q2726.019,285.4744 2726.5815,285.7713 L2726.5815,288.49 Q2725.9565,287.9119 2725.3627,287.6463 Q2724.769,287.365 2724.144,287.365 Q2722.8002,287.365 2722.1127,288.4431 Q2721.4252,289.5056 2721.4252,291.5994 Q2721.4252,293.6931 2722.1127,294.7713 Q2722.8002,295.8338 2724.144,295.8338 Q2724.769,295.8338 2725.3627,295.5681 Q2725.9565,295.2869 2726.5815,294.7088 L2726.5815,297.4275 Z " fill="#000000"/><text fill="#000000" font-family="sans-serif" font-size="14" lengthAdjust="spacing" textLength="154.2666" x="2744.1127" y="296.6336">DiffractionExperiment</text><line style="stroke:#181818;stroke-width:0.5;" x1="2639.83" x2="2970.162" y1="307.7869" y2="307.7869"/><text fill="#000000" font-family="sans-serif" font-size="14" lengthAdjust="spacing" textLength="91.0137" x="2644.83" y="324.782">str file_name</text><text fill="#000000" font-family="sans-serif" font-size="14" lengthAdjust="spacing" textLength="153.7129" x="2644.83" y="341.0789">float exposure_time_s</text><text fill="#000000" font-family="sans-serif" font-size="14" lengthAdjust="spacing" textLength="89.5029" x="2644.83" y="357.3757">str comment</text><text fill="#000000" font-family="sans-serif" font-size="14" lengthAdjust="spacing" textLength="186.915" x="2644.83" y="373.6726">TriggerMode trigger_mode</text><text fill="#000000" font-family="sans-serif" font-size="14" lengthAdjust="spacing" textLength="157.9854" x="2644.83" y="389.9695">int | None run_number</text><text fill="#000000" font-family="sans-serif" font-size="14" lengthAdjust="spacing" textLength="282.3516" x="2644.83" y="406.2664">ApertureValue | None selected_aperture</text><text fill="#000000" font-family="sans-serif" font-size="14" lengthAdjust="spacing" textLength="159.2979" x="2644.83" y="422.5632">float transmission_frac</text><text fill="#000000" font-family="sans-serif" font-size="14" lengthAdjust="spacing" textLength="320.332" x="2644.83" y="438.8601">IspybExperimentType ispyb_experiment_type</text><text fill="#000000" font-family="sans-serif" font-size="14" lengthAdjust="spacing" textLength="146.1113" x="2644.83" y="455.157">str storage_directory</text><text fill="#000000" font-family="sans-serif" font-size="14" lengthAdjust="spacing" textLength="131.0518" x="2644.83" y="471.4539">bool use_roi_mode</text><line style="stroke:#181818;stroke-width:0.5;" x1="2639.83" x2="2970.162" y1="478.7556" y2="478.7556"/></g><!--class SpecifiedThreeDGridScan--><g class="entity" data-entity="SpecifiedThreeDGridScan" data-source-line="79" data-uid="ent0018" id="entity_SpecifiedThreeDGridScan"><rect fill="#F1F1F1" height="227.2656" rx="2.5" ry="2.5" style="stroke:#181818;stroke-width:0.5;" width="210.8965" x="2638.55" y="860.5369"/><ellipse cx="2653.55" cy="876.5369" fill="#ADD1B2" rx="11" ry="11" style="stroke:#181818;stroke-width:1;"/><path d="M2656.5188,882.1775 Q2655.9406,882.4744 2655.3,882.615 Q2654.6594,882.7713 2653.9563,882.7713 Q2651.4563,882.7713 2650.1281,881.1306 Q2648.8156,879.4744 2648.8156,876.3494 Q2648.8156,873.2244 2650.1281,871.5681 Q2651.4563,869.9119 2653.9563,869.9119 Q2654.6594,869.9119 2655.3,870.0681 Q2655.9563,870.2244 2656.5188,870.5213 L2656.5188,873.24 Q2655.8938,872.6619 2655.3,872.3963 Q2654.7063,872.115 2654.0813,872.115 Q2652.7375,872.115 2652.05,873.1931 Q2651.3625,874.2556 2651.3625,876.3494 Q2651.3625,878.4431 2652.05,879.5213 Q2652.7375,880.5838 2654.0813,880.5838 Q2654.7063,880.5838 2655.3,880.3181 Q2655.8938,880.0369 2656.5188,879.4588 L2656.5188,882.1775 Z " fill="#000000"/><text fill="#000000" font-family="sans-serif" font-size="14" lengthAdjust="spacing" textLength="178.8965" x="2667.55" y="881.3836">SpecifiedThreeDGridScan</text><line style="stroke:#181818;stroke-width:0.5;" x1="2639.55" x2="2848.4465" y1="892.5369" y2="892.5369"/><text fill="#000000" font-family="sans-serif" font-size="14" lengthAdjust="spacing" textLength="160.8975" x="2644.55" y="909.532">float grid1_omega_deg</text><text fill="#000000" font-family="sans-serif" font-size="14" lengthAdjust="spacing" textLength="160.8975" x="2644.55" y="925.8289">float grid2_omega_deg</text><text fill="#000000" font-family="sans-serif" font-size="14" lengthAdjust="spacing" textLength="145.127" x="2644.55" y="942.1257">float x_step_size_um</text><text fill="#000000" font-family="sans-serif" font-size="14" lengthAdjust="spacing" textLength="145.127" x="2644.55" y="958.4226">float y_step_size_um</text><text fill="#000000" font-family="sans-serif" font-size="14" lengthAdjust="spacing" textLength="144.1904" x="2644.55" y="974.7195">float z_step_size_um</text><text fill="#000000" font-family="sans-serif" font-size="14" lengthAdjust="spacing" textLength="122.2129" x="2644.55" y="991.0164">float y2_start_um</text><text fill="#000000" font-family="sans-serif" font-size="14" lengthAdjust="spacing" textLength="121.2764" x="2644.55" y="1007.3132">float z2_start_um</text><text fill="#000000" font-family="sans-serif" font-size="14" lengthAdjust="spacing" textLength="75.5645" x="2644.55" y="1023.6101">int x_steps</text><text fill="#000000" font-family="sans-serif" font-size="14" lengthAdjust="spacing" textLength="75.5645" x="2644.55" y="1039.907">int y_steps</text><text fill="#000000" font-family="sans-serif" font-size="14" lengthAdjust="spacing" textLength="74.6279" x="2644.55" y="1056.2039">int z_steps</text><text fill="#000000" font-family="sans-serif" font-size="14" lengthAdjust="spacing" textLength="154.4102" x="2644.55" y="1072.5007">bool _set_stub_offsets</text><line style="stroke:#181818;stroke-width:0.5;" x1="2639.55" x2="2848.4465" y1="1079.8025" y2="1079.8025"/></g><!--class MxBlueskyParameters--><g class="entity" data-entity="MxBlueskyParameters" data-source-line="92" data-uid="ent0019" id="entity_MxBlueskyParameters"><rect fill="#F1F1F1" height="64.2969" rx="2.5" ry="2.5" style="stroke:#181818;stroke-width:0.5;" width="317.4639" x="2651.27" y="118.8969"/><ellipse cx="2727.8564" cy="134.8969" fill="#ADD1B2" rx="11" ry="11" style="stroke:#181818;stroke-width:1;"/><path d="M2730.8252,140.5375 Q2730.2471,140.8344 2729.6064,140.975 Q2728.9658,141.1312 2728.2627,141.1312 Q2725.7627,141.1312 2724.4346,139.4906 Q2723.1221,137.8344 2723.1221,134.7094 Q2723.1221,131.5844 2724.4346,129.9281 Q2725.7627,128.2719 2728.2627,128.2719 Q2728.9658,128.2719 2729.6064,128.4281 Q2730.2627,128.5844 2730.8252,128.8812 L2730.8252,131.6 Q2730.2002,131.0219 2729.6064,130.7562 Q2729.0127,130.475 2728.3877,130.475 Q2727.0439,130.475 2726.3564,131.5531 Q2725.6689,132.6156 2725.6689,134.7094 Q2725.6689,136.8031 2726.3564,137.8812 Q2727.0439,138.9437 2728.3877,138.9437 Q2729.0127,138.9437 2729.6064,138.6781 Q2730.2002,138.3969 2730.8252,137.8187 L2730.8252,140.5375 Z " fill="#000000"/><text fill="#000000" font-family="sans-serif" font-size="14" lengthAdjust="spacing" textLength="155.791" x="2748.3564" y="139.7436">MxBlueskyParameters</text><line style="stroke:#181818;stroke-width:0.5;" x1="2652.27" x2="2967.7339" y1="150.8969" y2="150.8969"/><text fill="#000000" font-family="sans-serif" font-size="14" lengthAdjust="spacing" textLength="305.4639" x="2657.27" y="167.892">SemanticVersion parameter_model_version</text><line style="stroke:#181818;stroke-width:0.5;" x1="2652.27" x2="2967.7339" y1="175.1937" y2="175.1937"/></g><!--class PinTipCentreThenXrayCentre--><g class="entity" data-entity="PinTipCentreThenXrayCentre" data-source-line="98" data-uid="ent0021" id="entity_PinTipCentreThenXrayCentre"><rect fill="#F1F1F1" height="64.2969" rx="2.5" ry="2.5" style="stroke:#181818;stroke-width:0.5;" width="235.8955" x="3426.05" y="1147.7969"/><ellipse cx="3441.05" cy="1163.7969" fill="#ADD1B2" rx="11" ry="11" style="stroke:#181818;stroke-width:1;"/><path d="M3444.0188,1169.4375 Q3443.4406,1169.7344 3442.8,1169.875 Q3442.1594,1170.0313 3441.4563,1170.0313 Q3438.9563,1170.0313 3437.6281,1168.3906 Q3436.3156,1166.7344 3436.3156,1163.6094 Q3436.3156,1160.4844 3437.6281,1158.8281 Q3438.9563,1157.1719 3441.4563,1157.1719 Q3442.1594,1157.1719 3442.8,1157.3281 Q3443.4563,1157.4844 3444.0188,1157.7813 L3444.0188,1160.5 Q3443.3938,1159.9219 3442.8,1159.6563 Q3442.2063,1159.375 3441.5813,1159.375 Q3440.2375,1159.375 3439.55,1160.4531 Q3438.8625,1161.5156 3438.8625,1163.6094 Q3438.8625,1165.7031 3439.55,1166.7813 Q3440.2375,1167.8438 3441.5813,1167.8438 Q3442.2063,1167.8438 3442.8,1167.5781 Q3443.3938,1167.2969 3444.0188,1166.7188 L3444.0188,1169.4375 Z " fill="#000000"/><text fill="#000000" font-family="sans-serif" font-size="14" lengthAdjust="spacing" textLength="203.8955" x="3455.05" y="1168.6436">PinTipCentreThenXrayCentre</text><line style="stroke:#181818;stroke-width:0.5;" x1="3427.05" x2="3660.9455" y1="1179.7969" y2="1179.7969"/><text fill="#000000" font-family="sans-serif" font-size="14" lengthAdjust="spacing" textLength="130.498" x="3432.05" y="1196.792">float tip_offset_um</text><line style="stroke:#181818;stroke-width:0.5;" x1="3427.05" x2="3660.9455" y1="1204.0938" y2="1204.0938"/></g><!--class MultiRotationScan--><g class="entity" data-entity="MultiRotationScan" data-source-line="101" data-uid="ent0022" id="entity_MultiRotationScan"><rect fill="#F1F1F1" height="64.2969" rx="2.5" ry="2.5" style="stroke:#181818;stroke-width:0.5;" width="540.001" x="4206" y="1147.7969"/><ellipse cx="4408.0327" cy="1163.7969" fill="#ADD1B2" rx="11" ry="11" style="stroke:#181818;stroke-width:1;"/><path d="M4411.0015,1169.4375 Q4410.4233,1169.7344 4409.7827,1169.875 Q4409.1421,1170.0313 4408.439,1170.0313 Q4405.939,1170.0313 4404.6108,1168.3906 Q4403.2983,1166.7344 4403.2983,1163.6094 Q4403.2983,1160.4844 4404.6108,1158.8281 Q4405.939,1157.1719 4408.439,1157.1719 Q4409.1421,1157.1719 4409.7827,1157.3281 Q4410.439,1157.4844 4411.0015,1157.7813 L4411.0015,1160.5 Q4410.3765,1159.9219 4409.7827,1159.6563 Q4409.189,1159.375 4408.564,1159.375 Q4407.2202,1159.375 4406.5327,1160.4531 Q4405.8452,1161.5156 4405.8452,1163.6094 Q4405.8452,1165.7031 4406.5327,1166.7813 Q4407.2202,1167.8438 4408.564,1167.8438 Q4409.189,1167.8438 4409.7827,1167.5781 Q4410.3765,1167.2969 4411.0015,1166.7188 L4411.0015,1169.4375 Z " fill="#000000"/><text fill="#000000" font-family="sans-serif" font-size="14" lengthAdjust="spacing" textLength="127.4355" x="4428.5327" y="1168.6436">MultiRotationScan</text><line style="stroke:#181818;stroke-width:0.5;" x1="4207" x2="4745.001" y1="1179.7969" y2="1179.7969"/><line style="stroke:#181818;stroke-width:0.5;" x1="4207" x2="4745.001" y1="1187.7969" y2="1187.7969"/><text fill="#000000" font-family="sans-serif" font-size="14" lengthAdjust="spacing" textLength="528.001" x="4212" y="1204.792">Annotated[list[RotationScanPerSweep], Len(min_length=1)] rotation_scans</text></g><!--class LoadCentreCollect--><g class="entity" data-entity="LoadCentreCollect" data-source-line="104" data-uid="ent0023" id="entity_LoadCentreCollect"><rect fill="#F1F1F1" height="80.5938" rx="2.5" ry="2.5" style="stroke:#181818;stroke-width:0.5;" width="338.6211" x="4451.69" y="933.8669"/><ellipse cx="4552.315" cy="949.8669" fill="#ADD1B2" rx="11" ry="11" style="stroke:#181818;stroke-width:1;"/><path d="M4555.2838,955.5075 Q4554.7056,955.8044 4554.065,955.945 Q4553.4244,956.1012 4552.7213,956.1012 Q4550.2213,956.1012 4548.8931,954.4606 Q4547.5806,952.8044 4547.5806,949.6794 Q4547.5806,946.5544 4548.8931,944.8981 Q4550.2213,943.2419 4552.7213,943.2419 Q4553.4244,943.2419 4554.065,943.3981 Q4554.7213,943.5544 4555.2838,943.8512 L4555.2838,946.57 Q4554.6588,945.9919 4554.065,945.7262 Q4553.4713,945.445 4552.8463,945.445 Q4551.5025,945.445 4550.815,946.5231 Q4550.1275,947.5856 4550.1275,949.6794 Q4550.1275,951.7731 4550.815,952.8512 Q4551.5025,953.9137 4552.8463,953.9137 Q4553.4713,953.9137 4554.065,953.6481 Q4554.6588,953.3669 4555.2838,952.7887 L4555.2838,955.5075 Z " fill="#000000"/><text fill="#000000" font-family="sans-serif" font-size="14" lengthAdjust="spacing" textLength="128.8711" x="4572.815" y="954.7136">LoadCentreCollect</text><line style="stroke:#181818;stroke-width:0.5;" x1="4452.69" x2="4789.3111" y1="965.8669" y2="965.8669"/><text fill="#000000" font-family="sans-serif" font-size="14" lengthAdjust="spacing" textLength="326.6211" x="4457.69" y="982.862">RobotLoadThenCentre robot_load_then_centre</text><text fill="#000000" font-family="sans-serif" font-size="14" lengthAdjust="spacing" textLength="269.3154" x="4457.69" y="999.1589">MultiRotationScan multi_rotation_scan</text><line style="stroke:#181818;stroke-width:0.5;" x1="4452.69" x2="4789.3111" y1="1006.4606" y2="1006.4606"/></g><!--class GridCommonWithHyperionDetectorParams--><g class="entity" data-entity="GridCommonWithHyperionDetectorParams" data-source-line="108" data-uid="ent0024" id="entity_GridCommonWithHyperionDetectorParams"><rect fill="#F1F1F1" height="48" rx="2.5" ry="2.5" style="stroke:#181818;stroke-width:0.5;" width="333.2188" x="3333.39" y="950.1669"/><ellipse cx="3348.39" cy="966.1669" fill="#ADD1B2" rx="11" ry="11" style="stroke:#181818;stroke-width:1;"/><path d="M3351.3588,971.8075 Q3350.7806,972.1044 3350.14,972.245 Q3349.4994,972.4012 3348.7963,972.4012 Q3346.2963,972.4012 3344.9681,970.7606 Q3343.6556,969.1044 3343.6556,965.9794 Q3343.6556,962.8544 3344.9681,961.1981 Q3346.2963,959.5419 3348.7963,959.5419 Q3349.4994,959.5419 3350.14,959.6981 Q3350.7963,959.8544 3351.3588,960.1512 L3351.3588,962.87 Q3350.7338,962.2919 3350.14,962.0262 Q3349.5463,961.745 3348.9213,961.745 Q3347.5775,961.745 3346.89,962.8231 Q3346.2025,963.8856 3346.2025,965.9794 Q3346.2025,968.0731 3346.89,969.1512 Q3347.5775,970.2137 3348.9213,970.2137 Q3349.5463,970.2137 3350.14,969.9481 Q3350.7338,969.6669 3351.3588,969.0887 L3351.3588,971.8075 Z " fill="#000000"/><text fill="#000000" font-family="sans-serif" font-size="14" lengthAdjust="spacing" textLength="301.2188" x="3362.39" y="971.0136">GridCommonWithHyperionDetectorParams</text><line style="stroke:#181818;stroke-width:0.5;" x1="3334.39" x2="3665.6088" y1="982.1669" y2="982.1669"/><line style="stroke:#181818;stroke-width:0.5;" x1="3334.39" x2="3665.6088" y1="990.1669" y2="990.1669"/></g><!--class GridScanWithEdgeDetect--><g class="entity" data-entity="GridScanWithEdgeDetect" data-source-line="110" data-uid="ent0025" id="entity_GridScanWithEdgeDetect"><rect fill="#F1F1F1" height="48" rx="2.5" ry="2.5" style="stroke:#181818;stroke-width:0.5;" width="209.4268" x="3873.29" y="1155.9469"/><ellipse cx="3888.29" cy="1171.9469" fill="#ADD1B2" rx="11" ry="11" style="stroke:#181818;stroke-width:1;"/><path d="M3891.2588,1177.5875 Q3890.6806,1177.8844 3890.04,1178.025 Q3889.3994,1178.1812 3888.6963,1178.1812 Q3886.1963,1178.1812 3884.8681,1176.5406 Q3883.5556,1174.8844 3883.5556,1171.7594 Q3883.5556,1168.6344 3884.8681,1166.9781 Q3886.1963,1165.3219 3888.6963,1165.3219 Q3889.3994,1165.3219 3890.04,1165.4781 Q3890.6963,1165.6344 3891.2588,1165.9312 L3891.2588,1168.65 Q3890.6338,1168.0719 3890.04,1167.8062 Q3889.4463,1167.525 3888.8213,1167.525 Q3887.4775,1167.525 3886.79,1168.6031 Q3886.1025,1169.6656 3886.1025,1171.7594 Q3886.1025,1173.8531 3886.79,1174.9312 Q3887.4775,1175.9937 3888.8213,1175.9937 Q3889.4463,1175.9937 3890.04,1175.7281 Q3890.6338,1175.4469 3891.2588,1174.8687 L3891.2588,1177.5875 Z " fill="#000000"/><text fill="#000000" font-family="sans-serif" font-size="14" lengthAdjust="spacing" textLength="177.4268" x="3902.29" y="1176.7936">GridScanWithEdgeDetect</text><line style="stroke:#181818;stroke-width:0.5;" x1="3874.29" x2="4081.7168" y1="1187.9469" y2="1187.9469"/><line style="stroke:#181818;stroke-width:0.5;" x1="3874.29" x2="4081.7168" y1="1195.9469" y2="1195.9469"/></g><!--class RotationExperiment--><g class="entity" data-entity="RotationExperiment" data-source-line="112" data-uid="ent0026" id="entity_RotationExperiment"><rect fill="#F1F1F1" height="96.8906" rx="2.5" ry="2.5" style="stroke:#181818;stroke-width:0.5;" width="332.332" x="3701.83" y="925.7269"/><ellipse cx="3793.7118" cy="941.7269" fill="#ADD1B2" rx="11" ry="11" style="stroke:#181818;stroke-width:1;"/><path d="M3796.6806,947.3675 Q3796.1025,947.6644 3795.4618,947.805 Q3794.8212,947.9613 3794.1181,947.9613 Q3791.6181,947.9613 3790.29,946.3206 Q3788.9775,944.6644 3788.9775,941.5394 Q3788.9775,938.4144 3790.29,936.7581 Q3791.6181,935.1019 3794.1181,935.1019 Q3794.8212,935.1019 3795.4618,935.2581 Q3796.1181,935.4144 3796.6806,935.7113 L3796.6806,938.43 Q3796.0556,937.8519 3795.4618,937.5863 Q3794.8681,937.305 3794.2431,937.305 Q3792.8993,937.305 3792.2118,938.3831 Q3791.5243,939.4456 3791.5243,941.5394 Q3791.5243,943.6331 3792.2118,944.7113 Q3792.8993,945.7738 3794.2431,945.7738 Q3794.8681,945.7738 3795.4618,945.5081 Q3796.0556,945.2269 3796.6806,944.6488 L3796.6806,947.3675 Z " fill="#000000"/><text fill="#000000" font-family="sans-serif" font-size="14" lengthAdjust="spacing" textLength="140.0684" x="3814.2118" y="946.5736">RotationExperiment</text><line style="stroke:#181818;stroke-width:0.5;" x1="3702.83" x2="4033.162" y1="957.7269" y2="957.7269"/><text fill="#000000" font-family="sans-serif" font-size="14" lengthAdjust="spacing" textLength="202.8018" x="3707.83" y="974.722">float shutter_opening_time_s</text><text fill="#000000" font-family="sans-serif" font-size="14" lengthAdjust="spacing" textLength="202.9385" x="3707.83" y="991.0189">float rotation_increment_deg</text><text fill="#000000" font-family="sans-serif" font-size="14" lengthAdjust="spacing" textLength="320.332" x="3707.83" y="1007.3157">IspybExperimentType ispyb_experiment_type</text><line style="stroke:#181818;stroke-width:0.5;" x1="3702.83" x2="4033.162" y1="1014.6175" y2="1014.6175"/></g><!--class HyperionSpecifiedThreeDGridScan--><g class="entity" data-entity="HyperionSpecifiedThreeDGridScan" data-source-line="117" data-uid="ent0027" id="entity_HyperionSpecifiedThreeDGridScan"><rect fill="#F1F1F1" height="48" rx="2.5" ry="2.5" style="stroke:#181818;stroke-width:0.5;" width="274.293" x="4068.85" y="950.1669"/><ellipse cx="4083.85" cy="966.1669" fill="#ADD1B2" rx="11" ry="11" style="stroke:#181818;stroke-width:1;"/><path d="M4086.8188,971.8075 Q4086.2406,972.1044 4085.6,972.245 Q4084.9594,972.4012 4084.2563,972.4012 Q4081.7563,972.4012 4080.4281,970.7606 Q4079.1156,969.1044 4079.1156,965.9794 Q4079.1156,962.8544 4080.4281,961.1981 Q4081.7563,959.5419 4084.2563,959.5419 Q4084.9594,959.5419 4085.6,959.6981 Q4086.2563,959.8544 4086.8188,960.1512 L4086.8188,962.87 Q4086.1938,962.2919 4085.6,962.0262 Q4085.0063,961.745 4084.3813,961.745 Q4083.0375,961.745 4082.35,962.8231 Q4081.6625,963.8856 4081.6625,965.9794 Q4081.6625,968.0731 4082.35,969.1512 Q4083.0375,970.2137 4084.3813,970.2137 Q4085.0063,970.2137 4085.6,969.9481 Q4086.1938,969.6669 4086.8188,969.0887 L4086.8188,971.8075 Z " fill="#000000"/><text fill="#000000" font-family="sans-serif" font-size="14" lengthAdjust="spacing" textLength="242.293" x="4097.85" y="971.0136">HyperionSpecifiedThreeDGridScan</text><line style="stroke:#181818;stroke-width:0.5;" x1="4069.85" x2="4342.143" y1="982.1669" y2="982.1669"/><line style="stroke:#181818;stroke-width:0.5;" x1="4069.85" x2="4342.143" y1="990.1669" y2="990.1669"/></g><!--class RotationScanPerSweep--><g class="entity" data-entity="RotationScanPerSweep" data-source-line="119" data-uid="ent0028" id="entity_RotationScanPerSweep"><rect fill="#F1F1F1" height="129.4844" rx="2.5" ry="2.5" style="stroke:#181818;stroke-width:0.5;" width="263.0498" x="3035.48" y="909.4269"/><ellipse cx="3081.5166" cy="925.4269" fill="#ADD1B2" rx="11" ry="11" style="stroke:#181818;stroke-width:1;"/><path d="M3084.4854,931.0675 Q3083.9072,931.3644 3083.2666,931.505 Q3082.626,931.6612 3081.9229,931.6612 Q3079.4229,931.6612 3078.0947,930.0206 Q3076.7822,928.3644 3076.7822,925.2394 Q3076.7822,922.1144 3078.0947,920.4581 Q3079.4229,918.8019 3081.9229,918.8019 Q3082.626,918.8019 3083.2666,918.9581 Q3083.9229,919.1144 3084.4854,919.4112 L3084.4854,922.13 Q3083.8604,921.5519 3083.2666,921.2862 Q3082.6729,921.005 3082.0479,921.005 Q3080.7041,921.005 3080.0166,922.0831 Q3079.3291,923.1456 3079.3291,925.2394 Q3079.3291,927.3331 3080.0166,928.4112 Q3080.7041,929.4737 3082.0479,929.4737 Q3082.6729,929.4737 3083.2666,929.2081 Q3083.8604,928.9269 3084.4854,928.3487 L3084.4854,931.0675 Z " fill="#000000"/><text fill="#000000" font-family="sans-serif" font-size="14" lengthAdjust="spacing" textLength="162.4766" x="3102.0166" y="930.2736">RotationScanPerSweep</text><line style="stroke:#181818;stroke-width:0.5;" x1="3036.48" x2="3297.5298" y1="941.4269" y2="941.4269"/><text fill="#000000" font-family="sans-serif" font-size="14" lengthAdjust="spacing" textLength="157.1787" x="3041.48" y="958.422">float omega_start_deg</text><text fill="#000000" font-family="sans-serif" font-size="14" lengthAdjust="spacing" textLength="182.9297" x="3041.48" y="974.7189">RotationAxis rotation_axis</text><text fill="#000000" font-family="sans-serif" font-size="14" lengthAdjust="spacing" textLength="147.3213" x="3041.48" y="991.0157">float scan_width_deg</text><text fill="#000000" font-family="sans-serif" font-size="14" lengthAdjust="spacing" textLength="251.0498" x="3041.48" y="1007.3126">RotationDirection rotation_direction</text><text fill="#000000" font-family="sans-serif" font-size="14" lengthAdjust="spacing" textLength="169.1279" x="3041.48" y="1023.6095">int nexus_vds_start_img</text><line style="stroke:#181818;stroke-width:0.5;" x1="3036.48" x2="3297.5298" y1="1030.9112" y2="1030.9112"/></g><!--class WithHyperionUDCFeatures--><g class="entity" data-entity="WithHyperionUDCFeatures" data-source-line="126" data-uid="ent0029" id="entity_WithHyperionUDCFeatures"><rect fill="#F1F1F1" height="64.2969" rx="2.5" ry="2.5" style="stroke:#181818;stroke-width:0.5;" width="228.6719" x="4093.66" y="695.4969"/><ellipse cx="4112.7583" cy="711.4969" fill="#ADD1B2" rx="11" ry="11" style="stroke:#181818;stroke-width:1;"/><path d="M4115.7271,717.1375 Q4115.149,717.4344 4114.5083,717.575 Q4113.8677,717.7312 4113.1646,717.7312 Q4110.6646,717.7312 4109.3365,716.0906 Q4108.024,714.4344 4108.024,711.3094 Q4108.024,708.1844 4109.3365,706.5281 Q4110.6646,704.8719 4113.1646,704.8719 Q4113.8677,704.8719 4114.5083,705.0281 Q4115.1646,705.1844 4115.7271,705.4812 L4115.7271,708.2 Q4115.1021,707.6219 4114.5083,707.3562 Q4113.9146,707.075 4113.2896,707.075 Q4111.9458,707.075 4111.2583,708.1531 Q4110.5708,709.2156 4110.5708,711.3094 Q4110.5708,713.4031 4111.2583,714.4812 Q4111.9458,715.5437 4113.2896,715.5437 Q4113.9146,715.5437 4114.5083,715.2781 Q4115.1021,714.9969 4115.7271,714.4187 L4115.7271,717.1375 Z " fill="#000000"/><text fill="#000000" font-family="sans-serif" font-size="14" lengthAdjust="spacing" textLength="187.5645" x="4127.6691" y="716.3436">WithHyperionUDCFeatures</text><line style="stroke:#181818;stroke-width:0.5;" x1="4094.66" x2="4321.3319" y1="727.4969" y2="727.4969"/><text fill="#000000" font-family="sans-serif" font-size="14" lengthAdjust="spacing" textLength="216.6719" x="4099.66" y="744.492">HyperionFeatureFlags features</text><line style="stroke:#181818;stroke-width:0.5;" x1="4094.66" x2="4321.3319" y1="751.7937" y2="751.7937"/></g><!--class RotationScan--><g class="entity" data-entity="RotationScan" data-source-line="129" data-uid="ent0030" id="entity_RotationScan"><rect fill="#F1F1F1" height="48" rx="2.5" ry="2.5" style="stroke:#181818;stroke-width:0.5;" width="125.2148" x="3104.39" y="1155.9469"/><ellipse cx="3119.39" cy="1171.9469" fill="#ADD1B2" rx="11" ry="11" style="stroke:#181818;stroke-width:1;"/><path d="M3122.3588,1177.5875 Q3121.7806,1177.8844 3121.14,1178.025 Q3120.4994,1178.1812 3119.7963,1178.1812 Q3117.2963,1178.1812 3115.9681,1176.5406 Q3114.6556,1174.8844 3114.6556,1171.7594 Q3114.6556,1168.6344 3115.9681,1166.9781 Q3117.2963,1165.3219 3119.7963,1165.3219 Q3120.4994,1165.3219 3121.14,1165.4781 Q3121.7963,1165.6344 3122.3588,1165.9312 L3122.3588,1168.65 Q3121.7338,1168.0719 3121.14,1167.8062 Q3120.5463,1167.525 3119.9213,1167.525 Q3118.5775,1167.525 3117.89,1168.6031 Q3117.2025,1169.6656 3117.2025,1171.7594 Q3117.2025,1173.8531 3117.89,1174.9312 Q3118.5775,1175.9937 3119.9213,1175.9937 Q3120.5463,1175.9937 3121.14,1175.7281 Q3121.7338,1175.4469 3122.3588,1174.8687 L3122.3588,1177.5875 Z " fill="#000000"/><text fill="#000000" font-family="sans-serif" font-size="14" lengthAdjust="spacing" textLength="93.2148" x="3133.39" y="1176.7936">RotationScan</text><line style="stroke:#181818;stroke-width:0.5;" x1="3105.39" x2="3228.6048" y1="1187.9469" y2="1187.9469"/><line style="stroke:#181818;stroke-width:0.5;" x1="3105.39" x2="3228.6048" y1="1195.9469" y2="1195.9469"/></g><!--reverse link GridCommonWithHyperionDetectorParams to PinTipCentreThenXrayCentre--><g class="link" data-entity-1="GridCommonWithHyperionDetectorParams" data-entity-2="PinTipCentreThenXrayCentre" data-source-line="132" data-uid="lnk31" id="link_GridCommonWithHyperionDetectorParams_PinTipCentreThenXrayCentre"><path codeLine="132" d="M3508.848,1016.1416 C3516.768,1052.8316 3528.34,1106.4069 3537.22,1147.5369 " fill="none" id="GridCommonWithHyperionDetectorParams-backto-PinTipCentreThenXrayCentre" style="stroke:#181818;stroke-width:1;"/><polygon fill="none" points="3505.05,998.5469,3502.9831,1017.4076,3514.713,1014.8756,3505.05,998.5469" style="stroke:#181818;stroke-width:1;"/></g><!--reverse link WithHyperionUDCFeatures to PinTipCentreThenXrayCentre--><g class="link" data-entity-1="WithHyperionUDCFeatures" data-entity-2="PinTipCentreThenXrayCentre" data-source-line="133" data-uid="lnk32" id="link_WithHyperionUDCFeatures_PinTipCentreThenXrayCentre"><path codeLine="133" d="M4279.6894,769.9466 C4314.5594,792.7766 4341.2,817.3369 4361,860.5369 C4373,886.7269 4380.8,1098.8769 4361,1119.7969 C4341.69,1140.2069 3884.01,1145.6269 3856,1147.7969 C3791.96,1152.7669 3720.67,1159.7769 3662.41,1165.8869 " fill="none" id="WithHyperionUDCFeatures-backto-PinTipCentreThenXrayCentre" style="stroke:#181818;stroke-width:1;"/><polygon fill="none" points="4264.63,760.0869,4276.4029,774.9664,4282.976,764.9267,4264.63,760.0869" style="stroke:#181818;stroke-width:1;"/></g><!--reverse link RotationExperiment to MultiRotationScan--><g class="link" data-entity-1="RotationExperiment" data-entity-2="MultiRotationScan" data-source-line="134" data-uid="lnk33" id="link_RotationExperiment_MultiRotationScan"><path codeLine="134" d="M3926.854,1035.3411 C3961.344,1068.1911 3998.49,1097.3769 4051,1119.7969 C4081.06,1132.6369 4140.45,1143.6169 4205.52,1152.5169 " fill="none" id="RotationExperiment-backto-MultiRotationScan" style="stroke:#181818;stroke-width:1;"/><polygon fill="none" points="3913.82,1022.9269,3922.7159,1039.6858,3930.9921,1030.9965,3913.82,1022.9269" style="stroke:#181818;stroke-width:1;"/></g><!--reverse link SplitScan to MultiRotationScan--><g class="link" data-entity-1="SplitScan" data-entity-2="MultiRotationScan" data-source-line="135" data-uid="lnk34" id="link_SplitScan_MultiRotationScan"><path codeLine="135" d="M1248.1755,189.274 C1260.0855,203.794 1266.05,207.3369 1286,215.7869 C1469.85,293.6669 2884.95,243.5469 3082,275.7869 C3881.31,406.5569 4366.68,181.3869 4808,860.5369 C4870.79,957.1569 4881.99,1031.4669 4808,1119.7969 C4797.24,1132.6469 4774.69,1142.7069 4746.16,1150.5869 " fill="none" id="SplitScan-backto-MultiRotationScan" style="stroke:#181818;stroke-width:1;"/><polygon fill="none" points="1236.76,175.3569,1243.5365,193.0792,1252.8145,185.4688,1236.76,175.3569" style="stroke:#181818;stroke-width:1;"/></g><!--reverse link MxBlueskyParameters to LoadCentreCollect--><g class="link" data-entity-1="MxBlueskyParameters" data-entity-2="LoadCentreCollect" data-source-line="136" data-uid="lnk35" id="link_MxBlueskyParameters_LoadCentreCollect"><path codeLine="136" d="M2986.9592,153.1055 C3383.9592,156.8255 4377.14,175.9469 4489,275.7869 C4683.67,449.5269 4646.61,812.9769 4627.98,933.4369 " fill="none" id="MxBlueskyParameters-backto-LoadCentreCollect" style="stroke:#181818;stroke-width:1;"/><polygon fill="none" points="2968.96,152.9369,2986.903,159.1053,2987.0154,147.1058,2968.96,152.9369" style="stroke:#181818;stroke-width:1;"/></g><!--reverse link WithVisit to LoadCentreCollect--><g class="link" data-entity-1="WithVisit" data-entity-2="LoadCentreCollect" data-source-line="137" data-uid="lnk36" id="link_WithVisit_LoadCentreCollect"><path codeLine="137" d="M1804.3829,216.1428 C1810.3929,217.8528 1799.07,214.4569 1805,215.7869 C2359.52,339.6069 2533.85,126.2369 3082,275.7869 C3563.95,407.2669 3606.15,630.8269 4076,800.5369 C4197.75,844.5069 4237.65,821.2769 4361,860.5369 C4422.99,880.2669 4490.32,909.6669 4540.93,933.4869 " fill="none" id="WithVisit-backto-LoadCentreCollect" style="stroke:#181818;stroke-width:1;"/><polygon fill="none" points="1787.07,211.2169,1802.7409,221.9138,1806.0248,210.3719,1787.07,211.2169" style="stroke:#181818;stroke-width:1;"/></g><!--reverse link WithSample to LoadCentreCollect--><g class="link" data-entity-1="WithSample" data-entity-2="LoadCentreCollect" data-source-line="138" data-uid="lnk37" id="link_WithSample_LoadCentreCollect"><path codeLine="138" d="M1476.552,208.4582 C1488.532,214.8482 1485.34,212.0169 1498,215.7869 C1835.58,316.3869 2734.5,218.1369 3082,275.7869 C3657.77,371.3069 3848.98,337.0069 4340,652.4969 C4370.75,672.2469 4521.3,852.3869 4588.5,933.6769 " fill="none" id="WithSample-backto-LoadCentreCollect" style="stroke:#181818;stroke-width:1;"/><polygon fill="none" points="1460.67,199.9869,1473.7282,213.7521,1479.3757,203.1642,1460.67,199.9869" style="stroke:#181818;stroke-width:1;"/></g><!--reverse link WithCentreSelection to LoadCentreCollect--><g class="link" data-entity-1="WithCentreSelection" data-entity-2="LoadCentreCollect" data-source-line="139" data-uid="lnk38" id="link_WithCentreSelection_LoadCentreCollect"><path codeLine="139" d="M2543.5464,190.7197 C2572.2764,203.1197 2590.35,208.8869 2623,215.7869 C2789.35,250.9069 4003.53,192.9369 4152,275.7869 C4423.38,427.2269 4567.85,809.4369 4608.72,933.5669 " fill="none" id="WithCentreSelection-backto-LoadCentreCollect" style="stroke:#181818;stroke-width:1;"/><polygon fill="none" points="2527.02,183.5869,2541.1688,196.2286,2545.924,185.2109,2527.02,183.5869" style="stroke:#181818;stroke-width:1;"/></g><!--reverse link WithHyperionUDCFeatures to LoadCentreCollect--><g class="link" data-entity-1="WithHyperionUDCFeatures" data-entity-2="LoadCentreCollect" data-source-line="140" data-uid="lnk39" id="link_WithHyperionUDCFeatures_LoadCentreCollect"><path codeLine="140" d="M4276.6383,769.2782 C4351.4683,813.5882 4472.38,885.1669 4554.04,933.5269 " fill="none" id="WithHyperionUDCFeatures-backto-LoadCentreCollect" style="stroke:#181818;stroke-width:1;"/><polygon fill="none" points="4261.15,760.1069,4273.5812,774.4409,4279.6954,764.1154,4261.15,760.1069" style="stroke:#181818;stroke-width:1;"/></g><!--reverse link GridCommon to GridCommonWithHyperionDetectorParams--><g class="link" data-entity-1="GridCommon" data-entity-2="GridCommonWithHyperionDetectorParams" data-source-line="141" data-uid="lnk40" id="link_GridCommon_GridCommonWithHyperionDetectorParams"><path codeLine="141" d="M2988.657,792.0806 C3004.647,796.9906 3003.48,796.3769 3019,800.5369 C3149.08,835.3769 3190.66,811.2969 3316,860.5369 C3374.04,883.3369 3434.42,924.1269 3469.54,949.8569 " fill="none" id="GridCommon-backto-GridCommonWithHyperionDetectorParams" style="stroke:#181818;stroke-width:1;"/><polygon fill="none" points="2971.45,786.7969,2986.8958,797.8163,2990.4183,786.3449,2971.45,786.7969" style="stroke:#181818;stroke-width:1;"/></g><!--reverse link WithHyperionUDCFeatures to GridCommonWithHyperionDetectorParams--><g class="link" data-entity-1="WithHyperionUDCFeatures" data-entity-2="GridCommonWithHyperionDetectorParams" data-source-line="142" data-uid="lnk41" id="link_WithHyperionUDCFeatures_GridCommonWithHyperionDetectorParams"><path codeLine="142" d="M4106.4829,766.2865 C4067.9729,779.9265 4038.55,789.2869 3996,800.5369 C3859.48,836.6269 3815.67,809.5169 3684,860.5369 C3625.85,883.0669 3565.51,923.9369 3530.42,949.7569 " fill="none" id="WithHyperionUDCFeatures-backto-GridCommonWithHyperionDetectorParams" style="stroke:#181818;stroke-width:1;"/><polygon fill="none" points="4123.45,760.2769,4104.4796,760.6308,4108.4861,771.9422,4123.45,760.2769" style="stroke:#181818;stroke-width:1;"/></g><!--reverse link GridCommonWithHyperionDetectorParams to GridScanWithEdgeDetect--><g class="link" data-entity-1="GridCommonWithHyperionDetectorParams" data-entity-2="GridScanWithEdgeDetect" data-source-line="143" data-uid="lnk42" id="link_GridCommonWithHyperionDetectorParams_GridScanWithEdgeDetect"><path codeLine="143" d="M3534.9724,1011.3103 C3567.3724,1043.8403 3618.15,1089.4069 3684,1119.7969 C3743.33,1147.1769 3815.14,1161.9269 3872.95,1169.8469 " fill="none" id="GridCommonWithHyperionDetectorParams-backto-GridScanWithEdgeDetect" style="stroke:#181818;stroke-width:1;"/><polygon fill="none" points="3522.27,998.5569,3530.7213,1015.5444,3539.2235,1007.0761,3522.27,998.5569" style="stroke:#181818;stroke-width:1;"/></g><!--reverse link WithHyperionUDCFeatures to GridScanWithEdgeDetect--><g class="link" data-entity-1="WithHyperionUDCFeatures" data-entity-2="GridScanWithEdgeDetect" data-source-line="144" data-uid="lnk43" id="link_WithHyperionUDCFeatures_GridScanWithEdgeDetect"><path codeLine="144" d="M4294.6621,768.8027 C4334.5921,790.7027 4365.14,815.4369 4388,860.5369 C4414.05,911.9269 4425.81,1076.3269 4388,1119.7969 C4358.55,1153.6669 4232.42,1141.3969 4188,1147.7969 C4153.89,1152.7169 4116.68,1158.1969 4083.19,1163.1769 " fill="none" id="WithHyperionUDCFeatures-backto-GridScanWithEdgeDetect" style="stroke:#181818;stroke-width:1;"/><polygon fill="none" points="4278.88,760.1469,4291.7768,774.0635,4297.5474,763.542,4278.88,760.1469" style="stroke:#181818;stroke-width:1;"/></g><!--reverse link DiffractionExperimentWithSample to GridCommon--><g class="link" data-entity-1="DiffractionExperimentWithSample" data-entity-2="GridCommon" data-source-line="145" data-uid="lnk44" id="link_DiffractionExperimentWithSample_GridCommon"><path codeLine="145" d="M2805,612.9369 C2805,628.8969 2805,633.0169 2805,654.5769 " fill="none" id="DiffractionExperimentWithSample-backto-GridCommon" style="stroke:#181818;stroke-width:1;"/><polygon fill="none" points="2805,594.9369,2799,612.9369,2811,612.9369,2805,594.9369" style="stroke:#181818;stroke-width:1;"/></g><!--reverse link OptionalGonioAngleStarts to GridCommon--><g class="link" data-entity-1="OptionalGonioAngleStarts" data-entity-2="GridCommon" data-source-line="146" data-uid="lnk45" id="link_OptionalGonioAngleStarts_GridCommon"><path codeLine="146" d="M828.4018,215.3851 C834.4618,218.0951 824.07,213.3469 830,215.7869 C1473.47,480.2969 2292.31,639.6669 2638.51,699.5069 " fill="none" id="OptionalGonioAngleStarts-backto-GridCommon" style="stroke:#181818;stroke-width:1;"/><polygon fill="none" points="811.97,208.0369,825.9524,220.8623,830.8512,209.9078,811.97,208.0369" style="stroke:#181818;stroke-width:1;"/></g><!--reverse link DiffractionExperimentWithSample to RotationExperiment--><g class="link" data-entity-1="DiffractionExperimentWithSample" data-entity-2="RotationExperiment" data-source-line="147" data-uid="lnk46" id="link_DiffractionExperimentWithSample_RotationExperiment"><path codeLine="147" d="M2917.5335,599.6971 C3081.7835,641.9071 3409.93,733.7269 3684,860.5369 C3723.43,878.7769 3764.91,903.6169 3798.48,925.3269 " fill="none" id="DiffractionExperimentWithSample-backto-RotationExperiment" style="stroke:#181818;stroke-width:1;"/><polygon fill="none" points="2900.1,595.2169,2916.0401,605.5082,2919.0269,593.8859,2900.1,595.2169" style="stroke:#181818;stroke-width:1;"/></g><!--reverse link WithHyperionUDCFeatures to RotationExperiment--><g class="link" data-entity-1="WithHyperionUDCFeatures" data-entity-2="RotationExperiment" data-source-line="148" data-uid="lnk47" id="link_WithHyperionUDCFeatures_RotationExperiment"><path codeLine="148" d="M4149.6366,770.6163 C4091.3466,812.5363 4002.3,876.5769 3934.36,925.4369 " fill="none" id="WithHyperionUDCFeatures-backto-RotationExperiment" style="stroke:#181818;stroke-width:1;"/><polygon fill="none" points="4164.25,760.1069,4146.1334,765.7452,4153.1397,775.4874,4164.25,760.1069" style="stroke:#181818;stroke-width:1;"/></g><!--reverse link GridCommon to SpecifiedThreeDGridScan--><g class="link" data-entity-1="GridCommon" data-entity-2="SpecifiedThreeDGridScan" data-source-line="149" data-uid="lnk48" id="link_GridCommon_SpecifiedThreeDGridScan"><path codeLine="149" d="M2782.591,818.4811 C2777.951,837.0711 2777.21,840.0569 2772.19,860.1669 " fill="none" id="GridCommon-backto-SpecifiedThreeDGridScan" style="stroke:#181818;stroke-width:1;"/><polygon fill="none" points="2786.95,801.0169,2776.7696,817.0281,2788.4124,819.9341,2786.95,801.0169" style="stroke:#181818;stroke-width:1;"/></g><!--reverse link SpecifiedGrid to SpecifiedThreeDGridScan--><g class="link" data-entity-1="SpecifiedGrid" data-entity-2="SpecifiedThreeDGridScan" data-source-line="150" data-uid="lnk49" id="link_SpecifiedGrid_SpecifiedThreeDGridScan"><path codeLine="150" d="M582.1954,416.8463 C672.4654,489.8563 951.02,703.9469 1235,800.5369 C1496.35,889.4169 2339.59,948.3869 2638.08,966.9169 " fill="none" id="SpecifiedGrid-backto-SpecifiedThreeDGridScan" style="stroke:#181818;stroke-width:1;"/><polygon fill="none" points="568.2,405.5269,578.4223,421.5114,585.9685,412.1812,568.2,405.5269" style="stroke:#181818;stroke-width:1;"/></g><!--reverse link SplitScan to SpecifiedThreeDGridScan--><g class="link" data-entity-1="SplitScan" data-entity-2="SpecifiedThreeDGridScan" data-source-line="151" data-uid="lnk50" id="link_SplitScan_SpecifiedThreeDGridScan"><path codeLine="151" d="M1255.1726,188.0501 C1267.6026,200.5101 1270.84,203.1169 1286,215.7869 C1444.05,347.8869 1483.6,383.7869 1662,486.7569 C2004.04,684.1669 2440.73,858.7469 2638.38,933.9369 " fill="none" id="SplitScan-backto-SpecifiedThreeDGridScan" style="stroke:#181818;stroke-width:1;"/><polygon fill="none" points="1242.46,175.3069,1250.9248,192.2877,1259.4203,183.8126,1242.46,175.3069" style="stroke:#181818;stroke-width:1;"/></g><!--reverse link WithOptionalEnergyChange to SpecifiedThreeDGridScan--><g class="link" data-entity-1="WithOptionalEnergyChange" data-entity-2="SpecifiedThreeDGridScan" data-source-line="152" data-uid="lnk51" id="link_WithOptionalEnergyChange_SpecifiedThreeDGridScan"><path codeLine="152" d="M430.6821,201.3671 C418.7221,263.9671 403.95,388.3969 460,486.7569 C583.8,704.0169 691.52,716.3969 927,800.5369 C1246,914.5169 2299.62,958.5269 2638.22,969.9369 " fill="none" id="WithOptionalEnergyChange-backto-SpecifiedThreeDGridScan" style="stroke:#181818;stroke-width:1;"/><polygon fill="none" points="434.06,183.6869,424.7887,200.2411,436.5755,202.493,434.06,183.6869" style="stroke:#181818;stroke-width:1;"/></g><!--reverse link WithHyperionUDCFeatures to HyperionSpecifiedThreeDGridScan--><g class="link" data-entity-1="WithHyperionUDCFeatures" data-entity-2="HyperionSpecifiedThreeDGridScan" data-source-line="153" data-uid="lnk52" id="link_WithHyperionUDCFeatures_HyperionSpecifiedThreeDGridScan"><path codeLine="153" d="M4207.5954,778.1063 C4207.1954,827.8963 4206.55,905.7169 4206.19,949.8569 " fill="none" id="WithHyperionUDCFeatures-backto-HyperionSpecifiedThreeDGridScan" style="stroke:#181818;stroke-width:1;"/><polygon fill="none" points="4207.74,760.1069,4201.5956,778.0581,4213.5952,778.1545,4207.74,760.1069" style="stroke:#181818;stroke-width:1;"/></g><!--reverse link SpecifiedThreeDGridScan to HyperionSpecifiedThreeDGridScan--><g class="link" data-entity-1="SpecifiedThreeDGridScan" data-entity-2="HyperionSpecifiedThreeDGridScan" data-source-line="154" data-uid="lnk53" id="link_SpecifiedThreeDGridScan_HyperionSpecifiedThreeDGridScan"><path codeLine="154" d="M2865.3731,898.9242 C2919.1131,868.9742 2971.06,845.7369 3036.5,830.5369 C3144.51,805.4469 3930.28,792.6569 4034.5,830.5369 C4100.02,854.3469 4157.97,915.3869 4186.76,949.7369 " fill="none" id="SpecifiedThreeDGridScan-backto-HyperionSpecifiedThreeDGridScan" style="stroke:#181818;stroke-width:1;"/><polygon fill="none" points="2849.65,907.6869,2868.294,904.1652,2862.4522,893.6832,2849.65,907.6869" style="stroke:#181818;stroke-width:1;"/></g><!--reverse link XyzStarts to SpecifiedGrid--><g class="link" data-entity-1="XyzStarts" data-entity-2="SpecifiedGrid" data-source-line="155" data-uid="lnk54" id="link_XyzStarts_SpecifiedGrid"><path codeLine="155" d="M299.3029,210.8448 C306.3029,216.2948 299.18,210.6769 306,215.7869 C375.56,267.8669 459.37,325.6069 505.44,356.9269 " fill="none" id="XyzStarts-backto-SpecifiedGrid" style="stroke:#181818;stroke-width:1;"/><polygon fill="none" points="285.1,199.7869,295.6169,215.5791,302.9889,206.1105,285.1,199.7869" style="stroke:#181818;stroke-width:1;"/></g><!--reverse link WithScan to SpecifiedGrid--><g class="link" data-entity-1="WithScan" data-entity-2="SpecifiedGrid" data-source-line="156" data-uid="lnk55" id="link_WithScan_SpecifiedGrid"><path codeLine="156" d="M111.9802,188.5538 C124.4302,201.6738 128.79,204.5569 146,215.7869 C202.96,252.9369 380.7,321.3369 476.8,357.1069 " fill="none" id="WithScan-backto-SpecifiedGrid" style="stroke:#181818;stroke-width:1;"/><polygon fill="none" points="99.59,175.4969,107.6279,192.6839,116.3325,184.4238,99.59,175.4969" style="stroke:#181818;stroke-width:1;"/></g><!--reverse link OptionalGonioAngleStarts to RotationScanPerSweep--><g class="link" data-entity-1="OptionalGonioAngleStarts" data-entity-2="RotationScanPerSweep" data-source-line="157" data-uid="lnk56" id="link_OptionalGonioAngleStarts_RotationScanPerSweep"><path codeLine="157" d="M822.4002,214.3465 C830.5302,217.3565 821.87,213.7369 830,215.7869 C946.26,245.0369 2893.26,201.0569 2987,275.7869 C3182.06,431.2769 3182.42,767.9469 3173.07,908.9769 " fill="none" id="OptionalGonioAngleStarts-backto-RotationScanPerSweep" style="stroke:#181818;stroke-width:1;"/><polygon fill="none" points="805.52,208.0969,820.317,219.9732,824.4834,208.7198,805.52,208.0969" style="stroke:#181818;stroke-width:1;"/></g><!--reverse link OptionalXyzStarts to RotationScanPerSweep--><g class="link" data-entity-1="OptionalXyzStarts" data-entity-2="RotationScanPerSweep" data-source-line="158" data-uid="lnk57" id="link_OptionalXyzStarts_RotationScanPerSweep"><path codeLine="158" d="M1994.1646,208.5179 C2005.9446,214.8679 2002.57,211.9569 2015,215.7869 C2136.42,253.2169 3068.88,184.2369 3157,275.7869 C3323.47,448.7369 3238.11,772.0469 3191.12,909.1169 " fill="none" id="OptionalXyzStarts-backto-RotationScanPerSweep" style="stroke:#181818;stroke-width:1;"/><polygon fill="none" points="1978.32,199.9769,1991.3176,213.7994,1997.0116,203.2364,1978.32,199.9769" style="stroke:#181818;stroke-width:1;"/></g><!--reverse link WithPandaGridScan to WithHyperionUDCFeatures--><g class="link" data-entity-1="WithPandaGridScan" data-entity-2="WithHyperionUDCFeatures" data-source-line="159" data-uid="lnk58" id="link_WithPandaGridScan_WithHyperionUDCFeatures"><path codeLine="159" d="M2223.9524,191.6805 C2248.5524,204.1605 2262.37,208.9869 2291,215.7869 C2483.1,261.4169 3909.9,156.1769 4067,275.7869 C4202.24,378.7469 4210.92,610.4969 4209.32,695.0269 " fill="none" id="WithPandaGridScan-backto-WithHyperionUDCFeatures" style="stroke:#181818;stroke-width:1;"/><polygon fill="none" points="2207.9,183.5369,2221.2379,197.0314,2226.667,186.3297,2207.9,183.5369" style="stroke:#181818;stroke-width:1;"/></g><!--reverse link DiffractionExperiment to DiffractionExperimentWithSample--><g class="link" data-entity-1="DiffractionExperiment" data-entity-2="DiffractionExperimentWithSample" data-source-line="160" data-uid="lnk59" id="link_DiffractionExperiment_DiffractionExperimentWithSample"><path codeLine="160" d="M2805,505.2469 C2805,527.5069 2805,530.9069 2805,546.3269 " fill="none" id="DiffractionExperiment-backto-DiffractionExperimentWithSample" style="stroke:#181818;stroke-width:1;"/><polygon fill="none" points="2805,487.2469,2799,505.2469,2811,505.2469,2805,487.2469" style="stroke:#181818;stroke-width:1;"/></g><!--reverse link WithSample to DiffractionExperimentWithSample--><g class="link" data-entity-1="WithSample" data-entity-2="DiffractionExperimentWithSample" data-source-line="161" data-uid="lnk60" id="link_WithSample_DiffractionExperimentWithSample"><path codeLine="161" d="M1481.6865,208.6612 C1492.2165,214.4612 1487.33,211.2369 1498,215.7869 C1909.16,391.0469 2430.5,501.2169 2671.58,546.3169 " fill="none" id="WithSample-backto-DiffractionExperimentWithSample" style="stroke:#181818;stroke-width:1;"/><polygon fill="none" points="1465.92,199.9769,1478.7917,213.9167,1484.5813,203.4057,1465.92,199.9769" style="stroke:#181818;stroke-width:1;"/></g><!--reverse link WithScan to RotationScan--><g class="link" data-entity-1="WithScan" data-entity-2="RotationScan" data-source-line="162" data-uid="lnk61" id="link_WithScan_RotationScan"><path codeLine="162" d="M103.9409,190.6163 C142.8909,252.2963 233,410.5369 233,569.7569 C233,569.7569 233,569.7569 233,728.6469 C233,1029.7169 2677.84,1156.3569 3104.02,1176.1469 " fill="none" id="WithScan-backto-RotationScan" style="stroke:#181818;stroke-width:1;"/><polygon fill="none" points="94.33,175.3969,98.8677,193.8199,109.014,187.4127,94.33,175.3969" style="stroke:#181818;stroke-width:1;"/></g><!--reverse link RotationScanPerSweep to RotationScan--><g class="link" data-entity-1="RotationScanPerSweep" data-entity-2="RotationScan" data-source-line="163" data-uid="lnk62" id="link_RotationScanPerSweep_RotationScan"><path codeLine="163" d="M3167,1057.3669 C3167,1097.0269 3167,1127.5669 3167,1155.7069 " fill="none" id="RotationScanPerSweep-backto-RotationScan" style="stroke:#181818;stroke-width:1;"/><polygon fill="none" points="3167,1039.3669,3161,1057.3669,3173,1057.3669,3167,1039.3669" style="stroke:#181818;stroke-width:1;"/></g><!--reverse link RotationExperiment to RotationScan--><g class="link" data-entity-1="RotationExperiment" data-entity-2="RotationScan" data-source-line="164" data-uid="lnk63" id="link_RotationExperiment_RotationScan"><path codeLine="164" d="M3809.8795,1035.2871 C3775.2795,1068.5271 3737.5,1098.1969 3684,1119.7969 C3570.08,1165.8069 3531.05,1133.7369 3409,1147.7969 C3348.09,1154.8169 3278.69,1163.8569 3229.87,1170.3869 " fill="none" id="RotationExperiment-backto-RotationScan" style="stroke:#181818;stroke-width:1;"/><polygon fill="none" points="3822.86,1022.8169,3805.7228,1030.9603,3814.0363,1039.614,3822.86,1022.8169" style="stroke:#181818;stroke-width:1;"/></g><!--reverse link MxBlueskyParameters to DiffractionExperiment--><g class="link" data-entity-1="MxBlueskyParameters" data-entity-2="DiffractionExperiment" data-source-line="165" data-uid="lnk64" id="link_MxBlueskyParameters_DiffractionExperiment"><path codeLine="165" d="M2808.9224,201.2925 C2808.3924,225.2825 2808.03,241.8769 2807.3,275.3969 " fill="none" id="MxBlueskyParameters-backto-DiffractionExperiment" style="stroke:#181818;stroke-width:1;"/><polygon fill="none" points="2809.32,183.2969,2802.9239,201.16,2814.921,201.425,2809.32,183.2969" style="stroke:#181818;stroke-width:1;"/></g><!--reverse link WithSnapshot to DiffractionExperiment--><g class="link" data-entity-1="WithSnapshot" data-entity-2="DiffractionExperiment" data-source-line="166" data-uid="lnk65" id="link_WithSnapshot_DiffractionExperiment"><path codeLine="166" d="M1094.1096,198.394 C1118.3696,207.984 1128.42,210.3969 1154,215.7869 C1475.43,283.5369 2316.29,181.6369 2631,275.7869 C2633.45,276.5169 2635.9,277.2869 2638.34,278.1069 " fill="none" id="WithSnapshot-backto-DiffractionExperiment" style="stroke:#181818;stroke-width:1;"/><polygon fill="none" points="1077.37,191.7769,1091.9038,203.9739,1096.3153,192.8142,1077.37,191.7769" style="stroke:#181818;stroke-width:1;"/></g><!--reverse link WithOptionalEnergyChange to DiffractionExperiment--><g class="link" data-entity-1="WithOptionalEnergyChange" data-entity-2="DiffractionExperiment" data-source-line="167" data-uid="lnk66" id="link_WithOptionalEnergyChange_DiffractionExperiment"><path codeLine="167" d="M510.5956,191.9003 C534.6356,204.3803 547.9,209.0469 576,215.7869 C1020.29,322.2369 2192.57,147.3469 2631,275.7869 C2633.45,276.5069 2635.9,277.2669 2638.35,278.0669 " fill="none" id="WithOptionalEnergyChange-backto-DiffractionExperiment" style="stroke:#181818;stroke-width:1;"/><polygon fill="none" points="494.62,183.6069,507.8311,197.2255,513.36,186.5752,494.62,183.6069" style="stroke:#181818;stroke-width:1;"/></g><!--reverse link WithVisit to DiffractionExperiment--><g class="link" data-entity-1="WithVisit" data-entity-2="DiffractionExperiment" data-source-line="168" data-uid="lnk67" id="link_WithVisit_DiffractionExperiment"><path codeLine="168" d="M1804.3822,216.0934 C1810.3822,217.8534 1799.09,214.3869 1805,215.7869 C2163.18,300.5869 2280.09,164.6769 2631,275.7869 C2633.52,276.5869 2636.04,277.4269 2638.56,278.3069 " fill="none" id="WithVisit-backto-DiffractionExperiment" style="stroke:#181818;stroke-width:1;"/><polygon fill="none" points="1787.11,211.0269,1802.6934,221.8508,1806.0711,210.336,1787.11,211.0269" style="stroke:#181818;stroke-width:1;"/></g><!--SRC=[bLVVRzis47us_mgzRGEM0ktpzf0wQJUWwOBQomeK0K5BPuc8H18abLfnyx_lI4goVjjziddttTrtvDsH-cMRSHFjUGuH_hBIogiK16Xc8ObsLTGigCgPi6MHlr4L8PPRDFYhKg2v5D4zqwm02pgwamdan82D14gCOZ5iGA7QIXq9AO0Gb3sn5ABYG7Tv2UQfUXFBef3YZMhScEX8h4p1PkZoIEAS6HDj5CHypo7vg7bo9A-r-3zkimqhL0v7ikB2HiOlA4_2yaVq6SCsKbN6JvDoBdeUro2iHkevn1OpHDTRgJw_h-xOOIrBOLjDPFm_6di3qtFom0stQ6giZdR0YfnZ_dxrx3JXRmAM9jnOQYLr81fByGmQTu4gPhC0uiAW2CDHfM7F3sIrpoLhaq0Vo45gxuY966XHz9Zyevmnos_nCDDgdJ6HkkqQE2cOI2Xu28Ndri56vTnkOYO6cowOCfbq2TuZqSZKQoIXFPkAh7Bayyr7UMmtl8790b9cQ09ftsqlK4FyenHSNeiqXurbsfeXUU-C6gVp7ljQbV5PNRoWUs9ATRqshBvMBmCQXnfL5esa6abUJf9XUcE7DOEntrfHpIacehXjlSUpPQvpmlxMDif9gIv5gGQrypfkG6UzzftQskya4kGlqA6H8ef-vudDEa8uA6bA3TJo0gWXgx-DgdQt1pS_2koSBKuId3yeez0AgKKfMLtZsgBj0yDfqLQHxpf8AAkrJIJB5PNxFKwWxWxSyFrUCz-mfw3ToR48h5lO3KdgnjfiLWxbPXdQuC3GF4r1kuaOsV2V5hZeZH_SUYhAOWVwfnFLJ9Y26-EcWkFyKvlgc1hiKHp4tNxTIPb7fG6g9GzaNuVJTvjfW9jH9RbZVnjwkjj8JlnkB7Pb3MfOEjMaz6KQ-sxSNrsHs-CGnOH5rLsyD0kVC7NLOcovgoldDCNl3k_35TNUSAv3DsvIMXu_uD9T0UszvRSifyz1xhleTUg-o-gBit_ZXP3tN6ov2lVFDWFnLRCgh8xBDNvNvfP_aPQvugtFvbe89u3acv_4NUqzwCrt0FNuU_G9nAy55pG7aThipxU_FKQwHbA3qDD-V98i2MJMCdU5YJ6-o9sqJk7O1YMQeumYsOJY217rxKXM8uvHuIIq5wwDTXeuhbMRryPDVTdv8p777jgvTDZR98M0E-cRiBs-3XjgijAwuvCA11Tfsyz1svBZ8jRWcyYNykNjrb1eKfXjfY7Nxa6rR4TtNOE-Fk0JhcNBSDKcY7xgeTopkF6jxsguDKiQKUWK0OVIqEV4r05vqR-kcvJ-lLb_0EO6bEkGHbgBFkGinKTchP_CykXxvP8JZ_xuSNMrq2PaXjPPkt6119DHqPBsHJG7c9WR0Jfg8D8-59S0uPfQGWmUh4lGsRqPmq_d4H2NdCzoZ8iyN5u6qqr_diA4pPatmf0-cNkQZe0NEHuNtt8I4_ZXOSrC6TBxa3e7xHNw76pk4-EyrMn-PqObcP5VPjm-jmS47O0q7o5JkkKpdvhQPFJ4Ny2E7ke1ExDHquKLJCxKt6YeN8Hl2VLctLGc2x0XqylcvYG_qlqCFOURhyzvcyvSdWJz3m00]--></g></svg>