<svg xmlns="http://www.w3.org/2000/svg" xmlns:xlink="http://www.w3.org/1999/xlink" version="1.1" data-diagram-type="SEQUENCE" style="width:778px;height:540px;background:#FFFFFF;" width="778px" height="540px" viewBox="0 0 778 540" zoomAndPan="magnify" preserveAspectRatio="none" contentStyleType="text/css"><?plantuml 1.2026.7beta3?><defs/><g><rect x="325.7988" y="11" width="428.0098" height="514.3203" fill="#DDDDDD" style="stroke:#181818;stroke-width:0.5;"/><text x="461.5657" y="23.0669" fill="#000000" font-size="13" lengthAdjust="spacing" textLength="156.4761" font-weight="700" font-family="sans-serif">Opyhd Async Devices</text><g><title>BlueSky RunEngine</title><rect x="81.5825" y="77.7266" width="8" height="287.1953" fill="#000000" fill-opacity="0.00000"/><line x1="85.0825" y1="77.7266" x2="85.0825" y2="364.9219" style="stroke:#181818;stroke-width:0.5;stroke-dasharray:5,5;"/></g><line x1="85.0825" y1="364.9219" x2="85.0825" y2="405.7266" style="stroke:#181818;stroke-width:0.5;stroke-dasharray:1,4;"/><g><title>BlueSky RunEngine</title><rect x="81.5825" y="405.7266" width="8" height="66" fill="#000000" fill-opacity="0.00000"/><line x1="85.0825" y1="405.7266" x2="85.0825" y2="471.7266" style="stroke:#181818;stroke-width:0.5;stroke-dasharray:5,5;"/></g><g><title></title><rect x="80.0825" y="150.9922" width="10" height="213.9297" fill="#FFFFFF" style="stroke:#FFFFFF;stroke-width:1;"/><line x1="80.0825" y1="150.9922" x2="80.0825" y2="364.9219" style="stroke:#181818;stroke-width:1;"/><line x1="90.0825" y1="150.9922" x2="90.0825" y2="364.9219" style="stroke:#181818;stroke-width:1;"/><line x1="80.0825" y1="150.9922" x2="90.0825" y2="150.9922" style="stroke:#181818;stroke-width:1;"/></g><g><title></title><rect x="80.0825" y="405.7266" width="10" height="34" fill="#FFFFFF" style="stroke:#FFFFFF;stroke-width:1;"/><line x1="80.0825" y1="405.7266" x2="80.0825" y2="439.7266" style="stroke:#181818;stroke-width:1;"/><line x1="90.0825" y1="405.7266" x2="90.0825" y2="439.7266" style="stroke:#181818;stroke-width:1;"/><line x1="80.0825" y1="439.7266" x2="90.0825" y2="439.7266" style="stroke:#181818;stroke-width:1;"/></g><g><title>Undulator</title><rect x="367.8784" y="77.7266" width="8" height="287.1953" fill="#000000" fill-opacity="0.00000"/><line x1="371.3784" y1="77.7266" x2="371.3784" y2="364.9219" style="stroke:#181818;stroke-width:0.5;stroke-dasharray:5,5;"/></g><line x1="371.3784" y1="364.9219" x2="371.3784" y2="405.7266" style="stroke:#181818;stroke-width:0.5;stroke-dasharray:1,4;"/><g><title>Undulator</title><rect x="367.8784" y="405.7266" width="8" height="66" fill="#000000" fill-opacity="0.00000"/><line x1="371.3784" y1="405.7266" x2="371.3784" y2="471.7266" style="stroke:#181818;stroke-width:0.5;stroke-dasharray:5,5;"/></g><g><title></title><rect x="366.3784" y="209.2578" width="10" height="155.6641" fill="#FFFFFF" style="stroke:#FFFFFF;stroke-width:1;"/><line x1="366.3784" y1="209.2578" x2="366.3784" y2="364.9219" style="stroke:#181818;stroke-width:1;"/><line x1="376.3784" y1="209.2578" x2="376.3784" y2="364.9219" style="stroke:#181818;stroke-width:1;"/><line x1="366.3784" y1="209.2578" x2="376.3784" y2="209.2578" style="stroke:#181818;stroke-width:1;"/></g><g><title></title><rect x="366.3784" y="405.7266" width="10" height="34" fill="#FFFFFF" style="stroke:#FFFFFF;stroke-width:1;"/><line x1="366.3784" y1="405.7266" x2="366.3784" y2="439.7266" style="stroke:#181818;stroke-width:1;"/><line x1="376.3784" y1="405.7266" x2="376.3784" y2="439.7266" style="stroke:#181818;stroke-width:1;"/><line x1="366.3784" y1="439.7266" x2="376.3784" y2="439.7266" style="stroke:#181818;stroke-width:1;"/></g><g><title>DCM</title><rect x="442.7754" y="77.7266" width="8" height="287.1953" fill="#000000" fill-opacity="0.00000"/><line x1="446.2754" y1="77.7266" x2="446.2754" y2="364.9219" style="stroke:#181818;stroke-width:0.5;stroke-dasharray:5,5;"/></g><line x1="446.2754" y1="364.9219" x2="446.2754" y2="405.7266" style="stroke:#181818;stroke-width:0.5;stroke-dasharray:1,4;"/><g><title>DCM</title><rect x="442.7754" y="405.7266" width="8" height="66" fill="#000000" fill-opacity="0.00000"/><line x1="446.2754" y1="405.7266" x2="446.2754" y2="471.7266" style="stroke:#181818;stroke-width:0.5;stroke-dasharray:5,5;"/></g><g><title></title><rect x="441.2754" y="238.3906" width="10" height="126.5313" fill="#FFFFFF" style="stroke:#FFFFFF;stroke-width:1;"/><line x1="441.2754" y1="238.3906" x2="441.2754" y2="364.9219" style="stroke:#181818;stroke-width:1;"/><line x1="451.2754" y1="238.3906" x2="451.2754" y2="364.9219" style="stroke:#181818;stroke-width:1;"/><line x1="441.2754" y1="238.3906" x2="451.2754" y2="238.3906" style="stroke:#181818;stroke-width:1;"/></g><g><title></title><rect x="441.2754" y="405.7266" width="10" height="42" fill="#FFFFFF" style="stroke:#FFFFFF;stroke-width:1;"/><line x1="441.2754" y1="405.7266" x2="441.2754" y2="447.7266" style="stroke:#181818;stroke-width:1;"/><line x1="451.2754" y1="405.7266" x2="451.2754" y2="447.7266" style="stroke:#181818;stroke-width:1;"/><line x1="441.2754" y1="447.7266" x2="451.2754" y2="447.7266" style="stroke:#181818;stroke-width:1;"/></g><g><title>Transmission</title><rect x="532.2056" y="77.7266" width="8" height="287.1953" fill="#000000" fill-opacity="0.00000"/><line x1="535.7056" y1="77.7266" x2="535.7056" y2="364.9219" style="stroke:#181818;stroke-width:0.5;stroke-dasharray:5,5;"/></g><line x1="535.7056" y1="364.9219" x2="535.7056" y2="405.7266" style="stroke:#181818;stroke-width:0.5;stroke-dasharray:1,4;"/><g><title>Transmission</title><rect x="532.2056" y="405.7266" width="8" height="66" fill="#000000" fill-opacity="0.00000"/><line x1="535.7056" y1="405.7266" x2="535.7056" y2="471.7266" style="stroke:#181818;stroke-width:0.5;stroke-dasharray:5,5;"/></g><g><title></title><rect x="530.7056" y="180.125" width="10" height="184.7969" fill="#FFFFFF" style="stroke:#FFFFFF;stroke-width:1;"/><line x1="530.7056" y1="180.125" x2="530.7056" y2="364.9219" style="stroke:#181818;stroke-width:1;"/><line x1="540.7056" y1="180.125" x2="540.7056" y2="364.9219" style="stroke:#181818;stroke-width:1;"/><line x1="530.7056" y1="180.125" x2="540.7056" y2="180.125" style="stroke:#181818;stroke-width:1;"/></g><g><title></title><rect x="530.7056" y="405.7266" width="10" height="42" fill="#FFFFFF" style="stroke:#FFFFFF;stroke-width:1;"/><line x1="530.7056" y1="405.7266" x2="530.7056" y2="447.7266" style="stroke:#181818;stroke-width:1;"/><line x1="540.7056" y1="405.7266" x2="540.7056" y2="447.7266" style="stroke:#181818;stroke-width:1;"/><line x1="530.7056" y1="447.7266" x2="540.7056" y2="447.7266" style="stroke:#181818;stroke-width:1;"/></g><g><title>Mirrors</title><rect x="629.8662" y="77.7266" width="8" height="287.1953" fill="#000000" fill-opacity="0.00000"/><line x1="633.3662" y1="77.7266" x2="633.3662" y2="364.9219" style="stroke:#181818;stroke-width:0.5;stroke-dasharray:5,5;"/></g><line x1="633.3662" y1="364.9219" x2="633.3662" y2="405.7266" style="stroke:#181818;stroke-width:0.5;stroke-dasharray:1,4;"/><g><title>Mirrors</title><rect x="629.8662" y="405.7266" width="8" height="66" fill="#000000" fill-opacity="0.00000"/><line x1="633.3662" y1="405.7266" x2="633.3662" y2="471.7266" style="stroke:#181818;stroke-width:0.5;stroke-dasharray:5,5;"/></g><g><title></title><rect x="628.3662" y="298.6563" width="10" height="66.2656" fill="#FFFFFF" style="stroke:#FFFFFF;stroke-width:1;"/><line x1="628.3662" y1="298.6563" x2="628.3662" y2="364.9219" style="stroke:#181818;stroke-width:1;"/><line x1="638.3662" y1="298.6563" x2="638.3662" y2="364.9219" style="stroke:#181818;stroke-width:1;"/><line x1="628.3662" y1="298.6563" x2="638.3662" y2="298.6563" style="stroke:#181818;stroke-width:1;"/></g><g><title></title><rect x="628.3662" y="405.7266" width="10" height="14" fill="#FFFFFF" style="stroke:#FFFFFF;stroke-width:1;"/><line x1="628.3662" y1="405.7266" x2="628.3662" y2="419.7266" style="stroke:#181818;stroke-width:1;"/><line x1="638.3662" y1="405.7266" x2="638.3662" y2="419.7266" style="stroke:#181818;stroke-width:1;"/><line x1="628.3662" y1="419.7266" x2="638.3662" y2="419.7266" style="stroke:#181818;stroke-width:1;"/></g><g><title>Mirror</title><rect x="708.8613" y="77.7266" width="8" height="287.1953" fill="#000000" fill-opacity="0.00000"/><line x1="712.3613" y1="77.7266" x2="712.3613" y2="364.9219" style="stroke:#181818;stroke-width:0.5;stroke-dasharray:5,5;"/></g><line x1="712.3613" y1="364.9219" x2="712.3613" y2="405.7266" style="stroke:#181818;stroke-width:0.5;stroke-dasharray:1,4;"/><g><title>Mirror</title><rect x="708.8613" y="405.7266" width="8" height="66" fill="#000000" fill-opacity="0.00000"/><line x1="712.3613" y1="405.7266" x2="712.3613" y2="471.7266" style="stroke:#181818;stroke-width:0.5;stroke-dasharray:5,5;"/></g><g><title></title><rect x="707.3613" y="356.9219" width="10" height="8" fill="#FFFFFF" style="stroke:#FFFFFF;stroke-width:1;"/><line x1="707.3613" y1="356.9219" x2="707.3613" y2="364.9219" style="stroke:#181818;stroke-width:1;"/><line x1="717.3613" y1="356.9219" x2="717.3613" y2="364.9219" style="stroke:#181818;stroke-width:1;"/><line x1="707.3613" y1="356.9219" x2="717.3613" y2="356.9219" style="stroke:#181818;stroke-width:1;"/></g><g><title></title><rect x="707.3613" y="405.7266" width="10" height="6" fill="#FFFFFF" style="stroke:#FFFFFF;stroke-width:1;"/><line x1="707.3613" y1="405.7266" x2="707.3613" y2="411.7266" style="stroke:#181818;stroke-width:1;"/><line x1="717.3613" y1="405.7266" x2="717.3613" y2="411.7266" style="stroke:#181818;stroke-width:1;"/><line x1="707.3613" y1="411.7266" x2="717.3613" y2="411.7266" style="stroke:#181818;stroke-width:1;"/></g><rect x="10" y="46.4297" width="150.165" height="30.2969" fill="#E2E2F0" style="stroke:#181818;stroke-width:0.5;" rx="2.5" ry="2.5"/><text x="17" y="66.4248" fill="#000000" font-size="14" lengthAdjust="spacing" textLength="136.165" font-family="sans-serif">BlueSky RunEngine</text><rect x="329.7988" y="46.4297" width="83.1592" height="30.2969" fill="#E2E2F0" style="stroke:#181818;stroke-width:0.5;" rx="2.5" ry="2.5"/><text x="336.7988" y="66.4248" fill="#000000" font-size="14" lengthAdjust="spacing" textLength="69.1592" font-family="sans-serif">Undulator</text><rect x="422.958" y="46.4297" width="46.6348" height="30.2969" fill="#E2E2F0" style="stroke:#181818;stroke-width:0.5;" rx="2.5" ry="2.5"/><text x="429.958" y="66.4248" fill="#000000" font-size="14" lengthAdjust="spacing" textLength="32.6348" font-family="sans-serif">DCM</text><rect x="479.5928" y="30.1328" width="112.2256" height="46.5938" fill="#E2E2F0" style="stroke:#181818;stroke-width:0.5;" rx="2.5" ry="2.5"/><text x="489.457" y="50.1279" fill="#000000" font-size="14" lengthAdjust="spacing" textLength="92.4971" font-family="sans-serif">Transmission</text><text x="486.5928" y="66.4248" fill="#000000" font-size="14" lengthAdjust="spacing" textLength="98.2256" font-family="sans-serif">and Feedback</text><rect x="601.8184" y="46.4297" width="63.0957" height="30.2969" fill="#E2E2F0" style="stroke:#181818;stroke-width:0.5;" rx="2.5" ry="2.5"/><text x="608.8184" y="66.4248" fill="#000000" font-size="14" lengthAdjust="spacing" textLength="49.0957" font-family="sans-serif">Mirrors</text><rect x="674.9141" y="30.1328" width="74.8945" height="46.5938" fill="#E2E2F0" style="stroke:#181818;stroke-width:0.5;" rx="2.5" ry="2.5"/><text x="691.4604" y="50.1279" fill="#000000" font-size="14" lengthAdjust="spacing" textLength="41.8018" font-family="sans-serif">Mirror</text><text x="681.9141" y="66.4248" fill="#000000" font-size="14" lengthAdjust="spacing" textLength="60.8945" font-family="sans-serif">Voltages</text><rect x="10" y="471.7266" width="150.165" height="30.2969" fill="#E2E2F0" style="stroke:#181818;stroke-width:0.5;" rx="2.5" ry="2.5"/><text x="17" y="491.7217" fill="#000000" font-size="14" lengthAdjust="spacing" textLength="136.165" font-family="sans-serif">BlueSky RunEngine</text><rect x="329.7988" y="471.7266" width="83.1592" height="30.2969" fill="#E2E2F0" style="stroke:#181818;stroke-width:0.5;" rx="2.5" ry="2.5"/><text x="336.7988" y="491.7217" fill="#000000" font-size="14" lengthAdjust="spacing" textLength="69.1592" font-family="sans-serif">Undulator</text><rect x="422.958" y="471.7266" width="46.6348" height="30.2969" fill="#E2E2F0" style="stroke:#181818;stroke-width:0.5;" rx="2.5" ry="2.5"/><text x="429.958" y="491.7217" fill="#000000" font-size="14" lengthAdjust="spacing" textLength="32.6348" font-family="sans-serif">DCM</text><rect x="479.5928" y="471.7266" width="112.2256" height="46.5938" fill="#E2E2F0" style="stroke:#181818;stroke-width:0.5;" rx="2.5" ry="2.5"/><text x="489.457" y="491.7217" fill="#000000" font-size="14" lengthAdjust="spacing" textLength="92.4971" font-family="sans-serif">Transmission</text><text x="486.5928" y="508.0186" fill="#000000" font-size="14" lengthAdjust="spacing" textLength="98.2256" font-family="sans-serif">and Feedback</text><rect x="601.8184" y="471.7266" width="63.0957" height="30.2969" fill="#E2E2F0" style="stroke:#181818;stroke-width:0.5;" rx="2.5" ry="2.5"/><text x="608.8184" y="491.7217" fill="#000000" font-size="14" lengthAdjust="spacing" textLength="49.0957" font-family="sans-serif">Mirrors</text><rect x="674.9141" y="471.7266" width="74.8945" height="46.5938" fill="#E2E2F0" style="stroke:#181818;stroke-width:0.5;" rx="2.5" ry="2.5"/><text x="691.4604" y="491.7217" fill="#000000" font-size="14" lengthAdjust="spacing" textLength="41.8018" font-family="sans-serif">Mirror</text><text x="681.9141" y="508.0186" fill="#000000" font-size="14" lengthAdjust="spacing" textLength="60.8945" font-family="sans-serif">Voltages</text><path d="M50.0825,89.7266 L213.7202,89.7266 L213.7202,96.8594 L203.7202,106.8594 L50.0825,106.8594 L50.0825,89.7266" style="stroke:#000000;stroke-width:1.5;" fill="#EEEEEE"/><rect x="50.0825" y="89.7266" width="708.2788" height="358" fill="none" style="stroke:#000000;stroke-width:1.5;"/><text x="65.0825" y="102.7935" fill="#000000" font-size="13" lengthAdjust="spacing" textLength="118.6377" font-weight="700" font-family="sans-serif">set_energy_plan</text><line x1="85.0825" y1="137.9922" x2="132.0825" y2="137.9922" style="stroke:#181818;stroke-width:1;"/><line x1="132.0825" y1="137.9922" x2="132.0825" y2="150.9922" style="stroke:#181818;stroke-width:1;"/><line x1="91.0825" y1="150.9922" x2="132.0825" y2="150.9922" style="stroke:#181818;stroke-width:1;"/><polygon points="101.0825,146.9922,91.0825,150.9922,101.0825,154.9922,97.0825,150.9922" fill="#181818" style="stroke:#181818;stroke-width:1;stroke-linejoin:miter;stroke-miterlimit:10;"/><text x="97.0825" y="132.9263" fill="#000000" font-size="13" lengthAdjust="spacing" textLength="106.4629" font-family="sans-serif">set_energy_plan</text><polygon points="518.7056,176.125,528.7056,180.125,518.7056,184.125,522.7056,180.125" fill="#181818" style="stroke:#181818;stroke-width:1;stroke-linejoin:miter;stroke-miterlimit:10;"/><line x1="90.0825" y1="180.125" x2="524.7056" y2="180.125" style="stroke:#181818;stroke-width:1;"/><text x="97.0825" y="175.0591" fill="#000000" font-size="13" lengthAdjust="spacing" textLength="80.958" font-family="sans-serif">feedback off</text><polygon points="354.3784,205.2578,364.3784,209.2578,354.3784,213.2578,358.3784,209.2578" fill="#181818" style="stroke:#181818;stroke-width:1;stroke-linejoin:miter;stroke-miterlimit:10;"/><line x1="90.0825" y1="209.2578" x2="360.3784" y2="209.2578" style="stroke:#181818;stroke-width:1;"/><text x="97.0825" y="204.1919" fill="#000000" font-size="13" lengthAdjust="spacing" textLength="257.2959" font-family="sans-serif">set undulator gap for requested energy</text><polygon points="429.2754,234.3906,439.2754,238.3906,429.2754,242.3906,433.2754,238.3906" fill="#181818" style="stroke:#181818;stroke-width:1;stroke-linejoin:miter;stroke-miterlimit:10;"/><line x1="90.0825" y1="238.3906" x2="435.2754" y2="238.3906" style="stroke:#181818;stroke-width:1;"/><text x="97.0825" y="233.3247" fill="#000000" font-size="13" lengthAdjust="spacing" textLength="236.6914" font-family="sans-serif">Adjust DCM pitch and roll for energy</text><path d="M69.0825,250.3906 L138.5337,250.3906 L138.5337,257.5234 L128.5337,267.5234 L69.0825,267.5234 L69.0825,250.3906" style="stroke:#000000;stroke-width:1.5;" fill="#EEEEEE"/><rect x="69.0825" y="250.3906" width="664.2788" height="169.3359" fill="none" style="stroke:#000000;stroke-width:1.5;"/><text x="84.0825" y="263.4575" fill="#000000" font-size="13" lengthAdjust="spacing" textLength="24.4512" font-weight="700" font-family="sans-serif">opt</text><text x="153.5337" y="262.6011" fill="#000000" font-size="11" lengthAdjust="spacing" textLength="191.0713" font-weight="700" font-family="sans-serif">[mirror stripe needs changing]</text><polygon points="616.3662,294.6563,626.3662,298.6563,616.3662,302.6563,620.3662,298.6563" fill="#181818" style="stroke:#181818;stroke-width:1;stroke-linejoin:miter;stroke-miterlimit:10;"/><line x1="90.0825" y1="298.6563" x2="622.3662" y2="298.6563" style="stroke:#181818;stroke-width:1;"/><text x="97.0825" y="293.5903" fill="#000000" font-size="13" lengthAdjust="spacing" textLength="126.4707" font-family="sans-serif">Adjust mirror stripe</text><polygon points="616.3662,323.7891,626.3662,327.7891,616.3662,331.7891,620.3662,327.7891" fill="#181818" style="stroke:#181818;stroke-width:1;stroke-linejoin:miter;stroke-miterlimit:10;"/><line x1="90.0825" y1="327.7891" x2="622.3662" y2="327.7891" style="stroke:#181818;stroke-width:1;"/><text x="97.0825" y="322.7231" fill="#000000" font-size="13" lengthAdjust="spacing" textLength="96.2305" font-family="sans-serif">Adjust yaw, lat</text><polygon points="695.3613,352.9219,705.3613,356.9219,695.3613,360.9219,699.3613,356.9219" fill="#181818" style="stroke:#181818;stroke-width:1;stroke-linejoin:miter;stroke-miterlimit:10;"/><line x1="90.0825" y1="356.9219" x2="701.3613" y2="356.9219" style="stroke:#181818;stroke-width:1;"/><text x="97.0825" y="351.856" fill="#000000" font-size="13" lengthAdjust="spacing" textLength="144.7393" font-family="sans-serif">Adjust mirror voltages</text><text x="319.0874" y="389.1323" fill="#000000" font-size="11" lengthAdjust="spacing" textLength="159.269" font-family="sans-serif">Wait for all voltages to settle</text><polygon points="101.0825,407.7266,91.0825,411.7266,101.0825,415.7266,97.0825,411.7266" fill="#181818" style="stroke:#181818;stroke-width:1;stroke-linejoin:miter;stroke-miterlimit:10;"/><line x1="95.0825" y1="411.7266" x2="706.3613" y2="411.7266" style="stroke:#181818;stroke-width:1;"/><polygon points="101.0825,435.7266,91.0825,439.7266,101.0825,443.7266,97.0825,439.7266" fill="#181818" style="stroke:#181818;stroke-width:1;stroke-linejoin:miter;stroke-miterlimit:10;"/><line x1="95.0825" y1="439.7266" x2="365.3784" y2="439.7266" style="stroke:#181818;stroke-width:1;"/><?plantuml-src VLFBJiCm4BpdAvPUUe7stWCIZt93IELrGQgMP9iQKjlOcq90_3kEczWnBVJGPBsp3yzCZhJ1SeF0f3w1JKsPHiCY5nebm-YygkdsjO55BUUo5996W1OMy-nPVS3eHZVh0ivi8tEufAt8oOxI-djPr1MoChwkxgCKT7bnxTD5laaJTmQbtGXhXP9F4cK1LqJ5C-Ql7h_gWhJeMXYZZFM8pUxz4E19FgYAiQGTSji56Rafxd9PLXfLQx34Iv9aocQfAvGPkDzY3YUdxdzsC8ivYoqojIn5TB_hBBo1MgtIWd2VM1OOyxDY22LgMBcdeRUQB5C1kptIZf7msDAnF8EpugMs38vvq8BpDRJa6bLLlkcXLgquxO7ItD4AbetG1DAjRI5VOskGqeFYj4w1C34f3TWmfHVi_oODlX-3krU0VLbs2Yzx4R-xkZx-FJs8lJT_BpEPJ1vHiAS57Jqz05YrYd153X7tSEuPR170tYu1LT3VymQv8HUkhtz60yIMWv9Kxq6YLszmbBXjSEwecuwzstOsWDRPC9wsNyOF?></g></svg>