<svg xmlns="http://www.w3.org/2000/svg" xmlns:xlink="http://www.w3.org/1999/xlink" contentStyleType="text/css" data-diagram-type="CLASS" height="377px" preserveAspectRatio="none" style="width:1083px;height:377px;background:#FFFFFF;" version="1.1" viewBox="0 0 1083 377" width="1083px" zoomAndPan="magnify"><?plantuml 1.2026.7beta1?><defs/><g><g class="title" data-source-line="3"><text fill="#000000" font-family="sans-serif" font-size="14" font-weight="700" lengthAdjust="spacing" textLength="212.4951" x="432.1874" y="22.9951">Hyperion Parameter Model</text></g><!--cluster mx_bluesky.common.parameters--><g class="cluster" data-qualified-name="mx_bluesky.common.parameters" data-source-line="6" id="ent0001"><path d="M201.37,43.2969 L462.6825,43.2969 A3.75,3.75 0 0 1 465.1825,45.7969 L472.1825,65.5938 L1066.37,65.5938 A2.5,2.5 0 0 1 1068.87,68.0938 L1068.87,204.6869 A2.5,2.5 0 0 1 1066.37,207.1869 L201.37,207.1869 A2.5,2.5 0 0 1 198.87,204.6869 L198.87,45.7969 A2.5,2.5 0 0 1 201.37,43.2969" fill="none" style="stroke:#000000;stroke-width:1.5;"/><line style="stroke:#000000;stroke-width:1.5;" x1="198.87" x2="472.1825" y1="65.5938" y2="65.5938"/><text fill="#000000" font-family="sans-serif" font-size="14" font-weight="700" lengthAdjust="spacing" textLength="260.3125" x="202.87" y="58.292">mx_bluesky.common.parameters</text></g><!--cluster mx_bluesky.hyperion.parameters--><g class="cluster" data-qualified-name="mx_bluesky.hyperion.parameters" data-source-line="25" id="ent0005"><path d="M164.37,231.1869 L428.9022,231.1869 A3.75,3.75 0 0 1 431.4022,233.6869 L438.4022,253.4838 L529.37,253.4838 A2.5,2.5 0 0 1 531.87,255.9838 L531.87,360.2769 A2.5,2.5 0 0 1 529.37,362.7769 L164.37,362.7769 A2.5,2.5 0 0 1 161.87,360.2769 L161.87,233.6869 A2.5,2.5 0 0 1 164.37,231.1869" fill="none" style="stroke:#000000;stroke-width:1.5;"/><line style="stroke:#000000;stroke-width:1.5;" x1="161.87" x2="438.4022" y1="253.4838" y2="253.4838"/><text fill="#000000" font-family="sans-serif" font-size="14" font-weight="700" lengthAdjust="spacing" textLength="263.5322" x="165.87" y="246.182">mx_bluesky.hyperion.parameters</text></g><!--class WithSample--><g class="entity" data-qualified-name="mx_bluesky.common.parameters.WithSample" data-source-line="8" id="ent0002"><rect fill="#F1F1F1" height="96.8906" rx="2.5" ry="2.5" style="stroke:#181818;stroke-width:0.5;" width="176.3086" x="222.71" y="86.2969"/><ellipse cx="264.5843" cy="102.2969" fill="#ADD1B2" rx="11" ry="11" style="stroke:#181818;stroke-width:1;"/><path d="M267.5531,107.9375 Q266.9749,108.2344 266.3343,108.375 Q265.6937,108.5313 264.9906,108.5313 Q262.4906,108.5313 261.1624,106.8906 Q259.8499,105.2344 259.8499,102.1094 Q259.8499,98.9844 261.1624,97.3281 Q262.4906,95.6719 264.9906,95.6719 Q265.6937,95.6719 266.3343,95.8281 Q266.9906,95.9844 267.5531,96.2813 L267.5531,99 Q266.9281,98.4219 266.3343,98.1563 Q265.7406,97.875 265.1156,97.875 Q263.7718,97.875 263.0843,98.9531 Q262.3968,100.0156 262.3968,102.1094 Q262.3968,104.2031 263.0843,105.2813 Q263.7718,106.3438 265.1156,106.3438 Q265.7406,106.3438 266.3343,106.0781 Q266.9281,105.7969 267.5531,105.2188 L267.5531,107.9375 Z " fill="#000000"/><text fill="#000000" font-family="sans-serif" font-size="14" lengthAdjust="spacing" textLength="84.5879" x="284.5564" y="107.1436">WithSample</text><line style="stroke:#181818;stroke-width:0.5;" x1="223.71" x2="398.0186" y1="118.2969" y2="118.2969"/><text fill="#000000" font-family="sans-serif" font-size="14" lengthAdjust="spacing" textLength="93.3789" x="228.71" y="135.292">int sample_id</text><text fill="#000000" font-family="sans-serif" font-size="14" lengthAdjust="spacing" textLength="164.3086" x="228.71" y="151.5889">int | None sample_puck</text><text fill="#000000" font-family="sans-serif" font-size="14" lengthAdjust="spacing" textLength="152.3936" x="228.71" y="167.8857">int | None sample_pin</text><line style="stroke:#181818;stroke-width:0.5;" x1="223.71" x2="398.0186" y1="175.1875" y2="175.1875"/></g><!--class WithVisit--><g class="entity" data-qualified-name="mx_bluesky.common.parameters.WithVisit" data-source-line="13" id="ent0003"><rect fill="#F1F1F1" height="96.8906" rx="2.5" ry="2.5" style="stroke:#181818;stroke-width:0.5;" width="257.752" x="433.99" y="86.2969"/><ellipse cx="527.4988" cy="102.2969" fill="#ADD1B2" rx="11" ry="11" style="stroke:#181818;stroke-width:1;"/><path d="M530.4675,107.9375 Q529.8894,108.2344 529.2488,108.375 Q528.6082,108.5313 527.905,108.5313 Q525.405,108.5313 524.0769,106.8906 Q522.7644,105.2344 522.7644,102.1094 Q522.7644,98.9844 524.0769,97.3281 Q525.405,95.6719 527.905,95.6719 Q528.6082,95.6719 529.2488,95.8281 Q529.905,95.9844 530.4675,96.2813 L530.4675,99 Q529.8425,98.4219 529.2488,98.1563 Q528.655,97.875 528.03,97.875 Q526.6863,97.875 525.9988,98.9531 Q525.3113,100.0156 525.3113,102.1094 Q525.3113,104.2031 525.9988,105.2813 Q526.6863,106.3438 528.03,106.3438 Q528.655,106.3438 529.2488,106.0781 Q529.8425,105.7969 530.4675,105.2188 L530.4675,107.9375 Z " fill="#000000"/><text fill="#000000" font-family="sans-serif" font-size="14" lengthAdjust="spacing" textLength="62.2344" x="547.9988" y="107.1436">WithVisit</text><line style="stroke:#181818;stroke-width:0.5;" x1="434.99" x2="690.742" y1="118.2969" y2="118.2969"/><text fill="#000000" font-family="sans-serif" font-size="14" lengthAdjust="spacing" textLength="87.9717" x="439.99" y="135.292">str beamline</text><text fill="#000000" font-family="sans-serif" font-size="14" lengthAdjust="spacing" textLength="51.8369" x="439.99" y="151.5889">str visit</text><text fill="#000000" font-family="sans-serif" font-size="14" lengthAdjust="spacing" textLength="245.752" x="439.99" y="167.8857">float | None detector_distance_mm</text><line style="stroke:#181818;stroke-width:0.5;" x1="434.99" x2="690.742" y1="175.1875" y2="175.1875"/></g><!--class MxBlueskyParameters--><g class="entity" data-qualified-name="mx_bluesky.common.parameters.MxBlueskyParameters" data-source-line="20" id="ent0004"><rect fill="#F1F1F1" height="64.2969" rx="2.5" ry="2.5" style="stroke:#181818;stroke-width:0.5;" width="317.4639" x="727.13" y="102.5869"/><ellipse cx="803.7164" cy="118.5869" fill="#ADD1B2" rx="11" ry="11" style="stroke:#181818;stroke-width:1;"/><path d="M806.6852,124.2275 Q806.1071,124.5244 805.4664,124.665 Q804.8258,124.8213 804.1227,124.8213 Q801.6227,124.8213 800.2946,123.1806 Q798.9821,121.5244 798.9821,118.3994 Q798.9821,115.2744 800.2946,113.6181 Q801.6227,111.9619 804.1227,111.9619 Q804.8258,111.9619 805.4664,112.1181 Q806.1227,112.2744 806.6852,112.5713 L806.6852,115.29 Q806.0602,114.7119 805.4664,114.4463 Q804.8727,114.165 804.2477,114.165 Q802.9039,114.165 802.2164,115.2431 Q801.5289,116.3056 801.5289,118.3994 Q801.5289,120.4931 802.2164,121.5713 Q802.9039,122.6338 804.2477,122.6338 Q804.8727,122.6338 805.4664,122.3681 Q806.0602,122.0869 806.6852,121.5088 L806.6852,124.2275 Z " fill="#000000"/><text fill="#000000" font-family="sans-serif" font-size="14" lengthAdjust="spacing" textLength="155.791" x="824.2164" y="123.4336">MxBlueskyParameters</text><line style="stroke:#181818;stroke-width:0.5;" x1="728.13" x2="1043.5939" y1="134.5869" y2="134.5869"/><text fill="#000000" font-family="sans-serif" font-size="14" lengthAdjust="spacing" textLength="305.4639" x="733.13" y="151.582">SemanticVersion parameter_model_version</text><line style="stroke:#181818;stroke-width:0.5;" x1="728.13" x2="1043.5939" y1="158.8838" y2="158.8838"/></g><!--class LoadCentreCollect--><g class="entity" data-qualified-name="mx_bluesky.hyperion.parameters.LoadCentreCollect" data-source-line="26" id="ent0006"><rect fill="#F1F1F1" height="80.5938" rx="2.5" ry="2.5" style="stroke:#181818;stroke-width:0.5;" width="338.6211" x="177.56" y="266.1869"/><ellipse cx="278.185" cy="282.1869" fill="#ADD1B2" rx="11" ry="11" style="stroke:#181818;stroke-width:1;"/><path d="M281.1538,287.8275 Q280.5756,288.1244 279.935,288.265 Q279.2944,288.4213 278.5913,288.4213 Q276.0913,288.4213 274.7631,286.7806 Q273.4506,285.1244 273.4506,281.9994 Q273.4506,278.8744 274.7631,277.2181 Q276.0913,275.5619 278.5913,275.5619 Q279.2944,275.5619 279.935,275.7181 Q280.5913,275.8744 281.1538,276.1713 L281.1538,278.89 Q280.5288,278.3119 279.935,278.0463 Q279.3413,277.765 278.7163,277.765 Q277.3725,277.765 276.685,278.8431 Q275.9975,279.9056 275.9975,281.9994 Q275.9975,284.0931 276.685,285.1713 Q277.3725,286.2338 278.7163,286.2338 Q279.3413,286.2338 279.935,285.9681 Q280.5288,285.6869 281.1538,285.1088 L281.1538,287.8275 Z " fill="#000000"/><text fill="#000000" font-family="sans-serif" font-size="14" lengthAdjust="spacing" textLength="128.8711" x="298.685" y="287.0336">LoadCentreCollect</text><line style="stroke:#181818;stroke-width:0.5;" x1="178.56" x2="515.1811" y1="298.1869" y2="298.1869"/><text fill="#000000" font-family="sans-serif" font-size="14" lengthAdjust="spacing" textLength="326.6211" x="183.56" y="315.182">RobotLoadThenCentre robot_load_then_centre</text><text fill="#000000" font-family="sans-serif" font-size="14" lengthAdjust="spacing" textLength="235.0947" x="183.56" y="331.4789">RotationScan multi_rotation_scan</text><line style="stroke:#181818;stroke-width:0.5;" x1="178.56" x2="515.1811" y1="338.7806" y2="338.7806"/></g><!--class WithCentreSelection--><g class="entity" data-qualified-name="WithCentreSelection" data-source-line="34" id="ent0010"><rect fill="#F1F1F1" height="48" rx="2.5" ry="2.5" style="stroke:#181818;stroke-width:0.5;" width="175.7324" x="7" y="110.7369"/><ellipse cx="22" cy="126.7369" fill="#ADD1B2" rx="11" ry="11" style="stroke:#181818;stroke-width:1;"/><path d="M24.9688,132.3775 Q24.3906,132.6744 23.75,132.815 Q23.1094,132.9713 22.4063,132.9713 Q19.9063,132.9713 18.5781,131.3306 Q17.2656,129.6744 17.2656,126.5494 Q17.2656,123.4244 18.5781,121.7681 Q19.9063,120.1119 22.4063,120.1119 Q23.1094,120.1119 23.75,120.2681 Q24.4063,120.4244 24.9688,120.7213 L24.9688,123.44 Q24.3438,122.8619 23.75,122.5963 Q23.1563,122.315 22.5313,122.315 Q21.1875,122.315 20.5,123.3931 Q19.8125,124.4556 19.8125,126.5494 Q19.8125,128.6431 20.5,129.7213 Q21.1875,130.7838 22.5313,130.7838 Q23.1563,130.7838 23.75,130.5181 Q24.3438,130.2369 24.9688,129.6588 L24.9688,132.3775 Z " fill="#000000"/><text fill="#000000" font-family="sans-serif" font-size="14" lengthAdjust="spacing" textLength="143.7324" x="36" y="131.5836">WithCentreSelection</text><line style="stroke:#181818;stroke-width:0.5;" x1="8" x2="181.7324" y1="142.7369" y2="142.7369"/><line style="stroke:#181818;stroke-width:0.5;" x1="8" x2="181.7324" y1="150.7369" y2="150.7369"/></g><!--reverse link MxBlueskyParameters to LoadCentreCollect--><g class="link" data-entity-1="ent0004" data-entity-2="ent0006" data-link-type="extension" data-source-line="31" id="lnk7"><path codeLine="31" d="M806.0054,175.057 C772.5254,190.877 746.73,201.7669 707.87,215.1869 C646.34,236.4269 577.33,254.9369 516.25,269.5669" fill="none" id="MxBlueskyParameters-backto-LoadCentreCollect" style="stroke:#181818;stroke-width:1;"/><polygon fill="none" points="822.28,167.3669,803.442,169.6321,808.5688,180.4818,822.28,167.3669" style="stroke:#181818;stroke-width:1;stroke-linejoin:miter;stroke-miterlimit:10;"/></g><!--reverse link WithVisit to LoadCentreCollect--><g class="link" data-entity-1="ent0003" data-entity-2="ent0006" data-link-type="extension" data-source-line="32" id="lnk8"><path codeLine="32" d="M487.9672,194.5988 C454.9072,220.5788 428.63,241.2269 397.32,265.8369" fill="none" id="WithVisit-backto-LoadCentreCollect" style="stroke:#181818;stroke-width:1;"/><polygon fill="none" points="502.12,183.4769,484.2599,189.8812,491.6745,199.3164,502.12,183.4769" style="stroke:#181818;stroke-width:1;stroke-linejoin:miter;stroke-miterlimit:10;"/></g><!--reverse link WithSample to LoadCentreCollect--><g class="link" data-entity-1="ent0002" data-entity-2="ent0006" data-link-type="extension" data-source-line="33" id="lnk9"><path codeLine="33" d="M324.7245,201.0852 C330.2345,227.0652 333.24,241.2269 338.46,265.8369" fill="none" id="WithSample-backto-LoadCentreCollect" style="stroke:#181818;stroke-width:1;"/><polygon fill="none" points="320.99,183.4769,318.855,202.33,330.5939,199.8404,320.99,183.4769" style="stroke:#181818;stroke-width:1;stroke-linejoin:miter;stroke-miterlimit:10;"/></g><!--reverse link WithCentreSelection to LoadCentreCollect--><g class="link" data-entity-1="ent0010" data-entity-2="ent0006" data-link-type="extension" data-source-line="34" id="lnk11"><path codeLine="34" d="M141.5545,169.5887 C163.8045,185.6187 179.62,196.7469 206.87,215.1869 C231.9,232.1169 259.82,250.2769 284.11,265.8369" fill="none" id="WithCentreSelection-backto-LoadCentreCollect" style="stroke:#181818;stroke-width:1;"/><polygon fill="none" points="126.95,159.0669,138.0472,174.4569,145.0618,164.7205,126.95,159.0669" style="stroke:#181818;stroke-width:1;stroke-linejoin:miter;stroke-miterlimit:10;"/></g><?plantuml-src VP7FRi8m3CRFv2bysmcUOATnsM5CquhOCKfJGoFoJucBg81tdzD2jGd4gVBFxkVFNrxMhScmDHQ1lwgZCD-XnwG86wXxk1KoMkMfStOHUo784F_mtaTC9dZuKaav94om2WrQaP70CybHQQmmSfj20Xyy2i5ihtO8xYXhss7UzmiTd0j-4Myo6Kw2mWwfPScJq5Rb33-6sagvQF4aPiOJvA6GfXdBCtoo_et6JkyVSkF5vO_YncH3B9WfGOtAMSCUX-fGEcAsjK5D8WsxqtoAR4mcvJLAvrZkSkzsTNmRZvkooRobGiSf6htXiWGtNInT2KuUHZv8NXubrLuZ_v_LkF8Zg6Q9dX8kWxNianT-XpfGQQnRz6CJKc6IpseaM_PI3xZCaYBMhhJou3fBHgOhafdPuEd1NV1wdi_ljuiftcS3uui-cnX9XGMKp1wF_W80?></g></svg>