<svg xmlns="http://www.w3.org/2000/svg" xmlns:xlink="http://www.w3.org/1999/xlink" contentStyleType="text/css" data-diagram-type="CLASS" height="1165px" preserveAspectRatio="none" style="width:4041px;height:1165px;background:#FFFFFF;" version="1.1" viewBox="0 0 4041 1165" width="4041px" zoomAndPan="magnify"><title>Hyperion Parameter Model</title><defs/><g><g class="title" data-source-line="3"><text fill="#000000" font-family="sans-serif" font-size="14" font-weight="bold" lengthAdjust="spacing" textLength="212.4951" x="1907.5374" y="22.9951">Hyperion Parameter Model</text></g><!--cluster mx_bluesky.common.parameters--><g class="cluster" data-entity="mx_bluesky.common.parameters" data-source-line="6" data-uid="ent0002" id="cluster_mx_bluesky.common.parameters"><path d="M302.2,104.0769 L563.5125,104.0769 A3.75,3.75 0 0 1 566.0125,106.5769 L573.0125,126.3737 L2783.2,126.3737 A2.5,2.5 0 0 1 2785.7,128.8737 L2785.7,882.8069 A2.5,2.5 0 0 1 2783.2,885.3069 L302.2,885.3069 A2.5,2.5 0 0 1 299.7,882.8069 L299.7,106.5769 A2.5,2.5 0 0 1 302.2,104.0769" fill="none" style="stroke:#000000;stroke-width:1.5;"/><line style="stroke:#000000;stroke-width:1.5;" x1="299.7" x2="573.0125" y1="126.3737" y2="126.3737"/><text fill="#000000" font-family="sans-serif" font-size="14" font-weight="bold" lengthAdjust="spacing" textLength="260.3125" x="303.7" y="119.072">mx_bluesky.common.parameters</text></g><!--cluster mx_bluesky.hyperion.parameters--><g class="cluster" data-entity="mx_bluesky.hyperion.parameters" data-source-line="71" data-uid="ent0015" id="cluster_mx_bluesky.hyperion.parameters"><path d="M2812.2,721.2669 L3076.7322,721.2669 A3.75,3.75 0 0 1 3079.2322,723.7669 L3086.2322,743.5638 L3987.2,743.5638 A2.5,2.5 0 0 1 3989.7,746.0638 L3989.7,1155.9969 A2.5,2.5 0 0 1 3987.2,1158.4969 L2812.2,1158.4969 A2.5,2.5 0 0 1 2809.7,1155.9969 L2809.7,723.7669 A2.5,2.5 0 0 1 2812.2,721.2669" fill="none" style="stroke:#000000;stroke-width:1.5;"/><line style="stroke:#000000;stroke-width:1.5;" x1="2809.7" x2="3086.2322" y1="743.5638" y2="743.5638"/><text fill="#000000" font-family="sans-serif" font-size="14" font-weight="bold" lengthAdjust="spacing" textLength="263.5322" x="2813.7" y="736.262">mx_bluesky.hyperion.parameters</text></g><!--class WithSample--><g class="entity" data-entity="WithSample" data-source-line="8" data-uid="ent0003" id="entity_WithSample"><rect fill="#F1F1F1" height="96.8906" rx="2.5" ry="2.5" style="stroke:#181818;stroke-width:0.5;" width="176.3086" x="1615.55" y="163.3669"/><ellipse cx="1657.4243" cy="179.3669" fill="#ADD1B2" rx="11" ry="11" style="stroke:#181818;stroke-width:1;"/><path d="M1660.3931,185.0075 Q1659.8149,185.3044 1659.1743,185.445 Q1658.5337,185.6013 1657.8306,185.6013 Q1655.3306,185.6013 1654.0024,183.9606 Q1652.6899,182.3044 1652.6899,179.1794 Q1652.6899,176.0544 1654.0024,174.3981 Q1655.3306,172.7419 1657.8306,172.7419 Q1658.5337,172.7419 1659.1743,172.8981 Q1659.8306,173.0544 1660.3931,173.3513 L1660.3931,176.07 Q1659.7681,175.4919 1659.1743,175.2263 Q1658.5806,174.945 1657.9556,174.945 Q1656.6118,174.945 1655.9243,176.0231 Q1655.2368,177.0856 1655.2368,179.1794 Q1655.2368,181.2731 1655.9243,182.3513 Q1656.6118,183.4138 1657.9556,183.4138 Q1658.5806,183.4138 1659.1743,183.1481 Q1659.7681,182.8669 1660.3931,182.2888 L1660.3931,185.0075 Z " fill="#000000"/><text fill="#000000" font-family="sans-serif" font-size="14" lengthAdjust="spacing" textLength="84.5879" x="1677.3964" y="184.2136">WithSample</text><line style="stroke:#181818;stroke-width:0.5;" x1="1616.55" x2="1790.8586" y1="195.3669" y2="195.3669"/><text fill="#000000" font-family="sans-serif" font-size="14" lengthAdjust="spacing" textLength="93.3789" x="1621.55" y="212.362">int sample_id</text><text fill="#000000" font-family="sans-serif" font-size="14" lengthAdjust="spacing" textLength="164.3086" x="1621.55" y="228.6589">int | None sample_puck</text><text fill="#000000" font-family="sans-serif" font-size="14" lengthAdjust="spacing" textLength="152.3936" x="1621.55" y="244.9557">int | None sample_pin</text><line style="stroke:#181818;stroke-width:0.5;" x1="1616.55" x2="1790.8586" y1="252.2575" y2="252.2575"/></g><!--class WithCentreSelection--><g class="entity" data-entity="WithCentreSelection" data-source-line="13" data-uid="ent0004" id="entity_WithCentreSelection"><rect fill="#F1F1F1" height="64.2969" rx="2.5" ry="2.5" style="stroke:#181818;stroke-width:0.5;" width="306.7861" x="679.31" y="179.6669"/><ellipse cx="756.5869" cy="195.6669" fill="#ADD1B2" rx="11" ry="11" style="stroke:#181818;stroke-width:1;"/><path d="M759.5556,201.3075 Q758.9775,201.6044 758.3369,201.745 Q757.6962,201.9013 756.9931,201.9013 Q754.4931,201.9013 753.165,200.2606 Q751.8525,198.6044 751.8525,195.4794 Q751.8525,192.3544 753.165,190.6981 Q754.4931,189.0419 756.9931,189.0419 Q757.6962,189.0419 758.3369,189.1981 Q758.9931,189.3544 759.5556,189.6513 L759.5556,192.37 Q758.9306,191.7919 758.3369,191.5263 Q757.7431,191.245 757.1181,191.245 Q755.7744,191.245 755.0869,192.3231 Q754.3994,193.3856 754.3994,195.4794 Q754.3994,197.5731 755.0869,198.6513 Q755.7744,199.7138 757.1181,199.7138 Q757.7431,199.7138 758.3369,199.4481 Q758.9306,199.1669 759.5556,198.5888 L759.5556,201.3075 Z " fill="#000000"/><text fill="#000000" font-family="sans-serif" font-size="14" lengthAdjust="spacing" textLength="143.7324" x="777.0869" y="200.5136">WithCentreSelection</text><line style="stroke:#181818;stroke-width:0.5;" x1="680.31" x2="985.0961" y1="211.6669" y2="211.6669"/><text fill="#000000" font-family="sans-serif" font-size="14" lengthAdjust="spacing" textLength="294.7861" x="685.31" y="228.662">TopNByMaxCountSelection select_centres</text><line style="stroke:#181818;stroke-width:0.5;" x1="680.31" x2="985.0961" y1="235.9638" y2="235.9638"/></g><!--class SplitScan--><g class="entity" data-entity="SplitScan" data-source-line="16" data-uid="ent0005" id="entity_SplitScan"><rect fill="#F1F1F1" height="48" rx="2.5" ry="2.5" style="stroke:#181818;stroke-width:0.5;" width="97.0781" x="2664.16" y="187.8169"/><ellipse cx="2679.16" cy="203.8169" fill="#ADD1B2" rx="11" ry="11" style="stroke:#181818;stroke-width:1;"/><path d="M2682.1288,209.4575 Q2681.5506,209.7544 2680.91,209.895 Q2680.2694,210.0513 2679.5663,210.0513 Q2677.0663,210.0513 2675.7381,208.4106 Q2674.4256,206.7544 2674.4256,203.6294 Q2674.4256,200.5044 2675.7381,198.8481 Q2677.0663,197.1919 2679.5663,197.1919 Q2680.2694,197.1919 2680.91,197.3481 Q2681.5663,197.5044 2682.1288,197.8013 L2682.1288,200.52 Q2681.5038,199.9419 2680.91,199.6763 Q2680.3163,199.395 2679.6913,199.395 Q2678.3475,199.395 2677.66,200.4731 Q2676.9725,201.5356 2676.9725,203.6294 Q2676.9725,205.7231 2677.66,206.8013 Q2678.3475,207.8638 2679.6913,207.8638 Q2680.3163,207.8638 2680.91,207.5981 Q2681.5038,207.3169 2682.1288,206.7388 L2682.1288,209.4575 Z " fill="#000000"/><text fill="#000000" font-family="sans-serif" font-size="14" lengthAdjust="spacing" textLength="65.0781" x="2693.16" y="208.6636">SplitScan</text><line style="stroke:#181818;stroke-width:0.5;" x1="2665.16" x2="2760.2381" y1="219.8169" y2="219.8169"/><line style="stroke:#181818;stroke-width:0.5;" x1="2665.16" x2="2760.2381" y1="227.8169" y2="227.8169"/></g><!--class WithOptionalEnergyChange--><g class="entity" data-entity="WithOptionalEnergyChange" data-source-line="18" data-uid="ent0006" id="entity_WithOptionalEnergyChange"><rect fill="#F1F1F1" height="64.2969" rx="2.5" ry="2.5" style="stroke:#181818;stroke-width:0.5;" width="235.4463" x="1344.98" y="179.6669"/><ellipse cx="1364.1645" cy="195.6669" fill="#ADD1B2" rx="11" ry="11" style="stroke:#181818;stroke-width:1;"/><path d="M1367.1332,201.3075 Q1366.5551,201.6044 1365.9145,201.745 Q1365.2738,201.9013 1364.5707,201.9013 Q1362.0707,201.9013 1360.7426,200.2606 Q1359.4301,198.6044 1359.4301,195.4794 Q1359.4301,192.3544 1360.7426,190.6981 Q1362.0707,189.0419 1364.5707,189.0419 Q1365.2738,189.0419 1365.9145,189.1981 Q1366.5707,189.3544 1367.1332,189.6513 L1367.1332,192.37 Q1366.5082,191.7919 1365.9145,191.5263 Q1365.3207,191.245 1364.6957,191.245 Q1363.352,191.245 1362.6645,192.3231 Q1361.977,193.3856 1361.977,195.4794 Q1361.977,197.5731 1362.6645,198.6513 Q1363.352,199.7138 1364.6957,199.7138 Q1365.3207,199.7138 1365.9145,199.4481 Q1366.5082,199.1669 1367.1332,198.5888 L1367.1332,201.3075 Z " fill="#000000"/><text fill="#000000" font-family="sans-serif" font-size="14" lengthAdjust="spacing" textLength="194.1475" x="1379.0944" y="200.5136">WithOptionalEnergyChange</text><line style="stroke:#181818;stroke-width:0.5;" x1="1345.98" x2="1579.4263" y1="211.6669" y2="211.6669"/><text fill="#000000" font-family="sans-serif" font-size="14" lengthAdjust="spacing" textLength="223.4463" x="1350.98" y="228.662">float | None demand_energy_ev</text><line style="stroke:#181818;stroke-width:0.5;" x1="1345.98" x2="1579.4263" y1="235.9638" y2="235.9638"/></g><!--class WithPandaGridScan--><g class="entity" data-entity="WithPandaGridScan" data-source-line="21" data-uid="ent0007" id="entity_WithPandaGridScan"><rect fill="#F1F1F1" height="64.2969" rx="2.5" ry="2.5" style="stroke:#181818;stroke-width:0.5;" width="240.5664" x="2388.42" y="179.6669"/><ellipse cx="2435.0172" cy="195.6669" fill="#ADD1B2" rx="11" ry="11" style="stroke:#181818;stroke-width:1;"/><path d="M2437.9859,201.3075 Q2437.4078,201.6044 2436.7672,201.745 Q2436.1265,201.9013 2435.4234,201.9013 Q2432.9234,201.9013 2431.5953,200.2606 Q2430.2828,198.6044 2430.2828,195.4794 Q2430.2828,192.3544 2431.5953,190.6981 Q2432.9234,189.0419 2435.4234,189.0419 Q2436.1265,189.0419 2436.7672,189.1981 Q2437.4234,189.3544 2437.9859,189.6513 L2437.9859,192.37 Q2437.3609,191.7919 2436.7672,191.5263 Q2436.1734,191.245 2435.5484,191.245 Q2434.2047,191.245 2433.5172,192.3231 Q2432.8297,193.3856 2432.8297,195.4794 Q2432.8297,197.5731 2433.5172,198.6513 Q2434.2047,199.7138 2435.5484,199.7138 Q2436.1734,199.7138 2436.7672,199.4481 Q2437.3609,199.1669 2437.9859,198.5888 L2437.9859,201.3075 Z " fill="#000000"/><text fill="#000000" font-family="sans-serif" font-size="14" lengthAdjust="spacing" textLength="138.8721" x="2455.5172" y="200.5136">WithPandaGridScan</text><line style="stroke:#181818;stroke-width:0.5;" x1="2389.42" x2="2627.9864" y1="211.6669" y2="211.6669"/><text fill="#000000" font-family="sans-serif" font-size="14" lengthAdjust="spacing" textLength="228.5664" x="2394.42" y="228.662">float panda_runup_distance_mm</text><line style="stroke:#181818;stroke-width:0.5;" x1="2389.42" x2="2627.9864" y1="235.9638" y2="235.9638"/></g><!--class OptionalGonioAngleStarts--><g class="entity" data-entity="OptionalGonioAngleStarts" data-source-line="24" data-uid="ent0008" id="entity_OptionalGonioAngleStarts"><rect fill="#F1F1F1" height="113.1875" rx="2.5" ry="2.5" style="stroke:#181818;stroke-width:0.5;" width="219.3203" x="2134.04" y="155.2269"/><ellipse cx="2151.7633" cy="171.2269" fill="#ADD1B2" rx="11" ry="11" style="stroke:#181818;stroke-width:1;"/><path d="M2154.732,176.8675 Q2154.1539,177.1644 2153.5133,177.305 Q2152.8727,177.4613 2152.1695,177.4613 Q2149.6695,177.4613 2148.3414,175.8206 Q2147.0289,174.1644 2147.0289,171.0394 Q2147.0289,167.9144 2148.3414,166.2581 Q2149.6695,164.6019 2152.1695,164.6019 Q2152.8727,164.6019 2153.5133,164.7581 Q2154.1695,164.9144 2154.732,165.2113 L2154.732,167.93 Q2154.107,167.3519 2153.5133,167.0863 Q2152.9195,166.805 2152.2945,166.805 Q2150.9508,166.805 2150.2633,167.8831 Q2149.5758,168.9456 2149.5758,171.0394 Q2149.5758,173.1331 2150.2633,174.2113 Q2150.9508,175.2738 2152.2945,175.2738 Q2152.9195,175.2738 2153.5133,175.0081 Q2154.107,174.7269 2154.732,174.1488 L2154.732,176.8675 Z " fill="#000000"/><text fill="#000000" font-family="sans-serif" font-size="14" lengthAdjust="spacing" textLength="181.2686" x="2166.3685" y="176.0736">OptionalGonioAngleStarts</text><line style="stroke:#181818;stroke-width:0.5;" x1="2135.04" x2="2352.3603" y1="187.2269" y2="187.2269"/><text fill="#000000" font-family="sans-serif" font-size="14" lengthAdjust="spacing" textLength="207.3203" x="2140.04" y="204.222">float | None omega_start_deg</text><text fill="#000000" font-family="sans-serif" font-size="14" lengthAdjust="spacing" textLength="180.6875" x="2140.04" y="220.5189">float | None phi_start_deg</text><text fill="#000000" font-family="sans-serif" font-size="14" lengthAdjust="spacing" textLength="179.498" x="2140.04" y="236.8157">float | None chi_start_deg</text><text fill="#000000" font-family="sans-serif" font-size="14" lengthAdjust="spacing" textLength="202.0771" x="2140.04" y="253.1126">float | None kappa_start_deg</text><line style="stroke:#181818;stroke-width:0.5;" x1="2135.04" x2="2352.3603" y1="260.4144" y2="260.4144"/></g><!--class WithSnapshot--><g class="entity" data-entity="WithSnapshot" data-source-line="30" data-uid="ent0009" id="entity_WithSnapshot"><rect fill="#F1F1F1" height="96.8906" rx="2.5" ry="2.5" style="stroke:#181818;stroke-width:0.5;" width="289.3477" x="1021.03" y="163.3669"/><ellipse cx="1112.6828" cy="179.3669" fill="#ADD1B2" rx="11" ry="11" style="stroke:#181818;stroke-width:1;"/><path d="M1115.6516,185.0075 Q1115.0735,185.3044 1114.4328,185.445 Q1113.7922,185.6013 1113.0891,185.6013 Q1110.5891,185.6013 1109.261,183.9606 Q1107.9485,182.3044 1107.9485,179.1794 Q1107.9485,176.0544 1109.261,174.3981 Q1110.5891,172.7419 1113.0891,172.7419 Q1113.7922,172.7419 1114.4328,172.8981 Q1115.0891,173.0544 1115.6516,173.3513 L1115.6516,176.07 Q1115.0266,175.4919 1114.4328,175.2263 Q1113.8391,174.945 1113.2141,174.945 Q1111.8703,174.945 1111.1828,176.0231 Q1110.4953,177.0856 1110.4953,179.1794 Q1110.4953,181.2731 1111.1828,182.3513 Q1111.8703,183.4138 1113.2141,183.4138 Q1113.8391,183.4138 1114.4328,183.1481 Q1115.0266,182.8669 1115.6516,182.2888 L1115.6516,185.0075 Z " fill="#000000"/><text fill="#000000" font-family="sans-serif" font-size="14" lengthAdjust="spacing" textLength="97.542" x="1133.1828" y="184.2136">WithSnapshot</text><line style="stroke:#181818;stroke-width:0.5;" x1="1022.03" x2="1309.3777" y1="195.3669" y2="195.3669"/><text fill="#000000" font-family="sans-serif" font-size="14" lengthAdjust="spacing" textLength="169.627" x="1027.03" y="212.362">Path snapshot_directory</text><text fill="#000000" font-family="sans-serif" font-size="14" lengthAdjust="spacing" textLength="277.3477" x="1027.03" y="228.6589">list[float] | None snapshot_omegas_deg</text><text fill="#000000" font-family="sans-serif" font-size="14" lengthAdjust="spacing" textLength="171.7051" x="1027.03" y="244.9557">bool use_grid_snapshots</text><line style="stroke:#181818;stroke-width:0.5;" x1="1022.03" x2="1309.3777" y1="252.2575" y2="252.2575"/></g><!--class WithVisit--><g class="entity" data-entity="WithVisit" data-source-line="35" data-uid="ent0010" id="entity_WithVisit"><rect fill="#F1F1F1" height="129.4844" rx="2.5" ry="2.5" style="stroke:#181818;stroke-width:0.5;" width="271.7861" x="1826.81" y="147.0769"/><ellipse cx="1927.3359" cy="163.0769" fill="#ADD1B2" rx="11" ry="11" style="stroke:#181818;stroke-width:1;"/><path d="M1930.3046,168.7175 Q1929.7265,169.0144 1929.0859,169.155 Q1928.4453,169.3112 1927.7421,169.3112 Q1925.2421,169.3112 1923.914,167.6706 Q1922.6015,166.0144 1922.6015,162.8894 Q1922.6015,159.7644 1923.914,158.1081 Q1925.2421,156.4519 1927.7421,156.4519 Q1928.4453,156.4519 1929.0859,156.6081 Q1929.7421,156.7644 1930.3046,157.0612 L1930.3046,159.78 Q1929.6796,159.2019 1929.0859,158.9362 Q1928.4921,158.655 1927.8671,158.655 Q1926.5234,158.655 1925.8359,159.7331 Q1925.1484,160.7956 1925.1484,162.8894 Q1925.1484,164.9831 1925.8359,166.0612 Q1926.5234,167.1237 1927.8671,167.1237 Q1928.4921,167.1237 1929.0859,166.8581 Q1929.6796,166.5769 1930.3046,165.9987 L1930.3046,168.7175 Z " fill="#000000"/><text fill="#000000" font-family="sans-serif" font-size="14" lengthAdjust="spacing" textLength="62.2344" x="1947.8359" y="167.9236">WithVisit</text><line style="stroke:#181818;stroke-width:0.5;" x1="1827.81" x2="2097.5961" y1="179.0769" y2="179.0769"/><text fill="#000000" font-family="sans-serif" font-size="14" lengthAdjust="spacing" textLength="87.9717" x="1832.81" y="196.072">str beamline</text><text fill="#000000" font-family="sans-serif" font-size="14" lengthAdjust="spacing" textLength="51.8369" x="1832.81" y="212.3689">str visit</text><text fill="#000000" font-family="sans-serif" font-size="14" lengthAdjust="spacing" textLength="259.7861" x="1832.81" y="228.6657">str det_dist_to_beam_converter_path</text><text fill="#000000" font-family="sans-serif" font-size="14" lengthAdjust="spacing" textLength="131.5918" x="1832.81" y="244.9626">str insertion_prefix</text><text fill="#000000" font-family="sans-serif" font-size="14" lengthAdjust="spacing" textLength="245.752" x="1832.81" y="261.2595">float | None detector_distance_mm</text><line style="stroke:#181818;stroke-width:0.5;" x1="1827.81" x2="2097.5961" y1="268.5613" y2="268.5613"/></g><!--class GridCommon--><g class="entity" data-entity="GridCommon" data-source-line="44" data-uid="ent0011" id="entity_GridCommon"><rect fill="#F1F1F1" height="145.7813" rx="2.5" ry="2.5" style="stroke:#181818;stroke-width:0.5;" width="332.332" x="323.53" y="715.5269"/><ellipse cx="439.2282" cy="731.5269" fill="#ADD1B2" rx="11" ry="11" style="stroke:#181818;stroke-width:1;"/><path d="M442.197,737.1675 Q441.6189,737.4644 440.9782,737.605 Q440.3376,737.7613 439.6345,737.7613 Q437.1345,737.7613 435.8064,736.1206 Q434.4939,734.4644 434.4939,731.3394 Q434.4939,728.2144 435.8064,726.5581 Q437.1345,724.9019 439.6345,724.9019 Q440.3376,724.9019 440.9782,725.0581 Q441.6345,725.2144 442.197,725.5113 L442.197,728.23 Q441.572,727.6519 440.9782,727.3863 Q440.3845,727.105 439.7595,727.105 Q438.4157,727.105 437.7282,728.1831 Q437.0407,729.2456 437.0407,731.3394 Q437.0407,733.4331 437.7282,734.5113 Q438.4157,735.5738 439.7595,735.5738 Q440.3845,735.5738 440.9782,735.3081 Q441.572,735.0269 442.197,734.4488 L442.197,737.1675 Z " fill="#000000"/><text fill="#000000" font-family="sans-serif" font-size="14" lengthAdjust="spacing" textLength="92.4355" x="459.7282" y="736.3736">GridCommon</text><line style="stroke:#181818;stroke-width:0.5;" x1="324.53" x2="654.862" y1="747.5269" y2="747.5269"/><text fill="#000000" font-family="sans-serif" font-size="14" lengthAdjust="spacing" textLength="125.2959" x="329.53" y="764.522">float box_size_um</text><text fill="#000000" font-family="sans-serif" font-size="14" lengthAdjust="spacing" textLength="138.4209" x="329.53" y="780.8189">float grid_width_um</text><text fill="#000000" font-family="sans-serif" font-size="14" lengthAdjust="spacing" textLength="153.7129" x="329.53" y="797.1157">float exposure_time_s</text><text fill="#000000" font-family="sans-serif" font-size="14" lengthAdjust="spacing" textLength="320.332" x="329.53" y="813.4126">IspybExperimentType ispyb_experiment_type</text><text fill="#000000" font-family="sans-serif" font-size="14" lengthAdjust="spacing" textLength="282.3516" x="329.53" y="829.7095">ApertureValue | None selected_aperture</text><text fill="#000000" font-family="sans-serif" font-size="14" lengthAdjust="spacing" textLength="130.498" x="329.53" y="846.0064">float tip_offset_um</text><line style="stroke:#181818;stroke-width:0.5;" x1="324.53" x2="654.862" y1="853.3081" y2="853.3081"/></g><!--class MxBlueskyParameters--><g class="entity" data-entity="MxBlueskyParameters" data-source-line="52" data-uid="ent0012" id="entity_MxBlueskyParameters"><rect fill="#F1F1F1" height="64.2969" rx="2.5" ry="2.5" style="stroke:#181818;stroke-width:0.5;" width="317.4639" x="326.97" y="179.6669"/><ellipse cx="403.5564" cy="195.6669" fill="#ADD1B2" rx="11" ry="11" style="stroke:#181818;stroke-width:1;"/><path d="M406.5252,201.3075 Q405.9471,201.6044 405.3064,201.745 Q404.6658,201.9013 403.9627,201.9013 Q401.4627,201.9013 400.1346,200.2606 Q398.8221,198.6044 398.8221,195.4794 Q398.8221,192.3544 400.1346,190.6981 Q401.4627,189.0419 403.9627,189.0419 Q404.6658,189.0419 405.3064,189.1981 Q405.9627,189.3544 406.5252,189.6513 L406.5252,192.37 Q405.9002,191.7919 405.3064,191.5263 Q404.7127,191.245 404.0877,191.245 Q402.7439,191.245 402.0564,192.3231 Q401.3689,193.3856 401.3689,195.4794 Q401.3689,197.5731 402.0564,198.6513 Q402.7439,199.7138 404.0877,199.7138 Q404.7127,199.7138 405.3064,199.4481 Q405.9002,199.1669 406.5252,198.5888 L406.5252,201.3075 Z " fill="#000000"/><text fill="#000000" font-family="sans-serif" font-size="14" lengthAdjust="spacing" textLength="155.791" x="424.0564" y="200.5136">MxBlueskyParameters</text><line style="stroke:#181818;stroke-width:0.5;" x1="327.97" x2="643.4339" y1="211.6669" y2="211.6669"/><text fill="#000000" font-family="sans-serif" font-size="14" lengthAdjust="spacing" textLength="305.4639" x="332.97" y="228.662">SemanticVersion parameter_model_version</text><line style="stroke:#181818;stroke-width:0.5;" x1="327.97" x2="643.4339" y1="235.9638" y2="235.9638"/></g><!--class DiffractionExperiment--><g class="entity" data-entity="DiffractionExperiment" data-source-line="55" data-uid="ent0013" id="entity_DiffractionExperiment"><rect fill="#F1F1F1" height="210.9688" rx="2.5" ry="2.5" style="stroke:#181818;stroke-width:0.5;" width="332.332" x="323.53" y="336.5569"/><ellipse cx="408.3127" cy="352.5569" fill="#ADD1B2" rx="11" ry="11" style="stroke:#181818;stroke-width:1;"/><path d="M411.2815,358.1975 Q410.7033,358.4944 410.0627,358.635 Q409.4221,358.7913 408.719,358.7913 Q406.219,358.7913 404.8908,357.1506 Q403.5783,355.4944 403.5783,352.3694 Q403.5783,349.2444 404.8908,347.5881 Q406.219,345.9319 408.719,345.9319 Q409.4221,345.9319 410.0627,346.0881 Q410.719,346.2444 411.2815,346.5413 L411.2815,349.26 Q410.6565,348.6819 410.0627,348.4163 Q409.469,348.135 408.844,348.135 Q407.5002,348.135 406.8127,349.2131 Q406.1252,350.2756 406.1252,352.3694 Q406.1252,354.4631 406.8127,355.5413 Q407.5002,356.6038 408.844,356.6038 Q409.469,356.6038 410.0627,356.3381 Q410.6565,356.0569 411.2815,355.4788 L411.2815,358.1975 Z " fill="#000000"/><text fill="#000000" font-family="sans-serif" font-size="14" lengthAdjust="spacing" textLength="154.2666" x="428.8127" y="357.4036">DiffractionExperiment</text><line style="stroke:#181818;stroke-width:0.5;" x1="324.53" x2="654.862" y1="368.5569" y2="368.5569"/><text fill="#000000" font-family="sans-serif" font-size="14" lengthAdjust="spacing" textLength="91.0137" x="329.53" y="385.552">str file_name</text><text fill="#000000" font-family="sans-serif" font-size="14" lengthAdjust="spacing" textLength="153.7129" x="329.53" y="401.8489">float exposure_time_s</text><text fill="#000000" font-family="sans-serif" font-size="14" lengthAdjust="spacing" textLength="89.5029" x="329.53" y="418.1457">str comment</text><text fill="#000000" font-family="sans-serif" font-size="14" lengthAdjust="spacing" textLength="186.915" x="329.53" y="434.4426">TriggerMode trigger_mode</text><text fill="#000000" font-family="sans-serif" font-size="14" lengthAdjust="spacing" textLength="157.9854" x="329.53" y="450.7395">int | None run_number</text><text fill="#000000" font-family="sans-serif" font-size="14" lengthAdjust="spacing" textLength="282.3516" x="329.53" y="467.0364">ApertureValue | None selected_aperture</text><text fill="#000000" font-family="sans-serif" font-size="14" lengthAdjust="spacing" textLength="159.2979" x="329.53" y="483.3332">float transmission_frac</text><text fill="#000000" font-family="sans-serif" font-size="14" lengthAdjust="spacing" textLength="320.332" x="329.53" y="499.6301">IspybExperimentType ispyb_experiment_type</text><text fill="#000000" font-family="sans-serif" font-size="14" lengthAdjust="spacing" textLength="146.1113" x="329.53" y="515.927">str storage_directory</text><text fill="#000000" font-family="sans-serif" font-size="14" lengthAdjust="spacing" textLength="131.0518" x="329.53" y="532.2239">bool use_roi_mode</text><line style="stroke:#181818;stroke-width:0.5;" x1="324.53" x2="654.862" y1="539.5256" y2="539.5256"/></g><!--class DiffractionExperimentWithSample--><g class="entity" data-entity="DiffractionExperimentWithSample" data-source-line="67" data-uid="ent0014" id="entity_DiffractionExperimentWithSample"><rect fill="#F1F1F1" height="48" rx="2.5" ry="2.5" style="stroke:#181818;stroke-width:0.5;" width="270.8545" x="354.27" y="607.5269"/><ellipse cx="369.27" cy="623.5269" fill="#ADD1B2" rx="11" ry="11" style="stroke:#181818;stroke-width:1;"/><path d="M372.2388,629.1675 Q371.6606,629.4644 371.02,629.605 Q370.3794,629.7613 369.6763,629.7613 Q367.1763,629.7613 365.8481,628.1206 Q364.5356,626.4644 364.5356,623.3394 Q364.5356,620.2144 365.8481,618.5581 Q367.1763,616.9019 369.6763,616.9019 Q370.3794,616.9019 371.02,617.0581 Q371.6763,617.2144 372.2388,617.5113 L372.2388,620.23 Q371.6138,619.6519 371.02,619.3863 Q370.4263,619.105 369.8013,619.105 Q368.4575,619.105 367.77,620.1831 Q367.0825,621.2456 367.0825,623.3394 Q367.0825,625.4331 367.77,626.5113 Q368.4575,627.5738 369.8013,627.5738 Q370.4263,627.5738 371.02,627.3081 Q371.6138,627.0269 372.2388,626.4488 L372.2388,629.1675 Z " fill="#000000"/><text fill="#000000" font-family="sans-serif" font-size="14" lengthAdjust="spacing" textLength="238.8545" x="383.27" y="628.3736">DiffractionExperimentWithSample</text><line style="stroke:#181818;stroke-width:0.5;" x1="355.27" x2="624.1245" y1="639.5269" y2="639.5269"/><line style="stroke:#181818;stroke-width:0.5;" x1="355.27" x2="624.1245" y1="647.5269" y2="647.5269"/></g><!--class GridScanWithEdgeDetect--><g class="entity" data-entity="GridScanWithEdgeDetect" data-source-line="72" data-uid="ent0016" id="entity_GridScanWithEdgeDetect"><rect fill="#F1F1F1" height="48" rx="2.5" ry="2.5" style="stroke:#181818;stroke-width:0.5;" width="209.4268" x="3763.99" y="1086.3469"/><ellipse cx="3778.99" cy="1102.3469" fill="#ADD1B2" rx="11" ry="11" style="stroke:#181818;stroke-width:1;"/><path d="M3781.9588,1107.9875 Q3781.3806,1108.2844 3780.74,1108.425 Q3780.0994,1108.5813 3779.3963,1108.5813 Q3776.8963,1108.5813 3775.5681,1106.9406 Q3774.2556,1105.2844 3774.2556,1102.1594 Q3774.2556,1099.0344 3775.5681,1097.3781 Q3776.8963,1095.7219 3779.3963,1095.7219 Q3780.0994,1095.7219 3780.74,1095.8781 Q3781.3963,1096.0344 3781.9588,1096.3313 L3781.9588,1099.05 Q3781.3338,1098.4719 3780.74,1098.2063 Q3780.1463,1097.925 3779.5213,1097.925 Q3778.1775,1097.925 3777.49,1099.0031 Q3776.8025,1100.0656 3776.8025,1102.1594 Q3776.8025,1104.2531 3777.49,1105.3313 Q3778.1775,1106.3938 3779.5213,1106.3938 Q3780.1463,1106.3938 3780.74,1106.1281 Q3781.3338,1105.8469 3781.9588,1105.2688 L3781.9588,1107.9875 Z " fill="#000000"/><text fill="#000000" font-family="sans-serif" font-size="14" lengthAdjust="spacing" textLength="177.4268" x="3792.99" y="1107.1936">GridScanWithEdgeDetect</text><line style="stroke:#181818;stroke-width:0.5;" x1="3764.99" x2="3972.4168" y1="1118.3469" y2="1118.3469"/><line style="stroke:#181818;stroke-width:0.5;" x1="3764.99" x2="3972.4168" y1="1126.3469" y2="1126.3469"/></g><!--class GridCommonWithHyperionDetectorParams--><g class="entity" data-entity="GridCommonWithHyperionDetectorParams" data-source-line="74" data-uid="ent0017" id="entity_GridCommonWithHyperionDetectorParams"><rect fill="#F1F1F1" height="48" rx="2.5" ry="2.5" style="stroke:#181818;stroke-width:0.5;" width="333.2188" x="3193.09" y="945.7569"/><ellipse cx="3208.09" cy="961.7569" fill="#ADD1B2" rx="11" ry="11" style="stroke:#181818;stroke-width:1;"/><path d="M3211.0587,967.3975 Q3210.4806,967.6944 3209.84,967.835 Q3209.1994,967.9913 3208.4962,967.9913 Q3205.9962,967.9913 3204.6681,966.3506 Q3203.3556,964.6944 3203.3556,961.5694 Q3203.3556,958.4444 3204.6681,956.7881 Q3205.9962,955.1319 3208.4962,955.1319 Q3209.1994,955.1319 3209.84,955.2881 Q3210.4962,955.4444 3211.0587,955.7413 L3211.0587,958.46 Q3210.4337,957.8819 3209.84,957.6163 Q3209.2462,957.335 3208.6212,957.335 Q3207.2775,957.335 3206.59,958.4131 Q3205.9025,959.4756 3205.9025,961.5694 Q3205.9025,963.6631 3206.59,964.7413 Q3207.2775,965.8038 3208.6212,965.8038 Q3209.2462,965.8038 3209.84,965.5381 Q3210.4337,965.2569 3211.0587,964.6788 L3211.0587,967.3975 Z " fill="#000000"/><text fill="#000000" font-family="sans-serif" font-size="14" lengthAdjust="spacing" textLength="301.2188" x="3222.09" y="966.6036">GridCommonWithHyperionDetectorParams</text><line style="stroke:#181818;stroke-width:0.5;" x1="3194.09" x2="3525.3087" y1="977.7569" y2="977.7569"/><line style="stroke:#181818;stroke-width:0.5;" x1="3194.09" x2="3525.3087" y1="985.7569" y2="985.7569"/></g><!--class PinTipCentreThenXrayCentre--><g class="entity" data-entity="PinTipCentreThenXrayCentre" data-source-line="76" data-uid="ent0018" id="entity_PinTipCentreThenXrayCentre"><rect fill="#F1F1F1" height="64.2969" rx="2.5" ry="2.5" style="stroke:#181818;stroke-width:0.5;" width="235.8955" x="2917.75" y="1078.1969"/><ellipse cx="2932.75" cy="1094.1969" fill="#ADD1B2" rx="11" ry="11" style="stroke:#181818;stroke-width:1;"/><path d="M2935.7188,1099.8375 Q2935.1406,1100.1344 2934.5,1100.275 Q2933.8594,1100.4313 2933.1563,1100.4313 Q2930.6563,1100.4313 2929.3281,1098.7906 Q2928.0156,1097.1344 2928.0156,1094.0094 Q2928.0156,1090.8844 2929.3281,1089.2281 Q2930.6563,1087.5719 2933.1563,1087.5719 Q2933.8594,1087.5719 2934.5,1087.7281 Q2935.1563,1087.8844 2935.7188,1088.1813 L2935.7188,1090.9 Q2935.0938,1090.3219 2934.5,1090.0563 Q2933.9063,1089.775 2933.2813,1089.775 Q2931.9375,1089.775 2931.25,1090.8531 Q2930.5625,1091.9156 2930.5625,1094.0094 Q2930.5625,1096.1031 2931.25,1097.1813 Q2931.9375,1098.2438 2933.2813,1098.2438 Q2933.9063,1098.2438 2934.5,1097.9781 Q2935.0938,1097.6969 2935.7188,1097.1188 L2935.7188,1099.8375 Z " fill="#000000"/><text fill="#000000" font-family="sans-serif" font-size="14" lengthAdjust="spacing" textLength="203.8955" x="2946.75" y="1099.0436">PinTipCentreThenXrayCentre</text><line style="stroke:#181818;stroke-width:0.5;" x1="2918.75" x2="3152.6455" y1="1110.1969" y2="1110.1969"/><text fill="#000000" font-family="sans-serif" font-size="14" lengthAdjust="spacing" textLength="130.498" x="2923.75" y="1127.192">float tip_offset_um</text><line style="stroke:#181818;stroke-width:0.5;" x1="2918.75" x2="3152.6455" y1="1134.4938" y2="1134.4938"/></g><!--class RotationExperiment--><g class="entity" data-entity="RotationExperiment" data-source-line="79" data-uid="ent0019" id="entity_RotationExperiment"><rect fill="#F1F1F1" height="96.8906" rx="2.5" ry="2.5" style="stroke:#181818;stroke-width:0.5;" width="332.332" x="2825.53" y="921.3069"/><ellipse cx="2917.4118" cy="937.3069" fill="#ADD1B2" rx="11" ry="11" style="stroke:#181818;stroke-width:1;"/><path d="M2920.3806,942.9475 Q2919.8025,943.2444 2919.1618,943.385 Q2918.5212,943.5413 2917.8181,943.5413 Q2915.3181,943.5413 2913.99,941.9006 Q2912.6775,940.2444 2912.6775,937.1194 Q2912.6775,933.9944 2913.99,932.3381 Q2915.3181,930.6819 2917.8181,930.6819 Q2918.5212,930.6819 2919.1618,930.8381 Q2919.8181,930.9944 2920.3806,931.2913 L2920.3806,934.01 Q2919.7556,933.4319 2919.1618,933.1663 Q2918.5681,932.885 2917.9431,932.885 Q2916.5993,932.885 2915.9118,933.9631 Q2915.2243,935.0256 2915.2243,937.1194 Q2915.2243,939.2131 2915.9118,940.2913 Q2916.5993,941.3538 2917.9431,941.3538 Q2918.5681,941.3538 2919.1618,941.0881 Q2919.7556,940.8069 2920.3806,940.2288 L2920.3806,942.9475 Z " fill="#000000"/><text fill="#000000" font-family="sans-serif" font-size="14" lengthAdjust="spacing" textLength="140.0684" x="2937.9118" y="942.1536">RotationExperiment</text><line style="stroke:#181818;stroke-width:0.5;" x1="2826.53" x2="3156.862" y1="953.3069" y2="953.3069"/><text fill="#000000" font-family="sans-serif" font-size="14" lengthAdjust="spacing" textLength="202.8018" x="2831.53" y="970.302">float shutter_opening_time_s</text><text fill="#000000" font-family="sans-serif" font-size="14" lengthAdjust="spacing" textLength="202.9385" x="2831.53" y="986.5989">float rotation_increment_deg</text><text fill="#000000" font-family="sans-serif" font-size="14" lengthAdjust="spacing" textLength="320.332" x="2831.53" y="1002.8957">IspybExperimentType ispyb_experiment_type</text><line style="stroke:#181818;stroke-width:0.5;" x1="2826.53" x2="3156.862" y1="1010.1975" y2="1010.1975"/></g><!--class WithHyperionUDCFeatures--><g class="entity" data-entity="WithHyperionUDCFeatures" data-source-line="84" data-uid="ent0020" id="entity_WithHyperionUDCFeatures"><rect fill="#F1F1F1" height="64.2969" rx="2.5" ry="2.5" style="stroke:#181818;stroke-width:0.5;" width="228.6719" x="3330.36" y="756.2669"/><ellipse cx="3349.4583" cy="772.2669" fill="#ADD1B2" rx="11" ry="11" style="stroke:#181818;stroke-width:1;"/><path d="M3352.4271,777.9075 Q3351.849,778.2044 3351.2083,778.345 Q3350.5677,778.5013 3349.8646,778.5013 Q3347.3646,778.5013 3346.0365,776.8606 Q3344.724,775.2044 3344.724,772.0794 Q3344.724,768.9544 3346.0365,767.2981 Q3347.3646,765.6419 3349.8646,765.6419 Q3350.5677,765.6419 3351.2083,765.7981 Q3351.8646,765.9544 3352.4271,766.2513 L3352.4271,768.97 Q3351.8021,768.3919 3351.2083,768.1263 Q3350.6146,767.845 3349.9896,767.845 Q3348.6458,767.845 3347.9583,768.9231 Q3347.2708,769.9856 3347.2708,772.0794 Q3347.2708,774.1731 3347.9583,775.2513 Q3348.6458,776.3138 3349.9896,776.3138 Q3350.6146,776.3138 3351.2083,776.0481 Q3351.8021,775.7669 3352.4271,775.1888 L3352.4271,777.9075 Z " fill="#000000"/><text fill="#000000" font-family="sans-serif" font-size="14" lengthAdjust="spacing" textLength="187.5645" x="3364.3691" y="777.1136">WithHyperionUDCFeatures</text><line style="stroke:#181818;stroke-width:0.5;" x1="3331.36" x2="3558.0319" y1="788.2669" y2="788.2669"/><text fill="#000000" font-family="sans-serif" font-size="14" lengthAdjust="spacing" textLength="216.6719" x="3336.36" y="805.262">HyperionFeatureFlags features</text><line style="stroke:#181818;stroke-width:0.5;" x1="3331.36" x2="3558.0319" y1="812.5638" y2="812.5638"/></g><!--class MultiRotationScan--><g class="entity" data-entity="MultiRotationScan" data-source-line="87" data-uid="ent0021" id="entity_MultiRotationScan"><rect fill="#F1F1F1" height="64.2969" rx="2.5" ry="2.5" style="stroke:#181818;stroke-width:0.5;" width="540.001" x="3188.7" y="1078.1969"/><ellipse cx="3390.7327" cy="1094.1969" fill="#ADD1B2" rx="11" ry="11" style="stroke:#181818;stroke-width:1;"/><path d="M3393.7015,1099.8375 Q3393.1233,1100.1344 3392.4827,1100.275 Q3391.8421,1100.4313 3391.139,1100.4313 Q3388.639,1100.4313 3387.3108,1098.7906 Q3385.9983,1097.1344 3385.9983,1094.0094 Q3385.9983,1090.8844 3387.3108,1089.2281 Q3388.639,1087.5719 3391.139,1087.5719 Q3391.8421,1087.5719 3392.4827,1087.7281 Q3393.139,1087.8844 3393.7015,1088.1813 L3393.7015,1090.9 Q3393.0765,1090.3219 3392.4827,1090.0563 Q3391.889,1089.775 3391.264,1089.775 Q3389.9202,1089.775 3389.2327,1090.8531 Q3388.5452,1091.9156 3388.5452,1094.0094 Q3388.5452,1096.1031 3389.2327,1097.1813 Q3389.9202,1098.2438 3391.264,1098.2438 Q3391.889,1098.2438 3392.4827,1097.9781 Q3393.0765,1097.6969 3393.7015,1097.1188 L3393.7015,1099.8375 Z " fill="#000000"/><text fill="#000000" font-family="sans-serif" font-size="14" lengthAdjust="spacing" textLength="127.4355" x="3411.2327" y="1099.0436">MultiRotationScan</text><line style="stroke:#181818;stroke-width:0.5;" x1="3189.7" x2="3727.701" y1="1110.1969" y2="1110.1969"/><line style="stroke:#181818;stroke-width:0.5;" x1="3189.7" x2="3727.701" y1="1118.1969" y2="1118.1969"/><text fill="#000000" font-family="sans-serif" font-size="14" lengthAdjust="spacing" textLength="528.001" x="3194.7" y="1135.192">Annotated[list[RotationScanPerSweep], Len(min_length=1)] rotation_scans</text></g><!--class LoadCentreCollect--><g class="entity" data-entity="LoadCentreCollect" data-source-line="90" data-uid="ent0022" id="entity_LoadCentreCollect"><rect fill="#F1F1F1" height="80.5938" rx="2.5" ry="2.5" style="stroke:#181818;stroke-width:0.5;" width="338.6211" x="3598.39" y="929.4569"/><ellipse cx="3699.015" cy="945.4569" fill="#ADD1B2" rx="11" ry="11" style="stroke:#181818;stroke-width:1;"/><path d="M3701.9838,951.0975 Q3701.4056,951.3944 3700.765,951.535 Q3700.1244,951.6913 3699.4213,951.6913 Q3696.9213,951.6913 3695.5931,950.0506 Q3694.2806,948.3944 3694.2806,945.2694 Q3694.2806,942.1444 3695.5931,940.4881 Q3696.9213,938.8319 3699.4213,938.8319 Q3700.1244,938.8319 3700.765,938.9881 Q3701.4213,939.1444 3701.9838,939.4413 L3701.9838,942.16 Q3701.3588,941.5819 3700.765,941.3163 Q3700.1713,941.035 3699.5463,941.035 Q3698.2025,941.035 3697.515,942.1131 Q3696.8275,943.1756 3696.8275,945.2694 Q3696.8275,947.3631 3697.515,948.4413 Q3698.2025,949.5038 3699.5463,949.5038 Q3700.1713,949.5038 3700.765,949.2381 Q3701.3588,948.9569 3701.9838,948.3788 L3701.9838,951.0975 Z " fill="#000000"/><text fill="#000000" font-family="sans-serif" font-size="14" lengthAdjust="spacing" textLength="128.8711" x="3719.515" y="950.3036">LoadCentreCollect</text><line style="stroke:#181818;stroke-width:0.5;" x1="3599.39" x2="3936.0111" y1="961.4569" y2="961.4569"/><text fill="#000000" font-family="sans-serif" font-size="14" lengthAdjust="spacing" textLength="326.6211" x="3604.39" y="978.452">RobotLoadThenCentre robot_load_then_centre</text><text fill="#000000" font-family="sans-serif" font-size="14" lengthAdjust="spacing" textLength="269.3154" x="3604.39" y="994.7489">MultiRotationScan multi_rotation_scan</text><line style="stroke:#181818;stroke-width:0.5;" x1="3599.39" x2="3936.0111" y1="1002.0506" y2="1002.0506"/></g><!--reverse link GridCommonWithHyperionDetectorParams to GridScanWithEdgeDetect--><g class="link" data-entity-1="GridCommonWithHyperionDetectorParams" data-entity-2="GridScanWithEdgeDetect" data-source-line="95" data-uid="lnk23" id="link_GridCommonWithHyperionDetectorParams_GridScanWithEdgeDetect"><path codeLine="95" d="M3463.1276,998.9161 C3556.9576,1024.4661 3688.86,1060.3769 3782.68,1085.9269" fill="none" id="GridCommonWithHyperionDetectorParams-backto-GridScanWithEdgeDetect" style="stroke:#181818;stroke-width:1;"/><polygon fill="none" points="3445.76,994.1869,3461.5512,1004.7053,3464.704,993.1269,3445.76,994.1869" style="stroke:#181818;stroke-width:1;"/></g><!--reverse link WithHyperionUDCFeatures to GridScanWithEdgeDetect--><g class="link" data-entity-1="WithHyperionUDCFeatures" data-entity-2="GridScanWithEdgeDetect" data-source-line="96" data-uid="lnk24" id="link_WithHyperionUDCFeatures_GridScanWithEdgeDetect"><path codeLine="96" d="M3577.155,805.2484 C3712.265,823.6684 3906.72,859.3469 3954.7,921.3069 C3981.06,955.3569 3970.6,978.1769 3954.7,1018.1969 C3943.78,1045.6969 3920.19,1069.7069 3900.47,1086.1669" fill="none" id="WithHyperionUDCFeatures-backto-GridScanWithEdgeDetect" style="stroke:#181818;stroke-width:1;"/><polygon fill="none" points="3559.32,802.8169,3576.3445,811.1934,3577.9655,799.3034,3559.32,802.8169" style="stroke:#181818;stroke-width:1;"/></g><!--reverse link DiffractionExperimentWithSample to GridCommon--><g class="link" data-entity-1="DiffractionExperimentWithSample" data-entity-2="GridCommon" data-source-line="97" data-uid="lnk25" id="link_DiffractionExperimentWithSample_GridCommon"><path codeLine="97" d="M489.7,673.7169 C489.7,689.6669 489.7,693.7869 489.7,715.3469" fill="none" id="DiffractionExperimentWithSample-backto-GridCommon" style="stroke:#181818;stroke-width:1;"/><polygon fill="none" points="489.7,655.7169,483.7,673.7169,495.7,673.7169,489.7,655.7169" style="stroke:#181818;stroke-width:1;"/></g><!--reverse link OptionalGonioAngleStarts to GridCommon--><g class="link" data-entity-1="OptionalGonioAngleStarts" data-entity-2="GridCommon" data-source-line="98" data-uid="lnk26" id="link_OptionalGonioAngleStarts_GridCommon"><path codeLine="98" d="M2133.0421,276.9582 C2121.9621,282.6382 2126.7,279.8369 2115.7,284.5569 C1600.3,505.7569 955.29,675.3869 656.21,748.3169" fill="none" id="OptionalGonioAngleStarts-backto-GridCommon" style="stroke:#181818;stroke-width:1;"/><polygon fill="none" points="2149.06,268.7469,2130.305,271.6189,2135.7792,282.2975,2149.06,268.7469" style="stroke:#181818;stroke-width:1;"/></g><!--reverse link GridCommon to GridCommonWithHyperionDetectorParams--><g class="link" data-entity-1="GridCommon" data-entity-2="GridCommonWithHyperionDetectorParams" data-source-line="99" data-uid="lnk27" id="link_GridCommon_GridCommonWithHyperionDetectorParams"><path codeLine="99" d="M674.3028,797.4529 C1241.4828,822.2429 3051.04,902.3769 3175.7,921.3069 C3211.58,926.7569 3250.59,936.2869 3283.43,945.3769" fill="none" id="GridCommon-backto-GridCommonWithHyperionDetectorParams" style="stroke:#181818;stroke-width:1;"/><polygon fill="none" points="656.32,796.6669,674.0408,803.4471,674.5648,791.4586,656.32,796.6669" style="stroke:#181818;stroke-width:1;"/></g><!--reverse link WithHyperionUDCFeatures to GridCommonWithHyperionDetectorParams--><g class="link" data-entity-1="WithHyperionUDCFeatures" data-entity-2="GridCommonWithHyperionDetectorParams" data-source-line="100" data-uid="lnk28" id="link_WithHyperionUDCFeatures_GridCommonWithHyperionDetectorParams"><path codeLine="100" d="M3422.1827,836.9233 C3405.3527,872.4433 3385.95,913.3769 3370.82,945.2969" fill="none" id="WithHyperionUDCFeatures-backto-GridCommonWithHyperionDetectorParams" style="stroke:#181818;stroke-width:1;"/><polygon fill="none" points="3429.89,820.6569,3416.7605,834.3542,3427.6048,839.4924,3429.89,820.6569" style="stroke:#181818;stroke-width:1;"/></g><!--reverse link GridCommonWithHyperionDetectorParams to PinTipCentreThenXrayCentre--><g class="link" data-entity-1="GridCommonWithHyperionDetectorParams" data-entity-2="PinTipCentreThenXrayCentre" data-source-line="101" data-uid="lnk29" id="link_GridCommonWithHyperionDetectorParams_PinTipCentreThenXrayCentre"><path codeLine="101" d="M3288.5506,1001.1863 C3234.9006,1024.1363 3169.19,1052.2469 3109.68,1077.6969" fill="none" id="GridCommonWithHyperionDetectorParams-backto-PinTipCentreThenXrayCentre" style="stroke:#181818;stroke-width:1;"/><polygon fill="none" points="3305.1,994.1069,3286.1908,995.6698,3290.9104,1006.7027,3305.1,994.1069" style="stroke:#181818;stroke-width:1;"/></g><!--reverse link WithHyperionUDCFeatures to PinTipCentreThenXrayCentre--><g class="link" data-entity-1="WithHyperionUDCFeatures" data-entity-2="PinTipCentreThenXrayCentre" data-source-line="102" data-uid="lnk30" id="link_WithHyperionUDCFeatures_PinTipCentreThenXrayCentre"><path codeLine="102" d="M3490.051,833.6281 C3535.701,880.8481 3594.78,958.2469 3543.7,1018.1969 C3489.25,1082.1069 3253.09,1062.0869 3170.7,1078.1969 C3165.27,1079.2569 3159.73,1080.3869 3154.13,1081.5469" fill="none" id="WithHyperionUDCFeatures-backto-PinTipCentreThenXrayCentre" style="stroke:#181818;stroke-width:1;"/><polygon fill="none" points="3477.54,820.6869,3485.7372,837.7984,3494.3647,829.4578,3477.54,820.6869" style="stroke:#181818;stroke-width:1;"/></g><!--reverse link DiffractionExperiment to DiffractionExperimentWithSample--><g class="link" data-entity-1="DiffractionExperiment" data-entity-2="DiffractionExperimentWithSample" data-source-line="103" data-uid="lnk31" id="link_DiffractionExperiment_DiffractionExperimentWithSample"><path codeLine="103" d="M489.7,566.0269 C489.7,588.2769 489.7,591.6769 489.7,607.1069" fill="none" id="DiffractionExperiment-backto-DiffractionExperimentWithSample" style="stroke:#181818;stroke-width:1;"/><polygon fill="none" points="489.7,548.0269,483.7,566.0269,495.7,566.0269,489.7,548.0269" style="stroke:#181818;stroke-width:1;"/></g><!--reverse link WithSample to DiffractionExperimentWithSample--><g class="link" data-entity-1="WithSample" data-entity-2="DiffractionExperimentWithSample" data-source-line="104" data-uid="lnk32" id="link_WithSample_DiffractionExperimentWithSample"><path codeLine="104" d="M1624.2493,270.5187 C1610.8993,279.1987 1611.71,277.8069 1597.7,284.5569 C1251.37,451.3569 805.99,561.6669 601.45,607.0669" fill="none" id="WithSample-backto-DiffractionExperimentWithSample" style="stroke:#181818;stroke-width:1;"/><polygon fill="none" points="1639.34,260.7069,1620.9787,265.4884,1627.5199,275.5489,1639.34,260.7069" style="stroke:#181818;stroke-width:1;"/></g><!--reverse link DiffractionExperimentWithSample to RotationExperiment--><g class="link" data-entity-1="DiffractionExperimentWithSample" data-entity-2="RotationExperiment" data-source-line="105" data-uid="lnk33" id="link_DiffractionExperimentWithSample_RotationExperiment"><path codeLine="105" d="M365.7882,662.7189 C335.8782,674.7389 323.44,686.1069 305.7,713.2669 C261.94,780.2569 249.92,835.9369 305.7,893.3069 C349.77,938.6369 2245.81,961.2969 2825.25,967.1769" fill="none" id="DiffractionExperimentWithSample-backto-RotationExperiment" style="stroke:#181818;stroke-width:1;"/><polygon fill="none" points="382.49,656.0069,363.5509,657.1516,368.0256,668.2861,382.49,656.0069" style="stroke:#181818;stroke-width:1;"/></g><!--reverse link WithHyperionUDCFeatures to RotationExperiment--><g class="link" data-entity-1="WithHyperionUDCFeatures" data-entity-2="RotationExperiment" data-source-line="106" data-uid="lnk34" id="link_WithHyperionUDCFeatures_RotationExperiment"><path codeLine="106" d="M3348.2837,827.5924 C3278.4637,855.2324 3192.69,889.1869 3112.74,920.8369" fill="none" id="WithHyperionUDCFeatures-backto-RotationExperiment" style="stroke:#181818;stroke-width:1;"/><polygon fill="none" points="3365.02,820.9669,3346.0752,822.0136,3350.4922,833.1711,3365.02,820.9669" style="stroke:#181818;stroke-width:1;"/></g><!--reverse link MxBlueskyParameters to DiffractionExperiment--><g class="link" data-entity-1="MxBlueskyParameters" data-entity-2="DiffractionExperiment" data-source-line="107" data-uid="lnk35" id="link_MxBlueskyParameters_DiffractionExperiment"><path codeLine="107" d="M486.5652,262.0741 C486.9852,286.0541 487.27,302.6469 487.86,336.1669" fill="none" id="MxBlueskyParameters-backto-DiffractionExperiment" style="stroke:#181818;stroke-width:1;"/><polygon fill="none" points="486.25,244.0769,480.5661,262.1792,492.5643,261.969,486.25,244.0769" style="stroke:#181818;stroke-width:1;"/></g><!--reverse link WithSnapshot to DiffractionExperiment--><g class="link" data-entity-1="WithSnapshot" data-entity-2="DiffractionExperiment" data-source-line="108" data-uid="lnk36" id="link_WithSnapshot_DiffractionExperiment"><path codeLine="108" d="M1046.2452,267.7735 C1026.7952,276.1735 1023.02,277.3769 1003.7,284.5569 C889.39,327.0869 757.77,366.9969 656.33,395.8669" fill="none" id="WithSnapshot-backto-DiffractionExperiment" style="stroke:#181818;stroke-width:1;"/><polygon fill="none" points="1062.77,260.6369,1043.8663,262.2653,1048.6241,273.2818,1062.77,260.6369" style="stroke:#181818;stroke-width:1;"/></g><!--reverse link WithOptionalEnergyChange to DiffractionExperiment--><g class="link" data-entity-1="WithOptionalEnergyChange" data-entity-2="DiffractionExperiment" data-source-line="109" data-uid="lnk37" id="link_WithOptionalEnergyChange_DiffractionExperiment"><path codeLine="109" d="M1396.5204,253.3801 C1371.8604,267.5401 1356.89,274.3469 1327.7,284.5569 C1102.26,363.4269 828.05,405.0469 656.14,425.0369" fill="none" id="WithOptionalEnergyChange-backto-DiffractionExperiment" style="stroke:#181818;stroke-width:1;"/><polygon fill="none" points="1412.13,244.4169,1393.5326,248.1769,1399.5081,258.5833,1412.13,244.4169" style="stroke:#181818;stroke-width:1;"/></g><!--reverse link WithVisit to DiffractionExperiment--><g class="link" data-entity-1="WithVisit" data-entity-2="DiffractionExperiment" data-source-line="110" data-uid="lnk38" id="link_WithVisit_DiffractionExperiment"><path codeLine="110" d="M1816.2199,283.0424 C1808.3699,285.8624 1817.46,282.3469 1809.7,284.5569 C1406.13,399.8369 909.74,430.2969 656.11,438.2769" fill="none" id="WithVisit-backto-DiffractionExperiment" style="stroke:#181818;stroke-width:1;"/><polygon fill="none" points="1833.16,276.9569,1814.1914,277.3957,1818.2484,288.6891,1833.16,276.9569" style="stroke:#181818;stroke-width:1;"/></g><!--reverse link WithPandaGridScan to WithHyperionUDCFeatures--><g class="link" data-entity-1="WithPandaGridScan" data-entity-2="WithHyperionUDCFeatures" data-source-line="111" data-uid="lnk39" id="link_WithPandaGridScan_WithHyperionUDCFeatures"><path codeLine="111" d="M2575.3601,253.744 C2738.6301,353.974 3229.55,655.3469 3393.15,755.7669" fill="none" id="WithPandaGridScan-backto-WithHyperionUDCFeatures" style="stroke:#181818;stroke-width:1;"/><polygon fill="none" points="2560.02,244.3269,2572.221,258.8574,2578.4991,248.6306,2560.02,244.3269" style="stroke:#181818;stroke-width:1;"/></g><!--reverse link RotationExperiment to MultiRotationScan--><g class="link" data-entity-1="RotationExperiment" data-entity-2="MultiRotationScan" data-source-line="112" data-uid="lnk40" id="link_RotationExperiment_MultiRotationScan"><path codeLine="112" d="M3170.3261,1023.768 C3236.2361,1043.328 3293.39,1060.2869 3352.29,1077.7669" fill="none" id="RotationExperiment-backto-MultiRotationScan" style="stroke:#181818;stroke-width:1;"/><polygon fill="none" points="3153.07,1018.6469,3168.6191,1029.52,3172.0332,1018.0159,3153.07,1018.6469" style="stroke:#181818;stroke-width:1;"/></g><!--reverse link SplitScan to MultiRotationScan--><g class="link" data-entity-1="SplitScan" data-entity-2="MultiRotationScan" data-source-line="113" data-uid="lnk41" id="link_SplitScan_MultiRotationScan"><path codeLine="113" d="M2779.3307,219.2079 C3017.1307,242.9879 4026.7,359.5869 4026.7,630.5269 C4026.7,630.5269 4026.7,630.5269 4026.7,789.4169 C4026.7,896.0169 4034.57,947.6069 3954.7,1018.1969 C3933.69,1036.7769 3809.47,1059.5869 3690.61,1077.7469" fill="none" id="SplitScan-backto-MultiRotationScan" style="stroke:#181818;stroke-width:1;"/><polygon fill="none" points="2761.42,217.4169,2778.7336,225.1782,2779.9277,213.2377,2761.42,217.4169" style="stroke:#181818;stroke-width:1;"/></g><!--reverse link MxBlueskyParameters to LoadCentreCollect--><g class="link" data-entity-1="MxBlueskyParameters" data-entity-2="LoadCentreCollect" data-source-line="114" data-uid="lnk42" id="link_MxBlueskyParameters_LoadCentreCollect"><path codeLine="114" d="M569.384,251.4485 C602.174,265.6685 626.07,274.3669 663.7,284.5569 C1926.76,626.8269 2452.6,43.2969 3576.7,713.2669 C3662.8,764.5869 3722.63,871.0569 3750.3,929.0369" fill="none" id="MxBlueskyParameters-backto-LoadCentreCollect" style="stroke:#181818;stroke-width:1;"/><polygon fill="none" points="552.87,244.2869,566.9968,256.9531,571.7712,245.9438,552.87,244.2869" style="stroke:#181818;stroke-width:1;"/></g><!--reverse link WithVisit to LoadCentreCollect--><g class="link" data-entity-1="WithVisit" data-entity-2="LoadCentreCollect" data-source-line="115" data-uid="lnk43" id="link_WithVisit_LoadCentreCollect"><path codeLine="115" d="M2107.7865,282.768 C2116.4465,285.688 2108.1,282.4969 2116.7,284.5569 C2198.92,304.2469 3573.09,282.0169 3637.7,336.5569 C3817.3,488.1669 3789.86,815.7369 3774.09,929.1469" fill="none" id="WithVisit-backto-LoadCentreCollect" style="stroke:#181818;stroke-width:1;"/><polygon fill="none" points="2090.73,277.0169,2105.8695,288.4535,2109.7036,277.0825,2090.73,277.0169" style="stroke:#181818;stroke-width:1;"/></g><!--reverse link WithSample to LoadCentreCollect--><g class="link" data-entity-1="WithSample" data-entity-2="LoadCentreCollect" data-source-line="116" data-uid="lnk44" id="link_WithSample_LoadCentreCollect"><path codeLine="116" d="M1630.335,270.4633 C1615.595,280.1233 1614.27,279.1069 1597.7,284.5569 C1461.43,329.3669 407.07,233.1069 307.7,336.5569 C136.29,515.0169 133.49,717.5869 307.7,893.3069 C339.34,925.2269 3499.02,916.4369 3543.7,921.3069 C3561.38,923.2369 3579.73,925.9469 3597.97,929.0969" fill="none" id="WithSample-backto-LoadCentreCollect" style="stroke:#181818;stroke-width:1;"/><polygon fill="none" points="1645.39,260.5969,1627.0462,265.445,1633.6238,275.4817,1645.39,260.5969" style="stroke:#181818;stroke-width:1;"/></g><!--reverse link WithCentreSelection to LoadCentreCollect--><g class="link" data-entity-1="WithCentreSelection" data-entity-2="LoadCentreCollect" data-source-line="117" data-uid="lnk45" id="link_WithCentreSelection_LoadCentreCollect"><path codeLine="117" d="M757.7747,252.2741 C727.9647,266.8741 706.87,275.1269 671.7,284.5569 C565.3,313.1069 253.6,255.7769 178.7,336.5569 C10.45,518.0269 6,723.1769 185.7,893.3069 C219.57,925.3769 3497.33,916.2569 3543.7,921.3069 C3561.38,923.2369 3579.73,925.9369 3597.97,929.0869" fill="none" id="WithCentreSelection-backto-LoadCentreCollect" style="stroke:#181818;stroke-width:1;"/><polygon fill="none" points="773.94,244.3569,755.1356,246.8857,760.4138,257.6626,773.94,244.3569" style="stroke:#181818;stroke-width:1;"/></g><!--reverse link WithHyperionUDCFeatures to LoadCentreCollect--><g class="link" data-entity-1="WithHyperionUDCFeatures" data-entity-2="LoadCentreCollect" data-source-line="118" data-uid="lnk46" id="link_WithHyperionUDCFeatures_LoadCentreCollect"><path codeLine="118" d="M3496.2122,832.243 C3523.6822,854.353 3548.5,872.3069 3585.7,893.3069 C3608.93,906.4269 3634.9,918.5569 3659.79,929.0769" fill="none" id="WithHyperionUDCFeatures-backto-LoadCentreCollect" style="stroke:#181818;stroke-width:1;"/><polygon fill="none" points="3482.19,820.9569,3492.4502,836.9171,3499.9743,827.569,3482.19,820.9569" style="stroke:#181818;stroke-width:1;"/></g><!--SRC=[bLPBR-Cs43vRluAtja0JeFVsa7MosmARhR5sqmABWA2biKI4Bv1Krcus_ts7f5wsB3aB7opEV3ESnpSZ_RIfk2CxBe3WFwkzlYf1WMKU2h8zaFP0ZM3Arr9ScqEMUUxHuC-30Skr8YjccGGFbjph0aJcm1E54cTO3cimgFRQ4gKLP1dAdbW9HExfLjJWdWxNkPPIgslJkd7a9VEw15-XovSi5ymvyY_trPf98-0bMt3bYOi7oejq_4O-eVzMQkhywQoSg-nru749obkCKK3kCHLqlT7cqxl3FTilTQryfo4kFj4y6hZEoTe8xjSvGzEXtxzDC6BY3ijN7fOLKsM8UoSqwq8gG39LK8WG2iz73bQeOXyiBvBlnj84ARMrgWqjkFDCvK2bx2pRQpzenVMDAWMiFRFUdLwj9PICkg2Z1PGdMbFnILq-etjYnWoz3lDPAsPSfJr6icA-8guvOneMwwhj8Li8pEXBzFZOjQs5nOXTkdIhjI2r0rfYVMWBSKVtFN37msNEMx859WL7yiNJSz2anm9yB2FrcWOGpRLw1eiKf0Q3J22k78gmhDHOsF7zg8i-nd_IZzSnWqCtbv7gNJksUayT_nzeBLjHpEahBtmr4CBUQ5TRe9vBe2vR_ENCONkt3mCeaP4R74KSO9HHw8JKepHRtE3Pe-q3mt7hwXhP30LbZRQzoND3zMw78nokRojwlt-NPhKRzK2fTI2mv_a37iE8T0DCPTW3z3d9Eo-tVBUpB8vJ7thJex22Q5WQaoa7LDWKQ8DJQdbPWWtxXlZq72yzcdcS4wfgkGNxmrMmJ3d9NGYVXfX_gE8XKeUKm3Ktf7T7Mwjv2dQsCCE5znf_PrPdrUpWu-NPyoriZ-3ehYZXDZArtrCz7mEYtUQt3PzZfrsFNd6ruIRjoqq5wZ_B3kdqCi-TpzgpKSkJWQjg7-YY3IYkogxLIMiRGyfLRY7MDux_spinN0XjVl_SBjy32yqE56wbZUYzO2M-3XjzJ_zQUDxcqIpa6wM208elSMqDjIkmwwy0vl5NyX7Kpv8hAa2LllhZjryU-xGSGlixFcfMf7ekjH2nKOlFUgjzK8I29oMQeunYWGgAsqKrBwHiCOgHo22XHzT56hsbx-JtRrTN4mpA9ievQtE1uhrjYYoRUfEDWFtZgMewkyiPNFJmzY9E3yvy63DsPukPh2xKEJij-INyc_es7l7vrCxWpxnXPWBCXfyKbt3dliKksSJFXqkWes-q19v8EnjddF2ZgSsw3yefm6IbHXlaD9FpW64ZpoDEFfBde9Cj7y6_0m00]--></g></svg>