<svg xmlns="http://www.w3.org/2000/svg" xmlns:xlink="http://www.w3.org/1999/xlink" contentStyleType="text/css" data-diagram-type="CLASS" height="1104px" preserveAspectRatio="none" style="width:4075px;height:1104px;background:#FFFFFF;" version="1.1" viewBox="0 0 4075 1104" width="4075px" zoomAndPan="magnify"><title>Hyperion Parameter Model</title><defs/><g><g class="title" data-source-line="3"><text fill="#000000" font-family="sans-serif" font-size="14" font-weight="bold" lengthAdjust="spacing" textLength="212.4951" x="1924.7374" y="22.9951">Hyperion Parameter Model</text></g><!--cluster mx_bluesky.common.parameters--><g class="cluster" data-entity="mx_bluesky.common.parameters" data-source-line="6" data-uid="ent0002" id="cluster_mx_bluesky.common.parameters"><path d="M276.14,43.2969 L537.4525,43.2969 A3.75,3.75 0 0 1 539.9525,45.7969 L546.9525,65.5938 L2756.14,65.5938 A2.5,2.5 0 0 1 2758.64,68.0938 L2758.64,822.0269 A2.5,2.5 0 0 1 2756.14,824.5269 L276.14,824.5269 A2.5,2.5 0 0 1 273.64,822.0269 L273.64,45.7969 A2.5,2.5 0 0 1 276.14,43.2969" fill="none" style="stroke:#000000;stroke-width:1.5;"/><line style="stroke:#000000;stroke-width:1.5;" x1="273.64" x2="546.9525" y1="65.5938" y2="65.5938"/><text fill="#000000" font-family="sans-serif" font-size="14" font-weight="bold" lengthAdjust="spacing" textLength="260.3125" x="277.64" y="58.292">mx_bluesky.common.parameters</text></g><!--cluster mx_bluesky.hyperion.parameters--><g class="cluster" data-entity="mx_bluesky.hyperion.parameters" data-source-line="70" data-uid="ent0015" id="cluster_mx_bluesky.hyperion.parameters"><path d="M2785.14,660.4869 L3049.6722,660.4869 A3.75,3.75 0 0 1 3052.1722,662.9869 L3059.1722,682.7838 L3960.14,682.7838 A2.5,2.5 0 0 1 3962.64,685.2838 L3962.64,1095.2169 A2.5,2.5 0 0 1 3960.14,1097.7169 L2785.14,1097.7169 A2.5,2.5 0 0 1 2782.64,1095.2169 L2782.64,662.9869 A2.5,2.5 0 0 1 2785.14,660.4869" fill="none" style="stroke:#000000;stroke-width:1.5;"/><line style="stroke:#000000;stroke-width:1.5;" x1="2782.64" x2="3059.1722" y1="682.7838" y2="682.7838"/><text fill="#000000" font-family="sans-serif" font-size="14" font-weight="bold" lengthAdjust="spacing" textLength="263.5322" x="2786.64" y="675.482">mx_bluesky.hyperion.parameters</text></g><!--class WithCentreSelection--><g class="entity" data-entity="WithCentreSelection" data-source-line="8" data-uid="ent0003" id="entity_WithCentreSelection"><rect fill="#F1F1F1" height="64.2969" rx="2.5" ry="2.5" style="stroke:#181818;stroke-width:0.5;" width="306.7861" x="653.25" y="118.8869"/><ellipse cx="730.5269" cy="134.8869" fill="#ADD1B2" rx="11" ry="11" style="stroke:#181818;stroke-width:1;"/><path d="M733.4956,140.5275 Q732.9175,140.8244 732.2769,140.965 Q731.6362,141.1213 730.9331,141.1213 Q728.4331,141.1213 727.105,139.4806 Q725.7925,137.8244 725.7925,134.6994 Q725.7925,131.5744 727.105,129.9181 Q728.4331,128.2619 730.9331,128.2619 Q731.6362,128.2619 732.2769,128.4181 Q732.9331,128.5744 733.4956,128.8713 L733.4956,131.59 Q732.8706,131.0119 732.2769,130.7463 Q731.6831,130.465 731.0581,130.465 Q729.7144,130.465 729.0269,131.5431 Q728.3394,132.6056 728.3394,134.6994 Q728.3394,136.7931 729.0269,137.8713 Q729.7144,138.9338 731.0581,138.9338 Q731.6831,138.9338 732.2769,138.6681 Q732.8706,138.3869 733.4956,137.8088 L733.4956,140.5275 Z " fill="#000000"/><text fill="#000000" font-family="sans-serif" font-size="14" lengthAdjust="spacing" textLength="143.7324" x="751.0269" y="139.7336">WithCentreSelection</text><line style="stroke:#181818;stroke-width:0.5;" x1="654.25" x2="959.0361" y1="150.8869" y2="150.8869"/><text fill="#000000" font-family="sans-serif" font-size="14" lengthAdjust="spacing" textLength="294.7861" x="659.25" y="167.882">TopNByMaxCountSelection select_centres</text><line style="stroke:#181818;stroke-width:0.5;" x1="654.25" x2="959.0361" y1="175.1838" y2="175.1838"/></g><!--class WithSnapshot--><g class="entity" data-entity="WithSnapshot" data-source-line="11" data-uid="ent0004" id="entity_WithSnapshot"><rect fill="#F1F1F1" height="80.5938" rx="2.5" ry="2.5" style="stroke:#181818;stroke-width:0.5;" width="289.3477" x="1571.97" y="110.7369"/><ellipse cx="1663.6228" cy="126.7369" fill="#ADD1B2" rx="11" ry="11" style="stroke:#181818;stroke-width:1;"/><path d="M1666.5916,132.3775 Q1666.0135,132.6744 1665.3728,132.815 Q1664.7322,132.9713 1664.0291,132.9713 Q1661.5291,132.9713 1660.201,131.3306 Q1658.8885,129.6744 1658.8885,126.5494 Q1658.8885,123.4244 1660.201,121.7681 Q1661.5291,120.1119 1664.0291,120.1119 Q1664.7322,120.1119 1665.3728,120.2681 Q1666.0291,120.4244 1666.5916,120.7213 L1666.5916,123.44 Q1665.9666,122.8619 1665.3728,122.5963 Q1664.7791,122.315 1664.1541,122.315 Q1662.8103,122.315 1662.1228,123.3931 Q1661.4353,124.4556 1661.4353,126.5494 Q1661.4353,128.6431 1662.1228,129.7213 Q1662.8103,130.7838 1664.1541,130.7838 Q1664.7791,130.7838 1665.3728,130.5181 Q1665.9666,130.2369 1666.5916,129.6588 L1666.5916,132.3775 Z " fill="#000000"/><text fill="#000000" font-family="sans-serif" font-size="14" lengthAdjust="spacing" textLength="97.542" x="1684.1228" y="131.5836">WithSnapshot</text><line style="stroke:#181818;stroke-width:0.5;" x1="1572.97" x2="1860.3177" y1="142.7369" y2="142.7369"/><text fill="#000000" font-family="sans-serif" font-size="14" lengthAdjust="spacing" textLength="169.627" x="1577.97" y="159.732">Path snapshot_directory</text><text fill="#000000" font-family="sans-serif" font-size="14" lengthAdjust="spacing" textLength="277.3477" x="1577.97" y="176.0289">list[float] | None snapshot_omegas_deg</text><line style="stroke:#181818;stroke-width:0.5;" x1="1572.97" x2="1860.3177" y1="183.3306" y2="183.3306"/></g><!--class WithVisit--><g class="entity" data-entity="WithVisit" data-source-line="15" data-uid="ent0005" id="entity_WithVisit"><rect fill="#F1F1F1" height="129.4844" rx="2.5" ry="2.5" style="stroke:#181818;stroke-width:0.5;" width="271.7861" x="994.75" y="86.2969"/><ellipse cx="1095.2759" cy="102.2969" fill="#ADD1B2" rx="11" ry="11" style="stroke:#181818;stroke-width:1;"/><path d="M1098.2446,107.9375 Q1097.6665,108.2344 1097.0259,108.375 Q1096.3853,108.5313 1095.6821,108.5313 Q1093.1821,108.5313 1091.854,106.8906 Q1090.5415,105.2344 1090.5415,102.1094 Q1090.5415,98.9844 1091.854,97.3281 Q1093.1821,95.6719 1095.6821,95.6719 Q1096.3853,95.6719 1097.0259,95.8281 Q1097.6821,95.9844 1098.2446,96.2813 L1098.2446,99 Q1097.6196,98.4219 1097.0259,98.1563 Q1096.4321,97.875 1095.8071,97.875 Q1094.4634,97.875 1093.7759,98.9531 Q1093.0884,100.0156 1093.0884,102.1094 Q1093.0884,104.2031 1093.7759,105.2813 Q1094.4634,106.3438 1095.8071,106.3438 Q1096.4321,106.3438 1097.0259,106.0781 Q1097.6196,105.7969 1098.2446,105.2188 L1098.2446,107.9375 Z " fill="#000000"/><text fill="#000000" font-family="sans-serif" font-size="14" lengthAdjust="spacing" textLength="62.2344" x="1115.7759" y="107.1436">WithVisit</text><line style="stroke:#181818;stroke-width:0.5;" x1="995.75" x2="1265.5361" y1="118.2969" y2="118.2969"/><text fill="#000000" font-family="sans-serif" font-size="14" lengthAdjust="spacing" textLength="87.9717" x="1000.75" y="135.292">str beamline</text><text fill="#000000" font-family="sans-serif" font-size="14" lengthAdjust="spacing" textLength="51.8369" x="1000.75" y="151.5889">str visit</text><text fill="#000000" font-family="sans-serif" font-size="14" lengthAdjust="spacing" textLength="259.7861" x="1000.75" y="167.8857">str det_dist_to_beam_converter_path</text><text fill="#000000" font-family="sans-serif" font-size="14" lengthAdjust="spacing" textLength="131.5918" x="1000.75" y="184.1826">str insertion_prefix</text><text fill="#000000" font-family="sans-serif" font-size="14" lengthAdjust="spacing" textLength="245.752" x="1000.75" y="200.4795">float | None detector_distance_mm</text><line style="stroke:#181818;stroke-width:0.5;" x1="995.75" x2="1265.5361" y1="207.7813" y2="207.7813"/></g><!--class WithSample--><g class="entity" data-entity="WithSample" data-source-line="22" data-uid="ent0006" id="entity_WithSample"><rect fill="#F1F1F1" height="96.8906" rx="2.5" ry="2.5" style="stroke:#181818;stroke-width:0.5;" width="176.3086" x="2150.49" y="102.5869"/><ellipse cx="2192.3643" cy="118.5869" fill="#ADD1B2" rx="11" ry="11" style="stroke:#181818;stroke-width:1;"/><path d="M2195.3331,124.2275 Q2194.7549,124.5244 2194.1143,124.665 Q2193.4737,124.8213 2192.7706,124.8213 Q2190.2706,124.8213 2188.9424,123.1806 Q2187.6299,121.5244 2187.6299,118.3994 Q2187.6299,115.2744 2188.9424,113.6181 Q2190.2706,111.9619 2192.7706,111.9619 Q2193.4737,111.9619 2194.1143,112.1181 Q2194.7706,112.2744 2195.3331,112.5713 L2195.3331,115.29 Q2194.7081,114.7119 2194.1143,114.4463 Q2193.5206,114.165 2192.8956,114.165 Q2191.5518,114.165 2190.8643,115.2431 Q2190.1768,116.3056 2190.1768,118.3994 Q2190.1768,120.4931 2190.8643,121.5713 Q2191.5518,122.6338 2192.8956,122.6338 Q2193.5206,122.6338 2194.1143,122.3681 Q2194.7081,122.0869 2195.3331,121.5088 L2195.3331,124.2275 Z " fill="#000000"/><text fill="#000000" font-family="sans-serif" font-size="14" lengthAdjust="spacing" textLength="84.5879" x="2212.3364" y="123.4336">WithSample</text><line style="stroke:#181818;stroke-width:0.5;" x1="2151.49" x2="2325.7986" y1="134.5869" y2="134.5869"/><text fill="#000000" font-family="sans-serif" font-size="14" lengthAdjust="spacing" textLength="93.3789" x="2156.49" y="151.582">int sample_id</text><text fill="#000000" font-family="sans-serif" font-size="14" lengthAdjust="spacing" textLength="164.3086" x="2156.49" y="167.8789">int | None sample_puck</text><text fill="#000000" font-family="sans-serif" font-size="14" lengthAdjust="spacing" textLength="152.3936" x="2156.49" y="184.1757">int | None sample_pin</text><line style="stroke:#181818;stroke-width:0.5;" x1="2151.49" x2="2325.7986" y1="191.4775" y2="191.4775"/></g><!--class SplitScan--><g class="entity" data-entity="SplitScan" data-source-line="27" data-uid="ent0007" id="entity_SplitScan"><rect fill="#F1F1F1" height="48" rx="2.5" ry="2.5" style="stroke:#181818;stroke-width:0.5;" width="97.0781" x="2637.11" y="127.0369"/><ellipse cx="2652.11" cy="143.0369" fill="#ADD1B2" rx="11" ry="11" style="stroke:#181818;stroke-width:1;"/><path d="M2655.0787,148.6775 Q2654.5006,148.9744 2653.86,149.115 Q2653.2194,149.2713 2652.5162,149.2713 Q2650.0162,149.2713 2648.6881,147.6306 Q2647.3756,145.9744 2647.3756,142.8494 Q2647.3756,139.7244 2648.6881,138.0681 Q2650.0162,136.4119 2652.5162,136.4119 Q2653.2194,136.4119 2653.86,136.5681 Q2654.5162,136.7244 2655.0787,137.0213 L2655.0787,139.74 Q2654.4537,139.1619 2653.86,138.8963 Q2653.2662,138.615 2652.6412,138.615 Q2651.2975,138.615 2650.61,139.6931 Q2649.9225,140.7556 2649.9225,142.8494 Q2649.9225,144.9431 2650.61,146.0213 Q2651.2975,147.0838 2652.6412,147.0838 Q2653.2662,147.0838 2653.86,146.8181 Q2654.4537,146.5369 2655.0787,145.9588 L2655.0787,148.6775 Z " fill="#000000"/><text fill="#000000" font-family="sans-serif" font-size="14" lengthAdjust="spacing" textLength="65.0781" x="2666.11" y="147.8836">SplitScan</text><line style="stroke:#181818;stroke-width:0.5;" x1="2638.11" x2="2733.1881" y1="159.0369" y2="159.0369"/><line style="stroke:#181818;stroke-width:0.5;" x1="2638.11" x2="2733.1881" y1="167.0369" y2="167.0369"/></g><!--class WithPandaGridScan--><g class="entity" data-entity="WithPandaGridScan" data-source-line="29" data-uid="ent0008" id="entity_WithPandaGridScan"><rect fill="#F1F1F1" height="64.2969" rx="2.5" ry="2.5" style="stroke:#181818;stroke-width:0.5;" width="240.5664" x="2361.36" y="118.8869"/><ellipse cx="2407.9572" cy="134.8869" fill="#ADD1B2" rx="11" ry="11" style="stroke:#181818;stroke-width:1;"/><path d="M2410.9259,140.5275 Q2410.3478,140.8244 2409.7072,140.965 Q2409.0665,141.1213 2408.3634,141.1213 Q2405.8634,141.1213 2404.5353,139.4806 Q2403.2228,137.8244 2403.2228,134.6994 Q2403.2228,131.5744 2404.5353,129.9181 Q2405.8634,128.2619 2408.3634,128.2619 Q2409.0665,128.2619 2409.7072,128.4181 Q2410.3634,128.5744 2410.9259,128.8713 L2410.9259,131.59 Q2410.3009,131.0119 2409.7072,130.7463 Q2409.1134,130.465 2408.4884,130.465 Q2407.1447,130.465 2406.4572,131.5431 Q2405.7697,132.6056 2405.7697,134.6994 Q2405.7697,136.7931 2406.4572,137.8713 Q2407.1447,138.9338 2408.4884,138.9338 Q2409.1134,138.9338 2409.7072,138.6681 Q2410.3009,138.3869 2410.9259,137.8088 L2410.9259,140.5275 Z " fill="#000000"/><text fill="#000000" font-family="sans-serif" font-size="14" lengthAdjust="spacing" textLength="138.8721" x="2428.4572" y="139.7336">WithPandaGridScan</text><line style="stroke:#181818;stroke-width:0.5;" x1="2362.36" x2="2600.9264" y1="150.8869" y2="150.8869"/><text fill="#000000" font-family="sans-serif" font-size="14" lengthAdjust="spacing" textLength="228.5664" x="2367.36" y="167.882">float panda_runup_distance_mm</text><line style="stroke:#181818;stroke-width:0.5;" x1="2362.36" x2="2600.9264" y1="175.1838" y2="175.1838"/></g><!--class WithOptionalEnergyChange--><g class="entity" data-entity="WithOptionalEnergyChange" data-source-line="32" data-uid="ent0009" id="entity_WithOptionalEnergyChange"><rect fill="#F1F1F1" height="64.2969" rx="2.5" ry="2.5" style="stroke:#181818;stroke-width:0.5;" width="235.4463" x="1301.92" y="118.8869"/><ellipse cx="1321.1045" cy="134.8869" fill="#ADD1B2" rx="11" ry="11" style="stroke:#181818;stroke-width:1;"/><path d="M1324.0732,140.5275 Q1323.4951,140.8244 1322.8545,140.965 Q1322.2138,141.1213 1321.5107,141.1213 Q1319.0107,141.1213 1317.6826,139.4806 Q1316.3701,137.8244 1316.3701,134.6994 Q1316.3701,131.5744 1317.6826,129.9181 Q1319.0107,128.2619 1321.5107,128.2619 Q1322.2138,128.2619 1322.8545,128.4181 Q1323.5107,128.5744 1324.0732,128.8713 L1324.0732,131.59 Q1323.4482,131.0119 1322.8545,130.7463 Q1322.2607,130.465 1321.6357,130.465 Q1320.292,130.465 1319.6045,131.5431 Q1318.917,132.6056 1318.917,134.6994 Q1318.917,136.7931 1319.6045,137.8713 Q1320.292,138.9338 1321.6357,138.9338 Q1322.2607,138.9338 1322.8545,138.6681 Q1323.4482,138.3869 1324.0732,137.8088 L1324.0732,140.5275 Z " fill="#000000"/><text fill="#000000" font-family="sans-serif" font-size="14" lengthAdjust="spacing" textLength="194.1475" x="1336.0344" y="139.7336">WithOptionalEnergyChange</text><line style="stroke:#181818;stroke-width:0.5;" x1="1302.92" x2="1536.3663" y1="150.8869" y2="150.8869"/><text fill="#000000" font-family="sans-serif" font-size="14" lengthAdjust="spacing" textLength="223.4463" x="1307.92" y="167.882">float | None demand_energy_ev</text><line style="stroke:#181818;stroke-width:0.5;" x1="1302.92" x2="1536.3663" y1="175.1838" y2="175.1838"/></g><!--class OptionalGonioAngleStarts--><g class="entity" data-entity="OptionalGonioAngleStarts" data-source-line="35" data-uid="ent0010" id="entity_OptionalGonioAngleStarts"><rect fill="#F1F1F1" height="113.1875" rx="2.5" ry="2.5" style="stroke:#181818;stroke-width:0.5;" width="219.3203" x="1895.98" y="94.4469"/><ellipse cx="1913.7033" cy="110.4469" fill="#ADD1B2" rx="11" ry="11" style="stroke:#181818;stroke-width:1;"/><path d="M1916.672,116.0875 Q1916.0939,116.3844 1915.4533,116.525 Q1914.8127,116.6813 1914.1095,116.6813 Q1911.6095,116.6813 1910.2814,115.0406 Q1908.9689,113.3844 1908.9689,110.2594 Q1908.9689,107.1344 1910.2814,105.4781 Q1911.6095,103.8219 1914.1095,103.8219 Q1914.8127,103.8219 1915.4533,103.9781 Q1916.1095,104.1344 1916.672,104.4313 L1916.672,107.15 Q1916.047,106.5719 1915.4533,106.3063 Q1914.8595,106.025 1914.2345,106.025 Q1912.8908,106.025 1912.2033,107.1031 Q1911.5158,108.1656 1911.5158,110.2594 Q1911.5158,112.3531 1912.2033,113.4313 Q1912.8908,114.4938 1914.2345,114.4938 Q1914.8595,114.4938 1915.4533,114.2281 Q1916.047,113.9469 1916.672,113.3688 L1916.672,116.0875 Z " fill="#000000"/><text fill="#000000" font-family="sans-serif" font-size="14" lengthAdjust="spacing" textLength="181.2686" x="1928.3085" y="115.2936">OptionalGonioAngleStarts</text><line style="stroke:#181818;stroke-width:0.5;" x1="1896.98" x2="2114.3003" y1="126.4469" y2="126.4469"/><text fill="#000000" font-family="sans-serif" font-size="14" lengthAdjust="spacing" textLength="207.3203" x="1901.98" y="143.442">float | None omega_start_deg</text><text fill="#000000" font-family="sans-serif" font-size="14" lengthAdjust="spacing" textLength="180.6875" x="1901.98" y="159.7389">float | None phi_start_deg</text><text fill="#000000" font-family="sans-serif" font-size="14" lengthAdjust="spacing" textLength="179.498" x="1901.98" y="176.0357">float | None chi_start_deg</text><text fill="#000000" font-family="sans-serif" font-size="14" lengthAdjust="spacing" textLength="202.0771" x="1901.98" y="192.3326">float | None kappa_start_deg</text><line style="stroke:#181818;stroke-width:0.5;" x1="1896.98" x2="2114.3003" y1="199.6344" y2="199.6344"/></g><!--class GridCommon--><g class="entity" data-entity="GridCommon" data-source-line="43" data-uid="ent0011" id="entity_GridCommon"><rect fill="#F1F1F1" height="145.7813" rx="2.5" ry="2.5" style="stroke:#181818;stroke-width:0.5;" width="332.332" x="297.48" y="654.7469"/><ellipse cx="413.1782" cy="670.7469" fill="#ADD1B2" rx="11" ry="11" style="stroke:#181818;stroke-width:1;"/><path d="M416.147,676.3875 Q415.5689,676.6844 414.9282,676.825 Q414.2876,676.9813 413.5845,676.9813 Q411.0845,676.9813 409.7564,675.3406 Q408.4439,673.6844 408.4439,670.5594 Q408.4439,667.4344 409.7564,665.7781 Q411.0845,664.1219 413.5845,664.1219 Q414.2876,664.1219 414.9282,664.2781 Q415.5845,664.4344 416.147,664.7313 L416.147,667.45 Q415.522,666.8719 414.9282,666.6063 Q414.3345,666.325 413.7095,666.325 Q412.3657,666.325 411.6782,667.4031 Q410.9907,668.4656 410.9907,670.5594 Q410.9907,672.6531 411.6782,673.7313 Q412.3657,674.7938 413.7095,674.7938 Q414.3345,674.7938 414.9282,674.5281 Q415.522,674.2469 416.147,673.6688 L416.147,676.3875 Z " fill="#000000"/><text fill="#000000" font-family="sans-serif" font-size="14" lengthAdjust="spacing" textLength="92.4355" x="433.6782" y="675.5936">GridCommon</text><line style="stroke:#181818;stroke-width:0.5;" x1="298.48" x2="628.812" y1="686.7469" y2="686.7469"/><text fill="#000000" font-family="sans-serif" font-size="14" lengthAdjust="spacing" textLength="125.2959" x="303.48" y="703.742">float box_size_um</text><text fill="#000000" font-family="sans-serif" font-size="14" lengthAdjust="spacing" textLength="138.4209" x="303.48" y="720.0389">float grid_width_um</text><text fill="#000000" font-family="sans-serif" font-size="14" lengthAdjust="spacing" textLength="153.7129" x="303.48" y="736.3357">float exposure_time_s</text><text fill="#000000" font-family="sans-serif" font-size="14" lengthAdjust="spacing" textLength="320.332" x="303.48" y="752.6326">IspybExperimentType ispyb_experiment_type</text><text fill="#000000" font-family="sans-serif" font-size="14" lengthAdjust="spacing" textLength="282.3516" x="303.48" y="768.9295">ApertureValue | None selected_aperture</text><text fill="#000000" font-family="sans-serif" font-size="14" lengthAdjust="spacing" textLength="130.498" x="303.48" y="785.2264">float tip_offset_um</text><line style="stroke:#181818;stroke-width:0.5;" x1="298.48" x2="628.812" y1="792.5281" y2="792.5281"/></g><!--class DiffractionExperiment--><g class="entity" data-entity="DiffractionExperiment" data-source-line="51" data-uid="ent0012" id="entity_DiffractionExperiment"><rect fill="#F1F1F1" height="210.9688" rx="2.5" ry="2.5" style="stroke:#181818;stroke-width:0.5;" width="332.332" x="297.48" y="275.7769"/><ellipse cx="382.2627" cy="291.7769" fill="#ADD1B2" rx="11" ry="11" style="stroke:#181818;stroke-width:1;"/><path d="M385.2315,297.4175 Q384.6533,297.7144 384.0127,297.855 Q383.3721,298.0113 382.669,298.0113 Q380.169,298.0113 378.8408,296.3706 Q377.5283,294.7144 377.5283,291.5894 Q377.5283,288.4644 378.8408,286.8081 Q380.169,285.1519 382.669,285.1519 Q383.3721,285.1519 384.0127,285.3081 Q384.669,285.4644 385.2315,285.7613 L385.2315,288.48 Q384.6065,287.9019 384.0127,287.6363 Q383.419,287.355 382.794,287.355 Q381.4502,287.355 380.7627,288.4331 Q380.0752,289.4956 380.0752,291.5894 Q380.0752,293.6831 380.7627,294.7613 Q381.4502,295.8238 382.794,295.8238 Q383.419,295.8238 384.0127,295.5581 Q384.6065,295.2769 385.2315,294.6988 L385.2315,297.4175 Z " fill="#000000"/><text fill="#000000" font-family="sans-serif" font-size="14" lengthAdjust="spacing" textLength="154.2666" x="402.7627" y="296.6236">DiffractionExperiment</text><line style="stroke:#181818;stroke-width:0.5;" x1="298.48" x2="628.812" y1="307.7769" y2="307.7769"/><text fill="#000000" font-family="sans-serif" font-size="14" lengthAdjust="spacing" textLength="91.0137" x="303.48" y="324.772">str file_name</text><text fill="#000000" font-family="sans-serif" font-size="14" lengthAdjust="spacing" textLength="153.7129" x="303.48" y="341.0689">float exposure_time_s</text><text fill="#000000" font-family="sans-serif" font-size="14" lengthAdjust="spacing" textLength="89.5029" x="303.48" y="357.3657">str comment</text><text fill="#000000" font-family="sans-serif" font-size="14" lengthAdjust="spacing" textLength="186.915" x="303.48" y="373.6626">TriggerMode trigger_mode</text><text fill="#000000" font-family="sans-serif" font-size="14" lengthAdjust="spacing" textLength="157.9854" x="303.48" y="389.9595">int | None run_number</text><text fill="#000000" font-family="sans-serif" font-size="14" lengthAdjust="spacing" textLength="282.3516" x="303.48" y="406.2564">ApertureValue | None selected_aperture</text><text fill="#000000" font-family="sans-serif" font-size="14" lengthAdjust="spacing" textLength="159.2979" x="303.48" y="422.5532">float transmission_frac</text><text fill="#000000" font-family="sans-serif" font-size="14" lengthAdjust="spacing" textLength="320.332" x="303.48" y="438.8501">IspybExperimentType ispyb_experiment_type</text><text fill="#000000" font-family="sans-serif" font-size="14" lengthAdjust="spacing" textLength="146.1113" x="303.48" y="455.147">str storage_directory</text><text fill="#000000" font-family="sans-serif" font-size="14" lengthAdjust="spacing" textLength="131.0518" x="303.48" y="471.4439">bool use_roi_mode</text><line style="stroke:#181818;stroke-width:0.5;" x1="298.48" x2="628.812" y1="478.7456" y2="478.7456"/></g><!--class DiffractionExperimentWithSample--><g class="entity" data-entity="DiffractionExperimentWithSample" data-source-line="63" data-uid="ent0013" id="entity_DiffractionExperimentWithSample"><rect fill="#F1F1F1" height="48" rx="2.5" ry="2.5" style="stroke:#181818;stroke-width:0.5;" width="270.8545" x="328.22" y="546.7469"/><ellipse cx="343.22" cy="562.7469" fill="#ADD1B2" rx="11" ry="11" style="stroke:#181818;stroke-width:1;"/><path d="M346.1888,568.3875 Q345.6106,568.6844 344.97,568.825 Q344.3294,568.9813 343.6263,568.9813 Q341.1263,568.9813 339.7981,567.3406 Q338.4856,565.6844 338.4856,562.5594 Q338.4856,559.4344 339.7981,557.7781 Q341.1263,556.1219 343.6263,556.1219 Q344.3294,556.1219 344.97,556.2781 Q345.6263,556.4344 346.1888,556.7313 L346.1888,559.45 Q345.5638,558.8719 344.97,558.6063 Q344.3763,558.325 343.7513,558.325 Q342.4075,558.325 341.72,559.4031 Q341.0325,560.4656 341.0325,562.5594 Q341.0325,564.6531 341.72,565.7313 Q342.4075,566.7938 343.7513,566.7938 Q344.3763,566.7938 344.97,566.5281 Q345.5638,566.2469 346.1888,565.6688 L346.1888,568.3875 Z " fill="#000000"/><text fill="#000000" font-family="sans-serif" font-size="14" lengthAdjust="spacing" textLength="238.8545" x="357.22" y="567.5936">DiffractionExperimentWithSample</text><line style="stroke:#181818;stroke-width:0.5;" x1="329.22" x2="598.0745" y1="578.7469" y2="578.7469"/><line style="stroke:#181818;stroke-width:0.5;" x1="329.22" x2="598.0745" y1="586.7469" y2="586.7469"/></g><!--class MxBlueskyParameters--><g class="entity" data-entity="MxBlueskyParameters" data-source-line="65" data-uid="ent0014" id="entity_MxBlueskyParameters"><rect fill="#F1F1F1" height="64.2969" rx="2.5" ry="2.5" style="stroke:#181818;stroke-width:0.5;" width="317.4639" x="300.91" y="118.8869"/><ellipse cx="377.4964" cy="134.8869" fill="#ADD1B2" rx="11" ry="11" style="stroke:#181818;stroke-width:1;"/><path d="M380.4652,140.5275 Q379.8871,140.8244 379.2464,140.965 Q378.6058,141.1213 377.9027,141.1213 Q375.4027,141.1213 374.0746,139.4806 Q372.7621,137.8244 372.7621,134.6994 Q372.7621,131.5744 374.0746,129.9181 Q375.4027,128.2619 377.9027,128.2619 Q378.6058,128.2619 379.2464,128.4181 Q379.9027,128.5744 380.4652,128.8713 L380.4652,131.59 Q379.8402,131.0119 379.2464,130.7463 Q378.6527,130.465 378.0277,130.465 Q376.6839,130.465 375.9964,131.5431 Q375.3089,132.6056 375.3089,134.6994 Q375.3089,136.7931 375.9964,137.8713 Q376.6839,138.9338 378.0277,138.9338 Q378.6527,138.9338 379.2464,138.6681 Q379.8402,138.3869 380.4652,137.8088 L380.4652,140.5275 Z " fill="#000000"/><text fill="#000000" font-family="sans-serif" font-size="14" lengthAdjust="spacing" textLength="155.791" x="397.9964" y="139.7336">MxBlueskyParameters</text><line style="stroke:#181818;stroke-width:0.5;" x1="301.91" x2="617.3739" y1="150.8869" y2="150.8869"/><text fill="#000000" font-family="sans-serif" font-size="14" lengthAdjust="spacing" textLength="305.4639" x="306.91" y="167.882">SemanticVersion parameter_model_version</text><line style="stroke:#181818;stroke-width:0.5;" x1="301.91" x2="617.3739" y1="175.1838" y2="175.1838"/></g><!--class WithHyperionUDCFeatures--><g class="entity" data-entity="WithHyperionUDCFeatures" data-source-line="71" data-uid="ent0016" id="entity_WithHyperionUDCFeatures"><rect fill="#F1F1F1" height="64.2969" rx="2.5" ry="2.5" style="stroke:#181818;stroke-width:0.5;" width="228.6719" x="2936.31" y="695.4869"/><ellipse cx="2955.4083" cy="711.4869" fill="#ADD1B2" rx="11" ry="11" style="stroke:#181818;stroke-width:1;"/><path d="M2958.3771,717.1275 Q2957.799,717.4244 2957.1583,717.565 Q2956.5177,717.7213 2955.8146,717.7213 Q2953.3146,717.7213 2951.9865,716.0806 Q2950.674,714.4244 2950.674,711.2994 Q2950.674,708.1744 2951.9865,706.5181 Q2953.3146,704.8619 2955.8146,704.8619 Q2956.5177,704.8619 2957.1583,705.0181 Q2957.8146,705.1744 2958.3771,705.4713 L2958.3771,708.19 Q2957.7521,707.6119 2957.1583,707.3463 Q2956.5646,707.065 2955.9396,707.065 Q2954.5958,707.065 2953.9083,708.1431 Q2953.2208,709.2056 2953.2208,711.2994 Q2953.2208,713.3931 2953.9083,714.4713 Q2954.5958,715.5338 2955.9396,715.5338 Q2956.5646,715.5338 2957.1583,715.2681 Q2957.7521,714.9869 2958.3771,714.4088 L2958.3771,717.1275 Z " fill="#000000"/><text fill="#000000" font-family="sans-serif" font-size="14" lengthAdjust="spacing" textLength="187.5645" x="2970.3191" y="716.3336">WithHyperionUDCFeatures</text><line style="stroke:#181818;stroke-width:0.5;" x1="2937.31" x2="3163.9819" y1="727.4869" y2="727.4869"/><text fill="#000000" font-family="sans-serif" font-size="14" lengthAdjust="spacing" textLength="216.6719" x="2942.31" y="744.482">HyperionFeatureFlags features</text><line style="stroke:#181818;stroke-width:0.5;" x1="2937.31" x2="3163.9819" y1="751.7838" y2="751.7838"/></g><!--class GridScanWithEdgeDetect--><g class="entity" data-entity="GridScanWithEdgeDetect" data-source-line="74" data-uid="ent0017" id="entity_GridScanWithEdgeDetect"><rect fill="#F1F1F1" height="48" rx="2.5" ry="2.5" style="stroke:#181818;stroke-width:0.5;" width="209.4268" x="3161.93" y="1025.5669"/><ellipse cx="3176.93" cy="1041.5669" fill="#ADD1B2" rx="11" ry="11" style="stroke:#181818;stroke-width:1;"/><path d="M3179.8988,1047.2075 Q3179.3206,1047.5044 3178.68,1047.645 Q3178.0394,1047.8013 3177.3363,1047.8013 Q3174.8363,1047.8013 3173.5081,1046.1606 Q3172.1956,1044.5044 3172.1956,1041.3794 Q3172.1956,1038.2544 3173.5081,1036.5981 Q3174.8363,1034.9419 3177.3363,1034.9419 Q3178.0394,1034.9419 3178.68,1035.0981 Q3179.3363,1035.2544 3179.8988,1035.5513 L3179.8988,1038.27 Q3179.2738,1037.6919 3178.68,1037.4263 Q3178.0863,1037.145 3177.4613,1037.145 Q3176.1175,1037.145 3175.43,1038.2231 Q3174.7425,1039.2856 3174.7425,1041.3794 Q3174.7425,1043.4731 3175.43,1044.5513 Q3176.1175,1045.6138 3177.4613,1045.6138 Q3178.0863,1045.6138 3178.68,1045.3481 Q3179.2738,1045.0669 3179.8988,1044.4888 L3179.8988,1047.2075 Z " fill="#000000"/><text fill="#000000" font-family="sans-serif" font-size="14" lengthAdjust="spacing" textLength="177.4268" x="3190.93" y="1046.4136">GridScanWithEdgeDetect</text><line style="stroke:#181818;stroke-width:0.5;" x1="3162.93" x2="3370.3568" y1="1057.5669" y2="1057.5669"/><line style="stroke:#181818;stroke-width:0.5;" x1="3162.93" x2="3370.3568" y1="1065.5669" y2="1065.5669"/></g><!--class RotationExperiment--><g class="entity" data-entity="RotationExperiment" data-source-line="76" data-uid="ent0018" id="entity_RotationExperiment"><rect fill="#F1F1F1" height="96.8906" rx="2.5" ry="2.5" style="stroke:#181818;stroke-width:0.5;" width="332.332" x="3577.48" y="860.5269"/><ellipse cx="3669.3618" cy="876.5269" fill="#ADD1B2" rx="11" ry="11" style="stroke:#181818;stroke-width:1;"/><path d="M3672.3306,882.1675 Q3671.7525,882.4644 3671.1118,882.605 Q3670.4712,882.7613 3669.7681,882.7613 Q3667.2681,882.7613 3665.94,881.1206 Q3664.6275,879.4644 3664.6275,876.3394 Q3664.6275,873.2144 3665.94,871.5581 Q3667.2681,869.9019 3669.7681,869.9019 Q3670.4712,869.9019 3671.1118,870.0581 Q3671.7681,870.2144 3672.3306,870.5113 L3672.3306,873.23 Q3671.7056,872.6519 3671.1118,872.3863 Q3670.5181,872.105 3669.8931,872.105 Q3668.5493,872.105 3667.8618,873.1831 Q3667.1743,874.2456 3667.1743,876.3394 Q3667.1743,878.4331 3667.8618,879.5113 Q3668.5493,880.5738 3669.8931,880.5738 Q3670.5181,880.5738 3671.1118,880.3081 Q3671.7056,880.0269 3672.3306,879.4488 L3672.3306,882.1675 Z " fill="#000000"/><text fill="#000000" font-family="sans-serif" font-size="14" lengthAdjust="spacing" textLength="140.0684" x="3689.8618" y="881.3736">RotationExperiment</text><line style="stroke:#181818;stroke-width:0.5;" x1="3578.48" x2="3908.812" y1="892.5269" y2="892.5269"/><text fill="#000000" font-family="sans-serif" font-size="14" lengthAdjust="spacing" textLength="202.8018" x="3583.48" y="909.522">float shutter_opening_time_s</text><text fill="#000000" font-family="sans-serif" font-size="14" lengthAdjust="spacing" textLength="202.9385" x="3583.48" y="925.8189">float rotation_increment_deg</text><text fill="#000000" font-family="sans-serif" font-size="14" lengthAdjust="spacing" textLength="320.332" x="3583.48" y="942.1157">IspybExperimentType ispyb_experiment_type</text><line style="stroke:#181818;stroke-width:0.5;" x1="3578.48" x2="3908.812" y1="949.4175" y2="949.4175"/></g><!--class GridCommonWithHyperionDetectorParams--><g class="entity" data-entity="GridCommonWithHyperionDetectorParams" data-source-line="81" data-uid="ent0019" id="entity_GridCommonWithHyperionDetectorParams"><rect fill="#F1F1F1" height="48" rx="2.5" ry="2.5" style="stroke:#181818;stroke-width:0.5;" width="333.2188" x="3209.04" y="884.9769"/><ellipse cx="3224.04" cy="900.9769" fill="#ADD1B2" rx="11" ry="11" style="stroke:#181818;stroke-width:1;"/><path d="M3227.0088,906.6175 Q3226.4306,906.9144 3225.79,907.055 Q3225.1494,907.2113 3224.4463,907.2113 Q3221.9463,907.2113 3220.6181,905.5706 Q3219.3056,903.9144 3219.3056,900.7894 Q3219.3056,897.6644 3220.6181,896.0081 Q3221.9463,894.3519 3224.4463,894.3519 Q3225.1494,894.3519 3225.79,894.5081 Q3226.4463,894.6644 3227.0088,894.9613 L3227.0088,897.68 Q3226.3838,897.1019 3225.79,896.8363 Q3225.1963,896.555 3224.5713,896.555 Q3223.2275,896.555 3222.54,897.6331 Q3221.8525,898.6956 3221.8525,900.7894 Q3221.8525,902.8831 3222.54,903.9613 Q3223.2275,905.0238 3224.5713,905.0238 Q3225.1963,905.0238 3225.79,904.7581 Q3226.3838,904.4769 3227.0088,903.8988 L3227.0088,906.6175 Z " fill="#000000"/><text fill="#000000" font-family="sans-serif" font-size="14" lengthAdjust="spacing" textLength="301.2188" x="3238.04" y="905.8236">GridCommonWithHyperionDetectorParams</text><line style="stroke:#181818;stroke-width:0.5;" x1="3210.04" x2="3541.2588" y1="916.9769" y2="916.9769"/><line style="stroke:#181818;stroke-width:0.5;" x1="3210.04" x2="3541.2588" y1="924.9769" y2="924.9769"/></g><!--class LoadCentreCollect--><g class="entity" data-entity="LoadCentreCollect" data-source-line="83" data-uid="ent0020" id="entity_LoadCentreCollect"><rect fill="#F1F1F1" height="80.5938" rx="2.5" ry="2.5" style="stroke:#181818;stroke-width:0.5;" width="338.6211" x="2798.33" y="868.6769"/><ellipse cx="2898.955" cy="884.6769" fill="#ADD1B2" rx="11" ry="11" style="stroke:#181818;stroke-width:1;"/><path d="M2901.9238,890.3175 Q2901.3456,890.6144 2900.705,890.755 Q2900.0644,890.9113 2899.3613,890.9113 Q2896.8613,890.9113 2895.5331,889.2706 Q2894.2206,887.6144 2894.2206,884.4894 Q2894.2206,881.3644 2895.5331,879.7081 Q2896.8613,878.0519 2899.3613,878.0519 Q2900.0644,878.0519 2900.705,878.2081 Q2901.3613,878.3644 2901.9238,878.6613 L2901.9238,881.38 Q2901.2988,880.8019 2900.705,880.5363 Q2900.1113,880.255 2899.4863,880.255 Q2898.1425,880.255 2897.455,881.3331 Q2896.7675,882.3956 2896.7675,884.4894 Q2896.7675,886.5831 2897.455,887.6613 Q2898.1425,888.7238 2899.4863,888.7238 Q2900.1113,888.7238 2900.705,888.4581 Q2901.2988,888.1769 2901.9238,887.5988 L2901.9238,890.3175 Z " fill="#000000"/><text fill="#000000" font-family="sans-serif" font-size="14" lengthAdjust="spacing" textLength="128.8711" x="2919.455" y="889.5236">LoadCentreCollect</text><line style="stroke:#181818;stroke-width:0.5;" x1="2799.33" x2="3135.9511" y1="900.6769" y2="900.6769"/><text fill="#000000" font-family="sans-serif" font-size="14" lengthAdjust="spacing" textLength="326.6211" x="2804.33" y="917.672">RobotLoadThenCentre robot_load_then_centre</text><text fill="#000000" font-family="sans-serif" font-size="14" lengthAdjust="spacing" textLength="269.3154" x="2804.33" y="933.9689">MultiRotationScan multi_rotation_scan</text><line style="stroke:#181818;stroke-width:0.5;" x1="2799.33" x2="3135.9511" y1="941.2706" y2="941.2706"/></g><!--class MultiRotationScan--><g class="entity" data-entity="MultiRotationScan" data-source-line="87" data-uid="ent0021" id="entity_MultiRotationScan"><rect fill="#F1F1F1" height="64.2969" rx="2.5" ry="2.5" style="stroke:#181818;stroke-width:0.5;" width="540.001" x="3406.64" y="1017.4169"/><ellipse cx="3608.6727" cy="1033.4169" fill="#ADD1B2" rx="11" ry="11" style="stroke:#181818;stroke-width:1;"/><path d="M3611.6415,1039.0575 Q3611.0633,1039.3544 3610.4227,1039.495 Q3609.7821,1039.6513 3609.079,1039.6513 Q3606.579,1039.6513 3605.2508,1038.0106 Q3603.9383,1036.3544 3603.9383,1033.2294 Q3603.9383,1030.1044 3605.2508,1028.4481 Q3606.579,1026.7919 3609.079,1026.7919 Q3609.7821,1026.7919 3610.4227,1026.9481 Q3611.079,1027.1044 3611.6415,1027.4013 L3611.6415,1030.12 Q3611.0165,1029.5419 3610.4227,1029.2763 Q3609.829,1028.995 3609.204,1028.995 Q3607.8602,1028.995 3607.1727,1030.0731 Q3606.4852,1031.1356 3606.4852,1033.2294 Q3606.4852,1035.3231 3607.1727,1036.4013 Q3607.8602,1037.4638 3609.204,1037.4638 Q3609.829,1037.4638 3610.4227,1037.1981 Q3611.0165,1036.9169 3611.6415,1036.3388 L3611.6415,1039.0575 Z " fill="#000000"/><text fill="#000000" font-family="sans-serif" font-size="14" lengthAdjust="spacing" textLength="127.4355" x="3629.1727" y="1038.2636">MultiRotationScan</text><line style="stroke:#181818;stroke-width:0.5;" x1="3407.64" x2="3945.641" y1="1049.4169" y2="1049.4169"/><line style="stroke:#181818;stroke-width:0.5;" x1="3407.64" x2="3945.641" y1="1057.4169" y2="1057.4169"/><text fill="#000000" font-family="sans-serif" font-size="14" lengthAdjust="spacing" textLength="528.001" x="3412.64" y="1074.412">Annotated[list[RotationScanPerSweep], Len(min_length=1)] rotation_scans</text></g><!--class PinTipCentreThenXrayCentre--><g class="entity" data-entity="PinTipCentreThenXrayCentre" data-source-line="90" data-uid="ent0022" id="entity_PinTipCentreThenXrayCentre"><rect fill="#F1F1F1" height="64.2969" rx="2.5" ry="2.5" style="stroke:#181818;stroke-width:0.5;" width="235.8955" x="2890.7" y="1017.4169"/><ellipse cx="2905.7" cy="1033.4169" fill="#ADD1B2" rx="11" ry="11" style="stroke:#181818;stroke-width:1;"/><path d="M2908.6688,1039.0575 Q2908.0906,1039.3544 2907.45,1039.495 Q2906.8094,1039.6513 2906.1063,1039.6513 Q2903.6063,1039.6513 2902.2781,1038.0106 Q2900.9656,1036.3544 2900.9656,1033.2294 Q2900.9656,1030.1044 2902.2781,1028.4481 Q2903.6063,1026.7919 2906.1063,1026.7919 Q2906.8094,1026.7919 2907.45,1026.9481 Q2908.1063,1027.1044 2908.6688,1027.4013 L2908.6688,1030.12 Q2908.0438,1029.5419 2907.45,1029.2763 Q2906.8563,1028.995 2906.2313,1028.995 Q2904.8875,1028.995 2904.2,1030.0731 Q2903.5125,1031.1356 2903.5125,1033.2294 Q2903.5125,1035.3231 2904.2,1036.4013 Q2904.8875,1037.4638 2906.2313,1037.4638 Q2906.8563,1037.4638 2907.45,1037.1981 Q2908.0438,1036.9169 2908.6688,1036.3388 L2908.6688,1039.0575 Z " fill="#000000"/><text fill="#000000" font-family="sans-serif" font-size="14" lengthAdjust="spacing" textLength="203.8955" x="2919.7" y="1038.2636">PinTipCentreThenXrayCentre</text><line style="stroke:#181818;stroke-width:0.5;" x1="2891.7" x2="3125.5955" y1="1049.4169" y2="1049.4169"/><text fill="#000000" font-family="sans-serif" font-size="14" lengthAdjust="spacing" textLength="130.498" x="2896.7" y="1066.412">float tip_offset_um</text><line style="stroke:#181818;stroke-width:0.5;" x1="2891.7" x2="3125.5955" y1="1073.7138" y2="1073.7138"/></g><!--reverse link WithPandaGridScan to WithHyperionUDCFeatures--><g class="link" data-entity-1="WithPandaGridScan" data-entity-2="WithHyperionUDCFeatures" data-source-line="94" data-uid="lnk23" id="link_WithPandaGridScan_WithHyperionUDCFeatures"><path codeLine="94" d="M2548.7584,192.3316 C2574.0384,206.5516 2589.74,213.5869 2619.64,223.7769 C2743.59,266.0169 2811.42,189.1869 2909.64,275.7769 C3036.68,387.7769 3050.52,612.4469 3051.12,695.1469" fill="none" id="WithPandaGridScan-backto-WithHyperionUDCFeatures" style="stroke:#181818;stroke-width:1;"/><polygon fill="none" points="2533.07,183.5069,2545.8168,197.561,2551.6999,187.1021,2533.07,183.5069" style="stroke:#181818;stroke-width:1;"/></g><!--reverse link MxBlueskyParameters to DiffractionExperiment--><g class="link" data-entity-1="MxBlueskyParameters" data-entity-2="DiffractionExperiment" data-source-line="95" data-uid="lnk24" id="link_MxBlueskyParameters_DiffractionExperiment"><path codeLine="95" d="M460.5052,201.2941 C460.9252,225.2741 461.22,241.8669 461.81,275.3869" fill="none" id="MxBlueskyParameters-backto-DiffractionExperiment" style="stroke:#181818;stroke-width:1;"/><polygon fill="none" points="460.19,183.2969,454.5061,201.3992,466.5043,201.189,460.19,183.2969" style="stroke:#181818;stroke-width:1;"/></g><!--reverse link WithSnapshot to DiffractionExperiment--><g class="link" data-entity-1="WithSnapshot" data-entity-2="DiffractionExperiment" data-source-line="96" data-uid="lnk25" id="link_WithSnapshot_DiffractionExperiment"><path codeLine="96" d="M1622.3679,199.1752 C1596.2079,211.0852 1582.88,215.6669 1554.64,223.7769 C1384.64,272.6069 891.19,332.5169 630.13,362.0469" fill="none" id="WithSnapshot-backto-DiffractionExperiment" style="stroke:#181818;stroke-width:1;"/><polygon fill="none" points="1638.75,191.7169,1619.8818,193.7145,1624.854,204.6359,1638.75,191.7169" style="stroke:#181818;stroke-width:1;"/></g><!--reverse link WithOptionalEnergyChange to DiffractionExperiment--><g class="link" data-entity-1="WithOptionalEnergyChange" data-entity-2="DiffractionExperiment" data-source-line="97" data-uid="lnk26" id="link_WithOptionalEnergyChange_DiffractionExperiment"><path codeLine="97" d="M1353.0081,192.4736 C1328.1581,206.6236 1312.99,213.4969 1283.64,223.7769 C1064.46,300.5769 798.37,342.5469 629.98,363.1969" fill="none" id="WithOptionalEnergyChange-backto-DiffractionExperiment" style="stroke:#181818;stroke-width:1;"/><polygon fill="none" points="1368.65,183.5669,1350.0392,187.2597,1355.977,197.6876,1368.65,183.5669" style="stroke:#181818;stroke-width:1;"/></g><!--reverse link WithVisit to DiffractionExperiment--><g class="link" data-entity-1="WithVisit" data-entity-2="DiffractionExperiment" data-source-line="98" data-uid="lnk27" id="link_WithVisit_DiffractionExperiment"><path codeLine="98" d="M980.1524,223.0206 C973.7124,225.6906 983.94,221.3569 977.64,223.7769 C863.58,267.6269 731.66,307.5769 630.03,336.1369" fill="none" id="WithVisit-backto-DiffractionExperiment" style="stroke:#181818;stroke-width:1;"/><polygon fill="none" points="996.78,216.1269,977.8545,217.4781,982.4503,228.5631,996.78,216.1269" style="stroke:#181818;stroke-width:1;"/></g><!--reverse link GridCommonWithHyperionDetectorParams to GridScanWithEdgeDetect--><g class="link" data-entity-1="GridCommonWithHyperionDetectorParams" data-entity-2="GridScanWithEdgeDetect" data-source-line="99" data-uid="lnk28" id="link_GridCommonWithHyperionDetectorParams_GridScanWithEdgeDetect"><path codeLine="99" d="M3346.2719,947.3248 C3326.1519,972.9048 3305.09,999.6769 3284.95,1025.2969" fill="none" id="GridCommonWithHyperionDetectorParams-backto-GridScanWithEdgeDetect" style="stroke:#181818;stroke-width:1;"/><polygon fill="none" points="3357.4,933.1769,3341.5559,943.6155,3350.9879,951.0342,3357.4,933.1769" style="stroke:#181818;stroke-width:1;"/></g><!--reverse link WithHyperionUDCFeatures to GridScanWithEdgeDetect--><g class="link" data-entity-1="WithHyperionUDCFeatures" data-entity-2="GridScanWithEdgeDetect" data-source-line="100" data-uid="lnk29" id="link_WithHyperionUDCFeatures_GridScanWithEdgeDetect"><path codeLine="100" d="M3183.3893,728.3652 C3398.3093,730.2552 3830.58,747.7769 3927.64,860.5269 C4068.97,1024.6969 3798.96,942.5769 3388.64,1017.4169 C3376.82,1019.5769 3364.44,1022.2469 3352.3,1025.1069" fill="none" id="WithHyperionUDCFeatures-backto-GridScanWithEdgeDetect" style="stroke:#181818;stroke-width:1;"/><polygon fill="none" points="3165.39,728.2069,3183.3365,734.3649,3183.4421,722.3654,3165.39,728.2069" style="stroke:#181818;stroke-width:1;"/></g><!--reverse link DiffractionExperimentWithSample to RotationExperiment--><g class="link" data-entity-1="DiffractionExperimentWithSample" data-entity-2="RotationExperiment" data-source-line="101" data-uid="lnk30" id="link_DiffractionExperimentWithSample_RotationExperiment"><path codeLine="101" d="M339.7282,601.9389 C309.8182,613.9589 297.39,625.3269 279.64,652.4869 C235.88,719.4769 223.31,775.7069 279.64,832.5269 C311.72,864.8769 3514.47,854.6069 3559.64,860.5269 C3565.37,861.2769 3571.17,862.1469 3577.01,863.1169" fill="none" id="DiffractionExperimentWithSample-backto-RotationExperiment" style="stroke:#181818;stroke-width:1;"/><polygon fill="none" points="356.43,595.2269,337.4909,596.3716,341.9656,607.5061,356.43,595.2269" style="stroke:#181818;stroke-width:1;"/></g><!--reverse link WithHyperionUDCFeatures to RotationExperiment--><g class="link" data-entity-1="WithHyperionUDCFeatures" data-entity-2="RotationExperiment" data-source-line="102" data-uid="lnk31" id="link_WithHyperionUDCFeatures_RotationExperiment"><path codeLine="102" d="M3182.896,762.8663 C3295.116,791.9063 3449.75,831.9169 3577.02,864.8569" fill="none" id="WithHyperionUDCFeatures-backto-RotationExperiment" style="stroke:#181818;stroke-width:1;"/><polygon fill="none" points="3165.47,758.3569,3181.3928,768.675,3184.3991,757.0577,3165.47,758.3569" style="stroke:#181818;stroke-width:1;"/></g><!--reverse link GridCommon to GridCommonWithHyperionDetectorParams--><g class="link" data-entity-1="GridCommon" data-entity-2="GridCommonWithHyperionDetectorParams" data-source-line="103" data-uid="lnk32" id="link_GridCommon_GridCommonWithHyperionDetectorParams"><path codeLine="103" d="M647.8857,735.9252 C1195.7257,757.8052 2905.43,827.8869 3154.64,860.5269 C3197.06,866.0869 3243.42,875.5069 3282.67,884.5069" fill="none" id="GridCommon-backto-GridCommonWithHyperionDetectorParams" style="stroke:#181818;stroke-width:1;"/><polygon fill="none" points="629.9,735.2069,647.6462,741.9204,648.1251,729.93,629.9,735.2069" style="stroke:#181818;stroke-width:1;"/></g><!--reverse link WithHyperionUDCFeatures to GridCommonWithHyperionDetectorParams--><g class="link" data-entity-1="WithHyperionUDCFeatures" data-entity-2="GridCommonWithHyperionDetectorParams" data-source-line="104" data-uid="lnk33" id="link_WithHyperionUDCFeatures_GridCommonWithHyperionDetectorParams"><path codeLine="104" d="M3123.3897,768.7836 C3187.8297,804.3436 3275.53,852.7269 3333.24,884.5769" fill="none" id="WithHyperionUDCFeatures-backto-GridCommonWithHyperionDetectorParams" style="stroke:#181818;stroke-width:1;"/><polygon fill="none" points="3107.63,760.0869,3120.4908,774.0368,3126.2886,763.5303,3107.63,760.0869" style="stroke:#181818;stroke-width:1;"/></g><!--reverse link MxBlueskyParameters to LoadCentreCollect--><g class="link" data-entity-1="MxBlueskyParameters" data-entity-2="LoadCentreCollect" data-source-line="105" data-uid="lnk34" id="link_MxBlueskyParameters_LoadCentreCollect"><path codeLine="105" d="M544.2849,190.63 C576.9449,204.68 600.45,213.2869 637.64,223.7769 C1189.62,379.5269 2812.31,214.5569 3182.64,652.4869 C3234.31,713.5869 3228.92,767.2469 3182.64,832.5269 C3170.81,849.2269 3154.97,862.2569 3137.23,872.4269" fill="none" id="MxBlueskyParameters-backto-LoadCentreCollect" style="stroke:#181818;stroke-width:1;"/><polygon fill="none" points="527.75,183.5169,541.9139,196.1417,546.656,185.1184,527.75,183.5169" style="stroke:#181818;stroke-width:1;"/></g><!--reverse link WithVisit to LoadCentreCollect--><g class="link" data-entity-1="WithVisit" data-entity-2="LoadCentreCollect" data-source-line="106" data-uid="lnk35" id="link_WithVisit_LoadCentreCollect"><path codeLine="106" d="M985.501,222.0558 C977.201,224.9458 985.87,221.6169 977.64,223.7769 C902.63,243.4569 337.89,222.3969 281.64,275.7769 C191.58,361.2669 147.05,743.5169 233.64,832.5269 C278.5,878.6469 2207.87,900.7569 2797.96,906.4569" fill="none" id="WithVisit-backto-LoadCentreCollect" style="stroke:#181818;stroke-width:1;"/><polygon fill="none" points="1002.5,216.1369,983.528,216.3895,987.474,227.7221,1002.5,216.1369" style="stroke:#181818;stroke-width:1;"/></g><!--reverse link WithSample to LoadCentreCollect--><g class="link" data-entity-1="WithSample" data-entity-2="LoadCentreCollect" data-source-line="107" data-uid="lnk36" id="link_WithSample_LoadCentreCollect"><path codeLine="107" d="M2297.295,212.8536 C2431.255,351.7636 2805.92,740.2769 2929.35,868.2669" fill="none" id="WithSample-backto-LoadCentreCollect" style="stroke:#181818;stroke-width:1;"/><polygon fill="none" points="2284.8,199.8969,2292.9761,217.0185,2301.6139,208.6886,2284.8,199.8969" style="stroke:#181818;stroke-width:1;"/></g><!--reverse link WithCentreSelection to LoadCentreCollect--><g class="link" data-entity-1="WithCentreSelection" data-entity-2="LoadCentreCollect" data-source-line="108" data-uid="lnk37" id="link_WithCentreSelection_LoadCentreCollect"><path codeLine="108" d="M731.2917,191.5175 C701.5417,206.0275 680.62,214.2169 645.64,223.7769 C547.9,250.4869 261.88,201.7969 192.64,275.7769 C23.52,456.5169 6,655.1569 178.64,832.5269 C224.5,879.6469 2199.97,901.1169 2797.92,906.5469" fill="none" id="WithCentreSelection-backto-LoadCentreCollect" style="stroke:#181818;stroke-width:1;"/><polygon fill="none" points="747.47,183.6269,728.6615,186.1248,733.9219,196.9103,747.47,183.6269" style="stroke:#181818;stroke-width:1;"/></g><!--reverse link WithHyperionUDCFeatures to LoadCentreCollect--><g class="link" data-entity-1="WithHyperionUDCFeatures" data-entity-2="LoadCentreCollect" data-source-line="109" data-uid="lnk38" id="link_WithHyperionUDCFeatures_LoadCentreCollect"><path codeLine="109" d="M3028.6277,776.2112 C3014.6877,806.3212 3001.12,835.6569 2986,868.3169" fill="none" id="WithHyperionUDCFeatures-backto-LoadCentreCollect" style="stroke:#181818;stroke-width:1;"/><polygon fill="none" points="3036.19,759.8769,3023.1829,773.6905,3034.0725,778.732,3036.19,759.8769" style="stroke:#181818;stroke-width:1;"/></g><!--reverse link RotationExperiment to MultiRotationScan--><g class="link" data-entity-1="RotationExperiment" data-entity-2="MultiRotationScan" data-source-line="110" data-uid="lnk39" id="link_RotationExperiment_MultiRotationScan"><path codeLine="110" d="M3712.7576,973.8735 C3703.2176,993.6135 3700.25,999.7269 3691.75,1017.3169" fill="none" id="RotationExperiment-backto-MultiRotationScan" style="stroke:#181818;stroke-width:1;"/><polygon fill="none" points="3720.59,957.6669,3707.3554,971.2627,3718.1598,976.4843,3720.59,957.6669" style="stroke:#181818;stroke-width:1;"/></g><!--reverse link SplitScan to MultiRotationScan--><g class="link" data-entity-1="SplitScan" data-entity-2="MultiRotationScan" data-source-line="111" data-uid="lnk40" id="link_SplitScan_MultiRotationScan"><path codeLine="111" d="M2752.2707,158.4279 C2990.0807,182.2079 3999.64,298.8069 3999.64,569.7469 C3999.64,569.7469 3999.64,569.7469 3999.64,728.6369 C3999.64,832.2669 4023.29,879.7869 3954.64,957.4169 C3930.67,984.5269 3898.51,1003.6069 3864.57,1017.0269" fill="none" id="SplitScan-backto-MultiRotationScan" style="stroke:#181818;stroke-width:1;"/><polygon fill="none" points="2734.36,156.6369,2751.6737,164.3981,2752.8677,152.4576,2734.36,156.6369" style="stroke:#181818;stroke-width:1;"/></g><!--reverse link GridCommonWithHyperionDetectorParams to PinTipCentreThenXrayCentre--><g class="link" data-entity-1="GridCommonWithHyperionDetectorParams" data-entity-2="PinTipCentreThenXrayCentre" data-source-line="112" data-uid="lnk41" id="link_GridCommonWithHyperionDetectorParams_PinTipCentreThenXrayCentre"><path codeLine="112" d="M3296.9608,939.6863 C3236.1908,962.6363 3159.85,991.4669 3092.45,1016.9169" fill="none" id="GridCommonWithHyperionDetectorParams-backto-PinTipCentreThenXrayCentre" style="stroke:#181818;stroke-width:1;"/><polygon fill="none" points="3313.8,933.3269,3294.841,934.0732,3299.0806,945.2993,3313.8,933.3269" style="stroke:#181818;stroke-width:1;"/></g><!--reverse link WithHyperionUDCFeatures to PinTipCentreThenXrayCentre--><g class="link" data-entity-1="WithHyperionUDCFeatures" data-entity-2="PinTipCentreThenXrayCentre" data-source-line="113" data-uid="lnk42" id="link_WithHyperionUDCFeatures_PinTipCentreThenXrayCentre"><path codeLine="113" d="M3098.5375,773.0152 C3123.0675,797.5852 3141.03,821.2669 3154.64,860.5269 C3168.76,901.2169 3175.53,919.7569 3154.64,957.4169 C3140.3,983.2869 3115.21,1002.7869 3089.84,1016.9669" fill="none" id="WithHyperionUDCFeatures-backto-PinTipCentreThenXrayCentre" style="stroke:#181818;stroke-width:1;"/><polygon fill="none" points="3085.82,760.2769,3094.2915,777.2543,3102.7836,768.776,3085.82,760.2769" style="stroke:#181818;stroke-width:1;"/></g><!--reverse link DiffractionExperimentWithSample to GridCommon--><g class="link" data-entity-1="DiffractionExperimentWithSample" data-entity-2="GridCommon" data-source-line="114" data-uid="lnk43" id="link_DiffractionExperimentWithSample_GridCommon"><path codeLine="114" d="M463.64,612.9369 C463.64,628.8869 463.64,633.0069 463.64,654.5669" fill="none" id="DiffractionExperimentWithSample-backto-GridCommon" style="stroke:#181818;stroke-width:1;"/><polygon fill="none" points="463.64,594.9369,457.64,612.9369,469.64,612.9369,463.64,594.9369" style="stroke:#181818;stroke-width:1;"/></g><!--reverse link OptionalGonioAngleStarts to GridCommon--><g class="link" data-entity-1="OptionalGonioAngleStarts" data-entity-2="GridCommon" data-source-line="115" data-uid="lnk44" id="link_OptionalGonioAngleStarts_GridCommon"><path codeLine="115" d="M1894.5733,216.4356 C1883.9533,221.9956 1889.13,218.9969 1878.64,223.7769 C1440.69,423.4869 898.47,596.6869 630.16,677.7369" fill="none" id="OptionalGonioAngleStarts-backto-GridCommon" style="stroke:#181818;stroke-width:1;"/><polygon fill="none" points="1910.52,208.0869,1891.7903,211.1201,1897.3562,221.7512,1910.52,208.0869" style="stroke:#181818;stroke-width:1;"/></g><!--reverse link DiffractionExperiment to DiffractionExperimentWithSample--><g class="link" data-entity-1="DiffractionExperiment" data-entity-2="DiffractionExperimentWithSample" data-source-line="116" data-uid="lnk45" id="link_DiffractionExperiment_DiffractionExperimentWithSample"><path codeLine="116" d="M463.64,505.2469 C463.64,527.4969 463.64,530.8969 463.64,546.3269" fill="none" id="DiffractionExperiment-backto-DiffractionExperimentWithSample" style="stroke:#181818;stroke-width:1;"/><polygon fill="none" points="463.64,487.2469,457.64,505.2469,469.64,505.2469,463.64,487.2469" style="stroke:#181818;stroke-width:1;"/></g><!--reverse link WithSample to DiffractionExperimentWithSample--><g class="link" data-entity-1="WithSample" data-entity-2="DiffractionExperimentWithSample" data-source-line="117" data-uid="lnk46" id="link_WithSample_DiffractionExperimentWithSample"><path codeLine="117" d="M2161.3886,209.7221 C2147.5286,218.7121 2147.59,217.4669 2132.64,223.7769 C1593.42,451.5669 891,533.8969 599.55,559.5569" fill="none" id="WithSample-backto-DiffractionExperimentWithSample" style="stroke:#181818;stroke-width:1;"/><polygon fill="none" points="2176.49,199.9269,2158.1235,204.6883,2164.6536,214.7559,2176.49,199.9269" style="stroke:#181818;stroke-width:1;"/></g><!--SRC=[bLPBR-Cs43wRluAtja0JeFVsa7MosmARhR5sqmABWA2biKI48WcIojhrvh_laDJBaMHduOF5UNupd6-adpQbS7Gd953yvxNNLmKeiDn3JhS7sXwOaLpvkfBNva285nuT_ZmOi48hkkAML-31qdkTWoGEF5KeSOPdi0Q3QgyjLLe18IXxuWNGQi-siWRtTBZET5LfTMtQC8uUYTS5-1937aackNFqN-7B9IXlCQA4p6FY8rbijFdqxd3FzqjTAzzfg8jFB8iEZhmCWgmLDwxK7hrNt9VKDMUM2ui-sXx8GWhdl-oavlwHVgEV47XlfYiek6Cv52TX7uGJ8QRpbcw1Lr9WjV7q73JfCOUGnddcDGj6BDFg6IpMp0nYIKP2EHHX5SnOs8azMKGaBH2C4M76G5nbmAhgj41U6Ga8HIXFNJmmaQTZMqoIcZfxcfGBrKLS6odyEkFOxM6I5LSv_s15dbGDH1EapDQgDhFm_ZQXDYxlSBAAmxBage3ZgCOA8p689WoUkm2jymUjXBvHXOIrvzQxrm7Y9J4NTF6cJhMc5BEwx8pkYHipZFg2lz6WXgOiuqHteBPwpvpu7rXTjQ82hTXNaVjo88IzqQwsmBoeW3co-CkPm_Pk7tXMuIXla778KvGnw8JCevGiRl3iqVU18wkw-umqW9pnHjjcyi8mlTiXKqFwjhktOhUpF3AeJzhCTDWHBB1w5com2bH67oIc5KK1DYm4wjCpg_1mCcuuA4pLrHRi3-EtNBbAE1Te4Z3_KAy2KeSKmZqqPFrMQqbh1yngaS2URSoGQwtX_VvTMchTJWoZkGxZx4NsWCUmdRfD5xD8zfpaSPvUfZPasQpQqntPSwfTnV_SBjy33uqAQLjf8telUO6xlj5ta5iIXpXtUG6tSR_q9NtMdeyc8js2AsiVgj06b515Dmb9Qnj79bHc8RO_Kkhj5_KoejImsDjc4SPMknxmHytpzAPOQYbZBOlFUgjzK6nAK4c9-53646hEaC2gULcGnNqjlMYh3fsXLP2mhXw7ilx6NrjZjXkbWW3oB_55CjIkmAw_0fZ7N-b7K3zNGZ49gl3b7x_zyaXFKlHNj19g8qo27Ghup_93EXtd2Fr2HbkQ_lxjwcfkNCZ4v2Q7oTadmpVf9RkfZN_99xvEpnczPIQI__I0avb6dFMvi0UIxvWmvtDDsFV5zN0k5Nkve8iHPcTWHAdNTpHjCEpAjCMhBxfpfhEbZSt77KsM8wwIxkjcpk3jOpPFqlFmp_YzQTnwX6JkwsXaE1du3DlwdADxlM3_7G00]--></g></svg>