<svg xmlns="http://www.w3.org/2000/svg" xmlns:xlink="http://www.w3.org/1999/xlink" contentStyleType="text/css" data-diagram-type="CLASS" height="1235px" preserveAspectRatio="none" style="width:4949px;height:1235px;background:#FFFFFF;" version="1.1" viewBox="0 0 4949 1235" width="4949px" zoomAndPan="magnify"><title>Hyperion Parameter Model</title><defs/><g><text fill="#000000" font-family="sans-serif" font-size="14" font-weight="bold" lengthAdjust="spacing" textLength="212.4951" x="2361.3624" y="22.9951">Hyperion Parameter Model</text><!--cluster mx_bluesky.common.parameters--><g class="cluster" data-entity="mx_bluesky.common.parameters" data-source-line="6" data-uid="ent0002" id="cluster_mx_bluesky.common.parameters"><path d="M8.5,43.2969 L269.8125,43.2969 A3.75,3.75 0 0 1 272.3125,45.7969 L279.3125,65.5938 L2993.5,65.5938 A2.5,2.5 0 0 1 2996,68.0938 L2996,1109.2969 A2.5,2.5 0 0 1 2993.5,1111.7969 L8.5,1111.7969 A2.5,2.5 0 0 1 6,1109.2969 L6,45.7969 A2.5,2.5 0 0 1 8.5,43.2969" fill="none" style="stroke:#000000;stroke-width:1.5;"/><line style="stroke:#000000;stroke-width:1.5;" x1="6" x2="279.3125" y1="65.5938" y2="65.5938"/><text fill="#000000" font-family="sans-serif" font-size="14" font-weight="bold" lengthAdjust="spacing" textLength="260.3125" x="10" y="58.292">mx_bluesky.common.parameters</text></g><!--cluster mx_bluesky.hyperion.parameters--><g class="cluster" data-entity="mx_bluesky.hyperion.parameters" data-source-line="97" data-uid="ent0020" id="cluster_mx_bluesky.hyperion.parameters"><path d="M3022.5,660.4969 L3287.0322,660.4969 A3.75,3.75 0 0 1 3289.5322,662.9969 L3296.5322,682.7937 L4805.5,682.7937 A2.5,2.5 0 0 1 4808,685.2937 L4808,1225.5969 A2.5,2.5 0 0 1 4805.5,1228.0969 L3022.5,1228.0969 A2.5,2.5 0 0 1 3020,1225.5969 L3020,662.9969 A2.5,2.5 0 0 1 3022.5,660.4969" fill="none" style="stroke:#000000;stroke-width:1.5;"/><line style="stroke:#000000;stroke-width:1.5;" x1="3020" x2="3296.5322" y1="682.7937" y2="682.7937"/><text fill="#000000" font-family="sans-serif" font-size="14" font-weight="bold" lengthAdjust="spacing" textLength="263.5322" x="3024" y="675.492">mx_bluesky.hyperion.parameters</text></g><!--class XyzStarts--><g class="entity" data-entity="XyzStarts" data-source-line="8" data-uid="ent0003" id="entity_XyzStarts"><rect fill="#F1F1F1" height="96.8906" rx="2.5" ry="2.5" style="stroke:#181818;stroke-width:0.5;" width="125.3057" x="30.35" y="102.5969"/><ellipse cx="57.3141" cy="118.5969" fill="#ADD1B2" rx="11" ry="11" style="stroke:#181818;stroke-width:1;"/><path d="M60.2829,124.2375 Q59.7047,124.5344 59.0641,124.675 Q58.4235,124.8312 57.7204,124.8312 Q55.2204,124.8312 53.8922,123.1906 Q52.5797,121.5344 52.5797,118.4094 Q52.5797,115.2844 53.8922,113.6281 Q55.2204,111.9719 57.7204,111.9719 Q58.4235,111.9719 59.0641,112.1281 Q59.7204,112.2844 60.2829,112.5812 L60.2829,115.3 Q59.6579,114.7219 59.0641,114.4562 Q58.4704,114.175 57.8454,114.175 Q56.5016,114.175 55.8141,115.2531 Q55.1266,116.3156 55.1266,118.4094 Q55.1266,120.5031 55.8141,121.5812 Q56.5016,122.6437 57.8454,122.6437 Q58.4704,122.6437 59.0641,122.3781 Q59.6579,122.0969 60.2829,121.5187 L60.2829,124.2375 Z " fill="#000000"/><text fill="#000000" font-family="sans-serif" font-size="14" lengthAdjust="spacing" textLength="66.7188" x="73.9728" y="123.4436">XyzStarts</text><line style="stroke:#181818;stroke-width:0.5;" x1="31.35" x2="154.6557" y1="134.5969" y2="134.5969"/><text fill="#000000" font-family="sans-serif" font-size="14" lengthAdjust="spacing" textLength="113.3057" x="36.35" y="151.592">float x_start_um</text><text fill="#000000" font-family="sans-serif" font-size="14" lengthAdjust="spacing" textLength="113.3057" x="36.35" y="167.8889">float y_start_um</text><text fill="#000000" font-family="sans-serif" font-size="14" lengthAdjust="spacing" textLength="112.3691" x="36.35" y="184.1857">float z_start_um</text><line style="stroke:#181818;stroke-width:0.5;" x1="31.35" x2="154.6557" y1="191.4875" y2="191.4875"/></g><!--class WithSnapshot--><g class="entity" data-entity="WithSnapshot" data-source-line="13" data-uid="ent0004" id="entity_WithSnapshot"><rect fill="#F1F1F1" height="80.5938" rx="2.5" ry="2.5" style="stroke:#181818;stroke-width:0.5;" width="289.3477" x="460.33" y="110.7469"/><ellipse cx="551.9828" cy="126.7469" fill="#ADD1B2" rx="11" ry="11" style="stroke:#181818;stroke-width:1;"/><path d="M554.9516,132.3875 Q554.3735,132.6844 553.7328,132.825 Q553.0922,132.9813 552.3891,132.9813 Q549.8891,132.9813 548.561,131.3406 Q547.2485,129.6844 547.2485,126.5594 Q547.2485,123.4344 548.561,121.7781 Q549.8891,120.1219 552.3891,120.1219 Q553.0922,120.1219 553.7328,120.2781 Q554.3891,120.4344 554.9516,120.7313 L554.9516,123.45 Q554.3266,122.8719 553.7328,122.6063 Q553.1391,122.325 552.5141,122.325 Q551.1703,122.325 550.4828,123.4031 Q549.7953,124.4656 549.7953,126.5594 Q549.7953,128.6531 550.4828,129.7313 Q551.1703,130.7938 552.5141,130.7938 Q553.1391,130.7938 553.7328,130.5281 Q554.3266,130.2469 554.9516,129.6688 L554.9516,132.3875 Z " fill="#000000"/><text fill="#000000" font-family="sans-serif" font-size="14" lengthAdjust="spacing" textLength="97.542" x="572.4828" y="131.5936">WithSnapshot</text><line style="stroke:#181818;stroke-width:0.5;" x1="461.33" x2="748.6777" y1="142.7469" y2="142.7469"/><text fill="#000000" font-family="sans-serif" font-size="14" lengthAdjust="spacing" textLength="169.627" x="466.33" y="159.742">Path snapshot_directory</text><text fill="#000000" font-family="sans-serif" font-size="14" lengthAdjust="spacing" textLength="277.3477" x="466.33" y="176.0389">list[float] | None snapshot_omegas_deg</text><line style="stroke:#181818;stroke-width:0.5;" x1="461.33" x2="748.6777" y1="183.3406" y2="183.3406"/></g><!--class OptionalXyzStarts--><g class="entity" data-entity="OptionalXyzStarts" data-source-line="17" data-uid="ent0005" id="entity_OptionalXyzStarts"><rect fill="#F1F1F1" height="96.8906" rx="2.5" ry="2.5" style="stroke:#181818;stroke-width:0.5;" width="175.4473" x="2133.28" y="102.5969"/><ellipse cx="2156.1713" cy="118.5969" fill="#ADD1B2" rx="11" ry="11" style="stroke:#181818;stroke-width:1;"/><path d="M2159.14,124.2375 Q2158.5619,124.5344 2157.9213,124.675 Q2157.2806,124.8312 2156.5775,124.8312 Q2154.0775,124.8312 2152.7494,123.1906 Q2151.4369,121.5344 2151.4369,118.4094 Q2151.4369,115.2844 2152.7494,113.6281 Q2154.0775,111.9719 2156.5775,111.9719 Q2157.2806,111.9719 2157.9213,112.1281 Q2158.5775,112.2844 2159.14,112.5812 L2159.14,115.3 Q2158.515,114.7219 2157.9213,114.4562 Q2157.3275,114.175 2156.7025,114.175 Q2155.3588,114.175 2154.6713,115.2531 Q2153.9838,116.3156 2153.9838,118.4094 Q2153.9838,120.5031 2154.6713,121.5812 Q2155.3588,122.6437 2156.7025,122.6437 Q2157.3275,122.6437 2157.9213,122.3781 Q2158.515,122.0969 2159.14,121.5187 L2159.14,124.2375 Z " fill="#000000"/><text fill="#000000" font-family="sans-serif" font-size="14" lengthAdjust="spacing" textLength="125.9111" x="2171.9249" y="123.4436">OptionalXyzStarts</text><line style="stroke:#181818;stroke-width:0.5;" x1="2134.28" x2="2307.7273" y1="134.5969" y2="134.5969"/><text fill="#000000" font-family="sans-serif" font-size="14" lengthAdjust="spacing" textLength="163.4473" x="2139.28" y="151.592">float | None x_start_um</text><text fill="#000000" font-family="sans-serif" font-size="14" lengthAdjust="spacing" textLength="163.4473" x="2139.28" y="167.8889">float | None y_start_um</text><text fill="#000000" font-family="sans-serif" font-size="14" lengthAdjust="spacing" textLength="162.5107" x="2139.28" y="184.1857">float | None z_start_um</text><line style="stroke:#181818;stroke-width:0.5;" x1="2134.28" x2="2307.7273" y1="191.4875" y2="191.4875"/></g><!--class WithVisit--><g class="entity" data-entity="WithVisit" data-source-line="22" data-uid="ent0006" id="entity_WithVisit"><rect fill="#F1F1F1" height="129.4844" rx="2.5" ry="2.5" style="stroke:#181818;stroke-width:0.5;" width="271.7861" x="2344.11" y="86.2969"/><ellipse cx="2444.6359" cy="102.2969" fill="#ADD1B2" rx="11" ry="11" style="stroke:#181818;stroke-width:1;"/><path d="M2447.6046,107.9375 Q2447.0265,108.2344 2446.3859,108.375 Q2445.7453,108.5313 2445.0421,108.5313 Q2442.5421,108.5313 2441.214,106.8906 Q2439.9015,105.2344 2439.9015,102.1094 Q2439.9015,98.9844 2441.214,97.3281 Q2442.5421,95.6719 2445.0421,95.6719 Q2445.7453,95.6719 2446.3859,95.8281 Q2447.0421,95.9844 2447.6046,96.2813 L2447.6046,99 Q2446.9796,98.4219 2446.3859,98.1563 Q2445.7921,97.875 2445.1671,97.875 Q2443.8234,97.875 2443.1359,98.9531 Q2442.4484,100.0156 2442.4484,102.1094 Q2442.4484,104.2031 2443.1359,105.2813 Q2443.8234,106.3438 2445.1671,106.3438 Q2445.7921,106.3438 2446.3859,106.0781 Q2446.9796,105.7969 2447.6046,105.2188 L2447.6046,107.9375 Z " fill="#000000"/><text fill="#000000" font-family="sans-serif" font-size="14" lengthAdjust="spacing" textLength="62.2344" x="2465.1359" y="107.1436">WithVisit</text><line style="stroke:#181818;stroke-width:0.5;" x1="2345.11" x2="2614.8961" y1="118.2969" y2="118.2969"/><text fill="#000000" font-family="sans-serif" font-size="14" lengthAdjust="spacing" textLength="87.9717" x="2350.11" y="135.292">str beamline</text><text fill="#000000" font-family="sans-serif" font-size="14" lengthAdjust="spacing" textLength="51.8369" x="2350.11" y="151.5889">str visit</text><text fill="#000000" font-family="sans-serif" font-size="14" lengthAdjust="spacing" textLength="259.7861" x="2350.11" y="167.8857">str det_dist_to_beam_converter_path</text><text fill="#000000" font-family="sans-serif" font-size="14" lengthAdjust="spacing" textLength="131.5918" x="2350.11" y="184.1826">str insertion_prefix</text><text fill="#000000" font-family="sans-serif" font-size="14" lengthAdjust="spacing" textLength="245.752" x="2350.11" y="200.4795">float | None detector_distance_mm</text><line style="stroke:#181818;stroke-width:0.5;" x1="2345.11" x2="2614.8961" y1="207.7813" y2="207.7813"/></g><!--class WithCentreSelection--><g class="entity" data-entity="WithCentreSelection" data-source-line="29" data-uid="ent0007" id="entity_WithCentreSelection"><rect fill="#F1F1F1" height="64.2969" rx="2.5" ry="2.5" style="stroke:#181818;stroke-width:0.5;" width="306.7861" x="1515.61" y="118.8969"/><ellipse cx="1592.8869" cy="134.8969" fill="#ADD1B2" rx="11" ry="11" style="stroke:#181818;stroke-width:1;"/><path d="M1595.8556,140.5375 Q1595.2775,140.8344 1594.6369,140.975 Q1593.9962,141.1312 1593.2931,141.1312 Q1590.7931,141.1312 1589.465,139.4906 Q1588.1525,137.8344 1588.1525,134.7094 Q1588.1525,131.5844 1589.465,129.9281 Q1590.7931,128.2719 1593.2931,128.2719 Q1593.9962,128.2719 1594.6369,128.4281 Q1595.2931,128.5844 1595.8556,128.8812 L1595.8556,131.6 Q1595.2306,131.0219 1594.6369,130.7562 Q1594.0431,130.475 1593.4181,130.475 Q1592.0744,130.475 1591.3869,131.5531 Q1590.6994,132.6156 1590.6994,134.7094 Q1590.6994,136.8031 1591.3869,137.8812 Q1592.0744,138.9437 1593.4181,138.9437 Q1594.0431,138.9437 1594.6369,138.6781 Q1595.2306,138.3969 1595.8556,137.8187 L1595.8556,140.5375 Z " fill="#000000"/><text fill="#000000" font-family="sans-serif" font-size="14" lengthAdjust="spacing" textLength="143.7324" x="1613.3869" y="139.7436">WithCentreSelection</text><line style="stroke:#181818;stroke-width:0.5;" x1="1516.61" x2="1821.3961" y1="150.8969" y2="150.8969"/><text fill="#000000" font-family="sans-serif" font-size="14" lengthAdjust="spacing" textLength="294.7861" x="1521.61" y="167.892">TopNByMaxCountSelection select_centres</text><line style="stroke:#181818;stroke-width:0.5;" x1="1516.61" x2="1821.3961" y1="175.1937" y2="175.1937"/></g><!--class WithScan--><g class="entity" data-entity="WithScan" data-source-line="32" data-uid="ent0008" id="entity_WithScan"><rect fill="#F1F1F1" height="48" rx="2.5" ry="2.5" style="stroke:#181818;stroke-width:0.5;" width="98.1309" x="1170.93" y="127.0469"/><ellipse cx="1185.93" cy="143.0469" fill="#ADD1B2" rx="11" ry="11" style="stroke:#181818;stroke-width:1;"/><path d="M1188.8988,148.6875 Q1188.3206,148.9844 1187.68,149.125 Q1187.0394,149.2813 1186.3363,149.2813 Q1183.8363,149.2813 1182.5081,147.6406 Q1181.1956,145.9844 1181.1956,142.8594 Q1181.1956,139.7344 1182.5081,138.0781 Q1183.8363,136.4219 1186.3363,136.4219 Q1187.0394,136.4219 1187.68,136.5781 Q1188.3363,136.7344 1188.8988,137.0313 L1188.8988,139.75 Q1188.2738,139.1719 1187.68,138.9063 Q1187.0863,138.625 1186.4613,138.625 Q1185.1175,138.625 1184.43,139.7031 Q1183.7425,140.7656 1183.7425,142.8594 Q1183.7425,144.9531 1184.43,146.0313 Q1185.1175,147.0938 1186.4613,147.0938 Q1187.0863,147.0938 1187.68,146.8281 Q1188.2738,146.5469 1188.8988,145.9688 L1188.8988,148.6875 Z " fill="#000000"/><text fill="#000000" font-family="sans-serif" font-size="14" lengthAdjust="spacing" textLength="66.1309" x="1199.93" y="147.8936">WithScan</text><line style="stroke:#181818;stroke-width:0.5;" x1="1171.93" x2="1268.0609" y1="159.0469" y2="159.0469"/><line style="stroke:#181818;stroke-width:0.5;" x1="1171.93" x2="1268.0609" y1="167.0469" y2="167.0469"/></g><!--class WithSample--><g class="entity" data-entity="WithSample" data-source-line="34" data-uid="ent0009" id="entity_WithSample"><rect fill="#F1F1F1" height="96.8906" rx="2.5" ry="2.5" style="stroke:#181818;stroke-width:0.5;" width="176.3086" x="1303.85" y="102.5969"/><ellipse cx="1345.7243" cy="118.5969" fill="#ADD1B2" rx="11" ry="11" style="stroke:#181818;stroke-width:1;"/><path d="M1348.6931,124.2375 Q1348.1149,124.5344 1347.4743,124.675 Q1346.8337,124.8312 1346.1306,124.8312 Q1343.6306,124.8312 1342.3024,123.1906 Q1340.9899,121.5344 1340.9899,118.4094 Q1340.9899,115.2844 1342.3024,113.6281 Q1343.6306,111.9719 1346.1306,111.9719 Q1346.8337,111.9719 1347.4743,112.1281 Q1348.1306,112.2844 1348.6931,112.5812 L1348.6931,115.3 Q1348.0681,114.7219 1347.4743,114.4562 Q1346.8806,114.175 1346.2556,114.175 Q1344.9118,114.175 1344.2243,115.2531 Q1343.5368,116.3156 1343.5368,118.4094 Q1343.5368,120.5031 1344.2243,121.5812 Q1344.9118,122.6437 1346.2556,122.6437 Q1346.8806,122.6437 1347.4743,122.3781 Q1348.0681,122.0969 1348.6931,121.5187 L1348.6931,124.2375 Z " fill="#000000"/><text fill="#000000" font-family="sans-serif" font-size="14" lengthAdjust="spacing" textLength="84.5879" x="1365.6964" y="123.4436">WithSample</text><line style="stroke:#181818;stroke-width:0.5;" x1="1304.85" x2="1479.1586" y1="134.5969" y2="134.5969"/><text fill="#000000" font-family="sans-serif" font-size="14" lengthAdjust="spacing" textLength="93.3789" x="1309.85" y="151.592">int sample_id</text><text fill="#000000" font-family="sans-serif" font-size="14" lengthAdjust="spacing" textLength="164.3086" x="1309.85" y="167.8889">int | None sample_puck</text><text fill="#000000" font-family="sans-serif" font-size="14" lengthAdjust="spacing" textLength="152.3936" x="1309.85" y="184.1857">int | None sample_pin</text><line style="stroke:#181818;stroke-width:0.5;" x1="1304.85" x2="1479.1586" y1="191.4875" y2="191.4875"/></g><!--class OptionalGonioAngleStarts--><g class="entity" data-entity="OptionalGonioAngleStarts" data-source-line="39" data-uid="ent0010" id="entity_OptionalGonioAngleStarts"><rect fill="#F1F1F1" height="113.1875" rx="2.5" ry="2.5" style="stroke:#181818;stroke-width:0.5;" width="219.3203" x="784.34" y="94.4469"/><ellipse cx="802.0633" cy="110.4469" fill="#ADD1B2" rx="11" ry="11" style="stroke:#181818;stroke-width:1;"/><path d="M805.032,116.0875 Q804.4539,116.3844 803.8133,116.525 Q803.1727,116.6812 802.4695,116.6812 Q799.9695,116.6812 798.6414,115.0406 Q797.3289,113.3844 797.3289,110.2594 Q797.3289,107.1344 798.6414,105.4781 Q799.9695,103.8219 802.4695,103.8219 Q803.1727,103.8219 803.8133,103.9781 Q804.4695,104.1344 805.032,104.4312 L805.032,107.15 Q804.407,106.5719 803.8133,106.3062 Q803.2195,106.025 802.5945,106.025 Q801.2508,106.025 800.5633,107.1031 Q799.8758,108.1656 799.8758,110.2594 Q799.8758,112.3531 800.5633,113.4312 Q801.2508,114.4937 802.5945,114.4937 Q803.2195,114.4937 803.8133,114.2281 Q804.407,113.9469 805.032,113.3687 L805.032,116.0875 Z " fill="#000000"/><text fill="#000000" font-family="sans-serif" font-size="14" lengthAdjust="spacing" textLength="181.2686" x="816.6685" y="115.2936">OptionalGonioAngleStarts</text><line style="stroke:#181818;stroke-width:0.5;" x1="785.34" x2="1002.6603" y1="126.4469" y2="126.4469"/><text fill="#000000" font-family="sans-serif" font-size="14" lengthAdjust="spacing" textLength="207.3203" x="790.34" y="143.442">float | None omega_start_deg</text><text fill="#000000" font-family="sans-serif" font-size="14" lengthAdjust="spacing" textLength="180.6875" x="790.34" y="159.7389">float | None phi_start_deg</text><text fill="#000000" font-family="sans-serif" font-size="14" lengthAdjust="spacing" textLength="179.498" x="790.34" y="176.0357">float | None chi_start_deg</text><text fill="#000000" font-family="sans-serif" font-size="14" lengthAdjust="spacing" textLength="202.0771" x="790.34" y="192.3326">float | None kappa_start_deg</text><line style="stroke:#181818;stroke-width:0.5;" x1="785.34" x2="1002.6603" y1="199.6344" y2="199.6344"/></g><!--class SplitScan--><g class="entity" data-entity="SplitScan" data-source-line="45" data-uid="ent0011" id="entity_SplitScan"><rect fill="#F1F1F1" height="48" rx="2.5" ry="2.5" style="stroke:#181818;stroke-width:0.5;" width="97.0781" x="1038.46" y="127.0469"/><ellipse cx="1053.46" cy="143.0469" fill="#ADD1B2" rx="11" ry="11" style="stroke:#181818;stroke-width:1;"/><path d="M1056.4288,148.6875 Q1055.8506,148.9844 1055.21,149.125 Q1054.5694,149.2813 1053.8663,149.2813 Q1051.3663,149.2813 1050.0381,147.6406 Q1048.7256,145.9844 1048.7256,142.8594 Q1048.7256,139.7344 1050.0381,138.0781 Q1051.3663,136.4219 1053.8663,136.4219 Q1054.5694,136.4219 1055.21,136.5781 Q1055.8663,136.7344 1056.4288,137.0313 L1056.4288,139.75 Q1055.8038,139.1719 1055.21,138.9063 Q1054.6163,138.625 1053.9913,138.625 Q1052.6475,138.625 1051.96,139.7031 Q1051.2725,140.7656 1051.2725,142.8594 Q1051.2725,144.9531 1051.96,146.0313 Q1052.6475,147.0938 1053.9913,147.0938 Q1054.6163,147.0938 1055.21,146.8281 Q1055.8038,146.5469 1056.4288,145.9688 L1056.4288,148.6875 Z " fill="#000000"/><text fill="#000000" font-family="sans-serif" font-size="14" lengthAdjust="spacing" textLength="65.0781" x="1067.46" y="147.8936">SplitScan</text><line style="stroke:#181818;stroke-width:0.5;" x1="1039.46" x2="1134.5381" y1="159.0469" y2="159.0469"/><line style="stroke:#181818;stroke-width:0.5;" x1="1039.46" x2="1134.5381" y1="167.0469" y2="167.0469"/></g><!--class SpecifiedGrid--><g class="entity" data-entity="SpecifiedGrid" data-source-line="47" data-uid="ent0012" id="entity_SpecifiedGrid"><rect fill="#F1F1F1" height="48" rx="2.5" ry="2.5" style="stroke:#181818;stroke-width:0.5;" width="125.6729" x="1157.16" y="357.2669"/><ellipse cx="1172.16" cy="373.2669" fill="#ADD1B2" rx="11" ry="11" style="stroke:#181818;stroke-width:1;"/><path d="M1175.1288,378.9075 Q1174.5506,379.2044 1173.91,379.345 Q1173.2694,379.5012 1172.5663,379.5012 Q1170.0663,379.5012 1168.7381,377.8606 Q1167.4256,376.2044 1167.4256,373.0794 Q1167.4256,369.9544 1168.7381,368.2981 Q1170.0663,366.6419 1172.5663,366.6419 Q1173.2694,366.6419 1173.91,366.7981 Q1174.5663,366.9544 1175.1288,367.2512 L1175.1288,369.97 Q1174.5038,369.3919 1173.91,369.1262 Q1173.3163,368.845 1172.6913,368.845 Q1171.3475,368.845 1170.66,369.9231 Q1169.9725,370.9856 1169.9725,373.0794 Q1169.9725,375.1731 1170.66,376.2512 Q1171.3475,377.3137 1172.6913,377.3137 Q1173.3163,377.3137 1173.91,377.0481 Q1174.5038,376.7669 1175.1288,376.1887 L1175.1288,378.9075 Z " fill="#000000"/><text fill="#000000" font-family="sans-serif" font-size="14" lengthAdjust="spacing" textLength="93.6729" x="1186.16" y="378.1136">SpecifiedGrid</text><line style="stroke:#181818;stroke-width:0.5;" x1="1158.16" x2="1281.8329" y1="389.2669" y2="389.2669"/><line style="stroke:#181818;stroke-width:0.5;" x1="1158.16" x2="1281.8329" y1="397.2669" y2="397.2669"/></g><!--class WithPandaGridScan--><g class="entity" data-entity="WithPandaGridScan" data-source-line="49" data-uid="ent0013" id="entity_WithPandaGridScan"><rect fill="#F1F1F1" height="64.2969" rx="2.5" ry="2.5" style="stroke:#181818;stroke-width:0.5;" width="240.5664" x="1857.72" y="118.8969"/><ellipse cx="1904.3172" cy="134.8969" fill="#ADD1B2" rx="11" ry="11" style="stroke:#181818;stroke-width:1;"/><path d="M1907.2859,140.5375 Q1906.7078,140.8344 1906.0672,140.975 Q1905.4265,141.1312 1904.7234,141.1312 Q1902.2234,141.1312 1900.8953,139.4906 Q1899.5828,137.8344 1899.5828,134.7094 Q1899.5828,131.5844 1900.8953,129.9281 Q1902.2234,128.2719 1904.7234,128.2719 Q1905.4265,128.2719 1906.0672,128.4281 Q1906.7234,128.5844 1907.2859,128.8812 L1907.2859,131.6 Q1906.6609,131.0219 1906.0672,130.7562 Q1905.4734,130.475 1904.8484,130.475 Q1903.5047,130.475 1902.8172,131.5531 Q1902.1297,132.6156 1902.1297,134.7094 Q1902.1297,136.8031 1902.8172,137.8812 Q1903.5047,138.9437 1904.8484,138.9437 Q1905.4734,138.9437 1906.0672,138.6781 Q1906.6609,138.3969 1907.2859,137.8187 L1907.2859,140.5375 Z " fill="#000000"/><text fill="#000000" font-family="sans-serif" font-size="14" lengthAdjust="spacing" textLength="138.8721" x="1924.8172" y="139.7436">WithPandaGridScan</text><line style="stroke:#181818;stroke-width:0.5;" x1="1858.72" x2="2097.2864" y1="150.8969" y2="150.8969"/><text fill="#000000" font-family="sans-serif" font-size="14" lengthAdjust="spacing" textLength="228.5664" x="1863.72" y="167.892">float panda_runup_distance_mm</text><line style="stroke:#181818;stroke-width:0.5;" x1="1858.72" x2="2097.2864" y1="175.1937" y2="175.1937"/></g><!--class WithOptionalEnergyChange--><g class="entity" data-entity="WithOptionalEnergyChange" data-source-line="52" data-uid="ent0014" id="entity_WithOptionalEnergyChange"><rect fill="#F1F1F1" height="64.2969" rx="2.5" ry="2.5" style="stroke:#181818;stroke-width:0.5;" width="235.4463" x="190.28" y="118.8969"/><ellipse cx="209.4645" cy="134.8969" fill="#ADD1B2" rx="11" ry="11" style="stroke:#181818;stroke-width:1;"/><path d="M212.4332,140.5375 Q211.8551,140.8344 211.2145,140.975 Q210.5738,141.1312 209.8707,141.1312 Q207.3707,141.1312 206.0426,139.4906 Q204.7301,137.8344 204.7301,134.7094 Q204.7301,131.5844 206.0426,129.9281 Q207.3707,128.2719 209.8707,128.2719 Q210.5738,128.2719 211.2145,128.4281 Q211.8707,128.5844 212.4332,128.8812 L212.4332,131.6 Q211.8082,131.0219 211.2145,130.7562 Q210.6207,130.475 209.9957,130.475 Q208.652,130.475 207.9645,131.5531 Q207.277,132.6156 207.277,134.7094 Q207.277,136.8031 207.9645,137.8812 Q208.652,138.9437 209.9957,138.9437 Q210.6207,138.9437 211.2145,138.6781 Q211.8082,138.3969 212.4332,137.8187 L212.4332,140.5375 Z " fill="#000000"/><text fill="#000000" font-family="sans-serif" font-size="14" lengthAdjust="spacing" textLength="194.1475" x="224.3944" y="139.7436">WithOptionalEnergyChange</text><line style="stroke:#181818;stroke-width:0.5;" x1="191.28" x2="424.7263" y1="150.8969" y2="150.8969"/><text fill="#000000" font-family="sans-serif" font-size="14" lengthAdjust="spacing" textLength="223.4463" x="196.28" y="167.892">float | None demand_energy_ev</text><line style="stroke:#181818;stroke-width:0.5;" x1="191.28" x2="424.7263" y1="175.1937" y2="175.1937"/></g><!--class MxBlueskyParameters--><g class="entity" data-entity="MxBlueskyParameters" data-source-line="57" data-uid="ent0015" id="entity_MxBlueskyParameters"><rect fill="#F1F1F1" height="64.2969" rx="2.5" ry="2.5" style="stroke:#181818;stroke-width:0.5;" width="317.4639" x="2652.27" y="118.8969"/><ellipse cx="2728.8564" cy="134.8969" fill="#ADD1B2" rx="11" ry="11" style="stroke:#181818;stroke-width:1;"/><path d="M2731.8252,140.5375 Q2731.2471,140.8344 2730.6064,140.975 Q2729.9658,141.1312 2729.2627,141.1312 Q2726.7627,141.1312 2725.4346,139.4906 Q2724.1221,137.8344 2724.1221,134.7094 Q2724.1221,131.5844 2725.4346,129.9281 Q2726.7627,128.2719 2729.2627,128.2719 Q2729.9658,128.2719 2730.6064,128.4281 Q2731.2627,128.5844 2731.8252,128.8812 L2731.8252,131.6 Q2731.2002,131.0219 2730.6064,130.7562 Q2730.0127,130.475 2729.3877,130.475 Q2728.0439,130.475 2727.3564,131.5531 Q2726.6689,132.6156 2726.6689,134.7094 Q2726.6689,136.8031 2727.3564,137.8812 Q2728.0439,138.9437 2729.3877,138.9437 Q2730.0127,138.9437 2730.6064,138.6781 Q2731.2002,138.3969 2731.8252,137.8187 L2731.8252,140.5375 Z " fill="#000000"/><text fill="#000000" font-family="sans-serif" font-size="14" lengthAdjust="spacing" textLength="155.791" x="2749.3564" y="139.7436">MxBlueskyParameters</text><line style="stroke:#181818;stroke-width:0.5;" x1="2653.27" x2="2968.7339" y1="150.8969" y2="150.8969"/><text fill="#000000" font-family="sans-serif" font-size="14" lengthAdjust="spacing" textLength="305.4639" x="2658.27" y="167.892">SemanticVersion parameter_model_version</text><line style="stroke:#181818;stroke-width:0.5;" x1="2653.27" x2="2968.7339" y1="175.1937" y2="175.1937"/></g><!--class SpecifiedThreeDGridScan--><g class="entity" data-entity="SpecifiedThreeDGridScan" data-source-line="60" data-uid="ent0016" id="entity_SpecifiedThreeDGridScan"><rect fill="#F1F1F1" height="227.2656" rx="2.5" ry="2.5" style="stroke:#181818;stroke-width:0.5;" width="210.8965" x="2639.55" y="860.5369"/><ellipse cx="2654.55" cy="876.5369" fill="#ADD1B2" rx="11" ry="11" style="stroke:#181818;stroke-width:1;"/><path d="M2657.5188,882.1775 Q2656.9406,882.4744 2656.3,882.615 Q2655.6594,882.7713 2654.9563,882.7713 Q2652.4563,882.7713 2651.1281,881.1306 Q2649.8156,879.4744 2649.8156,876.3494 Q2649.8156,873.2244 2651.1281,871.5681 Q2652.4563,869.9119 2654.9563,869.9119 Q2655.6594,869.9119 2656.3,870.0681 Q2656.9563,870.2244 2657.5188,870.5213 L2657.5188,873.24 Q2656.8938,872.6619 2656.3,872.3963 Q2655.7063,872.115 2655.0813,872.115 Q2653.7375,872.115 2653.05,873.1931 Q2652.3625,874.2556 2652.3625,876.3494 Q2652.3625,878.4431 2653.05,879.5213 Q2653.7375,880.5838 2655.0813,880.5838 Q2655.7063,880.5838 2656.3,880.3181 Q2656.8938,880.0369 2657.5188,879.4588 L2657.5188,882.1775 Z " fill="#000000"/><text fill="#000000" font-family="sans-serif" font-size="14" lengthAdjust="spacing" textLength="178.8965" x="2668.55" y="881.3836">SpecifiedThreeDGridScan</text><line style="stroke:#181818;stroke-width:0.5;" x1="2640.55" x2="2849.4465" y1="892.5369" y2="892.5369"/><text fill="#000000" font-family="sans-serif" font-size="14" lengthAdjust="spacing" textLength="160.8975" x="2645.55" y="909.532">float grid1_omega_deg</text><text fill="#000000" font-family="sans-serif" font-size="14" lengthAdjust="spacing" textLength="160.8975" x="2645.55" y="925.8289">float grid2_omega_deg</text><text fill="#000000" font-family="sans-serif" font-size="14" lengthAdjust="spacing" textLength="145.127" x="2645.55" y="942.1257">float x_step_size_um</text><text fill="#000000" font-family="sans-serif" font-size="14" lengthAdjust="spacing" textLength="145.127" x="2645.55" y="958.4226">float y_step_size_um</text><text fill="#000000" font-family="sans-serif" font-size="14" lengthAdjust="spacing" textLength="144.1904" x="2645.55" y="974.7195">float z_step_size_um</text><text fill="#000000" font-family="sans-serif" font-size="14" lengthAdjust="spacing" textLength="122.2129" x="2645.55" y="991.0164">float y2_start_um</text><text fill="#000000" font-family="sans-serif" font-size="14" lengthAdjust="spacing" textLength="121.2764" x="2645.55" y="1007.3132">float z2_start_um</text><text fill="#000000" font-family="sans-serif" font-size="14" lengthAdjust="spacing" textLength="75.5645" x="2645.55" y="1023.6101">int x_steps</text><text fill="#000000" font-family="sans-serif" font-size="14" lengthAdjust="spacing" textLength="75.5645" x="2645.55" y="1039.907">int y_steps</text><text fill="#000000" font-family="sans-serif" font-size="14" lengthAdjust="spacing" textLength="74.6279" x="2645.55" y="1056.2039">int z_steps</text><text fill="#000000" font-family="sans-serif" font-size="14" lengthAdjust="spacing" textLength="154.4102" x="2645.55" y="1072.5007">bool _set_stub_offsets</text><line style="stroke:#181818;stroke-width:0.5;" x1="2640.55" x2="2849.4465" y1="1079.8025" y2="1079.8025"/></g><!--class DiffractionExperiment--><g class="entity" data-entity="DiffractionExperiment" data-source-line="73" data-uid="ent0017" id="entity_DiffractionExperiment"><rect fill="#F1F1F1" height="210.9688" rx="2.5" ry="2.5" style="stroke:#181818;stroke-width:0.5;" width="332.332" x="2639.83" y="275.7869"/><ellipse cx="2724.6127" cy="291.7869" fill="#ADD1B2" rx="11" ry="11" style="stroke:#181818;stroke-width:1;"/><path d="M2727.5815,297.4275 Q2727.0033,297.7244 2726.3627,297.865 Q2725.7221,298.0213 2725.019,298.0213 Q2722.519,298.0213 2721.1908,296.3806 Q2719.8783,294.7244 2719.8783,291.5994 Q2719.8783,288.4744 2721.1908,286.8181 Q2722.519,285.1619 2725.019,285.1619 Q2725.7221,285.1619 2726.3627,285.3181 Q2727.019,285.4744 2727.5815,285.7713 L2727.5815,288.49 Q2726.9565,287.9119 2726.3627,287.6463 Q2725.769,287.365 2725.144,287.365 Q2723.8002,287.365 2723.1127,288.4431 Q2722.4252,289.5056 2722.4252,291.5994 Q2722.4252,293.6931 2723.1127,294.7713 Q2723.8002,295.8338 2725.144,295.8338 Q2725.769,295.8338 2726.3627,295.5681 Q2726.9565,295.2869 2727.5815,294.7088 L2727.5815,297.4275 Z " fill="#000000"/><text fill="#000000" font-family="sans-serif" font-size="14" lengthAdjust="spacing" textLength="154.2666" x="2745.1127" y="296.6336">DiffractionExperiment</text><line style="stroke:#181818;stroke-width:0.5;" x1="2640.83" x2="2971.162" y1="307.7869" y2="307.7869"/><text fill="#000000" font-family="sans-serif" font-size="14" lengthAdjust="spacing" textLength="91.0137" x="2645.83" y="324.782">str file_name</text><text fill="#000000" font-family="sans-serif" font-size="14" lengthAdjust="spacing" textLength="153.7129" x="2645.83" y="341.0789">float exposure_time_s</text><text fill="#000000" font-family="sans-serif" font-size="14" lengthAdjust="spacing" textLength="89.5029" x="2645.83" y="357.3757">str comment</text><text fill="#000000" font-family="sans-serif" font-size="14" lengthAdjust="spacing" textLength="186.915" x="2645.83" y="373.6726">TriggerMode trigger_mode</text><text fill="#000000" font-family="sans-serif" font-size="14" lengthAdjust="spacing" textLength="157.9854" x="2645.83" y="389.9695">int | None run_number</text><text fill="#000000" font-family="sans-serif" font-size="14" lengthAdjust="spacing" textLength="282.3516" x="2645.83" y="406.2664">ApertureValue | None selected_aperture</text><text fill="#000000" font-family="sans-serif" font-size="14" lengthAdjust="spacing" textLength="159.2979" x="2645.83" y="422.5632">float transmission_frac</text><text fill="#000000" font-family="sans-serif" font-size="14" lengthAdjust="spacing" textLength="320.332" x="2645.83" y="438.8601">IspybExperimentType ispyb_experiment_type</text><text fill="#000000" font-family="sans-serif" font-size="14" lengthAdjust="spacing" textLength="146.1113" x="2645.83" y="455.157">str storage_directory</text><text fill="#000000" font-family="sans-serif" font-size="14" lengthAdjust="spacing" textLength="131.0518" x="2645.83" y="471.4539">bool use_roi_mode</text><line style="stroke:#181818;stroke-width:0.5;" x1="2640.83" x2="2971.162" y1="478.7556" y2="478.7556"/></g><!--class DiffractionExperimentWithSample--><g class="entity" data-entity="DiffractionExperimentWithSample" data-source-line="85" data-uid="ent0018" id="entity_DiffractionExperimentWithSample"><rect fill="#F1F1F1" height="48" rx="2.5" ry="2.5" style="stroke:#181818;stroke-width:0.5;" width="270.8545" x="2670.57" y="546.7569"/><ellipse cx="2685.57" cy="562.7569" fill="#ADD1B2" rx="11" ry="11" style="stroke:#181818;stroke-width:1;"/><path d="M2688.5388,568.3975 Q2687.9606,568.6944 2687.32,568.835 Q2686.6794,568.9912 2685.9763,568.9912 Q2683.4763,568.9912 2682.1481,567.3506 Q2680.8356,565.6944 2680.8356,562.5694 Q2680.8356,559.4444 2682.1481,557.7881 Q2683.4763,556.1319 2685.9763,556.1319 Q2686.6794,556.1319 2687.32,556.2881 Q2687.9763,556.4444 2688.5388,556.7412 L2688.5388,559.46 Q2687.9138,558.8819 2687.32,558.6162 Q2686.7263,558.335 2686.1013,558.335 Q2684.7575,558.335 2684.07,559.4131 Q2683.3825,560.4756 2683.3825,562.5694 Q2683.3825,564.6631 2684.07,565.7412 Q2684.7575,566.8037 2686.1013,566.8037 Q2686.7263,566.8037 2687.32,566.5381 Q2687.9138,566.2569 2688.5388,565.6787 L2688.5388,568.3975 Z " fill="#000000"/><text fill="#000000" font-family="sans-serif" font-size="14" lengthAdjust="spacing" textLength="238.8545" x="2699.57" y="567.6036">DiffractionExperimentWithSample</text><line style="stroke:#181818;stroke-width:0.5;" x1="2671.57" x2="2940.4245" y1="578.7569" y2="578.7569"/><line style="stroke:#181818;stroke-width:0.5;" x1="2671.57" x2="2940.4245" y1="586.7569" y2="586.7569"/></g><!--class GridCommon--><g class="entity" data-entity="GridCommon" data-source-line="87" data-uid="ent0019" id="entity_GridCommon"><rect fill="#F1F1F1" height="145.7813" rx="2.5" ry="2.5" style="stroke:#181818;stroke-width:0.5;" width="332.332" x="2639.83" y="654.7569"/><ellipse cx="2755.5282" cy="670.7569" fill="#ADD1B2" rx="11" ry="11" style="stroke:#181818;stroke-width:1;"/><path d="M2758.497,676.3975 Q2757.9189,676.6944 2757.2782,676.835 Q2756.6376,676.9912 2755.9345,676.9912 Q2753.4345,676.9912 2752.1064,675.3506 Q2750.7939,673.6944 2750.7939,670.5694 Q2750.7939,667.4444 2752.1064,665.7881 Q2753.4345,664.1319 2755.9345,664.1319 Q2756.6376,664.1319 2757.2782,664.2881 Q2757.9345,664.4444 2758.497,664.7412 L2758.497,667.46 Q2757.872,666.8819 2757.2782,666.6162 Q2756.6845,666.335 2756.0595,666.335 Q2754.7157,666.335 2754.0282,667.4131 Q2753.3407,668.4756 2753.3407,670.5694 Q2753.3407,672.6631 2754.0282,673.7412 Q2754.7157,674.8037 2756.0595,674.8037 Q2756.6845,674.8037 2757.2782,674.5381 Q2757.872,674.2569 2758.497,673.6787 L2758.497,676.3975 Z " fill="#000000"/><text fill="#000000" font-family="sans-serif" font-size="14" lengthAdjust="spacing" textLength="92.4355" x="2776.0282" y="675.6036">GridCommon</text><line style="stroke:#181818;stroke-width:0.5;" x1="2640.83" x2="2971.162" y1="686.7569" y2="686.7569"/><text fill="#000000" font-family="sans-serif" font-size="14" lengthAdjust="spacing" textLength="125.2959" x="2645.83" y="703.752">float box_size_um</text><text fill="#000000" font-family="sans-serif" font-size="14" lengthAdjust="spacing" textLength="138.4209" x="2645.83" y="720.0489">float grid_width_um</text><text fill="#000000" font-family="sans-serif" font-size="14" lengthAdjust="spacing" textLength="153.7129" x="2645.83" y="736.3457">float exposure_time_s</text><text fill="#000000" font-family="sans-serif" font-size="14" lengthAdjust="spacing" textLength="320.332" x="2645.83" y="752.6426">IspybExperimentType ispyb_experiment_type</text><text fill="#000000" font-family="sans-serif" font-size="14" lengthAdjust="spacing" textLength="282.3516" x="2645.83" y="768.9395">ApertureValue | None selected_aperture</text><text fill="#000000" font-family="sans-serif" font-size="14" lengthAdjust="spacing" textLength="130.498" x="2645.83" y="785.2364">float tip_offset_um</text><line style="stroke:#181818;stroke-width:0.5;" x1="2640.83" x2="2971.162" y1="792.5381" y2="792.5381"/></g><!--class RotationScanPerSweep--><g class="entity" data-entity="RotationScanPerSweep" data-source-line="98" data-uid="ent0021" id="entity_RotationScanPerSweep"><rect fill="#F1F1F1" height="129.4844" rx="2.5" ry="2.5" style="stroke:#181818;stroke-width:0.5;" width="263.0498" x="4155.48" y="909.4269"/><ellipse cx="4201.5166" cy="925.4269" fill="#ADD1B2" rx="11" ry="11" style="stroke:#181818;stroke-width:1;"/><path d="M4204.4854,931.0675 Q4203.9072,931.3644 4203.2666,931.505 Q4202.626,931.6612 4201.9229,931.6612 Q4199.4229,931.6612 4198.0947,930.0206 Q4196.7822,928.3644 4196.7822,925.2394 Q4196.7822,922.1144 4198.0947,920.4581 Q4199.4229,918.8019 4201.9229,918.8019 Q4202.626,918.8019 4203.2666,918.9581 Q4203.9229,919.1144 4204.4854,919.4112 L4204.4854,922.13 Q4203.8604,921.5519 4203.2666,921.2862 Q4202.6729,921.005 4202.0479,921.005 Q4200.7041,921.005 4200.0166,922.0831 Q4199.3291,923.1456 4199.3291,925.2394 Q4199.3291,927.3331 4200.0166,928.4112 Q4200.7041,929.4737 4202.0479,929.4737 Q4202.6729,929.4737 4203.2666,929.2081 Q4203.8604,928.9269 4204.4854,928.3487 L4204.4854,931.0675 Z " fill="#000000"/><text fill="#000000" font-family="sans-serif" font-size="14" lengthAdjust="spacing" textLength="162.4766" x="4222.0166" y="930.2736">RotationScanPerSweep</text><line style="stroke:#181818;stroke-width:0.5;" x1="4156.48" x2="4417.5298" y1="941.4269" y2="941.4269"/><text fill="#000000" font-family="sans-serif" font-size="14" lengthAdjust="spacing" textLength="157.1787" x="4161.48" y="958.422">float omega_start_deg</text><text fill="#000000" font-family="sans-serif" font-size="14" lengthAdjust="spacing" textLength="182.9297" x="4161.48" y="974.7189">RotationAxis rotation_axis</text><text fill="#000000" font-family="sans-serif" font-size="14" lengthAdjust="spacing" textLength="147.3213" x="4161.48" y="991.0157">float scan_width_deg</text><text fill="#000000" font-family="sans-serif" font-size="14" lengthAdjust="spacing" textLength="251.0498" x="4161.48" y="1007.3126">RotationDirection rotation_direction</text><text fill="#000000" font-family="sans-serif" font-size="14" lengthAdjust="spacing" textLength="169.1279" x="4161.48" y="1023.6095">int nexus_vds_start_img</text><line style="stroke:#181818;stroke-width:0.5;" x1="4156.48" x2="4417.5298" y1="1030.9112" y2="1030.9112"/></g><!--class GridCommonWithHyperionDetectorParams--><g class="entity" data-entity="GridCommonWithHyperionDetectorParams" data-source-line="105" data-uid="ent0022" id="entity_GridCommonWithHyperionDetectorParams"><rect fill="#F1F1F1" height="48" rx="2.5" ry="2.5" style="stroke:#181818;stroke-width:0.5;" width="333.2188" x="3036.39" y="950.1669"/><ellipse cx="3051.39" cy="966.1669" fill="#ADD1B2" rx="11" ry="11" style="stroke:#181818;stroke-width:1;"/><path d="M3054.3588,971.8075 Q3053.7806,972.1044 3053.14,972.245 Q3052.4994,972.4012 3051.7963,972.4012 Q3049.2963,972.4012 3047.9681,970.7606 Q3046.6556,969.1044 3046.6556,965.9794 Q3046.6556,962.8544 3047.9681,961.1981 Q3049.2963,959.5419 3051.7963,959.5419 Q3052.4994,959.5419 3053.14,959.6981 Q3053.7963,959.8544 3054.3588,960.1512 L3054.3588,962.87 Q3053.7338,962.2919 3053.14,962.0262 Q3052.5463,961.745 3051.9213,961.745 Q3050.5775,961.745 3049.89,962.8231 Q3049.2025,963.8856 3049.2025,965.9794 Q3049.2025,968.0731 3049.89,969.1512 Q3050.5775,970.2137 3051.9213,970.2137 Q3052.5463,970.2137 3053.14,969.9481 Q3053.7338,969.6669 3054.3588,969.0887 L3054.3588,971.8075 Z " fill="#000000"/><text fill="#000000" font-family="sans-serif" font-size="14" lengthAdjust="spacing" textLength="301.2188" x="3065.39" y="971.0136">GridCommonWithHyperionDetectorParams</text><line style="stroke:#181818;stroke-width:0.5;" x1="3037.39" x2="3368.6088" y1="982.1669" y2="982.1669"/><line style="stroke:#181818;stroke-width:0.5;" x1="3037.39" x2="3368.6088" y1="990.1669" y2="990.1669"/></g><!--class GridScanWithEdgeDetect--><g class="entity" data-entity="GridScanWithEdgeDetect" data-source-line="107" data-uid="ent0023" id="entity_GridScanWithEdgeDetect"><rect fill="#F1F1F1" height="48" rx="2.5" ry="2.5" style="stroke:#181818;stroke-width:0.5;" width="209.4268" x="3102.29" y="1155.9469"/><ellipse cx="3117.29" cy="1171.9469" fill="#ADD1B2" rx="11" ry="11" style="stroke:#181818;stroke-width:1;"/><path d="M3120.2588,1177.5875 Q3119.6806,1177.8844 3119.04,1178.025 Q3118.3994,1178.1812 3117.6963,1178.1812 Q3115.1963,1178.1812 3113.8681,1176.5406 Q3112.5556,1174.8844 3112.5556,1171.7594 Q3112.5556,1168.6344 3113.8681,1166.9781 Q3115.1963,1165.3219 3117.6963,1165.3219 Q3118.3994,1165.3219 3119.04,1165.4781 Q3119.6963,1165.6344 3120.2588,1165.9312 L3120.2588,1168.65 Q3119.6338,1168.0719 3119.04,1167.8062 Q3118.4463,1167.525 3117.8213,1167.525 Q3116.4775,1167.525 3115.79,1168.6031 Q3115.1025,1169.6656 3115.1025,1171.7594 Q3115.1025,1173.8531 3115.79,1174.9312 Q3116.4775,1175.9937 3117.8213,1175.9937 Q3118.4463,1175.9937 3119.04,1175.7281 Q3119.6338,1175.4469 3120.2588,1174.8687 L3120.2588,1177.5875 Z " fill="#000000"/><text fill="#000000" font-family="sans-serif" font-size="14" lengthAdjust="spacing" textLength="177.4268" x="3131.29" y="1176.7936">GridScanWithEdgeDetect</text><line style="stroke:#181818;stroke-width:0.5;" x1="3103.29" x2="3310.7168" y1="1187.9469" y2="1187.9469"/><line style="stroke:#181818;stroke-width:0.5;" x1="3103.29" x2="3310.7168" y1="1195.9469" y2="1195.9469"/></g><!--class RotationExperiment--><g class="entity" data-entity="RotationExperiment" data-source-line="109" data-uid="ent0024" id="entity_RotationExperiment"><rect fill="#F1F1F1" height="96.8906" rx="2.5" ry="2.5" style="stroke:#181818;stroke-width:0.5;" width="332.332" x="3441.83" y="925.7269"/><ellipse cx="3533.7118" cy="941.7269" fill="#ADD1B2" rx="11" ry="11" style="stroke:#181818;stroke-width:1;"/><path d="M3536.6806,947.3675 Q3536.1025,947.6644 3535.4618,947.805 Q3534.8212,947.9613 3534.1181,947.9613 Q3531.6181,947.9613 3530.29,946.3206 Q3528.9775,944.6644 3528.9775,941.5394 Q3528.9775,938.4144 3530.29,936.7581 Q3531.6181,935.1019 3534.1181,935.1019 Q3534.8212,935.1019 3535.4618,935.2581 Q3536.1181,935.4144 3536.6806,935.7113 L3536.6806,938.43 Q3536.0556,937.8519 3535.4618,937.5863 Q3534.8681,937.305 3534.2431,937.305 Q3532.8993,937.305 3532.2118,938.3831 Q3531.5243,939.4456 3531.5243,941.5394 Q3531.5243,943.6331 3532.2118,944.7113 Q3532.8993,945.7738 3534.2431,945.7738 Q3534.8681,945.7738 3535.4618,945.5081 Q3536.0556,945.2269 3536.6806,944.6488 L3536.6806,947.3675 Z " fill="#000000"/><text fill="#000000" font-family="sans-serif" font-size="14" lengthAdjust="spacing" textLength="140.0684" x="3554.2118" y="946.5736">RotationExperiment</text><line style="stroke:#181818;stroke-width:0.5;" x1="3442.83" x2="3773.162" y1="957.7269" y2="957.7269"/><text fill="#000000" font-family="sans-serif" font-size="14" lengthAdjust="spacing" textLength="202.8018" x="3447.83" y="974.722">float shutter_opening_time_s</text><text fill="#000000" font-family="sans-serif" font-size="14" lengthAdjust="spacing" textLength="202.9385" x="3447.83" y="991.0189">float rotation_increment_deg</text><text fill="#000000" font-family="sans-serif" font-size="14" lengthAdjust="spacing" textLength="320.332" x="3447.83" y="1007.3157">IspybExperimentType ispyb_experiment_type</text><line style="stroke:#181818;stroke-width:0.5;" x1="3442.83" x2="3773.162" y1="1014.6175" y2="1014.6175"/></g><!--class LoadCentreCollect--><g class="entity" data-entity="LoadCentreCollect" data-source-line="114" data-uid="ent0025" id="entity_LoadCentreCollect"><rect fill="#F1F1F1" height="80.5938" rx="2.5" ry="2.5" style="stroke:#181818;stroke-width:0.5;" width="338.6211" x="4453.69" y="933.8669"/><ellipse cx="4554.315" cy="949.8669" fill="#ADD1B2" rx="11" ry="11" style="stroke:#181818;stroke-width:1;"/><path d="M4557.2838,955.5075 Q4556.7056,955.8044 4556.065,955.945 Q4555.4244,956.1012 4554.7213,956.1012 Q4552.2213,956.1012 4550.8931,954.4606 Q4549.5806,952.8044 4549.5806,949.6794 Q4549.5806,946.5544 4550.8931,944.8981 Q4552.2213,943.2419 4554.7213,943.2419 Q4555.4244,943.2419 4556.065,943.3981 Q4556.7213,943.5544 4557.2838,943.8512 L4557.2838,946.57 Q4556.6588,945.9919 4556.065,945.7262 Q4555.4713,945.445 4554.8463,945.445 Q4553.5025,945.445 4552.815,946.5231 Q4552.1275,947.5856 4552.1275,949.6794 Q4552.1275,951.7731 4552.815,952.8512 Q4553.5025,953.9137 4554.8463,953.9137 Q4555.4713,953.9137 4556.065,953.6481 Q4556.6588,953.3669 4557.2838,952.7887 L4557.2838,955.5075 Z " fill="#000000"/><text fill="#000000" font-family="sans-serif" font-size="14" lengthAdjust="spacing" textLength="128.8711" x="4574.815" y="954.7136">LoadCentreCollect</text><line style="stroke:#181818;stroke-width:0.5;" x1="4454.69" x2="4791.3111" y1="965.8669" y2="965.8669"/><text fill="#000000" font-family="sans-serif" font-size="14" lengthAdjust="spacing" textLength="326.6211" x="4459.69" y="982.862">RobotLoadThenCentre robot_load_then_centre</text><text fill="#000000" font-family="sans-serif" font-size="14" lengthAdjust="spacing" textLength="269.3154" x="4459.69" y="999.1589">MultiRotationScan multi_rotation_scan</text><line style="stroke:#181818;stroke-width:0.5;" x1="4454.69" x2="4791.3111" y1="1006.4606" y2="1006.4606"/></g><!--class PinTipCentreThenXrayCentre--><g class="entity" data-entity="PinTipCentreThenXrayCentre" data-source-line="118" data-uid="ent0026" id="entity_PinTipCentreThenXrayCentre"><rect fill="#F1F1F1" height="64.2969" rx="2.5" ry="2.5" style="stroke:#181818;stroke-width:0.5;" width="235.8955" x="3352.05" y="1147.7969"/><ellipse cx="3367.05" cy="1163.7969" fill="#ADD1B2" rx="11" ry="11" style="stroke:#181818;stroke-width:1;"/><path d="M3370.0188,1169.4375 Q3369.4406,1169.7344 3368.8,1169.875 Q3368.1594,1170.0313 3367.4563,1170.0313 Q3364.9563,1170.0313 3363.6281,1168.3906 Q3362.3156,1166.7344 3362.3156,1163.6094 Q3362.3156,1160.4844 3363.6281,1158.8281 Q3364.9563,1157.1719 3367.4563,1157.1719 Q3368.1594,1157.1719 3368.8,1157.3281 Q3369.4563,1157.4844 3370.0188,1157.7813 L3370.0188,1160.5 Q3369.3938,1159.9219 3368.8,1159.6563 Q3368.2063,1159.375 3367.5813,1159.375 Q3366.2375,1159.375 3365.55,1160.4531 Q3364.8625,1161.5156 3364.8625,1163.6094 Q3364.8625,1165.7031 3365.55,1166.7813 Q3366.2375,1167.8438 3367.5813,1167.8438 Q3368.2063,1167.8438 3368.8,1167.5781 Q3369.3938,1167.2969 3370.0188,1166.7188 L3370.0188,1169.4375 Z " fill="#000000"/><text fill="#000000" font-family="sans-serif" font-size="14" lengthAdjust="spacing" textLength="203.8955" x="3381.05" y="1168.6436">PinTipCentreThenXrayCentre</text><line style="stroke:#181818;stroke-width:0.5;" x1="3353.05" x2="3586.9455" y1="1179.7969" y2="1179.7969"/><text fill="#000000" font-family="sans-serif" font-size="14" lengthAdjust="spacing" textLength="130.498" x="3358.05" y="1196.792">float tip_offset_um</text><line style="stroke:#181818;stroke-width:0.5;" x1="3353.05" x2="3586.9455" y1="1204.0938" y2="1204.0938"/></g><!--class WithHyperionUDCFeatures--><g class="entity" data-entity="WithHyperionUDCFeatures" data-source-line="121" data-uid="ent0027" id="entity_WithHyperionUDCFeatures"><rect fill="#F1F1F1" height="64.2969" rx="2.5" ry="2.5" style="stroke:#181818;stroke-width:0.5;" width="228.6719" x="4004.66" y="695.4969"/><ellipse cx="4023.7583" cy="711.4969" fill="#ADD1B2" rx="11" ry="11" style="stroke:#181818;stroke-width:1;"/><path d="M4026.7271,717.1375 Q4026.149,717.4344 4025.5083,717.575 Q4024.8677,717.7312 4024.1646,717.7312 Q4021.6646,717.7312 4020.3365,716.0906 Q4019.024,714.4344 4019.024,711.3094 Q4019.024,708.1844 4020.3365,706.5281 Q4021.6646,704.8719 4024.1646,704.8719 Q4024.8677,704.8719 4025.5083,705.0281 Q4026.1646,705.1844 4026.7271,705.4812 L4026.7271,708.2 Q4026.1021,707.6219 4025.5083,707.3562 Q4024.9146,707.075 4024.2896,707.075 Q4022.9458,707.075 4022.2583,708.1531 Q4021.5708,709.2156 4021.5708,711.3094 Q4021.5708,713.4031 4022.2583,714.4812 Q4022.9458,715.5437 4024.2896,715.5437 Q4024.9146,715.5437 4025.5083,715.2781 Q4026.1021,714.9969 4026.7271,714.4187 L4026.7271,717.1375 Z " fill="#000000"/><text fill="#000000" font-family="sans-serif" font-size="14" lengthAdjust="spacing" textLength="187.5645" x="4038.6691" y="716.3436">WithHyperionUDCFeatures</text><line style="stroke:#181818;stroke-width:0.5;" x1="4005.66" x2="4232.3319" y1="727.4969" y2="727.4969"/><text fill="#000000" font-family="sans-serif" font-size="14" lengthAdjust="spacing" textLength="216.6719" x="4010.66" y="744.492">HyperionFeatureFlags features</text><line style="stroke:#181818;stroke-width:0.5;" x1="4005.66" x2="4232.3319" y1="751.7937" y2="751.7937"/></g><!--class HyperionSpecifiedThreeDGridScan--><g class="entity" data-entity="HyperionSpecifiedThreeDGridScan" data-source-line="124" data-uid="ent0028" id="entity_HyperionSpecifiedThreeDGridScan"><rect fill="#F1F1F1" height="48" rx="2.5" ry="2.5" style="stroke:#181818;stroke-width:0.5;" width="274.293" x="3808.85" y="950.1669"/><ellipse cx="3823.85" cy="966.1669" fill="#ADD1B2" rx="11" ry="11" style="stroke:#181818;stroke-width:1;"/><path d="M3826.8188,971.8075 Q3826.2406,972.1044 3825.6,972.245 Q3824.9594,972.4012 3824.2563,972.4012 Q3821.7563,972.4012 3820.4281,970.7606 Q3819.1156,969.1044 3819.1156,965.9794 Q3819.1156,962.8544 3820.4281,961.1981 Q3821.7563,959.5419 3824.2563,959.5419 Q3824.9594,959.5419 3825.6,959.6981 Q3826.2563,959.8544 3826.8188,960.1512 L3826.8188,962.87 Q3826.1938,962.2919 3825.6,962.0262 Q3825.0063,961.745 3824.3813,961.745 Q3823.0375,961.745 3822.35,962.8231 Q3821.6625,963.8856 3821.6625,965.9794 Q3821.6625,968.0731 3822.35,969.1512 Q3823.0375,970.2137 3824.3813,970.2137 Q3825.0063,970.2137 3825.6,969.9481 Q3826.1938,969.6669 3826.8188,969.0887 L3826.8188,971.8075 Z " fill="#000000"/><text fill="#000000" font-family="sans-serif" font-size="14" lengthAdjust="spacing" textLength="242.293" x="3837.85" y="971.0136">HyperionSpecifiedThreeDGridScan</text><line style="stroke:#181818;stroke-width:0.5;" x1="3809.85" x2="4082.143" y1="982.1669" y2="982.1669"/><line style="stroke:#181818;stroke-width:0.5;" x1="3809.85" x2="4082.143" y1="990.1669" y2="990.1669"/></g><!--class RotationScan--><g class="entity" data-entity="RotationScan" data-source-line="126" data-uid="ent0029" id="entity_RotationScan"><rect fill="#F1F1F1" height="48" rx="2.5" ry="2.5" style="stroke:#181818;stroke-width:0.5;" width="125.2148" x="4224.39" y="1155.9469"/><ellipse cx="4239.39" cy="1171.9469" fill="#ADD1B2" rx="11" ry="11" style="stroke:#181818;stroke-width:1;"/><path d="M4242.3588,1177.5875 Q4241.7806,1177.8844 4241.14,1178.025 Q4240.4994,1178.1812 4239.7963,1178.1812 Q4237.2963,1178.1812 4235.9681,1176.5406 Q4234.6556,1174.8844 4234.6556,1171.7594 Q4234.6556,1168.6344 4235.9681,1166.9781 Q4237.2963,1165.3219 4239.7963,1165.3219 Q4240.4994,1165.3219 4241.14,1165.4781 Q4241.7963,1165.6344 4242.3588,1165.9312 L4242.3588,1168.65 Q4241.7338,1168.0719 4241.14,1167.8062 Q4240.5463,1167.525 4239.9213,1167.525 Q4238.5775,1167.525 4237.89,1168.6031 Q4237.2025,1169.6656 4237.2025,1171.7594 Q4237.2025,1173.8531 4237.89,1174.9312 Q4238.5775,1175.9937 4239.9213,1175.9937 Q4240.5463,1175.9937 4241.14,1175.7281 Q4241.7338,1175.4469 4242.3588,1174.8687 L4242.3588,1177.5875 Z " fill="#000000"/><text fill="#000000" font-family="sans-serif" font-size="14" lengthAdjust="spacing" textLength="93.2148" x="4253.39" y="1176.7936">RotationScan</text><line style="stroke:#181818;stroke-width:0.5;" x1="4225.39" x2="4348.6048" y1="1187.9469" y2="1187.9469"/><line style="stroke:#181818;stroke-width:0.5;" x1="4225.39" x2="4348.6048" y1="1195.9469" y2="1195.9469"/></g><!--class MultiRotationScan--><g class="entity" data-entity="MultiRotationScan" data-source-line="128" data-uid="ent0030" id="entity_MultiRotationScan"><rect fill="#F1F1F1" height="64.2969" rx="2.5" ry="2.5" style="stroke:#181818;stroke-width:0.5;" width="540.001" x="3640" y="1147.7969"/><ellipse cx="3842.0327" cy="1163.7969" fill="#ADD1B2" rx="11" ry="11" style="stroke:#181818;stroke-width:1;"/><path d="M3845.0015,1169.4375 Q3844.4233,1169.7344 3843.7827,1169.875 Q3843.1421,1170.0313 3842.439,1170.0313 Q3839.939,1170.0313 3838.6108,1168.3906 Q3837.2983,1166.7344 3837.2983,1163.6094 Q3837.2983,1160.4844 3838.6108,1158.8281 Q3839.939,1157.1719 3842.439,1157.1719 Q3843.1421,1157.1719 3843.7827,1157.3281 Q3844.439,1157.4844 3845.0015,1157.7813 L3845.0015,1160.5 Q3844.3765,1159.9219 3843.7827,1159.6563 Q3843.189,1159.375 3842.564,1159.375 Q3841.2202,1159.375 3840.5327,1160.4531 Q3839.8452,1161.5156 3839.8452,1163.6094 Q3839.8452,1165.7031 3840.5327,1166.7813 Q3841.2202,1167.8438 3842.564,1167.8438 Q3843.189,1167.8438 3843.7827,1167.5781 Q3844.3765,1167.2969 3845.0015,1166.7188 L3845.0015,1169.4375 Z " fill="#000000"/><text fill="#000000" font-family="sans-serif" font-size="14" lengthAdjust="spacing" textLength="127.4355" x="3862.5327" y="1168.6436">MultiRotationScan</text><line style="stroke:#181818;stroke-width:0.5;" x1="3641" x2="4179.001" y1="1179.7969" y2="1179.7969"/><line style="stroke:#181818;stroke-width:0.5;" x1="3641" x2="4179.001" y1="1187.7969" y2="1187.7969"/><text fill="#000000" font-family="sans-serif" font-size="14" lengthAdjust="spacing" textLength="528.001" x="3646" y="1204.792">Annotated[list[RotationScanPerSweep], Len(min_length=1)] rotation_scans</text></g><!--reverse link OptionalGonioAngleStarts to RotationScanPerSweep--><g class="link" data-entity-1="OptionalGonioAngleStarts" data-entity-2="RotationScanPerSweep" data-source-line="132" data-uid="lnk31" id="link_OptionalGonioAngleStarts_RotationScanPerSweep"><path codeLine="132" d="M1013.4035,214.3348 C1021.5335,217.3548 1012.87,213.7269 1021,215.7869 C1444.95,323.0569 2571.47,142.5569 2988,275.7869 C3388.06,403.7469 3384.73,642.7669 3774,800.5369 C3910.94,856.0369 3962.87,808.0669 4101,860.5369 C4133.64,872.9369 4166.98,891.0769 4196.25,909.1969" fill="none" id="OptionalGonioAngleStarts-backto-RotationScanPerSweep" style="stroke:#181818;stroke-width:1;"/><polygon fill="none" points="996.53,208.0669,1011.3142,219.9592,1015.4928,208.7103,996.53,208.0669" style="stroke:#181818;stroke-width:1;"/></g><!--reverse link OptionalXyzStarts to RotationScanPerSweep--><g class="link" data-entity-1="OptionalXyzStarts" data-entity-2="RotationScanPerSweep" data-source-line="133" data-uid="lnk32" id="link_OptionalXyzStarts_RotationScanPerSweep"><path codeLine="133" d="M2305.2425,208.3559 C2317.3025,214.8059 2314.23,212.0069 2327,215.7869 C2512.06,270.5969 3900.64,171.4369 4063,275.7869 C4277.76,413.8069 4293.44,764.2069 4290.21,909.0269" fill="none" id="OptionalXyzStarts-backto-RotationScanPerSweep" style="stroke:#181818;stroke-width:1;"/><polygon fill="none" points="2289.37,199.8669,2302.4128,213.6467,2308.0722,203.0651,2289.37,199.8669" style="stroke:#181818;stroke-width:1;"/></g><!--reverse link MxBlueskyParameters to DiffractionExperiment--><g class="link" data-entity-1="MxBlueskyParameters" data-entity-2="DiffractionExperiment" data-source-line="134" data-uid="lnk33" id="link_MxBlueskyParameters_DiffractionExperiment"><path codeLine="134" d="M2809.9224,201.2925 C2809.3924,225.2825 2809.03,241.8769 2808.3,275.3969" fill="none" id="MxBlueskyParameters-backto-DiffractionExperiment" style="stroke:#181818;stroke-width:1;"/><polygon fill="none" points="2810.32,183.2969,2803.9239,201.16,2815.921,201.425,2810.32,183.2969" style="stroke:#181818;stroke-width:1;"/></g><!--reverse link WithSnapshot to DiffractionExperiment--><g class="link" data-entity-1="WithSnapshot" data-entity-2="DiffractionExperiment" data-source-line="135" data-uid="lnk34" id="link_WithSnapshot_DiffractionExperiment"><path codeLine="135" d="M706.6557,198.3838 C731.0257,208.0338 741.25,210.4669 767,215.7869 C1173.1,299.5869 2234.24,158.6169 2632,275.7869 C2634.45,276.5069 2636.9,277.2669 2639.35,278.0769" fill="none" id="WithSnapshot-backto-DiffractionExperiment" style="stroke:#181818;stroke-width:1;"/><polygon fill="none" points="689.92,191.7569,704.4467,203.9624,708.8647,192.8053,689.92,191.7569" style="stroke:#181818;stroke-width:1;"/></g><!--reverse link WithOptionalEnergyChange to DiffractionExperiment--><g class="link" data-entity-1="WithOptionalEnergyChange" data-entity-2="DiffractionExperiment" data-source-line="136" data-uid="lnk35" id="link_WithOptionalEnergyChange_DiffractionExperiment"><path codeLine="136" d="M377.5843,191.9229 C401.6343,204.4129 414.89,209.0769 443,215.7869 C916.33,328.7469 2164.88,139.3869 2632,275.7869 C2634.45,276.4969 2636.91,277.2569 2639.36,278.0569" fill="none" id="WithOptionalEnergyChange-backto-DiffractionExperiment" style="stroke:#181818;stroke-width:1;"/><polygon fill="none" points="361.61,183.6269,374.8189,197.2476,380.3496,186.5981,361.61,183.6269" style="stroke:#181818;stroke-width:1;"/></g><!--reverse link WithVisit to DiffractionExperiment--><g class="link" data-entity-1="WithVisit" data-entity-2="DiffractionExperiment" data-source-line="137" data-uid="lnk36" id="link_WithVisit_DiffractionExperiment"><path codeLine="137" d="M2586.4259,226.5496 C2612.6959,244.9396 2627.3,255.1669 2656.1,275.3269" fill="none" id="WithVisit-backto-DiffractionExperiment" style="stroke:#181818;stroke-width:1;"/><polygon fill="none" points="2571.68,216.2269,2582.985,231.4649,2589.8668,221.6343,2571.68,216.2269" style="stroke:#181818;stroke-width:1;"/></g><!--reverse link DiffractionExperiment to DiffractionExperimentWithSample--><g class="link" data-entity-1="DiffractionExperiment" data-entity-2="DiffractionExperimentWithSample" data-source-line="138" data-uid="lnk37" id="link_DiffractionExperiment_DiffractionExperimentWithSample"><path codeLine="138" d="M2806,505.2469 C2806,527.5069 2806,530.9069 2806,546.3269" fill="none" id="DiffractionExperiment-backto-DiffractionExperimentWithSample" style="stroke:#181818;stroke-width:1;"/><polygon fill="none" points="2806,487.2469,2800,505.2469,2812,505.2469,2806,487.2469" style="stroke:#181818;stroke-width:1;"/></g><!--reverse link WithSample to DiffractionExperimentWithSample--><g class="link" data-entity-1="WithSample" data-entity-2="DiffractionExperimentWithSample" data-source-line="139" data-uid="lnk38" id="link_WithSample_DiffractionExperimentWithSample"><path codeLine="139" d="M1477.9064,208.4772 C1489.5164,214.6972 1485.87,211.7769 1498,215.7869 C1762.16,302.9469 1851.53,206.7769 2121,275.7869 C2186.82,292.6369 2605.6,479.6569 2753.97,546.3269" fill="none" id="WithSample-backto-DiffractionExperimentWithSample" style="stroke:#181818;stroke-width:1;"/><polygon fill="none" points="1462.04,199.9769,1475.073,213.7661,1480.7399,203.1884,1462.04,199.9769" style="stroke:#181818;stroke-width:1;"/></g><!--reverse link GridCommon to GridCommonWithHyperionDetectorParams--><g class="link" data-entity-1="GridCommon" data-entity-2="GridCommonWithHyperionDetectorParams" data-source-line="140" data-uid="lnk39" id="link_GridCommon_GridCommonWithHyperionDetectorParams"><path codeLine="140" d="M2938.8257,810.4573 C3020.9057,861.0173 3109.97,915.8669 3165.03,949.7769" fill="none" id="GridCommon-backto-GridCommonWithHyperionDetectorParams" style="stroke:#181818;stroke-width:1;"/><polygon fill="none" points="2923.5,801.0169,2935.6789,815.5659,2941.9726,805.3487,2923.5,801.0169" style="stroke:#181818;stroke-width:1;"/></g><!--reverse link WithHyperionUDCFeatures to GridCommonWithHyperionDetectorParams--><g class="link" data-entity-1="WithHyperionUDCFeatures" data-entity-2="GridCommonWithHyperionDetectorParams" data-source-line="141" data-uid="lnk40" id="link_WithHyperionUDCFeatures_GridCommonWithHyperionDetectorParams"><path codeLine="141" d="M3986.2501,739.0327 C3841.0601,752.7727 3603.07,784.5269 3397,860.5369 C3336.16,882.9769 3272.4,923.8669 3235.25,949.7169" fill="none" id="WithHyperionUDCFeatures-backto-GridCommonWithHyperionDetectorParams" style="stroke:#181818;stroke-width:1;"/><polygon fill="none" points="4004.17,737.3369,3985.6848,733.0594,3986.8153,745.006,4004.17,737.3369" style="stroke:#181818;stroke-width:1;"/></g><!--reverse link GridCommonWithHyperionDetectorParams to GridScanWithEdgeDetect--><g class="link" data-entity-1="GridCommonWithHyperionDetectorParams" data-entity-2="GridScanWithEdgeDetect" data-source-line="142" data-uid="lnk41" id="link_GridCommonWithHyperionDetectorParams_GridScanWithEdgeDetect"><path codeLine="142" d="M3203.8135,1016.5434 C3204.5835,1055.7434 3205.77,1116.2969 3206.54,1155.5269" fill="none" id="GridCommonWithHyperionDetectorParams-backto-GridScanWithEdgeDetect" style="stroke:#181818;stroke-width:1;"/><polygon fill="none" points="3203.46,998.5469,3197.8147,1016.6612,3209.8123,1016.4256,3203.46,998.5469" style="stroke:#181818;stroke-width:1;"/></g><!--reverse link WithHyperionUDCFeatures to GridScanWithEdgeDetect--><g class="link" data-entity-1="WithHyperionUDCFeatures" data-entity-2="GridScanWithEdgeDetect" data-source-line="143" data-uid="lnk42" id="link_WithHyperionUDCFeatures_GridScanWithEdgeDetect"><path codeLine="143" d="M3986.2796,735.83 C3809.8596,747.55 3502.15,778.7169 3424,860.5369 C3343.6,944.6969 3461.76,1030.5869 3387,1119.7969 C3375.8,1133.1569 3343.02,1145.5969 3308.44,1155.5869" fill="none" id="WithHyperionUDCFeatures-backto-GridScanWithEdgeDetect" style="stroke:#181818;stroke-width:1;"/><polygon fill="none" points="4004.24,734.6369,3985.8819,729.8432,3986.6773,741.8168,4004.24,734.6369" style="stroke:#181818;stroke-width:1;"/></g><!--reverse link DiffractionExperimentWithSample to RotationExperiment--><g class="link" data-entity-1="DiffractionExperimentWithSample" data-entity-2="RotationExperiment" data-source-line="144" data-uid="lnk43" id="link_DiffractionExperimentWithSample_RotationExperiment"><path codeLine="144" d="M2878.5477,602.2569 C2915.2277,617.8969 2947.51,632.1769 2990,652.4969 C3181.51,744.0869 3401.12,860.9269 3520.13,925.2669" fill="none" id="DiffractionExperimentWithSample-backto-RotationExperiment" style="stroke:#181818;stroke-width:1;"/><polygon fill="none" points="2861.99,595.1969,2876.1943,607.7761,2880.901,596.7377,2861.99,595.1969" style="stroke:#181818;stroke-width:1;"/></g><!--reverse link WithHyperionUDCFeatures to RotationExperiment--><g class="link" data-entity-1="WithHyperionUDCFeatures" data-entity-2="RotationExperiment" data-source-line="145" data-uid="lnk44" id="link_WithHyperionUDCFeatures_RotationExperiment"><path codeLine="145" d="M4011.9004,766.4041 C3944.9804,790.9441 3869.09,821.1569 3791,860.5369 C3753.03,879.6869 3712.58,904.1169 3679.4,925.3269" fill="none" id="WithHyperionUDCFeatures-backto-RotationExperiment" style="stroke:#181818;stroke-width:1;"/><polygon fill="none" points="4028.8,760.2069,4009.8347,760.7709,4013.9662,772.0372,4028.8,760.2069" style="stroke:#181818;stroke-width:1;"/></g><!--reverse link XyzStarts to SpecifiedGrid--><g class="link" data-entity-1="XyzStarts" data-entity-2="SpecifiedGrid" data-source-line="146" data-uid="lnk45" id="link_XyzStarts_SpecifiedGrid"><path codeLine="146" d="M159.8879,210.0595 C168.7079,216.2695 163.41,211.5669 173,215.7869 C352.49,294.7169 958.79,356.2269 1156.84,374.6169" fill="none" id="XyzStarts-backto-SpecifiedGrid" style="stroke:#181818;stroke-width:1;"/><polygon fill="none" points="145.17,199.6969,156.4337,214.9654,163.3421,205.1535,145.17,199.6969" style="stroke:#181818;stroke-width:1;"/></g><!--reverse link WithScan to SpecifiedGrid--><g class="link" data-entity-1="WithScan" data-entity-2="SpecifiedGrid" data-source-line="147" data-uid="lnk46" id="link_WithScan_SpecifiedGrid"><path codeLine="147" d="M1220,193.1769 C1220,236.9269 1220,313.2769 1220,357.0669" fill="none" id="WithScan-backto-SpecifiedGrid" style="stroke:#181818;stroke-width:1;"/><polygon fill="none" points="1220,175.1769,1214,193.1769,1226,193.1769,1220,175.1769" style="stroke:#181818;stroke-width:1;"/></g><!--reverse link MxBlueskyParameters to LoadCentreCollect--><g class="link" data-entity-1="MxBlueskyParameters" data-entity-2="LoadCentreCollect" data-source-line="148" data-uid="lnk47" id="link_MxBlueskyParameters_LoadCentreCollect"><path codeLine="148" d="M2987.8899,151.9942 C3395.9799,153.2942 4438.84,167.1369 4551,275.7869 C4735.91,454.8869 4664.43,814.0569 4633.99,933.5169" fill="none" id="MxBlueskyParameters-backto-LoadCentreCollect" style="stroke:#181818;stroke-width:1;"/><polygon fill="none" points="2969.89,151.9369,2987.8708,157.9942,2987.909,145.9942,2969.89,151.9369" style="stroke:#181818;stroke-width:1;"/></g><!--reverse link WithVisit to LoadCentreCollect--><g class="link" data-entity-1="WithVisit" data-entity-2="LoadCentreCollect" data-source-line="149" data-uid="lnk48" id="link_WithVisit_LoadCentreCollect"><path codeLine="149" d="M2633.7891,218.471 C2801.1491,257.261 4019.59,190.9769 4169,275.7869 C4436.61,427.6869 4573.19,809.5969 4611.53,933.6069" fill="none" id="WithVisit-backto-LoadCentreCollect" style="stroke:#181818;stroke-width:1;"/><polygon fill="none" points="2616.38,213.8969,2632.2644,224.2741,2635.3138,212.668,2616.38,213.8969" style="stroke:#181818;stroke-width:1;"/></g><!--reverse link WithSample to LoadCentreCollect--><g class="link" data-entity-1="WithSample" data-entity-2="LoadCentreCollect" data-source-line="150" data-uid="lnk49" id="link_WithSample_LoadCentreCollect"><path codeLine="150" d="M1476.2309,208.4002 C1488.3009,214.8402 1485.22,212.0369 1498,215.7869 C1716.98,280.0169 3350.03,167.6669 3551,275.7869 C3802.08,410.8669 3675,654.7169 3920,800.5369 C4118.4,918.6169 4217.5,785.9469 4436,860.5369 C4484.96,877.2469 4534.87,908.1569 4570.8,933.3769" fill="none" id="WithSample-backto-LoadCentreCollect" style="stroke:#181818;stroke-width:1;"/><polygon fill="none" points="1460.35,199.9269,1473.4065,213.6938,1479.0553,203.1066,1460.35,199.9269" style="stroke:#181818;stroke-width:1;"/></g><!--reverse link WithCentreSelection to LoadCentreCollect--><g class="link" data-entity-1="WithCentreSelection" data-entity-2="LoadCentreCollect" data-source-line="151" data-uid="lnk50" id="link_WithCentreSelection_LoadCentreCollect"><path codeLine="151" d="M1754.4687,190.3606 C1785.0887,202.8406 1805.33,209.0069 1840,215.7869 C1952.75,237.8069 3820.96,199.6669 3907,275.7869 C4083.7,432.0969 3818.65,635.2569 3987,800.5369 C4058.83,871.0569 4341.01,827.2069 4436,860.5369 C4484.64,877.5969 4534.37,908.3269 4570.31,933.3769" fill="none" id="WithCentreSelection-backto-LoadCentreCollect" style="stroke:#181818;stroke-width:1;"/><polygon fill="none" points="1737.8,183.5669,1752.2041,195.9169,1756.7333,184.8044,1737.8,183.5669" style="stroke:#181818;stroke-width:1;"/></g><!--reverse link WithHyperionUDCFeatures to LoadCentreCollect--><g class="link" data-entity-1="WithHyperionUDCFeatures" data-entity-2="LoadCentreCollect" data-source-line="152" data-uid="lnk51" id="link_WithHyperionUDCFeatures_LoadCentreCollect"><path codeLine="152" d="M4192.357,768.6632 C4217.597,781.9532 4231.91,788.6569 4260,800.5369 C4336.12,832.7169 4361.07,825.6869 4436,860.5369 C4480.85,881.3969 4528.56,910.2569 4564.57,933.5369" fill="none" id="WithHyperionUDCFeatures-backto-LoadCentreCollect" style="stroke:#181818;stroke-width:1;"/><polygon fill="none" points="4176.43,760.2769,4189.5616,773.9722,4195.1525,763.3542,4176.43,760.2769" style="stroke:#181818;stroke-width:1;"/></g><!--reverse link GridCommonWithHyperionDetectorParams to PinTipCentreThenXrayCentre--><g class="link" data-entity-1="GridCommonWithHyperionDetectorParams" data-entity-2="PinTipCentreThenXrayCentre" data-source-line="153" data-uid="lnk52" id="link_GridCommonWithHyperionDetectorParams_PinTipCentreThenXrayCentre"><path codeLine="153" d="M3247.9395,1009.4665 C3296.0195,1046.1565 3374.95,1106.4069 3428.84,1147.5369" fill="none" id="GridCommonWithHyperionDetectorParams-backto-PinTipCentreThenXrayCentre" style="stroke:#181818;stroke-width:1;"/><polygon fill="none" points="3233.63,998.5469,3244.2996,1014.2363,3251.5794,1004.6967,3233.63,998.5469" style="stroke:#181818;stroke-width:1;"/></g><!--reverse link WithHyperionUDCFeatures to PinTipCentreThenXrayCentre--><g class="link" data-entity-1="WithHyperionUDCFeatures" data-entity-2="PinTipCentreThenXrayCentre" data-source-line="154" data-uid="lnk53" id="link_WithHyperionUDCFeatures_PinTipCentreThenXrayCentre"><path codeLine="154" d="M4124.5565,777.9346 C4133.5265,861.7046 4150.56,1069.6169 4101,1119.7969 C4063.54,1157.7269 3674.86,1140.8769 3622,1147.7969 C3611.05,1149.2369 3599.71,1151.0069 3588.38,1152.9769" fill="none" id="WithHyperionUDCFeatures-backto-PinTipCentreThenXrayCentre" style="stroke:#181818;stroke-width:1;"/><polygon fill="none" points="4122.64,760.0369,4118.5906,778.5734,4130.5224,777.2957,4122.64,760.0369" style="stroke:#181818;stroke-width:1;"/></g><!--reverse link WithPandaGridScan to WithHyperionUDCFeatures--><g class="link" data-entity-1="WithPandaGridScan" data-entity-2="WithHyperionUDCFeatures" data-source-line="155" data-uid="lnk54" id="link_WithPandaGridScan_WithHyperionUDCFeatures"><path codeLine="155" d="M2048.9551,191.7054 C2073.5551,204.1754 2087.37,209.0069 2116,215.7869 C2216.71,239.6269 3895.6,213.1569 3978,275.7869 C4113.32,378.6469 4121.95,610.4569 4120.33,695.0069" fill="none" id="WithPandaGridScan-backto-WithHyperionUDCFeatures" style="stroke:#181818;stroke-width:1;"/><polygon fill="none" points="2032.9,183.5669,2046.2422,197.057,2051.6679,186.3537,2032.9,183.5669" style="stroke:#181818;stroke-width:1;"/></g><!--reverse link GridCommon to SpecifiedThreeDGridScan--><g class="link" data-entity-1="GridCommon" data-entity-2="SpecifiedThreeDGridScan" data-source-line="156" data-uid="lnk55" id="link_GridCommon_SpecifiedThreeDGridScan"><path codeLine="156" d="M2783.591,818.4811 C2778.951,837.0711 2778.21,840.0569 2773.19,860.1669" fill="none" id="GridCommon-backto-SpecifiedThreeDGridScan" style="stroke:#181818;stroke-width:1;"/><polygon fill="none" points="2787.95,801.0169,2777.7696,817.0281,2789.4124,819.9341,2787.95,801.0169" style="stroke:#181818;stroke-width:1;"/></g><!--reverse link SpecifiedGrid to SpecifiedThreeDGridScan--><g class="link" data-entity-1="SpecifiedGrid" data-entity-2="SpecifiedThreeDGridScan" data-source-line="157" data-uid="lnk56" id="link_SpecifiedGrid_SpecifiedThreeDGridScan"><path codeLine="157" d="M1264.5478,416.5956 C1357.8278,487.6656 1637.35,691.7569 1915,800.5369 C2164.24,898.1869 2478.27,944.2169 2639.23,962.6869" fill="none" id="SpecifiedGrid-backto-SpecifiedThreeDGridScan" style="stroke:#181818;stroke-width:1;"/><polygon fill="none" points="1250.23,405.6869,1260.9116,421.3682,1268.1841,411.823,1250.23,405.6869" style="stroke:#181818;stroke-width:1;"/></g><!--reverse link SplitScan to SpecifiedThreeDGridScan--><g class="link" data-entity-1="SplitScan" data-entity-2="SpecifiedThreeDGridScan" data-source-line="158" data-uid="lnk57" id="link_SplitScan_SpecifiedThreeDGridScan"><path codeLine="158" d="M1083.0962,193.3456 C1078.3062,251.2556 1074.64,386.0869 1140,486.7569 C1279.4,701.4569 1383.82,709.3069 1623,800.5369 C1978.4,936.0969 2435.64,965.3769 2639.16,971.5769" fill="none" id="SplitScan-backto-SpecifiedThreeDGridScan" style="stroke:#181818;stroke-width:1;"/><polygon fill="none" points="1084.58,175.4069,1077.1166,192.851,1089.0758,193.8402,1084.58,175.4069" style="stroke:#181818;stroke-width:1;"/></g><!--reverse link WithOptionalEnergyChange to SpecifiedThreeDGridScan--><g class="link" data-entity-1="WithOptionalEnergyChange" data-entity-2="SpecifiedThreeDGridScan" data-source-line="159" data-uid="lnk58" id="link_WithOptionalEnergyChange_SpecifiedThreeDGridScan"><path codeLine="159" d="M378.7484,191.7673 C402.6284,204.0073 415.42,208.5769 443,215.7869 C812.42,312.2869 930.99,177.7069 1300,275.7869 C1833.71,417.6369 2407.39,758.0169 2639.05,904.3669" fill="none" id="WithOptionalEnergyChange-backto-SpecifiedThreeDGridScan" style="stroke:#181818;stroke-width:1;"/><polygon fill="none" points="362.73,183.5569,376.0116,197.1068,381.4852,186.4278,362.73,183.5569" style="stroke:#181818;stroke-width:1;"/></g><!--reverse link WithHyperionUDCFeatures to HyperionSpecifiedThreeDGridScan--><g class="link" data-entity-1="WithHyperionUDCFeatures" data-entity-2="HyperionSpecifiedThreeDGridScan" data-source-line="160" data-uid="lnk59" id="link_WithHyperionUDCFeatures_HyperionSpecifiedThreeDGridScan"><path codeLine="160" d="M4086.3431,774.8006 C4051.1131,824.5906 3993.72,905.7169 3962.49,949.8569" fill="none" id="WithHyperionUDCFeatures-backto-HyperionSpecifiedThreeDGridScan" style="stroke:#181818;stroke-width:1;"/><polygon fill="none" points="4096.74,760.1069,4081.4452,771.335,4091.241,778.2662,4096.74,760.1069" style="stroke:#181818;stroke-width:1;"/></g><!--reverse link SpecifiedThreeDGridScan to HyperionSpecifiedThreeDGridScan--><g class="link" data-entity-1="SpecifiedThreeDGridScan" data-entity-2="HyperionSpecifiedThreeDGridScan" data-source-line="161" data-uid="lnk60" id="link_SpecifiedThreeDGridScan_HyperionSpecifiedThreeDGridScan"><path codeLine="161" d="M2866.3731,898.9242 C2920.1131,868.9742 2972.06,845.7369 3037.5,830.5369 C3117.27,812.0069 3697.54,802.5669 3774.5,830.5369 C3840.02,854.3469 3897.97,915.3869 3926.76,949.7369" fill="none" id="SpecifiedThreeDGridScan-backto-HyperionSpecifiedThreeDGridScan" style="stroke:#181818;stroke-width:1;"/><polygon fill="none" points="2850.65,907.6869,2869.294,904.1652,2863.4522,893.6832,2850.65,907.6869" style="stroke:#181818;stroke-width:1;"/></g><!--reverse link WithScan to RotationScan--><g class="link" data-entity-1="WithScan" data-entity-2="RotationScan" data-source-line="162" data-uid="lnk61" id="link_WithScan_RotationScan"><path codeLine="162" d="M1248.1598,189.3187 C1260.0598,203.8387 1266.03,207.3869 1286,215.7869 C1502.7,306.9369 3170.79,228.1169 3401,275.7869 C3572.52,311.2969 4766.76,715.5169 4865,860.5369 C4929.62,955.9369 4942.22,1034.2769 4865,1119.7969 C4830.97,1157.4969 4492.83,1172.4869 4350.07,1177.1669" fill="none" id="WithScan-backto-RotationScan" style="stroke:#181818;stroke-width:1;"/><polygon fill="none" points="1236.75,175.3969,1243.5192,193.122,1252.8004,185.5154,1236.75,175.3969" style="stroke:#181818;stroke-width:1;"/></g><!--reverse link RotationScanPerSweep to RotationScan--><g class="link" data-entity-1="RotationScanPerSweep" data-entity-2="RotationScan" data-source-line="163" data-uid="lnk62" id="link_RotationScanPerSweep_RotationScan"><path codeLine="163" d="M4287,1057.3669 C4287,1097.0269 4287,1127.5669 4287,1155.7069" fill="none" id="RotationScanPerSweep-backto-RotationScan" style="stroke:#181818;stroke-width:1;"/><polygon fill="none" points="4287,1039.3669,4281,1057.3669,4293,1057.3669,4287,1039.3669" style="stroke:#181818;stroke-width:1;"/></g><!--reverse link RotationExperiment to RotationScan--><g class="link" data-entity-1="RotationExperiment" data-entity-2="RotationScan" data-source-line="164" data-uid="lnk63" id="link_RotationExperiment_RotationScan"><path codeLine="164" d="M3665.146,1035.5752 C3699.436,1069.1252 3737.17,1098.9969 3791,1119.7969 C3875.56,1152.4769 4109.2,1129.5469 4198,1147.7969 C4207.46,1149.7469 4217.29,1152.4469 4226.81,1155.4569" fill="none" id="RotationExperiment-backto-RotationScan" style="stroke:#181818;stroke-width:1;"/><polygon fill="none" points="3652.28,1022.9869,3660.9499,1039.8639,3669.3421,1031.2865,3652.28,1022.9869" style="stroke:#181818;stroke-width:1;"/></g><!--reverse link DiffractionExperimentWithSample to GridCommon--><g class="link" data-entity-1="DiffractionExperimentWithSample" data-entity-2="GridCommon" data-source-line="165" data-uid="lnk64" id="link_DiffractionExperimentWithSample_GridCommon"><path codeLine="165" d="M2806,612.9369 C2806,628.8969 2806,633.0169 2806,654.5769" fill="none" id="DiffractionExperimentWithSample-backto-GridCommon" style="stroke:#181818;stroke-width:1;"/><polygon fill="none" points="2806,594.9369,2800,612.9369,2812,612.9369,2806,594.9369" style="stroke:#181818;stroke-width:1;"/></g><!--reverse link OptionalGonioAngleStarts to GridCommon--><g class="link" data-entity-1="OptionalGonioAngleStarts" data-entity-2="GridCommon" data-source-line="166" data-uid="lnk65" id="link_OptionalGonioAngleStarts_GridCommon"><path codeLine="166" d="M1014.1565,214.4097 C1022.0265,217.3997 1013.14,213.6469 1021,215.7869 C1216.99,269.0669 1750.97,185.6869 1933,275.7869 C2044.5,330.9769 2013.92,417.0869 2117,486.7569 C2277.69,595.3569 2492.66,659.8669 2639.48,694.1769" fill="none" id="OptionalGonioAngleStarts-backto-GridCommon" style="stroke:#181818;stroke-width:1;"/><polygon fill="none" points="997.33,208.0169,1012.0256,220.0185,1016.2875,208.8008,997.33,208.0169" style="stroke:#181818;stroke-width:1;"/></g><!--reverse link RotationExperiment to MultiRotationScan--><g class="link" data-entity-1="RotationExperiment" data-entity-2="MultiRotationScan" data-source-line="167" data-uid="lnk66" id="link_RotationExperiment_MultiRotationScan"><path codeLine="167" d="M3675.9885,1034.5549 C3711.2885,1064.3849 3745.34,1090.8569 3791,1119.7969 C3806.49,1129.6169 3823.84,1139.0469 3840.39,1147.3769" fill="none" id="RotationExperiment-backto-MultiRotationScan" style="stroke:#181818;stroke-width:1;"/><polygon fill="none" points="3662.24,1022.9369,3672.1158,1039.1378,3679.8612,1029.9721,3662.24,1022.9369" style="stroke:#181818;stroke-width:1;"/></g><!--reverse link SplitScan to MultiRotationScan--><g class="link" data-entity-1="SplitScan" data-entity-2="MultiRotationScan" data-source-line="168" data-uid="lnk67" id="link_SplitScan_MultiRotationScan"><path codeLine="168" d="M1115.1655,189.304 C1127.0755,203.824 1133.03,207.3769 1153,215.7869 C1361.57,303.6569 2970.33,217.4269 3189,275.7869 C3478.9,353.1469 3498.03,503.9169 3784,594.7569 C3983.32,658.0669 4078.3,534.5469 4251,652.4969 C4312.76,694.6769 4269.27,758.3069 4331,800.5369 C4419.54,861.1069 4739.01,780.1069 4810,860.5369 C4886.25,946.9269 4889.57,1036.4569 4810,1119.7969 C4786.84,1144.0569 4240.44,1145.2769 4207,1147.7969 C4198.21,1148.4669 4189.28,1149.1769 4180.26,1149.9269" fill="none" id="SplitScan-backto-MultiRotationScan" style="stroke:#181818;stroke-width:1;"/><polygon fill="none" points="1103.75,175.3869,1110.5265,193.1092,1119.8045,185.4988,1103.75,175.3869" style="stroke:#181818;stroke-width:1;"/></g><!--SRC=[bLPRRzis57wEVWNVjW5BWFPvUqZjj1lGTC7iPGMAWA2bOuc8H18abLf9yzzxIEfgNUp03nQ_S-7XkNpaBzkC6xBdEH3yPwMLboa8qCn2GdOLQHPKvKpOiiYlL1L5bbiq-AjIeBaKv8vfLe05JMvb0dbam1A1Y54iXWqe55kfYP02eWYnHvO2AGvqbvTW7gkhM1Q555UgSMF8IsHb2ZP3bozHd3DZoDVgUMEPjkObkjZdabboeCO1j2mQf1eXpntoMZlwdzji8vWocRJewuxPZ9XwJHEk8SPWg-WYvyP-yruUo0_o1OFlr6G1AJCqWRHr-u-oc0kMZ-EiZSVXre9gJZ0J_3qtt4Lkh2OxO4NECQz-zUGauJC1TnXZgPNKAT5OYYVGc5sgyCH1YGk348PDbOOzFnpjZpvyChmZ9cAWnJ2I5GYhiS8vgg4NZ6ahrPSFrIqxh6GfR2iXnd_Hs1kOOIrYXfO3X1Kg1_J6XIN6BoXFmhAfH41L6JzEuboC2lD92YwlHPh3T7ryJUkCky8EfIhZix9uGVR8bEfxRQBQg9pRuT4t2cA-vv1yqZmPPkIEYOGvE5ZKMoY7KbsAKisMg3dz3SvnMgqo9b9u6TMvG4yKl0g59tJmEXx0syE7CA_jkBiKRfojvV4zBbsXso6cXUC2-XJmyI6tcGPOZywK8l0kp5S_cmv-FuRTJ86YXZ_34GsCqUTftVTZpkX3hhV2BYOiglxYkLdifCm9HU93eDnHkT_ZTzVdQxxVQ-P7uURWMBF0GQX7s94lTNJPx0y79KsfWLfKeoPeEOv46vmmpTCKj6DQOiEtJ_LW3B0dg2YB7UZeuXhti-Zkdc7vsZdnymW9PRMqsTng9ap1ZIiQTJ575tyRLUswiBT8-tXP84QX1Qb5D4Hga36GuFjKwhDJ6g1QyX3iOcBw7D0ekaPP-NkYRPMTF1nNqxK9_SuJc_N0KJxVSA0t9e-hklI1izrluhxBwejpUEE5S_uhBNFPS4Dn1thp7K2r9nvHLADzVS3RMzSBod3Lc1ZqKsTaOB7srN4Jsveb3HHQIS2XDFGfCVM6l4Wdgk5grJm4rlLzuGd236ldpkDqRv8KWbudRs8QZ4OTVbPQHoPIWU0YRKiOf6teNCGQVDdy8SylS1F2PycIS9kjP9xxw31LEscTO9k124BS4J6AcoSKoL7K5rfqSLlcblThHmg7q3P2LuTsjpikjbm5byxvLysgi7gPQwMEqPji_xTUVGJcsi_nS8FMqCUSfVYkg-MjVQCroyAl4stOeQDJuiRNGZW0ac_-mJJLlm-_ayyWVYsue3c8r6P_llljWGnIO_oip5tLv8yVbvUJen6DdbqBkXCtMD2UPA6e_r0yfJTrpPwoyU-u9QL9TC6Wuyse-pnFlnlee7_EW4SptVW63-SeTUx6778wX0cR4xaODj1HpMRtcj0_Qid1yovgNhvJija-7R7KSHzDA_JFDQrnz91VKftDm5Zz_EhE4-BodYVi1i_cO37ZRZG0CmmP3IfrIhL-uY-hBTF7ajLiMaxGV3I3dsSyxDm-qKPJhBkWTang0wMpfhIhsecxewSuj_leSZiku4ZX9m00]--></g></svg>