<svg xmlns="http://www.w3.org/2000/svg" xmlns:xlink="http://www.w3.org/1999/xlink" contentStyleType="text/css" data-diagram-type="CLASS" height="1235px" preserveAspectRatio="none" style="width:5175px;height:1235px;background:#FFFFFF;" version="1.1" viewBox="0 0 5175 1235" width="5175px" zoomAndPan="magnify"><title>Hyperion Parameter Model</title><defs/><g><text fill="#000000" font-family="sans-serif" font-size="14" font-weight="bold" lengthAdjust="spacing" textLength="212.4951" x="2474.7474" y="22.9951">Hyperion Parameter Model</text><!--cluster mx_bluesky.common.parameters--><g id="cluster_mx_bluesky.common.parameters"><path d="M8.5,43.2969 L269.8125,43.2969 A3.75,3.75 0 0 1 272.3125,45.7969 L279.3125,65.5938 L2991.5,65.5938 A2.5,2.5 0 0 1 2994,68.0938 L2994,1109.2969 A2.5,2.5 0 0 1 2991.5,1111.7969 L8.5,1111.7969 A2.5,2.5 0 0 1 6,1109.2969 L6,45.7969 A2.5,2.5 0 0 1 8.5,43.2969 " fill="#FFFFFF" fill-opacity="0.00000" style="stroke:#000000;stroke-width:1.5;"/><line style="stroke:#000000;stroke-width:1.5;" x1="6" x2="279.3125" y1="65.5938" y2="65.5938"/><text fill="#000000" font-family="sans-serif" font-size="14" font-weight="bold" lengthAdjust="spacing" textLength="260.3125" x="10" y="58.292">mx_bluesky.common.parameters</text></g><!--cluster mx_bluesky.hyperion.parameters--><g id="cluster_mx_bluesky.hyperion.parameters"><path d="M3020.5,660.4969 L3285.0322,660.4969 A3.75,3.75 0 0 1 3287.5322,662.9969 L3294.5322,682.7937 L4840.5,682.7937 A2.5,2.5 0 0 1 4843,685.2937 L4843,1225.5969 A2.5,2.5 0 0 1 4840.5,1228.0969 L3020.5,1228.0969 A2.5,2.5 0 0 1 3018,1225.5969 L3018,662.9969 A2.5,2.5 0 0 1 3020.5,660.4969 " fill="#FFFFFF" fill-opacity="0.00000" style="stroke:#000000;stroke-width:1.5;"/><line style="stroke:#000000;stroke-width:1.5;" x1="3018" x2="3294.5322" y1="682.7937" y2="682.7937"/><text fill="#000000" font-family="sans-serif" font-size="14" font-weight="bold" lengthAdjust="spacing" textLength="263.5322" x="3022" y="675.492">mx_bluesky.hyperion.parameters</text></g><!--class OptionalGonioAngleStarts--><g id="elem_OptionalGonioAngleStarts"><rect codeLine="8" fill="#F1F1F1" height="113.1875" id="OptionalGonioAngleStarts" rx="2.5" ry="2.5" style="stroke:#181818;stroke-width:0.5;" width="219.3203" x="460.34" y="94.4469"/><ellipse cx="478.0633" cy="110.4469" fill="#ADD1B2" rx="11" ry="11" style="stroke:#181818;stroke-width:1;"/><path d="M481.032,116.0875 Q480.4539,116.3844 479.8133,116.525 Q479.1727,116.6812 478.4695,116.6812 Q475.9695,116.6812 474.6414,115.0406 Q473.3289,113.3844 473.3289,110.2594 Q473.3289,107.1344 474.6414,105.4781 Q475.9695,103.8219 478.4695,103.8219 Q479.1727,103.8219 479.8133,103.9781 Q480.4695,104.1344 481.032,104.4312 L481.032,107.15 Q480.407,106.5719 479.8133,106.3062 Q479.2195,106.025 478.5945,106.025 Q477.2508,106.025 476.5633,107.1031 Q475.8758,108.1656 475.8758,110.2594 Q475.8758,112.3531 476.5633,113.4312 Q477.2508,114.4937 478.5945,114.4937 Q479.2195,114.4937 479.8133,114.2281 Q480.407,113.9469 481.032,113.3687 L481.032,116.0875 Z " fill="#000000"/><text fill="#000000" font-family="sans-serif" font-size="14" lengthAdjust="spacing" textLength="181.2686" x="492.6685" y="115.2936">OptionalGonioAngleStarts</text><line style="stroke:#181818;stroke-width:0.5;" x1="461.34" x2="678.6603" y1="126.4469" y2="126.4469"/><text fill="#000000" font-family="sans-serif" font-size="14" lengthAdjust="spacing" textLength="207.3203" x="466.34" y="143.442">float | None omega_start_deg</text><text fill="#000000" font-family="sans-serif" font-size="14" lengthAdjust="spacing" textLength="180.6875" x="466.34" y="159.7389">float | None phi_start_deg</text><text fill="#000000" font-family="sans-serif" font-size="14" lengthAdjust="spacing" textLength="179.498" x="466.34" y="176.0357">float | None chi_start_deg</text><text fill="#000000" font-family="sans-serif" font-size="14" lengthAdjust="spacing" textLength="202.0771" x="466.34" y="192.3326">float | None kappa_start_deg</text><line style="stroke:#181818;stroke-width:0.5;" x1="461.34" x2="678.6603" y1="199.6344" y2="199.6344"/></g><!--class WithSample--><g id="elem_WithSample"><rect codeLine="14" fill="#F1F1F1" height="96.8906" id="WithSample" rx="2.5" ry="2.5" style="stroke:#181818;stroke-width:0.5;" width="176.3086" x="1171.85" y="102.5969"/><ellipse cx="1213.7243" cy="118.5969" fill="#ADD1B2" rx="11" ry="11" style="stroke:#181818;stroke-width:1;"/><path d="M1216.6931,124.2375 Q1216.1149,124.5344 1215.4743,124.675 Q1214.8337,124.8312 1214.1306,124.8312 Q1211.6306,124.8312 1210.3024,123.1906 Q1208.9899,121.5344 1208.9899,118.4094 Q1208.9899,115.2844 1210.3024,113.6281 Q1211.6306,111.9719 1214.1306,111.9719 Q1214.8337,111.9719 1215.4743,112.1281 Q1216.1306,112.2844 1216.6931,112.5812 L1216.6931,115.3 Q1216.0681,114.7219 1215.4743,114.4562 Q1214.8806,114.175 1214.2556,114.175 Q1212.9118,114.175 1212.2243,115.2531 Q1211.5368,116.3156 1211.5368,118.4094 Q1211.5368,120.5031 1212.2243,121.5812 Q1212.9118,122.6437 1214.2556,122.6437 Q1214.8806,122.6437 1215.4743,122.3781 Q1216.0681,122.0969 1216.6931,121.5187 L1216.6931,124.2375 Z " fill="#000000"/><text fill="#000000" font-family="sans-serif" font-size="14" lengthAdjust="spacing" textLength="84.5879" x="1233.6964" y="123.4436">WithSample</text><line style="stroke:#181818;stroke-width:0.5;" x1="1172.85" x2="1347.1586" y1="134.5969" y2="134.5969"/><text fill="#000000" font-family="sans-serif" font-size="14" lengthAdjust="spacing" textLength="93.3789" x="1177.85" y="151.592">int sample_id</text><text fill="#000000" font-family="sans-serif" font-size="14" lengthAdjust="spacing" textLength="164.3086" x="1177.85" y="167.8889">int | None sample_puck</text><text fill="#000000" font-family="sans-serif" font-size="14" lengthAdjust="spacing" textLength="152.3936" x="1177.85" y="184.1857">int | None sample_pin</text><line style="stroke:#181818;stroke-width:0.5;" x1="1172.85" x2="1347.1586" y1="191.4875" y2="191.4875"/></g><!--class SplitScan--><g id="elem_SplitScan"><rect codeLine="19" fill="#F1F1F1" height="48" id="SplitScan" rx="2.5" ry="2.5" style="stroke:#181818;stroke-width:0.5;" width="97.0781" x="1593.46" y="127.0469"/><ellipse cx="1608.46" cy="143.0469" fill="#ADD1B2" rx="11" ry="11" style="stroke:#181818;stroke-width:1;"/><path d="M1611.4288,148.6875 Q1610.8506,148.9844 1610.21,149.125 Q1609.5694,149.2813 1608.8663,149.2813 Q1606.3663,149.2813 1605.0381,147.6406 Q1603.7256,145.9844 1603.7256,142.8594 Q1603.7256,139.7344 1605.0381,138.0781 Q1606.3663,136.4219 1608.8663,136.4219 Q1609.5694,136.4219 1610.21,136.5781 Q1610.8663,136.7344 1611.4288,137.0313 L1611.4288,139.75 Q1610.8038,139.1719 1610.21,138.9063 Q1609.6163,138.625 1608.9913,138.625 Q1607.6475,138.625 1606.96,139.7031 Q1606.2725,140.7656 1606.2725,142.8594 Q1606.2725,144.9531 1606.96,146.0313 Q1607.6475,147.0938 1608.9913,147.0938 Q1609.6163,147.0938 1610.21,146.8281 Q1610.8038,146.5469 1611.4288,145.9688 L1611.4288,148.6875 Z " fill="#000000"/><text fill="#000000" font-family="sans-serif" font-size="14" lengthAdjust="spacing" textLength="65.0781" x="1622.46" y="147.8936">SplitScan</text><line style="stroke:#181818;stroke-width:0.5;" x1="1594.46" x2="1689.5381" y1="159.0469" y2="159.0469"/><line style="stroke:#181818;stroke-width:0.5;" x1="1594.46" x2="1689.5381" y1="167.0469" y2="167.0469"/></g><!--class WithOptionalEnergyChange--><g id="elem_WithOptionalEnergyChange"><rect codeLine="21" fill="#F1F1F1" height="64.2969" id="WithOptionalEnergyChange" rx="2.5" ry="2.5" style="stroke:#181818;stroke-width:0.5;" width="235.4463" x="190.28" y="118.8969"/><ellipse cx="209.4645" cy="134.8969" fill="#ADD1B2" rx="11" ry="11" style="stroke:#181818;stroke-width:1;"/><path d="M212.4332,140.5375 Q211.8551,140.8344 211.2145,140.975 Q210.5738,141.1312 209.8707,141.1312 Q207.3707,141.1312 206.0426,139.4906 Q204.7301,137.8344 204.7301,134.7094 Q204.7301,131.5844 206.0426,129.9281 Q207.3707,128.2719 209.8707,128.2719 Q210.5738,128.2719 211.2145,128.4281 Q211.8707,128.5844 212.4332,128.8812 L212.4332,131.6 Q211.8082,131.0219 211.2145,130.7562 Q210.6207,130.475 209.9957,130.475 Q208.652,130.475 207.9645,131.5531 Q207.277,132.6156 207.277,134.7094 Q207.277,136.8031 207.9645,137.8812 Q208.652,138.9437 209.9957,138.9437 Q210.6207,138.9437 211.2145,138.6781 Q211.8082,138.3969 212.4332,137.8187 L212.4332,140.5375 Z " fill="#000000"/><text fill="#000000" font-family="sans-serif" font-size="14" lengthAdjust="spacing" textLength="194.1475" x="224.3944" y="139.7436">WithOptionalEnergyChange</text><line style="stroke:#181818;stroke-width:0.5;" x1="191.28" x2="424.7263" y1="150.8969" y2="150.8969"/><text fill="#000000" font-family="sans-serif" font-size="14" lengthAdjust="spacing" textLength="223.4463" x="196.28" y="167.892">float | None demand_energy_ev</text><line style="stroke:#181818;stroke-width:0.5;" x1="191.28" x2="424.7263" y1="175.1937" y2="175.1937"/></g><!--class WithCentreSelection--><g id="elem_WithCentreSelection"><rect codeLine="24" fill="#F1F1F1" height="64.2969" id="WithCentreSelection" rx="2.5" ry="2.5" style="stroke:#181818;stroke-width:0.5;" width="306.7861" x="2031.61" y="118.8969"/><ellipse cx="2108.8869" cy="134.8969" fill="#ADD1B2" rx="11" ry="11" style="stroke:#181818;stroke-width:1;"/><path d="M2111.8556,140.5375 Q2111.2775,140.8344 2110.6369,140.975 Q2109.9962,141.1312 2109.2931,141.1312 Q2106.7931,141.1312 2105.465,139.4906 Q2104.1525,137.8344 2104.1525,134.7094 Q2104.1525,131.5844 2105.465,129.9281 Q2106.7931,128.2719 2109.2931,128.2719 Q2109.9962,128.2719 2110.6369,128.4281 Q2111.2931,128.5844 2111.8556,128.8812 L2111.8556,131.6 Q2111.2306,131.0219 2110.6369,130.7562 Q2110.0431,130.475 2109.4181,130.475 Q2108.0744,130.475 2107.3869,131.5531 Q2106.6994,132.6156 2106.6994,134.7094 Q2106.6994,136.8031 2107.3869,137.8812 Q2108.0744,138.9437 2109.4181,138.9437 Q2110.0431,138.9437 2110.6369,138.6781 Q2111.2306,138.3969 2111.8556,137.8187 L2111.8556,140.5375 Z " fill="#000000"/><text fill="#000000" font-family="sans-serif" font-size="14" lengthAdjust="spacing" textLength="143.7324" x="2129.3869" y="139.7436">WithCentreSelection</text><line style="stroke:#181818;stroke-width:0.5;" x1="2032.61" x2="2337.3961" y1="150.8969" y2="150.8969"/><text fill="#000000" font-family="sans-serif" font-size="14" lengthAdjust="spacing" textLength="294.7861" x="2037.61" y="167.892">TopNByMaxCountSelection select_centres</text><line style="stroke:#181818;stroke-width:0.5;" x1="2032.61" x2="2337.3961" y1="175.1937" y2="175.1937"/></g><!--class OptionalXyzStarts--><g id="elem_OptionalXyzStarts"><rect codeLine="27" fill="#F1F1F1" height="96.8906" id="OptionalXyzStarts" rx="2.5" ry="2.5" style="stroke:#181818;stroke-width:0.5;" width="175.4473" x="1383.28" y="102.5969"/><ellipse cx="1406.1713" cy="118.5969" fill="#ADD1B2" rx="11" ry="11" style="stroke:#181818;stroke-width:1;"/><path d="M1409.14,124.2375 Q1408.5619,124.5344 1407.9213,124.675 Q1407.2806,124.8312 1406.5775,124.8312 Q1404.0775,124.8312 1402.7494,123.1906 Q1401.4369,121.5344 1401.4369,118.4094 Q1401.4369,115.2844 1402.7494,113.6281 Q1404.0775,111.9719 1406.5775,111.9719 Q1407.2806,111.9719 1407.9213,112.1281 Q1408.5775,112.2844 1409.14,112.5812 L1409.14,115.3 Q1408.515,114.7219 1407.9213,114.4562 Q1407.3275,114.175 1406.7025,114.175 Q1405.3588,114.175 1404.6713,115.2531 Q1403.9838,116.3156 1403.9838,118.4094 Q1403.9838,120.5031 1404.6713,121.5812 Q1405.3588,122.6437 1406.7025,122.6437 Q1407.3275,122.6437 1407.9213,122.3781 Q1408.515,122.0969 1409.14,121.5187 L1409.14,124.2375 Z " fill="#000000"/><text fill="#000000" font-family="sans-serif" font-size="14" lengthAdjust="spacing" textLength="125.9111" x="1421.9249" y="123.4436">OptionalXyzStarts</text><line style="stroke:#181818;stroke-width:0.5;" x1="1384.28" x2="1557.7273" y1="134.5969" y2="134.5969"/><text fill="#000000" font-family="sans-serif" font-size="14" lengthAdjust="spacing" textLength="163.4473" x="1389.28" y="151.592">float | None x_start_um</text><text fill="#000000" font-family="sans-serif" font-size="14" lengthAdjust="spacing" textLength="163.4473" x="1389.28" y="167.8889">float | None y_start_um</text><text fill="#000000" font-family="sans-serif" font-size="14" lengthAdjust="spacing" textLength="162.5107" x="1389.28" y="184.1857">float | None z_start_um</text><line style="stroke:#181818;stroke-width:0.5;" x1="1384.28" x2="1557.7273" y1="191.4875" y2="191.4875"/></g><!--class WithSnapshot--><g id="elem_WithSnapshot"><rect codeLine="32" fill="#F1F1F1" height="80.5938" id="WithSnapshot" rx="2.5" ry="2.5" style="stroke:#181818;stroke-width:0.5;" width="289.3477" x="714.33" y="110.7469"/><ellipse cx="805.9828" cy="126.7469" fill="#ADD1B2" rx="11" ry="11" style="stroke:#181818;stroke-width:1;"/><path d="M808.9516,132.3875 Q808.3735,132.6844 807.7328,132.825 Q807.0922,132.9813 806.3891,132.9813 Q803.8891,132.9813 802.561,131.3406 Q801.2485,129.6844 801.2485,126.5594 Q801.2485,123.4344 802.561,121.7781 Q803.8891,120.1219 806.3891,120.1219 Q807.0922,120.1219 807.7328,120.2781 Q808.3891,120.4344 808.9516,120.7313 L808.9516,123.45 Q808.3266,122.8719 807.7328,122.6063 Q807.1391,122.325 806.5141,122.325 Q805.1703,122.325 804.4828,123.4031 Q803.7953,124.4656 803.7953,126.5594 Q803.7953,128.6531 804.4828,129.7313 Q805.1703,130.7938 806.5141,130.7938 Q807.1391,130.7938 807.7328,130.5281 Q808.3266,130.2469 808.9516,129.6688 L808.9516,132.3875 Z " fill="#000000"/><text fill="#000000" font-family="sans-serif" font-size="14" lengthAdjust="spacing" textLength="97.542" x="826.4828" y="131.5936">WithSnapshot</text><line style="stroke:#181818;stroke-width:0.5;" x1="715.33" x2="1002.6777" y1="142.7469" y2="142.7469"/><text fill="#000000" font-family="sans-serif" font-size="14" lengthAdjust="spacing" textLength="169.627" x="720.33" y="159.742">Path snapshot_directory</text><text fill="#000000" font-family="sans-serif" font-size="14" lengthAdjust="spacing" textLength="277.3477" x="720.33" y="176.0389">list[float] | None snapshot_omegas_deg</text><line style="stroke:#181818;stroke-width:0.5;" x1="715.33" x2="1002.6777" y1="183.3406" y2="183.3406"/></g><!--class WithPandaGridScan--><g id="elem_WithPandaGridScan"><rect codeLine="36" fill="#F1F1F1" height="64.2969" id="WithPandaGridScan" rx="2.5" ry="2.5" style="stroke:#181818;stroke-width:0.5;" width="240.5664" x="2373.72" y="118.8969"/><ellipse cx="2420.3172" cy="134.8969" fill="#ADD1B2" rx="11" ry="11" style="stroke:#181818;stroke-width:1;"/><path d="M2423.2859,140.5375 Q2422.7078,140.8344 2422.0672,140.975 Q2421.4265,141.1312 2420.7234,141.1312 Q2418.2234,141.1312 2416.8953,139.4906 Q2415.5828,137.8344 2415.5828,134.7094 Q2415.5828,131.5844 2416.8953,129.9281 Q2418.2234,128.2719 2420.7234,128.2719 Q2421.4265,128.2719 2422.0672,128.4281 Q2422.7234,128.5844 2423.2859,128.8812 L2423.2859,131.6 Q2422.6609,131.0219 2422.0672,130.7562 Q2421.4734,130.475 2420.8484,130.475 Q2419.5047,130.475 2418.8172,131.5531 Q2418.1297,132.6156 2418.1297,134.7094 Q2418.1297,136.8031 2418.8172,137.8812 Q2419.5047,138.9437 2420.8484,138.9437 Q2421.4734,138.9437 2422.0672,138.6781 Q2422.6609,138.3969 2423.2859,137.8187 L2423.2859,140.5375 Z " fill="#000000"/><text fill="#000000" font-family="sans-serif" font-size="14" lengthAdjust="spacing" textLength="138.8721" x="2440.8172" y="139.7436">WithPandaGridScan</text><line style="stroke:#181818;stroke-width:0.5;" x1="2374.72" x2="2613.2864" y1="150.8969" y2="150.8969"/><text fill="#000000" font-family="sans-serif" font-size="14" lengthAdjust="spacing" textLength="228.5664" x="2379.72" y="167.892">float panda_runup_distance_mm</text><line style="stroke:#181818;stroke-width:0.5;" x1="2374.72" x2="2613.2864" y1="175.1937" y2="175.1937"/></g><!--class WithVisit--><g id="elem_WithVisit"><rect codeLine="39" fill="#F1F1F1" height="129.4844" id="WithVisit" rx="2.5" ry="2.5" style="stroke:#181818;stroke-width:0.5;" width="271.7861" x="1725.11" y="86.2969"/><ellipse cx="1825.6359" cy="102.2969" fill="#ADD1B2" rx="11" ry="11" style="stroke:#181818;stroke-width:1;"/><path d="M1828.6046,107.9375 Q1828.0265,108.2344 1827.3859,108.375 Q1826.7453,108.5313 1826.0421,108.5313 Q1823.5421,108.5313 1822.214,106.8906 Q1820.9015,105.2344 1820.9015,102.1094 Q1820.9015,98.9844 1822.214,97.3281 Q1823.5421,95.6719 1826.0421,95.6719 Q1826.7453,95.6719 1827.3859,95.8281 Q1828.0421,95.9844 1828.6046,96.2813 L1828.6046,99 Q1827.9796,98.4219 1827.3859,98.1563 Q1826.7921,97.875 1826.1671,97.875 Q1824.8234,97.875 1824.1359,98.9531 Q1823.4484,100.0156 1823.4484,102.1094 Q1823.4484,104.2031 1824.1359,105.2813 Q1824.8234,106.3438 1826.1671,106.3438 Q1826.7921,106.3438 1827.3859,106.0781 Q1827.9796,105.7969 1828.6046,105.2188 L1828.6046,107.9375 Z " fill="#000000"/><text fill="#000000" font-family="sans-serif" font-size="14" lengthAdjust="spacing" textLength="62.2344" x="1846.1359" y="107.1436">WithVisit</text><line style="stroke:#181818;stroke-width:0.5;" x1="1726.11" x2="1995.8961" y1="118.2969" y2="118.2969"/><text fill="#000000" font-family="sans-serif" font-size="14" lengthAdjust="spacing" textLength="87.9717" x="1731.11" y="135.292">str beamline</text><text fill="#000000" font-family="sans-serif" font-size="14" lengthAdjust="spacing" textLength="51.8369" x="1731.11" y="151.5889">str visit</text><text fill="#000000" font-family="sans-serif" font-size="14" lengthAdjust="spacing" textLength="259.7861" x="1731.11" y="167.8857">str det_dist_to_beam_converter_path</text><text fill="#000000" font-family="sans-serif" font-size="14" lengthAdjust="spacing" textLength="131.5918" x="1731.11" y="184.1826">str insertion_prefix</text><text fill="#000000" font-family="sans-serif" font-size="14" lengthAdjust="spacing" textLength="245.752" x="1731.11" y="200.4795">float | None detector_distance_mm</text><line style="stroke:#181818;stroke-width:0.5;" x1="1726.11" x2="1995.8961" y1="207.7813" y2="207.7813"/></g><!--class XyzStarts--><g id="elem_XyzStarts"><rect codeLine="46" fill="#F1F1F1" height="96.8906" id="XyzStarts" rx="2.5" ry="2.5" style="stroke:#181818;stroke-width:0.5;" width="125.3057" x="30.35" y="102.5969"/><ellipse cx="57.3141" cy="118.5969" fill="#ADD1B2" rx="11" ry="11" style="stroke:#181818;stroke-width:1;"/><path d="M60.2829,124.2375 Q59.7047,124.5344 59.0641,124.675 Q58.4235,124.8312 57.7204,124.8312 Q55.2204,124.8312 53.8922,123.1906 Q52.5797,121.5344 52.5797,118.4094 Q52.5797,115.2844 53.8922,113.6281 Q55.2204,111.9719 57.7204,111.9719 Q58.4235,111.9719 59.0641,112.1281 Q59.7204,112.2844 60.2829,112.5812 L60.2829,115.3 Q59.6579,114.7219 59.0641,114.4562 Q58.4704,114.175 57.8454,114.175 Q56.5016,114.175 55.8141,115.2531 Q55.1266,116.3156 55.1266,118.4094 Q55.1266,120.5031 55.8141,121.5812 Q56.5016,122.6437 57.8454,122.6437 Q58.4704,122.6437 59.0641,122.3781 Q59.6579,122.0969 60.2829,121.5187 L60.2829,124.2375 Z " fill="#000000"/><text fill="#000000" font-family="sans-serif" font-size="14" lengthAdjust="spacing" textLength="66.7188" x="73.9728" y="123.4436">XyzStarts</text><line style="stroke:#181818;stroke-width:0.5;" x1="31.35" x2="154.6557" y1="134.5969" y2="134.5969"/><text fill="#000000" font-family="sans-serif" font-size="14" lengthAdjust="spacing" textLength="113.3057" x="36.35" y="151.592">float x_start_um</text><text fill="#000000" font-family="sans-serif" font-size="14" lengthAdjust="spacing" textLength="113.3057" x="36.35" y="167.8889">float y_start_um</text><text fill="#000000" font-family="sans-serif" font-size="14" lengthAdjust="spacing" textLength="112.3691" x="36.35" y="184.1857">float z_start_um</text><line style="stroke:#181818;stroke-width:0.5;" x1="31.35" x2="154.6557" y1="191.4875" y2="191.4875"/></g><!--class WithScan--><g id="elem_WithScan"><rect codeLine="51" fill="#F1F1F1" height="48" id="WithScan" rx="2.5" ry="2.5" style="stroke:#181818;stroke-width:0.5;" width="98.1309" x="1038.93" y="127.0469"/><ellipse cx="1053.93" cy="143.0469" fill="#ADD1B2" rx="11" ry="11" style="stroke:#181818;stroke-width:1;"/><path d="M1056.8988,148.6875 Q1056.3206,148.9844 1055.68,149.125 Q1055.0394,149.2813 1054.3363,149.2813 Q1051.8363,149.2813 1050.5081,147.6406 Q1049.1956,145.9844 1049.1956,142.8594 Q1049.1956,139.7344 1050.5081,138.0781 Q1051.8363,136.4219 1054.3363,136.4219 Q1055.0394,136.4219 1055.68,136.5781 Q1056.3363,136.7344 1056.8988,137.0313 L1056.8988,139.75 Q1056.2738,139.1719 1055.68,138.9063 Q1055.0863,138.625 1054.4613,138.625 Q1053.1175,138.625 1052.43,139.7031 Q1051.7425,140.7656 1051.7425,142.8594 Q1051.7425,144.9531 1052.43,146.0313 Q1053.1175,147.0938 1054.4613,147.0938 Q1055.0863,147.0938 1055.68,146.8281 Q1056.2738,146.5469 1056.8988,145.9688 L1056.8988,148.6875 Z " fill="#000000"/><text fill="#000000" font-family="sans-serif" font-size="14" lengthAdjust="spacing" textLength="66.1309" x="1067.93" y="147.8936">WithScan</text><line style="stroke:#181818;stroke-width:0.5;" x1="1039.93" x2="1136.0609" y1="159.0469" y2="159.0469"/><line style="stroke:#181818;stroke-width:0.5;" x1="1039.93" x2="1136.0609" y1="167.0469" y2="167.0469"/></g><!--class SpecifiedGrid--><g id="elem_SpecifiedGrid"><rect codeLine="53" fill="#F1F1F1" height="48" id="SpecifiedGrid" rx="2.5" ry="2.5" style="stroke:#181818;stroke-width:0.5;" width="125.6729" x="1025.16" y="357.2669"/><ellipse cx="1040.16" cy="373.2669" fill="#ADD1B2" rx="11" ry="11" style="stroke:#181818;stroke-width:1;"/><path d="M1043.1288,378.9075 Q1042.5506,379.2044 1041.91,379.345 Q1041.2694,379.5012 1040.5663,379.5012 Q1038.0663,379.5012 1036.7381,377.8606 Q1035.4256,376.2044 1035.4256,373.0794 Q1035.4256,369.9544 1036.7381,368.2981 Q1038.0663,366.6419 1040.5663,366.6419 Q1041.2694,366.6419 1041.91,366.7981 Q1042.5663,366.9544 1043.1288,367.2512 L1043.1288,369.97 Q1042.5038,369.3919 1041.91,369.1262 Q1041.3163,368.845 1040.6913,368.845 Q1039.3475,368.845 1038.66,369.9231 Q1037.9725,370.9856 1037.9725,373.0794 Q1037.9725,375.1731 1038.66,376.2512 Q1039.3475,377.3137 1040.6913,377.3137 Q1041.3163,377.3137 1041.91,377.0481 Q1042.5038,376.7669 1043.1288,376.1887 L1043.1288,378.9075 Z " fill="#000000"/><text fill="#000000" font-family="sans-serif" font-size="14" lengthAdjust="spacing" textLength="93.6729" x="1054.16" y="378.1136">SpecifiedGrid</text><line style="stroke:#181818;stroke-width:0.5;" x1="1026.16" x2="1149.8329" y1="389.2669" y2="389.2669"/><line style="stroke:#181818;stroke-width:0.5;" x1="1026.16" x2="1149.8329" y1="397.2669" y2="397.2669"/></g><!--class DiffractionExperiment--><g id="elem_DiffractionExperiment"><rect codeLine="57" fill="#F1F1F1" height="210.9688" id="DiffractionExperiment" rx="2.5" ry="2.5" style="stroke:#181818;stroke-width:0.5;" width="332.332" x="2637.83" y="275.7869"/><ellipse cx="2722.6127" cy="291.7869" fill="#ADD1B2" rx="11" ry="11" style="stroke:#181818;stroke-width:1;"/><path d="M2725.5815,297.4275 Q2725.0033,297.7244 2724.3627,297.865 Q2723.7221,298.0213 2723.019,298.0213 Q2720.519,298.0213 2719.1908,296.3806 Q2717.8783,294.7244 2717.8783,291.5994 Q2717.8783,288.4744 2719.1908,286.8181 Q2720.519,285.1619 2723.019,285.1619 Q2723.7221,285.1619 2724.3627,285.3181 Q2725.019,285.4744 2725.5815,285.7713 L2725.5815,288.49 Q2724.9565,287.9119 2724.3627,287.6463 Q2723.769,287.365 2723.144,287.365 Q2721.8002,287.365 2721.1127,288.4431 Q2720.4252,289.5056 2720.4252,291.5994 Q2720.4252,293.6931 2721.1127,294.7713 Q2721.8002,295.8338 2723.144,295.8338 Q2723.769,295.8338 2724.3627,295.5681 Q2724.9565,295.2869 2725.5815,294.7088 L2725.5815,297.4275 Z " fill="#000000"/><text fill="#000000" font-family="sans-serif" font-size="14" lengthAdjust="spacing" textLength="154.2666" x="2743.1127" y="296.6336">DiffractionExperiment</text><line style="stroke:#181818;stroke-width:0.5;" x1="2638.83" x2="2969.162" y1="307.7869" y2="307.7869"/><text fill="#000000" font-family="sans-serif" font-size="14" lengthAdjust="spacing" textLength="91.0137" x="2643.83" y="324.782">str file_name</text><text fill="#000000" font-family="sans-serif" font-size="14" lengthAdjust="spacing" textLength="153.7129" x="2643.83" y="341.0789">float exposure_time_s</text><text fill="#000000" font-family="sans-serif" font-size="14" lengthAdjust="spacing" textLength="89.5029" x="2643.83" y="357.3757">str comment</text><text fill="#000000" font-family="sans-serif" font-size="14" lengthAdjust="spacing" textLength="186.915" x="2643.83" y="373.6726">TriggerMode trigger_mode</text><text fill="#000000" font-family="sans-serif" font-size="14" lengthAdjust="spacing" textLength="157.9854" x="2643.83" y="389.9695">int | None run_number</text><text fill="#000000" font-family="sans-serif" font-size="14" lengthAdjust="spacing" textLength="282.3516" x="2643.83" y="406.2664">ApertureValue | None selected_aperture</text><text fill="#000000" font-family="sans-serif" font-size="14" lengthAdjust="spacing" textLength="159.2979" x="2643.83" y="422.5632">float transmission_frac</text><text fill="#000000" font-family="sans-serif" font-size="14" lengthAdjust="spacing" textLength="320.332" x="2643.83" y="438.8601">IspybExperimentType ispyb_experiment_type</text><text fill="#000000" font-family="sans-serif" font-size="14" lengthAdjust="spacing" textLength="146.1113" x="2643.83" y="455.157">str storage_directory</text><text fill="#000000" font-family="sans-serif" font-size="14" lengthAdjust="spacing" textLength="131.0518" x="2643.83" y="471.4539">bool use_roi_mode</text><line style="stroke:#181818;stroke-width:0.5;" x1="2638.83" x2="2969.162" y1="478.7556" y2="478.7556"/></g><!--class MxBlueskyParameters--><g id="elem_MxBlueskyParameters"><rect codeLine="69" fill="#F1F1F1" height="64.2969" id="MxBlueskyParameters" rx="2.5" ry="2.5" style="stroke:#181818;stroke-width:0.5;" width="317.4639" x="2650.27" y="118.8969"/><ellipse cx="2726.8564" cy="134.8969" fill="#ADD1B2" rx="11" ry="11" style="stroke:#181818;stroke-width:1;"/><path d="M2729.8252,140.5375 Q2729.2471,140.8344 2728.6064,140.975 Q2727.9658,141.1312 2727.2627,141.1312 Q2724.7627,141.1312 2723.4346,139.4906 Q2722.1221,137.8344 2722.1221,134.7094 Q2722.1221,131.5844 2723.4346,129.9281 Q2724.7627,128.2719 2727.2627,128.2719 Q2727.9658,128.2719 2728.6064,128.4281 Q2729.2627,128.5844 2729.8252,128.8812 L2729.8252,131.6 Q2729.2002,131.0219 2728.6064,130.7562 Q2728.0127,130.475 2727.3877,130.475 Q2726.0439,130.475 2725.3564,131.5531 Q2724.6689,132.6156 2724.6689,134.7094 Q2724.6689,136.8031 2725.3564,137.8812 Q2726.0439,138.9437 2727.3877,138.9437 Q2728.0127,138.9437 2728.6064,138.6781 Q2729.2002,138.3969 2729.8252,137.8187 L2729.8252,140.5375 Z " fill="#000000"/><text fill="#000000" font-family="sans-serif" font-size="14" lengthAdjust="spacing" textLength="155.791" x="2747.3564" y="139.7436">MxBlueskyParameters</text><line style="stroke:#181818;stroke-width:0.5;" x1="2651.27" x2="2966.7339" y1="150.8969" y2="150.8969"/><text fill="#000000" font-family="sans-serif" font-size="14" lengthAdjust="spacing" textLength="305.4639" x="2656.27" y="167.892">SemanticVersion parameter_model_version</text><line style="stroke:#181818;stroke-width:0.5;" x1="2651.27" x2="2966.7339" y1="175.1937" y2="175.1937"/></g><!--class DiffractionExperimentWithSample--><g id="elem_DiffractionExperimentWithSample"><rect codeLine="72" fill="#F1F1F1" height="48" id="DiffractionExperimentWithSample" rx="2.5" ry="2.5" style="stroke:#181818;stroke-width:0.5;" width="270.8545" x="2668.57" y="546.7569"/><ellipse cx="2683.57" cy="562.7569" fill="#ADD1B2" rx="11" ry="11" style="stroke:#181818;stroke-width:1;"/><path d="M2686.5388,568.3975 Q2685.9606,568.6944 2685.32,568.835 Q2684.6794,568.9912 2683.9763,568.9912 Q2681.4763,568.9912 2680.1481,567.3506 Q2678.8356,565.6944 2678.8356,562.5694 Q2678.8356,559.4444 2680.1481,557.7881 Q2681.4763,556.1319 2683.9763,556.1319 Q2684.6794,556.1319 2685.32,556.2881 Q2685.9763,556.4444 2686.5388,556.7412 L2686.5388,559.46 Q2685.9138,558.8819 2685.32,558.6162 Q2684.7263,558.335 2684.1013,558.335 Q2682.7575,558.335 2682.07,559.4131 Q2681.3825,560.4756 2681.3825,562.5694 Q2681.3825,564.6631 2682.07,565.7412 Q2682.7575,566.8037 2684.1013,566.8037 Q2684.7263,566.8037 2685.32,566.5381 Q2685.9138,566.2569 2686.5388,565.6787 L2686.5388,568.3975 Z " fill="#000000"/><text fill="#000000" font-family="sans-serif" font-size="14" lengthAdjust="spacing" textLength="238.8545" x="2697.57" y="567.6036">DiffractionExperimentWithSample</text><line style="stroke:#181818;stroke-width:0.5;" x1="2669.57" x2="2938.4245" y1="578.7569" y2="578.7569"/><line style="stroke:#181818;stroke-width:0.5;" x1="2669.57" x2="2938.4245" y1="586.7569" y2="586.7569"/></g><!--class GridCommon--><g id="elem_GridCommon"><rect codeLine="74" fill="#F1F1F1" height="145.7813" id="GridCommon" rx="2.5" ry="2.5" style="stroke:#181818;stroke-width:0.5;" width="332.332" x="2637.83" y="654.7569"/><ellipse cx="2753.5282" cy="670.7569" fill="#ADD1B2" rx="11" ry="11" style="stroke:#181818;stroke-width:1;"/><path d="M2756.497,676.3975 Q2755.9189,676.6944 2755.2782,676.835 Q2754.6376,676.9912 2753.9345,676.9912 Q2751.4345,676.9912 2750.1064,675.3506 Q2748.7939,673.6944 2748.7939,670.5694 Q2748.7939,667.4444 2750.1064,665.7881 Q2751.4345,664.1319 2753.9345,664.1319 Q2754.6376,664.1319 2755.2782,664.2881 Q2755.9345,664.4444 2756.497,664.7412 L2756.497,667.46 Q2755.872,666.8819 2755.2782,666.6162 Q2754.6845,666.335 2754.0595,666.335 Q2752.7157,666.335 2752.0282,667.4131 Q2751.3407,668.4756 2751.3407,670.5694 Q2751.3407,672.6631 2752.0282,673.7412 Q2752.7157,674.8037 2754.0595,674.8037 Q2754.6845,674.8037 2755.2782,674.5381 Q2755.872,674.2569 2756.497,673.6787 L2756.497,676.3975 Z " fill="#000000"/><text fill="#000000" font-family="sans-serif" font-size="14" lengthAdjust="spacing" textLength="92.4355" x="2774.0282" y="675.6036">GridCommon</text><line style="stroke:#181818;stroke-width:0.5;" x1="2638.83" x2="2969.162" y1="686.7569" y2="686.7569"/><text fill="#000000" font-family="sans-serif" font-size="14" lengthAdjust="spacing" textLength="125.2959" x="2643.83" y="703.752">float box_size_um</text><text fill="#000000" font-family="sans-serif" font-size="14" lengthAdjust="spacing" textLength="138.4209" x="2643.83" y="720.0489">float grid_width_um</text><text fill="#000000" font-family="sans-serif" font-size="14" lengthAdjust="spacing" textLength="153.7129" x="2643.83" y="736.3457">float exposure_time_s</text><text fill="#000000" font-family="sans-serif" font-size="14" lengthAdjust="spacing" textLength="320.332" x="2643.83" y="752.6426">IspybExperimentType ispyb_experiment_type</text><text fill="#000000" font-family="sans-serif" font-size="14" lengthAdjust="spacing" textLength="282.3516" x="2643.83" y="768.9395">ApertureValue | None selected_aperture</text><text fill="#000000" font-family="sans-serif" font-size="14" lengthAdjust="spacing" textLength="130.498" x="2643.83" y="785.2364">float tip_offset_um</text><line style="stroke:#181818;stroke-width:0.5;" x1="2638.83" x2="2969.162" y1="792.5381" y2="792.5381"/></g><!--class SpecifiedThreeDGridScan--><g id="elem_SpecifiedThreeDGridScan"><rect codeLine="82" fill="#F1F1F1" height="227.2656" id="SpecifiedThreeDGridScan" rx="2.5" ry="2.5" style="stroke:#181818;stroke-width:0.5;" width="210.8965" x="2637.55" y="860.5369"/><ellipse cx="2652.55" cy="876.5369" fill="#ADD1B2" rx="11" ry="11" style="stroke:#181818;stroke-width:1;"/><path d="M2655.5188,882.1775 Q2654.9406,882.4744 2654.3,882.615 Q2653.6594,882.7713 2652.9563,882.7713 Q2650.4563,882.7713 2649.1281,881.1306 Q2647.8156,879.4744 2647.8156,876.3494 Q2647.8156,873.2244 2649.1281,871.5681 Q2650.4563,869.9119 2652.9563,869.9119 Q2653.6594,869.9119 2654.3,870.0681 Q2654.9563,870.2244 2655.5188,870.5213 L2655.5188,873.24 Q2654.8938,872.6619 2654.3,872.3963 Q2653.7063,872.115 2653.0813,872.115 Q2651.7375,872.115 2651.05,873.1931 Q2650.3625,874.2556 2650.3625,876.3494 Q2650.3625,878.4431 2651.05,879.5213 Q2651.7375,880.5838 2653.0813,880.5838 Q2653.7063,880.5838 2654.3,880.3181 Q2654.8938,880.0369 2655.5188,879.4588 L2655.5188,882.1775 Z " fill="#000000"/><text fill="#000000" font-family="sans-serif" font-size="14" lengthAdjust="spacing" textLength="178.8965" x="2666.55" y="881.3836">SpecifiedThreeDGridScan</text><line style="stroke:#181818;stroke-width:0.5;" x1="2638.55" x2="2847.4465" y1="892.5369" y2="892.5369"/><text fill="#000000" font-family="sans-serif" font-size="14" lengthAdjust="spacing" textLength="160.8975" x="2643.55" y="909.532">float grid1_omega_deg</text><text fill="#000000" font-family="sans-serif" font-size="14" lengthAdjust="spacing" textLength="160.8975" x="2643.55" y="925.8289">float grid2_omega_deg</text><text fill="#000000" font-family="sans-serif" font-size="14" lengthAdjust="spacing" textLength="145.127" x="2643.55" y="942.1257">float x_step_size_um</text><text fill="#000000" font-family="sans-serif" font-size="14" lengthAdjust="spacing" textLength="145.127" x="2643.55" y="958.4226">float y_step_size_um</text><text fill="#000000" font-family="sans-serif" font-size="14" lengthAdjust="spacing" textLength="144.1904" x="2643.55" y="974.7195">float z_step_size_um</text><text fill="#000000" font-family="sans-serif" font-size="14" lengthAdjust="spacing" textLength="122.2129" x="2643.55" y="991.0164">float y2_start_um</text><text fill="#000000" font-family="sans-serif" font-size="14" lengthAdjust="spacing" textLength="121.2764" x="2643.55" y="1007.3132">float z2_start_um</text><text fill="#000000" font-family="sans-serif" font-size="14" lengthAdjust="spacing" textLength="75.5645" x="2643.55" y="1023.6101">int x_steps</text><text fill="#000000" font-family="sans-serif" font-size="14" lengthAdjust="spacing" textLength="75.5645" x="2643.55" y="1039.907">int y_steps</text><text fill="#000000" font-family="sans-serif" font-size="14" lengthAdjust="spacing" textLength="74.6279" x="2643.55" y="1056.2039">int z_steps</text><text fill="#000000" font-family="sans-serif" font-size="14" lengthAdjust="spacing" textLength="154.4102" x="2643.55" y="1072.5007">bool _set_stub_offsets</text><line style="stroke:#181818;stroke-width:0.5;" x1="2638.55" x2="2847.4465" y1="1079.8025" y2="1079.8025"/></g><!--class RotationScanPerSweep--><g id="elem_RotationScanPerSweep"><rect codeLine="98" fill="#F1F1F1" height="129.4844" id="RotationScanPerSweep" rx="2.5" ry="2.5" style="stroke:#181818;stroke-width:0.5;" width="263.0498" x="3881.48" y="909.4269"/><ellipse cx="3927.5166" cy="925.4269" fill="#ADD1B2" rx="11" ry="11" style="stroke:#181818;stroke-width:1;"/><path d="M3930.4854,931.0675 Q3929.9072,931.3644 3929.2666,931.505 Q3928.626,931.6612 3927.9229,931.6612 Q3925.4229,931.6612 3924.0947,930.0206 Q3922.7822,928.3644 3922.7822,925.2394 Q3922.7822,922.1144 3924.0947,920.4581 Q3925.4229,918.8019 3927.9229,918.8019 Q3928.626,918.8019 3929.2666,918.9581 Q3929.9229,919.1144 3930.4854,919.4112 L3930.4854,922.13 Q3929.8604,921.5519 3929.2666,921.2862 Q3928.6729,921.005 3928.0479,921.005 Q3926.7041,921.005 3926.0166,922.0831 Q3925.3291,923.1456 3925.3291,925.2394 Q3925.3291,927.3331 3926.0166,928.4112 Q3926.7041,929.4737 3928.0479,929.4737 Q3928.6729,929.4737 3929.2666,929.2081 Q3929.8604,928.9269 3930.4854,928.3487 L3930.4854,931.0675 Z " fill="#000000"/><text fill="#000000" font-family="sans-serif" font-size="14" lengthAdjust="spacing" textLength="162.4766" x="3948.0166" y="930.2736">RotationScanPerSweep</text><line style="stroke:#181818;stroke-width:0.5;" x1="3882.48" x2="4143.5298" y1="941.4269" y2="941.4269"/><text fill="#000000" font-family="sans-serif" font-size="14" lengthAdjust="spacing" textLength="157.1787" x="3887.48" y="958.422">float omega_start_deg</text><text fill="#000000" font-family="sans-serif" font-size="14" lengthAdjust="spacing" textLength="182.9297" x="3887.48" y="974.7189">RotationAxis rotation_axis</text><text fill="#000000" font-family="sans-serif" font-size="14" lengthAdjust="spacing" textLength="147.3213" x="3887.48" y="991.0157">float scan_width_deg</text><text fill="#000000" font-family="sans-serif" font-size="14" lengthAdjust="spacing" textLength="251.0498" x="3887.48" y="1007.3126">RotationDirection rotation_direction</text><text fill="#000000" font-family="sans-serif" font-size="14" lengthAdjust="spacing" textLength="169.1279" x="3887.48" y="1023.6095">int nexus_vds_start_img</text><line style="stroke:#181818;stroke-width:0.5;" x1="3882.48" x2="4143.5298" y1="1030.9112" y2="1030.9112"/></g><!--class HyperionSpecifiedThreeDGridScan--><g id="elem_HyperionSpecifiedThreeDGridScan"><rect codeLine="105" fill="#F1F1F1" height="48" id="HyperionSpecifiedThreeDGridScan" rx="2.5" ry="2.5" style="stroke:#181818;stroke-width:0.5;" width="274.293" x="4179.85" y="950.1669"/><ellipse cx="4194.85" cy="966.1669" fill="#ADD1B2" rx="11" ry="11" style="stroke:#181818;stroke-width:1;"/><path d="M4197.8188,971.8075 Q4197.2406,972.1044 4196.6,972.245 Q4195.9594,972.4012 4195.2563,972.4012 Q4192.7563,972.4012 4191.4281,970.7606 Q4190.1156,969.1044 4190.1156,965.9794 Q4190.1156,962.8544 4191.4281,961.1981 Q4192.7563,959.5419 4195.2563,959.5419 Q4195.9594,959.5419 4196.6,959.6981 Q4197.2563,959.8544 4197.8188,960.1512 L4197.8188,962.87 Q4197.1938,962.2919 4196.6,962.0262 Q4196.0063,961.745 4195.3813,961.745 Q4194.0375,961.745 4193.35,962.8231 Q4192.6625,963.8856 4192.6625,965.9794 Q4192.6625,968.0731 4193.35,969.1512 Q4194.0375,970.2137 4195.3813,970.2137 Q4196.0063,970.2137 4196.6,969.9481 Q4197.1938,969.6669 4197.8188,969.0887 L4197.8188,971.8075 Z " fill="#000000"/><text fill="#000000" font-family="sans-serif" font-size="14" lengthAdjust="spacing" textLength="242.293" x="4208.85" y="971.0136">HyperionSpecifiedThreeDGridScan</text><line style="stroke:#181818;stroke-width:0.5;" x1="4180.85" x2="4453.143" y1="982.1669" y2="982.1669"/><line style="stroke:#181818;stroke-width:0.5;" x1="4180.85" x2="4453.143" y1="990.1669" y2="990.1669"/></g><!--class MultiRotationScan--><g id="elem_MultiRotationScan"><rect codeLine="107" fill="#F1F1F1" height="64.2969" id="MultiRotationScan" rx="2.5" ry="2.5" style="stroke:#181818;stroke-width:0.5;" width="540.001" x="4199" y="1147.7969"/><ellipse cx="4401.0327" cy="1163.7969" fill="#ADD1B2" rx="11" ry="11" style="stroke:#181818;stroke-width:1;"/><path d="M4404.0015,1169.4375 Q4403.4233,1169.7344 4402.7827,1169.875 Q4402.1421,1170.0313 4401.439,1170.0313 Q4398.939,1170.0313 4397.6108,1168.3906 Q4396.2983,1166.7344 4396.2983,1163.6094 Q4396.2983,1160.4844 4397.6108,1158.8281 Q4398.939,1157.1719 4401.439,1157.1719 Q4402.1421,1157.1719 4402.7827,1157.3281 Q4403.439,1157.4844 4404.0015,1157.7813 L4404.0015,1160.5 Q4403.3765,1159.9219 4402.7827,1159.6563 Q4402.189,1159.375 4401.564,1159.375 Q4400.2202,1159.375 4399.5327,1160.4531 Q4398.8452,1161.5156 4398.8452,1163.6094 Q4398.8452,1165.7031 4399.5327,1166.7813 Q4400.2202,1167.8438 4401.564,1167.8438 Q4402.189,1167.8438 4402.7827,1167.5781 Q4403.3765,1167.2969 4404.0015,1166.7188 L4404.0015,1169.4375 Z " fill="#000000"/><text fill="#000000" font-family="sans-serif" font-size="14" lengthAdjust="spacing" textLength="127.4355" x="4421.5327" y="1168.6436">MultiRotationScan</text><line style="stroke:#181818;stroke-width:0.5;" x1="4200" x2="4738.001" y1="1179.7969" y2="1179.7969"/><line style="stroke:#181818;stroke-width:0.5;" x1="4200" x2="4738.001" y1="1187.7969" y2="1187.7969"/><text fill="#000000" font-family="sans-serif" font-size="14" lengthAdjust="spacing" textLength="528.001" x="4205" y="1204.792">Annotated[list[RotationScanPerSweep], Len(min_length=1)] rotation_scans</text></g><!--class RotationExperiment--><g id="elem_RotationExperiment"><rect codeLine="110" fill="#F1F1F1" height="96.8906" id="RotationExperiment" rx="2.5" ry="2.5" style="stroke:#181818;stroke-width:0.5;" width="332.332" x="3513.83" y="925.7269"/><ellipse cx="3605.7118" cy="941.7269" fill="#ADD1B2" rx="11" ry="11" style="stroke:#181818;stroke-width:1;"/><path d="M3608.6806,947.3675 Q3608.1025,947.6644 3607.4618,947.805 Q3606.8212,947.9613 3606.1181,947.9613 Q3603.6181,947.9613 3602.29,946.3206 Q3600.9775,944.6644 3600.9775,941.5394 Q3600.9775,938.4144 3602.29,936.7581 Q3603.6181,935.1019 3606.1181,935.1019 Q3606.8212,935.1019 3607.4618,935.2581 Q3608.1181,935.4144 3608.6806,935.7113 L3608.6806,938.43 Q3608.0556,937.8519 3607.4618,937.5863 Q3606.8681,937.305 3606.2431,937.305 Q3604.8993,937.305 3604.2118,938.3831 Q3603.5243,939.4456 3603.5243,941.5394 Q3603.5243,943.6331 3604.2118,944.7113 Q3604.8993,945.7738 3606.2431,945.7738 Q3606.8681,945.7738 3607.4618,945.5081 Q3608.0556,945.2269 3608.6806,944.6488 L3608.6806,947.3675 Z " fill="#000000"/><text fill="#000000" font-family="sans-serif" font-size="14" lengthAdjust="spacing" textLength="140.0684" x="3626.2118" y="946.5736">RotationExperiment</text><line style="stroke:#181818;stroke-width:0.5;" x1="3514.83" x2="3845.162" y1="957.7269" y2="957.7269"/><text fill="#000000" font-family="sans-serif" font-size="14" lengthAdjust="spacing" textLength="202.8018" x="3519.83" y="974.722">float shutter_opening_time_s</text><text fill="#000000" font-family="sans-serif" font-size="14" lengthAdjust="spacing" textLength="202.9385" x="3519.83" y="991.0189">float rotation_increment_deg</text><text fill="#000000" font-family="sans-serif" font-size="14" lengthAdjust="spacing" textLength="320.332" x="3519.83" y="1007.3157">IspybExperimentType ispyb_experiment_type</text><line style="stroke:#181818;stroke-width:0.5;" x1="3514.83" x2="3845.162" y1="1014.6175" y2="1014.6175"/></g><!--class GridScanWithEdgeDetect--><g id="elem_GridScanWithEdgeDetect"><rect codeLine="115" fill="#F1F1F1" height="48" id="GridScanWithEdgeDetect" rx="2.5" ry="2.5" style="stroke:#181818;stroke-width:0.5;" width="209.4268" x="3305.29" y="1155.9469"/><ellipse cx="3320.29" cy="1171.9469" fill="#ADD1B2" rx="11" ry="11" style="stroke:#181818;stroke-width:1;"/><path d="M3323.2588,1177.5875 Q3322.6806,1177.8844 3322.04,1178.025 Q3321.3994,1178.1812 3320.6963,1178.1812 Q3318.1963,1178.1812 3316.8681,1176.5406 Q3315.5556,1174.8844 3315.5556,1171.7594 Q3315.5556,1168.6344 3316.8681,1166.9781 Q3318.1963,1165.3219 3320.6963,1165.3219 Q3321.3994,1165.3219 3322.04,1165.4781 Q3322.6963,1165.6344 3323.2588,1165.9312 L3323.2588,1168.65 Q3322.6338,1168.0719 3322.04,1167.8062 Q3321.4463,1167.525 3320.8213,1167.525 Q3319.4775,1167.525 3318.79,1168.6031 Q3318.1025,1169.6656 3318.1025,1171.7594 Q3318.1025,1173.8531 3318.79,1174.9312 Q3319.4775,1175.9937 3320.8213,1175.9937 Q3321.4463,1175.9937 3322.04,1175.7281 Q3322.6338,1175.4469 3323.2588,1174.8687 L3323.2588,1177.5875 Z " fill="#000000"/><text fill="#000000" font-family="sans-serif" font-size="14" lengthAdjust="spacing" textLength="177.4268" x="3334.29" y="1176.7936">GridScanWithEdgeDetect</text><line style="stroke:#181818;stroke-width:0.5;" x1="3306.29" x2="3513.7168" y1="1187.9469" y2="1187.9469"/><line style="stroke:#181818;stroke-width:0.5;" x1="3306.29" x2="3513.7168" y1="1195.9469" y2="1195.9469"/></g><!--class RobotLoadThenCentre--><g id="elem_RobotLoadThenCentre"><rect codeLine="117" fill="#F1F1F1" height="64.2969" id="RobotLoadThenCentre" rx="2.5" ry="2.5" style="stroke:#181818;stroke-width:0.5;" width="212.9355" x="3549.53" y="1147.7969"/><ellipse cx="3575.2575" cy="1163.7969" fill="#ADD1B2" rx="11" ry="11" style="stroke:#181818;stroke-width:1;"/><path d="M3578.2262,1169.4375 Q3577.6481,1169.7344 3577.0075,1169.875 Q3576.3669,1170.0313 3575.6637,1170.0313 Q3573.1637,1170.0313 3571.8356,1168.3906 Q3570.5231,1166.7344 3570.5231,1163.6094 Q3570.5231,1160.4844 3571.8356,1158.8281 Q3573.1637,1157.1719 3575.6637,1157.1719 Q3576.3669,1157.1719 3577.0075,1157.3281 Q3577.6637,1157.4844 3578.2262,1157.7813 L3578.2262,1160.5 Q3577.6012,1159.9219 3577.0075,1159.6563 Q3576.4137,1159.375 3575.7887,1159.375 Q3574.445,1159.375 3573.7575,1160.4531 Q3573.07,1161.5156 3573.07,1163.6094 Q3573.07,1165.7031 3573.7575,1166.7813 Q3574.445,1167.8438 3575.7887,1167.8438 Q3576.4137,1167.8438 3577.0075,1167.5781 Q3577.6012,1167.2969 3578.2262,1166.7188 L3578.2262,1169.4375 Z " fill="#000000"/><text fill="#000000" font-family="sans-serif" font-size="14" lengthAdjust="spacing" textLength="157.0967" x="3591.6414" y="1168.6436">RobotLoadThenCentre</text><line style="stroke:#181818;stroke-width:0.5;" x1="3550.53" x2="3761.4655" y1="1179.7969" y2="1179.7969"/><text fill="#000000" font-family="sans-serif" font-size="14" lengthAdjust="spacing" textLength="200.9355" x="3555.53" y="1196.792">&lt;class 'float'&gt; thawing_time</text><line style="stroke:#181818;stroke-width:0.5;" x1="3550.53" x2="3761.4655" y1="1204.0938" y2="1204.0938"/></g><!--class PinTipCentreThenXrayCentre--><g id="elem_PinTipCentreThenXrayCentre"><rect codeLine="120" fill="#F1F1F1" height="64.2969" id="PinTipCentreThenXrayCentre" rx="2.5" ry="2.5" style="stroke:#181818;stroke-width:0.5;" width="235.8955" x="3034.05" y="1147.7969"/><ellipse cx="3049.05" cy="1163.7969" fill="#ADD1B2" rx="11" ry="11" style="stroke:#181818;stroke-width:1;"/><path d="M3052.0188,1169.4375 Q3051.4406,1169.7344 3050.8,1169.875 Q3050.1594,1170.0313 3049.4563,1170.0313 Q3046.9563,1170.0313 3045.6281,1168.3906 Q3044.3156,1166.7344 3044.3156,1163.6094 Q3044.3156,1160.4844 3045.6281,1158.8281 Q3046.9563,1157.1719 3049.4563,1157.1719 Q3050.1594,1157.1719 3050.8,1157.3281 Q3051.4563,1157.4844 3052.0188,1157.7813 L3052.0188,1160.5 Q3051.3938,1159.9219 3050.8,1159.6563 Q3050.2063,1159.375 3049.5813,1159.375 Q3048.2375,1159.375 3047.55,1160.4531 Q3046.8625,1161.5156 3046.8625,1163.6094 Q3046.8625,1165.7031 3047.55,1166.7813 Q3048.2375,1167.8438 3049.5813,1167.8438 Q3050.2063,1167.8438 3050.8,1167.5781 Q3051.3938,1167.2969 3052.0188,1166.7188 L3052.0188,1169.4375 Z " fill="#000000"/><text fill="#000000" font-family="sans-serif" font-size="14" lengthAdjust="spacing" textLength="203.8955" x="3063.05" y="1168.6436">PinTipCentreThenXrayCentre</text><line style="stroke:#181818;stroke-width:0.5;" x1="3035.05" x2="3268.9455" y1="1179.7969" y2="1179.7969"/><text fill="#000000" font-family="sans-serif" font-size="14" lengthAdjust="spacing" textLength="130.498" x="3040.05" y="1196.792">float tip_offset_um</text><line style="stroke:#181818;stroke-width:0.5;" x1="3035.05" x2="3268.9455" y1="1204.0938" y2="1204.0938"/></g><!--class LoadCentreCollect--><g id="elem_LoadCentreCollect"><rect codeLine="123" fill="#F1F1F1" height="80.5938" id="LoadCentreCollect" rx="2.5" ry="2.5" style="stroke:#181818;stroke-width:0.5;" width="338.6211" x="4488.69" y="933.8669"/><ellipse cx="4589.315" cy="949.8669" fill="#ADD1B2" rx="11" ry="11" style="stroke:#181818;stroke-width:1;"/><path d="M4592.2838,955.5075 Q4591.7056,955.8044 4591.065,955.945 Q4590.4244,956.1012 4589.7213,956.1012 Q4587.2213,956.1012 4585.8931,954.4606 Q4584.5806,952.8044 4584.5806,949.6794 Q4584.5806,946.5544 4585.8931,944.8981 Q4587.2213,943.2419 4589.7213,943.2419 Q4590.4244,943.2419 4591.065,943.3981 Q4591.7213,943.5544 4592.2838,943.8512 L4592.2838,946.57 Q4591.6588,945.9919 4591.065,945.7262 Q4590.4713,945.445 4589.8463,945.445 Q4588.5025,945.445 4587.815,946.5231 Q4587.1275,947.5856 4587.1275,949.6794 Q4587.1275,951.7731 4587.815,952.8512 Q4588.5025,953.9137 4589.8463,953.9137 Q4590.4713,953.9137 4591.065,953.6481 Q4591.6588,953.3669 4592.2838,952.7887 L4592.2838,955.5075 Z " fill="#000000"/><text fill="#000000" font-family="sans-serif" font-size="14" lengthAdjust="spacing" textLength="128.8711" x="4609.815" y="954.7136">LoadCentreCollect</text><line style="stroke:#181818;stroke-width:0.5;" x1="4489.69" x2="4826.3111" y1="965.8669" y2="965.8669"/><text fill="#000000" font-family="sans-serif" font-size="14" lengthAdjust="spacing" textLength="326.6211" x="4494.69" y="982.862">RobotLoadThenCentre robot_load_then_centre</text><text fill="#000000" font-family="sans-serif" font-size="14" lengthAdjust="spacing" textLength="269.3154" x="4494.69" y="999.1589">MultiRotationScan multi_rotation_scan</text><line style="stroke:#181818;stroke-width:0.5;" x1="4489.69" x2="4826.3111" y1="1006.4606" y2="1006.4606"/></g><!--class WithHyperionUDCFeatures--><g id="elem_WithHyperionUDCFeatures"><rect codeLine="127" fill="#F1F1F1" height="64.2969" id="WithHyperionUDCFeatures" rx="2.5" ry="2.5" style="stroke:#181818;stroke-width:0.5;" width="228.6719" x="3344.66" y="695.4969"/><ellipse cx="3363.7583" cy="711.4969" fill="#ADD1B2" rx="11" ry="11" style="stroke:#181818;stroke-width:1;"/><path d="M3366.7271,717.1375 Q3366.149,717.4344 3365.5083,717.575 Q3364.8677,717.7312 3364.1646,717.7312 Q3361.6646,717.7312 3360.3365,716.0906 Q3359.024,714.4344 3359.024,711.3094 Q3359.024,708.1844 3360.3365,706.5281 Q3361.6646,704.8719 3364.1646,704.8719 Q3364.8677,704.8719 3365.5083,705.0281 Q3366.1646,705.1844 3366.7271,705.4812 L3366.7271,708.2 Q3366.1021,707.6219 3365.5083,707.3562 Q3364.9146,707.075 3364.2896,707.075 Q3362.9458,707.075 3362.2583,708.1531 Q3361.5708,709.2156 3361.5708,711.3094 Q3361.5708,713.4031 3362.2583,714.4812 Q3362.9458,715.5437 3364.2896,715.5437 Q3364.9146,715.5437 3365.5083,715.2781 Q3366.1021,714.9969 3366.7271,714.4187 L3366.7271,717.1375 Z " fill="#000000"/><text fill="#000000" font-family="sans-serif" font-size="14" lengthAdjust="spacing" textLength="187.5645" x="3378.6691" y="716.3436">WithHyperionUDCFeatures</text><line style="stroke:#181818;stroke-width:0.5;" x1="3345.66" x2="3572.3319" y1="727.4969" y2="727.4969"/><text fill="#000000" font-family="sans-serif" font-size="14" lengthAdjust="spacing" textLength="216.6719" x="3350.66" y="744.492">HyperionFeatureFlags features</text><line style="stroke:#181818;stroke-width:0.5;" x1="3345.66" x2="3572.3319" y1="751.7937" y2="751.7937"/></g><!--class RotationScan--><g id="elem_RotationScan"><rect codeLine="130" fill="#F1F1F1" height="48" id="RotationScan" rx="2.5" ry="2.5" style="stroke:#181818;stroke-width:0.5;" width="125.2148" x="3950.39" y="1155.9469"/><ellipse cx="3965.39" cy="1171.9469" fill="#ADD1B2" rx="11" ry="11" style="stroke:#181818;stroke-width:1;"/><path d="M3968.3588,1177.5875 Q3967.7806,1177.8844 3967.14,1178.025 Q3966.4994,1178.1812 3965.7963,1178.1812 Q3963.2963,1178.1812 3961.9681,1176.5406 Q3960.6556,1174.8844 3960.6556,1171.7594 Q3960.6556,1168.6344 3961.9681,1166.9781 Q3963.2963,1165.3219 3965.7963,1165.3219 Q3966.4994,1165.3219 3967.14,1165.4781 Q3967.7963,1165.6344 3968.3588,1165.9312 L3968.3588,1168.65 Q3967.7338,1168.0719 3967.14,1167.8062 Q3966.5463,1167.525 3965.9213,1167.525 Q3964.5775,1167.525 3963.89,1168.6031 Q3963.2025,1169.6656 3963.2025,1171.7594 Q3963.2025,1173.8531 3963.89,1174.9312 Q3964.5775,1175.9937 3965.9213,1175.9937 Q3966.5463,1175.9937 3967.14,1175.7281 Q3967.7338,1175.4469 3968.3588,1174.8687 L3968.3588,1177.5875 Z " fill="#000000"/><text fill="#000000" font-family="sans-serif" font-size="14" lengthAdjust="spacing" textLength="93.2148" x="3979.39" y="1176.7936">RotationScan</text><line style="stroke:#181818;stroke-width:0.5;" x1="3951.39" x2="4074.6048" y1="1187.9469" y2="1187.9469"/><line style="stroke:#181818;stroke-width:0.5;" x1="3951.39" x2="4074.6048" y1="1195.9469" y2="1195.9469"/></g><!--class GridCommonWithHyperionDetectorParams--><g id="elem_GridCommonWithHyperionDetectorParams"><rect codeLine="132" fill="#F1F1F1" height="48" id="GridCommonWithHyperionDetectorParams" rx="2.5" ry="2.5" style="stroke:#181818;stroke-width:0.5;" width="333.2188" x="3071.39" y="950.1669"/><ellipse cx="3086.39" cy="966.1669" fill="#ADD1B2" rx="11" ry="11" style="stroke:#181818;stroke-width:1;"/><path d="M3089.3588,971.8075 Q3088.7806,972.1044 3088.14,972.245 Q3087.4994,972.4012 3086.7963,972.4012 Q3084.2963,972.4012 3082.9681,970.7606 Q3081.6556,969.1044 3081.6556,965.9794 Q3081.6556,962.8544 3082.9681,961.1981 Q3084.2963,959.5419 3086.7963,959.5419 Q3087.4994,959.5419 3088.14,959.6981 Q3088.7963,959.8544 3089.3588,960.1512 L3089.3588,962.87 Q3088.7338,962.2919 3088.14,962.0262 Q3087.5463,961.745 3086.9213,961.745 Q3085.5775,961.745 3084.89,962.8231 Q3084.2025,963.8856 3084.2025,965.9794 Q3084.2025,968.0731 3084.89,969.1512 Q3085.5775,970.2137 3086.9213,970.2137 Q3087.5463,970.2137 3088.14,969.9481 Q3088.7338,969.6669 3089.3588,969.0887 L3089.3588,971.8075 Z " fill="#000000"/><text fill="#000000" font-family="sans-serif" font-size="14" lengthAdjust="spacing" textLength="301.2188" x="3100.39" y="971.0136">GridCommonWithHyperionDetectorParams</text><line style="stroke:#181818;stroke-width:0.5;" x1="3072.39" x2="3403.6088" y1="982.1669" y2="982.1669"/><line style="stroke:#181818;stroke-width:0.5;" x1="3072.39" x2="3403.6088" y1="990.1669" y2="990.1669"/></g><!--reverse link OptionalGonioAngleStarts to RotationScanPerSweep--><g id="link_OptionalGonioAngleStarts_RotationScanPerSweep"><path codeLine="135" d="M689.4002,214.3565 C697.5302,217.3665 688.86,213.7469 697,215.7869 C1190.56,339.5469 2498.63,129.5169 2986,275.7869 C3402.2,400.6969 3799.86,761.4369 3950.01,909.0469 " fill="#FFFFFF" fill-opacity="0.00000" id="OptionalGonioAngleStarts-backto-RotationScanPerSweep" style="stroke:#181818;stroke-width:1;"/><polygon fill="#FFFFFF" fill-opacity="0.00000" points="672.52,208.1069,687.317,219.9832,691.4834,208.7298,672.52,208.1069" style="stroke:#181818;stroke-width:1;"/></g><!--reverse link OptionalXyzStarts to RotationScanPerSweep--><g id="link_OptionalXyzStarts_RotationScanPerSweep"><path codeLine="136" d="M1554.8493,208.4691 C1566.7193,214.8591 1563.45,211.9869 1576,215.7869 C1726.08,261.2369 2854.55,190.2869 2986,275.7869 C3204.19,417.6969 3031.74,652.7569 3246,800.5369 C3359.58,878.8769 3735.46,810.3769 3864,860.5369 C3892.85,871.7869 3920.91,890.3269 3944.76,909.1369 " fill="#FFFFFF" fill-opacity="0.00000" id="OptionalXyzStarts-backto-RotationScanPerSweep" style="stroke:#181818;stroke-width:1;"/><polygon fill="#FFFFFF" fill-opacity="0.00000" points="1539,199.9369,1552.0053,213.7522,1557.6934,203.186,1539,199.9369" style="stroke:#181818;stroke-width:1;"/></g><!--reverse link MxBlueskyParameters to DiffractionExperiment--><g id="link_MxBlueskyParameters_DiffractionExperiment"><path codeLine="137" d="M2807.9224,201.2925 C2807.3924,225.2825 2807.03,241.8769 2806.3,275.3969 " fill="#FFFFFF" fill-opacity="0.00000" id="MxBlueskyParameters-backto-DiffractionExperiment" style="stroke:#181818;stroke-width:1;"/><polygon fill="#FFFFFF" fill-opacity="0.00000" points="2808.32,183.2969,2801.9239,201.16,2813.921,201.425,2808.32,183.2969" style="stroke:#181818;stroke-width:1;"/></g><!--reverse link WithSnapshot to DiffractionExperiment--><g id="link_WithSnapshot_DiffractionExperiment"><path codeLine="138" d="M961.0996,198.454 C985.3596,208.044 995.41,210.4369 1021,215.7869 C1371.23,288.9969 2287.04,173.8069 2630,275.7869 C2632.45,276.5169 2634.9,277.2869 2637.35,278.0969 " fill="#FFFFFF" fill-opacity="0.00000" id="WithSnapshot-backto-DiffractionExperiment" style="stroke:#181818;stroke-width:1;"/><polygon fill="#FFFFFF" fill-opacity="0.00000" points="944.36,191.8369,958.8938,204.0339,963.3053,192.8742,944.36,191.8369" style="stroke:#181818;stroke-width:1;"/></g><!--reverse link WithOptionalEnergyChange to DiffractionExperiment--><g id="link_WithOptionalEnergyChange_DiffractionExperiment"><path codeLine="139" d="M377.5843,191.9229 C401.6343,204.4129 414.89,209.0769 443,215.7869 C915.9,328.6469 2163.31,139.5069 2630,275.7869 C2632.45,276.4969 2634.91,277.2569 2637.36,278.0569 " fill="#FFFFFF" fill-opacity="0.00000" id="WithOptionalEnergyChange-backto-DiffractionExperiment" style="stroke:#181818;stroke-width:1;"/><polygon fill="#FFFFFF" fill-opacity="0.00000" points="361.61,183.6269,374.8189,197.2476,380.3496,186.5981,361.61,183.6269" style="stroke:#181818;stroke-width:1;"/></g><!--reverse link WithVisit to DiffractionExperiment--><g id="link_WithVisit_DiffractionExperiment"><path codeLine="140" d="M2014.3408,216.3126 C2281.1408,283.2726 2368.8,189.5369 2630,275.7869 C2632.51,276.6169 2635.02,277.4869 2637.53,278.3869 " fill="#FFFFFF" fill-opacity="0.00000" id="WithVisit-backto-DiffractionExperiment" style="stroke:#181818;stroke-width:1;"/><polygon fill="#FFFFFF" fill-opacity="0.00000" points="1997.11,211.1069,2012.6055,222.0562,2016.076,210.569,1997.11,211.1069" style="stroke:#181818;stroke-width:1;"/></g><!--reverse link SpecifiedThreeDGridScan to HyperionSpecifiedThreeDGridScan--><g id="link_SpecifiedThreeDGridScan_HyperionSpecifiedThreeDGridScan"><path codeLine="141" d="M2864.3731,898.9242 C2918.1131,868.9742 2970.06,845.7369 3035.5,830.5369 C3155.53,802.6569 4028.63,788.6069 4144.5,830.5369 C4210.28,854.3369 4268.62,915.3769 4297.62,949.7269 " fill="#FFFFFF" fill-opacity="0.00000" id="SpecifiedThreeDGridScan-backto-HyperionSpecifiedThreeDGridScan" style="stroke:#181818;stroke-width:1;"/><polygon fill="#FFFFFF" fill-opacity="0.00000" points="2848.65,907.6869,2867.294,904.1652,2861.4522,893.6832,2848.65,907.6869" style="stroke:#181818;stroke-width:1;"/></g><!--reverse link WithHyperionUDCFeatures to HyperionSpecifiedThreeDGridScan--><g id="link_WithHyperionUDCFeatures_HyperionSpecifiedThreeDGridScan"><path codeLine="142" d="M3556.3321,766.4297 C3595.4921,780.6997 3626.67,790.4269 3671,800.5369 C3885.34,849.4269 3957.43,780.0069 4162,860.5369 C4214.16,881.0669 4264.8,923.3669 4293.33,949.8869 " fill="#FFFFFF" fill-opacity="0.00000" id="WithHyperionUDCFeatures-backto-HyperionSpecifiedThreeDGridScan" style="stroke:#181818;stroke-width:1;"/><polygon fill="#FFFFFF" fill-opacity="0.00000" points="3539.42,760.2669,3554.2778,772.0671,3558.3864,760.7923,3539.42,760.2669" style="stroke:#181818;stroke-width:1;"/></g><!--reverse link GridCommon to SpecifiedThreeDGridScan--><g id="link_GridCommon_SpecifiedThreeDGridScan"><path codeLine="143" d="M2781.591,818.4811 C2776.951,837.0711 2776.21,840.0569 2771.19,860.1669 " fill="#FFFFFF" fill-opacity="0.00000" id="GridCommon-backto-SpecifiedThreeDGridScan" style="stroke:#181818;stroke-width:1;"/><polygon fill="#FFFFFF" fill-opacity="0.00000" points="2785.95,801.0169,2775.7696,817.0281,2787.4124,819.9341,2785.95,801.0169" style="stroke:#181818;stroke-width:1;"/></g><!--reverse link SpecifiedGrid to SpecifiedThreeDGridScan--><g id="link_SpecifiedGrid_SpecifiedThreeDGridScan"><path codeLine="144" d="M1100.0183,422.8756 C1122.3783,495.7756 1196.25,702.5869 1350,800.5369 C1563.81,936.7469 2350.22,965.5869 2637.25,971.6069 " fill="#FFFFFF" fill-opacity="0.00000" id="SpecifiedGrid-backto-SpecifiedThreeDGridScan" style="stroke:#181818;stroke-width:1;"/><polygon fill="#FFFFFF" fill-opacity="0.00000" points="1094.74,405.6669,1094.282,424.635,1105.7545,421.1162,1094.74,405.6669" style="stroke:#181818;stroke-width:1;"/></g><!--reverse link SplitScan to SpecifiedThreeDGridScan--><g id="link_SplitScan_SpecifiedThreeDGridScan"><path codeLine="145" d="M1677.2128,187.9899 C1689.6528,200.4399 1692.89,203.0569 1708,215.7869 C2032.03,488.6369 2446.07,774.2369 2637.37,902.9469 " fill="#FFFFFF" fill-opacity="0.00000" id="SplitScan-backto-SpecifiedThreeDGridScan" style="stroke:#181818;stroke-width:1;"/><polygon fill="#FFFFFF" fill-opacity="0.00000" points="1664.49,175.2569,1672.9685,192.2308,1681.4572,183.749,1664.49,175.2569" style="stroke:#181818;stroke-width:1;"/></g><!--reverse link WithOptionalEnergyChange to SpecifiedThreeDGridScan--><g id="link_WithOptionalEnergyChange_SpecifiedThreeDGridScan"><path codeLine="146" d="M379.1332,191.7383 C402.9632,203.8983 415.59,208.4369 443,215.7869 C755.3,299.4869 877.2,134.4569 1168,275.7869 C1283.11,331.7269 1256.99,416.5469 1364,486.7569 C1789.85,766.1469 2395.17,906.3669 2637.12,953.9569 " fill="#FFFFFF" fill-opacity="0.00000" id="WithOptionalEnergyChange-backto-SpecifiedThreeDGridScan" style="stroke:#181818;stroke-width:1;"/><polygon fill="#FFFFFF" fill-opacity="0.00000" points="363.1,183.5569,376.4061,197.0827,381.8604,186.3939,363.1,183.5569" style="stroke:#181818;stroke-width:1;"/></g><!--reverse link RotationExperiment to MultiRotationScan--><g id="link_RotationExperiment_MultiRotationScan"><path codeLine="147" d="M3738.0812,1035.3568 C3772.6712,1068.6368 3810.46,1098.2969 3864,1119.7969 C3880.39,1126.3769 4045.09,1142.2569 4198.5,1155.8969 " fill="#FFFFFF" fill-opacity="0.00000" id="RotationExperiment-backto-MultiRotationScan" style="stroke:#181818;stroke-width:1;"/><polygon fill="#FFFFFF" fill-opacity="0.00000" points="3725.11,1022.8769,3733.9212,1039.6805,3742.2412,1031.0331,3725.11,1022.8769" style="stroke:#181818;stroke-width:1;"/></g><!--reverse link SplitScan to MultiRotationScan--><g id="link_SplitScan_MultiRotationScan"><path codeLine="148" d="M1670.1099,189.3949 C1681.9999,203.9449 1687.99,207.4769 1708,215.7869 C1872.13,283.8969 4772.27,158.7669 4906,275.7869 C5005.47,362.8169 4951,437.5769 4951,569.7569 C4951,569.7569 4951,569.7569 4951,728.6469 C4951,903.6369 5028.5,994.8269 4906,1119.7969 C4880.48,1145.8369 4813.45,1160.6869 4739.34,1169.0769 " fill="#FFFFFF" fill-opacity="0.00000" id="SplitScan-backto-MultiRotationScan" style="stroke:#181818;stroke-width:1;"/><polygon fill="#FFFFFF" fill-opacity="0.00000" points="1658.72,175.4569,1665.4639,193.1916,1674.756,185.5983,1658.72,175.4569" style="stroke:#181818;stroke-width:1;"/></g><!--reverse link DiffractionExperimentWithSample to RotationExperiment--><g id="link_DiffractionExperimentWithSample_RotationExperiment"><path codeLine="149" d="M2887.6174,601.7431 C2923.7074,615.8331 2951.46,629.0269 2988,652.4969 C3071.18,705.9169 3066.06,755.3869 3154,800.5369 C3262.59,856.2769 3305.98,822.6069 3422,860.5369 C3476.35,878.2969 3534.91,903.3569 3582.48,925.3269 " fill="#FFFFFF" fill-opacity="0.00000" id="DiffractionExperimentWithSample-backto-RotationExperiment" style="stroke:#181818;stroke-width:1;"/><polygon fill="#FFFFFF" fill-opacity="0.00000" points="2870.85,595.1969,2885.4354,607.3322,2889.7995,596.154,2870.85,595.1969" style="stroke:#181818;stroke-width:1;"/></g><!--reverse link WithHyperionUDCFeatures to RotationExperiment--><g id="link_WithHyperionUDCFeatures_RotationExperiment"><path codeLine="150" d="M3499.5098,773.4605 C3537.3998,815.3805 3592.7,876.5769 3636.87,925.4369 " fill="#FFFFFF" fill-opacity="0.00000" id="WithHyperionUDCFeatures-backto-RotationExperiment" style="stroke:#181818;stroke-width:1;"/><polygon fill="#FFFFFF" fill-opacity="0.00000" points="3487.44,760.1069,3495.0586,777.4838,3503.9611,769.4372,3487.44,760.1069" style="stroke:#181818;stroke-width:1;"/></g><!--reverse link GridCommonWithHyperionDetectorParams to GridScanWithEdgeDetect--><g id="link_GridCommonWithHyperionDetectorParams_GridScanWithEdgeDetect"><path codeLine="151" d="M3269.3408,1012.3015 C3302.4308,1051.5015 3357.12,1116.2969 3390.24,1155.5269 " fill="#FFFFFF" fill-opacity="0.00000" id="GridCommonWithHyperionDetectorParams-backto-GridScanWithEdgeDetect" style="stroke:#181818;stroke-width:1;"/><polygon fill="#FFFFFF" fill-opacity="0.00000" points="3257.73,998.5469,3264.7559,1016.1718,3273.9256,1008.4313,3257.73,998.5469" style="stroke:#181818;stroke-width:1;"/></g><!--reverse link WithHyperionUDCFeatures to GridScanWithEdgeDetect--><g id="link_WithHyperionUDCFeatures_GridScanWithEdgeDetect"><path codeLine="152" d="M3456.0319,778.1821 C3451.8819,844.8621 3441.71,986.8769 3422,1119.7969 C3420.23,1131.7169 3417.63,1144.8669 3415.3,1155.7269 " fill="#FFFFFF" fill-opacity="0.00000" id="WithHyperionUDCFeatures-backto-GridScanWithEdgeDetect" style="stroke:#181818;stroke-width:1;"/><polygon fill="#FFFFFF" fill-opacity="0.00000" points="3457.15,760.2169,3450.0435,777.8094,3462.0203,778.5548,3457.15,760.2169" style="stroke:#181818;stroke-width:1;"/></g><!--reverse link GridCommonWithHyperionDetectorParams to RobotLoadThenCentre--><g id="link_GridCommonWithHyperionDetectorParams_RobotLoadThenCentre"><path codeLine="153" d="M3284.0265,1009.0098 C3327.1665,1040.1398 3393.4,1084.8669 3469,1119.7969 C3494.35,1131.5169 3522.64,1141.7869 3549.4,1150.3469 " fill="#FFFFFF" fill-opacity="0.00000" id="GridCommonWithHyperionDetectorParams-backto-RobotLoadThenCentre" style="stroke:#181818;stroke-width:1;"/><polygon fill="#FFFFFF" fill-opacity="0.00000" points="3269.43,998.4769,3280.5155,1013.8753,3287.5375,1004.1443,3269.43,998.4769" style="stroke:#181818;stroke-width:1;"/></g><!--reverse link WithHyperionUDCFeatures to RobotLoadThenCentre--><g id="link_WithHyperionUDCFeatures_RobotLoadThenCentre"><path codeLine="154" d="M3457.2778,777.9887 C3454.7878,860.6187 3452.97,1063.8369 3496,1119.7969 C3503.85,1130.0169 3524.85,1140.1169 3549.14,1149.0069 " fill="#FFFFFF" fill-opacity="0.00000" id="WithHyperionUDCFeatures-backto-RobotLoadThenCentre" style="stroke:#181818;stroke-width:1;"/><polygon fill="#FFFFFF" fill-opacity="0.00000" points="3457.82,759.9969,3451.2806,777.808,3463.2751,778.1694,3457.82,759.9969" style="stroke:#181818;stroke-width:1;"/></g><!--reverse link GridCommonWithHyperionDetectorParams to PinTipCentreThenXrayCentre--><g id="link_GridCommonWithHyperionDetectorParams_PinTipCentreThenXrayCentre"><path codeLine="155" d="M3221.1329,1015.1312 C3205.6529,1051.8212 3182.61,1106.4069 3165.26,1147.5369 " fill="#FFFFFF" fill-opacity="0.00000" id="GridCommonWithHyperionDetectorParams-backto-PinTipCentreThenXrayCentre" style="stroke:#181818;stroke-width:1;"/><polygon fill="#FFFFFF" fill-opacity="0.00000" points="3228.13,998.5469,3215.6047,1012.7988,3226.661,1017.4636,3228.13,998.5469" style="stroke:#181818;stroke-width:1;"/></g><!--reverse link WithHyperionUDCFeatures to PinTipCentreThenXrayCentre--><g id="link_WithHyperionUDCFeatures_PinTipCentreThenXrayCentre"><path codeLine="156" d="M3326.6598,754.2195 C3219.4998,777.1895 3088.62,812.8469 3054,860.5369 C2986.3,953.7769 2997.36,1019.4569 3054,1119.7969 C3060.15,1130.7069 3069.21,1139.8169 3079.38,1147.3769 " fill="#FFFFFF" fill-opacity="0.00000" id="WithHyperionUDCFeatures-backto-PinTipCentreThenXrayCentre" style="stroke:#181818;stroke-width:1;"/><polygon fill="#FFFFFF" fill-opacity="0.00000" points="3344.26,750.4469,3325.4022,748.3528,3327.9173,760.0863,3344.26,750.4469" style="stroke:#181818;stroke-width:1;"/></g><!--reverse link MxBlueskyParameters to LoadCentreCollect--><g id="link_MxBlueskyParameters_LoadCentreCollect"><path codeLine="157" d="M2985.8359,155.5933 C3474.3959,166.0833 4908.16,202.8969 4977,275.7869 C5168.99,479.0369 4831.34,818.1069 4703.79,933.3969 " fill="#FFFFFF" fill-opacity="0.00000" id="MxBlueskyParameters-backto-LoadCentreCollect" style="stroke:#181818;stroke-width:1;"/><polygon fill="#FFFFFF" fill-opacity="0.00000" points="2967.84,155.2069,2985.7071,161.5919,2985.9647,149.5947,2967.84,155.2069" style="stroke:#181818;stroke-width:1;"/></g><!--reverse link WithVisit to LoadCentreCollect--><g id="link_WithVisit_LoadCentreCollect"><path codeLine="158" d="M2014.3459,216.3912 C2385.6159,297.4312 3364.49,149.7869 3723,275.7869 C4130.89,419.1369 4508.75,808.4369 4622.97,933.7369 " fill="#FFFFFF" fill-opacity="0.00000" id="WithVisit-backto-LoadCentreCollect" style="stroke:#181818;stroke-width:1;"/><polygon fill="#FFFFFF" fill-opacity="0.00000" points="1997.01,211.5469,2012.7311,222.1698,2015.9606,210.6125,1997.01,211.5469" style="stroke:#181818;stroke-width:1;"/></g><!--reverse link WithSample to LoadCentreCollect--><g id="link_WithSample_LoadCentreCollect"><path codeLine="159" d="M1344.2209,208.4302 C1356.2909,214.8702 1353.22,212.0569 1366,215.7869 C1487.96,251.3569 3550.46,199.4269 3652,275.7869 C3730.63,334.9069 3655.48,411.6269 3719,486.7569 C3916.11,719.8569 4053.43,671.3069 4330,800.5369 C4392.07,829.5369 4410.98,829.3769 4472,860.5369 C4515.2,882.5969 4561.9,910.8869 4597.69,933.5969 " fill="#FFFFFF" fill-opacity="0.00000" id="WithSample-backto-LoadCentreCollect" style="stroke:#181818;stroke-width:1;"/><polygon fill="#FFFFFF" fill-opacity="0.00000" points="1328.34,199.9569,1341.3965,213.7238,1347.0453,203.1366,1328.34,199.9569" style="stroke:#181818;stroke-width:1;"/></g><!--reverse link WithCentreSelection to LoadCentreCollect--><g id="link_WithCentreSelection_LoadCentreCollect"><path codeLine="160" d="M2272.3057,190.249 C2302.6157,202.409 2322.1,208.4269 2356,215.7869 C2448.53,235.8569 3134.03,214.2569 3206,275.7869 C3387.93,431.3069 3143.67,646.6669 3327,800.5369 C3424.58,882.4369 4350.23,823.0769 4472,860.5369 C4521.97,875.9069 4572.32,907.6169 4608,933.4769 " fill="#FFFFFF" fill-opacity="0.00000" id="WithCentreSelection-backto-LoadCentreCollect" style="stroke:#181818;stroke-width:1;"/><polygon fill="#FFFFFF" fill-opacity="0.00000" points="2255.6,183.5469,2270.0717,195.8176,2274.5398,184.6804,2255.6,183.5469" style="stroke:#181818;stroke-width:1;"/></g><!--reverse link WithHyperionUDCFeatures to LoadCentreCollect--><g id="link_WithHyperionUDCFeatures_LoadCentreCollect"><path codeLine="161" d="M3553.5976,766.5406 C3593.1376,781.2706 3625.49,791.2669 3671,800.5369 C4020.82,871.7569 4131.98,751.7569 4472,860.5369 C4521.62,876.4069 4571.79,907.8969 4607.5,933.5569 " fill="#FFFFFF" fill-opacity="0.00000" id="WithHyperionUDCFeatures-backto-LoadCentreCollect" style="stroke:#181818;stroke-width:1;"/><polygon fill="#FFFFFF" fill-opacity="0.00000" points="3536.73,760.2569,3551.503,772.1631,3555.6921,760.9181,3536.73,760.2569" style="stroke:#181818;stroke-width:1;"/></g><!--reverse link WithPandaGridScan to WithHyperionUDCFeatures--><g id="link_WithPandaGridScan_WithHyperionUDCFeatures"><path codeLine="162" d="M2562.243,192.1923 C2584.743,204.2923 2595.96,208.4169 2622,215.7869 C2765.62,256.4269 3172.33,185.2369 3291,275.7869 C3428.63,380.7969 3453.53,611.2769 3458.02,695.2469 " fill="#FFFFFF" fill-opacity="0.00000" id="WithPandaGridScan-backto-WithHyperionUDCFeatures" style="stroke:#181818;stroke-width:1;"/><polygon fill="#FFFFFF" fill-opacity="0.00000" points="2546.39,183.6669,2559.4012,197.4766,2565.0848,186.9079,2546.39,183.6669" style="stroke:#181818;stroke-width:1;"/></g><!--reverse link XyzStarts to SpecifiedGrid--><g id="link_XyzStarts_SpecifiedGrid"><path codeLine="163" d="M160.419,210.1879 C169.099,216.2979 163.62,211.5369 173,215.7869 C471.27,350.8869 871.44,375.1569 1024.68,379.4169 " fill="#FFFFFF" fill-opacity="0.00000" id="XyzStarts-backto-SpecifiedGrid" style="stroke:#181818;stroke-width:1;"/><polygon fill="#FFFFFF" fill-opacity="0.00000" points="145.7,199.8269,156.9654,215.0942,163.8727,205.2815,145.7,199.8269" style="stroke:#181818;stroke-width:1;"/></g><!--reverse link WithScan to SpecifiedGrid--><g id="link_WithScan_SpecifiedGrid"><path codeLine="164" d="M1088,193.1769 C1088,236.9269 1088,313.2769 1088,357.0669 " fill="#FFFFFF" fill-opacity="0.00000" id="WithScan-backto-SpecifiedGrid" style="stroke:#181818;stroke-width:1;"/><polygon fill="#FFFFFF" fill-opacity="0.00000" points="1088,175.1769,1082,193.1769,1094,193.1769,1088,175.1769" style="stroke:#181818;stroke-width:1;"/></g><!--reverse link DiffractionExperiment to DiffractionExperimentWithSample--><g id="link_DiffractionExperiment_DiffractionExperimentWithSample"><path codeLine="165" d="M2804,505.2469 C2804,527.5069 2804,530.9069 2804,546.3269 " fill="#FFFFFF" fill-opacity="0.00000" id="DiffractionExperiment-backto-DiffractionExperimentWithSample" style="stroke:#181818;stroke-width:1;"/><polygon fill="#FFFFFF" fill-opacity="0.00000" points="2804,487.2469,2798,505.2469,2810,505.2469,2804,487.2469" style="stroke:#181818;stroke-width:1;"/></g><!--reverse link WithSample to DiffractionExperimentWithSample--><g id="link_WithSample_DiffractionExperimentWithSample"><path codeLine="166" d="M1345.9307,208.3779 C1357.5407,214.6079 1353.89,211.7169 1366,215.7869 C1604.14,295.7269 1682.59,222.1769 1928,275.7869 C2246.54,345.3669 2611.46,489.7669 2748.32,546.3169 " fill="#FFFFFF" fill-opacity="0.00000" id="WithSample-backto-DiffractionExperimentWithSample" style="stroke:#181818;stroke-width:1;"/><polygon fill="#FFFFFF" fill-opacity="0.00000" points="1330.07,199.8669,1343.0938,213.6648,1348.7677,203.0909,1330.07,199.8669" style="stroke:#181818;stroke-width:1;"/></g><!--reverse link WithScan to RotationScan--><g id="link_WithScan_RotationScan"><path codeLine="167" d="M1116.1551,189.3126 C1128.0551,203.8426 1134.03,207.3769 1154,215.7869 C1366.79,305.3569 3001.34,252.1269 3231,275.7869 C3601.26,313.9269 4880,197.5269 4880,569.7569 C4880,569.7569 4880,569.7569 4880,728.6469 C4880,815.9169 4908.15,1059.5569 4845,1119.7969 C4818.28,1145.2869 4217.69,1143.6469 4181,1147.7969 C4146.07,1151.7569 4107.48,1158.7269 4076.11,1165.0669 " fill="#FFFFFF" fill-opacity="0.00000" id="WithScan-backto-RotationScan" style="stroke:#181818;stroke-width:1;"/><polygon fill="#FFFFFF" fill-opacity="0.00000" points="1104.75,175.3869,1111.5132,193.1142,1120.797,185.5109,1104.75,175.3869" style="stroke:#181818;stroke-width:1;"/></g><!--reverse link RotationScanPerSweep to RotationScan--><g id="link_RotationScanPerSweep_RotationScan"><path codeLine="168" d="M4013,1057.3669 C4013,1097.0269 4013,1127.5669 4013,1155.7069 " fill="#FFFFFF" fill-opacity="0.00000" id="RotationScanPerSweep-backto-RotationScan" style="stroke:#181818;stroke-width:1;"/><polygon fill="#FFFFFF" fill-opacity="0.00000" points="4013,1039.3669,4007,1057.3669,4019,1057.3669,4013,1039.3669" style="stroke:#181818;stroke-width:1;"/></g><!--reverse link RotationExperiment to RotationScan--><g id="link_RotationExperiment_RotationScan"><path codeLine="169" d="M3745.814,1034.6623 C3781.134,1065.2123 3816.28,1092.3469 3864,1119.7969 C3891.02,1135.3469 3922.92,1148.6069 3950.25,1158.6169 " fill="#FFFFFF" fill-opacity="0.00000" id="RotationExperiment-backto-RotationScan" style="stroke:#181818;stroke-width:1;"/><polygon fill="#FFFFFF" fill-opacity="0.00000" points="3732.2,1022.8869,3741.8888,1039.2003,3749.7391,1030.1243,3732.2,1022.8869" style="stroke:#181818;stroke-width:1;"/></g><!--reverse link GridCommon to GridCommonWithHyperionDetectorParams--><g id="link_GridCommon_GridCommonWithHyperionDetectorParams"><path codeLine="170" d="M2948.1323,809.8524 C3037.8723,860.4124 3136.3,915.8669 3196.49,949.7769 " fill="#FFFFFF" fill-opacity="0.00000" id="GridCommon-backto-GridCommonWithHyperionDetectorParams" style="stroke:#181818;stroke-width:1;"/><polygon fill="#FFFFFF" fill-opacity="0.00000" points="2932.45,801.0169,2945.1871,815.0798,2951.0775,804.6249,2932.45,801.0169" style="stroke:#181818;stroke-width:1;"/></g><!--reverse link WithHyperionUDCFeatures to GridCommonWithHyperionDetectorParams--><g id="link_WithHyperionUDCFeatures_GridCommonWithHyperionDetectorParams"><path codeLine="171" d="M3418.4907,773.4609 C3373.4907,823.2509 3298.97,905.7169 3259.07,949.8569 " fill="#FFFFFF" fill-opacity="0.00000" id="WithHyperionUDCFeatures-backto-GridCommonWithHyperionDetectorParams" style="stroke:#181818;stroke-width:1;"/><polygon fill="#FFFFFF" fill-opacity="0.00000" points="3430.56,760.1069,3414.0393,769.4378,3422.942,777.484,3430.56,760.1069" style="stroke:#181818;stroke-width:1;"/></g><!--reverse link DiffractionExperimentWithSample to GridCommon--><g id="link_DiffractionExperimentWithSample_GridCommon"><path codeLine="172" d="M2804,612.9369 C2804,628.8969 2804,633.0169 2804,654.5769 " fill="#FFFFFF" fill-opacity="0.00000" id="DiffractionExperimentWithSample-backto-GridCommon" style="stroke:#181818;stroke-width:1;"/><polygon fill="#FFFFFF" fill-opacity="0.00000" points="2804,594.9369,2798,612.9369,2810,612.9369,2804,594.9369" style="stroke:#181818;stroke-width:1;"/></g><!--reverse link OptionalGonioAngleStarts to GridCommon--><g id="link_OptionalGonioAngleStarts_GridCommon"><path codeLine="173" d="M690.911,214.5204 C698.541,217.4404 689.41,213.6269 697,215.7869 C984.98,297.7169 1076.2,208.7169 1368,275.7869 C1625.59,334.9869 1672.65,405.0169 1924,486.7569 C2169.65,566.6369 2459.55,642.1169 2637.56,686.3769 " fill="#FFFFFF" fill-opacity="0.00000" id="OptionalGonioAngleStarts-backto-GridCommon" style="stroke:#181818;stroke-width:1;"/><polygon fill="#FFFFFF" fill-opacity="0.00000" points="674.1,208.0869,688.7665,220.1241,693.0555,208.9168,674.1,208.0869" style="stroke:#181818;stroke-width:1;"/></g><!--SRC=[bLTjRzis4Fvi_Gf-omOi0ThFtO3KJhi1JMVCMLQW20XQEaj4998WgSHAcl- -8od9alLYzvFDutF7uxqyHrtSPToG7S-1u2yhhRnCGO1c5XAohKYpe2fdmfP5VgMgABBSeiAVbGBDfI1hfba15ZIvbGdaaG5B14gCOZ5iGE6sbPe8AI2AKFR8KY35dcxp4inZTHNBef3YIZLc37cDh4p1PcZoDOfpPWpvMrayY-MVfU3oMgGvR2pJrhn6YrqkcIK_o5SyWCW2KaQDswC9f4UxAkEJU_7CtYDJgclrhVRgFswp3IjK3kW75vOOlw0y2SjQlPQgCduSbNFHMjoedDjDpCHhxv3c-ZUOZxHQPaoaS7pr10ec4WeUGk6fPs09mchCHWwniuIwTr9z_LZTilrIbiAsEyJuVpJs2gOrqdZmhNePZ_o-ZazP76rKKnilXurUG0LJ9fCM3rWpcn5Jhsd2DNecTHKjScxiTs_ieGrc0_CbO0PvMcDms6VDan3TsXNbf5INebHe7_qHCT2Yxz0zDznvOwmcMs15ph6I_Uh9xOI_2LXlW5f97OZ6KZo1ndgc2cyHG5mO564SgTAmu_j11gs_uAWdmy0F8puCzLICUnMsKH3p7OV4XSU9tuODkEAxdMQ-H6xshlCBB90wA8v0g6lvvbJOAsbA3TGYZ9g0SdsEEbXvcgSfQCSMn8R_jC15hpSm9LIKnHPqjBZ6yooQksT86Ms-VPr2GbczsnnkDHEcuCQuE3kVeyLVHbNRWzjtI5r8U2YZq0gfHMdmr60EaAIw1RULCYUb0Qeb3yusmRlTVmn4rlAWoz36DQFbyJqkNLUrxEQLS_eKvAsLqV1swQK1kXGjFMEsTR2LM0dy1JffJn55dtbYiuvma9MV2CjFfe0hAdSxd0JTmclBx2xJ0Aj1BpgdtuNsxNAm4xyVYbtrWpg-U3KgVHd7lX-sIrVagZ6SOiAYwYvUceKl3UhkQcovhUzjV1UzZSsxh1wS_OaNGlIFjCpLW8lB6lJc6K2ryHdCjWPzlSVfhUi5PRXgL0pQgUkWfx7obUqAirLB6b6ude1zQUXJOke3UN6WqsRqJoQqxOqojxnx9xpBjH1E0CbtJ-9ZDtxuZNm1yKl11Sr1f3Rx_Tsl3mTFtQKEWwanq6Eb-lPPQLtBIGM2YxIj-x3RskCYrk1htSVe_AxezgJpt_NhJPB2olFuQyV5hRHV9CCuWGYJ67ty43Oll3SNVn2RiUV6orPrpSKTLq77QN_Jh6ejp3MREou0bpBFlJkB4Jym2YYZQ2YXoFUYdllHOf0wKZW9xMMXDrEQglXtjVm4pD618y96Mei-vIp55sUzFqXYltmENDUrlwgdfETR4yRLrFEGVFXnUJdQLT7WGJE37U7uW1wbxQZxYZc56tlPdTBn3v8vq4HZ1fKJtHjDvF8yvKFA0duArtjod8BMJ-9vs7mmfxI6x17mW_8_TcC8E372- -LrbD79U8_Wp-cAe3pEI_C7JkYSV-W8oPowub3X_EEc2NB-r1czoMuVSEfnDuu3klaVHnnzdSr19oyq3kzzzGJWX9NeY0Xx7Her7mrZUwE5FqDFXvWCmdCMldMZrtvZn3q3E_Qq1pfciNFAyNHRdRHm5eCSB9sOUWVW_m00]--></g></svg>