<svg xmlns="http://www.w3.org/2000/svg" xmlns:xlink="http://www.w3.org/1999/xlink" contentStyleType="text/css" data-diagram-type="CLASS" height="1391px" preserveAspectRatio="none" style="width:4331px;height:1391px;background:#FFFFFF;" version="1.1" viewBox="0 0 4331 1391" width="4331px" zoomAndPan="magnify"><title>Hyperion Parameter Model</title><defs/><g><g class="title" data-source-line="3"><text fill="#000000" font-family="sans-serif" font-size="14" font-weight="bold" lengthAdjust="spacing" textLength="212.4951" x="2052.5074" y="22.9951">Hyperion Parameter Model</text></g><!--cluster mx_bluesky.common.parameters--><g class="cluster" data-entity="mx_bluesky.common.parameters" data-source-line="6" data-uid="ent0002" id="cluster_mx_bluesky.common.parameters"><path d="M8.5,43.2969 L269.8125,43.2969 A3.75,3.75 0 0 1 272.3125,45.7969 L279.3125,65.5938 L2781.5,65.5938 A2.5,2.5 0 0 1 2784,68.0938 L2784,1109.2969 A2.5,2.5 0 0 1 2781.5,1111.7969 L8.5,1111.7969 A2.5,2.5 0 0 1 6,1109.2969 L6,45.7969 A2.5,2.5 0 0 1 8.5,43.2969" fill="none" style="stroke:#000000;stroke-width:1.5;"/><line style="stroke:#000000;stroke-width:1.5;" x1="6" x2="279.3125" y1="65.5938" y2="65.5938"/><text fill="#000000" font-family="sans-serif" font-size="14" font-weight="bold" lengthAdjust="spacing" textLength="260.3125" x="10" y="58.292">mx_bluesky.common.parameters</text></g><!--cluster mx_bluesky.hyperion.parameters--><g class="cluster" data-entity="mx_bluesky.hyperion.parameters" data-source-line="92" data-uid="ent0019" id="cluster_mx_bluesky.hyperion.parameters"><path d="M2810.5,907.0169 L3075.0322,907.0169 A3.75,3.75 0 0 1 3077.5322,909.5169 L3084.5322,929.3138 L4294.5,929.3138 A2.5,2.5 0 0 1 4297,931.8138 L4297,1382.4869 A2.5,2.5 0 0 1 4294.5,1384.9869 L2810.5,1384.9869 A2.5,2.5 0 0 1 2808,1382.4869 L2808,909.5169 A2.5,2.5 0 0 1 2810.5,907.0169" fill="none" style="stroke:#000000;stroke-width:1.5;"/><line style="stroke:#000000;stroke-width:1.5;" x1="2808" x2="3084.5322" y1="929.3138" y2="929.3138"/><text fill="#000000" font-family="sans-serif" font-size="14" font-weight="bold" lengthAdjust="spacing" textLength="263.5322" x="2812" y="922.012">mx_bluesky.hyperion.parameters</text></g><!--class WithScan--><g class="entity" data-entity="WithScan" data-source-line="8" data-uid="ent0003" id="entity_WithScan"><rect fill="#F1F1F1" height="48" rx="2.5" ry="2.5" style="stroke:#181818;stroke-width:0.5;" width="98.1309" x="29.93" y="127.0369"/><ellipse cx="44.93" cy="143.0369" fill="#ADD1B2" rx="11" ry="11" style="stroke:#181818;stroke-width:1;"/><path d="M47.8988,148.6775 Q47.3206,148.9744 46.68,149.115 Q46.0394,149.2713 45.3363,149.2713 Q42.8363,149.2713 41.5081,147.6306 Q40.1956,145.9744 40.1956,142.8494 Q40.1956,139.7244 41.5081,138.0681 Q42.8363,136.4119 45.3363,136.4119 Q46.0394,136.4119 46.68,136.5681 Q47.3363,136.7244 47.8988,137.0213 L47.8988,139.74 Q47.2738,139.1619 46.68,138.8963 Q46.0863,138.615 45.4613,138.615 Q44.1175,138.615 43.43,139.6931 Q42.7425,140.7556 42.7425,142.8494 Q42.7425,144.9431 43.43,146.0213 Q44.1175,147.0838 45.4613,147.0838 Q46.0863,147.0838 46.68,146.8181 Q47.2738,146.5369 47.8988,145.9588 L47.8988,148.6775 Z " fill="#000000"/><text fill="#000000" font-family="sans-serif" font-size="14" lengthAdjust="spacing" textLength="66.1309" x="58.93" y="147.8836">WithScan</text><line style="stroke:#181818;stroke-width:0.5;" x1="30.93" x2="127.0609" y1="159.0369" y2="159.0369"/><line style="stroke:#181818;stroke-width:0.5;" x1="30.93" x2="127.0609" y1="167.0369" y2="167.0369"/></g><!--class WithSample--><g class="entity" data-entity="WithSample" data-source-line="10" data-uid="ent0004" id="entity_WithSample"><rect fill="#F1F1F1" height="96.8906" rx="2.5" ry="2.5" style="stroke:#181818;stroke-width:0.5;" width="176.3086" x="847.85" y="102.5969"/><ellipse cx="889.7243" cy="118.5969" fill="#ADD1B2" rx="11" ry="11" style="stroke:#181818;stroke-width:1;"/><path d="M892.6931,124.2375 Q892.1149,124.5344 891.4743,124.675 Q890.8337,124.8312 890.1306,124.8312 Q887.6306,124.8312 886.3024,123.1906 Q884.9899,121.5344 884.9899,118.4094 Q884.9899,115.2844 886.3024,113.6281 Q887.6306,111.9719 890.1306,111.9719 Q890.8337,111.9719 891.4743,112.1281 Q892.1306,112.2844 892.6931,112.5812 L892.6931,115.3 Q892.0681,114.7219 891.4743,114.4562 Q890.8806,114.175 890.2556,114.175 Q888.9118,114.175 888.2243,115.2531 Q887.5368,116.3156 887.5368,118.4094 Q887.5368,120.5031 888.2243,121.5812 Q888.9118,122.6437 890.2556,122.6437 Q890.8806,122.6437 891.4743,122.3781 Q892.0681,122.0969 892.6931,121.5187 L892.6931,124.2375 Z " fill="#000000"/><text fill="#000000" font-family="sans-serif" font-size="14" lengthAdjust="spacing" textLength="84.5879" x="909.6964" y="123.4436">WithSample</text><line style="stroke:#181818;stroke-width:0.5;" x1="848.85" x2="1023.1586" y1="134.5969" y2="134.5969"/><text fill="#000000" font-family="sans-serif" font-size="14" lengthAdjust="spacing" textLength="93.3789" x="853.85" y="151.592">int sample_id</text><text fill="#000000" font-family="sans-serif" font-size="14" lengthAdjust="spacing" textLength="164.3086" x="853.85" y="167.8889">int | None sample_puck</text><text fill="#000000" font-family="sans-serif" font-size="14" lengthAdjust="spacing" textLength="152.3936" x="853.85" y="184.1857">int | None sample_pin</text><line style="stroke:#181818;stroke-width:0.5;" x1="848.85" x2="1023.1586" y1="191.4875" y2="191.4875"/></g><!--class SplitScan--><g class="entity" data-entity="SplitScan" data-source-line="15" data-uid="ent0005" id="entity_SplitScan"><rect fill="#F1F1F1" height="48" rx="2.5" ry="2.5" style="stroke:#181818;stroke-width:0.5;" width="97.0781" x="1059.46" y="127.0369"/><ellipse cx="1074.46" cy="143.0369" fill="#ADD1B2" rx="11" ry="11" style="stroke:#181818;stroke-width:1;"/><path d="M1077.4288,148.6775 Q1076.8506,148.9744 1076.21,149.115 Q1075.5694,149.2713 1074.8663,149.2713 Q1072.3663,149.2713 1071.0381,147.6306 Q1069.7256,145.9744 1069.7256,142.8494 Q1069.7256,139.7244 1071.0381,138.0681 Q1072.3663,136.4119 1074.8663,136.4119 Q1075.5694,136.4119 1076.21,136.5681 Q1076.8663,136.7244 1077.4288,137.0213 L1077.4288,139.74 Q1076.8038,139.1619 1076.21,138.8963 Q1075.6163,138.615 1074.9913,138.615 Q1073.6475,138.615 1072.96,139.6931 Q1072.2725,140.7556 1072.2725,142.8494 Q1072.2725,144.9431 1072.96,146.0213 Q1073.6475,147.0838 1074.9913,147.0838 Q1075.6163,147.0838 1076.21,146.8181 Q1076.8038,146.5369 1077.4288,145.9588 L1077.4288,148.6775 Z " fill="#000000"/><text fill="#000000" font-family="sans-serif" font-size="14" lengthAdjust="spacing" textLength="65.0781" x="1088.46" y="147.8836">SplitScan</text><line style="stroke:#181818;stroke-width:0.5;" x1="1060.46" x2="1155.5381" y1="159.0369" y2="159.0369"/><line style="stroke:#181818;stroke-width:0.5;" x1="1060.46" x2="1155.5381" y1="167.0369" y2="167.0369"/></g><!--class OptionalGonioAngleStarts--><g class="entity" data-entity="OptionalGonioAngleStarts" data-source-line="17" data-uid="ent0006" id="entity_OptionalGonioAngleStarts"><rect fill="#F1F1F1" height="113.1875" rx="2.5" ry="2.5" style="stroke:#181818;stroke-width:0.5;" width="219.3203" x="593.34" y="94.4469"/><ellipse cx="611.0633" cy="110.4469" fill="#ADD1B2" rx="11" ry="11" style="stroke:#181818;stroke-width:1;"/><path d="M614.032,116.0875 Q613.4539,116.3844 612.8133,116.525 Q612.1727,116.6813 611.4695,116.6813 Q608.9695,116.6813 607.6414,115.0406 Q606.3289,113.3844 606.3289,110.2594 Q606.3289,107.1344 607.6414,105.4781 Q608.9695,103.8219 611.4695,103.8219 Q612.1727,103.8219 612.8133,103.9781 Q613.4695,104.1344 614.032,104.4313 L614.032,107.15 Q613.407,106.5719 612.8133,106.3063 Q612.2195,106.025 611.5945,106.025 Q610.2508,106.025 609.5633,107.1031 Q608.8758,108.1656 608.8758,110.2594 Q608.8758,112.3531 609.5633,113.4313 Q610.2508,114.4938 611.5945,114.4938 Q612.2195,114.4938 612.8133,114.2281 Q613.407,113.9469 614.032,113.3688 L614.032,116.0875 Z " fill="#000000"/><text fill="#000000" font-family="sans-serif" font-size="14" lengthAdjust="spacing" textLength="181.2686" x="625.6685" y="115.2936">OptionalGonioAngleStarts</text><line style="stroke:#181818;stroke-width:0.5;" x1="594.34" x2="811.6603" y1="126.4469" y2="126.4469"/><text fill="#000000" font-family="sans-serif" font-size="14" lengthAdjust="spacing" textLength="207.3203" x="599.34" y="143.442">float | None omega_start_deg</text><text fill="#000000" font-family="sans-serif" font-size="14" lengthAdjust="spacing" textLength="180.6875" x="599.34" y="159.7389">float | None phi_start_deg</text><text fill="#000000" font-family="sans-serif" font-size="14" lengthAdjust="spacing" textLength="179.498" x="599.34" y="176.0357">float | None chi_start_deg</text><text fill="#000000" font-family="sans-serif" font-size="14" lengthAdjust="spacing" textLength="202.0771" x="599.34" y="192.3326">float | None kappa_start_deg</text><line style="stroke:#181818;stroke-width:0.5;" x1="594.34" x2="811.6603" y1="199.6344" y2="199.6344"/></g><!--class WithPandaGridScan--><g class="entity" data-entity="WithPandaGridScan" data-source-line="23" data-uid="ent0007" id="entity_WithPandaGridScan"><rect fill="#F1F1F1" height="64.2969" rx="2.5" ry="2.5" style="stroke:#181818;stroke-width:0.5;" width="240.5664" x="1515.72" y="118.8969"/><ellipse cx="1562.3172" cy="134.8969" fill="#ADD1B2" rx="11" ry="11" style="stroke:#181818;stroke-width:1;"/><path d="M1565.2859,140.5375 Q1564.7078,140.8344 1564.0672,140.975 Q1563.4265,141.1313 1562.7234,141.1313 Q1560.2234,141.1313 1558.8953,139.4906 Q1557.5828,137.8344 1557.5828,134.7094 Q1557.5828,131.5844 1558.8953,129.9281 Q1560.2234,128.2719 1562.7234,128.2719 Q1563.4265,128.2719 1564.0672,128.4281 Q1564.7234,128.5844 1565.2859,128.8813 L1565.2859,131.6 Q1564.6609,131.0219 1564.0672,130.7563 Q1563.4734,130.475 1562.8484,130.475 Q1561.5047,130.475 1560.8172,131.5531 Q1560.1297,132.6156 1560.1297,134.7094 Q1560.1297,136.8031 1560.8172,137.8813 Q1561.5047,138.9438 1562.8484,138.9438 Q1563.4734,138.9438 1564.0672,138.6781 Q1564.6609,138.3969 1565.2859,137.8188 L1565.2859,140.5375 Z " fill="#000000"/><text fill="#000000" font-family="sans-serif" font-size="14" lengthAdjust="spacing" textLength="138.8721" x="1582.8172" y="139.7436">WithPandaGridScan</text><line style="stroke:#181818;stroke-width:0.5;" x1="1516.72" x2="1755.2864" y1="150.8969" y2="150.8969"/><text fill="#000000" font-family="sans-serif" font-size="14" lengthAdjust="spacing" textLength="228.5664" x="1521.72" y="167.892">float panda_runup_distance_mm</text><line style="stroke:#181818;stroke-width:0.5;" x1="1516.72" x2="1755.2864" y1="175.1938" y2="175.1938"/></g><!--class WithCentreSelection--><g class="entity" data-entity="WithCentreSelection" data-source-line="26" data-uid="ent0008" id="entity_WithCentreSelection"><rect fill="#F1F1F1" height="64.2969" rx="2.5" ry="2.5" style="stroke:#181818;stroke-width:0.5;" width="306.7861" x="2097.61" y="118.8969"/><ellipse cx="2174.8869" cy="134.8969" fill="#ADD1B2" rx="11" ry="11" style="stroke:#181818;stroke-width:1;"/><path d="M2177.8556,140.5375 Q2177.2775,140.8344 2176.6369,140.975 Q2175.9962,141.1313 2175.2931,141.1313 Q2172.7931,141.1313 2171.465,139.4906 Q2170.1525,137.8344 2170.1525,134.7094 Q2170.1525,131.5844 2171.465,129.9281 Q2172.7931,128.2719 2175.2931,128.2719 Q2175.9962,128.2719 2176.6369,128.4281 Q2177.2931,128.5844 2177.8556,128.8813 L2177.8556,131.6 Q2177.2306,131.0219 2176.6369,130.7563 Q2176.0431,130.475 2175.4181,130.475 Q2174.0744,130.475 2173.3869,131.5531 Q2172.6994,132.6156 2172.6994,134.7094 Q2172.6994,136.8031 2173.3869,137.8813 Q2174.0744,138.9438 2175.4181,138.9438 Q2176.0431,138.9438 2176.6369,138.6781 Q2177.2306,138.3969 2177.8556,137.8188 L2177.8556,140.5375 Z " fill="#000000"/><text fill="#000000" font-family="sans-serif" font-size="14" lengthAdjust="spacing" textLength="143.7324" x="2195.3869" y="139.7436">WithCentreSelection</text><line style="stroke:#181818;stroke-width:0.5;" x1="2098.61" x2="2403.3961" y1="150.8969" y2="150.8969"/><text fill="#000000" font-family="sans-serif" font-size="14" lengthAdjust="spacing" textLength="294.7861" x="2103.61" y="167.892">TopNByMaxCountSelection select_centres</text><line style="stroke:#181818;stroke-width:0.5;" x1="2098.61" x2="2403.3961" y1="175.1938" y2="175.1938"/></g><!--class XyzStarts--><g class="entity" data-entity="XyzStarts" data-source-line="29" data-uid="ent0009" id="entity_XyzStarts"><rect fill="#F1F1F1" height="96.8906" rx="2.5" ry="2.5" style="stroke:#181818;stroke-width:0.5;" width="125.3057" x="163.35" y="102.5969"/><ellipse cx="190.3141" cy="118.5969" fill="#ADD1B2" rx="11" ry="11" style="stroke:#181818;stroke-width:1;"/><path d="M193.2829,124.2375 Q192.7047,124.5344 192.0641,124.675 Q191.4235,124.8312 190.7204,124.8312 Q188.2204,124.8312 186.8922,123.1906 Q185.5797,121.5344 185.5797,118.4094 Q185.5797,115.2844 186.8922,113.6281 Q188.2204,111.9719 190.7204,111.9719 Q191.4235,111.9719 192.0641,112.1281 Q192.7204,112.2844 193.2829,112.5812 L193.2829,115.3 Q192.6579,114.7219 192.0641,114.4562 Q191.4704,114.175 190.8454,114.175 Q189.5016,114.175 188.8141,115.2531 Q188.1266,116.3156 188.1266,118.4094 Q188.1266,120.5031 188.8141,121.5812 Q189.5016,122.6437 190.8454,122.6437 Q191.4704,122.6437 192.0641,122.3781 Q192.6579,122.0969 193.2829,121.5187 L193.2829,124.2375 Z " fill="#000000"/><text fill="#000000" font-family="sans-serif" font-size="14" lengthAdjust="spacing" textLength="66.7188" x="206.9728" y="123.4436">XyzStarts</text><line style="stroke:#181818;stroke-width:0.5;" x1="164.35" x2="287.6557" y1="134.5969" y2="134.5969"/><text fill="#000000" font-family="sans-serif" font-size="14" lengthAdjust="spacing" textLength="113.3057" x="169.35" y="151.592">float x_start_um</text><text fill="#000000" font-family="sans-serif" font-size="14" lengthAdjust="spacing" textLength="113.3057" x="169.35" y="167.8889">float y_start_um</text><text fill="#000000" font-family="sans-serif" font-size="14" lengthAdjust="spacing" textLength="112.3691" x="169.35" y="184.1857">float z_start_um</text><line style="stroke:#181818;stroke-width:0.5;" x1="164.35" x2="287.6557" y1="191.4875" y2="191.4875"/></g><!--class WithSnapshot--><g class="entity" data-entity="WithSnapshot" data-source-line="34" data-uid="ent0010" id="entity_WithSnapshot"><rect fill="#F1F1F1" height="80.5938" rx="2.5" ry="2.5" style="stroke:#181818;stroke-width:0.5;" width="289.3477" x="1191.33" y="110.7469"/><ellipse cx="1282.9828" cy="126.7469" fill="#ADD1B2" rx="11" ry="11" style="stroke:#181818;stroke-width:1;"/><path d="M1285.9516,132.3875 Q1285.3735,132.6844 1284.7328,132.825 Q1284.0922,132.9813 1283.3891,132.9813 Q1280.8891,132.9813 1279.561,131.3406 Q1278.2485,129.6844 1278.2485,126.5594 Q1278.2485,123.4344 1279.561,121.7781 Q1280.8891,120.1219 1283.3891,120.1219 Q1284.0922,120.1219 1284.7328,120.2781 Q1285.3891,120.4344 1285.9516,120.7313 L1285.9516,123.45 Q1285.3266,122.8719 1284.7328,122.6063 Q1284.1391,122.325 1283.5141,122.325 Q1282.1703,122.325 1281.4828,123.4031 Q1280.7953,124.4656 1280.7953,126.5594 Q1280.7953,128.6531 1281.4828,129.7313 Q1282.1703,130.7938 1283.5141,130.7938 Q1284.1391,130.7938 1284.7328,130.5281 Q1285.3266,130.2469 1285.9516,129.6688 L1285.9516,132.3875 Z " fill="#000000"/><text fill="#000000" font-family="sans-serif" font-size="14" lengthAdjust="spacing" textLength="97.542" x="1303.4828" y="131.5936">WithSnapshot</text><line style="stroke:#181818;stroke-width:0.5;" x1="1192.33" x2="1479.6777" y1="142.7469" y2="142.7469"/><text fill="#000000" font-family="sans-serif" font-size="14" lengthAdjust="spacing" textLength="169.627" x="1197.33" y="159.742">Path snapshot_directory</text><text fill="#000000" font-family="sans-serif" font-size="14" lengthAdjust="spacing" textLength="277.3477" x="1197.33" y="176.0389">list[float] | None snapshot_omegas_deg</text><line style="stroke:#181818;stroke-width:0.5;" x1="1192.33" x2="1479.6777" y1="183.3406" y2="183.3406"/></g><!--class WithVisit--><g class="entity" data-entity="WithVisit" data-source-line="38" data-uid="ent0011" id="entity_WithVisit"><rect fill="#F1F1F1" height="129.4844" rx="2.5" ry="2.5" style="stroke:#181818;stroke-width:0.5;" width="271.7861" x="1791.11" y="86.2969"/><ellipse cx="1891.6359" cy="102.2969" fill="#ADD1B2" rx="11" ry="11" style="stroke:#181818;stroke-width:1;"/><path d="M1894.6046,107.9375 Q1894.0265,108.2344 1893.3859,108.375 Q1892.7453,108.5313 1892.0421,108.5313 Q1889.5421,108.5313 1888.214,106.8906 Q1886.9015,105.2344 1886.9015,102.1094 Q1886.9015,98.9844 1888.214,97.3281 Q1889.5421,95.6719 1892.0421,95.6719 Q1892.7453,95.6719 1893.3859,95.8281 Q1894.0421,95.9844 1894.6046,96.2813 L1894.6046,99 Q1893.9796,98.4219 1893.3859,98.1563 Q1892.7921,97.875 1892.1671,97.875 Q1890.8234,97.875 1890.1359,98.9531 Q1889.4484,100.0156 1889.4484,102.1094 Q1889.4484,104.2031 1890.1359,105.2813 Q1890.8234,106.3438 1892.1671,106.3438 Q1892.7921,106.3438 1893.3859,106.0781 Q1893.9796,105.7969 1894.6046,105.2188 L1894.6046,107.9375 Z " fill="#000000"/><text fill="#000000" font-family="sans-serif" font-size="14" lengthAdjust="spacing" textLength="62.2344" x="1912.1359" y="107.1436">WithVisit</text><line style="stroke:#181818;stroke-width:0.5;" x1="1792.11" x2="2061.8961" y1="118.2969" y2="118.2969"/><text fill="#000000" font-family="sans-serif" font-size="14" lengthAdjust="spacing" textLength="87.9717" x="1797.11" y="135.292">str beamline</text><text fill="#000000" font-family="sans-serif" font-size="14" lengthAdjust="spacing" textLength="51.8369" x="1797.11" y="151.5889">str visit</text><text fill="#000000" font-family="sans-serif" font-size="14" lengthAdjust="spacing" textLength="259.7861" x="1797.11" y="167.8857">str det_dist_to_beam_converter_path</text><text fill="#000000" font-family="sans-serif" font-size="14" lengthAdjust="spacing" textLength="131.5918" x="1797.11" y="184.1826">str insertion_prefix</text><text fill="#000000" font-family="sans-serif" font-size="14" lengthAdjust="spacing" textLength="245.752" x="1797.11" y="200.4795">float | None detector_distance_mm</text><line style="stroke:#181818;stroke-width:0.5;" x1="1792.11" x2="2061.8961" y1="207.7813" y2="207.7813"/></g><!--class SpecifiedGrid--><g class="entity" data-entity="SpecifiedGrid" data-source-line="45" data-uid="ent0012" id="entity_SpecifiedGrid"><rect fill="#F1F1F1" height="48" rx="2.5" ry="2.5" style="stroke:#181818;stroke-width:0.5;" width="125.6729" x="1144.16" y="357.2669"/><ellipse cx="1159.16" cy="373.2669" fill="#ADD1B2" rx="11" ry="11" style="stroke:#181818;stroke-width:1;"/><path d="M1162.1288,378.9075 Q1161.5506,379.2044 1160.91,379.345 Q1160.2694,379.5013 1159.5663,379.5013 Q1157.0663,379.5013 1155.7381,377.8606 Q1154.4256,376.2044 1154.4256,373.0794 Q1154.4256,369.9544 1155.7381,368.2981 Q1157.0663,366.6419 1159.5663,366.6419 Q1160.2694,366.6419 1160.91,366.7981 Q1161.5663,366.9544 1162.1288,367.2513 L1162.1288,369.97 Q1161.5038,369.3919 1160.91,369.1263 Q1160.3163,368.845 1159.6913,368.845 Q1158.3475,368.845 1157.66,369.9231 Q1156.9725,370.9856 1156.9725,373.0794 Q1156.9725,375.1731 1157.66,376.2513 Q1158.3475,377.3138 1159.6913,377.3138 Q1160.3163,377.3138 1160.91,377.0481 Q1161.5038,376.7669 1162.1288,376.1888 L1162.1288,378.9075 Z " fill="#000000"/><text fill="#000000" font-family="sans-serif" font-size="14" lengthAdjust="spacing" textLength="93.6729" x="1173.16" y="378.1136">SpecifiedGrid</text><line style="stroke:#181818;stroke-width:0.5;" x1="1145.16" x2="1268.8329" y1="389.2669" y2="389.2669"/><line style="stroke:#181818;stroke-width:0.5;" x1="1145.16" x2="1268.8329" y1="397.2669" y2="397.2669"/></g><!--class WithOptionalEnergyChange--><g class="entity" data-entity="WithOptionalEnergyChange" data-source-line="47" data-uid="ent0013" id="entity_WithOptionalEnergyChange"><rect fill="#F1F1F1" height="64.2969" rx="2.5" ry="2.5" style="stroke:#181818;stroke-width:0.5;" width="235.4463" x="323.28" y="118.8969"/><ellipse cx="342.4645" cy="134.8969" fill="#ADD1B2" rx="11" ry="11" style="stroke:#181818;stroke-width:1;"/><path d="M345.4332,140.5375 Q344.8551,140.8344 344.2145,140.975 Q343.5738,141.1313 342.8707,141.1313 Q340.3707,141.1313 339.0426,139.4906 Q337.7301,137.8344 337.7301,134.7094 Q337.7301,131.5844 339.0426,129.9281 Q340.3707,128.2719 342.8707,128.2719 Q343.5738,128.2719 344.2145,128.4281 Q344.8707,128.5844 345.4332,128.8813 L345.4332,131.6 Q344.8082,131.0219 344.2145,130.7563 Q343.6207,130.475 342.9957,130.475 Q341.652,130.475 340.9645,131.5531 Q340.277,132.6156 340.277,134.7094 Q340.277,136.8031 340.9645,137.8813 Q341.652,138.9438 342.9957,138.9438 Q343.6207,138.9438 344.2145,138.6781 Q344.8082,138.3969 345.4332,137.8188 L345.4332,140.5375 Z " fill="#000000"/><text fill="#000000" font-family="sans-serif" font-size="14" lengthAdjust="spacing" textLength="194.1475" x="357.3944" y="139.7436">WithOptionalEnergyChange</text><line style="stroke:#181818;stroke-width:0.5;" x1="324.28" x2="557.7263" y1="150.8969" y2="150.8969"/><text fill="#000000" font-family="sans-serif" font-size="14" lengthAdjust="spacing" textLength="223.4463" x="329.28" y="167.892">float | None demand_energy_ev</text><line style="stroke:#181818;stroke-width:0.5;" x1="324.28" x2="557.7263" y1="175.1938" y2="175.1938"/></g><!--class GridCommon--><g class="entity" data-entity="GridCommon" data-source-line="52" data-uid="ent0014" id="entity_GridCommon"><rect fill="#F1F1F1" height="145.7813" rx="2.5" ry="2.5" style="stroke:#181818;stroke-width:0.5;" width="332.332" x="2427.83" y="654.7569"/><ellipse cx="2543.5282" cy="670.7569" fill="#ADD1B2" rx="11" ry="11" style="stroke:#181818;stroke-width:1;"/><path d="M2546.497,676.3975 Q2545.9189,676.6944 2545.2782,676.835 Q2544.6376,676.9913 2543.9345,676.9913 Q2541.4345,676.9913 2540.1064,675.3506 Q2538.7939,673.6944 2538.7939,670.5694 Q2538.7939,667.4444 2540.1064,665.7881 Q2541.4345,664.1319 2543.9345,664.1319 Q2544.6376,664.1319 2545.2782,664.2881 Q2545.9345,664.4444 2546.497,664.7413 L2546.497,667.46 Q2545.872,666.8819 2545.2782,666.6163 Q2544.6845,666.335 2544.0595,666.335 Q2542.7157,666.335 2542.0282,667.4131 Q2541.3407,668.4756 2541.3407,670.5694 Q2541.3407,672.6631 2542.0282,673.7413 Q2542.7157,674.8038 2544.0595,674.8038 Q2544.6845,674.8038 2545.2782,674.5381 Q2545.872,674.2569 2546.497,673.6788 L2546.497,676.3975 Z " fill="#000000"/><text fill="#000000" font-family="sans-serif" font-size="14" lengthAdjust="spacing" textLength="92.4355" x="2564.0282" y="675.6036">GridCommon</text><line style="stroke:#181818;stroke-width:0.5;" x1="2428.83" x2="2759.162" y1="686.7569" y2="686.7569"/><text fill="#000000" font-family="sans-serif" font-size="14" lengthAdjust="spacing" textLength="125.2959" x="2433.83" y="703.752">float box_size_um</text><text fill="#000000" font-family="sans-serif" font-size="14" lengthAdjust="spacing" textLength="138.4209" x="2433.83" y="720.0489">float grid_width_um</text><text fill="#000000" font-family="sans-serif" font-size="14" lengthAdjust="spacing" textLength="153.7129" x="2433.83" y="736.3457">float exposure_time_s</text><text fill="#000000" font-family="sans-serif" font-size="14" lengthAdjust="spacing" textLength="320.332" x="2433.83" y="752.6426">IspybExperimentType ispyb_experiment_type</text><text fill="#000000" font-family="sans-serif" font-size="14" lengthAdjust="spacing" textLength="282.3516" x="2433.83" y="768.9395">ApertureValue | None selected_aperture</text><text fill="#000000" font-family="sans-serif" font-size="14" lengthAdjust="spacing" textLength="130.498" x="2433.83" y="785.2364">float tip_offset_um</text><line style="stroke:#181818;stroke-width:0.5;" x1="2428.83" x2="2759.162" y1="792.5381" y2="792.5381"/></g><!--class DiffractionExperimentWithSample--><g class="entity" data-entity="DiffractionExperimentWithSample" data-source-line="60" data-uid="ent0015" id="entity_DiffractionExperimentWithSample"><rect fill="#F1F1F1" height="48" rx="2.5" ry="2.5" style="stroke:#181818;stroke-width:0.5;" width="270.8545" x="2458.57" y="546.7569"/><ellipse cx="2473.57" cy="562.7569" fill="#ADD1B2" rx="11" ry="11" style="stroke:#181818;stroke-width:1;"/><path d="M2476.5388,568.3975 Q2475.9606,568.6944 2475.32,568.835 Q2474.6794,568.9913 2473.9763,568.9913 Q2471.4763,568.9913 2470.1481,567.3506 Q2468.8356,565.6944 2468.8356,562.5694 Q2468.8356,559.4444 2470.1481,557.7881 Q2471.4763,556.1319 2473.9763,556.1319 Q2474.6794,556.1319 2475.32,556.2881 Q2475.9763,556.4444 2476.5388,556.7413 L2476.5388,559.46 Q2475.9138,558.8819 2475.32,558.6163 Q2474.7263,558.335 2474.1013,558.335 Q2472.7575,558.335 2472.07,559.4131 Q2471.3825,560.4756 2471.3825,562.5694 Q2471.3825,564.6631 2472.07,565.7413 Q2472.7575,566.8038 2474.1013,566.8038 Q2474.7263,566.8038 2475.32,566.5381 Q2475.9138,566.2569 2476.5388,565.6788 L2476.5388,568.3975 Z " fill="#000000"/><text fill="#000000" font-family="sans-serif" font-size="14" lengthAdjust="spacing" textLength="238.8545" x="2487.57" y="567.6036">DiffractionExperimentWithSample</text><line style="stroke:#181818;stroke-width:0.5;" x1="2459.57" x2="2728.4245" y1="578.7569" y2="578.7569"/><line style="stroke:#181818;stroke-width:0.5;" x1="2459.57" x2="2728.4245" y1="586.7569" y2="586.7569"/></g><!--class DiffractionExperiment--><g class="entity" data-entity="DiffractionExperiment" data-source-line="62" data-uid="ent0016" id="entity_DiffractionExperiment"><rect fill="#F1F1F1" height="210.9688" rx="2.5" ry="2.5" style="stroke:#181818;stroke-width:0.5;" width="332.332" x="2427.83" y="275.7869"/><ellipse cx="2512.6127" cy="291.7869" fill="#ADD1B2" rx="11" ry="11" style="stroke:#181818;stroke-width:1;"/><path d="M2515.5815,297.4275 Q2515.0033,297.7244 2514.3627,297.865 Q2513.7221,298.0213 2513.019,298.0213 Q2510.519,298.0213 2509.1908,296.3806 Q2507.8783,294.7244 2507.8783,291.5994 Q2507.8783,288.4744 2509.1908,286.8181 Q2510.519,285.1619 2513.019,285.1619 Q2513.7221,285.1619 2514.3627,285.3181 Q2515.019,285.4744 2515.5815,285.7713 L2515.5815,288.49 Q2514.9565,287.9119 2514.3627,287.6463 Q2513.769,287.365 2513.144,287.365 Q2511.8002,287.365 2511.1127,288.4431 Q2510.4252,289.5056 2510.4252,291.5994 Q2510.4252,293.6931 2511.1127,294.7713 Q2511.8002,295.8338 2513.144,295.8338 Q2513.769,295.8338 2514.3627,295.5681 Q2514.9565,295.2869 2515.5815,294.7088 L2515.5815,297.4275 Z " fill="#000000"/><text fill="#000000" font-family="sans-serif" font-size="14" lengthAdjust="spacing" textLength="154.2666" x="2533.1127" y="296.6336">DiffractionExperiment</text><line style="stroke:#181818;stroke-width:0.5;" x1="2428.83" x2="2759.162" y1="307.7869" y2="307.7869"/><text fill="#000000" font-family="sans-serif" font-size="14" lengthAdjust="spacing" textLength="91.0137" x="2433.83" y="324.782">str file_name</text><text fill="#000000" font-family="sans-serif" font-size="14" lengthAdjust="spacing" textLength="153.7129" x="2433.83" y="341.0789">float exposure_time_s</text><text fill="#000000" font-family="sans-serif" font-size="14" lengthAdjust="spacing" textLength="89.5029" x="2433.83" y="357.3757">str comment</text><text fill="#000000" font-family="sans-serif" font-size="14" lengthAdjust="spacing" textLength="186.915" x="2433.83" y="373.6726">TriggerMode trigger_mode</text><text fill="#000000" font-family="sans-serif" font-size="14" lengthAdjust="spacing" textLength="157.9854" x="2433.83" y="389.9695">int | None run_number</text><text fill="#000000" font-family="sans-serif" font-size="14" lengthAdjust="spacing" textLength="282.3516" x="2433.83" y="406.2664">ApertureValue | None selected_aperture</text><text fill="#000000" font-family="sans-serif" font-size="14" lengthAdjust="spacing" textLength="159.2979" x="2433.83" y="422.5632">float transmission_frac</text><text fill="#000000" font-family="sans-serif" font-size="14" lengthAdjust="spacing" textLength="320.332" x="2433.83" y="438.8601">IspybExperimentType ispyb_experiment_type</text><text fill="#000000" font-family="sans-serif" font-size="14" lengthAdjust="spacing" textLength="146.1113" x="2433.83" y="455.157">str storage_directory</text><text fill="#000000" font-family="sans-serif" font-size="14" lengthAdjust="spacing" textLength="131.0518" x="2433.83" y="471.4539">bool use_roi_mode</text><line style="stroke:#181818;stroke-width:0.5;" x1="2428.83" x2="2759.162" y1="478.7556" y2="478.7556"/></g><!--class MxBlueskyParameters--><g class="entity" data-entity="MxBlueskyParameters" data-source-line="74" data-uid="ent0017" id="entity_MxBlueskyParameters"><rect fill="#F1F1F1" height="64.2969" rx="2.5" ry="2.5" style="stroke:#181818;stroke-width:0.5;" width="317.4639" x="2440.27" y="118.8969"/><ellipse cx="2516.8564" cy="134.8969" fill="#ADD1B2" rx="11" ry="11" style="stroke:#181818;stroke-width:1;"/><path d="M2519.8252,140.5375 Q2519.2471,140.8344 2518.6064,140.975 Q2517.9658,141.1313 2517.2627,141.1313 Q2514.7627,141.1313 2513.4346,139.4906 Q2512.1221,137.8344 2512.1221,134.7094 Q2512.1221,131.5844 2513.4346,129.9281 Q2514.7627,128.2719 2517.2627,128.2719 Q2517.9658,128.2719 2518.6064,128.4281 Q2519.2627,128.5844 2519.8252,128.8813 L2519.8252,131.6 Q2519.2002,131.0219 2518.6064,130.7563 Q2518.0127,130.475 2517.3877,130.475 Q2516.0439,130.475 2515.3564,131.5531 Q2514.6689,132.6156 2514.6689,134.7094 Q2514.6689,136.8031 2515.3564,137.8813 Q2516.0439,138.9438 2517.3877,138.9438 Q2518.0127,138.9438 2518.6064,138.6781 Q2519.2002,138.3969 2519.8252,137.8188 L2519.8252,140.5375 Z " fill="#000000"/><text fill="#000000" font-family="sans-serif" font-size="14" lengthAdjust="spacing" textLength="155.791" x="2537.3564" y="139.7436">MxBlueskyParameters</text><line style="stroke:#181818;stroke-width:0.5;" x1="2441.27" x2="2756.7339" y1="150.8969" y2="150.8969"/><text fill="#000000" font-family="sans-serif" font-size="14" lengthAdjust="spacing" textLength="305.4639" x="2446.27" y="167.892">SemanticVersion parameter_model_version</text><line style="stroke:#181818;stroke-width:0.5;" x1="2441.27" x2="2756.7339" y1="175.1938" y2="175.1938"/></g><!--class SpecifiedThreeDGridScan--><g class="entity" data-entity="SpecifiedThreeDGridScan" data-source-line="77" data-uid="ent0018" id="entity_SpecifiedThreeDGridScan"><rect fill="#F1F1F1" height="227.2656" rx="2.5" ry="2.5" style="stroke:#181818;stroke-width:0.5;" width="210.8965" x="2427.55" y="860.5369"/><ellipse cx="2442.55" cy="876.5369" fill="#ADD1B2" rx="11" ry="11" style="stroke:#181818;stroke-width:1;"/><path d="M2445.5188,882.1775 Q2444.9406,882.4744 2444.3,882.615 Q2443.6594,882.7713 2442.9563,882.7713 Q2440.4563,882.7713 2439.1281,881.1306 Q2437.8156,879.4744 2437.8156,876.3494 Q2437.8156,873.2244 2439.1281,871.5681 Q2440.4563,869.9119 2442.9563,869.9119 Q2443.6594,869.9119 2444.3,870.0681 Q2444.9563,870.2244 2445.5188,870.5213 L2445.5188,873.24 Q2444.8938,872.6619 2444.3,872.3963 Q2443.7063,872.115 2443.0813,872.115 Q2441.7375,872.115 2441.05,873.1931 Q2440.3625,874.2556 2440.3625,876.3494 Q2440.3625,878.4431 2441.05,879.5213 Q2441.7375,880.5838 2443.0813,880.5838 Q2443.7063,880.5838 2444.3,880.3181 Q2444.8938,880.0369 2445.5188,879.4588 L2445.5188,882.1775 Z " fill="#000000"/><text fill="#000000" font-family="sans-serif" font-size="14" lengthAdjust="spacing" textLength="178.8965" x="2456.55" y="881.3836">SpecifiedThreeDGridScan</text><line style="stroke:#181818;stroke-width:0.5;" x1="2428.55" x2="2637.4465" y1="892.5369" y2="892.5369"/><text fill="#000000" font-family="sans-serif" font-size="14" lengthAdjust="spacing" textLength="160.8975" x="2433.55" y="909.532">float grid1_omega_deg</text><text fill="#000000" font-family="sans-serif" font-size="14" lengthAdjust="spacing" textLength="160.8975" x="2433.55" y="925.8289">float grid2_omega_deg</text><text fill="#000000" font-family="sans-serif" font-size="14" lengthAdjust="spacing" textLength="145.127" x="2433.55" y="942.1257">float x_step_size_um</text><text fill="#000000" font-family="sans-serif" font-size="14" lengthAdjust="spacing" textLength="145.127" x="2433.55" y="958.4226">float y_step_size_um</text><text fill="#000000" font-family="sans-serif" font-size="14" lengthAdjust="spacing" textLength="144.1904" x="2433.55" y="974.7195">float z_step_size_um</text><text fill="#000000" font-family="sans-serif" font-size="14" lengthAdjust="spacing" textLength="122.2129" x="2433.55" y="991.0164">float y2_start_um</text><text fill="#000000" font-family="sans-serif" font-size="14" lengthAdjust="spacing" textLength="121.2764" x="2433.55" y="1007.3132">float z2_start_um</text><text fill="#000000" font-family="sans-serif" font-size="14" lengthAdjust="spacing" textLength="75.5645" x="2433.55" y="1023.6101">int x_steps</text><text fill="#000000" font-family="sans-serif" font-size="14" lengthAdjust="spacing" textLength="75.5645" x="2433.55" y="1039.907">int y_steps</text><text fill="#000000" font-family="sans-serif" font-size="14" lengthAdjust="spacing" textLength="74.6279" x="2433.55" y="1056.2039">int z_steps</text><text fill="#000000" font-family="sans-serif" font-size="14" lengthAdjust="spacing" textLength="154.4102" x="2433.55" y="1072.5007">bool _set_stub_offsets</text><line style="stroke:#181818;stroke-width:0.5;" x1="2428.55" x2="2637.4465" y1="1079.8025" y2="1079.8025"/></g><!--class HyperionSpecifiedThreeDGridScan--><g class="entity" data-entity="HyperionSpecifiedThreeDGridScan" data-source-line="93" data-uid="ent0020" id="entity_HyperionSpecifiedThreeDGridScan"><rect fill="#F1F1F1" height="48" rx="2.5" ry="2.5" style="stroke:#181818;stroke-width:0.5;" width="274.293" x="2823.85" y="1172.2469"/><ellipse cx="2838.85" cy="1188.2469" fill="#ADD1B2" rx="11" ry="11" style="stroke:#181818;stroke-width:1;"/><path d="M2841.8188,1193.8875 Q2841.2406,1194.1844 2840.6,1194.325 Q2839.9594,1194.4813 2839.2563,1194.4813 Q2836.7563,1194.4813 2835.4281,1192.8406 Q2834.1156,1191.1844 2834.1156,1188.0594 Q2834.1156,1184.9344 2835.4281,1183.2781 Q2836.7563,1181.6219 2839.2563,1181.6219 Q2839.9594,1181.6219 2840.6,1181.7781 Q2841.2563,1181.9344 2841.8188,1182.2313 L2841.8188,1184.95 Q2841.1938,1184.3719 2840.6,1184.1063 Q2840.0063,1183.825 2839.3813,1183.825 Q2838.0375,1183.825 2837.35,1184.9031 Q2836.6625,1185.9656 2836.6625,1188.0594 Q2836.6625,1190.1531 2837.35,1191.2313 Q2838.0375,1192.2938 2839.3813,1192.2938 Q2840.0063,1192.2938 2840.6,1192.0281 Q2841.1938,1191.7469 2841.8188,1191.1688 L2841.8188,1193.8875 Z " fill="#000000"/><text fill="#000000" font-family="sans-serif" font-size="14" lengthAdjust="spacing" textLength="242.293" x="2852.85" y="1193.0936">HyperionSpecifiedThreeDGridScan</text><line style="stroke:#181818;stroke-width:0.5;" x1="2824.85" x2="3097.143" y1="1204.2469" y2="1204.2469"/><line style="stroke:#181818;stroke-width:0.5;" x1="2824.85" x2="3097.143" y1="1212.2469" y2="1212.2469"/></g><!--class GridCommonWithHyperionDetectorParams--><g class="entity" data-entity="GridCommonWithHyperionDetectorParams" data-source-line="95" data-uid="ent0021" id="entity_GridCommonWithHyperionDetectorParams"><rect fill="#F1F1F1" height="48" rx="2.5" ry="2.5" style="stroke:#181818;stroke-width:0.5;" width="333.2188" x="3133.39" y="1172.2469"/><ellipse cx="3148.39" cy="1188.2469" fill="#ADD1B2" rx="11" ry="11" style="stroke:#181818;stroke-width:1;"/><path d="M3151.3588,1193.8875 Q3150.7806,1194.1844 3150.14,1194.325 Q3149.4994,1194.4813 3148.7963,1194.4813 Q3146.2963,1194.4813 3144.9681,1192.8406 Q3143.6556,1191.1844 3143.6556,1188.0594 Q3143.6556,1184.9344 3144.9681,1183.2781 Q3146.2963,1181.6219 3148.7963,1181.6219 Q3149.4994,1181.6219 3150.14,1181.7781 Q3150.7963,1181.9344 3151.3588,1182.2313 L3151.3588,1184.95 Q3150.7338,1184.3719 3150.14,1184.1063 Q3149.5463,1183.825 3148.9213,1183.825 Q3147.5775,1183.825 3146.89,1184.9031 Q3146.2025,1185.9656 3146.2025,1188.0594 Q3146.2025,1190.1531 3146.89,1191.2313 Q3147.5775,1192.2938 3148.9213,1192.2938 Q3149.5463,1192.2938 3150.14,1192.0281 Q3150.7338,1191.7469 3151.3588,1191.1688 L3151.3588,1193.8875 Z " fill="#000000"/><text fill="#000000" font-family="sans-serif" font-size="14" lengthAdjust="spacing" textLength="301.2188" x="3162.39" y="1193.0936">GridCommonWithHyperionDetectorParams</text><line style="stroke:#181818;stroke-width:0.5;" x1="3134.39" x2="3465.6088" y1="1204.2469" y2="1204.2469"/><line style="stroke:#181818;stroke-width:0.5;" x1="3134.39" x2="3465.6088" y1="1212.2469" y2="1212.2469"/></g><!--class GridScanWithEdgeDetect--><g class="entity" data-entity="GridScanWithEdgeDetect" data-source-line="97" data-uid="ent0022" id="entity_GridScanWithEdgeDetect"><rect fill="#F1F1F1" height="48" rx="2.5" ry="2.5" style="stroke:#181818;stroke-width:0.5;" width="209.4268" x="3199.29" y="1312.8369"/><ellipse cx="3214.29" cy="1328.8369" fill="#ADD1B2" rx="11" ry="11" style="stroke:#181818;stroke-width:1;"/><path d="M3217.2588,1334.4775 Q3216.6806,1334.7744 3216.04,1334.915 Q3215.3994,1335.0713 3214.6963,1335.0713 Q3212.1963,1335.0713 3210.8681,1333.4306 Q3209.5556,1331.7744 3209.5556,1328.6494 Q3209.5556,1325.5244 3210.8681,1323.8681 Q3212.1963,1322.2119 3214.6963,1322.2119 Q3215.3994,1322.2119 3216.04,1322.3681 Q3216.6963,1322.5244 3217.2588,1322.8213 L3217.2588,1325.54 Q3216.6338,1324.9619 3216.04,1324.6963 Q3215.4463,1324.415 3214.8213,1324.415 Q3213.4775,1324.415 3212.79,1325.4931 Q3212.1025,1326.5556 3212.1025,1328.6494 Q3212.1025,1330.7431 3212.79,1331.8213 Q3213.4775,1332.8838 3214.8213,1332.8838 Q3215.4463,1332.8838 3216.04,1332.6181 Q3216.6338,1332.3369 3217.2588,1331.7588 L3217.2588,1334.4775 Z " fill="#000000"/><text fill="#000000" font-family="sans-serif" font-size="14" lengthAdjust="spacing" textLength="177.4268" x="3228.29" y="1333.6836">GridScanWithEdgeDetect</text><line style="stroke:#181818;stroke-width:0.5;" x1="3200.29" x2="3407.7168" y1="1344.8369" y2="1344.8369"/><line style="stroke:#181818;stroke-width:0.5;" x1="3200.29" x2="3407.7168" y1="1352.8369" y2="1352.8369"/></g><!--class MultiRotationScan--><g class="entity" data-entity="MultiRotationScan" data-source-line="99" data-uid="ent0023" id="entity_MultiRotationScan"><rect fill="#F1F1F1" height="64.2969" rx="2.5" ry="2.5" style="stroke:#181818;stroke-width:0.5;" width="540.001" x="3737" y="1304.6869"/><ellipse cx="3939.0327" cy="1320.6869" fill="#ADD1B2" rx="11" ry="11" style="stroke:#181818;stroke-width:1;"/><path d="M3942.0015,1326.3275 Q3941.4233,1326.6244 3940.7827,1326.765 Q3940.1421,1326.9213 3939.439,1326.9213 Q3936.939,1326.9213 3935.6108,1325.2806 Q3934.2983,1323.6244 3934.2983,1320.4994 Q3934.2983,1317.3744 3935.6108,1315.7181 Q3936.939,1314.0619 3939.439,1314.0619 Q3940.1421,1314.0619 3940.7827,1314.2181 Q3941.439,1314.3744 3942.0015,1314.6713 L3942.0015,1317.39 Q3941.3765,1316.8119 3940.7827,1316.5463 Q3940.189,1316.265 3939.564,1316.265 Q3938.2202,1316.265 3937.5327,1317.3431 Q3936.8452,1318.4056 3936.8452,1320.4994 Q3936.8452,1322.5931 3937.5327,1323.6713 Q3938.2202,1324.7338 3939.564,1324.7338 Q3940.189,1324.7338 3940.7827,1324.4681 Q3941.3765,1324.1869 3942.0015,1323.6088 L3942.0015,1326.3275 Z " fill="#000000"/><text fill="#000000" font-family="sans-serif" font-size="14" lengthAdjust="spacing" textLength="127.4355" x="3959.5327" y="1325.5336">MultiRotationScan</text><line style="stroke:#181818;stroke-width:0.5;" x1="3738" x2="4276.001" y1="1336.6869" y2="1336.6869"/><line style="stroke:#181818;stroke-width:0.5;" x1="3738" x2="4276.001" y1="1344.6869" y2="1344.6869"/><text fill="#000000" font-family="sans-serif" font-size="14" lengthAdjust="spacing" textLength="528.001" x="3743" y="1361.682">Annotated[list[RotationScanPerSweep], Len(min_length=1)] rotation_scans</text></g><!--class WithHyperionUDCFeatures--><g class="entity" data-entity="WithHyperionUDCFeatures" data-source-line="102" data-uid="ent0024" id="entity_WithHyperionUDCFeatures"><rect fill="#F1F1F1" height="64.2969" rx="2.5" ry="2.5" style="stroke:#181818;stroke-width:0.5;" width="228.6719" x="3652.66" y="942.0169"/><ellipse cx="3671.7583" cy="958.0169" fill="#ADD1B2" rx="11" ry="11" style="stroke:#181818;stroke-width:1;"/><path d="M3674.7271,963.6575 Q3674.149,963.9544 3673.5083,964.095 Q3672.8677,964.2513 3672.1646,964.2513 Q3669.6646,964.2513 3668.3365,962.6106 Q3667.024,960.9544 3667.024,957.8294 Q3667.024,954.7044 3668.3365,953.0481 Q3669.6646,951.3919 3672.1646,951.3919 Q3672.8677,951.3919 3673.5083,951.5481 Q3674.1646,951.7044 3674.7271,952.0013 L3674.7271,954.72 Q3674.1021,954.1419 3673.5083,953.8763 Q3672.9146,953.595 3672.2896,953.595 Q3670.9458,953.595 3670.2583,954.6731 Q3669.5708,955.7356 3669.5708,957.8294 Q3669.5708,959.9231 3670.2583,961.0013 Q3670.9458,962.0638 3672.2896,962.0638 Q3672.9146,962.0638 3673.5083,961.7981 Q3674.1021,961.5169 3674.7271,960.9388 L3674.7271,963.6575 Z " fill="#000000"/><text fill="#000000" font-family="sans-serif" font-size="14" lengthAdjust="spacing" textLength="187.5645" x="3686.6691" y="962.8636">WithHyperionUDCFeatures</text><line style="stroke:#181818;stroke-width:0.5;" x1="3653.66" x2="3880.3319" y1="974.0169" y2="974.0169"/><text fill="#000000" font-family="sans-serif" font-size="14" lengthAdjust="spacing" textLength="216.6719" x="3658.66" y="991.012">HyperionFeatureFlags features</text><line style="stroke:#181818;stroke-width:0.5;" x1="3653.66" x2="3880.3319" y1="998.3138" y2="998.3138"/></g><!--class LoadCentreCollect--><g class="entity" data-entity="LoadCentreCollect" data-source-line="105" data-uid="ent0025" id="entity_LoadCentreCollect"><rect fill="#F1F1F1" height="80.5938" rx="2.5" ry="2.5" style="stroke:#181818;stroke-width:0.5;" width="338.6211" x="3942.69" y="1155.9469"/><ellipse cx="4043.315" cy="1171.9469" fill="#ADD1B2" rx="11" ry="11" style="stroke:#181818;stroke-width:1;"/><path d="M4046.2838,1177.5875 Q4045.7056,1177.8844 4045.065,1178.025 Q4044.4244,1178.1813 4043.7213,1178.1813 Q4041.2213,1178.1813 4039.8931,1176.5406 Q4038.5806,1174.8844 4038.5806,1171.7594 Q4038.5806,1168.6344 4039.8931,1166.9781 Q4041.2213,1165.3219 4043.7213,1165.3219 Q4044.4244,1165.3219 4045.065,1165.4781 Q4045.7213,1165.6344 4046.2838,1165.9313 L4046.2838,1168.65 Q4045.6588,1168.0719 4045.065,1167.8063 Q4044.4713,1167.525 4043.8463,1167.525 Q4042.5025,1167.525 4041.815,1168.6031 Q4041.1275,1169.6656 4041.1275,1171.7594 Q4041.1275,1173.8531 4041.815,1174.9313 Q4042.5025,1175.9938 4043.8463,1175.9938 Q4044.4713,1175.9938 4045.065,1175.7281 Q4045.6588,1175.4469 4046.2838,1174.8688 L4046.2838,1177.5875 Z " fill="#000000"/><text fill="#000000" font-family="sans-serif" font-size="14" lengthAdjust="spacing" textLength="128.8711" x="4063.815" y="1176.7936">LoadCentreCollect</text><line style="stroke:#181818;stroke-width:0.5;" x1="3943.69" x2="4280.3111" y1="1187.9469" y2="1187.9469"/><text fill="#000000" font-family="sans-serif" font-size="14" lengthAdjust="spacing" textLength="326.6211" x="3948.69" y="1204.942">RobotLoadThenCentre robot_load_then_centre</text><text fill="#000000" font-family="sans-serif" font-size="14" lengthAdjust="spacing" textLength="269.3154" x="3948.69" y="1221.2389">MultiRotationScan multi_rotation_scan</text><line style="stroke:#181818;stroke-width:0.5;" x1="3943.69" x2="4280.3111" y1="1228.5406" y2="1228.5406"/></g><!--class PinTipCentreThenXrayCentre--><g class="entity" data-entity="PinTipCentreThenXrayCentre" data-source-line="109" data-uid="ent0026" id="entity_PinTipCentreThenXrayCentre"><rect fill="#F1F1F1" height="64.2969" rx="2.5" ry="2.5" style="stroke:#181818;stroke-width:0.5;" width="235.8955" x="3459.05" y="1304.6869"/><ellipse cx="3474.05" cy="1320.6869" fill="#ADD1B2" rx="11" ry="11" style="stroke:#181818;stroke-width:1;"/><path d="M3477.0188,1326.3275 Q3476.4406,1326.6244 3475.8,1326.765 Q3475.1594,1326.9213 3474.4563,1326.9213 Q3471.9563,1326.9213 3470.6281,1325.2806 Q3469.3156,1323.6244 3469.3156,1320.4994 Q3469.3156,1317.3744 3470.6281,1315.7181 Q3471.9563,1314.0619 3474.4563,1314.0619 Q3475.1594,1314.0619 3475.8,1314.2181 Q3476.4563,1314.3744 3477.0188,1314.6713 L3477.0188,1317.39 Q3476.3938,1316.8119 3475.8,1316.5463 Q3475.2063,1316.265 3474.5813,1316.265 Q3473.2375,1316.265 3472.55,1317.3431 Q3471.8625,1318.4056 3471.8625,1320.4994 Q3471.8625,1322.5931 3472.55,1323.6713 Q3473.2375,1324.7338 3474.5813,1324.7338 Q3475.2063,1324.7338 3475.8,1324.4681 Q3476.3938,1324.1869 3477.0188,1323.6088 L3477.0188,1326.3275 Z " fill="#000000"/><text fill="#000000" font-family="sans-serif" font-size="14" lengthAdjust="spacing" textLength="203.8955" x="3488.05" y="1325.5336">PinTipCentreThenXrayCentre</text><line style="stroke:#181818;stroke-width:0.5;" x1="3460.05" x2="3693.9455" y1="1336.6869" y2="1336.6869"/><text fill="#000000" font-family="sans-serif" font-size="14" lengthAdjust="spacing" textLength="130.498" x="3465.05" y="1353.682">float tip_offset_um</text><line style="stroke:#181818;stroke-width:0.5;" x1="3460.05" x2="3693.9455" y1="1360.9838" y2="1360.9838"/></g><!--class RotationExperiment--><g class="entity" data-entity="RotationExperiment" data-source-line="112" data-uid="ent0027" id="entity_RotationExperiment"><rect fill="#F1F1F1" height="96.8906" rx="2.5" ry="2.5" style="stroke:#181818;stroke-width:0.5;" width="332.332" x="3501.83" y="1147.7969"/><ellipse cx="3593.7118" cy="1163.7969" fill="#ADD1B2" rx="11" ry="11" style="stroke:#181818;stroke-width:1;"/><path d="M3596.6806,1169.4375 Q3596.1025,1169.7344 3595.4618,1169.875 Q3594.8212,1170.0313 3594.1181,1170.0313 Q3591.6181,1170.0313 3590.29,1168.3906 Q3588.9775,1166.7344 3588.9775,1163.6094 Q3588.9775,1160.4844 3590.29,1158.8281 Q3591.6181,1157.1719 3594.1181,1157.1719 Q3594.8212,1157.1719 3595.4618,1157.3281 Q3596.1181,1157.4844 3596.6806,1157.7813 L3596.6806,1160.5 Q3596.0556,1159.9219 3595.4618,1159.6563 Q3594.8681,1159.375 3594.2431,1159.375 Q3592.8993,1159.375 3592.2118,1160.4531 Q3591.5243,1161.5156 3591.5243,1163.6094 Q3591.5243,1165.7031 3592.2118,1166.7813 Q3592.8993,1167.8438 3594.2431,1167.8438 Q3594.8681,1167.8438 3595.4618,1167.5781 Q3596.0556,1167.2969 3596.6806,1166.7188 L3596.6806,1169.4375 Z " fill="#000000"/><text fill="#000000" font-family="sans-serif" font-size="14" lengthAdjust="spacing" textLength="140.0684" x="3614.2118" y="1168.6436">RotationExperiment</text><line style="stroke:#181818;stroke-width:0.5;" x1="3502.83" x2="3833.162" y1="1179.7969" y2="1179.7969"/><text fill="#000000" font-family="sans-serif" font-size="14" lengthAdjust="spacing" textLength="202.8018" x="3507.83" y="1196.792">float shutter_opening_time_s</text><text fill="#000000" font-family="sans-serif" font-size="14" lengthAdjust="spacing" textLength="202.9385" x="3507.83" y="1213.0889">float rotation_increment_deg</text><text fill="#000000" font-family="sans-serif" font-size="14" lengthAdjust="spacing" textLength="320.332" x="3507.83" y="1229.3857">IspybExperimentType ispyb_experiment_type</text><line style="stroke:#181818;stroke-width:0.5;" x1="3502.83" x2="3833.162" y1="1236.6875" y2="1236.6875"/></g><!--reverse link DiffractionExperiment to DiffractionExperimentWithSample--><g class="link" data-entity-1="DiffractionExperiment" data-entity-2="DiffractionExperimentWithSample" data-source-line="118" data-uid="lnk28" id="link_DiffractionExperiment_DiffractionExperimentWithSample"><path codeLine="118" d="M2594,505.2469 C2594,527.5069 2594,530.9069 2594,546.3269" fill="none" id="DiffractionExperiment-backto-DiffractionExperimentWithSample" style="stroke:#181818;stroke-width:1;"/><polygon fill="none" points="2594,487.2469,2588,505.2469,2600,505.2469,2594,487.2469" style="stroke:#181818;stroke-width:1;"/></g><!--reverse link WithSample to DiffractionExperimentWithSample--><g class="link" data-entity-1="WithSample" data-entity-2="DiffractionExperimentWithSample" data-source-line="119" data-uid="lnk29" id="link_WithSample_DiffractionExperimentWithSample"><path codeLine="119" d="M1020.919,208.3524 C1032.799,214.7124 1029.5,211.8769 1042,215.7869 C1442.47,340.7669 1578.77,167.2369 1984,275.7869 C2188.08,330.4469 2219.01,396.4169 2410,486.7569 C2453.72,507.4269 2503.77,529.9369 2540.62,546.2869" fill="none" id="WithSample-backto-DiffractionExperimentWithSample" style="stroke:#181818;stroke-width:1;"/><polygon fill="none" points="1005.05,199.8569,1018.0872,213.6421,1023.7509,203.0627,1005.05,199.8569" style="stroke:#181818;stroke-width:1;"/></g><!--reverse link WithHyperionUDCFeatures to HyperionSpecifiedThreeDGridScan--><g class="link" data-entity-1="WithHyperionUDCFeatures" data-entity-2="HyperionSpecifiedThreeDGridScan" data-source-line="120" data-uid="lnk30" id="link_WithHyperionUDCFeatures_HyperionSpecifiedThreeDGridScan"><path codeLine="120" d="M3634.8402,1008.6425 C3504.5002,1041.9425 3303.06,1094.3869 3116,1147.7969 C3089.75,1155.2969 3061.14,1163.9169 3035.73,1171.7469" fill="none" id="WithHyperionUDCFeatures-backto-HyperionSpecifiedThreeDGridScan" style="stroke:#181818;stroke-width:1;"/><polygon fill="none" points="3652.28,1004.1869,3633.355,1002.8292,3636.3254,1014.4558,3652.28,1004.1869" style="stroke:#181818;stroke-width:1;"/></g><!--reverse link SpecifiedThreeDGridScan to HyperionSpecifiedThreeDGridScan--><g class="link" data-entity-1="SpecifiedThreeDGridScan" data-entity-2="HyperionSpecifiedThreeDGridScan" data-source-line="121" data-uid="lnk31" id="link_SpecifiedThreeDGridScan_HyperionSpecifiedThreeDGridScan"><path codeLine="121" d="M2654.6768,1040.0414 C2705.6568,1067.0414 2751.88,1091.2169 2808,1119.7969 C2842.83,1137.5469 2882.42,1157.0469 2912.6,1171.7769" fill="none" id="SpecifiedThreeDGridScan-backto-HyperionSpecifiedThreeDGridScan" style="stroke:#181818;stroke-width:1;"/><polygon fill="none" points="2638.77,1031.6169,2651.8686,1045.3437,2657.485,1034.7392,2638.77,1031.6169" style="stroke:#181818;stroke-width:1;"/></g><!--reverse link GridCommon to GridCommonWithHyperionDetectorParams--><g class="link" data-entity-1="GridCommon" data-entity-2="GridCommonWithHyperionDetectorParams" data-source-line="122" data-uid="lnk32" id="link_GridCommon_GridCommonWithHyperionDetectorParams"><path codeLine="122" d="M2718.1668,810.7114 C2880.5368,918.0214 3162.49,1104.3669 3264.5,1171.7769" fill="none" id="GridCommon-backto-GridCommonWithHyperionDetectorParams" style="stroke:#181818;stroke-width:1;"/><polygon fill="none" points="2703.15,800.7869,2714.8586,815.717,2721.475,805.7058,2703.15,800.7869" style="stroke:#181818;stroke-width:1;"/></g><!--reverse link WithHyperionUDCFeatures to GridCommonWithHyperionDetectorParams--><g class="link" data-entity-1="WithHyperionUDCFeatures" data-entity-2="GridCommonWithHyperionDetectorParams" data-source-line="123" data-uid="lnk33" id="link_WithHyperionUDCFeatures_GridCommonWithHyperionDetectorParams"><path codeLine="123" d="M3683.8075,1014.3702 C3588.9775,1059.0602 3433.94,1132.1269 3349.62,1171.8569" fill="none" id="WithHyperionUDCFeatures-backto-GridCommonWithHyperionDetectorParams" style="stroke:#181818;stroke-width:1;"/><polygon fill="none" points="3700.09,1006.6969,3681.2497,1008.9427,3686.3653,1019.7977,3700.09,1006.6969" style="stroke:#181818;stroke-width:1;"/></g><!--reverse link GridCommonWithHyperionDetectorParams to GridScanWithEdgeDetect--><g class="link" data-entity-1="GridCommonWithHyperionDetectorParams" data-entity-2="GridScanWithEdgeDetect" data-source-line="124" data-uid="lnk34" id="link_GridCommonWithHyperionDetectorParams_GridScanWithEdgeDetect"><path codeLine="124" d="M3301.1905,1238.4393 C3301.9305,1264.0193 3302.59,1286.9469 3303.33,1312.5669" fill="none" id="GridCommonWithHyperionDetectorParams-backto-GridScanWithEdgeDetect" style="stroke:#181818;stroke-width:1;"/><polygon fill="none" points="3300.67,1220.4469,3295.193,1238.6128,3307.188,1238.2658,3300.67,1220.4469" style="stroke:#181818;stroke-width:1;"/></g><!--reverse link WithHyperionUDCFeatures to GridScanWithEdgeDetect--><g class="link" data-entity-1="WithHyperionUDCFeatures" data-entity-2="GridScanWithEdgeDetect" data-source-line="125" data-uid="lnk35" id="link_WithHyperionUDCFeatures_GridScanWithEdgeDetect"><path codeLine="125" d="M3805.1022,1020.5404 C3848.6322,1075.1304 3912.64,1174.5369 3852,1244.6869 C3791.79,1314.3569 3532.53,1287.8769 3442,1304.6869 C3429.56,1306.9969 3416.55,1309.6369 3403.68,1312.3869" fill="none" id="WithHyperionUDCFeatures-backto-GridScanWithEdgeDetect" style="stroke:#181818;stroke-width:1;"/><polygon fill="none" points="3793.88,1006.4669,3800.411,1024.2811,3809.7933,1016.7996,3793.88,1006.4669" style="stroke:#181818;stroke-width:1;"/></g><!--reverse link DiffractionExperimentWithSample to GridCommon--><g class="link" data-entity-1="DiffractionExperimentWithSample" data-entity-2="GridCommon" data-source-line="126" data-uid="lnk36" id="link_DiffractionExperimentWithSample_GridCommon"><path codeLine="126" d="M2594,612.9369 C2594,628.8869 2594,633.0169 2594,654.5769" fill="none" id="DiffractionExperimentWithSample-backto-GridCommon" style="stroke:#181818;stroke-width:1;"/><polygon fill="none" points="2594,594.9369,2588,612.9369,2600,612.9369,2594,594.9369" style="stroke:#181818;stroke-width:1;"/></g><!--reverse link OptionalGonioAngleStarts to GridCommon--><g class="link" data-entity-1="OptionalGonioAngleStarts" data-entity-2="GridCommon" data-source-line="127" data-uid="lnk37" id="link_OptionalGonioAngleStarts_GridCommon"><path codeLine="127" d="M823.1607,214.4223 C831.0307,217.3923 822.14,213.6669 830,215.7869 C1043.05,273.1069 1626.62,171.4269 1821,275.7869 C1924.45,331.3169 1886.44,415.8169 1980,486.7569 C2113.95,588.3069 2296.3,652.2969 2427.43,688.3969" fill="none" id="OptionalGonioAngleStarts-backto-GridCommon" style="stroke:#181818;stroke-width:1;"/><polygon fill="none" points="806.32,208.0669,821.0422,220.0358,825.2792,208.8087,806.32,208.0669" style="stroke:#181818;stroke-width:1;"/></g><!--reverse link RotationExperiment to MultiRotationScan--><g class="link" data-entity-1="RotationExperiment" data-entity-2="MultiRotationScan" data-source-line="128" data-uid="lnk38" id="link_RotationExperiment_MultiRotationScan"><path codeLine="128" d="M3801.8012,1251.949 C3849.6412,1271.509 3887,1286.7769 3929.76,1304.2569" fill="none" id="RotationExperiment-backto-MultiRotationScan" style="stroke:#181818;stroke-width:1;"/><polygon fill="none" points="3785.14,1245.1369,3799.5305,1257.5027,3804.0719,1246.3953,3785.14,1245.1369" style="stroke:#181818;stroke-width:1;"/></g><!--reverse link SplitScan to MultiRotationScan--><g class="link" data-entity-1="SplitScan" data-entity-2="MultiRotationScan" data-source-line="129" data-uid="lnk39" id="link_SplitScan_MultiRotationScan"><path codeLine="129" d="M1136.1655,189.304 C1148.0755,203.824 1154.04,207.3669 1174,215.7869 C1380.71,302.9069 2978.47,207.0469 3192,275.7869 C3490.41,371.8369 4296.47,1142.3269 4299,1147.7969 C4317.05,1186.8969 4324.51,1209.9969 4299,1244.6869 C4281.5,1268.4869 4224.06,1288.8169 4164.71,1304.1969" fill="none" id="SplitScan-backto-MultiRotationScan" style="stroke:#181818;stroke-width:1;"/><polygon fill="none" points="1124.75,175.3869,1131.5265,193.1092,1140.8045,185.4988,1124.75,175.3869" style="stroke:#181818;stroke-width:1;"/></g><!--reverse link MxBlueskyParameters to DiffractionExperiment--><g class="link" data-entity-1="MxBlueskyParameters" data-entity-2="DiffractionExperiment" data-source-line="130" data-uid="lnk40" id="link_MxBlueskyParameters_DiffractionExperiment"><path codeLine="130" d="M2597.9224,201.2925 C2597.3924,225.2825 2597.03,241.8769 2596.3,275.3969" fill="none" id="MxBlueskyParameters-backto-DiffractionExperiment" style="stroke:#181818;stroke-width:1;"/><polygon fill="none" points="2598.32,183.2969,2591.9239,201.16,2603.921,201.425,2598.32,183.2969" style="stroke:#181818;stroke-width:1;"/></g><!--reverse link WithSnapshot to DiffractionExperiment--><g class="link" data-entity-1="WithSnapshot" data-entity-2="DiffractionExperiment" data-source-line="131" data-uid="lnk41" id="link_WithSnapshot_DiffractionExperiment"><path codeLine="131" d="M1439.0474,198.2941 C1463.0874,207.7641 1472.78,210.1469 1498,215.7869 C1898.75,305.3669 2028.05,153.2969 2420,275.7869 C2422.52,276.5769 2425.05,277.4069 2427.57,278.2769" fill="none" id="WithSnapshot-backto-DiffractionExperiment" style="stroke:#181818;stroke-width:1;"/><polygon fill="none" points="1422.3,191.6969,1436.8483,203.8766,1441.2465,192.7117,1422.3,191.6969" style="stroke:#181818;stroke-width:1;"/></g><!--reverse link WithOptionalEnergyChange to DiffractionExperiment--><g class="link" data-entity-1="WithOptionalEnergyChange" data-entity-2="DiffractionExperiment" data-source-line="132" data-uid="lnk42" id="link_WithOptionalEnergyChange_DiffractionExperiment"><path codeLine="132" d="M510.607,191.8476 C534.657,204.3276 547.91,209.0069 576,215.7869 C974.55,311.9769 2026.73,159.8569 2420,275.7869 C2422.45,276.5069 2424.9,277.2669 2427.35,278.0769" fill="none" id="WithOptionalEnergyChange-backto-DiffractionExperiment" style="stroke:#181818;stroke-width:1;"/><polygon fill="none" points="494.63,183.5569,507.8434,197.1733,513.3705,186.522,494.63,183.5569" style="stroke:#181818;stroke-width:1;"/></g><!--reverse link WithVisit to DiffractionExperiment--><g class="link" data-entity-1="WithVisit" data-entity-2="DiffractionExperiment" data-source-line="133" data-uid="lnk43" id="link_WithVisit_DiffractionExperiment"><path codeLine="133" d="M2080.3484,216.2125 C2227.6184,259.3125 2276.27,222.0569 2420,275.7869 C2422.48,276.7069 2424.96,277.6669 2427.44,278.6669" fill="none" id="WithVisit-backto-DiffractionExperiment" style="stroke:#181818;stroke-width:1;"/><polygon fill="none" points="2063.26,210.5569,2078.4632,221.9086,2082.2336,210.5163,2063.26,210.5569" style="stroke:#181818;stroke-width:1;"/></g><!--reverse link WithPandaGridScan to WithHyperionUDCFeatures--><g class="link" data-entity-1="WithPandaGridScan" data-entity-2="WithHyperionUDCFeatures" data-source-line="134" data-uid="lnk44" id="link_WithPandaGridScan_WithHyperionUDCFeatures"><path codeLine="134" d="M1706.9411,191.7632 C1731.5311,204.2432 1745.35,209.0569 1774,215.7869 C1888.44,242.6469 3807.07,191.4969 3889,275.7869 C4074.26,466.3769 3859.48,832.5969 3788.31,941.7369" fill="none" id="WithPandaGridScan-backto-WithHyperionUDCFeatures" style="stroke:#181818;stroke-width:1;"/><polygon fill="none" points="1690.89,183.6169,1704.2257,197.1135,1709.6565,186.4128,1690.89,183.6169" style="stroke:#181818;stroke-width:1;"/></g><!--reverse link MxBlueskyParameters to LoadCentreCollect--><g class="link" data-entity-1="MxBlueskyParameters" data-entity-2="LoadCentreCollect" data-source-line="135" data-uid="lnk45" id="link_MxBlueskyParameters_LoadCentreCollect"><path codeLine="135" d="M2776.1672,154.5149 C3142.8572,160.9949 4005.27,185.5769 4102,275.7869 C4198.66,365.9269 4147,437.5769 4147,569.7569 C4147,569.7569 4147,569.7569 4147,728.6469 C4147,887.2569 4126.64,1075.3469 4116.98,1155.6869" fill="none" id="MxBlueskyParameters-backto-LoadCentreCollect" style="stroke:#181818;stroke-width:1;"/><polygon fill="none" points="2758.17,154.1969,2776.0612,160.514,2776.2732,148.5159,2758.17,154.1969" style="stroke:#181818;stroke-width:1;"/></g><!--reverse link WithVisit to LoadCentreCollect--><g class="link" data-entity-1="WithVisit" data-entity-2="LoadCentreCollect" data-source-line="136" data-uid="lnk46" id="link_WithVisit_LoadCentreCollect"><path codeLine="136" d="M2080.3459,216.375 C2181.9859,238.395 3872.17,207.9469 3951,275.7869 C4051.69,362.4369 4005,436.9169 4005,569.7569 C4005,569.7569 4005,569.7569 4005,728.6469 C4005,905.0269 4015.08,952.8569 4072,1119.7969 C4076.11,1131.8669 4081.98,1144.3369 4087.95,1155.5869" fill="none" id="WithVisit-backto-LoadCentreCollect" style="stroke:#181818;stroke-width:1;"/><polygon fill="none" points="2063,211.5669,2078.7432,222.157,2081.9487,210.5931,2063,211.5669" style="stroke:#181818;stroke-width:1;"/></g><!--reverse link WithSample to LoadCentreCollect--><g class="link" data-entity-1="WithSample" data-entity-2="LoadCentreCollect" data-source-line="137" data-uid="lnk47" id="link_WithSample_LoadCentreCollect"><path codeLine="137" d="M1020.2425,208.3559 C1032.3025,214.8059 1029.23,212.0069 1042,215.7869 C1411.68,325.2969 2397.73,201.1569 2776,275.7869 C3144.77,348.5369 3569,193.8669 3569,569.7569 C3569,569.7569 3569,569.7569 3569,728.6469 C3569,904.9469 3507.94,997.5769 3635,1119.7969 C3670.04,1153.5069 3803.96,1140.3169 3852,1147.7969 C3881.24,1152.3469 3912.26,1157.6169 3942.29,1162.9569" fill="none" id="WithSample-backto-LoadCentreCollect" style="stroke:#181818;stroke-width:1;"/><polygon fill="none" points="1004.37,199.8669,1017.4128,213.6467,1023.0722,203.0651,1004.37,199.8669" style="stroke:#181818;stroke-width:1;"/></g><!--reverse link WithCentreSelection to LoadCentreCollect--><g class="link" data-entity-1="WithCentreSelection" data-entity-2="LoadCentreCollect" data-source-line="138" data-uid="lnk48" id="link_WithCentreSelection_LoadCentreCollect"><path codeLine="138" d="M2332.5364,190.7597 C2361.2664,203.1597 2379.34,208.9269 2412,215.7869 C2500.08,234.2869 3963.81,215.8969 4031,275.7869 C4129.67,363.7269 4076,437.5769 4076,569.7569 C4076,569.7569 4076,569.7569 4076,728.6469 C4076,887.2769 4096.94,1075.3569 4106.88,1155.6869" fill="none" id="WithCentreSelection-backto-LoadCentreCollect" style="stroke:#181818;stroke-width:1;"/><polygon fill="none" points="2316.01,183.6269,2330.1588,196.2686,2334.914,185.2509,2316.01,183.6269" style="stroke:#181818;stroke-width:1;"/></g><!--reverse link WithHyperionUDCFeatures to LoadCentreCollect--><g class="link" data-entity-1="WithHyperionUDCFeatures" data-entity-2="LoadCentreCollect" data-source-line="139" data-uid="lnk49" id="link_WithHyperionUDCFeatures_LoadCentreCollect"><path codeLine="139" d="M3801.7683,1020.6114 C3827.4883,1052.9314 3860.22,1088.7569 3908,1119.7969 C3929.45,1133.7369 3953.84,1145.5869 3978.1,1155.4669" fill="none" id="WithHyperionUDCFeatures-backto-LoadCentreCollect" style="stroke:#181818;stroke-width:1;"/><polygon fill="none" points="3790.56,1006.5269,3797.0735,1024.3475,3806.4632,1016.8753,3790.56,1006.5269" style="stroke:#181818;stroke-width:1;"/></g><!--reverse link GridCommonWithHyperionDetectorParams to PinTipCentreThenXrayCentre--><g class="link" data-entity-1="GridCommonWithHyperionDetectorParams" data-entity-2="PinTipCentreThenXrayCentre" data-source-line="140" data-uid="lnk50" id="link_GridCommonWithHyperionDetectorParams_PinTipCentreThenXrayCentre"><path codeLine="140" d="M3362.7776,1228.6509 C3408.6476,1251.6009 3462.87,1278.7369 3513.75,1304.1869" fill="none" id="GridCommonWithHyperionDetectorParams-backto-PinTipCentreThenXrayCentre" style="stroke:#181818;stroke-width:1;"/><polygon fill="none" points="3346.68,1220.5969,3360.0929,1234.0168,3365.4623,1223.2851,3346.68,1220.5969" style="stroke:#181818;stroke-width:1;"/></g><!--reverse link WithHyperionUDCFeatures to PinTipCentreThenXrayCentre--><g class="link" data-entity-1="WithHyperionUDCFeatures" data-entity-2="PinTipCentreThenXrayCentre" data-source-line="141" data-uid="lnk51" id="link_WithHyperionUDCFeatures_PinTipCentreThenXrayCentre"><path codeLine="141" d="M3811.7277,1019.8361 C3862.0877,1072.9261 3935.5,1168.6169 3879,1244.6869 C3867.35,1260.3769 3774.79,1286.9169 3695.17,1307.3169" fill="none" id="WithHyperionUDCFeatures-backto-PinTipCentreThenXrayCentre" style="stroke:#181818;stroke-width:1;"/><polygon fill="none" points="3799.34,1006.7769,3807.3746,1023.9654,3816.0808,1015.7069,3799.34,1006.7769" style="stroke:#181818;stroke-width:1;"/></g><!--reverse link XyzStarts to SpecifiedGrid--><g class="link" data-entity-1="XyzStarts" data-entity-2="SpecifiedGrid" data-source-line="142" data-uid="lnk52" id="link_XyzStarts_SpecifiedGrid"><path codeLine="142" d="M293.4211,210.1692 C302.1011,216.2892 296.62,211.5169 306,215.7869 C599.13,349.0369 992.28,374.3969 1143.8,379.1769" fill="none" id="XyzStarts-backto-SpecifiedGrid" style="stroke:#181818;stroke-width:1;"/><polygon fill="none" points="278.71,199.7969,289.9636,215.0729,296.8785,205.2655,278.71,199.7969" style="stroke:#181818;stroke-width:1;"/></g><!--reverse link WithScan to SpecifiedGrid--><g class="link" data-entity-1="WithScan" data-entity-2="SpecifiedGrid" data-source-line="143" data-uid="lnk53" id="link_WithScan_SpecifiedGrid"><path codeLine="143" d="M109.1073,189.077 C121.3373,203.087 126.84,206.3569 146,215.7869 C324.55,303.6169 943.24,359.3469 1143.75,375.4369" fill="none" id="WithScan-backto-SpecifiedGrid" style="stroke:#181818;stroke-width:1;"/><polygon fill="none" points="97.27,175.5169,104.5873,193.0228,113.6274,185.1313,97.27,175.5169" style="stroke:#181818;stroke-width:1;"/></g><!--reverse link DiffractionExperimentWithSample to RotationExperiment--><g class="link" data-entity-1="DiffractionExperimentWithSample" data-entity-2="RotationExperiment" data-source-line="144" data-uid="lnk54" id="link_DiffractionExperimentWithSample_RotationExperiment"><path codeLine="144" d="M2667.3704,602.3239 C2704.1804,618.0639 2736.3,632.7769 2778,654.7569 C3130.01,840.2469 3202.67,913.6569 3543,1119.7969 C3557.74,1128.7269 3573.47,1138.2369 3588.63,1147.3869" fill="none" id="DiffractionExperimentWithSample-backto-RotationExperiment" style="stroke:#181818;stroke-width:1;"/><polygon fill="none" points="2650.82,595.2469,2665.0114,607.8407,2669.7294,596.807,2650.82,595.2469" style="stroke:#181818;stroke-width:1;"/></g><!--reverse link WithHyperionUDCFeatures to RotationExperiment--><g class="link" data-entity-1="WithHyperionUDCFeatures" data-entity-2="RotationExperiment" data-source-line="145" data-uid="lnk55" id="link_WithHyperionUDCFeatures_RotationExperiment"><path codeLine="145" d="M3745.4344,1023.1119 C3728.8544,1059.9619 3708.64,1104.8869 3689.45,1147.5669" fill="none" id="WithHyperionUDCFeatures-backto-RotationExperiment" style="stroke:#181818;stroke-width:1;"/><polygon fill="none" points="3752.82,1006.6969,3739.9627,1020.65,3750.906,1025.5738,3752.82,1006.6969" style="stroke:#181818;stroke-width:1;"/></g><!--reverse link GridCommon to SpecifiedThreeDGridScan--><g class="link" data-entity-1="GridCommon" data-entity-2="SpecifiedThreeDGridScan" data-source-line="146" data-uid="lnk56" id="link_GridCommon_SpecifiedThreeDGridScan"><path codeLine="146" d="M2571.591,818.4811 C2566.951,837.0711 2566.21,840.0469 2561.19,860.1669" fill="none" id="GridCommon-backto-SpecifiedThreeDGridScan" style="stroke:#181818;stroke-width:1;"/><polygon fill="none" points="2575.95,801.0169,2565.7696,817.0281,2577.4124,819.9341,2575.95,801.0169" style="stroke:#181818;stroke-width:1;"/></g><!--reverse link SpecifiedGrid to SpecifiedThreeDGridScan--><g class="link" data-entity-1="SpecifiedGrid" data-entity-2="SpecifiedThreeDGridScan" data-source-line="147" data-uid="lnk57" id="link_SpecifiedGrid_SpecifiedThreeDGridScan"><path codeLine="147" d="M1245.7378,417.6721 C1324.1778,488.5221 1558.82,690.8769 1803,800.5369 C2013.13,894.8969 2281.37,941.2769 2427.12,960.9269" fill="none" id="SpecifiedGrid-backto-SpecifiedThreeDGridScan" style="stroke:#181818;stroke-width:1;"/><polygon fill="none" points="1232.38,405.6069,1241.716,422.1247,1249.7595,413.2195,1232.38,405.6069" style="stroke:#181818;stroke-width:1;"/></g><!--reverse link SplitScan to SpecifiedThreeDGridScan--><g class="link" data-entity-1="SplitScan" data-entity-2="SpecifiedThreeDGridScan" data-source-line="148" data-uid="lnk58" id="link_SplitScan_SpecifiedThreeDGridScan"><path codeLine="148" d="M1099.5837,193.0116 C1088.5737,250.1416 1070.89,382.4369 1127,486.7569 C1237.55,692.2769 1333.7,708.1569 1548,800.5369 C1848.93,930.2569 2241.57,962.5369 2427.09,970.5369" fill="none" id="SplitScan-backto-SpecifiedThreeDGridScan" style="stroke:#181818;stroke-width:1;"/><polygon fill="none" points="1102.99,175.3369,1093.6922,191.8762,1105.4753,194.1471,1102.99,175.3369" style="stroke:#181818;stroke-width:1;"/></g><!--reverse link WithOptionalEnergyChange to SpecifiedThreeDGridScan--><g class="link" data-entity-1="WithOptionalEnergyChange" data-entity-2="SpecifiedThreeDGridScan" data-source-line="149" data-uid="lnk59" id="link_WithOptionalEnergyChange_SpecifiedThreeDGridScan"><path codeLine="149" d="M512.1359,191.713 C535.9659,203.863 548.59,208.4169 576,215.7869 C882.25,298.1269 983.78,182.9069 1287,275.7869 C1744.76,415.9969 2220.97,741.5469 2427.28,892.9969" fill="none" id="WithOptionalEnergyChange-backto-SpecifiedThreeDGridScan" style="stroke:#181818;stroke-width:1;"/><polygon fill="none" points="496.1,183.5369,509.4106,197.0583,514.8613,186.3677,496.1,183.5369" style="stroke:#181818;stroke-width:1;"/></g><!--SRC=[bLTHRzis47wsVWNVjW5BWFPvUsYTj1lGT47jPGMAWA2biqI48WcIIgsu-Uyxaf8iMPBjFiMy- -vuv7ttYVbbNN1Bjbm0mR-iSkeg1mc6ESZ8fYRjWch1fAjASQth977SOS1VjGR3bIJtpB0I71Xofp8GYGL795giPYciGAFRAKEaaf0aQ7jYEP1oHpUY0ljKNwUgB9MyrcqQI_Q9Kpcu0bFkarGmQyb_t1MhbCbzyjgti58Bs2SBBXsnOK5v5fS_o6VSiRNgAdsQj7FPPLnfmTrmat-qmoCoyL59hjx9NC3ACUCiRhaLYdNPL0avezRxQ0RvaLSNVDQNdl0zCQtxMVj7lsSoOnyDpsB1JQ3sLcegMMcQSOoKAT2o74GkGJg3ZH6G-iDXx5hfp-_hExPRgagwpaDi-4NJ462x95_hbwDRs3L5LcLhgKUMbuDbq4B9j2sKmrptp1N4Dciit-3cojJ9Gk19leKiZrtxMbYuUJkwdWTkkSzfdI4ROANWoBwmUlQU-3C35sw9EaKzYAPAFeD13bADjKGGbnPDU1rK6zZotL6FC4SeS_AwLnfIlkMG-KODgTiownOdBA-N1PCvx4UvI-mdXG2Xy8m9NiUZuNClmmnryHk57U4lqBl-757qEyzSqJF2JYjR6Q2Ebq1jilZRwdfpk_EJNMBNrpZZg0neez0PgKDhidY7QuUn3mpdk6jBO0nab3NUTYV7DLNRBMf3dm0tVBirB93ji6b_i4y2c_Pw-Q9US6PFvL5UPJ06oMvudeFnMaLS_4rBN0pK0IU8oghSWFdfWnecRScjzOpnDV_KfVfABR899R8_01kb1AaiKADuBBQzcBlT-oYZdGhxgLnvuZYUFk3I3tAdhI5OqETe7_DqNHY0cv6iUFAyYQFMboblVZisUpK0VKp0UjBwCerzEvQFlibtAkvYuwBkBrxQHRWswZbdNRLf-6V35BrEVOcAvfCs_1R5Ase_TxDNzJeQHq_aDkocaOdG9Zj4-tYFlSroYBY3_wuIZdzHZddgDprv9wKtGFOj26FVUmzczHr0F_vEFe7yjUII2f2vA_vyyziZCGsIMeJQWHorTVvxi_m0p1FQywYrDgOFWkNuN6ZyNVmdnRBuKLag8KBvYozgevnth0kGqOdReurYDpEA0YQRxqgo69sHbDv21-LskzrpkUOwflJ9lnfMnzN-jDYqEmm490ROed9-EfG6oMNU2KVqTdLmcHe8qnhOVlbSUxvDIXZvuyVLrJaPJ0u_ByTFD3G6do5oCcE_BFX0_eY_P1XEbtjHXaj0XtJZUJjVmaJCcIuSbv_ClIL7m35H8sGq9qdtOfq3J7mUJb0ewJ_8pk6c7Z3dOiAhx1neyBADu9dsp1zl94d7sqy3-fsRHXmzdaz1P_aqXb_EttdrExtdYRZkEH-HWpThqlxVDUMxQ036P3vTw0J-M5JEAfUtd8CE1cSETfhdCr7_0m00]--></g></svg>