<svg xmlns="http://www.w3.org/2000/svg" xmlns:xlink="http://www.w3.org/1999/xlink" contentStyleType="text/css" data-diagram-type="CLASS" height="1202px" preserveAspectRatio="none" style="width:5020px;height:1202px;background:#FFFFFF;" version="1.1" viewBox="0 0 5020 1202" width="5020px" zoomAndPan="magnify"><title>Hyperion Parameter Model</title><defs/><g><text fill="#000000" font-family="sans-serif" font-size="14" font-weight="bold" lengthAdjust="spacing" textLength="212.4951" x="2397.0074" y="22.9951">Hyperion Parameter Model</text><!--cluster mx_bluesky.common.parameters--><g id="cluster_mx_bluesky.common.parameters"><path d="M8.5,43.2969 L269.8125,43.2969 A3.75,3.75 0 0 1 272.3125,45.7969 L279.3125,65.5938 L3574.5,65.5938 A2.5,2.5 0 0 1 3577,68.0938 L3577,1076.6969 A2.5,2.5 0 0 1 3574.5,1079.1969 L8.5,1079.1969 A2.5,2.5 0 0 1 6,1076.6969 L6,45.7969 A2.5,2.5 0 0 1 8.5,43.2969 " fill="none" style="stroke:#000000;stroke-width:1.5;"/><line style="stroke:#000000;stroke-width:1.5;" x1="6" x2="279.3125" y1="65.5938" y2="65.5938"/><text fill="#000000" font-family="sans-serif" font-size="14" font-weight="bold" lengthAdjust="spacing" textLength="260.3125" x="10" y="58.292">mx_bluesky.common.parameters</text></g><!--cluster mx_bluesky.hyperion.parameters--><g id="cluster_mx_bluesky.hyperion.parameters"><path d="M3645.5,841.8269 L3910.0322,841.8269 A3.75,3.75 0 0 1 3912.5322,844.3269 L3919.5322,864.1238 L4940.5,864.1238 A2.5,2.5 0 0 1 4943,866.6238 L4943,1192.9969 A2.5,2.5 0 0 1 4940.5,1195.4969 L3645.5,1195.4969 A2.5,2.5 0 0 1 3643,1192.9969 L3643,844.3269 A2.5,2.5 0 0 1 3645.5,841.8269 " fill="none" style="stroke:#000000;stroke-width:1.5;"/><line style="stroke:#000000;stroke-width:1.5;" x1="3643" x2="3919.5322" y1="864.1238" y2="864.1238"/><text fill="#000000" font-family="sans-serif" font-size="14" font-weight="bold" lengthAdjust="spacing" textLength="263.5322" x="3647" y="856.822">mx_bluesky.hyperion.parameters</text></g><!--class SplitScan--><g id="elem_SplitScan"><rect codeLine="8" fill="#F1F1F1" height="48" id="SplitScan" rx="2.5" ry="2.5" style="stroke:#181818;stroke-width:0.5;" width="97.0781" x="30.46" y="127.0369"/><ellipse cx="45.46" cy="143.0369" fill="#ADD1B2" rx="11" ry="11" style="stroke:#181818;stroke-width:1;"/><path d="M48.4288,148.6775 Q47.8506,148.9744 47.21,149.115 Q46.5694,149.2713 45.8663,149.2713 Q43.3663,149.2713 42.0381,147.6306 Q40.7256,145.9744 40.7256,142.8494 Q40.7256,139.7244 42.0381,138.0681 Q43.3663,136.4119 45.8663,136.4119 Q46.5694,136.4119 47.21,136.5681 Q47.8663,136.7244 48.4288,137.0213 L48.4288,139.74 Q47.8038,139.1619 47.21,138.8963 Q46.6163,138.615 45.9913,138.615 Q44.6475,138.615 43.96,139.6931 Q43.2725,140.7556 43.2725,142.8494 Q43.2725,144.9431 43.96,146.0213 Q44.6475,147.0838 45.9913,147.0838 Q46.6163,147.0838 47.21,146.8181 Q47.8038,146.5369 48.4288,145.9588 L48.4288,148.6775 Z " fill="#000000"/><text fill="#000000" font-family="sans-serif" font-size="14" lengthAdjust="spacing" textLength="65.0781" x="59.46" y="147.8836">SplitScan</text><line style="stroke:#181818;stroke-width:0.5;" x1="31.46" x2="126.5381" y1="159.0369" y2="159.0369"/><line style="stroke:#181818;stroke-width:0.5;" x1="31.46" x2="126.5381" y1="167.0369" y2="167.0369"/></g><!--class OptionalGonioAngleStarts--><g id="elem_OptionalGonioAngleStarts"><rect codeLine="10" fill="#F1F1F1" height="113.1875" id="OptionalGonioAngleStarts" rx="2.5" ry="2.5" style="stroke:#181818;stroke-width:0.5;" width="219.3203" x="1262.34" y="94.4469"/><ellipse cx="1280.0633" cy="110.4469" fill="#ADD1B2" rx="11" ry="11" style="stroke:#181818;stroke-width:1;"/><path d="M1283.032,116.0875 Q1282.4539,116.3844 1281.8133,116.525 Q1281.1727,116.6813 1280.4695,116.6813 Q1277.9695,116.6813 1276.6414,115.0406 Q1275.3289,113.3844 1275.3289,110.2594 Q1275.3289,107.1344 1276.6414,105.4781 Q1277.9695,103.8219 1280.4695,103.8219 Q1281.1727,103.8219 1281.8133,103.9781 Q1282.4695,104.1344 1283.032,104.4313 L1283.032,107.15 Q1282.407,106.5719 1281.8133,106.3063 Q1281.2195,106.025 1280.5945,106.025 Q1279.2508,106.025 1278.5633,107.1031 Q1277.8758,108.1656 1277.8758,110.2594 Q1277.8758,112.3531 1278.5633,113.4313 Q1279.2508,114.4938 1280.5945,114.4938 Q1281.2195,114.4938 1281.8133,114.2281 Q1282.407,113.9469 1283.032,113.3688 L1283.032,116.0875 Z " fill="#000000"/><text fill="#000000" font-family="sans-serif" font-size="14" lengthAdjust="spacing" textLength="181.2686" x="1294.6685" y="115.2936">OptionalGonioAngleStarts</text><line style="stroke:#181818;stroke-width:0.5;" x1="1263.34" x2="1480.6603" y1="126.4469" y2="126.4469"/><text fill="#000000" font-family="sans-serif" font-size="14" lengthAdjust="spacing" textLength="207.3203" x="1268.34" y="143.442">float | None omega_start_deg</text><text fill="#000000" font-family="sans-serif" font-size="14" lengthAdjust="spacing" textLength="180.6875" x="1268.34" y="159.7389">float | None phi_start_deg</text><text fill="#000000" font-family="sans-serif" font-size="14" lengthAdjust="spacing" textLength="179.498" x="1268.34" y="176.0357">float | None chi_start_deg</text><text fill="#000000" font-family="sans-serif" font-size="14" lengthAdjust="spacing" textLength="202.0771" x="1268.34" y="192.3326">float | None kappa_start_deg</text><line style="stroke:#181818;stroke-width:0.5;" x1="1263.34" x2="1480.6603" y1="199.6344" y2="199.6344"/></g><!--class XyzStarts--><g id="elem_XyzStarts"><rect codeLine="16" fill="#F1F1F1" height="96.8906" id="XyzStarts" rx="2.5" ry="2.5" style="stroke:#181818;stroke-width:0.5;" width="125.3057" x="162.35" y="102.5869"/><ellipse cx="189.3141" cy="118.5869" fill="#ADD1B2" rx="11" ry="11" style="stroke:#181818;stroke-width:1;"/><path d="M192.2829,124.2275 Q191.7047,124.5244 191.0641,124.665 Q190.4235,124.8212 189.7204,124.8212 Q187.2204,124.8212 185.8922,123.1806 Q184.5797,121.5244 184.5797,118.3994 Q184.5797,115.2744 185.8922,113.6181 Q187.2204,111.9619 189.7204,111.9619 Q190.4235,111.9619 191.0641,112.1181 Q191.7204,112.2744 192.2829,112.5712 L192.2829,115.29 Q191.6579,114.7119 191.0641,114.4462 Q190.4704,114.165 189.8454,114.165 Q188.5016,114.165 187.8141,115.2431 Q187.1266,116.3056 187.1266,118.3994 Q187.1266,120.4931 187.8141,121.5712 Q188.5016,122.6337 189.8454,122.6337 Q190.4704,122.6337 191.0641,122.3681 Q191.6579,122.0869 192.2829,121.5087 L192.2829,124.2275 Z " fill="#000000"/><text fill="#000000" font-family="sans-serif" font-size="14" lengthAdjust="spacing" textLength="66.7188" x="205.9728" y="123.4336">XyzStarts</text><line style="stroke:#181818;stroke-width:0.5;" x1="163.35" x2="286.6557" y1="134.5869" y2="134.5869"/><text fill="#000000" font-family="sans-serif" font-size="14" lengthAdjust="spacing" textLength="113.3057" x="168.35" y="151.582">float x_start_um</text><text fill="#000000" font-family="sans-serif" font-size="14" lengthAdjust="spacing" textLength="113.3057" x="168.35" y="167.8789">float y_start_um</text><text fill="#000000" font-family="sans-serif" font-size="14" lengthAdjust="spacing" textLength="112.3691" x="168.35" y="184.1757">float z_start_um</text><line style="stroke:#181818;stroke-width:0.5;" x1="163.35" x2="286.6557" y1="191.4775" y2="191.4775"/></g><!--class WithVisit--><g id="elem_WithVisit"><rect codeLine="21" fill="#F1F1F1" height="129.4844" id="WithVisit" rx="2.5" ry="2.5" style="stroke:#181818;stroke-width:0.5;" width="271.7861" x="1517.11" y="86.2969"/><ellipse cx="1617.6359" cy="102.2969" fill="#ADD1B2" rx="11" ry="11" style="stroke:#181818;stroke-width:1;"/><path d="M1620.6046,107.9375 Q1620.0265,108.2344 1619.3859,108.375 Q1618.7453,108.5313 1618.0421,108.5313 Q1615.5421,108.5313 1614.214,106.8906 Q1612.9015,105.2344 1612.9015,102.1094 Q1612.9015,98.9844 1614.214,97.3281 Q1615.5421,95.6719 1618.0421,95.6719 Q1618.7453,95.6719 1619.3859,95.8281 Q1620.0421,95.9844 1620.6046,96.2813 L1620.6046,99 Q1619.9796,98.4219 1619.3859,98.1563 Q1618.7921,97.875 1618.1671,97.875 Q1616.8234,97.875 1616.1359,98.9531 Q1615.4484,100.0156 1615.4484,102.1094 Q1615.4484,104.2031 1616.1359,105.2813 Q1616.8234,106.3438 1618.1671,106.3438 Q1618.7921,106.3438 1619.3859,106.0781 Q1619.9796,105.7969 1620.6046,105.2188 L1620.6046,107.9375 Z " fill="#000000"/><text fill="#000000" font-family="sans-serif" font-size="14" lengthAdjust="spacing" textLength="62.2344" x="1638.1359" y="107.1436">WithVisit</text><line style="stroke:#181818;stroke-width:0.5;" x1="1518.11" x2="1787.8961" y1="118.2969" y2="118.2969"/><text fill="#000000" font-family="sans-serif" font-size="14" lengthAdjust="spacing" textLength="87.9717" x="1523.11" y="135.292">str beamline</text><text fill="#000000" font-family="sans-serif" font-size="14" lengthAdjust="spacing" textLength="51.8369" x="1523.11" y="151.5889">str visit</text><text fill="#000000" font-family="sans-serif" font-size="14" lengthAdjust="spacing" textLength="259.7861" x="1523.11" y="167.8857">str det_dist_to_beam_converter_path</text><text fill="#000000" font-family="sans-serif" font-size="14" lengthAdjust="spacing" textLength="131.5918" x="1523.11" y="184.1826">str insertion_prefix</text><text fill="#000000" font-family="sans-serif" font-size="14" lengthAdjust="spacing" textLength="245.752" x="1523.11" y="200.4795">float | None detector_distance_mm</text><line style="stroke:#181818;stroke-width:0.5;" x1="1518.11" x2="1787.8961" y1="207.7813" y2="207.7813"/></g><!--class WithOptionalEnergyChange--><g id="elem_WithOptionalEnergyChange"><rect codeLine="28" fill="#F1F1F1" height="64.2969" id="WithOptionalEnergyChange" rx="2.5" ry="2.5" style="stroke:#181818;stroke-width:0.5;" width="235.4463" x="322.28" y="118.8869"/><ellipse cx="341.4645" cy="134.8869" fill="#ADD1B2" rx="11" ry="11" style="stroke:#181818;stroke-width:1;"/><path d="M344.4332,140.5275 Q343.8551,140.8244 343.2145,140.965 Q342.5738,141.1213 341.8707,141.1213 Q339.3707,141.1213 338.0426,139.4806 Q336.7301,137.8244 336.7301,134.6994 Q336.7301,131.5744 338.0426,129.9181 Q339.3707,128.2619 341.8707,128.2619 Q342.5738,128.2619 343.2145,128.4181 Q343.8707,128.5744 344.4332,128.8713 L344.4332,131.59 Q343.8082,131.0119 343.2145,130.7463 Q342.6207,130.465 341.9957,130.465 Q340.652,130.465 339.9645,131.5431 Q339.277,132.6056 339.277,134.6994 Q339.277,136.7931 339.9645,137.8713 Q340.652,138.9338 341.9957,138.9338 Q342.6207,138.9338 343.2145,138.6681 Q343.8082,138.3869 344.4332,137.8088 L344.4332,140.5275 Z " fill="#000000"/><text fill="#000000" font-family="sans-serif" font-size="14" lengthAdjust="spacing" textLength="194.1475" x="356.3944" y="139.7336">WithOptionalEnergyChange</text><line style="stroke:#181818;stroke-width:0.5;" x1="323.28" x2="556.7263" y1="150.8869" y2="150.8869"/><text fill="#000000" font-family="sans-serif" font-size="14" lengthAdjust="spacing" textLength="223.4463" x="328.28" y="167.882">float | None demand_energy_ev</text><line style="stroke:#181818;stroke-width:0.5;" x1="323.28" x2="556.7263" y1="175.1838" y2="175.1838"/></g><!--class WithPandaGridScan--><g id="elem_WithPandaGridScan"><rect codeLine="31" fill="#F1F1F1" height="64.2969" id="WithPandaGridScan" rx="2.5" ry="2.5" style="stroke:#181818;stroke-width:0.5;" width="240.5664" x="1823.72" y="118.8869"/><ellipse cx="1870.3172" cy="134.8869" fill="#ADD1B2" rx="11" ry="11" style="stroke:#181818;stroke-width:1;"/><path d="M1873.2859,140.5275 Q1872.7078,140.8244 1872.0672,140.965 Q1871.4265,141.1213 1870.7234,141.1213 Q1868.2234,141.1213 1866.8953,139.4806 Q1865.5828,137.8244 1865.5828,134.6994 Q1865.5828,131.5744 1866.8953,129.9181 Q1868.2234,128.2619 1870.7234,128.2619 Q1871.4265,128.2619 1872.0672,128.4181 Q1872.7234,128.5744 1873.2859,128.8713 L1873.2859,131.59 Q1872.6609,131.0119 1872.0672,130.7463 Q1871.4734,130.465 1870.8484,130.465 Q1869.5047,130.465 1868.8172,131.5431 Q1868.1297,132.6056 1868.1297,134.6994 Q1868.1297,136.7931 1868.8172,137.8713 Q1869.5047,138.9338 1870.8484,138.9338 Q1871.4734,138.9338 1872.0672,138.6681 Q1872.6609,138.3869 1873.2859,137.8088 L1873.2859,140.5275 Z " fill="#000000"/><text fill="#000000" font-family="sans-serif" font-size="14" lengthAdjust="spacing" textLength="138.8721" x="1890.8172" y="139.7336">WithPandaGridScan</text><line style="stroke:#181818;stroke-width:0.5;" x1="1824.72" x2="2063.2864" y1="150.8869" y2="150.8869"/><text fill="#000000" font-family="sans-serif" font-size="14" lengthAdjust="spacing" textLength="228.5664" x="1829.72" y="167.882">float panda_runup_distance_mm</text><line style="stroke:#181818;stroke-width:0.5;" x1="1824.72" x2="2063.2864" y1="175.1838" y2="175.1838"/></g><!--class OptionalXyzStarts--><g id="elem_OptionalXyzStarts"><rect codeLine="34" fill="#F1F1F1" height="96.8906" id="OptionalXyzStarts" rx="2.5" ry="2.5" style="stroke:#181818;stroke-width:0.5;" width="175.4473" x="2441.28" y="102.5869"/><ellipse cx="2464.1713" cy="118.5869" fill="#ADD1B2" rx="11" ry="11" style="stroke:#181818;stroke-width:1;"/><path d="M2467.14,124.2275 Q2466.5619,124.5244 2465.9213,124.665 Q2465.2806,124.8212 2464.5775,124.8212 Q2462.0775,124.8212 2460.7494,123.1806 Q2459.4369,121.5244 2459.4369,118.3994 Q2459.4369,115.2744 2460.7494,113.6181 Q2462.0775,111.9619 2464.5775,111.9619 Q2465.2806,111.9619 2465.9213,112.1181 Q2466.5775,112.2744 2467.14,112.5712 L2467.14,115.29 Q2466.515,114.7119 2465.9213,114.4462 Q2465.3275,114.165 2464.7025,114.165 Q2463.3588,114.165 2462.6713,115.2431 Q2461.9838,116.3056 2461.9838,118.3994 Q2461.9838,120.4931 2462.6713,121.5712 Q2463.3588,122.6337 2464.7025,122.6337 Q2465.3275,122.6337 2465.9213,122.3681 Q2466.515,122.0869 2467.14,121.5087 L2467.14,124.2275 Z " fill="#000000"/><text fill="#000000" font-family="sans-serif" font-size="14" lengthAdjust="spacing" textLength="125.9111" x="2479.9249" y="123.4336">OptionalXyzStarts</text><line style="stroke:#181818;stroke-width:0.5;" x1="2442.28" x2="2615.7273" y1="134.5869" y2="134.5869"/><text fill="#000000" font-family="sans-serif" font-size="14" lengthAdjust="spacing" textLength="163.4473" x="2447.28" y="151.582">float | None x_start_um</text><text fill="#000000" font-family="sans-serif" font-size="14" lengthAdjust="spacing" textLength="163.4473" x="2447.28" y="167.8789">float | None y_start_um</text><text fill="#000000" font-family="sans-serif" font-size="14" lengthAdjust="spacing" textLength="162.5107" x="2447.28" y="184.1757">float | None z_start_um</text><line style="stroke:#181818;stroke-width:0.5;" x1="2442.28" x2="2615.7273" y1="191.4775" y2="191.4775"/></g><!--class WithSnapshot--><g id="elem_WithSnapshot"><rect codeLine="39" fill="#F1F1F1" height="80.5938" id="WithSnapshot" rx="2.5" ry="2.5" style="stroke:#181818;stroke-width:0.5;" width="289.3477" x="804.33" y="110.7369"/><ellipse cx="895.9828" cy="126.7369" fill="#ADD1B2" rx="11" ry="11" style="stroke:#181818;stroke-width:1;"/><path d="M898.9516,132.3775 Q898.3735,132.6744 897.7328,132.815 Q897.0922,132.9713 896.3891,132.9713 Q893.8891,132.9713 892.561,131.3306 Q891.2485,129.6744 891.2485,126.5494 Q891.2485,123.4244 892.561,121.7681 Q893.8891,120.1119 896.3891,120.1119 Q897.0922,120.1119 897.7328,120.2681 Q898.3891,120.4244 898.9516,120.7213 L898.9516,123.44 Q898.3266,122.8619 897.7328,122.5963 Q897.1391,122.315 896.5141,122.315 Q895.1703,122.315 894.4828,123.3931 Q893.7953,124.4556 893.7953,126.5494 Q893.7953,128.6431 894.4828,129.7213 Q895.1703,130.7838 896.5141,130.7838 Q897.1391,130.7838 897.7328,130.5181 Q898.3266,130.2369 898.9516,129.6588 L898.9516,132.3775 Z " fill="#000000"/><text fill="#000000" font-family="sans-serif" font-size="14" lengthAdjust="spacing" textLength="97.542" x="916.4828" y="131.5836">WithSnapshot</text><line style="stroke:#181818;stroke-width:0.5;" x1="805.33" x2="1092.6777" y1="142.7369" y2="142.7369"/><text fill="#000000" font-family="sans-serif" font-size="14" lengthAdjust="spacing" textLength="169.627" x="810.33" y="159.732">Path snapshot_directory</text><text fill="#000000" font-family="sans-serif" font-size="14" lengthAdjust="spacing" textLength="277.3477" x="810.33" y="176.0289">list[float] | None snapshot_omegas_deg</text><line style="stroke:#181818;stroke-width:0.5;" x1="805.33" x2="1092.6777" y1="183.3306" y2="183.3306"/></g><!--class WithCentreSelection--><g id="elem_WithCentreSelection"><rect codeLine="43" fill="#F1F1F1" height="64.2969" id="WithCentreSelection" rx="2.5" ry="2.5" style="stroke:#181818;stroke-width:0.5;" width="306.7861" x="2099.61" y="118.8869"/><ellipse cx="2176.8869" cy="134.8869" fill="#ADD1B2" rx="11" ry="11" style="stroke:#181818;stroke-width:1;"/><path d="M2179.8556,140.5275 Q2179.2775,140.8244 2178.6369,140.965 Q2177.9962,141.1213 2177.2931,141.1213 Q2174.7931,141.1213 2173.465,139.4806 Q2172.1525,137.8244 2172.1525,134.6994 Q2172.1525,131.5744 2173.465,129.9181 Q2174.7931,128.2619 2177.2931,128.2619 Q2177.9962,128.2619 2178.6369,128.4181 Q2179.2931,128.5744 2179.8556,128.8713 L2179.8556,131.59 Q2179.2306,131.0119 2178.6369,130.7463 Q2178.0431,130.465 2177.4181,130.465 Q2176.0744,130.465 2175.3869,131.5431 Q2174.6994,132.6056 2174.6994,134.6994 Q2174.6994,136.7931 2175.3869,137.8713 Q2176.0744,138.9338 2177.4181,138.9338 Q2178.0431,138.9338 2178.6369,138.6681 Q2179.2306,138.3869 2179.8556,137.8088 L2179.8556,140.5275 Z " fill="#000000"/><text fill="#000000" font-family="sans-serif" font-size="14" lengthAdjust="spacing" textLength="143.7324" x="2197.3869" y="139.7336">WithCentreSelection</text><line style="stroke:#181818;stroke-width:0.5;" x1="2100.61" x2="2405.3961" y1="150.8869" y2="150.8869"/><text fill="#000000" font-family="sans-serif" font-size="14" lengthAdjust="spacing" textLength="294.7861" x="2105.61" y="167.882">TopNByMaxCountSelection select_centres</text><line style="stroke:#181818;stroke-width:0.5;" x1="2100.61" x2="2405.3961" y1="175.1838" y2="175.1838"/></g><!--class SpecifiedGrid--><g id="elem_SpecifiedGrid"><rect codeLine="46" fill="#F1F1F1" height="48" id="SpecifiedGrid" rx="2.5" ry="2.5" style="stroke:#181818;stroke-width:0.5;" width="125.6729" x="1115.16" y="349.1169"/><ellipse cx="1130.16" cy="365.1169" fill="#ADD1B2" rx="11" ry="11" style="stroke:#181818;stroke-width:1;"/><path d="M1133.1288,370.7575 Q1132.5506,371.0544 1131.91,371.195 Q1131.2694,371.3513 1130.5663,371.3513 Q1128.0663,371.3513 1126.7381,369.7106 Q1125.4256,368.0544 1125.4256,364.9294 Q1125.4256,361.8044 1126.7381,360.1481 Q1128.0663,358.4919 1130.5663,358.4919 Q1131.2694,358.4919 1131.91,358.6481 Q1132.5663,358.8044 1133.1288,359.1013 L1133.1288,361.82 Q1132.5038,361.2419 1131.91,360.9763 Q1131.3163,360.695 1130.6913,360.695 Q1129.3475,360.695 1128.66,361.7731 Q1127.9725,362.8356 1127.9725,364.9294 Q1127.9725,367.0231 1128.66,368.1013 Q1129.3475,369.1638 1130.6913,369.1638 Q1131.3163,369.1638 1131.91,368.8981 Q1132.5038,368.6169 1133.1288,368.0388 L1133.1288,370.7575 Z " fill="#000000"/><text fill="#000000" font-family="sans-serif" font-size="14" lengthAdjust="spacing" textLength="93.6729" x="1144.16" y="369.9636">SpecifiedGrid</text><line style="stroke:#181818;stroke-width:0.5;" x1="1116.16" x2="1239.8329" y1="381.1169" y2="381.1169"/><line style="stroke:#181818;stroke-width:0.5;" x1="1116.16" x2="1239.8329" y1="389.1169" y2="389.1169"/></g><!--class WithScan--><g id="elem_WithScan"><rect codeLine="48" fill="#F1F1F1" height="48" id="WithScan" rx="2.5" ry="2.5" style="stroke:#181818;stroke-width:0.5;" width="98.1309" x="1128.93" y="127.0369"/><ellipse cx="1143.93" cy="143.0369" fill="#ADD1B2" rx="11" ry="11" style="stroke:#181818;stroke-width:1;"/><path d="M1146.8988,148.6775 Q1146.3206,148.9744 1145.68,149.115 Q1145.0394,149.2713 1144.3363,149.2713 Q1141.8363,149.2713 1140.5081,147.6306 Q1139.1956,145.9744 1139.1956,142.8494 Q1139.1956,139.7244 1140.5081,138.0681 Q1141.8363,136.4119 1144.3363,136.4119 Q1145.0394,136.4119 1145.68,136.5681 Q1146.3363,136.7244 1146.8988,137.0213 L1146.8988,139.74 Q1146.2738,139.1619 1145.68,138.8963 Q1145.0863,138.615 1144.4613,138.615 Q1143.1175,138.615 1142.43,139.6931 Q1141.7425,140.7556 1141.7425,142.8494 Q1141.7425,144.9431 1142.43,146.0213 Q1143.1175,147.0838 1144.4613,147.0838 Q1145.0863,147.0838 1145.68,146.8181 Q1146.2738,146.5369 1146.8988,145.9588 L1146.8988,148.6775 Z " fill="#000000"/><text fill="#000000" font-family="sans-serif" font-size="14" lengthAdjust="spacing" textLength="66.1309" x="1157.93" y="147.8836">WithScan</text><line style="stroke:#181818;stroke-width:0.5;" x1="1129.93" x2="1226.0609" y1="159.0369" y2="159.0369"/><line style="stroke:#181818;stroke-width:0.5;" x1="1129.93" x2="1226.0609" y1="167.0369" y2="167.0369"/></g><!--class WithSample--><g id="elem_WithSample"><rect codeLine="50" fill="#F1F1F1" height="96.8906" id="WithSample" rx="2.5" ry="2.5" style="stroke:#181818;stroke-width:0.5;" width="176.3086" x="592.85" y="102.5869"/><ellipse cx="634.7243" cy="118.5869" fill="#ADD1B2" rx="11" ry="11" style="stroke:#181818;stroke-width:1;"/><path d="M637.6931,124.2275 Q637.1149,124.5244 636.4743,124.665 Q635.8337,124.8212 635.1306,124.8212 Q632.6306,124.8212 631.3024,123.1806 Q629.9899,121.5244 629.9899,118.3994 Q629.9899,115.2744 631.3024,113.6181 Q632.6306,111.9619 635.1306,111.9619 Q635.8337,111.9619 636.4743,112.1181 Q637.1306,112.2744 637.6931,112.5712 L637.6931,115.29 Q637.0681,114.7119 636.4743,114.4462 Q635.8806,114.165 635.2556,114.165 Q633.9118,114.165 633.2243,115.2431 Q632.5368,116.3056 632.5368,118.3994 Q632.5368,120.4931 633.2243,121.5712 Q633.9118,122.6337 635.2556,122.6337 Q635.8806,122.6337 636.4743,122.3681 Q637.0681,122.0869 637.6931,121.5087 L637.6931,124.2275 Z " fill="#000000"/><text fill="#000000" font-family="sans-serif" font-size="14" lengthAdjust="spacing" textLength="84.5879" x="654.6964" y="123.4336">WithSample</text><line style="stroke:#181818;stroke-width:0.5;" x1="593.85" x2="768.1586" y1="134.5869" y2="134.5869"/><text fill="#000000" font-family="sans-serif" font-size="14" lengthAdjust="spacing" textLength="93.3789" x="598.85" y="151.582">int sample_id</text><text fill="#000000" font-family="sans-serif" font-size="14" lengthAdjust="spacing" textLength="164.3086" x="598.85" y="167.8789">int | None sample_puck</text><text fill="#000000" font-family="sans-serif" font-size="14" lengthAdjust="spacing" textLength="152.3936" x="598.85" y="184.1757">int | None sample_pin</text><line style="stroke:#181818;stroke-width:0.5;" x1="593.85" x2="768.1586" y1="191.4775" y2="191.4775"/></g><!--class GridCommon--><g id="elem_GridCommon"><rect codeLine="57" fill="#F1F1F1" height="129.4844" id="GridCommon" rx="2.5" ry="2.5" style="stroke:#181818;stroke-width:0.5;" width="332.332" x="2759.83" y="638.4469"/><ellipse cx="2875.5282" cy="654.4469" fill="#ADD1B2" rx="11" ry="11" style="stroke:#181818;stroke-width:1;"/><path d="M2878.497,660.0875 Q2877.9189,660.3844 2877.2782,660.525 Q2876.6376,660.6813 2875.9345,660.6813 Q2873.4345,660.6813 2872.1064,659.0406 Q2870.7939,657.3844 2870.7939,654.2594 Q2870.7939,651.1344 2872.1064,649.4781 Q2873.4345,647.8219 2875.9345,647.8219 Q2876.6376,647.8219 2877.2782,647.9781 Q2877.9345,648.1344 2878.497,648.4313 L2878.497,651.15 Q2877.872,650.5719 2877.2782,650.3063 Q2876.6845,650.025 2876.0595,650.025 Q2874.7157,650.025 2874.0282,651.1031 Q2873.3407,652.1656 2873.3407,654.2594 Q2873.3407,656.3531 2874.0282,657.4313 Q2874.7157,658.4938 2876.0595,658.4938 Q2876.6845,658.4938 2877.2782,658.2281 Q2877.872,657.9469 2878.497,657.3688 L2878.497,660.0875 Z " fill="#000000"/><text fill="#000000" font-family="sans-serif" font-size="14" lengthAdjust="spacing" textLength="92.4355" x="2896.0282" y="659.2936">GridCommon</text><line style="stroke:#181818;stroke-width:0.5;" x1="2760.83" x2="3091.162" y1="670.4469" y2="670.4469"/><text fill="#000000" font-family="sans-serif" font-size="14" lengthAdjust="spacing" textLength="138.4209" x="2765.83" y="687.442">float grid_width_um</text><text fill="#000000" font-family="sans-serif" font-size="14" lengthAdjust="spacing" textLength="153.7129" x="2765.83" y="703.7389">float exposure_time_s</text><text fill="#000000" font-family="sans-serif" font-size="14" lengthAdjust="spacing" textLength="131.0518" x="2765.83" y="720.0357">bool use_roi_mode</text><text fill="#000000" font-family="sans-serif" font-size="14" lengthAdjust="spacing" textLength="320.332" x="2765.83" y="736.3326">IspybExperimentType ispyb_experiment_type</text><text fill="#000000" font-family="sans-serif" font-size="14" lengthAdjust="spacing" textLength="282.3516" x="2765.83" y="752.6295">ApertureValue | None selected_aperture</text><line style="stroke:#181818;stroke-width:0.5;" x1="2760.83" x2="3091.162" y1="759.9313" y2="759.9313"/></g><!--class DiffractionExperimentWithSample--><g id="elem_DiffractionExperimentWithSample"><rect codeLine="64" fill="#F1F1F1" height="48" id="DiffractionExperimentWithSample" rx="2.5" ry="2.5" style="stroke:#181818;stroke-width:0.5;" width="270.8545" x="2711.57" y="530.4469"/><ellipse cx="2726.57" cy="546.4469" fill="#ADD1B2" rx="11" ry="11" style="stroke:#181818;stroke-width:1;"/><path d="M2729.5388,552.0875 Q2728.9606,552.3844 2728.32,552.525 Q2727.6794,552.6813 2726.9763,552.6813 Q2724.4763,552.6813 2723.1481,551.0406 Q2721.8356,549.3844 2721.8356,546.2594 Q2721.8356,543.1344 2723.1481,541.4781 Q2724.4763,539.8219 2726.9763,539.8219 Q2727.6794,539.8219 2728.32,539.9781 Q2728.9763,540.1344 2729.5388,540.4313 L2729.5388,543.15 Q2728.9138,542.5719 2728.32,542.3063 Q2727.7263,542.025 2727.1013,542.025 Q2725.7575,542.025 2725.07,543.1031 Q2724.3825,544.1656 2724.3825,546.2594 Q2724.3825,548.3531 2725.07,549.4313 Q2725.7575,550.4938 2727.1013,550.4938 Q2727.7263,550.4938 2728.32,550.2281 Q2728.9138,549.9469 2729.5388,549.3688 L2729.5388,552.0875 Z " fill="#000000"/><text fill="#000000" font-family="sans-serif" font-size="14" lengthAdjust="spacing" textLength="238.8545" x="2740.57" y="551.2936">DiffractionExperimentWithSample</text><line style="stroke:#181818;stroke-width:0.5;" x1="2712.57" x2="2981.4245" y1="562.4469" y2="562.4469"/><line style="stroke:#181818;stroke-width:0.5;" x1="2712.57" x2="2981.4245" y1="570.4469" y2="570.4469"/></g><!--class PinTipCentreThenXrayCentre--><g id="elem_PinTipCentreThenXrayCentre"><rect codeLine="66" fill="#F1F1F1" height="64.2969" id="PinTipCentreThenXrayCentre" rx="2.5" ry="2.5" style="stroke:#181818;stroke-width:0.5;" width="235.8955" x="2848.05" y="909.4169"/><ellipse cx="2863.05" cy="925.4169" fill="#ADD1B2" rx="11" ry="11" style="stroke:#181818;stroke-width:1;"/><path d="M2866.0188,931.0575 Q2865.4406,931.3544 2864.8,931.495 Q2864.1594,931.6513 2863.4563,931.6513 Q2860.9563,931.6513 2859.6281,930.0106 Q2858.3156,928.3544 2858.3156,925.2294 Q2858.3156,922.1044 2859.6281,920.4481 Q2860.9563,918.7919 2863.4563,918.7919 Q2864.1594,918.7919 2864.8,918.9481 Q2865.4563,919.1044 2866.0188,919.4013 L2866.0188,922.12 Q2865.3938,921.5419 2864.8,921.2763 Q2864.2063,920.995 2863.5813,920.995 Q2862.2375,920.995 2861.55,922.0731 Q2860.8625,923.1356 2860.8625,925.2294 Q2860.8625,927.3231 2861.55,928.4013 Q2862.2375,929.4638 2863.5813,929.4638 Q2864.2063,929.4638 2864.8,929.1981 Q2865.3938,928.9169 2866.0188,928.3388 L2866.0188,931.0575 Z " fill="#000000"/><text fill="#000000" font-family="sans-serif" font-size="14" lengthAdjust="spacing" textLength="203.8955" x="2877.05" y="930.2636">PinTipCentreThenXrayCentre</text><line style="stroke:#181818;stroke-width:0.5;" x1="2849.05" x2="3082.9455" y1="941.4169" y2="941.4169"/><text fill="#000000" font-family="sans-serif" font-size="14" lengthAdjust="spacing" textLength="130.498" x="2854.05" y="958.412">float tip_offset_um</text><line style="stroke:#181818;stroke-width:0.5;" x1="2849.05" x2="3082.9455" y1="965.7138" y2="965.7138"/></g><!--class DiffractionExperiment--><g id="elem_DiffractionExperiment"><rect codeLine="69" fill="#F1F1F1" height="194.6719" id="DiffractionExperiment" rx="2.5" ry="2.5" style="stroke:#181818;stroke-width:0.5;" width="332.332" x="2640.83" y="275.7769"/><ellipse cx="2725.6127" cy="291.7769" fill="#ADD1B2" rx="11" ry="11" style="stroke:#181818;stroke-width:1;"/><path d="M2728.5815,297.4175 Q2728.0033,297.7144 2727.3627,297.855 Q2726.7221,298.0113 2726.019,298.0113 Q2723.519,298.0113 2722.1908,296.3706 Q2720.8783,294.7144 2720.8783,291.5894 Q2720.8783,288.4644 2722.1908,286.8081 Q2723.519,285.1519 2726.019,285.1519 Q2726.7221,285.1519 2727.3627,285.3081 Q2728.019,285.4644 2728.5815,285.7613 L2728.5815,288.48 Q2727.9565,287.9019 2727.3627,287.6363 Q2726.769,287.355 2726.144,287.355 Q2724.8002,287.355 2724.1127,288.4331 Q2723.4252,289.4956 2723.4252,291.5894 Q2723.4252,293.6831 2724.1127,294.7613 Q2724.8002,295.8238 2726.144,295.8238 Q2726.769,295.8238 2727.3627,295.5581 Q2727.9565,295.2769 2728.5815,294.6988 L2728.5815,297.4175 Z " fill="#000000"/><text fill="#000000" font-family="sans-serif" font-size="14" lengthAdjust="spacing" textLength="154.2666" x="2746.1127" y="296.6236">DiffractionExperiment</text><line style="stroke:#181818;stroke-width:0.5;" x1="2641.83" x2="2972.162" y1="307.7769" y2="307.7769"/><text fill="#000000" font-family="sans-serif" font-size="14" lengthAdjust="spacing" textLength="91.0137" x="2646.83" y="324.772">str file_name</text><text fill="#000000" font-family="sans-serif" font-size="14" lengthAdjust="spacing" textLength="153.7129" x="2646.83" y="341.0689">float exposure_time_s</text><text fill="#000000" font-family="sans-serif" font-size="14" lengthAdjust="spacing" textLength="89.5029" x="2646.83" y="357.3657">str comment</text><text fill="#000000" font-family="sans-serif" font-size="14" lengthAdjust="spacing" textLength="186.915" x="2646.83" y="373.6626">TriggerMode trigger_mode</text><text fill="#000000" font-family="sans-serif" font-size="14" lengthAdjust="spacing" textLength="157.9854" x="2646.83" y="389.9595">int | None run_number</text><text fill="#000000" font-family="sans-serif" font-size="14" lengthAdjust="spacing" textLength="282.3516" x="2646.83" y="406.2564">ApertureValue | None selected_aperture</text><text fill="#000000" font-family="sans-serif" font-size="14" lengthAdjust="spacing" textLength="159.2979" x="2646.83" y="422.5532">float transmission_frac</text><text fill="#000000" font-family="sans-serif" font-size="14" lengthAdjust="spacing" textLength="320.332" x="2646.83" y="438.8501">IspybExperimentType ispyb_experiment_type</text><text fill="#000000" font-family="sans-serif" font-size="14" lengthAdjust="spacing" textLength="146.1113" x="2646.83" y="455.147">str storage_directory</text><line style="stroke:#181818;stroke-width:0.5;" x1="2641.83" x2="2972.162" y1="462.4488" y2="462.4488"/></g><!--class GridScanWithEdgeDetect--><g id="elem_GridScanWithEdgeDetect"><rect codeLine="80" fill="#F1F1F1" height="64.2969" id="GridScanWithEdgeDetect" rx="2.5" ry="2.5" style="stroke:#181818;stroke-width:0.5;" width="209.4268" x="3119.29" y="909.4169"/><ellipse cx="3134.29" cy="925.4169" fill="#ADD1B2" rx="11" ry="11" style="stroke:#181818;stroke-width:1;"/><path d="M3137.2588,931.0575 Q3136.6806,931.3544 3136.04,931.495 Q3135.3994,931.6513 3134.6963,931.6513 Q3132.1963,931.6513 3130.8681,930.0106 Q3129.5556,928.3544 3129.5556,925.2294 Q3129.5556,922.1044 3130.8681,920.4481 Q3132.1963,918.7919 3134.6963,918.7919 Q3135.3994,918.7919 3136.04,918.9481 Q3136.6963,919.1044 3137.2588,919.4013 L3137.2588,922.12 Q3136.6338,921.5419 3136.04,921.2763 Q3135.4463,920.995 3134.8213,920.995 Q3133.4775,920.995 3132.79,922.0731 Q3132.1025,923.1356 3132.1025,925.2294 Q3132.1025,927.3231 3132.79,928.4013 Q3133.4775,929.4638 3134.8213,929.4638 Q3135.4463,929.4638 3136.04,929.1981 Q3136.6338,928.9169 3137.2588,928.3388 L3137.2588,931.0575 Z " fill="#000000"/><text fill="#000000" font-family="sans-serif" font-size="14" lengthAdjust="spacing" textLength="177.4268" x="3148.29" y="930.2636">GridScanWithEdgeDetect</text><line style="stroke:#181818;stroke-width:0.5;" x1="3120.29" x2="3327.7168" y1="941.4169" y2="941.4169"/><text fill="#000000" font-family="sans-serif" font-size="14" lengthAdjust="spacing" textLength="125.2959" x="3125.29" y="958.412">float box_size_um</text><line style="stroke:#181818;stroke-width:0.5;" x1="3120.29" x2="3327.7168" y1="965.7138" y2="965.7138"/></g><!--class ThreeDGridScan--><g id="elem_ThreeDGridScan"><rect codeLine="83" fill="#F1F1F1" height="227.2656" id="ThreeDGridScan" rx="2.5" ry="2.5" style="stroke:#181818;stroke-width:0.5;" width="172.8975" x="2640.55" y="827.9369"/><ellipse cx="2667.3818" cy="843.9369" fill="#ADD1B2" rx="11" ry="11" style="stroke:#181818;stroke-width:1;"/><path d="M2670.3506,849.5775 Q2669.7725,849.8744 2669.1318,850.015 Q2668.4912,850.1713 2667.7881,850.1713 Q2665.2881,850.1713 2663.96,848.5306 Q2662.6475,846.8744 2662.6475,843.7494 Q2662.6475,840.6244 2663.96,838.9681 Q2665.2881,837.3119 2667.7881,837.3119 Q2668.4912,837.3119 2669.1318,837.4681 Q2669.7881,837.6244 2670.3506,837.9213 L2670.3506,840.64 Q2669.7256,840.0619 2669.1318,839.7963 Q2668.5381,839.515 2667.9131,839.515 Q2666.5693,839.515 2665.8818,840.5931 Q2665.1943,841.6556 2665.1943,843.7494 Q2665.1943,845.8431 2665.8818,846.9213 Q2666.5693,847.9838 2667.9131,847.9838 Q2668.5381,847.9838 2669.1318,847.7181 Q2669.7256,847.4369 2670.3506,846.8588 L2670.3506,849.5775 Z " fill="#000000"/><text fill="#000000" font-family="sans-serif" font-size="14" lengthAdjust="spacing" textLength="114.6045" x="2684.0111" y="848.7836">ThreeDGridScan</text><line style="stroke:#181818;stroke-width:0.5;" x1="2641.55" x2="2812.4475" y1="859.9369" y2="859.9369"/><text fill="#000000" font-family="sans-serif" font-size="14" lengthAdjust="spacing" textLength="160.8975" x="2646.55" y="876.932">float grid1_omega_deg</text><text fill="#000000" font-family="sans-serif" font-size="14" lengthAdjust="spacing" textLength="160.8975" x="2646.55" y="893.2289">float grid2_omega_deg</text><text fill="#000000" font-family="sans-serif" font-size="14" lengthAdjust="spacing" textLength="145.127" x="2646.55" y="909.5257">float x_step_size_um</text><text fill="#000000" font-family="sans-serif" font-size="14" lengthAdjust="spacing" textLength="145.127" x="2646.55" y="925.8226">float y_step_size_um</text><text fill="#000000" font-family="sans-serif" font-size="14" lengthAdjust="spacing" textLength="144.1904" x="2646.55" y="942.1195">float z_step_size_um</text><text fill="#000000" font-family="sans-serif" font-size="14" lengthAdjust="spacing" textLength="122.2129" x="2646.55" y="958.4164">float y2_start_um</text><text fill="#000000" font-family="sans-serif" font-size="14" lengthAdjust="spacing" textLength="121.2764" x="2646.55" y="974.7132">float z2_start_um</text><text fill="#000000" font-family="sans-serif" font-size="14" lengthAdjust="spacing" textLength="75.5645" x="2646.55" y="991.0101">int x_steps</text><text fill="#000000" font-family="sans-serif" font-size="14" lengthAdjust="spacing" textLength="75.5645" x="2646.55" y="1007.307">int y_steps</text><text fill="#000000" font-family="sans-serif" font-size="14" lengthAdjust="spacing" textLength="74.6279" x="2646.55" y="1023.6039">int z_steps</text><text fill="#000000" font-family="sans-serif" font-size="14" lengthAdjust="spacing" textLength="154.4102" x="2646.55" y="1039.9007">bool _set_stub_offsets</text><line style="stroke:#181818;stroke-width:0.5;" x1="2641.55" x2="2812.4475" y1="1047.2025" y2="1047.2025"/></g><!--class RobotLoadThenCentre--><g id="elem_RobotLoadThenCentre"><rect codeLine="96" fill="#F1F1F1" height="64.2969" id="RobotLoadThenCentre" rx="2.5" ry="2.5" style="stroke:#181818;stroke-width:0.5;" width="189.0967" x="3363.45" y="909.4169"/><ellipse cx="3378.45" cy="925.4169" fill="#ADD1B2" rx="11" ry="11" style="stroke:#181818;stroke-width:1;"/><path d="M3381.4188,931.0575 Q3380.8406,931.3544 3380.2,931.495 Q3379.5594,931.6513 3378.8563,931.6513 Q3376.3563,931.6513 3375.0281,930.0106 Q3373.7156,928.3544 3373.7156,925.2294 Q3373.7156,922.1044 3375.0281,920.4481 Q3376.3563,918.7919 3378.8563,918.7919 Q3379.5594,918.7919 3380.2,918.9481 Q3380.8563,919.1044 3381.4188,919.4013 L3381.4188,922.12 Q3380.7938,921.5419 3380.2,921.2763 Q3379.6063,920.995 3378.9813,920.995 Q3377.6375,920.995 3376.95,922.0731 Q3376.2625,923.1356 3376.2625,925.2294 Q3376.2625,927.3231 3376.95,928.4013 Q3377.6375,929.4638 3378.9813,929.4638 Q3379.6063,929.4638 3380.2,929.1981 Q3380.7938,928.9169 3381.4188,928.3388 L3381.4188,931.0575 Z " fill="#000000"/><text fill="#000000" font-family="sans-serif" font-size="14" lengthAdjust="spacing" textLength="157.0967" x="3392.45" y="930.2636">RobotLoadThenCentre</text><line style="stroke:#181818;stroke-width:0.5;" x1="3364.45" x2="3551.5467" y1="941.4169" y2="941.4169"/><text fill="#000000" font-family="sans-serif" font-size="14" lengthAdjust="spacing" textLength="130.5732" x="3369.45" y="958.412">float thawing_time</text><line style="stroke:#181818;stroke-width:0.5;" x1="3364.45" x2="3551.5467" y1="965.7138" y2="965.7138"/></g><!--class MxBlueskyParameters--><g id="elem_MxBlueskyParameters"><rect codeLine="99" fill="#F1F1F1" height="64.2969" id="MxBlueskyParameters" rx="2.5" ry="2.5" style="stroke:#181818;stroke-width:0.5;" width="317.4639" x="2943.27" y="118.8869"/><ellipse cx="3019.8564" cy="134.8869" fill="#ADD1B2" rx="11" ry="11" style="stroke:#181818;stroke-width:1;"/><path d="M3022.8252,140.5275 Q3022.2471,140.8244 3021.6064,140.965 Q3020.9658,141.1213 3020.2627,141.1213 Q3017.7627,141.1213 3016.4346,139.4806 Q3015.1221,137.8244 3015.1221,134.6994 Q3015.1221,131.5744 3016.4346,129.9181 Q3017.7627,128.2619 3020.2627,128.2619 Q3020.9658,128.2619 3021.6064,128.4181 Q3022.2627,128.5744 3022.8252,128.8713 L3022.8252,131.59 Q3022.2002,131.0119 3021.6064,130.7463 Q3021.0127,130.465 3020.3877,130.465 Q3019.0439,130.465 3018.3564,131.5431 Q3017.6689,132.6056 3017.6689,134.6994 Q3017.6689,136.7931 3018.3564,137.8713 Q3019.0439,138.9338 3020.3877,138.9338 Q3021.0127,138.9338 3021.6064,138.6681 Q3022.2002,138.3869 3022.8252,137.8088 L3022.8252,140.5275 Z " fill="#000000"/><text fill="#000000" font-family="sans-serif" font-size="14" lengthAdjust="spacing" textLength="155.791" x="3040.3564" y="139.7336">MxBlueskyParameters</text><line style="stroke:#181818;stroke-width:0.5;" x1="2944.27" x2="3259.7339" y1="150.8869" y2="150.8869"/><text fill="#000000" font-family="sans-serif" font-size="14" lengthAdjust="spacing" textLength="305.4639" x="2949.27" y="167.882">SemanticVersion parameter_model_version</text><line style="stroke:#181818;stroke-width:0.5;" x1="2944.27" x2="3259.7339" y1="175.1838" y2="175.1838"/></g><!--class MultiRotationScan--><g id="elem_MultiRotationScan"><rect codeLine="105" fill="#F1F1F1" height="64.2969" id="MultiRotationScan" rx="2.5" ry="2.5" style="stroke:#181818;stroke-width:0.5;" width="540.001" x="3659" y="1115.1969"/><ellipse cx="3861.0327" cy="1131.1969" fill="#ADD1B2" rx="11" ry="11" style="stroke:#181818;stroke-width:1;"/><path d="M3864.0015,1136.8375 Q3863.4233,1137.1344 3862.7827,1137.275 Q3862.1421,1137.4313 3861.439,1137.4313 Q3858.939,1137.4313 3857.6108,1135.7906 Q3856.2983,1134.1344 3856.2983,1131.0094 Q3856.2983,1127.8844 3857.6108,1126.2281 Q3858.939,1124.5719 3861.439,1124.5719 Q3862.1421,1124.5719 3862.7827,1124.7281 Q3863.439,1124.8844 3864.0015,1125.1813 L3864.0015,1127.9 Q3863.3765,1127.3219 3862.7827,1127.0563 Q3862.189,1126.775 3861.564,1126.775 Q3860.2202,1126.775 3859.5327,1127.8531 Q3858.8452,1128.9156 3858.8452,1131.0094 Q3858.8452,1133.1031 3859.5327,1134.1813 Q3860.2202,1135.2438 3861.564,1135.2438 Q3862.189,1135.2438 3862.7827,1134.9781 Q3863.3765,1134.6969 3864.0015,1134.1188 L3864.0015,1136.8375 Z " fill="#000000"/><text fill="#000000" font-family="sans-serif" font-size="14" lengthAdjust="spacing" textLength="127.4355" x="3881.5327" y="1136.0436">MultiRotationScan</text><line style="stroke:#181818;stroke-width:0.5;" x1="3660" x2="4198.001" y1="1147.1969" y2="1147.1969"/><line style="stroke:#181818;stroke-width:0.5;" x1="3660" x2="4198.001" y1="1155.1969" y2="1155.1969"/><text fill="#000000" font-family="sans-serif" font-size="14" lengthAdjust="spacing" textLength="528.001" x="3665" y="1172.192">Annotated[list[RotationScanPerSweep], Len(min_length=1)] rotation_scans</text></g><!--class HyperionThreeDGridScan--><g id="elem_HyperionThreeDGridScan"><rect codeLine="108" fill="#F1F1F1" height="48" id="HyperionThreeDGridScan" rx="2.5" ry="2.5" style="stroke:#181818;stroke-width:0.5;" width="210.001" x="4234" y="1123.3469"/><ellipse cx="4249" cy="1139.3469" fill="#ADD1B2" rx="11" ry="11" style="stroke:#181818;stroke-width:1;"/><path d="M4251.9688,1144.9875 Q4251.3906,1145.2844 4250.75,1145.425 Q4250.1094,1145.5813 4249.4063,1145.5813 Q4246.9063,1145.5813 4245.5781,1143.9406 Q4244.2656,1142.2844 4244.2656,1139.1594 Q4244.2656,1136.0344 4245.5781,1134.3781 Q4246.9063,1132.7219 4249.4063,1132.7219 Q4250.1094,1132.7219 4250.75,1132.8781 Q4251.4063,1133.0344 4251.9688,1133.3313 L4251.9688,1136.05 Q4251.3438,1135.4719 4250.75,1135.2063 Q4250.1563,1134.925 4249.5313,1134.925 Q4248.1875,1134.925 4247.5,1136.0031 Q4246.8125,1137.0656 4246.8125,1139.1594 Q4246.8125,1141.2531 4247.5,1142.3313 Q4248.1875,1143.3938 4249.5313,1143.3938 Q4250.1563,1143.3938 4250.75,1143.1281 Q4251.3438,1142.8469 4251.9688,1142.2688 L4251.9688,1144.9875 Z " fill="#000000"/><text fill="#000000" font-family="sans-serif" font-size="14" lengthAdjust="spacing" textLength="178.001" x="4263" y="1144.1936">HyperionThreeDGridScan</text><line style="stroke:#181818;stroke-width:0.5;" x1="4235" x2="4443.001" y1="1155.3469" y2="1155.3469"/><line style="stroke:#181818;stroke-width:0.5;" x1="4235" x2="4443.001" y1="1163.3469" y2="1163.3469"/></g><!--class RotationExperiment--><g id="elem_RotationExperiment"><rect codeLine="110" fill="#F1F1F1" height="96.8906" id="RotationExperiment" rx="2.5" ry="2.5" style="stroke:#181818;stroke-width:0.5;" width="332.332" x="3658.83" y="893.1269"/><ellipse cx="3750.7118" cy="909.1269" fill="#ADD1B2" rx="11" ry="11" style="stroke:#181818;stroke-width:1;"/><path d="M3753.6806,914.7675 Q3753.1025,915.0644 3752.4618,915.205 Q3751.8212,915.3613 3751.1181,915.3613 Q3748.6181,915.3613 3747.29,913.7206 Q3745.9775,912.0644 3745.9775,908.9394 Q3745.9775,905.8144 3747.29,904.1581 Q3748.6181,902.5019 3751.1181,902.5019 Q3751.8212,902.5019 3752.4618,902.6581 Q3753.1181,902.8144 3753.6806,903.1113 L3753.6806,905.83 Q3753.0556,905.2519 3752.4618,904.9863 Q3751.8681,904.705 3751.2431,904.705 Q3749.8993,904.705 3749.2118,905.7831 Q3748.5243,906.8456 3748.5243,908.9394 Q3748.5243,911.0331 3749.2118,912.1113 Q3749.8993,913.1738 3751.2431,913.1738 Q3751.8681,913.1738 3752.4618,912.9081 Q3753.0556,912.6269 3753.6806,912.0488 L3753.6806,914.7675 Z " fill="#000000"/><text fill="#000000" font-family="sans-serif" font-size="14" lengthAdjust="spacing" textLength="140.0684" x="3771.2118" y="913.9736">RotationExperiment</text><line style="stroke:#181818;stroke-width:0.5;" x1="3659.83" x2="3990.162" y1="925.1269" y2="925.1269"/><text fill="#000000" font-family="sans-serif" font-size="14" lengthAdjust="spacing" textLength="202.8018" x="3664.83" y="942.122">float shutter_opening_time_s</text><text fill="#000000" font-family="sans-serif" font-size="14" lengthAdjust="spacing" textLength="202.9385" x="3664.83" y="958.4189">float rotation_increment_deg</text><text fill="#000000" font-family="sans-serif" font-size="14" lengthAdjust="spacing" textLength="320.332" x="3664.83" y="974.7157">IspybExperimentType ispyb_experiment_type</text><line style="stroke:#181818;stroke-width:0.5;" x1="3659.83" x2="3990.162" y1="982.0175" y2="982.0175"/></g><!--class RotationScanPerSweep--><g id="elem_RotationScanPerSweep"><rect codeLine="115" fill="#F1F1F1" height="129.4844" id="RotationScanPerSweep" rx="2.5" ry="2.5" style="stroke:#181818;stroke-width:0.5;" width="263.0498" x="4663.48" y="876.8269"/><ellipse cx="4709.5166" cy="892.8269" fill="#ADD1B2" rx="11" ry="11" style="stroke:#181818;stroke-width:1;"/><path d="M4712.4854,898.4675 Q4711.9072,898.7644 4711.2666,898.905 Q4710.626,899.0613 4709.9229,899.0613 Q4707.4229,899.0613 4706.0947,897.4206 Q4704.7822,895.7644 4704.7822,892.6394 Q4704.7822,889.5144 4706.0947,887.8581 Q4707.4229,886.2019 4709.9229,886.2019 Q4710.626,886.2019 4711.2666,886.3581 Q4711.9229,886.5144 4712.4854,886.8113 L4712.4854,889.53 Q4711.8604,888.9519 4711.2666,888.6863 Q4710.6729,888.405 4710.0479,888.405 Q4708.7041,888.405 4708.0166,889.4831 Q4707.3291,890.5456 4707.3291,892.6394 Q4707.3291,894.7331 4708.0166,895.8113 Q4708.7041,896.8738 4710.0479,896.8738 Q4710.6729,896.8738 4711.2666,896.6081 Q4711.8604,896.3269 4712.4854,895.7488 L4712.4854,898.4675 Z " fill="#000000"/><text fill="#000000" font-family="sans-serif" font-size="14" lengthAdjust="spacing" textLength="162.4766" x="4730.0166" y="897.6736">RotationScanPerSweep</text><line style="stroke:#181818;stroke-width:0.5;" x1="4664.48" x2="4925.5298" y1="908.8269" y2="908.8269"/><text fill="#000000" font-family="sans-serif" font-size="14" lengthAdjust="spacing" textLength="157.1787" x="4669.48" y="925.822">float omega_start_deg</text><text fill="#000000" font-family="sans-serif" font-size="14" lengthAdjust="spacing" textLength="182.9297" x="4669.48" y="942.1189">RotationAxis rotation_axis</text><text fill="#000000" font-family="sans-serif" font-size="14" lengthAdjust="spacing" textLength="147.3213" x="4669.48" y="958.4157">float scan_width_deg</text><text fill="#000000" font-family="sans-serif" font-size="14" lengthAdjust="spacing" textLength="251.0498" x="4669.48" y="974.7126">RotationDirection rotation_direction</text><text fill="#000000" font-family="sans-serif" font-size="14" lengthAdjust="spacing" textLength="169.1279" x="4669.48" y="991.0095">int nexus_vds_start_img</text><line style="stroke:#181818;stroke-width:0.5;" x1="4664.48" x2="4925.5298" y1="998.3113" y2="998.3113"/></g><!--class WithHyperionFeatures--><g id="elem_WithHyperionFeatures"><rect codeLine="122" fill="#F1F1F1" height="64.2969" id="WithHyperionFeatures" rx="2.5" ry="2.5" style="stroke:#181818;stroke-width:0.5;" width="228.6719" x="4399.66" y="909.4169"/><ellipse cx="4432.6196" cy="925.4169" fill="#ADD1B2" rx="11" ry="11" style="stroke:#181818;stroke-width:1;"/><path d="M4435.5883,931.0575 Q4435.0102,931.3544 4434.3696,931.495 Q4433.7289,931.6513 4433.0258,931.6513 Q4430.5258,931.6513 4429.1977,930.0106 Q4427.8852,928.3544 4427.8852,925.2294 Q4427.8852,922.1044 4429.1977,920.4481 Q4430.5258,918.7919 4433.0258,918.7919 Q4433.7289,918.7919 4434.3696,918.9481 Q4435.0258,919.1044 4435.5883,919.4013 L4435.5883,922.12 Q4434.9633,921.5419 4434.3696,921.2763 Q4433.7758,920.995 4433.1508,920.995 Q4431.8071,920.995 4431.1196,922.0731 Q4430.4321,923.1356 4430.4321,925.2294 Q4430.4321,927.3231 4431.1196,928.4013 Q4431.8071,929.4638 4433.1508,929.4638 Q4433.7758,929.4638 4434.3696,929.1981 Q4434.9633,928.9169 4435.5883,928.3388 L4435.5883,931.0575 Z " fill="#000000"/><text fill="#000000" font-family="sans-serif" font-size="14" lengthAdjust="spacing" textLength="156.7617" x="4450.6106" y="930.2636">WithHyperionFeatures</text><line style="stroke:#181818;stroke-width:0.5;" x1="4400.66" x2="4627.3319" y1="941.4169" y2="941.4169"/><text fill="#000000" font-family="sans-serif" font-size="14" lengthAdjust="spacing" textLength="216.6719" x="4405.66" y="958.412">HyperionFeatureFlags features</text><line style="stroke:#181818;stroke-width:0.5;" x1="4400.66" x2="4627.3319" y1="965.7138" y2="965.7138"/></g><!--class LoadCentreCollect--><g id="elem_LoadCentreCollect"><rect codeLine="125" fill="#F1F1F1" height="80.5938" id="LoadCentreCollect" rx="2.5" ry="2.5" style="stroke:#181818;stroke-width:0.5;" width="338.6211" x="4025.69" y="901.2669"/><ellipse cx="4126.315" cy="917.2669" fill="#ADD1B2" rx="11" ry="11" style="stroke:#181818;stroke-width:1;"/><path d="M4129.2838,922.9075 Q4128.7056,923.2044 4128.065,923.345 Q4127.4244,923.5013 4126.7213,923.5013 Q4124.2213,923.5013 4122.8931,921.8606 Q4121.5806,920.2044 4121.5806,917.0794 Q4121.5806,913.9544 4122.8931,912.2981 Q4124.2213,910.6419 4126.7213,910.6419 Q4127.4244,910.6419 4128.065,910.7981 Q4128.7213,910.9544 4129.2838,911.2513 L4129.2838,913.97 Q4128.6588,913.3919 4128.065,913.1263 Q4127.4713,912.845 4126.8463,912.845 Q4125.5025,912.845 4124.815,913.9231 Q4124.1275,914.9856 4124.1275,917.0794 Q4124.1275,919.1731 4124.815,920.2513 Q4125.5025,921.3138 4126.8463,921.3138 Q4127.4713,921.3138 4128.065,921.0481 Q4128.6588,920.7669 4129.2838,920.1888 L4129.2838,922.9075 Z " fill="#000000"/><text fill="#000000" font-family="sans-serif" font-size="14" lengthAdjust="spacing" textLength="128.8711" x="4146.815" y="922.1136">LoadCentreCollect</text><line style="stroke:#181818;stroke-width:0.5;" x1="4026.69" x2="4363.3111" y1="933.2669" y2="933.2669"/><text fill="#000000" font-family="sans-serif" font-size="14" lengthAdjust="spacing" textLength="326.6211" x="4031.69" y="950.262">RobotLoadThenCentre robot_load_then_centre</text><text fill="#000000" font-family="sans-serif" font-size="14" lengthAdjust="spacing" textLength="269.3154" x="4031.69" y="966.5589">MultiRotationScan multi_rotation_scan</text><line style="stroke:#181818;stroke-width:0.5;" x1="4026.69" x2="4363.3111" y1="973.8606" y2="973.8606"/></g><!--class RotationScan--><g id="elem_RotationScan"><rect codeLine="129" fill="#F1F1F1" height="48" id="RotationScan" rx="2.5" ry="2.5" style="stroke:#181818;stroke-width:0.5;" width="125.2148" x="4732.39" y="1123.3469"/><ellipse cx="4747.39" cy="1139.3469" fill="#ADD1B2" rx="11" ry="11" style="stroke:#181818;stroke-width:1;"/><path d="M4750.3588,1144.9875 Q4749.7806,1145.2844 4749.14,1145.425 Q4748.4994,1145.5813 4747.7963,1145.5813 Q4745.2963,1145.5813 4743.9681,1143.9406 Q4742.6556,1142.2844 4742.6556,1139.1594 Q4742.6556,1136.0344 4743.9681,1134.3781 Q4745.2963,1132.7219 4747.7963,1132.7219 Q4748.4994,1132.7219 4749.14,1132.8781 Q4749.7963,1133.0344 4750.3588,1133.3313 L4750.3588,1136.05 Q4749.7338,1135.4719 4749.14,1135.2063 Q4748.5463,1134.925 4747.9213,1134.925 Q4746.5775,1134.925 4745.89,1136.0031 Q4745.2025,1137.0656 4745.2025,1139.1594 Q4745.2025,1141.2531 4745.89,1142.3313 Q4746.5775,1143.3938 4747.9213,1143.3938 Q4748.5463,1143.3938 4749.14,1143.1281 Q4749.7338,1142.8469 4750.3588,1142.2688 L4750.3588,1144.9875 Z " fill="#000000"/><text fill="#000000" font-family="sans-serif" font-size="14" lengthAdjust="spacing" textLength="93.2148" x="4761.39" y="1144.1936">RotationScan</text><line style="stroke:#181818;stroke-width:0.5;" x1="4733.39" x2="4856.6048" y1="1155.3469" y2="1155.3469"/><line style="stroke:#181818;stroke-width:0.5;" x1="4733.39" x2="4856.6048" y1="1163.3469" y2="1163.3469"/></g><!--reverse link MxBlueskyParameters to DiffractionExperiment--><g id="link_MxBlueskyParameters_DiffractionExperiment"><path codeLine="132" d="M3045.3033,194.3312 C3012.9633,218.4612 2980.97,242.3269 2936.71,275.3469 " fill="none" id="MxBlueskyParameters-backto-DiffractionExperiment" style="stroke:#181818;stroke-width:1;"/><polygon fill="none" points="3059.73,183.5669,3041.7152,189.5222,3048.8914,199.1401,3059.73,183.5669" style="stroke:#181818;stroke-width:1;"/></g><!--reverse link WithSnapshot to DiffractionExperiment--><g id="link_WithSnapshot_DiffractionExperiment"><path codeLine="133" d="M1051.1019,198.4081 C1075.3619,207.9881 1085.42,210.3969 1111,215.7769 C1442.25,285.3869 2307.01,184.6669 2633,275.7769 C2635.49,276.4769 2637.99,277.2169 2640.49,277.9869 " fill="none" id="WithSnapshot-backto-DiffractionExperiment" style="stroke:#181818;stroke-width:1;"/><polygon fill="none" points="1034.36,191.7969,1048.8982,203.9887,1053.3057,192.8274,1034.36,191.7969" style="stroke:#181818;stroke-width:1;"/></g><!--reverse link WithOptionalEnergyChange to DiffractionExperiment--><g id="link_WithOptionalEnergyChange_DiffractionExperiment"><path codeLine="134" d="M509.5928,191.8956 C533.6328,204.3856 546.9,209.0469 575,215.7769 C1019.94,322.3769 2191.73,154.8869 2633,275.7769 C2635.5,276.4669 2638,277.1869 2640.5,277.9569 " fill="none" id="WithOptionalEnergyChange-backto-DiffractionExperiment" style="stroke:#181818;stroke-width:1;"/><polygon fill="none" points="493.62,183.5969,506.8266,197.2199,512.3591,186.5713,493.62,183.5969" style="stroke:#181818;stroke-width:1;"/></g><!--reverse link WithVisit to DiffractionExperiment--><g id="link_WithVisit_DiffractionExperiment"><path codeLine="135" d="M1806.3449,216.3344 C2164.8549,301.6344 2279.76,170.7369 2633,275.7769 C2635.48,276.5169 2637.97,277.2969 2640.46,278.1069 " fill="none" id="WithVisit-backto-DiffractionExperiment" style="stroke:#181818;stroke-width:1;"/><polygon fill="none" points="1789.07,211.2769,1804.659,222.0927,1808.0307,210.5761,1789.07,211.2769" style="stroke:#181818;stroke-width:1;"/></g><!--reverse link RotationExperiment to MultiRotationScan--><g id="link_RotationExperiment_MultiRotationScan"><path codeLine="136" d="M3857.565,1006.3783 C3877.145,1044.7283 3895.88,1081.4569 3912.86,1114.7269 " fill="none" id="RotationExperiment-backto-MultiRotationScan" style="stroke:#181818;stroke-width:1;"/><polygon fill="none" points="3849.38,990.3469,3852.2212,1009.1066,3862.9088,1003.6499,3849.38,990.3469" style="stroke:#181818;stroke-width:1;"/></g><!--reverse link SplitScan to MultiRotationScan--><g id="link_SplitScan_MultiRotationScan"><path codeLine="137" d="M114.7894,187.993 C127.2394,200.323 130.26,202.8669 145,215.7769 C326.78,374.9269 571,311.8469 571,553.4469 C571,553.4469 571,553.4469 571,704.1969 C571,1014.9669 2861,1113.9969 3658.82,1139.0669 " fill="none" id="SplitScan-backto-MultiRotationScan" style="stroke:#181818;stroke-width:1;"/><polygon fill="none" points="102,175.3269,110.5674,192.2561,119.0115,183.7299,102,175.3269" style="stroke:#181818;stroke-width:1;"/></g><!--reverse link ThreeDGridScan to HyperionThreeDGridScan--><g id="link_ThreeDGridScan_HyperionThreeDGridScan"><path codeLine="138" d="M2803.0337,1068.6198 C2814.7737,1081.3098 2815.94,1079.2869 2831,1087.1969 C2899.18,1123.0269 4140.69,1104.8269 4217,1115.1969 C4230.32,1117.0069 4244.28,1119.7469 4257.81,1122.8669 " fill="none" id="ThreeDGridScan-backto-HyperionThreeDGridScan" style="stroke:#181818;stroke-width:1;"/><polygon fill="none" points="2790.81,1055.4069,2798.6294,1072.6943,2807.438,1064.5452,2790.81,1055.4069" style="stroke:#181818;stroke-width:1;"/></g><!--reverse link WithPandaGridScan to HyperionThreeDGridScan--><g id="link_WithPandaGridScan_HyperionThreeDGridScan"><path codeLine="139" d="M2014.9637,191.668 C2039.5537,204.138 2053.37,208.9669 2082,215.7769 C2176.21,238.1869 3756.72,206.1369 3824,275.7769 C4080.87,541.6469 3386.02,819.5169 3641,1087.1969 C3685.19,1133.5969 4153.64,1105.6669 4217,1115.1969 C4229.86,1117.1369 4243.34,1119.8569 4256.44,1122.8869 " fill="none" id="WithPandaGridScan-backto-HyperionThreeDGridScan" style="stroke:#181818;stroke-width:1;"/><polygon fill="none" points="1998.91,183.5269,2012.25,197.0192,2017.6774,186.3167,1998.91,183.5269" style="stroke:#181818;stroke-width:1;"/></g><!--reverse link WithHyperionFeatures to HyperionThreeDGridScan--><g id="link_WithHyperionFeatures_HyperionThreeDGridScan"><path codeLine="140" d="M4475.3143,987.6136 C4440.0343,1028.7036 4390.72,1086.1269 4359.17,1122.8569 " fill="none" id="WithHyperionFeatures-backto-HyperionThreeDGridScan" style="stroke:#181818;stroke-width:1;"/><polygon fill="none" points="4487.04,973.9569,4470.762,983.7051,4479.8665,991.5222,4487.04,973.9569" style="stroke:#181818;stroke-width:1;"/></g><!--reverse link DiffractionExperimentWithSample to RotationExperiment--><g id="link_DiffractionExperimentWithSample_RotationExperiment"><path codeLine="141" d="M2944.8289,584.1058 C2997.1889,599.8358 3049.48,616.4569 3110,638.4469 C3331.01,718.7769 3582.93,829.9669 3720.94,892.6269 " fill="none" id="DiffractionExperimentWithSample-backto-RotationExperiment" style="stroke:#181818;stroke-width:1;"/><polygon fill="none" points="2927.59,578.9269,2943.1026,589.8521,2946.5552,578.3595,2927.59,578.9269" style="stroke:#181818;stroke-width:1;"/></g><!--reverse link XyzStarts to SpecifiedGrid--><g id="link_XyzStarts_SpecifiedGrid"><path codeLine="142" d="M292.419,210.1879 C301.099,216.2979 295.62,211.5269 305,215.7769 C342.3,232.6569 920.54,329.4569 1114.86,361.6769 " fill="none" id="XyzStarts-backto-SpecifiedGrid" style="stroke:#181818;stroke-width:1;"/><polygon fill="none" points="277.7,199.8269,288.9654,215.0942,295.8727,205.2815,277.7,199.8269" style="stroke:#181818;stroke-width:1;"/></g><!--reverse link WithScan to SpecifiedGrid--><g id="link_WithScan_SpecifiedGrid"><path codeLine="143" d="M1178,193.1769 C1178,235.3269 1178,306.2069 1178,348.6269 " fill="none" id="WithScan-backto-SpecifiedGrid" style="stroke:#181818;stroke-width:1;"/><polygon fill="none" points="1178,175.1769,1172,193.1769,1184,193.1769,1178,175.1769" style="stroke:#181818;stroke-width:1;"/></g><!--reverse link DiffractionExperimentWithSample to GridCommon--><g id="link_DiffractionExperimentWithSample_GridCommon"><path codeLine="144" d="M2868.0509,594.5469 C2876.7109,610.6369 2880.15,617.0169 2891.55,638.1969 " fill="none" id="DiffractionExperimentWithSample-backto-GridCommon" style="stroke:#181818;stroke-width:1;"/><polygon fill="none" points="2859.52,578.6969,2862.7675,597.3906,2873.3342,591.7033,2859.52,578.6969" style="stroke:#181818;stroke-width:1;"/></g><!--reverse link OptionalGonioAngleStarts to GridCommon--><g id="link_OptionalGonioAngleStarts_GridCommon"><path codeLine="145" d="M1494.5209,214.5927 C1501.9509,217.4627 1492.63,213.5769 1500,215.7769 C1717.44,280.6469 1788.69,213.9169 2007,275.7769 C2166.39,320.9369 2588.81,530.5269 2800.86,638.0969 " fill="none" id="OptionalGonioAngleStarts-backto-GridCommon" style="stroke:#181818;stroke-width:1;"/><polygon fill="none" points="1477.73,208.1069,1492.3589,220.1897,1496.6828,208.9958,1477.73,208.1069" style="stroke:#181818;stroke-width:1;"/></g><!--reverse link OptionalGonioAngleStarts to RotationScanPerSweep--><g id="link_OptionalGonioAngleStarts_RotationScanPerSweep"><path codeLine="146" d="M1492.2384,214.3143 C1500.4284,217.3343 1491.81,213.7369 1500,215.7769 C1617.76,245.1869 3586.17,203.9369 3684,275.7769 C3757.75,329.9369 3692.21,400.3369 3751,470.4469 C3926.06,679.2169 4029.79,678.0669 4287,767.9369 C4439.72,821.2969 4497.41,763.9769 4646,827.9369 C4673.85,839.9169 4701.23,858.1769 4724.77,876.5269 " fill="none" id="OptionalGonioAngleStarts-backto-RotationScanPerSweep" style="stroke:#181818;stroke-width:1;"/><polygon fill="none" points="1475.35,208.0869,1490.1626,219.9438,1494.3142,208.6849,1475.35,208.0869" style="stroke:#181818;stroke-width:1;"/></g><!--reverse link OptionalXyzStarts to RotationScanPerSweep--><g id="link_OptionalXyzStarts_RotationScanPerSweep"><path codeLine="147" d="M2606.3121,209.0108 C2617.2121,215.4108 2613.3,211.9569 2625,215.7769 C2767,262.1069 3840.85,197.3869 3968,275.7769 C4052.41,327.8169 4008.68,398.5869 4077,470.4469 C4282.78,686.8969 4400.2,658.2869 4646,827.9369 C4668.02,843.1269 4691.32,860.2269 4712.79,876.4269 " fill="none" id="OptionalXyzStarts-backto-RotationScanPerSweep" style="stroke:#181818;stroke-width:1;"/><polygon fill="none" points="2590.79,199.8969,2603.2742,214.1848,2609.3501,203.8367,2590.79,199.8969" style="stroke:#181818;stroke-width:1;"/></g><!--reverse link DiffractionExperiment to DiffractionExperimentWithSample--><g id="link_DiffractionExperiment_DiffractionExperimentWithSample"><path codeLine="148" d="M2832.5024,488.4343 C2837.4524,510.6043 2838.34,514.6269 2841.81,530.1669 " fill="none" id="DiffractionExperiment-backto-DiffractionExperimentWithSample" style="stroke:#181818;stroke-width:1;"/><polygon fill="none" points="2828.58,470.8669,2826.6466,489.7418,2838.3582,487.1269,2828.58,470.8669" style="stroke:#181818;stroke-width:1;"/></g><!--reverse link WithSample to DiffractionExperimentWithSample--><g id="link_WithSample_DiffractionExperimentWithSample"><path codeLine="149" d="M765.5835,208.344 C777.5535,214.744 774.37,211.9369 787,215.7769 C1046.69,294.7669 1740.15,226.0669 2007,275.7769 C2163.28,304.8969 2616.04,468.4769 2783.63,530.0269 " fill="none" id="WithSample-backto-DiffractionExperimentWithSample" style="stroke:#181818;stroke-width:1;"/><polygon fill="none" points="749.71,199.8569,762.7545,213.6352,768.4126,203.0528,749.71,199.8569" style="stroke:#181818;stroke-width:1;"/></g><!--reverse link GridCommon to PinTipCentreThenXrayCentre--><g id="link_GridCommon_PinTipCentreThenXrayCentre"><path codeLine="150" d="M2939.8239,785.9045 C2947.5539,831.5745 2954.61,873.2769 2960.68,909.0969 " fill="none" id="GridCommon-backto-PinTipCentreThenXrayCentre" style="stroke:#181818;stroke-width:1;"/><polygon fill="none" points="2936.82,768.1569,2933.9081,786.9058,2945.7398,784.9031,2936.82,768.1569" style="stroke:#181818;stroke-width:1;"/></g><!--reverse link GridCommon to GridScanWithEdgeDetect--><g id="link_GridCommon_GridScanWithEdgeDetect"><path codeLine="151" d="M3035.8546,778.5883 C3062.2146,797.1983 3075.8,807.6169 3101,827.9369 C3133.12,853.8269 3167.6,885.7969 3191.85,909.0469 " fill="none" id="GridCommon-backto-GridScanWithEdgeDetect" style="stroke:#181818;stroke-width:1;"/><polygon fill="none" points="3021.15,768.2069,3032.3942,783.4898,3039.3151,773.6867,3021.15,768.2069" style="stroke:#181818;stroke-width:1;"/></g><!--reverse link GridCommon to RobotLoadThenCentre--><g id="link_GridCommon_RobotLoadThenCentre"><path codeLine="152" d="M3110.145,737.2048 C3190.605,756.0648 3268.7,781.8769 3346,827.9369 C3381.3,848.9669 3413.45,883.6669 3434.16,909.0069 " fill="none" id="GridCommon-backto-RobotLoadThenCentre" style="stroke:#181818;stroke-width:1;"/><polygon fill="none" points="3092.62,733.0969,3108.7757,743.0464,3111.5143,731.3631,3092.62,733.0969" style="stroke:#181818;stroke-width:1;"/></g><!--reverse link MxBlueskyParameters to LoadCentreCollect--><g id="link_MxBlueskyParameters_LoadCentreCollect"><path codeLine="153" d="M3278.9591,163.069 C3541.0691,180.759 4022.88,220.1669 4081,275.7769 C4259.1,446.1869 4221.39,785.8369 4202.35,901.1769 " fill="none" id="MxBlueskyParameters-backto-LoadCentreCollect" style="stroke:#181818;stroke-width:1;"/><polygon fill="none" points="3261,161.8569,3278.5551,169.0553,3279.3632,157.0826,3261,161.8569" style="stroke:#181818;stroke-width:1;"/></g><!--reverse link WithVisit to LoadCentreCollect--><g id="link_WithVisit_LoadCentreCollect"><path codeLine="154" d="M1806.3516,216.3646 C2018.1216,262.1146 3574.64,155.7369 3755,275.7769 C3761.25,279.9369 3974.38,762.0069 3979,767.9369 C4021.19,822.0869 4083.64,869.6069 4130.56,901.0069 " fill="none" id="WithVisit-backto-LoadCentreCollect" style="stroke:#181818;stroke-width:1;"/><polygon fill="none" points="1789,211.5769,1804.7557,222.1484,1807.9475,210.5807,1789,211.5769" style="stroke:#181818;stroke-width:1;"/></g><!--reverse link WithSample to LoadCentreCollect--><g id="link_WithSample_LoadCentreCollect"><path codeLine="155" d="M764.9044,208.3324 C777.0644,214.8324 774.11,212.0469 787,215.7769 C935.29,258.6569 3449.82,172.9969 3565,275.7769 C3729.71,422.7569 3477.67,610.0869 3632,767.9369 C3750.61,889.2469 3849.69,769.5769 4009,827.9369 C4057.03,845.5269 4106.33,876.0569 4142.09,900.8869 " fill="none" id="WithSample-backto-LoadCentreCollect" style="stroke:#181818;stroke-width:1;"/><polygon fill="none" points="749.03,199.8469,762.0759,213.6238,767.7329,203.0409,749.03,199.8469" style="stroke:#181818;stroke-width:1;"/></g><!--reverse link WithCentreSelection to LoadCentreCollect--><g id="link_WithCentreSelection_LoadCentreCollect"><path codeLine="156" d="M2338.9304,190.3018 C2369.4804,202.6918 2389.52,208.8369 2424,215.7769 C2584.58,248.1169 3769.09,173.4569 3897,275.7769 C4073.84,417.2469 3917.67,570.7269 4029,767.9369 C4058.64,820.4369 4107.96,868.8469 4145.15,900.9569 " fill="none" id="WithCentreSelection-backto-LoadCentreCollect" style="stroke:#181818;stroke-width:1;"/><polygon fill="none" points="2322.25,183.5369,2336.6754,195.862,2341.1854,184.7417,2322.25,183.5369" style="stroke:#181818;stroke-width:1;"/></g><!--reverse link WithScan to RotationScan--><g id="link_WithScan_RotationScan"><path codeLine="157" d="M1206.5943,189.2441 C1218.7043,203.7741 1224.83,207.4169 1245,215.7769 C1366.98,266.3269 3515.95,195.7769 3621,275.7769 C3692.92,330.5569 3615.48,407.1169 3680,470.4469 C4096.65,879.3969 4591.81,362.3169 4944,827.9369 C5013.51,919.8369 5008.73,991.8669 4944,1087.1969 C4924.69,1115.6369 4889.34,1130.4069 4857.91,1138.0669 " fill="none" id="WithScan-backto-RotationScan" style="stroke:#181818;stroke-width:1;"/><polygon fill="none" points="1195.07,175.4169,1201.9852,193.0855,1211.2033,185.4027,1195.07,175.4169" style="stroke:#181818;stroke-width:1;"/></g><!--reverse link RotationScanPerSweep to RotationScan--><g id="link_RotationScanPerSweep_RotationScan"><path codeLine="158" d="M4795,1024.7669 C4795,1064.4269 4795,1094.9669 4795,1123.1069 " fill="none" id="RotationScanPerSweep-backto-RotationScan" style="stroke:#181818;stroke-width:1;"/><polygon fill="none" points="4795,1006.7669,4789,1024.7669,4801,1024.7669,4795,1006.7669" style="stroke:#181818;stroke-width:1;"/></g><!--reverse link RotationExperiment to RotationScan--><g id="link_RotationExperiment_RotationScan"><path codeLine="159" d="M3882.0811,1003.1004 C3916.3511,1036.7104 3954.1,1066.5869 4008,1087.1969 C4102.41,1123.2969 4361.22,1107.3769 4462,1115.1969 C4556.22,1122.5069 4665.23,1133.1169 4732.14,1139.8669 " fill="none" id="RotationExperiment-backto-RotationScan" style="stroke:#181818;stroke-width:1;"/><polygon fill="none" points="3869.23,990.4969,3877.8799,1007.3841,3886.2823,998.8168,3869.23,990.4969" style="stroke:#181818;stroke-width:1;"/></g><!--reverse link GridCommon to ThreeDGridScan--><g id="link_GridCommon_ThreeDGridScan"><path codeLine="160" d="M2860.5564,781.9259 C2842.5964,803.2559 2833.7,813.8269 2813.89,837.3569 " fill="none" id="GridCommon-backto-ThreeDGridScan" style="stroke:#181818;stroke-width:1;"/><polygon fill="none" points="2872.15,768.1569,2855.9667,778.0614,2865.146,785.7905,2872.15,768.1569" style="stroke:#181818;stroke-width:1;"/></g><!--reverse link SpecifiedGrid to ThreeDGridScan--><g id="link_SpecifiedGrid_ThreeDGridScan"><path codeLine="161" d="M1225.3523,407.9415 C1321.9223,476.1515 1601.9,665.7269 1876,767.9369 C2144.55,868.0769 2483.6,914.6869 2640.3,932.0469 " fill="none" id="SpecifiedGrid-backto-ThreeDGridScan" style="stroke:#181818;stroke-width:1;"/><polygon fill="none" points="1210.65,397.5569,1221.8908,412.8423,1228.8139,403.0408,1210.65,397.5569" style="stroke:#181818;stroke-width:1;"/></g><!--reverse link SplitScan to ThreeDGridScan--><g id="link_SplitScan_ThreeDGridScan"><path codeLine="162" d="M107.2752,189.1014 C119.2052,203.5614 125.14,207.1269 145,215.7769 C372.07,314.7169 1019.23,209.9069 1258,275.7769 C1710.7,400.6669 1760.21,585.6669 2193,767.9369 C2346.55,832.5969 2533.23,887.9069 2640.27,917.4969 " fill="none" id="SplitScan-backto-ThreeDGridScan" style="stroke:#181818;stroke-width:1;"/><polygon fill="none" points="95.82,175.2169,102.647,192.9198,111.9033,185.283,95.82,175.2169" style="stroke:#181818;stroke-width:1;"/></g><!--reverse link WithOptionalEnergyChange to ThreeDGridScan--><g id="link_WithOptionalEnergyChange_ThreeDGridScan"><path codeLine="163" d="M509.9817,191.8092 C533.9817,204.2092 547.08,208.8469 575,215.7769 C717.39,251.1169 1769.15,198.7369 1894,275.7769 C1978.38,327.8569 1935.22,398.0769 2003,470.4469 C2194.96,675.4069 2493.78,832.1869 2640.2,901.5169 " fill="none" id="WithOptionalEnergyChange-backto-ThreeDGridScan" style="stroke:#181818;stroke-width:1;"/><polygon fill="none" points="493.99,183.5469,507.2275,197.1398,512.7358,186.4787,493.99,183.5469" style="stroke:#181818;stroke-width:1;"/></g><!--SRC=[bLPDRziu43rRluAttGKs0ThpxY5Dqku2JTUeZMo18Y1eQImHaKY2f1mhRlvxXwH4wyjEUf8uV1mE7zyCvxTrmGtPyX88VbbjvKKE0ZIpa95DGxe1LIKJjgxAIzKaYUKM5_pJAD1S2h9acbLWGPCxcK6P6B14eCKebi8A54vRgOcG0f84ROyi1rBjwQQimJmsbwciAYakLUV6a4DYPGwsG9U792sPCMIbIcvNAHE7vAKr_QSiRi_AJr9mUINo4bQMQMiEoM9RIcR93_85zoIoWfnHu-Pe1lbeLXNyv5nwPkwHATNtsaNrhNaUXR5lKNNLMPg9vVbewHpzpsrnpmstwCXOJJR0gf8ZXtwqSpFXDmECW1jBhQGEH5CfTg2HIQgOBGA82uCcv8ig3Lk-7vq6VK2Aj-GTCP42hOQHT6JVeY3ovhfW8eV3n4d5H4R1GoZi1WwMECK-QPw5IsnNAcUbkXQrcjswstRAQhldbDnseZarSOBgbM3A5DAnlKJMY6d769Rsr3J9eiG8ltjd3vst2FCgCmCfEBVN8Ap6B2ZH1vu4lQ-b-lAXkMFxQraB6sU8yNyqzGjCTB9IaF8jXynnTnY6F4W7Rs6LAjszS669yGFAip3i0WvMLQUFitOkqEFBD07TzjS-K-CLv6YYJpopHOzbs2jfQWtKyWgeIHORAKjI6w1QSbfXXKWM_nhLR6xthdvKUDmrLXAiFsYZ48tKeZLPNE7OehjxXjKYnkgfWeooTZQISCEtMyqyeKV_VMOwu9ABDLVXTjO5Y6-QDM4KZsUvedAxnNBMryhi3csAka9ANUaxIOP3kNg7Qr09ckSvQ5SrYGt_BK6zUy7SeAAkDg3VJ4ONlsR2LDmOb_KkvbyYtaLgKFPOh7ifyD9JWvEVe_Oso-76ruz8tKPYNl9dw1EtBZJ0pQG2E16z2zdJhxBE_7vgTkaEAlhkrTEfzNaU-tvQVFicHttOnOH1qnyyTmElQkgqOMozQNLopDglSYFjPyaofwsnhWhsn4NkDH4NtEq_XESmlgQkrArSHRKylSUXgn7nZVGwAUaks7t6liozhKNxI0zVrtRBkhJygxJCQRczaoiXd06oxxxMzMUNe5TF0EhXJ_8PnEyL5xG4aTlYxtT_F13T8gb1w967haaON_wHfx1ia4g19bFKrfrKAX0TNIw5mcpSZujKWzUjbydR5JuEeN_66CIaT-ZGLtjic68G34SnRlJJLiN1YXkVHEuMuxAiCmLn2TZNXkuoqsx8g-5Rqf7v4PZBSoUGaUbZoNBivzhvkDW9COZmMfPbIDGPXM9WQADuYenYxHVjMvGi9aeXbRFGmQNF4dhmmfmHD_dhnyN5V35D-i_nQxYvlkIrDRwhEWUQgZAW9pmaiIqz1HWAFw3caoAPT4cleiU2EBlWbQSnh9sUF8cjLq0C-f6aQqFcvjwquR6jI4xryxy8dCldPD97di7Endr6BiSZ9UFJlOO_7YhWJtSb4-Zy2po1pQJvwNISr8bnkim3-YUUHuowuBFEefe6UJHtKsTWuuiRWCOSZH9beE8JY47MpsJcwR8q1Fy4]--></g></svg>