<svg xmlns="http://www.w3.org/2000/svg" xmlns:xlink="http://www.w3.org/1999/xlink" contentStyleType="text/css" data-diagram-type="CLASS" height="1104px" preserveAspectRatio="none" style="width:4036px;height:1104px;background:#FFFFFF;" version="1.1" viewBox="0 0 4036 1104" width="4036px" zoomAndPan="magnify"><title>Hyperion Parameter Model</title><defs/><g><g class="title" data-source-line="3"><text fill="#000000" font-family="sans-serif" font-size="14" font-weight="bold" lengthAdjust="spacing" textLength="212.4951" x="1904.8524" y="22.9951">Hyperion Parameter Model</text></g><!--cluster mx_bluesky.common.parameters--><g class="cluster" data-entity="mx_bluesky.common.parameters" data-source-line="6" data-uid="ent0002" id="cluster_mx_bluesky.common.parameters"><path d="M1314.02,43.2969 L1575.3325,43.2969 A3.75,3.75 0 0 1 1577.8325,45.7969 L1584.8325,65.5938 L3796.02,65.5938 A2.5,2.5 0 0 1 3798.52,68.0938 L3798.52,822.0269 A2.5,2.5 0 0 1 3796.02,824.5269 L1314.02,824.5269 A2.5,2.5 0 0 1 1311.52,822.0269 L1311.52,45.7969 A2.5,2.5 0 0 1 1314.02,43.2969" fill="none" style="stroke:#000000;stroke-width:1.5;"/><line style="stroke:#000000;stroke-width:1.5;" x1="1311.52" x2="1584.8325" y1="65.5938" y2="65.5938"/><text fill="#000000" font-family="sans-serif" font-size="14" font-weight="bold" lengthAdjust="spacing" textLength="260.3125" x="1315.52" y="58.292">mx_bluesky.common.parameters</text></g><!--cluster mx_bluesky.hyperion.parameters--><g class="cluster" data-entity="mx_bluesky.hyperion.parameters" data-source-line="70" data-uid="ent0015" id="cluster_mx_bluesky.hyperion.parameters"><path d="M110.02,660.4869 L374.5522,660.4869 A3.75,3.75 0 0 1 377.0522,662.9869 L384.0522,682.7838 L1285.02,682.7838 A2.5,2.5 0 0 1 1287.52,685.2838 L1287.52,1095.2169 A2.5,2.5 0 0 1 1285.02,1097.7169 L110.02,1097.7169 A2.5,2.5 0 0 1 107.52,1095.2169 L107.52,662.9869 A2.5,2.5 0 0 1 110.02,660.4869" fill="none" style="stroke:#000000;stroke-width:1.5;"/><line style="stroke:#000000;stroke-width:1.5;" x1="107.52" x2="384.0522" y1="682.7838" y2="682.7838"/><text fill="#000000" font-family="sans-serif" font-size="14" font-weight="bold" lengthAdjust="spacing" textLength="263.5322" x="111.52" y="675.482">mx_bluesky.hyperion.parameters</text></g><!--class SplitScan--><g class="entity" data-entity="SplitScan" data-source-line="8" data-uid="ent0003" id="entity_SplitScan"><rect fill="#F1F1F1" height="48" rx="2.5" ry="2.5" style="stroke:#181818;stroke-width:0.5;" width="97.0781" x="1335.98" y="127.0369"/><ellipse cx="1350.98" cy="143.0369" fill="#ADD1B2" rx="11" ry="11" style="stroke:#181818;stroke-width:1;"/><path d="M1353.9488,148.6775 Q1353.3706,148.9744 1352.73,149.115 Q1352.0894,149.2713 1351.3863,149.2713 Q1348.8863,149.2713 1347.5581,147.6306 Q1346.2456,145.9744 1346.2456,142.8494 Q1346.2456,139.7244 1347.5581,138.0681 Q1348.8863,136.4119 1351.3863,136.4119 Q1352.0894,136.4119 1352.73,136.5681 Q1353.3863,136.7244 1353.9488,137.0213 L1353.9488,139.74 Q1353.3238,139.1619 1352.73,138.8963 Q1352.1363,138.615 1351.5113,138.615 Q1350.1675,138.615 1349.48,139.6931 Q1348.7925,140.7556 1348.7925,142.8494 Q1348.7925,144.9431 1349.48,146.0213 Q1350.1675,147.0838 1351.5113,147.0838 Q1352.1363,147.0838 1352.73,146.8181 Q1353.3238,146.5369 1353.9488,145.9588 L1353.9488,148.6775 Z " fill="#000000"/><text fill="#000000" font-family="sans-serif" font-size="14" lengthAdjust="spacing" textLength="65.0781" x="1364.98" y="147.8836">SplitScan</text><line style="stroke:#181818;stroke-width:0.5;" x1="1336.98" x2="1432.0581" y1="159.0369" y2="159.0369"/><line style="stroke:#181818;stroke-width:0.5;" x1="1336.98" x2="1432.0581" y1="167.0369" y2="167.0369"/></g><!--class OptionalGonioAngleStarts--><g class="entity" data-entity="OptionalGonioAngleStarts" data-source-line="10" data-uid="ent0004" id="entity_OptionalGonioAngleStarts"><rect fill="#F1F1F1" height="113.1875" rx="2.5" ry="2.5" style="stroke:#181818;stroke-width:0.5;" width="219.3203" x="2392.86" y="94.4469"/><ellipse cx="2410.5833" cy="110.4469" fill="#ADD1B2" rx="11" ry="11" style="stroke:#181818;stroke-width:1;"/><path d="M2413.552,116.0875 Q2412.9739,116.3844 2412.3333,116.525 Q2411.6927,116.6813 2410.9895,116.6813 Q2408.4895,116.6813 2407.1614,115.0406 Q2405.8489,113.3844 2405.8489,110.2594 Q2405.8489,107.1344 2407.1614,105.4781 Q2408.4895,103.8219 2410.9895,103.8219 Q2411.6927,103.8219 2412.3333,103.9781 Q2412.9895,104.1344 2413.552,104.4313 L2413.552,107.15 Q2412.927,106.5719 2412.3333,106.3063 Q2411.7395,106.025 2411.1145,106.025 Q2409.7708,106.025 2409.0833,107.1031 Q2408.3958,108.1656 2408.3958,110.2594 Q2408.3958,112.3531 2409.0833,113.4313 Q2409.7708,114.4938 2411.1145,114.4938 Q2411.7395,114.4938 2412.3333,114.2281 Q2412.927,113.9469 2413.552,113.3688 L2413.552,116.0875 Z " fill="#000000"/><text fill="#000000" font-family="sans-serif" font-size="14" lengthAdjust="spacing" textLength="181.2686" x="2425.1885" y="115.2936">OptionalGonioAngleStarts</text><line style="stroke:#181818;stroke-width:0.5;" x1="2393.86" x2="2611.1803" y1="126.4469" y2="126.4469"/><text fill="#000000" font-family="sans-serif" font-size="14" lengthAdjust="spacing" textLength="207.3203" x="2398.86" y="143.442">float | None omega_start_deg</text><text fill="#000000" font-family="sans-serif" font-size="14" lengthAdjust="spacing" textLength="180.6875" x="2398.86" y="159.7389">float | None phi_start_deg</text><text fill="#000000" font-family="sans-serif" font-size="14" lengthAdjust="spacing" textLength="179.498" x="2398.86" y="176.0357">float | None chi_start_deg</text><text fill="#000000" font-family="sans-serif" font-size="14" lengthAdjust="spacing" textLength="202.0771" x="2398.86" y="192.3326">float | None kappa_start_deg</text><line style="stroke:#181818;stroke-width:0.5;" x1="2393.86" x2="2611.1803" y1="199.6344" y2="199.6344"/></g><!--class WithCentreSelection--><g class="entity" data-entity="WithCentreSelection" data-source-line="16" data-uid="ent0005" id="entity_WithCentreSelection"><rect fill="#F1F1F1" height="64.2969" rx="2.5" ry="2.5" style="stroke:#181818;stroke-width:0.5;" width="306.7861" x="1468.13" y="118.8869"/><ellipse cx="1545.4069" cy="134.8869" fill="#ADD1B2" rx="11" ry="11" style="stroke:#181818;stroke-width:1;"/><path d="M1548.3756,140.5275 Q1547.7975,140.8244 1547.1569,140.965 Q1546.5162,141.1213 1545.8131,141.1213 Q1543.3131,141.1213 1541.985,139.4806 Q1540.6725,137.8244 1540.6725,134.6994 Q1540.6725,131.5744 1541.985,129.9181 Q1543.3131,128.2619 1545.8131,128.2619 Q1546.5162,128.2619 1547.1569,128.4181 Q1547.8131,128.5744 1548.3756,128.8713 L1548.3756,131.59 Q1547.7506,131.0119 1547.1569,130.7463 Q1546.5631,130.465 1545.9381,130.465 Q1544.5944,130.465 1543.9069,131.5431 Q1543.2194,132.6056 1543.2194,134.6994 Q1543.2194,136.7931 1543.9069,137.8713 Q1544.5944,138.9338 1545.9381,138.9338 Q1546.5631,138.9338 1547.1569,138.6681 Q1547.7506,138.3869 1548.3756,137.8088 L1548.3756,140.5275 Z " fill="#000000"/><text fill="#000000" font-family="sans-serif" font-size="14" lengthAdjust="spacing" textLength="143.7324" x="1565.9069" y="139.7336">WithCentreSelection</text><line style="stroke:#181818;stroke-width:0.5;" x1="1469.13" x2="1773.9161" y1="150.8869" y2="150.8869"/><text fill="#000000" font-family="sans-serif" font-size="14" lengthAdjust="spacing" textLength="294.7861" x="1474.13" y="167.882">TopNByMaxCountSelection select_centres</text><line style="stroke:#181818;stroke-width:0.5;" x1="1469.13" x2="1773.9161" y1="175.1838" y2="175.1838"/></g><!--class WithPandaGridScan--><g class="entity" data-entity="WithPandaGridScan" data-source-line="19" data-uid="ent0006" id="entity_WithPandaGridScan"><rect fill="#F1F1F1" height="64.2969" rx="2.5" ry="2.5" style="stroke:#181818;stroke-width:0.5;" width="240.5664" x="1810.24" y="118.8869"/><ellipse cx="1856.8372" cy="134.8869" fill="#ADD1B2" rx="11" ry="11" style="stroke:#181818;stroke-width:1;"/><path d="M1859.8059,140.5275 Q1859.2278,140.8244 1858.5872,140.965 Q1857.9465,141.1213 1857.2434,141.1213 Q1854.7434,141.1213 1853.4153,139.4806 Q1852.1028,137.8244 1852.1028,134.6994 Q1852.1028,131.5744 1853.4153,129.9181 Q1854.7434,128.2619 1857.2434,128.2619 Q1857.9465,128.2619 1858.5872,128.4181 Q1859.2434,128.5744 1859.8059,128.8713 L1859.8059,131.59 Q1859.1809,131.0119 1858.5872,130.7463 Q1857.9934,130.465 1857.3684,130.465 Q1856.0247,130.465 1855.3372,131.5431 Q1854.6497,132.6056 1854.6497,134.6994 Q1854.6497,136.7931 1855.3372,137.8713 Q1856.0247,138.9338 1857.3684,138.9338 Q1857.9934,138.9338 1858.5872,138.6681 Q1859.1809,138.3869 1859.8059,137.8088 L1859.8059,140.5275 Z " fill="#000000"/><text fill="#000000" font-family="sans-serif" font-size="14" lengthAdjust="spacing" textLength="138.8721" x="1877.3372" y="139.7336">WithPandaGridScan</text><line style="stroke:#181818;stroke-width:0.5;" x1="1811.24" x2="2049.8064" y1="150.8869" y2="150.8869"/><text fill="#000000" font-family="sans-serif" font-size="14" lengthAdjust="spacing" textLength="228.5664" x="1816.24" y="167.882">float panda_runup_distance_mm</text><line style="stroke:#181818;stroke-width:0.5;" x1="1811.24" x2="2049.8064" y1="175.1838" y2="175.1838"/></g><!--class WithVisit--><g class="entity" data-entity="WithVisit" data-source-line="22" data-uid="ent0007" id="entity_WithVisit"><rect fill="#F1F1F1" height="129.4844" rx="2.5" ry="2.5" style="stroke:#181818;stroke-width:0.5;" width="271.7861" x="2085.63" y="86.2969"/><ellipse cx="2186.1559" cy="102.2969" fill="#ADD1B2" rx="11" ry="11" style="stroke:#181818;stroke-width:1;"/><path d="M2189.1246,107.9375 Q2188.5465,108.2344 2187.9059,108.375 Q2187.2653,108.5313 2186.5621,108.5313 Q2184.0621,108.5313 2182.734,106.8906 Q2181.4215,105.2344 2181.4215,102.1094 Q2181.4215,98.9844 2182.734,97.3281 Q2184.0621,95.6719 2186.5621,95.6719 Q2187.2653,95.6719 2187.9059,95.8281 Q2188.5621,95.9844 2189.1246,96.2813 L2189.1246,99 Q2188.4996,98.4219 2187.9059,98.1563 Q2187.3121,97.875 2186.6871,97.875 Q2185.3434,97.875 2184.6559,98.9531 Q2183.9684,100.0156 2183.9684,102.1094 Q2183.9684,104.2031 2184.6559,105.2813 Q2185.3434,106.3438 2186.6871,106.3438 Q2187.3121,106.3438 2187.9059,106.0781 Q2188.4996,105.7969 2189.1246,105.2188 L2189.1246,107.9375 Z " fill="#000000"/><text fill="#000000" font-family="sans-serif" font-size="14" lengthAdjust="spacing" textLength="62.2344" x="2206.6559" y="107.1436">WithVisit</text><line style="stroke:#181818;stroke-width:0.5;" x1="2086.63" x2="2356.4161" y1="118.2969" y2="118.2969"/><text fill="#000000" font-family="sans-serif" font-size="14" lengthAdjust="spacing" textLength="87.9717" x="2091.63" y="135.292">str beamline</text><text fill="#000000" font-family="sans-serif" font-size="14" lengthAdjust="spacing" textLength="51.8369" x="2091.63" y="151.5889">str visit</text><text fill="#000000" font-family="sans-serif" font-size="14" lengthAdjust="spacing" textLength="259.7861" x="2091.63" y="167.8857">str det_dist_to_beam_converter_path</text><text fill="#000000" font-family="sans-serif" font-size="14" lengthAdjust="spacing" textLength="131.5918" x="2091.63" y="184.1826">str insertion_prefix</text><text fill="#000000" font-family="sans-serif" font-size="14" lengthAdjust="spacing" textLength="245.752" x="2091.63" y="200.4795">float | None detector_distance_mm</text><line style="stroke:#181818;stroke-width:0.5;" x1="2086.63" x2="2356.4161" y1="207.7813" y2="207.7813"/></g><!--class WithOptionalEnergyChange--><g class="entity" data-entity="WithOptionalEnergyChange" data-source-line="29" data-uid="ent0008" id="entity_WithOptionalEnergyChange"><rect fill="#F1F1F1" height="64.2969" rx="2.5" ry="2.5" style="stroke:#181818;stroke-width:0.5;" width="235.4463" x="3182.8" y="118.8869"/><ellipse cx="3201.9845" cy="134.8869" fill="#ADD1B2" rx="11" ry="11" style="stroke:#181818;stroke-width:1;"/><path d="M3204.9532,140.5275 Q3204.3751,140.8244 3203.7345,140.965 Q3203.0938,141.1213 3202.3907,141.1213 Q3199.8907,141.1213 3198.5626,139.4806 Q3197.2501,137.8244 3197.2501,134.6994 Q3197.2501,131.5744 3198.5626,129.9181 Q3199.8907,128.2619 3202.3907,128.2619 Q3203.0938,128.2619 3203.7345,128.4181 Q3204.3907,128.5744 3204.9532,128.8713 L3204.9532,131.59 Q3204.3282,131.0119 3203.7345,130.7463 Q3203.1407,130.465 3202.5157,130.465 Q3201.172,130.465 3200.4845,131.5431 Q3199.797,132.6056 3199.797,134.6994 Q3199.797,136.7931 3200.4845,137.8713 Q3201.172,138.9338 3202.5157,138.9338 Q3203.1407,138.9338 3203.7345,138.6681 Q3204.3282,138.3869 3204.9532,137.8088 L3204.9532,140.5275 Z " fill="#000000"/><text fill="#000000" font-family="sans-serif" font-size="14" lengthAdjust="spacing" textLength="194.1475" x="3216.9144" y="139.7336">WithOptionalEnergyChange</text><line style="stroke:#181818;stroke-width:0.5;" x1="3183.8" x2="3417.2463" y1="150.8869" y2="150.8869"/><text fill="#000000" font-family="sans-serif" font-size="14" lengthAdjust="spacing" textLength="223.4463" x="3188.8" y="167.882">float | None demand_energy_ev</text><line style="stroke:#181818;stroke-width:0.5;" x1="3183.8" x2="3417.2463" y1="175.1838" y2="175.1838"/></g><!--class WithSnapshot--><g class="entity" data-entity="WithSnapshot" data-source-line="32" data-uid="ent0009" id="entity_WithSnapshot"><rect fill="#F1F1F1" height="80.5938" rx="2.5" ry="2.5" style="stroke:#181818;stroke-width:0.5;" width="289.3477" x="2646.85" y="110.7369"/><ellipse cx="2738.5028" cy="126.7369" fill="#ADD1B2" rx="11" ry="11" style="stroke:#181818;stroke-width:1;"/><path d="M2741.4716,132.3775 Q2740.8935,132.6744 2740.2528,132.815 Q2739.6122,132.9713 2738.9091,132.9713 Q2736.4091,132.9713 2735.081,131.3306 Q2733.7685,129.6744 2733.7685,126.5494 Q2733.7685,123.4244 2735.081,121.7681 Q2736.4091,120.1119 2738.9091,120.1119 Q2739.6122,120.1119 2740.2528,120.2681 Q2740.9091,120.4244 2741.4716,120.7213 L2741.4716,123.44 Q2740.8466,122.8619 2740.2528,122.5963 Q2739.6591,122.315 2739.0341,122.315 Q2737.6903,122.315 2737.0028,123.3931 Q2736.3153,124.4556 2736.3153,126.5494 Q2736.3153,128.6431 2737.0028,129.7213 Q2737.6903,130.7838 2739.0341,130.7838 Q2739.6591,130.7838 2740.2528,130.5181 Q2740.8466,130.2369 2741.4716,129.6588 L2741.4716,132.3775 Z " fill="#000000"/><text fill="#000000" font-family="sans-serif" font-size="14" lengthAdjust="spacing" textLength="97.542" x="2759.0028" y="131.5836">WithSnapshot</text><line style="stroke:#181818;stroke-width:0.5;" x1="2647.85" x2="2935.1977" y1="142.7369" y2="142.7369"/><text fill="#000000" font-family="sans-serif" font-size="14" lengthAdjust="spacing" textLength="169.627" x="2652.85" y="159.732">Path snapshot_directory</text><text fill="#000000" font-family="sans-serif" font-size="14" lengthAdjust="spacing" textLength="277.3477" x="2652.85" y="176.0289">list[float] | None snapshot_omegas_deg</text><line style="stroke:#181818;stroke-width:0.5;" x1="2647.85" x2="2935.1977" y1="183.3306" y2="183.3306"/></g><!--class WithSample--><g class="entity" data-entity="WithSample" data-source-line="36" data-uid="ent0010" id="entity_WithSample"><rect fill="#F1F1F1" height="96.8906" rx="2.5" ry="2.5" style="stroke:#181818;stroke-width:0.5;" width="176.3086" x="2971.37" y="102.5869"/><ellipse cx="3013.2443" cy="118.5869" fill="#ADD1B2" rx="11" ry="11" style="stroke:#181818;stroke-width:1;"/><path d="M3016.2131,124.2275 Q3015.6349,124.5244 3014.9943,124.665 Q3014.3537,124.8213 3013.6506,124.8213 Q3011.1506,124.8213 3009.8224,123.1806 Q3008.5099,121.5244 3008.5099,118.3994 Q3008.5099,115.2744 3009.8224,113.6181 Q3011.1506,111.9619 3013.6506,111.9619 Q3014.3537,111.9619 3014.9943,112.1181 Q3015.6506,112.2744 3016.2131,112.5713 L3016.2131,115.29 Q3015.5881,114.7119 3014.9943,114.4463 Q3014.4006,114.165 3013.7756,114.165 Q3012.4318,114.165 3011.7443,115.2431 Q3011.0568,116.3056 3011.0568,118.3994 Q3011.0568,120.4931 3011.7443,121.5713 Q3012.4318,122.6338 3013.7756,122.6338 Q3014.4006,122.6338 3014.9943,122.3681 Q3015.5881,122.0869 3016.2131,121.5088 L3016.2131,124.2275 Z " fill="#000000"/><text fill="#000000" font-family="sans-serif" font-size="14" lengthAdjust="spacing" textLength="84.5879" x="3033.2164" y="123.4336">WithSample</text><line style="stroke:#181818;stroke-width:0.5;" x1="2972.37" x2="3146.6786" y1="134.5869" y2="134.5869"/><text fill="#000000" font-family="sans-serif" font-size="14" lengthAdjust="spacing" textLength="93.3789" x="2977.37" y="151.582">int sample_id</text><text fill="#000000" font-family="sans-serif" font-size="14" lengthAdjust="spacing" textLength="164.3086" x="2977.37" y="167.8789">int | None sample_puck</text><text fill="#000000" font-family="sans-serif" font-size="14" lengthAdjust="spacing" textLength="152.3936" x="2977.37" y="184.1757">int | None sample_pin</text><line style="stroke:#181818;stroke-width:0.5;" x1="2972.37" x2="3146.6786" y1="191.4775" y2="191.4775"/></g><!--class MxBlueskyParameters--><g class="entity" data-entity="MxBlueskyParameters" data-source-line="43" data-uid="ent0011" id="entity_MxBlueskyParameters"><rect fill="#F1F1F1" height="64.2969" rx="2.5" ry="2.5" style="stroke:#181818;stroke-width:0.5;" width="317.4639" x="3454.79" y="118.8869"/><ellipse cx="3531.3764" cy="134.8869" fill="#ADD1B2" rx="11" ry="11" style="stroke:#181818;stroke-width:1;"/><path d="M3534.3452,140.5275 Q3533.7671,140.8244 3533.1264,140.965 Q3532.4858,141.1213 3531.7827,141.1213 Q3529.2827,141.1213 3527.9546,139.4806 Q3526.6421,137.8244 3526.6421,134.6994 Q3526.6421,131.5744 3527.9546,129.9181 Q3529.2827,128.2619 3531.7827,128.2619 Q3532.4858,128.2619 3533.1264,128.4181 Q3533.7827,128.5744 3534.3452,128.8713 L3534.3452,131.59 Q3533.7202,131.0119 3533.1264,130.7463 Q3532.5327,130.465 3531.9077,130.465 Q3530.5639,130.465 3529.8764,131.5431 Q3529.1889,132.6056 3529.1889,134.6994 Q3529.1889,136.7931 3529.8764,137.8713 Q3530.5639,138.9338 3531.9077,138.9338 Q3532.5327,138.9338 3533.1264,138.6681 Q3533.7202,138.3869 3534.3452,137.8088 L3534.3452,140.5275 Z " fill="#000000"/><text fill="#000000" font-family="sans-serif" font-size="14" lengthAdjust="spacing" textLength="155.791" x="3551.8764" y="139.7336">MxBlueskyParameters</text><line style="stroke:#181818;stroke-width:0.5;" x1="3455.79" x2="3771.2539" y1="150.8869" y2="150.8869"/><text fill="#000000" font-family="sans-serif" font-size="14" lengthAdjust="spacing" textLength="305.4639" x="3460.79" y="167.882">SemanticVersion parameter_model_version</text><line style="stroke:#181818;stroke-width:0.5;" x1="3455.79" x2="3771.2539" y1="175.1838" y2="175.1838"/></g><!--class DiffractionExperiment--><g class="entity" data-entity="DiffractionExperiment" data-source-line="46" data-uid="ent0012" id="entity_DiffractionExperiment"><rect fill="#F1F1F1" height="210.9688" rx="2.5" ry="2.5" style="stroke:#181818;stroke-width:0.5;" width="332.332" x="3442.36" y="275.7769"/><ellipse cx="3527.1427" cy="291.7769" fill="#ADD1B2" rx="11" ry="11" style="stroke:#181818;stroke-width:1;"/><path d="M3530.1115,297.4175 Q3529.5333,297.7144 3528.8927,297.855 Q3528.2521,298.0113 3527.549,298.0113 Q3525.049,298.0113 3523.7208,296.3706 Q3522.4083,294.7144 3522.4083,291.5894 Q3522.4083,288.4644 3523.7208,286.8081 Q3525.049,285.1519 3527.549,285.1519 Q3528.2521,285.1519 3528.8927,285.3081 Q3529.549,285.4644 3530.1115,285.7613 L3530.1115,288.48 Q3529.4865,287.9019 3528.8927,287.6363 Q3528.299,287.355 3527.674,287.355 Q3526.3302,287.355 3525.6427,288.4331 Q3524.9552,289.4956 3524.9552,291.5894 Q3524.9552,293.6831 3525.6427,294.7613 Q3526.3302,295.8238 3527.674,295.8238 Q3528.299,295.8238 3528.8927,295.5581 Q3529.4865,295.2769 3530.1115,294.6988 L3530.1115,297.4175 Z " fill="#000000"/><text fill="#000000" font-family="sans-serif" font-size="14" lengthAdjust="spacing" textLength="154.2666" x="3547.6427" y="296.6236">DiffractionExperiment</text><line style="stroke:#181818;stroke-width:0.5;" x1="3443.36" x2="3773.692" y1="307.7769" y2="307.7769"/><text fill="#000000" font-family="sans-serif" font-size="14" lengthAdjust="spacing" textLength="91.0137" x="3448.36" y="324.772">str file_name</text><text fill="#000000" font-family="sans-serif" font-size="14" lengthAdjust="spacing" textLength="153.7129" x="3448.36" y="341.0689">float exposure_time_s</text><text fill="#000000" font-family="sans-serif" font-size="14" lengthAdjust="spacing" textLength="89.5029" x="3448.36" y="357.3657">str comment</text><text fill="#000000" font-family="sans-serif" font-size="14" lengthAdjust="spacing" textLength="186.915" x="3448.36" y="373.6626">TriggerMode trigger_mode</text><text fill="#000000" font-family="sans-serif" font-size="14" lengthAdjust="spacing" textLength="157.9854" x="3448.36" y="389.9595">int | None run_number</text><text fill="#000000" font-family="sans-serif" font-size="14" lengthAdjust="spacing" textLength="282.3516" x="3448.36" y="406.2564">ApertureValue | None selected_aperture</text><text fill="#000000" font-family="sans-serif" font-size="14" lengthAdjust="spacing" textLength="159.2979" x="3448.36" y="422.5532">float transmission_frac</text><text fill="#000000" font-family="sans-serif" font-size="14" lengthAdjust="spacing" textLength="320.332" x="3448.36" y="438.8501">IspybExperimentType ispyb_experiment_type</text><text fill="#000000" font-family="sans-serif" font-size="14" lengthAdjust="spacing" textLength="146.1113" x="3448.36" y="455.147">str storage_directory</text><text fill="#000000" font-family="sans-serif" font-size="14" lengthAdjust="spacing" textLength="131.0518" x="3448.36" y="471.4439">bool use_roi_mode</text><line style="stroke:#181818;stroke-width:0.5;" x1="3443.36" x2="3773.692" y1="478.7456" y2="478.7456"/></g><!--class GridCommon--><g class="entity" data-entity="GridCommon" data-source-line="58" data-uid="ent0013" id="entity_GridCommon"><rect fill="#F1F1F1" height="145.7813" rx="2.5" ry="2.5" style="stroke:#181818;stroke-width:0.5;" width="332.332" x="3442.36" y="654.7469"/><ellipse cx="3558.0582" cy="670.7469" fill="#ADD1B2" rx="11" ry="11" style="stroke:#181818;stroke-width:1;"/><path d="M3561.027,676.3875 Q3560.4489,676.6844 3559.8082,676.825 Q3559.1676,676.9813 3558.4645,676.9813 Q3555.9645,676.9813 3554.6364,675.3406 Q3553.3239,673.6844 3553.3239,670.5594 Q3553.3239,667.4344 3554.6364,665.7781 Q3555.9645,664.1219 3558.4645,664.1219 Q3559.1676,664.1219 3559.8082,664.2781 Q3560.4645,664.4344 3561.027,664.7313 L3561.027,667.45 Q3560.402,666.8719 3559.8082,666.6063 Q3559.2145,666.325 3558.5895,666.325 Q3557.2457,666.325 3556.5582,667.4031 Q3555.8707,668.4656 3555.8707,670.5594 Q3555.8707,672.6531 3556.5582,673.7313 Q3557.2457,674.7938 3558.5895,674.7938 Q3559.2145,674.7938 3559.8082,674.5281 Q3560.402,674.2469 3561.027,673.6688 L3561.027,676.3875 Z " fill="#000000"/><text fill="#000000" font-family="sans-serif" font-size="14" lengthAdjust="spacing" textLength="92.4355" x="3578.5582" y="675.5936">GridCommon</text><line style="stroke:#181818;stroke-width:0.5;" x1="3443.36" x2="3773.692" y1="686.7469" y2="686.7469"/><text fill="#000000" font-family="sans-serif" font-size="14" lengthAdjust="spacing" textLength="125.2959" x="3448.36" y="703.742">float box_size_um</text><text fill="#000000" font-family="sans-serif" font-size="14" lengthAdjust="spacing" textLength="138.4209" x="3448.36" y="720.0389">float grid_width_um</text><text fill="#000000" font-family="sans-serif" font-size="14" lengthAdjust="spacing" textLength="153.7129" x="3448.36" y="736.3357">float exposure_time_s</text><text fill="#000000" font-family="sans-serif" font-size="14" lengthAdjust="spacing" textLength="320.332" x="3448.36" y="752.6326">IspybExperimentType ispyb_experiment_type</text><text fill="#000000" font-family="sans-serif" font-size="14" lengthAdjust="spacing" textLength="282.3516" x="3448.36" y="768.9295">ApertureValue | None selected_aperture</text><text fill="#000000" font-family="sans-serif" font-size="14" lengthAdjust="spacing" textLength="130.498" x="3448.36" y="785.2264">float tip_offset_um</text><line style="stroke:#181818;stroke-width:0.5;" x1="3443.36" x2="3773.692" y1="792.5281" y2="792.5281"/></g><!--class DiffractionExperimentWithSample--><g class="entity" data-entity="DiffractionExperimentWithSample" data-source-line="66" data-uid="ent0014" id="entity_DiffractionExperimentWithSample"><rect fill="#F1F1F1" height="48" rx="2.5" ry="2.5" style="stroke:#181818;stroke-width:0.5;" width="270.8545" x="3457.09" y="546.7469"/><ellipse cx="3472.09" cy="562.7469" fill="#ADD1B2" rx="11" ry="11" style="stroke:#181818;stroke-width:1;"/><path d="M3475.0588,568.3875 Q3474.4806,568.6844 3473.84,568.825 Q3473.1994,568.9813 3472.4963,568.9813 Q3469.9963,568.9813 3468.6681,567.3406 Q3467.3556,565.6844 3467.3556,562.5594 Q3467.3556,559.4344 3468.6681,557.7781 Q3469.9963,556.1219 3472.4963,556.1219 Q3473.1994,556.1219 3473.84,556.2781 Q3474.4963,556.4344 3475.0588,556.7313 L3475.0588,559.45 Q3474.4338,558.8719 3473.84,558.6063 Q3473.2463,558.325 3472.6213,558.325 Q3471.2775,558.325 3470.59,559.4031 Q3469.9025,560.4656 3469.9025,562.5594 Q3469.9025,564.6531 3470.59,565.7313 Q3471.2775,566.7938 3472.6213,566.7938 Q3473.2463,566.7938 3473.84,566.5281 Q3474.4338,566.2469 3475.0588,565.6688 L3475.0588,568.3875 Z " fill="#000000"/><text fill="#000000" font-family="sans-serif" font-size="14" lengthAdjust="spacing" textLength="238.8545" x="3486.09" y="567.5936">DiffractionExperimentWithSample</text><line style="stroke:#181818;stroke-width:0.5;" x1="3458.09" x2="3726.9445" y1="578.7469" y2="578.7469"/><line style="stroke:#181818;stroke-width:0.5;" x1="3458.09" x2="3726.9445" y1="586.7469" y2="586.7469"/></g><!--class WithHyperionUDCFeatures--><g class="entity" data-entity="WithHyperionUDCFeatures" data-source-line="71" data-uid="ent0016" id="entity_WithHyperionUDCFeatures"><rect fill="#F1F1F1" height="64.2969" rx="2.5" ry="2.5" style="stroke:#181818;stroke-width:0.5;" width="228.6719" x="719.19" y="695.4869"/><ellipse cx="738.2883" cy="711.4869" fill="#ADD1B2" rx="11" ry="11" style="stroke:#181818;stroke-width:1;"/><path d="M741.2571,717.1275 Q740.679,717.4244 740.0383,717.565 Q739.3977,717.7213 738.6946,717.7213 Q736.1946,717.7213 734.8665,716.0806 Q733.554,714.4244 733.554,711.2994 Q733.554,708.1744 734.8665,706.5181 Q736.1946,704.8619 738.6946,704.8619 Q739.3977,704.8619 740.0383,705.0181 Q740.6946,705.1744 741.2571,705.4713 L741.2571,708.19 Q740.6321,707.6119 740.0383,707.3463 Q739.4446,707.065 738.8196,707.065 Q737.4758,707.065 736.7883,708.1431 Q736.1008,709.2056 736.1008,711.2994 Q736.1008,713.3931 736.7883,714.4713 Q737.4758,715.5338 738.8196,715.5338 Q739.4446,715.5338 740.0383,715.2681 Q740.6321,714.9869 741.2571,714.4088 L741.2571,717.1275 Z " fill="#000000"/><text fill="#000000" font-family="sans-serif" font-size="14" lengthAdjust="spacing" textLength="187.5645" x="753.1991" y="716.3336">WithHyperionUDCFeatures</text><line style="stroke:#181818;stroke-width:0.5;" x1="720.19" x2="946.8619" y1="727.4869" y2="727.4869"/><text fill="#000000" font-family="sans-serif" font-size="14" lengthAdjust="spacing" textLength="216.6719" x="725.19" y="744.482">HyperionFeatureFlags features</text><line style="stroke:#181818;stroke-width:0.5;" x1="720.19" x2="946.8619" y1="751.7838" y2="751.7838"/></g><!--class LoadCentreCollect--><g class="entity" data-entity="LoadCentreCollect" data-source-line="74" data-uid="ent0017" id="entity_LoadCentreCollect"><rect fill="#F1F1F1" height="80.5938" rx="2.5" ry="2.5" style="stroke:#181818;stroke-width:0.5;" width="338.6211" x="933.21" y="868.6769"/><ellipse cx="1033.835" cy="884.6769" fill="#ADD1B2" rx="11" ry="11" style="stroke:#181818;stroke-width:1;"/><path d="M1036.8038,890.3175 Q1036.2256,890.6144 1035.585,890.755 Q1034.9444,890.9113 1034.2413,890.9113 Q1031.7413,890.9113 1030.4131,889.2706 Q1029.1006,887.6144 1029.1006,884.4894 Q1029.1006,881.3644 1030.4131,879.7081 Q1031.7413,878.0519 1034.2413,878.0519 Q1034.9444,878.0519 1035.585,878.2081 Q1036.2413,878.3644 1036.8038,878.6613 L1036.8038,881.38 Q1036.1788,880.8019 1035.585,880.5363 Q1034.9913,880.255 1034.3663,880.255 Q1033.0225,880.255 1032.335,881.3331 Q1031.6475,882.3956 1031.6475,884.4894 Q1031.6475,886.5831 1032.335,887.6613 Q1033.0225,888.7238 1034.3663,888.7238 Q1034.9913,888.7238 1035.585,888.4581 Q1036.1788,888.1769 1036.8038,887.5988 L1036.8038,890.3175 Z " fill="#000000"/><text fill="#000000" font-family="sans-serif" font-size="14" lengthAdjust="spacing" textLength="128.8711" x="1054.335" y="889.5236">LoadCentreCollect</text><line style="stroke:#181818;stroke-width:0.5;" x1="934.21" x2="1270.8311" y1="900.6769" y2="900.6769"/><text fill="#000000" font-family="sans-serif" font-size="14" lengthAdjust="spacing" textLength="326.6211" x="939.21" y="917.672">RobotLoadThenCentre robot_load_then_centre</text><text fill="#000000" font-family="sans-serif" font-size="14" lengthAdjust="spacing" textLength="269.3154" x="939.21" y="933.9689">MultiRotationScan multi_rotation_scan</text><line style="stroke:#181818;stroke-width:0.5;" x1="934.21" x2="1270.8311" y1="941.2706" y2="941.2706"/></g><!--class GridScanWithEdgeDetect--><g class="entity" data-entity="GridScanWithEdgeDetect" data-source-line="78" data-uid="ent0018" id="entity_GridScanWithEdgeDetect"><rect fill="#F1F1F1" height="48" rx="2.5" ry="2.5" style="stroke:#181818;stroke-width:0.5;" width="209.4268" x="698.81" y="1025.5669"/><ellipse cx="713.81" cy="1041.5669" fill="#ADD1B2" rx="11" ry="11" style="stroke:#181818;stroke-width:1;"/><path d="M716.7788,1047.2075 Q716.2006,1047.5044 715.56,1047.645 Q714.9194,1047.8013 714.2163,1047.8013 Q711.7163,1047.8013 710.3881,1046.1606 Q709.0756,1044.5044 709.0756,1041.3794 Q709.0756,1038.2544 710.3881,1036.5981 Q711.7163,1034.9419 714.2163,1034.9419 Q714.9194,1034.9419 715.56,1035.0981 Q716.2163,1035.2544 716.7788,1035.5513 L716.7788,1038.27 Q716.1538,1037.6919 715.56,1037.4263 Q714.9663,1037.145 714.3413,1037.145 Q712.9975,1037.145 712.31,1038.2231 Q711.6225,1039.2856 711.6225,1041.3794 Q711.6225,1043.4731 712.31,1044.5513 Q712.9975,1045.6138 714.3413,1045.6138 Q714.9663,1045.6138 715.56,1045.3481 Q716.1538,1045.0669 716.7788,1044.4888 L716.7788,1047.2075 Z " fill="#000000"/><text fill="#000000" font-family="sans-serif" font-size="14" lengthAdjust="spacing" textLength="177.4268" x="727.81" y="1046.4136">GridScanWithEdgeDetect</text><line style="stroke:#181818;stroke-width:0.5;" x1="699.81" x2="907.2368" y1="1057.5669" y2="1057.5669"/><line style="stroke:#181818;stroke-width:0.5;" x1="699.81" x2="907.2368" y1="1065.5669" y2="1065.5669"/></g><!--class RotationExperiment--><g class="entity" data-entity="RotationExperiment" data-source-line="80" data-uid="ent0019" id="entity_RotationExperiment"><rect fill="#F1F1F1" height="96.8906" rx="2.5" ry="2.5" style="stroke:#181818;stroke-width:0.5;" width="332.332" x="160.36" y="860.5269"/><ellipse cx="252.2418" cy="876.5269" fill="#ADD1B2" rx="11" ry="11" style="stroke:#181818;stroke-width:1;"/><path d="M255.2106,882.1675 Q254.6325,882.4644 253.9918,882.605 Q253.3512,882.7613 252.6481,882.7613 Q250.1481,882.7613 248.82,881.1206 Q247.5075,879.4644 247.5075,876.3394 Q247.5075,873.2144 248.82,871.5581 Q250.1481,869.9019 252.6481,869.9019 Q253.3512,869.9019 253.9918,870.0581 Q254.6481,870.2144 255.2106,870.5113 L255.2106,873.23 Q254.5856,872.6519 253.9918,872.3863 Q253.3981,872.105 252.7731,872.105 Q251.4293,872.105 250.7418,873.1831 Q250.0543,874.2456 250.0543,876.3394 Q250.0543,878.4331 250.7418,879.5113 Q251.4293,880.5738 252.7731,880.5738 Q253.3981,880.5738 253.9918,880.3081 Q254.5856,880.0269 255.2106,879.4488 L255.2106,882.1675 Z " fill="#000000"/><text fill="#000000" font-family="sans-serif" font-size="14" lengthAdjust="spacing" textLength="140.0684" x="272.7418" y="881.3736">RotationExperiment</text><line style="stroke:#181818;stroke-width:0.5;" x1="161.36" x2="491.692" y1="892.5269" y2="892.5269"/><text fill="#000000" font-family="sans-serif" font-size="14" lengthAdjust="spacing" textLength="202.8018" x="166.36" y="909.522">float shutter_opening_time_s</text><text fill="#000000" font-family="sans-serif" font-size="14" lengthAdjust="spacing" textLength="202.9385" x="166.36" y="925.8189">float rotation_increment_deg</text><text fill="#000000" font-family="sans-serif" font-size="14" lengthAdjust="spacing" textLength="320.332" x="166.36" y="942.1157">IspybExperimentType ispyb_experiment_type</text><line style="stroke:#181818;stroke-width:0.5;" x1="161.36" x2="491.692" y1="949.4175" y2="949.4175"/></g><!--class PinTipCentreThenXrayCentre--><g class="entity" data-entity="PinTipCentreThenXrayCentre" data-source-line="85" data-uid="ent0020" id="entity_PinTipCentreThenXrayCentre"><rect fill="#F1F1F1" height="64.2969" rx="2.5" ry="2.5" style="stroke:#181818;stroke-width:0.5;" width="235.8955" x="943.57" y="1017.4169"/><ellipse cx="958.57" cy="1033.4169" fill="#ADD1B2" rx="11" ry="11" style="stroke:#181818;stroke-width:1;"/><path d="M961.5388,1039.0575 Q960.9606,1039.3544 960.32,1039.495 Q959.6794,1039.6513 958.9763,1039.6513 Q956.4763,1039.6513 955.1481,1038.0106 Q953.8356,1036.3544 953.8356,1033.2294 Q953.8356,1030.1044 955.1481,1028.4481 Q956.4763,1026.7919 958.9763,1026.7919 Q959.6794,1026.7919 960.32,1026.9481 Q960.9763,1027.1044 961.5388,1027.4013 L961.5388,1030.12 Q960.9138,1029.5419 960.32,1029.2763 Q959.7263,1028.995 959.1013,1028.995 Q957.7575,1028.995 957.07,1030.0731 Q956.3825,1031.1356 956.3825,1033.2294 Q956.3825,1035.3231 957.07,1036.4013 Q957.7575,1037.4638 959.1013,1037.4638 Q959.7263,1037.4638 960.32,1037.1981 Q960.9138,1036.9169 961.5388,1036.3388 L961.5388,1039.0575 Z " fill="#000000"/><text fill="#000000" font-family="sans-serif" font-size="14" lengthAdjust="spacing" textLength="203.8955" x="972.57" y="1038.2636">PinTipCentreThenXrayCentre</text><line style="stroke:#181818;stroke-width:0.5;" x1="944.57" x2="1178.4655" y1="1049.4169" y2="1049.4169"/><text fill="#000000" font-family="sans-serif" font-size="14" lengthAdjust="spacing" textLength="130.498" x="949.57" y="1066.412">float tip_offset_um</text><line style="stroke:#181818;stroke-width:0.5;" x1="944.57" x2="1178.4655" y1="1073.7138" y2="1073.7138"/></g><!--class GridCommonWithHyperionDetectorParams--><g class="entity" data-entity="GridCommonWithHyperionDetectorParams" data-source-line="88" data-uid="ent0021" id="entity_GridCommonWithHyperionDetectorParams"><rect fill="#F1F1F1" height="48" rx="2.5" ry="2.5" style="stroke:#181818;stroke-width:0.5;" width="333.2188" x="564.91" y="884.9769"/><ellipse cx="579.91" cy="900.9769" fill="#ADD1B2" rx="11" ry="11" style="stroke:#181818;stroke-width:1;"/><path d="M582.8788,906.6175 Q582.3006,906.9144 581.66,907.055 Q581.0194,907.2113 580.3163,907.2113 Q577.8163,907.2113 576.4881,905.5706 Q575.1756,903.9144 575.1756,900.7894 Q575.1756,897.6644 576.4881,896.0081 Q577.8163,894.3519 580.3163,894.3519 Q581.0194,894.3519 581.66,894.5081 Q582.3163,894.6644 582.8788,894.9613 L582.8788,897.68 Q582.2538,897.1019 581.66,896.8363 Q581.0663,896.555 580.4413,896.555 Q579.0975,896.555 578.41,897.6331 Q577.7225,898.6956 577.7225,900.7894 Q577.7225,902.8831 578.41,903.9613 Q579.0975,905.0238 580.4413,905.0238 Q581.0663,905.0238 581.66,904.7581 Q582.2538,904.4769 582.8788,903.8988 L582.8788,906.6175 Z " fill="#000000"/><text fill="#000000" font-family="sans-serif" font-size="14" lengthAdjust="spacing" textLength="301.2188" x="593.91" y="905.8236">GridCommonWithHyperionDetectorParams</text><line style="stroke:#181818;stroke-width:0.5;" x1="565.91" x2="897.1288" y1="916.9769" y2="916.9769"/><line style="stroke:#181818;stroke-width:0.5;" x1="565.91" x2="897.1288" y1="924.9769" y2="924.9769"/></g><!--class MultiRotationScan--><g class="entity" data-entity="MultiRotationScan" data-source-line="90" data-uid="ent0022" id="entity_MultiRotationScan"><rect fill="#F1F1F1" height="64.2969" rx="2.5" ry="2.5" style="stroke:#181818;stroke-width:0.5;" width="540.001" x="123.52" y="1017.4169"/><ellipse cx="325.5527" cy="1033.4169" fill="#ADD1B2" rx="11" ry="11" style="stroke:#181818;stroke-width:1;"/><path d="M328.5215,1039.0575 Q327.9433,1039.3544 327.3027,1039.495 Q326.6621,1039.6513 325.959,1039.6513 Q323.459,1039.6513 322.1308,1038.0106 Q320.8183,1036.3544 320.8183,1033.2294 Q320.8183,1030.1044 322.1308,1028.4481 Q323.459,1026.7919 325.959,1026.7919 Q326.6621,1026.7919 327.3027,1026.9481 Q327.959,1027.1044 328.5215,1027.4013 L328.5215,1030.12 Q327.8965,1029.5419 327.3027,1029.2763 Q326.709,1028.995 326.084,1028.995 Q324.7402,1028.995 324.0527,1030.0731 Q323.3652,1031.1356 323.3652,1033.2294 Q323.3652,1035.3231 324.0527,1036.4013 Q324.7402,1037.4638 326.084,1037.4638 Q326.709,1037.4638 327.3027,1037.1981 Q327.8965,1036.9169 328.5215,1036.3388 L328.5215,1039.0575 Z " fill="#000000"/><text fill="#000000" font-family="sans-serif" font-size="14" lengthAdjust="spacing" textLength="127.4355" x="346.0527" y="1038.2636">MultiRotationScan</text><line style="stroke:#181818;stroke-width:0.5;" x1="124.52" x2="662.521" y1="1049.4169" y2="1049.4169"/><line style="stroke:#181818;stroke-width:0.5;" x1="124.52" x2="662.521" y1="1057.4169" y2="1057.4169"/><text fill="#000000" font-family="sans-serif" font-size="14" lengthAdjust="spacing" textLength="528.001" x="129.52" y="1074.412">Annotated[list[RotationScanPerSweep], Len(min_length=1)] rotation_scans</text></g><!--reverse link DiffractionExperimentWithSample to GridCommon--><g class="link" data-entity-1="DiffractionExperimentWithSample" data-entity-2="GridCommon" data-source-line="94" data-uid="lnk23" id="link_DiffractionExperimentWithSample_GridCommon"><path codeLine="94" d="M3596.7611,612.8425 C3598.4011,628.7925 3598.85,633.0069 3601.08,654.5669" fill="none" id="DiffractionExperimentWithSample-backto-GridCommon" style="stroke:#181818;stroke-width:1;"/><polygon fill="none" points="3594.92,594.9369,3590.7925,613.4562,3602.7296,612.2288,3594.92,594.9369" style="stroke:#181818;stroke-width:1;"/></g><!--reverse link OptionalGonioAngleStarts to GridCommon--><g class="link" data-entity-1="OptionalGonioAngleStarts" data-entity-2="GridCommon" data-source-line="95" data-uid="lnk24" id="link_OptionalGonioAngleStarts_GridCommon"><path codeLine="95" d="M2616.504,216.7619 C2626.194,222.1319 2620.16,218.7369 2629.52,223.7769 C2923.03,381.9769 3271.28,558.1569 3463.27,654.2969" fill="none" id="OptionalGonioAngleStarts-backto-GridCommon" style="stroke:#181818;stroke-width:1;"/><polygon fill="none" points="2600.76,208.0369,2613.5957,222.0099,2619.4124,211.5139,2600.76,208.0369" style="stroke:#181818;stroke-width:1;"/></g><!--reverse link WithPandaGridScan to WithHyperionUDCFeatures--><g class="link" data-entity-1="WithPandaGridScan" data-entity-2="WithHyperionUDCFeatures" data-source-line="96" data-uid="lnk25" id="link_WithPandaGridScan_WithHyperionUDCFeatures"><path codeLine="96" d="M1859.3124,192.1108 C1834.5024,205.5108 1820.44,212.1369 1792.52,223.7769 C1722.73,252.8769 1699.79,245.4469 1630.52,275.7769 C1332.72,406.1769 1002.12,615.9469 881.15,695.0769" fill="none" id="WithPandaGridScan-backto-WithHyperionUDCFeatures" style="stroke:#181818;stroke-width:1;"/><polygon fill="none" points="1875.15,183.5569,1856.4611,186.8316,1862.1637,197.39,1875.15,183.5569" style="stroke:#181818;stroke-width:1;"/></g><!--reverse link MxBlueskyParameters to LoadCentreCollect--><g class="link" data-entity-1="MxBlueskyParameters" data-entity-2="LoadCentreCollect" data-source-line="97" data-uid="lnk26" id="link_MxBlueskyParameters_LoadCentreCollect"><path codeLine="97" d="M3737.4019,190.5443 C3783.5319,209.7143 3816.94,232.1969 3846.52,275.7769 C3985.51,480.5069 4029.2,666.7169 3845.52,832.5269 C3797.6,875.7869 1863.35,899.8869 1272.3,906.2569" fill="none" id="MxBlueskyParameters-backto-LoadCentreCollect" style="stroke:#181818;stroke-width:1;"/><polygon fill="none" points="3720.78,183.6369,3735.0994,196.085,3739.7044,185.0037,3720.78,183.6369" style="stroke:#181818;stroke-width:1;"/></g><!--reverse link WithVisit to LoadCentreCollect--><g class="link" data-entity-1="WithVisit" data-entity-2="LoadCentreCollect" data-source-line="98" data-uid="lnk27" id="link_WithVisit_LoadCentreCollect"><path codeLine="98" d="M2111.6848,226.2335 C1887.2748,377.8435 1344.1,744.7769 1161.43,868.1769" fill="none" id="WithVisit-backto-LoadCentreCollect" style="stroke:#181818;stroke-width:1;"/><polygon fill="none" points="2126.6,216.1569,2108.326,221.2617,2115.0437,231.2052,2126.6,216.1569" style="stroke:#181818;stroke-width:1;"/></g><!--reverse link WithSample to LoadCentreCollect--><g class="link" data-entity-1="WithSample" data-entity-2="LoadCentreCollect" data-source-line="99" data-uid="lnk28" id="link_WithSample_LoadCentreCollect"><path codeLine="99" d="M3133.9315,209.6927 C3148.4515,219.1527 3149.39,218.0869 3165.52,223.7769 C3296.96,270.1269 3696.15,173.2269 3790.52,275.7769 C3874.3,366.8169 3876.77,743.8269 3790.52,832.5269 C3746.5,877.8069 1855.53,900.4569 1272.12,906.3669" fill="none" id="WithSample-backto-LoadCentreCollect" style="stroke:#181818;stroke-width:1;"/><polygon fill="none" points="3118.85,199.8669,3130.6563,214.7199,3137.2068,204.6655,3118.85,199.8669" style="stroke:#181818;stroke-width:1;"/></g><!--reverse link WithCentreSelection to LoadCentreCollect--><g class="link" data-entity-1="WithCentreSelection" data-entity-2="LoadCentreCollect" data-source-line="100" data-uid="lnk29" id="link_WithCentreSelection_LoadCentreCollect"><path codeLine="100" d="M1537.4109,190.7983 C1506.3709,204.4383 1485.3,212.5769 1450.52,223.7769 C1352.42,255.3869 1318.41,233.2669 1224.52,275.7769 C963.56,393.9469 832.1,397.5169 701.52,652.4869 C665.05,723.7069 648.74,772.3869 701.52,832.5269 C733.16,868.5769 868.42,851.5069 915.52,860.5269 C927.53,862.8269 939.91,865.4369 952.32,868.2169" fill="none" id="WithCentreSelection-backto-LoadCentreCollect" style="stroke:#181818;stroke-width:1;"/><polygon fill="none" points="1553.89,183.5569,1534.9971,185.3053,1539.8247,196.2914,1553.89,183.5569" style="stroke:#181818;stroke-width:1;"/></g><!--reverse link WithHyperionUDCFeatures to LoadCentreCollect--><g class="link" data-entity-1="WithHyperionUDCFeatures" data-entity-2="LoadCentreCollect" data-source-line="101" data-uid="lnk30" id="link_WithHyperionUDCFeatures_LoadCentreCollect"><path codeLine="101" d="M895.6674,770.0707 C940.8674,800.2007 994.28,835.8169 1043.17,868.4069" fill="none" id="WithHyperionUDCFeatures-backto-LoadCentreCollect" style="stroke:#181818;stroke-width:1;"/><polygon fill="none" points="880.69,760.0869,892.3395,775.0632,898.9954,765.0782,880.69,760.0869" style="stroke:#181818;stroke-width:1;"/></g><!--reverse link GridCommonWithHyperionDetectorParams to GridScanWithEdgeDetect--><g class="link" data-entity-1="GridCommonWithHyperionDetectorParams" data-entity-2="GridScanWithEdgeDetect" data-source-line="102" data-uid="lnk31" id="link_GridCommonWithHyperionDetectorParams_GridScanWithEdgeDetect"><path codeLine="102" d="M751.8686,949.1497 C765.1586,974.7297 778.12,999.6769 791.43,1025.2969" fill="none" id="GridCommonWithHyperionDetectorParams-backto-GridScanWithEdgeDetect" style="stroke:#181818;stroke-width:1;"/><polygon fill="none" points="743.57,933.1769,746.5444,951.916,757.1929,946.3835,743.57,933.1769" style="stroke:#181818;stroke-width:1;"/></g><!--reverse link WithHyperionUDCFeatures to GridScanWithEdgeDetect--><g class="link" data-entity-1="WithHyperionUDCFeatures" data-entity-2="GridScanWithEdgeDetect" data-source-line="103" data-uid="lnk32" id="link_WithHyperionUDCFeatures_GridScanWithEdgeDetect"><path codeLine="103" d="M700.7591,734.4603 C523.5791,744.5503 214.33,773.7169 142.52,860.5269 C6,1025.5769 298.09,947.4869 681.52,1017.4169 C693.35,1019.5769 705.73,1022.2469 717.87,1025.1069" fill="none" id="WithHyperionUDCFeatures-backto-GridScanWithEdgeDetect" style="stroke:#181818;stroke-width:1;"/><polygon fill="none" points="718.73,733.4369,700.418,728.47,701.1003,740.4506,718.73,733.4369" style="stroke:#181818;stroke-width:1;"/></g><!--reverse link DiffractionExperimentWithSample to RotationExperiment--><g class="link" data-entity-1="DiffractionExperimentWithSample" data-entity-2="RotationExperiment" data-source-line="104" data-uid="lnk33" id="link_DiffractionExperimentWithSample_RotationExperiment"><path codeLine="104" d="M3438.7276,588.7618 C3050.4576,631.4018 1920.69,753.1469 965.52,832.5269 C779.97,847.9469 731.92,834.6969 547.52,860.5269 C529.74,863.0169 511.26,866.1369 492.89,869.5769" fill="none" id="DiffractionExperimentWithSample-backto-RotationExperiment" style="stroke:#181818;stroke-width:1;"/><polygon fill="none" points="3456.62,586.7969,3438.0726,582.7977,3439.3826,594.726,3456.62,586.7969" style="stroke:#181818;stroke-width:1;"/></g><!--reverse link WithHyperionUDCFeatures to RotationExperiment--><g class="link" data-entity-1="WithHyperionUDCFeatures" data-entity-2="RotationExperiment" data-source-line="105" data-uid="lnk34" id="link_WithHyperionUDCFeatures_RotationExperiment"><path codeLine="105" d="M727.3703,766.1894 C649.2303,793.8294 551.47,828.4069 461.99,860.0569" fill="none" id="WithHyperionUDCFeatures-backto-RotationExperiment" style="stroke:#181818;stroke-width:1;"/><polygon fill="none" points="744.34,760.1869,725.3695,760.5329,729.3712,771.846,744.34,760.1869" style="stroke:#181818;stroke-width:1;"/></g><!--reverse link GridCommonWithHyperionDetectorParams to PinTipCentreThenXrayCentre--><g class="link" data-entity-1="GridCommonWithHyperionDetectorParams" data-entity-2="PinTipCentreThenXrayCentre" data-source-line="106" data-uid="lnk35" id="link_GridCommonWithHyperionDetectorParams_PinTipCentreThenXrayCentre"><path codeLine="106" d="M803.726,940.2963 C858.376,963.2463 925.56,991.4669 986.17,1016.9169" fill="none" id="GridCommonWithHyperionDetectorParams-backto-PinTipCentreThenXrayCentre" style="stroke:#181818;stroke-width:1;"/><polygon fill="none" points="787.13,933.3269,801.4029,945.8283,806.0491,934.7643,787.13,933.3269" style="stroke:#181818;stroke-width:1;"/></g><!--reverse link WithHyperionUDCFeatures to PinTipCentreThenXrayCentre--><g class="link" data-entity-1="WithHyperionUDCFeatures" data-entity-2="PinTipCentreThenXrayCentre" data-source-line="107" data-uid="lnk36" id="link_WithHyperionUDCFeatures_PinTipCentreThenXrayCentre"><path codeLine="107" d="M701.5495,755.4492 C639.4795,773.6792 585.25,801.5869 547.52,860.5269 C524.31,896.7969 519.56,924.6669 547.52,957.4169 C602.75,1022.1069 842.02,1001.2469 925.52,1017.4169 C931.35,1018.5469 937.3,1019.7469 943.31,1020.9869" fill="none" id="WithHyperionUDCFeatures-backto-PinTipCentreThenXrayCentre" style="stroke:#181818;stroke-width:1;"/><polygon fill="none" points="718.82,750.3769,699.8587,749.6924,703.2403,761.2061,718.82,750.3769" style="stroke:#181818;stroke-width:1;"/></g><!--reverse link GridCommon to GridCommonWithHyperionDetectorParams--><g class="link" data-entity-1="GridCommon" data-entity-2="GridCommonWithHyperionDetectorParams" data-source-line="108" data-uid="lnk37" id="link_GridCommon_GridCommonWithHyperionDetectorParams"><path codeLine="108" d="M3424.1522,760.7798 C3273.1822,785.7998 3062.09,817.1969 2861.52,832.5269 C2430.29,865.4869 1344.17,803.0169 915.52,860.5269 C878.9,865.4469 839.11,875.1369 805.92,884.4869" fill="none" id="GridCommon-backto-GridCommonWithHyperionDetectorParams" style="stroke:#181818;stroke-width:1;"/><polygon fill="none" points="3441.91,757.8369,3423.1712,754.8606,3425.1332,766.6991,3441.91,757.8369" style="stroke:#181818;stroke-width:1;"/></g><!--reverse link WithHyperionUDCFeatures to GridCommonWithHyperionDetectorParams--><g class="link" data-entity-1="WithHyperionUDCFeatures" data-entity-2="GridCommonWithHyperionDetectorParams" data-source-line="109" data-uid="lnk38" id="link_WithHyperionUDCFeatures_GridCommonWithHyperionDetectorParams"><path codeLine="109" d="M806.8518,775.5237 C786.6518,811.0437 763.02,852.5969 744.86,884.5169" fill="none" id="WithHyperionUDCFeatures-backto-GridCommonWithHyperionDetectorParams" style="stroke:#181818;stroke-width:1;"/><polygon fill="none" points="815.75,759.8769,801.6362,772.5576,812.0674,778.4897,815.75,759.8769" style="stroke:#181818;stroke-width:1;"/></g><!--reverse link MxBlueskyParameters to DiffractionExperiment--><g class="link" data-entity-1="MxBlueskyParameters" data-entity-2="DiffractionExperiment" data-source-line="110" data-uid="lnk39" id="link_MxBlueskyParameters_DiffractionExperiment"><path codeLine="110" d="M3612.4423,201.2925 C3611.9123,225.2725 3611.55,241.8669 3610.82,275.3869" fill="none" id="MxBlueskyParameters-backto-DiffractionExperiment" style="stroke:#181818;stroke-width:1;"/><polygon fill="none" points="3612.84,183.2969,3606.4437,201.1599,3618.4408,201.4251,3612.84,183.2969" style="stroke:#181818;stroke-width:1;"/></g><!--reverse link WithSnapshot to DiffractionExperiment--><g class="link" data-entity-1="WithSnapshot" data-entity-2="DiffractionExperiment" data-source-line="111" data-uid="lnk40" id="link_WithSnapshot_DiffractionExperiment"><path codeLine="111" d="M2889.6272,199.0354 C2914.9872,210.3954 2926.86,214.7769 2953.52,223.7769 C3116.35,278.7769 3308.15,322.2069 3441.96,349.2269" fill="none" id="WithSnapshot-backto-DiffractionExperiment" style="stroke:#181818;stroke-width:1;"/><polygon fill="none" points="2873.2,191.6769,2887.1743,204.5111,2892.08,193.5597,2873.2,191.6769" style="stroke:#181818;stroke-width:1;"/></g><!--reverse link WithOptionalEnergyChange to DiffractionExperiment--><g class="link" data-entity-1="WithOptionalEnergyChange" data-entity-2="DiffractionExperiment" data-source-line="112" data-uid="lnk41" id="link_WithOptionalEnergyChange_DiffractionExperiment"><path codeLine="112" d="M3357.4825,194.243 C3389.8325,218.213 3421.86,241.9469 3466.92,275.3369" fill="none" id="WithOptionalEnergyChange-backto-DiffractionExperiment" style="stroke:#181818;stroke-width:1;"/><polygon fill="none" points="3343.02,183.5269,3353.9105,199.0638,3361.0546,189.4222,3343.02,183.5269" style="stroke:#181818;stroke-width:1;"/></g><!--reverse link WithVisit to DiffractionExperiment--><g class="link" data-entity-1="WithVisit" data-entity-2="DiffractionExperiment" data-source-line="113" data-uid="lnk42" id="link_WithVisit_DiffractionExperiment"><path codeLine="113" d="M2369.3204,222.3314 C2377.0604,225.1114 2367.87,221.5669 2375.52,223.7769 C2746.74,330.9669 3201.89,364.7669 3441.95,375.3969" fill="none" id="WithVisit-backto-DiffractionExperiment" style="stroke:#181818;stroke-width:1;"/><polygon fill="none" points="2352.38,216.2469,2367.2923,227.9782,2371.3486,216.6846,2352.38,216.2469" style="stroke:#181818;stroke-width:1;"/></g><!--reverse link RotationExperiment to MultiRotationScan--><g class="link" data-entity-1="RotationExperiment" data-entity-2="MultiRotationScan" data-source-line="114" data-uid="lnk43" id="link_RotationExperiment_MultiRotationScan"><path codeLine="114" d="M357.4124,973.8735 C366.9524,993.6135 369.91,999.7269 378.42,1017.3169" fill="none" id="RotationExperiment-backto-MultiRotationScan" style="stroke:#181818;stroke-width:1;"/><polygon fill="none" points="349.58,957.6669,352.0102,976.4843,362.8146,971.2627,349.58,957.6669" style="stroke:#181818;stroke-width:1;"/></g><!--reverse link SplitScan to MultiRotationScan--><g class="link" data-entity-1="SplitScan" data-entity-2="MultiRotationScan" data-source-line="115" data-uid="lnk44" id="link_SplitScan_MultiRotationScan"><path codeLine="115" d="M1317.8893,158.4279 C1080.0893,182.2079 70.52,298.8069 70.52,569.7469 C70.52,569.7469 70.52,569.7469 70.52,728.6369 C70.52,831.1369 33.64,878.9069 99.52,957.4169 C122.11,984.3369 152.48,1003.4369 185.16,1016.9669" fill="none" id="SplitScan-backto-MultiRotationScan" style="stroke:#181818;stroke-width:1;"/><polygon fill="none" points="1335.8,156.6369,1317.2923,152.4577,1318.4864,164.3982,1335.8,156.6369" style="stroke:#181818;stroke-width:1;"/></g><!--reverse link DiffractionExperiment to DiffractionExperimentWithSample--><g class="link" data-entity-1="DiffractionExperiment" data-entity-2="DiffractionExperimentWithSample" data-source-line="116" data-uid="lnk45" id="link_DiffractionExperiment_DiffractionExperimentWithSample"><path codeLine="116" d="M3598.0285,505.1816 C3596.1285,527.4316 3595.84,530.8969 3594.52,546.3269" fill="none" id="DiffractionExperiment-backto-DiffractionExperimentWithSample" style="stroke:#181818;stroke-width:1;"/><polygon fill="none" points="3599.56,487.2469,3592.0503,504.6711,3604.0067,505.6921,3599.56,487.2469" style="stroke:#181818;stroke-width:1;"/></g><!--reverse link WithSample to DiffractionExperimentWithSample--><g class="link" data-entity-1="WithSample" data-entity-2="DiffractionExperimentWithSample" data-source-line="117" data-uid="lnk46" id="link_WithSample_DiffractionExperimentWithSample"><path codeLine="117" d="M3115.479,213.0304 C3180.569,282.4804 3296.84,399.2969 3424.52,486.7469 C3459.28,510.5569 3501.86,531.5169 3535.46,546.4169" fill="none" id="WithSample-backto-DiffractionExperimentWithSample" style="stroke:#181818;stroke-width:1;"/><polygon fill="none" points="3103.17,199.8969,3111.1012,217.1334,3119.8568,208.9274,3103.17,199.8969" style="stroke:#181818;stroke-width:1;"/></g><!--SRC=[bLRVR-Cs37wE_WgzRGFM0dlV7dffxpRWUWikMJVWK0YApTX2PKcGv5woNF_teoJRSUeVwI4FiKYA_4X-fFtJfXIExeG4Yl-yzlgg00MMUyZfza3R0pEIArzNyjeS2F72uuK_3mQiq8gkkEKLUB3qNkSWYGDF5KgSuHcimQ3QQqkLLa08ofvu0RJQiwsimJqThZDTLLfTczQDeqVYTG6-H9T7aadk75qRAVmwu-f8NXhHtyPZU2u_Q2NqZIeah3sttXt9OYSrz_GR_OGngQwWuCm57SkXUAKrfPZKPJEw9svCtskBwb_XooKeRp5r2Lc0Y80ssdnwTxZd-wMkbUyqrCKdbiKBxip9YgkSVx0YJratqKsGCbkhsh1SO7YL0QkgiviFmWcFDvotT0kyaW8h7q_FGPCUS_3H0VEQ1IEMQVKC5klF3FTbCXBAeGY1CcDX9_QlQe0-4BssaqZQ5jqXZOh3ikIgWEF0IOKvCOWc39xF7AmLDwxK8PiLegAkEMD46qCVo49Yy2_HvMFhipEBlNU31grvPMH08fIdBXwOoDEnTP6afiwUHkL2eSUN8L7lz-yIhxkn28HSXoIzo1xm6FhUaPrLOMROSv9t86_5RcTvvCZTFinPXGnfMXh6bOK1Qmi9UwDTRO5vD6CkMOMfmZj8FIkA0coOJUhJSmnwbXKIYgcwse8bYnkCvz7T0yT4khGZKI5dlD6smRtbobN21VWiO2QBlvmvR4-mDxWeSBsWZ44dP1wb2Qd3Dk9AwBTqgxMajGDcjKXWsyA4WLZ6XT7nQAltp8d_WTLLAohGYdqLkIzxma6PVW3d3zP46APtEro48VniJ_jiV8c_aGrPDglsV4UUwDokudzkb- -11oI1Swsq4RsNlC1Tt-WxL1yrpzE-McePyi6Rd_LM-w3ObA2IajeWOvXUpf3lgbbPP75VIoy-Qyz3Nc5LqIf8i7D9n1pApjeNZ0Bgkxo0sxX1JZkzTNH6-bHKLzO-38mse8GgkYucRHTEgCn2x5pSsM_lSGjX9TH6c9HroFy_om_fT9plxucQ_PxSDZiohWDtodHGD_H-erGGGFubxhI-TWLs_HN0FFvAFuBwkHAAIL25B__uxPT7UbPi5sbqWMtqzszNLpt8PEfjEZ0Sl9kInGGFoSW-J1S6n2FTkslEe0z_tEBLstVET0JmbFbRkdkgrP3Zy_4cxhofYSEPcOyrOl_svAQdOpxepBrJyDTScmPpkPeNFKmISxJefFyrSibkxBFdqfqUySUDXcrBreD5GhflvIc3qG0piK-C6upW1Vll]--></g></svg>