<svg xmlns="http://www.w3.org/2000/svg" xmlns:xlink="http://www.w3.org/1999/xlink" contentStyleType="text/css" data-diagram-type="CLASS" height="1104px" preserveAspectRatio="none" style="width:4241px;height:1104px;background:#FFFFFF;" version="1.1" viewBox="0 0 4241 1104" width="4241px" zoomAndPan="magnify"><title>Hyperion Parameter Model</title><defs/><g><g class="title" data-source-line="3"><text fill="#000000" font-family="sans-serif" font-size="14" font-weight="bold" lengthAdjust="spacing" textLength="212.4951" x="2007.6074" y="22.9951">Hyperion Parameter Model</text></g><!--cluster mx_bluesky.common.parameters--><g class="cluster" data-entity="mx_bluesky.common.parameters" data-source-line="6" data-uid="ent0002" id="cluster_mx_bluesky.common.parameters"><path d="M1212.5,43.2969 L1473.8125,43.2969 A3.75,3.75 0 0 1 1476.3125,45.7969 L1483.3125,65.5938 L4032.5,65.5938 A2.5,2.5 0 0 1 4035,68.0938 L4035,822.0269 A2.5,2.5 0 0 1 4032.5,824.5269 L1212.5,824.5269 A2.5,2.5 0 0 1 1210,822.0269 L1210,45.7969 A2.5,2.5 0 0 1 1212.5,43.2969" fill="none" style="stroke:#000000;stroke-width:1.5;"/><line style="stroke:#000000;stroke-width:1.5;" x1="1210" x2="1483.3125" y1="65.5938" y2="65.5938"/><text fill="#000000" font-family="sans-serif" font-size="14" font-weight="bold" lengthAdjust="spacing" textLength="260.3125" x="1214" y="58.292">mx_bluesky.common.parameters</text></g><!--cluster mx_bluesky.hyperion.parameters--><g class="cluster" data-entity="mx_bluesky.hyperion.parameters" data-source-line="71" data-uid="ent0015" id="cluster_mx_bluesky.hyperion.parameters"><path d="M8.5,660.4869 L273.0322,660.4869 A3.75,3.75 0 0 1 275.5322,662.9869 L282.5322,682.7838 L1183.5,682.7838 A2.5,2.5 0 0 1 1186,685.2838 L1186,1095.2169 A2.5,2.5 0 0 1 1183.5,1097.7169 L8.5,1097.7169 A2.5,2.5 0 0 1 6,1095.2169 L6,662.9869 A2.5,2.5 0 0 1 8.5,660.4869" fill="none" style="stroke:#000000;stroke-width:1.5;"/><line style="stroke:#000000;stroke-width:1.5;" x1="6" x2="282.5322" y1="682.7838" y2="682.7838"/><text fill="#000000" font-family="sans-serif" font-size="14" font-weight="bold" lengthAdjust="spacing" textLength="263.5322" x="10" y="675.482">mx_bluesky.hyperion.parameters</text></g><!--class WithVisit--><g class="entity" data-entity="WithVisit" data-source-line="8" data-uid="ent0003" id="entity_WithVisit"><rect fill="#F1F1F1" height="129.4844" rx="2.5" ry="2.5" style="stroke:#181818;stroke-width:0.5;" width="271.7861" x="1720.11" y="86.2969"/><ellipse cx="1820.6359" cy="102.2969" fill="#ADD1B2" rx="11" ry="11" style="stroke:#181818;stroke-width:1;"/><path d="M1823.6046,107.9375 Q1823.0265,108.2344 1822.3859,108.375 Q1821.7453,108.5313 1821.0421,108.5313 Q1818.5421,108.5313 1817.214,106.8906 Q1815.9015,105.2344 1815.9015,102.1094 Q1815.9015,98.9844 1817.214,97.3281 Q1818.5421,95.6719 1821.0421,95.6719 Q1821.7453,95.6719 1822.3859,95.8281 Q1823.0421,95.9844 1823.6046,96.2813 L1823.6046,99 Q1822.9796,98.4219 1822.3859,98.1563 Q1821.7921,97.875 1821.1671,97.875 Q1819.8234,97.875 1819.1359,98.9531 Q1818.4484,100.0156 1818.4484,102.1094 Q1818.4484,104.2031 1819.1359,105.2813 Q1819.8234,106.3438 1821.1671,106.3438 Q1821.7921,106.3438 1822.3859,106.0781 Q1822.9796,105.7969 1823.6046,105.2188 L1823.6046,107.9375 Z " fill="#000000"/><text fill="#000000" font-family="sans-serif" font-size="14" lengthAdjust="spacing" textLength="62.2344" x="1841.1359" y="107.1436">WithVisit</text><line style="stroke:#181818;stroke-width:0.5;" x1="1721.11" x2="1990.8961" y1="118.2969" y2="118.2969"/><text fill="#000000" font-family="sans-serif" font-size="14" lengthAdjust="spacing" textLength="87.9717" x="1726.11" y="135.292">str beamline</text><text fill="#000000" font-family="sans-serif" font-size="14" lengthAdjust="spacing" textLength="51.8369" x="1726.11" y="151.5889">str visit</text><text fill="#000000" font-family="sans-serif" font-size="14" lengthAdjust="spacing" textLength="259.7861" x="1726.11" y="167.8857">str det_dist_to_beam_converter_path</text><text fill="#000000" font-family="sans-serif" font-size="14" lengthAdjust="spacing" textLength="131.5918" x="1726.11" y="184.1826">str insertion_prefix</text><text fill="#000000" font-family="sans-serif" font-size="14" lengthAdjust="spacing" textLength="245.752" x="1726.11" y="200.4795">float | None detector_distance_mm</text><line style="stroke:#181818;stroke-width:0.5;" x1="1721.11" x2="1990.8961" y1="207.7813" y2="207.7813"/></g><!--class WithOptionalEnergyChange--><g class="entity" data-entity="WithOptionalEnergyChange" data-source-line="15" data-uid="ent0004" id="entity_WithOptionalEnergyChange"><rect fill="#F1F1F1" height="64.2969" rx="2.5" ry="2.5" style="stroke:#181818;stroke-width:0.5;" width="235.4463" x="2680.28" y="118.8869"/><ellipse cx="2699.4645" cy="134.8869" fill="#ADD1B2" rx="11" ry="11" style="stroke:#181818;stroke-width:1;"/><path d="M2702.4332,140.5275 Q2701.8551,140.8244 2701.2145,140.965 Q2700.5738,141.1213 2699.8707,141.1213 Q2697.3707,141.1213 2696.0426,139.4806 Q2694.7301,137.8244 2694.7301,134.6994 Q2694.7301,131.5744 2696.0426,129.9181 Q2697.3707,128.2619 2699.8707,128.2619 Q2700.5738,128.2619 2701.2145,128.4181 Q2701.8707,128.5744 2702.4332,128.8713 L2702.4332,131.59 Q2701.8082,131.0119 2701.2145,130.7463 Q2700.6207,130.465 2699.9957,130.465 Q2698.652,130.465 2697.9645,131.5431 Q2697.277,132.6056 2697.277,134.6994 Q2697.277,136.7931 2697.9645,137.8713 Q2698.652,138.9338 2699.9957,138.9338 Q2700.6207,138.9338 2701.2145,138.6681 Q2701.8082,138.3869 2702.4332,137.8088 L2702.4332,140.5275 Z " fill="#000000"/><text fill="#000000" font-family="sans-serif" font-size="14" lengthAdjust="spacing" textLength="194.1475" x="2714.3944" y="139.7336">WithOptionalEnergyChange</text><line style="stroke:#181818;stroke-width:0.5;" x1="2681.28" x2="2914.7263" y1="150.8869" y2="150.8869"/><text fill="#000000" font-family="sans-serif" font-size="14" lengthAdjust="spacing" textLength="223.4463" x="2686.28" y="167.882">float | None demand_energy_ev</text><line style="stroke:#181818;stroke-width:0.5;" x1="2681.28" x2="2914.7263" y1="175.1838" y2="175.1838"/></g><!--class WithSample--><g class="entity" data-entity="WithSample" data-source-line="18" data-uid="ent0005" id="entity_WithSample"><rect fill="#F1F1F1" height="96.8906" rx="2.5" ry="2.5" style="stroke:#181818;stroke-width:0.5;" width="176.3086" x="1233.85" y="102.5869"/><ellipse cx="1275.7243" cy="118.5869" fill="#ADD1B2" rx="11" ry="11" style="stroke:#181818;stroke-width:1;"/><path d="M1278.6931,124.2275 Q1278.1149,124.5244 1277.4743,124.665 Q1276.8337,124.8213 1276.1306,124.8213 Q1273.6306,124.8213 1272.3024,123.1806 Q1270.9899,121.5244 1270.9899,118.3994 Q1270.9899,115.2744 1272.3024,113.6181 Q1273.6306,111.9619 1276.1306,111.9619 Q1276.8337,111.9619 1277.4743,112.1181 Q1278.1306,112.2744 1278.6931,112.5713 L1278.6931,115.29 Q1278.0681,114.7119 1277.4743,114.4463 Q1276.8806,114.165 1276.2556,114.165 Q1274.9118,114.165 1274.2243,115.2431 Q1273.5368,116.3056 1273.5368,118.3994 Q1273.5368,120.4931 1274.2243,121.5713 Q1274.9118,122.6338 1276.2556,122.6338 Q1276.8806,122.6338 1277.4743,122.3681 Q1278.0681,122.0869 1278.6931,121.5088 L1278.6931,124.2275 Z " fill="#000000"/><text fill="#000000" font-family="sans-serif" font-size="14" lengthAdjust="spacing" textLength="84.5879" x="1295.6964" y="123.4336">WithSample</text><line style="stroke:#181818;stroke-width:0.5;" x1="1234.85" x2="1409.1586" y1="134.5869" y2="134.5869"/><text fill="#000000" font-family="sans-serif" font-size="14" lengthAdjust="spacing" textLength="93.3789" x="1239.85" y="151.582">int sample_id</text><text fill="#000000" font-family="sans-serif" font-size="14" lengthAdjust="spacing" textLength="164.3086" x="1239.85" y="167.8789">int | None sample_puck</text><text fill="#000000" font-family="sans-serif" font-size="14" lengthAdjust="spacing" textLength="152.3936" x="1239.85" y="184.1757">int | None sample_pin</text><line style="stroke:#181818;stroke-width:0.5;" x1="1234.85" x2="1409.1586" y1="191.4775" y2="191.4775"/></g><!--class WithPandaGridScan--><g class="entity" data-entity="WithPandaGridScan" data-source-line="23" data-uid="ent0006" id="entity_WithPandaGridScan"><rect fill="#F1F1F1" height="64.2969" rx="2.5" ry="2.5" style="stroke:#181818;stroke-width:0.5;" width="240.5664" x="1444.72" y="118.8869"/><ellipse cx="1491.3172" cy="134.8869" fill="#ADD1B2" rx="11" ry="11" style="stroke:#181818;stroke-width:1;"/><path d="M1494.2859,140.5275 Q1493.7078,140.8244 1493.0672,140.965 Q1492.4265,141.1213 1491.7234,141.1213 Q1489.2234,141.1213 1487.8953,139.4806 Q1486.5828,137.8244 1486.5828,134.6994 Q1486.5828,131.5744 1487.8953,129.9181 Q1489.2234,128.2619 1491.7234,128.2619 Q1492.4265,128.2619 1493.0672,128.4181 Q1493.7234,128.5744 1494.2859,128.8713 L1494.2859,131.59 Q1493.6609,131.0119 1493.0672,130.7463 Q1492.4734,130.465 1491.8484,130.465 Q1490.5047,130.465 1489.8172,131.5431 Q1489.1297,132.6056 1489.1297,134.6994 Q1489.1297,136.7931 1489.8172,137.8713 Q1490.5047,138.9338 1491.8484,138.9338 Q1492.4734,138.9338 1493.0672,138.6681 Q1493.6609,138.3869 1494.2859,137.8088 L1494.2859,140.5275 Z " fill="#000000"/><text fill="#000000" font-family="sans-serif" font-size="14" lengthAdjust="spacing" textLength="138.8721" x="1511.8172" y="139.7336">WithPandaGridScan</text><line style="stroke:#181818;stroke-width:0.5;" x1="1445.72" x2="1684.2864" y1="150.8869" y2="150.8869"/><text fill="#000000" font-family="sans-serif" font-size="14" lengthAdjust="spacing" textLength="228.5664" x="1450.72" y="167.882">float panda_runup_distance_mm</text><line style="stroke:#181818;stroke-width:0.5;" x1="1445.72" x2="1684.2864" y1="175.1838" y2="175.1838"/></g><!--class WithCentreSelection--><g class="entity" data-entity="WithCentreSelection" data-source-line="26" data-uid="ent0007" id="entity_WithCentreSelection"><rect fill="#F1F1F1" height="64.2969" rx="2.5" ry="2.5" style="stroke:#181818;stroke-width:0.5;" width="618.6689" x="2026.67" y="118.8869"/><ellipse cx="2259.8883" cy="134.8869" fill="#ADD1B2" rx="11" ry="11" style="stroke:#181818;stroke-width:1;"/><path d="M2262.857,140.5275 Q2262.2789,140.8244 2261.6383,140.965 Q2260.9976,141.1213 2260.2945,141.1213 Q2257.7945,141.1213 2256.4664,139.4806 Q2255.1539,137.8244 2255.1539,134.6994 Q2255.1539,131.5744 2256.4664,129.9181 Q2257.7945,128.2619 2260.2945,128.2619 Q2260.9976,128.2619 2261.6383,128.4181 Q2262.2945,128.5744 2262.857,128.8713 L2262.857,131.59 Q2262.232,131.0119 2261.6383,130.7463 Q2261.0445,130.465 2260.4195,130.465 Q2259.0758,130.465 2258.3883,131.5431 Q2257.7008,132.6056 2257.7008,134.6994 Q2257.7008,136.7931 2258.3883,137.8713 Q2259.0758,138.9338 2260.4195,138.9338 Q2261.0445,138.9338 2261.6383,138.6681 Q2262.232,138.3869 2262.857,137.8088 L2262.857,140.5275 Z " fill="#000000"/><text fill="#000000" font-family="sans-serif" font-size="14" lengthAdjust="spacing" textLength="143.7324" x="2280.3883" y="139.7336">WithCentreSelection</text><line style="stroke:#181818;stroke-width:0.5;" x1="2027.67" x2="2644.3389" y1="150.8869" y2="150.8869"/><text fill="#000000" font-family="sans-serif" font-size="14" lengthAdjust="spacing" textLength="606.6689" x="2032.67" y="167.882">TopNByMaxCountSelection | TopNByMaxCountForEachSampleSelection select_centres</text><line style="stroke:#181818;stroke-width:0.5;" x1="2027.67" x2="2644.3389" y1="175.1838" y2="175.1838"/></g><!--class SplitScan--><g class="entity" data-entity="SplitScan" data-source-line="29" data-uid="ent0008" id="entity_SplitScan"><rect fill="#F1F1F1" height="48" rx="2.5" ry="2.5" style="stroke:#181818;stroke-width:0.5;" width="97.0781" x="3528.46" y="127.0369"/><ellipse cx="3543.46" cy="143.0369" fill="#ADD1B2" rx="11" ry="11" style="stroke:#181818;stroke-width:1;"/><path d="M3546.4288,148.6775 Q3545.8506,148.9744 3545.21,149.115 Q3544.5694,149.2713 3543.8663,149.2713 Q3541.3663,149.2713 3540.0381,147.6306 Q3538.7256,145.9744 3538.7256,142.8494 Q3538.7256,139.7244 3540.0381,138.0681 Q3541.3663,136.4119 3543.8663,136.4119 Q3544.5694,136.4119 3545.21,136.5681 Q3545.8663,136.7244 3546.4288,137.0213 L3546.4288,139.74 Q3545.8038,139.1619 3545.21,138.8963 Q3544.6163,138.615 3543.9913,138.615 Q3542.6475,138.615 3541.96,139.6931 Q3541.2725,140.7556 3541.2725,142.8494 Q3541.2725,144.9431 3541.96,146.0213 Q3542.6475,147.0838 3543.9913,147.0838 Q3544.6163,147.0838 3545.21,146.8181 Q3545.8038,146.5369 3546.4288,145.9588 L3546.4288,148.6775 Z " fill="#000000"/><text fill="#000000" font-family="sans-serif" font-size="14" lengthAdjust="spacing" textLength="65.0781" x="3557.46" y="147.8836">SplitScan</text><line style="stroke:#181818;stroke-width:0.5;" x1="3529.46" x2="3624.5381" y1="159.0369" y2="159.0369"/><line style="stroke:#181818;stroke-width:0.5;" x1="3529.46" x2="3624.5381" y1="167.0369" y2="167.0369"/></g><!--class OptionalGonioAngleStarts--><g class="entity" data-entity="OptionalGonioAngleStarts" data-source-line="31" data-uid="ent0009" id="entity_OptionalGonioAngleStarts"><rect fill="#F1F1F1" height="113.1875" rx="2.5" ry="2.5" style="stroke:#181818;stroke-width:0.5;" width="219.3203" x="3274.34" y="94.4469"/><ellipse cx="3292.0633" cy="110.4469" fill="#ADD1B2" rx="11" ry="11" style="stroke:#181818;stroke-width:1;"/><path d="M3295.032,116.0875 Q3294.4539,116.3844 3293.8133,116.525 Q3293.1727,116.6813 3292.4695,116.6813 Q3289.9695,116.6813 3288.6414,115.0406 Q3287.3289,113.3844 3287.3289,110.2594 Q3287.3289,107.1344 3288.6414,105.4781 Q3289.9695,103.8219 3292.4695,103.8219 Q3293.1727,103.8219 3293.8133,103.9781 Q3294.4695,104.1344 3295.032,104.4313 L3295.032,107.15 Q3294.407,106.5719 3293.8133,106.3063 Q3293.2195,106.025 3292.5945,106.025 Q3291.2508,106.025 3290.5633,107.1031 Q3289.8758,108.1656 3289.8758,110.2594 Q3289.8758,112.3531 3290.5633,113.4313 Q3291.2508,114.4938 3292.5945,114.4938 Q3293.2195,114.4938 3293.8133,114.2281 Q3294.407,113.9469 3295.032,113.3688 L3295.032,116.0875 Z " fill="#000000"/><text fill="#000000" font-family="sans-serif" font-size="14" lengthAdjust="spacing" textLength="181.2686" x="3306.6685" y="115.2936">OptionalGonioAngleStarts</text><line style="stroke:#181818;stroke-width:0.5;" x1="3275.34" x2="3492.6603" y1="126.4469" y2="126.4469"/><text fill="#000000" font-family="sans-serif" font-size="14" lengthAdjust="spacing" textLength="207.3203" x="3280.34" y="143.442">float | None omega_start_deg</text><text fill="#000000" font-family="sans-serif" font-size="14" lengthAdjust="spacing" textLength="180.6875" x="3280.34" y="159.7389">float | None phi_start_deg</text><text fill="#000000" font-family="sans-serif" font-size="14" lengthAdjust="spacing" textLength="179.498" x="3280.34" y="176.0357">float | None chi_start_deg</text><text fill="#000000" font-family="sans-serif" font-size="14" lengthAdjust="spacing" textLength="202.0771" x="3280.34" y="192.3326">float | None kappa_start_deg</text><line style="stroke:#181818;stroke-width:0.5;" x1="3275.34" x2="3492.6603" y1="199.6344" y2="199.6344"/></g><!--class WithSnapshot--><g class="entity" data-entity="WithSnapshot" data-source-line="37" data-uid="ent0010" id="entity_WithSnapshot"><rect fill="#F1F1F1" height="96.8906" rx="2.5" ry="2.5" style="stroke:#181818;stroke-width:0.5;" width="289.3477" x="2950.33" y="102.5869"/><ellipse cx="3041.9828" cy="118.5869" fill="#ADD1B2" rx="11" ry="11" style="stroke:#181818;stroke-width:1;"/><path d="M3044.9516,124.2275 Q3044.3735,124.5244 3043.7328,124.665 Q3043.0922,124.8213 3042.3891,124.8213 Q3039.8891,124.8213 3038.561,123.1806 Q3037.2485,121.5244 3037.2485,118.3994 Q3037.2485,115.2744 3038.561,113.6181 Q3039.8891,111.9619 3042.3891,111.9619 Q3043.0922,111.9619 3043.7328,112.1181 Q3044.3891,112.2744 3044.9516,112.5713 L3044.9516,115.29 Q3044.3266,114.7119 3043.7328,114.4463 Q3043.1391,114.165 3042.5141,114.165 Q3041.1703,114.165 3040.4828,115.2431 Q3039.7953,116.3056 3039.7953,118.3994 Q3039.7953,120.4931 3040.4828,121.5713 Q3041.1703,122.6338 3042.5141,122.6338 Q3043.1391,122.6338 3043.7328,122.3681 Q3044.3266,122.0869 3044.9516,121.5088 L3044.9516,124.2275 Z " fill="#000000"/><text fill="#000000" font-family="sans-serif" font-size="14" lengthAdjust="spacing" textLength="97.542" x="3062.4828" y="123.4336">WithSnapshot</text><line style="stroke:#181818;stroke-width:0.5;" x1="2951.33" x2="3238.6777" y1="134.5869" y2="134.5869"/><text fill="#000000" font-family="sans-serif" font-size="14" lengthAdjust="spacing" textLength="169.627" x="2956.33" y="151.582">Path snapshot_directory</text><text fill="#000000" font-family="sans-serif" font-size="14" lengthAdjust="spacing" textLength="277.3477" x="2956.33" y="167.8789">list[float] | None snapshot_omegas_deg</text><text fill="#000000" font-family="sans-serif" font-size="14" lengthAdjust="spacing" textLength="171.7051" x="2956.33" y="184.1757">bool use_grid_snapshots</text><line style="stroke:#181818;stroke-width:0.5;" x1="2951.33" x2="3238.6777" y1="191.4775" y2="191.4775"/></g><!--class DiffractionExperimentWithSample--><g class="entity" data-entity="DiffractionExperimentWithSample" data-source-line="44" data-uid="ent0011" id="entity_DiffractionExperimentWithSample"><rect fill="#F1F1F1" height="48" rx="2.5" ry="2.5" style="stroke:#181818;stroke-width:0.5;" width="270.8545" x="3680.57" y="546.7469"/><ellipse cx="3695.57" cy="562.7469" fill="#ADD1B2" rx="11" ry="11" style="stroke:#181818;stroke-width:1;"/><path d="M3698.5388,568.3875 Q3697.9606,568.6844 3697.32,568.825 Q3696.6794,568.9813 3695.9763,568.9813 Q3693.4763,568.9813 3692.1481,567.3406 Q3690.8356,565.6844 3690.8356,562.5594 Q3690.8356,559.4344 3692.1481,557.7781 Q3693.4763,556.1219 3695.9763,556.1219 Q3696.6794,556.1219 3697.32,556.2781 Q3697.9763,556.4344 3698.5388,556.7313 L3698.5388,559.45 Q3697.9138,558.8719 3697.32,558.6063 Q3696.7263,558.325 3696.1013,558.325 Q3694.7575,558.325 3694.07,559.4031 Q3693.3825,560.4656 3693.3825,562.5594 Q3693.3825,564.6531 3694.07,565.7313 Q3694.7575,566.7938 3696.1013,566.7938 Q3696.7263,566.7938 3697.32,566.5281 Q3697.9138,566.2469 3698.5388,565.6688 L3698.5388,568.3875 Z " fill="#000000"/><text fill="#000000" font-family="sans-serif" font-size="14" lengthAdjust="spacing" textLength="238.8545" x="3709.57" y="567.5936">DiffractionExperimentWithSample</text><line style="stroke:#181818;stroke-width:0.5;" x1="3681.57" x2="3950.4245" y1="578.7469" y2="578.7469"/><line style="stroke:#181818;stroke-width:0.5;" x1="3681.57" x2="3950.4245" y1="586.7469" y2="586.7469"/></g><!--class DiffractionExperiment--><g class="entity" data-entity="DiffractionExperiment" data-source-line="46" data-uid="ent0012" id="entity_DiffractionExperiment"><rect fill="#F1F1F1" height="210.9688" rx="2.5" ry="2.5" style="stroke:#181818;stroke-width:0.5;" width="332.332" x="3649.83" y="275.7769"/><ellipse cx="3734.6127" cy="291.7769" fill="#ADD1B2" rx="11" ry="11" style="stroke:#181818;stroke-width:1;"/><path d="M3737.5815,297.4175 Q3737.0033,297.7144 3736.3627,297.855 Q3735.7221,298.0113 3735.019,298.0113 Q3732.519,298.0113 3731.1908,296.3706 Q3729.8783,294.7144 3729.8783,291.5894 Q3729.8783,288.4644 3731.1908,286.8081 Q3732.519,285.1519 3735.019,285.1519 Q3735.7221,285.1519 3736.3627,285.3081 Q3737.019,285.4644 3737.5815,285.7613 L3737.5815,288.48 Q3736.9565,287.9019 3736.3627,287.6363 Q3735.769,287.355 3735.144,287.355 Q3733.8002,287.355 3733.1127,288.4331 Q3732.4252,289.4956 3732.4252,291.5894 Q3732.4252,293.6831 3733.1127,294.7613 Q3733.8002,295.8238 3735.144,295.8238 Q3735.769,295.8238 3736.3627,295.5581 Q3736.9565,295.2769 3737.5815,294.6988 L3737.5815,297.4175 Z " fill="#000000"/><text fill="#000000" font-family="sans-serif" font-size="14" lengthAdjust="spacing" textLength="154.2666" x="3755.1127" y="296.6236">DiffractionExperiment</text><line style="stroke:#181818;stroke-width:0.5;" x1="3650.83" x2="3981.162" y1="307.7769" y2="307.7769"/><text fill="#000000" font-family="sans-serif" font-size="14" lengthAdjust="spacing" textLength="91.0137" x="3655.83" y="324.772">str file_name</text><text fill="#000000" font-family="sans-serif" font-size="14" lengthAdjust="spacing" textLength="153.7129" x="3655.83" y="341.0689">float exposure_time_s</text><text fill="#000000" font-family="sans-serif" font-size="14" lengthAdjust="spacing" textLength="89.5029" x="3655.83" y="357.3657">str comment</text><text fill="#000000" font-family="sans-serif" font-size="14" lengthAdjust="spacing" textLength="186.915" x="3655.83" y="373.6626">TriggerMode trigger_mode</text><text fill="#000000" font-family="sans-serif" font-size="14" lengthAdjust="spacing" textLength="157.9854" x="3655.83" y="389.9595">int | None run_number</text><text fill="#000000" font-family="sans-serif" font-size="14" lengthAdjust="spacing" textLength="282.3516" x="3655.83" y="406.2564">ApertureValue | None selected_aperture</text><text fill="#000000" font-family="sans-serif" font-size="14" lengthAdjust="spacing" textLength="159.2979" x="3655.83" y="422.5532">float transmission_frac</text><text fill="#000000" font-family="sans-serif" font-size="14" lengthAdjust="spacing" textLength="320.332" x="3655.83" y="438.8501">IspybExperimentType ispyb_experiment_type</text><text fill="#000000" font-family="sans-serif" font-size="14" lengthAdjust="spacing" textLength="146.1113" x="3655.83" y="455.147">str storage_directory</text><text fill="#000000" font-family="sans-serif" font-size="14" lengthAdjust="spacing" textLength="131.0518" x="3655.83" y="471.4439">bool use_roi_mode</text><line style="stroke:#181818;stroke-width:0.5;" x1="3650.83" x2="3981.162" y1="478.7456" y2="478.7456"/></g><!--class MxBlueskyParameters--><g class="entity" data-entity="MxBlueskyParameters" data-source-line="58" data-uid="ent0013" id="entity_MxBlueskyParameters"><rect fill="#F1F1F1" height="64.2969" rx="2.5" ry="2.5" style="stroke:#181818;stroke-width:0.5;" width="317.4639" x="3662.27" y="118.8869"/><ellipse cx="3738.8564" cy="134.8869" fill="#ADD1B2" rx="11" ry="11" style="stroke:#181818;stroke-width:1;"/><path d="M3741.8252,140.5275 Q3741.2471,140.8244 3740.6064,140.965 Q3739.9658,141.1213 3739.2627,141.1213 Q3736.7627,141.1213 3735.4346,139.4806 Q3734.1221,137.8244 3734.1221,134.6994 Q3734.1221,131.5744 3735.4346,129.9181 Q3736.7627,128.2619 3739.2627,128.2619 Q3739.9658,128.2619 3740.6064,128.4181 Q3741.2627,128.5744 3741.8252,128.8713 L3741.8252,131.59 Q3741.2002,131.0119 3740.6064,130.7463 Q3740.0127,130.465 3739.3877,130.465 Q3738.0439,130.465 3737.3564,131.5431 Q3736.6689,132.6056 3736.6689,134.6994 Q3736.6689,136.7931 3737.3564,137.8713 Q3738.0439,138.9338 3739.3877,138.9338 Q3740.0127,138.9338 3740.6064,138.6681 Q3741.2002,138.3869 3741.8252,137.8088 L3741.8252,140.5275 Z " fill="#000000"/><text fill="#000000" font-family="sans-serif" font-size="14" lengthAdjust="spacing" textLength="155.791" x="3759.3564" y="139.7336">MxBlueskyParameters</text><line style="stroke:#181818;stroke-width:0.5;" x1="3663.27" x2="3978.7339" y1="150.8869" y2="150.8869"/><text fill="#000000" font-family="sans-serif" font-size="14" lengthAdjust="spacing" textLength="305.4639" x="3668.27" y="167.882">SemanticVersion parameter_model_version</text><line style="stroke:#181818;stroke-width:0.5;" x1="3663.27" x2="3978.7339" y1="175.1838" y2="175.1838"/></g><!--class GridCommon--><g class="entity" data-entity="GridCommon" data-source-line="61" data-uid="ent0014" id="entity_GridCommon"><rect fill="#F1F1F1" height="145.7813" rx="2.5" ry="2.5" style="stroke:#181818;stroke-width:0.5;" width="332.332" x="3649.83" y="654.7469"/><ellipse cx="3765.5282" cy="670.7469" fill="#ADD1B2" rx="11" ry="11" style="stroke:#181818;stroke-width:1;"/><path d="M3768.497,676.3875 Q3767.9189,676.6844 3767.2782,676.825 Q3766.6376,676.9813 3765.9345,676.9813 Q3763.4345,676.9813 3762.1064,675.3406 Q3760.7939,673.6844 3760.7939,670.5594 Q3760.7939,667.4344 3762.1064,665.7781 Q3763.4345,664.1219 3765.9345,664.1219 Q3766.6376,664.1219 3767.2782,664.2781 Q3767.9345,664.4344 3768.497,664.7313 L3768.497,667.45 Q3767.872,666.8719 3767.2782,666.6063 Q3766.6845,666.325 3766.0595,666.325 Q3764.7157,666.325 3764.0282,667.4031 Q3763.3407,668.4656 3763.3407,670.5594 Q3763.3407,672.6531 3764.0282,673.7313 Q3764.7157,674.7938 3766.0595,674.7938 Q3766.6845,674.7938 3767.2782,674.5281 Q3767.872,674.2469 3768.497,673.6688 L3768.497,676.3875 Z " fill="#000000"/><text fill="#000000" font-family="sans-serif" font-size="14" lengthAdjust="spacing" textLength="92.4355" x="3786.0282" y="675.5936">GridCommon</text><line style="stroke:#181818;stroke-width:0.5;" x1="3650.83" x2="3981.162" y1="686.7469" y2="686.7469"/><text fill="#000000" font-family="sans-serif" font-size="14" lengthAdjust="spacing" textLength="125.2959" x="3655.83" y="703.742">float box_size_um</text><text fill="#000000" font-family="sans-serif" font-size="14" lengthAdjust="spacing" textLength="138.4209" x="3655.83" y="720.0389">float grid_width_um</text><text fill="#000000" font-family="sans-serif" font-size="14" lengthAdjust="spacing" textLength="153.7129" x="3655.83" y="736.3357">float exposure_time_s</text><text fill="#000000" font-family="sans-serif" font-size="14" lengthAdjust="spacing" textLength="320.332" x="3655.83" y="752.6326">IspybExperimentType ispyb_experiment_type</text><text fill="#000000" font-family="sans-serif" font-size="14" lengthAdjust="spacing" textLength="282.3516" x="3655.83" y="768.9295">ApertureValue | None selected_aperture</text><text fill="#000000" font-family="sans-serif" font-size="14" lengthAdjust="spacing" textLength="130.498" x="3655.83" y="785.2264">float tip_offset_um</text><line style="stroke:#181818;stroke-width:0.5;" x1="3650.83" x2="3981.162" y1="792.5281" y2="792.5281"/></g><!--class RotationExperiment--><g class="entity" data-entity="RotationExperiment" data-source-line="72" data-uid="ent0016" id="entity_RotationExperiment"><rect fill="#F1F1F1" height="96.8906" rx="2.5" ry="2.5" style="stroke:#181818;stroke-width:0.5;" width="332.332" x="837.83" y="860.5269"/><ellipse cx="929.7118" cy="876.5269" fill="#ADD1B2" rx="11" ry="11" style="stroke:#181818;stroke-width:1;"/><path d="M932.6806,882.1675 Q932.1025,882.4644 931.4618,882.605 Q930.8212,882.7613 930.1181,882.7613 Q927.6181,882.7613 926.29,881.1206 Q924.9775,879.4644 924.9775,876.3394 Q924.9775,873.2144 926.29,871.5581 Q927.6181,869.9019 930.1181,869.9019 Q930.8212,869.9019 931.4618,870.0581 Q932.1181,870.2144 932.6806,870.5113 L932.6806,873.23 Q932.0556,872.6519 931.4618,872.3863 Q930.8681,872.105 930.2431,872.105 Q928.8993,872.105 928.2118,873.1831 Q927.5243,874.2456 927.5243,876.3394 Q927.5243,878.4331 928.2118,879.5113 Q928.8993,880.5738 930.2431,880.5738 Q930.8681,880.5738 931.4618,880.3081 Q932.0556,880.0269 932.6806,879.4488 L932.6806,882.1675 Z " fill="#000000"/><text fill="#000000" font-family="sans-serif" font-size="14" lengthAdjust="spacing" textLength="140.0684" x="950.2118" y="881.3736">RotationExperiment</text><line style="stroke:#181818;stroke-width:0.5;" x1="838.83" x2="1169.162" y1="892.5269" y2="892.5269"/><text fill="#000000" font-family="sans-serif" font-size="14" lengthAdjust="spacing" textLength="202.8018" x="843.83" y="909.522">float shutter_opening_time_s</text><text fill="#000000" font-family="sans-serif" font-size="14" lengthAdjust="spacing" textLength="202.9385" x="843.83" y="925.8189">float rotation_increment_deg</text><text fill="#000000" font-family="sans-serif" font-size="14" lengthAdjust="spacing" textLength="320.332" x="843.83" y="942.1157">IspybExperimentType ispyb_experiment_type</text><line style="stroke:#181818;stroke-width:0.5;" x1="838.83" x2="1169.162" y1="949.4175" y2="949.4175"/></g><!--class LoadCentreCollect--><g class="entity" data-entity="LoadCentreCollect" data-source-line="77" data-uid="ent0017" id="entity_LoadCentreCollect"><rect fill="#F1F1F1" height="80.5938" rx="2.5" ry="2.5" style="stroke:#181818;stroke-width:0.5;" width="338.6211" x="21.69" y="868.6769"/><ellipse cx="122.315" cy="884.6769" fill="#ADD1B2" rx="11" ry="11" style="stroke:#181818;stroke-width:1;"/><path d="M125.2838,890.3175 Q124.7056,890.6144 124.065,890.755 Q123.4244,890.9113 122.7213,890.9113 Q120.2213,890.9113 118.8931,889.2706 Q117.5806,887.6144 117.5806,884.4894 Q117.5806,881.3644 118.8931,879.7081 Q120.2213,878.0519 122.7213,878.0519 Q123.4244,878.0519 124.065,878.2081 Q124.7213,878.3644 125.2838,878.6613 L125.2838,881.38 Q124.6588,880.8019 124.065,880.5363 Q123.4713,880.255 122.8463,880.255 Q121.5025,880.255 120.815,881.3331 Q120.1275,882.3956 120.1275,884.4894 Q120.1275,886.5831 120.815,887.6613 Q121.5025,888.7238 122.8463,888.7238 Q123.4713,888.7238 124.065,888.4581 Q124.6588,888.1769 125.2838,887.5988 L125.2838,890.3175 Z " fill="#000000"/><text fill="#000000" font-family="sans-serif" font-size="14" lengthAdjust="spacing" textLength="128.8711" x="142.815" y="889.5236">LoadCentreCollect</text><line style="stroke:#181818;stroke-width:0.5;" x1="22.69" x2="359.3111" y1="900.6769" y2="900.6769"/><text fill="#000000" font-family="sans-serif" font-size="14" lengthAdjust="spacing" textLength="326.6211" x="27.69" y="917.672">RobotLoadThenCentre robot_load_then_centre</text><text fill="#000000" font-family="sans-serif" font-size="14" lengthAdjust="spacing" textLength="235.0947" x="27.69" y="933.9689">RotationScan multi_rotation_scan</text><line style="stroke:#181818;stroke-width:0.5;" x1="22.69" x2="359.3111" y1="941.2706" y2="941.2706"/></g><!--class GridCommonWithHyperionDetectorParams--><g class="entity" data-entity="GridCommonWithHyperionDetectorParams" data-source-line="81" data-uid="ent0018" id="entity_GridCommonWithHyperionDetectorParams"><rect fill="#F1F1F1" height="48" rx="2.5" ry="2.5" style="stroke:#181818;stroke-width:0.5;" width="333.2188" x="469.39" y="884.9769"/><ellipse cx="484.39" cy="900.9769" fill="#ADD1B2" rx="11" ry="11" style="stroke:#181818;stroke-width:1;"/><path d="M487.3588,906.6175 Q486.7806,906.9144 486.14,907.055 Q485.4994,907.2113 484.7963,907.2113 Q482.2963,907.2113 480.9681,905.5706 Q479.6556,903.9144 479.6556,900.7894 Q479.6556,897.6644 480.9681,896.0081 Q482.2963,894.3519 484.7963,894.3519 Q485.4994,894.3519 486.14,894.5081 Q486.7963,894.6644 487.3588,894.9613 L487.3588,897.68 Q486.7338,897.1019 486.14,896.8363 Q485.5463,896.555 484.9213,896.555 Q483.5775,896.555 482.89,897.6331 Q482.2025,898.6956 482.2025,900.7894 Q482.2025,902.8831 482.89,903.9613 Q483.5775,905.0238 484.9213,905.0238 Q485.5463,905.0238 486.14,904.7581 Q486.7338,904.4769 487.3588,903.8988 L487.3588,906.6175 Z " fill="#000000"/><text fill="#000000" font-family="sans-serif" font-size="14" lengthAdjust="spacing" textLength="301.2188" x="498.39" y="905.8236">GridCommonWithHyperionDetectorParams</text><line style="stroke:#181818;stroke-width:0.5;" x1="470.39" x2="801.6088" y1="916.9769" y2="916.9769"/><line style="stroke:#181818;stroke-width:0.5;" x1="470.39" x2="801.6088" y1="924.9769" y2="924.9769"/></g><!--class RotationScan--><g class="entity" data-entity="RotationScan" data-source-line="83" data-uid="ent0019" id="entity_RotationScan"><rect fill="#F1F1F1" height="64.2969" rx="2.5" ry="2.5" style="stroke:#181818;stroke-width:0.5;" width="540.001" x="630" y="1017.4169"/><ellipse cx="849.1431" cy="1033.4169" fill="#ADD1B2" rx="11" ry="11" style="stroke:#181818;stroke-width:1;"/><path d="M852.1118,1039.0575 Q851.5337,1039.3544 850.8931,1039.495 Q850.2524,1039.6513 849.5493,1039.6513 Q847.0493,1039.6513 845.7212,1038.0106 Q844.4087,1036.3544 844.4087,1033.2294 Q844.4087,1030.1044 845.7212,1028.4481 Q847.0493,1026.7919 849.5493,1026.7919 Q850.2524,1026.7919 850.8931,1026.9481 Q851.5493,1027.1044 852.1118,1027.4013 L852.1118,1030.12 Q851.4868,1029.5419 850.8931,1029.2763 Q850.2993,1028.995 849.6743,1028.995 Q848.3306,1028.995 847.6431,1030.0731 Q846.9556,1031.1356 846.9556,1033.2294 Q846.9556,1035.3231 847.6431,1036.4013 Q848.3306,1037.4638 849.6743,1037.4638 Q850.2993,1037.4638 850.8931,1037.1981 Q851.4868,1036.9169 852.1118,1036.3388 L852.1118,1039.0575 Z " fill="#000000"/><text fill="#000000" font-family="sans-serif" font-size="14" lengthAdjust="spacing" textLength="93.2148" x="869.6431" y="1038.2636">RotationScan</text><line style="stroke:#181818;stroke-width:0.5;" x1="631" x2="1169.001" y1="1049.4169" y2="1049.4169"/><line style="stroke:#181818;stroke-width:0.5;" x1="631" x2="1169.001" y1="1057.4169" y2="1057.4169"/><text fill="#000000" font-family="sans-serif" font-size="14" lengthAdjust="spacing" textLength="528.001" x="636" y="1074.412">Annotated[list[RotationScanPerSweep], Len(min_length=1)] rotation_scans</text></g><!--class GridScanWithEdgeDetect--><g class="entity" data-entity="GridScanWithEdgeDetect" data-source-line="86" data-uid="ent0020" id="entity_GridScanWithEdgeDetect"><rect fill="#F1F1F1" height="48" rx="2.5" ry="2.5" style="stroke:#181818;stroke-width:0.5;" width="209.4268" x="114.29" y="1025.5669"/><ellipse cx="129.29" cy="1041.5669" fill="#ADD1B2" rx="11" ry="11" style="stroke:#181818;stroke-width:1;"/><path d="M132.2588,1047.2075 Q131.6806,1047.5044 131.04,1047.645 Q130.3994,1047.8013 129.6963,1047.8013 Q127.1963,1047.8013 125.8681,1046.1606 Q124.5556,1044.5044 124.5556,1041.3794 Q124.5556,1038.2544 125.8681,1036.5981 Q127.1963,1034.9419 129.6963,1034.9419 Q130.3994,1034.9419 131.04,1035.0981 Q131.6963,1035.2544 132.2588,1035.5513 L132.2588,1038.27 Q131.6338,1037.6919 131.04,1037.4263 Q130.4463,1037.145 129.8213,1037.145 Q128.4775,1037.145 127.79,1038.2231 Q127.1025,1039.2856 127.1025,1041.3794 Q127.1025,1043.4731 127.79,1044.5513 Q128.4775,1045.6138 129.8213,1045.6138 Q130.4463,1045.6138 131.04,1045.3481 Q131.6338,1045.0669 132.2588,1044.4888 L132.2588,1047.2075 Z " fill="#000000"/><text fill="#000000" font-family="sans-serif" font-size="14" lengthAdjust="spacing" textLength="177.4268" x="143.29" y="1046.4136">GridScanWithEdgeDetect</text><line style="stroke:#181818;stroke-width:0.5;" x1="115.29" x2="322.7168" y1="1057.5669" y2="1057.5669"/><line style="stroke:#181818;stroke-width:0.5;" x1="115.29" x2="322.7168" y1="1065.5669" y2="1065.5669"/></g><!--class PinTipCentreThenXrayCentre--><g class="entity" data-entity="PinTipCentreThenXrayCentre" data-source-line="88" data-uid="ent0021" id="entity_PinTipCentreThenXrayCentre"><rect fill="#F1F1F1" height="64.2969" rx="2.5" ry="2.5" style="stroke:#181818;stroke-width:0.5;" width="235.8955" x="359.05" y="1017.4169"/><ellipse cx="374.05" cy="1033.4169" fill="#ADD1B2" rx="11" ry="11" style="stroke:#181818;stroke-width:1;"/><path d="M377.0188,1039.0575 Q376.4406,1039.3544 375.8,1039.495 Q375.1594,1039.6513 374.4563,1039.6513 Q371.9563,1039.6513 370.6281,1038.0106 Q369.3156,1036.3544 369.3156,1033.2294 Q369.3156,1030.1044 370.6281,1028.4481 Q371.9563,1026.7919 374.4563,1026.7919 Q375.1594,1026.7919 375.8,1026.9481 Q376.4563,1027.1044 377.0188,1027.4013 L377.0188,1030.12 Q376.3938,1029.5419 375.8,1029.2763 Q375.2063,1028.995 374.5813,1028.995 Q373.2375,1028.995 372.55,1030.0731 Q371.8625,1031.1356 371.8625,1033.2294 Q371.8625,1035.3231 372.55,1036.4013 Q373.2375,1037.4638 374.5813,1037.4638 Q375.2063,1037.4638 375.8,1037.1981 Q376.3938,1036.9169 377.0188,1036.3388 L377.0188,1039.0575 Z " fill="#000000"/><text fill="#000000" font-family="sans-serif" font-size="14" lengthAdjust="spacing" textLength="203.8955" x="388.05" y="1038.2636">PinTipCentreThenXrayCentre</text><line style="stroke:#181818;stroke-width:0.5;" x1="360.05" x2="593.9455" y1="1049.4169" y2="1049.4169"/><text fill="#000000" font-family="sans-serif" font-size="14" lengthAdjust="spacing" textLength="130.498" x="365.05" y="1066.412">float tip_offset_um</text><line style="stroke:#181818;stroke-width:0.5;" x1="360.05" x2="593.9455" y1="1073.7138" y2="1073.7138"/></g><!--class WithHyperionUDCFeatures--><g class="entity" data-entity="WithHyperionUDCFeatures" data-source-line="91" data-uid="ent0022" id="entity_WithHyperionUDCFeatures"><rect fill="#F1F1F1" height="64.2969" rx="2.5" ry="2.5" style="stroke:#181818;stroke-width:0.5;" width="228.6719" x="453.66" y="695.4869"/><ellipse cx="472.7583" cy="711.4869" fill="#ADD1B2" rx="11" ry="11" style="stroke:#181818;stroke-width:1;"/><path d="M475.7271,717.1275 Q475.149,717.4244 474.5083,717.565 Q473.8677,717.7213 473.1646,717.7213 Q470.6646,717.7213 469.3365,716.0806 Q468.024,714.4244 468.024,711.2994 Q468.024,708.1744 469.3365,706.5181 Q470.6646,704.8619 473.1646,704.8619 Q473.8677,704.8619 474.5083,705.0181 Q475.1646,705.1744 475.7271,705.4713 L475.7271,708.19 Q475.1021,707.6119 474.5083,707.3463 Q473.9146,707.065 473.2896,707.065 Q471.9458,707.065 471.2583,708.1431 Q470.5708,709.2056 470.5708,711.2994 Q470.5708,713.3931 471.2583,714.4713 Q471.9458,715.5338 473.2896,715.5338 Q473.9146,715.5338 474.5083,715.2681 Q475.1021,714.9869 475.7271,714.4088 L475.7271,717.1275 Z " fill="#000000"/><text fill="#000000" font-family="sans-serif" font-size="14" lengthAdjust="spacing" textLength="187.5645" x="487.6691" y="716.3336">WithHyperionUDCFeatures</text><line style="stroke:#181818;stroke-width:0.5;" x1="454.66" x2="681.3319" y1="727.4869" y2="727.4869"/><text fill="#000000" font-family="sans-serif" font-size="14" lengthAdjust="spacing" textLength="216.6719" x="459.66" y="744.482">HyperionFeatureFlags features</text><line style="stroke:#181818;stroke-width:0.5;" x1="454.66" x2="681.3319" y1="751.7838" y2="751.7838"/></g><!--reverse link DiffractionExperimentWithSample to GridCommon--><g class="link" data-entity-1="DiffractionExperimentWithSample" data-entity-2="GridCommon" data-source-line="95" data-uid="lnk23" id="link_DiffractionExperimentWithSample_GridCommon"><path codeLine="95" d="M3816,612.9369 C3816,628.8869 3816,633.0069 3816,654.5669" fill="none" id="DiffractionExperimentWithSample-backto-GridCommon" style="stroke:#181818;stroke-width:1;"/><polygon fill="none" points="3816,594.9369,3810,612.9369,3822,612.9369,3816,594.9369" style="stroke:#181818;stroke-width:1;"/></g><!--reverse link OptionalGonioAngleStarts to GridCommon--><g class="link" data-entity-1="OptionalGonioAngleStarts" data-entity-2="GridCommon" data-source-line="96" data-uid="lnk24" id="link_OptionalGonioAngleStarts_GridCommon"><path codeLine="96" d="M3488.9816,216.0113 C3501.4616,222.1113 3498.22,219.6869 3511,223.7769 C3615.07,257.1269 3926.93,194.5269 4000,275.7769 C4047.62,328.7369 4007.4,534.7669 3969,594.7469 C3955.01,616.6069 3936.32,636.8469 3916.82,654.5769" fill="none" id="OptionalGonioAngleStarts-backto-GridCommon" style="stroke:#181818;stroke-width:1;"/><polygon fill="none" points="3472.81,208.1069,3486.3468,221.4018,3491.6164,210.6207,3472.81,208.1069" style="stroke:#181818;stroke-width:1;"/></g><!--reverse link DiffractionExperiment to RotationExperiment--><g class="link" data-entity-1="DiffractionExperiment" data-entity-2="RotationExperiment" data-source-line="97" data-uid="lnk25" id="link_DiffractionExperiment_RotationExperiment"><path codeLine="97" d="M3631.9248,424.9177 C3265.2548,508.9477 2377.3,706.8569 1611,832.5269 C1462.59,856.8669 1292.61,877.3669 1170.35,890.8269" fill="none" id="DiffractionExperiment-backto-RotationExperiment" style="stroke:#181818;stroke-width:1;"/><polygon fill="none" points="3649.47,420.8969,3630.5846,419.0693,3633.2651,430.7661,3649.47,420.8969" style="stroke:#181818;stroke-width:1;"/></g><!--reverse link WithHyperionUDCFeatures to RotationExperiment--><g class="link" data-entity-1="WithHyperionUDCFeatures" data-entity-2="RotationExperiment" data-source-line="98" data-uid="lnk26" id="link_WithHyperionUDCFeatures_RotationExperiment"><path codeLine="98" d="M661.3369,767.0339 C728.5369,794.6739 810.56,828.4069 887.5,860.0569" fill="none" id="WithHyperionUDCFeatures-backto-RotationExperiment" style="stroke:#181818;stroke-width:1;"/><polygon fill="none" points="644.69,760.1869,659.0545,772.5828,663.6192,761.4849,644.69,760.1869" style="stroke:#181818;stroke-width:1;"/></g><!--reverse link MxBlueskyParameters to LoadCentreCollect--><g class="link" data-entity-1="MxBlueskyParameters" data-entity-2="LoadCentreCollect" data-source-line="99" data-uid="lnk27" id="link_MxBlueskyParameters_LoadCentreCollect"><path codeLine="99" d="M3986.2579,189.8228 C4035.7379,208.1628 4068.77,230.7069 4098,275.7769 C4234.71,486.5769 4199.82,680.2269 4000,832.5269 C3960.81,862.3969 501.06,855.9069 452,860.5269 C422.31,863.3269 390.94,867.7369 360.64,872.7769" fill="none" id="MxBlueskyParameters-backto-LoadCentreCollect" style="stroke:#181818;stroke-width:1;"/><polygon fill="none" points="3969.38,183.5669,3984.1726,195.4487,3988.3432,184.1968,3969.38,183.5669" style="stroke:#181818;stroke-width:1;"/></g><!--reverse link WithVisit to LoadCentreCollect--><g class="link" data-entity-1="WithVisit" data-entity-2="LoadCentreCollect" data-source-line="100" data-uid="lnk28" id="link_WithVisit_LoadCentreCollect"><path codeLine="100" d="M1704.6389,223.2754 C1698.5089,225.8754 1708.99,221.3669 1703,223.7769 C1151.46,445.5869 895.76,275.6369 436,652.4869 C364.53,711.0669 398.4,768.2569 332,832.5269 C317.84,846.2369 300.68,858.1469 283.29,868.1969" fill="none" id="WithVisit-backto-LoadCentreCollect" style="stroke:#181818;stroke-width:1;"/><polygon fill="none" points="1721.21,216.2469,1702.2961,217.7517,1706.9818,228.7991,1721.21,216.2469" style="stroke:#181818;stroke-width:1;"/></g><!--reverse link WithSample to LoadCentreCollect--><g class="link" data-entity-1="WithSample" data-entity-2="LoadCentreCollect" data-source-line="101" data-uid="lnk29" id="link_WithSample_LoadCentreCollect"><path codeLine="101" d="M1216.3933,187.1323 C1036.9733,249.6823 642.08,405.5069 375,652.4869 C304.17,717.9869 243.54,814.6169 212.72,868.3169" fill="none" id="WithSample-backto-LoadCentreCollect" style="stroke:#181818;stroke-width:1;"/><polygon fill="none" points="1233.39,181.2069,1214.4181,181.4668,1218.3684,192.7979,1233.39,181.2069" style="stroke:#181818;stroke-width:1;"/></g><!--reverse link WithCentreSelection to LoadCentreCollect--><g class="link" data-entity-1="WithCentreSelection" data-entity-2="LoadCentreCollect" data-source-line="102" data-uid="lnk30" id="link_WithCentreSelection_LoadCentreCollect"><path codeLine="102" d="M2261.685,191.9737 C2053.995,302.3437 1345.11,665.5369 700,832.5269 C592.62,860.3269 561.74,844.3769 452,860.5269 C422.38,864.8869 390.98,870.0969 360.61,875.4269" fill="none" id="WithCentreSelection-backto-LoadCentreCollect" style="stroke:#181818;stroke-width:1;"/><polygon fill="none" points="2277.58,183.5269,2258.8694,186.6754,2264.5006,197.2721,2277.58,183.5269" style="stroke:#181818;stroke-width:1;"/></g><!--reverse link WithHyperionUDCFeatures to LoadCentreCollect--><g class="link" data-entity-1="WithHyperionUDCFeatures" data-entity-2="LoadCentreCollect" data-source-line="103" data-uid="lnk31" id="link_WithHyperionUDCFeatures_LoadCentreCollect"><path codeLine="103" d="M518.3412,771.6872 C491.0612,794.3772 465.59,812.8169 427,832.5269 C399.99,846.3269 369.96,858.2369 340.62,868.2669" fill="none" id="WithHyperionUDCFeatures-backto-LoadCentreCollect" style="stroke:#181818;stroke-width:1;"/><polygon fill="none" points="532.18,760.1769,514.5044,767.0743,522.178,776.3001,532.18,760.1769" style="stroke:#181818;stroke-width:1;"/></g><!--reverse link GridCommon to GridCommonWithHyperionDetectorParams--><g class="link" data-entity-1="GridCommon" data-entity-2="GridCommonWithHyperionDetectorParams" data-source-line="104" data-uid="lnk32" id="link_GridCommon_GridCommonWithHyperionDetectorParams"><path codeLine="104" d="M3631.3931,738.0685 C3263.6031,756.7185 2372.52,801.1169 1611,832.5269 C1259.52,847.0269 1168.14,810.0969 820,860.5269 C783.92,865.7569 744.71,875.3069 711.79,884.4869" fill="none" id="GridCommon-backto-GridCommonWithHyperionDetectorParams" style="stroke:#181818;stroke-width:1;"/><polygon fill="none" points="3649.37,737.1569,3631.0892,732.0762,3631.697,744.0608,3649.37,737.1569" style="stroke:#181818;stroke-width:1;"/></g><!--reverse link WithHyperionUDCFeatures to GridCommonWithHyperionDetectorParams--><g class="link" data-entity-1="WithHyperionUDCFeatures" data-entity-2="GridCommonWithHyperionDetectorParams" data-source-line="105" data-uid="lnk33" id="link_WithHyperionUDCFeatures_GridCommonWithHyperionDetectorParams"><path codeLine="105" d="M586.2225,776.7073 C599.6925,812.2273 615,852.5969 627.11,884.5169" fill="none" id="WithHyperionUDCFeatures-backto-GridCommonWithHyperionDetectorParams" style="stroke:#181818;stroke-width:1;"/><polygon fill="none" points="579.84,759.8769,580.6123,778.8348,591.8326,774.5798,579.84,759.8769" style="stroke:#181818;stroke-width:1;"/></g><!--reverse link MxBlueskyParameters to DiffractionExperiment--><g class="link" data-entity-1="MxBlueskyParameters" data-entity-2="DiffractionExperiment" data-source-line="106" data-uid="lnk34" id="link_MxBlueskyParameters_DiffractionExperiment"><path codeLine="106" d="M3819.9223,201.2925 C3819.3923,225.2725 3819.03,241.8669 3818.3,275.3869" fill="none" id="MxBlueskyParameters-backto-DiffractionExperiment" style="stroke:#181818;stroke-width:1;"/><polygon fill="none" points="3820.32,183.2969,3813.9237,201.1599,3825.9208,201.4251,3820.32,183.2969" style="stroke:#181818;stroke-width:1;"/></g><!--reverse link WithSnapshot to DiffractionExperiment--><g class="link" data-entity-1="WithSnapshot" data-entity-2="DiffractionExperiment" data-source-line="107" data-uid="lnk35" id="link_WithSnapshot_DiffractionExperiment"><path codeLine="107" d="M3213.4642,206.9517 C3233.1942,215.4417 3237.32,216.7069 3257,223.7769 C3386.7,270.3769 3537.34,311.8469 3649.54,340.3669" fill="none" id="WithSnapshot-backto-DiffractionExperiment" style="stroke:#181818;stroke-width:1;"/><polygon fill="none" points="3196.93,199.8369,3211.0926,212.4631,3215.8358,201.4403,3196.93,199.8369" style="stroke:#181818;stroke-width:1;"/></g><!--reverse link WithOptionalEnergyChange to DiffractionExperiment--><g class="link" data-entity-1="WithOptionalEnergyChange" data-entity-2="DiffractionExperiment" data-source-line="108" data-uid="lnk36" id="link_WithOptionalEnergyChange_DiffractionExperiment"><path codeLine="108" d="M2863.8056,192.5544 C2888.5156,206.7944 2903.64,213.6569 2933,223.7769 C3174.39,306.9869 3468.88,347.8069 3649.37,366.3969" fill="none" id="WithOptionalEnergyChange-backto-DiffractionExperiment" style="stroke:#181818;stroke-width:1;"/><polygon fill="none" points="2848.21,183.5669,2860.8098,197.753,2866.8015,187.3559,2848.21,183.5669" style="stroke:#181818;stroke-width:1;"/></g><!--reverse link WithVisit to DiffractionExperiment--><g class="link" data-entity-1="WithVisit" data-entity-2="DiffractionExperiment" data-source-line="109" data-uid="lnk37" id="link_WithVisit_DiffractionExperiment"><path codeLine="109" d="M2001.5781,222.1456 C2009.7281,225.0156 2000.93,221.6069 2009,223.7769 C2087.57,244.8869 3217.16,333.9169 3649.43,367.4269" fill="none" id="WithVisit-backto-DiffractionExperiment" style="stroke:#181818;stroke-width:1;"/><polygon fill="none" points="1984.6,216.1669,1999.5851,227.805,2003.571,216.4863,1984.6,216.1669" style="stroke:#181818;stroke-width:1;"/></g><!--reverse link RotationExperiment to RotationScan--><g class="link" data-entity-1="RotationExperiment" data-entity-2="RotationScan" data-source-line="110" data-uid="lnk38" id="link_RotationExperiment_RotationScan"><path codeLine="110" d="M957.4077,972.0651 C942.5977,991.8051 936.65,999.7269 923.45,1017.3169" fill="none" id="RotationExperiment-backto-RotationScan" style="stroke:#181818;stroke-width:1;"/><polygon fill="none" points="968.21,957.6669,952.6082,968.4643,962.2071,975.6659,968.21,957.6669" style="stroke:#181818;stroke-width:1;"/></g><!--reverse link SplitScan to RotationScan--><g class="link" data-entity-1="SplitScan" data-entity-2="RotationScan" data-source-line="111" data-uid="lnk39" id="link_SplitScan_RotationScan"><path codeLine="111" d="M3598.4168,190.8442 C3608.2268,207.2042 3614.36,212.6169 3634,223.7769 C3784.51,309.2869 3895.1,155.9169 4020,275.7769 C4115.73,367.6469 4072,437.0669 4072,569.7469 C4072,569.7469 4072,569.7469 4072,728.6369 C4072,785.3269 4047.45,804.8169 3998,832.5269 C3754.6,968.9169 1879.28,1025.9969 1170.3,1042.8469" fill="none" id="SplitScan-backto-RotationScan" style="stroke:#181818;stroke-width:1;"/><polygon fill="none" points="3589.16,175.4069,3593.271,193.9298,3603.5626,187.7587,3589.16,175.4069" style="stroke:#181818;stroke-width:1;"/></g><!--reverse link GridCommonWithHyperionDetectorParams to GridScanWithEdgeDetect--><g class="link" data-entity-1="GridCommonWithHyperionDetectorParams" data-entity-2="GridScanWithEdgeDetect" data-source-line="112" data-uid="lnk40" id="link_GridCommonWithHyperionDetectorParams_GridScanWithEdgeDetect"><path codeLine="112" d="M548.649,939.005 C471.819,964.545 366.5,999.5469 289.55,1025.1169" fill="none" id="GridCommonWithHyperionDetectorParams-backto-GridScanWithEdgeDetect" style="stroke:#181818;stroke-width:1;"/><polygon fill="none" points="565.73,933.3269,546.7563,933.3113,550.5417,944.6986,565.73,933.3269" style="stroke:#181818;stroke-width:1;"/></g><!--reverse link WithHyperionUDCFeatures to GridScanWithEdgeDetect--><g class="link" data-entity-1="WithHyperionUDCFeatures" data-entity-2="GridScanWithEdgeDetect" data-source-line="113" data-uid="lnk41" id="link_WithHyperionUDCFeatures_GridScanWithEdgeDetect"><path codeLine="113" d="M518.635,772.2192 C490.625,797.6992 465.1,823.2369 436,860.5269 C405.13,900.0969 413.82,922.2669 378,957.4169 C348.48,986.3869 307.94,1009.4469 275.18,1025.1169" fill="none" id="WithHyperionUDCFeatures-backto-GridScanWithEdgeDetect" style="stroke:#181818;stroke-width:1;"/><polygon fill="none" points="531.95,760.1069,514.5975,767.7809,522.6724,776.6576,531.95,760.1069" style="stroke:#181818;stroke-width:1;"/></g><!--reverse link GridCommonWithHyperionDetectorParams to PinTipCentreThenXrayCentre--><g class="link" data-entity-1="GridCommonWithHyperionDetectorParams" data-entity-2="PinTipCentreThenXrayCentre" data-source-line="114" data-uid="lnk42" id="link_GridCommonWithHyperionDetectorParams_PinTipCentreThenXrayCentre"><path codeLine="114" d="M595.8191,945.0019 C569.4691,967.9619 542.52,991.4569 513.24,1016.9769" fill="none" id="GridCommonWithHyperionDetectorParams-backto-PinTipCentreThenXrayCentre" style="stroke:#181818;stroke-width:1;"/><polygon fill="none" points="609.39,933.1769,591.8774,940.4782,599.7607,949.5255,609.39,933.1769" style="stroke:#181818;stroke-width:1;"/></g><!--reverse link WithHyperionUDCFeatures to PinTipCentreThenXrayCentre--><g class="link" data-entity-1="WithHyperionUDCFeatures" data-entity-2="PinTipCentreThenXrayCentre" data-source-line="115" data-uid="lnk43" id="link_WithHyperionUDCFeatures_PinTipCentreThenXrayCentre"><path codeLine="115" d="M514.5388,772.1779 C487.3688,796.3379 467.17,820.2969 452,860.5269 C432.18,913.0669 449.85,979.0369 463.87,1017.2369" fill="none" id="WithHyperionUDCFeatures-backto-PinTipCentreThenXrayCentre" style="stroke:#181818;stroke-width:1;"/><polygon fill="none" points="527.99,760.2169,510.5518,767.6942,518.5258,776.6616,527.99,760.2169" style="stroke:#181818;stroke-width:1;"/></g><!--reverse link DiffractionExperiment to DiffractionExperimentWithSample--><g class="link" data-entity-1="DiffractionExperiment" data-entity-2="DiffractionExperimentWithSample" data-source-line="116" data-uid="lnk44" id="link_DiffractionExperiment_DiffractionExperimentWithSample"><path codeLine="116" d="M3816,505.2469 C3816,527.4969 3816,530.8969 3816,546.3269" fill="none" id="DiffractionExperiment-backto-DiffractionExperimentWithSample" style="stroke:#181818;stroke-width:1;"/><polygon fill="none" points="3816,487.2469,3810,505.2469,3822,505.2469,3816,487.2469" style="stroke:#181818;stroke-width:1;"/></g><!--reverse link WithSample to DiffractionExperimentWithSample--><g class="link" data-entity-1="WithSample" data-entity-2="DiffractionExperimentWithSample" data-source-line="117" data-uid="lnk45" id="link_WithSample_DiffractionExperimentWithSample"><path codeLine="117" d="M1397.1622,209.7675 C1411.2222,218.9875 1411.57,217.7669 1427,223.7769 C1845.54,386.8969 3238.38,519.4269 3680.25,558.2169" fill="none" id="WithSample-backto-DiffractionExperimentWithSample" style="stroke:#181818;stroke-width:1;"/><polygon fill="none" points="1382.11,199.8969,1393.872,214.785,1400.4525,204.7501,1382.11,199.8969" style="stroke:#181818;stroke-width:1;"/></g><!--reverse link WithPandaGridScan to WithHyperionUDCFeatures--><g class="link" data-entity-1="WithPandaGridScan" data-entity-2="WithHyperionUDCFeatures" data-source-line="118" data-uid="lnk46" id="link_WithPandaGridScan_WithHyperionUDCFeatures"><path codeLine="118" d="M1494.7347,192.535 C1320.8247,292.765 797.17,594.5669 622.91,694.9869" fill="none" id="WithPandaGridScan-backto-WithHyperionUDCFeatures" style="stroke:#181818;stroke-width:1;"/><polygon fill="none" points="1510.33,183.5469,1491.7386,187.3365,1497.7307,197.7334,1510.33,183.5469" style="stroke:#181818;stroke-width:1;"/></g><!--SRC=[bLRVRzis47ws_Wg-RGEM07tV7b8dwGeqdL5xsO0Y86ZfB16XI8AaKcjk_lSUIKcM8ibsuGUBz_i-tdVIBvk2MxBZ0WZ-iygfgnma6EOW8zkQj0Ug1PEkAiMrhfF4SOSEVzKQ35UIh9XX9JWmv45b818BZaYKMCrIM8D6jLE6I2KXIL3sp78WvPvkHGNskRvELLagUQtRC9OS4gToS0M6F2IfODQIVxah7hdbxf0ih3Da2wmK72E6qulNnCSC7CsuTTGfweregkGB68nBDND5DEBIeWYBfzh0Zk-JnKueviXtyXchz34WnPf382PJe6MPlFOg-LjxPoRk49wyNXPCvd0O1IcPp2W44melWm1hLchXNRXqn8O3vLayDlwDL5VfywISoq745IPZ7mpFrYcJNItQIwcfPALdcrc2T0OlIc3Fs1NwRfJ-_Bv-OFkbggJhD5Z1K7Elp1rBcsQEPZOyqJJ4jLskjHRSnUfQKOlZ1oMvkf4vHd7CEFiMIrL2pgZrEff1_aQh2pwhIq_edfdM_QY32v9CsqBvSLlXs13Rd1554sQZJXO20VqQ8ZvrbzEQXOfjJBfLIf3A0itnUcXhue5v7G_wBT_j30j0tkqzmqg4iJyohwSC6tPuHbFFmRPZs6jbAmFKeHcrqSeJ3ttmlWtFSp2UliJ5PrhYOJ1tE4HKLkKMJBAumNmEmpqov73NUxXso2Xhj6roPvYq9RVM4yxNd2m-MbrlZsLlS9VW1a8PXKv87KfZfHO1nwtH1xy3rIWUYss1UTY_ZvkbMqn-djQUZewdZtZqGzgjc-0iw4kKTr4ybPPXCtN3k5LxQld_GAko5OKR_SOpL_I48x1_ejkVH9PhgdOxtBW-_MluJMpOebdLmnqR-_oY71lDK8nkYyfvW9G6oMNUjHErfd6aNAO6GWjXsYzljeNwas9PN49B9NodMC4NjLNEApO5oAZ4Z2YZc3oZI1dPB1Xl6olnkuMKbN2STiLPb4tSgITK-mAxRRPz61Tx95W_B5Pq8wKNGFOryBwlNO5PVmFGJx-JJo1_BRca0cJkYZ_V_VP41hNOGJ7UsPTob-KGopYcNt6vuJgsxa7upx0wdWvprtzSNsrl_zmkxu7vaV4SQAMDw5wm7D_-ZJuCpvdjG_xuVdNLWp6PM-0Zmyd0qMeyWSbC2xFs4vIFjgFHIheFYLC6_MwdBTwyD4-PpZOoDZy2zXR0-O4zdUEY2BFmJTvQqdy_dhER-b8wvzExdccZyGGC9yFJAka-DoPqbw1on6_CqlEOJ_XSddIU-gSJd_0xmRypd1yHuXBxmTTeT9kf_0S0]--></g></svg>