<svg xmlns="http://www.w3.org/2000/svg" xmlns:xlink="http://www.w3.org/1999/xlink" contentStyleType="text/css" data-diagram-type="CLASS" height="1202px" preserveAspectRatio="none" style="width:5037px;height:1202px;background:#FFFFFF;" version="1.1" viewBox="0 0 5037 1202" width="5037px" zoomAndPan="magnify"><title>Hyperion Parameter Model</title><defs/><g><text fill="#000000" font-family="sans-serif" font-size="14" font-weight="bold" lengthAdjust="spacing" textLength="212.4951" x="2405.2874" y="22.9951">Hyperion Parameter Model</text><!--cluster mx_bluesky.common.parameters--><g id="cluster_mx_bluesky.common.parameters"><path d="M8.5,43.2969 L269.8125,43.2969 A3.75,3.75 0 0 1 272.3125,45.7969 L279.3125,65.5938 L3571.5,65.5938 A2.5,2.5 0 0 1 3574,68.0938 L3574,1076.6969 A2.5,2.5 0 0 1 3571.5,1079.1969 L8.5,1079.1969 A2.5,2.5 0 0 1 6,1076.6969 L6,45.7969 A2.5,2.5 0 0 1 8.5,43.2969 " fill="none" style="stroke:#000000;stroke-width:1.5;"/><line style="stroke:#000000;stroke-width:1.5;" x1="6" x2="279.3125" y1="65.5938" y2="65.5938"/><text fill="#000000" font-family="sans-serif" font-size="14" font-weight="bold" lengthAdjust="spacing" textLength="260.3125" x="10" y="58.292">mx_bluesky.common.parameters</text></g><!--cluster mx_bluesky.hyperion.parameters--><g id="cluster_mx_bluesky.hyperion.parameters"><path d="M3600.5,841.8269 L3865.0322,841.8269 A3.75,3.75 0 0 1 3867.5322,844.3269 L3874.5322,864.1238 L4895.5,864.1238 A2.5,2.5 0 0 1 4898,866.6238 L4898,1192.9969 A2.5,2.5 0 0 1 4895.5,1195.4969 L3600.5,1195.4969 A2.5,2.5 0 0 1 3598,1192.9969 L3598,844.3269 A2.5,2.5 0 0 1 3600.5,841.8269 " fill="none" style="stroke:#000000;stroke-width:1.5;"/><line style="stroke:#000000;stroke-width:1.5;" x1="3598" x2="3874.5322" y1="864.1238" y2="864.1238"/><text fill="#000000" font-family="sans-serif" font-size="14" font-weight="bold" lengthAdjust="spacing" textLength="263.5322" x="3602" y="856.822">mx_bluesky.hyperion.parameters</text></g><!--class SpecifiedGrid--><g id="elem_SpecifiedGrid"><rect codeLine="8" fill="#F1F1F1" height="48" id="SpecifiedGrid" rx="2.5" ry="2.5" style="stroke:#181818;stroke-width:0.5;" width="125.6729" x="1643.16" y="349.1169"/><ellipse cx="1658.16" cy="365.1169" fill="#ADD1B2" rx="11" ry="11" style="stroke:#181818;stroke-width:1;"/><path d="M1661.1288,370.7575 Q1660.5506,371.0544 1659.91,371.195 Q1659.2694,371.3513 1658.5663,371.3513 Q1656.0663,371.3513 1654.7381,369.7106 Q1653.4256,368.0544 1653.4256,364.9294 Q1653.4256,361.8044 1654.7381,360.1481 Q1656.0663,358.4919 1658.5663,358.4919 Q1659.2694,358.4919 1659.91,358.6481 Q1660.5663,358.8044 1661.1288,359.1013 L1661.1288,361.82 Q1660.5038,361.2419 1659.91,360.9763 Q1659.3163,360.695 1658.6913,360.695 Q1657.3475,360.695 1656.66,361.7731 Q1655.9725,362.8356 1655.9725,364.9294 Q1655.9725,367.0231 1656.66,368.1013 Q1657.3475,369.1638 1658.6913,369.1638 Q1659.3163,369.1638 1659.91,368.8981 Q1660.5038,368.6169 1661.1288,368.0388 L1661.1288,370.7575 Z " fill="#000000"/><text fill="#000000" font-family="sans-serif" font-size="14" lengthAdjust="spacing" textLength="93.6729" x="1672.16" y="369.9636">SpecifiedGrid</text><line style="stroke:#181818;stroke-width:0.5;" x1="1644.16" x2="1767.8329" y1="381.1169" y2="381.1169"/><line style="stroke:#181818;stroke-width:0.5;" x1="1644.16" x2="1767.8329" y1="389.1169" y2="389.1169"/></g><!--class WithPandaGridScan--><g id="elem_WithPandaGridScan"><rect codeLine="10" fill="#F1F1F1" height="64.2969" id="WithPandaGridScan" rx="2.5" ry="2.5" style="stroke:#181818;stroke-width:0.5;" width="240.5664" x="29.72" y="118.8869"/><ellipse cx="76.3172" cy="134.8869" fill="#ADD1B2" rx="11" ry="11" style="stroke:#181818;stroke-width:1;"/><path d="M79.2859,140.5275 Q78.7078,140.8244 78.0672,140.965 Q77.4265,141.1213 76.7234,141.1213 Q74.2234,141.1213 72.8953,139.4806 Q71.5828,137.8244 71.5828,134.6994 Q71.5828,131.5744 72.8953,129.9181 Q74.2234,128.2619 76.7234,128.2619 Q77.4265,128.2619 78.0672,128.4181 Q78.7234,128.5744 79.2859,128.8713 L79.2859,131.59 Q78.6609,131.0119 78.0672,130.7463 Q77.4734,130.465 76.8484,130.465 Q75.5047,130.465 74.8172,131.5431 Q74.1297,132.6056 74.1297,134.6994 Q74.1297,136.7931 74.8172,137.8713 Q75.5047,138.9338 76.8484,138.9338 Q77.4734,138.9338 78.0672,138.6681 Q78.6609,138.3869 79.2859,137.8088 L79.2859,140.5275 Z " fill="#000000"/><text fill="#000000" font-family="sans-serif" font-size="14" lengthAdjust="spacing" textLength="138.8721" x="96.8172" y="139.7336">WithPandaGridScan</text><line style="stroke:#181818;stroke-width:0.5;" x1="30.72" x2="269.2864" y1="150.8869" y2="150.8869"/><text fill="#000000" font-family="sans-serif" font-size="14" lengthAdjust="spacing" textLength="228.5664" x="35.72" y="167.882">float panda_runup_distance_mm</text><line style="stroke:#181818;stroke-width:0.5;" x1="30.72" x2="269.2864" y1="175.1838" y2="175.1838"/></g><!--class WithCentreSelection--><g id="elem_WithCentreSelection"><rect codeLine="13" fill="#F1F1F1" height="64.2969" id="WithCentreSelection" rx="2.5" ry="2.5" style="stroke:#181818;stroke-width:0.5;" width="306.7861" x="2307.61" y="118.8869"/><ellipse cx="2384.8869" cy="134.8869" fill="#ADD1B2" rx="11" ry="11" style="stroke:#181818;stroke-width:1;"/><path d="M2387.8556,140.5275 Q2387.2775,140.8244 2386.6369,140.965 Q2385.9962,141.1213 2385.2931,141.1213 Q2382.7931,141.1213 2381.465,139.4806 Q2380.1525,137.8244 2380.1525,134.6994 Q2380.1525,131.5744 2381.465,129.9181 Q2382.7931,128.2619 2385.2931,128.2619 Q2385.9962,128.2619 2386.6369,128.4181 Q2387.2931,128.5744 2387.8556,128.8713 L2387.8556,131.59 Q2387.2306,131.0119 2386.6369,130.7463 Q2386.0431,130.465 2385.4181,130.465 Q2384.0744,130.465 2383.3869,131.5431 Q2382.6994,132.6056 2382.6994,134.6994 Q2382.6994,136.7931 2383.3869,137.8713 Q2384.0744,138.9338 2385.4181,138.9338 Q2386.0431,138.9338 2386.6369,138.6681 Q2387.2306,138.3869 2387.8556,137.8088 L2387.8556,140.5275 Z " fill="#000000"/><text fill="#000000" font-family="sans-serif" font-size="14" lengthAdjust="spacing" textLength="143.7324" x="2405.3869" y="139.7336">WithCentreSelection</text><line style="stroke:#181818;stroke-width:0.5;" x1="2308.61" x2="2613.3961" y1="150.8869" y2="150.8869"/><text fill="#000000" font-family="sans-serif" font-size="14" lengthAdjust="spacing" textLength="294.7861" x="2313.61" y="167.882">TopNByMaxCountSelection select_centres</text><line style="stroke:#181818;stroke-width:0.5;" x1="2308.61" x2="2613.3961" y1="175.1838" y2="175.1838"/></g><!--class WithVisit--><g id="elem_WithVisit"><rect codeLine="16" fill="#F1F1F1" height="129.4844" id="WithVisit" rx="2.5" ry="2.5" style="stroke:#181818;stroke-width:0.5;" width="271.7861" x="2001.11" y="86.2969"/><ellipse cx="2101.6359" cy="102.2969" fill="#ADD1B2" rx="11" ry="11" style="stroke:#181818;stroke-width:1;"/><path d="M2104.6046,107.9375 Q2104.0265,108.2344 2103.3859,108.375 Q2102.7453,108.5313 2102.0421,108.5313 Q2099.5421,108.5313 2098.214,106.8906 Q2096.9015,105.2344 2096.9015,102.1094 Q2096.9015,98.9844 2098.214,97.3281 Q2099.5421,95.6719 2102.0421,95.6719 Q2102.7453,95.6719 2103.3859,95.8281 Q2104.0421,95.9844 2104.6046,96.2813 L2104.6046,99 Q2103.9796,98.4219 2103.3859,98.1563 Q2102.7921,97.875 2102.1671,97.875 Q2100.8234,97.875 2100.1359,98.9531 Q2099.4484,100.0156 2099.4484,102.1094 Q2099.4484,104.2031 2100.1359,105.2813 Q2100.8234,106.3438 2102.1671,106.3438 Q2102.7921,106.3438 2103.3859,106.0781 Q2103.9796,105.7969 2104.6046,105.2188 L2104.6046,107.9375 Z " fill="#000000"/><text fill="#000000" font-family="sans-serif" font-size="14" lengthAdjust="spacing" textLength="62.2344" x="2122.1359" y="107.1436">WithVisit</text><line style="stroke:#181818;stroke-width:0.5;" x1="2002.11" x2="2271.8961" y1="118.2969" y2="118.2969"/><text fill="#000000" font-family="sans-serif" font-size="14" lengthAdjust="spacing" textLength="87.9717" x="2007.11" y="135.292">str beamline</text><text fill="#000000" font-family="sans-serif" font-size="14" lengthAdjust="spacing" textLength="51.8369" x="2007.11" y="151.5889">str visit</text><text fill="#000000" font-family="sans-serif" font-size="14" lengthAdjust="spacing" textLength="259.7861" x="2007.11" y="167.8857">str det_dist_to_beam_converter_path</text><text fill="#000000" font-family="sans-serif" font-size="14" lengthAdjust="spacing" textLength="131.5918" x="2007.11" y="184.1826">str insertion_prefix</text><text fill="#000000" font-family="sans-serif" font-size="14" lengthAdjust="spacing" textLength="245.752" x="2007.11" y="200.4795">float | None detector_distance_mm</text><line style="stroke:#181818;stroke-width:0.5;" x1="2002.11" x2="2271.8961" y1="207.7813" y2="207.7813"/></g><!--class WithOptionalEnergyChange--><g id="elem_WithOptionalEnergyChange"><rect codeLine="23" fill="#F1F1F1" height="64.2969" id="WithOptionalEnergyChange" rx="2.5" ry="2.5" style="stroke:#181818;stroke-width:0.5;" width="235.4463" x="305.28" y="118.8869"/><ellipse cx="324.4645" cy="134.8869" fill="#ADD1B2" rx="11" ry="11" style="stroke:#181818;stroke-width:1;"/><path d="M327.4332,140.5275 Q326.8551,140.8244 326.2145,140.965 Q325.5738,141.1213 324.8707,141.1213 Q322.3707,141.1213 321.0426,139.4806 Q319.7301,137.8244 319.7301,134.6994 Q319.7301,131.5744 321.0426,129.9181 Q322.3707,128.2619 324.8707,128.2619 Q325.5738,128.2619 326.2145,128.4181 Q326.8707,128.5744 327.4332,128.8713 L327.4332,131.59 Q326.8082,131.0119 326.2145,130.7463 Q325.6207,130.465 324.9957,130.465 Q323.652,130.465 322.9645,131.5431 Q322.277,132.6056 322.277,134.6994 Q322.277,136.7931 322.9645,137.8713 Q323.652,138.9338 324.9957,138.9338 Q325.6207,138.9338 326.2145,138.6681 Q326.8082,138.3869 327.4332,137.8088 L327.4332,140.5275 Z " fill="#000000"/><text fill="#000000" font-family="sans-serif" font-size="14" lengthAdjust="spacing" textLength="194.1475" x="339.3944" y="139.7336">WithOptionalEnergyChange</text><line style="stroke:#181818;stroke-width:0.5;" x1="306.28" x2="539.7263" y1="150.8869" y2="150.8869"/><text fill="#000000" font-family="sans-serif" font-size="14" lengthAdjust="spacing" textLength="223.4463" x="311.28" y="167.882">float | None demand_energy_ev</text><line style="stroke:#181818;stroke-width:0.5;" x1="306.28" x2="539.7263" y1="175.1838" y2="175.1838"/></g><!--class OptionalXyzStarts--><g id="elem_OptionalXyzStarts"><rect codeLine="26" fill="#F1F1F1" height="96.8906" id="OptionalXyzStarts" rx="2.5" ry="2.5" style="stroke:#181818;stroke-width:0.5;" width="175.4473" x="1790.28" y="102.5869"/><ellipse cx="1813.1713" cy="118.5869" fill="#ADD1B2" rx="11" ry="11" style="stroke:#181818;stroke-width:1;"/><path d="M1816.14,124.2275 Q1815.5619,124.5244 1814.9213,124.665 Q1814.2806,124.8212 1813.5775,124.8212 Q1811.0775,124.8212 1809.7494,123.1806 Q1808.4369,121.5244 1808.4369,118.3994 Q1808.4369,115.2744 1809.7494,113.6181 Q1811.0775,111.9619 1813.5775,111.9619 Q1814.2806,111.9619 1814.9213,112.1181 Q1815.5775,112.2744 1816.14,112.5712 L1816.14,115.29 Q1815.515,114.7119 1814.9213,114.4462 Q1814.3275,114.165 1813.7025,114.165 Q1812.3588,114.165 1811.6713,115.2431 Q1810.9838,116.3056 1810.9838,118.3994 Q1810.9838,120.4931 1811.6713,121.5712 Q1812.3588,122.6337 1813.7025,122.6337 Q1814.3275,122.6337 1814.9213,122.3681 Q1815.515,122.0869 1816.14,121.5087 L1816.14,124.2275 Z " fill="#000000"/><text fill="#000000" font-family="sans-serif" font-size="14" lengthAdjust="spacing" textLength="125.9111" x="1828.9249" y="123.4336">OptionalXyzStarts</text><line style="stroke:#181818;stroke-width:0.5;" x1="1791.28" x2="1964.7273" y1="134.5869" y2="134.5869"/><text fill="#000000" font-family="sans-serif" font-size="14" lengthAdjust="spacing" textLength="163.4473" x="1796.28" y="151.582">float | None x_start_um</text><text fill="#000000" font-family="sans-serif" font-size="14" lengthAdjust="spacing" textLength="163.4473" x="1796.28" y="167.8789">float | None y_start_um</text><text fill="#000000" font-family="sans-serif" font-size="14" lengthAdjust="spacing" textLength="162.5107" x="1796.28" y="184.1757">float | None z_start_um</text><line style="stroke:#181818;stroke-width:0.5;" x1="1791.28" x2="1964.7273" y1="191.4775" y2="191.4775"/></g><!--class XyzStarts--><g id="elem_XyzStarts"><rect codeLine="31" fill="#F1F1F1" height="96.8906" id="XyzStarts" rx="2.5" ry="2.5" style="stroke:#181818;stroke-width:0.5;" width="125.3057" x="575.35" y="102.5869"/><ellipse cx="602.3141" cy="118.5869" fill="#ADD1B2" rx="11" ry="11" style="stroke:#181818;stroke-width:1;"/><path d="M605.2829,124.2275 Q604.7047,124.5244 604.0641,124.665 Q603.4235,124.8212 602.7204,124.8212 Q600.2204,124.8212 598.8922,123.1806 Q597.5797,121.5244 597.5797,118.3994 Q597.5797,115.2744 598.8922,113.6181 Q600.2204,111.9619 602.7204,111.9619 Q603.4235,111.9619 604.0641,112.1181 Q604.7204,112.2744 605.2829,112.5712 L605.2829,115.29 Q604.6579,114.7119 604.0641,114.4462 Q603.4704,114.165 602.8454,114.165 Q601.5016,114.165 600.8141,115.2431 Q600.1266,116.3056 600.1266,118.3994 Q600.1266,120.4931 600.8141,121.5712 Q601.5016,122.6337 602.8454,122.6337 Q603.4704,122.6337 604.0641,122.3681 Q604.6579,122.0869 605.2829,121.5087 L605.2829,124.2275 Z " fill="#000000"/><text fill="#000000" font-family="sans-serif" font-size="14" lengthAdjust="spacing" textLength="66.7188" x="618.9728" y="123.4336">XyzStarts</text><line style="stroke:#181818;stroke-width:0.5;" x1="576.35" x2="699.6557" y1="134.5869" y2="134.5869"/><text fill="#000000" font-family="sans-serif" font-size="14" lengthAdjust="spacing" textLength="113.3057" x="581.35" y="151.582">float x_start_um</text><text fill="#000000" font-family="sans-serif" font-size="14" lengthAdjust="spacing" textLength="113.3057" x="581.35" y="167.8789">float y_start_um</text><text fill="#000000" font-family="sans-serif" font-size="14" lengthAdjust="spacing" textLength="112.3691" x="581.35" y="184.1757">float z_start_um</text><line style="stroke:#181818;stroke-width:0.5;" x1="576.35" x2="699.6557" y1="191.4775" y2="191.4775"/></g><!--class OptionalGonioAngleStarts--><g id="elem_OptionalGonioAngleStarts"><rect codeLine="36" fill="#F1F1F1" height="113.1875" id="OptionalGonioAngleStarts" rx="2.5" ry="2.5" style="stroke:#181818;stroke-width:0.5;" width="219.3203" x="1059.34" y="94.4469"/><ellipse cx="1077.0633" cy="110.4469" fill="#ADD1B2" rx="11" ry="11" style="stroke:#181818;stroke-width:1;"/><path d="M1080.032,116.0875 Q1079.4539,116.3844 1078.8133,116.525 Q1078.1727,116.6813 1077.4695,116.6813 Q1074.9695,116.6813 1073.6414,115.0406 Q1072.3289,113.3844 1072.3289,110.2594 Q1072.3289,107.1344 1073.6414,105.4781 Q1074.9695,103.8219 1077.4695,103.8219 Q1078.1727,103.8219 1078.8133,103.9781 Q1079.4695,104.1344 1080.032,104.4313 L1080.032,107.15 Q1079.407,106.5719 1078.8133,106.3063 Q1078.2195,106.025 1077.5945,106.025 Q1076.2508,106.025 1075.5633,107.1031 Q1074.8758,108.1656 1074.8758,110.2594 Q1074.8758,112.3531 1075.5633,113.4313 Q1076.2508,114.4938 1077.5945,114.4938 Q1078.2195,114.4938 1078.8133,114.2281 Q1079.407,113.9469 1080.032,113.3688 L1080.032,116.0875 Z " fill="#000000"/><text fill="#000000" font-family="sans-serif" font-size="14" lengthAdjust="spacing" textLength="181.2686" x="1091.6685" y="115.2936">OptionalGonioAngleStarts</text><line style="stroke:#181818;stroke-width:0.5;" x1="1060.34" x2="1277.6603" y1="126.4469" y2="126.4469"/><text fill="#000000" font-family="sans-serif" font-size="14" lengthAdjust="spacing" textLength="207.3203" x="1065.34" y="143.442">float | None omega_start_deg</text><text fill="#000000" font-family="sans-serif" font-size="14" lengthAdjust="spacing" textLength="180.6875" x="1065.34" y="159.7389">float | None phi_start_deg</text><text fill="#000000" font-family="sans-serif" font-size="14" lengthAdjust="spacing" textLength="179.498" x="1065.34" y="176.0357">float | None chi_start_deg</text><text fill="#000000" font-family="sans-serif" font-size="14" lengthAdjust="spacing" textLength="202.0771" x="1065.34" y="192.3326">float | None kappa_start_deg</text><line style="stroke:#181818;stroke-width:0.5;" x1="1060.34" x2="1277.6603" y1="199.6344" y2="199.6344"/></g><!--class WithScan--><g id="elem_WithScan"><rect codeLine="42" fill="#F1F1F1" height="48" id="WithScan" rx="2.5" ry="2.5" style="stroke:#181818;stroke-width:0.5;" width="98.1309" x="1656.93" y="127.0369"/><ellipse cx="1671.93" cy="143.0369" fill="#ADD1B2" rx="11" ry="11" style="stroke:#181818;stroke-width:1;"/><path d="M1674.8988,148.6775 Q1674.3206,148.9744 1673.68,149.115 Q1673.0394,149.2713 1672.3363,149.2713 Q1669.8363,149.2713 1668.5081,147.6306 Q1667.1956,145.9744 1667.1956,142.8494 Q1667.1956,139.7244 1668.5081,138.0681 Q1669.8363,136.4119 1672.3363,136.4119 Q1673.0394,136.4119 1673.68,136.5681 Q1674.3363,136.7244 1674.8988,137.0213 L1674.8988,139.74 Q1674.2738,139.1619 1673.68,138.8963 Q1673.0863,138.615 1672.4613,138.615 Q1671.1175,138.615 1670.43,139.6931 Q1669.7425,140.7556 1669.7425,142.8494 Q1669.7425,144.9431 1670.43,146.0213 Q1671.1175,147.0838 1672.4613,147.0838 Q1673.0863,147.0838 1673.68,146.8181 Q1674.2738,146.5369 1674.8988,145.9588 L1674.8988,148.6775 Z " fill="#000000"/><text fill="#000000" font-family="sans-serif" font-size="14" lengthAdjust="spacing" textLength="66.1309" x="1685.93" y="147.8836">WithScan</text><line style="stroke:#181818;stroke-width:0.5;" x1="1657.93" x2="1754.0609" y1="159.0369" y2="159.0369"/><line style="stroke:#181818;stroke-width:0.5;" x1="1657.93" x2="1754.0609" y1="167.0369" y2="167.0369"/></g><!--class WithSnapshot--><g id="elem_WithSnapshot"><rect codeLine="44" fill="#F1F1F1" height="80.5938" id="WithSnapshot" rx="2.5" ry="2.5" style="stroke:#181818;stroke-width:0.5;" width="289.3477" x="735.33" y="110.7369"/><ellipse cx="826.9828" cy="126.7369" fill="#ADD1B2" rx="11" ry="11" style="stroke:#181818;stroke-width:1;"/><path d="M829.9516,132.3775 Q829.3735,132.6744 828.7328,132.815 Q828.0922,132.9713 827.3891,132.9713 Q824.8891,132.9713 823.561,131.3306 Q822.2485,129.6744 822.2485,126.5494 Q822.2485,123.4244 823.561,121.7681 Q824.8891,120.1119 827.3891,120.1119 Q828.0922,120.1119 828.7328,120.2681 Q829.3891,120.4244 829.9516,120.7213 L829.9516,123.44 Q829.3266,122.8619 828.7328,122.5963 Q828.1391,122.315 827.5141,122.315 Q826.1703,122.315 825.4828,123.3931 Q824.7953,124.4556 824.7953,126.5494 Q824.7953,128.6431 825.4828,129.7213 Q826.1703,130.7838 827.5141,130.7838 Q828.1391,130.7838 828.7328,130.5181 Q829.3266,130.2369 829.9516,129.6588 L829.9516,132.3775 Z " fill="#000000"/><text fill="#000000" font-family="sans-serif" font-size="14" lengthAdjust="spacing" textLength="97.542" x="847.4828" y="131.5836">WithSnapshot</text><line style="stroke:#181818;stroke-width:0.5;" x1="736.33" x2="1023.6777" y1="142.7369" y2="142.7369"/><text fill="#000000" font-family="sans-serif" font-size="14" lengthAdjust="spacing" textLength="169.627" x="741.33" y="159.732">Path snapshot_directory</text><text fill="#000000" font-family="sans-serif" font-size="14" lengthAdjust="spacing" textLength="277.3477" x="741.33" y="176.0289">list[float] | None snapshot_omegas_deg</text><line style="stroke:#181818;stroke-width:0.5;" x1="736.33" x2="1023.6777" y1="183.3306" y2="183.3306"/></g><!--class SplitScan--><g id="elem_SplitScan"><rect codeLine="48" fill="#F1F1F1" height="48" id="SplitScan" rx="2.5" ry="2.5" style="stroke:#181818;stroke-width:0.5;" width="97.0781" x="1313.46" y="127.0369"/><ellipse cx="1328.46" cy="143.0369" fill="#ADD1B2" rx="11" ry="11" style="stroke:#181818;stroke-width:1;"/><path d="M1331.4288,148.6775 Q1330.8506,148.9744 1330.21,149.115 Q1329.5694,149.2713 1328.8663,149.2713 Q1326.3663,149.2713 1325.0381,147.6306 Q1323.7256,145.9744 1323.7256,142.8494 Q1323.7256,139.7244 1325.0381,138.0681 Q1326.3663,136.4119 1328.8663,136.4119 Q1329.5694,136.4119 1330.21,136.5681 Q1330.8663,136.7244 1331.4288,137.0213 L1331.4288,139.74 Q1330.8038,139.1619 1330.21,138.8963 Q1329.6163,138.615 1328.9913,138.615 Q1327.6475,138.615 1326.96,139.6931 Q1326.2725,140.7556 1326.2725,142.8494 Q1326.2725,144.9431 1326.96,146.0213 Q1327.6475,147.0838 1328.9913,147.0838 Q1329.6163,147.0838 1330.21,146.8181 Q1330.8038,146.5369 1331.4288,145.9588 L1331.4288,148.6775 Z " fill="#000000"/><text fill="#000000" font-family="sans-serif" font-size="14" lengthAdjust="spacing" textLength="65.0781" x="1342.46" y="147.8836">SplitScan</text><line style="stroke:#181818;stroke-width:0.5;" x1="1314.46" x2="1409.5381" y1="159.0369" y2="159.0369"/><line style="stroke:#181818;stroke-width:0.5;" x1="1314.46" x2="1409.5381" y1="167.0369" y2="167.0369"/></g><!--class WithSample--><g id="elem_WithSample"><rect codeLine="50" fill="#F1F1F1" height="96.8906" id="WithSample" rx="2.5" ry="2.5" style="stroke:#181818;stroke-width:0.5;" width="176.3086" x="1445.85" y="102.5869"/><ellipse cx="1487.7243" cy="118.5869" fill="#ADD1B2" rx="11" ry="11" style="stroke:#181818;stroke-width:1;"/><path d="M1490.6931,124.2275 Q1490.1149,124.5244 1489.4743,124.665 Q1488.8337,124.8212 1488.1306,124.8212 Q1485.6306,124.8212 1484.3024,123.1806 Q1482.9899,121.5244 1482.9899,118.3994 Q1482.9899,115.2744 1484.3024,113.6181 Q1485.6306,111.9619 1488.1306,111.9619 Q1488.8337,111.9619 1489.4743,112.1181 Q1490.1306,112.2744 1490.6931,112.5712 L1490.6931,115.29 Q1490.0681,114.7119 1489.4743,114.4462 Q1488.8806,114.165 1488.2556,114.165 Q1486.9118,114.165 1486.2243,115.2431 Q1485.5368,116.3056 1485.5368,118.3994 Q1485.5368,120.4931 1486.2243,121.5712 Q1486.9118,122.6337 1488.2556,122.6337 Q1488.8806,122.6337 1489.4743,122.3681 Q1490.0681,122.0869 1490.6931,121.5087 L1490.6931,124.2275 Z " fill="#000000"/><text fill="#000000" font-family="sans-serif" font-size="14" lengthAdjust="spacing" textLength="84.5879" x="1507.6964" y="123.4336">WithSample</text><line style="stroke:#181818;stroke-width:0.5;" x1="1446.85" x2="1621.1586" y1="134.5869" y2="134.5869"/><text fill="#000000" font-family="sans-serif" font-size="14" lengthAdjust="spacing" textLength="93.3789" x="1451.85" y="151.582">int sample_id</text><text fill="#000000" font-family="sans-serif" font-size="14" lengthAdjust="spacing" textLength="164.3086" x="1451.85" y="167.8789">int | None sample_puck</text><text fill="#000000" font-family="sans-serif" font-size="14" lengthAdjust="spacing" textLength="152.3936" x="1451.85" y="184.1757">int | None sample_pin</text><line style="stroke:#181818;stroke-width:0.5;" x1="1446.85" x2="1621.1586" y1="191.4775" y2="191.4775"/></g><!--class GridScanWithEdgeDetect--><g id="elem_GridScanWithEdgeDetect"><rect codeLine="57" fill="#F1F1F1" height="64.2969" id="GridScanWithEdgeDetect" rx="2.5" ry="2.5" style="stroke:#181818;stroke-width:0.5;" width="209.4268" x="3116.29" y="909.4169"/><ellipse cx="3131.29" cy="925.4169" fill="#ADD1B2" rx="11" ry="11" style="stroke:#181818;stroke-width:1;"/><path d="M3134.2588,931.0575 Q3133.6806,931.3544 3133.04,931.495 Q3132.3994,931.6513 3131.6963,931.6513 Q3129.1963,931.6513 3127.8681,930.0106 Q3126.5556,928.3544 3126.5556,925.2294 Q3126.5556,922.1044 3127.8681,920.4481 Q3129.1963,918.7919 3131.6963,918.7919 Q3132.3994,918.7919 3133.04,918.9481 Q3133.6963,919.1044 3134.2588,919.4013 L3134.2588,922.12 Q3133.6338,921.5419 3133.04,921.2763 Q3132.4463,920.995 3131.8213,920.995 Q3130.4775,920.995 3129.79,922.0731 Q3129.1025,923.1356 3129.1025,925.2294 Q3129.1025,927.3231 3129.79,928.4013 Q3130.4775,929.4638 3131.8213,929.4638 Q3132.4463,929.4638 3133.04,929.1981 Q3133.6338,928.9169 3134.2588,928.3388 L3134.2588,931.0575 Z " fill="#000000"/><text fill="#000000" font-family="sans-serif" font-size="14" lengthAdjust="spacing" textLength="177.4268" x="3145.29" y="930.2636">GridScanWithEdgeDetect</text><line style="stroke:#181818;stroke-width:0.5;" x1="3117.29" x2="3324.7168" y1="941.4169" y2="941.4169"/><text fill="#000000" font-family="sans-serif" font-size="14" lengthAdjust="spacing" textLength="125.2959" x="3122.29" y="958.412">float box_size_um</text><line style="stroke:#181818;stroke-width:0.5;" x1="3117.29" x2="3324.7168" y1="965.7138" y2="965.7138"/></g><!--class MxBlueskyParameters--><g id="elem_MxBlueskyParameters"><rect codeLine="60" fill="#F1F1F1" height="64.2969" id="MxBlueskyParameters" rx="2.5" ry="2.5" style="stroke:#181818;stroke-width:0.5;" width="317.4639" x="2940.27" y="118.8869"/><ellipse cx="3016.8564" cy="134.8869" fill="#ADD1B2" rx="11" ry="11" style="stroke:#181818;stroke-width:1;"/><path d="M3019.8252,140.5275 Q3019.2471,140.8244 3018.6064,140.965 Q3017.9658,141.1213 3017.2627,141.1213 Q3014.7627,141.1213 3013.4346,139.4806 Q3012.1221,137.8244 3012.1221,134.6994 Q3012.1221,131.5744 3013.4346,129.9181 Q3014.7627,128.2619 3017.2627,128.2619 Q3017.9658,128.2619 3018.6064,128.4181 Q3019.2627,128.5744 3019.8252,128.8713 L3019.8252,131.59 Q3019.2002,131.0119 3018.6064,130.7463 Q3018.0127,130.465 3017.3877,130.465 Q3016.0439,130.465 3015.3564,131.5431 Q3014.6689,132.6056 3014.6689,134.6994 Q3014.6689,136.7931 3015.3564,137.8713 Q3016.0439,138.9338 3017.3877,138.9338 Q3018.0127,138.9338 3018.6064,138.6681 Q3019.2002,138.3869 3019.8252,137.8088 L3019.8252,140.5275 Z " fill="#000000"/><text fill="#000000" font-family="sans-serif" font-size="14" lengthAdjust="spacing" textLength="155.791" x="3037.3564" y="139.7336">MxBlueskyParameters</text><line style="stroke:#181818;stroke-width:0.5;" x1="2941.27" x2="3256.7339" y1="150.8869" y2="150.8869"/><text fill="#000000" font-family="sans-serif" font-size="14" lengthAdjust="spacing" textLength="305.4639" x="2946.27" y="167.882">SemanticVersion parameter_model_version</text><line style="stroke:#181818;stroke-width:0.5;" x1="2941.27" x2="3256.7339" y1="175.1838" y2="175.1838"/></g><!--class DiffractionExperiment--><g id="elem_DiffractionExperiment"><rect codeLine="63" fill="#F1F1F1" height="194.6719" id="DiffractionExperiment" rx="2.5" ry="2.5" style="stroke:#181818;stroke-width:0.5;" width="332.332" x="2637.83" y="275.7769"/><ellipse cx="2722.6127" cy="291.7769" fill="#ADD1B2" rx="11" ry="11" style="stroke:#181818;stroke-width:1;"/><path d="M2725.5815,297.4175 Q2725.0033,297.7144 2724.3627,297.855 Q2723.7221,298.0113 2723.019,298.0113 Q2720.519,298.0113 2719.1908,296.3706 Q2717.8783,294.7144 2717.8783,291.5894 Q2717.8783,288.4644 2719.1908,286.8081 Q2720.519,285.1519 2723.019,285.1519 Q2723.7221,285.1519 2724.3627,285.3081 Q2725.019,285.4644 2725.5815,285.7613 L2725.5815,288.48 Q2724.9565,287.9019 2724.3627,287.6363 Q2723.769,287.355 2723.144,287.355 Q2721.8002,287.355 2721.1127,288.4331 Q2720.4252,289.4956 2720.4252,291.5894 Q2720.4252,293.6831 2721.1127,294.7613 Q2721.8002,295.8238 2723.144,295.8238 Q2723.769,295.8238 2724.3627,295.5581 Q2724.9565,295.2769 2725.5815,294.6988 L2725.5815,297.4175 Z " fill="#000000"/><text fill="#000000" font-family="sans-serif" font-size="14" lengthAdjust="spacing" textLength="154.2666" x="2743.1127" y="296.6236">DiffractionExperiment</text><line style="stroke:#181818;stroke-width:0.5;" x1="2638.83" x2="2969.162" y1="307.7769" y2="307.7769"/><text fill="#000000" font-family="sans-serif" font-size="14" lengthAdjust="spacing" textLength="91.0137" x="2643.83" y="324.772">str file_name</text><text fill="#000000" font-family="sans-serif" font-size="14" lengthAdjust="spacing" textLength="153.7129" x="2643.83" y="341.0689">float exposure_time_s</text><text fill="#000000" font-family="sans-serif" font-size="14" lengthAdjust="spacing" textLength="89.5029" x="2643.83" y="357.3657">str comment</text><text fill="#000000" font-family="sans-serif" font-size="14" lengthAdjust="spacing" textLength="186.915" x="2643.83" y="373.6626">TriggerMode trigger_mode</text><text fill="#000000" font-family="sans-serif" font-size="14" lengthAdjust="spacing" textLength="157.9854" x="2643.83" y="389.9595">int | None run_number</text><text fill="#000000" font-family="sans-serif" font-size="14" lengthAdjust="spacing" textLength="282.3516" x="2643.83" y="406.2564">ApertureValue | None selected_aperture</text><text fill="#000000" font-family="sans-serif" font-size="14" lengthAdjust="spacing" textLength="159.2979" x="2643.83" y="422.5532">float transmission_frac</text><text fill="#000000" font-family="sans-serif" font-size="14" lengthAdjust="spacing" textLength="320.332" x="2643.83" y="438.8501">IspybExperimentType ispyb_experiment_type</text><text fill="#000000" font-family="sans-serif" font-size="14" lengthAdjust="spacing" textLength="146.1113" x="2643.83" y="455.147">str storage_directory</text><line style="stroke:#181818;stroke-width:0.5;" x1="2638.83" x2="2969.162" y1="462.4488" y2="462.4488"/></g><!--class RobotLoadThenCentre--><g id="elem_RobotLoadThenCentre"><rect codeLine="74" fill="#F1F1F1" height="64.2969" id="RobotLoadThenCentre" rx="2.5" ry="2.5" style="stroke:#181818;stroke-width:0.5;" width="189.0967" x="3360.45" y="909.4169"/><ellipse cx="3375.45" cy="925.4169" fill="#ADD1B2" rx="11" ry="11" style="stroke:#181818;stroke-width:1;"/><path d="M3378.4188,931.0575 Q3377.8406,931.3544 3377.2,931.495 Q3376.5594,931.6513 3375.8563,931.6513 Q3373.3563,931.6513 3372.0281,930.0106 Q3370.7156,928.3544 3370.7156,925.2294 Q3370.7156,922.1044 3372.0281,920.4481 Q3373.3563,918.7919 3375.8563,918.7919 Q3376.5594,918.7919 3377.2,918.9481 Q3377.8563,919.1044 3378.4188,919.4013 L3378.4188,922.12 Q3377.7938,921.5419 3377.2,921.2763 Q3376.6063,920.995 3375.9813,920.995 Q3374.6375,920.995 3373.95,922.0731 Q3373.2625,923.1356 3373.2625,925.2294 Q3373.2625,927.3231 3373.95,928.4013 Q3374.6375,929.4638 3375.9813,929.4638 Q3376.6063,929.4638 3377.2,929.1981 Q3377.7938,928.9169 3378.4188,928.3388 L3378.4188,931.0575 Z " fill="#000000"/><text fill="#000000" font-family="sans-serif" font-size="14" lengthAdjust="spacing" textLength="157.0967" x="3389.45" y="930.2636">RobotLoadThenCentre</text><line style="stroke:#181818;stroke-width:0.5;" x1="3361.45" x2="3548.5467" y1="941.4169" y2="941.4169"/><text fill="#000000" font-family="sans-serif" font-size="14" lengthAdjust="spacing" textLength="130.5732" x="3366.45" y="958.412">float thawing_time</text><line style="stroke:#181818;stroke-width:0.5;" x1="3361.45" x2="3548.5467" y1="965.7138" y2="965.7138"/></g><!--class DiffractionExperimentWithSample--><g id="elem_DiffractionExperimentWithSample"><rect codeLine="77" fill="#F1F1F1" height="48" id="DiffractionExperimentWithSample" rx="2.5" ry="2.5" style="stroke:#181818;stroke-width:0.5;" width="270.8545" x="2708.57" y="530.4469"/><ellipse cx="2723.57" cy="546.4469" fill="#ADD1B2" rx="11" ry="11" style="stroke:#181818;stroke-width:1;"/><path d="M2726.5388,552.0875 Q2725.9606,552.3844 2725.32,552.525 Q2724.6794,552.6813 2723.9763,552.6813 Q2721.4763,552.6813 2720.1481,551.0406 Q2718.8356,549.3844 2718.8356,546.2594 Q2718.8356,543.1344 2720.1481,541.4781 Q2721.4763,539.8219 2723.9763,539.8219 Q2724.6794,539.8219 2725.32,539.9781 Q2725.9763,540.1344 2726.5388,540.4313 L2726.5388,543.15 Q2725.9138,542.5719 2725.32,542.3063 Q2724.7263,542.025 2724.1013,542.025 Q2722.7575,542.025 2722.07,543.1031 Q2721.3825,544.1656 2721.3825,546.2594 Q2721.3825,548.3531 2722.07,549.4313 Q2722.7575,550.4938 2724.1013,550.4938 Q2724.7263,550.4938 2725.32,550.2281 Q2725.9138,549.9469 2726.5388,549.3688 L2726.5388,552.0875 Z " fill="#000000"/><text fill="#000000" font-family="sans-serif" font-size="14" lengthAdjust="spacing" textLength="238.8545" x="2737.57" y="551.2936">DiffractionExperimentWithSample</text><line style="stroke:#181818;stroke-width:0.5;" x1="2709.57" x2="2978.4245" y1="562.4469" y2="562.4469"/><line style="stroke:#181818;stroke-width:0.5;" x1="2709.57" x2="2978.4245" y1="570.4469" y2="570.4469"/></g><!--class ThreeDGridScan--><g id="elem_ThreeDGridScan"><rect codeLine="79" fill="#F1F1F1" height="227.2656" id="ThreeDGridScan" rx="2.5" ry="2.5" style="stroke:#181818;stroke-width:0.5;" width="172.8975" x="2637.55" y="827.9369"/><ellipse cx="2664.3818" cy="843.9369" fill="#ADD1B2" rx="11" ry="11" style="stroke:#181818;stroke-width:1;"/><path d="M2667.3506,849.5775 Q2666.7725,849.8744 2666.1318,850.015 Q2665.4912,850.1713 2664.7881,850.1713 Q2662.2881,850.1713 2660.96,848.5306 Q2659.6475,846.8744 2659.6475,843.7494 Q2659.6475,840.6244 2660.96,838.9681 Q2662.2881,837.3119 2664.7881,837.3119 Q2665.4912,837.3119 2666.1318,837.4681 Q2666.7881,837.6244 2667.3506,837.9213 L2667.3506,840.64 Q2666.7256,840.0619 2666.1318,839.7963 Q2665.5381,839.515 2664.9131,839.515 Q2663.5693,839.515 2662.8818,840.5931 Q2662.1943,841.6556 2662.1943,843.7494 Q2662.1943,845.8431 2662.8818,846.9213 Q2663.5693,847.9838 2664.9131,847.9838 Q2665.5381,847.9838 2666.1318,847.7181 Q2666.7256,847.4369 2667.3506,846.8588 L2667.3506,849.5775 Z " fill="#000000"/><text fill="#000000" font-family="sans-serif" font-size="14" lengthAdjust="spacing" textLength="114.6045" x="2681.0111" y="848.7836">ThreeDGridScan</text><line style="stroke:#181818;stroke-width:0.5;" x1="2638.55" x2="2809.4475" y1="859.9369" y2="859.9369"/><text fill="#000000" font-family="sans-serif" font-size="14" lengthAdjust="spacing" textLength="160.8975" x="2643.55" y="876.932">float grid1_omega_deg</text><text fill="#000000" font-family="sans-serif" font-size="14" lengthAdjust="spacing" textLength="160.8975" x="2643.55" y="893.2289">float grid2_omega_deg</text><text fill="#000000" font-family="sans-serif" font-size="14" lengthAdjust="spacing" textLength="145.127" x="2643.55" y="909.5257">float x_step_size_um</text><text fill="#000000" font-family="sans-serif" font-size="14" lengthAdjust="spacing" textLength="145.127" x="2643.55" y="925.8226">float y_step_size_um</text><text fill="#000000" font-family="sans-serif" font-size="14" lengthAdjust="spacing" textLength="144.1904" x="2643.55" y="942.1195">float z_step_size_um</text><text fill="#000000" font-family="sans-serif" font-size="14" lengthAdjust="spacing" textLength="122.2129" x="2643.55" y="958.4164">float y2_start_um</text><text fill="#000000" font-family="sans-serif" font-size="14" lengthAdjust="spacing" textLength="121.2764" x="2643.55" y="974.7132">float z2_start_um</text><text fill="#000000" font-family="sans-serif" font-size="14" lengthAdjust="spacing" textLength="75.5645" x="2643.55" y="991.0101">int x_steps</text><text fill="#000000" font-family="sans-serif" font-size="14" lengthAdjust="spacing" textLength="75.5645" x="2643.55" y="1007.307">int y_steps</text><text fill="#000000" font-family="sans-serif" font-size="14" lengthAdjust="spacing" textLength="74.6279" x="2643.55" y="1023.6039">int z_steps</text><text fill="#000000" font-family="sans-serif" font-size="14" lengthAdjust="spacing" textLength="154.4102" x="2643.55" y="1039.9007">bool _set_stub_offsets</text><line style="stroke:#181818;stroke-width:0.5;" x1="2638.55" x2="2809.4475" y1="1047.2025" y2="1047.2025"/></g><!--class GridCommon--><g id="elem_GridCommon"><rect codeLine="92" fill="#F1F1F1" height="129.4844" id="GridCommon" rx="2.5" ry="2.5" style="stroke:#181818;stroke-width:0.5;" width="332.332" x="2756.83" y="638.4469"/><ellipse cx="2872.5282" cy="654.4469" fill="#ADD1B2" rx="11" ry="11" style="stroke:#181818;stroke-width:1;"/><path d="M2875.497,660.0875 Q2874.9189,660.3844 2874.2782,660.525 Q2873.6376,660.6813 2872.9345,660.6813 Q2870.4345,660.6813 2869.1064,659.0406 Q2867.7939,657.3844 2867.7939,654.2594 Q2867.7939,651.1344 2869.1064,649.4781 Q2870.4345,647.8219 2872.9345,647.8219 Q2873.6376,647.8219 2874.2782,647.9781 Q2874.9345,648.1344 2875.497,648.4313 L2875.497,651.15 Q2874.872,650.5719 2874.2782,650.3063 Q2873.6845,650.025 2873.0595,650.025 Q2871.7157,650.025 2871.0282,651.1031 Q2870.3407,652.1656 2870.3407,654.2594 Q2870.3407,656.3531 2871.0282,657.4313 Q2871.7157,658.4938 2873.0595,658.4938 Q2873.6845,658.4938 2874.2782,658.2281 Q2874.872,657.9469 2875.497,657.3688 L2875.497,660.0875 Z " fill="#000000"/><text fill="#000000" font-family="sans-serif" font-size="14" lengthAdjust="spacing" textLength="92.4355" x="2893.0282" y="659.2936">GridCommon</text><line style="stroke:#181818;stroke-width:0.5;" x1="2757.83" x2="3088.162" y1="670.4469" y2="670.4469"/><text fill="#000000" font-family="sans-serif" font-size="14" lengthAdjust="spacing" textLength="138.4209" x="2762.83" y="687.442">float grid_width_um</text><text fill="#000000" font-family="sans-serif" font-size="14" lengthAdjust="spacing" textLength="153.7129" x="2762.83" y="703.7389">float exposure_time_s</text><text fill="#000000" font-family="sans-serif" font-size="14" lengthAdjust="spacing" textLength="131.0518" x="2762.83" y="720.0357">bool use_roi_mode</text><text fill="#000000" font-family="sans-serif" font-size="14" lengthAdjust="spacing" textLength="320.332" x="2762.83" y="736.3326">IspybExperimentType ispyb_experiment_type</text><text fill="#000000" font-family="sans-serif" font-size="14" lengthAdjust="spacing" textLength="282.3516" x="2762.83" y="752.6295">ApertureValue | None selected_aperture</text><line style="stroke:#181818;stroke-width:0.5;" x1="2757.83" x2="3088.162" y1="759.9313" y2="759.9313"/></g><!--class PinTipCentreThenXrayCentre--><g id="elem_PinTipCentreThenXrayCentre"><rect codeLine="99" fill="#F1F1F1" height="64.2969" id="PinTipCentreThenXrayCentre" rx="2.5" ry="2.5" style="stroke:#181818;stroke-width:0.5;" width="235.8955" x="2845.05" y="909.4169"/><ellipse cx="2860.05" cy="925.4169" fill="#ADD1B2" rx="11" ry="11" style="stroke:#181818;stroke-width:1;"/><path d="M2863.0188,931.0575 Q2862.4406,931.3544 2861.8,931.495 Q2861.1594,931.6513 2860.4563,931.6513 Q2857.9563,931.6513 2856.6281,930.0106 Q2855.3156,928.3544 2855.3156,925.2294 Q2855.3156,922.1044 2856.6281,920.4481 Q2857.9563,918.7919 2860.4563,918.7919 Q2861.1594,918.7919 2861.8,918.9481 Q2862.4563,919.1044 2863.0188,919.4013 L2863.0188,922.12 Q2862.3938,921.5419 2861.8,921.2763 Q2861.2063,920.995 2860.5813,920.995 Q2859.2375,920.995 2858.55,922.0731 Q2857.8625,923.1356 2857.8625,925.2294 Q2857.8625,927.3231 2858.55,928.4013 Q2859.2375,929.4638 2860.5813,929.4638 Q2861.2063,929.4638 2861.8,929.1981 Q2862.3938,928.9169 2863.0188,928.3388 L2863.0188,931.0575 Z " fill="#000000"/><text fill="#000000" font-family="sans-serif" font-size="14" lengthAdjust="spacing" textLength="203.8955" x="2874.05" y="930.2636">PinTipCentreThenXrayCentre</text><line style="stroke:#181818;stroke-width:0.5;" x1="2846.05" x2="3079.9455" y1="941.4169" y2="941.4169"/><text fill="#000000" font-family="sans-serif" font-size="14" lengthAdjust="spacing" textLength="130.498" x="2851.05" y="958.412">float tip_offset_um</text><line style="stroke:#181818;stroke-width:0.5;" x1="2846.05" x2="3079.9455" y1="965.7138" y2="965.7138"/></g><!--class WithHyperionFeatures--><g id="elem_WithHyperionFeatures"><rect codeLine="105" fill="#F1F1F1" height="64.2969" id="WithHyperionFeatures" rx="2.5" ry="2.5" style="stroke:#181818;stroke-width:0.5;" width="228.6719" x="3613.66" y="909.4169"/><ellipse cx="3646.6196" cy="925.4169" fill="#ADD1B2" rx="11" ry="11" style="stroke:#181818;stroke-width:1;"/><path d="M3649.5883,931.0575 Q3649.0102,931.3544 3648.3696,931.495 Q3647.7289,931.6513 3647.0258,931.6513 Q3644.5258,931.6513 3643.1977,930.0106 Q3641.8852,928.3544 3641.8852,925.2294 Q3641.8852,922.1044 3643.1977,920.4481 Q3644.5258,918.7919 3647.0258,918.7919 Q3647.7289,918.7919 3648.3696,918.9481 Q3649.0258,919.1044 3649.5883,919.4013 L3649.5883,922.12 Q3648.9633,921.5419 3648.3696,921.2763 Q3647.7758,920.995 3647.1508,920.995 Q3645.8071,920.995 3645.1196,922.0731 Q3644.4321,923.1356 3644.4321,925.2294 Q3644.4321,927.3231 3645.1196,928.4013 Q3645.8071,929.4638 3647.1508,929.4638 Q3647.7758,929.4638 3648.3696,929.1981 Q3648.9633,928.9169 3649.5883,928.3388 L3649.5883,931.0575 Z " fill="#000000"/><text fill="#000000" font-family="sans-serif" font-size="14" lengthAdjust="spacing" textLength="156.7617" x="3664.6106" y="930.2636">WithHyperionFeatures</text><line style="stroke:#181818;stroke-width:0.5;" x1="3614.66" x2="3841.3319" y1="941.4169" y2="941.4169"/><text fill="#000000" font-family="sans-serif" font-size="14" lengthAdjust="spacing" textLength="216.6719" x="3619.66" y="958.412">HyperionFeatureFlags features</text><line style="stroke:#181818;stroke-width:0.5;" x1="3614.66" x2="3841.3319" y1="965.7138" y2="965.7138"/></g><!--class RotationExperiment--><g id="elem_RotationExperiment"><rect codeLine="108" fill="#F1F1F1" height="96.8906" id="RotationExperiment" rx="2.5" ry="2.5" style="stroke:#181818;stroke-width:0.5;" width="332.332" x="3877.83" y="893.1269"/><ellipse cx="3969.7118" cy="909.1269" fill="#ADD1B2" rx="11" ry="11" style="stroke:#181818;stroke-width:1;"/><path d="M3972.6806,914.7675 Q3972.1025,915.0644 3971.4618,915.205 Q3970.8212,915.3613 3970.1181,915.3613 Q3967.6181,915.3613 3966.29,913.7206 Q3964.9775,912.0644 3964.9775,908.9394 Q3964.9775,905.8144 3966.29,904.1581 Q3967.6181,902.5019 3970.1181,902.5019 Q3970.8212,902.5019 3971.4618,902.6581 Q3972.1181,902.8144 3972.6806,903.1113 L3972.6806,905.83 Q3972.0556,905.2519 3971.4618,904.9863 Q3970.8681,904.705 3970.2431,904.705 Q3968.8993,904.705 3968.2118,905.7831 Q3967.5243,906.8456 3967.5243,908.9394 Q3967.5243,911.0331 3968.2118,912.1113 Q3968.8993,913.1738 3970.2431,913.1738 Q3970.8681,913.1738 3971.4618,912.9081 Q3972.0556,912.6269 3972.6806,912.0488 L3972.6806,914.7675 Z " fill="#000000"/><text fill="#000000" font-family="sans-serif" font-size="14" lengthAdjust="spacing" textLength="140.0684" x="3990.2118" y="913.9736">RotationExperiment</text><line style="stroke:#181818;stroke-width:0.5;" x1="3878.83" x2="4209.162" y1="925.1269" y2="925.1269"/><text fill="#000000" font-family="sans-serif" font-size="14" lengthAdjust="spacing" textLength="202.8018" x="3883.83" y="942.122">float shutter_opening_time_s</text><text fill="#000000" font-family="sans-serif" font-size="14" lengthAdjust="spacing" textLength="202.9385" x="3883.83" y="958.4189">float rotation_increment_deg</text><text fill="#000000" font-family="sans-serif" font-size="14" lengthAdjust="spacing" textLength="320.332" x="3883.83" y="974.7157">IspybExperimentType ispyb_experiment_type</text><line style="stroke:#181818;stroke-width:0.5;" x1="3878.83" x2="4209.162" y1="982.0175" y2="982.0175"/></g><!--class RotationScan--><g id="elem_RotationScan"><rect codeLine="113" fill="#F1F1F1" height="48" id="RotationScan" rx="2.5" ry="2.5" style="stroke:#181818;stroke-width:0.5;" width="125.2148" x="4434.39" y="1123.3469"/><ellipse cx="4449.39" cy="1139.3469" fill="#ADD1B2" rx="11" ry="11" style="stroke:#181818;stroke-width:1;"/><path d="M4452.3588,1144.9875 Q4451.7806,1145.2844 4451.14,1145.425 Q4450.4994,1145.5813 4449.7963,1145.5813 Q4447.2963,1145.5813 4445.9681,1143.9406 Q4444.6556,1142.2844 4444.6556,1139.1594 Q4444.6556,1136.0344 4445.9681,1134.3781 Q4447.2963,1132.7219 4449.7963,1132.7219 Q4450.4994,1132.7219 4451.14,1132.8781 Q4451.7963,1133.0344 4452.3588,1133.3313 L4452.3588,1136.05 Q4451.7338,1135.4719 4451.14,1135.2063 Q4450.5463,1134.925 4449.9213,1134.925 Q4448.5775,1134.925 4447.89,1136.0031 Q4447.2025,1137.0656 4447.2025,1139.1594 Q4447.2025,1141.2531 4447.89,1142.3313 Q4448.5775,1143.3938 4449.9213,1143.3938 Q4450.5463,1143.3938 4451.14,1143.1281 Q4451.7338,1142.8469 4452.3588,1142.2688 L4452.3588,1144.9875 Z " fill="#000000"/><text fill="#000000" font-family="sans-serif" font-size="14" lengthAdjust="spacing" textLength="93.2148" x="4463.39" y="1144.1936">RotationScan</text><line style="stroke:#181818;stroke-width:0.5;" x1="4435.39" x2="4558.6048" y1="1155.3469" y2="1155.3469"/><line style="stroke:#181818;stroke-width:0.5;" x1="4435.39" x2="4558.6048" y1="1163.3469" y2="1163.3469"/></g><!--class RotationScanPerSweep--><g id="elem_RotationScanPerSweep"><rect codeLine="115" fill="#F1F1F1" height="129.4844" id="RotationScanPerSweep" rx="2.5" ry="2.5" style="stroke:#181818;stroke-width:0.5;" width="263.0498" x="4245.48" y="876.8269"/><ellipse cx="4291.5166" cy="892.8269" fill="#ADD1B2" rx="11" ry="11" style="stroke:#181818;stroke-width:1;"/><path d="M4294.4854,898.4675 Q4293.9072,898.7644 4293.2666,898.905 Q4292.626,899.0613 4291.9229,899.0613 Q4289.4229,899.0613 4288.0947,897.4206 Q4286.7822,895.7644 4286.7822,892.6394 Q4286.7822,889.5144 4288.0947,887.8581 Q4289.4229,886.2019 4291.9229,886.2019 Q4292.626,886.2019 4293.2666,886.3581 Q4293.9229,886.5144 4294.4854,886.8113 L4294.4854,889.53 Q4293.8604,888.9519 4293.2666,888.6863 Q4292.6729,888.405 4292.0479,888.405 Q4290.7041,888.405 4290.0166,889.4831 Q4289.3291,890.5456 4289.3291,892.6394 Q4289.3291,894.7331 4290.0166,895.8113 Q4290.7041,896.8738 4292.0479,896.8738 Q4292.6729,896.8738 4293.2666,896.6081 Q4293.8604,896.3269 4294.4854,895.7488 L4294.4854,898.4675 Z " fill="#000000"/><text fill="#000000" font-family="sans-serif" font-size="14" lengthAdjust="spacing" textLength="162.4766" x="4312.0166" y="897.6736">RotationScanPerSweep</text><line style="stroke:#181818;stroke-width:0.5;" x1="4246.48" x2="4507.5298" y1="908.8269" y2="908.8269"/><text fill="#000000" font-family="sans-serif" font-size="14" lengthAdjust="spacing" textLength="157.1787" x="4251.48" y="925.822">float omega_start_deg</text><text fill="#000000" font-family="sans-serif" font-size="14" lengthAdjust="spacing" textLength="182.9297" x="4251.48" y="942.1189">RotationAxis rotation_axis</text><text fill="#000000" font-family="sans-serif" font-size="14" lengthAdjust="spacing" textLength="147.3213" x="4251.48" y="958.4157">float scan_width_deg</text><text fill="#000000" font-family="sans-serif" font-size="14" lengthAdjust="spacing" textLength="251.0498" x="4251.48" y="974.7126">RotationDirection rotation_direction</text><text fill="#000000" font-family="sans-serif" font-size="14" lengthAdjust="spacing" textLength="169.1279" x="4251.48" y="991.0095">int nexus_vds_start_img</text><line style="stroke:#181818;stroke-width:0.5;" x1="4246.48" x2="4507.5298" y1="998.3113" y2="998.3113"/></g><!--class HyperionThreeDGridScan--><g id="elem_HyperionThreeDGridScan"><rect codeLine="122" fill="#F1F1F1" height="48" id="HyperionThreeDGridScan" rx="2.5" ry="2.5" style="stroke:#181818;stroke-width:0.5;" width="210.001" x="3614" y="1123.3469"/><ellipse cx="3629" cy="1139.3469" fill="#ADD1B2" rx="11" ry="11" style="stroke:#181818;stroke-width:1;"/><path d="M3631.9688,1144.9875 Q3631.3906,1145.2844 3630.75,1145.425 Q3630.1094,1145.5813 3629.4063,1145.5813 Q3626.9063,1145.5813 3625.5781,1143.9406 Q3624.2656,1142.2844 3624.2656,1139.1594 Q3624.2656,1136.0344 3625.5781,1134.3781 Q3626.9063,1132.7219 3629.4063,1132.7219 Q3630.1094,1132.7219 3630.75,1132.8781 Q3631.4063,1133.0344 3631.9688,1133.3313 L3631.9688,1136.05 Q3631.3438,1135.4719 3630.75,1135.2063 Q3630.1563,1134.925 3629.5313,1134.925 Q3628.1875,1134.925 3627.5,1136.0031 Q3626.8125,1137.0656 3626.8125,1139.1594 Q3626.8125,1141.2531 3627.5,1142.3313 Q3628.1875,1143.3938 3629.5313,1143.3938 Q3630.1563,1143.3938 3630.75,1143.1281 Q3631.3438,1142.8469 3631.9688,1142.2688 L3631.9688,1144.9875 Z " fill="#000000"/><text fill="#000000" font-family="sans-serif" font-size="14" lengthAdjust="spacing" textLength="178.001" x="3643" y="1144.1936">HyperionThreeDGridScan</text><line style="stroke:#181818;stroke-width:0.5;" x1="3615" x2="3823.001" y1="1155.3469" y2="1155.3469"/><line style="stroke:#181818;stroke-width:0.5;" x1="3615" x2="3823.001" y1="1163.3469" y2="1163.3469"/></g><!--class MultiRotationScan--><g id="elem_MultiRotationScan"><rect codeLine="124" fill="#F1F1F1" height="64.2969" id="MultiRotationScan" rx="2.5" ry="2.5" style="stroke:#181818;stroke-width:0.5;" width="540.001" x="3859" y="1115.1969"/><ellipse cx="4061.0327" cy="1131.1969" fill="#ADD1B2" rx="11" ry="11" style="stroke:#181818;stroke-width:1;"/><path d="M4064.0015,1136.8375 Q4063.4233,1137.1344 4062.7827,1137.275 Q4062.1421,1137.4313 4061.439,1137.4313 Q4058.939,1137.4313 4057.6108,1135.7906 Q4056.2983,1134.1344 4056.2983,1131.0094 Q4056.2983,1127.8844 4057.6108,1126.2281 Q4058.939,1124.5719 4061.439,1124.5719 Q4062.1421,1124.5719 4062.7827,1124.7281 Q4063.439,1124.8844 4064.0015,1125.1813 L4064.0015,1127.9 Q4063.3765,1127.3219 4062.7827,1127.0563 Q4062.189,1126.775 4061.564,1126.775 Q4060.2202,1126.775 4059.5327,1127.8531 Q4058.8452,1128.9156 4058.8452,1131.0094 Q4058.8452,1133.1031 4059.5327,1134.1813 Q4060.2202,1135.2438 4061.564,1135.2438 Q4062.189,1135.2438 4062.7827,1134.9781 Q4063.3765,1134.6969 4064.0015,1134.1188 L4064.0015,1136.8375 Z " fill="#000000"/><text fill="#000000" font-family="sans-serif" font-size="14" lengthAdjust="spacing" textLength="127.4355" x="4081.5327" y="1136.0436">MultiRotationScan</text><line style="stroke:#181818;stroke-width:0.5;" x1="3860" x2="4398.001" y1="1147.1969" y2="1147.1969"/><line style="stroke:#181818;stroke-width:0.5;" x1="3860" x2="4398.001" y1="1155.1969" y2="1155.1969"/><text fill="#000000" font-family="sans-serif" font-size="14" lengthAdjust="spacing" textLength="528.001" x="3865" y="1172.192">Annotated[list[RotationScanPerSweep], Len(min_length=1)] rotation_scans</text></g><!--class LoadCentreCollect--><g id="elem_LoadCentreCollect"><rect codeLine="127" fill="#F1F1F1" height="80.5938" id="LoadCentreCollect" rx="2.5" ry="2.5" style="stroke:#181818;stroke-width:0.5;" width="338.6211" x="4543.69" y="901.2669"/><ellipse cx="4644.315" cy="917.2669" fill="#ADD1B2" rx="11" ry="11" style="stroke:#181818;stroke-width:1;"/><path d="M4647.2838,922.9075 Q4646.7056,923.2044 4646.065,923.345 Q4645.4244,923.5013 4644.7213,923.5013 Q4642.2213,923.5013 4640.8931,921.8606 Q4639.5806,920.2044 4639.5806,917.0794 Q4639.5806,913.9544 4640.8931,912.2981 Q4642.2213,910.6419 4644.7213,910.6419 Q4645.4244,910.6419 4646.065,910.7981 Q4646.7213,910.9544 4647.2838,911.2513 L4647.2838,913.97 Q4646.6588,913.3919 4646.065,913.1263 Q4645.4713,912.845 4644.8463,912.845 Q4643.5025,912.845 4642.815,913.9231 Q4642.1275,914.9856 4642.1275,917.0794 Q4642.1275,919.1731 4642.815,920.2513 Q4643.5025,921.3138 4644.8463,921.3138 Q4645.4713,921.3138 4646.065,921.0481 Q4646.6588,920.7669 4647.2838,920.1888 L4647.2838,922.9075 Z " fill="#000000"/><text fill="#000000" font-family="sans-serif" font-size="14" lengthAdjust="spacing" textLength="128.8711" x="4664.815" y="922.1136">LoadCentreCollect</text><line style="stroke:#181818;stroke-width:0.5;" x1="4544.69" x2="4881.3111" y1="933.2669" y2="933.2669"/><text fill="#000000" font-family="sans-serif" font-size="14" lengthAdjust="spacing" textLength="326.6211" x="4549.69" y="950.262">RobotLoadThenCentre robot_load_then_centre</text><text fill="#000000" font-family="sans-serif" font-size="14" lengthAdjust="spacing" textLength="269.3154" x="4549.69" y="966.5589">MultiRotationScan multi_rotation_scan</text><line style="stroke:#181818;stroke-width:0.5;" x1="4544.69" x2="4881.3111" y1="973.8606" y2="973.8606"/></g><!--reverse link XyzStarts to SpecifiedGrid--><g id="link_XyzStarts_SpecifiedGrid"><path codeLine="132" d="M704.827,210.2281 C713.657,216.4081 708.36,211.6869 718,215.7769 C906.97,296.0069 973.17,244.0769 1176,275.7769 C1345.32,302.2369 1543.81,340.1769 1642.94,359.6069 " fill="none" id="XyzStarts-backto-SpecifiedGrid" style="stroke:#181818;stroke-width:1;"/><polygon fill="none" points="690.08,199.9069,701.3866,215.1437,708.2674,205.3124,690.08,199.9069" style="stroke:#181818;stroke-width:1;"/></g><!--reverse link WithScan to SpecifiedGrid--><g id="link_WithScan_SpecifiedGrid"><path codeLine="133" d="M1706,193.1769 C1706,235.3269 1706,306.2069 1706,348.6269 " fill="none" id="WithScan-backto-SpecifiedGrid" style="stroke:#181818;stroke-width:1;"/><polygon fill="none" points="1706,175.1769,1700,193.1769,1712,193.1769,1706,175.1769" style="stroke:#181818;stroke-width:1;"/></g><!--reverse link GridCommon to GridScanWithEdgeDetect--><g id="link_GridCommon_GridScanWithEdgeDetect"><path codeLine="134" d="M3032.8546,778.5883 C3059.2146,797.1983 3072.8,807.6169 3098,827.9369 C3130.12,853.8269 3164.6,885.7969 3188.85,909.0469 " fill="none" id="GridCommon-backto-GridScanWithEdgeDetect" style="stroke:#181818;stroke-width:1;"/><polygon fill="none" points="3018.15,768.2069,3029.3942,783.4898,3036.3151,773.6867,3018.15,768.2069" style="stroke:#181818;stroke-width:1;"/></g><!--reverse link DiffractionExperimentWithSample to RotationExperiment--><g id="link_DiffractionExperimentWithSample_RotationExperiment"><path codeLine="135" d="M2997.3018,582.2534 C3196.0618,619.5134 3557.96,698.2169 3860,827.9369 C3900.61,845.3769 3942.87,870.6669 3976.64,892.8669 " fill="none" id="DiffractionExperimentWithSample-backto-RotationExperiment" style="stroke:#181818;stroke-width:1;"/><polygon fill="none" points="2979.61,578.9369,2996.1963,588.1507,2998.4073,576.3562,2979.61,578.9369" style="stroke:#181818;stroke-width:1;"/></g><!--reverse link GridCommon to PinTipCentreThenXrayCentre--><g id="link_GridCommon_PinTipCentreThenXrayCentre"><path codeLine="136" d="M2936.8239,785.9045 C2944.5539,831.5745 2951.61,873.2769 2957.68,909.0969 " fill="none" id="GridCommon-backto-PinTipCentreThenXrayCentre" style="stroke:#181818;stroke-width:1;"/><polygon fill="none" points="2933.82,768.1569,2930.9081,786.9058,2942.7398,784.9031,2933.82,768.1569" style="stroke:#181818;stroke-width:1;"/></g><!--reverse link WithScan to RotationScan--><g id="link_WithScan_RotationScan"><path codeLine="137" d="M1734.5796,189.268 C1746.6896,203.808 1752.82,207.4469 1773,215.7769 C1912.11,273.1769 4357.69,189.5269 4481,275.7769 C4557.11,329.0169 4504.18,394.0569 4557,470.4469 C4692.04,665.7469 4857.43,611.0269 4954,827.9369 C5000.87,933.2069 5030.07,1000.6469 4954,1087.1969 C4928.38,1116.3469 4679.15,1135.2869 4559.92,1142.7469 " fill="none" id="WithScan-backto-RotationScan" style="stroke:#181818;stroke-width:1;"/><polygon fill="none" points="1723.06,175.4369,1729.9692,193.1078,1739.1899,185.4281,1723.06,175.4369" style="stroke:#181818;stroke-width:1;"/></g><!--reverse link RotationScanPerSweep to RotationScan--><g id="link_RotationScanPerSweep_RotationScan"><path codeLine="138" d="M4423.9352,1022.2765 C4447.2952,1061.9365 4466.74,1094.9669 4483.31,1123.1069 " fill="none" id="RotationScanPerSweep-backto-RotationScan" style="stroke:#181818;stroke-width:1;"/><polygon fill="none" points="4414.8,1006.7669,4418.7654,1025.3215,4429.1051,1019.2314,4414.8,1006.7669" style="stroke:#181818;stroke-width:1;"/></g><!--reverse link RotationExperiment to RotationScan--><g id="link_RotationExperiment_RotationScan"><path codeLine="139" d="M4103.2701,1002.542 C4138.0001,1035.322 4175.38,1064.5369 4228,1087.1969 C4305.99,1120.7869 4334.92,1093.4369 4417,1115.1969 C4425.07,1117.3369 4433.43,1120.0369 4441.58,1122.9369 " fill="none" id="RotationExperiment-backto-RotationScan" style="stroke:#181818;stroke-width:1;"/><polygon fill="none" points="4090.18,990.1869,4099.1517,1006.9054,4107.3885,998.1786,4090.18,990.1869" style="stroke:#181818;stroke-width:1;"/></g><!--reverse link DiffractionExperiment to DiffractionExperimentWithSample--><g id="link_DiffractionExperiment_DiffractionExperimentWithSample"><path codeLine="140" d="M2829.5024,488.4343 C2834.4524,510.6043 2835.34,514.6269 2838.81,530.1669 " fill="none" id="DiffractionExperiment-backto-DiffractionExperimentWithSample" style="stroke:#181818;stroke-width:1;"/><polygon fill="none" points="2825.58,470.8669,2823.6466,489.7418,2835.3582,487.1269,2825.58,470.8669" style="stroke:#181818;stroke-width:1;"/></g><!--reverse link WithSample to DiffractionExperimentWithSample--><g id="link_WithSample_DiffractionExperimentWithSample"><path codeLine="141" d="M1619.2068,208.4309 C1630.7068,214.6609 1626.98,211.7069 1639,215.7769 C1873.99,295.3869 1954.76,210.0369 2194,275.7769 C2394.73,330.9369 2427.6,390.9669 2620,470.4469 C2672.13,491.9869 2732.09,514.0669 2776.85,530.0269 " fill="none" id="WithSample-backto-DiffractionExperimentWithSample" style="stroke:#181818;stroke-width:1;"/><polygon fill="none" points="1603.38,199.8569,1616.3488,213.7065,1622.0648,203.1553,1603.38,199.8569" style="stroke:#181818;stroke-width:1;"/></g><!--reverse link GridCommon to ThreeDGridScan--><g id="link_GridCommon_ThreeDGridScan"><path codeLine="142" d="M2857.5564,781.9259 C2839.5964,803.2559 2830.7,813.8269 2810.89,837.3569 " fill="none" id="GridCommon-backto-ThreeDGridScan" style="stroke:#181818;stroke-width:1;"/><polygon fill="none" points="2869.15,768.1569,2852.9667,778.0614,2862.146,785.7905,2869.15,768.1569" style="stroke:#181818;stroke-width:1;"/></g><!--reverse link SpecifiedGrid to ThreeDGridScan--><g id="link_SpecifiedGrid_ThreeDGridScan"><path codeLine="143" d="M1763.8489,406.3091 C1916.6589,491.3391 2428.07,775.8969 2637.36,892.3569 " fill="none" id="SpecifiedGrid-backto-ThreeDGridScan" style="stroke:#181818;stroke-width:1;"/><polygon fill="none" points="1748.12,397.5569,1760.9315,411.5521,1766.7663,401.0661,1748.12,397.5569" style="stroke:#181818;stroke-width:1;"/></g><!--reverse link SplitScan to ThreeDGridScan--><g id="link_SplitScan_ThreeDGridScan"><path codeLine="144" d="M1386.4753,190.6306 C1422.9353,247.2506 1512.97,378.3969 1626,470.4469 C1948.59,733.1469 2439.92,872.8269 2637.38,920.9669 " fill="none" id="SplitScan-backto-ThreeDGridScan" style="stroke:#181818;stroke-width:1;"/><polygon fill="none" points="1376.73,175.4969,1381.4307,193.879,1391.5198,187.3822,1376.73,175.4969" style="stroke:#181818;stroke-width:1;"/></g><!--reverse link WithOptionalEnergyChange to ThreeDGridScan--><g id="link_WithOptionalEnergyChange_ThreeDGridScan"><path codeLine="145" d="M500.6673,191.751 C697.8773,291.651 1317.27,596.1469 1875,767.9369 C2147.58,851.8969 2482.17,906.1869 2637.35,928.7069 " fill="none" id="WithOptionalEnergyChange-backto-ThreeDGridScan" style="stroke:#181818;stroke-width:1;"/><polygon fill="none" points="484.61,183.6169,497.9559,197.1034,503.3787,186.3985,484.61,183.6169" style="stroke:#181818;stroke-width:1;"/></g><!--reverse link OptionalGonioAngleStarts to RotationScanPerSweep--><g id="link_OptionalGonioAngleStarts_RotationScanPerSweep"><path codeLine="146" d="M1288.3935,214.3648 C1296.5235,217.3848 1287.86,213.7369 1296,215.7769 C1540.73,277.1769 3329.56,187.7169 3566,275.7769 C3906.58,402.6269 4209.14,735.8769 4325.88,876.5069 " fill="none" id="OptionalGonioAngleStarts-backto-RotationScanPerSweep" style="stroke:#181818;stroke-width:1;"/><polygon fill="none" points="1271.52,208.0969,1286.3042,219.9892,1290.4828,208.7403,1271.52,208.0969" style="stroke:#181818;stroke-width:1;"/></g><!--reverse link OptionalXyzStarts to RotationScanPerSweep--><g id="link_OptionalXyzStarts_RotationScanPerSweep"><path codeLine="147" d="M1961.9144,208.3124 C1974.0744,214.8124 1971.11,212.0369 1984,215.7769 C2121.54,255.6769 4460.92,173.3469 4561,275.7769 C4725.34,443.9869 4529.28,745.3169 4429.04,876.5569 " fill="none" id="OptionalXyzStarts-backto-RotationScanPerSweep" style="stroke:#181818;stroke-width:1;"/><polygon fill="none" points="1946.04,199.8269,1959.0859,213.6038,1964.7429,203.0209,1946.04,199.8269" style="stroke:#181818;stroke-width:1;"/></g><!--reverse link GridCommon to RobotLoadThenCentre--><g id="link_GridCommon_RobotLoadThenCentre"><path codeLine="148" d="M3107.145,737.2048 C3187.605,756.0648 3265.7,781.8769 3343,827.9369 C3378.3,848.9669 3410.45,883.6669 3431.16,909.0069 " fill="none" id="GridCommon-backto-RobotLoadThenCentre" style="stroke:#181818;stroke-width:1;"/><polygon fill="none" points="3089.62,733.0969,3105.7757,743.0464,3108.5143,731.3631,3089.62,733.0969" style="stroke:#181818;stroke-width:1;"/></g><!--reverse link DiffractionExperimentWithSample to GridCommon--><g id="link_DiffractionExperimentWithSample_GridCommon"><path codeLine="149" d="M2865.0509,594.5469 C2873.7109,610.6369 2877.15,617.0169 2888.55,638.1969 " fill="none" id="DiffractionExperimentWithSample-backto-GridCommon" style="stroke:#181818;stroke-width:1;"/><polygon fill="none" points="2856.52,578.6969,2859.7675,597.3906,2870.3342,591.7033,2856.52,578.6969" style="stroke:#181818;stroke-width:1;"/></g><!--reverse link OptionalGonioAngleStarts to GridCommon--><g id="link_OptionalGonioAngleStarts_GridCommon"><path codeLine="150" d="M1290.6654,214.6283 C1298.0354,217.5083 1288.68,213.5669 1296,215.7769 C1506.02,279.2569 1575.47,213.9969 1786,275.7769 C1977.25,331.8969 2004.73,396.9569 2190,470.4469 C2380.59,546.0469 2606.4,614.3669 2756.53,656.9169 " fill="none" id="OptionalGonioAngleStarts-backto-GridCommon" style="stroke:#181818;stroke-width:1;"/><polygon fill="none" points="1273.9,208.0769,1288.4816,220.2168,1292.8492,209.0399,1273.9,208.0769" style="stroke:#181818;stroke-width:1;"/></g><!--reverse link MxBlueskyParameters to DiffractionExperiment--><g id="link_MxBlueskyParameters_DiffractionExperiment"><path codeLine="151" d="M3042.3033,194.3312 C3009.9633,218.4612 2977.97,242.3269 2933.71,275.3469 " fill="none" id="MxBlueskyParameters-backto-DiffractionExperiment" style="stroke:#181818;stroke-width:1;"/><polygon fill="none" points="3056.73,183.5669,3038.7152,189.5222,3045.8914,199.1401,3056.73,183.5669" style="stroke:#181818;stroke-width:1;"/></g><!--reverse link WithSnapshot to DiffractionExperiment--><g id="link_WithSnapshot_DiffractionExperiment"><path codeLine="152" d="M982.0996,198.434 C1006.3596,208.024 1016.41,210.4269 1042,215.7769 C1387.65,288.1169 2289.81,181.0069 2630,275.7769 C2632.49,276.4769 2634.99,277.2069 2637.49,277.9869 " fill="none" id="WithSnapshot-backto-DiffractionExperiment" style="stroke:#181818;stroke-width:1;"/><polygon fill="none" points="965.36,191.8169,979.8938,204.0139,984.3053,192.8542,965.36,191.8169" style="stroke:#181818;stroke-width:1;"/></g><!--reverse link WithOptionalEnergyChange to DiffractionExperiment--><g id="link_WithOptionalEnergyChange_DiffractionExperiment"><path codeLine="153" d="M492.5956,191.9003 C516.6356,204.3803 529.9,209.0469 558,215.7769 C1005.97,323.0569 2185.72,154.1169 2630,275.7769 C2632.5,276.4669 2635,277.1869 2637.5,277.9569 " fill="none" id="WithOptionalEnergyChange-backto-DiffractionExperiment" style="stroke:#181818;stroke-width:1;"/><polygon fill="none" points="476.62,183.6069,489.8311,197.2255,495.36,186.5752,476.62,183.6069" style="stroke:#181818;stroke-width:1;"/></g><!--reverse link WithVisit to DiffractionExperiment--><g id="link_WithVisit_DiffractionExperiment"><path codeLine="154" d="M2290.3484,216.2025 C2437.6184,259.3025 2485.35,224.5869 2630,275.7769 C2632.44,276.6469 2634.89,277.5369 2637.34,278.4669 " fill="none" id="WithVisit-backto-DiffractionExperiment" style="stroke:#181818;stroke-width:1;"/><polygon fill="none" points="2273.26,210.5469,2288.4632,221.8986,2292.2336,210.5063,2273.26,210.5469" style="stroke:#181818;stroke-width:1;"/></g><!--reverse link ThreeDGridScan to HyperionThreeDGridScan--><g id="link_ThreeDGridScan_HyperionThreeDGridScan"><path codeLine="155" d="M2801.0042,1068.6978 C2812.5342,1081.1978 2813.4,1079.0969 2828,1087.1969 C2895.18,1124.4969 3392.66,1139.4969 3613.69,1144.3669 " fill="none" id="ThreeDGridScan-backto-HyperionThreeDGridScan" style="stroke:#181818;stroke-width:1;"/><polygon fill="none" points="2788.8,1055.4669,2796.5939,1072.7659,2805.4145,1064.6297,2788.8,1055.4669" style="stroke:#181818;stroke-width:1;"/></g><!--reverse link WithPandaGridScan to HyperionThreeDGridScan--><g id="link_WithPandaGridScan_HyperionThreeDGridScan"><path codeLine="156" d="M238.249,191.4049 C354.169,247.5649 553,368.7869 553,553.4469 C553,553.4469 553,553.4469 553,704.1969 C553,1020.5369 3064.31,1124.1169 3613.66,1142.9869 " fill="none" id="WithPandaGridScan-backto-HyperionThreeDGridScan" style="stroke:#181818;stroke-width:1;"/><polygon fill="none" points="222.05,183.5569,235.6331,196.8045,240.865,186.0052,222.05,183.5569" style="stroke:#181818;stroke-width:1;"/></g><!--reverse link WithHyperionFeatures to HyperionThreeDGridScan--><g id="link_WithHyperionFeatures_HyperionThreeDGridScan"><path codeLine="157" d="M3725.8179,991.9394 C3724.0079,1033.0294 3721.66,1086.1269 3720.04,1122.8569 " fill="none" id="WithHyperionFeatures-backto-HyperionThreeDGridScan" style="stroke:#181818;stroke-width:1;"/><polygon fill="none" points="3726.61,973.9569,3719.8237,991.6754,3731.8121,992.2035,3726.61,973.9569" style="stroke:#181818;stroke-width:1;"/></g><!--reverse link RotationExperiment to MultiRotationScan--><g id="link_RotationExperiment_MultiRotationScan"><path codeLine="158" d="M4070.8608,1006.9591 C4086.8608,1045.3091 4101.93,1081.4569 4115.81,1114.7269 " fill="none" id="RotationExperiment-backto-MultiRotationScan" style="stroke:#181818;stroke-width:1;"/><polygon fill="none" points="4063.93,990.3469,4065.3234,1009.2693,4076.3982,1004.6488,4063.93,990.3469" style="stroke:#181818;stroke-width:1;"/></g><!--reverse link SplitScan to MultiRotationScan--><g id="link_SplitScan_MultiRotationScan"><path codeLine="159" d="M1390.1451,189.3326 C1402.0451,203.8626 1408.02,207.4069 1428,215.7769 C1666.74,315.8369 3509.9,198.6269 3757,275.7769 C4138.28,394.8269 4136,625.0269 4509,767.9369 C4591.09,799.3869 4842.75,761.2269 4900,827.9369 C4975.05,915.3769 4979.09,1003.3969 4900,1087.1969 C4863.1,1126.2969 4470.57,1110.7569 4417,1115.1969 C4411.11,1115.6869 4405.16,1116.1969 4399.15,1116.7269 " fill="none" id="SplitScan-backto-MultiRotationScan" style="stroke:#181818;stroke-width:1;"/><polygon fill="none" points="1378.74,175.4069,1385.5032,193.1342,1394.787,185.5309,1378.74,175.4069" style="stroke:#181818;stroke-width:1;"/></g><!--reverse link MxBlueskyParameters to LoadCentreCollect--><g id="link_MxBlueskyParameters_LoadCentreCollect"><path codeLine="160" d="M3276.0099,151.8116 C3674.2899,152.8016 4672.14,166.1169 4774,275.7769 C4939.64,454.1069 4792.48,787.2069 4734.25,901.1569 " fill="none" id="MxBlueskyParameters-backto-LoadCentreCollect" style="stroke:#181818;stroke-width:1;"/><polygon fill="none" points="3258.01,151.7669,3275.995,157.8116,3276.0249,145.8116,3258.01,151.7669" style="stroke:#181818;stroke-width:1;"/></g><!--reverse link WithVisit to LoadCentreCollect--><g id="link_WithVisit_LoadCentreCollect"><path codeLine="161" d="M2290.3437,216.3868 C2416.8737,243.3868 4521.36,189.7569 4618,275.7769 C4711.51,359.0069 4714.99,770.4069 4713.68,900.8269 " fill="none" id="WithVisit-backto-LoadCentreCollect" style="stroke:#181818;stroke-width:1;"/><polygon fill="none" points="2272.99,211.6069,2288.7505,222.1714,2291.937,210.6022,2272.99,211.6069" style="stroke:#181818;stroke-width:1;"/></g><!--reverse link WithSample to LoadCentreCollect--><g id="link_WithSample_LoadCentreCollect"><path codeLine="162" d="M1617.1976,208.3822 C1629.2476,214.8722 1626.2,212.0469 1639,215.7769 C1787.31,259.0069 4301.42,175.5769 4419,275.7769 C4588.25,420.0069 4397.61,575.4869 4509,767.9369 C4541.54,824.1469 4599.5,870.5069 4645.34,900.9769 " fill="none" id="WithSample-backto-LoadCentreCollect" style="stroke:#181818;stroke-width:1;"/><polygon fill="none" points="1601.35,199.8469,1614.3525,213.6648,1620.0428,203.0997,1601.35,199.8469" style="stroke:#181818;stroke-width:1;"/></g><!--reverse link WithCentreSelection to LoadCentreCollect--><g id="link_WithCentreSelection_LoadCentreCollect"><path codeLine="163" d="M2542.1151,190.7359 C2570.9051,203.2159 2589.17,209.0269 2622,215.7769 C2735.29,239.0869 4621.78,193.4369 4703,275.7769 C4790.03,364.0169 4738.08,772.0269 4719.08,901.2169 " fill="none" id="WithCentreSelection-backto-LoadCentreCollect" style="stroke:#181818;stroke-width:1;"/><polygon fill="none" points="2525.6,183.5769,2539.7288,196.2409,2544.5014,185.2309,2525.6,183.5769" style="stroke:#181818;stroke-width:1;"/></g><!--SRC=[bLTRRzis57wsVWNVjW5BWFPvUqYTj1lGTC5iP0MAWA2bOuc8H18abLX9-zzxI8gohdQ6F4Gyz-j7-fTjmGtPyn88_cUrbHSv2D3CGaPs3Oa7gaecR5sLbwf94iijAlpLAD1S2dB7DAl0WYQtCeCoCM29G8fHB8KDA6HRgOcG0f84QOyi1r8TwAwimJmsbwciAYakLJHZo6jYPGwsG9ElILeoOyX6GSht7B9FccUloO-M_1-tnHqJ6NFaJSh4QxBQbv9PeXoLwbhKYcRSM2PIe5Krq5o3i1f3B26rc0dgRgNwyg6vPOUrh8NjECJuBvfw1JCmSiyDjwXgh2OxO5N9CKz_UdASy9c1zL5GAwaJegaKJw0nMwgOBO8G5mP9w8ug3Nj-YAby9r-mTiu6nY3rOZh_AAVCoXjiMjwi2oPoU9qOgR0m5Bm8XQVEG5J-shniBDFMZ3KFr3WwhQiHerbYl1mPqSlK-jJirDwCeHZk9ocul19v2VDHomforgfda8-ugk2BlFG4xv4frRVQxqAOmW55C6KAwORa3fjDJ7l6HchVqIPPbTZJRzx7GtJIYVaSpC3HHfNSpdXYbIfTpxcmnFW3vLauHgk1gkhqSPRE1LhyCLt0k63EpKsMmxMVngxSEucDv2_Gxz7juKDOyGuXN7isRW8jJ-_nw5QhstjQEVYWJu7UMRdc-xrcVWrl3WvoAbp2TjySSb67DJ4CE2XfQWtKeXWrGSe13EhWTckUvw0TJ14RlhtJGI4GCgYegnteP7M5_YoQksUOI5SfZmMGKTPoetEhcJ0LDovywc9ELdyRrUoEOMyHCn5faKQX8rABr12fmM50TEmDHgp2lt8dxMV9icq18k1MLtjRi6SkSf_pwRBrPoGARWiDS3t1pnm9xyBezHV0aTzFoMwBGNKJqDlaAVLbNlRzTEtx9DUXuCM4GzC_lCJ3JigIKBo2a53lgDplyVi8s2xDjRzl1edIPvxPekTwCaVURcs0QidRcVaVlNtZ7CKexxZOSXMwxFhzLRDct7EkskJ2nhc_cRkrQ2_fuUrw18nuYNy4vY9m-paYVInPZa-4bj-RHyicAnb2CqLjtJfB1IAEfIjXuEfMaNAHQl0rydFqzcgEGnZ2O9zw1thp3A2wq2QtGPI-Ek3xfmkDuQdB1ksqup7GkFOhwW2iKyiYASoaW4Djw5DcMeUyEk9tBF9u-Jheh4lBXmckheHm1CY- -SjYBj67tybd4BzMND0IH6wBFz_zzd0CqELoRA53ap1LQrcM0SndO0RLaKQn61d56q6qZw1aDOcHL8v21-xyO7QtFldZ-yN5y2sNn3jpZdTSry2TluIICrWNTASJEp6_l7UZAFjP9tEDE25sz3yZD9j9a3kJP3BEzvpyEFdXA2Q3HYn8j6-GMUxIWtHMUEarDwrGB70oUQ-Ua1sdEZFbRvkXew4p8VS4Prv19ngKz1-Cv-IMwxkiut-kd18QjYP8piDLCldrTLPwVD-SL5ZQc0dmZ4TnAh3OX0a8ZeiqBz0VYdc9qM_B1T6V]--></g></svg>