<svg xmlns="http://www.w3.org/2000/svg" xmlns:xlink="http://www.w3.org/1999/xlink" contentStyleType="text/css" data-diagram-type="CLASS" height="1189px" preserveAspectRatio="none" style="width:4074px;height:1189px;background:#FFFFFF;" version="1.1" viewBox="0 0 4074 1189" width="4074px" zoomAndPan="magnify"><title>Hyperion Parameter Model</title><defs/><g><g class="title" data-source-line="3"><text fill="#000000" font-family="sans-serif" font-size="14" font-weight="bold" lengthAdjust="spacing" textLength="212.4951" x="1923.8624" y="22.9951">Hyperion Parameter Model</text></g><!--cluster mx_bluesky.common.parameters--><g class="cluster" data-entity="mx_bluesky.common.parameters" data-source-line="6" data-uid="ent0002" id="cluster_mx_bluesky.common.parameters"><path d="M301.2,127.9269 L562.5125,127.9269 A3.75,3.75 0 0 1 565.0125,130.4269 L572.0125,150.2237 L2782.2,150.2237 A2.5,2.5 0 0 1 2784.7,152.7237 L2784.7,906.6569 A2.5,2.5 0 0 1 2782.2,909.1569 L301.2,909.1569 A2.5,2.5 0 0 1 298.7,906.6569 L298.7,130.4269 A2.5,2.5 0 0 1 301.2,127.9269" fill="none" style="stroke:#000000;stroke-width:1.5;"/><line style="stroke:#000000;stroke-width:1.5;" x1="298.7" x2="572.0125" y1="150.2237" y2="150.2237"/><text fill="#000000" font-family="sans-serif" font-size="14" font-weight="bold" lengthAdjust="spacing" textLength="260.3125" x="302.7" y="142.922">mx_bluesky.common.parameters</text></g><!--cluster mx_bluesky.hyperion.parameters--><g class="cluster" data-entity="mx_bluesky.hyperion.parameters" data-source-line="71" data-uid="ent0015" id="cluster_mx_bluesky.hyperion.parameters"><path d="M2811.2,745.1169 L3075.7322,745.1169 A3.75,3.75 0 0 1 3078.2322,747.6169 L3085.2322,767.4137 L3986.2,767.4137 A2.5,2.5 0 0 1 3988.7,769.9137 L3988.7,1179.8469 A2.5,2.5 0 0 1 3986.2,1182.3469 L2811.2,1182.3469 A2.5,2.5 0 0 1 2808.7,1179.8469 L2808.7,747.6169 A2.5,2.5 0 0 1 2811.2,745.1169" fill="none" style="stroke:#000000;stroke-width:1.5;"/><line style="stroke:#000000;stroke-width:1.5;" x1="2808.7" x2="3085.2322" y1="767.4137" y2="767.4137"/><text fill="#000000" font-family="sans-serif" font-size="14" font-weight="bold" lengthAdjust="spacing" textLength="263.5322" x="2812.7" y="760.112">mx_bluesky.hyperion.parameters</text></g><!--class WithVisit--><g class="entity" data-entity="WithVisit" data-source-line="8" data-uid="ent0003" id="entity_WithVisit"><rect fill="#F1F1F1" height="129.4844" rx="2.5" ry="2.5" style="stroke:#181818;stroke-width:0.5;" width="271.7861" x="1019.8" y="170.9269"/><ellipse cx="1120.3259" cy="186.9269" fill="#ADD1B2" rx="11" ry="11" style="stroke:#181818;stroke-width:1;"/><path d="M1123.2946,192.5675 Q1122.7165,192.8644 1122.0759,193.005 Q1121.4353,193.1612 1120.7321,193.1612 Q1118.2321,193.1612 1116.904,191.5206 Q1115.5915,189.8644 1115.5915,186.7394 Q1115.5915,183.6144 1116.904,181.9581 Q1118.2321,180.3019 1120.7321,180.3019 Q1121.4353,180.3019 1122.0759,180.4581 Q1122.7321,180.6144 1123.2946,180.9112 L1123.2946,183.63 Q1122.6696,183.0519 1122.0759,182.7862 Q1121.4821,182.505 1120.8571,182.505 Q1119.5134,182.505 1118.8259,183.5831 Q1118.1384,184.6456 1118.1384,186.7394 Q1118.1384,188.8331 1118.8259,189.9112 Q1119.5134,190.9737 1120.8571,190.9737 Q1121.4821,190.9737 1122.0759,190.7081 Q1122.6696,190.4269 1123.2946,189.8487 L1123.2946,192.5675 Z " fill="#000000"/><text fill="#000000" font-family="sans-serif" font-size="14" lengthAdjust="spacing" textLength="62.2344" x="1140.8259" y="191.7736">WithVisit</text><line style="stroke:#181818;stroke-width:0.5;" x1="1020.8" x2="1290.5861" y1="202.9269" y2="202.9269"/><text fill="#000000" font-family="sans-serif" font-size="14" lengthAdjust="spacing" textLength="87.9717" x="1025.8" y="219.922">str beamline</text><text fill="#000000" font-family="sans-serif" font-size="14" lengthAdjust="spacing" textLength="51.8369" x="1025.8" y="236.2189">str visit</text><text fill="#000000" font-family="sans-serif" font-size="14" lengthAdjust="spacing" textLength="259.7861" x="1025.8" y="252.5157">str det_dist_to_beam_converter_path</text><text fill="#000000" font-family="sans-serif" font-size="14" lengthAdjust="spacing" textLength="131.5918" x="1025.8" y="268.8126">str insertion_prefix</text><text fill="#000000" font-family="sans-serif" font-size="14" lengthAdjust="spacing" textLength="245.752" x="1025.8" y="285.1095">float | None detector_distance_mm</text><line style="stroke:#181818;stroke-width:0.5;" x1="1020.8" x2="1290.5861" y1="292.4112" y2="292.4112"/></g><!--class WithSnapshot--><g class="entity" data-entity="WithSnapshot" data-source-line="15" data-uid="ent0004" id="entity_WithSnapshot"><rect fill="#F1F1F1" height="96.8906" rx="2.5" ry="2.5" style="stroke:#181818;stroke-width:0.5;" width="289.3477" x="1327.02" y="187.2169"/><ellipse cx="1418.6728" cy="203.2169" fill="#ADD1B2" rx="11" ry="11" style="stroke:#181818;stroke-width:1;"/><path d="M1421.6416,208.8575 Q1421.0635,209.1544 1420.4228,209.295 Q1419.7822,209.4512 1419.0791,209.4512 Q1416.5791,209.4512 1415.251,207.8106 Q1413.9385,206.1544 1413.9385,203.0294 Q1413.9385,199.9044 1415.251,198.2481 Q1416.5791,196.5919 1419.0791,196.5919 Q1419.7822,196.5919 1420.4228,196.7481 Q1421.0791,196.9044 1421.6416,197.2012 L1421.6416,199.92 Q1421.0166,199.3419 1420.4228,199.0762 Q1419.8291,198.795 1419.2041,198.795 Q1417.8603,198.795 1417.1728,199.8731 Q1416.4853,200.9356 1416.4853,203.0294 Q1416.4853,205.1231 1417.1728,206.2012 Q1417.8603,207.2637 1419.2041,207.2637 Q1419.8291,207.2637 1420.4228,206.9981 Q1421.0166,206.7169 1421.6416,206.1387 L1421.6416,208.8575 Z " fill="#000000"/><text fill="#000000" font-family="sans-serif" font-size="14" lengthAdjust="spacing" textLength="97.542" x="1439.1728" y="208.0636">WithSnapshot</text><line style="stroke:#181818;stroke-width:0.5;" x1="1328.02" x2="1615.3677" y1="219.2169" y2="219.2169"/><text fill="#000000" font-family="sans-serif" font-size="14" lengthAdjust="spacing" textLength="169.627" x="1333.02" y="236.212">Path snapshot_directory</text><text fill="#000000" font-family="sans-serif" font-size="14" lengthAdjust="spacing" textLength="277.3477" x="1333.02" y="252.5089">list[float] | None snapshot_omegas_deg</text><text fill="#000000" font-family="sans-serif" font-size="14" lengthAdjust="spacing" textLength="171.7051" x="1333.02" y="268.8057">bool use_grid_snapshots</text><line style="stroke:#181818;stroke-width:0.5;" x1="1328.02" x2="1615.3677" y1="276.1075" y2="276.1075"/></g><!--class WithCentreSelection--><g class="entity" data-entity="WithCentreSelection" data-source-line="20" data-uid="ent0005" id="entity_WithCentreSelection"><rect fill="#F1F1F1" height="64.2969" rx="2.5" ry="2.5" style="stroke:#181818;stroke-width:0.5;" width="306.7861" x="678.3" y="203.5169"/><ellipse cx="755.5769" cy="219.5169" fill="#ADD1B2" rx="11" ry="11" style="stroke:#181818;stroke-width:1;"/><path d="M758.5456,225.1575 Q757.9675,225.4544 757.3269,225.595 Q756.6862,225.7512 755.9831,225.7512 Q753.4831,225.7512 752.155,224.1106 Q750.8425,222.4544 750.8425,219.3294 Q750.8425,216.2044 752.155,214.5481 Q753.4831,212.8919 755.9831,212.8919 Q756.6862,212.8919 757.3269,213.0481 Q757.9831,213.2044 758.5456,213.5012 L758.5456,216.22 Q757.9206,215.6419 757.3269,215.3762 Q756.7331,215.095 756.1081,215.095 Q754.7644,215.095 754.0769,216.1731 Q753.3894,217.2356 753.3894,219.3294 Q753.3894,221.4231 754.0769,222.5012 Q754.7644,223.5637 756.1081,223.5637 Q756.7331,223.5637 757.3269,223.2981 Q757.9206,223.0169 758.5456,222.4387 L758.5456,225.1575 Z " fill="#000000"/><text fill="#000000" font-family="sans-serif" font-size="14" lengthAdjust="spacing" textLength="143.7324" x="776.0769" y="224.3636">WithCentreSelection</text><line style="stroke:#181818;stroke-width:0.5;" x1="679.3" x2="984.0861" y1="235.5169" y2="235.5169"/><text fill="#000000" font-family="sans-serif" font-size="14" lengthAdjust="spacing" textLength="294.7861" x="684.3" y="252.512">TopNByMaxCountSelection select_centres</text><line style="stroke:#181818;stroke-width:0.5;" x1="679.3" x2="984.0861" y1="259.8137" y2="259.8137"/></g><!--class WithPandaGridScan--><g class="entity" data-entity="WithPandaGridScan" data-source-line="23" data-uid="ent0006" id="entity_WithPandaGridScan"><rect fill="#F1F1F1" height="64.2969" rx="2.5" ry="2.5" style="stroke:#181818;stroke-width:0.5;" width="240.5664" x="2387.41" y="203.5169"/><ellipse cx="2434.0072" cy="219.5169" fill="#ADD1B2" rx="11" ry="11" style="stroke:#181818;stroke-width:1;"/><path d="M2436.9759,225.1575 Q2436.3978,225.4544 2435.7572,225.595 Q2435.1165,225.7512 2434.4134,225.7512 Q2431.9134,225.7512 2430.5853,224.1106 Q2429.2728,222.4544 2429.2728,219.3294 Q2429.2728,216.2044 2430.5853,214.5481 Q2431.9134,212.8919 2434.4134,212.8919 Q2435.1165,212.8919 2435.7572,213.0481 Q2436.4134,213.2044 2436.9759,213.5012 L2436.9759,216.22 Q2436.3509,215.6419 2435.7572,215.3762 Q2435.1634,215.095 2434.5384,215.095 Q2433.1947,215.095 2432.5072,216.1731 Q2431.8197,217.2356 2431.8197,219.3294 Q2431.8197,221.4231 2432.5072,222.5012 Q2433.1947,223.5637 2434.5384,223.5637 Q2435.1634,223.5637 2435.7572,223.2981 Q2436.3509,223.0169 2436.9759,222.4387 L2436.9759,225.1575 Z " fill="#000000"/><text fill="#000000" font-family="sans-serif" font-size="14" lengthAdjust="spacing" textLength="138.8721" x="2454.5072" y="224.3636">WithPandaGridScan</text><line style="stroke:#181818;stroke-width:0.5;" x1="2388.41" x2="2626.9764" y1="235.5169" y2="235.5169"/><text fill="#000000" font-family="sans-serif" font-size="14" lengthAdjust="spacing" textLength="228.5664" x="2393.41" y="252.512">float panda_runup_distance_mm</text><line style="stroke:#181818;stroke-width:0.5;" x1="2388.41" x2="2626.9764" y1="259.8137" y2="259.8137"/></g><!--class WithOptionalEnergyChange--><g class="entity" data-entity="WithOptionalEnergyChange" data-source-line="26" data-uid="ent0007" id="entity_WithOptionalEnergyChange"><rect fill="#F1F1F1" height="64.2969" rx="2.5" ry="2.5" style="stroke:#181818;stroke-width:0.5;" width="235.4463" x="1650.97" y="203.5169"/><ellipse cx="1670.1545" cy="219.5169" fill="#ADD1B2" rx="11" ry="11" style="stroke:#181818;stroke-width:1;"/><path d="M1673.1232,225.1575 Q1672.5451,225.4544 1671.9045,225.595 Q1671.2638,225.7512 1670.5607,225.7512 Q1668.0607,225.7512 1666.7326,224.1106 Q1665.4201,222.4544 1665.4201,219.3294 Q1665.4201,216.2044 1666.7326,214.5481 Q1668.0607,212.8919 1670.5607,212.8919 Q1671.2638,212.8919 1671.9045,213.0481 Q1672.5607,213.2044 1673.1232,213.5012 L1673.1232,216.22 Q1672.4982,215.6419 1671.9045,215.3762 Q1671.3107,215.095 1670.6857,215.095 Q1669.342,215.095 1668.6545,216.1731 Q1667.967,217.2356 1667.967,219.3294 Q1667.967,221.4231 1668.6545,222.5012 Q1669.342,223.5637 1670.6857,223.5637 Q1671.3107,223.5637 1671.9045,223.2981 Q1672.4982,223.0169 1673.1232,222.4387 L1673.1232,225.1575 Z " fill="#000000"/><text fill="#000000" font-family="sans-serif" font-size="14" lengthAdjust="spacing" textLength="194.1475" x="1685.0844" y="224.3636">WithOptionalEnergyChange</text><line style="stroke:#181818;stroke-width:0.5;" x1="1651.97" x2="1885.4163" y1="235.5169" y2="235.5169"/><text fill="#000000" font-family="sans-serif" font-size="14" lengthAdjust="spacing" textLength="223.4463" x="1656.97" y="252.512">float | None demand_energy_ev</text><line style="stroke:#181818;stroke-width:0.5;" x1="1651.97" x2="1885.4163" y1="259.8137" y2="259.8137"/></g><!--class WithSample--><g class="entity" data-entity="WithSample" data-source-line="29" data-uid="ent0008" id="entity_WithSample"><rect fill="#F1F1F1" height="96.8906" rx="2.5" ry="2.5" style="stroke:#181818;stroke-width:0.5;" width="176.3086" x="1921.54" y="187.2169"/><ellipse cx="1963.4143" cy="203.2169" fill="#ADD1B2" rx="11" ry="11" style="stroke:#181818;stroke-width:1;"/><path d="M1966.3831,208.8575 Q1965.8049,209.1544 1965.1643,209.295 Q1964.5237,209.4512 1963.8206,209.4512 Q1961.3206,209.4512 1959.9924,207.8106 Q1958.6799,206.1544 1958.6799,203.0294 Q1958.6799,199.9044 1959.9924,198.2481 Q1961.3206,196.5919 1963.8206,196.5919 Q1964.5237,196.5919 1965.1643,196.7481 Q1965.8206,196.9044 1966.3831,197.2012 L1966.3831,199.92 Q1965.7581,199.3419 1965.1643,199.0762 Q1964.5706,198.795 1963.9456,198.795 Q1962.6018,198.795 1961.9143,199.8731 Q1961.2268,200.9356 1961.2268,203.0294 Q1961.2268,205.1231 1961.9143,206.2012 Q1962.6018,207.2637 1963.9456,207.2637 Q1964.5706,207.2637 1965.1643,206.9981 Q1965.7581,206.7169 1966.3831,206.1387 L1966.3831,208.8575 Z " fill="#000000"/><text fill="#000000" font-family="sans-serif" font-size="14" lengthAdjust="spacing" textLength="84.5879" x="1983.3864" y="208.0636">WithSample</text><line style="stroke:#181818;stroke-width:0.5;" x1="1922.54" x2="2096.8486" y1="219.2169" y2="219.2169"/><text fill="#000000" font-family="sans-serif" font-size="14" lengthAdjust="spacing" textLength="93.3789" x="1927.54" y="236.212">int sample_id</text><text fill="#000000" font-family="sans-serif" font-size="14" lengthAdjust="spacing" textLength="164.3086" x="1927.54" y="252.5089">int | None sample_puck</text><text fill="#000000" font-family="sans-serif" font-size="14" lengthAdjust="spacing" textLength="152.3936" x="1927.54" y="268.8057">int | None sample_pin</text><line style="stroke:#181818;stroke-width:0.5;" x1="1922.54" x2="2096.8486" y1="276.1075" y2="276.1075"/></g><!--class OptionalGonioAngleStarts--><g class="entity" data-entity="OptionalGonioAngleStarts" data-source-line="34" data-uid="ent0009" id="entity_OptionalGonioAngleStarts"><rect fill="#F1F1F1" height="113.1875" rx="2.5" ry="2.5" style="stroke:#181818;stroke-width:0.5;" width="219.3203" x="2133.04" y="179.0769"/><ellipse cx="2150.7633" cy="195.0769" fill="#ADD1B2" rx="11" ry="11" style="stroke:#181818;stroke-width:1;"/><path d="M2153.732,200.7175 Q2153.1539,201.0144 2152.5133,201.155 Q2151.8727,201.3112 2151.1695,201.3112 Q2148.6695,201.3112 2147.3414,199.6706 Q2146.0289,198.0144 2146.0289,194.8894 Q2146.0289,191.7644 2147.3414,190.1081 Q2148.6695,188.4519 2151.1695,188.4519 Q2151.8727,188.4519 2152.5133,188.6081 Q2153.1695,188.7644 2153.732,189.0612 L2153.732,191.78 Q2153.107,191.2019 2152.5133,190.9362 Q2151.9195,190.655 2151.2945,190.655 Q2149.9508,190.655 2149.2633,191.7331 Q2148.5758,192.7956 2148.5758,194.8894 Q2148.5758,196.9831 2149.2633,198.0612 Q2149.9508,199.1237 2151.2945,199.1237 Q2151.9195,199.1237 2152.5133,198.8581 Q2153.107,198.5769 2153.732,197.9987 L2153.732,200.7175 Z " fill="#000000"/><text fill="#000000" font-family="sans-serif" font-size="14" lengthAdjust="spacing" textLength="181.2686" x="2165.3685" y="199.9236">OptionalGonioAngleStarts</text><line style="stroke:#181818;stroke-width:0.5;" x1="2134.04" x2="2351.3603" y1="211.0769" y2="211.0769"/><text fill="#000000" font-family="sans-serif" font-size="14" lengthAdjust="spacing" textLength="207.3203" x="2139.04" y="228.072">float | None omega_start_deg</text><text fill="#000000" font-family="sans-serif" font-size="14" lengthAdjust="spacing" textLength="180.6875" x="2139.04" y="244.3689">float | None phi_start_deg</text><text fill="#000000" font-family="sans-serif" font-size="14" lengthAdjust="spacing" textLength="179.498" x="2139.04" y="260.6657">float | None chi_start_deg</text><text fill="#000000" font-family="sans-serif" font-size="14" lengthAdjust="spacing" textLength="202.0771" x="2139.04" y="276.9626">float | None kappa_start_deg</text><line style="stroke:#181818;stroke-width:0.5;" x1="2134.04" x2="2351.3603" y1="284.2644" y2="284.2644"/></g><!--class SplitScan--><g class="entity" data-entity="SplitScan" data-source-line="40" data-uid="ent0010" id="entity_SplitScan"><rect fill="#F1F1F1" height="48" rx="2.5" ry="2.5" style="stroke:#181818;stroke-width:0.5;" width="97.0781" x="2663.16" y="211.6669"/><ellipse cx="2678.16" cy="227.6669" fill="#ADD1B2" rx="11" ry="11" style="stroke:#181818;stroke-width:1;"/><path d="M2681.1288,233.3075 Q2680.5506,233.6044 2679.91,233.745 Q2679.2694,233.9013 2678.5663,233.9013 Q2676.0663,233.9013 2674.7381,232.2606 Q2673.4256,230.6044 2673.4256,227.4794 Q2673.4256,224.3544 2674.7381,222.6981 Q2676.0663,221.0419 2678.5663,221.0419 Q2679.2694,221.0419 2679.91,221.1981 Q2680.5663,221.3544 2681.1288,221.6513 L2681.1288,224.37 Q2680.5038,223.7919 2679.91,223.5263 Q2679.3163,223.245 2678.6913,223.245 Q2677.3475,223.245 2676.66,224.3231 Q2675.9725,225.3856 2675.9725,227.4794 Q2675.9725,229.5731 2676.66,230.6513 Q2677.3475,231.7138 2678.6913,231.7138 Q2679.3163,231.7138 2679.91,231.4481 Q2680.5038,231.1669 2681.1288,230.5888 L2681.1288,233.3075 Z " fill="#000000"/><text fill="#000000" font-family="sans-serif" font-size="14" lengthAdjust="spacing" textLength="65.0781" x="2692.16" y="232.5136">SplitScan</text><line style="stroke:#181818;stroke-width:0.5;" x1="2664.16" x2="2759.2381" y1="243.6669" y2="243.6669"/><line style="stroke:#181818;stroke-width:0.5;" x1="2664.16" x2="2759.2381" y1="251.6669" y2="251.6669"/></g><!--class DiffractionExperimentWithSample--><g class="entity" data-entity="DiffractionExperimentWithSample" data-source-line="44" data-uid="ent0011" id="entity_DiffractionExperimentWithSample"><rect fill="#F1F1F1" height="48" rx="2.5" ry="2.5" style="stroke:#181818;stroke-width:0.5;" width="270.8545" x="353.27" y="631.3769"/><ellipse cx="368.27" cy="647.3769" fill="#ADD1B2" rx="11" ry="11" style="stroke:#181818;stroke-width:1;"/><path d="M371.2388,653.0175 Q370.6606,653.3144 370.02,653.455 Q369.3794,653.6112 368.6763,653.6112 Q366.1763,653.6112 364.8481,651.9706 Q363.5356,650.3144 363.5356,647.1894 Q363.5356,644.0644 364.8481,642.4081 Q366.1763,640.7519 368.6763,640.7519 Q369.3794,640.7519 370.02,640.9081 Q370.6763,641.0644 371.2388,641.3612 L371.2388,644.08 Q370.6138,643.5019 370.02,643.2362 Q369.4263,642.955 368.8013,642.955 Q367.4575,642.955 366.77,644.0331 Q366.0825,645.0956 366.0825,647.1894 Q366.0825,649.2831 366.77,650.3612 Q367.4575,651.4237 368.8013,651.4237 Q369.4263,651.4237 370.02,651.1581 Q370.6138,650.8769 371.2388,650.2987 L371.2388,653.0175 Z " fill="#000000"/><text fill="#000000" font-family="sans-serif" font-size="14" lengthAdjust="spacing" textLength="238.8545" x="382.27" y="652.2236">DiffractionExperimentWithSample</text><line style="stroke:#181818;stroke-width:0.5;" x1="354.27" x2="623.1245" y1="663.3769" y2="663.3769"/><line style="stroke:#181818;stroke-width:0.5;" x1="354.27" x2="623.1245" y1="671.3769" y2="671.3769"/></g><!--class GridCommon--><g class="entity" data-entity="GridCommon" data-source-line="46" data-uid="ent0012" id="entity_GridCommon"><rect fill="#F1F1F1" height="145.7813" rx="2.5" ry="2.5" style="stroke:#181818;stroke-width:0.5;" width="332.332" x="322.53" y="739.3769"/><ellipse cx="438.2282" cy="755.3769" fill="#ADD1B2" rx="11" ry="11" style="stroke:#181818;stroke-width:1;"/><path d="M441.197,761.0175 Q440.6189,761.3144 439.9782,761.455 Q439.3376,761.6112 438.6345,761.6112 Q436.1345,761.6112 434.8064,759.9706 Q433.4939,758.3144 433.4939,755.1894 Q433.4939,752.0644 434.8064,750.4081 Q436.1345,748.7519 438.6345,748.7519 Q439.3376,748.7519 439.9782,748.9081 Q440.6345,749.0644 441.197,749.3612 L441.197,752.08 Q440.572,751.5019 439.9782,751.2362 Q439.3845,750.955 438.7595,750.955 Q437.4157,750.955 436.7282,752.0331 Q436.0407,753.0956 436.0407,755.1894 Q436.0407,757.2831 436.7282,758.3612 Q437.4157,759.4237 438.7595,759.4237 Q439.3845,759.4237 439.9782,759.1581 Q440.572,758.8769 441.197,758.2987 L441.197,761.0175 Z " fill="#000000"/><text fill="#000000" font-family="sans-serif" font-size="14" lengthAdjust="spacing" textLength="92.4355" x="458.7282" y="760.2236">GridCommon</text><line style="stroke:#181818;stroke-width:0.5;" x1="323.53" x2="653.862" y1="771.3769" y2="771.3769"/><text fill="#000000" font-family="sans-serif" font-size="14" lengthAdjust="spacing" textLength="125.2959" x="328.53" y="788.372">float box_size_um</text><text fill="#000000" font-family="sans-serif" font-size="14" lengthAdjust="spacing" textLength="138.4209" x="328.53" y="804.6689">float grid_width_um</text><text fill="#000000" font-family="sans-serif" font-size="14" lengthAdjust="spacing" textLength="153.7129" x="328.53" y="820.9657">float exposure_time_s</text><text fill="#000000" font-family="sans-serif" font-size="14" lengthAdjust="spacing" textLength="320.332" x="328.53" y="837.2626">IspybExperimentType ispyb_experiment_type</text><text fill="#000000" font-family="sans-serif" font-size="14" lengthAdjust="spacing" textLength="282.3516" x="328.53" y="853.5595">ApertureValue | None selected_aperture</text><text fill="#000000" font-family="sans-serif" font-size="14" lengthAdjust="spacing" textLength="130.498" x="328.53" y="869.8564">float tip_offset_um</text><line style="stroke:#181818;stroke-width:0.5;" x1="323.53" x2="653.862" y1="877.1581" y2="877.1581"/></g><!--class DiffractionExperiment--><g class="entity" data-entity="DiffractionExperiment" data-source-line="54" data-uid="ent0013" id="entity_DiffractionExperiment"><rect fill="#F1F1F1" height="210.9688" rx="2.5" ry="2.5" style="stroke:#181818;stroke-width:0.5;" width="332.332" x="322.53" y="360.4069"/><ellipse cx="407.3127" cy="376.4069" fill="#ADD1B2" rx="11" ry="11" style="stroke:#181818;stroke-width:1;"/><path d="M410.2815,382.0475 Q409.7033,382.3444 409.0627,382.485 Q408.4221,382.6412 407.719,382.6412 Q405.219,382.6412 403.8908,381.0006 Q402.5783,379.3444 402.5783,376.2194 Q402.5783,373.0944 403.8908,371.4381 Q405.219,369.7819 407.719,369.7819 Q408.4221,369.7819 409.0627,369.9381 Q409.719,370.0944 410.2815,370.3912 L410.2815,373.11 Q409.6565,372.5319 409.0627,372.2662 Q408.469,371.985 407.844,371.985 Q406.5002,371.985 405.8127,373.0631 Q405.1252,374.1256 405.1252,376.2194 Q405.1252,378.3131 405.8127,379.3912 Q406.5002,380.4537 407.844,380.4537 Q408.469,380.4537 409.0627,380.1881 Q409.6565,379.9069 410.2815,379.3287 L410.2815,382.0475 Z " fill="#000000"/><text fill="#000000" font-family="sans-serif" font-size="14" lengthAdjust="spacing" textLength="154.2666" x="427.8127" y="381.2536">DiffractionExperiment</text><line style="stroke:#181818;stroke-width:0.5;" x1="323.53" x2="653.862" y1="392.4069" y2="392.4069"/><text fill="#000000" font-family="sans-serif" font-size="14" lengthAdjust="spacing" textLength="91.0137" x="328.53" y="409.402">str file_name</text><text fill="#000000" font-family="sans-serif" font-size="14" lengthAdjust="spacing" textLength="153.7129" x="328.53" y="425.6989">float exposure_time_s</text><text fill="#000000" font-family="sans-serif" font-size="14" lengthAdjust="spacing" textLength="89.5029" x="328.53" y="441.9957">str comment</text><text fill="#000000" font-family="sans-serif" font-size="14" lengthAdjust="spacing" textLength="186.915" x="328.53" y="458.2926">TriggerMode trigger_mode</text><text fill="#000000" font-family="sans-serif" font-size="14" lengthAdjust="spacing" textLength="157.9854" x="328.53" y="474.5895">int | None run_number</text><text fill="#000000" font-family="sans-serif" font-size="14" lengthAdjust="spacing" textLength="282.3516" x="328.53" y="490.8864">ApertureValue | None selected_aperture</text><text fill="#000000" font-family="sans-serif" font-size="14" lengthAdjust="spacing" textLength="159.2979" x="328.53" y="507.1832">float transmission_frac</text><text fill="#000000" font-family="sans-serif" font-size="14" lengthAdjust="spacing" textLength="320.332" x="328.53" y="523.4801">IspybExperimentType ispyb_experiment_type</text><text fill="#000000" font-family="sans-serif" font-size="14" lengthAdjust="spacing" textLength="146.1113" x="328.53" y="539.777">str storage_directory</text><text fill="#000000" font-family="sans-serif" font-size="14" lengthAdjust="spacing" textLength="131.0518" x="328.53" y="556.0739">bool use_roi_mode</text><line style="stroke:#181818;stroke-width:0.5;" x1="323.53" x2="653.862" y1="563.3756" y2="563.3756"/></g><!--class MxBlueskyParameters--><g class="entity" data-entity="MxBlueskyParameters" data-source-line="66" data-uid="ent0014" id="entity_MxBlueskyParameters"><rect fill="#F1F1F1" height="64.2969" rx="2.5" ry="2.5" style="stroke:#181818;stroke-width:0.5;" width="317.4639" x="325.97" y="203.5169"/><ellipse cx="402.5564" cy="219.5169" fill="#ADD1B2" rx="11" ry="11" style="stroke:#181818;stroke-width:1;"/><path d="M405.5252,225.1575 Q404.9471,225.4544 404.3064,225.595 Q403.6658,225.7512 402.9627,225.7512 Q400.4627,225.7512 399.1346,224.1106 Q397.8221,222.4544 397.8221,219.3294 Q397.8221,216.2044 399.1346,214.5481 Q400.4627,212.8919 402.9627,212.8919 Q403.6658,212.8919 404.3064,213.0481 Q404.9627,213.2044 405.5252,213.5012 L405.5252,216.22 Q404.9002,215.6419 404.3064,215.3762 Q403.7127,215.095 403.0877,215.095 Q401.7439,215.095 401.0564,216.1731 Q400.3689,217.2356 400.3689,219.3294 Q400.3689,221.4231 401.0564,222.5012 Q401.7439,223.5637 403.0877,223.5637 Q403.7127,223.5637 404.3064,223.2981 Q404.9002,223.0169 405.5252,222.4387 L405.5252,225.1575 Z " fill="#000000"/><text fill="#000000" font-family="sans-serif" font-size="14" lengthAdjust="spacing" textLength="155.791" x="423.0564" y="224.3636">MxBlueskyParameters</text><line style="stroke:#181818;stroke-width:0.5;" x1="326.97" x2="642.4339" y1="235.5169" y2="235.5169"/><text fill="#000000" font-family="sans-serif" font-size="14" lengthAdjust="spacing" textLength="305.4639" x="331.97" y="252.512">SemanticVersion parameter_model_version</text><line style="stroke:#181818;stroke-width:0.5;" x1="326.97" x2="642.4339" y1="259.8137" y2="259.8137"/></g><!--class WithHyperionUDCFeatures--><g class="entity" data-entity="WithHyperionUDCFeatures" data-source-line="72" data-uid="ent0016" id="entity_WithHyperionUDCFeatures"><rect fill="#F1F1F1" height="64.2969" rx="2.5" ry="2.5" style="stroke:#181818;stroke-width:0.5;" width="228.6719" x="3311.36" y="780.1169"/><ellipse cx="3330.4583" cy="796.1169" fill="#ADD1B2" rx="11" ry="11" style="stroke:#181818;stroke-width:1;"/><path d="M3333.4271,801.7575 Q3332.849,802.0544 3332.2083,802.195 Q3331.5677,802.3512 3330.8646,802.3512 Q3328.3646,802.3512 3327.0365,800.7106 Q3325.724,799.0544 3325.724,795.9294 Q3325.724,792.8044 3327.0365,791.1481 Q3328.3646,789.4919 3330.8646,789.4919 Q3331.5677,789.4919 3332.2083,789.6481 Q3332.8646,789.8044 3333.4271,790.1012 L3333.4271,792.82 Q3332.8021,792.2419 3332.2083,791.9762 Q3331.6146,791.695 3330.9896,791.695 Q3329.6458,791.695 3328.9583,792.7731 Q3328.2708,793.8356 3328.2708,795.9294 Q3328.2708,798.0231 3328.9583,799.1012 Q3329.6458,800.1637 3330.9896,800.1637 Q3331.6146,800.1637 3332.2083,799.8981 Q3332.8021,799.6169 3333.4271,799.0387 L3333.4271,801.7575 Z " fill="#000000"/><text fill="#000000" font-family="sans-serif" font-size="14" lengthAdjust="spacing" textLength="187.5645" x="3345.3691" y="800.9636">WithHyperionUDCFeatures</text><line style="stroke:#181818;stroke-width:0.5;" x1="3312.36" x2="3539.0319" y1="812.1169" y2="812.1169"/><text fill="#000000" font-family="sans-serif" font-size="14" lengthAdjust="spacing" textLength="216.6719" x="3317.36" y="829.112">HyperionFeatureFlags features</text><line style="stroke:#181818;stroke-width:0.5;" x1="3312.36" x2="3539.0319" y1="836.4137" y2="836.4137"/></g><!--class RotationExperiment--><g class="entity" data-entity="RotationExperiment" data-source-line="75" data-uid="ent0017" id="entity_RotationExperiment"><rect fill="#F1F1F1" height="96.8906" rx="2.5" ry="2.5" style="stroke:#181818;stroke-width:0.5;" width="332.332" x="3193.53" y="945.1569"/><ellipse cx="3285.4118" cy="961.1569" fill="#ADD1B2" rx="11" ry="11" style="stroke:#181818;stroke-width:1;"/><path d="M3288.3806,966.7975 Q3287.8025,967.0944 3287.1618,967.235 Q3286.5212,967.3912 3285.8181,967.3912 Q3283.3181,967.3912 3281.99,965.7506 Q3280.6775,964.0944 3280.6775,960.9694 Q3280.6775,957.8444 3281.99,956.1881 Q3283.3181,954.5319 3285.8181,954.5319 Q3286.5212,954.5319 3287.1618,954.6881 Q3287.8181,954.8444 3288.3806,955.1412 L3288.3806,957.86 Q3287.7556,957.2819 3287.1618,957.0162 Q3286.5681,956.735 3285.9431,956.735 Q3284.5993,956.735 3283.9118,957.8131 Q3283.2243,958.8756 3283.2243,960.9694 Q3283.2243,963.0631 3283.9118,964.1412 Q3284.5993,965.2037 3285.9431,965.2037 Q3286.5681,965.2037 3287.1618,964.9381 Q3287.7556,964.6569 3288.3806,964.0787 L3288.3806,966.7975 Z " fill="#000000"/><text fill="#000000" font-family="sans-serif" font-size="14" lengthAdjust="spacing" textLength="140.0684" x="3305.9118" y="966.0036">RotationExperiment</text><line style="stroke:#181818;stroke-width:0.5;" x1="3194.53" x2="3524.862" y1="977.1569" y2="977.1569"/><text fill="#000000" font-family="sans-serif" font-size="14" lengthAdjust="spacing" textLength="202.8018" x="3199.53" y="994.152">float shutter_opening_time_s</text><text fill="#000000" font-family="sans-serif" font-size="14" lengthAdjust="spacing" textLength="202.9385" x="3199.53" y="1010.4489">float rotation_increment_deg</text><text fill="#000000" font-family="sans-serif" font-size="14" lengthAdjust="spacing" textLength="320.332" x="3199.53" y="1026.7457">IspybExperimentType ispyb_experiment_type</text><line style="stroke:#181818;stroke-width:0.5;" x1="3194.53" x2="3524.862" y1="1034.0475" y2="1034.0475"/></g><!--class LoadCentreCollect--><g class="entity" data-entity="LoadCentreCollect" data-source-line="80" data-uid="ent0018" id="entity_LoadCentreCollect"><rect fill="#F1F1F1" height="80.5938" rx="2.5" ry="2.5" style="stroke:#181818;stroke-width:0.5;" width="338.6211" x="3560.39" y="953.3069"/><ellipse cx="3661.015" cy="969.3069" fill="#ADD1B2" rx="11" ry="11" style="stroke:#181818;stroke-width:1;"/><path d="M3663.9838,974.9475 Q3663.4056,975.2444 3662.765,975.385 Q3662.1244,975.5413 3661.4213,975.5413 Q3658.9213,975.5413 3657.5931,973.9006 Q3656.2806,972.2444 3656.2806,969.1194 Q3656.2806,965.9944 3657.5931,964.3381 Q3658.9213,962.6819 3661.4213,962.6819 Q3662.1244,962.6819 3662.765,962.8381 Q3663.4213,962.9944 3663.9838,963.2913 L3663.9838,966.01 Q3663.3588,965.4319 3662.765,965.1663 Q3662.1713,964.885 3661.5463,964.885 Q3660.2025,964.885 3659.515,965.9631 Q3658.8275,967.0256 3658.8275,969.1194 Q3658.8275,971.2131 3659.515,972.2913 Q3660.2025,973.3538 3661.5463,973.3538 Q3662.1713,973.3538 3662.765,973.0881 Q3663.3588,972.8069 3663.9838,972.2288 L3663.9838,974.9475 Z " fill="#000000"/><text fill="#000000" font-family="sans-serif" font-size="14" lengthAdjust="spacing" textLength="128.8711" x="3681.515" y="974.1536">LoadCentreCollect</text><line style="stroke:#181818;stroke-width:0.5;" x1="3561.39" x2="3898.0111" y1="985.3069" y2="985.3069"/><text fill="#000000" font-family="sans-serif" font-size="14" lengthAdjust="spacing" textLength="326.6211" x="3566.39" y="1002.302">RobotLoadThenCentre robot_load_then_centre</text><text fill="#000000" font-family="sans-serif" font-size="14" lengthAdjust="spacing" textLength="235.0947" x="3566.39" y="1018.5989">RotationScan multi_rotation_scan</text><line style="stroke:#181818;stroke-width:0.5;" x1="3561.39" x2="3898.0111" y1="1025.9006" y2="1025.9006"/></g><!--class GridScanWithEdgeDetect--><g class="entity" data-entity="GridScanWithEdgeDetect" data-source-line="84" data-uid="ent0019" id="entity_GridScanWithEdgeDetect"><rect fill="#F1F1F1" height="48" rx="2.5" ry="2.5" style="stroke:#181818;stroke-width:0.5;" width="209.4268" x="3170.98" y="1110.1969"/><ellipse cx="3185.98" cy="1126.1969" fill="#ADD1B2" rx="11" ry="11" style="stroke:#181818;stroke-width:1;"/><path d="M3188.9488,1131.8375 Q3188.3706,1132.1344 3187.73,1132.275 Q3187.0894,1132.4313 3186.3863,1132.4313 Q3183.8863,1132.4313 3182.5581,1130.7906 Q3181.2456,1129.1344 3181.2456,1126.0094 Q3181.2456,1122.8844 3182.5581,1121.2281 Q3183.8863,1119.5719 3186.3863,1119.5719 Q3187.0894,1119.5719 3187.73,1119.7281 Q3188.3863,1119.8844 3188.9488,1120.1813 L3188.9488,1122.9 Q3188.3238,1122.3219 3187.73,1122.0563 Q3187.1363,1121.775 3186.5113,1121.775 Q3185.1675,1121.775 3184.48,1122.8531 Q3183.7925,1123.9156 3183.7925,1126.0094 Q3183.7925,1128.1031 3184.48,1129.1813 Q3185.1675,1130.2438 3186.5113,1130.2438 Q3187.1363,1130.2438 3187.73,1129.9781 Q3188.3238,1129.6969 3188.9488,1129.1188 L3188.9488,1131.8375 Z " fill="#000000"/><text fill="#000000" font-family="sans-serif" font-size="14" lengthAdjust="spacing" textLength="177.4268" x="3199.98" y="1131.0436">GridScanWithEdgeDetect</text><line style="stroke:#181818;stroke-width:0.5;" x1="3171.98" x2="3379.4068" y1="1142.1969" y2="1142.1969"/><line style="stroke:#181818;stroke-width:0.5;" x1="3171.98" x2="3379.4068" y1="1150.1969" y2="1150.1969"/></g><!--class GridCommonWithHyperionDetectorParams--><g class="entity" data-entity="GridCommonWithHyperionDetectorParams" data-source-line="86" data-uid="ent0020" id="entity_GridCommonWithHyperionDetectorParams"><rect fill="#F1F1F1" height="48" rx="2.5" ry="2.5" style="stroke:#181818;stroke-width:0.5;" width="333.2188" x="2825.09" y="969.6069"/><ellipse cx="2840.09" cy="985.6069" fill="#ADD1B2" rx="11" ry="11" style="stroke:#181818;stroke-width:1;"/><path d="M2843.0588,991.2475 Q2842.4806,991.5444 2841.84,991.685 Q2841.1994,991.8413 2840.4963,991.8413 Q2837.9963,991.8413 2836.6681,990.2006 Q2835.3556,988.5444 2835.3556,985.4194 Q2835.3556,982.2944 2836.6681,980.6381 Q2837.9963,978.9819 2840.4963,978.9819 Q2841.1994,978.9819 2841.84,979.1381 Q2842.4963,979.2944 2843.0588,979.5913 L2843.0588,982.31 Q2842.4338,981.7319 2841.84,981.4663 Q2841.2463,981.185 2840.6213,981.185 Q2839.2775,981.185 2838.59,982.2631 Q2837.9025,983.3256 2837.9025,985.4194 Q2837.9025,987.5131 2838.59,988.5913 Q2839.2775,989.6538 2840.6213,989.6538 Q2841.2463,989.6538 2841.84,989.3881 Q2842.4338,989.1069 2843.0588,988.5288 L2843.0588,991.2475 Z " fill="#000000"/><text fill="#000000" font-family="sans-serif" font-size="14" lengthAdjust="spacing" textLength="301.2188" x="2854.09" y="990.4536">GridCommonWithHyperionDetectorParams</text><line style="stroke:#181818;stroke-width:0.5;" x1="2826.09" x2="3157.3088" y1="1001.6069" y2="1001.6069"/><line style="stroke:#181818;stroke-width:0.5;" x1="2826.09" x2="3157.3088" y1="1009.6069" y2="1009.6069"/></g><!--class RotationScan--><g class="entity" data-entity="RotationScan" data-source-line="88" data-uid="ent0021" id="entity_RotationScan"><rect fill="#F1F1F1" height="64.2969" rx="2.5" ry="2.5" style="stroke:#181818;stroke-width:0.5;" width="540.001" x="3426.7" y="1102.0469"/><ellipse cx="3645.8431" cy="1118.0469" fill="#ADD1B2" rx="11" ry="11" style="stroke:#181818;stroke-width:1;"/><path d="M3648.8118,1123.6875 Q3648.2337,1123.9844 3647.5931,1124.125 Q3646.9524,1124.2813 3646.2493,1124.2813 Q3643.7493,1124.2813 3642.4212,1122.6406 Q3641.1087,1120.9844 3641.1087,1117.8594 Q3641.1087,1114.7344 3642.4212,1113.0781 Q3643.7493,1111.4219 3646.2493,1111.4219 Q3646.9524,1111.4219 3647.5931,1111.5781 Q3648.2493,1111.7344 3648.8118,1112.0313 L3648.8118,1114.75 Q3648.1868,1114.1719 3647.5931,1113.9063 Q3646.9993,1113.625 3646.3743,1113.625 Q3645.0306,1113.625 3644.3431,1114.7031 Q3643.6556,1115.7656 3643.6556,1117.8594 Q3643.6556,1119.9531 3644.3431,1121.0313 Q3645.0306,1122.0938 3646.3743,1122.0938 Q3646.9993,1122.0938 3647.5931,1121.8281 Q3648.1868,1121.5469 3648.8118,1120.9688 L3648.8118,1123.6875 Z " fill="#000000"/><text fill="#000000" font-family="sans-serif" font-size="14" lengthAdjust="spacing" textLength="93.2148" x="3666.3431" y="1122.8936">RotationScan</text><line style="stroke:#181818;stroke-width:0.5;" x1="3427.7" x2="3965.701" y1="1134.0469" y2="1134.0469"/><line style="stroke:#181818;stroke-width:0.5;" x1="3427.7" x2="3965.701" y1="1142.0469" y2="1142.0469"/><text fill="#000000" font-family="sans-serif" font-size="14" lengthAdjust="spacing" textLength="528.001" x="3432.7" y="1159.042">Annotated[list[RotationScanPerSweep], Len(min_length=1)] rotation_scans</text></g><!--class PinTipCentreThenXrayCentre--><g class="entity" data-entity="PinTipCentreThenXrayCentre" data-source-line="91" data-uid="ent0022" id="entity_PinTipCentreThenXrayCentre"><rect fill="#F1F1F1" height="64.2969" rx="2.5" ry="2.5" style="stroke:#181818;stroke-width:0.5;" width="235.8955" x="2878.75" y="1102.0469"/><ellipse cx="2893.75" cy="1118.0469" fill="#ADD1B2" rx="11" ry="11" style="stroke:#181818;stroke-width:1;"/><path d="M2896.7188,1123.6875 Q2896.1406,1123.9844 2895.5,1124.125 Q2894.8594,1124.2813 2894.1563,1124.2813 Q2891.6563,1124.2813 2890.3281,1122.6406 Q2889.0156,1120.9844 2889.0156,1117.8594 Q2889.0156,1114.7344 2890.3281,1113.0781 Q2891.6563,1111.4219 2894.1563,1111.4219 Q2894.8594,1111.4219 2895.5,1111.5781 Q2896.1563,1111.7344 2896.7188,1112.0313 L2896.7188,1114.75 Q2896.0938,1114.1719 2895.5,1113.9063 Q2894.9063,1113.625 2894.2813,1113.625 Q2892.9375,1113.625 2892.25,1114.7031 Q2891.5625,1115.7656 2891.5625,1117.8594 Q2891.5625,1119.9531 2892.25,1121.0313 Q2892.9375,1122.0938 2894.2813,1122.0938 Q2894.9063,1122.0938 2895.5,1121.8281 Q2896.0938,1121.5469 2896.7188,1120.9688 L2896.7188,1123.6875 Z " fill="#000000"/><text fill="#000000" font-family="sans-serif" font-size="14" lengthAdjust="spacing" textLength="203.8955" x="2907.75" y="1122.8936">PinTipCentreThenXrayCentre</text><line style="stroke:#181818;stroke-width:0.5;" x1="2879.75" x2="3113.6455" y1="1134.0469" y2="1134.0469"/><text fill="#000000" font-family="sans-serif" font-size="14" lengthAdjust="spacing" textLength="130.498" x="2884.75" y="1151.042">float tip_offset_um</text><line style="stroke:#181818;stroke-width:0.5;" x1="2879.75" x2="3113.6455" y1="1158.3438" y2="1158.3438"/></g><!--reverse link WithPandaGridScan to WithHyperionUDCFeatures--><g class="link" data-entity-1="WithPandaGridScan" data-entity-2="WithHyperionUDCFeatures" data-source-line="95" data-uid="lnk23" id="link_WithPandaGridScan_WithHyperionUDCFeatures"><path codeLine="95" d="M2573.2876,277.727 C2733.4176,377.957 3214.69,679.1969 3375.14,779.6169" fill="none" id="WithPandaGridScan-backto-WithHyperionUDCFeatures" style="stroke:#181818;stroke-width:1;"/><polygon fill="none" points="2558.03,268.1769,2570.1042,282.8129,2576.471,272.6412,2558.03,268.1769" style="stroke:#181818;stroke-width:1;"/></g><!--reverse link DiffractionExperimentWithSample to RotationExperiment--><g class="link" data-entity-1="DiffractionExperimentWithSample" data-entity-2="RotationExperiment" data-source-line="96" data-uid="lnk24" id="link_DiffractionExperimentWithSample_RotationExperiment"><path codeLine="96" d="M364.7782,686.5689 C334.8682,698.5889 322.44,709.9569 304.7,737.1169 C260.94,804.1069 248.39,860.3069 304.7,917.1569 C332.76,945.4969 3136.16,939.9469 3175.7,945.1569 C3181.42,945.9169 3187.22,946.7869 3193.06,947.7569" fill="none" id="DiffractionExperimentWithSample-backto-RotationExperiment" style="stroke:#181818;stroke-width:1;"/><polygon fill="none" points="381.48,679.8569,362.5409,681.0016,367.0156,692.1361,381.48,679.8569" style="stroke:#181818;stroke-width:1;"/></g><!--reverse link WithHyperionUDCFeatures to RotationExperiment--><g class="link" data-entity-1="WithHyperionUDCFeatures" data-entity-2="RotationExperiment" data-source-line="97" data-uid="lnk25" id="link_WithHyperionUDCFeatures_RotationExperiment"><path codeLine="97" d="M3407.9855,861.4001 C3397.7955,889.1001 3388.97,913.0769 3377.27,944.8669" fill="none" id="WithHyperionUDCFeatures-backto-RotationExperiment" style="stroke:#181818;stroke-width:1;"/><polygon fill="none" points="3414.2,844.5069,3402.3544,859.3286,3413.6166,863.4716,3414.2,844.5069" style="stroke:#181818;stroke-width:1;"/></g><!--reverse link MxBlueskyParameters to LoadCentreCollect--><g class="link" data-entity-1="MxBlueskyParameters" data-entity-2="LoadCentreCollect" data-source-line="98" data-uid="lnk26" id="link_MxBlueskyParameters_LoadCentreCollect"><path codeLine="98" d="M568.8076,275.4501 C601.5276,289.6201 625.24,298.2369 662.7,308.4069 C1917.97,649.1669 2457.5,43.2969 3557.7,737.1169 C3639.56,788.7469 3691.65,895.0869 3715.14,952.9569" fill="none" id="MxBlueskyParameters-backto-LoadCentreCollect" style="stroke:#181818;stroke-width:1;"/><polygon fill="none" points="552.29,268.2969,566.4232,280.956,571.192,269.9443,552.29,268.2969" style="stroke:#181818;stroke-width:1;"/></g><!--reverse link WithVisit to LoadCentreCollect--><g class="link" data-entity-1="WithVisit" data-entity-2="LoadCentreCollect" data-source-line="99" data-uid="lnk27" id="link_WithVisit_LoadCentreCollect"><path codeLine="99" d="M1010.5532,306.6922 C1002.2632,309.5822 1010.93,306.2469 1002.7,308.4069 C927.69,328.0869 359.45,303.5669 306.7,360.4069 C138.37,541.7769 132.49,741.4369 306.7,917.1569 C338.35,949.0869 3499.11,939.3669 3543.7,945.1569 C3558.32,947.0569 3573.45,949.7169 3588.46,952.8169" fill="none" id="WithVisit-backto-LoadCentreCollect" style="stroke:#181818;stroke-width:1;"/><polygon fill="none" points="1027.55,300.7669,1008.5781,301.0266,1012.5283,312.3578,1027.55,300.7669" style="stroke:#181818;stroke-width:1;"/></g><!--reverse link WithSample to LoadCentreCollect--><g class="link" data-entity-1="WithSample" data-entity-2="LoadCentreCollect" data-source-line="100" data-uid="lnk28" id="link_WithSample_LoadCentreCollect"><path codeLine="100" d="M2083.045,294.3833 C2097.785,304.0433 2099.11,303.0069 2115.7,308.4069 C2274.59,360.1469 3492.61,250.7569 3618.7,360.4069 C3795.07,513.7869 3756.94,840.2269 3737.41,953.1769" fill="none" id="WithSample-backto-LoadCentreCollect" style="stroke:#181818;stroke-width:1;"/><polygon fill="none" points="2067.99,284.5169,2079.7562,299.4017,2086.3338,289.365,2067.99,284.5169" style="stroke:#181818;stroke-width:1;"/></g><!--reverse link WithCentreSelection to LoadCentreCollect--><g class="link" data-entity-1="WithCentreSelection" data-entity-2="LoadCentreCollect" data-source-line="101" data-uid="lnk29" id="link_WithCentreSelection_LoadCentreCollect"><path codeLine="101" d="M756.7747,276.1141 C726.9647,290.7141 705.87,298.9569 670.7,308.4069 C564.95,336.8169 255.42,280.3669 180.7,360.4069 C11.85,541.3069 6,747.0269 185.7,917.1569 C219.57,949.2269 3497.44,939.1569 3543.7,945.1569 C3558.32,947.0569 3573.45,949.7169 3588.46,952.8169" fill="none" id="WithCentreSelection-backto-LoadCentreCollect" style="stroke:#181818;stroke-width:1;"/><polygon fill="none" points="772.94,268.1969,754.1356,270.7257,759.4138,281.5026,772.94,268.1969" style="stroke:#181818;stroke-width:1;"/></g><!--reverse link WithHyperionUDCFeatures to LoadCentreCollect--><g class="link" data-entity-1="WithHyperionUDCFeatures" data-entity-2="LoadCentreCollect" data-source-line="102" data-uid="lnk30" id="link_WithHyperionUDCFeatures_LoadCentreCollect"><path codeLine="102" d="M3478.1474,855.9963 C3505.7074,877.8363 3530.19,895.5569 3566.7,917.1569 C3588.3,929.9369 3612.44,942.1469 3635.37,952.8669" fill="none" id="WithHyperionUDCFeatures-backto-LoadCentreCollect" style="stroke:#181818;stroke-width:1;"/><polygon fill="none" points="3464.04,844.8169,3474.4209,860.6988,3481.8739,851.2939,3464.04,844.8169" style="stroke:#181818;stroke-width:1;"/></g><!--reverse link MxBlueskyParameters to DiffractionExperiment--><g class="link" data-entity-1="MxBlueskyParameters" data-entity-2="DiffractionExperiment" data-source-line="103" data-uid="lnk31" id="link_MxBlueskyParameters_DiffractionExperiment"><path codeLine="103" d="M485.5652,285.9241 C485.9852,309.9041 486.27,326.4969 486.86,360.0169" fill="none" id="MxBlueskyParameters-backto-DiffractionExperiment" style="stroke:#181818;stroke-width:1;"/><polygon fill="none" points="485.25,267.9269,479.5661,286.0292,491.5643,285.819,485.25,267.9269" style="stroke:#181818;stroke-width:1;"/></g><!--reverse link WithSnapshot to DiffractionExperiment--><g class="link" data-entity-1="WithSnapshot" data-entity-2="DiffractionExperiment" data-source-line="104" data-uid="lnk32" id="link_WithSnapshot_DiffractionExperiment"><path codeLine="104" d="M1356.0624,291.5535 C1335.2724,300.3835 1329.81,301.8469 1308.7,308.4069 C1087.45,377.2369 822.73,421.1269 655.13,444.3869" fill="none" id="WithSnapshot-backto-DiffractionExperiment" style="stroke:#181818;stroke-width:1;"/><polygon fill="none" points="1372.63,284.5169,1353.7168,286.031,1358.4079,297.0761,1372.63,284.5169" style="stroke:#181818;stroke-width:1;"/></g><!--reverse link WithOptionalEnergyChange to DiffractionExperiment--><g class="link" data-entity-1="WithOptionalEnergyChange" data-entity-2="DiffractionExperiment" data-source-line="105" data-uid="lnk33" id="link_WithOptionalEnergyChange_DiffractionExperiment"><path codeLine="105" d="M1704.0552,277.242 C1679.2352,291.732 1663.63,298.7469 1633.7,308.4069 C1542.55,337.8169 950.42,410.4069 655.32,445.4069" fill="none" id="WithOptionalEnergyChange-backto-DiffractionExperiment" style="stroke:#181818;stroke-width:1;"/><polygon fill="none" points="1719.6,268.1669,1701.0301,272.0604,1707.0802,282.4236,1719.6,268.1669" style="stroke:#181818;stroke-width:1;"/></g><!--reverse link WithVisit to DiffractionExperiment--><g class="link" data-entity-1="WithVisit" data-entity-2="DiffractionExperiment" data-source-line="106" data-uid="lnk34" id="link_WithVisit_DiffractionExperiment"><path codeLine="106" d="M1005.2062,307.6598 C998.7762,310.3298 1009,305.9869 1002.7,308.4069 C888.64,352.2569 756.72,392.2069 655.08,420.7669" fill="none" id="WithVisit-backto-DiffractionExperiment" style="stroke:#181818;stroke-width:1;"/><polygon fill="none" points="1021.83,300.7569,1002.9053,302.1185,1007.5072,313.201,1021.83,300.7569" style="stroke:#181818;stroke-width:1;"/></g><!--reverse link GridCommonWithHyperionDetectorParams to GridScanWithEdgeDetect--><g class="link" data-entity-1="GridCommonWithHyperionDetectorParams" data-entity-2="GridScanWithEdgeDetect" data-source-line="107" data-uid="lnk35" id="link_GridCommonWithHyperionDetectorParams_GridScanWithEdgeDetect"><path codeLine="107" d="M3055.7262,1025.8518 C3108.0562,1051.3918 3175.24,1084.1769 3227.65,1109.7469" fill="none" id="GridCommonWithHyperionDetectorParams-backto-GridScanWithEdgeDetect" style="stroke:#181818;stroke-width:1;"/><polygon fill="none" points="3039.55,1017.9569,3053.0946,1031.2439,3058.3579,1020.4597,3039.55,1017.9569" style="stroke:#181818;stroke-width:1;"/></g><!--reverse link WithHyperionUDCFeatures to GridScanWithEdgeDetect--><g class="link" data-entity-1="WithHyperionUDCFeatures" data-entity-2="GridScanWithEdgeDetect" data-source-line="108" data-uid="lnk36" id="link_WithHyperionUDCFeatures_GridScanWithEdgeDetect"><path codeLine="108" d="M3558.3942,825.8254 C3745.8742,847.1954 4067.22,903.9069 3943.7,1042.0469 C3863.96,1131.2369 3526.59,1081.7069 3408.7,1102.0469 C3395.96,1104.2469 3382.62,1106.9169 3369.51,1109.7669" fill="none" id="WithHyperionUDCFeatures-backto-GridScanWithEdgeDetect" style="stroke:#181818;stroke-width:1;"/><polygon fill="none" points="3540.51,823.7869,3557.7147,831.7868,3559.0737,819.864,3540.51,823.7869" style="stroke:#181818;stroke-width:1;"/></g><!--reverse link GridCommon to GridCommonWithHyperionDetectorParams--><g class="link" data-entity-1="GridCommon" data-entity-2="GridCommonWithHyperionDetectorParams" data-source-line="109" data-uid="lnk37" id="link_GridCommon_GridCommonWithHyperionDetectorParams"><path codeLine="109" d="M673.304,826.4934 C1128.234,859.0934 2369.71,948.0369 2824.86,980.6469" fill="none" id="GridCommon-backto-GridCommonWithHyperionDetectorParams" style="stroke:#181818;stroke-width:1;"/><polygon fill="none" points="655.35,825.2069,672.8751,832.4781,673.7328,820.5088,655.35,825.2069" style="stroke:#181818;stroke-width:1;"/></g><!--reverse link WithHyperionUDCFeatures to GridCommonWithHyperionDetectorParams--><g class="link" data-entity-1="WithHyperionUDCFeatures" data-entity-2="GridCommonWithHyperionDetectorParams" data-source-line="110" data-uid="lnk38" id="link_WithHyperionUDCFeatures_GridCommonWithHyperionDetectorParams"><path codeLine="110" d="M3332.9642,851.5908 C3246.9042,887.1508 3125.39,937.3569 3048.33,969.2069" fill="none" id="WithHyperionUDCFeatures-backto-GridCommonWithHyperionDetectorParams" style="stroke:#181818;stroke-width:1;"/><polygon fill="none" points="3349.6,844.7169,3330.6729,846.0455,3335.2555,857.136,3349.6,844.7169" style="stroke:#181818;stroke-width:1;"/></g><!--reverse link DiffractionExperimentWithSample to GridCommon--><g class="link" data-entity-1="DiffractionExperimentWithSample" data-entity-2="GridCommon" data-source-line="111" data-uid="lnk39" id="link_DiffractionExperimentWithSample_GridCommon"><path codeLine="111" d="M488.7,697.5669 C488.7,713.5169 488.7,717.6369 488.7,739.1969" fill="none" id="DiffractionExperimentWithSample-backto-GridCommon" style="stroke:#181818;stroke-width:1;"/><polygon fill="none" points="488.7,679.5669,482.7,697.5669,494.7,697.5669,488.7,679.5669" style="stroke:#181818;stroke-width:1;"/></g><!--reverse link OptionalGonioAngleStarts to GridCommon--><g class="link" data-entity-1="OptionalGonioAngleStarts" data-entity-2="GridCommon" data-source-line="112" data-uid="lnk40" id="link_OptionalGonioAngleStarts_GridCommon"><path codeLine="112" d="M2131.2271,301.1409 C2120.7371,306.6709 2126.03,303.6069 2115.7,308.4069 C1605.98,545.3669 955.97,707.7169 655.2,775.5869" fill="none" id="OptionalGonioAngleStarts-backto-GridCommon" style="stroke:#181818;stroke-width:1;"/><polygon fill="none" points="2147.15,292.7469,2128.429,295.8333,2134.0251,306.4486,2147.15,292.7469" style="stroke:#181818;stroke-width:1;"/></g><!--reverse link RotationExperiment to RotationScan--><g class="link" data-entity-1="RotationExperiment" data-entity-2="RotationScan" data-source-line="113" data-uid="lnk41" id="link_RotationExperiment_RotationScan"><path codeLine="113" d="M3492.7971,1049.3433 C3540.3571,1068.9033 3577.41,1084.1369 3619.91,1101.6169" fill="none" id="RotationExperiment-backto-RotationScan" style="stroke:#181818;stroke-width:1;"/><polygon fill="none" points="3476.15,1042.4969,3490.515,1054.8924,3495.0793,1043.7943,3476.15,1042.4969" style="stroke:#181818;stroke-width:1;"/></g><!--reverse link SplitScan to RotationScan--><g class="link" data-entity-1="SplitScan" data-entity-2="RotationScan" data-source-line="114" data-uid="lnk42" id="link_SplitScan_RotationScan"><path codeLine="114" d="M2778.3207,243.0579 C3016.1307,266.8379 4025.7,383.4369 4025.7,654.3769 C4025.7,654.3769 4025.7,654.3769 4025.7,813.2669 C4025.7,918.3869 4037.37,965.1569 3965.7,1042.0469 C3940.4,1069.1969 3906.73,1088.2569 3871.8,1101.6369" fill="none" id="SplitScan-backto-RotationScan" style="stroke:#181818;stroke-width:1;"/><polygon fill="none" points="2760.41,241.2669,2777.7237,249.0281,2778.9177,237.0876,2760.41,241.2669" style="stroke:#181818;stroke-width:1;"/></g><!--reverse link DiffractionExperiment to DiffractionExperimentWithSample--><g class="link" data-entity-1="DiffractionExperiment" data-entity-2="DiffractionExperimentWithSample" data-source-line="115" data-uid="lnk43" id="link_DiffractionExperiment_DiffractionExperimentWithSample"><path codeLine="115" d="M488.7,589.8769 C488.7,612.1269 488.7,615.5269 488.7,630.9569" fill="none" id="DiffractionExperiment-backto-DiffractionExperimentWithSample" style="stroke:#181818;stroke-width:1;"/><polygon fill="none" points="488.7,571.8769,482.7,589.8769,494.7,589.8769,488.7,571.8769" style="stroke:#181818;stroke-width:1;"/></g><!--reverse link WithSample to DiffractionExperimentWithSample--><g class="link" data-entity-1="WithSample" data-entity-2="DiffractionExperimentWithSample" data-source-line="116" data-uid="lnk44" id="link_WithSample_DiffractionExperimentWithSample"><path codeLine="116" d="M1931.6987,294.3223 C1918.0087,303.2023 1918.32,301.9269 1903.7,308.4069 C1458.67,505.7569 882.83,601.9369 624.55,637.5069" fill="none" id="WithSample-backto-DiffractionExperimentWithSample" style="stroke:#181818;stroke-width:1;"/><polygon fill="none" points="1946.8,284.5269,1928.4336,289.2885,1934.9638,299.3561,1946.8,284.5269" style="stroke:#181818;stroke-width:1;"/></g><!--reverse link GridCommonWithHyperionDetectorParams to PinTipCentreThenXrayCentre--><g class="link" data-entity-1="GridCommonWithHyperionDetectorParams" data-entity-2="PinTipCentreThenXrayCentre" data-source-line="117" data-uid="lnk45" id="link_GridCommonWithHyperionDetectorParams_PinTipCentreThenXrayCentre"><path codeLine="117" d="M2993.1803,1035.7951 C2994.0103,1058.7551 2994.64,1076.0869 2995.56,1101.6069" fill="none" id="GridCommonWithHyperionDetectorParams-backto-PinTipCentreThenXrayCentre" style="stroke:#181818;stroke-width:1;"/><polygon fill="none" points="2992.53,1017.8069,2987.1842,1036.0119,2999.1764,1035.5784,2992.53,1017.8069" style="stroke:#181818;stroke-width:1;"/></g><!--reverse link WithHyperionUDCFeatures to PinTipCentreThenXrayCentre--><g class="link" data-entity-1="WithHyperionUDCFeatures" data-entity-2="PinTipCentreThenXrayCentre" data-source-line="118" data-uid="lnk46" id="link_WithHyperionUDCFeatures_PinTipCentreThenXrayCentre"><path codeLine="118" d="M3558.2059,830.5731 C3688.4959,849.8631 3871.18,885.7969 3916.7,945.1569 C3942.9,979.3269 3945.93,1010.4269 3916.7,1042.0469 C3858.97,1104.4969 3237.94,1090.4269 3153.7,1102.0469 C3141.03,1103.7969 3127.85,1105.9269 3114.75,1108.2369" fill="none" id="WithHyperionUDCFeatures-backto-PinTipCentreThenXrayCentre" style="stroke:#181818;stroke-width:1;"/><polygon fill="none" points="3540.4,827.9369,3557.3272,836.5084,3559.0847,824.6378,3540.4,827.9369" style="stroke:#181818;stroke-width:1;"/></g><!--SRC=[bLRBRjiu55sRNy7Tp02J0DrF5wcJTWeqhL5xqW95GD3IjKI48WcIIkrn_U-z92LPhYGxHHOnx_Fmt0VrnweKZcw418h_UUtrLG4ABFUGq_MEjWTc95U-hkIrsH7YXKU7VtS6hD2ABhZb5NYmz5xd88a3JnLAdE4PBC6WscjBbLP02CgUU06qshArhC4zxQupNLLQNPisZADxudK1liIGUv99xXpz8dpv89pmUp9ptj8ry4eAZ1XFpq6JVkRWMIwSPrwpOCGohPx1Obnck2-JaL0EHGYU6GiRiIMpZTJSqn_q8w8CCI13p34GLncmgYA77fAbuiQLEe1PO53gcZCwsEYv8pE9ljzYsCSsRcUcAoYuOpaKPBRMMjBQ0Ikio5bhuaxopK5vYrnA38weCUrAcuzlTlTyEzUryfs6klYBPT7XDCY2gvo_moJBZ8SGwSecI9cjLMqch_l9XDXStc4t5BjvoLK1-m5d5KPY44qOF9_onIiZWujGdhfuO29FnvQR93LrzZGg5wgBsC9vfvNGDwgGiFJSUlShfCWoSq6Ng3xHcb9Cwh8pkYTkJ3zgYsfffF29sWF-3JhuLcmsbiSgtMt3w5HOepuvRQ1GedcSYUv2QxrbJlmFhAvQKUoMxoBtPKy8MwDTRO5vZCuScRrtPhS-fblXpEAaeun19sGUfMHsWsUFlWySvx9ZFxOJv8mtsZQJ5uRfpGPdFQG_dBjZCx5Xox2m5oR11gkm3D076zoAeW0RLWhrwJUhy73I7DYsJDNL6knluxTSkKeu5vP0mFnRN0Ma3iSSDrb_vBjHjbeai2qnzzitQTjrop9qwpBCZ1VP0nx3y7OhC3fBzfpaiPyEOwkpR7RmwV8ypbsxe_-xdRy57kuVqhRIHlHMyW8VWKRVGVwiFHyKCf7doje7bDg04ghe2fYqjd5aGcKM8cjnYbxERmlXW-PvMdrpBKCX4S5dlTO-A5ObgAJ4Z2XZc3ndE7AgsNx1DY49KqchMdh1Ed0EPISZ5um2PtTv0RVn0HWRoJwhjyqp4MlgzWFccZrxerGGGFujFWbzxGBiyZk0UVoRVW3rPoKKaw0ANxv-zTSZFS5wBCn2g9KmwUg1XA-Mxz9fFpMT1p9u0EW_Fwwkffg4N5XMoNdO8MGYtgJzo5masq7fIVS5SCwW3s_SufUdz9pfv4M6vfFt62MIzByXBjcDFRwNV7eyZHkzfA6J__XedETdmkUOz6Xs2SJbH1SZlAYNZv78rEV5m73OpwTz7YWWtMV1Y6uKsPco7K4FclsI_SiBFhrUpjTYskyd]--></g></svg>