<svg xmlns="http://www.w3.org/2000/svg" xmlns:xlink="http://www.w3.org/1999/xlink" contentStyleType="text/css" data-diagram-type="CLASS" height="1235px" preserveAspectRatio="none" style="width:5051px;height:1235px;background:#FFFFFF;" version="1.1" viewBox="0 0 5051 1235" width="5051px" zoomAndPan="magnify"><title>Hyperion Parameter Model</title><defs/><g><text fill="#000000" font-family="sans-serif" font-size="14" font-weight="bold" lengthAdjust="spacing" textLength="212.4951" x="2412.4424" y="22.9951">Hyperion Parameter Model</text><!--cluster mx_bluesky.common.parameters--><g class="cluster" data-entity="mx_bluesky.common.parameters" data-source-line="6" data-uid="ent0002" id="cluster_mx_bluesky.common.parameters"><path d="M8.5,43.2969 L269.8125,43.2969 A3.75,3.75 0 0 1 272.3125,45.7969 L279.3125,65.5938 L2994.5,65.5938 A2.5,2.5 0 0 1 2997,68.0938 L2997,1109.2969 A2.5,2.5 0 0 1 2994.5,1111.7969 L8.5,1111.7969 A2.5,2.5 0 0 1 6,1109.2969 L6,45.7969 A2.5,2.5 0 0 1 8.5,43.2969 " fill="none" style="stroke:#000000;stroke-width:1.5;"/><line style="stroke:#000000;stroke-width:1.5;" x1="6" x2="279.3125" y1="65.5938" y2="65.5938"/><text fill="#000000" font-family="sans-serif" font-size="14" font-weight="bold" lengthAdjust="spacing" textLength="260.3125" x="10" y="58.292">mx_bluesky.common.parameters</text></g><!--cluster mx_bluesky.hyperion.parameters--><g class="cluster" data-entity="mx_bluesky.hyperion.parameters" data-source-line="97" data-uid="ent0020" id="cluster_mx_bluesky.hyperion.parameters"><path d="M3023.5,660.4969 L3288.0322,660.4969 A3.75,3.75 0 0 1 3290.5322,662.9969 L3297.5322,682.7937 L4843.5,682.7937 A2.5,2.5 0 0 1 4846,685.2937 L4846,1225.5969 A2.5,2.5 0 0 1 4843.5,1228.0969 L3023.5,1228.0969 A2.5,2.5 0 0 1 3021,1225.5969 L3021,662.9969 A2.5,2.5 0 0 1 3023.5,660.4969 " fill="none" style="stroke:#000000;stroke-width:1.5;"/><line style="stroke:#000000;stroke-width:1.5;" x1="3021" x2="3297.5322" y1="682.7937" y2="682.7937"/><text fill="#000000" font-family="sans-serif" font-size="14" font-weight="bold" lengthAdjust="spacing" textLength="263.5322" x="3025" y="675.492">mx_bluesky.hyperion.parameters</text></g><!--class SplitScan--><g class="entity" data-entity="SplitScan" data-source-line="8" data-uid="ent0003" id="entity_SplitScan"><rect fill="#F1F1F1" height="48" rx="2.5" ry="2.5" style="stroke:#181818;stroke-width:0.5;" width="97.0781" x="1558.46" y="127.0469"/><ellipse cx="1573.46" cy="143.0469" fill="#ADD1B2" rx="11" ry="11" style="stroke:#181818;stroke-width:1;"/><path d="M1576.4288,148.6875 Q1575.8506,148.9844 1575.21,149.125 Q1574.5694,149.2813 1573.8663,149.2813 Q1571.3663,149.2813 1570.0381,147.6406 Q1568.7256,145.9844 1568.7256,142.8594 Q1568.7256,139.7344 1570.0381,138.0781 Q1571.3663,136.4219 1573.8663,136.4219 Q1574.5694,136.4219 1575.21,136.5781 Q1575.8663,136.7344 1576.4288,137.0313 L1576.4288,139.75 Q1575.8038,139.1719 1575.21,138.9063 Q1574.6163,138.625 1573.9913,138.625 Q1572.6475,138.625 1571.96,139.7031 Q1571.2725,140.7656 1571.2725,142.8594 Q1571.2725,144.9531 1571.96,146.0313 Q1572.6475,147.0938 1573.9913,147.0938 Q1574.6163,147.0938 1575.21,146.8281 Q1575.8038,146.5469 1576.4288,145.9688 L1576.4288,148.6875 Z " fill="#000000"/><text fill="#000000" font-family="sans-serif" font-size="14" lengthAdjust="spacing" textLength="65.0781" x="1587.46" y="147.8936">SplitScan</text><line style="stroke:#181818;stroke-width:0.5;" x1="1559.46" x2="1654.5381" y1="159.0469" y2="159.0469"/><line style="stroke:#181818;stroke-width:0.5;" x1="1559.46" x2="1654.5381" y1="167.0469" y2="167.0469"/></g><!--class XyzStarts--><g class="entity" data-entity="XyzStarts" data-source-line="10" data-uid="ent0004" id="entity_XyzStarts"><rect fill="#F1F1F1" height="96.8906" rx="2.5" ry="2.5" style="stroke:#181818;stroke-width:0.5;" width="125.3057" x="300.35" y="102.5969"/><ellipse cx="327.3141" cy="118.5969" fill="#ADD1B2" rx="11" ry="11" style="stroke:#181818;stroke-width:1;"/><path d="M330.2829,124.2375 Q329.7047,124.5344 329.0641,124.675 Q328.4235,124.8312 327.7204,124.8312 Q325.2204,124.8312 323.8922,123.1906 Q322.5797,121.5344 322.5797,118.4094 Q322.5797,115.2844 323.8922,113.6281 Q325.2204,111.9719 327.7204,111.9719 Q328.4235,111.9719 329.0641,112.1281 Q329.7204,112.2844 330.2829,112.5812 L330.2829,115.3 Q329.6579,114.7219 329.0641,114.4562 Q328.4704,114.175 327.8454,114.175 Q326.5016,114.175 325.8141,115.2531 Q325.1266,116.3156 325.1266,118.4094 Q325.1266,120.5031 325.8141,121.5812 Q326.5016,122.6437 327.8454,122.6437 Q328.4704,122.6437 329.0641,122.3781 Q329.6579,122.0969 330.2829,121.5187 L330.2829,124.2375 Z " fill="#000000"/><text fill="#000000" font-family="sans-serif" font-size="14" lengthAdjust="spacing" textLength="66.7188" x="343.9728" y="123.4436">XyzStarts</text><line style="stroke:#181818;stroke-width:0.5;" x1="301.35" x2="424.6557" y1="134.5969" y2="134.5969"/><text fill="#000000" font-family="sans-serif" font-size="14" lengthAdjust="spacing" textLength="113.3057" x="306.35" y="151.592">float x_start_um</text><text fill="#000000" font-family="sans-serif" font-size="14" lengthAdjust="spacing" textLength="113.3057" x="306.35" y="167.8889">float y_start_um</text><text fill="#000000" font-family="sans-serif" font-size="14" lengthAdjust="spacing" textLength="112.3691" x="306.35" y="184.1857">float z_start_um</text><line style="stroke:#181818;stroke-width:0.5;" x1="301.35" x2="424.6557" y1="191.4875" y2="191.4875"/></g><!--class WithVisit--><g class="entity" data-entity="WithVisit" data-source-line="15" data-uid="ent0005" id="entity_WithVisit"><rect fill="#F1F1F1" height="129.4844" rx="2.5" ry="2.5" style="stroke:#181818;stroke-width:0.5;" width="271.7861" x="997.11" y="86.2969"/><ellipse cx="1097.6359" cy="102.2969" fill="#ADD1B2" rx="11" ry="11" style="stroke:#181818;stroke-width:1;"/><path d="M1100.6046,107.9375 Q1100.0265,108.2344 1099.3859,108.375 Q1098.7453,108.5313 1098.0421,108.5313 Q1095.5421,108.5313 1094.214,106.8906 Q1092.9015,105.2344 1092.9015,102.1094 Q1092.9015,98.9844 1094.214,97.3281 Q1095.5421,95.6719 1098.0421,95.6719 Q1098.7453,95.6719 1099.3859,95.8281 Q1100.0421,95.9844 1100.6046,96.2813 L1100.6046,99 Q1099.9796,98.4219 1099.3859,98.1563 Q1098.7921,97.875 1098.1671,97.875 Q1096.8234,97.875 1096.1359,98.9531 Q1095.4484,100.0156 1095.4484,102.1094 Q1095.4484,104.2031 1096.1359,105.2813 Q1096.8234,106.3438 1098.1671,106.3438 Q1098.7921,106.3438 1099.3859,106.0781 Q1099.9796,105.7969 1100.6046,105.2188 L1100.6046,107.9375 Z " fill="#000000"/><text fill="#000000" font-family="sans-serif" font-size="14" lengthAdjust="spacing" textLength="62.2344" x="1118.1359" y="107.1436">WithVisit</text><line style="stroke:#181818;stroke-width:0.5;" x1="998.11" x2="1267.8961" y1="118.2969" y2="118.2969"/><text fill="#000000" font-family="sans-serif" font-size="14" lengthAdjust="spacing" textLength="87.9717" x="1003.11" y="135.292">str beamline</text><text fill="#000000" font-family="sans-serif" font-size="14" lengthAdjust="spacing" textLength="51.8369" x="1003.11" y="151.5889">str visit</text><text fill="#000000" font-family="sans-serif" font-size="14" lengthAdjust="spacing" textLength="259.7861" x="1003.11" y="167.8857">str det_dist_to_beam_converter_path</text><text fill="#000000" font-family="sans-serif" font-size="14" lengthAdjust="spacing" textLength="131.5918" x="1003.11" y="184.1826">str insertion_prefix</text><text fill="#000000" font-family="sans-serif" font-size="14" lengthAdjust="spacing" textLength="245.752" x="1003.11" y="200.4795">float | None detector_distance_mm</text><line style="stroke:#181818;stroke-width:0.5;" x1="998.11" x2="1267.8961" y1="207.7813" y2="207.7813"/></g><!--class WithScan--><g class="entity" data-entity="WithScan" data-source-line="22" data-uid="ent0006" id="entity_WithScan"><rect fill="#F1F1F1" height="48" rx="2.5" ry="2.5" style="stroke:#181818;stroke-width:0.5;" width="98.1309" x="1690.93" y="127.0469"/><ellipse cx="1705.93" cy="143.0469" fill="#ADD1B2" rx="11" ry="11" style="stroke:#181818;stroke-width:1;"/><path d="M1708.8988,148.6875 Q1708.3206,148.9844 1707.68,149.125 Q1707.0394,149.2813 1706.3363,149.2813 Q1703.8363,149.2813 1702.5081,147.6406 Q1701.1956,145.9844 1701.1956,142.8594 Q1701.1956,139.7344 1702.5081,138.0781 Q1703.8363,136.4219 1706.3363,136.4219 Q1707.0394,136.4219 1707.68,136.5781 Q1708.3363,136.7344 1708.8988,137.0313 L1708.8988,139.75 Q1708.2738,139.1719 1707.68,138.9063 Q1707.0863,138.625 1706.4613,138.625 Q1705.1175,138.625 1704.43,139.7031 Q1703.7425,140.7656 1703.7425,142.8594 Q1703.7425,144.9531 1704.43,146.0313 Q1705.1175,147.0938 1706.4613,147.0938 Q1707.0863,147.0938 1707.68,146.8281 Q1708.2738,146.5469 1708.8988,145.9688 L1708.8988,148.6875 Z " fill="#000000"/><text fill="#000000" font-family="sans-serif" font-size="14" lengthAdjust="spacing" textLength="66.1309" x="1719.93" y="147.8936">WithScan</text><line style="stroke:#181818;stroke-width:0.5;" x1="1691.93" x2="1788.0609" y1="159.0469" y2="159.0469"/><line style="stroke:#181818;stroke-width:0.5;" x1="1691.93" x2="1788.0609" y1="167.0469" y2="167.0469"/></g><!--class SpecifiedGrid--><g class="entity" data-entity="SpecifiedGrid" data-source-line="24" data-uid="ent0007" id="entity_SpecifiedGrid"><rect fill="#F1F1F1" height="48" rx="2.5" ry="2.5" style="stroke:#181818;stroke-width:0.5;" width="125.6729" x="1677.16" y="357.2669"/><ellipse cx="1692.16" cy="373.2669" fill="#ADD1B2" rx="11" ry="11" style="stroke:#181818;stroke-width:1;"/><path d="M1695.1288,378.9075 Q1694.5506,379.2044 1693.91,379.345 Q1693.2694,379.5012 1692.5663,379.5012 Q1690.0663,379.5012 1688.7381,377.8606 Q1687.4256,376.2044 1687.4256,373.0794 Q1687.4256,369.9544 1688.7381,368.2981 Q1690.0663,366.6419 1692.5663,366.6419 Q1693.2694,366.6419 1693.91,366.7981 Q1694.5663,366.9544 1695.1288,367.2512 L1695.1288,369.97 Q1694.5038,369.3919 1693.91,369.1262 Q1693.3163,368.845 1692.6913,368.845 Q1691.3475,368.845 1690.66,369.9231 Q1689.9725,370.9856 1689.9725,373.0794 Q1689.9725,375.1731 1690.66,376.2512 Q1691.3475,377.3137 1692.6913,377.3137 Q1693.3163,377.3137 1693.91,377.0481 Q1694.5038,376.7669 1695.1288,376.1887 L1695.1288,378.9075 Z " fill="#000000"/><text fill="#000000" font-family="sans-serif" font-size="14" lengthAdjust="spacing" textLength="93.6729" x="1706.16" y="378.1136">SpecifiedGrid</text><line style="stroke:#181818;stroke-width:0.5;" x1="1678.16" x2="1801.8329" y1="389.2669" y2="389.2669"/><line style="stroke:#181818;stroke-width:0.5;" x1="1678.16" x2="1801.8329" y1="397.2669" y2="397.2669"/></g><!--class WithOptionalEnergyChange--><g class="entity" data-entity="WithOptionalEnergyChange" data-source-line="26" data-uid="ent0008" id="entity_WithOptionalEnergyChange"><rect fill="#F1F1F1" height="64.2969" rx="2.5" ry="2.5" style="stroke:#181818;stroke-width:0.5;" width="235.4463" x="30.28" y="118.8969"/><ellipse cx="49.4645" cy="134.8969" fill="#ADD1B2" rx="11" ry="11" style="stroke:#181818;stroke-width:1;"/><path d="M52.4332,140.5375 Q51.8551,140.8344 51.2145,140.975 Q50.5738,141.1312 49.8707,141.1312 Q47.3707,141.1312 46.0426,139.4906 Q44.7301,137.8344 44.7301,134.7094 Q44.7301,131.5844 46.0426,129.9281 Q47.3707,128.2719 49.8707,128.2719 Q50.5738,128.2719 51.2145,128.4281 Q51.8707,128.5844 52.4332,128.8812 L52.4332,131.6 Q51.8082,131.0219 51.2145,130.7562 Q50.6207,130.475 49.9957,130.475 Q48.652,130.475 47.9645,131.5531 Q47.277,132.6156 47.277,134.7094 Q47.277,136.8031 47.9645,137.8812 Q48.652,138.9437 49.9957,138.9437 Q50.6207,138.9437 51.2145,138.6781 Q51.8082,138.3969 52.4332,137.8187 L52.4332,140.5375 Z " fill="#000000"/><text fill="#000000" font-family="sans-serif" font-size="14" lengthAdjust="spacing" textLength="194.1475" x="64.3944" y="139.7436">WithOptionalEnergyChange</text><line style="stroke:#181818;stroke-width:0.5;" x1="31.28" x2="264.7263" y1="150.8969" y2="150.8969"/><text fill="#000000" font-family="sans-serif" font-size="14" lengthAdjust="spacing" textLength="223.4463" x="36.28" y="167.892">float | None demand_energy_ev</text><line style="stroke:#181818;stroke-width:0.5;" x1="31.28" x2="264.7263" y1="175.1937" y2="175.1937"/></g><!--class WithSample--><g class="entity" data-entity="WithSample" data-source-line="29" data-uid="ent0009" id="entity_WithSample"><rect fill="#F1F1F1" height="96.8906" rx="2.5" ry="2.5" style="stroke:#181818;stroke-width:0.5;" width="176.3086" x="460.85" y="102.5969"/><ellipse cx="502.7243" cy="118.5969" fill="#ADD1B2" rx="11" ry="11" style="stroke:#181818;stroke-width:1;"/><path d="M505.6931,124.2375 Q505.1149,124.5344 504.4743,124.675 Q503.8337,124.8312 503.1306,124.8312 Q500.6306,124.8312 499.3024,123.1906 Q497.9899,121.5344 497.9899,118.4094 Q497.9899,115.2844 499.3024,113.6281 Q500.6306,111.9719 503.1306,111.9719 Q503.8337,111.9719 504.4743,112.1281 Q505.1306,112.2844 505.6931,112.5812 L505.6931,115.3 Q505.0681,114.7219 504.4743,114.4562 Q503.8806,114.175 503.2556,114.175 Q501.9118,114.175 501.2243,115.2531 Q500.5368,116.3156 500.5368,118.4094 Q500.5368,120.5031 501.2243,121.5812 Q501.9118,122.6437 503.2556,122.6437 Q503.8806,122.6437 504.4743,122.3781 Q505.0681,122.0969 505.6931,121.5187 L505.6931,124.2375 Z " fill="#000000"/><text fill="#000000" font-family="sans-serif" font-size="14" lengthAdjust="spacing" textLength="84.5879" x="522.6964" y="123.4436">WithSample</text><line style="stroke:#181818;stroke-width:0.5;" x1="461.85" x2="636.1586" y1="134.5969" y2="134.5969"/><text fill="#000000" font-family="sans-serif" font-size="14" lengthAdjust="spacing" textLength="93.3789" x="466.85" y="151.592">int sample_id</text><text fill="#000000" font-family="sans-serif" font-size="14" lengthAdjust="spacing" textLength="164.3086" x="466.85" y="167.8889">int | None sample_puck</text><text fill="#000000" font-family="sans-serif" font-size="14" lengthAdjust="spacing" textLength="152.3936" x="466.85" y="184.1857">int | None sample_pin</text><line style="stroke:#181818;stroke-width:0.5;" x1="461.85" x2="636.1586" y1="191.4875" y2="191.4875"/></g><!--class WithPandaGridScan--><g class="entity" data-entity="WithPandaGridScan" data-source-line="34" data-uid="ent0010" id="entity_WithPandaGridScan"><rect fill="#F1F1F1" height="64.2969" rx="2.5" ry="2.5" style="stroke:#181818;stroke-width:0.5;" width="240.5664" x="1823.72" y="118.8969"/><ellipse cx="1870.3172" cy="134.8969" fill="#ADD1B2" rx="11" ry="11" style="stroke:#181818;stroke-width:1;"/><path d="M1873.2859,140.5375 Q1872.7078,140.8344 1872.0672,140.975 Q1871.4265,141.1312 1870.7234,141.1312 Q1868.2234,141.1312 1866.8953,139.4906 Q1865.5828,137.8344 1865.5828,134.7094 Q1865.5828,131.5844 1866.8953,129.9281 Q1868.2234,128.2719 1870.7234,128.2719 Q1871.4265,128.2719 1872.0672,128.4281 Q1872.7234,128.5844 1873.2859,128.8812 L1873.2859,131.6 Q1872.6609,131.0219 1872.0672,130.7562 Q1871.4734,130.475 1870.8484,130.475 Q1869.5047,130.475 1868.8172,131.5531 Q1868.1297,132.6156 1868.1297,134.7094 Q1868.1297,136.8031 1868.8172,137.8812 Q1869.5047,138.9437 1870.8484,138.9437 Q1871.4734,138.9437 1872.0672,138.6781 Q1872.6609,138.3969 1873.2859,137.8187 L1873.2859,140.5375 Z " fill="#000000"/><text fill="#000000" font-family="sans-serif" font-size="14" lengthAdjust="spacing" textLength="138.8721" x="1890.8172" y="139.7436">WithPandaGridScan</text><line style="stroke:#181818;stroke-width:0.5;" x1="1824.72" x2="2063.2864" y1="150.8969" y2="150.8969"/><text fill="#000000" font-family="sans-serif" font-size="14" lengthAdjust="spacing" textLength="228.5664" x="1829.72" y="167.892">float panda_runup_distance_mm</text><line style="stroke:#181818;stroke-width:0.5;" x1="1824.72" x2="2063.2864" y1="175.1937" y2="175.1937"/></g><!--class WithCentreSelection--><g class="entity" data-entity="WithCentreSelection" data-source-line="37" data-uid="ent0011" id="entity_WithCentreSelection"><rect fill="#F1F1F1" height="64.2969" rx="2.5" ry="2.5" style="stroke:#181818;stroke-width:0.5;" width="306.7861" x="2099.61" y="118.8969"/><ellipse cx="2176.8869" cy="134.8969" fill="#ADD1B2" rx="11" ry="11" style="stroke:#181818;stroke-width:1;"/><path d="M2179.8556,140.5375 Q2179.2775,140.8344 2178.6369,140.975 Q2177.9962,141.1312 2177.2931,141.1312 Q2174.7931,141.1312 2173.465,139.4906 Q2172.1525,137.8344 2172.1525,134.7094 Q2172.1525,131.5844 2173.465,129.9281 Q2174.7931,128.2719 2177.2931,128.2719 Q2177.9962,128.2719 2178.6369,128.4281 Q2179.2931,128.5844 2179.8556,128.8812 L2179.8556,131.6 Q2179.2306,131.0219 2178.6369,130.7562 Q2178.0431,130.475 2177.4181,130.475 Q2176.0744,130.475 2175.3869,131.5531 Q2174.6994,132.6156 2174.6994,134.7094 Q2174.6994,136.8031 2175.3869,137.8812 Q2176.0744,138.9437 2177.4181,138.9437 Q2178.0431,138.9437 2178.6369,138.6781 Q2179.2306,138.3969 2179.8556,137.8187 L2179.8556,140.5375 Z " fill="#000000"/><text fill="#000000" font-family="sans-serif" font-size="14" lengthAdjust="spacing" textLength="143.7324" x="2197.3869" y="139.7436">WithCentreSelection</text><line style="stroke:#181818;stroke-width:0.5;" x1="2100.61" x2="2405.3961" y1="150.8969" y2="150.8969"/><text fill="#000000" font-family="sans-serif" font-size="14" lengthAdjust="spacing" textLength="294.7861" x="2105.61" y="167.892">TopNByMaxCountSelection select_centres</text><line style="stroke:#181818;stroke-width:0.5;" x1="2100.61" x2="2405.3961" y1="175.1937" y2="175.1937"/></g><!--class OptionalXyzStarts--><g class="entity" data-entity="OptionalXyzStarts" data-source-line="40" data-uid="ent0012" id="entity_OptionalXyzStarts"><rect fill="#F1F1F1" height="96.8906" rx="2.5" ry="2.5" style="stroke:#181818;stroke-width:0.5;" width="175.4473" x="2441.28" y="102.5969"/><ellipse cx="2464.1713" cy="118.5969" fill="#ADD1B2" rx="11" ry="11" style="stroke:#181818;stroke-width:1;"/><path d="M2467.14,124.2375 Q2466.5619,124.5344 2465.9213,124.675 Q2465.2806,124.8312 2464.5775,124.8312 Q2462.0775,124.8312 2460.7494,123.1906 Q2459.4369,121.5344 2459.4369,118.4094 Q2459.4369,115.2844 2460.7494,113.6281 Q2462.0775,111.9719 2464.5775,111.9719 Q2465.2806,111.9719 2465.9213,112.1281 Q2466.5775,112.2844 2467.14,112.5812 L2467.14,115.3 Q2466.515,114.7219 2465.9213,114.4562 Q2465.3275,114.175 2464.7025,114.175 Q2463.3588,114.175 2462.6713,115.2531 Q2461.9838,116.3156 2461.9838,118.4094 Q2461.9838,120.5031 2462.6713,121.5812 Q2463.3588,122.6437 2464.7025,122.6437 Q2465.3275,122.6437 2465.9213,122.3781 Q2466.515,122.0969 2467.14,121.5187 L2467.14,124.2375 Z " fill="#000000"/><text fill="#000000" font-family="sans-serif" font-size="14" lengthAdjust="spacing" textLength="125.9111" x="2479.9249" y="123.4436">OptionalXyzStarts</text><line style="stroke:#181818;stroke-width:0.5;" x1="2442.28" x2="2615.7273" y1="134.5969" y2="134.5969"/><text fill="#000000" font-family="sans-serif" font-size="14" lengthAdjust="spacing" textLength="163.4473" x="2447.28" y="151.592">float | None x_start_um</text><text fill="#000000" font-family="sans-serif" font-size="14" lengthAdjust="spacing" textLength="163.4473" x="2447.28" y="167.8889">float | None y_start_um</text><text fill="#000000" font-family="sans-serif" font-size="14" lengthAdjust="spacing" textLength="162.5107" x="2447.28" y="184.1857">float | None z_start_um</text><line style="stroke:#181818;stroke-width:0.5;" x1="2442.28" x2="2615.7273" y1="191.4875" y2="191.4875"/></g><!--class OptionalGonioAngleStarts--><g class="entity" data-entity="OptionalGonioAngleStarts" data-source-line="45" data-uid="ent0013" id="entity_OptionalGonioAngleStarts"><rect fill="#F1F1F1" height="113.1875" rx="2.5" ry="2.5" style="stroke:#181818;stroke-width:0.5;" width="219.3203" x="1304.34" y="94.4469"/><ellipse cx="1322.0633" cy="110.4469" fill="#ADD1B2" rx="11" ry="11" style="stroke:#181818;stroke-width:1;"/><path d="M1325.032,116.0875 Q1324.4539,116.3844 1323.8133,116.525 Q1323.1727,116.6812 1322.4695,116.6812 Q1319.9695,116.6812 1318.6414,115.0406 Q1317.3289,113.3844 1317.3289,110.2594 Q1317.3289,107.1344 1318.6414,105.4781 Q1319.9695,103.8219 1322.4695,103.8219 Q1323.1727,103.8219 1323.8133,103.9781 Q1324.4695,104.1344 1325.032,104.4312 L1325.032,107.15 Q1324.407,106.5719 1323.8133,106.3062 Q1323.2195,106.025 1322.5945,106.025 Q1321.2508,106.025 1320.5633,107.1031 Q1319.8758,108.1656 1319.8758,110.2594 Q1319.8758,112.3531 1320.5633,113.4312 Q1321.2508,114.4937 1322.5945,114.4937 Q1323.2195,114.4937 1323.8133,114.2281 Q1324.407,113.9469 1325.032,113.3687 L1325.032,116.0875 Z " fill="#000000"/><text fill="#000000" font-family="sans-serif" font-size="14" lengthAdjust="spacing" textLength="181.2686" x="1336.6685" y="115.2936">OptionalGonioAngleStarts</text><line style="stroke:#181818;stroke-width:0.5;" x1="1305.34" x2="1522.6603" y1="126.4469" y2="126.4469"/><text fill="#000000" font-family="sans-serif" font-size="14" lengthAdjust="spacing" textLength="207.3203" x="1310.34" y="143.442">float | None omega_start_deg</text><text fill="#000000" font-family="sans-serif" font-size="14" lengthAdjust="spacing" textLength="180.6875" x="1310.34" y="159.7389">float | None phi_start_deg</text><text fill="#000000" font-family="sans-serif" font-size="14" lengthAdjust="spacing" textLength="179.498" x="1310.34" y="176.0357">float | None chi_start_deg</text><text fill="#000000" font-family="sans-serif" font-size="14" lengthAdjust="spacing" textLength="202.0771" x="1310.34" y="192.3326">float | None kappa_start_deg</text><line style="stroke:#181818;stroke-width:0.5;" x1="1305.34" x2="1522.6603" y1="199.6344" y2="199.6344"/></g><!--class WithSnapshot--><g class="entity" data-entity="WithSnapshot" data-source-line="51" data-uid="ent0014" id="entity_WithSnapshot"><rect fill="#F1F1F1" height="80.5938" rx="2.5" ry="2.5" style="stroke:#181818;stroke-width:0.5;" width="289.3477" x="672.33" y="110.7469"/><ellipse cx="763.9828" cy="126.7469" fill="#ADD1B2" rx="11" ry="11" style="stroke:#181818;stroke-width:1;"/><path d="M766.9516,132.3875 Q766.3735,132.6844 765.7328,132.825 Q765.0922,132.9813 764.3891,132.9813 Q761.8891,132.9813 760.561,131.3406 Q759.2485,129.6844 759.2485,126.5594 Q759.2485,123.4344 760.561,121.7781 Q761.8891,120.1219 764.3891,120.1219 Q765.0922,120.1219 765.7328,120.2781 Q766.3891,120.4344 766.9516,120.7313 L766.9516,123.45 Q766.3266,122.8719 765.7328,122.6063 Q765.1391,122.325 764.5141,122.325 Q763.1703,122.325 762.4828,123.4031 Q761.7953,124.4656 761.7953,126.5594 Q761.7953,128.6531 762.4828,129.7313 Q763.1703,130.7938 764.5141,130.7938 Q765.1391,130.7938 765.7328,130.5281 Q766.3266,130.2469 766.9516,129.6688 L766.9516,132.3875 Z " fill="#000000"/><text fill="#000000" font-family="sans-serif" font-size="14" lengthAdjust="spacing" textLength="97.542" x="784.4828" y="131.5936">WithSnapshot</text><line style="stroke:#181818;stroke-width:0.5;" x1="673.33" x2="960.6777" y1="142.7469" y2="142.7469"/><text fill="#000000" font-family="sans-serif" font-size="14" lengthAdjust="spacing" textLength="169.627" x="678.33" y="159.742">Path snapshot_directory</text><text fill="#000000" font-family="sans-serif" font-size="14" lengthAdjust="spacing" textLength="277.3477" x="678.33" y="176.0389">list[float] | None snapshot_omegas_deg</text><line style="stroke:#181818;stroke-width:0.5;" x1="673.33" x2="960.6777" y1="183.3406" y2="183.3406"/></g><!--class MxBlueskyParameters--><g class="entity" data-entity="MxBlueskyParameters" data-source-line="57" data-uid="ent0015" id="entity_MxBlueskyParameters"><rect fill="#F1F1F1" height="64.2969" rx="2.5" ry="2.5" style="stroke:#181818;stroke-width:0.5;" width="317.4639" x="2653.27" y="118.8969"/><ellipse cx="2729.8564" cy="134.8969" fill="#ADD1B2" rx="11" ry="11" style="stroke:#181818;stroke-width:1;"/><path d="M2732.8252,140.5375 Q2732.2471,140.8344 2731.6064,140.975 Q2730.9658,141.1312 2730.2627,141.1312 Q2727.7627,141.1312 2726.4346,139.4906 Q2725.1221,137.8344 2725.1221,134.7094 Q2725.1221,131.5844 2726.4346,129.9281 Q2727.7627,128.2719 2730.2627,128.2719 Q2730.9658,128.2719 2731.6064,128.4281 Q2732.2627,128.5844 2732.8252,128.8812 L2732.8252,131.6 Q2732.2002,131.0219 2731.6064,130.7562 Q2731.0127,130.475 2730.3877,130.475 Q2729.0439,130.475 2728.3564,131.5531 Q2727.6689,132.6156 2727.6689,134.7094 Q2727.6689,136.8031 2728.3564,137.8812 Q2729.0439,138.9437 2730.3877,138.9437 Q2731.0127,138.9437 2731.6064,138.6781 Q2732.2002,138.3969 2732.8252,137.8187 L2732.8252,140.5375 Z " fill="#000000"/><text fill="#000000" font-family="sans-serif" font-size="14" lengthAdjust="spacing" textLength="155.791" x="2750.3564" y="139.7436">MxBlueskyParameters</text><line style="stroke:#181818;stroke-width:0.5;" x1="2654.27" x2="2969.7339" y1="150.8969" y2="150.8969"/><text fill="#000000" font-family="sans-serif" font-size="14" lengthAdjust="spacing" textLength="305.4639" x="2659.27" y="167.892">SemanticVersion parameter_model_version</text><line style="stroke:#181818;stroke-width:0.5;" x1="2654.27" x2="2969.7339" y1="175.1937" y2="175.1937"/></g><!--class DiffractionExperimentWithSample--><g class="entity" data-entity="DiffractionExperimentWithSample" data-source-line="60" data-uid="ent0016" id="entity_DiffractionExperimentWithSample"><rect fill="#F1F1F1" height="48" rx="2.5" ry="2.5" style="stroke:#181818;stroke-width:0.5;" width="270.8545" x="2671.57" y="546.7569"/><ellipse cx="2686.57" cy="562.7569" fill="#ADD1B2" rx="11" ry="11" style="stroke:#181818;stroke-width:1;"/><path d="M2689.5388,568.3975 Q2688.9606,568.6944 2688.32,568.835 Q2687.6794,568.9912 2686.9763,568.9912 Q2684.4763,568.9912 2683.1481,567.3506 Q2681.8356,565.6944 2681.8356,562.5694 Q2681.8356,559.4444 2683.1481,557.7881 Q2684.4763,556.1319 2686.9763,556.1319 Q2687.6794,556.1319 2688.32,556.2881 Q2688.9763,556.4444 2689.5388,556.7412 L2689.5388,559.46 Q2688.9138,558.8819 2688.32,558.6162 Q2687.7263,558.335 2687.1013,558.335 Q2685.7575,558.335 2685.07,559.4131 Q2684.3825,560.4756 2684.3825,562.5694 Q2684.3825,564.6631 2685.07,565.7412 Q2685.7575,566.8037 2687.1013,566.8037 Q2687.7263,566.8037 2688.32,566.5381 Q2688.9138,566.2569 2689.5388,565.6787 L2689.5388,568.3975 Z " fill="#000000"/><text fill="#000000" font-family="sans-serif" font-size="14" lengthAdjust="spacing" textLength="238.8545" x="2700.57" y="567.6036">DiffractionExperimentWithSample</text><line style="stroke:#181818;stroke-width:0.5;" x1="2672.57" x2="2941.4245" y1="578.7569" y2="578.7569"/><line style="stroke:#181818;stroke-width:0.5;" x1="2672.57" x2="2941.4245" y1="586.7569" y2="586.7569"/></g><!--class GridCommon--><g class="entity" data-entity="GridCommon" data-source-line="62" data-uid="ent0017" id="entity_GridCommon"><rect fill="#F1F1F1" height="145.7813" rx="2.5" ry="2.5" style="stroke:#181818;stroke-width:0.5;" width="332.332" x="2640.83" y="654.7569"/><ellipse cx="2756.5282" cy="670.7569" fill="#ADD1B2" rx="11" ry="11" style="stroke:#181818;stroke-width:1;"/><path d="M2759.497,676.3975 Q2758.9189,676.6944 2758.2782,676.835 Q2757.6376,676.9912 2756.9345,676.9912 Q2754.4345,676.9912 2753.1064,675.3506 Q2751.7939,673.6944 2751.7939,670.5694 Q2751.7939,667.4444 2753.1064,665.7881 Q2754.4345,664.1319 2756.9345,664.1319 Q2757.6376,664.1319 2758.2782,664.2881 Q2758.9345,664.4444 2759.497,664.7412 L2759.497,667.46 Q2758.872,666.8819 2758.2782,666.6162 Q2757.6845,666.335 2757.0595,666.335 Q2755.7157,666.335 2755.0282,667.4131 Q2754.3407,668.4756 2754.3407,670.5694 Q2754.3407,672.6631 2755.0282,673.7412 Q2755.7157,674.8037 2757.0595,674.8037 Q2757.6845,674.8037 2758.2782,674.5381 Q2758.872,674.2569 2759.497,673.6787 L2759.497,676.3975 Z " fill="#000000"/><text fill="#000000" font-family="sans-serif" font-size="14" lengthAdjust="spacing" textLength="92.4355" x="2777.0282" y="675.6036">GridCommon</text><line style="stroke:#181818;stroke-width:0.5;" x1="2641.83" x2="2972.162" y1="686.7569" y2="686.7569"/><text fill="#000000" font-family="sans-serif" font-size="14" lengthAdjust="spacing" textLength="125.2959" x="2646.83" y="703.752">float box_size_um</text><text fill="#000000" font-family="sans-serif" font-size="14" lengthAdjust="spacing" textLength="138.4209" x="2646.83" y="720.0489">float grid_width_um</text><text fill="#000000" font-family="sans-serif" font-size="14" lengthAdjust="spacing" textLength="153.7129" x="2646.83" y="736.3457">float exposure_time_s</text><text fill="#000000" font-family="sans-serif" font-size="14" lengthAdjust="spacing" textLength="320.332" x="2646.83" y="752.6426">IspybExperimentType ispyb_experiment_type</text><text fill="#000000" font-family="sans-serif" font-size="14" lengthAdjust="spacing" textLength="282.3516" x="2646.83" y="768.9395">ApertureValue | None selected_aperture</text><text fill="#000000" font-family="sans-serif" font-size="14" lengthAdjust="spacing" textLength="130.498" x="2646.83" y="785.2364">float tip_offset_um</text><line style="stroke:#181818;stroke-width:0.5;" x1="2641.83" x2="2972.162" y1="792.5381" y2="792.5381"/></g><!--class SpecifiedThreeDGridScan--><g class="entity" data-entity="SpecifiedThreeDGridScan" data-source-line="70" data-uid="ent0018" id="entity_SpecifiedThreeDGridScan"><rect fill="#F1F1F1" height="227.2656" rx="2.5" ry="2.5" style="stroke:#181818;stroke-width:0.5;" width="210.8965" x="2640.55" y="860.5369"/><ellipse cx="2655.55" cy="876.5369" fill="#ADD1B2" rx="11" ry="11" style="stroke:#181818;stroke-width:1;"/><path d="M2658.5188,882.1775 Q2657.9406,882.4744 2657.3,882.615 Q2656.6594,882.7713 2655.9563,882.7713 Q2653.4563,882.7713 2652.1281,881.1306 Q2650.8156,879.4744 2650.8156,876.3494 Q2650.8156,873.2244 2652.1281,871.5681 Q2653.4563,869.9119 2655.9563,869.9119 Q2656.6594,869.9119 2657.3,870.0681 Q2657.9563,870.2244 2658.5188,870.5213 L2658.5188,873.24 Q2657.8938,872.6619 2657.3,872.3963 Q2656.7063,872.115 2656.0813,872.115 Q2654.7375,872.115 2654.05,873.1931 Q2653.3625,874.2556 2653.3625,876.3494 Q2653.3625,878.4431 2654.05,879.5213 Q2654.7375,880.5838 2656.0813,880.5838 Q2656.7063,880.5838 2657.3,880.3181 Q2657.8938,880.0369 2658.5188,879.4588 L2658.5188,882.1775 Z " fill="#000000"/><text fill="#000000" font-family="sans-serif" font-size="14" lengthAdjust="spacing" textLength="178.8965" x="2669.55" y="881.3836">SpecifiedThreeDGridScan</text><line style="stroke:#181818;stroke-width:0.5;" x1="2641.55" x2="2850.4465" y1="892.5369" y2="892.5369"/><text fill="#000000" font-family="sans-serif" font-size="14" lengthAdjust="spacing" textLength="160.8975" x="2646.55" y="909.532">float grid1_omega_deg</text><text fill="#000000" font-family="sans-serif" font-size="14" lengthAdjust="spacing" textLength="160.8975" x="2646.55" y="925.8289">float grid2_omega_deg</text><text fill="#000000" font-family="sans-serif" font-size="14" lengthAdjust="spacing" textLength="145.127" x="2646.55" y="942.1257">float x_step_size_um</text><text fill="#000000" font-family="sans-serif" font-size="14" lengthAdjust="spacing" textLength="145.127" x="2646.55" y="958.4226">float y_step_size_um</text><text fill="#000000" font-family="sans-serif" font-size="14" lengthAdjust="spacing" textLength="144.1904" x="2646.55" y="974.7195">float z_step_size_um</text><text fill="#000000" font-family="sans-serif" font-size="14" lengthAdjust="spacing" textLength="122.2129" x="2646.55" y="991.0164">float y2_start_um</text><text fill="#000000" font-family="sans-serif" font-size="14" lengthAdjust="spacing" textLength="121.2764" x="2646.55" y="1007.3132">float z2_start_um</text><text fill="#000000" font-family="sans-serif" font-size="14" lengthAdjust="spacing" textLength="75.5645" x="2646.55" y="1023.6101">int x_steps</text><text fill="#000000" font-family="sans-serif" font-size="14" lengthAdjust="spacing" textLength="75.5645" x="2646.55" y="1039.907">int y_steps</text><text fill="#000000" font-family="sans-serif" font-size="14" lengthAdjust="spacing" textLength="74.6279" x="2646.55" y="1056.2039">int z_steps</text><text fill="#000000" font-family="sans-serif" font-size="14" lengthAdjust="spacing" textLength="154.4102" x="2646.55" y="1072.5007">bool _set_stub_offsets</text><line style="stroke:#181818;stroke-width:0.5;" x1="2641.55" x2="2850.4465" y1="1079.8025" y2="1079.8025"/></g><!--class DiffractionExperiment--><g class="entity" data-entity="DiffractionExperiment" data-source-line="83" data-uid="ent0019" id="entity_DiffractionExperiment"><rect fill="#F1F1F1" height="210.9688" rx="2.5" ry="2.5" style="stroke:#181818;stroke-width:0.5;" width="332.332" x="2640.83" y="275.7869"/><ellipse cx="2725.6127" cy="291.7869" fill="#ADD1B2" rx="11" ry="11" style="stroke:#181818;stroke-width:1;"/><path d="M2728.5815,297.4275 Q2728.0033,297.7244 2727.3627,297.865 Q2726.7221,298.0213 2726.019,298.0213 Q2723.519,298.0213 2722.1908,296.3806 Q2720.8783,294.7244 2720.8783,291.5994 Q2720.8783,288.4744 2722.1908,286.8181 Q2723.519,285.1619 2726.019,285.1619 Q2726.7221,285.1619 2727.3627,285.3181 Q2728.019,285.4744 2728.5815,285.7713 L2728.5815,288.49 Q2727.9565,287.9119 2727.3627,287.6463 Q2726.769,287.365 2726.144,287.365 Q2724.8002,287.365 2724.1127,288.4431 Q2723.4252,289.5056 2723.4252,291.5994 Q2723.4252,293.6931 2724.1127,294.7713 Q2724.8002,295.8338 2726.144,295.8338 Q2726.769,295.8338 2727.3627,295.5681 Q2727.9565,295.2869 2728.5815,294.7088 L2728.5815,297.4275 Z " fill="#000000"/><text fill="#000000" font-family="sans-serif" font-size="14" lengthAdjust="spacing" textLength="154.2666" x="2746.1127" y="296.6336">DiffractionExperiment</text><line style="stroke:#181818;stroke-width:0.5;" x1="2641.83" x2="2972.162" y1="307.7869" y2="307.7869"/><text fill="#000000" font-family="sans-serif" font-size="14" lengthAdjust="spacing" textLength="91.0137" x="2646.83" y="324.782">str file_name</text><text fill="#000000" font-family="sans-serif" font-size="14" lengthAdjust="spacing" textLength="153.7129" x="2646.83" y="341.0789">float exposure_time_s</text><text fill="#000000" font-family="sans-serif" font-size="14" lengthAdjust="spacing" textLength="89.5029" x="2646.83" y="357.3757">str comment</text><text fill="#000000" font-family="sans-serif" font-size="14" lengthAdjust="spacing" textLength="186.915" x="2646.83" y="373.6726">TriggerMode trigger_mode</text><text fill="#000000" font-family="sans-serif" font-size="14" lengthAdjust="spacing" textLength="157.9854" x="2646.83" y="389.9695">int | None run_number</text><text fill="#000000" font-family="sans-serif" font-size="14" lengthAdjust="spacing" textLength="282.3516" x="2646.83" y="406.2664">ApertureValue | None selected_aperture</text><text fill="#000000" font-family="sans-serif" font-size="14" lengthAdjust="spacing" textLength="159.2979" x="2646.83" y="422.5632">float transmission_frac</text><text fill="#000000" font-family="sans-serif" font-size="14" lengthAdjust="spacing" textLength="320.332" x="2646.83" y="438.8601">IspybExperimentType ispyb_experiment_type</text><text fill="#000000" font-family="sans-serif" font-size="14" lengthAdjust="spacing" textLength="146.1113" x="2646.83" y="455.157">str storage_directory</text><text fill="#000000" font-family="sans-serif" font-size="14" lengthAdjust="spacing" textLength="131.0518" x="2646.83" y="471.4539">bool use_roi_mode</text><line style="stroke:#181818;stroke-width:0.5;" x1="2641.83" x2="2972.162" y1="478.7556" y2="478.7556"/></g><!--class PinTipCentreThenXrayCentre--><g class="entity" data-entity="PinTipCentreThenXrayCentre" data-source-line="98" data-uid="ent0021" id="entity_PinTipCentreThenXrayCentre"><rect fill="#F1F1F1" height="64.2969" rx="2.5" ry="2.5" style="stroke:#181818;stroke-width:0.5;" width="235.8955" x="3037.05" y="1147.7969"/><ellipse cx="3052.05" cy="1163.7969" fill="#ADD1B2" rx="11" ry="11" style="stroke:#181818;stroke-width:1;"/><path d="M3055.0188,1169.4375 Q3054.4406,1169.7344 3053.8,1169.875 Q3053.1594,1170.0313 3052.4563,1170.0313 Q3049.9563,1170.0313 3048.6281,1168.3906 Q3047.3156,1166.7344 3047.3156,1163.6094 Q3047.3156,1160.4844 3048.6281,1158.8281 Q3049.9563,1157.1719 3052.4563,1157.1719 Q3053.1594,1157.1719 3053.8,1157.3281 Q3054.4563,1157.4844 3055.0188,1157.7813 L3055.0188,1160.5 Q3054.3938,1159.9219 3053.8,1159.6563 Q3053.2063,1159.375 3052.5813,1159.375 Q3051.2375,1159.375 3050.55,1160.4531 Q3049.8625,1161.5156 3049.8625,1163.6094 Q3049.8625,1165.7031 3050.55,1166.7813 Q3051.2375,1167.8438 3052.5813,1167.8438 Q3053.2063,1167.8438 3053.8,1167.5781 Q3054.3938,1167.2969 3055.0188,1166.7188 L3055.0188,1169.4375 Z " fill="#000000"/><text fill="#000000" font-family="sans-serif" font-size="14" lengthAdjust="spacing" textLength="203.8955" x="3066.05" y="1168.6436">PinTipCentreThenXrayCentre</text><line style="stroke:#181818;stroke-width:0.5;" x1="3038.05" x2="3271.9455" y1="1179.7969" y2="1179.7969"/><text fill="#000000" font-family="sans-serif" font-size="14" lengthAdjust="spacing" textLength="130.498" x="3043.05" y="1196.792">float tip_offset_um</text><line style="stroke:#181818;stroke-width:0.5;" x1="3038.05" x2="3271.9455" y1="1204.0938" y2="1204.0938"/></g><!--class RobotLoadThenCentre--><g class="entity" data-entity="RobotLoadThenCentre" data-source-line="101" data-uid="ent0022" id="entity_RobotLoadThenCentre"><rect fill="#F1F1F1" height="64.2969" rx="2.5" ry="2.5" style="stroke:#181818;stroke-width:0.5;" width="212.9355" x="3307.53" y="1147.7969"/><ellipse cx="3333.2575" cy="1163.7969" fill="#ADD1B2" rx="11" ry="11" style="stroke:#181818;stroke-width:1;"/><path d="M3336.2262,1169.4375 Q3335.6481,1169.7344 3335.0075,1169.875 Q3334.3669,1170.0313 3333.6637,1170.0313 Q3331.1637,1170.0313 3329.8356,1168.3906 Q3328.5231,1166.7344 3328.5231,1163.6094 Q3328.5231,1160.4844 3329.8356,1158.8281 Q3331.1637,1157.1719 3333.6637,1157.1719 Q3334.3669,1157.1719 3335.0075,1157.3281 Q3335.6637,1157.4844 3336.2262,1157.7813 L3336.2262,1160.5 Q3335.6012,1159.9219 3335.0075,1159.6563 Q3334.4137,1159.375 3333.7887,1159.375 Q3332.445,1159.375 3331.7575,1160.4531 Q3331.07,1161.5156 3331.07,1163.6094 Q3331.07,1165.7031 3331.7575,1166.7813 Q3332.445,1167.8438 3333.7887,1167.8438 Q3334.4137,1167.8438 3335.0075,1167.5781 Q3335.6012,1167.2969 3336.2262,1166.7188 L3336.2262,1169.4375 Z " fill="#000000"/><text fill="#000000" font-family="sans-serif" font-size="14" lengthAdjust="spacing" textLength="157.0967" x="3349.6414" y="1168.6436">RobotLoadThenCentre</text><line style="stroke:#181818;stroke-width:0.5;" x1="3308.53" x2="3519.4655" y1="1179.7969" y2="1179.7969"/><text fill="#000000" font-family="sans-serif" font-size="14" lengthAdjust="spacing" textLength="200.9355" x="3313.53" y="1196.792">&lt;class 'float'&gt; thawing_time</text><line style="stroke:#181818;stroke-width:0.5;" x1="3308.53" x2="3519.4655" y1="1204.0938" y2="1204.0938"/></g><!--class GridCommonWithHyperionDetectorParams--><g class="entity" data-entity="GridCommonWithHyperionDetectorParams" data-source-line="104" data-uid="ent0023" id="entity_GridCommonWithHyperionDetectorParams"><rect fill="#F1F1F1" height="48" rx="2.5" ry="2.5" style="stroke:#181818;stroke-width:0.5;" width="333.2188" x="3074.39" y="950.1669"/><ellipse cx="3089.39" cy="966.1669" fill="#ADD1B2" rx="11" ry="11" style="stroke:#181818;stroke-width:1;"/><path d="M3092.3588,971.8075 Q3091.7806,972.1044 3091.14,972.245 Q3090.4994,972.4012 3089.7963,972.4012 Q3087.2963,972.4012 3085.9681,970.7606 Q3084.6556,969.1044 3084.6556,965.9794 Q3084.6556,962.8544 3085.9681,961.1981 Q3087.2963,959.5419 3089.7963,959.5419 Q3090.4994,959.5419 3091.14,959.6981 Q3091.7963,959.8544 3092.3588,960.1512 L3092.3588,962.87 Q3091.7338,962.2919 3091.14,962.0262 Q3090.5463,961.745 3089.9213,961.745 Q3088.5775,961.745 3087.89,962.8231 Q3087.2025,963.8856 3087.2025,965.9794 Q3087.2025,968.0731 3087.89,969.1512 Q3088.5775,970.2137 3089.9213,970.2137 Q3090.5463,970.2137 3091.14,969.9481 Q3091.7338,969.6669 3092.3588,969.0887 L3092.3588,971.8075 Z " fill="#000000"/><text fill="#000000" font-family="sans-serif" font-size="14" lengthAdjust="spacing" textLength="301.2188" x="3103.39" y="971.0136">GridCommonWithHyperionDetectorParams</text><line style="stroke:#181818;stroke-width:0.5;" x1="3075.39" x2="3406.6088" y1="982.1669" y2="982.1669"/><line style="stroke:#181818;stroke-width:0.5;" x1="3075.39" x2="3406.6088" y1="990.1669" y2="990.1669"/></g><!--class RotationScanPerSweep--><g class="entity" data-entity="RotationScanPerSweep" data-source-line="106" data-uid="ent0024" id="entity_RotationScanPerSweep"><rect fill="#F1F1F1" height="129.4844" rx="2.5" ry="2.5" style="stroke:#181818;stroke-width:0.5;" width="263.0498" x="4566.48" y="909.4269"/><ellipse cx="4612.5166" cy="925.4269" fill="#ADD1B2" rx="11" ry="11" style="stroke:#181818;stroke-width:1;"/><path d="M4615.4854,931.0675 Q4614.9072,931.3644 4614.2666,931.505 Q4613.626,931.6612 4612.9229,931.6612 Q4610.4229,931.6612 4609.0947,930.0206 Q4607.7822,928.3644 4607.7822,925.2394 Q4607.7822,922.1144 4609.0947,920.4581 Q4610.4229,918.8019 4612.9229,918.8019 Q4613.626,918.8019 4614.2666,918.9581 Q4614.9229,919.1144 4615.4854,919.4112 L4615.4854,922.13 Q4614.8604,921.5519 4614.2666,921.2862 Q4613.6729,921.005 4613.0479,921.005 Q4611.7041,921.005 4611.0166,922.0831 Q4610.3291,923.1456 4610.3291,925.2394 Q4610.3291,927.3331 4611.0166,928.4112 Q4611.7041,929.4737 4613.0479,929.4737 Q4613.6729,929.4737 4614.2666,929.2081 Q4614.8604,928.9269 4615.4854,928.3487 L4615.4854,931.0675 Z " fill="#000000"/><text fill="#000000" font-family="sans-serif" font-size="14" lengthAdjust="spacing" textLength="162.4766" x="4633.0166" y="930.2736">RotationScanPerSweep</text><line style="stroke:#181818;stroke-width:0.5;" x1="4567.48" x2="4828.5298" y1="941.4269" y2="941.4269"/><text fill="#000000" font-family="sans-serif" font-size="14" lengthAdjust="spacing" textLength="157.1787" x="4572.48" y="958.422">float omega_start_deg</text><text fill="#000000" font-family="sans-serif" font-size="14" lengthAdjust="spacing" textLength="182.9297" x="4572.48" y="974.7189">RotationAxis rotation_axis</text><text fill="#000000" font-family="sans-serif" font-size="14" lengthAdjust="spacing" textLength="147.3213" x="4572.48" y="991.0157">float scan_width_deg</text><text fill="#000000" font-family="sans-serif" font-size="14" lengthAdjust="spacing" textLength="251.0498" x="4572.48" y="1007.3126">RotationDirection rotation_direction</text><text fill="#000000" font-family="sans-serif" font-size="14" lengthAdjust="spacing" textLength="169.1279" x="4572.48" y="1023.6095">int nexus_vds_start_img</text><line style="stroke:#181818;stroke-width:0.5;" x1="4567.48" x2="4828.5298" y1="1030.9112" y2="1030.9112"/></g><!--class RotationExperiment--><g class="entity" data-entity="RotationExperiment" data-source-line="113" data-uid="ent0025" id="entity_RotationExperiment"><rect fill="#F1F1F1" height="96.8906" rx="2.5" ry="2.5" style="stroke:#181818;stroke-width:0.5;" width="332.332" x="3516.83" y="925.7269"/><ellipse cx="3608.7118" cy="941.7269" fill="#ADD1B2" rx="11" ry="11" style="stroke:#181818;stroke-width:1;"/><path d="M3611.6806,947.3675 Q3611.1025,947.6644 3610.4618,947.805 Q3609.8212,947.9613 3609.1181,947.9613 Q3606.6181,947.9613 3605.29,946.3206 Q3603.9775,944.6644 3603.9775,941.5394 Q3603.9775,938.4144 3605.29,936.7581 Q3606.6181,935.1019 3609.1181,935.1019 Q3609.8212,935.1019 3610.4618,935.2581 Q3611.1181,935.4144 3611.6806,935.7113 L3611.6806,938.43 Q3611.0556,937.8519 3610.4618,937.5863 Q3609.8681,937.305 3609.2431,937.305 Q3607.8993,937.305 3607.2118,938.3831 Q3606.5243,939.4456 3606.5243,941.5394 Q3606.5243,943.6331 3607.2118,944.7113 Q3607.8993,945.7738 3609.2431,945.7738 Q3609.8681,945.7738 3610.4618,945.5081 Q3611.0556,945.2269 3611.6806,944.6488 L3611.6806,947.3675 Z " fill="#000000"/><text fill="#000000" font-family="sans-serif" font-size="14" lengthAdjust="spacing" textLength="140.0684" x="3629.2118" y="946.5736">RotationExperiment</text><line style="stroke:#181818;stroke-width:0.5;" x1="3517.83" x2="3848.162" y1="957.7269" y2="957.7269"/><text fill="#000000" font-family="sans-serif" font-size="14" lengthAdjust="spacing" textLength="202.8018" x="3522.83" y="974.722">float shutter_opening_time_s</text><text fill="#000000" font-family="sans-serif" font-size="14" lengthAdjust="spacing" textLength="202.9385" x="3522.83" y="991.0189">float rotation_increment_deg</text><text fill="#000000" font-family="sans-serif" font-size="14" lengthAdjust="spacing" textLength="320.332" x="3522.83" y="1007.3157">IspybExperimentType ispyb_experiment_type</text><line style="stroke:#181818;stroke-width:0.5;" x1="3517.83" x2="3848.162" y1="1014.6175" y2="1014.6175"/></g><!--class MultiRotationScan--><g class="entity" data-entity="MultiRotationScan" data-source-line="118" data-uid="ent0026" id="entity_MultiRotationScan"><rect fill="#F1F1F1" height="64.2969" rx="2.5" ry="2.5" style="stroke:#181818;stroke-width:0.5;" width="540.001" x="3930" y="1147.7969"/><ellipse cx="4132.0327" cy="1163.7969" fill="#ADD1B2" rx="11" ry="11" style="stroke:#181818;stroke-width:1;"/><path d="M4135.0015,1169.4375 Q4134.4233,1169.7344 4133.7827,1169.875 Q4133.1421,1170.0313 4132.439,1170.0313 Q4129.939,1170.0313 4128.6108,1168.3906 Q4127.2983,1166.7344 4127.2983,1163.6094 Q4127.2983,1160.4844 4128.6108,1158.8281 Q4129.939,1157.1719 4132.439,1157.1719 Q4133.1421,1157.1719 4133.7827,1157.3281 Q4134.439,1157.4844 4135.0015,1157.7813 L4135.0015,1160.5 Q4134.3765,1159.9219 4133.7827,1159.6563 Q4133.189,1159.375 4132.564,1159.375 Q4131.2202,1159.375 4130.5327,1160.4531 Q4129.8452,1161.5156 4129.8452,1163.6094 Q4129.8452,1165.7031 4130.5327,1166.7813 Q4131.2202,1167.8438 4132.564,1167.8438 Q4133.189,1167.8438 4133.7827,1167.5781 Q4134.3765,1167.2969 4135.0015,1166.7188 L4135.0015,1169.4375 Z " fill="#000000"/><text fill="#000000" font-family="sans-serif" font-size="14" lengthAdjust="spacing" textLength="127.4355" x="4152.5327" y="1168.6436">MultiRotationScan</text><line style="stroke:#181818;stroke-width:0.5;" x1="3931" x2="4469.001" y1="1179.7969" y2="1179.7969"/><line style="stroke:#181818;stroke-width:0.5;" x1="3931" x2="4469.001" y1="1187.7969" y2="1187.7969"/><text fill="#000000" font-family="sans-serif" font-size="14" lengthAdjust="spacing" textLength="528.001" x="3936" y="1204.792">Annotated[list[RotationScanPerSweep], Len(min_length=1)] rotation_scans</text></g><!--class RotationScan--><g class="entity" data-entity="RotationScan" data-source-line="121" data-uid="ent0027" id="entity_RotationScan"><rect fill="#F1F1F1" height="48" rx="2.5" ry="2.5" style="stroke:#181818;stroke-width:0.5;" width="125.2148" x="4635.39" y="1155.9469"/><ellipse cx="4650.39" cy="1171.9469" fill="#ADD1B2" rx="11" ry="11" style="stroke:#181818;stroke-width:1;"/><path d="M4653.3588,1177.5875 Q4652.7806,1177.8844 4652.14,1178.025 Q4651.4994,1178.1812 4650.7963,1178.1812 Q4648.2963,1178.1812 4646.9681,1176.5406 Q4645.6556,1174.8844 4645.6556,1171.7594 Q4645.6556,1168.6344 4646.9681,1166.9781 Q4648.2963,1165.3219 4650.7963,1165.3219 Q4651.4994,1165.3219 4652.14,1165.4781 Q4652.7963,1165.6344 4653.3588,1165.9312 L4653.3588,1168.65 Q4652.7338,1168.0719 4652.14,1167.8062 Q4651.5463,1167.525 4650.9213,1167.525 Q4649.5775,1167.525 4648.89,1168.6031 Q4648.2025,1169.6656 4648.2025,1171.7594 Q4648.2025,1173.8531 4648.89,1174.9312 Q4649.5775,1175.9937 4650.9213,1175.9937 Q4651.5463,1175.9937 4652.14,1175.7281 Q4652.7338,1175.4469 4653.3588,1174.8687 L4653.3588,1177.5875 Z " fill="#000000"/><text fill="#000000" font-family="sans-serif" font-size="14" lengthAdjust="spacing" textLength="93.2148" x="4664.39" y="1176.7936">RotationScan</text><line style="stroke:#181818;stroke-width:0.5;" x1="4636.39" x2="4759.6048" y1="1187.9469" y2="1187.9469"/><line style="stroke:#181818;stroke-width:0.5;" x1="4636.39" x2="4759.6048" y1="1195.9469" y2="1195.9469"/></g><!--class WithHyperionUDCFeatures--><g class="entity" data-entity="WithHyperionUDCFeatures" data-source-line="123" data-uid="ent0028" id="entity_WithHyperionUDCFeatures"><rect fill="#F1F1F1" height="64.2969" rx="2.5" ry="2.5" style="stroke:#181818;stroke-width:0.5;" width="228.6719" x="3347.66" y="695.4969"/><ellipse cx="3366.7583" cy="711.4969" fill="#ADD1B2" rx="11" ry="11" style="stroke:#181818;stroke-width:1;"/><path d="M3369.7271,717.1375 Q3369.149,717.4344 3368.5083,717.575 Q3367.8677,717.7312 3367.1646,717.7312 Q3364.6646,717.7312 3363.3365,716.0906 Q3362.024,714.4344 3362.024,711.3094 Q3362.024,708.1844 3363.3365,706.5281 Q3364.6646,704.8719 3367.1646,704.8719 Q3367.8677,704.8719 3368.5083,705.0281 Q3369.1646,705.1844 3369.7271,705.4812 L3369.7271,708.2 Q3369.1021,707.6219 3368.5083,707.3562 Q3367.9146,707.075 3367.2896,707.075 Q3365.9458,707.075 3365.2583,708.1531 Q3364.5708,709.2156 3364.5708,711.3094 Q3364.5708,713.4031 3365.2583,714.4812 Q3365.9458,715.5437 3367.2896,715.5437 Q3367.9146,715.5437 3368.5083,715.2781 Q3369.1021,714.9969 3369.7271,714.4187 L3369.7271,717.1375 Z " fill="#000000"/><text fill="#000000" font-family="sans-serif" font-size="14" lengthAdjust="spacing" textLength="187.5645" x="3381.6691" y="716.3436">WithHyperionUDCFeatures</text><line style="stroke:#181818;stroke-width:0.5;" x1="3348.66" x2="3575.3319" y1="727.4969" y2="727.4969"/><text fill="#000000" font-family="sans-serif" font-size="14" lengthAdjust="spacing" textLength="216.6719" x="3353.66" y="744.492">HyperionFeatureFlags features</text><line style="stroke:#181818;stroke-width:0.5;" x1="3348.66" x2="3575.3319" y1="751.7937" y2="751.7937"/></g><!--class GridScanWithEdgeDetect--><g class="entity" data-entity="GridScanWithEdgeDetect" data-source-line="126" data-uid="ent0029" id="entity_GridScanWithEdgeDetect"><rect fill="#F1F1F1" height="48" rx="2.5" ry="2.5" style="stroke:#181818;stroke-width:0.5;" width="209.4268" x="3555.29" y="1155.9469"/><ellipse cx="3570.29" cy="1171.9469" fill="#ADD1B2" rx="11" ry="11" style="stroke:#181818;stroke-width:1;"/><path d="M3573.2588,1177.5875 Q3572.6806,1177.8844 3572.04,1178.025 Q3571.3994,1178.1812 3570.6963,1178.1812 Q3568.1963,1178.1812 3566.8681,1176.5406 Q3565.5556,1174.8844 3565.5556,1171.7594 Q3565.5556,1168.6344 3566.8681,1166.9781 Q3568.1963,1165.3219 3570.6963,1165.3219 Q3571.3994,1165.3219 3572.04,1165.4781 Q3572.6963,1165.6344 3573.2588,1165.9312 L3573.2588,1168.65 Q3572.6338,1168.0719 3572.04,1167.8062 Q3571.4463,1167.525 3570.8213,1167.525 Q3569.4775,1167.525 3568.79,1168.6031 Q3568.1025,1169.6656 3568.1025,1171.7594 Q3568.1025,1173.8531 3568.79,1174.9312 Q3569.4775,1175.9937 3570.8213,1175.9937 Q3571.4463,1175.9937 3572.04,1175.7281 Q3572.6338,1175.4469 3573.2588,1174.8687 L3573.2588,1177.5875 Z " fill="#000000"/><text fill="#000000" font-family="sans-serif" font-size="14" lengthAdjust="spacing" textLength="177.4268" x="3584.29" y="1176.7936">GridScanWithEdgeDetect</text><line style="stroke:#181818;stroke-width:0.5;" x1="3556.29" x2="3763.7168" y1="1187.9469" y2="1187.9469"/><line style="stroke:#181818;stroke-width:0.5;" x1="3556.29" x2="3763.7168" y1="1195.9469" y2="1195.9469"/></g><!--class LoadCentreCollect--><g class="entity" data-entity="LoadCentreCollect" data-source-line="128" data-uid="ent0030" id="entity_LoadCentreCollect"><rect fill="#F1F1F1" height="80.5938" rx="2.5" ry="2.5" style="stroke:#181818;stroke-width:0.5;" width="338.6211" x="4192.69" y="933.8669"/><ellipse cx="4293.315" cy="949.8669" fill="#ADD1B2" rx="11" ry="11" style="stroke:#181818;stroke-width:1;"/><path d="M4296.2838,955.5075 Q4295.7056,955.8044 4295.065,955.945 Q4294.4244,956.1012 4293.7213,956.1012 Q4291.2213,956.1012 4289.8931,954.4606 Q4288.5806,952.8044 4288.5806,949.6794 Q4288.5806,946.5544 4289.8931,944.8981 Q4291.2213,943.2419 4293.7213,943.2419 Q4294.4244,943.2419 4295.065,943.3981 Q4295.7213,943.5544 4296.2838,943.8512 L4296.2838,946.57 Q4295.6588,945.9919 4295.065,945.7262 Q4294.4713,945.445 4293.8463,945.445 Q4292.5025,945.445 4291.815,946.5231 Q4291.1275,947.5856 4291.1275,949.6794 Q4291.1275,951.7731 4291.815,952.8512 Q4292.5025,953.9137 4293.8463,953.9137 Q4294.4713,953.9137 4295.065,953.6481 Q4295.6588,953.3669 4296.2838,952.7887 L4296.2838,955.5075 Z " fill="#000000"/><text fill="#000000" font-family="sans-serif" font-size="14" lengthAdjust="spacing" textLength="128.8711" x="4313.815" y="954.7136">LoadCentreCollect</text><line style="stroke:#181818;stroke-width:0.5;" x1="4193.69" x2="4530.3111" y1="965.8669" y2="965.8669"/><text fill="#000000" font-family="sans-serif" font-size="14" lengthAdjust="spacing" textLength="326.6211" x="4198.69" y="982.862">RobotLoadThenCentre robot_load_then_centre</text><text fill="#000000" font-family="sans-serif" font-size="14" lengthAdjust="spacing" textLength="269.3154" x="4198.69" y="999.1589">MultiRotationScan multi_rotation_scan</text><line style="stroke:#181818;stroke-width:0.5;" x1="4193.69" x2="4530.3111" y1="1006.4606" y2="1006.4606"/></g><!--class HyperionSpecifiedThreeDGridScan--><g class="entity" data-entity="HyperionSpecifiedThreeDGridScan" data-source-line="132" data-uid="ent0031" id="entity_HyperionSpecifiedThreeDGridScan"><rect fill="#F1F1F1" height="48" rx="2.5" ry="2.5" style="stroke:#181818;stroke-width:0.5;" width="274.293" x="3883.85" y="950.1669"/><ellipse cx="3898.85" cy="966.1669" fill="#ADD1B2" rx="11" ry="11" style="stroke:#181818;stroke-width:1;"/><path d="M3901.8188,971.8075 Q3901.2406,972.1044 3900.6,972.245 Q3899.9594,972.4012 3899.2563,972.4012 Q3896.7563,972.4012 3895.4281,970.7606 Q3894.1156,969.1044 3894.1156,965.9794 Q3894.1156,962.8544 3895.4281,961.1981 Q3896.7563,959.5419 3899.2563,959.5419 Q3899.9594,959.5419 3900.6,959.6981 Q3901.2563,959.8544 3901.8188,960.1512 L3901.8188,962.87 Q3901.1938,962.2919 3900.6,962.0262 Q3900.0063,961.745 3899.3813,961.745 Q3898.0375,961.745 3897.35,962.8231 Q3896.6625,963.8856 3896.6625,965.9794 Q3896.6625,968.0731 3897.35,969.1512 Q3898.0375,970.2137 3899.3813,970.2137 Q3900.0063,970.2137 3900.6,969.9481 Q3901.1938,969.6669 3901.8188,969.0887 L3901.8188,971.8075 Z " fill="#000000"/><text fill="#000000" font-family="sans-serif" font-size="14" lengthAdjust="spacing" textLength="242.293" x="3912.85" y="971.0136">HyperionSpecifiedThreeDGridScan</text><line style="stroke:#181818;stroke-width:0.5;" x1="3884.85" x2="4157.143" y1="982.1669" y2="982.1669"/><line style="stroke:#181818;stroke-width:0.5;" x1="3884.85" x2="4157.143" y1="990.1669" y2="990.1669"/></g><!--reverse link XyzStarts to SpecifiedGrid--><g class="link" data-entity-1="XyzStarts" data-entity-2="SpecifiedGrid" data-source-line="135" data-uid="lnk32" id="link_XyzStarts_SpecifiedGrid"><path codeLine="135" d="M429.807,210.2681 C438.637,216.4481 433.35,211.7069 443,215.7869 C471.93,227.9969 1420.7,342.0869 1676.83,372.7269 " fill="none" id="XyzStarts-backto-SpecifiedGrid" style="stroke:#181818;stroke-width:1;"/><polygon fill="none" points="415.06,199.9469,426.3666,215.1837,433.2474,205.3524,415.06,199.9469" style="stroke:#181818;stroke-width:1;"/></g><!--reverse link WithScan to SpecifiedGrid--><g class="link" data-entity-1="WithScan" data-entity-2="SpecifiedGrid" data-source-line="136" data-uid="lnk33" id="link_WithScan_SpecifiedGrid"><path codeLine="136" d="M1740,193.1769 C1740,236.9269 1740,313.2769 1740,357.0669 " fill="none" id="WithScan-backto-SpecifiedGrid" style="stroke:#181818;stroke-width:1;"/><polygon fill="none" points="1740,175.1769,1734,193.1769,1746,193.1769,1740,175.1769" style="stroke:#181818;stroke-width:1;"/></g><!--reverse link DiffractionExperimentWithSample to GridCommon--><g class="link" data-entity-1="DiffractionExperimentWithSample" data-entity-2="GridCommon" data-source-line="137" data-uid="lnk34" id="link_DiffractionExperimentWithSample_GridCommon"><path codeLine="137" d="M2807,612.9369 C2807,628.8969 2807,633.0169 2807,654.5769 " fill="none" id="DiffractionExperimentWithSample-backto-GridCommon" style="stroke:#181818;stroke-width:1;"/><polygon fill="none" points="2807,594.9369,2801,612.9369,2813,612.9369,2807,594.9369" style="stroke:#181818;stroke-width:1;"/></g><!--reverse link OptionalGonioAngleStarts to GridCommon--><g class="link" data-entity-1="OptionalGonioAngleStarts" data-entity-2="GridCommon" data-source-line="138" data-uid="lnk35" id="link_OptionalGonioAngleStarts_GridCommon"><path codeLine="138" d="M1537.5442,214.9589 C1544.2642,217.7489 1534.37,213.4469 1541,215.7869 C1660.64,257.9069 1699.61,235.8669 1820,275.7869 C2136.5,380.7269 2487.17,556.0869 2673.45,654.3169 " fill="none" id="OptionalGonioAngleStarts-backto-GridCommon" style="stroke:#181818;stroke-width:1;"/><polygon fill="none" points="1520.92,208.0569,1535.2435,220.5003,1539.8448,209.4175,1520.92,208.0569" style="stroke:#181818;stroke-width:1;"/></g><!--reverse link GridCommonWithHyperionDetectorParams to PinTipCentreThenXrayCentre--><g class="link" data-entity-1="GridCommonWithHyperionDetectorParams" data-entity-2="PinTipCentreThenXrayCentre" data-source-line="139" data-uid="lnk36" id="link_GridCommonWithHyperionDetectorParams_PinTipCentreThenXrayCentre"><path codeLine="139" d="M3224.1329,1015.1312 C3208.6529,1051.8212 3185.61,1106.4069 3168.26,1147.5369 " fill="none" id="GridCommonWithHyperionDetectorParams-backto-PinTipCentreThenXrayCentre" style="stroke:#181818;stroke-width:1;"/><polygon fill="none" points="3231.13,998.5469,3218.6047,1012.7988,3229.661,1017.4636,3231.13,998.5469" style="stroke:#181818;stroke-width:1;"/></g><!--reverse link WithHyperionUDCFeatures to PinTipCentreThenXrayCentre--><g class="link" data-entity-1="WithHyperionUDCFeatures" data-entity-2="PinTipCentreThenXrayCentre" data-source-line="140" data-uid="lnk37" id="link_WithHyperionUDCFeatures_PinTipCentreThenXrayCentre"><path codeLine="140" d="M3329.6598,754.2195 C3222.4998,777.1895 3091.62,812.8469 3057,860.5369 C2989.3,953.7769 3000.36,1019.4569 3057,1119.7969 C3063.15,1130.7069 3072.21,1139.8169 3082.38,1147.3769 " fill="none" id="WithHyperionUDCFeatures-backto-PinTipCentreThenXrayCentre" style="stroke:#181818;stroke-width:1;"/><polygon fill="none" points="3347.26,750.4469,3328.4022,748.3528,3330.9173,760.0863,3347.26,750.4469" style="stroke:#181818;stroke-width:1;"/></g><!--reverse link GridCommonWithHyperionDetectorParams to RobotLoadThenCentre--><g class="link" data-entity-1="GridCommonWithHyperionDetectorParams" data-entity-2="RobotLoadThenCentre" data-source-line="141" data-uid="lnk38" id="link_GridCommonWithHyperionDetectorParams_RobotLoadThenCentre"><path codeLine="141" d="M3272.4997,1012.2685 C3303.6497,1048.9585 3352.42,1106.4069 3387.33,1147.5369 " fill="none" id="GridCommonWithHyperionDetectorParams-backto-RobotLoadThenCentre" style="stroke:#181818;stroke-width:1;"/><polygon fill="none" points="3260.85,998.5469,3267.9259,1016.1518,3277.0736,1008.3853,3260.85,998.5469" style="stroke:#181818;stroke-width:1;"/></g><!--reverse link WithHyperionUDCFeatures to RobotLoadThenCentre--><g class="link" data-entity-1="WithHyperionUDCFeatures" data-entity-2="RobotLoadThenCentre" data-source-line="142" data-uid="lnk39" id="link_WithHyperionUDCFeatures_RobotLoadThenCentre"><path codeLine="142" d="M3458.7726,778.1463 C3454.2926,844.7863 3443.63,986.7169 3425,1119.7969 C3423.74,1128.7969 3422.07,1138.5169 3420.41,1147.4169 " fill="none" id="WithHyperionUDCFeatures-backto-RobotLoadThenCentre" style="stroke:#181818;stroke-width:1;"/><polygon fill="none" points="3459.98,760.1869,3452.7862,777.7439,3464.7591,778.5488,3459.98,760.1869" style="stroke:#181818;stroke-width:1;"/></g><!--reverse link GridCommon to GridCommonWithHyperionDetectorParams--><g class="link" data-entity-1="GridCommon" data-entity-2="GridCommonWithHyperionDetectorParams" data-source-line="143" data-uid="lnk40" id="link_GridCommon_GridCommonWithHyperionDetectorParams"><path codeLine="143" d="M2951.1323,809.8524 C3040.8723,860.4124 3139.3,915.8669 3199.49,949.7769 " fill="none" id="GridCommon-backto-GridCommonWithHyperionDetectorParams" style="stroke:#181818;stroke-width:1;"/><polygon fill="none" points="2935.45,801.0169,2948.1871,815.0798,2954.0775,804.6249,2935.45,801.0169" style="stroke:#181818;stroke-width:1;"/></g><!--reverse link WithHyperionUDCFeatures to GridCommonWithHyperionDetectorParams--><g class="link" data-entity-1="WithHyperionUDCFeatures" data-entity-2="GridCommonWithHyperionDetectorParams" data-source-line="144" data-uid="lnk41" id="link_WithHyperionUDCFeatures_GridCommonWithHyperionDetectorParams"><path codeLine="144" d="M3421.4907,773.4609 C3376.4907,823.2509 3301.97,905.7169 3262.07,949.8569 " fill="none" id="WithHyperionUDCFeatures-backto-GridCommonWithHyperionDetectorParams" style="stroke:#181818;stroke-width:1;"/><polygon fill="none" points="3433.56,760.1069,3417.0393,769.4378,3425.942,777.484,3433.56,760.1069" style="stroke:#181818;stroke-width:1;"/></g><!--reverse link OptionalGonioAngleStarts to RotationScanPerSweep--><g class="link" data-entity-1="OptionalGonioAngleStarts" data-entity-2="RotationScanPerSweep" data-source-line="145" data-uid="lnk42" id="link_OptionalGonioAngleStarts_RotationScanPerSweep"><path codeLine="145" d="M1533.4002,214.3465 C1541.5302,217.3565 1532.87,213.7369 1541,215.7869 C2008.84,333.4569 3252.85,124.7469 3711,275.7869 C4111.77,407.9069 4492.03,762.8769 4636.63,908.9869 " fill="none" id="OptionalGonioAngleStarts-backto-RotationScanPerSweep" style="stroke:#181818;stroke-width:1;"/><polygon fill="none" points="1516.52,208.0969,1531.317,219.9732,1535.4834,208.7198,1516.52,208.0969" style="stroke:#181818;stroke-width:1;"/></g><!--reverse link OptionalXyzStarts to RotationScanPerSweep--><g class="link" data-entity-1="OptionalXyzStarts" data-entity-2="RotationScanPerSweep" data-source-line="146" data-uid="lnk43" id="link_OptionalXyzStarts_RotationScanPerSweep"><path codeLine="146" d="M2606.0103,208.964 C2616.9903,215.414 2613.19,211.9869 2625,215.7869 C2803.89,273.2469 4155.01,177.2469 4315,275.7869 C4550.52,420.8369 4651.93,765.6769 4684.93,908.9869 " fill="none" id="OptionalXyzStarts-backto-RotationScanPerSweep" style="stroke:#181818;stroke-width:1;"/><polygon fill="none" points="2590.49,199.8469,2602.9712,214.1374,2609.0493,203.7905,2590.49,199.8469" style="stroke:#181818;stroke-width:1;"/></g><!--reverse link MxBlueskyParameters to DiffractionExperiment--><g class="link" data-entity-1="MxBlueskyParameters" data-entity-2="DiffractionExperiment" data-source-line="147" data-uid="lnk44" id="link_MxBlueskyParameters_DiffractionExperiment"><path codeLine="147" d="M2810.9224,201.2925 C2810.3924,225.2825 2810.03,241.8769 2809.3,275.3969 " fill="none" id="MxBlueskyParameters-backto-DiffractionExperiment" style="stroke:#181818;stroke-width:1;"/><polygon fill="none" points="2811.32,183.2969,2804.9239,201.16,2816.921,201.425,2811.32,183.2969" style="stroke:#181818;stroke-width:1;"/></g><!--reverse link WithSnapshot to DiffractionExperiment--><g class="link" data-entity-1="WithSnapshot" data-entity-2="DiffractionExperiment" data-source-line="148" data-uid="lnk45" id="link_WithSnapshot_DiffractionExperiment"><path codeLine="148" d="M919.2295,198.2788 C943.7495,207.9288 954.12,210.4169 980,215.7869 C1339.91,290.4369 2280.62,171.1969 2633,275.7869 C2635.45,276.5069 2637.9,277.2769 2640.35,278.0869 " fill="none" id="WithSnapshot-backto-DiffractionExperiment" style="stroke:#181818;stroke-width:1;"/><polygon fill="none" points="902.48,191.6869,917.0322,203.8619,921.4268,192.6956,902.48,191.6869" style="stroke:#181818;stroke-width:1;"/></g><!--reverse link WithOptionalEnergyChange to DiffractionExperiment--><g class="link" data-entity-1="WithOptionalEnergyChange" data-entity-2="DiffractionExperiment" data-source-line="149" data-uid="lnk46" id="link_WithOptionalEnergyChange_DiffractionExperiment"><path codeLine="149" d="M217.5828,191.9556 C241.6228,204.4456 254.88,209.1069 283,215.7869 C791.24,336.5669 2131.41,129.8369 2633,275.7869 C2635.45,276.4969 2637.91,277.2569 2640.36,278.0569 " fill="none" id="WithOptionalEnergyChange-backto-DiffractionExperiment" style="stroke:#181818;stroke-width:1;"/><polygon fill="none" points="201.61,183.6569,214.8166,197.2799,220.3491,186.6313,201.61,183.6569" style="stroke:#181818;stroke-width:1;"/></g><!--reverse link WithVisit to DiffractionExperiment--><g class="link" data-entity-1="WithVisit" data-entity-2="DiffractionExperiment" data-source-line="150" data-uid="lnk47" id="link_WithVisit_DiffractionExperiment"><path codeLine="150" d="M1286.3804,216.1362 C1292.3904,217.8362 1281.07,214.4669 1287,215.7869 C1579.29,280.6869 2346.32,189.4069 2633,275.7869 C2635.45,276.5169 2637.89,277.2969 2640.34,278.1169 " fill="none" id="WithVisit-backto-DiffractionExperiment" style="stroke:#181818;stroke-width:1;"/><polygon fill="none" points="1269.06,211.2369,1284.7473,221.9096,1288.0135,210.3627,1269.06,211.2369" style="stroke:#181818;stroke-width:1;"/></g><!--reverse link DiffractionExperimentWithSample to RotationExperiment--><g class="link" data-entity-1="DiffractionExperimentWithSample" data-entity-2="RotationExperiment" data-source-line="151" data-uid="lnk48" id="link_DiffractionExperimentWithSample_RotationExperiment"><path codeLine="151" d="M2877.5772,602.3141 C2914.3072,618.2841 2947.43,632.8469 2991,652.4969 C3201.62,747.4969 3446.63,861.9769 3581.29,925.2469 " fill="none" id="DiffractionExperimentWithSample-backto-RotationExperiment" style="stroke:#181818;stroke-width:1;"/><polygon fill="none" points="2861.07,595.1369,2875.1848,607.8165,2879.9696,596.8117,2861.07,595.1369" style="stroke:#181818;stroke-width:1;"/></g><!--reverse link WithHyperionUDCFeatures to RotationExperiment--><g class="link" data-entity-1="WithHyperionUDCFeatures" data-entity-2="RotationExperiment" data-source-line="152" data-uid="lnk49" id="link_WithHyperionUDCFeatures_RotationExperiment"><path codeLine="152" d="M3502.5098,773.4605 C3540.3998,815.3805 3595.7,876.5769 3639.87,925.4369 " fill="none" id="WithHyperionUDCFeatures-backto-RotationExperiment" style="stroke:#181818;stroke-width:1;"/><polygon fill="none" points="3490.44,760.1069,3498.0586,777.4838,3506.9611,769.4372,3490.44,760.1069" style="stroke:#181818;stroke-width:1;"/></g><!--reverse link RotationExperiment to MultiRotationScan--><g class="link" data-entity-1="RotationExperiment" data-entity-2="MultiRotationScan" data-source-line="153" data-uid="lnk50" id="link_RotationExperiment_MultiRotationScan"><path codeLine="153" d="M3742.9356,1035.3543 C3777.5256,1067.8143 3814.28,1096.5769 3866,1119.7969 C3890.85,1130.9569 3917.62,1140.0169 3944.8,1147.3669 " fill="none" id="RotationExperiment-backto-MultiRotationScan" style="stroke:#181818;stroke-width:1;"/><polygon fill="none" points="3729.81,1023.0369,3738.8298,1039.7295,3747.0414,1030.979,3729.81,1023.0369" style="stroke:#181818;stroke-width:1;"/></g><!--reverse link SplitScan to MultiRotationScan--><g class="link" data-entity-1="SplitScan" data-entity-2="MultiRotationScan" data-source-line="154" data-uid="lnk51" id="link_SplitScan_MultiRotationScan"><path codeLine="154" d="M1635.1451,189.3326 C1647.0451,203.8626 1653.02,207.4069 1673,215.7869 C1905.36,313.2669 3691.42,234.5669 3940,275.7869 C4373.09,347.5969 4883,130.7469 4883,569.7569 C4883,569.7569 4883,569.7569 4883,728.6469 C4883,903.2269 4970.49,996.3869 4847,1119.7969 C4839.97,1126.8269 4644.41,1144.0569 4470.13,1158.1169 " fill="none" id="SplitScan-backto-MultiRotationScan" style="stroke:#181818;stroke-width:1;"/><polygon fill="none" points="1623.74,175.4069,1630.5032,193.1342,1639.787,185.5309,1623.74,175.4069" style="stroke:#181818;stroke-width:1;"/></g><!--reverse link WithScan to RotationScan--><g class="link" data-entity-1="WithScan" data-entity-2="RotationScan" data-source-line="155" data-uid="lnk52" id="link_WithScan_RotationScan"><path codeLine="155" d="M1768.1304,189.3564 C1780.0304,203.8964 1786.01,207.4369 1806,215.7869 C2075.33,328.2069 4150.55,198.5369 4432,275.7869 C4688.76,346.2569 4954,303.4969 4954,569.7569 C4954,569.7569 4954,569.7569 4954,728.6469 C4954,903.7969 5019.89,986.7369 4906,1119.7969 C4887.11,1141.8669 4815.05,1158.8669 4761.01,1168.8669 " fill="none" id="WithScan-backto-RotationScan" style="stroke:#181818;stroke-width:1;"/><polygon fill="none" points="1756.73,175.4269,1763.4872,193.1565,1772.7735,185.5563,1756.73,175.4269" style="stroke:#181818;stroke-width:1;"/></g><!--reverse link RotationScanPerSweep to RotationScan--><g class="link" data-entity-1="RotationScanPerSweep" data-entity-2="RotationScan" data-source-line="156" data-uid="lnk53" id="link_RotationScanPerSweep_RotationScan"><path codeLine="156" d="M4698,1057.3669 C4698,1097.0269 4698,1127.5669 4698,1155.7069 " fill="none" id="RotationScanPerSweep-backto-RotationScan" style="stroke:#181818;stroke-width:1;"/><polygon fill="none" points="4698,1039.3669,4692,1057.3669,4704,1057.3669,4698,1039.3669" style="stroke:#181818;stroke-width:1;"/></g><!--reverse link RotationExperiment to RotationScan--><g class="link" data-entity-1="RotationExperiment" data-entity-2="RotationScan" data-source-line="157" data-uid="lnk54" id="link_RotationExperiment_RotationScan"><path codeLine="157" d="M3739.5781,1035.6541 C3773.8081,1069.4541 3811.74,1099.5669 3866,1119.7969 C3995.64,1168.1369 4350.28,1134.5169 4488,1147.7969 C4537.71,1152.5969 4593.63,1161.0369 4635.26,1167.9269 " fill="none" id="RotationExperiment-backto-RotationScan" style="stroke:#181818;stroke-width:1;"/><polygon fill="none" points="3726.77,1023.0069,3735.3624,1039.9235,3743.7939,1031.3847,3726.77,1023.0069" style="stroke:#181818;stroke-width:1;"/></g><!--reverse link WithPandaGridScan to WithHyperionUDCFeatures--><g class="link" data-entity-1="WithPandaGridScan" data-entity-2="WithHyperionUDCFeatures" data-source-line="158" data-uid="lnk55" id="link_WithPandaGridScan_WithHyperionUDCFeatures"><path codeLine="158" d="M2016.0991,191.6678 C2040.5191,203.9178 2053.87,208.6169 2082,215.7869 C2277.75,265.6369 2804.05,194.5769 2989,275.7869 C3205.06,370.6569 3382.28,608.9969 3441.14,695.0469 " fill="none" id="WithPandaGridScan-backto-WithHyperionUDCFeatures" style="stroke:#181818;stroke-width:1;"/><polygon fill="none" points="2000.01,183.5969,2013.4088,197.0308,2018.7894,186.3048,2000.01,183.5969" style="stroke:#181818;stroke-width:1;"/></g><!--reverse link GridCommonWithHyperionDetectorParams to GridScanWithEdgeDetect--><g class="link" data-entity-1="GridCommonWithHyperionDetectorParams" data-entity-2="GridScanWithEdgeDetect" data-source-line="159" data-uid="lnk56" id="link_GridCommonWithHyperionDetectorParams_GridScanWithEdgeDetect"><path codeLine="159" d="M3287.0137,1009.0336 C3330.1437,1040.1736 3396.38,1084.9269 3472,1119.7969 C3502.76,1133.9869 3537.85,1146.0469 3569.31,1155.5069 " fill="none" id="GridCommonWithHyperionDetectorParams-backto-GridScanWithEdgeDetect" style="stroke:#181818;stroke-width:1;"/><polygon fill="none" points="3272.42,998.4969,3283.5015,1013.8982,3290.526,1004.169,3272.42,998.4969" style="stroke:#181818;stroke-width:1;"/></g><!--reverse link WithHyperionUDCFeatures to GridScanWithEdgeDetect--><g class="link" data-entity-1="WithHyperionUDCFeatures" data-entity-2="GridScanWithEdgeDetect" data-source-line="160" data-uid="lnk57" id="link_WithHyperionUDCFeatures_GridScanWithEdgeDetect"><path codeLine="160" d="M3460.2657,777.9986 C3457.7657,860.6386 3455.91,1063.8769 3499,1119.7969 C3508.91,1132.6569 3539.56,1145.2869 3571.51,1155.5569 " fill="none" id="WithHyperionUDCFeatures-backto-GridScanWithEdgeDetect" style="stroke:#181818;stroke-width:1;"/><polygon fill="none" points="3460.81,760.0069,3454.2685,777.8172,3466.263,778.1801,3460.81,760.0069" style="stroke:#181818;stroke-width:1;"/></g><!--reverse link DiffractionExperiment to DiffractionExperimentWithSample--><g class="link" data-entity-1="DiffractionExperiment" data-entity-2="DiffractionExperimentWithSample" data-source-line="161" data-uid="lnk58" id="link_DiffractionExperiment_DiffractionExperimentWithSample"><path codeLine="161" d="M2807,505.2469 C2807,527.5069 2807,530.9069 2807,546.3269 " fill="none" id="DiffractionExperiment-backto-DiffractionExperimentWithSample" style="stroke:#181818;stroke-width:1;"/><polygon fill="none" points="2807,487.2469,2801,505.2469,2813,505.2469,2807,487.2469" style="stroke:#181818;stroke-width:1;"/></g><!--reverse link WithSample to DiffractionExperimentWithSample--><g class="link" data-entity-1="WithSample" data-entity-2="DiffractionExperimentWithSample" data-source-line="162" data-uid="lnk59" id="link_WithSample_DiffractionExperimentWithSample"><path codeLine="162" d="M633.581,208.3288 C645.561,214.7388 642.37,211.9269 655,215.7869 C902.93,291.5069 1564.53,231.8069 1820,275.7869 C2180.11,337.7769 2594.3,488.1469 2746.71,546.2769 " fill="none" id="WithSample-backto-DiffractionExperimentWithSample" style="stroke:#181818;stroke-width:1;"/><polygon fill="none" points="617.71,199.8369,630.7503,213.6191,636.4116,203.0384,617.71,199.8369" style="stroke:#181818;stroke-width:1;"/></g><!--reverse link GridCommon to SpecifiedThreeDGridScan--><g class="link" data-entity-1="GridCommon" data-entity-2="SpecifiedThreeDGridScan" data-source-line="163" data-uid="lnk60" id="link_GridCommon_SpecifiedThreeDGridScan"><path codeLine="163" d="M2784.591,818.4811 C2779.951,837.0711 2779.21,840.0569 2774.19,860.1669 " fill="none" id="GridCommon-backto-SpecifiedThreeDGridScan" style="stroke:#181818;stroke-width:1;"/><polygon fill="none" points="2788.95,801.0169,2778.7696,817.0281,2790.4124,819.9341,2788.95,801.0169" style="stroke:#181818;stroke-width:1;"/></g><!--reverse link SpecifiedGrid to SpecifiedThreeDGridScan--><g class="link" data-entity-1="SpecifiedGrid" data-entity-2="SpecifiedThreeDGridScan" data-source-line="164" data-uid="lnk61" id="link_SpecifiedGrid_SpecifiedThreeDGridScan"><path codeLine="164" d="M1760.2095,421.3061 C1772.6395,444.2661 1785.59,463.4069 1812,486.7569 C2070.74,715.4269 2456.1,871.4469 2640.4,937.5469 " fill="none" id="SpecifiedGrid-backto-SpecifiedThreeDGridScan" style="stroke:#181818;stroke-width:1;"/><polygon fill="none" points="1751.64,405.4769,1754.9331,424.1626,1765.4859,418.4495,1751.64,405.4769" style="stroke:#181818;stroke-width:1;"/></g><!--reverse link SplitScan to SpecifiedThreeDGridScan--><g class="link" data-entity-1="SplitScan" data-entity-2="SpecifiedThreeDGridScan" data-source-line="165" data-uid="lnk62" id="link_SplitScan_SpecifiedThreeDGridScan"><path codeLine="165" d="M1604.3612,193.3313 C1601.3112,250.5113 1600.91,382.6269 1660,486.7569 C1767.43,676.0469 1841.65,702.5469 2036,800.5369 C2235.64,901.1869 2496.93,945.0769 2640.34,962.6469 " fill="none" id="SplitScan-backto-SpecifiedThreeDGridScan" style="stroke:#181818;stroke-width:1;"/><polygon fill="none" points="1605.32,175.3569,1598.3698,193.0117,1610.3527,193.6509,1605.32,175.3569" style="stroke:#181818;stroke-width:1;"/></g><!--reverse link WithOptionalEnergyChange to SpecifiedThreeDGridScan--><g class="link" data-entity-1="WithOptionalEnergyChange" data-entity-2="SpecifiedThreeDGridScan" data-source-line="166" data-uid="lnk63" id="link_WithOptionalEnergyChange_SpecifiedThreeDGridScan"><path codeLine="166" d="M229.3171,191.4568 C446.1871,295.5668 1149.87,623.2669 1779,800.5369 C2086.16,887.0769 2460.94,939.3369 2640.38,961.1969 " fill="none" id="WithOptionalEnergyChange-backto-SpecifiedThreeDGridScan" style="stroke:#181818;stroke-width:1;"/><polygon fill="none" points="213.09,183.6669,226.7204,196.8658,231.9137,186.0478,213.09,183.6669" style="stroke:#181818;stroke-width:1;"/></g><!--reverse link MxBlueskyParameters to LoadCentreCollect--><g class="link" data-entity-1="MxBlueskyParameters" data-entity-2="LoadCentreCollect" data-source-line="167" data-uid="lnk64" id="link_MxBlueskyParameters_LoadCentreCollect"><path codeLine="167" d="M2988.8359,155.5933 C3477.3959,166.0833 4911.16,202.8969 4980,275.7869 C5044.38,343.9469 5020.95,402.4069 4980,486.7569 C4919.88,610.5769 4571.11,841.0869 4425.66,933.4169 " fill="none" id="MxBlueskyParameters-backto-LoadCentreCollect" style="stroke:#181818;stroke-width:1;"/><polygon fill="none" points="2970.84,155.2069,2988.7071,161.5919,2988.9647,149.5947,2970.84,155.2069" style="stroke:#181818;stroke-width:1;"/></g><!--reverse link WithVisit to LoadCentreCollect--><g class="link" data-entity-1="WithVisit" data-entity-2="LoadCentreCollect" data-source-line="168" data-uid="lnk65" id="link_WithVisit_LoadCentreCollect"><path codeLine="168" d="M1286.3824,216.1717 C1292.4024,217.8317 1281.06,214.5269 1287,215.7869 C1415.74,243.0769 3551.68,194.2869 3655,275.7869 C3770.19,366.6469 3673.03,464.2169 3740,594.7569 C3794.02,700.0569 3808.24,738.4569 3909,800.5369 C4012.55,864.3269 4063.18,815.1069 4176,860.5369 C4222.75,879.3569 4271.32,909.1769 4307.1,933.4069 " fill="none" id="WithVisit-backto-LoadCentreCollect" style="stroke:#181818;stroke-width:1;"/><polygon fill="none" points="1269.03,211.3869,1284.7874,221.9559,1287.9773,210.3876,1269.03,211.3869" style="stroke:#181818;stroke-width:1;"/></g><!--reverse link WithSample to LoadCentreCollect--><g class="link" data-entity-1="WithSample" data-entity-2="LoadCentreCollect" data-source-line="169" data-uid="lnk66" id="link_WithSample_LoadCentreCollect"><path codeLine="169" d="M633.2209,208.4302 C645.2909,214.8702 642.22,212.0569 655,215.7869 C1153.12,360.9369 2492.02,126.7669 2989,275.7869 C3292.41,366.7569 3339.86,463.4269 3594,652.4969 C3673.85,711.8969 3671.67,758.7669 3762,800.5369 C3930.75,878.5669 4000.98,797.7969 4176,860.5369 C4224.33,877.8569 4273.8,908.5669 4309.57,933.5469 " fill="none" id="WithSample-backto-LoadCentreCollect" style="stroke:#181818;stroke-width:1;"/><polygon fill="none" points="617.34,199.9569,630.3965,213.7238,636.0453,203.1366,617.34,199.9569" style="stroke:#181818;stroke-width:1;"/></g><!--reverse link WithCentreSelection to LoadCentreCollect--><g class="link" data-entity-1="WithCentreSelection" data-entity-2="LoadCentreCollect" data-source-line="170" data-uid="lnk67" id="link_WithCentreSelection_LoadCentreCollect"><path codeLine="170" d="M2341.1883,190.3576 C2371.3383,202.3876 2390.45,208.3069 2424,215.7869 C2742.17,286.7169 2843.68,179.1369 3155,275.7869 C3647.02,428.5269 4155.36,809.4569 4312.67,933.4669 " fill="none" id="WithCentreSelection-backto-LoadCentreCollect" style="stroke:#181818;stroke-width:1;"/><polygon fill="none" points="2324.47,183.6869,2338.9647,195.9303,2343.4119,184.7848,2324.47,183.6869" style="stroke:#181818;stroke-width:1;"/></g><!--reverse link WithHyperionUDCFeatures to LoadCentreCollect--><g class="link" data-entity-1="WithHyperionUDCFeatures" data-entity-2="LoadCentreCollect" data-source-line="171" data-uid="lnk68" id="link_WithHyperionUDCFeatures_LoadCentreCollect"><path codeLine="171" d="M3528.3297,769.0647 C3554.3697,783.7847 3571.52,791.2069 3603,800.5369 C3848.52,873.2469 3933.3,778.9169 4176,860.5369 C4225.02,877.0169 4274.84,908.1169 4310.57,933.4669 " fill="none" id="WithHyperionUDCFeatures-backto-LoadCentreCollect" style="stroke:#181818;stroke-width:1;"/><polygon fill="none" points="3512.66,760.2069,3525.3771,774.2879,3531.2823,763.8415,3512.66,760.2069" style="stroke:#181818;stroke-width:1;"/></g><!--reverse link WithHyperionUDCFeatures to HyperionSpecifiedThreeDGridScan--><g class="link" data-entity-1="WithHyperionUDCFeatures" data-entity-2="HyperionSpecifiedThreeDGridScan" data-source-line="172" data-uid="lnk69" id="link_WithHyperionUDCFeatures_HyperionSpecifiedThreeDGridScan"><path codeLine="172" d="M3531.9819,768.8399 C3557.6419,782.7599 3573.29,789.7769 3603,800.5369 C3716.13,841.5069 3757.5,810.6469 3867,860.5369 C3917.19,883.3969 3967.24,924.1669 3996.1,949.8769 " fill="none" id="WithHyperionUDCFeatures-backto-HyperionSpecifiedThreeDGridScan" style="stroke:#181818;stroke-width:1;"/><polygon fill="none" points="3516.16,760.2569,3529.1209,774.1139,3534.8429,763.5659,3516.16,760.2569" style="stroke:#181818;stroke-width:1;"/></g><!--reverse link SpecifiedThreeDGridScan to HyperionSpecifiedThreeDGridScan--><g class="link" data-entity-1="SpecifiedThreeDGridScan" data-entity-2="HyperionSpecifiedThreeDGridScan" data-source-line="173" data-uid="lnk70" id="link_SpecifiedThreeDGridScan_HyperionSpecifiedThreeDGridScan"><path codeLine="173" d="M2867.3731,898.9242 C2921.1131,868.9742 2973.06,845.7369 3038.5,830.5369 C3126.27,810.1469 3764.81,799.7569 3849.5,830.5369 C3915.02,854.3469 3972.97,915.3869 4001.76,949.7369 " fill="none" id="SpecifiedThreeDGridScan-backto-HyperionSpecifiedThreeDGridScan" style="stroke:#181818;stroke-width:1;"/><polygon fill="none" points="2851.65,907.6869,2870.294,904.1652,2864.4522,893.6832,2851.65,907.6869" style="stroke:#181818;stroke-width:1;"/></g><!--SRC=[bLTVRzis47-sFeNUiW5BWFQv6v0wQJUWwOBPomeK0K5BPuc8H18abLfnyzrt92LPiYZPGHvYtd_U_UwEkbZdJCTRLa2C_sbbn6K671GraCQREcuFH1QKcweihcGTHOOPLFYpbg2OuF4zLRG40og-4oaKaGOJSwHeIHDOWKIs4IhcWaCK8Us9PX2NEx8fAj1FzLKYobBmAzcQqV4-CY83awF9VPGKLEju9GjcLWdb- -Yr8NshNrQ6AgFtqM9R26hY7T6MGAgofTGZoik1qXhwZvdyWMbcq90sAju0BGk6qRhJi-NudoaOaZ9jY1742f54y6TG63EHrEHUY76D94mCaGgsRDSw_Xb_nGnO6v1WFfmXoXCWvJ2IuILN4XAsPP1-LYpT3mJ_bjOBBMwnHbczp2dFO3_oLbAU4d0Y19w7dcWf2wl2k8crEn2M-cEZtr1bbJm5wOmFBDwZCseZzPTeOf6MIbJ5ApbvwoLmen0j1IO7RuMwQo6_Vgplw6ufAcuwJgpTBv8u1TqPQRCnHaKJyXWS3QEUOWIWqdhvB3WJrpmh8EnCb93HHZs5x8WhSpR9IsPuJrJAljL1CJcLEXSMm_U8nLWtPyouSe2heqM1oV_kB3vsXMp5NCIwCViwRi2xtKVVhrsxsqklBBuCInxmQ8lJDJ4fxImWpvxUHNh3jbj5NI5lTtP-b5Z6FXPRGGkYfHiCNMet0al8Ng1Ng0obo0-Mchn7X9qKkb9035edEbhyfMMzERXRu-32SOSq0XsH6AH6Ysiy6zHze7ZPBaSESP0Isd1RJuP98hPR77XzZ7GjkyuLmCse7MpGxto- -pMsvFTZieKjoEEBrq7gIrZs_NW8zacshRqNxGzr__3I7ZP2536nTzMcsZJtrlELRGQgNJ34heJ94bafkmTG1pjViIm3PRT9RFnl1wV11C9nGdXLRa2zkMgASbqoRO59RCnlGeYDL6CxuHBhjvRBJgM1AC5yiA_kBx3lycPn3ZUUp-8zusic_J1Svy2_ALhxqtuUTF-8ZJ1V14sjLgVnmJCldER57x79wG_6CvVsGAlPHcpN-aspfroxwttFaQ6so1RIzw1MFm1a5zjexBNIrpjyNwZcG2YUMXMDTfeM7cZSkDpQcTAffIt90u73hjBaETMDGrPceoW7K6mSvfMn0qf8u6qkI1TEvupnH86hkmlhV8Iq8TnLXM7zR644rvnR0gJVtIWEvVBnj_WBy5zAnaa1F3Fvx-z-VJo4PTEbWyKOFWxQClvxi_m4rCBVZkkMsf0-5JJ3vr_37m32MhHsRjCCF1GEzYtCFCIMeYWSQn707mQDD89fJGck4jwix6WnoanSMWePNBBpriOyELPjctLRF_xmy_9o-6gAsbTLY7TY8NcLGuT4Km-0aU0vNUMLfdi-cgZaIRtpdGVgDkyrf71mTvo6QVVpNiwoC5-BK7D5erVYZ6pWnUEbWvY9-e-mKtAXf_if7VU5CYTq5fJ7W_5KkKVoOv8N7RLrr7sqJGaCEtF02fLaHkmuc96RmQU9bvcu-1kw9pmfJqCxe1Eitaov3uMDZcjyIlwuNIScQpIObAT41vMU4fl7_fJMP2EE5j5neuG5-haAInnzZSw9JjRvZU8drbmqGJzB-Ny0]--></g></svg>