<svg xmlns="http://www.w3.org/2000/svg" xmlns:xlink="http://www.w3.org/1999/xlink" contentStyleType="text/css" data-diagram-type="CLASS" height="1104px" preserveAspectRatio="none" style="width:4098px;height:1104px;background:#FFFFFF;" version="1.1" viewBox="0 0 4098 1104" width="4098px" zoomAndPan="magnify"><title>Hyperion Parameter Model</title><defs/><g><g class="title" data-source-line="3"><text fill="#000000" font-family="sans-serif" font-size="14" font-weight="bold" lengthAdjust="spacing" textLength="212.4951" x="1935.9974" y="22.9951">Hyperion Parameter Model</text></g><!--cluster mx_bluesky.common.parameters--><g class="cluster" data-entity="mx_bluesky.common.parameters" data-source-line="6" data-uid="ent0002" id="cluster_mx_bluesky.common.parameters"><path d="M1294.99,43.2969 L1556.3025,43.2969 A3.75,3.75 0 0 1 1558.8025,45.7969 L1565.8025,65.5938 L4088.99,65.5938 A2.5,2.5 0 0 1 4091.49,68.0938 L4091.49,822.0269 A2.5,2.5 0 0 1 4088.99,824.5269 L1294.99,824.5269 A2.5,2.5 0 0 1 1292.49,822.0269 L1292.49,45.7969 A2.5,2.5 0 0 1 1294.99,43.2969" fill="none" style="stroke:#000000;stroke-width:1.5;"/><line style="stroke:#000000;stroke-width:1.5;" x1="1292.49" x2="1565.8025" y1="65.5938" y2="65.5938"/><text fill="#000000" font-family="sans-serif" font-size="14" font-weight="bold" lengthAdjust="spacing" textLength="260.3125" x="1296.49" y="58.292">mx_bluesky.common.parameters</text></g><!--cluster mx_bluesky.hyperion.parameters--><g class="cluster" data-entity="mx_bluesky.hyperion.parameters" data-source-line="71" data-uid="ent0015" id="cluster_mx_bluesky.hyperion.parameters"><path d="M90.99,660.4869 L355.5222,660.4869 A3.75,3.75 0 0 1 358.0222,662.9869 L365.0222,682.7838 L1265.99,682.7838 A2.5,2.5 0 0 1 1268.49,685.2838 L1268.49,1095.2169 A2.5,2.5 0 0 1 1265.99,1097.7169 L90.99,1097.7169 A2.5,2.5 0 0 1 88.49,1095.2169 L88.49,662.9869 A2.5,2.5 0 0 1 90.99,660.4869" fill="none" style="stroke:#000000;stroke-width:1.5;"/><line style="stroke:#000000;stroke-width:1.5;" x1="88.49" x2="365.0222" y1="682.7838" y2="682.7838"/><text fill="#000000" font-family="sans-serif" font-size="14" font-weight="bold" lengthAdjust="spacing" textLength="263.5322" x="92.49" y="675.482">mx_bluesky.hyperion.parameters</text></g><!--class WithOptionalEnergyChange--><g class="entity" data-entity="WithOptionalEnergyChange" data-source-line="8" data-uid="ent0003" id="entity_WithOptionalEnergyChange"><rect fill="#F1F1F1" height="64.2969" rx="2.5" ry="2.5" style="stroke:#181818;stroke-width:0.5;" width="235.4463" x="3151.76" y="118.8869"/><ellipse cx="3170.9445" cy="134.8869" fill="#ADD1B2" rx="11" ry="11" style="stroke:#181818;stroke-width:1;"/><path d="M3173.9132,140.5275 Q3173.3351,140.8244 3172.6945,140.965 Q3172.0538,141.1213 3171.3507,141.1213 Q3168.8507,141.1213 3167.5226,139.4806 Q3166.2101,137.8244 3166.2101,134.6994 Q3166.2101,131.5744 3167.5226,129.9181 Q3168.8507,128.2619 3171.3507,128.2619 Q3172.0538,128.2619 3172.6945,128.4181 Q3173.3507,128.5744 3173.9132,128.8713 L3173.9132,131.59 Q3173.2882,131.0119 3172.6945,130.7463 Q3172.1007,130.465 3171.4757,130.465 Q3170.132,130.465 3169.4445,131.5431 Q3168.757,132.6056 3168.757,134.6994 Q3168.757,136.7931 3169.4445,137.8713 Q3170.132,138.9338 3171.4757,138.9338 Q3172.1007,138.9338 3172.6945,138.6681 Q3173.2882,138.3869 3173.9132,137.8088 L3173.9132,140.5275 Z " fill="#000000"/><text fill="#000000" font-family="sans-serif" font-size="14" lengthAdjust="spacing" textLength="194.1475" x="3185.8744" y="139.7336">WithOptionalEnergyChange</text><line style="stroke:#181818;stroke-width:0.5;" x1="3152.76" x2="3386.2063" y1="150.8869" y2="150.8869"/><text fill="#000000" font-family="sans-serif" font-size="14" lengthAdjust="spacing" textLength="223.4463" x="3157.76" y="167.882">float | None demand_energy_ev</text><line style="stroke:#181818;stroke-width:0.5;" x1="3152.76" x2="3386.2063" y1="175.1838" y2="175.1838"/></g><!--class SplitScan--><g class="entity" data-entity="SplitScan" data-source-line="11" data-uid="ent0004" id="entity_SplitScan"><rect fill="#F1F1F1" height="48" rx="2.5" ry="2.5" style="stroke:#181818;stroke-width:0.5;" width="97.0781" x="1316.95" y="127.0369"/><ellipse cx="1331.95" cy="143.0369" fill="#ADD1B2" rx="11" ry="11" style="stroke:#181818;stroke-width:1;"/><path d="M1334.9188,148.6775 Q1334.3406,148.9744 1333.7,149.115 Q1333.0594,149.2713 1332.3563,149.2713 Q1329.8563,149.2713 1328.5281,147.6306 Q1327.2156,145.9744 1327.2156,142.8494 Q1327.2156,139.7244 1328.5281,138.0681 Q1329.8563,136.4119 1332.3563,136.4119 Q1333.0594,136.4119 1333.7,136.5681 Q1334.3563,136.7244 1334.9188,137.0213 L1334.9188,139.74 Q1334.2938,139.1619 1333.7,138.8963 Q1333.1063,138.615 1332.4813,138.615 Q1331.1375,138.615 1330.45,139.6931 Q1329.7625,140.7556 1329.7625,142.8494 Q1329.7625,144.9431 1330.45,146.0213 Q1331.1375,147.0838 1332.4813,147.0838 Q1333.1063,147.0838 1333.7,146.8181 Q1334.2938,146.5369 1334.9188,145.9588 L1334.9188,148.6775 Z " fill="#000000"/><text fill="#000000" font-family="sans-serif" font-size="14" lengthAdjust="spacing" textLength="65.0781" x="1345.95" y="147.8836">SplitScan</text><line style="stroke:#181818;stroke-width:0.5;" x1="1317.95" x2="1413.0281" y1="159.0369" y2="159.0369"/><line style="stroke:#181818;stroke-width:0.5;" x1="1317.95" x2="1413.0281" y1="167.0369" y2="167.0369"/></g><!--class WithSnapshot--><g class="entity" data-entity="WithSnapshot" data-source-line="13" data-uid="ent0005" id="entity_WithSnapshot"><rect fill="#F1F1F1" height="96.8906" rx="2.5" ry="2.5" style="stroke:#181818;stroke-width:0.5;" width="289.3477" x="3421.81" y="102.5869"/><ellipse cx="3513.4628" cy="118.5869" fill="#ADD1B2" rx="11" ry="11" style="stroke:#181818;stroke-width:1;"/><path d="M3516.4316,124.2275 Q3515.8535,124.5244 3515.2128,124.665 Q3514.5722,124.8213 3513.8691,124.8213 Q3511.3691,124.8213 3510.041,123.1806 Q3508.7285,121.5244 3508.7285,118.3994 Q3508.7285,115.2744 3510.041,113.6181 Q3511.3691,111.9619 3513.8691,111.9619 Q3514.5722,111.9619 3515.2128,112.1181 Q3515.8691,112.2744 3516.4316,112.5713 L3516.4316,115.29 Q3515.8066,114.7119 3515.2128,114.4463 Q3514.6191,114.165 3513.9941,114.165 Q3512.6503,114.165 3511.9628,115.2431 Q3511.2753,116.3056 3511.2753,118.3994 Q3511.2753,120.4931 3511.9628,121.5713 Q3512.6503,122.6338 3513.9941,122.6338 Q3514.6191,122.6338 3515.2128,122.3681 Q3515.8066,122.0869 3516.4316,121.5088 L3516.4316,124.2275 Z " fill="#000000"/><text fill="#000000" font-family="sans-serif" font-size="14" lengthAdjust="spacing" textLength="97.542" x="3533.9628" y="123.4336">WithSnapshot</text><line style="stroke:#181818;stroke-width:0.5;" x1="3422.81" x2="3710.1577" y1="134.5869" y2="134.5869"/><text fill="#000000" font-family="sans-serif" font-size="14" lengthAdjust="spacing" textLength="169.627" x="3427.81" y="151.582">Path snapshot_directory</text><text fill="#000000" font-family="sans-serif" font-size="14" lengthAdjust="spacing" textLength="277.3477" x="3427.81" y="167.8789">list[float] | None snapshot_omegas_deg</text><text fill="#000000" font-family="sans-serif" font-size="14" lengthAdjust="spacing" textLength="171.7051" x="3427.81" y="184.1757">bool use_grid_snapshots</text><line style="stroke:#181818;stroke-width:0.5;" x1="3422.81" x2="3710.1577" y1="191.4775" y2="191.4775"/></g><!--class WithCentreSelection--><g class="entity" data-entity="WithCentreSelection" data-source-line="18" data-uid="ent0006" id="entity_WithCentreSelection"><rect fill="#F1F1F1" height="64.2969" rx="2.5" ry="2.5" style="stroke:#181818;stroke-width:0.5;" width="618.6689" x="1449.15" y="118.8869"/><ellipse cx="1682.3683" cy="134.8869" fill="#ADD1B2" rx="11" ry="11" style="stroke:#181818;stroke-width:1;"/><path d="M1685.337,140.5275 Q1684.7589,140.8244 1684.1183,140.965 Q1683.4776,141.1213 1682.7745,141.1213 Q1680.2745,141.1213 1678.9464,139.4806 Q1677.6339,137.8244 1677.6339,134.6994 Q1677.6339,131.5744 1678.9464,129.9181 Q1680.2745,128.2619 1682.7745,128.2619 Q1683.4776,128.2619 1684.1183,128.4181 Q1684.7745,128.5744 1685.337,128.8713 L1685.337,131.59 Q1684.712,131.0119 1684.1183,130.7463 Q1683.5245,130.465 1682.8995,130.465 Q1681.5558,130.465 1680.8683,131.5431 Q1680.1808,132.6056 1680.1808,134.6994 Q1680.1808,136.7931 1680.8683,137.8713 Q1681.5558,138.9338 1682.8995,138.9338 Q1683.5245,138.9338 1684.1183,138.6681 Q1684.712,138.3869 1685.337,137.8088 L1685.337,140.5275 Z " fill="#000000"/><text fill="#000000" font-family="sans-serif" font-size="14" lengthAdjust="spacing" textLength="143.7324" x="1702.8683" y="139.7336">WithCentreSelection</text><line style="stroke:#181818;stroke-width:0.5;" x1="1450.15" x2="2066.8189" y1="150.8869" y2="150.8869"/><text fill="#000000" font-family="sans-serif" font-size="14" lengthAdjust="spacing" textLength="606.6689" x="1455.15" y="167.882">TopNByMaxCountSelection | TopNByMaxCountForEachSampleSelection select_centres</text><line style="stroke:#181818;stroke-width:0.5;" x1="1450.15" x2="2066.8189" y1="175.1838" y2="175.1838"/></g><!--class WithPandaGridScan--><g class="entity" data-entity="WithPandaGridScan" data-source-line="21" data-uid="ent0007" id="entity_WithPandaGridScan"><rect fill="#F1F1F1" height="64.2969" rx="2.5" ry="2.5" style="stroke:#181818;stroke-width:0.5;" width="240.5664" x="2103.2" y="118.8869"/><ellipse cx="2149.7972" cy="134.8869" fill="#ADD1B2" rx="11" ry="11" style="stroke:#181818;stroke-width:1;"/><path d="M2152.7659,140.5275 Q2152.1878,140.8244 2151.5472,140.965 Q2150.9065,141.1213 2150.2034,141.1213 Q2147.7034,141.1213 2146.3753,139.4806 Q2145.0628,137.8244 2145.0628,134.6994 Q2145.0628,131.5744 2146.3753,129.9181 Q2147.7034,128.2619 2150.2034,128.2619 Q2150.9065,128.2619 2151.5472,128.4181 Q2152.2034,128.5744 2152.7659,128.8713 L2152.7659,131.59 Q2152.1409,131.0119 2151.5472,130.7463 Q2150.9534,130.465 2150.3284,130.465 Q2148.9847,130.465 2148.2972,131.5431 Q2147.6097,132.6056 2147.6097,134.6994 Q2147.6097,136.7931 2148.2972,137.8713 Q2148.9847,138.9338 2150.3284,138.9338 Q2150.9534,138.9338 2151.5472,138.6681 Q2152.1409,138.3869 2152.7659,137.8088 L2152.7659,140.5275 Z " fill="#000000"/><text fill="#000000" font-family="sans-serif" font-size="14" lengthAdjust="spacing" textLength="138.8721" x="2170.2972" y="139.7336">WithPandaGridScan</text><line style="stroke:#181818;stroke-width:0.5;" x1="2104.2" x2="2342.7664" y1="150.8869" y2="150.8869"/><text fill="#000000" font-family="sans-serif" font-size="14" lengthAdjust="spacing" textLength="228.5664" x="2109.2" y="167.882">float panda_runup_distance_mm</text><line style="stroke:#181818;stroke-width:0.5;" x1="2104.2" x2="2342.7664" y1="175.1838" y2="175.1838"/></g><!--class OptionalGonioAngleStarts--><g class="entity" data-entity="OptionalGonioAngleStarts" data-source-line="24" data-uid="ent0008" id="entity_OptionalGonioAngleStarts"><rect fill="#F1F1F1" height="113.1875" rx="2.5" ry="2.5" style="stroke:#181818;stroke-width:0.5;" width="219.3203" x="2589.83" y="94.4469"/><ellipse cx="2607.5533" cy="110.4469" fill="#ADD1B2" rx="11" ry="11" style="stroke:#181818;stroke-width:1;"/><path d="M2610.522,116.0875 Q2609.9439,116.3844 2609.3033,116.525 Q2608.6627,116.6813 2607.9595,116.6813 Q2605.4595,116.6813 2604.1314,115.0406 Q2602.8189,113.3844 2602.8189,110.2594 Q2602.8189,107.1344 2604.1314,105.4781 Q2605.4595,103.8219 2607.9595,103.8219 Q2608.6627,103.8219 2609.3033,103.9781 Q2609.9595,104.1344 2610.522,104.4313 L2610.522,107.15 Q2609.897,106.5719 2609.3033,106.3063 Q2608.7095,106.025 2608.0845,106.025 Q2606.7408,106.025 2606.0533,107.1031 Q2605.3658,108.1656 2605.3658,110.2594 Q2605.3658,112.3531 2606.0533,113.4313 Q2606.7408,114.4938 2608.0845,114.4938 Q2608.7095,114.4938 2609.3033,114.2281 Q2609.897,113.9469 2610.522,113.3688 L2610.522,116.0875 Z " fill="#000000"/><text fill="#000000" font-family="sans-serif" font-size="14" lengthAdjust="spacing" textLength="181.2686" x="2622.1585" y="115.2936">OptionalGonioAngleStarts</text><line style="stroke:#181818;stroke-width:0.5;" x1="2590.83" x2="2808.1503" y1="126.4469" y2="126.4469"/><text fill="#000000" font-family="sans-serif" font-size="14" lengthAdjust="spacing" textLength="207.3203" x="2595.83" y="143.442">float | None omega_start_deg</text><text fill="#000000" font-family="sans-serif" font-size="14" lengthAdjust="spacing" textLength="180.6875" x="2595.83" y="159.7389">float | None phi_start_deg</text><text fill="#000000" font-family="sans-serif" font-size="14" lengthAdjust="spacing" textLength="179.498" x="2595.83" y="176.0357">float | None chi_start_deg</text><text fill="#000000" font-family="sans-serif" font-size="14" lengthAdjust="spacing" textLength="202.0771" x="2595.83" y="192.3326">float | None kappa_start_deg</text><line style="stroke:#181818;stroke-width:0.5;" x1="2590.83" x2="2808.1503" y1="199.6344" y2="199.6344"/></g><!--class WithSample--><g class="entity" data-entity="WithSample" data-source-line="30" data-uid="ent0009" id="entity_WithSample"><rect fill="#F1F1F1" height="96.8906" rx="2.5" ry="2.5" style="stroke:#181818;stroke-width:0.5;" width="176.3086" x="2378.33" y="102.5869"/><ellipse cx="2420.2043" cy="118.5869" fill="#ADD1B2" rx="11" ry="11" style="stroke:#181818;stroke-width:1;"/><path d="M2423.1731,124.2275 Q2422.5949,124.5244 2421.9543,124.665 Q2421.3137,124.8213 2420.6106,124.8213 Q2418.1106,124.8213 2416.7824,123.1806 Q2415.4699,121.5244 2415.4699,118.3994 Q2415.4699,115.2744 2416.7824,113.6181 Q2418.1106,111.9619 2420.6106,111.9619 Q2421.3137,111.9619 2421.9543,112.1181 Q2422.6106,112.2744 2423.1731,112.5713 L2423.1731,115.29 Q2422.5481,114.7119 2421.9543,114.4463 Q2421.3606,114.165 2420.7356,114.165 Q2419.3918,114.165 2418.7043,115.2431 Q2418.0168,116.3056 2418.0168,118.3994 Q2418.0168,120.4931 2418.7043,121.5713 Q2419.3918,122.6338 2420.7356,122.6338 Q2421.3606,122.6338 2421.9543,122.3681 Q2422.5481,122.0869 2423.1731,121.5088 L2423.1731,124.2275 Z " fill="#000000"/><text fill="#000000" font-family="sans-serif" font-size="14" lengthAdjust="spacing" textLength="84.5879" x="2440.1764" y="123.4336">WithSample</text><line style="stroke:#181818;stroke-width:0.5;" x1="2379.33" x2="2553.6386" y1="134.5869" y2="134.5869"/><text fill="#000000" font-family="sans-serif" font-size="14" lengthAdjust="spacing" textLength="93.3789" x="2384.33" y="151.582">int sample_id</text><text fill="#000000" font-family="sans-serif" font-size="14" lengthAdjust="spacing" textLength="164.3086" x="2384.33" y="167.8789">int | None sample_puck</text><text fill="#000000" font-family="sans-serif" font-size="14" lengthAdjust="spacing" textLength="152.3936" x="2384.33" y="184.1757">int | None sample_pin</text><line style="stroke:#181818;stroke-width:0.5;" x1="2379.33" x2="2553.6386" y1="191.4775" y2="191.4775"/></g><!--class WithVisit--><g class="entity" data-entity="WithVisit" data-source-line="35" data-uid="ent0010" id="entity_WithVisit"><rect fill="#F1F1F1" height="129.4844" rx="2.5" ry="2.5" style="stroke:#181818;stroke-width:0.5;" width="271.7861" x="2844.59" y="86.2969"/><ellipse cx="2945.1159" cy="102.2969" fill="#ADD1B2" rx="11" ry="11" style="stroke:#181818;stroke-width:1;"/><path d="M2948.0846,107.9375 Q2947.5065,108.2344 2946.8659,108.375 Q2946.2253,108.5313 2945.5221,108.5313 Q2943.0221,108.5313 2941.694,106.8906 Q2940.3815,105.2344 2940.3815,102.1094 Q2940.3815,98.9844 2941.694,97.3281 Q2943.0221,95.6719 2945.5221,95.6719 Q2946.2253,95.6719 2946.8659,95.8281 Q2947.5221,95.9844 2948.0846,96.2813 L2948.0846,99 Q2947.4596,98.4219 2946.8659,98.1563 Q2946.2721,97.875 2945.6471,97.875 Q2944.3034,97.875 2943.6159,98.9531 Q2942.9284,100.0156 2942.9284,102.1094 Q2942.9284,104.2031 2943.6159,105.2813 Q2944.3034,106.3438 2945.6471,106.3438 Q2946.2721,106.3438 2946.8659,106.0781 Q2947.4596,105.7969 2948.0846,105.2188 L2948.0846,107.9375 Z " fill="#000000"/><text fill="#000000" font-family="sans-serif" font-size="14" lengthAdjust="spacing" textLength="62.2344" x="2965.6159" y="107.1436">WithVisit</text><line style="stroke:#181818;stroke-width:0.5;" x1="2845.59" x2="3115.3761" y1="118.2969" y2="118.2969"/><text fill="#000000" font-family="sans-serif" font-size="14" lengthAdjust="spacing" textLength="87.9717" x="2850.59" y="135.292">str beamline</text><text fill="#000000" font-family="sans-serif" font-size="14" lengthAdjust="spacing" textLength="51.8369" x="2850.59" y="151.5889">str visit</text><text fill="#000000" font-family="sans-serif" font-size="14" lengthAdjust="spacing" textLength="259.7861" x="2850.59" y="167.8857">str det_dist_to_beam_converter_path</text><text fill="#000000" font-family="sans-serif" font-size="14" lengthAdjust="spacing" textLength="131.5918" x="2850.59" y="184.1826">str insertion_prefix</text><text fill="#000000" font-family="sans-serif" font-size="14" lengthAdjust="spacing" textLength="245.752" x="2850.59" y="200.4795">float | None detector_distance_mm</text><line style="stroke:#181818;stroke-width:0.5;" x1="2845.59" x2="3115.3761" y1="207.7813" y2="207.7813"/></g><!--class GridCommon--><g class="entity" data-entity="GridCommon" data-source-line="44" data-uid="ent0011" id="entity_GridCommon"><rect fill="#F1F1F1" height="145.7813" rx="2.5" ry="2.5" style="stroke:#181818;stroke-width:0.5;" width="332.332" x="3735.32" y="654.7469"/><ellipse cx="3851.0182" cy="670.7469" fill="#ADD1B2" rx="11" ry="11" style="stroke:#181818;stroke-width:1;"/><path d="M3853.987,676.3875 Q3853.4089,676.6844 3852.7682,676.825 Q3852.1276,676.9813 3851.4245,676.9813 Q3848.9245,676.9813 3847.5964,675.3406 Q3846.2839,673.6844 3846.2839,670.5594 Q3846.2839,667.4344 3847.5964,665.7781 Q3848.9245,664.1219 3851.4245,664.1219 Q3852.1276,664.1219 3852.7682,664.2781 Q3853.4245,664.4344 3853.987,664.7313 L3853.987,667.45 Q3853.362,666.8719 3852.7682,666.6063 Q3852.1745,666.325 3851.5495,666.325 Q3850.2057,666.325 3849.5182,667.4031 Q3848.8307,668.4656 3848.8307,670.5594 Q3848.8307,672.6531 3849.5182,673.7313 Q3850.2057,674.7938 3851.5495,674.7938 Q3852.1745,674.7938 3852.7682,674.5281 Q3853.362,674.2469 3853.987,673.6688 L3853.987,676.3875 Z " fill="#000000"/><text fill="#000000" font-family="sans-serif" font-size="14" lengthAdjust="spacing" textLength="92.4355" x="3871.5182" y="675.5936">GridCommon</text><line style="stroke:#181818;stroke-width:0.5;" x1="3736.32" x2="4066.652" y1="686.7469" y2="686.7469"/><text fill="#000000" font-family="sans-serif" font-size="14" lengthAdjust="spacing" textLength="125.2959" x="3741.32" y="703.742">float box_size_um</text><text fill="#000000" font-family="sans-serif" font-size="14" lengthAdjust="spacing" textLength="138.4209" x="3741.32" y="720.0389">float grid_width_um</text><text fill="#000000" font-family="sans-serif" font-size="14" lengthAdjust="spacing" textLength="153.7129" x="3741.32" y="736.3357">float exposure_time_s</text><text fill="#000000" font-family="sans-serif" font-size="14" lengthAdjust="spacing" textLength="320.332" x="3741.32" y="752.6326">IspybExperimentType ispyb_experiment_type</text><text fill="#000000" font-family="sans-serif" font-size="14" lengthAdjust="spacing" textLength="282.3516" x="3741.32" y="768.9295">ApertureValue | None selected_aperture</text><text fill="#000000" font-family="sans-serif" font-size="14" lengthAdjust="spacing" textLength="130.498" x="3741.32" y="785.2264">float tip_offset_um</text><line style="stroke:#181818;stroke-width:0.5;" x1="3736.32" x2="4066.652" y1="792.5281" y2="792.5281"/></g><!--class MxBlueskyParameters--><g class="entity" data-entity="MxBlueskyParameters" data-source-line="52" data-uid="ent0012" id="entity_MxBlueskyParameters"><rect fill="#F1F1F1" height="64.2969" rx="2.5" ry="2.5" style="stroke:#181818;stroke-width:0.5;" width="317.4639" x="3745.75" y="118.8869"/><ellipse cx="3822.3364" cy="134.8869" fill="#ADD1B2" rx="11" ry="11" style="stroke:#181818;stroke-width:1;"/><path d="M3825.3052,140.5275 Q3824.7271,140.8244 3824.0864,140.965 Q3823.4458,141.1213 3822.7427,141.1213 Q3820.2427,141.1213 3818.9146,139.4806 Q3817.6021,137.8244 3817.6021,134.6994 Q3817.6021,131.5744 3818.9146,129.9181 Q3820.2427,128.2619 3822.7427,128.2619 Q3823.4458,128.2619 3824.0864,128.4181 Q3824.7427,128.5744 3825.3052,128.8713 L3825.3052,131.59 Q3824.6802,131.0119 3824.0864,130.7463 Q3823.4927,130.465 3822.8677,130.465 Q3821.5239,130.465 3820.8364,131.5431 Q3820.1489,132.6056 3820.1489,134.6994 Q3820.1489,136.7931 3820.8364,137.8713 Q3821.5239,138.9338 3822.8677,138.9338 Q3823.4927,138.9338 3824.0864,138.6681 Q3824.6802,138.3869 3825.3052,137.8088 L3825.3052,140.5275 Z " fill="#000000"/><text fill="#000000" font-family="sans-serif" font-size="14" lengthAdjust="spacing" textLength="155.791" x="3842.8364" y="139.7336">MxBlueskyParameters</text><line style="stroke:#181818;stroke-width:0.5;" x1="3746.75" x2="4062.2139" y1="150.8869" y2="150.8869"/><text fill="#000000" font-family="sans-serif" font-size="14" lengthAdjust="spacing" textLength="305.4639" x="3751.75" y="167.882">SemanticVersion parameter_model_version</text><line style="stroke:#181818;stroke-width:0.5;" x1="3746.75" x2="4062.2139" y1="175.1838" y2="175.1838"/></g><!--class DiffractionExperiment--><g class="entity" data-entity="DiffractionExperiment" data-source-line="55" data-uid="ent0013" id="entity_DiffractionExperiment"><rect fill="#F1F1F1" height="210.9688" rx="2.5" ry="2.5" style="stroke:#181818;stroke-width:0.5;" width="332.332" x="3735.32" y="275.7769"/><ellipse cx="3820.1027" cy="291.7769" fill="#ADD1B2" rx="11" ry="11" style="stroke:#181818;stroke-width:1;"/><path d="M3823.0715,297.4175 Q3822.4933,297.7144 3821.8527,297.855 Q3821.2121,298.0113 3820.509,298.0113 Q3818.009,298.0113 3816.6808,296.3706 Q3815.3683,294.7144 3815.3683,291.5894 Q3815.3683,288.4644 3816.6808,286.8081 Q3818.009,285.1519 3820.509,285.1519 Q3821.2121,285.1519 3821.8527,285.3081 Q3822.509,285.4644 3823.0715,285.7613 L3823.0715,288.48 Q3822.4465,287.9019 3821.8527,287.6363 Q3821.259,287.355 3820.634,287.355 Q3819.2902,287.355 3818.6027,288.4331 Q3817.9152,289.4956 3817.9152,291.5894 Q3817.9152,293.6831 3818.6027,294.7613 Q3819.2902,295.8238 3820.634,295.8238 Q3821.259,295.8238 3821.8527,295.5581 Q3822.4465,295.2769 3823.0715,294.6988 L3823.0715,297.4175 Z " fill="#000000"/><text fill="#000000" font-family="sans-serif" font-size="14" lengthAdjust="spacing" textLength="154.2666" x="3840.6027" y="296.6236">DiffractionExperiment</text><line style="stroke:#181818;stroke-width:0.5;" x1="3736.32" x2="4066.652" y1="307.7769" y2="307.7769"/><text fill="#000000" font-family="sans-serif" font-size="14" lengthAdjust="spacing" textLength="91.0137" x="3741.32" y="324.772">str file_name</text><text fill="#000000" font-family="sans-serif" font-size="14" lengthAdjust="spacing" textLength="153.7129" x="3741.32" y="341.0689">float exposure_time_s</text><text fill="#000000" font-family="sans-serif" font-size="14" lengthAdjust="spacing" textLength="89.5029" x="3741.32" y="357.3657">str comment</text><text fill="#000000" font-family="sans-serif" font-size="14" lengthAdjust="spacing" textLength="186.915" x="3741.32" y="373.6626">TriggerMode trigger_mode</text><text fill="#000000" font-family="sans-serif" font-size="14" lengthAdjust="spacing" textLength="157.9854" x="3741.32" y="389.9595">int | None run_number</text><text fill="#000000" font-family="sans-serif" font-size="14" lengthAdjust="spacing" textLength="282.3516" x="3741.32" y="406.2564">ApertureValue | None selected_aperture</text><text fill="#000000" font-family="sans-serif" font-size="14" lengthAdjust="spacing" textLength="159.2979" x="3741.32" y="422.5532">float transmission_frac</text><text fill="#000000" font-family="sans-serif" font-size="14" lengthAdjust="spacing" textLength="320.332" x="3741.32" y="438.8501">IspybExperimentType ispyb_experiment_type</text><text fill="#000000" font-family="sans-serif" font-size="14" lengthAdjust="spacing" textLength="146.1113" x="3741.32" y="455.147">str storage_directory</text><text fill="#000000" font-family="sans-serif" font-size="14" lengthAdjust="spacing" textLength="131.0518" x="3741.32" y="471.4439">bool use_roi_mode</text><line style="stroke:#181818;stroke-width:0.5;" x1="3736.32" x2="4066.652" y1="478.7456" y2="478.7456"/></g><!--class DiffractionExperimentWithSample--><g class="entity" data-entity="DiffractionExperimentWithSample" data-source-line="67" data-uid="ent0014" id="entity_DiffractionExperimentWithSample"><rect fill="#F1F1F1" height="48" rx="2.5" ry="2.5" style="stroke:#181818;stroke-width:0.5;" width="270.8545" x="3766.06" y="546.7469"/><ellipse cx="3781.06" cy="562.7469" fill="#ADD1B2" rx="11" ry="11" style="stroke:#181818;stroke-width:1;"/><path d="M3784.0288,568.3875 Q3783.4506,568.6844 3782.81,568.825 Q3782.1694,568.9813 3781.4663,568.9813 Q3778.9663,568.9813 3777.6381,567.3406 Q3776.3256,565.6844 3776.3256,562.5594 Q3776.3256,559.4344 3777.6381,557.7781 Q3778.9663,556.1219 3781.4663,556.1219 Q3782.1694,556.1219 3782.81,556.2781 Q3783.4663,556.4344 3784.0288,556.7313 L3784.0288,559.45 Q3783.4038,558.8719 3782.81,558.6063 Q3782.2163,558.325 3781.5913,558.325 Q3780.2475,558.325 3779.56,559.4031 Q3778.8725,560.4656 3778.8725,562.5594 Q3778.8725,564.6531 3779.56,565.7313 Q3780.2475,566.7938 3781.5913,566.7938 Q3782.2163,566.7938 3782.81,566.5281 Q3783.4038,566.2469 3784.0288,565.6688 L3784.0288,568.3875 Z " fill="#000000"/><text fill="#000000" font-family="sans-serif" font-size="14" lengthAdjust="spacing" textLength="238.8545" x="3795.06" y="567.5936">DiffractionExperimentWithSample</text><line style="stroke:#181818;stroke-width:0.5;" x1="3767.06" x2="4035.9145" y1="578.7469" y2="578.7469"/><line style="stroke:#181818;stroke-width:0.5;" x1="3767.06" x2="4035.9145" y1="586.7469" y2="586.7469"/></g><!--class LoadCentreCollect--><g class="entity" data-entity="LoadCentreCollect" data-source-line="72" data-uid="ent0016" id="entity_LoadCentreCollect"><rect fill="#F1F1F1" height="80.5938" rx="2.5" ry="2.5" style="stroke:#181818;stroke-width:0.5;" width="338.6211" x="178.18" y="868.6769"/><ellipse cx="278.805" cy="884.6769" fill="#ADD1B2" rx="11" ry="11" style="stroke:#181818;stroke-width:1;"/><path d="M281.7737,890.3175 Q281.1956,890.6144 280.555,890.755 Q279.9144,890.9113 279.2112,890.9113 Q276.7112,890.9113 275.3831,889.2706 Q274.0706,887.6144 274.0706,884.4894 Q274.0706,881.3644 275.3831,879.7081 Q276.7112,878.0519 279.2112,878.0519 Q279.9144,878.0519 280.555,878.2081 Q281.2112,878.3644 281.7737,878.6613 L281.7737,881.38 Q281.1487,880.8019 280.555,880.5363 Q279.9612,880.255 279.3362,880.255 Q277.9925,880.255 277.305,881.3331 Q276.6175,882.3956 276.6175,884.4894 Q276.6175,886.5831 277.305,887.6613 Q277.9925,888.7238 279.3362,888.7238 Q279.9612,888.7238 280.555,888.4581 Q281.1487,888.1769 281.7737,887.5988 L281.7737,890.3175 Z " fill="#000000"/><text fill="#000000" font-family="sans-serif" font-size="14" lengthAdjust="spacing" textLength="128.8711" x="299.305" y="889.5236">LoadCentreCollect</text><line style="stroke:#181818;stroke-width:0.5;" x1="179.18" x2="515.8011" y1="900.6769" y2="900.6769"/><text fill="#000000" font-family="sans-serif" font-size="14" lengthAdjust="spacing" textLength="326.6211" x="184.18" y="917.672">RobotLoadThenCentre robot_load_then_centre</text><text fill="#000000" font-family="sans-serif" font-size="14" lengthAdjust="spacing" textLength="235.0947" x="184.18" y="933.9689">RotationScan multi_rotation_scan</text><line style="stroke:#181818;stroke-width:0.5;" x1="179.18" x2="515.8011" y1="941.2706" y2="941.2706"/></g><!--class WithHyperionUDCFeatures--><g class="entity" data-entity="WithHyperionUDCFeatures" data-source-line="76" data-uid="ent0017" id="entity_WithHyperionUDCFeatures"><rect fill="#F1F1F1" height="64.2969" rx="2.5" ry="2.5" style="stroke:#181818;stroke-width:0.5;" width="228.6719" x="552.15" y="695.4869"/><ellipse cx="571.2483" cy="711.4869" fill="#ADD1B2" rx="11" ry="11" style="stroke:#181818;stroke-width:1;"/><path d="M574.2171,717.1275 Q573.639,717.4244 572.9983,717.565 Q572.3577,717.7213 571.6546,717.7213 Q569.1546,717.7213 567.8265,716.0806 Q566.514,714.4244 566.514,711.2994 Q566.514,708.1744 567.8265,706.5181 Q569.1546,704.8619 571.6546,704.8619 Q572.3577,704.8619 572.9983,705.0181 Q573.6546,705.1744 574.2171,705.4713 L574.2171,708.19 Q573.5921,707.6119 572.9983,707.3463 Q572.4046,707.065 571.7796,707.065 Q570.4358,707.065 569.7483,708.1431 Q569.0608,709.2056 569.0608,711.2994 Q569.0608,713.3931 569.7483,714.4713 Q570.4358,715.5338 571.7796,715.5338 Q572.4046,715.5338 572.9983,715.2681 Q573.5921,714.9869 574.2171,714.4088 L574.2171,717.1275 Z " fill="#000000"/><text fill="#000000" font-family="sans-serif" font-size="14" lengthAdjust="spacing" textLength="187.5645" x="586.1591" y="716.3336">WithHyperionUDCFeatures</text><line style="stroke:#181818;stroke-width:0.5;" x1="553.15" x2="779.8219" y1="727.4869" y2="727.4869"/><text fill="#000000" font-family="sans-serif" font-size="14" lengthAdjust="spacing" textLength="216.6719" x="558.15" y="744.482">HyperionFeatureFlags features</text><line style="stroke:#181818;stroke-width:0.5;" x1="553.15" x2="779.8219" y1="751.7838" y2="751.7838"/></g><!--class GridCommonWithHyperionDetectorParams--><g class="entity" data-entity="GridCommonWithHyperionDetectorParams" data-source-line="79" data-uid="ent0018" id="entity_GridCommonWithHyperionDetectorParams"><rect fill="#F1F1F1" height="48" rx="2.5" ry="2.5" style="stroke:#181818;stroke-width:0.5;" width="333.2188" x="918.88" y="884.9769"/><ellipse cx="933.88" cy="900.9769" fill="#ADD1B2" rx="11" ry="11" style="stroke:#181818;stroke-width:1;"/><path d="M936.8488,906.6175 Q936.2706,906.9144 935.63,907.055 Q934.9894,907.2113 934.2863,907.2113 Q931.7863,907.2113 930.4581,905.5706 Q929.1456,903.9144 929.1456,900.7894 Q929.1456,897.6644 930.4581,896.0081 Q931.7863,894.3519 934.2863,894.3519 Q934.9894,894.3519 935.63,894.5081 Q936.2863,894.6644 936.8488,894.9613 L936.8488,897.68 Q936.2238,897.1019 935.63,896.8363 Q935.0363,896.555 934.4113,896.555 Q933.0675,896.555 932.38,897.6331 Q931.6925,898.6956 931.6925,900.7894 Q931.6925,902.8831 932.38,903.9613 Q933.0675,905.0238 934.4113,905.0238 Q935.0363,905.0238 935.63,904.7581 Q936.2238,904.4769 936.8488,903.8988 L936.8488,906.6175 Z " fill="#000000"/><text fill="#000000" font-family="sans-serif" font-size="14" lengthAdjust="spacing" textLength="301.2188" x="947.88" y="905.8236">GridCommonWithHyperionDetectorParams</text><line style="stroke:#181818;stroke-width:0.5;" x1="919.88" x2="1251.0988" y1="916.9769" y2="916.9769"/><line style="stroke:#181818;stroke-width:0.5;" x1="919.88" x2="1251.0988" y1="924.9769" y2="924.9769"/></g><!--class PinTipCentreThenXrayCentre--><g class="entity" data-entity="PinTipCentreThenXrayCentre" data-source-line="81" data-uid="ent0019" id="entity_PinTipCentreThenXrayCentre"><rect fill="#F1F1F1" height="64.2969" rx="2.5" ry="2.5" style="stroke:#181818;stroke-width:0.5;" width="235.8955" x="961.54" y="1017.4169"/><ellipse cx="976.54" cy="1033.4169" fill="#ADD1B2" rx="11" ry="11" style="stroke:#181818;stroke-width:1;"/><path d="M979.5088,1039.0575 Q978.9306,1039.3544 978.29,1039.495 Q977.6494,1039.6513 976.9463,1039.6513 Q974.4463,1039.6513 973.1181,1038.0106 Q971.8056,1036.3544 971.8056,1033.2294 Q971.8056,1030.1044 973.1181,1028.4481 Q974.4463,1026.7919 976.9463,1026.7919 Q977.6494,1026.7919 978.29,1026.9481 Q978.9463,1027.1044 979.5088,1027.4013 L979.5088,1030.12 Q978.8838,1029.5419 978.29,1029.2763 Q977.6963,1028.995 977.0713,1028.995 Q975.7275,1028.995 975.04,1030.0731 Q974.3525,1031.1356 974.3525,1033.2294 Q974.3525,1035.3231 975.04,1036.4013 Q975.7275,1037.4638 977.0713,1037.4638 Q977.6963,1037.4638 978.29,1037.1981 Q978.8838,1036.9169 979.5088,1036.3388 L979.5088,1039.0575 Z " fill="#000000"/><text fill="#000000" font-family="sans-serif" font-size="14" lengthAdjust="spacing" textLength="203.8955" x="990.54" y="1038.2636">PinTipCentreThenXrayCentre</text><line style="stroke:#181818;stroke-width:0.5;" x1="962.54" x2="1196.4355" y1="1049.4169" y2="1049.4169"/><text fill="#000000" font-family="sans-serif" font-size="14" lengthAdjust="spacing" textLength="130.498" x="967.54" y="1066.412">float tip_offset_um</text><line style="stroke:#181818;stroke-width:0.5;" x1="962.54" x2="1196.4355" y1="1073.7138" y2="1073.7138"/></g><!--class RotationScan--><g class="entity" data-entity="RotationScan" data-source-line="84" data-uid="ent0020" id="entity_RotationScan"><rect fill="#F1F1F1" height="64.2969" rx="2.5" ry="2.5" style="stroke:#181818;stroke-width:0.5;" width="540.001" x="125.49" y="1017.4169"/><ellipse cx="344.6331" cy="1033.4169" fill="#ADD1B2" rx="11" ry="11" style="stroke:#181818;stroke-width:1;"/><path d="M347.6018,1039.0575 Q347.0237,1039.3544 346.3831,1039.495 Q345.7424,1039.6513 345.0393,1039.6513 Q342.5393,1039.6513 341.2112,1038.0106 Q339.8987,1036.3544 339.8987,1033.2294 Q339.8987,1030.1044 341.2112,1028.4481 Q342.5393,1026.7919 345.0393,1026.7919 Q345.7424,1026.7919 346.3831,1026.9481 Q347.0393,1027.1044 347.6018,1027.4013 L347.6018,1030.12 Q346.9768,1029.5419 346.3831,1029.2763 Q345.7893,1028.995 345.1643,1028.995 Q343.8206,1028.995 343.1331,1030.0731 Q342.4456,1031.1356 342.4456,1033.2294 Q342.4456,1035.3231 343.1331,1036.4013 Q343.8206,1037.4638 345.1643,1037.4638 Q345.7893,1037.4638 346.3831,1037.1981 Q346.9768,1036.9169 347.6018,1036.3388 L347.6018,1039.0575 Z " fill="#000000"/><text fill="#000000" font-family="sans-serif" font-size="14" lengthAdjust="spacing" textLength="93.2148" x="365.1331" y="1038.2636">RotationScan</text><line style="stroke:#181818;stroke-width:0.5;" x1="126.49" x2="664.491" y1="1049.4169" y2="1049.4169"/><line style="stroke:#181818;stroke-width:0.5;" x1="126.49" x2="664.491" y1="1057.4169" y2="1057.4169"/><text fill="#000000" font-family="sans-serif" font-size="14" lengthAdjust="spacing" textLength="528.001" x="131.49" y="1074.412">Annotated[list[RotationScanPerSweep], Len(min_length=1)] rotation_scans</text></g><!--class GridScanWithEdgeDetect--><g class="entity" data-entity="GridScanWithEdgeDetect" data-source-line="87" data-uid="ent0021" id="entity_GridScanWithEdgeDetect"><rect fill="#F1F1F1" height="48" rx="2.5" ry="2.5" style="stroke:#181818;stroke-width:0.5;" width="209.4268" x="711.77" y="1025.5669"/><ellipse cx="726.77" cy="1041.5669" fill="#ADD1B2" rx="11" ry="11" style="stroke:#181818;stroke-width:1;"/><path d="M729.7388,1047.2075 Q729.1606,1047.5044 728.52,1047.645 Q727.8794,1047.8013 727.1763,1047.8013 Q724.6763,1047.8013 723.3481,1046.1606 Q722.0356,1044.5044 722.0356,1041.3794 Q722.0356,1038.2544 723.3481,1036.5981 Q724.6763,1034.9419 727.1763,1034.9419 Q727.8794,1034.9419 728.52,1035.0981 Q729.1763,1035.2544 729.7388,1035.5513 L729.7388,1038.27 Q729.1138,1037.6919 728.52,1037.4263 Q727.9263,1037.145 727.3013,1037.145 Q725.9575,1037.145 725.27,1038.2231 Q724.5825,1039.2856 724.5825,1041.3794 Q724.5825,1043.4731 725.27,1044.5513 Q725.9575,1045.6138 727.3013,1045.6138 Q727.9263,1045.6138 728.52,1045.3481 Q729.1138,1045.0669 729.7388,1044.4888 L729.7388,1047.2075 Z " fill="#000000"/><text fill="#000000" font-family="sans-serif" font-size="14" lengthAdjust="spacing" textLength="177.4268" x="740.77" y="1046.4136">GridScanWithEdgeDetect</text><line style="stroke:#181818;stroke-width:0.5;" x1="712.77" x2="920.1968" y1="1057.5669" y2="1057.5669"/><line style="stroke:#181818;stroke-width:0.5;" x1="712.77" x2="920.1968" y1="1065.5669" y2="1065.5669"/></g><!--class RotationExperiment--><g class="entity" data-entity="RotationExperiment" data-source-line="89" data-uid="ent0022" id="entity_RotationExperiment"><rect fill="#F1F1F1" height="96.8906" rx="2.5" ry="2.5" style="stroke:#181818;stroke-width:0.5;" width="332.332" x="551.32" y="860.5269"/><ellipse cx="643.2018" cy="876.5269" fill="#ADD1B2" rx="11" ry="11" style="stroke:#181818;stroke-width:1;"/><path d="M646.1706,882.1675 Q645.5925,882.4644 644.9518,882.605 Q644.3112,882.7613 643.6081,882.7613 Q641.1081,882.7613 639.78,881.1206 Q638.4675,879.4644 638.4675,876.3394 Q638.4675,873.2144 639.78,871.5581 Q641.1081,869.9019 643.6081,869.9019 Q644.3112,869.9019 644.9518,870.0581 Q645.6081,870.2144 646.1706,870.5113 L646.1706,873.23 Q645.5456,872.6519 644.9518,872.3863 Q644.3581,872.105 643.7331,872.105 Q642.3893,872.105 641.7018,873.1831 Q641.0143,874.2456 641.0143,876.3394 Q641.0143,878.4331 641.7018,879.5113 Q642.3893,880.5738 643.7331,880.5738 Q644.3581,880.5738 644.9518,880.3081 Q645.5456,880.0269 646.1706,879.4488 L646.1706,882.1675 Z " fill="#000000"/><text fill="#000000" font-family="sans-serif" font-size="14" lengthAdjust="spacing" textLength="140.0684" x="663.7018" y="881.3736">RotationExperiment</text><line style="stroke:#181818;stroke-width:0.5;" x1="552.32" x2="882.652" y1="892.5269" y2="892.5269"/><text fill="#000000" font-family="sans-serif" font-size="14" lengthAdjust="spacing" textLength="202.8018" x="557.32" y="909.522">float shutter_opening_time_s</text><text fill="#000000" font-family="sans-serif" font-size="14" lengthAdjust="spacing" textLength="202.9385" x="557.32" y="925.8189">float rotation_increment_deg</text><text fill="#000000" font-family="sans-serif" font-size="14" lengthAdjust="spacing" textLength="320.332" x="557.32" y="942.1157">IspybExperimentType ispyb_experiment_type</text><line style="stroke:#181818;stroke-width:0.5;" x1="552.32" x2="882.652" y1="949.4175" y2="949.4175"/></g><!--reverse link MxBlueskyParameters to LoadCentreCollect--><g class="link" data-entity-1="MxBlueskyParameters" data-entity-2="LoadCentreCollect" data-source-line="95" data-uid="lnk23" id="link_MxBlueskyParameters_LoadCentreCollect"><path codeLine="95" d="M3817.3519,190.5787 C3785.2919,204.1387 3763.19,212.4369 3727.49,223.7769 C3162.35,403.3269 1716.77,750.6369 1129.49,832.5269 C866.85,869.1569 795.75,821.3369 533.49,860.5269 C519.73,862.5869 505.51,865.2369 491.34,868.2269" fill="none" id="MxBlueskyParameters-backto-LoadCentreCollect" style="stroke:#181818;stroke-width:1;"/><polygon fill="none" points="3833.93,183.5669,3815.0146,185.0527,3819.6892,196.1047,3833.93,183.5669" style="stroke:#181818;stroke-width:1;"/></g><!--reverse link WithVisit to LoadCentreCollect--><g class="link" data-entity-1="WithVisit" data-entity-2="LoadCentreCollect" data-source-line="96" data-uid="lnk24" id="link_WithVisit_LoadCentreCollect"><path codeLine="96" d="M2834.4874,222.0777 C2826.1374,224.9477 2834.77,221.6569 2826.49,223.7769 C2481.3,312.0769 2370.68,183.6569 2026.49,275.7769 C1486.04,420.4369 1437.07,684.6769 897.49,832.5269 C741,875.4069 693.58,834.1569 533.49,860.5269 C520.42,862.6869 506.92,865.3069 493.44,868.2169" fill="none" id="WithVisit-backto-LoadCentreCollect" style="stroke:#181818;stroke-width:1;"/><polygon fill="none" points="2851.51,216.2269,2832.5372,216.4036,2836.4377,227.7519,2851.51,216.2269" style="stroke:#181818;stroke-width:1;"/></g><!--reverse link WithSample to LoadCentreCollect--><g class="link" data-entity-1="WithSample" data-entity-2="LoadCentreCollect" data-source-line="97" data-uid="lnk25" id="link_WithSample_LoadCentreCollect"><path codeLine="97" d="M2393.4671,209.8822 C2378.9371,219.4722 2377.83,218.3369 2361.49,223.7769 C2234.86,265.9369 1277.43,209.6769 1161.49,275.7769 C904.87,422.0869 1050.45,678.3469 798.49,832.5269 C747.98,863.4369 591.77,850.0769 533.49,860.5269 C521.02,862.7669 508.16,865.3869 495.29,868.2169" fill="none" id="WithSample-backto-LoadCentreCollect" style="stroke:#181818;stroke-width:1;"/><polygon fill="none" points="2408.49,199.9669,2390.162,204.8746,2396.7722,214.8898,2408.49,199.9669" style="stroke:#181818;stroke-width:1;"/></g><!--reverse link WithCentreSelection to LoadCentreCollect--><g class="link" data-entity-1="WithCentreSelection" data-entity-2="LoadCentreCollect" data-source-line="98" data-uid="lnk26" id="link_WithCentreSelection_LoadCentreCollect"><path codeLine="98" d="M1615.9276,187.7959 C1555.3076,202.0459 1498.75,213.7769 1431.49,223.7769 C1287.28,245.2269 903.54,202.5269 777.49,275.7769 C535.9,416.1669 400.88,753.1269 360.51,868.4669" fill="none" id="WithCentreSelection-backto-LoadCentreCollect" style="stroke:#181818;stroke-width:1;"/><polygon fill="none" points="1633.45,183.6769,1614.5546,181.9551,1617.3006,193.6367,1633.45,183.6769" style="stroke:#181818;stroke-width:1;"/></g><!--reverse link WithHyperionUDCFeatures to LoadCentreCollect--><g class="link" data-entity-1="WithHyperionUDCFeatures" data-entity-2="LoadCentreCollect" data-source-line="99" data-uid="lnk27" id="link_WithHyperionUDCFeatures_LoadCentreCollect"><path codeLine="99" d="M594.8685,768.906 C541.3485,798.986 476.12,835.6569 418.16,868.2469" fill="none" id="WithHyperionUDCFeatures-backto-LoadCentreCollect" style="stroke:#181818;stroke-width:1;"/><polygon fill="none" points="610.56,760.0869,591.9288,763.6755,597.8082,774.1365,610.56,760.0869" style="stroke:#181818;stroke-width:1;"/></g><!--reverse link MxBlueskyParameters to DiffractionExperiment--><g class="link" data-entity-1="MxBlueskyParameters" data-entity-2="DiffractionExperiment" data-source-line="100" data-uid="lnk28" id="link_MxBlueskyParameters_DiffractionExperiment"><path codeLine="100" d="M3903.8373,201.2954 C3903.5273,225.2754 3903.3,241.8669 3902.86,275.3869" fill="none" id="MxBlueskyParameters-backto-DiffractionExperiment" style="stroke:#181818;stroke-width:1;"/><polygon fill="none" points="3904.07,183.2969,3897.8378,201.2178,3909.8368,201.3729,3904.07,183.2969" style="stroke:#181818;stroke-width:1;"/></g><!--reverse link WithSnapshot to DiffractionExperiment--><g class="link" data-entity-1="WithSnapshot" data-entity-2="DiffractionExperiment" data-source-line="101" data-uid="lnk29" id="link_WithSnapshot_DiffractionExperiment"><path codeLine="101" d="M3651.5849,210.0128 C3683.9149,232.0428 3708.77,248.9669 3747.52,275.3769" fill="none" id="WithSnapshot-backto-DiffractionExperiment" style="stroke:#181818;stroke-width:1;"/><polygon fill="none" points="3636.71,199.8769,3648.2063,214.9711,3654.9636,205.0545,3636.71,199.8769" style="stroke:#181818;stroke-width:1;"/></g><!--reverse link WithOptionalEnergyChange to DiffractionExperiment--><g class="link" data-entity-1="WithOptionalEnergyChange" data-entity-2="DiffractionExperiment" data-source-line="102" data-uid="lnk30" id="link_WithOptionalEnergyChange_DiffractionExperiment"><path codeLine="102" d="M3338.9746,192.2408 C3363.2846,205.7108 3376.95,212.2369 3404.49,223.7769 C3512.01,268.8269 3637.23,308.1769 3735.08,336.1469" fill="none" id="WithOptionalEnergyChange-backto-DiffractionExperiment" style="stroke:#181818;stroke-width:1;"/><polygon fill="none" points="3323.23,183.5169,3336.0666,197.489,3341.8826,186.9926,3323.23,183.5169" style="stroke:#181818;stroke-width:1;"/></g><!--reverse link WithVisit to DiffractionExperiment--><g class="link" data-entity-1="WithVisit" data-entity-2="DiffractionExperiment" data-source-line="103" data-uid="lnk31" id="link_WithVisit_DiffractionExperiment"><path codeLine="103" d="M3130.0826,222.6199 C3137.2026,225.3299 3127.48,221.4669 3134.49,223.7769 C3336.31,290.3469 3577.76,333.9769 3735.11,357.8569" fill="none" id="WithVisit-backto-DiffractionExperiment" style="stroke:#181818;stroke-width:1;"/><polygon fill="none" points="3113.26,216.2169,3127.9483,228.2274,3132.217,217.0123,3113.26,216.2169" style="stroke:#181818;stroke-width:1;"/></g><!--reverse link WithPandaGridScan to WithHyperionUDCFeatures--><g class="link" data-entity-1="WithPandaGridScan" data-entity-2="WithHyperionUDCFeatures" data-source-line="104" data-uid="lnk32" id="link_WithPandaGridScan_WithHyperionUDCFeatures"><path codeLine="104" d="M2159.9492,192.6901 C2134.3392,207.7701 2117.16,215.2369 2085.49,223.7769 C1851.58,286.8969 1209.87,161.0469 996.49,275.7769 C818.78,371.3269 712,609.2469 678.2,695.1069" fill="none" id="WithPandaGridScan-backto-WithHyperionUDCFeatures" style="stroke:#181818;stroke-width:1;"/><polygon fill="none" points="2175.46,183.5569,2156.9048,187.5199,2162.9936,197.8604,2175.46,183.5569" style="stroke:#181818;stroke-width:1;"/></g><!--reverse link GridCommon to GridCommonWithHyperionDetectorParams--><g class="link" data-entity-1="GridCommon" data-entity-2="GridCommonWithHyperionDetectorParams" data-source-line="105" data-uid="lnk33" id="link_GridCommon_GridCommonWithHyperionDetectorParams"><path codeLine="105" d="M3716.993,745.5764 C3473.803,767.5464 3025.12,806.5969 2627.49,832.5269 C2127.5,865.1369 1535.48,890.3569 1252.44,901.5869" fill="none" id="GridCommon-backto-GridCommonWithHyperionDetectorParams" style="stroke:#181818;stroke-width:1;"/><polygon fill="none" points="3734.92,743.9569,3716.4532,739.6008,3717.5329,751.5521,3734.92,743.9569" style="stroke:#181818;stroke-width:1;"/></g><!--reverse link WithHyperionUDCFeatures to GridCommonWithHyperionDetectorParams--><g class="link" data-entity-1="WithHyperionUDCFeatures" data-entity-2="GridCommonWithHyperionDetectorParams" data-source-line="106" data-uid="lnk34" id="link_WithHyperionUDCFeatures_GridCommonWithHyperionDetectorParams"><path codeLine="106" d="M756.4979,767.1697 C839.5779,802.7297 956.41,852.7269 1030.81,884.5769" fill="none" id="WithHyperionUDCFeatures-backto-GridCommonWithHyperionDetectorParams" style="stroke:#181818;stroke-width:1;"/><polygon fill="none" points="739.95,760.0869,754.137,772.6857,758.8589,761.6538,739.95,760.0869" style="stroke:#181818;stroke-width:1;"/></g><!--reverse link DiffractionExperimentWithSample to GridCommon--><g class="link" data-entity-1="DiffractionExperimentWithSample" data-entity-2="GridCommon" data-source-line="107" data-uid="lnk35" id="link_DiffractionExperimentWithSample_GridCommon"><path codeLine="107" d="M3901.49,612.9369 C3901.49,628.8869 3901.49,633.0069 3901.49,654.5669" fill="none" id="DiffractionExperimentWithSample-backto-GridCommon" style="stroke:#181818;stroke-width:1;"/><polygon fill="none" points="3901.49,594.9369,3895.49,612.9369,3907.49,612.9369,3901.49,594.9369" style="stroke:#181818;stroke-width:1;"/></g><!--reverse link OptionalGonioAngleStarts to GridCommon--><g class="link" data-entity-1="OptionalGonioAngleStarts" data-entity-2="GridCommon" data-source-line="108" data-uid="lnk36" id="link_OptionalGonioAngleStarts_GridCommon"><path codeLine="108" d="M2813.4592,216.5664 C2823.4892,221.9964 2817.74,218.7769 2827.49,223.7769 C3145.02,386.8269 3525.06,559.6769 3737.3,654.2569" fill="none" id="OptionalGonioAngleStarts-backto-GridCommon" style="stroke:#181818;stroke-width:1;"/><polygon fill="none" points="2797.63,207.9969,2810.6027,221.8428,2816.3157,211.29,2797.63,207.9969" style="stroke:#181818;stroke-width:1;"/></g><!--reverse link GridCommonWithHyperionDetectorParams to PinTipCentreThenXrayCentre--><g class="link" data-entity-1="GridCommonWithHyperionDetectorParams" data-entity-2="PinTipCentreThenXrayCentre" data-source-line="109" data-uid="lnk37" id="link_GridCommonWithHyperionDetectorParams_PinTipCentreThenXrayCentre"><path codeLine="109" d="M1083.7046,951.1602 C1082.7146,974.1202 1081.96,991.4569 1080.85,1016.9769" fill="none" id="GridCommonWithHyperionDetectorParams-backto-PinTipCentreThenXrayCentre" style="stroke:#181818;stroke-width:1;"/><polygon fill="none" points="1084.48,933.1769,1077.7102,950.9017,1089.699,951.4186,1084.48,933.1769" style="stroke:#181818;stroke-width:1;"/></g><!--reverse link WithHyperionUDCFeatures to PinTipCentreThenXrayCentre--><g class="link" data-entity-1="WithHyperionUDCFeatures" data-entity-2="PinTipCentreThenXrayCentre" data-source-line="110" data-uid="lnk38" id="link_WithHyperionUDCFeatures_PinTipCentreThenXrayCentre"><path codeLine="110" d="M534.0594,742.6224 C349.6594,765.7024 37.43,824.5069 160.49,957.4169 C219.39,1021.0369 852.72,1004.7069 938.49,1017.4169 C945.93,1018.5269 953.56,1019.7969 961.24,1021.1869" fill="none" id="WithHyperionUDCFeatures-backto-PinTipCentreThenXrayCentre" style="stroke:#181818;stroke-width:1;"/><polygon fill="none" points="551.92,740.3869,533.3142,736.6688,534.8045,748.5759,551.92,740.3869" style="stroke:#181818;stroke-width:1;"/></g><!--reverse link DiffractionExperiment to DiffractionExperimentWithSample--><g class="link" data-entity-1="DiffractionExperiment" data-entity-2="DiffractionExperimentWithSample" data-source-line="111" data-uid="lnk39" id="link_DiffractionExperiment_DiffractionExperimentWithSample"><path codeLine="111" d="M3901.49,505.2469 C3901.49,527.4969 3901.49,530.8969 3901.49,546.3269" fill="none" id="DiffractionExperiment-backto-DiffractionExperimentWithSample" style="stroke:#181818;stroke-width:1;"/><polygon fill="none" points="3901.49,487.2469,3895.49,505.2469,3907.49,505.2469,3901.49,487.2469" style="stroke:#181818;stroke-width:1;"/></g><!--reverse link WithSample to DiffractionExperimentWithSample--><g class="link" data-entity-1="WithSample" data-entity-2="DiffractionExperimentWithSample" data-source-line="112" data-uid="lnk40" id="link_WithSample_DiffractionExperimentWithSample"><path codeLine="112" d="M2544.8403,209.7138 C2558.4503,218.5438 2558.01,217.2269 2572.49,223.7769 C2986.03,410.8569 3519.47,511.0169 3765.79,550.0769" fill="none" id="WithSample-backto-DiffractionExperimentWithSample" style="stroke:#181818;stroke-width:1;"/><polygon fill="none" points="2529.74,199.9169,2541.5747,214.7472,2548.106,204.6803,2529.74,199.9169" style="stroke:#181818;stroke-width:1;"/></g><!--reverse link RotationExperiment to RotationScan--><g class="link" data-entity-1="RotationExperiment" data-entity-2="RotationScan" data-source-line="113" data-uid="lnk41" id="link_RotationExperiment_RotationScan"><path codeLine="113" d="M589.6867,964.9838 C544.2467,984.5438 509.47,999.5069 468.86,1016.9869" fill="none" id="RotationExperiment-backto-RotationScan" style="stroke:#181818;stroke-width:1;"/><polygon fill="none" points="606.22,957.8669,587.3144,959.4727,592.059,970.4949,606.22,957.8669" style="stroke:#181818;stroke-width:1;"/></g><!--reverse link SplitScan to RotationScan--><g class="link" data-entity-1="SplitScan" data-entity-2="RotationScan" data-source-line="114" data-uid="lnk42" id="link_SplitScan_RotationScan"><path codeLine="114" d="M1298.8295,153.7006 C1170.3095,157.8706 830.71,177.5569 553.49,275.7769 C309.78,362.1269 51.49,311.1969 51.49,569.7469 C51.49,569.7469 51.49,569.7469 51.49,728.6369 C51.49,832.4469 28.66,880.6069 98.49,957.4169 C123.07,984.4569 155.44,1003.5669 189.76,1017.0569" fill="none" id="SplitScan-backto-RotationScan" style="stroke:#181818;stroke-width:1;"/><polygon fill="none" points="1316.82,153.1169,1298.6349,147.7038,1299.024,159.6974,1316.82,153.1169" style="stroke:#181818;stroke-width:1;"/></g><!--reverse link GridCommonWithHyperionDetectorParams to GridScanWithEdgeDetect--><g class="link" data-entity-1="GridCommonWithHyperionDetectorParams" data-entity-2="GridScanWithEdgeDetect" data-source-line="115" data-uid="lnk43" id="link_GridCommonWithHyperionDetectorParams_GridScanWithEdgeDetect"><path codeLine="115" d="M1024.1597,941.5724 C974.5997,967.1124 911.63,999.5469 862,1025.1169" fill="none" id="GridCommonWithHyperionDetectorParams-backto-GridScanWithEdgeDetect" style="stroke:#181818;stroke-width:1;"/><polygon fill="none" points="1040.16,933.3269,1021.4111,936.239,1026.9082,946.9059,1040.16,933.3269" style="stroke:#181818;stroke-width:1;"/></g><!--reverse link WithHyperionUDCFeatures to GridScanWithEdgeDetect--><g class="link" data-entity-1="WithHyperionUDCFeatures" data-entity-2="GridScanWithEdgeDetect" data-source-line="116" data-uid="lnk44" id="link_WithHyperionUDCFeatures_GridScanWithEdgeDetect"><path codeLine="116" d="M533.9572,740.0051 C341.9172,760.0451 6,815.2669 133.49,957.4169 C215.57,1048.9469 562.3,996.6969 683.49,1017.4169 C696.23,1019.5969 709.57,1022.2569 722.68,1025.1069" fill="none" id="WithHyperionUDCFeatures-backto-GridScanWithEdgeDetect" style="stroke:#181818;stroke-width:1;"/><polygon fill="none" points="551.86,738.1369,533.3345,734.0375,534.58,745.9727,551.86,738.1369" style="stroke:#181818;stroke-width:1;"/></g><!--reverse link DiffractionExperiment to RotationExperiment--><g class="link" data-entity-1="DiffractionExperiment" data-entity-2="RotationExperiment" data-source-line="117" data-uid="lnk45" id="link_DiffractionExperiment_RotationExperiment"><path codeLine="117" d="M3717.6667,441.891 C3399.7567,542.361 2700.1,749.3869 2078.49,832.5269 C1559.85,901.8969 1419.77,788.5069 901.49,860.5269 C895.77,861.3269 889.97,862.2269 884.13,863.2369" fill="none" id="DiffractionExperiment-backto-RotationExperiment" style="stroke:#181818;stroke-width:1;"/><polygon fill="none" points="3734.83,436.4669,3715.8587,436.1699,3719.4748,447.6121,3734.83,436.4669" style="stroke:#181818;stroke-width:1;"/></g><!--reverse link WithHyperionUDCFeatures to RotationExperiment--><g class="link" data-entity-1="WithHyperionUDCFeatures" data-entity-2="RotationExperiment" data-source-line="118" data-uid="lnk46" id="link_WithHyperionUDCFeatures_RotationExperiment"><path codeLine="118" d="M680.2952,777.19 C688.1752,804.89 694.87,828.4469 703.91,860.2369" fill="none" id="WithHyperionUDCFeatures-backto-RotationExperiment" style="stroke:#181818;stroke-width:1;"/><polygon fill="none" points="675.37,759.8769,674.5241,778.8317,686.0662,775.5482,675.37,759.8769" style="stroke:#181818;stroke-width:1;"/></g><!--SRC=[bLRVRzis47ws_Wg-hGEM07tl7b8dwGOqhJ5xsO0Y86ZfB16HI88yfVRS_Eyxaf8inRBimWyMx_STl- -aNrQ5T6mZIs3qBshKLpaei08XO-iTQm_Sb49XNPNNPfSaA94S_jWPi58hjX1ML81WsOFEe4mS85CaSKQai0H3QjIMAQqWIKZsB79WrPQlonhSy-uwrLMbrRLfmpYsJr3dW0M5t2TfAPnZ_qWilXgaVAAyewBotRmGAeTzCjkKMY3xmRvG0fP19LJ68PXmU4bUcm1BKqfSfaBjEv6FkLJ2k48ZnLa8B9XhpZoJ5bAgUvVCIkdmMyZorARfp7G5kN0yWpoPhRKkMUs0vrPcl3LnWtnpK6XfAYK5fsOexKgRBnzt3s8xrxN2JaEPXffxRUz4MYn5PSf30ER24qz3t66k1Kr2VA9QOjlDe8oNSbkhsb2J3eLAWLTLvzbE-PDMKj-ed9AXiEZUJZfqpftNnVO7MbF8axfqGlSiZEb77TnLQ9tga0gP2mSkitXixoLAJPq-Zygb6aHyb4xwgtTesHf4LKh2Q3YzU4ryp033e3XgxerugjKBM48gDmIPQ2IL8n4DZXiB6xazWYK6DBsP-EinqFrzpGCZke6lzPOx-H_mkcf50M7VPOP5JmXRerrjWQEiWBjazgSpk_NTrlEq8doiYB74Sv9nw8GSIPhCRkYCvFieY9NTr0As8EEYqRQPK1gkDnjYka_VJlHX-p5Ikji87ZHBpqYKwICTFM0xdlFAhml-4kLTb5kvsLWHm7qelRaZlwcutoqdM_PMVg6G3r7BoZm7wzSIm_WSaWwWGKpWggxMO7zw2bOeLqddo-U-vf-QkA_K4IHe6_QNJRT4h9QnsCd1z7dn6duZ6xPeLlLmnyQedxN8ubAQwz8tIgF-IwyrUiMg01MLp7ePfxupJdXLpSBnjYXyINx7iAekKLBbKSGToGPyQzyPVz_Exq7uMNg4jD96T5-Ad5vAZRxpFn2Z7-cs8LQ0d3lizeLKAsbYxRwBVwtOnTD-6iJzViZqHYalWEnRU0lqjGkmo-y0vkatzXdKkqegNeBAiVZz_QzFR324OHVUsVTmb-KGwzyVfHz0FzRhYXezRRG19LNUGJvgktnIfHO2pi9slHoH7ZmZ56OVVbnT7SCawVRdb464vfJ5cnVYbEa8UawPd-nZb4H9_qlWdDtOLyWvdzwSJXiDNjVH-4JNoO4BqUuIRaoFyA88PpRGsqZ9gK-98yDBiaUdqxoUxc_2RxIhYSiwD7m4yNFsn-oEVlsradHVgYEwomSrlcZEWs34Ps90nmrDPpYs_ny0]--></g></svg>