<svg xmlns="http://www.w3.org/2000/svg" xmlns:xlink="http://www.w3.org/1999/xlink" contentStyleType="text/css" data-diagram-type="CLASS" height="1235px" preserveAspectRatio="none" style="width:4988px;height:1235px;background:#FFFFFF;" version="1.1" viewBox="0 0 4988 1235" width="4988px" zoomAndPan="magnify"><title>Hyperion Parameter Model</title><defs/><g><text fill="#000000" font-family="sans-serif" font-size="14" font-weight="bold" lengthAdjust="spacing" textLength="212.4951" x="2380.9324" y="22.9951">Hyperion Parameter Model</text><!--cluster mx_bluesky.common.parameters--><g id="cluster_mx_bluesky.common.parameters"><path d="M8.5,43.2969 L269.8125,43.2969 A3.75,3.75 0 0 1 272.3125,45.7969 L279.3125,65.5938 L2992.5,65.5938 A2.5,2.5 0 0 1 2995,68.0938 L2995,1109.2969 A2.5,2.5 0 0 1 2992.5,1111.7969 L8.5,1111.7969 A2.5,2.5 0 0 1 6,1109.2969 L6,45.7969 A2.5,2.5 0 0 1 8.5,43.2969 " fill="#FFFFFF" fill-opacity="0.00000" style="stroke:#000000;stroke-width:1.5;"/><line style="stroke:#000000;stroke-width:1.5;" x1="6" x2="279.3125" y1="65.5938" y2="65.5938"/><text fill="#000000" font-family="sans-serif" font-size="14" font-weight="bold" lengthAdjust="spacing" textLength="260.3125" x="10" y="58.292">mx_bluesky.common.parameters</text></g><!--cluster mx_bluesky.hyperion.parameters--><g id="cluster_mx_bluesky.hyperion.parameters"><path d="M3021.5,660.4969 L3286.0322,660.4969 A3.75,3.75 0 0 1 3288.5322,662.9969 L3295.5322,682.7937 L4841.5,682.7937 A2.5,2.5 0 0 1 4844,685.2937 L4844,1225.5969 A2.5,2.5 0 0 1 4841.5,1228.0969 L3021.5,1228.0969 A2.5,2.5 0 0 1 3019,1225.5969 L3019,662.9969 A2.5,2.5 0 0 1 3021.5,660.4969 " fill="#FFFFFF" fill-opacity="0.00000" style="stroke:#000000;stroke-width:1.5;"/><line style="stroke:#000000;stroke-width:1.5;" x1="3019" x2="3295.5322" y1="682.7937" y2="682.7937"/><text fill="#000000" font-family="sans-serif" font-size="14" font-weight="bold" lengthAdjust="spacing" textLength="263.5322" x="3023" y="675.492">mx_bluesky.hyperion.parameters</text></g><!--class OptionalGonioAngleStarts--><g id="elem_OptionalGonioAngleStarts"><rect codeLine="8" fill="#F1F1F1" height="113.1875" id="OptionalGonioAngleStarts" rx="2.5" ry="2.5" style="stroke:#181818;stroke-width:0.5;" width="219.3203" x="1129.34" y="94.4469"/><ellipse cx="1147.0633" cy="110.4469" fill="#ADD1B2" rx="11" ry="11" style="stroke:#181818;stroke-width:1;"/><path d="M1150.032,116.0875 Q1149.4539,116.3844 1148.8133,116.525 Q1148.1727,116.6812 1147.4695,116.6812 Q1144.9695,116.6812 1143.6414,115.0406 Q1142.3289,113.3844 1142.3289,110.2594 Q1142.3289,107.1344 1143.6414,105.4781 Q1144.9695,103.8219 1147.4695,103.8219 Q1148.1727,103.8219 1148.8133,103.9781 Q1149.4695,104.1344 1150.032,104.4312 L1150.032,107.15 Q1149.407,106.5719 1148.8133,106.3062 Q1148.2195,106.025 1147.5945,106.025 Q1146.2508,106.025 1145.5633,107.1031 Q1144.8758,108.1656 1144.8758,110.2594 Q1144.8758,112.3531 1145.5633,113.4312 Q1146.2508,114.4937 1147.5945,114.4937 Q1148.2195,114.4937 1148.8133,114.2281 Q1149.407,113.9469 1150.032,113.3687 L1150.032,116.0875 Z " fill="#000000"/><text fill="#000000" font-family="sans-serif" font-size="14" lengthAdjust="spacing" textLength="181.2686" x="1161.6685" y="115.2936">OptionalGonioAngleStarts</text><line style="stroke:#181818;stroke-width:0.5;" x1="1130.34" x2="1347.6603" y1="126.4469" y2="126.4469"/><text fill="#000000" font-family="sans-serif" font-size="14" lengthAdjust="spacing" textLength="207.3203" x="1135.34" y="143.442">float | None omega_start_deg</text><text fill="#000000" font-family="sans-serif" font-size="14" lengthAdjust="spacing" textLength="180.6875" x="1135.34" y="159.7389">float | None phi_start_deg</text><text fill="#000000" font-family="sans-serif" font-size="14" lengthAdjust="spacing" textLength="179.498" x="1135.34" y="176.0357">float | None chi_start_deg</text><text fill="#000000" font-family="sans-serif" font-size="14" lengthAdjust="spacing" textLength="202.0771" x="1135.34" y="192.3326">float | None kappa_start_deg</text><line style="stroke:#181818;stroke-width:0.5;" x1="1130.34" x2="1347.6603" y1="199.6344" y2="199.6344"/></g><!--class XyzStarts--><g id="elem_XyzStarts"><rect codeLine="14" fill="#F1F1F1" height="96.8906" id="XyzStarts" rx="2.5" ry="2.5" style="stroke:#181818;stroke-width:0.5;" width="125.3057" x="30.35" y="102.5969"/><ellipse cx="57.3141" cy="118.5969" fill="#ADD1B2" rx="11" ry="11" style="stroke:#181818;stroke-width:1;"/><path d="M60.2829,124.2375 Q59.7047,124.5344 59.0641,124.675 Q58.4235,124.8312 57.7204,124.8312 Q55.2204,124.8312 53.8922,123.1906 Q52.5797,121.5344 52.5797,118.4094 Q52.5797,115.2844 53.8922,113.6281 Q55.2204,111.9719 57.7204,111.9719 Q58.4235,111.9719 59.0641,112.1281 Q59.7204,112.2844 60.2829,112.5812 L60.2829,115.3 Q59.6579,114.7219 59.0641,114.4562 Q58.4704,114.175 57.8454,114.175 Q56.5016,114.175 55.8141,115.2531 Q55.1266,116.3156 55.1266,118.4094 Q55.1266,120.5031 55.8141,121.5812 Q56.5016,122.6437 57.8454,122.6437 Q58.4704,122.6437 59.0641,122.3781 Q59.6579,122.0969 60.2829,121.5187 L60.2829,124.2375 Z " fill="#000000"/><text fill="#000000" font-family="sans-serif" font-size="14" lengthAdjust="spacing" textLength="66.7188" x="73.9728" y="123.4436">XyzStarts</text><line style="stroke:#181818;stroke-width:0.5;" x1="31.35" x2="154.6557" y1="134.5969" y2="134.5969"/><text fill="#000000" font-family="sans-serif" font-size="14" lengthAdjust="spacing" textLength="113.3057" x="36.35" y="151.592">float x_start_um</text><text fill="#000000" font-family="sans-serif" font-size="14" lengthAdjust="spacing" textLength="113.3057" x="36.35" y="167.8889">float y_start_um</text><text fill="#000000" font-family="sans-serif" font-size="14" lengthAdjust="spacing" textLength="112.3691" x="36.35" y="184.1857">float z_start_um</text><line style="stroke:#181818;stroke-width:0.5;" x1="31.35" x2="154.6557" y1="191.4875" y2="191.4875"/></g><!--class WithVisit--><g id="elem_WithVisit"><rect codeLine="19" fill="#F1F1F1" height="129.4844" id="WithVisit" rx="2.5" ry="2.5" style="stroke:#181818;stroke-width:0.5;" width="271.7861" x="1791.11" y="86.2969"/><ellipse cx="1891.6359" cy="102.2969" fill="#ADD1B2" rx="11" ry="11" style="stroke:#181818;stroke-width:1;"/><path d="M1894.6046,107.9375 Q1894.0265,108.2344 1893.3859,108.375 Q1892.7453,108.5313 1892.0421,108.5313 Q1889.5421,108.5313 1888.214,106.8906 Q1886.9015,105.2344 1886.9015,102.1094 Q1886.9015,98.9844 1888.214,97.3281 Q1889.5421,95.6719 1892.0421,95.6719 Q1892.7453,95.6719 1893.3859,95.8281 Q1894.0421,95.9844 1894.6046,96.2813 L1894.6046,99 Q1893.9796,98.4219 1893.3859,98.1563 Q1892.7921,97.875 1892.1671,97.875 Q1890.8234,97.875 1890.1359,98.9531 Q1889.4484,100.0156 1889.4484,102.1094 Q1889.4484,104.2031 1890.1359,105.2813 Q1890.8234,106.3438 1892.1671,106.3438 Q1892.7921,106.3438 1893.3859,106.0781 Q1893.9796,105.7969 1894.6046,105.2188 L1894.6046,107.9375 Z " fill="#000000"/><text fill="#000000" font-family="sans-serif" font-size="14" lengthAdjust="spacing" textLength="62.2344" x="1912.1359" y="107.1436">WithVisit</text><line style="stroke:#181818;stroke-width:0.5;" x1="1792.11" x2="2061.8961" y1="118.2969" y2="118.2969"/><text fill="#000000" font-family="sans-serif" font-size="14" lengthAdjust="spacing" textLength="87.9717" x="1797.11" y="135.292">str beamline</text><text fill="#000000" font-family="sans-serif" font-size="14" lengthAdjust="spacing" textLength="51.8369" x="1797.11" y="151.5889">str visit</text><text fill="#000000" font-family="sans-serif" font-size="14" lengthAdjust="spacing" textLength="259.7861" x="1797.11" y="167.8857">str det_dist_to_beam_converter_path</text><text fill="#000000" font-family="sans-serif" font-size="14" lengthAdjust="spacing" textLength="131.5918" x="1797.11" y="184.1826">str insertion_prefix</text><text fill="#000000" font-family="sans-serif" font-size="14" lengthAdjust="spacing" textLength="245.752" x="1797.11" y="200.4795">float | None detector_distance_mm</text><line style="stroke:#181818;stroke-width:0.5;" x1="1792.11" x2="2061.8961" y1="207.7813" y2="207.7813"/></g><!--class WithSnapshot--><g id="elem_WithSnapshot"><rect codeLine="26" fill="#F1F1F1" height="80.5938" id="WithSnapshot" rx="2.5" ry="2.5" style="stroke:#181818;stroke-width:0.5;" width="289.3477" x="460.33" y="110.7469"/><ellipse cx="551.9828" cy="126.7469" fill="#ADD1B2" rx="11" ry="11" style="stroke:#181818;stroke-width:1;"/><path d="M554.9516,132.3875 Q554.3735,132.6844 553.7328,132.825 Q553.0922,132.9813 552.3891,132.9813 Q549.8891,132.9813 548.561,131.3406 Q547.2485,129.6844 547.2485,126.5594 Q547.2485,123.4344 548.561,121.7781 Q549.8891,120.1219 552.3891,120.1219 Q553.0922,120.1219 553.7328,120.2781 Q554.3891,120.4344 554.9516,120.7313 L554.9516,123.45 Q554.3266,122.8719 553.7328,122.6063 Q553.1391,122.325 552.5141,122.325 Q551.1703,122.325 550.4828,123.4031 Q549.7953,124.4656 549.7953,126.5594 Q549.7953,128.6531 550.4828,129.7313 Q551.1703,130.7938 552.5141,130.7938 Q553.1391,130.7938 553.7328,130.5281 Q554.3266,130.2469 554.9516,129.6688 L554.9516,132.3875 Z " fill="#000000"/><text fill="#000000" font-family="sans-serif" font-size="14" lengthAdjust="spacing" textLength="97.542" x="572.4828" y="131.5936">WithSnapshot</text><line style="stroke:#181818;stroke-width:0.5;" x1="461.33" x2="748.6777" y1="142.7469" y2="142.7469"/><text fill="#000000" font-family="sans-serif" font-size="14" lengthAdjust="spacing" textLength="169.627" x="466.33" y="159.742">Path snapshot_directory</text><text fill="#000000" font-family="sans-serif" font-size="14" lengthAdjust="spacing" textLength="277.3477" x="466.33" y="176.0389">list[float] | None snapshot_omegas_deg</text><line style="stroke:#181818;stroke-width:0.5;" x1="461.33" x2="748.6777" y1="183.3406" y2="183.3406"/></g><!--class WithScan--><g id="elem_WithScan"><rect codeLine="30" fill="#F1F1F1" height="48" id="WithScan" rx="2.5" ry="2.5" style="stroke:#181818;stroke-width:0.5;" width="98.1309" x="995.93" y="127.0469"/><ellipse cx="1010.93" cy="143.0469" fill="#ADD1B2" rx="11" ry="11" style="stroke:#181818;stroke-width:1;"/><path d="M1013.8988,148.6875 Q1013.3206,148.9844 1012.68,149.125 Q1012.0394,149.2813 1011.3363,149.2813 Q1008.8363,149.2813 1007.5081,147.6406 Q1006.1956,145.9844 1006.1956,142.8594 Q1006.1956,139.7344 1007.5081,138.0781 Q1008.8363,136.4219 1011.3363,136.4219 Q1012.0394,136.4219 1012.68,136.5781 Q1013.3363,136.7344 1013.8988,137.0313 L1013.8988,139.75 Q1013.2738,139.1719 1012.68,138.9063 Q1012.0863,138.625 1011.4613,138.625 Q1010.1175,138.625 1009.43,139.7031 Q1008.7425,140.7656 1008.7425,142.8594 Q1008.7425,144.9531 1009.43,146.0313 Q1010.1175,147.0938 1011.4613,147.0938 Q1012.0863,147.0938 1012.68,146.8281 Q1013.2738,146.5469 1013.8988,145.9688 L1013.8988,148.6875 Z " fill="#000000"/><text fill="#000000" font-family="sans-serif" font-size="14" lengthAdjust="spacing" textLength="66.1309" x="1024.93" y="147.8936">WithScan</text><line style="stroke:#181818;stroke-width:0.5;" x1="996.93" x2="1093.0609" y1="159.0469" y2="159.0469"/><line style="stroke:#181818;stroke-width:0.5;" x1="996.93" x2="1093.0609" y1="167.0469" y2="167.0469"/></g><!--class WithOptionalEnergyChange--><g id="elem_WithOptionalEnergyChange"><rect codeLine="32" fill="#F1F1F1" height="64.2969" id="WithOptionalEnergyChange" rx="2.5" ry="2.5" style="stroke:#181818;stroke-width:0.5;" width="235.4463" x="190.28" y="118.8969"/><ellipse cx="209.4645" cy="134.8969" fill="#ADD1B2" rx="11" ry="11" style="stroke:#181818;stroke-width:1;"/><path d="M212.4332,140.5375 Q211.8551,140.8344 211.2145,140.975 Q210.5738,141.1312 209.8707,141.1312 Q207.3707,141.1312 206.0426,139.4906 Q204.7301,137.8344 204.7301,134.7094 Q204.7301,131.5844 206.0426,129.9281 Q207.3707,128.2719 209.8707,128.2719 Q210.5738,128.2719 211.2145,128.4281 Q211.8707,128.5844 212.4332,128.8812 L212.4332,131.6 Q211.8082,131.0219 211.2145,130.7562 Q210.6207,130.475 209.9957,130.475 Q208.652,130.475 207.9645,131.5531 Q207.277,132.6156 207.277,134.7094 Q207.277,136.8031 207.9645,137.8812 Q208.652,138.9437 209.9957,138.9437 Q210.6207,138.9437 211.2145,138.6781 Q211.8082,138.3969 212.4332,137.8187 L212.4332,140.5375 Z " fill="#000000"/><text fill="#000000" font-family="sans-serif" font-size="14" lengthAdjust="spacing" textLength="194.1475" x="224.3944" y="139.7436">WithOptionalEnergyChange</text><line style="stroke:#181818;stroke-width:0.5;" x1="191.28" x2="424.7263" y1="150.8969" y2="150.8969"/><text fill="#000000" font-family="sans-serif" font-size="14" lengthAdjust="spacing" textLength="223.4463" x="196.28" y="167.892">float | None demand_energy_ev</text><line style="stroke:#181818;stroke-width:0.5;" x1="191.28" x2="424.7263" y1="175.1937" y2="175.1937"/></g><!--class WithSample--><g id="elem_WithSample"><rect codeLine="35" fill="#F1F1F1" height="96.8906" id="WithSample" rx="2.5" ry="2.5" style="stroke:#181818;stroke-width:0.5;" width="176.3086" x="784.85" y="102.5969"/><ellipse cx="826.7243" cy="118.5969" fill="#ADD1B2" rx="11" ry="11" style="stroke:#181818;stroke-width:1;"/><path d="M829.6931,124.2375 Q829.1149,124.5344 828.4743,124.675 Q827.8337,124.8312 827.1306,124.8312 Q824.6306,124.8312 823.3024,123.1906 Q821.9899,121.5344 821.9899,118.4094 Q821.9899,115.2844 823.3024,113.6281 Q824.6306,111.9719 827.1306,111.9719 Q827.8337,111.9719 828.4743,112.1281 Q829.1306,112.2844 829.6931,112.5812 L829.6931,115.3 Q829.0681,114.7219 828.4743,114.4562 Q827.8806,114.175 827.2556,114.175 Q825.9118,114.175 825.2243,115.2531 Q824.5368,116.3156 824.5368,118.4094 Q824.5368,120.5031 825.2243,121.5812 Q825.9118,122.6437 827.2556,122.6437 Q827.8806,122.6437 828.4743,122.3781 Q829.0681,122.0969 829.6931,121.5187 L829.6931,124.2375 Z " fill="#000000"/><text fill="#000000" font-family="sans-serif" font-size="14" lengthAdjust="spacing" textLength="84.5879" x="846.6964" y="123.4436">WithSample</text><line style="stroke:#181818;stroke-width:0.5;" x1="785.85" x2="960.1586" y1="134.5969" y2="134.5969"/><text fill="#000000" font-family="sans-serif" font-size="14" lengthAdjust="spacing" textLength="93.3789" x="790.85" y="151.592">int sample_id</text><text fill="#000000" font-family="sans-serif" font-size="14" lengthAdjust="spacing" textLength="164.3086" x="790.85" y="167.8889">int | None sample_puck</text><text fill="#000000" font-family="sans-serif" font-size="14" lengthAdjust="spacing" textLength="152.3936" x="790.85" y="184.1857">int | None sample_pin</text><line style="stroke:#181818;stroke-width:0.5;" x1="785.85" x2="960.1586" y1="191.4875" y2="191.4875"/></g><!--class SpecifiedGrid--><g id="elem_SpecifiedGrid"><rect codeLine="40" fill="#F1F1F1" height="48" id="SpecifiedGrid" rx="2.5" ry="2.5" style="stroke:#181818;stroke-width:0.5;" width="125.6729" x="982.16" y="357.2669"/><ellipse cx="997.16" cy="373.2669" fill="#ADD1B2" rx="11" ry="11" style="stroke:#181818;stroke-width:1;"/><path d="M1000.1288,378.9075 Q999.5506,379.2044 998.91,379.345 Q998.2694,379.5012 997.5663,379.5012 Q995.0663,379.5012 993.7381,377.8606 Q992.4256,376.2044 992.4256,373.0794 Q992.4256,369.9544 993.7381,368.2981 Q995.0663,366.6419 997.5663,366.6419 Q998.2694,366.6419 998.91,366.7981 Q999.5663,366.9544 1000.1288,367.2512 L1000.1288,369.97 Q999.5038,369.3919 998.91,369.1262 Q998.3163,368.845 997.6913,368.845 Q996.3475,368.845 995.66,369.9231 Q994.9725,370.9856 994.9725,373.0794 Q994.9725,375.1731 995.66,376.2512 Q996.3475,377.3137 997.6913,377.3137 Q998.3163,377.3137 998.91,377.0481 Q999.5038,376.7669 1000.1288,376.1887 L1000.1288,378.9075 Z " fill="#000000"/><text fill="#000000" font-family="sans-serif" font-size="14" lengthAdjust="spacing" textLength="93.6729" x="1011.16" y="378.1136">SpecifiedGrid</text><line style="stroke:#181818;stroke-width:0.5;" x1="983.16" x2="1106.8329" y1="389.2669" y2="389.2669"/><line style="stroke:#181818;stroke-width:0.5;" x1="983.16" x2="1106.8329" y1="397.2669" y2="397.2669"/></g><!--class WithPandaGridScan--><g id="elem_WithPandaGridScan"><rect codeLine="42" fill="#F1F1F1" height="64.2969" id="WithPandaGridScan" rx="2.5" ry="2.5" style="stroke:#181818;stroke-width:0.5;" width="240.5664" x="1383.72" y="118.8969"/><ellipse cx="1430.3172" cy="134.8969" fill="#ADD1B2" rx="11" ry="11" style="stroke:#181818;stroke-width:1;"/><path d="M1433.2859,140.5375 Q1432.7078,140.8344 1432.0672,140.975 Q1431.4265,141.1312 1430.7234,141.1312 Q1428.2234,141.1312 1426.8953,139.4906 Q1425.5828,137.8344 1425.5828,134.7094 Q1425.5828,131.5844 1426.8953,129.9281 Q1428.2234,128.2719 1430.7234,128.2719 Q1431.4265,128.2719 1432.0672,128.4281 Q1432.7234,128.5844 1433.2859,128.8812 L1433.2859,131.6 Q1432.6609,131.0219 1432.0672,130.7562 Q1431.4734,130.475 1430.8484,130.475 Q1429.5047,130.475 1428.8172,131.5531 Q1428.1297,132.6156 1428.1297,134.7094 Q1428.1297,136.8031 1428.8172,137.8812 Q1429.5047,138.9437 1430.8484,138.9437 Q1431.4734,138.9437 1432.0672,138.6781 Q1432.6609,138.3969 1433.2859,137.8187 L1433.2859,140.5375 Z " fill="#000000"/><text fill="#000000" font-family="sans-serif" font-size="14" lengthAdjust="spacing" textLength="138.8721" x="1450.8172" y="139.7436">WithPandaGridScan</text><line style="stroke:#181818;stroke-width:0.5;" x1="1384.72" x2="1623.2864" y1="150.8969" y2="150.8969"/><text fill="#000000" font-family="sans-serif" font-size="14" lengthAdjust="spacing" textLength="228.5664" x="1389.72" y="167.892">float panda_runup_distance_mm</text><line style="stroke:#181818;stroke-width:0.5;" x1="1384.72" x2="1623.2864" y1="175.1937" y2="175.1937"/></g><!--class SplitScan--><g id="elem_SplitScan"><rect codeLine="45" fill="#F1F1F1" height="48" id="SplitScan" rx="2.5" ry="2.5" style="stroke:#181818;stroke-width:0.5;" width="97.0781" x="1659.46" y="127.0469"/><ellipse cx="1674.46" cy="143.0469" fill="#ADD1B2" rx="11" ry="11" style="stroke:#181818;stroke-width:1;"/><path d="M1677.4288,148.6875 Q1676.8506,148.9844 1676.21,149.125 Q1675.5694,149.2813 1674.8663,149.2813 Q1672.3663,149.2813 1671.0381,147.6406 Q1669.7256,145.9844 1669.7256,142.8594 Q1669.7256,139.7344 1671.0381,138.0781 Q1672.3663,136.4219 1674.8663,136.4219 Q1675.5694,136.4219 1676.21,136.5781 Q1676.8663,136.7344 1677.4288,137.0313 L1677.4288,139.75 Q1676.8038,139.1719 1676.21,138.9063 Q1675.6163,138.625 1674.9913,138.625 Q1673.6475,138.625 1672.96,139.7031 Q1672.2725,140.7656 1672.2725,142.8594 Q1672.2725,144.9531 1672.96,146.0313 Q1673.6475,147.0938 1674.9913,147.0938 Q1675.6163,147.0938 1676.21,146.8281 Q1676.8038,146.5469 1677.4288,145.9688 L1677.4288,148.6875 Z " fill="#000000"/><text fill="#000000" font-family="sans-serif" font-size="14" lengthAdjust="spacing" textLength="65.0781" x="1688.46" y="147.8936">SplitScan</text><line style="stroke:#181818;stroke-width:0.5;" x1="1660.46" x2="1755.5381" y1="159.0469" y2="159.0469"/><line style="stroke:#181818;stroke-width:0.5;" x1="1660.46" x2="1755.5381" y1="167.0469" y2="167.0469"/></g><!--class OptionalXyzStarts--><g id="elem_OptionalXyzStarts"><rect codeLine="47" fill="#F1F1F1" height="96.8906" id="OptionalXyzStarts" rx="2.5" ry="2.5" style="stroke:#181818;stroke-width:0.5;" width="175.4473" x="2439.28" y="102.5969"/><ellipse cx="2462.1713" cy="118.5969" fill="#ADD1B2" rx="11" ry="11" style="stroke:#181818;stroke-width:1;"/><path d="M2465.14,124.2375 Q2464.5619,124.5344 2463.9213,124.675 Q2463.2806,124.8312 2462.5775,124.8312 Q2460.0775,124.8312 2458.7494,123.1906 Q2457.4369,121.5344 2457.4369,118.4094 Q2457.4369,115.2844 2458.7494,113.6281 Q2460.0775,111.9719 2462.5775,111.9719 Q2463.2806,111.9719 2463.9213,112.1281 Q2464.5775,112.2844 2465.14,112.5812 L2465.14,115.3 Q2464.515,114.7219 2463.9213,114.4562 Q2463.3275,114.175 2462.7025,114.175 Q2461.3588,114.175 2460.6713,115.2531 Q2459.9838,116.3156 2459.9838,118.4094 Q2459.9838,120.5031 2460.6713,121.5812 Q2461.3588,122.6437 2462.7025,122.6437 Q2463.3275,122.6437 2463.9213,122.3781 Q2464.515,122.0969 2465.14,121.5187 L2465.14,124.2375 Z " fill="#000000"/><text fill="#000000" font-family="sans-serif" font-size="14" lengthAdjust="spacing" textLength="125.9111" x="2477.9249" y="123.4436">OptionalXyzStarts</text><line style="stroke:#181818;stroke-width:0.5;" x1="2440.28" x2="2613.7273" y1="134.5969" y2="134.5969"/><text fill="#000000" font-family="sans-serif" font-size="14" lengthAdjust="spacing" textLength="163.4473" x="2445.28" y="151.592">float | None x_start_um</text><text fill="#000000" font-family="sans-serif" font-size="14" lengthAdjust="spacing" textLength="163.4473" x="2445.28" y="167.8889">float | None y_start_um</text><text fill="#000000" font-family="sans-serif" font-size="14" lengthAdjust="spacing" textLength="162.5107" x="2445.28" y="184.1857">float | None z_start_um</text><line style="stroke:#181818;stroke-width:0.5;" x1="2440.28" x2="2613.7273" y1="191.4875" y2="191.4875"/></g><!--class WithCentreSelection--><g id="elem_WithCentreSelection"><rect codeLine="52" fill="#F1F1F1" height="64.2969" id="WithCentreSelection" rx="2.5" ry="2.5" style="stroke:#181818;stroke-width:0.5;" width="306.7861" x="2097.61" y="118.8969"/><ellipse cx="2174.8869" cy="134.8969" fill="#ADD1B2" rx="11" ry="11" style="stroke:#181818;stroke-width:1;"/><path d="M2177.8556,140.5375 Q2177.2775,140.8344 2176.6369,140.975 Q2175.9962,141.1312 2175.2931,141.1312 Q2172.7931,141.1312 2171.465,139.4906 Q2170.1525,137.8344 2170.1525,134.7094 Q2170.1525,131.5844 2171.465,129.9281 Q2172.7931,128.2719 2175.2931,128.2719 Q2175.9962,128.2719 2176.6369,128.4281 Q2177.2931,128.5844 2177.8556,128.8812 L2177.8556,131.6 Q2177.2306,131.0219 2176.6369,130.7562 Q2176.0431,130.475 2175.4181,130.475 Q2174.0744,130.475 2173.3869,131.5531 Q2172.6994,132.6156 2172.6994,134.7094 Q2172.6994,136.8031 2173.3869,137.8812 Q2174.0744,138.9437 2175.4181,138.9437 Q2176.0431,138.9437 2176.6369,138.6781 Q2177.2306,138.3969 2177.8556,137.8187 L2177.8556,140.5375 Z " fill="#000000"/><text fill="#000000" font-family="sans-serif" font-size="14" lengthAdjust="spacing" textLength="143.7324" x="2195.3869" y="139.7436">WithCentreSelection</text><line style="stroke:#181818;stroke-width:0.5;" x1="2098.61" x2="2403.3961" y1="150.8969" y2="150.8969"/><text fill="#000000" font-family="sans-serif" font-size="14" lengthAdjust="spacing" textLength="294.7861" x="2103.61" y="167.892">TopNByMaxCountSelection select_centres</text><line style="stroke:#181818;stroke-width:0.5;" x1="2098.61" x2="2403.3961" y1="175.1937" y2="175.1937"/></g><!--class SpecifiedThreeDGridScan--><g id="elem_SpecifiedThreeDGridScan"><rect codeLine="57" fill="#F1F1F1" height="227.2656" id="SpecifiedThreeDGridScan" rx="2.5" ry="2.5" style="stroke:#181818;stroke-width:0.5;" width="210.8965" x="2638.55" y="860.5369"/><ellipse cx="2653.55" cy="876.5369" fill="#ADD1B2" rx="11" ry="11" style="stroke:#181818;stroke-width:1;"/><path d="M2656.5188,882.1775 Q2655.9406,882.4744 2655.3,882.615 Q2654.6594,882.7713 2653.9563,882.7713 Q2651.4563,882.7713 2650.1281,881.1306 Q2648.8156,879.4744 2648.8156,876.3494 Q2648.8156,873.2244 2650.1281,871.5681 Q2651.4563,869.9119 2653.9563,869.9119 Q2654.6594,869.9119 2655.3,870.0681 Q2655.9563,870.2244 2656.5188,870.5213 L2656.5188,873.24 Q2655.8938,872.6619 2655.3,872.3963 Q2654.7063,872.115 2654.0813,872.115 Q2652.7375,872.115 2652.05,873.1931 Q2651.3625,874.2556 2651.3625,876.3494 Q2651.3625,878.4431 2652.05,879.5213 Q2652.7375,880.5838 2654.0813,880.5838 Q2654.7063,880.5838 2655.3,880.3181 Q2655.8938,880.0369 2656.5188,879.4588 L2656.5188,882.1775 Z " fill="#000000"/><text fill="#000000" font-family="sans-serif" font-size="14" lengthAdjust="spacing" textLength="178.8965" x="2667.55" y="881.3836">SpecifiedThreeDGridScan</text><line style="stroke:#181818;stroke-width:0.5;" x1="2639.55" x2="2848.4465" y1="892.5369" y2="892.5369"/><text fill="#000000" font-family="sans-serif" font-size="14" lengthAdjust="spacing" textLength="160.8975" x="2644.55" y="909.532">float grid1_omega_deg</text><text fill="#000000" font-family="sans-serif" font-size="14" lengthAdjust="spacing" textLength="160.8975" x="2644.55" y="925.8289">float grid2_omega_deg</text><text fill="#000000" font-family="sans-serif" font-size="14" lengthAdjust="spacing" textLength="145.127" x="2644.55" y="942.1257">float x_step_size_um</text><text fill="#000000" font-family="sans-serif" font-size="14" lengthAdjust="spacing" textLength="145.127" x="2644.55" y="958.4226">float y_step_size_um</text><text fill="#000000" font-family="sans-serif" font-size="14" lengthAdjust="spacing" textLength="144.1904" x="2644.55" y="974.7195">float z_step_size_um</text><text fill="#000000" font-family="sans-serif" font-size="14" lengthAdjust="spacing" textLength="122.2129" x="2644.55" y="991.0164">float y2_start_um</text><text fill="#000000" font-family="sans-serif" font-size="14" lengthAdjust="spacing" textLength="121.2764" x="2644.55" y="1007.3132">float z2_start_um</text><text fill="#000000" font-family="sans-serif" font-size="14" lengthAdjust="spacing" textLength="75.5645" x="2644.55" y="1023.6101">int x_steps</text><text fill="#000000" font-family="sans-serif" font-size="14" lengthAdjust="spacing" textLength="75.5645" x="2644.55" y="1039.907">int y_steps</text><text fill="#000000" font-family="sans-serif" font-size="14" lengthAdjust="spacing" textLength="74.6279" x="2644.55" y="1056.2039">int z_steps</text><text fill="#000000" font-family="sans-serif" font-size="14" lengthAdjust="spacing" textLength="154.4102" x="2644.55" y="1072.5007">bool _set_stub_offsets</text><line style="stroke:#181818;stroke-width:0.5;" x1="2639.55" x2="2848.4465" y1="1079.8025" y2="1079.8025"/></g><!--class MxBlueskyParameters--><g id="elem_MxBlueskyParameters"><rect codeLine="70" fill="#F1F1F1" height="64.2969" id="MxBlueskyParameters" rx="2.5" ry="2.5" style="stroke:#181818;stroke-width:0.5;" width="317.4639" x="2651.27" y="118.8969"/><ellipse cx="2727.8564" cy="134.8969" fill="#ADD1B2" rx="11" ry="11" style="stroke:#181818;stroke-width:1;"/><path d="M2730.8252,140.5375 Q2730.2471,140.8344 2729.6064,140.975 Q2728.9658,141.1312 2728.2627,141.1312 Q2725.7627,141.1312 2724.4346,139.4906 Q2723.1221,137.8344 2723.1221,134.7094 Q2723.1221,131.5844 2724.4346,129.9281 Q2725.7627,128.2719 2728.2627,128.2719 Q2728.9658,128.2719 2729.6064,128.4281 Q2730.2627,128.5844 2730.8252,128.8812 L2730.8252,131.6 Q2730.2002,131.0219 2729.6064,130.7562 Q2729.0127,130.475 2728.3877,130.475 Q2727.0439,130.475 2726.3564,131.5531 Q2725.6689,132.6156 2725.6689,134.7094 Q2725.6689,136.8031 2726.3564,137.8812 Q2727.0439,138.9437 2728.3877,138.9437 Q2729.0127,138.9437 2729.6064,138.6781 Q2730.2002,138.3969 2730.8252,137.8187 L2730.8252,140.5375 Z " fill="#000000"/><text fill="#000000" font-family="sans-serif" font-size="14" lengthAdjust="spacing" textLength="155.791" x="2748.3564" y="139.7436">MxBlueskyParameters</text><line style="stroke:#181818;stroke-width:0.5;" x1="2652.27" x2="2967.7339" y1="150.8969" y2="150.8969"/><text fill="#000000" font-family="sans-serif" font-size="14" lengthAdjust="spacing" textLength="305.4639" x="2657.27" y="167.892">SemanticVersion parameter_model_version</text><line style="stroke:#181818;stroke-width:0.5;" x1="2652.27" x2="2967.7339" y1="175.1937" y2="175.1937"/></g><!--class DiffractionExperiment--><g id="elem_DiffractionExperiment"><rect codeLine="73" fill="#F1F1F1" height="210.9688" id="DiffractionExperiment" rx="2.5" ry="2.5" style="stroke:#181818;stroke-width:0.5;" width="332.332" x="2638.83" y="275.7869"/><ellipse cx="2723.6127" cy="291.7869" fill="#ADD1B2" rx="11" ry="11" style="stroke:#181818;stroke-width:1;"/><path d="M2726.5815,297.4275 Q2726.0033,297.7244 2725.3627,297.865 Q2724.7221,298.0213 2724.019,298.0213 Q2721.519,298.0213 2720.1908,296.3806 Q2718.8783,294.7244 2718.8783,291.5994 Q2718.8783,288.4744 2720.1908,286.8181 Q2721.519,285.1619 2724.019,285.1619 Q2724.7221,285.1619 2725.3627,285.3181 Q2726.019,285.4744 2726.5815,285.7713 L2726.5815,288.49 Q2725.9565,287.9119 2725.3627,287.6463 Q2724.769,287.365 2724.144,287.365 Q2722.8002,287.365 2722.1127,288.4431 Q2721.4252,289.5056 2721.4252,291.5994 Q2721.4252,293.6931 2722.1127,294.7713 Q2722.8002,295.8338 2724.144,295.8338 Q2724.769,295.8338 2725.3627,295.5681 Q2725.9565,295.2869 2726.5815,294.7088 L2726.5815,297.4275 Z " fill="#000000"/><text fill="#000000" font-family="sans-serif" font-size="14" lengthAdjust="spacing" textLength="154.2666" x="2744.1127" y="296.6336">DiffractionExperiment</text><line style="stroke:#181818;stroke-width:0.5;" x1="2639.83" x2="2970.162" y1="307.7869" y2="307.7869"/><text fill="#000000" font-family="sans-serif" font-size="14" lengthAdjust="spacing" textLength="91.0137" x="2644.83" y="324.782">str file_name</text><text fill="#000000" font-family="sans-serif" font-size="14" lengthAdjust="spacing" textLength="153.7129" x="2644.83" y="341.0789">float exposure_time_s</text><text fill="#000000" font-family="sans-serif" font-size="14" lengthAdjust="spacing" textLength="89.5029" x="2644.83" y="357.3757">str comment</text><text fill="#000000" font-family="sans-serif" font-size="14" lengthAdjust="spacing" textLength="186.915" x="2644.83" y="373.6726">TriggerMode trigger_mode</text><text fill="#000000" font-family="sans-serif" font-size="14" lengthAdjust="spacing" textLength="157.9854" x="2644.83" y="389.9695">int | None run_number</text><text fill="#000000" font-family="sans-serif" font-size="14" lengthAdjust="spacing" textLength="282.3516" x="2644.83" y="406.2664">ApertureValue | None selected_aperture</text><text fill="#000000" font-family="sans-serif" font-size="14" lengthAdjust="spacing" textLength="159.2979" x="2644.83" y="422.5632">float transmission_frac</text><text fill="#000000" font-family="sans-serif" font-size="14" lengthAdjust="spacing" textLength="320.332" x="2644.83" y="438.8601">IspybExperimentType ispyb_experiment_type</text><text fill="#000000" font-family="sans-serif" font-size="14" lengthAdjust="spacing" textLength="146.1113" x="2644.83" y="455.157">str storage_directory</text><text fill="#000000" font-family="sans-serif" font-size="14" lengthAdjust="spacing" textLength="131.0518" x="2644.83" y="471.4539">bool use_roi_mode</text><line style="stroke:#181818;stroke-width:0.5;" x1="2639.83" x2="2970.162" y1="478.7556" y2="478.7556"/></g><!--class GridCommon--><g id="elem_GridCommon"><rect codeLine="85" fill="#F1F1F1" height="145.7813" id="GridCommon" rx="2.5" ry="2.5" style="stroke:#181818;stroke-width:0.5;" width="332.332" x="2638.83" y="654.7569"/><ellipse cx="2754.5282" cy="670.7569" fill="#ADD1B2" rx="11" ry="11" style="stroke:#181818;stroke-width:1;"/><path d="M2757.497,676.3975 Q2756.9189,676.6944 2756.2782,676.835 Q2755.6376,676.9912 2754.9345,676.9912 Q2752.4345,676.9912 2751.1064,675.3506 Q2749.7939,673.6944 2749.7939,670.5694 Q2749.7939,667.4444 2751.1064,665.7881 Q2752.4345,664.1319 2754.9345,664.1319 Q2755.6376,664.1319 2756.2782,664.2881 Q2756.9345,664.4444 2757.497,664.7412 L2757.497,667.46 Q2756.872,666.8819 2756.2782,666.6162 Q2755.6845,666.335 2755.0595,666.335 Q2753.7157,666.335 2753.0282,667.4131 Q2752.3407,668.4756 2752.3407,670.5694 Q2752.3407,672.6631 2753.0282,673.7412 Q2753.7157,674.8037 2755.0595,674.8037 Q2755.6845,674.8037 2756.2782,674.5381 Q2756.872,674.2569 2757.497,673.6787 L2757.497,676.3975 Z " fill="#000000"/><text fill="#000000" font-family="sans-serif" font-size="14" lengthAdjust="spacing" textLength="92.4355" x="2775.0282" y="675.6036">GridCommon</text><line style="stroke:#181818;stroke-width:0.5;" x1="2639.83" x2="2970.162" y1="686.7569" y2="686.7569"/><text fill="#000000" font-family="sans-serif" font-size="14" lengthAdjust="spacing" textLength="125.2959" x="2644.83" y="703.752">float box_size_um</text><text fill="#000000" font-family="sans-serif" font-size="14" lengthAdjust="spacing" textLength="138.4209" x="2644.83" y="720.0489">float grid_width_um</text><text fill="#000000" font-family="sans-serif" font-size="14" lengthAdjust="spacing" textLength="153.7129" x="2644.83" y="736.3457">float exposure_time_s</text><text fill="#000000" font-family="sans-serif" font-size="14" lengthAdjust="spacing" textLength="320.332" x="2644.83" y="752.6426">IspybExperimentType ispyb_experiment_type</text><text fill="#000000" font-family="sans-serif" font-size="14" lengthAdjust="spacing" textLength="282.3516" x="2644.83" y="768.9395">ApertureValue | None selected_aperture</text><text fill="#000000" font-family="sans-serif" font-size="14" lengthAdjust="spacing" textLength="130.498" x="2644.83" y="785.2364">float tip_offset_um</text><line style="stroke:#181818;stroke-width:0.5;" x1="2639.83" x2="2970.162" y1="792.5381" y2="792.5381"/></g><!--class DiffractionExperimentWithSample--><g id="elem_DiffractionExperimentWithSample"><rect codeLine="93" fill="#F1F1F1" height="48" id="DiffractionExperimentWithSample" rx="2.5" ry="2.5" style="stroke:#181818;stroke-width:0.5;" width="270.8545" x="2669.57" y="546.7569"/><ellipse cx="2684.57" cy="562.7569" fill="#ADD1B2" rx="11" ry="11" style="stroke:#181818;stroke-width:1;"/><path d="M2687.5388,568.3975 Q2686.9606,568.6944 2686.32,568.835 Q2685.6794,568.9912 2684.9763,568.9912 Q2682.4763,568.9912 2681.1481,567.3506 Q2679.8356,565.6944 2679.8356,562.5694 Q2679.8356,559.4444 2681.1481,557.7881 Q2682.4763,556.1319 2684.9763,556.1319 Q2685.6794,556.1319 2686.32,556.2881 Q2686.9763,556.4444 2687.5388,556.7412 L2687.5388,559.46 Q2686.9138,558.8819 2686.32,558.6162 Q2685.7263,558.335 2685.1013,558.335 Q2683.7575,558.335 2683.07,559.4131 Q2682.3825,560.4756 2682.3825,562.5694 Q2682.3825,564.6631 2683.07,565.7412 Q2683.7575,566.8037 2685.1013,566.8037 Q2685.7263,566.8037 2686.32,566.5381 Q2686.9138,566.2569 2687.5388,565.6787 L2687.5388,568.3975 Z " fill="#000000"/><text fill="#000000" font-family="sans-serif" font-size="14" lengthAdjust="spacing" textLength="238.8545" x="2698.57" y="567.6036">DiffractionExperimentWithSample</text><line style="stroke:#181818;stroke-width:0.5;" x1="2670.57" x2="2939.4245" y1="578.7569" y2="578.7569"/><line style="stroke:#181818;stroke-width:0.5;" x1="2670.57" x2="2939.4245" y1="586.7569" y2="586.7569"/></g><!--class LoadCentreCollect--><g id="elem_LoadCentreCollect"><rect codeLine="98" fill="#F1F1F1" height="80.5938" id="LoadCentreCollect" rx="2.5" ry="2.5" style="stroke:#181818;stroke-width:0.5;" width="338.6211" x="4190.69" y="933.8669"/><ellipse cx="4291.315" cy="949.8669" fill="#ADD1B2" rx="11" ry="11" style="stroke:#181818;stroke-width:1;"/><path d="M4294.2838,955.5075 Q4293.7056,955.8044 4293.065,955.945 Q4292.4244,956.1012 4291.7213,956.1012 Q4289.2213,956.1012 4287.8931,954.4606 Q4286.5806,952.8044 4286.5806,949.6794 Q4286.5806,946.5544 4287.8931,944.8981 Q4289.2213,943.2419 4291.7213,943.2419 Q4292.4244,943.2419 4293.065,943.3981 Q4293.7213,943.5544 4294.2838,943.8512 L4294.2838,946.57 Q4293.6588,945.9919 4293.065,945.7262 Q4292.4713,945.445 4291.8463,945.445 Q4290.5025,945.445 4289.815,946.5231 Q4289.1275,947.5856 4289.1275,949.6794 Q4289.1275,951.7731 4289.815,952.8512 Q4290.5025,953.9137 4291.8463,953.9137 Q4292.4713,953.9137 4293.065,953.6481 Q4293.6588,953.3669 4294.2838,952.7887 L4294.2838,955.5075 Z " fill="#000000"/><text fill="#000000" font-family="sans-serif" font-size="14" lengthAdjust="spacing" textLength="128.8711" x="4311.815" y="954.7136">LoadCentreCollect</text><line style="stroke:#181818;stroke-width:0.5;" x1="4191.69" x2="4528.3111" y1="965.8669" y2="965.8669"/><text fill="#000000" font-family="sans-serif" font-size="14" lengthAdjust="spacing" textLength="326.6211" x="4196.69" y="982.862">RobotLoadThenCentre robot_load_then_centre</text><text fill="#000000" font-family="sans-serif" font-size="14" lengthAdjust="spacing" textLength="269.3154" x="4196.69" y="999.1589">MultiRotationScan multi_rotation_scan</text><line style="stroke:#181818;stroke-width:0.5;" x1="4191.69" x2="4528.3111" y1="1006.4606" y2="1006.4606"/></g><!--class GridCommonWithHyperionDetectorParams--><g id="elem_GridCommonWithHyperionDetectorParams"><rect codeLine="102" fill="#F1F1F1" height="48" id="GridCommonWithHyperionDetectorParams" rx="2.5" ry="2.5" style="stroke:#181818;stroke-width:0.5;" width="333.2188" x="3072.39" y="950.1669"/><ellipse cx="3087.39" cy="966.1669" fill="#ADD1B2" rx="11" ry="11" style="stroke:#181818;stroke-width:1;"/><path d="M3090.3588,971.8075 Q3089.7806,972.1044 3089.14,972.245 Q3088.4994,972.4012 3087.7963,972.4012 Q3085.2963,972.4012 3083.9681,970.7606 Q3082.6556,969.1044 3082.6556,965.9794 Q3082.6556,962.8544 3083.9681,961.1981 Q3085.2963,959.5419 3087.7963,959.5419 Q3088.4994,959.5419 3089.14,959.6981 Q3089.7963,959.8544 3090.3588,960.1512 L3090.3588,962.87 Q3089.7338,962.2919 3089.14,962.0262 Q3088.5463,961.745 3087.9213,961.745 Q3086.5775,961.745 3085.89,962.8231 Q3085.2025,963.8856 3085.2025,965.9794 Q3085.2025,968.0731 3085.89,969.1512 Q3086.5775,970.2137 3087.9213,970.2137 Q3088.5463,970.2137 3089.14,969.9481 Q3089.7338,969.6669 3090.3588,969.0887 L3090.3588,971.8075 Z " fill="#000000"/><text fill="#000000" font-family="sans-serif" font-size="14" lengthAdjust="spacing" textLength="301.2188" x="3101.39" y="971.0136">GridCommonWithHyperionDetectorParams</text><line style="stroke:#181818;stroke-width:0.5;" x1="3073.39" x2="3404.6088" y1="982.1669" y2="982.1669"/><line style="stroke:#181818;stroke-width:0.5;" x1="3073.39" x2="3404.6088" y1="990.1669" y2="990.1669"/></g><!--class GridScanWithEdgeDetect--><g id="elem_GridScanWithEdgeDetect"><rect codeLine="104" fill="#F1F1F1" height="48" id="GridScanWithEdgeDetect" rx="2.5" ry="2.5" style="stroke:#181818;stroke-width:0.5;" width="209.4268" x="3282.29" y="1155.9469"/><ellipse cx="3297.29" cy="1171.9469" fill="#ADD1B2" rx="11" ry="11" style="stroke:#181818;stroke-width:1;"/><path d="M3300.2588,1177.5875 Q3299.6806,1177.8844 3299.04,1178.025 Q3298.3994,1178.1812 3297.6963,1178.1812 Q3295.1963,1178.1812 3293.8681,1176.5406 Q3292.5556,1174.8844 3292.5556,1171.7594 Q3292.5556,1168.6344 3293.8681,1166.9781 Q3295.1963,1165.3219 3297.6963,1165.3219 Q3298.3994,1165.3219 3299.04,1165.4781 Q3299.6963,1165.6344 3300.2588,1165.9312 L3300.2588,1168.65 Q3299.6338,1168.0719 3299.04,1167.8062 Q3298.4463,1167.525 3297.8213,1167.525 Q3296.4775,1167.525 3295.79,1168.6031 Q3295.1025,1169.6656 3295.1025,1171.7594 Q3295.1025,1173.8531 3295.79,1174.9312 Q3296.4775,1175.9937 3297.8213,1175.9937 Q3298.4463,1175.9937 3299.04,1175.7281 Q3299.6338,1175.4469 3300.2588,1174.8687 L3300.2588,1177.5875 Z " fill="#000000"/><text fill="#000000" font-family="sans-serif" font-size="14" lengthAdjust="spacing" textLength="177.4268" x="3311.29" y="1176.7936">GridScanWithEdgeDetect</text><line style="stroke:#181818;stroke-width:0.5;" x1="3283.29" x2="3490.7168" y1="1187.9469" y2="1187.9469"/><line style="stroke:#181818;stroke-width:0.5;" x1="3283.29" x2="3490.7168" y1="1195.9469" y2="1195.9469"/></g><!--class PinTipCentreThenXrayCentre--><g id="elem_PinTipCentreThenXrayCentre"><rect codeLine="106" fill="#F1F1F1" height="64.2969" id="PinTipCentreThenXrayCentre" rx="2.5" ry="2.5" style="stroke:#181818;stroke-width:0.5;" width="235.8955" x="3527.05" y="1147.7969"/><ellipse cx="3542.05" cy="1163.7969" fill="#ADD1B2" rx="11" ry="11" style="stroke:#181818;stroke-width:1;"/><path d="M3545.0188,1169.4375 Q3544.4406,1169.7344 3543.8,1169.875 Q3543.1594,1170.0313 3542.4563,1170.0313 Q3539.9563,1170.0313 3538.6281,1168.3906 Q3537.3156,1166.7344 3537.3156,1163.6094 Q3537.3156,1160.4844 3538.6281,1158.8281 Q3539.9563,1157.1719 3542.4563,1157.1719 Q3543.1594,1157.1719 3543.8,1157.3281 Q3544.4563,1157.4844 3545.0188,1157.7813 L3545.0188,1160.5 Q3544.3938,1159.9219 3543.8,1159.6563 Q3543.2063,1159.375 3542.5813,1159.375 Q3541.2375,1159.375 3540.55,1160.4531 Q3539.8625,1161.5156 3539.8625,1163.6094 Q3539.8625,1165.7031 3540.55,1166.7813 Q3541.2375,1167.8438 3542.5813,1167.8438 Q3543.2063,1167.8438 3543.8,1167.5781 Q3544.3938,1167.2969 3545.0188,1166.7188 L3545.0188,1169.4375 Z " fill="#000000"/><text fill="#000000" font-family="sans-serif" font-size="14" lengthAdjust="spacing" textLength="203.8955" x="3556.05" y="1168.6436">PinTipCentreThenXrayCentre</text><line style="stroke:#181818;stroke-width:0.5;" x1="3528.05" x2="3761.9455" y1="1179.7969" y2="1179.7969"/><text fill="#000000" font-family="sans-serif" font-size="14" lengthAdjust="spacing" textLength="130.498" x="3533.05" y="1196.792">float tip_offset_um</text><line style="stroke:#181818;stroke-width:0.5;" x1="3528.05" x2="3761.9455" y1="1204.0938" y2="1204.0938"/></g><!--class RotationScanPerSweep--><g id="elem_RotationScanPerSweep"><rect codeLine="109" fill="#F1F1F1" height="129.4844" id="RotationScanPerSweep" rx="2.5" ry="2.5" style="stroke:#181818;stroke-width:0.5;" width="263.0498" x="4564.48" y="909.4269"/><ellipse cx="4610.5166" cy="925.4269" fill="#ADD1B2" rx="11" ry="11" style="stroke:#181818;stroke-width:1;"/><path d="M4613.4854,931.0675 Q4612.9072,931.3644 4612.2666,931.505 Q4611.626,931.6612 4610.9229,931.6612 Q4608.4229,931.6612 4607.0947,930.0206 Q4605.7822,928.3644 4605.7822,925.2394 Q4605.7822,922.1144 4607.0947,920.4581 Q4608.4229,918.8019 4610.9229,918.8019 Q4611.626,918.8019 4612.2666,918.9581 Q4612.9229,919.1144 4613.4854,919.4112 L4613.4854,922.13 Q4612.8604,921.5519 4612.2666,921.2862 Q4611.6729,921.005 4611.0479,921.005 Q4609.7041,921.005 4609.0166,922.0831 Q4608.3291,923.1456 4608.3291,925.2394 Q4608.3291,927.3331 4609.0166,928.4112 Q4609.7041,929.4737 4611.0479,929.4737 Q4611.6729,929.4737 4612.2666,929.2081 Q4612.8604,928.9269 4613.4854,928.3487 L4613.4854,931.0675 Z " fill="#000000"/><text fill="#000000" font-family="sans-serif" font-size="14" lengthAdjust="spacing" textLength="162.4766" x="4631.0166" y="930.2736">RotationScanPerSweep</text><line style="stroke:#181818;stroke-width:0.5;" x1="4565.48" x2="4826.5298" y1="941.4269" y2="941.4269"/><text fill="#000000" font-family="sans-serif" font-size="14" lengthAdjust="spacing" textLength="157.1787" x="4570.48" y="958.422">float omega_start_deg</text><text fill="#000000" font-family="sans-serif" font-size="14" lengthAdjust="spacing" textLength="182.9297" x="4570.48" y="974.7189">RotationAxis rotation_axis</text><text fill="#000000" font-family="sans-serif" font-size="14" lengthAdjust="spacing" textLength="147.3213" x="4570.48" y="991.0157">float scan_width_deg</text><text fill="#000000" font-family="sans-serif" font-size="14" lengthAdjust="spacing" textLength="251.0498" x="4570.48" y="1007.3126">RotationDirection rotation_direction</text><text fill="#000000" font-family="sans-serif" font-size="14" lengthAdjust="spacing" textLength="169.1279" x="4570.48" y="1023.6095">int nexus_vds_start_img</text><line style="stroke:#181818;stroke-width:0.5;" x1="4565.48" x2="4826.5298" y1="1030.9112" y2="1030.9112"/></g><!--class RotationScan--><g id="elem_RotationScan"><rect codeLine="116" fill="#F1F1F1" height="48" id="RotationScan" rx="2.5" ry="2.5" style="stroke:#181818;stroke-width:0.5;" width="125.2148" x="4127.39" y="1155.9469"/><ellipse cx="4142.39" cy="1171.9469" fill="#ADD1B2" rx="11" ry="11" style="stroke:#181818;stroke-width:1;"/><path d="M4145.3588,1177.5875 Q4144.7806,1177.8844 4144.14,1178.025 Q4143.4994,1178.1812 4142.7963,1178.1812 Q4140.2963,1178.1812 4138.9681,1176.5406 Q4137.6556,1174.8844 4137.6556,1171.7594 Q4137.6556,1168.6344 4138.9681,1166.9781 Q4140.2963,1165.3219 4142.7963,1165.3219 Q4143.4994,1165.3219 4144.14,1165.4781 Q4144.7963,1165.6344 4145.3588,1165.9312 L4145.3588,1168.65 Q4144.7338,1168.0719 4144.14,1167.8062 Q4143.5463,1167.525 4142.9213,1167.525 Q4141.5775,1167.525 4140.89,1168.6031 Q4140.2025,1169.6656 4140.2025,1171.7594 Q4140.2025,1173.8531 4140.89,1174.9312 Q4141.5775,1175.9937 4142.9213,1175.9937 Q4143.5463,1175.9937 4144.14,1175.7281 Q4144.7338,1175.4469 4145.3588,1174.8687 L4145.3588,1177.5875 Z " fill="#000000"/><text fill="#000000" font-family="sans-serif" font-size="14" lengthAdjust="spacing" textLength="93.2148" x="4156.39" y="1176.7936">RotationScan</text><line style="stroke:#181818;stroke-width:0.5;" x1="4128.39" x2="4251.6048" y1="1187.9469" y2="1187.9469"/><line style="stroke:#181818;stroke-width:0.5;" x1="4128.39" x2="4251.6048" y1="1195.9469" y2="1195.9469"/></g><!--class HyperionSpecifiedThreeDGridScan--><g id="elem_HyperionSpecifiedThreeDGridScan"><rect codeLine="118" fill="#F1F1F1" height="48" id="HyperionSpecifiedThreeDGridScan" rx="2.5" ry="2.5" style="stroke:#181818;stroke-width:0.5;" width="274.293" x="3881.85" y="950.1669"/><ellipse cx="3896.85" cy="966.1669" fill="#ADD1B2" rx="11" ry="11" style="stroke:#181818;stroke-width:1;"/><path d="M3899.8188,971.8075 Q3899.2406,972.1044 3898.6,972.245 Q3897.9594,972.4012 3897.2563,972.4012 Q3894.7563,972.4012 3893.4281,970.7606 Q3892.1156,969.1044 3892.1156,965.9794 Q3892.1156,962.8544 3893.4281,961.1981 Q3894.7563,959.5419 3897.2563,959.5419 Q3897.9594,959.5419 3898.6,959.6981 Q3899.2563,959.8544 3899.8188,960.1512 L3899.8188,962.87 Q3899.1938,962.2919 3898.6,962.0262 Q3898.0063,961.745 3897.3813,961.745 Q3896.0375,961.745 3895.35,962.8231 Q3894.6625,963.8856 3894.6625,965.9794 Q3894.6625,968.0731 3895.35,969.1512 Q3896.0375,970.2137 3897.3813,970.2137 Q3898.0063,970.2137 3898.6,969.9481 Q3899.1938,969.6669 3899.8188,969.0887 L3899.8188,971.8075 Z " fill="#000000"/><text fill="#000000" font-family="sans-serif" font-size="14" lengthAdjust="spacing" textLength="242.293" x="3910.85" y="971.0136">HyperionSpecifiedThreeDGridScan</text><line style="stroke:#181818;stroke-width:0.5;" x1="3882.85" x2="4155.143" y1="982.1669" y2="982.1669"/><line style="stroke:#181818;stroke-width:0.5;" x1="3882.85" x2="4155.143" y1="990.1669" y2="990.1669"/></g><!--class RobotLoadThenCentre--><g id="elem_RobotLoadThenCentre"><rect codeLine="120" fill="#F1F1F1" height="64.2969" id="RobotLoadThenCentre" rx="2.5" ry="2.5" style="stroke:#181818;stroke-width:0.5;" width="212.9355" x="3034.53" y="1147.7969"/><ellipse cx="3060.2575" cy="1163.7969" fill="#ADD1B2" rx="11" ry="11" style="stroke:#181818;stroke-width:1;"/><path d="M3063.2262,1169.4375 Q3062.6481,1169.7344 3062.0075,1169.875 Q3061.3669,1170.0313 3060.6637,1170.0313 Q3058.1637,1170.0313 3056.8356,1168.3906 Q3055.5231,1166.7344 3055.5231,1163.6094 Q3055.5231,1160.4844 3056.8356,1158.8281 Q3058.1637,1157.1719 3060.6637,1157.1719 Q3061.3669,1157.1719 3062.0075,1157.3281 Q3062.6637,1157.4844 3063.2262,1157.7813 L3063.2262,1160.5 Q3062.6012,1159.9219 3062.0075,1159.6563 Q3061.4137,1159.375 3060.7887,1159.375 Q3059.445,1159.375 3058.7575,1160.4531 Q3058.07,1161.5156 3058.07,1163.6094 Q3058.07,1165.7031 3058.7575,1166.7813 Q3059.445,1167.8438 3060.7887,1167.8438 Q3061.4137,1167.8438 3062.0075,1167.5781 Q3062.6012,1167.2969 3063.2262,1166.7188 L3063.2262,1169.4375 Z " fill="#000000"/><text fill="#000000" font-family="sans-serif" font-size="14" lengthAdjust="spacing" textLength="157.0967" x="3076.6414" y="1168.6436">RobotLoadThenCentre</text><line style="stroke:#181818;stroke-width:0.5;" x1="3035.53" x2="3246.4655" y1="1179.7969" y2="1179.7969"/><text fill="#000000" font-family="sans-serif" font-size="14" lengthAdjust="spacing" textLength="200.9355" x="3040.53" y="1196.792">&lt;class 'float'&gt; thawing_time</text><line style="stroke:#181818;stroke-width:0.5;" x1="3035.53" x2="3246.4655" y1="1204.0938" y2="1204.0938"/></g><!--class WithHyperionUDCFeatures--><g id="elem_WithHyperionUDCFeatures"><rect codeLine="123" fill="#F1F1F1" height="64.2969" id="WithHyperionUDCFeatures" rx="2.5" ry="2.5" style="stroke:#181818;stroke-width:0.5;" width="228.6719" x="3465.66" y="695.4969"/><ellipse cx="3484.7583" cy="711.4969" fill="#ADD1B2" rx="11" ry="11" style="stroke:#181818;stroke-width:1;"/><path d="M3487.7271,717.1375 Q3487.149,717.4344 3486.5083,717.575 Q3485.8677,717.7312 3485.1646,717.7312 Q3482.6646,717.7312 3481.3365,716.0906 Q3480.024,714.4344 3480.024,711.3094 Q3480.024,708.1844 3481.3365,706.5281 Q3482.6646,704.8719 3485.1646,704.8719 Q3485.8677,704.8719 3486.5083,705.0281 Q3487.1646,705.1844 3487.7271,705.4812 L3487.7271,708.2 Q3487.1021,707.6219 3486.5083,707.3562 Q3485.9146,707.075 3485.2896,707.075 Q3483.9458,707.075 3483.2583,708.1531 Q3482.5708,709.2156 3482.5708,711.3094 Q3482.5708,713.4031 3483.2583,714.4812 Q3483.9458,715.5437 3485.2896,715.5437 Q3485.9146,715.5437 3486.5083,715.2781 Q3487.1021,714.9969 3487.7271,714.4187 L3487.7271,717.1375 Z " fill="#000000"/><text fill="#000000" font-family="sans-serif" font-size="14" lengthAdjust="spacing" textLength="187.5645" x="3499.6691" y="716.3436">WithHyperionUDCFeatures</text><line style="stroke:#181818;stroke-width:0.5;" x1="3466.66" x2="3693.3319" y1="727.4969" y2="727.4969"/><text fill="#000000" font-family="sans-serif" font-size="14" lengthAdjust="spacing" textLength="216.6719" x="3471.66" y="744.492">HyperionFeatureFlags features</text><line style="stroke:#181818;stroke-width:0.5;" x1="3466.66" x2="3693.3319" y1="751.7937" y2="751.7937"/></g><!--class RotationExperiment--><g id="elem_RotationExperiment"><rect codeLine="126" fill="#F1F1F1" height="96.8906" id="RotationExperiment" rx="2.5" ry="2.5" style="stroke:#181818;stroke-width:0.5;" width="332.332" x="3514.83" y="925.7269"/><ellipse cx="3606.7118" cy="941.7269" fill="#ADD1B2" rx="11" ry="11" style="stroke:#181818;stroke-width:1;"/><path d="M3609.6806,947.3675 Q3609.1025,947.6644 3608.4618,947.805 Q3607.8212,947.9613 3607.1181,947.9613 Q3604.6181,947.9613 3603.29,946.3206 Q3601.9775,944.6644 3601.9775,941.5394 Q3601.9775,938.4144 3603.29,936.7581 Q3604.6181,935.1019 3607.1181,935.1019 Q3607.8212,935.1019 3608.4618,935.2581 Q3609.1181,935.4144 3609.6806,935.7113 L3609.6806,938.43 Q3609.0556,937.8519 3608.4618,937.5863 Q3607.8681,937.305 3607.2431,937.305 Q3605.8993,937.305 3605.2118,938.3831 Q3604.5243,939.4456 3604.5243,941.5394 Q3604.5243,943.6331 3605.2118,944.7113 Q3605.8993,945.7738 3607.2431,945.7738 Q3607.8681,945.7738 3608.4618,945.5081 Q3609.0556,945.2269 3609.6806,944.6488 L3609.6806,947.3675 Z " fill="#000000"/><text fill="#000000" font-family="sans-serif" font-size="14" lengthAdjust="spacing" textLength="140.0684" x="3627.2118" y="946.5736">RotationExperiment</text><line style="stroke:#181818;stroke-width:0.5;" x1="3515.83" x2="3846.162" y1="957.7269" y2="957.7269"/><text fill="#000000" font-family="sans-serif" font-size="14" lengthAdjust="spacing" textLength="202.8018" x="3520.83" y="974.722">float shutter_opening_time_s</text><text fill="#000000" font-family="sans-serif" font-size="14" lengthAdjust="spacing" textLength="202.9385" x="3520.83" y="991.0189">float rotation_increment_deg</text><text fill="#000000" font-family="sans-serif" font-size="14" lengthAdjust="spacing" textLength="320.332" x="3520.83" y="1007.3157">IspybExperimentType ispyb_experiment_type</text><line style="stroke:#181818;stroke-width:0.5;" x1="3515.83" x2="3846.162" y1="1014.6175" y2="1014.6175"/></g><!--class MultiRotationScan--><g id="elem_MultiRotationScan"><rect codeLine="131" fill="#F1F1F1" height="64.2969" id="MultiRotationScan" rx="2.5" ry="2.5" style="stroke:#181818;stroke-width:0.5;" width="540.001" x="4288" y="1147.7969"/><ellipse cx="4490.0327" cy="1163.7969" fill="#ADD1B2" rx="11" ry="11" style="stroke:#181818;stroke-width:1;"/><path d="M4493.0015,1169.4375 Q4492.4233,1169.7344 4491.7827,1169.875 Q4491.1421,1170.0313 4490.439,1170.0313 Q4487.939,1170.0313 4486.6108,1168.3906 Q4485.2983,1166.7344 4485.2983,1163.6094 Q4485.2983,1160.4844 4486.6108,1158.8281 Q4487.939,1157.1719 4490.439,1157.1719 Q4491.1421,1157.1719 4491.7827,1157.3281 Q4492.439,1157.4844 4493.0015,1157.7813 L4493.0015,1160.5 Q4492.3765,1159.9219 4491.7827,1159.6563 Q4491.189,1159.375 4490.564,1159.375 Q4489.2202,1159.375 4488.5327,1160.4531 Q4487.8452,1161.5156 4487.8452,1163.6094 Q4487.8452,1165.7031 4488.5327,1166.7813 Q4489.2202,1167.8438 4490.564,1167.8438 Q4491.189,1167.8438 4491.7827,1167.5781 Q4492.3765,1167.2969 4493.0015,1166.7188 L4493.0015,1169.4375 Z " fill="#000000"/><text fill="#000000" font-family="sans-serif" font-size="14" lengthAdjust="spacing" textLength="127.4355" x="4510.5327" y="1168.6436">MultiRotationScan</text><line style="stroke:#181818;stroke-width:0.5;" x1="4289" x2="4827.001" y1="1179.7969" y2="1179.7969"/><line style="stroke:#181818;stroke-width:0.5;" x1="4289" x2="4827.001" y1="1187.7969" y2="1187.7969"/><text fill="#000000" font-family="sans-serif" font-size="14" lengthAdjust="spacing" textLength="528.001" x="4294" y="1204.792">Annotated[list[RotationScanPerSweep], Len(min_length=1)] rotation_scans</text></g><!--reverse link MxBlueskyParameters to LoadCentreCollect--><g id="link_MxBlueskyParameters_LoadCentreCollect"><path codeLine="135" d="M2986.95,151.7652 C3386.37,152.6152 4389.64,165.6169 4492,275.7869 C4668.98,466.2569 4464.55,816.5069 4387.21,933.7569 " fill="#FFFFFF" fill-opacity="0.00000" id="MxBlueskyParameters-backto-LoadCentreCollect" style="stroke:#181818;stroke-width:1;"/><polygon fill="#FFFFFF" fill-opacity="0.00000" points="2968.95,151.7269,2986.9372,157.7652,2986.9627,145.7652,2968.95,151.7269" style="stroke:#181818;stroke-width:1;"/></g><!--reverse link WithVisit to LoadCentreCollect--><g id="link_WithVisit_LoadCentreCollect"><path codeLine="136" d="M2080.3516,216.3946 C2199.8516,241.9846 4188.85,193.2669 4279,275.7869 C4327.89,320.5369 4352.17,792.6369 4358.37,933.6269 " fill="#FFFFFF" fill-opacity="0.00000" id="WithVisit-backto-LoadCentreCollect" style="stroke:#181818;stroke-width:1;"/><polygon fill="#FFFFFF" fill-opacity="0.00000" points="2063,211.6069,2078.7557,222.1784,2081.9475,210.6107,2063,211.6069" style="stroke:#181818;stroke-width:1;"/></g><!--reverse link WithSample to LoadCentreCollect--><g id="link_WithSample_LoadCentreCollect"><path codeLine="137" d="M956.5115,208.4451 C968.4815,214.8851 965.32,212.0369 978,215.7869 C1192.14,279.1569 2784.94,180.6769 2987,275.7869 C3267.88,407.9869 3170.69,660.9869 3448,800.5369 C3737.21,946.0669 3866.01,760.6969 4174,860.5369 C4223.38,876.5369 4273.37,907.8469 4309.07,933.3969 " fill="#FFFFFF" fill-opacity="0.00000" id="WithSample-backto-LoadCentreCollect" style="stroke:#181818;stroke-width:1;"/><polygon fill="#FFFFFF" fill-opacity="0.00000" points="940.66,199.9169,953.6687,213.729,959.3542,203.1613,940.66,199.9169" style="stroke:#181818;stroke-width:1;"/></g><!--reverse link WithCentreSelection to LoadCentreCollect--><g id="link_WithCentreSelection_LoadCentreCollect"><path codeLine="138" d="M2336.4806,190.326 C2367.1006,202.796 2387.34,208.9769 2422,215.7869 C2527.15,236.4369 4274.86,199.3769 4350,275.7869 C4441.59,368.9169 4385.9,800.3969 4366.13,933.7769 " fill="#FFFFFF" fill-opacity="0.00000" id="WithCentreSelection-backto-LoadCentreCollect" style="stroke:#181818;stroke-width:1;"/><polygon fill="#FFFFFF" fill-opacity="0.00000" points="2319.81,183.5369,2334.2175,195.8828,2338.7436,184.7691,2319.81,183.5369" style="stroke:#181818;stroke-width:1;"/></g><!--reverse link WithHyperionUDCFeatures to LoadCentreCollect--><g id="link_WithHyperionUDCFeatures_LoadCentreCollect"><path codeLine="139" d="M3712.485,745.3706 C3834.585,763.0106 4014.07,796.3769 4174,860.5369 C4220.95,879.3669 4269.71,909.3469 4305.52,933.6369 " fill="#FFFFFF" fill-opacity="0.00000" id="WithHyperionUDCFeatures-backto-LoadCentreCollect" style="stroke:#181818;stroke-width:1;"/><polygon fill="#FFFFFF" fill-opacity="0.00000" points="3694.67,742.7969,3711.6271,751.309,3713.343,739.4323,3694.67,742.7969" style="stroke:#181818;stroke-width:1;"/></g><!--reverse link GridCommon to GridCommonWithHyperionDetectorParams--><g id="link_GridCommon_GridCommonWithHyperionDetectorParams"><path codeLine="140" d="M2949.1323,809.8524 C3038.8723,860.4124 3137.3,915.8669 3197.49,949.7769 " fill="#FFFFFF" fill-opacity="0.00000" id="GridCommon-backto-GridCommonWithHyperionDetectorParams" style="stroke:#181818;stroke-width:1;"/><polygon fill="#FFFFFF" fill-opacity="0.00000" points="2933.45,801.0169,2946.1871,815.0798,2952.0775,804.6249,2933.45,801.0169" style="stroke:#181818;stroke-width:1;"/></g><!--reverse link WithHyperionUDCFeatures to GridCommonWithHyperionDetectorParams--><g id="link_WithHyperionUDCFeatures_GridCommonWithHyperionDetectorParams"><path codeLine="141" d="M3521.4918,770.5956 C3452.0518,820.3856 3333.07,905.7169 3271.51,949.8569 " fill="#FFFFFF" fill-opacity="0.00000" id="WithHyperionUDCFeatures-backto-GridCommonWithHyperionDetectorParams" style="stroke:#181818;stroke-width:1;"/><polygon fill="#FFFFFF" fill-opacity="0.00000" points="3536.12,760.1069,3517.9955,765.7196,3524.988,775.4717,3536.12,760.1069" style="stroke:#181818;stroke-width:1;"/></g><!--reverse link GridCommonWithHyperionDetectorParams to GridScanWithEdgeDetect--><g id="link_GridCommonWithHyperionDetectorParams_GridScanWithEdgeDetect"><path codeLine="142" d="M3266.5576,1013.111 C3295.0276,1052.311 3341.5,1116.2969 3369.99,1155.5269 " fill="#FFFFFF" fill-opacity="0.00000" id="GridCommonWithHyperionDetectorParams-backto-GridScanWithEdgeDetect" style="stroke:#181818;stroke-width:1;"/><polygon fill="#FFFFFF" fill-opacity="0.00000" points="3255.98,998.5469,3261.7029,1016.6369,3271.4123,1009.5852,3255.98,998.5469" style="stroke:#181818;stroke-width:1;"/></g><!--reverse link WithHyperionUDCFeatures to GridScanWithEdgeDetect--><g id="link_WithHyperionUDCFeatures_GridScanWithEdgeDetect"><path codeLine="143" d="M3522.6901,771.47 C3493.2301,795.45 3470.21,819.8369 3451,860.5369 C3401.53,965.3469 3460.25,1010.0469 3423,1119.7969 C3418.71,1132.4369 3411.37,1145.2369 3404.44,1155.6769 " fill="#FFFFFF" fill-opacity="0.00000" id="WithHyperionUDCFeatures-backto-GridScanWithEdgeDetect" style="stroke:#181818;stroke-width:1;"/><polygon fill="#FFFFFF" fill-opacity="0.00000" points="3536.65,760.1069,3518.9024,766.8167,3526.4778,776.1233,3536.65,760.1069" style="stroke:#181818;stroke-width:1;"/></g><!--reverse link DiffractionExperiment to DiffractionExperimentWithSample--><g id="link_DiffractionExperiment_DiffractionExperimentWithSample"><path codeLine="144" d="M2805,505.2469 C2805,527.5069 2805,530.9069 2805,546.3269 " fill="#FFFFFF" fill-opacity="0.00000" id="DiffractionExperiment-backto-DiffractionExperimentWithSample" style="stroke:#181818;stroke-width:1;"/><polygon fill="#FFFFFF" fill-opacity="0.00000" points="2805,487.2469,2799,505.2469,2811,505.2469,2805,487.2469" style="stroke:#181818;stroke-width:1;"/></g><!--reverse link WithSample to DiffractionExperimentWithSample--><g id="link_WithSample_DiffractionExperimentWithSample"><path codeLine="145" d="M958.1725,208.5402 C969.6725,214.7602 965.96,211.7769 978,215.7869 C1240.7,303.1469 1325.04,229.5769 1598,275.7869 C2028.88,348.7269 2533.83,490.3669 2725.66,546.2569 " fill="#FFFFFF" fill-opacity="0.00000" id="WithSample-backto-DiffractionExperimentWithSample" style="stroke:#181818;stroke-width:1;"/><polygon fill="#FFFFFF" fill-opacity="0.00000" points="942.34,199.9769,955.3181,213.8177,961.027,203.2627,942.34,199.9769" style="stroke:#181818;stroke-width:1;"/></g><!--reverse link GridCommonWithHyperionDetectorParams to PinTipCentreThenXrayCentre--><g id="link_GridCommonWithHyperionDetectorParams_PinTipCentreThenXrayCentre"><path codeLine="146" d="M3285.5527,1008.9815 C3328.9027,1039.9115 3394.96,1084.2269 3470,1119.7969 C3491.59,1130.0369 3515.43,1139.3169 3538.39,1147.3469 " fill="#FFFFFF" fill-opacity="0.00000" id="GridCommonWithHyperionDetectorParams-backto-PinTipCentreThenXrayCentre" style="stroke:#181818;stroke-width:1;"/><polygon fill="#FFFFFF" fill-opacity="0.00000" points="3270.9,998.5269,3282.0678,1013.8657,3289.0376,1004.0973,3270.9,998.5269" style="stroke:#181818;stroke-width:1;"/></g><!--reverse link WithHyperionUDCFeatures to PinTipCentreThenXrayCentre--><g id="link_WithHyperionUDCFeatures_PinTipCentreThenXrayCentre"><path codeLine="147" d="M3541.7518,774.4383 C3521.9618,799.7083 3507.87,822.8469 3497,860.5369 C3465.06,971.2469 3432.38,1024.3969 3497,1119.7969 C3504.76,1131.2569 3515.13,1140.4969 3526.8,1147.9369 " fill="#FFFFFF" fill-opacity="0.00000" id="WithHyperionUDCFeatures-backto-PinTipCentreThenXrayCentre" style="stroke:#181818;stroke-width:1;"/><polygon fill="#FFFFFF" fill-opacity="0.00000" points="3552.85,760.2669,3537.028,770.7389,3546.4756,778.1377,3552.85,760.2669" style="stroke:#181818;stroke-width:1;"/></g><!--reverse link MxBlueskyParameters to DiffractionExperiment--><g id="link_MxBlueskyParameters_DiffractionExperiment"><path codeLine="148" d="M2808.9224,201.2925 C2808.3924,225.2825 2808.03,241.8769 2807.3,275.3969 " fill="#FFFFFF" fill-opacity="0.00000" id="MxBlueskyParameters-backto-DiffractionExperiment" style="stroke:#181818;stroke-width:1;"/><polygon fill="#FFFFFF" fill-opacity="0.00000" points="2809.32,183.2969,2802.9239,201.16,2814.921,201.425,2809.32,183.2969" style="stroke:#181818;stroke-width:1;"/></g><!--reverse link WithSnapshot to DiffractionExperiment--><g id="link_WithSnapshot_DiffractionExperiment"><path codeLine="149" d="M706.6557,198.3838 C731.0257,208.0338 741.25,210.4669 767,215.7869 C1172.88,299.5469 2233.45,158.6769 2631,275.7869 C2633.45,276.5069 2635.9,277.2669 2638.35,278.0769 " fill="#FFFFFF" fill-opacity="0.00000" id="WithSnapshot-backto-DiffractionExperiment" style="stroke:#181818;stroke-width:1;"/><polygon fill="#FFFFFF" fill-opacity="0.00000" points="689.92,191.7569,704.4467,203.9624,708.8647,192.8053,689.92,191.7569" style="stroke:#181818;stroke-width:1;"/></g><!--reverse link WithOptionalEnergyChange to DiffractionExperiment--><g id="link_WithOptionalEnergyChange_DiffractionExperiment"><path codeLine="150" d="M377.5843,191.9229 C401.6343,204.4129 414.89,209.0769 443,215.7869 C916.12,328.6969 2164.09,139.4469 2631,275.7869 C2633.45,276.4969 2635.91,277.2569 2638.36,278.0569 " fill="#FFFFFF" fill-opacity="0.00000" id="WithOptionalEnergyChange-backto-DiffractionExperiment" style="stroke:#181818;stroke-width:1;"/><polygon fill="#FFFFFF" fill-opacity="0.00000" points="361.61,183.6269,374.8189,197.2476,380.3496,186.5981,361.61,183.6269" style="stroke:#181818;stroke-width:1;"/></g><!--reverse link WithVisit to DiffractionExperiment--><g id="link_WithVisit_DiffractionExperiment"><path codeLine="151" d="M2080.3439,216.2884 C2318.9239,277.6184 2397.53,197.2169 2631,275.7869 C2633.5,276.6269 2636.01,277.5069 2638.52,278.4269 " fill="#FFFFFF" fill-opacity="0.00000" id="WithVisit-backto-DiffractionExperiment" style="stroke:#181818;stroke-width:1;"/><polygon fill="#FFFFFF" fill-opacity="0.00000" points="2063.13,211.0269,2078.59,222.0263,2082.0977,210.5504,2063.13,211.0269" style="stroke:#181818;stroke-width:1;"/></g><!--reverse link OptionalGonioAngleStarts to RotationScanPerSweep--><g id="link_OptionalGonioAngleStarts_RotationScanPerSweep"><path codeLine="152" d="M1358.0198,214.2845 C1366.2698,217.3545 1357.74,213.7269 1366,215.7869 C1511.6,251.9869 3946.35,185.2669 4066,275.7869 C4260.55,422.9669 4045.09,637.9869 4227,800.5369 C4334.9,896.9469 4414.66,802.0169 4547,860.5369 C4574.58,872.7269 4601.79,890.9269 4625.25,909.1569 " fill="#FFFFFF" fill-opacity="0.00000" id="OptionalGonioAngleStarts-backto-RotationScanPerSweep" style="stroke:#181818;stroke-width:1;"/><polygon fill="#FFFFFF" fill-opacity="0.00000" points="1341.15,208.0069,1355.9273,219.9078,1360.1124,208.6612,1341.15,208.0069" style="stroke:#181818;stroke-width:1;"/></g><!--reverse link OptionalXyzStarts to RotationScanPerSweep--><g id="link_OptionalXyzStarts_RotationScanPerSweep"><path codeLine="153" d="M2604.0039,208.9678 C2614.9939,215.4178 2611.19,211.9969 2623,215.7869 C2811.25,276.0769 4238.61,163.0869 4401,275.7869 C4484.32,333.6069 4448.73,393.2369 4488,486.7569 C4551.75,638.5369 4628.2,816.2469 4668.31,909.1469 " fill="#FFFFFF" fill-opacity="0.00000" id="OptionalXyzStarts-backto-RotationScanPerSweep" style="stroke:#181818;stroke-width:1;"/><polygon fill="#FFFFFF" fill-opacity="0.00000" points="2588.48,199.8569,2600.9669,214.1424,2607.0409,203.7932,2588.48,199.8569" style="stroke:#181818;stroke-width:1;"/></g><!--reverse link XyzStarts to SpecifiedGrid--><g id="link_XyzStarts_SpecifiedGrid"><path codeLine="154" d="M160.4454,210.1372 C169.1154,216.2572 163.64,211.4969 173,215.7869 C455.39,345.1569 833.87,372.7769 981.91,378.6669 " fill="#FFFFFF" fill-opacity="0.00000" id="XyzStarts-backto-SpecifiedGrid" style="stroke:#181818;stroke-width:1;"/><polygon fill="#FFFFFF" fill-opacity="0.00000" points="145.74,199.7569,156.9853,215.039,163.9055,205.2354,145.74,199.7569" style="stroke:#181818;stroke-width:1;"/></g><!--reverse link WithScan to SpecifiedGrid--><g id="link_WithScan_SpecifiedGrid"><path codeLine="155" d="M1045,193.1769 C1045,236.9269 1045,313.2769 1045,357.0669 " fill="#FFFFFF" fill-opacity="0.00000" id="WithScan-backto-SpecifiedGrid" style="stroke:#181818;stroke-width:1;"/><polygon fill="#FFFFFF" fill-opacity="0.00000" points="1045,175.1769,1039,193.1769,1051,193.1769,1045,175.1769" style="stroke:#181818;stroke-width:1;"/></g><!--reverse link DiffractionExperimentWithSample to GridCommon--><g id="link_DiffractionExperimentWithSample_GridCommon"><path codeLine="156" d="M2805,612.9369 C2805,628.8969 2805,633.0169 2805,654.5769 " fill="#FFFFFF" fill-opacity="0.00000" id="DiffractionExperimentWithSample-backto-GridCommon" style="stroke:#181818;stroke-width:1;"/><polygon fill="#FFFFFF" fill-opacity="0.00000" points="2805,594.9369,2799,612.9369,2811,612.9369,2805,594.9369" style="stroke:#181818;stroke-width:1;"/></g><!--reverse link OptionalGonioAngleStarts to GridCommon--><g id="link_OptionalGonioAngleStarts_GridCommon"><path codeLine="157" d="M1363.2926,215.1089 C1369.7526,217.8689 1359.65,213.3969 1366,215.7869 C1465.71,253.2169 1496.42,243.7769 1598,275.7869 C1975.36,394.7069 2407.45,564.5169 2638.51,658.1369 " fill="#FFFFFF" fill-opacity="0.00000" id="OptionalGonioAngleStarts-backto-GridCommon" style="stroke:#181818;stroke-width:1;"/><polygon fill="#FFFFFF" fill-opacity="0.00000" points="1346.74,208.0369,1360.9352,220.6264,1365.6499,209.5913,1346.74,208.0369" style="stroke:#181818;stroke-width:1;"/></g><!--reverse link WithScan to RotationScan--><g id="link_WithScan_RotationScan"><path codeLine="158" d="M1073.6099,189.2094 C1085.7299,203.7394 1091.85,207.3769 1112,215.7869 C1317.59,301.5469 2896.88,235.6469 3116,275.7869 C3818.98,404.5569 3954.52,585.2469 4636,800.5369 C4728.15,829.6469 4786.85,783.3469 4845,860.5369 C4914.33,952.5669 4924.47,1036.3669 4845,1119.7969 C4800.88,1166.1169 4332.56,1134.4669 4270,1147.7969 C4261.11,1149.6969 4251.91,1152.4569 4243.06,1155.5569 " fill="#FFFFFF" fill-opacity="0.00000" id="WithScan-backto-RotationScan" style="stroke:#181818;stroke-width:1;"/><polygon fill="#FFFFFF" fill-opacity="0.00000" points="1062.08,175.3869,1069.0024,193.0527,1078.2174,185.3661,1062.08,175.3869" style="stroke:#181818;stroke-width:1;"/></g><!--reverse link RotationScanPerSweep to RotationScan--><g id="link_RotationScanPerSweep_RotationScan"><path codeLine="159" d="M4635.4787,1052.6532 C4609.1987,1082.3832 4586.06,1101.6169 4547,1119.7969 C4434.82,1172.0169 4390.31,1118.8669 4270,1147.7969 C4261.6,1149.8169 4252.89,1152.5269 4244.46,1155.4969 " fill="#FFFFFF" fill-opacity="0.00000" id="RotationScanPerSweep-backto-RotationScan" style="stroke:#181818;stroke-width:1;"/><polygon fill="#FFFFFF" fill-opacity="0.00000" points="4647.4,1039.1669,4630.9832,1048.6794,4639.9741,1056.627,4647.4,1039.1669" style="stroke:#181818;stroke-width:1;"/></g><!--reverse link RotationExperiment to RotationScan--><g id="link_RotationExperiment_RotationScan"><path codeLine="160" d="M3740.975,1035.2843 C3775.575,1067.7043 3812.33,1096.4669 3864,1119.7969 C3949.84,1158.5669 4059.25,1171.9369 4126.95,1176.5469 " fill="#FFFFFF" fill-opacity="0.00000" id="RotationExperiment-backto-RotationScan" style="stroke:#181818;stroke-width:1;"/><polygon fill="#FFFFFF" fill-opacity="0.00000" points="3727.84,1022.9769,3736.8725,1039.6626,3745.0775,1030.906,3727.84,1022.9769" style="stroke:#181818;stroke-width:1;"/></g><!--reverse link GridCommon to SpecifiedThreeDGridScan--><g id="link_GridCommon_SpecifiedThreeDGridScan"><path codeLine="161" d="M2782.591,818.4811 C2777.951,837.0711 2777.21,840.0569 2772.19,860.1669 " fill="#FFFFFF" fill-opacity="0.00000" id="GridCommon-backto-SpecifiedThreeDGridScan" style="stroke:#181818;stroke-width:1;"/><polygon fill="#FFFFFF" fill-opacity="0.00000" points="2786.95,801.0169,2776.7696,817.0281,2788.4124,819.9341,2786.95,801.0169" style="stroke:#181818;stroke-width:1;"/></g><!--reverse link SpecifiedGrid to SpecifiedThreeDGridScan--><g id="link_SpecifiedGrid_SpecifiedThreeDGridScan"><path codeLine="162" d="M1078.0835,418.8361 C1144.7935,491.4961 1349.5,701.6169 1580,800.5369 C1770.2,882.1569 2388.53,942.7269 2638.1,964.4269 " fill="#FFFFFF" fill-opacity="0.00000" id="SpecifiedGrid-backto-SpecifiedThreeDGridScan" style="stroke:#181818;stroke-width:1;"/><polygon fill="#FFFFFF" fill-opacity="0.00000" points="1065.91,405.5769,1073.6637,422.8939,1082.5032,414.7783,1065.91,405.5769" style="stroke:#181818;stroke-width:1;"/></g><!--reverse link SplitScan to SpecifiedThreeDGridScan--><g id="link_SplitScan_SpecifiedThreeDGridScan"><path codeLine="163" d="M1743.7392,188.0533 C1756.1792,200.3933 1759.21,202.9269 1774,215.7869 C2076.57,478.7469 2456.67,763.0869 2638.13,896.2169 " fill="#FFFFFF" fill-opacity="0.00000" id="SplitScan-backto-SpecifiedThreeDGridScan" style="stroke:#181818;stroke-width:1;"/><polygon fill="#FFFFFF" fill-opacity="0.00000" points="1730.96,175.3769,1739.5137,192.3131,1747.9647,183.7936,1730.96,175.3769" style="stroke:#181818;stroke-width:1;"/></g><!--reverse link WithOptionalEnergyChange to SpecifiedThreeDGridScan--><g id="link_WithOptionalEnergyChange_SpecifiedThreeDGridScan"><path codeLine="164" d="M379.484,191.8172 C403.254,203.9072 415.73,208.3969 443,215.7869 C736.7,295.3169 830.58,198.9669 1125,275.7869 C1346.16,333.4869 1385.01,394.2169 1594,486.7569 C1913.18,628.0869 1992,665.7669 2314,800.5369 C2424.01,846.5769 2550.81,897.1869 2638.06,931.6369 " fill="#FFFFFF" fill-opacity="0.00000" id="WithOptionalEnergyChange-backto-SpecifiedThreeDGridScan" style="stroke:#181818;stroke-width:1;"/><polygon fill="#FFFFFF" fill-opacity="0.00000" points="363.44,183.6569,376.7638,197.1652,382.2041,186.4692,363.44,183.6569" style="stroke:#181818;stroke-width:1;"/></g><!--reverse link WithHyperionUDCFeatures to HyperionSpecifiedThreeDGridScan--><g id="link_WithHyperionUDCFeatures_HyperionSpecifiedThreeDGridScan"><path codeLine="165" d="M3675.5173,767.1431 C3733.9373,791.6631 3798.06,821.0969 3865,860.5369 C3911.23,887.7769 3960.62,925.6469 3990.66,949.7769 " fill="#FFFFFF" fill-opacity="0.00000" id="WithHyperionUDCFeatures-backto-HyperionSpecifiedThreeDGridScan" style="stroke:#181818;stroke-width:1;"/><polygon fill="#FFFFFF" fill-opacity="0.00000" points="3658.92,760.1769,3673.1953,772.6755,3677.8394,761.6107,3658.92,760.1769" style="stroke:#181818;stroke-width:1;"/></g><!--reverse link SpecifiedThreeDGridScan to HyperionSpecifiedThreeDGridScan--><g id="link_SpecifiedThreeDGridScan_HyperionSpecifiedThreeDGridScan"><path codeLine="166" d="M2865.3731,898.9242 C2919.1131,868.9742 2971.06,845.7369 3036.5,830.5369 C3124.27,810.1469 3762.81,799.7569 3847.5,830.5369 C3913.02,854.3469 3970.97,915.3869 3999.76,949.7369 " fill="#FFFFFF" fill-opacity="0.00000" id="SpecifiedThreeDGridScan-backto-HyperionSpecifiedThreeDGridScan" style="stroke:#181818;stroke-width:1;"/><polygon fill="#FFFFFF" fill-opacity="0.00000" points="2849.65,907.6869,2868.294,904.1652,2862.4522,893.6832,2849.65,907.6869" style="stroke:#181818;stroke-width:1;"/></g><!--reverse link GridCommonWithHyperionDetectorParams to RobotLoadThenCentre--><g id="link_GridCommonWithHyperionDetectorParams_RobotLoadThenCentre"><path codeLine="167" d="M3219.9569,1014.7676 C3202.3069,1051.4576 3175.89,1106.4069 3156.11,1147.5369 " fill="#FFFFFF" fill-opacity="0.00000" id="GridCommonWithHyperionDetectorParams-backto-RobotLoadThenCentre" style="stroke:#181818;stroke-width:1;"/><polygon fill="#FFFFFF" fill-opacity="0.00000" points="3227.76,998.5469,3214.55,1012.1666,3225.3638,1017.3686,3227.76,998.5469" style="stroke:#181818;stroke-width:1;"/></g><!--reverse link WithHyperionUDCFeatures to RobotLoadThenCentre--><g id="link_WithHyperionUDCFeatures_RobotLoadThenCentre"><path codeLine="168" d="M3447.5351,743.3879 C3308.6751,761.1279 3104.92,796.5269 3055,860.5369 C2984.14,951.3969 3001.36,1017.8169 3055,1119.7969 C3060.65,1130.5469 3069.24,1139.7169 3078.83,1147.4069 " fill="#FFFFFF" fill-opacity="0.00000" id="WithHyperionUDCFeatures-backto-RobotLoadThenCentre" style="stroke:#181818;stroke-width:1;"/><polygon fill="#FFFFFF" fill-opacity="0.00000" points="3465.39,741.1069,3446.7748,737.4363,3448.2955,749.3395,3465.39,741.1069" style="stroke:#181818;stroke-width:1;"/></g><!--reverse link WithPandaGridScan to WithHyperionUDCFeatures--><g id="link_WithPandaGridScan_WithHyperionUDCFeatures"><path codeLine="169" d="M1574.9637,191.678 C1599.5537,204.148 1613.37,208.9769 1642,215.7869 C1830.52,260.6369 3224.9,166.6069 3385,275.7869 C3531.38,375.6069 3568.6,610.3369 3577.43,695.2669 " fill="#FFFFFF" fill-opacity="0.00000" id="WithPandaGridScan-backto-WithHyperionUDCFeatures" style="stroke:#181818;stroke-width:1;"/><polygon fill="#FFFFFF" fill-opacity="0.00000" points="1558.91,183.5369,1572.25,197.0292,1577.6774,186.3267,1558.91,183.5369" style="stroke:#181818;stroke-width:1;"/></g><!--reverse link DiffractionExperimentWithSample to RotationExperiment--><g id="link_DiffractionExperimentWithSample_RotationExperiment"><path codeLine="170" d="M2875.5772,602.3141 C2912.3072,618.2841 2945.43,632.8469 2989,652.4969 C3199.62,747.4969 3444.63,861.9769 3579.29,925.2469 " fill="#FFFFFF" fill-opacity="0.00000" id="DiffractionExperimentWithSample-backto-RotationExperiment" style="stroke:#181818;stroke-width:1;"/><polygon fill="#FFFFFF" fill-opacity="0.00000" points="2859.07,595.1369,2873.1848,607.8165,2877.9696,596.8117,2859.07,595.1369" style="stroke:#181818;stroke-width:1;"/></g><!--reverse link WithHyperionUDCFeatures to RotationExperiment--><g id="link_WithHyperionUDCFeatures_RotationExperiment"><path codeLine="171" d="M3599.8701,776.7443 C3617.1801,818.6643 3641.1,876.5769 3661.29,925.4369 " fill="#FFFFFF" fill-opacity="0.00000" id="WithHyperionUDCFeatures-backto-RotationExperiment" style="stroke:#181818;stroke-width:1;"/><polygon fill="#FFFFFF" fill-opacity="0.00000" points="3593,760.1069,3594.3243,779.0343,3605.4159,774.4542,3593,760.1069" style="stroke:#181818;stroke-width:1;"/></g><!--reverse link RotationExperiment to MultiRotationScan--><g id="link_RotationExperiment_MultiRotationScan"><path codeLine="172" d="M3738.1441,1035.5671 C3772.4341,1069.1271 3810.17,1098.9969 3864,1119.7969 C3948.35,1152.4069 4179.92,1139.8269 4270,1147.7969 C4275.89,1148.3169 4281.84,1148.8569 4287.84,1149.4169 " fill="#FFFFFF" fill-opacity="0.00000" id="RotationExperiment-backto-MultiRotationScan" style="stroke:#181818;stroke-width:1;"/><polygon fill="#FFFFFF" fill-opacity="0.00000" points="3725.28,1022.9769,3733.9474,1039.8552,3742.3409,1031.2791,3725.28,1022.9769" style="stroke:#181818;stroke-width:1;"/></g><!--reverse link SplitScan to MultiRotationScan--><g id="link_SplitScan_MultiRotationScan"><path codeLine="173" d="M1736.1902,189.2601 C1748.1002,203.7701 1754.06,207.3169 1774,215.7869 C1948.79,290.0069 3296.37,235.7769 3482,275.7869 C3816.61,347.8969 4716.36,576.2469 4907,860.5369 C4971.18,956.2369 4981.36,1031.7769 4907,1119.7969 C4893.96,1135.2369 4864.6,1146.6369 4828.16,1155.0769 " fill="#FFFFFF" fill-opacity="0.00000" id="SplitScan-backto-MultiRotationScan" style="stroke:#181818;stroke-width:1;"/><polygon fill="#FFFFFF" fill-opacity="0.00000" points="1724.77,175.3469,1731.5524,193.0669,1740.828,185.4534,1724.77,175.3469" style="stroke:#181818;stroke-width:1;"/></g><!--SRC=[bLVRRjms47ssle9lRe7QGFAS5d3MJbeWJesiumO8388hpKg49P8WAMVbZV-zGrBIwhuR-C7BCnUU6SuCgVFxZ1kovJaG_CzAAozI4A2PXOHiAj8igCgPi6MHNwegYYotQF1tfK1pASWTqwm02vhSoWJoo80b0X6ZM0nhK2YsKXCX1KGHOayi1LBiw2OlmJnLbx4i2YakLUF6a7raPGesGvVxACwPCUHVPN4lbd-KWiihaUQmjanRiu_Ejhbablmadt438Wj86JLEHXD81rALyLbPl21xOafrlRxMhBvLBmCQkrghB1ga6Y4l1wHnz1-tsGCttA8ZOpNP02joZWdpgsSd2JyJG0RSM6ebTKeqbk8PDAQDAcQpeCI5GGZpHPM6BTyDea4V4EEHU4TCn42BFfErOCfaqf6vGwV4r6iqqDwoYivojFtktJusVbirVmYcbodlDcPYtqEQKxt1CakhLSP42liHsuA9X89NeV3STyaAbJiJBYmnVa5v4fODgu2gCdwQnBbeFQuLn7pB8VceUT9dUeSSc8D343L5vL2gIr6goMIkLSvjF-mcv77frBp65LGBgZd1J3sjG5YD3PZZaU6MkC-zL9_VLxTijvAbiAs46F-Bnjx0e9FNSGEskRdFDC3rA1Kf0c_2oNSRoC5lnx0B4XGr_0K6hJ96NwPrtuxxgWkvamwxcB2ekekNPh6HCYSKHnO2vORAxHP_cpQFjxltOKgrGywTrzgLfENn0ovT_jhHHGit0Ubpm5ilrtoxrSpd-cRdfcQ1cQuxtGrVwiPb4mNib3Ib1cfHZPgWvMOask0HQfwceDsa9JRyzflsIXiBaegos82EpgvmFulk7XW6qjQ-Ft18AAkbpUPMCs4ARXnzwZX7P_yOLMqEjEznxEDbWHY55gGMqS3Ku7Z00TyT5Jx7fG6g9GzacyIuAbhvyT_MqKRkXaVjQeZ-u8dDEk0eJR_0ynTpmbLT5zqEcppJxaXwzNyJzrrMNvpz6ozu_IHP4lfs9NF71_FoHMwaTOBx34GG4kqmYlGIYbqgwjQDpcxBtF8lqZB7o_KdAHo2cGyGDOXDfDyHRoxqw_fwy2LlzZrjvzBftYGf1Bs3_8wBUwu2GKVrcsPLMEsNKzdbUmTw_GD0jIQZ2xtHljhXawMDY-6gCN4nrlNIixZs9UaQjZLB6YZqZu1TQUXpOkeDUP5EiZm4tIHjTZmUp4UdY36-2y9pJ_pyBs8pzeEBr1TrRvWt-tozNdq0vihJ3Q86hQ4FEKlnELVBHynxiwTELLPQDxUa0j7iIzj4jcdY8jRW6yWdzFHMQ-Vei2wHmPKG3e3aktzBJ5N1un_a4uZV2Yve3YArsPzlVdyalM8ErzN4d2RlVbvSZ1igQfzQImgXYPSq1hVhakh4sSsf7peoQ9pIeSjxdEJX5AM3k_4GE4vXmcPoWWQB8yDrT4J7z4-FRtw8BSUuO3TRcvEie-u3_9ZUrFlvc4sdzgULvZwrWirKcqQZH-s2xa2dz-QEci-4ATcHGnwM-v4uEehzJRkaewa85jI6TTnJ6lRsp9KHzQ8-fbf_NoohBPVAajLilH-vzw8P_3JZqzjrubPTvZrdqFk-2wepVawhmt557ECrqfyhgj5TEYo3aSB_]--></g></svg>