<svg xmlns="http://www.w3.org/2000/svg" xmlns:xlink="http://www.w3.org/1999/xlink" contentStyleType="text/css" data-diagram-type="CLASS" height="1104px" preserveAspectRatio="none" style="width:4322px;height:1104px;background:#FFFFFF;" version="1.1" viewBox="0 0 4322 1104" width="4322px" zoomAndPan="magnify"><title>Hyperion Parameter Model</title><defs/><g><g class="title" data-source-line="3"><text fill="#000000" font-family="sans-serif" font-size="14" font-weight="bold" lengthAdjust="spacing" textLength="212.4951" x="2048.1224" y="22.9951">Hyperion Parameter Model</text></g><!--cluster mx_bluesky.common.parameters--><g class="cluster" data-entity="mx_bluesky.common.parameters" data-source-line="6" data-uid="ent0002" id="cluster_mx_bluesky.common.parameters"><path d="M1212.5,43.2969 L1473.8125,43.2969 A3.75,3.75 0 0 1 1476.3125,45.7969 L1483.3125,65.5938 L4033.5,65.5938 A2.5,2.5 0 0 1 4036,68.0938 L4036,822.0269 A2.5,2.5 0 0 1 4033.5,824.5269 L1212.5,824.5269 A2.5,2.5 0 0 1 1210,822.0269 L1210,45.7969 A2.5,2.5 0 0 1 1212.5,43.2969" fill="none" style="stroke:#000000;stroke-width:1.5;"/><line style="stroke:#000000;stroke-width:1.5;" x1="1210" x2="1483.3125" y1="65.5938" y2="65.5938"/><text fill="#000000" font-family="sans-serif" font-size="14" font-weight="bold" lengthAdjust="spacing" textLength="260.3125" x="1214" y="58.292">mx_bluesky.common.parameters</text></g><!--cluster mx_bluesky.hyperion.parameters--><g class="cluster" data-entity="mx_bluesky.hyperion.parameters" data-source-line="71" data-uid="ent0015" id="cluster_mx_bluesky.hyperion.parameters"><path d="M8.5,660.4869 L273.0322,660.4869 A3.75,3.75 0 0 1 275.5322,662.9869 L282.5322,682.7838 L1183.5,682.7838 A2.5,2.5 0 0 1 1186,685.2838 L1186,1095.2169 A2.5,2.5 0 0 1 1183.5,1097.7169 L8.5,1097.7169 A2.5,2.5 0 0 1 6,1095.2169 L6,662.9869 A2.5,2.5 0 0 1 8.5,660.4869" fill="none" style="stroke:#000000;stroke-width:1.5;"/><line style="stroke:#000000;stroke-width:1.5;" x1="6" x2="282.5322" y1="682.7838" y2="682.7838"/><text fill="#000000" font-family="sans-serif" font-size="14" font-weight="bold" lengthAdjust="spacing" textLength="263.5322" x="10" y="675.482">mx_bluesky.hyperion.parameters</text></g><!--class WithSample--><g class="entity" data-entity="WithSample" data-source-line="8" data-uid="ent0003" id="entity_WithSample"><rect fill="#F1F1F1" height="96.8906" rx="2.5" ry="2.5" style="stroke:#181818;stroke-width:0.5;" width="176.3086" x="1886.85" y="102.5869"/><ellipse cx="1928.7243" cy="118.5869" fill="#ADD1B2" rx="11" ry="11" style="stroke:#181818;stroke-width:1;"/><path d="M1931.6931,124.2275 Q1931.1149,124.5244 1930.4743,124.665 Q1929.8337,124.8213 1929.1306,124.8213 Q1926.6306,124.8213 1925.3024,123.1806 Q1923.9899,121.5244 1923.9899,118.3994 Q1923.9899,115.2744 1925.3024,113.6181 Q1926.6306,111.9619 1929.1306,111.9619 Q1929.8337,111.9619 1930.4743,112.1181 Q1931.1306,112.2744 1931.6931,112.5713 L1931.6931,115.29 Q1931.0681,114.7119 1930.4743,114.4463 Q1929.8806,114.165 1929.2556,114.165 Q1927.9118,114.165 1927.2243,115.2431 Q1926.5368,116.3056 1926.5368,118.3994 Q1926.5368,120.4931 1927.2243,121.5713 Q1927.9118,122.6338 1929.2556,122.6338 Q1929.8806,122.6338 1930.4743,122.3681 Q1931.0681,122.0869 1931.6931,121.5088 L1931.6931,124.2275 Z " fill="#000000"/><text fill="#000000" font-family="sans-serif" font-size="14" lengthAdjust="spacing" textLength="84.5879" x="1948.6964" y="123.4336">WithSample</text><line style="stroke:#181818;stroke-width:0.5;" x1="1887.85" x2="2062.1586" y1="134.5869" y2="134.5869"/><text fill="#000000" font-family="sans-serif" font-size="14" lengthAdjust="spacing" textLength="93.3789" x="1892.85" y="151.582">int sample_id</text><text fill="#000000" font-family="sans-serif" font-size="14" lengthAdjust="spacing" textLength="164.3086" x="1892.85" y="167.8789">int | None sample_puck</text><text fill="#000000" font-family="sans-serif" font-size="14" lengthAdjust="spacing" textLength="152.3936" x="1892.85" y="184.1757">int | None sample_pin</text><line style="stroke:#181818;stroke-width:0.5;" x1="1887.85" x2="2062.1586" y1="191.4775" y2="191.4775"/></g><!--class WithSnapshot--><g class="entity" data-entity="WithSnapshot" data-source-line="13" data-uid="ent0004" id="entity_WithSnapshot"><rect fill="#F1F1F1" height="96.8906" rx="2.5" ry="2.5" style="stroke:#181818;stroke-width:0.5;" width="289.3477" x="2643.33" y="102.5869"/><ellipse cx="2734.9828" cy="118.5869" fill="#ADD1B2" rx="11" ry="11" style="stroke:#181818;stroke-width:1;"/><path d="M2737.9516,124.2275 Q2737.3735,124.5244 2736.7328,124.665 Q2736.0922,124.8213 2735.3891,124.8213 Q2732.8891,124.8213 2731.561,123.1806 Q2730.2485,121.5244 2730.2485,118.3994 Q2730.2485,115.2744 2731.561,113.6181 Q2732.8891,111.9619 2735.3891,111.9619 Q2736.0922,111.9619 2736.7328,112.1181 Q2737.3891,112.2744 2737.9516,112.5713 L2737.9516,115.29 Q2737.3266,114.7119 2736.7328,114.4463 Q2736.1391,114.165 2735.5141,114.165 Q2734.1703,114.165 2733.4828,115.2431 Q2732.7953,116.3056 2732.7953,118.3994 Q2732.7953,120.4931 2733.4828,121.5713 Q2734.1703,122.6338 2735.5141,122.6338 Q2736.1391,122.6338 2736.7328,122.3681 Q2737.3266,122.0869 2737.9516,121.5088 L2737.9516,124.2275 Z " fill="#000000"/><text fill="#000000" font-family="sans-serif" font-size="14" lengthAdjust="spacing" textLength="97.542" x="2755.4828" y="123.4336">WithSnapshot</text><line style="stroke:#181818;stroke-width:0.5;" x1="2644.33" x2="2931.6777" y1="134.5869" y2="134.5869"/><text fill="#000000" font-family="sans-serif" font-size="14" lengthAdjust="spacing" textLength="169.627" x="2649.33" y="151.582">Path snapshot_directory</text><text fill="#000000" font-family="sans-serif" font-size="14" lengthAdjust="spacing" textLength="277.3477" x="2649.33" y="167.8789">list[float] | None snapshot_omegas_deg</text><text fill="#000000" font-family="sans-serif" font-size="14" lengthAdjust="spacing" textLength="171.7051" x="2649.33" y="184.1757">bool use_grid_snapshots</text><line style="stroke:#181818;stroke-width:0.5;" x1="2644.33" x2="2931.6777" y1="191.4775" y2="191.4775"/></g><!--class WithCentreSelection--><g class="entity" data-entity="WithCentreSelection" data-source-line="18" data-uid="ent0005" id="entity_WithCentreSelection"><rect fill="#F1F1F1" height="64.2969" rx="2.5" ry="2.5" style="stroke:#181818;stroke-width:0.5;" width="618.6689" x="1233.67" y="118.8869"/><ellipse cx="1466.8883" cy="134.8869" fill="#ADD1B2" rx="11" ry="11" style="stroke:#181818;stroke-width:1;"/><path d="M1469.857,140.5275 Q1469.2789,140.8244 1468.6383,140.965 Q1467.9976,141.1213 1467.2945,141.1213 Q1464.7945,141.1213 1463.4664,139.4806 Q1462.1539,137.8244 1462.1539,134.6994 Q1462.1539,131.5744 1463.4664,129.9181 Q1464.7945,128.2619 1467.2945,128.2619 Q1467.9976,128.2619 1468.6383,128.4181 Q1469.2945,128.5744 1469.857,128.8713 L1469.857,131.59 Q1469.232,131.0119 1468.6383,130.7463 Q1468.0445,130.465 1467.4195,130.465 Q1466.0758,130.465 1465.3883,131.5431 Q1464.7008,132.6056 1464.7008,134.6994 Q1464.7008,136.7931 1465.3883,137.8713 Q1466.0758,138.9338 1467.4195,138.9338 Q1468.0445,138.9338 1468.6383,138.6681 Q1469.232,138.3869 1469.857,137.8088 L1469.857,140.5275 Z " fill="#000000"/><text fill="#000000" font-family="sans-serif" font-size="14" lengthAdjust="spacing" textLength="143.7324" x="1487.3883" y="139.7336">WithCentreSelection</text><line style="stroke:#181818;stroke-width:0.5;" x1="1234.67" x2="1851.3389" y1="150.8869" y2="150.8869"/><text fill="#000000" font-family="sans-serif" font-size="14" lengthAdjust="spacing" textLength="606.6689" x="1239.67" y="167.882">TopNByMaxCountSelection | TopNByMaxCountForEachSampleSelection select_centres</text><line style="stroke:#181818;stroke-width:0.5;" x1="1234.67" x2="1851.3389" y1="175.1838" y2="175.1838"/></g><!--class OptionalGonioAngleStarts--><g class="entity" data-entity="OptionalGonioAngleStarts" data-source-line="21" data-uid="ent0006" id="entity_OptionalGonioAngleStarts"><rect fill="#F1F1F1" height="113.1875" rx="2.5" ry="2.5" style="stroke:#181818;stroke-width:0.5;" width="219.3203" x="3275.34" y="94.4469"/><ellipse cx="3293.0633" cy="110.4469" fill="#ADD1B2" rx="11" ry="11" style="stroke:#181818;stroke-width:1;"/><path d="M3296.032,116.0875 Q3295.4539,116.3844 3294.8133,116.525 Q3294.1727,116.6813 3293.4695,116.6813 Q3290.9695,116.6813 3289.6414,115.0406 Q3288.3289,113.3844 3288.3289,110.2594 Q3288.3289,107.1344 3289.6414,105.4781 Q3290.9695,103.8219 3293.4695,103.8219 Q3294.1727,103.8219 3294.8133,103.9781 Q3295.4695,104.1344 3296.032,104.4313 L3296.032,107.15 Q3295.407,106.5719 3294.8133,106.3063 Q3294.2195,106.025 3293.5945,106.025 Q3292.2508,106.025 3291.5633,107.1031 Q3290.8758,108.1656 3290.8758,110.2594 Q3290.8758,112.3531 3291.5633,113.4313 Q3292.2508,114.4938 3293.5945,114.4938 Q3294.2195,114.4938 3294.8133,114.2281 Q3295.407,113.9469 3296.032,113.3688 L3296.032,116.0875 Z " fill="#000000"/><text fill="#000000" font-family="sans-serif" font-size="14" lengthAdjust="spacing" textLength="181.2686" x="3307.6685" y="115.2936">OptionalGonioAngleStarts</text><line style="stroke:#181818;stroke-width:0.5;" x1="3276.34" x2="3493.6603" y1="126.4469" y2="126.4469"/><text fill="#000000" font-family="sans-serif" font-size="14" lengthAdjust="spacing" textLength="207.3203" x="3281.34" y="143.442">float | None omega_start_deg</text><text fill="#000000" font-family="sans-serif" font-size="14" lengthAdjust="spacing" textLength="180.6875" x="3281.34" y="159.7389">float | None phi_start_deg</text><text fill="#000000" font-family="sans-serif" font-size="14" lengthAdjust="spacing" textLength="179.498" x="3281.34" y="176.0357">float | None chi_start_deg</text><text fill="#000000" font-family="sans-serif" font-size="14" lengthAdjust="spacing" textLength="202.0771" x="3281.34" y="192.3326">float | None kappa_start_deg</text><line style="stroke:#181818;stroke-width:0.5;" x1="3276.34" x2="3493.6603" y1="199.6344" y2="199.6344"/></g><!--class SplitScan--><g class="entity" data-entity="SplitScan" data-source-line="27" data-uid="ent0007" id="entity_SplitScan"><rect fill="#F1F1F1" height="48" rx="2.5" ry="2.5" style="stroke:#181818;stroke-width:0.5;" width="97.0781" x="3529.46" y="127.0369"/><ellipse cx="3544.46" cy="143.0369" fill="#ADD1B2" rx="11" ry="11" style="stroke:#181818;stroke-width:1;"/><path d="M3547.4288,148.6775 Q3546.8506,148.9744 3546.21,149.115 Q3545.5694,149.2713 3544.8663,149.2713 Q3542.3663,149.2713 3541.0381,147.6306 Q3539.7256,145.9744 3539.7256,142.8494 Q3539.7256,139.7244 3541.0381,138.0681 Q3542.3663,136.4119 3544.8663,136.4119 Q3545.5694,136.4119 3546.21,136.5681 Q3546.8663,136.7244 3547.4288,137.0213 L3547.4288,139.74 Q3546.8038,139.1619 3546.21,138.8963 Q3545.6163,138.615 3544.9913,138.615 Q3543.6475,138.615 3542.96,139.6931 Q3542.2725,140.7556 3542.2725,142.8494 Q3542.2725,144.9431 3542.96,146.0213 Q3543.6475,147.0838 3544.9913,147.0838 Q3545.6163,147.0838 3546.21,146.8181 Q3546.8038,146.5369 3547.4288,145.9588 L3547.4288,148.6775 Z " fill="#000000"/><text fill="#000000" font-family="sans-serif" font-size="14" lengthAdjust="spacing" textLength="65.0781" x="3558.46" y="147.8836">SplitScan</text><line style="stroke:#181818;stroke-width:0.5;" x1="3530.46" x2="3625.5381" y1="159.0369" y2="159.0369"/><line style="stroke:#181818;stroke-width:0.5;" x1="3530.46" x2="3625.5381" y1="167.0369" y2="167.0369"/></g><!--class WithPandaGridScan--><g class="entity" data-entity="WithPandaGridScan" data-source-line="29" data-uid="ent0008" id="entity_WithPandaGridScan"><rect fill="#F1F1F1" height="64.2969" rx="2.5" ry="2.5" style="stroke:#181818;stroke-width:0.5;" width="240.5664" x="2097.72" y="118.8869"/><ellipse cx="2144.3172" cy="134.8869" fill="#ADD1B2" rx="11" ry="11" style="stroke:#181818;stroke-width:1;"/><path d="M2147.2859,140.5275 Q2146.7078,140.8244 2146.0672,140.965 Q2145.4265,141.1213 2144.7234,141.1213 Q2142.2234,141.1213 2140.8953,139.4806 Q2139.5828,137.8244 2139.5828,134.6994 Q2139.5828,131.5744 2140.8953,129.9181 Q2142.2234,128.2619 2144.7234,128.2619 Q2145.4265,128.2619 2146.0672,128.4181 Q2146.7234,128.5744 2147.2859,128.8713 L2147.2859,131.59 Q2146.6609,131.0119 2146.0672,130.7463 Q2145.4734,130.465 2144.8484,130.465 Q2143.5047,130.465 2142.8172,131.5431 Q2142.1297,132.6056 2142.1297,134.6994 Q2142.1297,136.7931 2142.8172,137.8713 Q2143.5047,138.9338 2144.8484,138.9338 Q2145.4734,138.9338 2146.0672,138.6681 Q2146.6609,138.3869 2147.2859,137.8088 L2147.2859,140.5275 Z " fill="#000000"/><text fill="#000000" font-family="sans-serif" font-size="14" lengthAdjust="spacing" textLength="138.8721" x="2164.8172" y="139.7336">WithPandaGridScan</text><line style="stroke:#181818;stroke-width:0.5;" x1="2098.72" x2="2337.2864" y1="150.8869" y2="150.8869"/><text fill="#000000" font-family="sans-serif" font-size="14" lengthAdjust="spacing" textLength="228.5664" x="2103.72" y="167.882">float panda_runup_distance_mm</text><line style="stroke:#181818;stroke-width:0.5;" x1="2098.72" x2="2337.2864" y1="175.1838" y2="175.1838"/></g><!--class WithVisit--><g class="entity" data-entity="WithVisit" data-source-line="32" data-uid="ent0009" id="entity_WithVisit"><rect fill="#F1F1F1" height="129.4844" rx="2.5" ry="2.5" style="stroke:#181818;stroke-width:0.5;" width="271.7861" x="2968.11" y="86.2969"/><ellipse cx="3068.6359" cy="102.2969" fill="#ADD1B2" rx="11" ry="11" style="stroke:#181818;stroke-width:1;"/><path d="M3071.6046,107.9375 Q3071.0265,108.2344 3070.3859,108.375 Q3069.7453,108.5313 3069.0421,108.5313 Q3066.5421,108.5313 3065.214,106.8906 Q3063.9015,105.2344 3063.9015,102.1094 Q3063.9015,98.9844 3065.214,97.3281 Q3066.5421,95.6719 3069.0421,95.6719 Q3069.7453,95.6719 3070.3859,95.8281 Q3071.0421,95.9844 3071.6046,96.2813 L3071.6046,99 Q3070.9796,98.4219 3070.3859,98.1563 Q3069.7921,97.875 3069.1671,97.875 Q3067.8234,97.875 3067.1359,98.9531 Q3066.4484,100.0156 3066.4484,102.1094 Q3066.4484,104.2031 3067.1359,105.2813 Q3067.8234,106.3438 3069.1671,106.3438 Q3069.7921,106.3438 3070.3859,106.0781 Q3070.9796,105.7969 3071.6046,105.2188 L3071.6046,107.9375 Z " fill="#000000"/><text fill="#000000" font-family="sans-serif" font-size="14" lengthAdjust="spacing" textLength="62.2344" x="3089.1359" y="107.1436">WithVisit</text><line style="stroke:#181818;stroke-width:0.5;" x1="2969.11" x2="3238.8961" y1="118.2969" y2="118.2969"/><text fill="#000000" font-family="sans-serif" font-size="14" lengthAdjust="spacing" textLength="87.9717" x="2974.11" y="135.292">str beamline</text><text fill="#000000" font-family="sans-serif" font-size="14" lengthAdjust="spacing" textLength="51.8369" x="2974.11" y="151.5889">str visit</text><text fill="#000000" font-family="sans-serif" font-size="14" lengthAdjust="spacing" textLength="259.7861" x="2974.11" y="167.8857">str det_dist_to_beam_converter_path</text><text fill="#000000" font-family="sans-serif" font-size="14" lengthAdjust="spacing" textLength="131.5918" x="2974.11" y="184.1826">str insertion_prefix</text><text fill="#000000" font-family="sans-serif" font-size="14" lengthAdjust="spacing" textLength="245.752" x="2974.11" y="200.4795">float | None detector_distance_mm</text><line style="stroke:#181818;stroke-width:0.5;" x1="2969.11" x2="3238.8961" y1="207.7813" y2="207.7813"/></g><!--class WithOptionalEnergyChange--><g class="entity" data-entity="WithOptionalEnergyChange" data-source-line="39" data-uid="ent0010" id="entity_WithOptionalEnergyChange"><rect fill="#F1F1F1" height="64.2969" rx="2.5" ry="2.5" style="stroke:#181818;stroke-width:0.5;" width="235.4463" x="2373.28" y="118.8869"/><ellipse cx="2392.4645" cy="134.8869" fill="#ADD1B2" rx="11" ry="11" style="stroke:#181818;stroke-width:1;"/><path d="M2395.4332,140.5275 Q2394.8551,140.8244 2394.2145,140.965 Q2393.5738,141.1213 2392.8707,141.1213 Q2390.3707,141.1213 2389.0426,139.4806 Q2387.7301,137.8244 2387.7301,134.6994 Q2387.7301,131.5744 2389.0426,129.9181 Q2390.3707,128.2619 2392.8707,128.2619 Q2393.5738,128.2619 2394.2145,128.4181 Q2394.8707,128.5744 2395.4332,128.8713 L2395.4332,131.59 Q2394.8082,131.0119 2394.2145,130.7463 Q2393.6207,130.465 2392.9957,130.465 Q2391.652,130.465 2390.9645,131.5431 Q2390.277,132.6056 2390.277,134.6994 Q2390.277,136.7931 2390.9645,137.8713 Q2391.652,138.9338 2392.9957,138.9338 Q2393.6207,138.9338 2394.2145,138.6681 Q2394.8082,138.3869 2395.4332,137.8088 L2395.4332,140.5275 Z " fill="#000000"/><text fill="#000000" font-family="sans-serif" font-size="14" lengthAdjust="spacing" textLength="194.1475" x="2407.3944" y="139.7336">WithOptionalEnergyChange</text><line style="stroke:#181818;stroke-width:0.5;" x1="2374.28" x2="2607.7263" y1="150.8869" y2="150.8869"/><text fill="#000000" font-family="sans-serif" font-size="14" lengthAdjust="spacing" textLength="223.4463" x="2379.28" y="167.882">float | None demand_energy_ev</text><line style="stroke:#181818;stroke-width:0.5;" x1="2374.28" x2="2607.7263" y1="175.1838" y2="175.1838"/></g><!--class DiffractionExperimentWithSample--><g class="entity" data-entity="DiffractionExperimentWithSample" data-source-line="44" data-uid="ent0011" id="entity_DiffractionExperimentWithSample"><rect fill="#F1F1F1" height="48" rx="2.5" ry="2.5" style="stroke:#181818;stroke-width:0.5;" width="270.8545" x="3681.57" y="546.7469"/><ellipse cx="3696.57" cy="562.7469" fill="#ADD1B2" rx="11" ry="11" style="stroke:#181818;stroke-width:1;"/><path d="M3699.5388,568.3875 Q3698.9606,568.6844 3698.32,568.825 Q3697.6794,568.9813 3696.9763,568.9813 Q3694.4763,568.9813 3693.1481,567.3406 Q3691.8356,565.6844 3691.8356,562.5594 Q3691.8356,559.4344 3693.1481,557.7781 Q3694.4763,556.1219 3696.9763,556.1219 Q3697.6794,556.1219 3698.32,556.2781 Q3698.9763,556.4344 3699.5388,556.7313 L3699.5388,559.45 Q3698.9138,558.8719 3698.32,558.6063 Q3697.7263,558.325 3697.1013,558.325 Q3695.7575,558.325 3695.07,559.4031 Q3694.3825,560.4656 3694.3825,562.5594 Q3694.3825,564.6531 3695.07,565.7313 Q3695.7575,566.7938 3697.1013,566.7938 Q3697.7263,566.7938 3698.32,566.5281 Q3698.9138,566.2469 3699.5388,565.6688 L3699.5388,568.3875 Z " fill="#000000"/><text fill="#000000" font-family="sans-serif" font-size="14" lengthAdjust="spacing" textLength="238.8545" x="3710.57" y="567.5936">DiffractionExperimentWithSample</text><line style="stroke:#181818;stroke-width:0.5;" x1="3682.57" x2="3951.4245" y1="578.7469" y2="578.7469"/><line style="stroke:#181818;stroke-width:0.5;" x1="3682.57" x2="3951.4245" y1="586.7469" y2="586.7469"/></g><!--class MxBlueskyParameters--><g class="entity" data-entity="MxBlueskyParameters" data-source-line="46" data-uid="ent0012" id="entity_MxBlueskyParameters"><rect fill="#F1F1F1" height="64.2969" rx="2.5" ry="2.5" style="stroke:#181818;stroke-width:0.5;" width="317.4639" x="3663.27" y="118.8869"/><ellipse cx="3739.8564" cy="134.8869" fill="#ADD1B2" rx="11" ry="11" style="stroke:#181818;stroke-width:1;"/><path d="M3742.8252,140.5275 Q3742.2471,140.8244 3741.6064,140.965 Q3740.9658,141.1213 3740.2627,141.1213 Q3737.7627,141.1213 3736.4346,139.4806 Q3735.1221,137.8244 3735.1221,134.6994 Q3735.1221,131.5744 3736.4346,129.9181 Q3737.7627,128.2619 3740.2627,128.2619 Q3740.9658,128.2619 3741.6064,128.4181 Q3742.2627,128.5744 3742.8252,128.8713 L3742.8252,131.59 Q3742.2002,131.0119 3741.6064,130.7463 Q3741.0127,130.465 3740.3877,130.465 Q3739.0439,130.465 3738.3564,131.5431 Q3737.6689,132.6056 3737.6689,134.6994 Q3737.6689,136.7931 3738.3564,137.8713 Q3739.0439,138.9338 3740.3877,138.9338 Q3741.0127,138.9338 3741.6064,138.6681 Q3742.2002,138.3869 3742.8252,137.8088 L3742.8252,140.5275 Z " fill="#000000"/><text fill="#000000" font-family="sans-serif" font-size="14" lengthAdjust="spacing" textLength="155.791" x="3760.3564" y="139.7336">MxBlueskyParameters</text><line style="stroke:#181818;stroke-width:0.5;" x1="3664.27" x2="3979.7339" y1="150.8869" y2="150.8869"/><text fill="#000000" font-family="sans-serif" font-size="14" lengthAdjust="spacing" textLength="305.4639" x="3669.27" y="167.882">SemanticVersion parameter_model_version</text><line style="stroke:#181818;stroke-width:0.5;" x1="3664.27" x2="3979.7339" y1="175.1838" y2="175.1838"/></g><!--class DiffractionExperiment--><g class="entity" data-entity="DiffractionExperiment" data-source-line="49" data-uid="ent0013" id="entity_DiffractionExperiment"><rect fill="#F1F1F1" height="210.9688" rx="2.5" ry="2.5" style="stroke:#181818;stroke-width:0.5;" width="332.332" x="3650.83" y="275.7769"/><ellipse cx="3735.6127" cy="291.7769" fill="#ADD1B2" rx="11" ry="11" style="stroke:#181818;stroke-width:1;"/><path d="M3738.5815,297.4175 Q3738.0033,297.7144 3737.3627,297.855 Q3736.7221,298.0113 3736.019,298.0113 Q3733.519,298.0113 3732.1908,296.3706 Q3730.8783,294.7144 3730.8783,291.5894 Q3730.8783,288.4644 3732.1908,286.8081 Q3733.519,285.1519 3736.019,285.1519 Q3736.7221,285.1519 3737.3627,285.3081 Q3738.019,285.4644 3738.5815,285.7613 L3738.5815,288.48 Q3737.9565,287.9019 3737.3627,287.6363 Q3736.769,287.355 3736.144,287.355 Q3734.8002,287.355 3734.1127,288.4331 Q3733.4252,289.4956 3733.4252,291.5894 Q3733.4252,293.6831 3734.1127,294.7613 Q3734.8002,295.8238 3736.144,295.8238 Q3736.769,295.8238 3737.3627,295.5581 Q3737.9565,295.2769 3738.5815,294.6988 L3738.5815,297.4175 Z " fill="#000000"/><text fill="#000000" font-family="sans-serif" font-size="14" lengthAdjust="spacing" textLength="154.2666" x="3756.1127" y="296.6236">DiffractionExperiment</text><line style="stroke:#181818;stroke-width:0.5;" x1="3651.83" x2="3982.162" y1="307.7769" y2="307.7769"/><text fill="#000000" font-family="sans-serif" font-size="14" lengthAdjust="spacing" textLength="91.0137" x="3656.83" y="324.772">str file_name</text><text fill="#000000" font-family="sans-serif" font-size="14" lengthAdjust="spacing" textLength="153.7129" x="3656.83" y="341.0689">float exposure_time_s</text><text fill="#000000" font-family="sans-serif" font-size="14" lengthAdjust="spacing" textLength="89.5029" x="3656.83" y="357.3657">str comment</text><text fill="#000000" font-family="sans-serif" font-size="14" lengthAdjust="spacing" textLength="186.915" x="3656.83" y="373.6626">TriggerMode trigger_mode</text><text fill="#000000" font-family="sans-serif" font-size="14" lengthAdjust="spacing" textLength="157.9854" x="3656.83" y="389.9595">int | None run_number</text><text fill="#000000" font-family="sans-serif" font-size="14" lengthAdjust="spacing" textLength="282.3516" x="3656.83" y="406.2564">ApertureValue | None selected_aperture</text><text fill="#000000" font-family="sans-serif" font-size="14" lengthAdjust="spacing" textLength="159.2979" x="3656.83" y="422.5532">float transmission_frac</text><text fill="#000000" font-family="sans-serif" font-size="14" lengthAdjust="spacing" textLength="320.332" x="3656.83" y="438.8501">IspybExperimentType ispyb_experiment_type</text><text fill="#000000" font-family="sans-serif" font-size="14" lengthAdjust="spacing" textLength="146.1113" x="3656.83" y="455.147">str storage_directory</text><text fill="#000000" font-family="sans-serif" font-size="14" lengthAdjust="spacing" textLength="131.0518" x="3656.83" y="471.4439">bool use_roi_mode</text><line style="stroke:#181818;stroke-width:0.5;" x1="3651.83" x2="3982.162" y1="478.7456" y2="478.7456"/></g><!--class GridCommon--><g class="entity" data-entity="GridCommon" data-source-line="61" data-uid="ent0014" id="entity_GridCommon"><rect fill="#F1F1F1" height="145.7813" rx="2.5" ry="2.5" style="stroke:#181818;stroke-width:0.5;" width="332.332" x="3650.83" y="654.7469"/><ellipse cx="3766.5282" cy="670.7469" fill="#ADD1B2" rx="11" ry="11" style="stroke:#181818;stroke-width:1;"/><path d="M3769.497,676.3875 Q3768.9189,676.6844 3768.2782,676.825 Q3767.6376,676.9813 3766.9345,676.9813 Q3764.4345,676.9813 3763.1064,675.3406 Q3761.7939,673.6844 3761.7939,670.5594 Q3761.7939,667.4344 3763.1064,665.7781 Q3764.4345,664.1219 3766.9345,664.1219 Q3767.6376,664.1219 3768.2782,664.2781 Q3768.9345,664.4344 3769.497,664.7313 L3769.497,667.45 Q3768.872,666.8719 3768.2782,666.6063 Q3767.6845,666.325 3767.0595,666.325 Q3765.7157,666.325 3765.0282,667.4031 Q3764.3407,668.4656 3764.3407,670.5594 Q3764.3407,672.6531 3765.0282,673.7313 Q3765.7157,674.7938 3767.0595,674.7938 Q3767.6845,674.7938 3768.2782,674.5281 Q3768.872,674.2469 3769.497,673.6688 L3769.497,676.3875 Z " fill="#000000"/><text fill="#000000" font-family="sans-serif" font-size="14" lengthAdjust="spacing" textLength="92.4355" x="3787.0282" y="675.5936">GridCommon</text><line style="stroke:#181818;stroke-width:0.5;" x1="3651.83" x2="3982.162" y1="686.7469" y2="686.7469"/><text fill="#000000" font-family="sans-serif" font-size="14" lengthAdjust="spacing" textLength="125.2959" x="3656.83" y="703.742">float box_size_um</text><text fill="#000000" font-family="sans-serif" font-size="14" lengthAdjust="spacing" textLength="138.4209" x="3656.83" y="720.0389">float grid_width_um</text><text fill="#000000" font-family="sans-serif" font-size="14" lengthAdjust="spacing" textLength="153.7129" x="3656.83" y="736.3357">float exposure_time_s</text><text fill="#000000" font-family="sans-serif" font-size="14" lengthAdjust="spacing" textLength="320.332" x="3656.83" y="752.6326">IspybExperimentType ispyb_experiment_type</text><text fill="#000000" font-family="sans-serif" font-size="14" lengthAdjust="spacing" textLength="282.3516" x="3656.83" y="768.9295">ApertureValue | None selected_aperture</text><text fill="#000000" font-family="sans-serif" font-size="14" lengthAdjust="spacing" textLength="130.498" x="3656.83" y="785.2264">float tip_offset_um</text><line style="stroke:#181818;stroke-width:0.5;" x1="3651.83" x2="3982.162" y1="792.5281" y2="792.5281"/></g><!--class LoadCentreCollect--><g class="entity" data-entity="LoadCentreCollect" data-source-line="72" data-uid="ent0016" id="entity_LoadCentreCollect"><rect fill="#F1F1F1" height="80.5938" rx="2.5" ry="2.5" style="stroke:#181818;stroke-width:0.5;" width="338.6211" x="58.69" y="868.6769"/><ellipse cx="159.315" cy="884.6769" fill="#ADD1B2" rx="11" ry="11" style="stroke:#181818;stroke-width:1;"/><path d="M162.2838,890.3175 Q161.7056,890.6144 161.065,890.755 Q160.4244,890.9113 159.7213,890.9113 Q157.2213,890.9113 155.8931,889.2706 Q154.5806,887.6144 154.5806,884.4894 Q154.5806,881.3644 155.8931,879.7081 Q157.2213,878.0519 159.7213,878.0519 Q160.4244,878.0519 161.065,878.2081 Q161.7213,878.3644 162.2838,878.6613 L162.2838,881.38 Q161.6588,880.8019 161.065,880.5363 Q160.4713,880.255 159.8463,880.255 Q158.5025,880.255 157.815,881.3331 Q157.1275,882.3956 157.1275,884.4894 Q157.1275,886.5831 157.815,887.6613 Q158.5025,888.7238 159.8463,888.7238 Q160.4713,888.7238 161.065,888.4581 Q161.6588,888.1769 162.2838,887.5988 L162.2838,890.3175 Z " fill="#000000"/><text fill="#000000" font-family="sans-serif" font-size="14" lengthAdjust="spacing" textLength="128.8711" x="179.815" y="889.5236">LoadCentreCollect</text><line style="stroke:#181818;stroke-width:0.5;" x1="59.69" x2="396.3111" y1="900.6769" y2="900.6769"/><text fill="#000000" font-family="sans-serif" font-size="14" lengthAdjust="spacing" textLength="326.6211" x="64.69" y="917.672">RobotLoadThenCentre robot_load_then_centre</text><text fill="#000000" font-family="sans-serif" font-size="14" lengthAdjust="spacing" textLength="235.0947" x="64.69" y="933.9689">RotationScan multi_rotation_scan</text><line style="stroke:#181818;stroke-width:0.5;" x1="59.69" x2="396.3111" y1="941.2706" y2="941.2706"/></g><!--class RotationExperiment--><g class="entity" data-entity="RotationExperiment" data-source-line="76" data-uid="ent0017" id="entity_RotationExperiment"><rect fill="#F1F1F1" height="96.8906" rx="2.5" ry="2.5" style="stroke:#181818;stroke-width:0.5;" width="332.332" x="837.83" y="860.5269"/><ellipse cx="929.7118" cy="876.5269" fill="#ADD1B2" rx="11" ry="11" style="stroke:#181818;stroke-width:1;"/><path d="M932.6806,882.1675 Q932.1025,882.4644 931.4618,882.605 Q930.8212,882.7613 930.1181,882.7613 Q927.6181,882.7613 926.29,881.1206 Q924.9775,879.4644 924.9775,876.3394 Q924.9775,873.2144 926.29,871.5581 Q927.6181,869.9019 930.1181,869.9019 Q930.8212,869.9019 931.4618,870.0581 Q932.1181,870.2144 932.6806,870.5113 L932.6806,873.23 Q932.0556,872.6519 931.4618,872.3863 Q930.8681,872.105 930.2431,872.105 Q928.8993,872.105 928.2118,873.1831 Q927.5243,874.2456 927.5243,876.3394 Q927.5243,878.4331 928.2118,879.5113 Q928.8993,880.5738 930.2431,880.5738 Q930.8681,880.5738 931.4618,880.3081 Q932.0556,880.0269 932.6806,879.4488 L932.6806,882.1675 Z " fill="#000000"/><text fill="#000000" font-family="sans-serif" font-size="14" lengthAdjust="spacing" textLength="140.0684" x="950.2118" y="881.3736">RotationExperiment</text><line style="stroke:#181818;stroke-width:0.5;" x1="838.83" x2="1169.162" y1="892.5269" y2="892.5269"/><text fill="#000000" font-family="sans-serif" font-size="14" lengthAdjust="spacing" textLength="202.8018" x="843.83" y="909.522">float shutter_opening_time_s</text><text fill="#000000" font-family="sans-serif" font-size="14" lengthAdjust="spacing" textLength="202.9385" x="843.83" y="925.8189">float rotation_increment_deg</text><text fill="#000000" font-family="sans-serif" font-size="14" lengthAdjust="spacing" textLength="320.332" x="843.83" y="942.1157">IspybExperimentType ispyb_experiment_type</text><line style="stroke:#181818;stroke-width:0.5;" x1="838.83" x2="1169.162" y1="949.4175" y2="949.4175"/></g><!--class PinTipCentreThenXrayCentre--><g class="entity" data-entity="PinTipCentreThenXrayCentre" data-source-line="81" data-uid="ent0018" id="entity_PinTipCentreThenXrayCentre"><rect fill="#F1F1F1" height="64.2969" rx="2.5" ry="2.5" style="stroke:#181818;stroke-width:0.5;" width="235.8955" x="68.05" y="1017.4169"/><ellipse cx="83.05" cy="1033.4169" fill="#ADD1B2" rx="11" ry="11" style="stroke:#181818;stroke-width:1;"/><path d="M86.0188,1039.0575 Q85.4406,1039.3544 84.8,1039.495 Q84.1594,1039.6513 83.4563,1039.6513 Q80.9563,1039.6513 79.6281,1038.0106 Q78.3156,1036.3544 78.3156,1033.2294 Q78.3156,1030.1044 79.6281,1028.4481 Q80.9563,1026.7919 83.4563,1026.7919 Q84.1594,1026.7919 84.8,1026.9481 Q85.4563,1027.1044 86.0188,1027.4013 L86.0188,1030.12 Q85.3938,1029.5419 84.8,1029.2763 Q84.2063,1028.995 83.5813,1028.995 Q82.2375,1028.995 81.55,1030.0731 Q80.8625,1031.1356 80.8625,1033.2294 Q80.8625,1035.3231 81.55,1036.4013 Q82.2375,1037.4638 83.5813,1037.4638 Q84.2063,1037.4638 84.8,1037.1981 Q85.3938,1036.9169 86.0188,1036.3388 L86.0188,1039.0575 Z " fill="#000000"/><text fill="#000000" font-family="sans-serif" font-size="14" lengthAdjust="spacing" textLength="203.8955" x="97.05" y="1038.2636">PinTipCentreThenXrayCentre</text><line style="stroke:#181818;stroke-width:0.5;" x1="69.05" x2="302.9455" y1="1049.4169" y2="1049.4169"/><text fill="#000000" font-family="sans-serif" font-size="14" lengthAdjust="spacing" textLength="130.498" x="74.05" y="1066.412">float tip_offset_um</text><line style="stroke:#181818;stroke-width:0.5;" x1="69.05" x2="302.9455" y1="1073.7138" y2="1073.7138"/></g><!--class GridCommonWithHyperionDetectorParams--><g class="entity" data-entity="GridCommonWithHyperionDetectorParams" data-source-line="84" data-uid="ent0019" id="entity_GridCommonWithHyperionDetectorParams"><rect fill="#F1F1F1" height="48" rx="2.5" ry="2.5" style="stroke:#181818;stroke-width:0.5;" width="333.2188" x="469.39" y="884.9769"/><ellipse cx="484.39" cy="900.9769" fill="#ADD1B2" rx="11" ry="11" style="stroke:#181818;stroke-width:1;"/><path d="M487.3588,906.6175 Q486.7806,906.9144 486.14,907.055 Q485.4994,907.2113 484.7963,907.2113 Q482.2963,907.2113 480.9681,905.5706 Q479.6556,903.9144 479.6556,900.7894 Q479.6556,897.6644 480.9681,896.0081 Q482.2963,894.3519 484.7963,894.3519 Q485.4994,894.3519 486.14,894.5081 Q486.7963,894.6644 487.3588,894.9613 L487.3588,897.68 Q486.7338,897.1019 486.14,896.8363 Q485.5463,896.555 484.9213,896.555 Q483.5775,896.555 482.89,897.6331 Q482.2025,898.6956 482.2025,900.7894 Q482.2025,902.8831 482.89,903.9613 Q483.5775,905.0238 484.9213,905.0238 Q485.5463,905.0238 486.14,904.7581 Q486.7338,904.4769 487.3588,903.8988 L487.3588,906.6175 Z " fill="#000000"/><text fill="#000000" font-family="sans-serif" font-size="14" lengthAdjust="spacing" textLength="301.2188" x="498.39" y="905.8236">GridCommonWithHyperionDetectorParams</text><line style="stroke:#181818;stroke-width:0.5;" x1="470.39" x2="801.6088" y1="916.9769" y2="916.9769"/><line style="stroke:#181818;stroke-width:0.5;" x1="470.39" x2="801.6088" y1="924.9769" y2="924.9769"/></g><!--class WithHyperionUDCFeatures--><g class="entity" data-entity="WithHyperionUDCFeatures" data-source-line="86" data-uid="ent0020" id="entity_WithHyperionUDCFeatures"><rect fill="#F1F1F1" height="64.2969" rx="2.5" ry="2.5" style="stroke:#181818;stroke-width:0.5;" width="228.6719" x="436.66" y="695.4869"/><ellipse cx="455.7583" cy="711.4869" fill="#ADD1B2" rx="11" ry="11" style="stroke:#181818;stroke-width:1;"/><path d="M458.7271,717.1275 Q458.149,717.4244 457.5083,717.565 Q456.8677,717.7213 456.1646,717.7213 Q453.6646,717.7213 452.3365,716.0806 Q451.024,714.4244 451.024,711.2994 Q451.024,708.1744 452.3365,706.5181 Q453.6646,704.8619 456.1646,704.8619 Q456.8677,704.8619 457.5083,705.0181 Q458.1646,705.1744 458.7271,705.4713 L458.7271,708.19 Q458.1021,707.6119 457.5083,707.3463 Q456.9146,707.065 456.2896,707.065 Q454.9458,707.065 454.2583,708.1431 Q453.5708,709.2056 453.5708,711.2994 Q453.5708,713.3931 454.2583,714.4713 Q454.9458,715.5338 456.2896,715.5338 Q456.9146,715.5338 457.5083,715.2681 Q458.1021,714.9869 458.7271,714.4088 L458.7271,717.1275 Z " fill="#000000"/><text fill="#000000" font-family="sans-serif" font-size="14" lengthAdjust="spacing" textLength="187.5645" x="470.6691" y="716.3336">WithHyperionUDCFeatures</text><line style="stroke:#181818;stroke-width:0.5;" x1="437.66" x2="664.3319" y1="727.4869" y2="727.4869"/><text fill="#000000" font-family="sans-serif" font-size="14" lengthAdjust="spacing" textLength="216.6719" x="442.66" y="744.482">HyperionFeatureFlags features</text><line style="stroke:#181818;stroke-width:0.5;" x1="437.66" x2="664.3319" y1="751.7838" y2="751.7838"/></g><!--class GridScanWithEdgeDetect--><g class="entity" data-entity="GridScanWithEdgeDetect" data-source-line="89" data-uid="ent0021" id="entity_GridScanWithEdgeDetect"><rect fill="#F1F1F1" height="48" rx="2.5" ry="2.5" style="stroke:#181818;stroke-width:0.5;" width="209.4268" x="356.29" y="1025.5669"/><ellipse cx="371.29" cy="1041.5669" fill="#ADD1B2" rx="11" ry="11" style="stroke:#181818;stroke-width:1;"/><path d="M374.2588,1047.2075 Q373.6806,1047.5044 373.04,1047.645 Q372.3994,1047.8013 371.6963,1047.8013 Q369.1963,1047.8013 367.8681,1046.1606 Q366.5556,1044.5044 366.5556,1041.3794 Q366.5556,1038.2544 367.8681,1036.5981 Q369.1963,1034.9419 371.6963,1034.9419 Q372.3994,1034.9419 373.04,1035.0981 Q373.6963,1035.2544 374.2588,1035.5513 L374.2588,1038.27 Q373.6338,1037.6919 373.04,1037.4263 Q372.4463,1037.145 371.8213,1037.145 Q370.4775,1037.145 369.79,1038.2231 Q369.1025,1039.2856 369.1025,1041.3794 Q369.1025,1043.4731 369.79,1044.5513 Q370.4775,1045.6138 371.8213,1045.6138 Q372.4463,1045.6138 373.04,1045.3481 Q373.6338,1045.0669 374.2588,1044.4888 L374.2588,1047.2075 Z " fill="#000000"/><text fill="#000000" font-family="sans-serif" font-size="14" lengthAdjust="spacing" textLength="177.4268" x="385.29" y="1046.4136">GridScanWithEdgeDetect</text><line style="stroke:#181818;stroke-width:0.5;" x1="357.29" x2="564.7168" y1="1057.5669" y2="1057.5669"/><line style="stroke:#181818;stroke-width:0.5;" x1="357.29" x2="564.7168" y1="1065.5669" y2="1065.5669"/></g><!--class RotationScan--><g class="entity" data-entity="RotationScan" data-source-line="91" data-uid="ent0022" id="entity_RotationScan"><rect fill="#F1F1F1" height="64.2969" rx="2.5" ry="2.5" style="stroke:#181818;stroke-width:0.5;" width="540.001" x="630" y="1017.4169"/><ellipse cx="849.1431" cy="1033.4169" fill="#ADD1B2" rx="11" ry="11" style="stroke:#181818;stroke-width:1;"/><path d="M852.1118,1039.0575 Q851.5337,1039.3544 850.8931,1039.495 Q850.2524,1039.6513 849.5493,1039.6513 Q847.0493,1039.6513 845.7212,1038.0106 Q844.4087,1036.3544 844.4087,1033.2294 Q844.4087,1030.1044 845.7212,1028.4481 Q847.0493,1026.7919 849.5493,1026.7919 Q850.2524,1026.7919 850.8931,1026.9481 Q851.5493,1027.1044 852.1118,1027.4013 L852.1118,1030.12 Q851.4868,1029.5419 850.8931,1029.2763 Q850.2993,1028.995 849.6743,1028.995 Q848.3306,1028.995 847.6431,1030.0731 Q846.9556,1031.1356 846.9556,1033.2294 Q846.9556,1035.3231 847.6431,1036.4013 Q848.3306,1037.4638 849.6743,1037.4638 Q850.2993,1037.4638 850.8931,1037.1981 Q851.4868,1036.9169 852.1118,1036.3388 L852.1118,1039.0575 Z " fill="#000000"/><text fill="#000000" font-family="sans-serif" font-size="14" lengthAdjust="spacing" textLength="93.2148" x="869.6431" y="1038.2636">RotationScan</text><line style="stroke:#181818;stroke-width:0.5;" x1="631" x2="1169.001" y1="1049.4169" y2="1049.4169"/><line style="stroke:#181818;stroke-width:0.5;" x1="631" x2="1169.001" y1="1057.4169" y2="1057.4169"/><text fill="#000000" font-family="sans-serif" font-size="14" lengthAdjust="spacing" textLength="528.001" x="636" y="1074.412">Annotated[list[RotationScanPerSweep], Len(min_length=1)] rotation_scans</text></g><!--reverse link MxBlueskyParameters to LoadCentreCollect--><g class="link" data-entity-1="MxBlueskyParameters" data-entity-2="LoadCentreCollect" data-source-line="95" data-uid="lnk23" id="link_MxBlueskyParameters_LoadCentreCollect"><path codeLine="95" d="M3998.5691,171.8163 C4068.5491,187.5963 4126.93,214.7469 4170,275.7769 C4315.74,482.2869 4258.62,684.1369 4054,832.5269 C4013.5,861.8969 501.74,855.1269 452,860.5269 C434.32,862.4469 415.97,865.1469 397.73,868.2969" fill="none" id="MxBlueskyParameters-backto-LoadCentreCollect" style="stroke:#181818;stroke-width:1;"/><polygon fill="none" points="3981.01,167.8569,3997.2493,177.6694,3999.8889,165.9633,3981.01,167.8569" style="stroke:#181818;stroke-width:1;"/></g><!--reverse link WithVisit to LoadCentreCollect--><g class="link" data-entity-1="WithVisit" data-entity-2="LoadCentreCollect" data-source-line="96" data-uid="lnk24" id="link_WithVisit_LoadCentreCollect"><path codeLine="96" d="M3250.0063,222.046 C3258.3563,224.926 3249.72,221.6369 3258,223.7769 C3337.91,244.4369 3942.72,215.4069 3999,275.7769 C4083.37,366.2769 4086.14,744.6969 3999,832.5269 C3964.3,867.5069 500.98,855.2069 452,860.5269 C434.32,862.4569 415.97,865.1569 397.73,868.2969" fill="none" id="WithVisit-backto-LoadCentreCollect" style="stroke:#181818;stroke-width:1;"/><polygon fill="none" points="3232.99,216.1769,3248.0499,227.7181,3251.9626,216.3739,3232.99,216.1769" style="stroke:#181818;stroke-width:1;"/></g><!--reverse link WithSample to LoadCentreCollect--><g class="link" data-entity-1="WithSample" data-entity-2="LoadCentreCollect" data-source-line="97" data-uid="lnk25" id="link_WithSample_LoadCentreCollect"><path codeLine="97" d="M1900.8835,209.7215 C1886.5835,219.1315 1885.86,217.9769 1870,223.7769 C1657.28,301.6269 1582.97,221.7269 1363,275.7769 C924.32,383.5769 777.44,377.5769 419,652.4869 C340.56,712.6469 278.65,813.1269 248.35,868.4469" fill="none" id="WithSample-backto-LoadCentreCollect" style="stroke:#181818;stroke-width:1;"/><polygon fill="none" points="1915.92,199.8269,1897.5853,204.7094,1904.1817,214.7337,1915.92,199.8269" style="stroke:#181818;stroke-width:1;"/></g><!--reverse link WithCentreSelection to LoadCentreCollect--><g class="link" data-entity-1="WithCentreSelection" data-entity-2="LoadCentreCollect" data-source-line="98" data-uid="lnk26" id="link_WithCentreSelection_LoadCentreCollect"><path codeLine="98" d="M1215.382,165.4969 C879.852,182.1069 401.42,215.6269 337,275.7769 C166.66,434.8369 201.96,756.2469 220.54,868.3369" fill="none" id="WithCentreSelection-backto-LoadCentreCollect" style="stroke:#181818;stroke-width:1;"/><polygon fill="none" points="1233.36,164.6069,1215.0854,159.5042,1215.6787,171.4895,1233.36,164.6069" style="stroke:#181818;stroke-width:1;"/></g><!--reverse link WithHyperionUDCFeatures to LoadCentreCollect--><g class="link" data-entity-1="WithHyperionUDCFeatures" data-entity-2="LoadCentreCollect" data-source-line="99" data-uid="lnk27" id="link_WithHyperionUDCFeatures_LoadCentreCollect"><path codeLine="99" d="M490.6222,770.1347 C458.6822,791.6547 429.52,810.1769 389,832.5269 C366.43,844.9869 341.46,857.3369 318.05,868.3369" fill="none" id="WithHyperionUDCFeatures-backto-LoadCentreCollect" style="stroke:#181818;stroke-width:1;"/><polygon fill="none" points="505.55,760.0769,487.2696,765.1588,493.9748,775.1106,505.55,760.0769" style="stroke:#181818;stroke-width:1;"/></g><!--reverse link DiffractionExperimentWithSample to GridCommon--><g class="link" data-entity-1="DiffractionExperimentWithSample" data-entity-2="GridCommon" data-source-line="100" data-uid="lnk28" id="link_DiffractionExperimentWithSample_GridCommon"><path codeLine="100" d="M3817,612.9369 C3817,628.8869 3817,633.0069 3817,654.5669" fill="none" id="DiffractionExperimentWithSample-backto-GridCommon" style="stroke:#181818;stroke-width:1;"/><polygon fill="none" points="3817,594.9369,3811,612.9369,3823,612.9369,3817,594.9369" style="stroke:#181818;stroke-width:1;"/></g><!--reverse link OptionalGonioAngleStarts to GridCommon--><g class="link" data-entity-1="OptionalGonioAngleStarts" data-entity-2="GridCommon" data-source-line="101" data-uid="lnk29" id="link_OptionalGonioAngleStarts_GridCommon"><path codeLine="101" d="M3489.9816,216.0113 C3502.4616,222.1113 3499.22,219.6869 3512,223.7769 C3616.07,257.1269 3927.93,194.5269 4001,275.7769 C4096.24,381.6869 4046.79,474.7869 3970,594.7469 C3956.01,616.6069 3937.32,636.8469 3917.82,654.5769" fill="none" id="OptionalGonioAngleStarts-backto-GridCommon" style="stroke:#181818;stroke-width:1;"/><polygon fill="none" points="3473.81,208.1069,3487.3468,221.4018,3492.6164,210.6207,3473.81,208.1069" style="stroke:#181818;stroke-width:1;"/></g><!--reverse link DiffractionExperiment to RotationExperiment--><g class="link" data-entity-1="DiffractionExperiment" data-entity-2="RotationExperiment" data-source-line="102" data-uid="lnk30" id="link_DiffractionExperiment_RotationExperiment"><path codeLine="102" d="M3632.8063,416.6836 C3133.4163,510.0136 1669.66,783.5669 1170.4,876.8769" fill="none" id="DiffractionExperiment-backto-RotationExperiment" style="stroke:#181818;stroke-width:1;"/><polygon fill="none" points="3650.5,413.3769,3631.7041,410.7857,3633.9086,422.5815,3650.5,413.3769" style="stroke:#181818;stroke-width:1;"/></g><!--reverse link WithHyperionUDCFeatures to RotationExperiment--><g class="link" data-entity-1="WithHyperionUDCFeatures" data-entity-2="RotationExperiment" data-source-line="103" data-uid="lnk31" id="link_WithHyperionUDCFeatures_RotationExperiment"><path codeLine="103" d="M647.4163,766.8124 C717.2363,794.4524 803.01,828.4069 882.96,860.0569" fill="none" id="WithHyperionUDCFeatures-backto-RotationExperiment" style="stroke:#181818;stroke-width:1;"/><polygon fill="none" points="630.68,760.1869,645.2078,772.3911,649.6248,761.2336,630.68,760.1869" style="stroke:#181818;stroke-width:1;"/></g><!--reverse link DiffractionExperiment to DiffractionExperimentWithSample--><g class="link" data-entity-1="DiffractionExperiment" data-entity-2="DiffractionExperimentWithSample" data-source-line="104" data-uid="lnk32" id="link_DiffractionExperiment_DiffractionExperimentWithSample"><path codeLine="104" d="M3817,505.2469 C3817,527.4969 3817,530.8969 3817,546.3269" fill="none" id="DiffractionExperiment-backto-DiffractionExperimentWithSample" style="stroke:#181818;stroke-width:1;"/><polygon fill="none" points="3817,487.2469,3811,505.2469,3823,505.2469,3817,487.2469" style="stroke:#181818;stroke-width:1;"/></g><!--reverse link WithSample to DiffractionExperimentWithSample--><g class="link" data-entity-1="WithSample" data-entity-2="DiffractionExperimentWithSample" data-source-line="105" data-uid="lnk33" id="link_WithSample_DiffractionExperimentWithSample"><path codeLine="105" d="M2051.2585,209.7079 C2065.0785,218.7579 2065.04,217.4869 2080,223.7769 C2644.25,461.0069 3381.26,538.4969 3681.18,561.2269" fill="none" id="WithSample-backto-DiffractionExperimentWithSample" style="stroke:#181818;stroke-width:1;"/><polygon fill="none" points="2036.2,199.8469,2047.9715,214.7274,2054.5456,204.6884,2036.2,199.8469" style="stroke:#181818;stroke-width:1;"/></g><!--reverse link GridCommonWithHyperionDetectorParams to PinTipCentreThenXrayCentre--><g class="link" data-entity-1="GridCommonWithHyperionDetectorParams" data-entity-2="PinTipCentreThenXrayCentre" data-source-line="106" data-uid="lnk34" id="link_GridCommonWithHyperionDetectorParams_PinTipCentreThenXrayCentre"><path codeLine="106" d="M542.7172,938.7043 C468.1572,961.6643 371.2,991.5269 288.64,1016.9569" fill="none" id="GridCommonWithHyperionDetectorParams-backto-PinTipCentreThenXrayCentre" style="stroke:#181818;stroke-width:1;"/><polygon fill="none" points="559.92,933.4069,540.9514,932.97,544.483,944.4386,559.92,933.4069" style="stroke:#181818;stroke-width:1;"/></g><!--reverse link WithHyperionUDCFeatures to PinTipCentreThenXrayCentre--><g class="link" data-entity-1="WithHyperionUDCFeatures" data-entity-2="PinTipCentreThenXrayCentre" data-source-line="107" data-uid="lnk35" id="link_WithHyperionUDCFeatures_PinTipCentreThenXrayCentre"><path codeLine="107" d="M418.545,744.4684 C283.435,762.8884 88.98,798.5669 41,860.5269 C14.64,894.5769 20.17,919.7269 41,957.4169 C55.31,983.3169 80.4,1002.8469 105.73,1017.0569" fill="none" id="WithHyperionUDCFeatures-backto-PinTipCentreThenXrayCentre" style="stroke:#181818;stroke-width:1;"/><polygon fill="none" points="436.38,742.0369,417.7345,738.5234,419.3555,750.4134,436.38,742.0369" style="stroke:#181818;stroke-width:1;"/></g><!--reverse link GridCommon to GridCommonWithHyperionDetectorParams--><g class="link" data-entity-1="GridCommon" data-entity-2="GridCommonWithHyperionDetectorParams" data-source-line="108" data-uid="lnk36" id="link_GridCommon_GridCommonWithHyperionDetectorParams"><path codeLine="108" d="M3632.4133,735.6983 C3022.9333,759.1283 960.57,839.5469 820,860.5269 C784.11,865.8869 745.09,875.3969 712.26,884.5069" fill="none" id="GridCommon-backto-GridCommonWithHyperionDetectorParams" style="stroke:#181818;stroke-width:1;"/><polygon fill="none" points="3650.4,735.0069,3632.1828,729.7028,3632.6438,741.6939,3650.4,735.0069" style="stroke:#181818;stroke-width:1;"/></g><!--reverse link WithHyperionUDCFeatures to GridCommonWithHyperionDetectorParams--><g class="link" data-entity-1="WithHyperionUDCFeatures" data-entity-2="GridCommonWithHyperionDetectorParams" data-source-line="109" data-uid="lnk37" id="link_WithHyperionUDCFeatures_GridCommonWithHyperionDetectorParams"><path codeLine="109" d="M573.5173,776.1433 C590.3473,811.6633 609.75,852.5969 624.88,884.5169" fill="none" id="WithHyperionUDCFeatures-backto-GridCommonWithHyperionDetectorParams" style="stroke:#181818;stroke-width:1;"/><polygon fill="none" points="565.81,759.8769,568.0952,778.7124,578.9395,773.5742,565.81,759.8769" style="stroke:#181818;stroke-width:1;"/></g><!--reverse link WithPandaGridScan to WithHyperionUDCFeatures--><g class="link" data-entity-1="WithPandaGridScan" data-entity-2="WithHyperionUDCFeatures" data-source-line="110" data-uid="lnk38" id="link_WithPandaGridScan_WithHyperionUDCFeatures"><path codeLine="110" d="M2146.8626,192.2582 C2122.3026,205.5982 2108.57,212.1269 2081,223.7769 C1566.57,441.2569 923.43,625.5069 665.63,695.9769" fill="none" id="WithPandaGridScan-backto-WithHyperionUDCFeatures" style="stroke:#181818;stroke-width:1;"/><polygon fill="none" points="2162.68,183.6669,2143.9989,186.9858,2149.7264,197.5307,2162.68,183.6669" style="stroke:#181818;stroke-width:1;"/></g><!--reverse link GridCommonWithHyperionDetectorParams to GridScanWithEdgeDetect--><g class="link" data-entity-1="GridCommonWithHyperionDetectorParams" data-entity-2="GridScanWithEdgeDetect" data-source-line="111" data-uid="lnk39" id="link_GridCommonWithHyperionDetectorParams_GridScanWithEdgeDetect"><path codeLine="111" d="M592.5974,944.3499 C560.2874,969.9299 522.73,999.6769 490.39,1025.2969" fill="none" id="GridCommonWithHyperionDetectorParams-backto-GridScanWithEdgeDetect" style="stroke:#181818;stroke-width:1;"/><polygon fill="none" points="606.71,933.1769,588.8731,939.6457,596.3218,949.0541,606.71,933.1769" style="stroke:#181818;stroke-width:1;"/></g><!--reverse link WithHyperionUDCFeatures to GridScanWithEdgeDetect--><g class="link" data-entity-1="WithHyperionUDCFeatures" data-entity-2="GridScanWithEdgeDetect" data-source-line="112" data-uid="lnk40" id="link_WithHyperionUDCFeatures_GridScanWithEdgeDetect"><path codeLine="112" d="M505.5999,773.1533 C482.1499,797.9033 465,821.5569 452,860.5269 C433.08,917.2669 445.81,988.9769 454.61,1025.2569" fill="none" id="WithHyperionUDCFeatures-backto-GridScanWithEdgeDetect" style="stroke:#181818;stroke-width:1;"/><polygon fill="none" points="517.98,760.0869,501.2444,769.0266,509.9553,777.28,517.98,760.0869" style="stroke:#181818;stroke-width:1;"/></g><!--reverse link RotationExperiment to RotationScan--><g class="link" data-entity-1="RotationExperiment" data-entity-2="RotationScan" data-source-line="113" data-uid="lnk41" id="link_RotationExperiment_RotationScan"><path codeLine="113" d="M957.4077,972.0651 C942.5977,991.8051 936.65,999.7269 923.45,1017.3169" fill="none" id="RotationExperiment-backto-RotationScan" style="stroke:#181818;stroke-width:1;"/><polygon fill="none" points="968.21,957.6669,952.6082,968.4643,962.2071,975.6659,968.21,957.6669" style="stroke:#181818;stroke-width:1;"/></g><!--reverse link SplitScan to RotationScan--><g class="link" data-entity-1="SplitScan" data-entity-2="RotationScan" data-source-line="114" data-uid="lnk42" id="link_SplitScan_RotationScan"><path codeLine="114" d="M3599.3573,190.9159 C3609.1573,207.3059 3615.3,212.7269 3635,223.7769 C3799.04,315.8169 3911.14,154.6069 4055,275.7769 C4159.41,363.7169 4144,433.2369 4144,569.7469 C4144,569.7469 4144,569.7469 4144,728.6369 C4144,789.7269 4108.67,805.2669 4054,832.5269 C3799.33,959.5469 1887.05,1022.5569 1170.26,1041.8969" fill="none" id="SplitScan-backto-RotationScan" style="stroke:#181818;stroke-width:1;"/><polygon fill="none" points="3590.12,175.4669,3594.2077,193.995,3604.507,187.8368,3590.12,175.4669" style="stroke:#181818;stroke-width:1;"/></g><!--reverse link MxBlueskyParameters to DiffractionExperiment--><g class="link" data-entity-1="MxBlueskyParameters" data-entity-2="DiffractionExperiment" data-source-line="115" data-uid="lnk43" id="link_MxBlueskyParameters_DiffractionExperiment"><path codeLine="115" d="M3820.9223,201.2925 C3820.3923,225.2725 3820.03,241.8669 3819.3,275.3869" fill="none" id="MxBlueskyParameters-backto-DiffractionExperiment" style="stroke:#181818;stroke-width:1;"/><polygon fill="none" points="3821.32,183.2969,3814.9237,201.1599,3826.9208,201.4251,3821.32,183.2969" style="stroke:#181818;stroke-width:1;"/></g><!--reverse link WithSnapshot to DiffractionExperiment--><g class="link" data-entity-1="WithSnapshot" data-entity-2="DiffractionExperiment" data-source-line="116" data-uid="lnk44" id="link_WithSnapshot_DiffractionExperiment"><path codeLine="116" d="M2903.1462,206.8967 C2924.0662,215.7867 2929.71,217.2669 2951,223.7769 C3188.79,296.4769 3474.24,339.9869 3650.65,362.0369" fill="none" id="WithSnapshot-backto-DiffractionExperiment" style="stroke:#181818;stroke-width:1;"/><polygon fill="none" points="2886.58,199.8569,2900.7996,212.4188,2905.4929,201.3747,2886.58,199.8569" style="stroke:#181818;stroke-width:1;"/></g><!--reverse link WithOptionalEnergyChange to DiffractionExperiment--><g class="link" data-entity-1="WithOptionalEnergyChange" data-entity-2="DiffractionExperiment" data-source-line="117" data-uid="lnk45" id="link_WithOptionalEnergyChange_DiffractionExperiment"><path codeLine="117" d="M2555.6094,192.6913 C2580.4294,207.2013 2596.04,214.1969 2626,223.7769 C2979.32,336.7869 3416.64,368.2969 3650.66,377.0069" fill="none" id="WithOptionalEnergyChange-backto-DiffractionExperiment" style="stroke:#181818;stroke-width:1;"/><polygon fill="none" points="2540.07,183.6069,2552.5812,197.8711,2558.6375,187.5115,2540.07,183.6069" style="stroke:#181818;stroke-width:1;"/></g><!--reverse link WithVisit to DiffractionExperiment--><g class="link" data-entity-1="WithVisit" data-entity-2="DiffractionExperiment" data-source-line="118" data-uid="lnk46" id="link_WithVisit_DiffractionExperiment"><path codeLine="118" d="M3254.9482,222.8726 C3261.5782,225.5526 3251.5,221.3769 3258,223.7769 C3387.37,271.6569 3538.2,313.0669 3650.56,341.2469" fill="none" id="WithVisit-backto-DiffractionExperiment" style="stroke:#181818;stroke-width:1;"/><polygon fill="none" points="3238.26,216.1269,3252.6996,228.4353,3257.1967,217.3099,3238.26,216.1269" style="stroke:#181818;stroke-width:1;"/></g><!--SRC=[bLPBRziu43vRluAttGAR0Brt3wcJj0MQhh7sPXSe0eAMnX8HyG6IIgsw-Uyx92LPYcGvWGyMPuRVp7ppa7xR5DoI7I-1u3-hdBh8GO9X3ZAohKbxeBfaqbMYlDHraZZkyCBdMeFXIf8LCqo00qFkL0PbOi4HYHAhMGfhqAXsoX2f92G9oXvP3aJiwRQim3xMbwaIGibBtS9OSaYSoi4L27b8qf9PI_xbhbWpeKiu90ik7R7XG7aMZx_8DyHlfRfA7oVbN2RFVKJ9j2sKGymLSmMnpPbct42AKTV9ekJMVT-LYhc73gqrKm9oPca6URBOAbMIoWBD3SzeQs87_fOWdK5EIWH7wj3jHkbl7-ixjb-gIhfEWvw6cbjbRbZQK70qi-69fW7twEilxRMi_AGaLrSonokE6MVHOSYaJIJ4JwtNnIG6MbtmaxfqHlV8jEwZjb6jTSdTEcMOTv-K5PCP-uIaHLM3fRsKcafM6gk1O385AiJWvZsttDVEEaEsm4J9iSN2wSbhucC6BW1GfwWtegcIJs2mqQZ6caSZBYsAa3Eg3Upu_aL6Y17QuMGaBU4tE2zvlIoOpE4m0X6O4uLWGk490Px7ZNxDTpl3GdLlzdx21DQst_sjsxlznpX0tVpvygwz4yVJUppw1kccYWe_dFGfoZkKINSDfNulK3_9RIAmryfM1gX3CsgZbHzVl8EjR7YUW_5BWBZu79mE1X4BIcKbjc2InHNwSmXtpp2HRhP2HqD6MQDjdJl3f1NS-l2fZpbPVB6wtXx3tk16mZs6CWgTa3gKnaWjLX1tJt-ukw4rYiTWMs9yGox3Pkhgk5LxQlbFe9LeHM7MV_3C5JtXYAOtnFb6JhYcQhV3ZUlTFuVVn8OjcbKztB4npw-APN4jBLNftM2wVwkjSbwnAK169J5UHj5hHh5VPRDolArZldlyy19HbOuZbr54BSewGbl3GPl5D6nHET-YIeFaCkzuYzeEZilKGE0gx9pNizg6iE9omtLCoAVsds5rF1rECVgo6Vmajc- -wsOhX06qmwNMslnplRm5vclcfxELDgBRakNu-ctq0s-UJezpa-KG_Hn6J3RxyafABu3iUtXLzRKhCEiV0FhX3_8LvE-2Irg2p5tnv_jt3sHG9nkQPsAfa0-_BYx6RP9q2tZE82wjEOiNhyGvqmbEJvcVsQBnsh6goQaNviXm4ZXQZHjyFke9-ndqCncDs3vd_vgMZaYdfsO-lvbxH-Sl2JuTpBopLoCClZRYtHF0Rw1eUcBFHpnnPzmLmsxnLvBkIsf2TtA49piYwNy6dxER-ievTwUt8YQD_WS0]--></g></svg>