<svg xmlns="http://www.w3.org/2000/svg" xmlns:xlink="http://www.w3.org/1999/xlink" contentStyleType="text/css" data-diagram-type="CLASS" height="1391px" preserveAspectRatio="none" style="width:4477px;height:1391px;background:#FFFFFF;" version="1.1" viewBox="0 0 4477 1391" width="4477px" zoomAndPan="magnify"><title>Hyperion Parameter Model</title><defs/><g><g class="title" data-source-line="3"><text fill="#000000" font-family="sans-serif" font-size="14" font-weight="bold" lengthAdjust="spacing" textLength="212.4951" x="2125.3024" y="22.9951">Hyperion Parameter Model</text></g><!--cluster mx_bluesky.common.parameters--><g class="cluster" data-entity="mx_bluesky.common.parameters" data-source-line="6" data-uid="ent0002" id="cluster_mx_bluesky.common.parameters"><path d="M143.6,43.2969 L404.9125,43.2969 A3.75,3.75 0 0 1 407.4125,45.7969 L414.4125,65.5938 L2917.6,65.5938 A2.5,2.5 0 0 1 2920.1,68.0938 L2920.1,1109.2969 A2.5,2.5 0 0 1 2917.6,1111.7969 L143.6,1111.7969 A2.5,2.5 0 0 1 141.1,1109.2969 L141.1,45.7969 A2.5,2.5 0 0 1 143.6,43.2969" fill="none" style="stroke:#000000;stroke-width:1.5;"/><line style="stroke:#000000;stroke-width:1.5;" x1="141.1" x2="414.4125" y1="65.5938" y2="65.5938"/><text fill="#000000" font-family="sans-serif" font-size="14" font-weight="bold" lengthAdjust="spacing" textLength="260.3125" x="145.1" y="58.292">mx_bluesky.common.parameters</text></g><!--cluster mx_bluesky.hyperion.parameters--><g class="cluster" data-entity="mx_bluesky.hyperion.parameters" data-source-line="92" data-uid="ent0019" id="cluster_mx_bluesky.hyperion.parameters"><path d="M2946.6,907.0169 L3211.1322,907.0169 A3.75,3.75 0 0 1 3213.6322,909.5169 L3220.6322,929.3138 L4430.6,929.3138 A2.5,2.5 0 0 1 4433.1,931.8138 L4433.1,1382.4869 A2.5,2.5 0 0 1 4430.6,1384.9869 L2946.6,1384.9869 A2.5,2.5 0 0 1 2944.1,1382.4869 L2944.1,909.5169 A2.5,2.5 0 0 1 2946.6,907.0169" fill="none" style="stroke:#000000;stroke-width:1.5;"/><line style="stroke:#000000;stroke-width:1.5;" x1="2944.1" x2="3220.6322" y1="929.3138" y2="929.3138"/><text fill="#000000" font-family="sans-serif" font-size="14" font-weight="bold" lengthAdjust="spacing" textLength="263.5322" x="2948.1" y="922.012">mx_bluesky.hyperion.parameters</text></g><!--class WithCentreSelection--><g class="entity" data-entity="WithCentreSelection" data-source-line="8" data-uid="ent0003" id="entity_WithCentreSelection"><rect fill="#F1F1F1" height="64.2969" rx="2.5" ry="2.5" style="stroke:#181818;stroke-width:0.5;" width="306.7861" x="520.71" y="118.8969"/><ellipse cx="597.9869" cy="134.8969" fill="#ADD1B2" rx="11" ry="11" style="stroke:#181818;stroke-width:1;"/><path d="M600.9556,140.5375 Q600.3775,140.8344 599.7369,140.975 Q599.0962,141.1313 598.3931,141.1313 Q595.8931,141.1313 594.565,139.4906 Q593.2525,137.8344 593.2525,134.7094 Q593.2525,131.5844 594.565,129.9281 Q595.8931,128.2719 598.3931,128.2719 Q599.0962,128.2719 599.7369,128.4281 Q600.3931,128.5844 600.9556,128.8813 L600.9556,131.6 Q600.3306,131.0219 599.7369,130.7563 Q599.1431,130.475 598.5181,130.475 Q597.1744,130.475 596.4869,131.5531 Q595.7994,132.6156 595.7994,134.7094 Q595.7994,136.8031 596.4869,137.8813 Q597.1744,138.9438 598.5181,138.9438 Q599.1431,138.9438 599.7369,138.6781 Q600.3306,138.3969 600.9556,137.8188 L600.9556,140.5375 Z " fill="#000000"/><text fill="#000000" font-family="sans-serif" font-size="14" lengthAdjust="spacing" textLength="143.7324" x="618.4869" y="139.7436">WithCentreSelection</text><line style="stroke:#181818;stroke-width:0.5;" x1="521.71" x2="826.4961" y1="150.8969" y2="150.8969"/><text fill="#000000" font-family="sans-serif" font-size="14" lengthAdjust="spacing" textLength="294.7861" x="526.71" y="167.892">TopNByMaxCountSelection select_centres</text><line style="stroke:#181818;stroke-width:0.5;" x1="521.71" x2="826.4961" y1="175.1938" y2="175.1938"/></g><!--class WithScan--><g class="entity" data-entity="WithScan" data-source-line="11" data-uid="ent0004" id="entity_WithScan"><rect fill="#F1F1F1" height="48" rx="2.5" ry="2.5" style="stroke:#181818;stroke-width:0.5;" width="98.1309" x="2018.03" y="127.0369"/><ellipse cx="2033.03" cy="143.0369" fill="#ADD1B2" rx="11" ry="11" style="stroke:#181818;stroke-width:1;"/><path d="M2035.9988,148.6775 Q2035.4206,148.9744 2034.78,149.115 Q2034.1394,149.2713 2033.4363,149.2713 Q2030.9363,149.2713 2029.6081,147.6306 Q2028.2956,145.9744 2028.2956,142.8494 Q2028.2956,139.7244 2029.6081,138.0681 Q2030.9363,136.4119 2033.4363,136.4119 Q2034.1394,136.4119 2034.78,136.5681 Q2035.4363,136.7244 2035.9988,137.0213 L2035.9988,139.74 Q2035.3738,139.1619 2034.78,138.8963 Q2034.1863,138.615 2033.5613,138.615 Q2032.2175,138.615 2031.53,139.6931 Q2030.8425,140.7556 2030.8425,142.8494 Q2030.8425,144.9431 2031.53,146.0213 Q2032.2175,147.0838 2033.5613,147.0838 Q2034.1863,147.0838 2034.78,146.8181 Q2035.3738,146.5369 2035.9988,145.9588 L2035.9988,148.6775 Z " fill="#000000"/><text fill="#000000" font-family="sans-serif" font-size="14" lengthAdjust="spacing" textLength="66.1309" x="2047.03" y="147.8836">WithScan</text><line style="stroke:#181818;stroke-width:0.5;" x1="2019.03" x2="2115.1609" y1="159.0369" y2="159.0369"/><line style="stroke:#181818;stroke-width:0.5;" x1="2019.03" x2="2115.1609" y1="167.0369" y2="167.0369"/></g><!--class WithVisit--><g class="entity" data-entity="WithVisit" data-source-line="13" data-uid="ent0005" id="entity_WithVisit"><rect fill="#F1F1F1" height="129.4844" rx="2.5" ry="2.5" style="stroke:#181818;stroke-width:0.5;" width="271.7861" x="1711.21" y="86.2969"/><ellipse cx="1811.7359" cy="102.2969" fill="#ADD1B2" rx="11" ry="11" style="stroke:#181818;stroke-width:1;"/><path d="M1814.7046,107.9375 Q1814.1265,108.2344 1813.4859,108.375 Q1812.8453,108.5313 1812.1421,108.5313 Q1809.6421,108.5313 1808.314,106.8906 Q1807.0015,105.2344 1807.0015,102.1094 Q1807.0015,98.9844 1808.314,97.3281 Q1809.6421,95.6719 1812.1421,95.6719 Q1812.8453,95.6719 1813.4859,95.8281 Q1814.1421,95.9844 1814.7046,96.2813 L1814.7046,99 Q1814.0796,98.4219 1813.4859,98.1563 Q1812.8921,97.875 1812.2671,97.875 Q1810.9234,97.875 1810.2359,98.9531 Q1809.5484,100.0156 1809.5484,102.1094 Q1809.5484,104.2031 1810.2359,105.2813 Q1810.9234,106.3438 1812.2671,106.3438 Q1812.8921,106.3438 1813.4859,106.0781 Q1814.0796,105.7969 1814.7046,105.2188 L1814.7046,107.9375 Z " fill="#000000"/><text fill="#000000" font-family="sans-serif" font-size="14" lengthAdjust="spacing" textLength="62.2344" x="1832.2359" y="107.1436">WithVisit</text><line style="stroke:#181818;stroke-width:0.5;" x1="1712.21" x2="1981.9961" y1="118.2969" y2="118.2969"/><text fill="#000000" font-family="sans-serif" font-size="14" lengthAdjust="spacing" textLength="87.9717" x="1717.21" y="135.292">str beamline</text><text fill="#000000" font-family="sans-serif" font-size="14" lengthAdjust="spacing" textLength="51.8369" x="1717.21" y="151.5889">str visit</text><text fill="#000000" font-family="sans-serif" font-size="14" lengthAdjust="spacing" textLength="259.7861" x="1717.21" y="167.8857">str det_dist_to_beam_converter_path</text><text fill="#000000" font-family="sans-serif" font-size="14" lengthAdjust="spacing" textLength="131.5918" x="1717.21" y="184.1826">str insertion_prefix</text><text fill="#000000" font-family="sans-serif" font-size="14" lengthAdjust="spacing" textLength="245.752" x="1717.21" y="200.4795">float | None detector_distance_mm</text><line style="stroke:#181818;stroke-width:0.5;" x1="1712.21" x2="1981.9961" y1="207.7813" y2="207.7813"/></g><!--class XyzStarts--><g class="entity" data-entity="XyzStarts" data-source-line="20" data-uid="ent0006" id="entity_XyzStarts"><rect fill="#F1F1F1" height="96.8906" rx="2.5" ry="2.5" style="stroke:#181818;stroke-width:0.5;" width="125.3057" x="2151.45" y="102.5969"/><ellipse cx="2178.4141" cy="118.5969" fill="#ADD1B2" rx="11" ry="11" style="stroke:#181818;stroke-width:1;"/><path d="M2181.3829,124.2375 Q2180.8047,124.5344 2180.1641,124.675 Q2179.5235,124.8312 2178.8204,124.8312 Q2176.3204,124.8312 2174.9922,123.1906 Q2173.6797,121.5344 2173.6797,118.4094 Q2173.6797,115.2844 2174.9922,113.6281 Q2176.3204,111.9719 2178.8204,111.9719 Q2179.5235,111.9719 2180.1641,112.1281 Q2180.8204,112.2844 2181.3829,112.5812 L2181.3829,115.3 Q2180.7579,114.7219 2180.1641,114.4562 Q2179.5704,114.175 2178.9454,114.175 Q2177.6016,114.175 2176.9141,115.2531 Q2176.2266,116.3156 2176.2266,118.4094 Q2176.2266,120.5031 2176.9141,121.5812 Q2177.6016,122.6437 2178.9454,122.6437 Q2179.5704,122.6437 2180.1641,122.3781 Q2180.7579,122.0969 2181.3829,121.5187 L2181.3829,124.2375 Z " fill="#000000"/><text fill="#000000" font-family="sans-serif" font-size="14" lengthAdjust="spacing" textLength="66.7188" x="2195.0728" y="123.4436">XyzStarts</text><line style="stroke:#181818;stroke-width:0.5;" x1="2152.45" x2="2275.7557" y1="134.5969" y2="134.5969"/><text fill="#000000" font-family="sans-serif" font-size="14" lengthAdjust="spacing" textLength="113.3057" x="2157.45" y="151.592">float x_start_um</text><text fill="#000000" font-family="sans-serif" font-size="14" lengthAdjust="spacing" textLength="113.3057" x="2157.45" y="167.8889">float y_start_um</text><text fill="#000000" font-family="sans-serif" font-size="14" lengthAdjust="spacing" textLength="112.3691" x="2157.45" y="184.1857">float z_start_um</text><line style="stroke:#181818;stroke-width:0.5;" x1="2152.45" x2="2275.7557" y1="191.4875" y2="191.4875"/></g><!--class WithSample--><g class="entity" data-entity="WithSample" data-source-line="25" data-uid="ent0007" id="entity_WithSample"><rect fill="#F1F1F1" height="96.8906" rx="2.5" ry="2.5" style="stroke:#181818;stroke-width:0.5;" width="176.3086" x="2311.94" y="102.5969"/><ellipse cx="2353.8143" cy="118.5969" fill="#ADD1B2" rx="11" ry="11" style="stroke:#181818;stroke-width:1;"/><path d="M2356.7831,124.2375 Q2356.2049,124.5344 2355.5643,124.675 Q2354.9237,124.8312 2354.2206,124.8312 Q2351.7206,124.8312 2350.3924,123.1906 Q2349.0799,121.5344 2349.0799,118.4094 Q2349.0799,115.2844 2350.3924,113.6281 Q2351.7206,111.9719 2354.2206,111.9719 Q2354.9237,111.9719 2355.5643,112.1281 Q2356.2206,112.2844 2356.7831,112.5812 L2356.7831,115.3 Q2356.1581,114.7219 2355.5643,114.4562 Q2354.9706,114.175 2354.3456,114.175 Q2353.0018,114.175 2352.3143,115.2531 Q2351.6268,116.3156 2351.6268,118.4094 Q2351.6268,120.5031 2352.3143,121.5812 Q2353.0018,122.6437 2354.3456,122.6437 Q2354.9706,122.6437 2355.5643,122.3781 Q2356.1581,122.0969 2356.7831,121.5187 L2356.7831,124.2375 Z " fill="#000000"/><text fill="#000000" font-family="sans-serif" font-size="14" lengthAdjust="spacing" textLength="84.5879" x="2373.7864" y="123.4436">WithSample</text><line style="stroke:#181818;stroke-width:0.5;" x1="2312.94" x2="2487.2486" y1="134.5969" y2="134.5969"/><text fill="#000000" font-family="sans-serif" font-size="14" lengthAdjust="spacing" textLength="93.3789" x="2317.94" y="151.592">int sample_id</text><text fill="#000000" font-family="sans-serif" font-size="14" lengthAdjust="spacing" textLength="164.3086" x="2317.94" y="167.8889">int | None sample_puck</text><text fill="#000000" font-family="sans-serif" font-size="14" lengthAdjust="spacing" textLength="152.3936" x="2317.94" y="184.1857">int | None sample_pin</text><line style="stroke:#181818;stroke-width:0.5;" x1="2312.94" x2="2487.2486" y1="191.4875" y2="191.4875"/></g><!--class SplitScan--><g class="entity" data-entity="SplitScan" data-source-line="30" data-uid="ent0008" id="entity_SplitScan"><rect fill="#F1F1F1" height="48" rx="2.5" ry="2.5" style="stroke:#181818;stroke-width:0.5;" width="97.0781" x="2798.56" y="127.0369"/><ellipse cx="2813.56" cy="143.0369" fill="#ADD1B2" rx="11" ry="11" style="stroke:#181818;stroke-width:1;"/><path d="M2816.5288,148.6775 Q2815.9506,148.9744 2815.31,149.115 Q2814.6694,149.2713 2813.9663,149.2713 Q2811.4663,149.2713 2810.1381,147.6306 Q2808.8256,145.9744 2808.8256,142.8494 Q2808.8256,139.7244 2810.1381,138.0681 Q2811.4663,136.4119 2813.9663,136.4119 Q2814.6694,136.4119 2815.31,136.5681 Q2815.9663,136.7244 2816.5288,137.0213 L2816.5288,139.74 Q2815.9038,139.1619 2815.31,138.8963 Q2814.7163,138.615 2814.0913,138.615 Q2812.7475,138.615 2812.06,139.6931 Q2811.3725,140.7556 2811.3725,142.8494 Q2811.3725,144.9431 2812.06,146.0213 Q2812.7475,147.0838 2814.0913,147.0838 Q2814.7163,147.0838 2815.31,146.8181 Q2815.9038,146.5369 2816.5288,145.9588 L2816.5288,148.6775 Z " fill="#000000"/><text fill="#000000" font-family="sans-serif" font-size="14" lengthAdjust="spacing" textLength="65.0781" x="2827.56" y="147.8836">SplitScan</text><line style="stroke:#181818;stroke-width:0.5;" x1="2799.56" x2="2894.6381" y1="159.0369" y2="159.0369"/><line style="stroke:#181818;stroke-width:0.5;" x1="2799.56" x2="2894.6381" y1="167.0369" y2="167.0369"/></g><!--class WithSnapshot--><g class="entity" data-entity="WithSnapshot" data-source-line="32" data-uid="ent0009" id="entity_WithSnapshot"><rect fill="#F1F1F1" height="80.5938" rx="2.5" ry="2.5" style="stroke:#181818;stroke-width:0.5;" width="289.3477" x="862.42" y="110.7469"/><ellipse cx="954.0728" cy="126.7469" fill="#ADD1B2" rx="11" ry="11" style="stroke:#181818;stroke-width:1;"/><path d="M957.0416,132.3875 Q956.4635,132.6844 955.8228,132.825 Q955.1822,132.9813 954.4791,132.9813 Q951.9791,132.9813 950.651,131.3406 Q949.3385,129.6844 949.3385,126.5594 Q949.3385,123.4344 950.651,121.7781 Q951.9791,120.1219 954.4791,120.1219 Q955.1822,120.1219 955.8228,120.2781 Q956.4791,120.4344 957.0416,120.7313 L957.0416,123.45 Q956.4166,122.8719 955.8228,122.6063 Q955.2291,122.325 954.6041,122.325 Q953.2603,122.325 952.5728,123.4031 Q951.8853,124.4656 951.8853,126.5594 Q951.8853,128.6531 952.5728,129.7313 Q953.2603,130.7938 954.6041,130.7938 Q955.2291,130.7938 955.8228,130.5281 Q956.4166,130.2469 957.0416,129.6688 L957.0416,132.3875 Z " fill="#000000"/><text fill="#000000" font-family="sans-serif" font-size="14" lengthAdjust="spacing" textLength="97.542" x="974.5728" y="131.5936">WithSnapshot</text><line style="stroke:#181818;stroke-width:0.5;" x1="863.42" x2="1150.7677" y1="142.7469" y2="142.7469"/><text fill="#000000" font-family="sans-serif" font-size="14" lengthAdjust="spacing" textLength="169.627" x="868.42" y="159.742">Path snapshot_directory</text><text fill="#000000" font-family="sans-serif" font-size="14" lengthAdjust="spacing" textLength="277.3477" x="868.42" y="176.0389">list[float] | None snapshot_omegas_deg</text><line style="stroke:#181818;stroke-width:0.5;" x1="863.42" x2="1150.7677" y1="183.3406" y2="183.3406"/></g><!--class WithPandaGridScan--><g class="entity" data-entity="WithPandaGridScan" data-source-line="36" data-uid="ent0010" id="entity_WithPandaGridScan"><rect fill="#F1F1F1" height="64.2969" rx="2.5" ry="2.5" style="stroke:#181818;stroke-width:0.5;" width="240.5664" x="2522.81" y="118.8969"/><ellipse cx="2569.4072" cy="134.8969" fill="#ADD1B2" rx="11" ry="11" style="stroke:#181818;stroke-width:1;"/><path d="M2572.3759,140.5375 Q2571.7978,140.8344 2571.1572,140.975 Q2570.5165,141.1313 2569.8134,141.1313 Q2567.3134,141.1313 2565.9853,139.4906 Q2564.6728,137.8344 2564.6728,134.7094 Q2564.6728,131.5844 2565.9853,129.9281 Q2567.3134,128.2719 2569.8134,128.2719 Q2570.5165,128.2719 2571.1572,128.4281 Q2571.8134,128.5844 2572.3759,128.8813 L2572.3759,131.6 Q2571.7509,131.0219 2571.1572,130.7563 Q2570.5634,130.475 2569.9384,130.475 Q2568.5947,130.475 2567.9072,131.5531 Q2567.2197,132.6156 2567.2197,134.7094 Q2567.2197,136.8031 2567.9072,137.8813 Q2568.5947,138.9438 2569.9384,138.9438 Q2570.5634,138.9438 2571.1572,138.6781 Q2571.7509,138.3969 2572.3759,137.8188 L2572.3759,140.5375 Z " fill="#000000"/><text fill="#000000" font-family="sans-serif" font-size="14" lengthAdjust="spacing" textLength="138.8721" x="2589.9072" y="139.7436">WithPandaGridScan</text><line style="stroke:#181818;stroke-width:0.5;" x1="2523.81" x2="2762.3764" y1="150.8969" y2="150.8969"/><text fill="#000000" font-family="sans-serif" font-size="14" lengthAdjust="spacing" textLength="228.5664" x="2528.81" y="167.892">float panda_runup_distance_mm</text><line style="stroke:#181818;stroke-width:0.5;" x1="2523.81" x2="2762.3764" y1="175.1938" y2="175.1938"/></g><!--class WithOptionalEnergyChange--><g class="entity" data-entity="WithOptionalEnergyChange" data-source-line="39" data-uid="ent0011" id="entity_WithOptionalEnergyChange"><rect fill="#F1F1F1" height="64.2969" rx="2.5" ry="2.5" style="stroke:#181818;stroke-width:0.5;" width="235.4463" x="1440.38" y="118.8969"/><ellipse cx="1459.5645" cy="134.8969" fill="#ADD1B2" rx="11" ry="11" style="stroke:#181818;stroke-width:1;"/><path d="M1462.5332,140.5375 Q1461.9551,140.8344 1461.3145,140.975 Q1460.6738,141.1313 1459.9707,141.1313 Q1457.4707,141.1313 1456.1426,139.4906 Q1454.8301,137.8344 1454.8301,134.7094 Q1454.8301,131.5844 1456.1426,129.9281 Q1457.4707,128.2719 1459.9707,128.2719 Q1460.6738,128.2719 1461.3145,128.4281 Q1461.9707,128.5844 1462.5332,128.8813 L1462.5332,131.6 Q1461.9082,131.0219 1461.3145,130.7563 Q1460.7207,130.475 1460.0957,130.475 Q1458.752,130.475 1458.0645,131.5531 Q1457.377,132.6156 1457.377,134.7094 Q1457.377,136.8031 1458.0645,137.8813 Q1458.752,138.9438 1460.0957,138.9438 Q1460.7207,138.9438 1461.3145,138.6781 Q1461.9082,138.3969 1462.5332,137.8188 L1462.5332,140.5375 Z " fill="#000000"/><text fill="#000000" font-family="sans-serif" font-size="14" lengthAdjust="spacing" textLength="194.1475" x="1474.4944" y="139.7436">WithOptionalEnergyChange</text><line style="stroke:#181818;stroke-width:0.5;" x1="1441.38" x2="1674.8263" y1="150.8969" y2="150.8969"/><text fill="#000000" font-family="sans-serif" font-size="14" lengthAdjust="spacing" textLength="223.4463" x="1446.38" y="167.892">float | None demand_energy_ev</text><line style="stroke:#181818;stroke-width:0.5;" x1="1441.38" x2="1674.8263" y1="175.1938" y2="175.1938"/></g><!--class OptionalGonioAngleStarts--><g class="entity" data-entity="OptionalGonioAngleStarts" data-source-line="42" data-uid="ent0012" id="entity_OptionalGonioAngleStarts"><rect fill="#F1F1F1" height="113.1875" rx="2.5" ry="2.5" style="stroke:#181818;stroke-width:0.5;" width="219.3203" x="1186.44" y="94.4469"/><ellipse cx="1204.1633" cy="110.4469" fill="#ADD1B2" rx="11" ry="11" style="stroke:#181818;stroke-width:1;"/><path d="M1207.132,116.0875 Q1206.5539,116.3844 1205.9133,116.525 Q1205.2727,116.6813 1204.5695,116.6813 Q1202.0695,116.6813 1200.7414,115.0406 Q1199.4289,113.3844 1199.4289,110.2594 Q1199.4289,107.1344 1200.7414,105.4781 Q1202.0695,103.8219 1204.5695,103.8219 Q1205.2727,103.8219 1205.9133,103.9781 Q1206.5695,104.1344 1207.132,104.4313 L1207.132,107.15 Q1206.507,106.5719 1205.9133,106.3063 Q1205.3195,106.025 1204.6945,106.025 Q1203.3508,106.025 1202.6633,107.1031 Q1201.9758,108.1656 1201.9758,110.2594 Q1201.9758,112.3531 1202.6633,113.4313 Q1203.3508,114.4938 1204.6945,114.4938 Q1205.3195,114.4938 1205.9133,114.2281 Q1206.507,113.9469 1207.132,113.3688 L1207.132,116.0875 Z " fill="#000000"/><text fill="#000000" font-family="sans-serif" font-size="14" lengthAdjust="spacing" textLength="181.2686" x="1218.7685" y="115.2936">OptionalGonioAngleStarts</text><line style="stroke:#181818;stroke-width:0.5;" x1="1187.44" x2="1404.7603" y1="126.4469" y2="126.4469"/><text fill="#000000" font-family="sans-serif" font-size="14" lengthAdjust="spacing" textLength="207.3203" x="1192.44" y="143.442">float | None omega_start_deg</text><text fill="#000000" font-family="sans-serif" font-size="14" lengthAdjust="spacing" textLength="180.6875" x="1192.44" y="159.7389">float | None phi_start_deg</text><text fill="#000000" font-family="sans-serif" font-size="14" lengthAdjust="spacing" textLength="179.498" x="1192.44" y="176.0357">float | None chi_start_deg</text><text fill="#000000" font-family="sans-serif" font-size="14" lengthAdjust="spacing" textLength="202.0771" x="1192.44" y="192.3326">float | None kappa_start_deg</text><line style="stroke:#181818;stroke-width:0.5;" x1="1187.44" x2="1404.7603" y1="199.6344" y2="199.6344"/></g><!--class SpecifiedGrid--><g class="entity" data-entity="SpecifiedGrid" data-source-line="48" data-uid="ent0013" id="entity_SpecifiedGrid"><rect fill="#F1F1F1" height="48" rx="2.5" ry="2.5" style="stroke:#181818;stroke-width:0.5;" width="125.6729" x="2004.26" y="357.2669"/><ellipse cx="2019.26" cy="373.2669" fill="#ADD1B2" rx="11" ry="11" style="stroke:#181818;stroke-width:1;"/><path d="M2022.2288,378.9075 Q2021.6506,379.2044 2021.01,379.345 Q2020.3694,379.5013 2019.6663,379.5013 Q2017.1663,379.5013 2015.8381,377.8606 Q2014.5256,376.2044 2014.5256,373.0794 Q2014.5256,369.9544 2015.8381,368.2981 Q2017.1663,366.6419 2019.6663,366.6419 Q2020.3694,366.6419 2021.01,366.7981 Q2021.6663,366.9544 2022.2288,367.2513 L2022.2288,369.97 Q2021.6038,369.3919 2021.01,369.1263 Q2020.4163,368.845 2019.7913,368.845 Q2018.4475,368.845 2017.76,369.9231 Q2017.0725,370.9856 2017.0725,373.0794 Q2017.0725,375.1731 2017.76,376.2513 Q2018.4475,377.3138 2019.7913,377.3138 Q2020.4163,377.3138 2021.01,377.0481 Q2021.6038,376.7669 2022.2288,376.1888 L2022.2288,378.9075 Z " fill="#000000"/><text fill="#000000" font-family="sans-serif" font-size="14" lengthAdjust="spacing" textLength="93.6729" x="2033.26" y="378.1136">SpecifiedGrid</text><line style="stroke:#181818;stroke-width:0.5;" x1="2005.26" x2="2128.9329" y1="389.2669" y2="389.2669"/><line style="stroke:#181818;stroke-width:0.5;" x1="2005.26" x2="2128.9329" y1="397.2669" y2="397.2669"/></g><!--class GridCommon--><g class="entity" data-entity="GridCommon" data-source-line="52" data-uid="ent0014" id="entity_GridCommon"><rect fill="#F1F1F1" height="145.7813" rx="2.5" ry="2.5" style="stroke:#181818;stroke-width:0.5;" width="332.332" x="164.93" y="654.7569"/><ellipse cx="280.6282" cy="670.7569" fill="#ADD1B2" rx="11" ry="11" style="stroke:#181818;stroke-width:1;"/><path d="M283.597,676.3975 Q283.0189,676.6944 282.3782,676.835 Q281.7376,676.9913 281.0345,676.9913 Q278.5345,676.9913 277.2064,675.3506 Q275.8939,673.6944 275.8939,670.5694 Q275.8939,667.4444 277.2064,665.7881 Q278.5345,664.1319 281.0345,664.1319 Q281.7376,664.1319 282.3782,664.2881 Q283.0345,664.4444 283.597,664.7413 L283.597,667.46 Q282.972,666.8819 282.3782,666.6163 Q281.7845,666.335 281.1595,666.335 Q279.8157,666.335 279.1282,667.4131 Q278.4407,668.4756 278.4407,670.5694 Q278.4407,672.6631 279.1282,673.7413 Q279.8157,674.8038 281.1595,674.8038 Q281.7845,674.8038 282.3782,674.5381 Q282.972,674.2569 283.597,673.6788 L283.597,676.3975 Z " fill="#000000"/><text fill="#000000" font-family="sans-serif" font-size="14" lengthAdjust="spacing" textLength="92.4355" x="301.1282" y="675.6036">GridCommon</text><line style="stroke:#181818;stroke-width:0.5;" x1="165.93" x2="496.262" y1="686.7569" y2="686.7569"/><text fill="#000000" font-family="sans-serif" font-size="14" lengthAdjust="spacing" textLength="125.2959" x="170.93" y="703.752">float box_size_um</text><text fill="#000000" font-family="sans-serif" font-size="14" lengthAdjust="spacing" textLength="138.4209" x="170.93" y="720.0489">float grid_width_um</text><text fill="#000000" font-family="sans-serif" font-size="14" lengthAdjust="spacing" textLength="153.7129" x="170.93" y="736.3457">float exposure_time_s</text><text fill="#000000" font-family="sans-serif" font-size="14" lengthAdjust="spacing" textLength="320.332" x="170.93" y="752.6426">IspybExperimentType ispyb_experiment_type</text><text fill="#000000" font-family="sans-serif" font-size="14" lengthAdjust="spacing" textLength="282.3516" x="170.93" y="768.9395">ApertureValue | None selected_aperture</text><text fill="#000000" font-family="sans-serif" font-size="14" lengthAdjust="spacing" textLength="130.498" x="170.93" y="785.2364">float tip_offset_um</text><line style="stroke:#181818;stroke-width:0.5;" x1="165.93" x2="496.262" y1="792.5381" y2="792.5381"/></g><!--class MxBlueskyParameters--><g class="entity" data-entity="MxBlueskyParameters" data-source-line="60" data-uid="ent0015" id="entity_MxBlueskyParameters"><rect fill="#F1F1F1" height="64.2969" rx="2.5" ry="2.5" style="stroke:#181818;stroke-width:0.5;" width="317.4639" x="168.37" y="118.8969"/><ellipse cx="244.9564" cy="134.8969" fill="#ADD1B2" rx="11" ry="11" style="stroke:#181818;stroke-width:1;"/><path d="M247.9252,140.5375 Q247.3471,140.8344 246.7064,140.975 Q246.0658,141.1313 245.3627,141.1313 Q242.8627,141.1313 241.5346,139.4906 Q240.2221,137.8344 240.2221,134.7094 Q240.2221,131.5844 241.5346,129.9281 Q242.8627,128.2719 245.3627,128.2719 Q246.0658,128.2719 246.7064,128.4281 Q247.3627,128.5844 247.9252,128.8813 L247.9252,131.6 Q247.3002,131.0219 246.7064,130.7563 Q246.1127,130.475 245.4877,130.475 Q244.1439,130.475 243.4564,131.5531 Q242.7689,132.6156 242.7689,134.7094 Q242.7689,136.8031 243.4564,137.8813 Q244.1439,138.9438 245.4877,138.9438 Q246.1127,138.9438 246.7064,138.6781 Q247.3002,138.3969 247.9252,137.8188 L247.9252,140.5375 Z " fill="#000000"/><text fill="#000000" font-family="sans-serif" font-size="14" lengthAdjust="spacing" textLength="155.791" x="265.4564" y="139.7436">MxBlueskyParameters</text><line style="stroke:#181818;stroke-width:0.5;" x1="169.37" x2="484.8339" y1="150.8969" y2="150.8969"/><text fill="#000000" font-family="sans-serif" font-size="14" lengthAdjust="spacing" textLength="305.4639" x="174.37" y="167.892">SemanticVersion parameter_model_version</text><line style="stroke:#181818;stroke-width:0.5;" x1="169.37" x2="484.8339" y1="175.1938" y2="175.1938"/></g><!--class DiffractionExperiment--><g class="entity" data-entity="DiffractionExperiment" data-source-line="63" data-uid="ent0016" id="entity_DiffractionExperiment"><rect fill="#F1F1F1" height="210.9688" rx="2.5" ry="2.5" style="stroke:#181818;stroke-width:0.5;" width="332.332" x="164.93" y="275.7869"/><ellipse cx="249.7127" cy="291.7869" fill="#ADD1B2" rx="11" ry="11" style="stroke:#181818;stroke-width:1;"/><path d="M252.6815,297.4275 Q252.1033,297.7244 251.4627,297.865 Q250.8221,298.0213 250.119,298.0213 Q247.619,298.0213 246.2908,296.3806 Q244.9783,294.7244 244.9783,291.5994 Q244.9783,288.4744 246.2908,286.8181 Q247.619,285.1619 250.119,285.1619 Q250.8221,285.1619 251.4627,285.3181 Q252.119,285.4744 252.6815,285.7713 L252.6815,288.49 Q252.0565,287.9119 251.4627,287.6463 Q250.869,287.365 250.244,287.365 Q248.9002,287.365 248.2127,288.4431 Q247.5252,289.5056 247.5252,291.5994 Q247.5252,293.6931 248.2127,294.7713 Q248.9002,295.8338 250.244,295.8338 Q250.869,295.8338 251.4627,295.5681 Q252.0565,295.2869 252.6815,294.7088 L252.6815,297.4275 Z " fill="#000000"/><text fill="#000000" font-family="sans-serif" font-size="14" lengthAdjust="spacing" textLength="154.2666" x="270.2127" y="296.6336">DiffractionExperiment</text><line style="stroke:#181818;stroke-width:0.5;" x1="165.93" x2="496.262" y1="307.7869" y2="307.7869"/><text fill="#000000" font-family="sans-serif" font-size="14" lengthAdjust="spacing" textLength="91.0137" x="170.93" y="324.782">str file_name</text><text fill="#000000" font-family="sans-serif" font-size="14" lengthAdjust="spacing" textLength="153.7129" x="170.93" y="341.0789">float exposure_time_s</text><text fill="#000000" font-family="sans-serif" font-size="14" lengthAdjust="spacing" textLength="89.5029" x="170.93" y="357.3757">str comment</text><text fill="#000000" font-family="sans-serif" font-size="14" lengthAdjust="spacing" textLength="186.915" x="170.93" y="373.6726">TriggerMode trigger_mode</text><text fill="#000000" font-family="sans-serif" font-size="14" lengthAdjust="spacing" textLength="157.9854" x="170.93" y="389.9695">int | None run_number</text><text fill="#000000" font-family="sans-serif" font-size="14" lengthAdjust="spacing" textLength="282.3516" x="170.93" y="406.2664">ApertureValue | None selected_aperture</text><text fill="#000000" font-family="sans-serif" font-size="14" lengthAdjust="spacing" textLength="159.2979" x="170.93" y="422.5632">float transmission_frac</text><text fill="#000000" font-family="sans-serif" font-size="14" lengthAdjust="spacing" textLength="320.332" x="170.93" y="438.8601">IspybExperimentType ispyb_experiment_type</text><text fill="#000000" font-family="sans-serif" font-size="14" lengthAdjust="spacing" textLength="146.1113" x="170.93" y="455.157">str storage_directory</text><text fill="#000000" font-family="sans-serif" font-size="14" lengthAdjust="spacing" textLength="131.0518" x="170.93" y="471.4539">bool use_roi_mode</text><line style="stroke:#181818;stroke-width:0.5;" x1="165.93" x2="496.262" y1="478.7556" y2="478.7556"/></g><!--class DiffractionExperimentWithSample--><g class="entity" data-entity="DiffractionExperimentWithSample" data-source-line="75" data-uid="ent0017" id="entity_DiffractionExperimentWithSample"><rect fill="#F1F1F1" height="48" rx="2.5" ry="2.5" style="stroke:#181818;stroke-width:0.5;" width="270.8545" x="195.67" y="546.7569"/><ellipse cx="210.67" cy="562.7569" fill="#ADD1B2" rx="11" ry="11" style="stroke:#181818;stroke-width:1;"/><path d="M213.6388,568.3975 Q213.0606,568.6944 212.42,568.835 Q211.7794,568.9913 211.0763,568.9913 Q208.5763,568.9913 207.2481,567.3506 Q205.9356,565.6944 205.9356,562.5694 Q205.9356,559.4444 207.2481,557.7881 Q208.5763,556.1319 211.0763,556.1319 Q211.7794,556.1319 212.42,556.2881 Q213.0763,556.4444 213.6388,556.7413 L213.6388,559.46 Q213.0138,558.8819 212.42,558.6163 Q211.8263,558.335 211.2013,558.335 Q209.8575,558.335 209.17,559.4131 Q208.4825,560.4756 208.4825,562.5694 Q208.4825,564.6631 209.17,565.7413 Q209.8575,566.8038 211.2013,566.8038 Q211.8263,566.8038 212.42,566.5381 Q213.0138,566.2569 213.6388,565.6788 L213.6388,568.3975 Z " fill="#000000"/><text fill="#000000" font-family="sans-serif" font-size="14" lengthAdjust="spacing" textLength="238.8545" x="224.67" y="567.6036">DiffractionExperimentWithSample</text><line style="stroke:#181818;stroke-width:0.5;" x1="196.67" x2="465.5245" y1="578.7569" y2="578.7569"/><line style="stroke:#181818;stroke-width:0.5;" x1="196.67" x2="465.5245" y1="586.7569" y2="586.7569"/></g><!--class SpecifiedThreeDGridScan--><g class="entity" data-entity="SpecifiedThreeDGridScan" data-source-line="77" data-uid="ent0018" id="entity_SpecifiedThreeDGridScan"><rect fill="#F1F1F1" height="227.2656" rx="2.5" ry="2.5" style="stroke:#181818;stroke-width:0.5;" width="210.8965" x="286.65" y="860.5369"/><ellipse cx="301.65" cy="876.5369" fill="#ADD1B2" rx="11" ry="11" style="stroke:#181818;stroke-width:1;"/><path d="M304.6188,882.1775 Q304.0406,882.4744 303.4,882.615 Q302.7594,882.7713 302.0563,882.7713 Q299.5563,882.7713 298.2281,881.1306 Q296.9156,879.4744 296.9156,876.3494 Q296.9156,873.2244 298.2281,871.5681 Q299.5563,869.9119 302.0563,869.9119 Q302.7594,869.9119 303.4,870.0681 Q304.0563,870.2244 304.6188,870.5213 L304.6188,873.24 Q303.9938,872.6619 303.4,872.3963 Q302.8063,872.115 302.1813,872.115 Q300.8375,872.115 300.15,873.1931 Q299.4625,874.2556 299.4625,876.3494 Q299.4625,878.4431 300.15,879.5213 Q300.8375,880.5838 302.1813,880.5838 Q302.8063,880.5838 303.4,880.3181 Q303.9938,880.0369 304.6188,879.4588 L304.6188,882.1775 Z " fill="#000000"/><text fill="#000000" font-family="sans-serif" font-size="14" lengthAdjust="spacing" textLength="178.8965" x="315.65" y="881.3836">SpecifiedThreeDGridScan</text><line style="stroke:#181818;stroke-width:0.5;" x1="287.65" x2="496.5465" y1="892.5369" y2="892.5369"/><text fill="#000000" font-family="sans-serif" font-size="14" lengthAdjust="spacing" textLength="160.8975" x="292.65" y="909.532">float grid1_omega_deg</text><text fill="#000000" font-family="sans-serif" font-size="14" lengthAdjust="spacing" textLength="160.8975" x="292.65" y="925.8289">float grid2_omega_deg</text><text fill="#000000" font-family="sans-serif" font-size="14" lengthAdjust="spacing" textLength="145.127" x="292.65" y="942.1257">float x_step_size_um</text><text fill="#000000" font-family="sans-serif" font-size="14" lengthAdjust="spacing" textLength="145.127" x="292.65" y="958.4226">float y_step_size_um</text><text fill="#000000" font-family="sans-serif" font-size="14" lengthAdjust="spacing" textLength="144.1904" x="292.65" y="974.7195">float z_step_size_um</text><text fill="#000000" font-family="sans-serif" font-size="14" lengthAdjust="spacing" textLength="122.2129" x="292.65" y="991.0164">float y2_start_um</text><text fill="#000000" font-family="sans-serif" font-size="14" lengthAdjust="spacing" textLength="121.2764" x="292.65" y="1007.3132">float z2_start_um</text><text fill="#000000" font-family="sans-serif" font-size="14" lengthAdjust="spacing" textLength="75.5645" x="292.65" y="1023.6101">int x_steps</text><text fill="#000000" font-family="sans-serif" font-size="14" lengthAdjust="spacing" textLength="75.5645" x="292.65" y="1039.907">int y_steps</text><text fill="#000000" font-family="sans-serif" font-size="14" lengthAdjust="spacing" textLength="74.6279" x="292.65" y="1056.2039">int z_steps</text><text fill="#000000" font-family="sans-serif" font-size="14" lengthAdjust="spacing" textLength="154.4102" x="292.65" y="1072.5007">bool _set_stub_offsets</text><line style="stroke:#181818;stroke-width:0.5;" x1="287.65" x2="496.5465" y1="1079.8025" y2="1079.8025"/></g><!--class LoadCentreCollect--><g class="entity" data-entity="LoadCentreCollect" data-source-line="93" data-uid="ent0020" id="entity_LoadCentreCollect"><rect fill="#F1F1F1" height="80.5938" rx="2.5" ry="2.5" style="stroke:#181818;stroke-width:0.5;" width="338.6211" x="4004.79" y="1155.9469"/><ellipse cx="4105.415" cy="1171.9469" fill="#ADD1B2" rx="11" ry="11" style="stroke:#181818;stroke-width:1;"/><path d="M4108.3838,1177.5875 Q4107.8056,1177.8844 4107.165,1178.025 Q4106.5244,1178.1813 4105.8213,1178.1813 Q4103.3213,1178.1813 4101.9931,1176.5406 Q4100.6806,1174.8844 4100.6806,1171.7594 Q4100.6806,1168.6344 4101.9931,1166.9781 Q4103.3213,1165.3219 4105.8213,1165.3219 Q4106.5244,1165.3219 4107.165,1165.4781 Q4107.8213,1165.6344 4108.3838,1165.9313 L4108.3838,1168.65 Q4107.7588,1168.0719 4107.165,1167.8063 Q4106.5713,1167.525 4105.9463,1167.525 Q4104.6025,1167.525 4103.915,1168.6031 Q4103.2275,1169.6656 4103.2275,1171.7594 Q4103.2275,1173.8531 4103.915,1174.9313 Q4104.6025,1175.9938 4105.9463,1175.9938 Q4106.5713,1175.9938 4107.165,1175.7281 Q4107.7588,1175.4469 4108.3838,1174.8688 L4108.3838,1177.5875 Z " fill="#000000"/><text fill="#000000" font-family="sans-serif" font-size="14" lengthAdjust="spacing" textLength="128.8711" x="4125.915" y="1176.7936">LoadCentreCollect</text><line style="stroke:#181818;stroke-width:0.5;" x1="4005.79" x2="4342.4111" y1="1187.9469" y2="1187.9469"/><text fill="#000000" font-family="sans-serif" font-size="14" lengthAdjust="spacing" textLength="326.6211" x="4010.79" y="1204.942">RobotLoadThenCentre robot_load_then_centre</text><text fill="#000000" font-family="sans-serif" font-size="14" lengthAdjust="spacing" textLength="269.3154" x="4010.79" y="1221.2389">MultiRotationScan multi_rotation_scan</text><line style="stroke:#181818;stroke-width:0.5;" x1="4005.79" x2="4342.4111" y1="1228.5406" y2="1228.5406"/></g><!--class PinTipCentreThenXrayCentre--><g class="entity" data-entity="PinTipCentreThenXrayCentre" data-source-line="97" data-uid="ent0021" id="entity_PinTipCentreThenXrayCentre"><rect fill="#F1F1F1" height="64.2969" rx="2.5" ry="2.5" style="stroke:#181818;stroke-width:0.5;" width="235.8955" x="4121.15" y="1304.6869"/><ellipse cx="4136.15" cy="1320.6869" fill="#ADD1B2" rx="11" ry="11" style="stroke:#181818;stroke-width:1;"/><path d="M4139.1188,1326.3275 Q4138.5406,1326.6244 4137.9,1326.765 Q4137.2594,1326.9213 4136.5563,1326.9213 Q4134.0563,1326.9213 4132.7281,1325.2806 Q4131.4156,1323.6244 4131.4156,1320.4994 Q4131.4156,1317.3744 4132.7281,1315.7181 Q4134.0563,1314.0619 4136.5563,1314.0619 Q4137.2594,1314.0619 4137.9,1314.2181 Q4138.5563,1314.3744 4139.1188,1314.6713 L4139.1188,1317.39 Q4138.4938,1316.8119 4137.9,1316.5463 Q4137.3063,1316.265 4136.6813,1316.265 Q4135.3375,1316.265 4134.65,1317.3431 Q4133.9625,1318.4056 4133.9625,1320.4994 Q4133.9625,1322.5931 4134.65,1323.6713 Q4135.3375,1324.7338 4136.6813,1324.7338 Q4137.3063,1324.7338 4137.9,1324.4681 Q4138.4938,1324.1869 4139.1188,1323.6088 L4139.1188,1326.3275 Z " fill="#000000"/><text fill="#000000" font-family="sans-serif" font-size="14" lengthAdjust="spacing" textLength="203.8955" x="4150.15" y="1325.5336">PinTipCentreThenXrayCentre</text><line style="stroke:#181818;stroke-width:0.5;" x1="4122.15" x2="4356.0455" y1="1336.6869" y2="1336.6869"/><text fill="#000000" font-family="sans-serif" font-size="14" lengthAdjust="spacing" textLength="130.498" x="4127.15" y="1353.682">float tip_offset_um</text><line style="stroke:#181818;stroke-width:0.5;" x1="4122.15" x2="4356.0455" y1="1360.9838" y2="1360.9838"/></g><!--class WithHyperionUDCFeatures--><g class="entity" data-entity="WithHyperionUDCFeatures" data-source-line="100" data-uid="ent0022" id="entity_WithHyperionUDCFeatures"><rect fill="#F1F1F1" height="64.2969" rx="2.5" ry="2.5" style="stroke:#181818;stroke-width:0.5;" width="228.6719" x="3688.76" y="942.0169"/><ellipse cx="3707.8583" cy="958.0169" fill="#ADD1B2" rx="11" ry="11" style="stroke:#181818;stroke-width:1;"/><path d="M3710.8271,963.6575 Q3710.249,963.9544 3709.6083,964.095 Q3708.9677,964.2513 3708.2646,964.2513 Q3705.7646,964.2513 3704.4365,962.6106 Q3703.124,960.9544 3703.124,957.8294 Q3703.124,954.7044 3704.4365,953.0481 Q3705.7646,951.3919 3708.2646,951.3919 Q3708.9677,951.3919 3709.6083,951.5481 Q3710.2646,951.7044 3710.8271,952.0013 L3710.8271,954.72 Q3710.2021,954.1419 3709.6083,953.8763 Q3709.0146,953.595 3708.3896,953.595 Q3707.0458,953.595 3706.3583,954.6731 Q3705.6708,955.7356 3705.6708,957.8294 Q3705.6708,959.9231 3706.3583,961.0013 Q3707.0458,962.0638 3708.3896,962.0638 Q3709.0146,962.0638 3709.6083,961.7981 Q3710.2021,961.5169 3710.8271,960.9388 L3710.8271,963.6575 Z " fill="#000000"/><text fill="#000000" font-family="sans-serif" font-size="14" lengthAdjust="spacing" textLength="187.5645" x="3722.7691" y="962.8636">WithHyperionUDCFeatures</text><line style="stroke:#181818;stroke-width:0.5;" x1="3689.76" x2="3916.4319" y1="974.0169" y2="974.0169"/><text fill="#000000" font-family="sans-serif" font-size="14" lengthAdjust="spacing" textLength="216.6719" x="3694.76" y="991.012">HyperionFeatureFlags features</text><line style="stroke:#181818;stroke-width:0.5;" x1="3689.76" x2="3916.4319" y1="998.3138" y2="998.3138"/></g><!--class GridCommonWithHyperionDetectorParams--><g class="entity" data-entity="GridCommonWithHyperionDetectorParams" data-source-line="103" data-uid="ent0023" id="entity_GridCommonWithHyperionDetectorParams"><rect fill="#F1F1F1" height="48" rx="2.5" ry="2.5" style="stroke:#181818;stroke-width:0.5;" width="333.2188" x="3636.49" y="1172.2469"/><ellipse cx="3651.49" cy="1188.2469" fill="#ADD1B2" rx="11" ry="11" style="stroke:#181818;stroke-width:1;"/><path d="M3654.4588,1193.8875 Q3653.8806,1194.1844 3653.24,1194.325 Q3652.5994,1194.4813 3651.8963,1194.4813 Q3649.3963,1194.4813 3648.0681,1192.8406 Q3646.7556,1191.1844 3646.7556,1188.0594 Q3646.7556,1184.9344 3648.0681,1183.2781 Q3649.3963,1181.6219 3651.8963,1181.6219 Q3652.5994,1181.6219 3653.24,1181.7781 Q3653.8963,1181.9344 3654.4588,1182.2313 L3654.4588,1184.95 Q3653.8338,1184.3719 3653.24,1184.1063 Q3652.6463,1183.825 3652.0213,1183.825 Q3650.6775,1183.825 3649.99,1184.9031 Q3649.3025,1185.9656 3649.3025,1188.0594 Q3649.3025,1190.1531 3649.99,1191.2313 Q3650.6775,1192.2938 3652.0213,1192.2938 Q3652.6463,1192.2938 3653.24,1192.0281 Q3653.8338,1191.7469 3654.4588,1191.1688 L3654.4588,1193.8875 Z " fill="#000000"/><text fill="#000000" font-family="sans-serif" font-size="14" lengthAdjust="spacing" textLength="301.2188" x="3665.49" y="1193.0936">GridCommonWithHyperionDetectorParams</text><line style="stroke:#181818;stroke-width:0.5;" x1="3637.49" x2="3968.7088" y1="1204.2469" y2="1204.2469"/><line style="stroke:#181818;stroke-width:0.5;" x1="3637.49" x2="3968.7088" y1="1212.2469" y2="1212.2469"/></g><!--class HyperionSpecifiedThreeDGridScan--><g class="entity" data-entity="HyperionSpecifiedThreeDGridScan" data-source-line="105" data-uid="ent0024" id="entity_HyperionSpecifiedThreeDGridScan"><rect fill="#F1F1F1" height="48" rx="2.5" ry="2.5" style="stroke:#181818;stroke-width:0.5;" width="274.293" x="3326.95" y="1172.2469"/><ellipse cx="3341.95" cy="1188.2469" fill="#ADD1B2" rx="11" ry="11" style="stroke:#181818;stroke-width:1;"/><path d="M3344.9188,1193.8875 Q3344.3406,1194.1844 3343.7,1194.325 Q3343.0594,1194.4813 3342.3563,1194.4813 Q3339.8563,1194.4813 3338.5281,1192.8406 Q3337.2156,1191.1844 3337.2156,1188.0594 Q3337.2156,1184.9344 3338.5281,1183.2781 Q3339.8563,1181.6219 3342.3563,1181.6219 Q3343.0594,1181.6219 3343.7,1181.7781 Q3344.3563,1181.9344 3344.9188,1182.2313 L3344.9188,1184.95 Q3344.2938,1184.3719 3343.7,1184.1063 Q3343.1063,1183.825 3342.4813,1183.825 Q3341.1375,1183.825 3340.45,1184.9031 Q3339.7625,1185.9656 3339.7625,1188.0594 Q3339.7625,1190.1531 3340.45,1191.2313 Q3341.1375,1192.2938 3342.4813,1192.2938 Q3343.1063,1192.2938 3343.7,1192.0281 Q3344.2938,1191.7469 3344.9188,1191.1688 L3344.9188,1193.8875 Z " fill="#000000"/><text fill="#000000" font-family="sans-serif" font-size="14" lengthAdjust="spacing" textLength="242.293" x="3355.95" y="1193.0936">HyperionSpecifiedThreeDGridScan</text><line style="stroke:#181818;stroke-width:0.5;" x1="3327.95" x2="3600.243" y1="1204.2469" y2="1204.2469"/><line style="stroke:#181818;stroke-width:0.5;" x1="3327.95" x2="3600.243" y1="1212.2469" y2="1212.2469"/></g><!--class GridScanWithEdgeDetect--><g class="entity" data-entity="GridScanWithEdgeDetect" data-source-line="107" data-uid="ent0025" id="entity_GridScanWithEdgeDetect"><rect fill="#F1F1F1" height="48" rx="2.5" ry="2.5" style="stroke:#181818;stroke-width:0.5;" width="209.4268" x="3757.38" y="1312.8369"/><ellipse cx="3772.38" cy="1328.8369" fill="#ADD1B2" rx="11" ry="11" style="stroke:#181818;stroke-width:1;"/><path d="M3775.3488,1334.4775 Q3774.7706,1334.7744 3774.13,1334.915 Q3773.4894,1335.0713 3772.7863,1335.0713 Q3770.2863,1335.0713 3768.9581,1333.4306 Q3767.6456,1331.7744 3767.6456,1328.6494 Q3767.6456,1325.5244 3768.9581,1323.8681 Q3770.2863,1322.2119 3772.7863,1322.2119 Q3773.4894,1322.2119 3774.13,1322.3681 Q3774.7863,1322.5244 3775.3488,1322.8213 L3775.3488,1325.54 Q3774.7238,1324.9619 3774.13,1324.6963 Q3773.5363,1324.415 3772.9113,1324.415 Q3771.5675,1324.415 3770.88,1325.4931 Q3770.1925,1326.5556 3770.1925,1328.6494 Q3770.1925,1330.7431 3770.88,1331.8213 Q3771.5675,1332.8838 3772.9113,1332.8838 Q3773.5363,1332.8838 3774.13,1332.6181 Q3774.7238,1332.3369 3775.3488,1331.7588 L3775.3488,1334.4775 Z " fill="#000000"/><text fill="#000000" font-family="sans-serif" font-size="14" lengthAdjust="spacing" textLength="177.4268" x="3786.38" y="1333.6836">GridScanWithEdgeDetect</text><line style="stroke:#181818;stroke-width:0.5;" x1="3758.38" x2="3965.8068" y1="1344.8369" y2="1344.8369"/><line style="stroke:#181818;stroke-width:0.5;" x1="3758.38" x2="3965.8068" y1="1352.8369" y2="1352.8369"/></g><!--class MultiRotationScan--><g class="entity" data-entity="MultiRotationScan" data-source-line="109" data-uid="ent0026" id="entity_MultiRotationScan"><rect fill="#F1F1F1" height="64.2969" rx="2.5" ry="2.5" style="stroke:#181818;stroke-width:0.5;" width="540.001" x="3101.1" y="1304.6869"/><ellipse cx="3303.1327" cy="1320.6869" fill="#ADD1B2" rx="11" ry="11" style="stroke:#181818;stroke-width:1;"/><path d="M3306.1015,1326.3275 Q3305.5233,1326.6244 3304.8827,1326.765 Q3304.2421,1326.9213 3303.539,1326.9213 Q3301.039,1326.9213 3299.7108,1325.2806 Q3298.3983,1323.6244 3298.3983,1320.4994 Q3298.3983,1317.3744 3299.7108,1315.7181 Q3301.039,1314.0619 3303.539,1314.0619 Q3304.2421,1314.0619 3304.8827,1314.2181 Q3305.539,1314.3744 3306.1015,1314.6713 L3306.1015,1317.39 Q3305.4765,1316.8119 3304.8827,1316.5463 Q3304.289,1316.265 3303.664,1316.265 Q3302.3202,1316.265 3301.6327,1317.3431 Q3300.9452,1318.4056 3300.9452,1320.4994 Q3300.9452,1322.5931 3301.6327,1323.6713 Q3302.3202,1324.7338 3303.664,1324.7338 Q3304.289,1324.7338 3304.8827,1324.4681 Q3305.4765,1324.1869 3306.1015,1323.6088 L3306.1015,1326.3275 Z " fill="#000000"/><text fill="#000000" font-family="sans-serif" font-size="14" lengthAdjust="spacing" textLength="127.4355" x="3323.6327" y="1325.5336">MultiRotationScan</text><line style="stroke:#181818;stroke-width:0.5;" x1="3102.1" x2="3640.101" y1="1336.6869" y2="1336.6869"/><line style="stroke:#181818;stroke-width:0.5;" x1="3102.1" x2="3640.101" y1="1344.6869" y2="1344.6869"/><text fill="#000000" font-family="sans-serif" font-size="14" lengthAdjust="spacing" textLength="528.001" x="3107.1" y="1361.682">Annotated[list[RotationScanPerSweep], Len(min_length=1)] rotation_scans</text></g><!--class RotationExperiment--><g class="entity" data-entity="RotationExperiment" data-source-line="112" data-uid="ent0027" id="entity_RotationExperiment"><rect fill="#F1F1F1" height="96.8906" rx="2.5" ry="2.5" style="stroke:#181818;stroke-width:0.5;" width="332.332" x="2959.93" y="1147.7969"/><ellipse cx="3051.8118" cy="1163.7969" fill="#ADD1B2" rx="11" ry="11" style="stroke:#181818;stroke-width:1;"/><path d="M3054.7806,1169.4375 Q3054.2025,1169.7344 3053.5618,1169.875 Q3052.9212,1170.0313 3052.2181,1170.0313 Q3049.7181,1170.0313 3048.39,1168.3906 Q3047.0775,1166.7344 3047.0775,1163.6094 Q3047.0775,1160.4844 3048.39,1158.8281 Q3049.7181,1157.1719 3052.2181,1157.1719 Q3052.9212,1157.1719 3053.5618,1157.3281 Q3054.2181,1157.4844 3054.7806,1157.7813 L3054.7806,1160.5 Q3054.1556,1159.9219 3053.5618,1159.6563 Q3052.9681,1159.375 3052.3431,1159.375 Q3050.9993,1159.375 3050.3118,1160.4531 Q3049.6243,1161.5156 3049.6243,1163.6094 Q3049.6243,1165.7031 3050.3118,1166.7813 Q3050.9993,1167.8438 3052.3431,1167.8438 Q3052.9681,1167.8438 3053.5618,1167.5781 Q3054.1556,1167.2969 3054.7806,1166.7188 L3054.7806,1169.4375 Z " fill="#000000"/><text fill="#000000" font-family="sans-serif" font-size="14" lengthAdjust="spacing" textLength="140.0684" x="3072.3118" y="1168.6436">RotationExperiment</text><line style="stroke:#181818;stroke-width:0.5;" x1="2960.93" x2="3291.262" y1="1179.7969" y2="1179.7969"/><text fill="#000000" font-family="sans-serif" font-size="14" lengthAdjust="spacing" textLength="202.8018" x="2965.93" y="1196.792">float shutter_opening_time_s</text><text fill="#000000" font-family="sans-serif" font-size="14" lengthAdjust="spacing" textLength="202.9385" x="2965.93" y="1213.0889">float rotation_increment_deg</text><text fill="#000000" font-family="sans-serif" font-size="14" lengthAdjust="spacing" textLength="320.332" x="2965.93" y="1229.3857">IspybExperimentType ispyb_experiment_type</text><line style="stroke:#181818;stroke-width:0.5;" x1="2960.93" x2="3291.262" y1="1236.6875" y2="1236.6875"/></g><!--reverse link DiffractionExperiment to DiffractionExperimentWithSample--><g class="link" data-entity-1="DiffractionExperiment" data-entity-2="DiffractionExperimentWithSample" data-source-line="118" data-uid="lnk28" id="link_DiffractionExperiment_DiffractionExperimentWithSample"><path codeLine="118" d="M331.1,505.2469 C331.1,527.5069 331.1,530.9069 331.1,546.3269" fill="none" id="DiffractionExperiment-backto-DiffractionExperimentWithSample" style="stroke:#181818;stroke-width:1;"/><polygon fill="none" points="331.1,487.2469,325.1,505.2469,337.1,505.2469,331.1,487.2469" style="stroke:#181818;stroke-width:1;"/></g><!--reverse link WithSample to DiffractionExperimentWithSample--><g class="link" data-entity-1="WithSample" data-entity-2="DiffractionExperimentWithSample" data-source-line="119" data-uid="lnk29" id="link_WithSample_DiffractionExperimentWithSample"><path codeLine="119" d="M2314.1636,208.3872 C2302.5536,214.6072 2306.21,211.7269 2294.1,215.7869 C2052.55,296.6769 1975.72,236.0969 1724.1,275.7869 C1231.22,353.5169 649.45,491.4569 425.48,546.3069" fill="none" id="WithSample-backto-DiffractionExperimentWithSample" style="stroke:#181818;stroke-width:1;"/><polygon fill="none" points="2330.03,199.8869,2311.3301,203.0984,2316.997,213.6761,2330.03,199.8869" style="stroke:#181818;stroke-width:1;"/></g><!--reverse link XyzStarts to SpecifiedGrid--><g class="link" data-entity-1="XyzStarts" data-entity-2="SpecifiedGrid" data-source-line="120" data-uid="lnk30" id="link_XyzStarts_SpecifiedGrid"><path codeLine="120" d="M2173.5333,215.0197 C2142.5533,263.1197 2105.83,320.1269 2082.15,356.9069" fill="none" id="XyzStarts-backto-SpecifiedGrid" style="stroke:#181818;stroke-width:1;"/><polygon fill="none" points="2183.28,199.8869,2168.4891,211.7708,2178.5776,218.2686,2183.28,199.8869" style="stroke:#181818;stroke-width:1;"/></g><!--reverse link WithScan to SpecifiedGrid--><g class="link" data-entity-1="WithScan" data-entity-2="SpecifiedGrid" data-source-line="121" data-uid="lnk31" id="link_WithScan_SpecifiedGrid"><path codeLine="121" d="M2067.1,193.1769 C2067.1,236.9269 2067.1,313.2769 2067.1,357.0669" fill="none" id="WithScan-backto-SpecifiedGrid" style="stroke:#181818;stroke-width:1;"/><polygon fill="none" points="2067.1,175.1769,2061.1,193.1769,2073.1,193.1769,2067.1,175.1769" style="stroke:#181818;stroke-width:1;"/></g><!--reverse link MxBlueskyParameters to LoadCentreCollect--><g class="link" data-entity-1="MxBlueskyParameters" data-entity-2="LoadCentreCollect" data-source-line="122" data-uid="lnk32" id="link_MxBlueskyParameters_LoadCentreCollect"><path codeLine="122" d="M415.5804,190.1912 C447.4704,202.6812 469.12,209.0769 505.1,215.7869 C1031.08,313.8869 2396.73,131.9869 2912.1,275.7869 C3416.53,416.5269 3546.6,509.3469 3935.1,860.5369 C4034.42,950.3069 4116.46,1088.1269 4153.25,1155.4569" fill="none" id="MxBlueskyParameters-backto-LoadCentreCollect" style="stroke:#181818;stroke-width:1;"/><polygon fill="none" points="398.82,183.6269,413.3922,195.778,417.7685,184.6044,398.82,183.6269" style="stroke:#181818;stroke-width:1;"/></g><!--reverse link WithVisit to LoadCentreCollect--><g class="link" data-entity-1="WithVisit" data-entity-2="LoadCentreCollect" data-source-line="123" data-uid="lnk33" id="link_WithVisit_LoadCentreCollect"><path codeLine="123" d="M2000.4459,216.3612 C2165.4959,252.7612 3394.06,163.1769 3520.1,275.7869 C3618.66,363.8469 3565.1,437.5769 3565.1,569.7569 C3565.1,569.7569 3565.1,569.7569 3565.1,728.6469 C3565.1,903.0669 3473.15,997.0769 3597.1,1119.7969 C3627.97,1150.3669 3944.21,1140.8769 3987.1,1147.7969 C4000.32,1149.9369 4013.98,1152.5569 4027.62,1155.4769" fill="none" id="WithVisit-backto-LoadCentreCollect" style="stroke:#181818;stroke-width:1;"/><polygon fill="none" points="1983.11,211.5169,1998.8311,222.1398,2002.0606,210.5825,1983.11,211.5169" style="stroke:#181818;stroke-width:1;"/></g><!--reverse link WithSample to LoadCentreCollect--><g class="link" data-entity-1="WithSample" data-entity-2="LoadCentreCollect" data-source-line="124" data-uid="lnk34" id="link_WithSample_LoadCentreCollect"><path codeLine="124" d="M2484.2746,208.4879 C2496.0546,214.8379 2492.67,211.9369 2505.1,215.7869 C2620.54,251.5469 3501.61,194.5569 3591.1,275.7869 C3688.97,364.6169 3636.1,437.5769 3636.1,569.7569 C3636.1,569.7569 3636.1,569.7569 3636.1,728.6469 C3636.1,903.1869 3547.63,996.4369 3671.1,1119.7969 C3696.03,1144.7169 3952.35,1141.8869 3987.1,1147.7969 C3999.98,1149.9869 4013.27,1152.6169 4026.55,1155.4869" fill="none" id="WithSample-backto-LoadCentreCollect" style="stroke:#181818;stroke-width:1;"/><polygon fill="none" points="2468.43,199.9469,2481.4276,213.7694,2487.1216,203.2064,2468.43,199.9469" style="stroke:#181818;stroke-width:1;"/></g><!--reverse link WithCentreSelection to LoadCentreCollect--><g class="link" data-entity-1="WithCentreSelection" data-entity-2="LoadCentreCollect" data-source-line="125" data-uid="lnk35" id="link_WithCentreSelection_LoadCentreCollect"><path codeLine="125" d="M587.2573,190.4983 C559.4373,202.0083 543.52,207.3569 513.1,215.7869 C355.09,259.5469 275.44,171.2869 149.1,275.7869 C41.84,364.4969 41.1,430.5569 41.1,569.7569 C41.1,569.7569 41.1,569.7569 41.1,728.6469 C41.1,908.9969 6,1010.0269 149.1,1119.7969 C191.39,1152.2469 3934.23,1140.9969 3987.1,1147.7969 C4001.88,1149.6969 4017.18,1152.3769 4032.36,1155.4969" fill="none" id="WithCentreSelection-backto-LoadCentreCollect" style="stroke:#181818;stroke-width:1;"/><polygon fill="none" points="603.89,183.6169,584.9635,184.9541,589.5512,196.0425,603.89,183.6169" style="stroke:#181818;stroke-width:1;"/></g><!--reverse link WithHyperionUDCFeatures to LoadCentreCollect--><g class="link" data-entity-1="WithHyperionUDCFeatures" data-entity-2="LoadCentreCollect" data-source-line="126" data-uid="lnk36" id="link_WithHyperionUDCFeatures_LoadCentreCollect"><path codeLine="126" d="M3837.2873,1020.7668 C3862.7773,1053.3668 3895.59,1089.5569 3944.1,1119.7969 C3966.83,1133.9769 3992.51,1145.7669 4018.25,1155.4869" fill="none" id="WithHyperionUDCFeatures-backto-LoadCentreCollect" style="stroke:#181818;stroke-width:1;"/><polygon fill="none" points="3826.2,1006.5869,3832.5607,1024.4626,3842.014,1017.0711,3826.2,1006.5869" style="stroke:#181818;stroke-width:1;"/></g><!--reverse link GridCommonWithHyperionDetectorParams to PinTipCentreThenXrayCentre--><g class="link" data-entity-1="GridCommonWithHyperionDetectorParams" data-entity-2="PinTipCentreThenXrayCentre" data-source-line="127" data-uid="lnk37" id="link_GridCommonWithHyperionDetectorParams_PinTipCentreThenXrayCentre"><path codeLine="127" d="M3893.7242,1226.0496 C3965.9242,1248.9996 4059.46,1278.7369 4139.54,1304.1869" fill="none" id="GridCommonWithHyperionDetectorParams-backto-PinTipCentreThenXrayCentre" style="stroke:#181818;stroke-width:1;"/><polygon fill="none" points="3876.57,1220.5969,3891.9066,1231.7677,3895.5418,1220.3316,3876.57,1220.5969" style="stroke:#181818;stroke-width:1;"/></g><!--reverse link WithHyperionUDCFeatures to PinTipCentreThenXrayCentre--><g class="link" data-entity-1="WithHyperionUDCFeatures" data-entity-2="PinTipCentreThenXrayCentre" data-source-line="128" data-uid="lnk38" id="link_WithHyperionUDCFeatures_PinTipCentreThenXrayCentre"><path codeLine="128" d="M3935.4542,996.1889 C4087.0742,1022.5389 4323.9,1073.6269 4379.1,1147.7969 C4404.81,1182.3469 4399.62,1206.8369 4379.1,1244.6869 C4365.14,1270.4369 4340.4,1290.0569 4315.56,1304.3769" fill="none" id="WithHyperionUDCFeatures-backto-PinTipCentreThenXrayCentre" style="stroke:#181818;stroke-width:1;"/><polygon fill="none" points="3917.72,993.1069,3934.4268,1002.1003,3936.4815,990.2775,3917.72,993.1069" style="stroke:#181818;stroke-width:1;"/></g><!--reverse link WithPandaGridScan to WithHyperionUDCFeatures--><g class="link" data-entity-1="WithPandaGridScan" data-entity-2="WithHyperionUDCFeatures" data-source-line="129" data-uid="lnk39" id="link_WithPandaGridScan_WithHyperionUDCFeatures"><path codeLine="129" d="M2715.2057,191.6346 C2739.6357,203.8646 2752.97,208.5869 2781.1,215.7869 C2876.16,240.0869 3588.31,211.1169 3662.1,275.7869 C3863.68,452.4569 3824.83,830.6969 3808.31,941.8469" fill="none" id="WithPandaGridScan-backto-WithHyperionUDCFeatures" style="stroke:#181818;stroke-width:1;"/><polygon fill="none" points="2699.11,183.5769,2712.5198,196.9999,2717.8917,186.2694,2699.11,183.5769" style="stroke:#181818;stroke-width:1;"/></g><!--reverse link DiffractionExperimentWithSample to GridCommon--><g class="link" data-entity-1="DiffractionExperimentWithSample" data-entity-2="GridCommon" data-source-line="130" data-uid="lnk40" id="link_DiffractionExperimentWithSample_GridCommon"><path codeLine="130" d="M331.1,612.9369 C331.1,628.8869 331.1,633.0169 331.1,654.5769" fill="none" id="DiffractionExperimentWithSample-backto-GridCommon" style="stroke:#181818;stroke-width:1;"/><polygon fill="none" points="331.1,594.9369,325.1,612.9369,337.1,612.9369,331.1,594.9369" style="stroke:#181818;stroke-width:1;"/></g><!--reverse link OptionalGonioAngleStarts to GridCommon--><g class="link" data-entity-1="OptionalGonioAngleStarts" data-entity-2="GridCommon" data-source-line="131" data-uid="lnk41" id="link_OptionalGonioAngleStarts_GridCommon"><path codeLine="131" d="M1170.19,216.2703 C1130.46,236.9903 1101.44,252.7469 1061.1,275.7869 C838.3,403.0469 584.83,563.1669 442.83,654.3169" fill="none" id="OptionalGonioAngleStarts-backto-GridCommon" style="stroke:#181818;stroke-width:1;"/><polygon fill="none" points="1186.15,207.9469,1167.4156,210.9503,1172.9645,221.5903,1186.15,207.9469" style="stroke:#181818;stroke-width:1;"/></g><!--reverse link GridCommon to GridCommonWithHyperionDetectorParams--><g class="link" data-entity-1="GridCommon" data-entity-2="GridCommonWithHyperionDetectorParams" data-source-line="132" data-uid="lnk42" id="link_GridCommon_GridCommonWithHyperionDetectorParams"><path codeLine="132" d="M515.2738,743.9395 C999.7138,785.6095 2433,920.2069 3619.1,1147.7969 C3652.79,1154.2669 3689.48,1163.3069 3721.16,1171.7669" fill="none" id="GridCommon-backto-GridCommonWithHyperionDetectorParams" style="stroke:#181818;stroke-width:1;"/><polygon fill="none" points="497.34,742.3969,514.7596,749.9174,515.788,737.9616,497.34,742.3969" style="stroke:#181818;stroke-width:1;"/></g><!--reverse link WithHyperionUDCFeatures to GridCommonWithHyperionDetectorParams--><g class="link" data-entity-1="WithHyperionUDCFeatures" data-entity-2="GridCommonWithHyperionDetectorParams" data-source-line="133" data-uid="lnk43" id="link_WithHyperionUDCFeatures_GridCommonWithHyperionDetectorParams"><path codeLine="133" d="M3803.1,1024.6969 C3803.1,1069.3869 3803.1,1132.1269 3803.1,1171.8569" fill="none" id="WithHyperionUDCFeatures-backto-GridCommonWithHyperionDetectorParams" style="stroke:#181818;stroke-width:1;"/><polygon fill="none" points="3803.1,1006.6969,3797.1,1024.6969,3809.1,1024.6969,3803.1,1006.6969" style="stroke:#181818;stroke-width:1;"/></g><!--reverse link WithHyperionUDCFeatures to HyperionSpecifiedThreeDGridScan--><g class="link" data-entity-1="WithHyperionUDCFeatures" data-entity-2="HyperionSpecifiedThreeDGridScan" data-source-line="134" data-uid="lnk44" id="link_WithHyperionUDCFeatures_HyperionSpecifiedThreeDGridScan"><path codeLine="134" d="M3739.4324,1016.498 C3670.5924,1061.188 3561.33,1132.1269 3500.12,1171.8569" fill="none" id="WithHyperionUDCFeatures-backto-HyperionSpecifiedThreeDGridScan" style="stroke:#181818;stroke-width:1;"/><polygon fill="none" points="3754.53,1006.6969,3736.1654,1011.4655,3742.6995,1021.5306,3754.53,1006.6969" style="stroke:#181818;stroke-width:1;"/></g><!--reverse link SpecifiedThreeDGridScan to HyperionSpecifiedThreeDGridScan--><g class="link" data-entity-1="SpecifiedThreeDGridScan" data-entity-2="HyperionSpecifiedThreeDGridScan" data-source-line="135" data-uid="lnk45" id="link_SpecifiedThreeDGridScan_HyperionSpecifiedThreeDGridScan"><path codeLine="135" d="M515.8483,989.2494 C772.3983,1017.9694 1430.08,1088.2869 1996.1,1119.7969 C2287.71,1136.0369 3021.77,1101.2469 3310.1,1147.7969 C3341.03,1152.7969 3374.37,1162.4969 3402.1,1171.8369" fill="none" id="SpecifiedThreeDGridScan-backto-HyperionSpecifiedThreeDGridScan" style="stroke:#181818;stroke-width:1;"/><polygon fill="none" points="497.96,987.2469,515.1807,995.2122,516.5158,983.2867,497.96,987.2469" style="stroke:#181818;stroke-width:1;"/></g><!--reverse link GridCommonWithHyperionDetectorParams to GridScanWithEdgeDetect--><g class="link" data-entity-1="GridCommonWithHyperionDetectorParams" data-entity-2="GridScanWithEdgeDetect" data-source-line="136" data-uid="lnk46" id="link_GridCommonWithHyperionDetectorParams_GridScanWithEdgeDetect"><path codeLine="136" d="M3820.0207,1237.0085 C3830.9107,1262.5885 3841.29,1286.9469 3852.19,1312.5669" fill="none" id="GridCommonWithHyperionDetectorParams-backto-GridScanWithEdgeDetect" style="stroke:#181818;stroke-width:1;"/><polygon fill="none" points="3812.97,1220.4469,3814.5001,1239.3587,3825.5412,1234.6583,3812.97,1220.4469" style="stroke:#181818;stroke-width:1;"/></g><!--reverse link WithHyperionUDCFeatures to GridScanWithEdgeDetect--><g class="link" data-entity-1="WithHyperionUDCFeatures" data-entity-2="GridScanWithEdgeDetect" data-source-line="137" data-uid="lnk47" id="link_WithHyperionUDCFeatures_GridScanWithEdgeDetect"><path codeLine="137" d="M3935.331,997.5439 C4082.651,1024.7339 4308.21,1076.0769 4361.1,1147.7969 C4386.66,1182.4569 4388.68,1211.6169 4361.1,1244.6869 C4348.49,1259.8169 4109.88,1298.3069 3967.25,1320.1269" fill="none" id="WithHyperionUDCFeatures-backto-GridScanWithEdgeDetect" style="stroke:#181818;stroke-width:1;"/><polygon fill="none" points="3917.63,994.2769,3934.242,1003.4442,3936.42,991.6435,3917.63,994.2769" style="stroke:#181818;stroke-width:1;"/></g><!--reverse link RotationExperiment to MultiRotationScan--><g class="link" data-entity-1="RotationExperiment" data-entity-2="MultiRotationScan" data-source-line="138" data-uid="lnk48" id="link_RotationExperiment_MultiRotationScan"><path codeLine="138" d="M3226.4262,1254.0009 C3260.9962,1273.5609 3284.37,1286.7769 3315.27,1304.2569" fill="none" id="RotationExperiment-backto-MultiRotationScan" style="stroke:#181818;stroke-width:1;"/><polygon fill="none" points="3210.76,1245.1369,3223.4715,1259.223,3229.3808,1248.7789,3210.76,1245.1369" style="stroke:#181818;stroke-width:1;"/></g><!--reverse link SplitScan to MultiRotationScan--><g class="link" data-entity-1="SplitScan" data-entity-2="MultiRotationScan" data-source-line="139" data-uid="lnk49" id="link_SplitScan_MultiRotationScan"><path codeLine="139" d="M2914.0947,154.5681 C3185.1247,165.7381 4470.1,236.0669 4470.1,569.7569 C4470.1,569.7569 4470.1,569.7569 4470.1,975.1669 C4470.1,1104.3769 4464.81,1167.6169 4361.1,1244.6869 C4353.84,1250.0769 3931.95,1287.4669 3641.32,1312.6469" fill="none" id="SplitScan-backto-MultiRotationScan" style="stroke:#181818;stroke-width:1;"/><polygon fill="none" points="2896.11,153.8269,2913.8477,160.563,2914.3418,148.5732,2896.11,153.8269" style="stroke:#181818;stroke-width:1;"/></g><!--reverse link DiffractionExperimentWithSample to RotationExperiment--><g class="link" data-entity-1="DiffractionExperimentWithSample" data-entity-2="RotationExperiment" data-source-line="140" data-uid="lnk50" id="link_DiffractionExperimentWithSample_RotationExperiment"><path codeLine="140" d="M210.4678,601.8378 C179.3878,614.2178 165.45,626.3469 147.1,654.7569 C60.67,788.5569 252.26,1107.8769 269.1,1119.7969 C324.27,1158.8669 2357.26,1186.1069 2959.58,1193.3369" fill="none" id="DiffractionExperimentWithSample-backto-RotationExperiment" style="stroke:#181818;stroke-width:1;"/><polygon fill="none" points="227.19,595.1769,208.2475,596.2637,212.6881,607.4119,227.19,595.1769" style="stroke:#181818;stroke-width:1;"/></g><!--reverse link WithHyperionUDCFeatures to RotationExperiment--><g class="link" data-entity-1="WithHyperionUDCFeatures" data-entity-2="RotationExperiment" data-source-line="141" data-uid="lnk51" id="link_WithHyperionUDCFeatures_RotationExperiment"><path codeLine="141" d="M3688.982,1012.2622 C3575.822,1049.0522 3404.65,1104.6969 3273.41,1147.3569" fill="none" id="WithHyperionUDCFeatures-backto-RotationExperiment" style="stroke:#181818;stroke-width:1;"/><polygon fill="none" points="3706.1,1006.6969,3687.1269,1006.5562,3690.8371,1017.9682,3706.1,1006.6969" style="stroke:#181818;stroke-width:1;"/></g><!--reverse link MxBlueskyParameters to DiffractionExperiment--><g class="link" data-entity-1="MxBlueskyParameters" data-entity-2="DiffractionExperiment" data-source-line="142" data-uid="lnk52" id="link_MxBlueskyParameters_DiffractionExperiment"><path codeLine="142" d="M327.9651,201.2941 C328.3851,225.2841 328.67,241.8769 329.26,275.3969" fill="none" id="MxBlueskyParameters-backto-DiffractionExperiment" style="stroke:#181818;stroke-width:1;"/><polygon fill="none" points="327.65,183.2969,321.966,201.3991,333.9642,201.1891,327.65,183.2969" style="stroke:#181818;stroke-width:1;"/></g><!--reverse link WithSnapshot to DiffractionExperiment--><g class="link" data-entity-1="WithSnapshot" data-entity-2="DiffractionExperiment" data-source-line="143" data-uid="lnk53" id="link_WithSnapshot_DiffractionExperiment"><path codeLine="143" d="M898.8921,198.2163 C876.1421,207.0563 868.37,209.2269 845.1,215.7869 C697.41,257.4169 648.83,222.0569 505.1,275.7869 C502.62,276.7069 500.14,277.6669 497.66,278.6669" fill="none" id="WithSnapshot-backto-DiffractionExperiment" style="stroke:#181818;stroke-width:1;"/><polygon fill="none" points="915.67,191.6969,896.719,192.6237,901.0653,203.8089,915.67,191.6969" style="stroke:#181818;stroke-width:1;"/></g><!--reverse link WithOptionalEnergyChange to DiffractionExperiment--><g class="link" data-entity-1="WithOptionalEnergyChange" data-entity-2="DiffractionExperiment" data-source-line="144" data-uid="lnk54" id="link_WithOptionalEnergyChange_DiffractionExperiment"><path codeLine="144" d="M1487.3716,191.8373 C1463.4916,204.0773 1450.7,208.6369 1423.1,215.7869 C1027.26,318.2069 895.34,153.7769 505.1,275.7869 C502.58,276.5769 500.05,277.4069 497.53,278.2769" fill="none" id="WithOptionalEnergyChange-backto-DiffractionExperiment" style="stroke:#181818;stroke-width:1;"/><polygon fill="none" points="1503.39,183.6269,1484.6348,186.4978,1490.1084,197.1768,1503.39,183.6269" style="stroke:#181818;stroke-width:1;"/></g><!--reverse link WithVisit to DiffractionExperiment--><g class="link" data-entity-1="WithVisit" data-entity-2="DiffractionExperiment" data-source-line="145" data-uid="lnk55" id="link_WithVisit_DiffractionExperiment"><path codeLine="145" d="M1693.7093,216.1304 C1687.7093,217.8404 1699.03,214.4469 1693.1,215.7869 C1177.34,331.9069 1010.84,121.7669 505.1,275.7869 C502.57,276.5569 500.04,277.3669 497.51,278.2269" fill="none" id="WithVisit-backto-DiffractionExperiment" style="stroke:#181818;stroke-width:1;"/><polygon fill="none" points="1711.02,211.1969,1692.0648,210.3602,1695.3538,221.9007,1711.02,211.1969" style="stroke:#181818;stroke-width:1;"/></g><!--reverse link GridCommon to SpecifiedThreeDGridScan--><g class="link" data-entity-1="GridCommon" data-entity-2="SpecifiedThreeDGridScan" data-source-line="146" data-uid="lnk56" id="link_GridCommon_SpecifiedThreeDGridScan"><path codeLine="146" d="M353.509,818.4811 C358.149,837.0711 358.89,840.0469 363.91,860.1669" fill="none" id="GridCommon-backto-SpecifiedThreeDGridScan" style="stroke:#181818;stroke-width:1;"/><polygon fill="none" points="349.15,801.0169,347.6876,819.9341,359.3304,817.0281,349.15,801.0169" style="stroke:#181818;stroke-width:1;"/></g><!--reverse link SpecifiedGrid to SpecifiedThreeDGridScan--><g class="link" data-entity-1="SpecifiedGrid" data-entity-2="SpecifiedThreeDGridScan" data-source-line="147" data-uid="lnk57" id="link_SpecifiedGrid_SpecifiedThreeDGridScan"><path codeLine="147" d="M2049.5509,422.1558 C2016.5709,495.2958 1912.01,703.5369 1742.1,800.5369 C1529.65,921.8069 777.68,959.8369 497.95,969.9469" fill="none" id="SpecifiedGrid-backto-SpecifiedThreeDGridScan" style="stroke:#181818;stroke-width:1;"/><polygon fill="none" points="2056.95,405.7469,2044.0813,419.6895,2055.0206,424.6222,2056.95,405.7469" style="stroke:#181818;stroke-width:1;"/></g><!--reverse link SplitScan to SpecifiedThreeDGridScan--><g class="link" data-entity-1="SplitScan" data-entity-2="SpecifiedThreeDGridScan" data-source-line="148" data-uid="lnk58" id="link_SplitScan_SpecifiedThreeDGridScan"><path codeLine="148" d="M2818.4267,189.2249 C2806.4767,203.5649 2800.72,206.9769 2781.1,215.7869 C2619.65,288.2169 2158.81,233.0669 1987.1,275.7869 C1830.79,314.6669 828.69,772.4169 497.89,924.4369" fill="none" id="SplitScan-backto-SpecifiedThreeDGridScan" style="stroke:#181818;stroke-width:1;"/><polygon fill="none" points="2829.95,175.3969,2813.8174,185.3838,2823.036,193.066,2829.95,175.3969" style="stroke:#181818;stroke-width:1;"/></g><!--reverse link WithOptionalEnergyChange to SpecifiedThreeDGridScan--><g class="link" data-entity-1="WithOptionalEnergyChange" data-entity-2="SpecifiedThreeDGridScan" data-source-line="149" data-uid="lnk59" id="link_WithOptionalEnergyChange_SpecifiedThreeDGridScan"><path codeLine="149" d="M1498.7432,193.841 C1330.0632,312.631 743.42,725.7569 497.77,898.7469" fill="none" id="WithOptionalEnergyChange-backto-SpecifiedThreeDGridScan" style="stroke:#181818;stroke-width:1;"/><polygon fill="none" points="1513.46,183.4769,1495.2885,188.9353,1502.1978,198.7466,1513.46,183.4769" style="stroke:#181818;stroke-width:1;"/></g><!--SRC=[fLRVRzis47ws_Wg-RGEM0Etpzf0wQJUWwOpQomeK0K5BPuc8H18abLfnyx_tJfHasP9i5tkI-DqF7k_kE_ANLIOTsyWS67v5wVLL2Wgiy92mTSNQ1JUvKBuiycjJHP6N7Wt-gWnOgHLR22iAy63PlKuWZnnufX1nHiIm18DYhorJMa4K8VOaKc35bg_p4jnJTHthej3gshHk7Dj5NgVWCtIvY-9SECV-apwRW_8MFUOGUznu5yrMsdnwLzsBxLoNodSIvke_7jS6BdhjELd60Ytxo8DqqgCpvorRWoXoYO7MgsUIXDy4F4-ayznhJaeyrkePB8RBZV1PK9BA8OG1S6DX8xVHR9DhuTbtzWaFJpumAcrhHqB5m8kYY-HBzRBqmdgtQwsst170ow95gW7oiaSE3YaAamDwaiepLo-uJCAo2QP1JHa_ZU9ITHwN9fT-cBUb4iPbcbAtm1GmrwpnUBO-PnNDSZpfrphKnsw3LaqNa0h74qWFt2w4IiG7AvEmOtDGGoYtfIhDQFh8yXz3kHVv7JPjMiqpeLBO3MfGe2SEjGg7vyv1Q_n1AwblL9h3KJaQ1tNKJTOfz4EfoUIaB3uXUnB6zBtkKm-nt4X8A26K_jSXDKWqhpdKnRhMs3po1NgTag8M_oOJd_L0s1hjIWlSomAuYsP_ErEjxxR4x0B9iqAEusH0Z4C7SezeDBl1jKVR1u4yxefR4myIBXffkvENXklD1cT3lrVlj-_24EXc2ELxIJNoCdx09R6vcmoye073dmFUURcLcuqLDVFteJU4fjd6QHfD7fcqQ0IX3GuKAzCKB0qoviD_lUa1HR0BkIgBDTYVpe8LoXNIKVYSOlwfZ5Ea3dc5yxFFiRNMEIiTSAjb2FPaOlhpOT1cgym2t0xOHytp9X2stxm4lnt2DBZ073TWDOg-ZEk-7KwwFaJ52BkuiAZwYvTsKMU6KyyvNwwR_dCrYrx7RgAikT8ExwAGeezQ9E42ckkSoel9-QpNsfDWbO4AGcO9unXomf6bghc3ejbzcNlvMNj1rQ3aie8GB5g0k4EiAyX2gfKqmIKv_s955LQxquoYwhOtyx-ty_SWgF-8LItQGEzpaUBLtyWx-_qmwNkwRMwkcgPktpUjVB9_-cu98QTtIGh1uLu-o0u6VACK0P1yhM-HldG1TlaDm3p-pZw2-hMGYkUWKf_z-UQtHtQGqltHMWS7CoBaqcMbf_cY3IYfqcus16ddJwhOGat8kjilfoxrsoWPsH_VhwxEyJJQ_rwctxqbWlh19HArZw0nsSWy3cg3xe-wbzCfXNxGunf7RxfJgYDjFQL-IHS7sscYdTxpZDt18oPOJBYBpXGp6EyF54qzL0QA-zzZqNHIJX_w_tiuCp2Y2VmouykhFZwEpXz-n6OuLOBwOA95tJDwIk6YJXZkTphi4Vr9bey64FNV-kVqnfxWvsnwKsHSwRYHppOF8UTK3senfNRwI1DMFm00]--></g></svg>