<svg xmlns="http://www.w3.org/2000/svg" xmlns:xlink="http://www.w3.org/1999/xlink" contentStyleType="text/css" data-diagram-type="CLASS" height="1391px" preserveAspectRatio="none" style="width:4332px;height:1391px;background:#FFFFFF;" version="1.1" viewBox="0 0 4332 1391" width="4332px" zoomAndPan="magnify"><title>Hyperion Parameter Model</title><defs/><g><g class="title" data-source-line="3"><text fill="#000000" font-family="sans-serif" font-size="14" font-weight="bold" lengthAdjust="spacing" textLength="212.4951" x="2053.0274" y="22.9951">Hyperion Parameter Model</text></g><!--cluster mx_bluesky.common.parameters--><g class="cluster" data-entity="mx_bluesky.common.parameters" data-source-line="6" data-uid="ent0002" id="cluster_mx_bluesky.common.parameters"><path d="M8.5,43.2969 L269.8125,43.2969 A3.75,3.75 0 0 1 272.3125,45.7969 L279.3125,65.5938 L2782.5,65.5938 A2.5,2.5 0 0 1 2785,68.0938 L2785,1109.2969 A2.5,2.5 0 0 1 2782.5,1111.7969 L8.5,1111.7969 A2.5,2.5 0 0 1 6,1109.2969 L6,45.7969 A2.5,2.5 0 0 1 8.5,43.2969" fill="none" style="stroke:#000000;stroke-width:1.5;"/><line style="stroke:#000000;stroke-width:1.5;" x1="6" x2="279.3125" y1="65.5938" y2="65.5938"/><text fill="#000000" font-family="sans-serif" font-size="14" font-weight="bold" lengthAdjust="spacing" textLength="260.3125" x="10" y="58.292">mx_bluesky.common.parameters</text></g><!--cluster mx_bluesky.hyperion.parameters--><g class="cluster" data-entity="mx_bluesky.hyperion.parameters" data-source-line="92" data-uid="ent0019" id="cluster_mx_bluesky.hyperion.parameters"><path d="M2811.5,907.0169 L3076.0322,907.0169 A3.75,3.75 0 0 1 3078.5322,909.5169 L3085.5322,929.3138 L4295.5,929.3138 A2.5,2.5 0 0 1 4298,931.8138 L4298,1382.4869 A2.5,2.5 0 0 1 4295.5,1384.9869 L2811.5,1384.9869 A2.5,2.5 0 0 1 2809,1382.4869 L2809,909.5169 A2.5,2.5 0 0 1 2811.5,907.0169" fill="none" style="stroke:#000000;stroke-width:1.5;"/><line style="stroke:#000000;stroke-width:1.5;" x1="2809" x2="3085.5322" y1="929.3138" y2="929.3138"/><text fill="#000000" font-family="sans-serif" font-size="14" font-weight="bold" lengthAdjust="spacing" textLength="263.5322" x="2813" y="922.012">mx_bluesky.hyperion.parameters</text></g><!--class OptionalGonioAngleStarts--><g class="entity" data-entity="OptionalGonioAngleStarts" data-source-line="8" data-uid="ent0003" id="entity_OptionalGonioAngleStarts"><rect fill="#F1F1F1" height="113.1875" rx="2.5" ry="2.5" style="stroke:#181818;stroke-width:0.5;" width="219.3203" x="593.34" y="94.4469"/><ellipse cx="611.0633" cy="110.4469" fill="#ADD1B2" rx="11" ry="11" style="stroke:#181818;stroke-width:1;"/><path d="M614.032,116.0875 Q613.4539,116.3844 612.8133,116.525 Q612.1727,116.6813 611.4695,116.6813 Q608.9695,116.6813 607.6414,115.0406 Q606.3289,113.3844 606.3289,110.2594 Q606.3289,107.1344 607.6414,105.4781 Q608.9695,103.8219 611.4695,103.8219 Q612.1727,103.8219 612.8133,103.9781 Q613.4695,104.1344 614.032,104.4313 L614.032,107.15 Q613.407,106.5719 612.8133,106.3063 Q612.2195,106.025 611.5945,106.025 Q610.2508,106.025 609.5633,107.1031 Q608.8758,108.1656 608.8758,110.2594 Q608.8758,112.3531 609.5633,113.4313 Q610.2508,114.4938 611.5945,114.4938 Q612.2195,114.4938 612.8133,114.2281 Q613.407,113.9469 614.032,113.3688 L614.032,116.0875 Z " fill="#000000"/><text fill="#000000" font-family="sans-serif" font-size="14" lengthAdjust="spacing" textLength="181.2686" x="625.6685" y="115.2936">OptionalGonioAngleStarts</text><line style="stroke:#181818;stroke-width:0.5;" x1="594.34" x2="811.6603" y1="126.4469" y2="126.4469"/><text fill="#000000" font-family="sans-serif" font-size="14" lengthAdjust="spacing" textLength="207.3203" x="599.34" y="143.442">float | None omega_start_deg</text><text fill="#000000" font-family="sans-serif" font-size="14" lengthAdjust="spacing" textLength="180.6875" x="599.34" y="159.7389">float | None phi_start_deg</text><text fill="#000000" font-family="sans-serif" font-size="14" lengthAdjust="spacing" textLength="179.498" x="599.34" y="176.0357">float | None chi_start_deg</text><text fill="#000000" font-family="sans-serif" font-size="14" lengthAdjust="spacing" textLength="202.0771" x="599.34" y="192.3326">float | None kappa_start_deg</text><line style="stroke:#181818;stroke-width:0.5;" x1="594.34" x2="811.6603" y1="199.6344" y2="199.6344"/></g><!--class WithPandaGridScan--><g class="entity" data-entity="WithPandaGridScan" data-source-line="14" data-uid="ent0004" id="entity_WithPandaGridScan"><rect fill="#F1F1F1" height="64.2969" rx="2.5" ry="2.5" style="stroke:#181818;stroke-width:0.5;" width="240.5664" x="1822.72" y="118.8969"/><ellipse cx="1869.3172" cy="134.8969" fill="#ADD1B2" rx="11" ry="11" style="stroke:#181818;stroke-width:1;"/><path d="M1872.2859,140.5375 Q1871.7078,140.8344 1871.0672,140.975 Q1870.4265,141.1313 1869.7234,141.1313 Q1867.2234,141.1313 1865.8953,139.4906 Q1864.5828,137.8344 1864.5828,134.7094 Q1864.5828,131.5844 1865.8953,129.9281 Q1867.2234,128.2719 1869.7234,128.2719 Q1870.4265,128.2719 1871.0672,128.4281 Q1871.7234,128.5844 1872.2859,128.8813 L1872.2859,131.6 Q1871.6609,131.0219 1871.0672,130.7563 Q1870.4734,130.475 1869.8484,130.475 Q1868.5047,130.475 1867.8172,131.5531 Q1867.1297,132.6156 1867.1297,134.7094 Q1867.1297,136.8031 1867.8172,137.8813 Q1868.5047,138.9438 1869.8484,138.9438 Q1870.4734,138.9438 1871.0672,138.6781 Q1871.6609,138.3969 1872.2859,137.8188 L1872.2859,140.5375 Z " fill="#000000"/><text fill="#000000" font-family="sans-serif" font-size="14" lengthAdjust="spacing" textLength="138.8721" x="1889.8172" y="139.7436">WithPandaGridScan</text><line style="stroke:#181818;stroke-width:0.5;" x1="1823.72" x2="2062.2864" y1="150.8969" y2="150.8969"/><text fill="#000000" font-family="sans-serif" font-size="14" lengthAdjust="spacing" textLength="228.5664" x="1828.72" y="167.892">float panda_runup_distance_mm</text><line style="stroke:#181818;stroke-width:0.5;" x1="1823.72" x2="2062.2864" y1="175.1938" y2="175.1938"/></g><!--class XyzStarts--><g class="entity" data-entity="XyzStarts" data-source-line="17" data-uid="ent0005" id="entity_XyzStarts"><rect fill="#F1F1F1" height="96.8906" rx="2.5" ry="2.5" style="stroke:#181818;stroke-width:0.5;" width="125.3057" x="433.35" y="102.5969"/><ellipse cx="460.3141" cy="118.5969" fill="#ADD1B2" rx="11" ry="11" style="stroke:#181818;stroke-width:1;"/><path d="M463.2829,124.2375 Q462.7047,124.5344 462.0641,124.675 Q461.4235,124.8312 460.7204,124.8312 Q458.2204,124.8312 456.8922,123.1906 Q455.5797,121.5344 455.5797,118.4094 Q455.5797,115.2844 456.8922,113.6281 Q458.2204,111.9719 460.7204,111.9719 Q461.4235,111.9719 462.0641,112.1281 Q462.7204,112.2844 463.2829,112.5812 L463.2829,115.3 Q462.6579,114.7219 462.0641,114.4562 Q461.4704,114.175 460.8454,114.175 Q459.5016,114.175 458.8141,115.2531 Q458.1266,116.3156 458.1266,118.4094 Q458.1266,120.5031 458.8141,121.5812 Q459.5016,122.6437 460.8454,122.6437 Q461.4704,122.6437 462.0641,122.3781 Q462.6579,122.0969 463.2829,121.5187 L463.2829,124.2375 Z " fill="#000000"/><text fill="#000000" font-family="sans-serif" font-size="14" lengthAdjust="spacing" textLength="66.7188" x="476.9728" y="123.4436">XyzStarts</text><line style="stroke:#181818;stroke-width:0.5;" x1="434.35" x2="557.6557" y1="134.5969" y2="134.5969"/><text fill="#000000" font-family="sans-serif" font-size="14" lengthAdjust="spacing" textLength="113.3057" x="439.35" y="151.592">float x_start_um</text><text fill="#000000" font-family="sans-serif" font-size="14" lengthAdjust="spacing" textLength="113.3057" x="439.35" y="167.8889">float y_start_um</text><text fill="#000000" font-family="sans-serif" font-size="14" lengthAdjust="spacing" textLength="112.3691" x="439.35" y="184.1857">float z_start_um</text><line style="stroke:#181818;stroke-width:0.5;" x1="434.35" x2="557.6557" y1="191.4875" y2="191.4875"/></g><!--class WithOptionalEnergyChange--><g class="entity" data-entity="WithOptionalEnergyChange" data-source-line="22" data-uid="ent0006" id="entity_WithOptionalEnergyChange"><rect fill="#F1F1F1" height="64.2969" rx="2.5" ry="2.5" style="stroke:#181818;stroke-width:0.5;" width="235.4463" x="163.28" y="118.8969"/><ellipse cx="182.4645" cy="134.8969" fill="#ADD1B2" rx="11" ry="11" style="stroke:#181818;stroke-width:1;"/><path d="M185.4332,140.5375 Q184.8551,140.8344 184.2145,140.975 Q183.5738,141.1313 182.8707,141.1313 Q180.3707,141.1313 179.0426,139.4906 Q177.7301,137.8344 177.7301,134.7094 Q177.7301,131.5844 179.0426,129.9281 Q180.3707,128.2719 182.8707,128.2719 Q183.5738,128.2719 184.2145,128.4281 Q184.8707,128.5844 185.4332,128.8813 L185.4332,131.6 Q184.8082,131.0219 184.2145,130.7563 Q183.6207,130.475 182.9957,130.475 Q181.652,130.475 180.9645,131.5531 Q180.277,132.6156 180.277,134.7094 Q180.277,136.8031 180.9645,137.8813 Q181.652,138.9438 182.9957,138.9438 Q183.6207,138.9438 184.2145,138.6781 Q184.8082,138.3969 185.4332,137.8188 L185.4332,140.5375 Z " fill="#000000"/><text fill="#000000" font-family="sans-serif" font-size="14" lengthAdjust="spacing" textLength="194.1475" x="197.3944" y="139.7436">WithOptionalEnergyChange</text><line style="stroke:#181818;stroke-width:0.5;" x1="164.28" x2="397.7263" y1="150.8969" y2="150.8969"/><text fill="#000000" font-family="sans-serif" font-size="14" lengthAdjust="spacing" textLength="223.4463" x="169.28" y="167.892">float | None demand_energy_ev</text><line style="stroke:#181818;stroke-width:0.5;" x1="164.28" x2="397.7263" y1="175.1938" y2="175.1938"/></g><!--class WithCentreSelection--><g class="entity" data-entity="WithCentreSelection" data-source-line="25" data-uid="ent0007" id="entity_WithCentreSelection"><rect fill="#F1F1F1" height="64.2969" rx="2.5" ry="2.5" style="stroke:#181818;stroke-width:0.5;" width="306.7861" x="2098.61" y="118.8969"/><ellipse cx="2175.8869" cy="134.8969" fill="#ADD1B2" rx="11" ry="11" style="stroke:#181818;stroke-width:1;"/><path d="M2178.8556,140.5375 Q2178.2775,140.8344 2177.6369,140.975 Q2176.9962,141.1313 2176.2931,141.1313 Q2173.7931,141.1313 2172.465,139.4906 Q2171.1525,137.8344 2171.1525,134.7094 Q2171.1525,131.5844 2172.465,129.9281 Q2173.7931,128.2719 2176.2931,128.2719 Q2176.9962,128.2719 2177.6369,128.4281 Q2178.2931,128.5844 2178.8556,128.8813 L2178.8556,131.6 Q2178.2306,131.0219 2177.6369,130.7563 Q2177.0431,130.475 2176.4181,130.475 Q2175.0744,130.475 2174.3869,131.5531 Q2173.6994,132.6156 2173.6994,134.7094 Q2173.6994,136.8031 2174.3869,137.8813 Q2175.0744,138.9438 2176.4181,138.9438 Q2177.0431,138.9438 2177.6369,138.6781 Q2178.2306,138.3969 2178.8556,137.8188 L2178.8556,140.5375 Z " fill="#000000"/><text fill="#000000" font-family="sans-serif" font-size="14" lengthAdjust="spacing" textLength="143.7324" x="2196.3869" y="139.7436">WithCentreSelection</text><line style="stroke:#181818;stroke-width:0.5;" x1="2099.61" x2="2404.3961" y1="150.8969" y2="150.8969"/><text fill="#000000" font-family="sans-serif" font-size="14" lengthAdjust="spacing" textLength="294.7861" x="2104.61" y="167.892">TopNByMaxCountSelection select_centres</text><line style="stroke:#181818;stroke-width:0.5;" x1="2099.61" x2="2404.3961" y1="175.1938" y2="175.1938"/></g><!--class SpecifiedGrid--><g class="entity" data-entity="SpecifiedGrid" data-source-line="28" data-uid="ent0008" id="entity_SpecifiedGrid"><rect fill="#F1F1F1" height="48" rx="2.5" ry="2.5" style="stroke:#181818;stroke-width:0.5;" width="125.6729" x="1144.16" y="357.2669"/><ellipse cx="1159.16" cy="373.2669" fill="#ADD1B2" rx="11" ry="11" style="stroke:#181818;stroke-width:1;"/><path d="M1162.1288,378.9075 Q1161.5506,379.2044 1160.91,379.345 Q1160.2694,379.5013 1159.5663,379.5013 Q1157.0663,379.5013 1155.7381,377.8606 Q1154.4256,376.2044 1154.4256,373.0794 Q1154.4256,369.9544 1155.7381,368.2981 Q1157.0663,366.6419 1159.5663,366.6419 Q1160.2694,366.6419 1160.91,366.7981 Q1161.5663,366.9544 1162.1288,367.2513 L1162.1288,369.97 Q1161.5038,369.3919 1160.91,369.1263 Q1160.3163,368.845 1159.6913,368.845 Q1158.3475,368.845 1157.66,369.9231 Q1156.9725,370.9856 1156.9725,373.0794 Q1156.9725,375.1731 1157.66,376.2513 Q1158.3475,377.3138 1159.6913,377.3138 Q1160.3163,377.3138 1160.91,377.0481 Q1161.5038,376.7669 1162.1288,376.1888 L1162.1288,378.9075 Z " fill="#000000"/><text fill="#000000" font-family="sans-serif" font-size="14" lengthAdjust="spacing" textLength="93.6729" x="1173.16" y="378.1136">SpecifiedGrid</text><line style="stroke:#181818;stroke-width:0.5;" x1="1145.16" x2="1268.8329" y1="389.2669" y2="389.2669"/><line style="stroke:#181818;stroke-width:0.5;" x1="1145.16" x2="1268.8329" y1="397.2669" y2="397.2669"/></g><!--class WithSnapshot--><g class="entity" data-entity="WithSnapshot" data-source-line="30" data-uid="ent0009" id="entity_WithSnapshot"><rect fill="#F1F1F1" height="80.5938" rx="2.5" ry="2.5" style="stroke:#181818;stroke-width:0.5;" width="289.3477" x="1191.33" y="110.7469"/><ellipse cx="1282.9828" cy="126.7469" fill="#ADD1B2" rx="11" ry="11" style="stroke:#181818;stroke-width:1;"/><path d="M1285.9516,132.3875 Q1285.3735,132.6844 1284.7328,132.825 Q1284.0922,132.9813 1283.3891,132.9813 Q1280.8891,132.9813 1279.561,131.3406 Q1278.2485,129.6844 1278.2485,126.5594 Q1278.2485,123.4344 1279.561,121.7781 Q1280.8891,120.1219 1283.3891,120.1219 Q1284.0922,120.1219 1284.7328,120.2781 Q1285.3891,120.4344 1285.9516,120.7313 L1285.9516,123.45 Q1285.3266,122.8719 1284.7328,122.6063 Q1284.1391,122.325 1283.5141,122.325 Q1282.1703,122.325 1281.4828,123.4031 Q1280.7953,124.4656 1280.7953,126.5594 Q1280.7953,128.6531 1281.4828,129.7313 Q1282.1703,130.7938 1283.5141,130.7938 Q1284.1391,130.7938 1284.7328,130.5281 Q1285.3266,130.2469 1285.9516,129.6688 L1285.9516,132.3875 Z " fill="#000000"/><text fill="#000000" font-family="sans-serif" font-size="14" lengthAdjust="spacing" textLength="97.542" x="1303.4828" y="131.5936">WithSnapshot</text><line style="stroke:#181818;stroke-width:0.5;" x1="1192.33" x2="1479.6777" y1="142.7469" y2="142.7469"/><text fill="#000000" font-family="sans-serif" font-size="14" lengthAdjust="spacing" textLength="169.627" x="1197.33" y="159.742">Path snapshot_directory</text><text fill="#000000" font-family="sans-serif" font-size="14" lengthAdjust="spacing" textLength="277.3477" x="1197.33" y="176.0389">list[float] | None snapshot_omegas_deg</text><line style="stroke:#181818;stroke-width:0.5;" x1="1192.33" x2="1479.6777" y1="183.3406" y2="183.3406"/></g><!--class SplitScan--><g class="entity" data-entity="SplitScan" data-source-line="34" data-uid="ent0010" id="entity_SplitScan"><rect fill="#F1F1F1" height="48" rx="2.5" ry="2.5" style="stroke:#181818;stroke-width:0.5;" width="97.0781" x="1059.46" y="127.0369"/><ellipse cx="1074.46" cy="143.0369" fill="#ADD1B2" rx="11" ry="11" style="stroke:#181818;stroke-width:1;"/><path d="M1077.4288,148.6775 Q1076.8506,148.9744 1076.21,149.115 Q1075.5694,149.2713 1074.8663,149.2713 Q1072.3663,149.2713 1071.0381,147.6306 Q1069.7256,145.9744 1069.7256,142.8494 Q1069.7256,139.7244 1071.0381,138.0681 Q1072.3663,136.4119 1074.8663,136.4119 Q1075.5694,136.4119 1076.21,136.5681 Q1076.8663,136.7244 1077.4288,137.0213 L1077.4288,139.74 Q1076.8038,139.1619 1076.21,138.8963 Q1075.6163,138.615 1074.9913,138.615 Q1073.6475,138.615 1072.96,139.6931 Q1072.2725,140.7556 1072.2725,142.8494 Q1072.2725,144.9431 1072.96,146.0213 Q1073.6475,147.0838 1074.9913,147.0838 Q1075.6163,147.0838 1076.21,146.8181 Q1076.8038,146.5369 1077.4288,145.9588 L1077.4288,148.6775 Z " fill="#000000"/><text fill="#000000" font-family="sans-serif" font-size="14" lengthAdjust="spacing" textLength="65.0781" x="1088.46" y="147.8836">SplitScan</text><line style="stroke:#181818;stroke-width:0.5;" x1="1060.46" x2="1155.5381" y1="159.0369" y2="159.0369"/><line style="stroke:#181818;stroke-width:0.5;" x1="1060.46" x2="1155.5381" y1="167.0369" y2="167.0369"/></g><!--class WithVisit--><g class="entity" data-entity="WithVisit" data-source-line="36" data-uid="ent0011" id="entity_WithVisit"><rect fill="#F1F1F1" height="129.4844" rx="2.5" ry="2.5" style="stroke:#181818;stroke-width:0.5;" width="271.7861" x="1516.11" y="86.2969"/><ellipse cx="1616.6359" cy="102.2969" fill="#ADD1B2" rx="11" ry="11" style="stroke:#181818;stroke-width:1;"/><path d="M1619.6046,107.9375 Q1619.0265,108.2344 1618.3859,108.375 Q1617.7453,108.5313 1617.0421,108.5313 Q1614.5421,108.5313 1613.214,106.8906 Q1611.9015,105.2344 1611.9015,102.1094 Q1611.9015,98.9844 1613.214,97.3281 Q1614.5421,95.6719 1617.0421,95.6719 Q1617.7453,95.6719 1618.3859,95.8281 Q1619.0421,95.9844 1619.6046,96.2813 L1619.6046,99 Q1618.9796,98.4219 1618.3859,98.1563 Q1617.7921,97.875 1617.1671,97.875 Q1615.8234,97.875 1615.1359,98.9531 Q1614.4484,100.0156 1614.4484,102.1094 Q1614.4484,104.2031 1615.1359,105.2813 Q1615.8234,106.3438 1617.1671,106.3438 Q1617.7921,106.3438 1618.3859,106.0781 Q1618.9796,105.7969 1619.6046,105.2188 L1619.6046,107.9375 Z " fill="#000000"/><text fill="#000000" font-family="sans-serif" font-size="14" lengthAdjust="spacing" textLength="62.2344" x="1637.1359" y="107.1436">WithVisit</text><line style="stroke:#181818;stroke-width:0.5;" x1="1517.11" x2="1786.8961" y1="118.2969" y2="118.2969"/><text fill="#000000" font-family="sans-serif" font-size="14" lengthAdjust="spacing" textLength="87.9717" x="1522.11" y="135.292">str beamline</text><text fill="#000000" font-family="sans-serif" font-size="14" lengthAdjust="spacing" textLength="51.8369" x="1522.11" y="151.5889">str visit</text><text fill="#000000" font-family="sans-serif" font-size="14" lengthAdjust="spacing" textLength="259.7861" x="1522.11" y="167.8857">str det_dist_to_beam_converter_path</text><text fill="#000000" font-family="sans-serif" font-size="14" lengthAdjust="spacing" textLength="131.5918" x="1522.11" y="184.1826">str insertion_prefix</text><text fill="#000000" font-family="sans-serif" font-size="14" lengthAdjust="spacing" textLength="245.752" x="1522.11" y="200.4795">float | None detector_distance_mm</text><line style="stroke:#181818;stroke-width:0.5;" x1="1517.11" x2="1786.8961" y1="207.7813" y2="207.7813"/></g><!--class WithScan--><g class="entity" data-entity="WithScan" data-source-line="43" data-uid="ent0012" id="entity_WithScan"><rect fill="#F1F1F1" height="48" rx="2.5" ry="2.5" style="stroke:#181818;stroke-width:0.5;" width="98.1309" x="29.93" y="127.0369"/><ellipse cx="44.93" cy="143.0369" fill="#ADD1B2" rx="11" ry="11" style="stroke:#181818;stroke-width:1;"/><path d="M47.8988,148.6775 Q47.3206,148.9744 46.68,149.115 Q46.0394,149.2713 45.3363,149.2713 Q42.8363,149.2713 41.5081,147.6306 Q40.1956,145.9744 40.1956,142.8494 Q40.1956,139.7244 41.5081,138.0681 Q42.8363,136.4119 45.3363,136.4119 Q46.0394,136.4119 46.68,136.5681 Q47.3363,136.7244 47.8988,137.0213 L47.8988,139.74 Q47.2738,139.1619 46.68,138.8963 Q46.0863,138.615 45.4613,138.615 Q44.1175,138.615 43.43,139.6931 Q42.7425,140.7556 42.7425,142.8494 Q42.7425,144.9431 43.43,146.0213 Q44.1175,147.0838 45.4613,147.0838 Q46.0863,147.0838 46.68,146.8181 Q47.2738,146.5369 47.8988,145.9588 L47.8988,148.6775 Z " fill="#000000"/><text fill="#000000" font-family="sans-serif" font-size="14" lengthAdjust="spacing" textLength="66.1309" x="58.93" y="147.8836">WithScan</text><line style="stroke:#181818;stroke-width:0.5;" x1="30.93" x2="127.0609" y1="159.0369" y2="159.0369"/><line style="stroke:#181818;stroke-width:0.5;" x1="30.93" x2="127.0609" y1="167.0369" y2="167.0369"/></g><!--class WithSample--><g class="entity" data-entity="WithSample" data-source-line="45" data-uid="ent0013" id="entity_WithSample"><rect fill="#F1F1F1" height="96.8906" rx="2.5" ry="2.5" style="stroke:#181818;stroke-width:0.5;" width="176.3086" x="847.85" y="102.5969"/><ellipse cx="889.7243" cy="118.5969" fill="#ADD1B2" rx="11" ry="11" style="stroke:#181818;stroke-width:1;"/><path d="M892.6931,124.2375 Q892.1149,124.5344 891.4743,124.675 Q890.8337,124.8312 890.1306,124.8312 Q887.6306,124.8312 886.3024,123.1906 Q884.9899,121.5344 884.9899,118.4094 Q884.9899,115.2844 886.3024,113.6281 Q887.6306,111.9719 890.1306,111.9719 Q890.8337,111.9719 891.4743,112.1281 Q892.1306,112.2844 892.6931,112.5812 L892.6931,115.3 Q892.0681,114.7219 891.4743,114.4562 Q890.8806,114.175 890.2556,114.175 Q888.9118,114.175 888.2243,115.2531 Q887.5368,116.3156 887.5368,118.4094 Q887.5368,120.5031 888.2243,121.5812 Q888.9118,122.6437 890.2556,122.6437 Q890.8806,122.6437 891.4743,122.3781 Q892.0681,122.0969 892.6931,121.5187 L892.6931,124.2375 Z " fill="#000000"/><text fill="#000000" font-family="sans-serif" font-size="14" lengthAdjust="spacing" textLength="84.5879" x="909.6964" y="123.4436">WithSample</text><line style="stroke:#181818;stroke-width:0.5;" x1="848.85" x2="1023.1586" y1="134.5969" y2="134.5969"/><text fill="#000000" font-family="sans-serif" font-size="14" lengthAdjust="spacing" textLength="93.3789" x="853.85" y="151.592">int sample_id</text><text fill="#000000" font-family="sans-serif" font-size="14" lengthAdjust="spacing" textLength="164.3086" x="853.85" y="167.8889">int | None sample_puck</text><text fill="#000000" font-family="sans-serif" font-size="14" lengthAdjust="spacing" textLength="152.3936" x="853.85" y="184.1857">int | None sample_pin</text><line style="stroke:#181818;stroke-width:0.5;" x1="848.85" x2="1023.1586" y1="191.4875" y2="191.4875"/></g><!--class MxBlueskyParameters--><g class="entity" data-entity="MxBlueskyParameters" data-source-line="52" data-uid="ent0014" id="entity_MxBlueskyParameters"><rect fill="#F1F1F1" height="64.2969" rx="2.5" ry="2.5" style="stroke:#181818;stroke-width:0.5;" width="317.4639" x="2441.27" y="118.8969"/><ellipse cx="2517.8564" cy="134.8969" fill="#ADD1B2" rx="11" ry="11" style="stroke:#181818;stroke-width:1;"/><path d="M2520.8252,140.5375 Q2520.2471,140.8344 2519.6064,140.975 Q2518.9658,141.1313 2518.2627,141.1313 Q2515.7627,141.1313 2514.4346,139.4906 Q2513.1221,137.8344 2513.1221,134.7094 Q2513.1221,131.5844 2514.4346,129.9281 Q2515.7627,128.2719 2518.2627,128.2719 Q2518.9658,128.2719 2519.6064,128.4281 Q2520.2627,128.5844 2520.8252,128.8813 L2520.8252,131.6 Q2520.2002,131.0219 2519.6064,130.7563 Q2519.0127,130.475 2518.3877,130.475 Q2517.0439,130.475 2516.3564,131.5531 Q2515.6689,132.6156 2515.6689,134.7094 Q2515.6689,136.8031 2516.3564,137.8813 Q2517.0439,138.9438 2518.3877,138.9438 Q2519.0127,138.9438 2519.6064,138.6781 Q2520.2002,138.3969 2520.8252,137.8188 L2520.8252,140.5375 Z " fill="#000000"/><text fill="#000000" font-family="sans-serif" font-size="14" lengthAdjust="spacing" textLength="155.791" x="2538.3564" y="139.7436">MxBlueskyParameters</text><line style="stroke:#181818;stroke-width:0.5;" x1="2442.27" x2="2757.7339" y1="150.8969" y2="150.8969"/><text fill="#000000" font-family="sans-serif" font-size="14" lengthAdjust="spacing" textLength="305.4639" x="2447.27" y="167.892">SemanticVersion parameter_model_version</text><line style="stroke:#181818;stroke-width:0.5;" x1="2442.27" x2="2757.7339" y1="175.1938" y2="175.1938"/></g><!--class GridCommon--><g class="entity" data-entity="GridCommon" data-source-line="55" data-uid="ent0015" id="entity_GridCommon"><rect fill="#F1F1F1" height="145.7813" rx="2.5" ry="2.5" style="stroke:#181818;stroke-width:0.5;" width="332.332" x="2428.83" y="654.7569"/><ellipse cx="2544.5282" cy="670.7569" fill="#ADD1B2" rx="11" ry="11" style="stroke:#181818;stroke-width:1;"/><path d="M2547.497,676.3975 Q2546.9189,676.6944 2546.2782,676.835 Q2545.6376,676.9913 2544.9345,676.9913 Q2542.4345,676.9913 2541.1064,675.3506 Q2539.7939,673.6944 2539.7939,670.5694 Q2539.7939,667.4444 2541.1064,665.7881 Q2542.4345,664.1319 2544.9345,664.1319 Q2545.6376,664.1319 2546.2782,664.2881 Q2546.9345,664.4444 2547.497,664.7413 L2547.497,667.46 Q2546.872,666.8819 2546.2782,666.6163 Q2545.6845,666.335 2545.0595,666.335 Q2543.7157,666.335 2543.0282,667.4131 Q2542.3407,668.4756 2542.3407,670.5694 Q2542.3407,672.6631 2543.0282,673.7413 Q2543.7157,674.8038 2545.0595,674.8038 Q2545.6845,674.8038 2546.2782,674.5381 Q2546.872,674.2569 2547.497,673.6788 L2547.497,676.3975 Z " fill="#000000"/><text fill="#000000" font-family="sans-serif" font-size="14" lengthAdjust="spacing" textLength="92.4355" x="2565.0282" y="675.6036">GridCommon</text><line style="stroke:#181818;stroke-width:0.5;" x1="2429.83" x2="2760.162" y1="686.7569" y2="686.7569"/><text fill="#000000" font-family="sans-serif" font-size="14" lengthAdjust="spacing" textLength="125.2959" x="2434.83" y="703.752">float box_size_um</text><text fill="#000000" font-family="sans-serif" font-size="14" lengthAdjust="spacing" textLength="138.4209" x="2434.83" y="720.0489">float grid_width_um</text><text fill="#000000" font-family="sans-serif" font-size="14" lengthAdjust="spacing" textLength="153.7129" x="2434.83" y="736.3457">float exposure_time_s</text><text fill="#000000" font-family="sans-serif" font-size="14" lengthAdjust="spacing" textLength="320.332" x="2434.83" y="752.6426">IspybExperimentType ispyb_experiment_type</text><text fill="#000000" font-family="sans-serif" font-size="14" lengthAdjust="spacing" textLength="282.3516" x="2434.83" y="768.9395">ApertureValue | None selected_aperture</text><text fill="#000000" font-family="sans-serif" font-size="14" lengthAdjust="spacing" textLength="130.498" x="2434.83" y="785.2364">float tip_offset_um</text><line style="stroke:#181818;stroke-width:0.5;" x1="2429.83" x2="2760.162" y1="792.5381" y2="792.5381"/></g><!--class SpecifiedThreeDGridScan--><g class="entity" data-entity="SpecifiedThreeDGridScan" data-source-line="63" data-uid="ent0016" id="entity_SpecifiedThreeDGridScan"><rect fill="#F1F1F1" height="227.2656" rx="2.5" ry="2.5" style="stroke:#181818;stroke-width:0.5;" width="210.8965" x="2428.55" y="860.5369"/><ellipse cx="2443.55" cy="876.5369" fill="#ADD1B2" rx="11" ry="11" style="stroke:#181818;stroke-width:1;"/><path d="M2446.5188,882.1775 Q2445.9406,882.4744 2445.3,882.615 Q2444.6594,882.7713 2443.9563,882.7713 Q2441.4563,882.7713 2440.1281,881.1306 Q2438.8156,879.4744 2438.8156,876.3494 Q2438.8156,873.2244 2440.1281,871.5681 Q2441.4563,869.9119 2443.9563,869.9119 Q2444.6594,869.9119 2445.3,870.0681 Q2445.9563,870.2244 2446.5188,870.5213 L2446.5188,873.24 Q2445.8938,872.6619 2445.3,872.3963 Q2444.7063,872.115 2444.0813,872.115 Q2442.7375,872.115 2442.05,873.1931 Q2441.3625,874.2556 2441.3625,876.3494 Q2441.3625,878.4431 2442.05,879.5213 Q2442.7375,880.5838 2444.0813,880.5838 Q2444.7063,880.5838 2445.3,880.3181 Q2445.8938,880.0369 2446.5188,879.4588 L2446.5188,882.1775 Z " fill="#000000"/><text fill="#000000" font-family="sans-serif" font-size="14" lengthAdjust="spacing" textLength="178.8965" x="2457.55" y="881.3836">SpecifiedThreeDGridScan</text><line style="stroke:#181818;stroke-width:0.5;" x1="2429.55" x2="2638.4465" y1="892.5369" y2="892.5369"/><text fill="#000000" font-family="sans-serif" font-size="14" lengthAdjust="spacing" textLength="160.8975" x="2434.55" y="909.532">float grid1_omega_deg</text><text fill="#000000" font-family="sans-serif" font-size="14" lengthAdjust="spacing" textLength="160.8975" x="2434.55" y="925.8289">float grid2_omega_deg</text><text fill="#000000" font-family="sans-serif" font-size="14" lengthAdjust="spacing" textLength="145.127" x="2434.55" y="942.1257">float x_step_size_um</text><text fill="#000000" font-family="sans-serif" font-size="14" lengthAdjust="spacing" textLength="145.127" x="2434.55" y="958.4226">float y_step_size_um</text><text fill="#000000" font-family="sans-serif" font-size="14" lengthAdjust="spacing" textLength="144.1904" x="2434.55" y="974.7195">float z_step_size_um</text><text fill="#000000" font-family="sans-serif" font-size="14" lengthAdjust="spacing" textLength="122.2129" x="2434.55" y="991.0164">float y2_start_um</text><text fill="#000000" font-family="sans-serif" font-size="14" lengthAdjust="spacing" textLength="121.2764" x="2434.55" y="1007.3132">float z2_start_um</text><text fill="#000000" font-family="sans-serif" font-size="14" lengthAdjust="spacing" textLength="75.5645" x="2434.55" y="1023.6101">int x_steps</text><text fill="#000000" font-family="sans-serif" font-size="14" lengthAdjust="spacing" textLength="75.5645" x="2434.55" y="1039.907">int y_steps</text><text fill="#000000" font-family="sans-serif" font-size="14" lengthAdjust="spacing" textLength="74.6279" x="2434.55" y="1056.2039">int z_steps</text><text fill="#000000" font-family="sans-serif" font-size="14" lengthAdjust="spacing" textLength="154.4102" x="2434.55" y="1072.5007">bool _set_stub_offsets</text><line style="stroke:#181818;stroke-width:0.5;" x1="2429.55" x2="2638.4465" y1="1079.8025" y2="1079.8025"/></g><!--class DiffractionExperiment--><g class="entity" data-entity="DiffractionExperiment" data-source-line="76" data-uid="ent0017" id="entity_DiffractionExperiment"><rect fill="#F1F1F1" height="210.9688" rx="2.5" ry="2.5" style="stroke:#181818;stroke-width:0.5;" width="332.332" x="2428.83" y="275.7869"/><ellipse cx="2513.6127" cy="291.7869" fill="#ADD1B2" rx="11" ry="11" style="stroke:#181818;stroke-width:1;"/><path d="M2516.5815,297.4275 Q2516.0033,297.7244 2515.3627,297.865 Q2514.7221,298.0213 2514.019,298.0213 Q2511.519,298.0213 2510.1908,296.3806 Q2508.8783,294.7244 2508.8783,291.5994 Q2508.8783,288.4744 2510.1908,286.8181 Q2511.519,285.1619 2514.019,285.1619 Q2514.7221,285.1619 2515.3627,285.3181 Q2516.019,285.4744 2516.5815,285.7713 L2516.5815,288.49 Q2515.9565,287.9119 2515.3627,287.6463 Q2514.769,287.365 2514.144,287.365 Q2512.8002,287.365 2512.1127,288.4431 Q2511.4252,289.5056 2511.4252,291.5994 Q2511.4252,293.6931 2512.1127,294.7713 Q2512.8002,295.8338 2514.144,295.8338 Q2514.769,295.8338 2515.3627,295.5681 Q2515.9565,295.2869 2516.5815,294.7088 L2516.5815,297.4275 Z " fill="#000000"/><text fill="#000000" font-family="sans-serif" font-size="14" lengthAdjust="spacing" textLength="154.2666" x="2534.1127" y="296.6336">DiffractionExperiment</text><line style="stroke:#181818;stroke-width:0.5;" x1="2429.83" x2="2760.162" y1="307.7869" y2="307.7869"/><text fill="#000000" font-family="sans-serif" font-size="14" lengthAdjust="spacing" textLength="91.0137" x="2434.83" y="324.782">str file_name</text><text fill="#000000" font-family="sans-serif" font-size="14" lengthAdjust="spacing" textLength="153.7129" x="2434.83" y="341.0789">float exposure_time_s</text><text fill="#000000" font-family="sans-serif" font-size="14" lengthAdjust="spacing" textLength="89.5029" x="2434.83" y="357.3757">str comment</text><text fill="#000000" font-family="sans-serif" font-size="14" lengthAdjust="spacing" textLength="186.915" x="2434.83" y="373.6726">TriggerMode trigger_mode</text><text fill="#000000" font-family="sans-serif" font-size="14" lengthAdjust="spacing" textLength="157.9854" x="2434.83" y="389.9695">int | None run_number</text><text fill="#000000" font-family="sans-serif" font-size="14" lengthAdjust="spacing" textLength="282.3516" x="2434.83" y="406.2664">ApertureValue | None selected_aperture</text><text fill="#000000" font-family="sans-serif" font-size="14" lengthAdjust="spacing" textLength="159.2979" x="2434.83" y="422.5632">float transmission_frac</text><text fill="#000000" font-family="sans-serif" font-size="14" lengthAdjust="spacing" textLength="320.332" x="2434.83" y="438.8601">IspybExperimentType ispyb_experiment_type</text><text fill="#000000" font-family="sans-serif" font-size="14" lengthAdjust="spacing" textLength="146.1113" x="2434.83" y="455.157">str storage_directory</text><text fill="#000000" font-family="sans-serif" font-size="14" lengthAdjust="spacing" textLength="131.0518" x="2434.83" y="471.4539">bool use_roi_mode</text><line style="stroke:#181818;stroke-width:0.5;" x1="2429.83" x2="2760.162" y1="478.7556" y2="478.7556"/></g><!--class DiffractionExperimentWithSample--><g class="entity" data-entity="DiffractionExperimentWithSample" data-source-line="88" data-uid="ent0018" id="entity_DiffractionExperimentWithSample"><rect fill="#F1F1F1" height="48" rx="2.5" ry="2.5" style="stroke:#181818;stroke-width:0.5;" width="270.8545" x="2459.57" y="546.7569"/><ellipse cx="2474.57" cy="562.7569" fill="#ADD1B2" rx="11" ry="11" style="stroke:#181818;stroke-width:1;"/><path d="M2477.5388,568.3975 Q2476.9606,568.6944 2476.32,568.835 Q2475.6794,568.9913 2474.9763,568.9913 Q2472.4763,568.9913 2471.1481,567.3506 Q2469.8356,565.6944 2469.8356,562.5694 Q2469.8356,559.4444 2471.1481,557.7881 Q2472.4763,556.1319 2474.9763,556.1319 Q2475.6794,556.1319 2476.32,556.2881 Q2476.9763,556.4444 2477.5388,556.7413 L2477.5388,559.46 Q2476.9138,558.8819 2476.32,558.6163 Q2475.7263,558.335 2475.1013,558.335 Q2473.7575,558.335 2473.07,559.4131 Q2472.3825,560.4756 2472.3825,562.5694 Q2472.3825,564.6631 2473.07,565.7413 Q2473.7575,566.8038 2475.1013,566.8038 Q2475.7263,566.8038 2476.32,566.5381 Q2476.9138,566.2569 2477.5388,565.6788 L2477.5388,568.3975 Z " fill="#000000"/><text fill="#000000" font-family="sans-serif" font-size="14" lengthAdjust="spacing" textLength="238.8545" x="2488.57" y="567.6036">DiffractionExperimentWithSample</text><line style="stroke:#181818;stroke-width:0.5;" x1="2460.57" x2="2729.4245" y1="578.7569" y2="578.7569"/><line style="stroke:#181818;stroke-width:0.5;" x1="2460.57" x2="2729.4245" y1="586.7569" y2="586.7569"/></g><!--class LoadCentreCollect--><g class="entity" data-entity="LoadCentreCollect" data-source-line="93" data-uid="ent0020" id="entity_LoadCentreCollect"><rect fill="#F1F1F1" height="80.5938" rx="2.5" ry="2.5" style="stroke:#181818;stroke-width:0.5;" width="338.6211" x="3943.69" y="1155.9469"/><ellipse cx="4044.315" cy="1171.9469" fill="#ADD1B2" rx="11" ry="11" style="stroke:#181818;stroke-width:1;"/><path d="M4047.2838,1177.5875 Q4046.7056,1177.8844 4046.065,1178.025 Q4045.4244,1178.1813 4044.7213,1178.1813 Q4042.2213,1178.1813 4040.8931,1176.5406 Q4039.5806,1174.8844 4039.5806,1171.7594 Q4039.5806,1168.6344 4040.8931,1166.9781 Q4042.2213,1165.3219 4044.7213,1165.3219 Q4045.4244,1165.3219 4046.065,1165.4781 Q4046.7213,1165.6344 4047.2838,1165.9313 L4047.2838,1168.65 Q4046.6588,1168.0719 4046.065,1167.8063 Q4045.4713,1167.525 4044.8463,1167.525 Q4043.5025,1167.525 4042.815,1168.6031 Q4042.1275,1169.6656 4042.1275,1171.7594 Q4042.1275,1173.8531 4042.815,1174.9313 Q4043.5025,1175.9938 4044.8463,1175.9938 Q4045.4713,1175.9938 4046.065,1175.7281 Q4046.6588,1175.4469 4047.2838,1174.8688 L4047.2838,1177.5875 Z " fill="#000000"/><text fill="#000000" font-family="sans-serif" font-size="14" lengthAdjust="spacing" textLength="128.8711" x="4064.815" y="1176.7936">LoadCentreCollect</text><line style="stroke:#181818;stroke-width:0.5;" x1="3944.69" x2="4281.3111" y1="1187.9469" y2="1187.9469"/><text fill="#000000" font-family="sans-serif" font-size="14" lengthAdjust="spacing" textLength="326.6211" x="3949.69" y="1204.942">RobotLoadThenCentre robot_load_then_centre</text><text fill="#000000" font-family="sans-serif" font-size="14" lengthAdjust="spacing" textLength="269.3154" x="3949.69" y="1221.2389">MultiRotationScan multi_rotation_scan</text><line style="stroke:#181818;stroke-width:0.5;" x1="3944.69" x2="4281.3111" y1="1228.5406" y2="1228.5406"/></g><!--class RotationExperiment--><g class="entity" data-entity="RotationExperiment" data-source-line="97" data-uid="ent0021" id="entity_RotationExperiment"><rect fill="#F1F1F1" height="96.8906" rx="2.5" ry="2.5" style="stroke:#181818;stroke-width:0.5;" width="332.332" x="3502.83" y="1147.7969"/><ellipse cx="3594.7118" cy="1163.7969" fill="#ADD1B2" rx="11" ry="11" style="stroke:#181818;stroke-width:1;"/><path d="M3597.6806,1169.4375 Q3597.1025,1169.7344 3596.4618,1169.875 Q3595.8212,1170.0313 3595.1181,1170.0313 Q3592.6181,1170.0313 3591.29,1168.3906 Q3589.9775,1166.7344 3589.9775,1163.6094 Q3589.9775,1160.4844 3591.29,1158.8281 Q3592.6181,1157.1719 3595.1181,1157.1719 Q3595.8212,1157.1719 3596.4618,1157.3281 Q3597.1181,1157.4844 3597.6806,1157.7813 L3597.6806,1160.5 Q3597.0556,1159.9219 3596.4618,1159.6563 Q3595.8681,1159.375 3595.2431,1159.375 Q3593.8993,1159.375 3593.2118,1160.4531 Q3592.5243,1161.5156 3592.5243,1163.6094 Q3592.5243,1165.7031 3593.2118,1166.7813 Q3593.8993,1167.8438 3595.2431,1167.8438 Q3595.8681,1167.8438 3596.4618,1167.5781 Q3597.0556,1167.2969 3597.6806,1166.7188 L3597.6806,1169.4375 Z " fill="#000000"/><text fill="#000000" font-family="sans-serif" font-size="14" lengthAdjust="spacing" textLength="140.0684" x="3615.2118" y="1168.6436">RotationExperiment</text><line style="stroke:#181818;stroke-width:0.5;" x1="3503.83" x2="3834.162" y1="1179.7969" y2="1179.7969"/><text fill="#000000" font-family="sans-serif" font-size="14" lengthAdjust="spacing" textLength="202.8018" x="3508.83" y="1196.792">float shutter_opening_time_s</text><text fill="#000000" font-family="sans-serif" font-size="14" lengthAdjust="spacing" textLength="202.9385" x="3508.83" y="1213.0889">float rotation_increment_deg</text><text fill="#000000" font-family="sans-serif" font-size="14" lengthAdjust="spacing" textLength="320.332" x="3508.83" y="1229.3857">IspybExperimentType ispyb_experiment_type</text><line style="stroke:#181818;stroke-width:0.5;" x1="3503.83" x2="3834.162" y1="1236.6875" y2="1236.6875"/></g><!--class WithHyperionUDCFeatures--><g class="entity" data-entity="WithHyperionUDCFeatures" data-source-line="102" data-uid="ent0022" id="entity_WithHyperionUDCFeatures"><rect fill="#F1F1F1" height="64.2969" rx="2.5" ry="2.5" style="stroke:#181818;stroke-width:0.5;" width="228.6719" x="3550.66" y="942.0169"/><ellipse cx="3569.7583" cy="958.0169" fill="#ADD1B2" rx="11" ry="11" style="stroke:#181818;stroke-width:1;"/><path d="M3572.7271,963.6575 Q3572.149,963.9544 3571.5083,964.095 Q3570.8677,964.2513 3570.1646,964.2513 Q3567.6646,964.2513 3566.3365,962.6106 Q3565.024,960.9544 3565.024,957.8294 Q3565.024,954.7044 3566.3365,953.0481 Q3567.6646,951.3919 3570.1646,951.3919 Q3570.8677,951.3919 3571.5083,951.5481 Q3572.1646,951.7044 3572.7271,952.0013 L3572.7271,954.72 Q3572.1021,954.1419 3571.5083,953.8763 Q3570.9146,953.595 3570.2896,953.595 Q3568.9458,953.595 3568.2583,954.6731 Q3567.5708,955.7356 3567.5708,957.8294 Q3567.5708,959.9231 3568.2583,961.0013 Q3568.9458,962.0638 3570.2896,962.0638 Q3570.9146,962.0638 3571.5083,961.7981 Q3572.1021,961.5169 3572.7271,960.9388 L3572.7271,963.6575 Z " fill="#000000"/><text fill="#000000" font-family="sans-serif" font-size="14" lengthAdjust="spacing" textLength="187.5645" x="3584.6691" y="962.8636">WithHyperionUDCFeatures</text><line style="stroke:#181818;stroke-width:0.5;" x1="3551.66" x2="3778.3319" y1="974.0169" y2="974.0169"/><text fill="#000000" font-family="sans-serif" font-size="14" lengthAdjust="spacing" textLength="216.6719" x="3556.66" y="991.012">HyperionFeatureFlags features</text><line style="stroke:#181818;stroke-width:0.5;" x1="3551.66" x2="3778.3319" y1="998.3138" y2="998.3138"/></g><!--class PinTipCentreThenXrayCentre--><g class="entity" data-entity="PinTipCentreThenXrayCentre" data-source-line="105" data-uid="ent0023" id="entity_PinTipCentreThenXrayCentre"><rect fill="#F1F1F1" height="64.2969" rx="2.5" ry="2.5" style="stroke:#181818;stroke-width:0.5;" width="235.8955" x="3188.05" y="1304.6869"/><ellipse cx="3203.05" cy="1320.6869" fill="#ADD1B2" rx="11" ry="11" style="stroke:#181818;stroke-width:1;"/><path d="M3206.0188,1326.3275 Q3205.4406,1326.6244 3204.8,1326.765 Q3204.1594,1326.9213 3203.4563,1326.9213 Q3200.9563,1326.9213 3199.6281,1325.2806 Q3198.3156,1323.6244 3198.3156,1320.4994 Q3198.3156,1317.3744 3199.6281,1315.7181 Q3200.9563,1314.0619 3203.4563,1314.0619 Q3204.1594,1314.0619 3204.8,1314.2181 Q3205.4563,1314.3744 3206.0188,1314.6713 L3206.0188,1317.39 Q3205.3938,1316.8119 3204.8,1316.5463 Q3204.2063,1316.265 3203.5813,1316.265 Q3202.2375,1316.265 3201.55,1317.3431 Q3200.8625,1318.4056 3200.8625,1320.4994 Q3200.8625,1322.5931 3201.55,1323.6713 Q3202.2375,1324.7338 3203.5813,1324.7338 Q3204.2063,1324.7338 3204.8,1324.4681 Q3205.3938,1324.1869 3206.0188,1323.6088 L3206.0188,1326.3275 Z " fill="#000000"/><text fill="#000000" font-family="sans-serif" font-size="14" lengthAdjust="spacing" textLength="203.8955" x="3217.05" y="1325.5336">PinTipCentreThenXrayCentre</text><line style="stroke:#181818;stroke-width:0.5;" x1="3189.05" x2="3422.9455" y1="1336.6869" y2="1336.6869"/><text fill="#000000" font-family="sans-serif" font-size="14" lengthAdjust="spacing" textLength="130.498" x="3194.05" y="1353.682">float tip_offset_um</text><line style="stroke:#181818;stroke-width:0.5;" x1="3189.05" x2="3422.9455" y1="1360.9838" y2="1360.9838"/></g><!--class GridCommonWithHyperionDetectorParams--><g class="entity" data-entity="GridCommonWithHyperionDetectorParams" data-source-line="108" data-uid="ent0024" id="entity_GridCommonWithHyperionDetectorParams"><rect fill="#F1F1F1" height="48" rx="2.5" ry="2.5" style="stroke:#181818;stroke-width:0.5;" width="333.2188" x="3134.39" y="1172.2469"/><ellipse cx="3149.39" cy="1188.2469" fill="#ADD1B2" rx="11" ry="11" style="stroke:#181818;stroke-width:1;"/><path d="M3152.3588,1193.8875 Q3151.7806,1194.1844 3151.14,1194.325 Q3150.4994,1194.4813 3149.7963,1194.4813 Q3147.2963,1194.4813 3145.9681,1192.8406 Q3144.6556,1191.1844 3144.6556,1188.0594 Q3144.6556,1184.9344 3145.9681,1183.2781 Q3147.2963,1181.6219 3149.7963,1181.6219 Q3150.4994,1181.6219 3151.14,1181.7781 Q3151.7963,1181.9344 3152.3588,1182.2313 L3152.3588,1184.95 Q3151.7338,1184.3719 3151.14,1184.1063 Q3150.5463,1183.825 3149.9213,1183.825 Q3148.5775,1183.825 3147.89,1184.9031 Q3147.2025,1185.9656 3147.2025,1188.0594 Q3147.2025,1190.1531 3147.89,1191.2313 Q3148.5775,1192.2938 3149.9213,1192.2938 Q3150.5463,1192.2938 3151.14,1192.0281 Q3151.7338,1191.7469 3152.3588,1191.1688 L3152.3588,1193.8875 Z " fill="#000000"/><text fill="#000000" font-family="sans-serif" font-size="14" lengthAdjust="spacing" textLength="301.2188" x="3163.39" y="1193.0936">GridCommonWithHyperionDetectorParams</text><line style="stroke:#181818;stroke-width:0.5;" x1="3135.39" x2="3466.6088" y1="1204.2469" y2="1204.2469"/><line style="stroke:#181818;stroke-width:0.5;" x1="3135.39" x2="3466.6088" y1="1212.2469" y2="1212.2469"/></g><!--class GridScanWithEdgeDetect--><g class="entity" data-entity="GridScanWithEdgeDetect" data-source-line="110" data-uid="ent0025" id="entity_GridScanWithEdgeDetect"><rect fill="#F1F1F1" height="48" rx="2.5" ry="2.5" style="stroke:#181818;stroke-width:0.5;" width="209.4268" x="3480.29" y="1312.8369"/><ellipse cx="3495.29" cy="1328.8369" fill="#ADD1B2" rx="11" ry="11" style="stroke:#181818;stroke-width:1;"/><path d="M3498.2588,1334.4775 Q3497.6806,1334.7744 3497.04,1334.915 Q3496.3994,1335.0713 3495.6963,1335.0713 Q3493.1963,1335.0713 3491.8681,1333.4306 Q3490.5556,1331.7744 3490.5556,1328.6494 Q3490.5556,1325.5244 3491.8681,1323.8681 Q3493.1963,1322.2119 3495.6963,1322.2119 Q3496.3994,1322.2119 3497.04,1322.3681 Q3497.6963,1322.5244 3498.2588,1322.8213 L3498.2588,1325.54 Q3497.6338,1324.9619 3497.04,1324.6963 Q3496.4463,1324.415 3495.8213,1324.415 Q3494.4775,1324.415 3493.79,1325.4931 Q3493.1025,1326.5556 3493.1025,1328.6494 Q3493.1025,1330.7431 3493.79,1331.8213 Q3494.4775,1332.8838 3495.8213,1332.8838 Q3496.4463,1332.8838 3497.04,1332.6181 Q3497.6338,1332.3369 3498.2588,1331.7588 L3498.2588,1334.4775 Z " fill="#000000"/><text fill="#000000" font-family="sans-serif" font-size="14" lengthAdjust="spacing" textLength="177.4268" x="3509.29" y="1333.6836">GridScanWithEdgeDetect</text><line style="stroke:#181818;stroke-width:0.5;" x1="3481.29" x2="3688.7168" y1="1344.8369" y2="1344.8369"/><line style="stroke:#181818;stroke-width:0.5;" x1="3481.29" x2="3688.7168" y1="1352.8369" y2="1352.8369"/></g><!--class MultiRotationScan--><g class="entity" data-entity="MultiRotationScan" data-source-line="112" data-uid="ent0026" id="entity_MultiRotationScan"><rect fill="#F1F1F1" height="64.2969" rx="2.5" ry="2.5" style="stroke:#181818;stroke-width:0.5;" width="540.001" x="3736" y="1304.6869"/><ellipse cx="3938.0327" cy="1320.6869" fill="#ADD1B2" rx="11" ry="11" style="stroke:#181818;stroke-width:1;"/><path d="M3941.0015,1326.3275 Q3940.4233,1326.6244 3939.7827,1326.765 Q3939.1421,1326.9213 3938.439,1326.9213 Q3935.939,1326.9213 3934.6108,1325.2806 Q3933.2983,1323.6244 3933.2983,1320.4994 Q3933.2983,1317.3744 3934.6108,1315.7181 Q3935.939,1314.0619 3938.439,1314.0619 Q3939.1421,1314.0619 3939.7827,1314.2181 Q3940.439,1314.3744 3941.0015,1314.6713 L3941.0015,1317.39 Q3940.3765,1316.8119 3939.7827,1316.5463 Q3939.189,1316.265 3938.564,1316.265 Q3937.2202,1316.265 3936.5327,1317.3431 Q3935.8452,1318.4056 3935.8452,1320.4994 Q3935.8452,1322.5931 3936.5327,1323.6713 Q3937.2202,1324.7338 3938.564,1324.7338 Q3939.189,1324.7338 3939.7827,1324.4681 Q3940.3765,1324.1869 3941.0015,1323.6088 L3941.0015,1326.3275 Z " fill="#000000"/><text fill="#000000" font-family="sans-serif" font-size="14" lengthAdjust="spacing" textLength="127.4355" x="3958.5327" y="1325.5336">MultiRotationScan</text><line style="stroke:#181818;stroke-width:0.5;" x1="3737" x2="4275.001" y1="1336.6869" y2="1336.6869"/><line style="stroke:#181818;stroke-width:0.5;" x1="3737" x2="4275.001" y1="1344.6869" y2="1344.6869"/><text fill="#000000" font-family="sans-serif" font-size="14" lengthAdjust="spacing" textLength="528.001" x="3742" y="1361.682">Annotated[list[RotationScanPerSweep], Len(min_length=1)] rotation_scans</text></g><!--class HyperionSpecifiedThreeDGridScan--><g class="entity" data-entity="HyperionSpecifiedThreeDGridScan" data-source-line="115" data-uid="ent0027" id="entity_HyperionSpecifiedThreeDGridScan"><rect fill="#F1F1F1" height="48" rx="2.5" ry="2.5" style="stroke:#181818;stroke-width:0.5;" width="274.293" x="2824.85" y="1172.2469"/><ellipse cx="2839.85" cy="1188.2469" fill="#ADD1B2" rx="11" ry="11" style="stroke:#181818;stroke-width:1;"/><path d="M2842.8188,1193.8875 Q2842.2406,1194.1844 2841.6,1194.325 Q2840.9594,1194.4813 2840.2563,1194.4813 Q2837.7563,1194.4813 2836.4281,1192.8406 Q2835.1156,1191.1844 2835.1156,1188.0594 Q2835.1156,1184.9344 2836.4281,1183.2781 Q2837.7563,1181.6219 2840.2563,1181.6219 Q2840.9594,1181.6219 2841.6,1181.7781 Q2842.2563,1181.9344 2842.8188,1182.2313 L2842.8188,1184.95 Q2842.1938,1184.3719 2841.6,1184.1063 Q2841.0063,1183.825 2840.3813,1183.825 Q2839.0375,1183.825 2838.35,1184.9031 Q2837.6625,1185.9656 2837.6625,1188.0594 Q2837.6625,1190.1531 2838.35,1191.2313 Q2839.0375,1192.2938 2840.3813,1192.2938 Q2841.0063,1192.2938 2841.6,1192.0281 Q2842.1938,1191.7469 2842.8188,1191.1688 L2842.8188,1193.8875 Z " fill="#000000"/><text fill="#000000" font-family="sans-serif" font-size="14" lengthAdjust="spacing" textLength="242.293" x="2853.85" y="1193.0936">HyperionSpecifiedThreeDGridScan</text><line style="stroke:#181818;stroke-width:0.5;" x1="2825.85" x2="3098.143" y1="1204.2469" y2="1204.2469"/><line style="stroke:#181818;stroke-width:0.5;" x1="2825.85" x2="3098.143" y1="1212.2469" y2="1212.2469"/></g><!--reverse link MxBlueskyParameters to LoadCentreCollect--><g class="link" data-entity-1="MxBlueskyParameters" data-entity-2="LoadCentreCollect" data-source-line="118" data-uid="lnk28" id="link_MxBlueskyParameters_LoadCentreCollect"><path codeLine="118" d="M2777.1179,154.1129 C3150.7579,159.8429 4042.32,183.0169 4142,275.7869 C4238.76,365.8269 4187,437.5769 4187,569.7569 C4187,569.7569 4187,569.7569 4187,728.6469 C4187,903.6369 4183.73,949.8569 4142,1119.7969 C4139.09,1131.6569 4134.81,1144.1669 4130.42,1155.5169" fill="none" id="MxBlueskyParameters-backto-LoadCentreCollect" style="stroke:#181818;stroke-width:1;"/><polygon fill="none" points="2759.12,153.8369,2777.0259,160.1122,2777.2099,148.1136,2759.12,153.8369" style="stroke:#181818;stroke-width:1;"/></g><!--reverse link WithVisit to LoadCentreCollect--><g class="link" data-entity-1="WithVisit" data-entity-2="LoadCentreCollect" data-source-line="119" data-uid="lnk29" id="link_WithVisit_LoadCentreCollect"><path codeLine="119" d="M1805.3516,216.3846 C1920.7716,241.1646 3840.53,197.6269 3929,275.7869 C4028.06,363.2869 3974,437.5769 3974,569.7569 C3974,569.7569 3974,569.7569 3974,728.6469 C3974,892.8369 4054.03,1076.5069 4092.64,1155.5569" fill="none" id="WithVisit-backto-LoadCentreCollect" style="stroke:#181818;stroke-width:1;"/><polygon fill="none" points="1788,211.5969,1803.7557,222.1684,1806.9475,210.6007,1788,211.5969" style="stroke:#181818;stroke-width:1;"/></g><!--reverse link WithSample to LoadCentreCollect--><g class="link" data-entity-1="WithSample" data-entity-2="LoadCentreCollect" data-source-line="120" data-uid="lnk30" id="link_WithSample_LoadCentreCollect"><path codeLine="120" d="M1020.2425,208.3559 C1032.3025,214.8059 1029.23,212.0069 1042,215.7869 C1411.9,325.3569 2395.73,216.9269 2777,275.7869 C3258.05,350.0469 3832,82.9969 3832,569.7569 C3832,569.7569 3832,569.7569 3832,728.6469 C3832,903.6369 3765.89,984.6069 3877,1119.7969 C3894.48,1141.0669 3917.97,1156.4169 3943.37,1167.4769" fill="none" id="WithSample-backto-LoadCentreCollect" style="stroke:#181818;stroke-width:1;"/><polygon fill="none" points="1004.37,199.8669,1017.4128,213.6467,1023.0722,203.0651,1004.37,199.8669" style="stroke:#181818;stroke-width:1;"/></g><!--reverse link WithCentreSelection to LoadCentreCollect--><g class="link" data-entity-1="WithCentreSelection" data-entity-2="LoadCentreCollect" data-source-line="121" data-uid="lnk31" id="link_WithCentreSelection_LoadCentreCollect"><path codeLine="121" d="M2333.5343,190.7646 C2362.2643,203.1746 2380.34,208.9369 2413,215.7869 C2502.34,234.5269 3985.26,216.8869 4055,275.7869 C4156.94,361.8869 4116,436.3169 4116,569.7569 C4116,569.7569 4116,569.7569 4116,728.6469 C4116,886.8169 4114.25,1075.1369 4113.43,1155.6069" fill="none" id="WithCentreSelection-backto-LoadCentreCollect" style="stroke:#181818;stroke-width:1;"/><polygon fill="none" points="2317.01,183.6269,2331.1551,196.2727,2335.9136,185.2565,2317.01,183.6269" style="stroke:#181818;stroke-width:1;"/></g><!--reverse link WithHyperionUDCFeatures to LoadCentreCollect--><g class="link" data-entity-1="WithHyperionUDCFeatures" data-entity-2="LoadCentreCollect" data-source-line="122" data-uid="lnk32" id="link_WithHyperionUDCFeatures_LoadCentreCollect"><path codeLine="122" d="M3698.0415,1021.0857 C3723.0915,1054.2857 3756.08,1091.2469 3806,1119.7969 C3807.81,1120.8369 3877.05,1137.8769 3949.32,1155.5069" fill="none" id="WithHyperionUDCFeatures-backto-LoadCentreCollect" style="stroke:#181818;stroke-width:1;"/><polygon fill="none" points="3687.2,1006.7169,3693.2519,1024.6995,3702.8311,1017.4718,3687.2,1006.7169" style="stroke:#181818;stroke-width:1;"/></g><!--reverse link DiffractionExperimentWithSample to RotationExperiment--><g class="link" data-entity-1="DiffractionExperimentWithSample" data-entity-2="RotationExperiment" data-source-line="123" data-uid="lnk33" id="link_DiffractionExperimentWithSample_RotationExperiment"><path codeLine="123" d="M2668.4283,602.2154 C2705.2583,617.9154 2737.37,632.6469 2779,654.7569 C3126.73,839.4269 3193.21,920.9069 3533,1119.7969 C3548.5,1128.8669 3565.12,1138.3169 3581.24,1147.3369" fill="none" id="DiffractionExperimentWithSample-backto-RotationExperiment" style="stroke:#181818;stroke-width:1;"/><polygon fill="none" points="2651.87,595.1569,2666.0755,607.7348,2670.7811,596.696,2651.87,595.1569" style="stroke:#181818;stroke-width:1;"/></g><!--reverse link WithHyperionUDCFeatures to RotationExperiment--><g class="link" data-entity-1="WithHyperionUDCFeatures" data-entity-2="RotationExperiment" data-source-line="124" data-uid="lnk34" id="link_WithHyperionUDCFeatures_RotationExperiment"><path codeLine="124" d="M3665.8972,1024.6939 C3666.5672,1061.5439 3667.36,1104.8869 3668.13,1147.5669" fill="none" id="WithHyperionUDCFeatures-backto-RotationExperiment" style="stroke:#181818;stroke-width:1;"/><polygon fill="none" points="3665.57,1006.6969,3659.8982,1024.803,3671.8962,1024.5848,3665.57,1006.6969" style="stroke:#181818;stroke-width:1;"/></g><!--reverse link MxBlueskyParameters to DiffractionExperiment--><g class="link" data-entity-1="MxBlueskyParameters" data-entity-2="DiffractionExperiment" data-source-line="125" data-uid="lnk35" id="link_MxBlueskyParameters_DiffractionExperiment"><path codeLine="125" d="M2598.9224,201.2925 C2598.3924,225.2825 2598.03,241.8769 2597.3,275.3969" fill="none" id="MxBlueskyParameters-backto-DiffractionExperiment" style="stroke:#181818;stroke-width:1;"/><polygon fill="none" points="2599.32,183.2969,2592.9239,201.16,2604.921,201.425,2599.32,183.2969" style="stroke:#181818;stroke-width:1;"/></g><!--reverse link WithSnapshot to DiffractionExperiment--><g class="link" data-entity-1="WithSnapshot" data-entity-2="DiffractionExperiment" data-source-line="126" data-uid="lnk36" id="link_WithSnapshot_DiffractionExperiment"><path codeLine="126" d="M1439.6137,198.2527 C1463.8037,207.7127 1473.64,210.1469 1499,215.7869 C1899.85,304.9469 2029.05,153.2969 2421,275.7869 C2423.52,276.5769 2426.05,277.4069 2428.57,278.2769" fill="none" id="WithSnapshot-backto-DiffractionExperiment" style="stroke:#181818;stroke-width:1;"/><polygon fill="none" points="1422.85,191.6969,1437.4284,203.8406,1441.799,192.6648,1422.85,191.6969" style="stroke:#181818;stroke-width:1;"/></g><!--reverse link WithOptionalEnergyChange to DiffractionExperiment--><g class="link" data-entity-1="WithOptionalEnergyChange" data-entity-2="DiffractionExperiment" data-source-line="127" data-uid="lnk37" id="link_WithOptionalEnergyChange_DiffractionExperiment"><path codeLine="127" d="M350.597,191.8876 C374.647,204.3676 387.9,209.0369 416,215.7869 C849.45,319.7969 1993.27,150.3069 2421,275.7869 C2423.45,276.5069 2425.9,277.2669 2428.35,278.0669" fill="none" id="WithOptionalEnergyChange-backto-DiffractionExperiment" style="stroke:#181818;stroke-width:1;"/><polygon fill="none" points="334.62,183.5969,347.8334,197.2133,353.3605,186.562,334.62,183.5969" style="stroke:#181818;stroke-width:1;"/></g><!--reverse link WithVisit to DiffractionExperiment--><g class="link" data-entity-1="WithVisit" data-entity-2="DiffractionExperiment" data-source-line="128" data-uid="lnk38" id="link_WithVisit_DiffractionExperiment"><path codeLine="128" d="M1805.3492,216.2847 C2072.1492,283.2447 2159.8,189.5369 2421,275.7869 C2423.51,276.6169 2426.02,277.4869 2428.53,278.3869" fill="none" id="WithVisit-backto-DiffractionExperiment" style="stroke:#181818;stroke-width:1;"/><polygon fill="none" points="1788.11,211.1069,1803.6232,222.0311,1807.0751,210.5383,1788.11,211.1069" style="stroke:#181818;stroke-width:1;"/></g><!--reverse link WithPandaGridScan to WithHyperionUDCFeatures--><g class="link" data-entity-1="WithPandaGridScan" data-entity-2="WithHyperionUDCFeatures" data-source-line="129" data-uid="lnk39" id="link_WithPandaGridScan_WithHyperionUDCFeatures"><path codeLine="129" d="M2013.9511,191.7232 C2038.5411,204.2032 2052.36,209.0169 2081,215.7869 C2184.81,240.3069 3925.77,199.1969 4000,275.7869 C4201.22,483.3969 3827.22,834.9169 3703.06,941.5669" fill="none" id="WithPandaGridScan-backto-WithHyperionUDCFeatures" style="stroke:#181818;stroke-width:1;"/><polygon fill="none" points="1997.9,183.5769,2011.2357,197.0735,2016.6665,186.3728,1997.9,183.5769" style="stroke:#181818;stroke-width:1;"/></g><!--reverse link GridCommonWithHyperionDetectorParams to PinTipCentreThenXrayCentre--><g class="link" data-entity-1="GridCommonWithHyperionDetectorParams" data-entity-2="PinTipCentreThenXrayCentre" data-source-line="130" data-uid="lnk40" id="link_GridCommonWithHyperionDetectorParams_PinTipCentreThenXrayCentre"><path codeLine="130" d="M3302.4903,1238.4351 C3303.3203,1261.3951 3303.94,1278.7269 3304.86,1304.2469" fill="none" id="GridCommonWithHyperionDetectorParams-backto-PinTipCentreThenXrayCentre" style="stroke:#181818;stroke-width:1;"/><polygon fill="none" points="3301.84,1220.4469,3296.4942,1238.6519,3308.4864,1238.2184,3301.84,1220.4469" style="stroke:#181818;stroke-width:1;"/></g><!--reverse link WithHyperionUDCFeatures to PinTipCentreThenXrayCentre--><g class="link" data-entity-1="WithHyperionUDCFeatures" data-entity-2="PinTipCentreThenXrayCentre" data-source-line="131" data-uid="lnk41" id="link_WithHyperionUDCFeatures_PinTipCentreThenXrayCentre"><path codeLine="131" d="M3703.0739,1020.1648 C3729.9439,1051.1448 3762.08,1085.1669 3806,1119.7969 C3825.09,1134.8569 3840.99,1126.6569 3853,1147.7969 C3874.28,1185.2369 3881.04,1212.0069 3853,1244.6869 C3795.9,1311.2369 3549.36,1289.4869 3463,1304.6869 C3450.41,1306.9069 3437.28,1309.3269 3424.2,1311.8169" fill="none" id="WithHyperionUDCFeatures-backto-PinTipCentreThenXrayCentre" style="stroke:#181818;stroke-width:1;"/><polygon fill="none" points="3691.28,1006.5669,3698.5413,1024.0961,3707.6066,1016.2335,3691.28,1006.5669" style="stroke:#181818;stroke-width:1;"/></g><!--reverse link DiffractionExperimentWithSample to GridCommon--><g class="link" data-entity-1="DiffractionExperimentWithSample" data-entity-2="GridCommon" data-source-line="132" data-uid="lnk42" id="link_DiffractionExperimentWithSample_GridCommon"><path codeLine="132" d="M2595,612.9369 C2595,628.8869 2595,633.0169 2595,654.5769" fill="none" id="DiffractionExperimentWithSample-backto-GridCommon" style="stroke:#181818;stroke-width:1;"/><polygon fill="none" points="2595,594.9369,2589,612.9369,2601,612.9369,2595,594.9369" style="stroke:#181818;stroke-width:1;"/></g><!--reverse link OptionalGonioAngleStarts to GridCommon--><g class="link" data-entity-1="OptionalGonioAngleStarts" data-entity-2="GridCommon" data-source-line="133" data-uid="lnk43" id="link_OptionalGonioAngleStarts_GridCommon"><path codeLine="133" d="M824.6699,214.5978 C832.0399,217.4978 822.69,213.5369 830,215.7869 C1025.83,275.9069 1088.45,225.3569 1287,275.7869 C1540.35,340.1269 1589.26,400.4469 1836,486.7569 C2038.35,557.5369 2274.16,630.6169 2428.58,677.2269" fill="none" id="OptionalGonioAngleStarts-backto-GridCommon" style="stroke:#181818;stroke-width:1;"/><polygon fill="none" points="807.92,208.0069,822.473,220.1811,826.8669,209.0144,807.92,208.0069" style="stroke:#181818;stroke-width:1;"/></g><!--reverse link GridCommon to SpecifiedThreeDGridScan--><g class="link" data-entity-1="GridCommon" data-entity-2="SpecifiedThreeDGridScan" data-source-line="134" data-uid="lnk44" id="link_GridCommon_SpecifiedThreeDGridScan"><path codeLine="134" d="M2572.591,818.4811 C2567.951,837.0711 2567.21,840.0469 2562.19,860.1669" fill="none" id="GridCommon-backto-SpecifiedThreeDGridScan" style="stroke:#181818;stroke-width:1;"/><polygon fill="none" points="2576.95,801.0169,2566.7696,817.0281,2578.4124,819.9341,2576.95,801.0169" style="stroke:#181818;stroke-width:1;"/></g><!--reverse link SpecifiedGrid to SpecifiedThreeDGridScan--><g class="link" data-entity-1="SpecifiedGrid" data-entity-2="SpecifiedThreeDGridScan" data-source-line="135" data-uid="lnk45" id="link_SpecifiedGrid_SpecifiedThreeDGridScan"><path codeLine="135" d="M1275.8735,412.9389 C1473.5235,500.9489 2159.53,806.4169 2428.32,926.1069" fill="none" id="SpecifiedGrid-backto-SpecifiedThreeDGridScan" style="stroke:#181818;stroke-width:1;"/><polygon fill="none" points="1259.43,405.6169,1273.4328,418.42,1278.3142,407.4577,1259.43,405.6169" style="stroke:#181818;stroke-width:1;"/></g><!--reverse link SplitScan to SpecifiedThreeDGridScan--><g class="link" data-entity-1="SplitScan" data-entity-2="SpecifiedThreeDGridScan" data-source-line="136" data-uid="lnk46" id="link_SplitScan_SpecifiedThreeDGridScan"><path codeLine="136" d="M1097.5434,192.8412 C1083.3934,251.2712 1059.29,388.8669 1127,486.7569 C1281.25,709.7369 2127.76,893.9469 2428.19,953.1569" fill="none" id="SplitScan-backto-SpecifiedThreeDGridScan" style="stroke:#181818;stroke-width:1;"/><polygon fill="none" points="1101.78,175.3469,1091.712,191.429,1103.3748,194.2534,1101.78,175.3469" style="stroke:#181818;stroke-width:1;"/></g><!--reverse link WithOptionalEnergyChange to SpecifiedThreeDGridScan--><g class="link" data-entity-1="WithOptionalEnergyChange" data-entity-2="SpecifiedThreeDGridScan" data-source-line="137" data-uid="lnk47" id="link_WithOptionalEnergyChange_SpecifiedThreeDGridScan"><path codeLine="137" d="M334.9097,194.7246 C471.7097,301.6946 925.32,641.2869 1373,800.5369 C1745.47,933.0269 2220.15,963.8469 2428.23,971.0069" fill="none" id="WithOptionalEnergyChange-backto-SpecifiedThreeDGridScan" style="stroke:#181818;stroke-width:1;"/><polygon fill="none" points="320.73,183.6369,331.2138,199.4511,338.6056,189.998,320.73,183.6369" style="stroke:#181818;stroke-width:1;"/></g><!--reverse link GridCommon to GridCommonWithHyperionDetectorParams--><g class="link" data-entity-1="GridCommon" data-entity-2="GridCommonWithHyperionDetectorParams" data-source-line="138" data-uid="lnk48" id="link_GridCommon_GridCommonWithHyperionDetectorParams"><path codeLine="138" d="M2676.8979,813.5248 C2763.6479,900.2748 2907.69,1032.3669 3067,1119.7969 C3108.35,1142.4969 3157.6,1159.6569 3200.23,1171.8269" fill="none" id="GridCommon-backto-GridCommonWithHyperionDetectorParams" style="stroke:#181818;stroke-width:1;"/><polygon fill="none" points="2664.17,800.7969,2672.6553,817.7674,2681.1406,809.2822,2664.17,800.7969" style="stroke:#181818;stroke-width:1;"/></g><!--reverse link WithHyperionUDCFeatures to GridCommonWithHyperionDetectorParams--><g class="link" data-entity-1="WithHyperionUDCFeatures" data-entity-2="GridCommonWithHyperionDetectorParams" data-source-line="139" data-uid="lnk49" id="link_WithHyperionUDCFeatures_GridCommonWithHyperionDetectorParams"><path codeLine="139" d="M3597.4463,1016.0095 C3523.5263,1060.6995 3405.4,1132.1269 3339.67,1171.8569" fill="none" id="WithHyperionUDCFeatures-backto-GridCommonWithHyperionDetectorParams" style="stroke:#181818;stroke-width:1;"/><polygon fill="none" points="3612.85,1006.6969,3594.3421,1010.875,3600.5505,1021.1441,3612.85,1006.6969" style="stroke:#181818;stroke-width:1;"/></g><!--reverse link GridCommonWithHyperionDetectorParams to GridScanWithEdgeDetect--><g class="link" data-entity-1="GridCommonWithHyperionDetectorParams" data-entity-2="GridScanWithEdgeDetect" data-source-line="140" data-uid="lnk50" id="link_GridCommonWithHyperionDetectorParams_GridScanWithEdgeDetect"><path codeLine="140" d="M3365.0356,1228.493 C3417.3556,1254.033 3484.55,1286.8169 3536.95,1312.3869" fill="none" id="GridCommonWithHyperionDetectorParams-backto-GridScanWithEdgeDetect" style="stroke:#181818;stroke-width:1;"/><polygon fill="none" points="3348.86,1220.5969,3362.4036,1233.8849,3367.6677,1223.1011,3348.86,1220.5969" style="stroke:#181818;stroke-width:1;"/></g><!--reverse link WithHyperionUDCFeatures to GridScanWithEdgeDetect--><g class="link" data-entity-1="WithHyperionUDCFeatures" data-entity-2="GridScanWithEdgeDetect" data-source-line="141" data-uid="lnk51" id="link_WithHyperionUDCFeatures_GridScanWithEdgeDetect"><path codeLine="141" d="M3700.0897,1020.8163 C3725.8797,1053.0763 3758.48,1088.6669 3806,1119.7969 C3835.42,1139.0669 3860.01,1118.8669 3880,1147.7969 C3904.48,1183.2269 3905.56,1210.0369 3880,1244.6869 C3867.65,1261.4369 3761.78,1291.3869 3680.37,1312.3769" fill="none" id="WithHyperionUDCFeatures-backto-GridScanWithEdgeDetect" style="stroke:#181818;stroke-width:1;"/><polygon fill="none" points="3688.85,1006.7569,3695.4032,1024.5629,3704.7762,1017.0698,3688.85,1006.7569" style="stroke:#181818;stroke-width:1;"/></g><!--reverse link RotationExperiment to MultiRotationScan--><g class="link" data-entity-1="RotationExperiment" data-entity-2="MultiRotationScan" data-source-line="142" data-uid="lnk52" id="link_RotationExperiment_MultiRotationScan"><path codeLine="142" d="M3802.0971,1251.9833 C3849.6571,1271.5433 3886.71,1286.7769 3929.21,1304.2569" fill="none" id="RotationExperiment-backto-MultiRotationScan" style="stroke:#181818;stroke-width:1;"/><polygon fill="none" points="3785.45,1245.1369,3799.815,1257.5324,3804.3793,1246.4343,3785.45,1245.1369" style="stroke:#181818;stroke-width:1;"/></g><!--reverse link SplitScan to MultiRotationScan--><g class="link" data-entity-1="SplitScan" data-entity-2="MultiRotationScan" data-source-line="143" data-uid="lnk53" id="link_SplitScan_MultiRotationScan"><path codeLine="143" d="M1136.1551,189.3226 C1148.0551,203.8526 1154.03,207.3869 1174,215.7869 C1394.41,308.4369 3093.29,216.8369 3325,275.7869 C3604.31,346.8369 3903,281.5469 3903,569.7569 C3903,569.7569 3903,569.7569 3903,728.6469 C3903,985.2269 4205.03,909.4369 4300,1147.7969 C4315.94,1187.8069 4325.55,1210.0269 4300,1244.6869 C4282.41,1268.5669 4224.8,1288.8769 4165.18,1304.2169" fill="none" id="SplitScan-backto-MultiRotationScan" style="stroke:#181818;stroke-width:1;"/><polygon fill="none" points="1124.75,175.3969,1131.5132,193.1242,1140.797,185.5209,1124.75,175.3969" style="stroke:#181818;stroke-width:1;"/></g><!--reverse link XyzStarts to SpecifiedGrid--><g class="link" data-entity-1="XyzStarts" data-entity-2="SpecifiedGrid" data-source-line="144" data-uid="lnk54" id="link_XyzStarts_SpecifiedGrid"><path codeLine="144" d="M564.5726,210.2576 C572.9426,216.2176 567.11,211.3369 576,215.7869 C769.89,312.7869 1026.79,356.7069 1143.94,372.6769" fill="none" id="XyzStarts-backto-SpecifiedGrid" style="stroke:#181818;stroke-width:1;"/><polygon fill="none" points="549.91,199.8169,561.0923,215.1451,568.0528,205.3701,549.91,199.8169" style="stroke:#181818;stroke-width:1;"/></g><!--reverse link WithScan to SpecifiedGrid--><g class="link" data-entity-1="WithScan" data-entity-2="SpecifiedGrid" data-source-line="145" data-uid="lnk55" id="link_WithScan_SpecifiedGrid"><path codeLine="145" d="M109.1073,189.077 C121.3373,203.087 126.84,206.3569 146,215.7869 C324.55,303.6169 943.24,359.3469 1143.75,375.4369" fill="none" id="WithScan-backto-SpecifiedGrid" style="stroke:#181818;stroke-width:1;"/><polygon fill="none" points="97.27,175.5169,104.5873,193.0228,113.6274,185.1313,97.27,175.5169" style="stroke:#181818;stroke-width:1;"/></g><!--reverse link WithHyperionUDCFeatures to HyperionSpecifiedThreeDGridScan--><g class="link" data-entity-1="WithHyperionUDCFeatures" data-entity-2="HyperionSpecifiedThreeDGridScan" data-source-line="146" data-uid="lnk56" id="link_WithHyperionUDCFeatures_HyperionSpecifiedThreeDGridScan"><path codeLine="146" d="M3547.1021,1012.0745 C3404.4421,1056.7345 3163.97,1132.0169 3036.95,1171.7869" fill="none" id="WithHyperionUDCFeatures-backto-HyperionSpecifiedThreeDGridScan" style="stroke:#181818;stroke-width:1;"/><polygon fill="none" points="3564.28,1006.6969,3545.3095,1006.3485,3548.8946,1017.8004,3564.28,1006.6969" style="stroke:#181818;stroke-width:1;"/></g><!--reverse link SpecifiedThreeDGridScan to HyperionSpecifiedThreeDGridScan--><g class="link" data-entity-1="SpecifiedThreeDGridScan" data-entity-2="HyperionSpecifiedThreeDGridScan" data-source-line="147" data-uid="lnk57" id="link_SpecifiedThreeDGridScan_HyperionSpecifiedThreeDGridScan"><path codeLine="147" d="M2655.6768,1040.0414 C2706.6568,1067.0414 2752.88,1091.2169 2809,1119.7969 C2843.83,1137.5469 2883.42,1157.0469 2913.6,1171.7769" fill="none" id="SpecifiedThreeDGridScan-backto-HyperionSpecifiedThreeDGridScan" style="stroke:#181818;stroke-width:1;"/><polygon fill="none" points="2639.77,1031.6169,2652.8686,1045.3437,2658.485,1034.7392,2639.77,1031.6169" style="stroke:#181818;stroke-width:1;"/></g><!--reverse link DiffractionExperiment to DiffractionExperimentWithSample--><g class="link" data-entity-1="DiffractionExperiment" data-entity-2="DiffractionExperimentWithSample" data-source-line="148" data-uid="lnk58" id="link_DiffractionExperiment_DiffractionExperimentWithSample"><path codeLine="148" d="M2595,505.2469 C2595,527.5069 2595,530.9069 2595,546.3269" fill="none" id="DiffractionExperiment-backto-DiffractionExperimentWithSample" style="stroke:#181818;stroke-width:1;"/><polygon fill="none" points="2595,487.2469,2589,505.2469,2601,505.2469,2595,487.2469" style="stroke:#181818;stroke-width:1;"/></g><!--reverse link WithSample to DiffractionExperimentWithSample--><g class="link" data-entity-1="WithSample" data-entity-2="DiffractionExperimentWithSample" data-source-line="149" data-uid="lnk59" id="link_WithSample_DiffractionExperimentWithSample"><path codeLine="149" d="M1021.2444,208.391 C1033.0344,214.711 1029.62,211.8469 1042,215.7869 C1380.91,323.6869 1493.15,197.0669 1840,275.7869 C1982.83,308.1969 2392.9,482.4069 2540.91,546.2669" fill="none" id="WithSample-backto-DiffractionExperimentWithSample" style="stroke:#181818;stroke-width:1;"/><polygon fill="none" points="1005.38,199.8869,1018.4097,213.6791,1024.0791,203.1028,1005.38,199.8869" style="stroke:#181818;stroke-width:1;"/></g><!--SRC=[bLTBRziu43v7luAtxGAR0Ervzv0wQRT0qmrgRxP04H2qD9Q8I2H1KgaLD_zzPqH9bgs7NUGGpJSFpflqRwjCEhQHEJ3yBqglBrDGO8M7XAqhrXBSv4BviiYlJ1L5NdfK-BioOALMx5vOKO07o-vq0ddam3E5Y3CYXYKOP7jjcT8AeWYn9v42AxPydPVWdgghM1U5LbUcDUFOBl8w1P-XoLqKvy8vze_nU9R8FsebzRLASrXwORtRHHURN0lFVh8lU03J1QI2E-Bn1D8Zhida92-UuJq9O_fMNnkl_fC-knSg4H-jJ9QnK9qxXb1kIrKQdaZKL37mekWqlrKlHm5i6_jbqIBL07dP8tqNskJSOhNIQf49bS9nOX8eq2KEjGY7vmC32r3UOgroYCaIwgwq-VA-kXFRXIwLxpZCrLyyhXLSPsHf89OR2GabOdTWUwc4SPdsQFHU-8ovXiQqM3IbRHLTv9YXxxMxZws_dLXTKNUGzgN9fG_fxf_q89saOvotR0sYo2LsN4qz4oTy9k3hWd2lEGdnMAjdiDXttA1xGKWgXn36ous5ZTmESkbhpqShMySyy6qf2fDJKQJopDK4bqaWsuW3QihuQHIN2Ys-3aVZRli-J58tYDHKIwgtb_43abIuRhnuGLFAdmFUEKc5MzIJs7NEMcDFoXVeDM2AKlo7J7pM0s5hj2ijS2yBu2ww-EHCjRxTqduei55Mk2bmlo36eGEvHpIwk4RQe-w3m1YwYEicWuIBXjkUvANXUhF13TCVWQxvLfa5k1dC8ZdzDlHHVxO9VZU4QGx170TUZQ8luxBlXeFRXwYsuHGNYAfFlBJ4MkkSSOhL-NBTnBqVkHkvsLXHJ-K-rKttqqRdj8CdIqHIj7XH1uVToZG5I-kR-V1TTyb16-8kuweirc1_kMfMA5T8H_t6oUTVwX3orE6muQtHNnbrTae7t6ePd9rDJ7y6N-k_aPieQwwqmxieMFsiHHBMv4Bd52Yc-gjUQq-CLGOgC9abZ6FS2SSfLSscZ2xkojpBhzeByelQanM4eFi1uWwnBePMyA2o8PikApsDiJQWf4gxYWPkPqwgs4ATnhgtpqzuVskrT_o_DuiF8AYcj5fQj84-v2B5HqJ3x_JlfLf94x92-VbcHHMetVmuxpTHtuMRPkVMIyxj3gGfdIHxcwGGvFRyGTxnz6kb283aUttnzBdtO9S_0CpZ7-mpg3U5L3m7bVhihxU_FxA3Okr3RNsSN4JKRoDhcltvy_9os5bHTvdD2OHkdfCukjNdH4SAFIL-Oho2sh1_vuyPaP_CrwW3KV-fSKfkxBrqIgTNZscXWxTW49u8EpgdouE5wK6Qp-cCtbart7iOJRs-1uBxpy2Qc8ZeuBruIhHvxCsBpTTrIklOttEgCf_riooSN_pnzNRQXH6TuOm5yS66F4xvKA3xzNAKNJevQX_0Kxn9lq-iqMW2FqzvjELdvda_3ODjUqB-Vm00]--></g></svg>