<svg xmlns="http://www.w3.org/2000/svg" xmlns:xlink="http://www.w3.org/1999/xlink" contentStyleType="text/css" data-diagram-type="CLASS" height="1235px" preserveAspectRatio="none" style="width:5176px;height:1235px;background:#FFFFFF;" version="1.1" viewBox="0 0 5176 1235" width="5176px" zoomAndPan="magnify"><title>Hyperion Parameter Model</title><defs/><g><text fill="#000000" font-family="sans-serif" font-size="14" font-weight="bold" lengthAdjust="spacing" textLength="212.4951" x="2475.2474" y="22.9951">Hyperion Parameter Model</text><!--cluster mx_bluesky.common.parameters--><g id="cluster_mx_bluesky.common.parameters"><path d="M8.5,43.2969 L269.8125,43.2969 A3.75,3.75 0 0 1 272.3125,45.7969 L279.3125,65.5938 L2992.5,65.5938 A2.5,2.5 0 0 1 2995,68.0938 L2995,1109.2969 A2.5,2.5 0 0 1 2992.5,1111.7969 L8.5,1111.7969 A2.5,2.5 0 0 1 6,1109.2969 L6,45.7969 A2.5,2.5 0 0 1 8.5,43.2969 " fill="#FFFFFF" fill-opacity="0.00000" style="stroke:#000000;stroke-width:1.5;"/><line style="stroke:#000000;stroke-width:1.5;" x1="6" x2="279.3125" y1="65.5938" y2="65.5938"/><text fill="#000000" font-family="sans-serif" font-size="14" font-weight="bold" lengthAdjust="spacing" textLength="260.3125" x="10" y="58.292">mx_bluesky.common.parameters</text></g><!--cluster mx_bluesky.hyperion.parameters--><g id="cluster_mx_bluesky.hyperion.parameters"><path d="M3021.5,660.4969 L3286.0322,660.4969 A3.75,3.75 0 0 1 3288.5322,662.9969 L3295.5322,682.7937 L4841.5,682.7937 A2.5,2.5 0 0 1 4844,685.2937 L4844,1225.5969 A2.5,2.5 0 0 1 4841.5,1228.0969 L3021.5,1228.0969 A2.5,2.5 0 0 1 3019,1225.5969 L3019,662.9969 A2.5,2.5 0 0 1 3021.5,660.4969 " fill="#FFFFFF" fill-opacity="0.00000" style="stroke:#000000;stroke-width:1.5;"/><line style="stroke:#000000;stroke-width:1.5;" x1="3019" x2="3295.5322" y1="682.7937" y2="682.7937"/><text fill="#000000" font-family="sans-serif" font-size="14" font-weight="bold" lengthAdjust="spacing" textLength="263.5322" x="3023" y="675.492">mx_bluesky.hyperion.parameters</text></g><!--class WithScan--><g id="elem_WithScan"><rect codeLine="8" fill="#F1F1F1" height="48" id="WithScan" rx="2.5" ry="2.5" style="stroke:#181818;stroke-width:0.5;" width="98.1309" x="1446.93" y="127.0469"/><ellipse cx="1461.93" cy="143.0469" fill="#ADD1B2" rx="11" ry="11" style="stroke:#181818;stroke-width:1;"/><path d="M1464.8988,148.6875 Q1464.3206,148.9844 1463.68,149.125 Q1463.0394,149.2813 1462.3363,149.2813 Q1459.8363,149.2813 1458.5081,147.6406 Q1457.1956,145.9844 1457.1956,142.8594 Q1457.1956,139.7344 1458.5081,138.0781 Q1459.8363,136.4219 1462.3363,136.4219 Q1463.0394,136.4219 1463.68,136.5781 Q1464.3363,136.7344 1464.8988,137.0313 L1464.8988,139.75 Q1464.2738,139.1719 1463.68,138.9063 Q1463.0863,138.625 1462.4613,138.625 Q1461.1175,138.625 1460.43,139.7031 Q1459.7425,140.7656 1459.7425,142.8594 Q1459.7425,144.9531 1460.43,146.0313 Q1461.1175,147.0938 1462.4613,147.0938 Q1463.0863,147.0938 1463.68,146.8281 Q1464.2738,146.5469 1464.8988,145.9688 L1464.8988,148.6875 Z " fill="#000000"/><text fill="#000000" font-family="sans-serif" font-size="14" lengthAdjust="spacing" textLength="66.1309" x="1475.93" y="147.8936">WithScan</text><line style="stroke:#181818;stroke-width:0.5;" x1="1447.93" x2="1544.0609" y1="159.0469" y2="159.0469"/><line style="stroke:#181818;stroke-width:0.5;" x1="1447.93" x2="1544.0609" y1="167.0469" y2="167.0469"/></g><!--class WithCentreSelection--><g id="elem_WithCentreSelection"><rect codeLine="10" fill="#F1F1F1" height="64.2969" id="WithCentreSelection" rx="2.5" ry="2.5" style="stroke:#181818;stroke-width:0.5;" width="306.7861" x="2308.61" y="118.8969"/><ellipse cx="2385.8869" cy="134.8969" fill="#ADD1B2" rx="11" ry="11" style="stroke:#181818;stroke-width:1;"/><path d="M2388.8556,140.5375 Q2388.2775,140.8344 2387.6369,140.975 Q2386.9962,141.1312 2386.2931,141.1312 Q2383.7931,141.1312 2382.465,139.4906 Q2381.1525,137.8344 2381.1525,134.7094 Q2381.1525,131.5844 2382.465,129.9281 Q2383.7931,128.2719 2386.2931,128.2719 Q2386.9962,128.2719 2387.6369,128.4281 Q2388.2931,128.5844 2388.8556,128.8812 L2388.8556,131.6 Q2388.2306,131.0219 2387.6369,130.7562 Q2387.0431,130.475 2386.4181,130.475 Q2385.0744,130.475 2384.3869,131.5531 Q2383.6994,132.6156 2383.6994,134.7094 Q2383.6994,136.8031 2384.3869,137.8812 Q2385.0744,138.9437 2386.4181,138.9437 Q2387.0431,138.9437 2387.6369,138.6781 Q2388.2306,138.3969 2388.8556,137.8187 L2388.8556,140.5375 Z " fill="#000000"/><text fill="#000000" font-family="sans-serif" font-size="14" lengthAdjust="spacing" textLength="143.7324" x="2406.3869" y="139.7436">WithCentreSelection</text><line style="stroke:#181818;stroke-width:0.5;" x1="2309.61" x2="2614.3961" y1="150.8969" y2="150.8969"/><text fill="#000000" font-family="sans-serif" font-size="14" lengthAdjust="spacing" textLength="294.7861" x="2314.61" y="167.892">TopNByMaxCountSelection select_centres</text><line style="stroke:#181818;stroke-width:0.5;" x1="2309.61" x2="2614.3961" y1="175.1937" y2="175.1937"/></g><!--class XyzStarts--><g id="elem_XyzStarts"><rect codeLine="13" fill="#F1F1F1" height="96.8906" id="XyzStarts" rx="2.5" ry="2.5" style="stroke:#181818;stroke-width:0.5;" width="125.3057" x="30.35" y="102.5969"/><ellipse cx="57.3141" cy="118.5969" fill="#ADD1B2" rx="11" ry="11" style="stroke:#181818;stroke-width:1;"/><path d="M60.2829,124.2375 Q59.7047,124.5344 59.0641,124.675 Q58.4235,124.8312 57.7204,124.8312 Q55.2204,124.8312 53.8922,123.1906 Q52.5797,121.5344 52.5797,118.4094 Q52.5797,115.2844 53.8922,113.6281 Q55.2204,111.9719 57.7204,111.9719 Q58.4235,111.9719 59.0641,112.1281 Q59.7204,112.2844 60.2829,112.5812 L60.2829,115.3 Q59.6579,114.7219 59.0641,114.4562 Q58.4704,114.175 57.8454,114.175 Q56.5016,114.175 55.8141,115.2531 Q55.1266,116.3156 55.1266,118.4094 Q55.1266,120.5031 55.8141,121.5812 Q56.5016,122.6437 57.8454,122.6437 Q58.4704,122.6437 59.0641,122.3781 Q59.6579,122.0969 60.2829,121.5187 L60.2829,124.2375 Z " fill="#000000"/><text fill="#000000" font-family="sans-serif" font-size="14" lengthAdjust="spacing" textLength="66.7188" x="73.9728" y="123.4436">XyzStarts</text><line style="stroke:#181818;stroke-width:0.5;" x1="31.35" x2="154.6557" y1="134.5969" y2="134.5969"/><text fill="#000000" font-family="sans-serif" font-size="14" lengthAdjust="spacing" textLength="113.3057" x="36.35" y="151.592">float x_start_um</text><text fill="#000000" font-family="sans-serif" font-size="14" lengthAdjust="spacing" textLength="113.3057" x="36.35" y="167.8889">float y_start_um</text><text fill="#000000" font-family="sans-serif" font-size="14" lengthAdjust="spacing" textLength="112.3691" x="36.35" y="184.1857">float z_start_um</text><line style="stroke:#181818;stroke-width:0.5;" x1="31.35" x2="154.6557" y1="191.4875" y2="191.4875"/></g><!--class WithPandaGridScan--><g id="elem_WithPandaGridScan"><rect codeLine="18" fill="#F1F1F1" height="64.2969" id="WithPandaGridScan" rx="2.5" ry="2.5" style="stroke:#181818;stroke-width:0.5;" width="240.5664" x="784.72" y="118.8969"/><ellipse cx="831.3172" cy="134.8969" fill="#ADD1B2" rx="11" ry="11" style="stroke:#181818;stroke-width:1;"/><path d="M834.2859,140.5375 Q833.7078,140.8344 833.0672,140.975 Q832.4265,141.1312 831.7234,141.1312 Q829.2234,141.1312 827.8953,139.4906 Q826.5828,137.8344 826.5828,134.7094 Q826.5828,131.5844 827.8953,129.9281 Q829.2234,128.2719 831.7234,128.2719 Q832.4265,128.2719 833.0672,128.4281 Q833.7234,128.5844 834.2859,128.8812 L834.2859,131.6 Q833.6609,131.0219 833.0672,130.7562 Q832.4734,130.475 831.8484,130.475 Q830.5047,130.475 829.8172,131.5531 Q829.1297,132.6156 829.1297,134.7094 Q829.1297,136.8031 829.8172,137.8812 Q830.5047,138.9437 831.8484,138.9437 Q832.4734,138.9437 833.0672,138.6781 Q833.6609,138.3969 834.2859,137.8187 L834.2859,140.5375 Z " fill="#000000"/><text fill="#000000" font-family="sans-serif" font-size="14" lengthAdjust="spacing" textLength="138.8721" x="851.8172" y="139.7436">WithPandaGridScan</text><line style="stroke:#181818;stroke-width:0.5;" x1="785.72" x2="1024.2864" y1="150.8969" y2="150.8969"/><text fill="#000000" font-family="sans-serif" font-size="14" lengthAdjust="spacing" textLength="228.5664" x="790.72" y="167.892">float panda_runup_distance_mm</text><line style="stroke:#181818;stroke-width:0.5;" x1="785.72" x2="1024.2864" y1="175.1937" y2="175.1937"/></g><!--class OptionalXyzStarts--><g id="elem_OptionalXyzStarts"><rect codeLine="21" fill="#F1F1F1" height="96.8906" id="OptionalXyzStarts" rx="2.5" ry="2.5" style="stroke:#181818;stroke-width:0.5;" width="175.4473" x="1791.28" y="102.5969"/><ellipse cx="1814.1713" cy="118.5969" fill="#ADD1B2" rx="11" ry="11" style="stroke:#181818;stroke-width:1;"/><path d="M1817.14,124.2375 Q1816.5619,124.5344 1815.9213,124.675 Q1815.2806,124.8312 1814.5775,124.8312 Q1812.0775,124.8312 1810.7494,123.1906 Q1809.4369,121.5344 1809.4369,118.4094 Q1809.4369,115.2844 1810.7494,113.6281 Q1812.0775,111.9719 1814.5775,111.9719 Q1815.2806,111.9719 1815.9213,112.1281 Q1816.5775,112.2844 1817.14,112.5812 L1817.14,115.3 Q1816.515,114.7219 1815.9213,114.4562 Q1815.3275,114.175 1814.7025,114.175 Q1813.3588,114.175 1812.6713,115.2531 Q1811.9838,116.3156 1811.9838,118.4094 Q1811.9838,120.5031 1812.6713,121.5812 Q1813.3588,122.6437 1814.7025,122.6437 Q1815.3275,122.6437 1815.9213,122.3781 Q1816.515,122.0969 1817.14,121.5187 L1817.14,124.2375 Z " fill="#000000"/><text fill="#000000" font-family="sans-serif" font-size="14" lengthAdjust="spacing" textLength="125.9111" x="1829.9249" y="123.4436">OptionalXyzStarts</text><line style="stroke:#181818;stroke-width:0.5;" x1="1792.28" x2="1965.7273" y1="134.5969" y2="134.5969"/><text fill="#000000" font-family="sans-serif" font-size="14" lengthAdjust="spacing" textLength="163.4473" x="1797.28" y="151.592">float | None x_start_um</text><text fill="#000000" font-family="sans-serif" font-size="14" lengthAdjust="spacing" textLength="163.4473" x="1797.28" y="167.8889">float | None y_start_um</text><text fill="#000000" font-family="sans-serif" font-size="14" lengthAdjust="spacing" textLength="162.5107" x="1797.28" y="184.1857">float | None z_start_um</text><line style="stroke:#181818;stroke-width:0.5;" x1="1792.28" x2="1965.7273" y1="191.4875" y2="191.4875"/></g><!--class WithSnapshot--><g id="elem_WithSnapshot"><rect codeLine="26" fill="#F1F1F1" height="80.5938" id="WithSnapshot" rx="2.5" ry="2.5" style="stroke:#181818;stroke-width:0.5;" width="289.3477" x="460.33" y="110.7469"/><ellipse cx="551.9828" cy="126.7469" fill="#ADD1B2" rx="11" ry="11" style="stroke:#181818;stroke-width:1;"/><path d="M554.9516,132.3875 Q554.3735,132.6844 553.7328,132.825 Q553.0922,132.9813 552.3891,132.9813 Q549.8891,132.9813 548.561,131.3406 Q547.2485,129.6844 547.2485,126.5594 Q547.2485,123.4344 548.561,121.7781 Q549.8891,120.1219 552.3891,120.1219 Q553.0922,120.1219 553.7328,120.2781 Q554.3891,120.4344 554.9516,120.7313 L554.9516,123.45 Q554.3266,122.8719 553.7328,122.6063 Q553.1391,122.325 552.5141,122.325 Q551.1703,122.325 550.4828,123.4031 Q549.7953,124.4656 549.7953,126.5594 Q549.7953,128.6531 550.4828,129.7313 Q551.1703,130.7938 552.5141,130.7938 Q553.1391,130.7938 553.7328,130.5281 Q554.3266,130.2469 554.9516,129.6688 L554.9516,132.3875 Z " fill="#000000"/><text fill="#000000" font-family="sans-serif" font-size="14" lengthAdjust="spacing" textLength="97.542" x="572.4828" y="131.5936">WithSnapshot</text><line style="stroke:#181818;stroke-width:0.5;" x1="461.33" x2="748.6777" y1="142.7469" y2="142.7469"/><text fill="#000000" font-family="sans-serif" font-size="14" lengthAdjust="spacing" textLength="169.627" x="466.33" y="159.742">Path snapshot_directory</text><text fill="#000000" font-family="sans-serif" font-size="14" lengthAdjust="spacing" textLength="277.3477" x="466.33" y="176.0389">list[float] | None snapshot_omegas_deg</text><line style="stroke:#181818;stroke-width:0.5;" x1="461.33" x2="748.6777" y1="183.3406" y2="183.3406"/></g><!--class OptionalGonioAngleStarts--><g id="elem_OptionalGonioAngleStarts"><rect codeLine="30" fill="#F1F1F1" height="113.1875" id="OptionalGonioAngleStarts" rx="2.5" ry="2.5" style="stroke:#181818;stroke-width:0.5;" width="219.3203" x="1192.34" y="94.4469"/><ellipse cx="1210.0633" cy="110.4469" fill="#ADD1B2" rx="11" ry="11" style="stroke:#181818;stroke-width:1;"/><path d="M1213.032,116.0875 Q1212.4539,116.3844 1211.8133,116.525 Q1211.1727,116.6812 1210.4695,116.6812 Q1207.9695,116.6812 1206.6414,115.0406 Q1205.3289,113.3844 1205.3289,110.2594 Q1205.3289,107.1344 1206.6414,105.4781 Q1207.9695,103.8219 1210.4695,103.8219 Q1211.1727,103.8219 1211.8133,103.9781 Q1212.4695,104.1344 1213.032,104.4312 L1213.032,107.15 Q1212.407,106.5719 1211.8133,106.3062 Q1211.2195,106.025 1210.5945,106.025 Q1209.2508,106.025 1208.5633,107.1031 Q1207.8758,108.1656 1207.8758,110.2594 Q1207.8758,112.3531 1208.5633,113.4312 Q1209.2508,114.4937 1210.5945,114.4937 Q1211.2195,114.4937 1211.8133,114.2281 Q1212.407,113.9469 1213.032,113.3687 L1213.032,116.0875 Z " fill="#000000"/><text fill="#000000" font-family="sans-serif" font-size="14" lengthAdjust="spacing" textLength="181.2686" x="1224.6685" y="115.2936">OptionalGonioAngleStarts</text><line style="stroke:#181818;stroke-width:0.5;" x1="1193.34" x2="1410.6603" y1="126.4469" y2="126.4469"/><text fill="#000000" font-family="sans-serif" font-size="14" lengthAdjust="spacing" textLength="207.3203" x="1198.34" y="143.442">float | None omega_start_deg</text><text fill="#000000" font-family="sans-serif" font-size="14" lengthAdjust="spacing" textLength="180.6875" x="1198.34" y="159.7389">float | None phi_start_deg</text><text fill="#000000" font-family="sans-serif" font-size="14" lengthAdjust="spacing" textLength="179.498" x="1198.34" y="176.0357">float | None chi_start_deg</text><text fill="#000000" font-family="sans-serif" font-size="14" lengthAdjust="spacing" textLength="202.0771" x="1198.34" y="192.3326">float | None kappa_start_deg</text><line style="stroke:#181818;stroke-width:0.5;" x1="1193.34" x2="1410.6603" y1="199.6344" y2="199.6344"/></g><!--class WithVisit--><g id="elem_WithVisit"><rect codeLine="36" fill="#F1F1F1" height="129.4844" id="WithVisit" rx="2.5" ry="2.5" style="stroke:#181818;stroke-width:0.5;" width="271.7861" x="2002.11" y="86.2969"/><ellipse cx="2102.6359" cy="102.2969" fill="#ADD1B2" rx="11" ry="11" style="stroke:#181818;stroke-width:1;"/><path d="M2105.6046,107.9375 Q2105.0265,108.2344 2104.3859,108.375 Q2103.7453,108.5313 2103.0421,108.5313 Q2100.5421,108.5313 2099.214,106.8906 Q2097.9015,105.2344 2097.9015,102.1094 Q2097.9015,98.9844 2099.214,97.3281 Q2100.5421,95.6719 2103.0421,95.6719 Q2103.7453,95.6719 2104.3859,95.8281 Q2105.0421,95.9844 2105.6046,96.2813 L2105.6046,99 Q2104.9796,98.4219 2104.3859,98.1563 Q2103.7921,97.875 2103.1671,97.875 Q2101.8234,97.875 2101.1359,98.9531 Q2100.4484,100.0156 2100.4484,102.1094 Q2100.4484,104.2031 2101.1359,105.2813 Q2101.8234,106.3438 2103.1671,106.3438 Q2103.7921,106.3438 2104.3859,106.0781 Q2104.9796,105.7969 2105.6046,105.2188 L2105.6046,107.9375 Z " fill="#000000"/><text fill="#000000" font-family="sans-serif" font-size="14" lengthAdjust="spacing" textLength="62.2344" x="2123.1359" y="107.1436">WithVisit</text><line style="stroke:#181818;stroke-width:0.5;" x1="2003.11" x2="2272.8961" y1="118.2969" y2="118.2969"/><text fill="#000000" font-family="sans-serif" font-size="14" lengthAdjust="spacing" textLength="87.9717" x="2008.11" y="135.292">str beamline</text><text fill="#000000" font-family="sans-serif" font-size="14" lengthAdjust="spacing" textLength="51.8369" x="2008.11" y="151.5889">str visit</text><text fill="#000000" font-family="sans-serif" font-size="14" lengthAdjust="spacing" textLength="259.7861" x="2008.11" y="167.8857">str det_dist_to_beam_converter_path</text><text fill="#000000" font-family="sans-serif" font-size="14" lengthAdjust="spacing" textLength="131.5918" x="2008.11" y="184.1826">str insertion_prefix</text><text fill="#000000" font-family="sans-serif" font-size="14" lengthAdjust="spacing" textLength="245.752" x="2008.11" y="200.4795">float | None detector_distance_mm</text><line style="stroke:#181818;stroke-width:0.5;" x1="2003.11" x2="2272.8961" y1="207.7813" y2="207.7813"/></g><!--class WithSample--><g id="elem_WithSample"><rect codeLine="43" fill="#F1F1F1" height="96.8906" id="WithSample" rx="2.5" ry="2.5" style="stroke:#181818;stroke-width:0.5;" width="176.3086" x="1579.85" y="102.5969"/><ellipse cx="1621.7243" cy="118.5969" fill="#ADD1B2" rx="11" ry="11" style="stroke:#181818;stroke-width:1;"/><path d="M1624.6931,124.2375 Q1624.1149,124.5344 1623.4743,124.675 Q1622.8337,124.8312 1622.1306,124.8312 Q1619.6306,124.8312 1618.3024,123.1906 Q1616.9899,121.5344 1616.9899,118.4094 Q1616.9899,115.2844 1618.3024,113.6281 Q1619.6306,111.9719 1622.1306,111.9719 Q1622.8337,111.9719 1623.4743,112.1281 Q1624.1306,112.2844 1624.6931,112.5812 L1624.6931,115.3 Q1624.0681,114.7219 1623.4743,114.4562 Q1622.8806,114.175 1622.2556,114.175 Q1620.9118,114.175 1620.2243,115.2531 Q1619.5368,116.3156 1619.5368,118.4094 Q1619.5368,120.5031 1620.2243,121.5812 Q1620.9118,122.6437 1622.2556,122.6437 Q1622.8806,122.6437 1623.4743,122.3781 Q1624.0681,122.0969 1624.6931,121.5187 L1624.6931,124.2375 Z " fill="#000000"/><text fill="#000000" font-family="sans-serif" font-size="14" lengthAdjust="spacing" textLength="84.5879" x="1641.6964" y="123.4436">WithSample</text><line style="stroke:#181818;stroke-width:0.5;" x1="1580.85" x2="1755.1586" y1="134.5969" y2="134.5969"/><text fill="#000000" font-family="sans-serif" font-size="14" lengthAdjust="spacing" textLength="93.3789" x="1585.85" y="151.592">int sample_id</text><text fill="#000000" font-family="sans-serif" font-size="14" lengthAdjust="spacing" textLength="164.3086" x="1585.85" y="167.8889">int | None sample_puck</text><text fill="#000000" font-family="sans-serif" font-size="14" lengthAdjust="spacing" textLength="152.3936" x="1585.85" y="184.1857">int | None sample_pin</text><line style="stroke:#181818;stroke-width:0.5;" x1="1580.85" x2="1755.1586" y1="191.4875" y2="191.4875"/></g><!--class SpecifiedGrid--><g id="elem_SpecifiedGrid"><rect codeLine="48" fill="#F1F1F1" height="48" id="SpecifiedGrid" rx="2.5" ry="2.5" style="stroke:#181818;stroke-width:0.5;" width="125.6729" x="1433.16" y="357.2669"/><ellipse cx="1448.16" cy="373.2669" fill="#ADD1B2" rx="11" ry="11" style="stroke:#181818;stroke-width:1;"/><path d="M1451.1288,378.9075 Q1450.5506,379.2044 1449.91,379.345 Q1449.2694,379.5012 1448.5663,379.5012 Q1446.0663,379.5012 1444.7381,377.8606 Q1443.4256,376.2044 1443.4256,373.0794 Q1443.4256,369.9544 1444.7381,368.2981 Q1446.0663,366.6419 1448.5663,366.6419 Q1449.2694,366.6419 1449.91,366.7981 Q1450.5663,366.9544 1451.1288,367.2512 L1451.1288,369.97 Q1450.5038,369.3919 1449.91,369.1262 Q1449.3163,368.845 1448.6913,368.845 Q1447.3475,368.845 1446.66,369.9231 Q1445.9725,370.9856 1445.9725,373.0794 Q1445.9725,375.1731 1446.66,376.2512 Q1447.3475,377.3137 1448.6913,377.3137 Q1449.3163,377.3137 1449.91,377.0481 Q1450.5038,376.7669 1451.1288,376.1887 L1451.1288,378.9075 Z " fill="#000000"/><text fill="#000000" font-family="sans-serif" font-size="14" lengthAdjust="spacing" textLength="93.6729" x="1462.16" y="378.1136">SpecifiedGrid</text><line style="stroke:#181818;stroke-width:0.5;" x1="1434.16" x2="1557.8329" y1="389.2669" y2="389.2669"/><line style="stroke:#181818;stroke-width:0.5;" x1="1434.16" x2="1557.8329" y1="397.2669" y2="397.2669"/></g><!--class SplitScan--><g id="elem_SplitScan"><rect codeLine="50" fill="#F1F1F1" height="48" id="SplitScan" rx="2.5" ry="2.5" style="stroke:#181818;stroke-width:0.5;" width="97.0781" x="1060.46" y="127.0469"/><ellipse cx="1075.46" cy="143.0469" fill="#ADD1B2" rx="11" ry="11" style="stroke:#181818;stroke-width:1;"/><path d="M1078.4288,148.6875 Q1077.8506,148.9844 1077.21,149.125 Q1076.5694,149.2813 1075.8663,149.2813 Q1073.3663,149.2813 1072.0381,147.6406 Q1070.7256,145.9844 1070.7256,142.8594 Q1070.7256,139.7344 1072.0381,138.0781 Q1073.3663,136.4219 1075.8663,136.4219 Q1076.5694,136.4219 1077.21,136.5781 Q1077.8663,136.7344 1078.4288,137.0313 L1078.4288,139.75 Q1077.8038,139.1719 1077.21,138.9063 Q1076.6163,138.625 1075.9913,138.625 Q1074.6475,138.625 1073.96,139.7031 Q1073.2725,140.7656 1073.2725,142.8594 Q1073.2725,144.9531 1073.96,146.0313 Q1074.6475,147.0938 1075.9913,147.0938 Q1076.6163,147.0938 1077.21,146.8281 Q1077.8038,146.5469 1078.4288,145.9688 L1078.4288,148.6875 Z " fill="#000000"/><text fill="#000000" font-family="sans-serif" font-size="14" lengthAdjust="spacing" textLength="65.0781" x="1089.46" y="147.8936">SplitScan</text><line style="stroke:#181818;stroke-width:0.5;" x1="1061.46" x2="1156.5381" y1="159.0469" y2="159.0469"/><line style="stroke:#181818;stroke-width:0.5;" x1="1061.46" x2="1156.5381" y1="167.0469" y2="167.0469"/></g><!--class WithOptionalEnergyChange--><g id="elem_WithOptionalEnergyChange"><rect codeLine="52" fill="#F1F1F1" height="64.2969" id="WithOptionalEnergyChange" rx="2.5" ry="2.5" style="stroke:#181818;stroke-width:0.5;" width="235.4463" x="190.28" y="118.8969"/><ellipse cx="209.4645" cy="134.8969" fill="#ADD1B2" rx="11" ry="11" style="stroke:#181818;stroke-width:1;"/><path d="M212.4332,140.5375 Q211.8551,140.8344 211.2145,140.975 Q210.5738,141.1312 209.8707,141.1312 Q207.3707,141.1312 206.0426,139.4906 Q204.7301,137.8344 204.7301,134.7094 Q204.7301,131.5844 206.0426,129.9281 Q207.3707,128.2719 209.8707,128.2719 Q210.5738,128.2719 211.2145,128.4281 Q211.8707,128.5844 212.4332,128.8812 L212.4332,131.6 Q211.8082,131.0219 211.2145,130.7562 Q210.6207,130.475 209.9957,130.475 Q208.652,130.475 207.9645,131.5531 Q207.277,132.6156 207.277,134.7094 Q207.277,136.8031 207.9645,137.8812 Q208.652,138.9437 209.9957,138.9437 Q210.6207,138.9437 211.2145,138.6781 Q211.8082,138.3969 212.4332,137.8187 L212.4332,140.5375 Z " fill="#000000"/><text fill="#000000" font-family="sans-serif" font-size="14" lengthAdjust="spacing" textLength="194.1475" x="224.3944" y="139.7436">WithOptionalEnergyChange</text><line style="stroke:#181818;stroke-width:0.5;" x1="191.28" x2="424.7263" y1="150.8969" y2="150.8969"/><text fill="#000000" font-family="sans-serif" font-size="14" lengthAdjust="spacing" textLength="223.4463" x="196.28" y="167.892">float | None demand_energy_ev</text><line style="stroke:#181818;stroke-width:0.5;" x1="191.28" x2="424.7263" y1="175.1937" y2="175.1937"/></g><!--class DiffractionExperimentWithSample--><g id="elem_DiffractionExperimentWithSample"><rect codeLine="57" fill="#F1F1F1" height="48" id="DiffractionExperimentWithSample" rx="2.5" ry="2.5" style="stroke:#181818;stroke-width:0.5;" width="270.8545" x="2669.57" y="546.7569"/><ellipse cx="2684.57" cy="562.7569" fill="#ADD1B2" rx="11" ry="11" style="stroke:#181818;stroke-width:1;"/><path d="M2687.5388,568.3975 Q2686.9606,568.6944 2686.32,568.835 Q2685.6794,568.9912 2684.9763,568.9912 Q2682.4763,568.9912 2681.1481,567.3506 Q2679.8356,565.6944 2679.8356,562.5694 Q2679.8356,559.4444 2681.1481,557.7881 Q2682.4763,556.1319 2684.9763,556.1319 Q2685.6794,556.1319 2686.32,556.2881 Q2686.9763,556.4444 2687.5388,556.7412 L2687.5388,559.46 Q2686.9138,558.8819 2686.32,558.6162 Q2685.7263,558.335 2685.1013,558.335 Q2683.7575,558.335 2683.07,559.4131 Q2682.3825,560.4756 2682.3825,562.5694 Q2682.3825,564.6631 2683.07,565.7412 Q2683.7575,566.8037 2685.1013,566.8037 Q2685.7263,566.8037 2686.32,566.5381 Q2686.9138,566.2569 2687.5388,565.6787 L2687.5388,568.3975 Z " fill="#000000"/><text fill="#000000" font-family="sans-serif" font-size="14" lengthAdjust="spacing" textLength="238.8545" x="2698.57" y="567.6036">DiffractionExperimentWithSample</text><line style="stroke:#181818;stroke-width:0.5;" x1="2670.57" x2="2939.4245" y1="578.7569" y2="578.7569"/><line style="stroke:#181818;stroke-width:0.5;" x1="2670.57" x2="2939.4245" y1="586.7569" y2="586.7569"/></g><!--class GridCommon--><g id="elem_GridCommon"><rect codeLine="59" fill="#F1F1F1" height="145.7813" id="GridCommon" rx="2.5" ry="2.5" style="stroke:#181818;stroke-width:0.5;" width="332.332" x="2638.83" y="654.7569"/><ellipse cx="2754.5282" cy="670.7569" fill="#ADD1B2" rx="11" ry="11" style="stroke:#181818;stroke-width:1;"/><path d="M2757.497,676.3975 Q2756.9189,676.6944 2756.2782,676.835 Q2755.6376,676.9912 2754.9345,676.9912 Q2752.4345,676.9912 2751.1064,675.3506 Q2749.7939,673.6944 2749.7939,670.5694 Q2749.7939,667.4444 2751.1064,665.7881 Q2752.4345,664.1319 2754.9345,664.1319 Q2755.6376,664.1319 2756.2782,664.2881 Q2756.9345,664.4444 2757.497,664.7412 L2757.497,667.46 Q2756.872,666.8819 2756.2782,666.6162 Q2755.6845,666.335 2755.0595,666.335 Q2753.7157,666.335 2753.0282,667.4131 Q2752.3407,668.4756 2752.3407,670.5694 Q2752.3407,672.6631 2753.0282,673.7412 Q2753.7157,674.8037 2755.0595,674.8037 Q2755.6845,674.8037 2756.2782,674.5381 Q2756.872,674.2569 2757.497,673.6787 L2757.497,676.3975 Z " fill="#000000"/><text fill="#000000" font-family="sans-serif" font-size="14" lengthAdjust="spacing" textLength="92.4355" x="2775.0282" y="675.6036">GridCommon</text><line style="stroke:#181818;stroke-width:0.5;" x1="2639.83" x2="2970.162" y1="686.7569" y2="686.7569"/><text fill="#000000" font-family="sans-serif" font-size="14" lengthAdjust="spacing" textLength="125.2959" x="2644.83" y="703.752">float box_size_um</text><text fill="#000000" font-family="sans-serif" font-size="14" lengthAdjust="spacing" textLength="138.4209" x="2644.83" y="720.0489">float grid_width_um</text><text fill="#000000" font-family="sans-serif" font-size="14" lengthAdjust="spacing" textLength="153.7129" x="2644.83" y="736.3457">float exposure_time_s</text><text fill="#000000" font-family="sans-serif" font-size="14" lengthAdjust="spacing" textLength="320.332" x="2644.83" y="752.6426">IspybExperimentType ispyb_experiment_type</text><text fill="#000000" font-family="sans-serif" font-size="14" lengthAdjust="spacing" textLength="282.3516" x="2644.83" y="768.9395">ApertureValue | None selected_aperture</text><text fill="#000000" font-family="sans-serif" font-size="14" lengthAdjust="spacing" textLength="130.498" x="2644.83" y="785.2364">float tip_offset_um</text><line style="stroke:#181818;stroke-width:0.5;" x1="2639.83" x2="2970.162" y1="792.5381" y2="792.5381"/></g><!--class DiffractionExperiment--><g id="elem_DiffractionExperiment"><rect codeLine="67" fill="#F1F1F1" height="210.9688" id="DiffractionExperiment" rx="2.5" ry="2.5" style="stroke:#181818;stroke-width:0.5;" width="332.332" x="2638.83" y="275.7869"/><ellipse cx="2723.6127" cy="291.7869" fill="#ADD1B2" rx="11" ry="11" style="stroke:#181818;stroke-width:1;"/><path d="M2726.5815,297.4275 Q2726.0033,297.7244 2725.3627,297.865 Q2724.7221,298.0213 2724.019,298.0213 Q2721.519,298.0213 2720.1908,296.3806 Q2718.8783,294.7244 2718.8783,291.5994 Q2718.8783,288.4744 2720.1908,286.8181 Q2721.519,285.1619 2724.019,285.1619 Q2724.7221,285.1619 2725.3627,285.3181 Q2726.019,285.4744 2726.5815,285.7713 L2726.5815,288.49 Q2725.9565,287.9119 2725.3627,287.6463 Q2724.769,287.365 2724.144,287.365 Q2722.8002,287.365 2722.1127,288.4431 Q2721.4252,289.5056 2721.4252,291.5994 Q2721.4252,293.6931 2722.1127,294.7713 Q2722.8002,295.8338 2724.144,295.8338 Q2724.769,295.8338 2725.3627,295.5681 Q2725.9565,295.2869 2726.5815,294.7088 L2726.5815,297.4275 Z " fill="#000000"/><text fill="#000000" font-family="sans-serif" font-size="14" lengthAdjust="spacing" textLength="154.2666" x="2744.1127" y="296.6336">DiffractionExperiment</text><line style="stroke:#181818;stroke-width:0.5;" x1="2639.83" x2="2970.162" y1="307.7869" y2="307.7869"/><text fill="#000000" font-family="sans-serif" font-size="14" lengthAdjust="spacing" textLength="91.0137" x="2644.83" y="324.782">str file_name</text><text fill="#000000" font-family="sans-serif" font-size="14" lengthAdjust="spacing" textLength="153.7129" x="2644.83" y="341.0789">float exposure_time_s</text><text fill="#000000" font-family="sans-serif" font-size="14" lengthAdjust="spacing" textLength="89.5029" x="2644.83" y="357.3757">str comment</text><text fill="#000000" font-family="sans-serif" font-size="14" lengthAdjust="spacing" textLength="186.915" x="2644.83" y="373.6726">TriggerMode trigger_mode</text><text fill="#000000" font-family="sans-serif" font-size="14" lengthAdjust="spacing" textLength="157.9854" x="2644.83" y="389.9695">int | None run_number</text><text fill="#000000" font-family="sans-serif" font-size="14" lengthAdjust="spacing" textLength="282.3516" x="2644.83" y="406.2664">ApertureValue | None selected_aperture</text><text fill="#000000" font-family="sans-serif" font-size="14" lengthAdjust="spacing" textLength="159.2979" x="2644.83" y="422.5632">float transmission_frac</text><text fill="#000000" font-family="sans-serif" font-size="14" lengthAdjust="spacing" textLength="320.332" x="2644.83" y="438.8601">IspybExperimentType ispyb_experiment_type</text><text fill="#000000" font-family="sans-serif" font-size="14" lengthAdjust="spacing" textLength="146.1113" x="2644.83" y="455.157">str storage_directory</text><text fill="#000000" font-family="sans-serif" font-size="14" lengthAdjust="spacing" textLength="131.0518" x="2644.83" y="471.4539">bool use_roi_mode</text><line style="stroke:#181818;stroke-width:0.5;" x1="2639.83" x2="2970.162" y1="478.7556" y2="478.7556"/></g><!--class MxBlueskyParameters--><g id="elem_MxBlueskyParameters"><rect codeLine="79" fill="#F1F1F1" height="64.2969" id="MxBlueskyParameters" rx="2.5" ry="2.5" style="stroke:#181818;stroke-width:0.5;" width="317.4639" x="2651.27" y="118.8969"/><ellipse cx="2727.8564" cy="134.8969" fill="#ADD1B2" rx="11" ry="11" style="stroke:#181818;stroke-width:1;"/><path d="M2730.8252,140.5375 Q2730.2471,140.8344 2729.6064,140.975 Q2728.9658,141.1312 2728.2627,141.1312 Q2725.7627,141.1312 2724.4346,139.4906 Q2723.1221,137.8344 2723.1221,134.7094 Q2723.1221,131.5844 2724.4346,129.9281 Q2725.7627,128.2719 2728.2627,128.2719 Q2728.9658,128.2719 2729.6064,128.4281 Q2730.2627,128.5844 2730.8252,128.8812 L2730.8252,131.6 Q2730.2002,131.0219 2729.6064,130.7562 Q2729.0127,130.475 2728.3877,130.475 Q2727.0439,130.475 2726.3564,131.5531 Q2725.6689,132.6156 2725.6689,134.7094 Q2725.6689,136.8031 2726.3564,137.8812 Q2727.0439,138.9437 2728.3877,138.9437 Q2729.0127,138.9437 2729.6064,138.6781 Q2730.2002,138.3969 2730.8252,137.8187 L2730.8252,140.5375 Z " fill="#000000"/><text fill="#000000" font-family="sans-serif" font-size="14" lengthAdjust="spacing" textLength="155.791" x="2748.3564" y="139.7436">MxBlueskyParameters</text><line style="stroke:#181818;stroke-width:0.5;" x1="2652.27" x2="2967.7339" y1="150.8969" y2="150.8969"/><text fill="#000000" font-family="sans-serif" font-size="14" lengthAdjust="spacing" textLength="305.4639" x="2657.27" y="167.892">SemanticVersion parameter_model_version</text><line style="stroke:#181818;stroke-width:0.5;" x1="2652.27" x2="2967.7339" y1="175.1937" y2="175.1937"/></g><!--class SpecifiedThreeDGridScan--><g id="elem_SpecifiedThreeDGridScan"><rect codeLine="82" fill="#F1F1F1" height="227.2656" id="SpecifiedThreeDGridScan" rx="2.5" ry="2.5" style="stroke:#181818;stroke-width:0.5;" width="210.8965" x="2638.55" y="860.5369"/><ellipse cx="2653.55" cy="876.5369" fill="#ADD1B2" rx="11" ry="11" style="stroke:#181818;stroke-width:1;"/><path d="M2656.5188,882.1775 Q2655.9406,882.4744 2655.3,882.615 Q2654.6594,882.7713 2653.9563,882.7713 Q2651.4563,882.7713 2650.1281,881.1306 Q2648.8156,879.4744 2648.8156,876.3494 Q2648.8156,873.2244 2650.1281,871.5681 Q2651.4563,869.9119 2653.9563,869.9119 Q2654.6594,869.9119 2655.3,870.0681 Q2655.9563,870.2244 2656.5188,870.5213 L2656.5188,873.24 Q2655.8938,872.6619 2655.3,872.3963 Q2654.7063,872.115 2654.0813,872.115 Q2652.7375,872.115 2652.05,873.1931 Q2651.3625,874.2556 2651.3625,876.3494 Q2651.3625,878.4431 2652.05,879.5213 Q2652.7375,880.5838 2654.0813,880.5838 Q2654.7063,880.5838 2655.3,880.3181 Q2655.8938,880.0369 2656.5188,879.4588 L2656.5188,882.1775 Z " fill="#000000"/><text fill="#000000" font-family="sans-serif" font-size="14" lengthAdjust="spacing" textLength="178.8965" x="2667.55" y="881.3836">SpecifiedThreeDGridScan</text><line style="stroke:#181818;stroke-width:0.5;" x1="2639.55" x2="2848.4465" y1="892.5369" y2="892.5369"/><text fill="#000000" font-family="sans-serif" font-size="14" lengthAdjust="spacing" textLength="160.8975" x="2644.55" y="909.532">float grid1_omega_deg</text><text fill="#000000" font-family="sans-serif" font-size="14" lengthAdjust="spacing" textLength="160.8975" x="2644.55" y="925.8289">float grid2_omega_deg</text><text fill="#000000" font-family="sans-serif" font-size="14" lengthAdjust="spacing" textLength="145.127" x="2644.55" y="942.1257">float x_step_size_um</text><text fill="#000000" font-family="sans-serif" font-size="14" lengthAdjust="spacing" textLength="145.127" x="2644.55" y="958.4226">float y_step_size_um</text><text fill="#000000" font-family="sans-serif" font-size="14" lengthAdjust="spacing" textLength="144.1904" x="2644.55" y="974.7195">float z_step_size_um</text><text fill="#000000" font-family="sans-serif" font-size="14" lengthAdjust="spacing" textLength="122.2129" x="2644.55" y="991.0164">float y2_start_um</text><text fill="#000000" font-family="sans-serif" font-size="14" lengthAdjust="spacing" textLength="121.2764" x="2644.55" y="1007.3132">float z2_start_um</text><text fill="#000000" font-family="sans-serif" font-size="14" lengthAdjust="spacing" textLength="75.5645" x="2644.55" y="1023.6101">int x_steps</text><text fill="#000000" font-family="sans-serif" font-size="14" lengthAdjust="spacing" textLength="75.5645" x="2644.55" y="1039.907">int y_steps</text><text fill="#000000" font-family="sans-serif" font-size="14" lengthAdjust="spacing" textLength="74.6279" x="2644.55" y="1056.2039">int z_steps</text><text fill="#000000" font-family="sans-serif" font-size="14" lengthAdjust="spacing" textLength="154.4102" x="2644.55" y="1072.5007">bool _set_stub_offsets</text><line style="stroke:#181818;stroke-width:0.5;" x1="2639.55" x2="2848.4465" y1="1079.8025" y2="1079.8025"/></g><!--class PinTipCentreThenXrayCentre--><g id="elem_PinTipCentreThenXrayCentre"><rect codeLine="98" fill="#F1F1F1" height="64.2969" id="PinTipCentreThenXrayCentre" rx="2.5" ry="2.5" style="stroke:#181818;stroke-width:0.5;" width="235.8955" x="3035.05" y="1147.7969"/><ellipse cx="3050.05" cy="1163.7969" fill="#ADD1B2" rx="11" ry="11" style="stroke:#181818;stroke-width:1;"/><path d="M3053.0188,1169.4375 Q3052.4406,1169.7344 3051.8,1169.875 Q3051.1594,1170.0313 3050.4563,1170.0313 Q3047.9563,1170.0313 3046.6281,1168.3906 Q3045.3156,1166.7344 3045.3156,1163.6094 Q3045.3156,1160.4844 3046.6281,1158.8281 Q3047.9563,1157.1719 3050.4563,1157.1719 Q3051.1594,1157.1719 3051.8,1157.3281 Q3052.4563,1157.4844 3053.0188,1157.7813 L3053.0188,1160.5 Q3052.3938,1159.9219 3051.8,1159.6563 Q3051.2063,1159.375 3050.5813,1159.375 Q3049.2375,1159.375 3048.55,1160.4531 Q3047.8625,1161.5156 3047.8625,1163.6094 Q3047.8625,1165.7031 3048.55,1166.7813 Q3049.2375,1167.8438 3050.5813,1167.8438 Q3051.2063,1167.8438 3051.8,1167.5781 Q3052.3938,1167.2969 3053.0188,1166.7188 L3053.0188,1169.4375 Z " fill="#000000"/><text fill="#000000" font-family="sans-serif" font-size="14" lengthAdjust="spacing" textLength="203.8955" x="3064.05" y="1168.6436">PinTipCentreThenXrayCentre</text><line style="stroke:#181818;stroke-width:0.5;" x1="3036.05" x2="3269.9455" y1="1179.7969" y2="1179.7969"/><text fill="#000000" font-family="sans-serif" font-size="14" lengthAdjust="spacing" textLength="130.498" x="3041.05" y="1196.792">float tip_offset_um</text><line style="stroke:#181818;stroke-width:0.5;" x1="3036.05" x2="3269.9455" y1="1204.0938" y2="1204.0938"/></g><!--class MultiRotationScan--><g id="elem_MultiRotationScan"><rect codeLine="101" fill="#F1F1F1" height="64.2969" id="MultiRotationScan" rx="2.5" ry="2.5" style="stroke:#181818;stroke-width:0.5;" width="540.001" x="3798" y="1147.7969"/><ellipse cx="4000.0327" cy="1163.7969" fill="#ADD1B2" rx="11" ry="11" style="stroke:#181818;stroke-width:1;"/><path d="M4003.0015,1169.4375 Q4002.4233,1169.7344 4001.7827,1169.875 Q4001.1421,1170.0313 4000.439,1170.0313 Q3997.939,1170.0313 3996.6108,1168.3906 Q3995.2983,1166.7344 3995.2983,1163.6094 Q3995.2983,1160.4844 3996.6108,1158.8281 Q3997.939,1157.1719 4000.439,1157.1719 Q4001.1421,1157.1719 4001.7827,1157.3281 Q4002.439,1157.4844 4003.0015,1157.7813 L4003.0015,1160.5 Q4002.3765,1159.9219 4001.7827,1159.6563 Q4001.189,1159.375 4000.564,1159.375 Q3999.2202,1159.375 3998.5327,1160.4531 Q3997.8452,1161.5156 3997.8452,1163.6094 Q3997.8452,1165.7031 3998.5327,1166.7813 Q3999.2202,1167.8438 4000.564,1167.8438 Q4001.189,1167.8438 4001.7827,1167.5781 Q4002.3765,1167.2969 4003.0015,1166.7188 L4003.0015,1169.4375 Z " fill="#000000"/><text fill="#000000" font-family="sans-serif" font-size="14" lengthAdjust="spacing" textLength="127.4355" x="4020.5327" y="1168.6436">MultiRotationScan</text><line style="stroke:#181818;stroke-width:0.5;" x1="3799" x2="4337.001" y1="1179.7969" y2="1179.7969"/><line style="stroke:#181818;stroke-width:0.5;" x1="3799" x2="4337.001" y1="1187.7969" y2="1187.7969"/><text fill="#000000" font-family="sans-serif" font-size="14" lengthAdjust="spacing" textLength="528.001" x="3804" y="1204.792">Annotated[list[RotationScanPerSweep], Len(min_length=1)] rotation_scans</text></g><!--class WithHyperionUDCFeatures--><g id="elem_WithHyperionUDCFeatures"><rect codeLine="104" fill="#F1F1F1" height="64.2969" id="WithHyperionUDCFeatures" rx="2.5" ry="2.5" style="stroke:#181818;stroke-width:0.5;" width="228.6719" x="3345.66" y="695.4969"/><ellipse cx="3364.7583" cy="711.4969" fill="#ADD1B2" rx="11" ry="11" style="stroke:#181818;stroke-width:1;"/><path d="M3367.7271,717.1375 Q3367.149,717.4344 3366.5083,717.575 Q3365.8677,717.7312 3365.1646,717.7312 Q3362.6646,717.7312 3361.3365,716.0906 Q3360.024,714.4344 3360.024,711.3094 Q3360.024,708.1844 3361.3365,706.5281 Q3362.6646,704.8719 3365.1646,704.8719 Q3365.8677,704.8719 3366.5083,705.0281 Q3367.1646,705.1844 3367.7271,705.4812 L3367.7271,708.2 Q3367.1021,707.6219 3366.5083,707.3562 Q3365.9146,707.075 3365.2896,707.075 Q3363.9458,707.075 3363.2583,708.1531 Q3362.5708,709.2156 3362.5708,711.3094 Q3362.5708,713.4031 3363.2583,714.4812 Q3363.9458,715.5437 3365.2896,715.5437 Q3365.9146,715.5437 3366.5083,715.2781 Q3367.1021,714.9969 3367.7271,714.4187 L3367.7271,717.1375 Z " fill="#000000"/><text fill="#000000" font-family="sans-serif" font-size="14" lengthAdjust="spacing" textLength="187.5645" x="3379.6691" y="716.3436">WithHyperionUDCFeatures</text><line style="stroke:#181818;stroke-width:0.5;" x1="3346.66" x2="3573.3319" y1="727.4969" y2="727.4969"/><text fill="#000000" font-family="sans-serif" font-size="14" lengthAdjust="spacing" textLength="216.6719" x="3351.66" y="744.492">HyperionFeatureFlags features</text><line style="stroke:#181818;stroke-width:0.5;" x1="3346.66" x2="3573.3319" y1="751.7937" y2="751.7937"/></g><!--class HyperionSpecifiedThreeDGridScan--><g id="elem_HyperionSpecifiedThreeDGridScan"><rect codeLine="107" fill="#F1F1F1" height="48" id="HyperionSpecifiedThreeDGridScan" rx="2.5" ry="2.5" style="stroke:#181818;stroke-width:0.5;" width="274.293" x="3881.85" y="950.1669"/><ellipse cx="3896.85" cy="966.1669" fill="#ADD1B2" rx="11" ry="11" style="stroke:#181818;stroke-width:1;"/><path d="M3899.8188,971.8075 Q3899.2406,972.1044 3898.6,972.245 Q3897.9594,972.4012 3897.2563,972.4012 Q3894.7563,972.4012 3893.4281,970.7606 Q3892.1156,969.1044 3892.1156,965.9794 Q3892.1156,962.8544 3893.4281,961.1981 Q3894.7563,959.5419 3897.2563,959.5419 Q3897.9594,959.5419 3898.6,959.6981 Q3899.2563,959.8544 3899.8188,960.1512 L3899.8188,962.87 Q3899.1938,962.2919 3898.6,962.0262 Q3898.0063,961.745 3897.3813,961.745 Q3896.0375,961.745 3895.35,962.8231 Q3894.6625,963.8856 3894.6625,965.9794 Q3894.6625,968.0731 3895.35,969.1512 Q3896.0375,970.2137 3897.3813,970.2137 Q3898.0063,970.2137 3898.6,969.9481 Q3899.1938,969.6669 3899.8188,969.0887 L3899.8188,971.8075 Z " fill="#000000"/><text fill="#000000" font-family="sans-serif" font-size="14" lengthAdjust="spacing" textLength="242.293" x="3910.85" y="971.0136">HyperionSpecifiedThreeDGridScan</text><line style="stroke:#181818;stroke-width:0.5;" x1="3882.85" x2="4155.143" y1="982.1669" y2="982.1669"/><line style="stroke:#181818;stroke-width:0.5;" x1="3882.85" x2="4155.143" y1="990.1669" y2="990.1669"/></g><!--class GridScanWithEdgeDetect--><g id="elem_GridScanWithEdgeDetect"><rect codeLine="109" fill="#F1F1F1" height="48" id="GridScanWithEdgeDetect" rx="2.5" ry="2.5" style="stroke:#181818;stroke-width:0.5;" width="209.4268" x="3306.29" y="1155.9469"/><ellipse cx="3321.29" cy="1171.9469" fill="#ADD1B2" rx="11" ry="11" style="stroke:#181818;stroke-width:1;"/><path d="M3324.2588,1177.5875 Q3323.6806,1177.8844 3323.04,1178.025 Q3322.3994,1178.1812 3321.6963,1178.1812 Q3319.1963,1178.1812 3317.8681,1176.5406 Q3316.5556,1174.8844 3316.5556,1171.7594 Q3316.5556,1168.6344 3317.8681,1166.9781 Q3319.1963,1165.3219 3321.6963,1165.3219 Q3322.3994,1165.3219 3323.04,1165.4781 Q3323.6963,1165.6344 3324.2588,1165.9312 L3324.2588,1168.65 Q3323.6338,1168.0719 3323.04,1167.8062 Q3322.4463,1167.525 3321.8213,1167.525 Q3320.4775,1167.525 3319.79,1168.6031 Q3319.1025,1169.6656 3319.1025,1171.7594 Q3319.1025,1173.8531 3319.79,1174.9312 Q3320.4775,1175.9937 3321.8213,1175.9937 Q3322.4463,1175.9937 3323.04,1175.7281 Q3323.6338,1175.4469 3324.2588,1174.8687 L3324.2588,1177.5875 Z " fill="#000000"/><text fill="#000000" font-family="sans-serif" font-size="14" lengthAdjust="spacing" textLength="177.4268" x="3335.29" y="1176.7936">GridScanWithEdgeDetect</text><line style="stroke:#181818;stroke-width:0.5;" x1="3307.29" x2="3514.7168" y1="1187.9469" y2="1187.9469"/><line style="stroke:#181818;stroke-width:0.5;" x1="3307.29" x2="3514.7168" y1="1195.9469" y2="1195.9469"/></g><!--class RobotLoadThenCentre--><g id="elem_RobotLoadThenCentre"><rect codeLine="111" fill="#F1F1F1" height="64.2969" id="RobotLoadThenCentre" rx="2.5" ry="2.5" style="stroke:#181818;stroke-width:0.5;" width="212.9355" x="3550.53" y="1147.7969"/><ellipse cx="3576.2575" cy="1163.7969" fill="#ADD1B2" rx="11" ry="11" style="stroke:#181818;stroke-width:1;"/><path d="M3579.2262,1169.4375 Q3578.6481,1169.7344 3578.0075,1169.875 Q3577.3669,1170.0313 3576.6637,1170.0313 Q3574.1637,1170.0313 3572.8356,1168.3906 Q3571.5231,1166.7344 3571.5231,1163.6094 Q3571.5231,1160.4844 3572.8356,1158.8281 Q3574.1637,1157.1719 3576.6637,1157.1719 Q3577.3669,1157.1719 3578.0075,1157.3281 Q3578.6637,1157.4844 3579.2262,1157.7813 L3579.2262,1160.5 Q3578.6012,1159.9219 3578.0075,1159.6563 Q3577.4137,1159.375 3576.7887,1159.375 Q3575.445,1159.375 3574.7575,1160.4531 Q3574.07,1161.5156 3574.07,1163.6094 Q3574.07,1165.7031 3574.7575,1166.7813 Q3575.445,1167.8438 3576.7887,1167.8438 Q3577.4137,1167.8438 3578.0075,1167.5781 Q3578.6012,1167.2969 3579.2262,1166.7188 L3579.2262,1169.4375 Z " fill="#000000"/><text fill="#000000" font-family="sans-serif" font-size="14" lengthAdjust="spacing" textLength="157.0967" x="3592.6414" y="1168.6436">RobotLoadThenCentre</text><line style="stroke:#181818;stroke-width:0.5;" x1="3551.53" x2="3762.4655" y1="1179.7969" y2="1179.7969"/><text fill="#000000" font-family="sans-serif" font-size="14" lengthAdjust="spacing" textLength="200.9355" x="3556.53" y="1196.792">&lt;class 'float'&gt; thawing_time</text><line style="stroke:#181818;stroke-width:0.5;" x1="3551.53" x2="3762.4655" y1="1204.0938" y2="1204.0938"/></g><!--class LoadCentreCollect--><g id="elem_LoadCentreCollect"><rect codeLine="114" fill="#F1F1F1" height="80.5938" id="LoadCentreCollect" rx="2.5" ry="2.5" style="stroke:#181818;stroke-width:0.5;" width="338.6211" x="4489.69" y="933.8669"/><ellipse cx="4590.315" cy="949.8669" fill="#ADD1B2" rx="11" ry="11" style="stroke:#181818;stroke-width:1;"/><path d="M4593.2838,955.5075 Q4592.7056,955.8044 4592.065,955.945 Q4591.4244,956.1012 4590.7213,956.1012 Q4588.2213,956.1012 4586.8931,954.4606 Q4585.5806,952.8044 4585.5806,949.6794 Q4585.5806,946.5544 4586.8931,944.8981 Q4588.2213,943.2419 4590.7213,943.2419 Q4591.4244,943.2419 4592.065,943.3981 Q4592.7213,943.5544 4593.2838,943.8512 L4593.2838,946.57 Q4592.6588,945.9919 4592.065,945.7262 Q4591.4713,945.445 4590.8463,945.445 Q4589.5025,945.445 4588.815,946.5231 Q4588.1275,947.5856 4588.1275,949.6794 Q4588.1275,951.7731 4588.815,952.8512 Q4589.5025,953.9137 4590.8463,953.9137 Q4591.4713,953.9137 4592.065,953.6481 Q4592.6588,953.3669 4593.2838,952.7887 L4593.2838,955.5075 Z " fill="#000000"/><text fill="#000000" font-family="sans-serif" font-size="14" lengthAdjust="spacing" textLength="128.8711" x="4610.815" y="954.7136">LoadCentreCollect</text><line style="stroke:#181818;stroke-width:0.5;" x1="4490.69" x2="4827.3111" y1="965.8669" y2="965.8669"/><text fill="#000000" font-family="sans-serif" font-size="14" lengthAdjust="spacing" textLength="326.6211" x="4495.69" y="982.862">RobotLoadThenCentre robot_load_then_centre</text><text fill="#000000" font-family="sans-serif" font-size="14" lengthAdjust="spacing" textLength="269.3154" x="4495.69" y="999.1589">MultiRotationScan multi_rotation_scan</text><line style="stroke:#181818;stroke-width:0.5;" x1="4490.69" x2="4827.3111" y1="1006.4606" y2="1006.4606"/></g><!--class RotationScan--><g id="elem_RotationScan"><rect codeLine="118" fill="#F1F1F1" height="48" id="RotationScan" rx="2.5" ry="2.5" style="stroke:#181818;stroke-width:0.5;" width="125.2148" x="4373.39" y="1155.9469"/><ellipse cx="4388.39" cy="1171.9469" fill="#ADD1B2" rx="11" ry="11" style="stroke:#181818;stroke-width:1;"/><path d="M4391.3588,1177.5875 Q4390.7806,1177.8844 4390.14,1178.025 Q4389.4994,1178.1812 4388.7963,1178.1812 Q4386.2963,1178.1812 4384.9681,1176.5406 Q4383.6556,1174.8844 4383.6556,1171.7594 Q4383.6556,1168.6344 4384.9681,1166.9781 Q4386.2963,1165.3219 4388.7963,1165.3219 Q4389.4994,1165.3219 4390.14,1165.4781 Q4390.7963,1165.6344 4391.3588,1165.9312 L4391.3588,1168.65 Q4390.7338,1168.0719 4390.14,1167.8062 Q4389.5463,1167.525 4388.9213,1167.525 Q4387.5775,1167.525 4386.89,1168.6031 Q4386.2025,1169.6656 4386.2025,1171.7594 Q4386.2025,1173.8531 4386.89,1174.9312 Q4387.5775,1175.9937 4388.9213,1175.9937 Q4389.5463,1175.9937 4390.14,1175.7281 Q4390.7338,1175.4469 4391.3588,1174.8687 L4391.3588,1177.5875 Z " fill="#000000"/><text fill="#000000" font-family="sans-serif" font-size="14" lengthAdjust="spacing" textLength="93.2148" x="4402.39" y="1176.7936">RotationScan</text><line style="stroke:#181818;stroke-width:0.5;" x1="4374.39" x2="4497.6048" y1="1187.9469" y2="1187.9469"/><line style="stroke:#181818;stroke-width:0.5;" x1="4374.39" x2="4497.6048" y1="1195.9469" y2="1195.9469"/></g><!--class RotationExperiment--><g id="elem_RotationExperiment"><rect codeLine="120" fill="#F1F1F1" height="96.8906" id="RotationExperiment" rx="2.5" ry="2.5" style="stroke:#181818;stroke-width:0.5;" width="332.332" x="3514.83" y="925.7269"/><ellipse cx="3606.7118" cy="941.7269" fill="#ADD1B2" rx="11" ry="11" style="stroke:#181818;stroke-width:1;"/><path d="M3609.6806,947.3675 Q3609.1025,947.6644 3608.4618,947.805 Q3607.8212,947.9613 3607.1181,947.9613 Q3604.6181,947.9613 3603.29,946.3206 Q3601.9775,944.6644 3601.9775,941.5394 Q3601.9775,938.4144 3603.29,936.7581 Q3604.6181,935.1019 3607.1181,935.1019 Q3607.8212,935.1019 3608.4618,935.2581 Q3609.1181,935.4144 3609.6806,935.7113 L3609.6806,938.43 Q3609.0556,937.8519 3608.4618,937.5863 Q3607.8681,937.305 3607.2431,937.305 Q3605.8993,937.305 3605.2118,938.3831 Q3604.5243,939.4456 3604.5243,941.5394 Q3604.5243,943.6331 3605.2118,944.7113 Q3605.8993,945.7738 3607.2431,945.7738 Q3607.8681,945.7738 3608.4618,945.5081 Q3609.0556,945.2269 3609.6806,944.6488 L3609.6806,947.3675 Z " fill="#000000"/><text fill="#000000" font-family="sans-serif" font-size="14" lengthAdjust="spacing" textLength="140.0684" x="3627.2118" y="946.5736">RotationExperiment</text><line style="stroke:#181818;stroke-width:0.5;" x1="3515.83" x2="3846.162" y1="957.7269" y2="957.7269"/><text fill="#000000" font-family="sans-serif" font-size="14" lengthAdjust="spacing" textLength="202.8018" x="3520.83" y="974.722">float shutter_opening_time_s</text><text fill="#000000" font-family="sans-serif" font-size="14" lengthAdjust="spacing" textLength="202.9385" x="3520.83" y="991.0189">float rotation_increment_deg</text><text fill="#000000" font-family="sans-serif" font-size="14" lengthAdjust="spacing" textLength="320.332" x="3520.83" y="1007.3157">IspybExperimentType ispyb_experiment_type</text><line style="stroke:#181818;stroke-width:0.5;" x1="3515.83" x2="3846.162" y1="1014.6175" y2="1014.6175"/></g><!--class GridCommonWithHyperionDetectorParams--><g id="elem_GridCommonWithHyperionDetectorParams"><rect codeLine="125" fill="#F1F1F1" height="48" id="GridCommonWithHyperionDetectorParams" rx="2.5" ry="2.5" style="stroke:#181818;stroke-width:0.5;" width="333.2188" x="3072.39" y="950.1669"/><ellipse cx="3087.39" cy="966.1669" fill="#ADD1B2" rx="11" ry="11" style="stroke:#181818;stroke-width:1;"/><path d="M3090.3588,971.8075 Q3089.7806,972.1044 3089.14,972.245 Q3088.4994,972.4012 3087.7963,972.4012 Q3085.2963,972.4012 3083.9681,970.7606 Q3082.6556,969.1044 3082.6556,965.9794 Q3082.6556,962.8544 3083.9681,961.1981 Q3085.2963,959.5419 3087.7963,959.5419 Q3088.4994,959.5419 3089.14,959.6981 Q3089.7963,959.8544 3090.3588,960.1512 L3090.3588,962.87 Q3089.7338,962.2919 3089.14,962.0262 Q3088.5463,961.745 3087.9213,961.745 Q3086.5775,961.745 3085.89,962.8231 Q3085.2025,963.8856 3085.2025,965.9794 Q3085.2025,968.0731 3085.89,969.1512 Q3086.5775,970.2137 3087.9213,970.2137 Q3088.5463,970.2137 3089.14,969.9481 Q3089.7338,969.6669 3090.3588,969.0887 L3090.3588,971.8075 Z " fill="#000000"/><text fill="#000000" font-family="sans-serif" font-size="14" lengthAdjust="spacing" textLength="301.2188" x="3101.39" y="971.0136">GridCommonWithHyperionDetectorParams</text><line style="stroke:#181818;stroke-width:0.5;" x1="3073.39" x2="3404.6088" y1="982.1669" y2="982.1669"/><line style="stroke:#181818;stroke-width:0.5;" x1="3073.39" x2="3404.6088" y1="990.1669" y2="990.1669"/></g><!--class RotationScanPerSweep--><g id="elem_RotationScanPerSweep"><rect codeLine="127" fill="#F1F1F1" height="129.4844" id="RotationScanPerSweep" rx="2.5" ry="2.5" style="stroke:#181818;stroke-width:0.5;" width="263.0498" x="4191.48" y="909.4269"/><ellipse cx="4237.5166" cy="925.4269" fill="#ADD1B2" rx="11" ry="11" style="stroke:#181818;stroke-width:1;"/><path d="M4240.4854,931.0675 Q4239.9072,931.3644 4239.2666,931.505 Q4238.626,931.6612 4237.9229,931.6612 Q4235.4229,931.6612 4234.0947,930.0206 Q4232.7822,928.3644 4232.7822,925.2394 Q4232.7822,922.1144 4234.0947,920.4581 Q4235.4229,918.8019 4237.9229,918.8019 Q4238.626,918.8019 4239.2666,918.9581 Q4239.9229,919.1144 4240.4854,919.4112 L4240.4854,922.13 Q4239.8604,921.5519 4239.2666,921.2862 Q4238.6729,921.005 4238.0479,921.005 Q4236.7041,921.005 4236.0166,922.0831 Q4235.3291,923.1456 4235.3291,925.2394 Q4235.3291,927.3331 4236.0166,928.4112 Q4236.7041,929.4737 4238.0479,929.4737 Q4238.6729,929.4737 4239.2666,929.2081 Q4239.8604,928.9269 4240.4854,928.3487 L4240.4854,931.0675 Z " fill="#000000"/><text fill="#000000" font-family="sans-serif" font-size="14" lengthAdjust="spacing" textLength="162.4766" x="4258.0166" y="930.2736">RotationScanPerSweep</text><line style="stroke:#181818;stroke-width:0.5;" x1="4192.48" x2="4453.5298" y1="941.4269" y2="941.4269"/><text fill="#000000" font-family="sans-serif" font-size="14" lengthAdjust="spacing" textLength="157.1787" x="4197.48" y="958.422">float omega_start_deg</text><text fill="#000000" font-family="sans-serif" font-size="14" lengthAdjust="spacing" textLength="182.9297" x="4197.48" y="974.7189">RotationAxis rotation_axis</text><text fill="#000000" font-family="sans-serif" font-size="14" lengthAdjust="spacing" textLength="147.3213" x="4197.48" y="991.0157">float scan_width_deg</text><text fill="#000000" font-family="sans-serif" font-size="14" lengthAdjust="spacing" textLength="251.0498" x="4197.48" y="1007.3126">RotationDirection rotation_direction</text><text fill="#000000" font-family="sans-serif" font-size="14" lengthAdjust="spacing" textLength="169.1279" x="4197.48" y="1023.6095">int nexus_vds_start_img</text><line style="stroke:#181818;stroke-width:0.5;" x1="4192.48" x2="4453.5298" y1="1030.9112" y2="1030.9112"/></g><!--reverse link DiffractionExperimentWithSample to GridCommon--><g id="link_DiffractionExperimentWithSample_GridCommon"><path codeLine="135" d="M2805,612.9369 C2805,628.8969 2805,633.0169 2805,654.5769 " fill="#FFFFFF" fill-opacity="0.00000" id="DiffractionExperimentWithSample-backto-GridCommon" style="stroke:#181818;stroke-width:1;"/><polygon fill="#FFFFFF" fill-opacity="0.00000" points="2805,594.9369,2799,612.9369,2811,612.9369,2805,594.9369" style="stroke:#181818;stroke-width:1;"/></g><!--reverse link OptionalGonioAngleStarts to GridCommon--><g id="link_OptionalGonioAngleStarts_GridCommon"><path codeLine="136" d="M1422.9136,214.4996 C1430.5436,217.4296 1421.41,213.6069 1429,215.7869 C1566.74,255.2669 1946.86,204.2169 2071,275.7869 C2170.67,333.2469 2130.91,415.1969 2221,486.7569 C2344.59,584.9169 2513.93,648.5569 2638.44,685.4369 " fill="#FFFFFF" fill-opacity="0.00000" id="OptionalGonioAngleStarts-backto-GridCommon" style="stroke:#181818;stroke-width:1;"/><polygon fill="#FFFFFF" fill-opacity="0.00000" points="1406.11,208.0469,1420.7627,220.1009,1425.0645,208.8984,1406.11,208.0469" style="stroke:#181818;stroke-width:1;"/></g><!--reverse link GridCommonWithHyperionDetectorParams to PinTipCentreThenXrayCentre--><g id="link_GridCommonWithHyperionDetectorParams_PinTipCentreThenXrayCentre"><path codeLine="137" d="M3222.1329,1015.1312 C3206.6529,1051.8212 3183.61,1106.4069 3166.26,1147.5369 " fill="#FFFFFF" fill-opacity="0.00000" id="GridCommonWithHyperionDetectorParams-backto-PinTipCentreThenXrayCentre" style="stroke:#181818;stroke-width:1;"/><polygon fill="#FFFFFF" fill-opacity="0.00000" points="3229.13,998.5469,3216.6047,1012.7988,3227.661,1017.4636,3229.13,998.5469" style="stroke:#181818;stroke-width:1;"/></g><!--reverse link WithHyperionUDCFeatures to PinTipCentreThenXrayCentre--><g id="link_WithHyperionUDCFeatures_PinTipCentreThenXrayCentre"><path codeLine="138" d="M3327.6598,754.2195 C3220.4998,777.1895 3089.62,812.8469 3055,860.5369 C2987.3,953.7769 2998.36,1019.4569 3055,1119.7969 C3061.15,1130.7069 3070.21,1139.8169 3080.38,1147.3769 " fill="#FFFFFF" fill-opacity="0.00000" id="WithHyperionUDCFeatures-backto-PinTipCentreThenXrayCentre" style="stroke:#181818;stroke-width:1;"/><polygon fill="#FFFFFF" fill-opacity="0.00000" points="3345.26,750.4469,3326.4022,748.3528,3328.9173,760.0863,3345.26,750.4469" style="stroke:#181818;stroke-width:1;"/></g><!--reverse link RotationExperiment to MultiRotationScan--><g id="link_RotationExperiment_MultiRotationScan"><path codeLine="139" d="M3743.8841,1035.114 C3778.7541,1066.524 3814.5,1094.3069 3864,1119.7969 C3885.06,1130.6469 3908.4,1139.7769 3931.55,1147.3669 " fill="#FFFFFF" fill-opacity="0.00000" id="RotationExperiment-backto-MultiRotationScan" style="stroke:#181818;stroke-width:1;"/><polygon fill="#FFFFFF" fill-opacity="0.00000" points="3730.51,1023.0669,3739.8684,1039.572,3747.8998,1030.6559,3730.51,1023.0669" style="stroke:#181818;stroke-width:1;"/></g><!--reverse link SplitScan to MultiRotationScan--><g id="link_SplitScan_MultiRotationScan"><path codeLine="140" d="M1137.1655,189.294 C1149.0755,203.814 1155.04,207.3669 1175,215.7869 C1377.8,301.3269 2935.99,253.9169 3155,275.7869 C3542.15,314.4369 4881,180.6769 4881,569.7569 C4881,569.7569 4881,569.7569 4881,728.6469 C4881,815.9169 4908.69,1059.0869 4846,1119.7969 C4806.82,1157.7369 4410.35,1143.3069 4356,1147.7969 C4350.11,1148.2869 4344.16,1148.7969 4338.15,1149.3169 " fill="#FFFFFF" fill-opacity="0.00000" id="SplitScan-backto-MultiRotationScan" style="stroke:#181818;stroke-width:1;"/><polygon fill="#FFFFFF" fill-opacity="0.00000" points="1125.75,175.3769,1132.5265,193.0992,1141.8045,185.4888,1125.75,175.3769" style="stroke:#181818;stroke-width:1;"/></g><!--reverse link MxBlueskyParameters to DiffractionExperiment--><g id="link_MxBlueskyParameters_DiffractionExperiment"><path codeLine="141" d="M2808.9224,201.2925 C2808.3924,225.2825 2808.03,241.8769 2807.3,275.3969 " fill="#FFFFFF" fill-opacity="0.00000" id="MxBlueskyParameters-backto-DiffractionExperiment" style="stroke:#181818;stroke-width:1;"/><polygon fill="#FFFFFF" fill-opacity="0.00000" points="2809.32,183.2969,2802.9239,201.16,2814.921,201.425,2809.32,183.2969" style="stroke:#181818;stroke-width:1;"/></g><!--reverse link WithSnapshot to DiffractionExperiment--><g id="link_WithSnapshot_DiffractionExperiment"><path codeLine="142" d="M706.6557,198.3838 C731.0257,208.0338 741.25,210.4669 767,215.7869 C1172.88,299.5469 2233.45,158.6769 2631,275.7869 C2633.45,276.5069 2635.9,277.2669 2638.35,278.0769 " fill="#FFFFFF" fill-opacity="0.00000" id="WithSnapshot-backto-DiffractionExperiment" style="stroke:#181818;stroke-width:1;"/><polygon fill="#FFFFFF" fill-opacity="0.00000" points="689.92,191.7569,704.4467,203.9624,708.8647,192.8053,689.92,191.7569" style="stroke:#181818;stroke-width:1;"/></g><!--reverse link WithOptionalEnergyChange to DiffractionExperiment--><g id="link_WithOptionalEnergyChange_DiffractionExperiment"><path codeLine="143" d="M377.5843,191.9229 C401.6343,204.4129 414.89,209.0769 443,215.7869 C916.12,328.6969 2164.09,139.4469 2631,275.7869 C2633.45,276.4969 2635.91,277.2569 2638.36,278.0569 " fill="#FFFFFF" fill-opacity="0.00000" id="WithOptionalEnergyChange-backto-DiffractionExperiment" style="stroke:#181818;stroke-width:1;"/><polygon fill="#FFFFFF" fill-opacity="0.00000" points="361.61,183.6269,374.8189,197.2476,380.3496,186.5981,361.61,183.6269" style="stroke:#181818;stroke-width:1;"/></g><!--reverse link WithVisit to DiffractionExperiment--><g id="link_WithVisit_DiffractionExperiment"><path codeLine="144" d="M2291.3484,216.2125 C2438.6184,259.3125 2487.27,222.0569 2631,275.7869 C2633.48,276.7069 2635.96,277.6669 2638.44,278.6669 " fill="#FFFFFF" fill-opacity="0.00000" id="WithVisit-backto-DiffractionExperiment" style="stroke:#181818;stroke-width:1;"/><polygon fill="#FFFFFF" fill-opacity="0.00000" points="2274.26,210.5569,2289.4632,221.9086,2293.2336,210.5163,2274.26,210.5569" style="stroke:#181818;stroke-width:1;"/></g><!--reverse link WithPandaGridScan to WithHyperionUDCFeatures--><g id="link_WithPandaGridScan_WithHyperionUDCFeatures"><path codeLine="145" d="M975.9424,191.7205 C1000.5424,204.2005 1014.36,209.0269 1043,215.7869 C1253.32,265.4269 2787.63,192.3969 2987,275.7869 C3205.22,367.0569 3381.74,608.7269 3439.73,695.2669 " fill="#FFFFFF" fill-opacity="0.00000" id="WithPandaGridScan-backto-WithHyperionUDCFeatures" style="stroke:#181818;stroke-width:1;"/><polygon fill="#FFFFFF" fill-opacity="0.00000" points="959.89,183.5769,973.2279,197.0714,978.657,186.3697,959.89,183.5769" style="stroke:#181818;stroke-width:1;"/></g><!--reverse link GridCommon to SpecifiedThreeDGridScan--><g id="link_GridCommon_SpecifiedThreeDGridScan"><path codeLine="146" d="M2782.591,818.4811 C2777.951,837.0711 2777.21,840.0569 2772.19,860.1669 " fill="#FFFFFF" fill-opacity="0.00000" id="GridCommon-backto-SpecifiedThreeDGridScan" style="stroke:#181818;stroke-width:1;"/><polygon fill="#FFFFFF" fill-opacity="0.00000" points="2786.95,801.0169,2776.7696,817.0281,2788.4124,819.9341,2786.95,801.0169" style="stroke:#181818;stroke-width:1;"/></g><!--reverse link SpecifiedGrid to SpecifiedThreeDGridScan--><g id="link_SpecifiedGrid_SpecifiedThreeDGridScan"><path codeLine="147" d="M1532.3368,418.1339 C1604.8768,488.8739 1821.81,690.4369 2053,800.5369 C2248.09,893.4469 2498.82,939.9469 2638.32,960.1169 " fill="#FFFFFF" fill-opacity="0.00000" id="SpecifiedGrid-backto-SpecifiedThreeDGridScan" style="stroke:#181818;stroke-width:1;"/><polygon fill="#FFFFFF" fill-opacity="0.00000" points="1519.45,405.5669,1528.1478,422.4295,1536.5258,413.8383,1519.45,405.5669" style="stroke:#181818;stroke-width:1;"/></g><!--reverse link SplitScan to SpecifiedThreeDGridScan--><g id="link_SplitScan_SpecifiedThreeDGridScan"><path codeLine="148" d="M1135.6229,189.9079 C1204.7929,287.0179 1477.08,648.0569 1813,800.5369 C2092.73,927.5069 2460.17,961.0969 2638.2,969.9769 " fill="#FFFFFF" fill-opacity="0.00000" id="SplitScan-backto-SpecifiedThreeDGridScan" style="stroke:#181818;stroke-width:1;"/><polygon fill="#FFFFFF" fill-opacity="0.00000" points="1125.18,175.2469,1130.7358,193.3889,1140.5099,186.427,1125.18,175.2469" style="stroke:#181818;stroke-width:1;"/></g><!--reverse link WithOptionalEnergyChange to SpecifiedThreeDGridScan--><g id="link_WithOptionalEnergyChange_SpecifiedThreeDGridScan"><path codeLine="149" d="M378.345,191.8634 C402.285,204.1834 415.23,208.7769 443,215.7869 C931.95,339.0869 1093.61,128.8969 1576,275.7869 C2006.4,406.8469 2443.02,729.0269 2638.27,885.3069 " fill="#FFFFFF" fill-opacity="0.00000" id="WithOptionalEnergyChange-backto-SpecifiedThreeDGridScan" style="stroke:#181818;stroke-width:1;"/><polygon fill="#FFFFFF" fill-opacity="0.00000" points="362.34,183.6269,375.5995,197.1984,381.0905,186.5284,362.34,183.6269" style="stroke:#181818;stroke-width:1;"/></g><!--reverse link DiffractionExperiment to DiffractionExperimentWithSample--><g id="link_DiffractionExperiment_DiffractionExperimentWithSample"><path codeLine="150" d="M2805,505.2469 C2805,527.5069 2805,530.9069 2805,546.3269 " fill="#FFFFFF" fill-opacity="0.00000" id="DiffractionExperiment-backto-DiffractionExperimentWithSample" style="stroke:#181818;stroke-width:1;"/><polygon fill="#FFFFFF" fill-opacity="0.00000" points="2805,487.2469,2799,505.2469,2811,505.2469,2805,487.2469" style="stroke:#181818;stroke-width:1;"/></g><!--reverse link WithSample to DiffractionExperimentWithSample--><g id="link_WithSample_DiffractionExperimentWithSample"><path codeLine="151" d="M1754.6038,208.4307 C1766.0238,214.5707 1762.14,211.6369 1774,215.7869 C1964.85,282.6169 2032.48,213.9269 2225,275.7869 C2414.86,336.7869 2442.01,398.8269 2621,486.7569 C2664.09,507.9269 2713.76,530.2069 2750.62,546.3469 " fill="#FFFFFF" fill-opacity="0.00000" id="WithSample-backto-DiffractionExperimentWithSample" style="stroke:#181818;stroke-width:1;"/><polygon fill="#FFFFFF" fill-opacity="0.00000" points="1738.75,199.9069,1751.7625,213.7153,1757.4451,203.1461,1738.75,199.9069" style="stroke:#181818;stroke-width:1;"/></g><!--reverse link SpecifiedThreeDGridScan to HyperionSpecifiedThreeDGridScan--><g id="link_SpecifiedThreeDGridScan_HyperionSpecifiedThreeDGridScan"><path codeLine="152" d="M2865.3731,898.9242 C2919.1131,868.9742 2971.06,845.7369 3036.5,830.5369 C3124.27,810.1469 3762.81,799.7569 3847.5,830.5369 C3913.02,854.3469 3970.97,915.3869 3999.76,949.7369 " fill="#FFFFFF" fill-opacity="0.00000" id="SpecifiedThreeDGridScan-backto-HyperionSpecifiedThreeDGridScan" style="stroke:#181818;stroke-width:1;"/><polygon fill="#FFFFFF" fill-opacity="0.00000" points="2849.65,907.6869,2868.294,904.1652,2862.4522,893.6832,2849.65,907.6869" style="stroke:#181818;stroke-width:1;"/></g><!--reverse link WithHyperionUDCFeatures to HyperionSpecifiedThreeDGridScan--><g id="link_WithHyperionUDCFeatures_HyperionSpecifiedThreeDGridScan"><path codeLine="153" d="M3563.4925,766.2377 C3599.6625,779.1477 3625.25,787.9369 3664,800.5369 C3752.66,829.3669 3781.49,819.0769 3865,860.5369 C3913.95,884.8369 3963.78,924.5969 3993.01,949.7969 " fill="#FFFFFF" fill-opacity="0.00000" id="WithHyperionUDCFeatures-backto-HyperionSpecifiedThreeDGridScan" style="stroke:#181818;stroke-width:1;"/><polygon fill="#FFFFFF" fill-opacity="0.00000" points="3546.54,760.1869,3561.4756,771.8885,3565.5095,760.5868,3546.54,760.1869" style="stroke:#181818;stroke-width:1;"/></g><!--reverse link GridCommonWithHyperionDetectorParams to GridScanWithEdgeDetect--><g id="link_GridCommonWithHyperionDetectorParams_GridScanWithEdgeDetect"><path codeLine="154" d="M3270.3408,1012.3015 C3303.4308,1051.5015 3358.12,1116.2969 3391.24,1155.5269 " fill="#FFFFFF" fill-opacity="0.00000" id="GridCommonWithHyperionDetectorParams-backto-GridScanWithEdgeDetect" style="stroke:#181818;stroke-width:1;"/><polygon fill="#FFFFFF" fill-opacity="0.00000" points="3258.73,998.5469,3265.7559,1016.1718,3274.9256,1008.4313,3258.73,998.5469" style="stroke:#181818;stroke-width:1;"/></g><!--reverse link WithHyperionUDCFeatures to GridScanWithEdgeDetect--><g id="link_WithHyperionUDCFeatures_GridScanWithEdgeDetect"><path codeLine="155" d="M3457.0319,778.1821 C3452.8819,844.8621 3442.71,986.8769 3423,1119.7969 C3421.23,1131.7169 3418.63,1144.8669 3416.3,1155.7269 " fill="#FFFFFF" fill-opacity="0.00000" id="WithHyperionUDCFeatures-backto-GridScanWithEdgeDetect" style="stroke:#181818;stroke-width:1;"/><polygon fill="#FFFFFF" fill-opacity="0.00000" points="3458.15,760.2169,3451.0435,777.8094,3463.0203,778.5548,3458.15,760.2169" style="stroke:#181818;stroke-width:1;"/></g><!--reverse link GridCommonWithHyperionDetectorParams to RobotLoadThenCentre--><g id="link_GridCommonWithHyperionDetectorParams_RobotLoadThenCentre"><path codeLine="156" d="M3285.0265,1009.0098 C3328.1665,1040.1398 3394.4,1084.8669 3470,1119.7969 C3495.35,1131.5169 3523.64,1141.7869 3550.4,1150.3469 " fill="#FFFFFF" fill-opacity="0.00000" id="GridCommonWithHyperionDetectorParams-backto-RobotLoadThenCentre" style="stroke:#181818;stroke-width:1;"/><polygon fill="#FFFFFF" fill-opacity="0.00000" points="3270.43,998.4769,3281.5155,1013.8753,3288.5375,1004.1443,3270.43,998.4769" style="stroke:#181818;stroke-width:1;"/></g><!--reverse link WithHyperionUDCFeatures to RobotLoadThenCentre--><g id="link_WithHyperionUDCFeatures_RobotLoadThenCentre"><path codeLine="157" d="M3458.2778,777.9887 C3455.7878,860.6187 3453.97,1063.8369 3497,1119.7969 C3504.85,1130.0169 3525.85,1140.1169 3550.14,1149.0069 " fill="#FFFFFF" fill-opacity="0.00000" id="WithHyperionUDCFeatures-backto-RobotLoadThenCentre" style="stroke:#181818;stroke-width:1;"/><polygon fill="#FFFFFF" fill-opacity="0.00000" points="3458.82,759.9969,3452.2806,777.808,3464.2751,778.1694,3458.82,759.9969" style="stroke:#181818;stroke-width:1;"/></g><!--reverse link MxBlueskyParameters to LoadCentreCollect--><g id="link_MxBlueskyParameters_LoadCentreCollect"><path codeLine="158" d="M2986.8359,155.5933 C3475.3959,166.0833 4909.16,202.8969 4978,275.7869 C5169.99,479.0369 4832.34,818.1069 4704.79,933.3969 " fill="#FFFFFF" fill-opacity="0.00000" id="MxBlueskyParameters-backto-LoadCentreCollect" style="stroke:#181818;stroke-width:1;"/><polygon fill="#FFFFFF" fill-opacity="0.00000" points="2968.84,155.2069,2986.7071,161.5919,2986.9647,149.5947,2968.84,155.2069" style="stroke:#181818;stroke-width:1;"/></g><!--reverse link WithVisit to LoadCentreCollect--><g id="link_WithVisit_LoadCentreCollect"><path codeLine="159" d="M2291.3537,216.3568 C2496.3737,260.7568 3993.85,175.3269 4178,275.7869 C4453.02,425.8069 4603.37,808.9669 4646.12,933.4469 " fill="#FFFFFF" fill-opacity="0.00000" id="WithVisit-backto-LoadCentreCollect" style="stroke:#181818;stroke-width:1;"/><polygon fill="#FFFFFF" fill-opacity="0.00000" points="2274,211.5769,2289.7605,222.1414,2292.947,210.5722,2274,211.5769" style="stroke:#181818;stroke-width:1;"/></g><!--reverse link WithSample to LoadCentreCollect--><g id="link_WithSample_LoadCentreCollect"><path codeLine="160" d="M1752.2309,208.3802 C1764.3009,214.8202 1761.23,212.0269 1774,215.7869 C2188.21,337.6569 3308.07,134.3169 3716,275.7869 C3924.13,347.9669 4454.1,796.3269 4613.18,933.4069 " fill="#FFFFFF" fill-opacity="0.00000" id="WithSample-backto-LoadCentreCollect" style="stroke:#181818;stroke-width:1;"/><polygon fill="#FFFFFF" fill-opacity="0.00000" points="1736.35,199.9069,1749.4065,213.6738,1755.0553,203.0866,1736.35,199.9069" style="stroke:#181818;stroke-width:1;"/></g><!--reverse link WithCentreSelection to LoadCentreCollect--><g id="link_WithCentreSelection_LoadCentreCollect"><path codeLine="161" d="M2543.1281,190.679 C2571.9281,203.149 2590.18,208.9669 2623,215.7869 C2723.47,236.6469 4388.49,212.1769 4469,275.7869 C4677.99,440.8969 4671.04,811.6069 4662.56,933.4969 " fill="#FFFFFF" fill-opacity="0.00000" id="WithCentreSelection-backto-LoadCentreCollect" style="stroke:#181818;stroke-width:1;"/><polygon fill="#FFFFFF" fill-opacity="0.00000" points="2526.61,183.5269,2540.7441,196.185,2545.5121,185.1729,2526.61,183.5269" style="stroke:#181818;stroke-width:1;"/></g><!--reverse link WithHyperionUDCFeatures to LoadCentreCollect--><g id="link_WithHyperionUDCFeatures_LoadCentreCollect"><path codeLine="162" d="M3592.5348,745.5586 C3855.3048,779.1386 4461.44,856.8469 4472,860.5369 C4520.84,877.5869 4570.76,908.4769 4606.73,933.5969 " fill="#FFFFFF" fill-opacity="0.00000" id="WithHyperionUDCFeatures-backto-LoadCentreCollect" style="stroke:#181818;stroke-width:1;"/><polygon fill="#FFFFFF" fill-opacity="0.00000" points="3574.68,743.2769,3591.7742,751.5102,3593.2954,739.607,3574.68,743.2769" style="stroke:#181818;stroke-width:1;"/></g><!--reverse link WithScan to RotationScan--><g id="link_WithScan_RotationScan"><path codeLine="163" d="M1524.1052,189.3988 C1535.9952,203.9588 1541.99,207.4869 1562,215.7869 C1733.7,286.9569 4767.07,153.4469 4907,275.7869 C5006.51,362.7769 4952,437.5769 4952,569.7569 C4952,569.7569 4952,569.7569 4952,728.6469 C4952,903.6369 5030.1,995.4169 4907,1119.7969 C4878.74,1148.3569 4620.25,1167.7269 4498.67,1175.3369 " fill="#FFFFFF" fill-opacity="0.00000" id="WithScan-backto-RotationScan" style="stroke:#181818;stroke-width:1;"/><polygon fill="#FFFFFF" fill-opacity="0.00000" points="1512.72,175.4569,1519.4579,193.1938,1528.7525,185.6037,1512.72,175.4569" style="stroke:#181818;stroke-width:1;"/></g><!--reverse link RotationScanPerSweep to RotationScan--><g id="link_RotationScanPerSweep_RotationScan"><path codeLine="164" d="M4367.3284,1055.109 C4389.3184,1094.769 4407.51,1127.5669 4423.11,1155.7069 " fill="#FFFFFF" fill-opacity="0.00000" id="RotationScanPerSweep-backto-RotationScan" style="stroke:#181818;stroke-width:1;"/><polygon fill="#FFFFFF" fill-opacity="0.00000" points="4358.6,1039.3669,4362.0811,1058.0185,4372.5758,1052.1995,4358.6,1039.3669" style="stroke:#181818;stroke-width:1;"/></g><!--reverse link RotationExperiment to RotationScan--><g id="link_RotationExperiment_RotationScan"><path codeLine="165" d="M3737.6705,1035.4414 C3771.9305,1069.1514 3809.86,1099.2469 3864,1119.7969 C3966.38,1158.6669 4248.99,1124.5369 4356,1147.7969 C4364.74,1149.6969 4373.78,1152.4169 4382.49,1155.4769 " fill="#FFFFFF" fill-opacity="0.00000" id="RotationExperiment-backto-RotationScan" style="stroke:#181818;stroke-width:1;"/><polygon fill="#FFFFFF" fill-opacity="0.00000" points="3724.84,1022.8169,3733.4623,1039.7182,3741.8787,1031.1646,3724.84,1022.8169" style="stroke:#181818;stroke-width:1;"/></g><!--reverse link DiffractionExperimentWithSample to RotationExperiment--><g id="link_DiffractionExperimentWithSample_RotationExperiment"><path codeLine="166" d="M2875.5772,602.3141 C2912.3072,618.2841 2945.43,632.8469 2989,652.4969 C3199.62,747.4969 3444.63,861.9769 3579.29,925.2469 " fill="#FFFFFF" fill-opacity="0.00000" id="DiffractionExperimentWithSample-backto-RotationExperiment" style="stroke:#181818;stroke-width:1;"/><polygon fill="#FFFFFF" fill-opacity="0.00000" points="2859.07,595.1369,2873.1848,607.8165,2877.9696,596.8117,2859.07,595.1369" style="stroke:#181818;stroke-width:1;"/></g><!--reverse link WithHyperionUDCFeatures to RotationExperiment--><g id="link_WithHyperionUDCFeatures_RotationExperiment"><path codeLine="167" d="M3500.5098,773.4605 C3538.3998,815.3805 3593.7,876.5769 3637.87,925.4369 " fill="#FFFFFF" fill-opacity="0.00000" id="WithHyperionUDCFeatures-backto-RotationExperiment" style="stroke:#181818;stroke-width:1;"/><polygon fill="#FFFFFF" fill-opacity="0.00000" points="3488.44,760.1069,3496.0586,777.4838,3504.9611,769.4372,3488.44,760.1069" style="stroke:#181818;stroke-width:1;"/></g><!--reverse link XyzStarts to SpecifiedGrid--><g id="link_XyzStarts_SpecifiedGrid"><path codeLine="168" d="M159.8024,210.2802 C168.6424,216.4602 163.34,211.7169 173,215.7869 C405.68,313.6769 1202.33,364.1669 1432.97,376.9569 " fill="#FFFFFF" fill-opacity="0.00000" id="XyzStarts-backto-SpecifiedGrid" style="stroke:#181818;stroke-width:1;"/><polygon fill="#FFFFFF" fill-opacity="0.00000" points="145.05,199.9669,156.3647,215.1977,163.2402,205.3628,145.05,199.9669" style="stroke:#181818;stroke-width:1;"/></g><!--reverse link WithScan to SpecifiedGrid--><g id="link_WithScan_SpecifiedGrid"><path codeLine="169" d="M1496,193.1769 C1496,236.9269 1496,313.2769 1496,357.0669 " fill="#FFFFFF" fill-opacity="0.00000" id="WithScan-backto-SpecifiedGrid" style="stroke:#181818;stroke-width:1;"/><polygon fill="#FFFFFF" fill-opacity="0.00000" points="1496,175.1769,1490,193.1769,1502,193.1769,1496,175.1769" style="stroke:#181818;stroke-width:1;"/></g><!--reverse link GridCommon to GridCommonWithHyperionDetectorParams--><g id="link_GridCommon_GridCommonWithHyperionDetectorParams"><path codeLine="170" d="M2949.1323,809.8524 C3038.8723,860.4124 3137.3,915.8669 3197.49,949.7769 " fill="#FFFFFF" fill-opacity="0.00000" id="GridCommon-backto-GridCommonWithHyperionDetectorParams" style="stroke:#181818;stroke-width:1;"/><polygon fill="#FFFFFF" fill-opacity="0.00000" points="2933.45,801.0169,2946.1871,815.0798,2952.0775,804.6249,2933.45,801.0169" style="stroke:#181818;stroke-width:1;"/></g><!--reverse link WithHyperionUDCFeatures to GridCommonWithHyperionDetectorParams--><g id="link_WithHyperionUDCFeatures_GridCommonWithHyperionDetectorParams"><path codeLine="171" d="M3419.4907,773.4609 C3374.4907,823.2509 3299.97,905.7169 3260.07,949.8569 " fill="#FFFFFF" fill-opacity="0.00000" id="WithHyperionUDCFeatures-backto-GridCommonWithHyperionDetectorParams" style="stroke:#181818;stroke-width:1;"/><polygon fill="#FFFFFF" fill-opacity="0.00000" points="3431.56,760.1069,3415.0393,769.4378,3423.942,777.484,3431.56,760.1069" style="stroke:#181818;stroke-width:1;"/></g><!--reverse link OptionalGonioAngleStarts to RotationScanPerSweep--><g id="link_OptionalGonioAngleStarts_RotationScanPerSweep"><path codeLine="172" d="M1421.4041,214.3198 C1429.5241,217.3498 1420.87,213.7069 1429,215.7869 C1800.86,310.7169 2785.93,170.5169 3155,275.7869 C3612.07,406.1569 4072.33,762.5369 4248.3,909.0069 " fill="#FFFFFF" fill-opacity="0.00000" id="OptionalGonioAngleStarts-backto-RotationScanPerSweep" style="stroke:#181818;stroke-width:1;"/><polygon fill="#FFFFFF" fill-opacity="0.00000" points="1404.54,208.0269,1419.3065,219.9412,1423.5018,208.6984,1404.54,208.0269" style="stroke:#181818;stroke-width:1;"/></g><!--reverse link OptionalXyzStarts to RotationScanPerSweep--><g id="link_OptionalXyzStarts_RotationScanPerSweep"><path codeLine="173" d="M1963.2309,208.4002 C1975.3009,214.8402 1972.22,212.0369 1985,215.7869 C2096.36,248.4169 3979.07,207.6369 4073,275.7869 C4281.08,426.7469 4316.63,767.0969 4322.22,909.0769 " fill="#FFFFFF" fill-opacity="0.00000" id="OptionalXyzStarts-backto-RotationScanPerSweep" style="stroke:#181818;stroke-width:1;"/><polygon fill="#FFFFFF" fill-opacity="0.00000" points="1947.35,199.9269,1960.4065,213.6938,1966.0553,203.1066,1947.35,199.9269" style="stroke:#181818;stroke-width:1;"/></g><!--SRC=[bLXTRzis57ssVWNViW5BWFQv6v3QQJUWwOBQpGeK0K5Brn8HYIH8AhNYvh_lafGKoP8izodY_URbkOTqBZOPDsJ7So3ubvLMNgOWG3CB2TbMf5bGbJDXooA_KbKKMMxHuUzAWUPIa3kcMG4MDBcL2UIH0Ki4IenYCQn1eTfAJOGK44KeUsGfa69Fjta9vh6wYcLHI76bcZ26728hKx0PXZn4SSwC8VzncwrZ9WxHIqUo164rviWXjbZA8LfifFhylhfb-wKiXMqrnFWl6di7qmRvLZslBTFMeEikbyoIFJLEGCkYaLG3oVEhf5lD7HC9-wXv4WgjZPMJKbsAKj64ewE8WHQldlygLo3BXwNy99-nPoCLrOfgIZ5HtremPJ9fCS4TinanzHhBqjWSgQjeaME5ttsmXoPQQoOBI9cX2QI3uZzAmUMrI7COtuDthQjo_dsjolYaBZwXUsHATQDsDtlF3NSxDLQJBR0YvmW_ltfocl2PWFLdGgsapeZ6KZo1HX1IXHqAHbmO5E4sgTAmu_kZ8Z26RzxeuVgsiqBbWALmOOdn2ygJi6nQ7AIgZ1z7vLoq4TSAOhxZa3YW7JhYdDlXW3JdSuDpd5RBZ8aK3eCD50XH2jw4mXC6U1aEu8hlTfhvORhPkyalS9IwsslIkhgMVgJRH5k96ERFq45gYbRq1qzirX72NabJQg0MerCJBVungjg-fjiWvI1HeOn2AwGMfT7Y6jSMVUyPqahRFp_ra51MQvjCbYigTpkagkwGZEwnnf0ZIUfeRR9OP-Mu37sGXpHFKz2E4OaDtxJ0HUzuaHIeA8ijw5-kNpDX2cwCWwMh-PTwvIer25aaukxiRwNCIMc0Qib3iKrZRlVl0rctNEycVEs0OtbyZql7iIs3U-USFWNv4BgRJ0Ei1apfCF4ci4nts9tuxL3iQ17KCQwgKUdpkEtR8RDtHUwaGXOJ5bLtyTmiVDkeWvAnvRQ6bV5Jz39stsNrnTc_yKABxhZOS1MkjKq6ufjcLLWTJaFtjimj_o8jS-2jktejX1D0yjspUbTx1thz0q0z_44-WVYju8Bc85AR_VdczmUYQqjgqDJq2AMvzR-kbX-0EKWw93JIMlGXPoa-AsfzwzzOJUAWIo5EuXBU92ciFCM-wh_8hRIV94jSYzhsl0lA2z-cYx-8pTWFBb8_dwshymeUIvddFkfY91os06KK8oKKQL3K3uTeCUWpAPo4zbhMARHx8CVI7iU4mpLPQTq0IGMYgTrnIz2sIRY8DVY1zWDn_kWFIRfxgAlwAlDJRWwZssYGqvOykDeRw-izlYdRaXcksbrYd9hyUnuhpqMEIbgtf165eHEmBmrzIaoTa1Uf7xEPsucy-tbvsTbqDFLk6HYUqwZWD3swqSJWpFeDWH9S1Y2Cskj_oc24mOFfQEUYxdDnpcxiZJ7durzdSqQzztGmdkXavvY2tGJ5HBtNqvnfhwLJPgSxCEKrkkaJ_NY5SdICwZdxYHA2ymmbdqRkdFFvipDE-AUpJ_YSdtI4zazd77EOdAl1HNEC-t63xicEMnpzvZrbEhcJYTmjB7hKCSR-9yoEyTmpEekdXv7cpcLWt_wOFXf3XuwZlVPrnqHo3fpcSJeRuVHzD7O2qU3_1jEs_mC0]--></g></svg>