<?plantuml 1.2026.2beta1?><svg xmlns="http://www.w3.org/2000/svg" xmlns:xlink="http://www.w3.org/1999/xlink" contentStyleType="text/css" data-diagram-type="SEQUENCE" height="1344px" preserveAspectRatio="none" style="width:1554px;height:1344px;background:#FFFFFF;" version="1.1" viewBox="0 0 1554 1344" width="1554px" zoomAndPan="magnify"><defs/><g><rect fill="#DDDDDD" height="1332.1016" style="stroke:#181818;stroke-width:0.5;" width="698.9683" x="350.3779" y="6"/><text fill="#000000" font-family="sans-serif" font-size="13" font-weight="bold" lengthAdjust="spacing" textLength="156.4761" x="621.624" y="18.0669">Opyhd Async Devices</text><rect fill="#DDDDDD" height="1332.1016" style="stroke:#181818;stroke-width:0.5;" width="355.543" x="1061.3462" y="6"/><text fill="#000000" font-family="sans-serif" font-size="13" font-weight="bold" lengthAdjust="spacing" textLength="69.3926" x="1204.4214" y="18.0669">Callbacks</text><g><title>BlueSky RunEngine</title><rect fill="#000000" fill-opacity="0.00000" height="940.7188" width="8" x="76.5825" y="89.0234"/><line style="stroke:#181818;stroke-width:0.5;stroke-dasharray:5,5;" x1="80.0825" x2="80.0825" y1="89.0234" y2="1029.7422"/></g><line style="stroke:#181818;stroke-width:0.5;stroke-dasharray:1,4;" x1="80.0825" x2="80.0825" y1="1029.7422" y2="1070.5469"/><g><title>BlueSky RunEngine</title><rect fill="#000000" fill-opacity="0.00000" height="197.6641" width="8" x="76.5825" y="1070.5469"/><line style="stroke:#181818;stroke-width:0.5;stroke-dasharray:5,5;" x1="80.0825" x2="80.0825" y1="1070.5469" y2="1268.2109"/></g><g><title/><rect fill="#FFFFFF" height="840.3203" style="stroke:#FFFFFF;stroke-width:1;" width="10" x="75.0825" y="189.4219"/><line style="stroke:#181818;stroke-width:1;" x1="75.0825" x2="75.0825" y1="189.4219" y2="1029.7422"/><line style="stroke:#181818;stroke-width:1;" x1="85.0825" x2="85.0825" y1="189.4219" y2="1029.7422"/><line style="stroke:#181818;stroke-width:1;" x1="75.0825" x2="85.0825" y1="189.4219" y2="189.4219"/></g><g><title/><rect fill="#FFFFFF" height="179.6641" style="stroke:#FFFFFF;stroke-width:1;" width="10" x="75.0825" y="1070.5469"/><line style="stroke:#181818;stroke-width:1;" x1="75.0825" x2="75.0825" y1="1070.5469" y2="1250.2109"/><line style="stroke:#181818;stroke-width:1;" x1="85.0825" x2="85.0825" y1="1070.5469" y2="1250.2109"/><line style="stroke:#181818;stroke-width:1;" x1="75.0825" x2="85.0825" y1="1250.2109" y2="1250.2109"/></g><g><title/><rect fill="#FFDDDD" height="229.7969" style="stroke:#181818;stroke-width:1;" width="10" x="80.0825" y="485.6172"/></g><g><title/><rect fill="#FFDDDD" height="285.1953" style="stroke:#FFDDDD;stroke-width:1;" width="10" x="80.0825" y="744.5469"/><line style="stroke:#181818;stroke-width:1;" x1="80.0825" x2="80.0825" y1="744.5469" y2="1029.7422"/><line style="stroke:#181818;stroke-width:1;" x1="90.0825" x2="90.0825" y1="744.5469" y2="1029.7422"/><line style="stroke:#181818;stroke-width:1;" x1="80.0825" x2="90.0825" y1="744.5469" y2="744.5469"/></g><g><title/><rect fill="#FFDDDD" height="78.2656" style="stroke:#FFDDDD;stroke-width:1;" width="10" x="80.0825" y="1070.5469"/><line style="stroke:#181818;stroke-width:1;" x1="80.0825" x2="80.0825" y1="1070.5469" y2="1148.8125"/><line style="stroke:#181818;stroke-width:1;" x1="90.0825" x2="90.0825" y1="1070.5469" y2="1148.8125"/><line style="stroke:#181818;stroke-width:1;" x1="80.0825" x2="90.0825" y1="1148.8125" y2="1148.8125"/></g><g><title/><rect fill="#FFCCCC" height="58.2656" style="stroke:#181818;stroke-width:1;" width="10" x="85.0825" y="844.9453"/></g><g><title>Aperture</title><rect fill="#000000" fill-opacity="0.00000" height="940.7188" width="8" x="403.624" y="89.0234"/><line style="stroke:#181818;stroke-width:0.5;stroke-dasharray:5,5;" x1="407.124" x2="407.124" y1="89.0234" y2="1029.7422"/></g><line style="stroke:#181818;stroke-width:0.5;stroke-dasharray:1,4;" x1="407.124" x2="407.124" y1="1029.7422" y2="1070.5469"/><g><title>Aperture</title><rect fill="#000000" fill-opacity="0.00000" height="197.6641" width="8" x="403.624" y="1070.5469"/><line style="stroke:#181818;stroke-width:0.5;stroke-dasharray:5,5;" x1="407.124" x2="407.124" y1="1070.5469" y2="1268.2109"/></g><g><title/><rect fill="#FFFFFF" height="459.7266" style="stroke:#181818;stroke-width:1;" width="10" x="402.124" y="443.4844"/></g><g><title>Smargon</title><rect fill="#000000" fill-opacity="0.00000" height="940.7188" width="8" x="504.9624" y="89.0234"/><line style="stroke:#181818;stroke-width:0.5;stroke-dasharray:5,5;" x1="508.4624" x2="508.4624" y1="89.0234" y2="1029.7422"/></g><line style="stroke:#181818;stroke-width:0.5;stroke-dasharray:1,4;" x1="508.4624" x2="508.4624" y1="1029.7422" y2="1070.5469"/><g><title>Smargon</title><rect fill="#000000" fill-opacity="0.00000" height="197.6641" width="8" x="504.9624" y="1070.5469"/><line style="stroke:#181818;stroke-width:0.5;stroke-dasharray:5,5;" x1="508.4624" x2="508.4624" y1="1070.5469" y2="1268.2109"/></g><g><title>Robot</title><rect fill="#000000" fill-opacity="0.00000" height="940.7188" width="8" x="581.1719" y="89.0234"/><line style="stroke:#181818;stroke-width:0.5;stroke-dasharray:5,5;" x1="584.6719" x2="584.6719" y1="89.0234" y2="1029.7422"/></g><line style="stroke:#181818;stroke-width:0.5;stroke-dasharray:1,4;" x1="584.6719" x2="584.6719" y1="1029.7422" y2="1070.5469"/><g><title>Robot</title><rect fill="#000000" fill-opacity="0.00000" height="197.6641" width="8" x="581.1719" y="1070.5469"/><line style="stroke:#181818;stroke-width:0.5;stroke-dasharray:5,5;" x1="584.6719" x2="584.6719" y1="1070.5469" y2="1268.2109"/></g><g><title>Backlight</title><rect fill="#000000" fill-opacity="0.00000" height="940.7188" width="8" x="658.2974" y="89.0234"/><line style="stroke:#181818;stroke-width:0.5;stroke-dasharray:5,5;" x1="661.7974" x2="661.7974" y1="89.0234" y2="1029.7422"/></g><line style="stroke:#181818;stroke-width:0.5;stroke-dasharray:1,4;" x1="661.7974" x2="661.7974" y1="1029.7422" y2="1070.5469"/><g><title>Backlight</title><rect fill="#000000" fill-opacity="0.00000" height="197.6641" width="8" x="658.2974" y="1070.5469"/><line style="stroke:#181818;stroke-width:0.5;stroke-dasharray:5,5;" x1="661.7974" x2="661.7974" y1="1070.5469" y2="1268.2109"/></g><g><title>OAV</title><rect fill="#000000" fill-opacity="0.00000" height="940.7188" width="8" x="729.8926" y="89.0234"/><line style="stroke:#181818;stroke-width:0.5;stroke-dasharray:5,5;" x1="733.3926" x2="733.3926" y1="89.0234" y2="1029.7422"/></g><line style="stroke:#181818;stroke-width:0.5;stroke-dasharray:1,4;" x1="733.3926" x2="733.3926" y1="1029.7422" y2="1070.5469"/><g><title>OAV</title><rect fill="#000000" fill-opacity="0.00000" height="197.6641" width="8" x="729.8926" y="1070.5469"/><line style="stroke:#181818;stroke-width:0.5;stroke-dasharray:5,5;" x1="733.3926" x2="733.3926" y1="1070.5469" y2="1268.2109"/></g><g><title>Zebra</title><rect fill="#000000" fill-opacity="0.00000" height="940.7188" width="8" x="844.522" y="89.0234"/><line style="stroke:#181818;stroke-width:0.5;stroke-dasharray:5,5;" x1="848.022" x2="848.022" y1="89.0234" y2="1029.7422"/></g><line style="stroke:#181818;stroke-width:0.5;stroke-dasharray:1,4;" x1="848.022" x2="848.022" y1="1029.7422" y2="1070.5469"/><g><title>Zebra</title><rect fill="#000000" fill-opacity="0.00000" height="197.6641" width="8" x="844.522" y="1070.5469"/><line style="stroke:#181818;stroke-width:0.5;stroke-dasharray:5,5;" x1="848.022" x2="848.022" y1="1070.5469" y2="1268.2109"/></g><g><title/><rect fill="#FFFFFF" height="226.9297" style="stroke:#FFFFFF;stroke-width:1;" width="10" x="843.022" y="802.8125"/><line style="stroke:#181818;stroke-width:1;" x1="843.022" x2="843.022" y1="802.8125" y2="1029.7422"/><line style="stroke:#181818;stroke-width:1;" x1="853.022" x2="853.022" y1="802.8125" y2="1029.7422"/><line style="stroke:#181818;stroke-width:1;" x1="843.022" x2="853.022" y1="802.8125" y2="802.8125"/></g><g><title/><rect fill="#FFFFFF" height="179.6641" style="stroke:#FFFFFF;stroke-width:1;" width="10" x="843.022" y="1070.5469"/><line style="stroke:#181818;stroke-width:1;" x1="843.022" x2="843.022" y1="1070.5469" y2="1250.2109"/><line style="stroke:#181818;stroke-width:1;" x1="853.022" x2="853.022" y1="1070.5469" y2="1250.2109"/><line style="stroke:#181818;stroke-width:1;" x1="843.022" x2="853.022" y1="1250.2109" y2="1250.2109"/></g><g><title>Eiger</title><rect fill="#000000" fill-opacity="0.00000" height="940.7188" width="8" x="907.2305" y="89.0234"/><line style="stroke:#181818;stroke-width:0.5;stroke-dasharray:5,5;" x1="910.7305" x2="910.7305" y1="89.0234" y2="1029.7422"/></g><line style="stroke:#181818;stroke-width:0.5;stroke-dasharray:1,4;" x1="910.7305" x2="910.7305" y1="1029.7422" y2="1070.5469"/><g><title>Eiger</title><rect fill="#000000" fill-opacity="0.00000" height="197.6641" width="8" x="907.2305" y="1070.5469"/><line style="stroke:#181818;stroke-width:0.5;stroke-dasharray:5,5;" x1="910.7305" x2="910.7305" y1="1070.5469" y2="1268.2109"/></g><g><title/><rect fill="#FFFFFF" height="811.1875" style="stroke:#FFFFFF;stroke-width:1;" width="10" x="905.7305" y="218.5547"/><line style="stroke:#181818;stroke-width:1;" x1="905.7305" x2="905.7305" y1="218.5547" y2="1029.7422"/><line style="stroke:#181818;stroke-width:1;" x1="915.7305" x2="915.7305" y1="218.5547" y2="1029.7422"/><line style="stroke:#181818;stroke-width:1;" x1="905.7305" x2="915.7305" y1="218.5547" y2="218.5547"/></g><g><title/><rect fill="#FFFFFF" height="150.5313" style="stroke:#FFFFFF;stroke-width:1;" width="10" x="905.7305" y="1070.5469"/><line style="stroke:#181818;stroke-width:1;" x1="905.7305" x2="905.7305" y1="1070.5469" y2="1221.0781"/><line style="stroke:#181818;stroke-width:1;" x1="915.7305" x2="915.7305" y1="1070.5469" y2="1221.0781"/><line style="stroke:#181818;stroke-width:1;" x1="905.7305" x2="915.7305" y1="1221.0781" y2="1221.0781"/></g><g><title>Synchrotron</title><rect fill="#000000" fill-opacity="0.00000" height="940.7188" width="8" x="992.0361" y="89.0234"/><line style="stroke:#181818;stroke-width:0.5;stroke-dasharray:5,5;" x1="995.5361" x2="995.5361" y1="89.0234" y2="1029.7422"/></g><line style="stroke:#181818;stroke-width:0.5;stroke-dasharray:1,4;" x1="995.5361" x2="995.5361" y1="1029.7422" y2="1070.5469"/><g><title>Synchrotron</title><rect fill="#000000" fill-opacity="0.00000" height="197.6641" width="8" x="992.0361" y="1070.5469"/><line style="stroke:#181818;stroke-width:0.5;stroke-dasharray:5,5;" x1="995.5361" x2="995.5361" y1="1070.5469" y2="1268.2109"/></g><g><title/><rect fill="#FFFFFF" height="8" style="stroke:#FFFFFF;stroke-width:1;" width="10" x="990.5361" y="1021.7422"/><line style="stroke:#181818;stroke-width:1;" x1="990.5361" x2="990.5361" y1="1021.7422" y2="1029.7422"/><line style="stroke:#181818;stroke-width:1;" x1="1000.5361" x2="1000.5361" y1="1021.7422" y2="1029.7422"/><line style="stroke:#181818;stroke-width:1;" x1="990.5361" x2="1000.5361" y1="1021.7422" y2="1021.7422"/></g><g><title/><rect fill="#FFFFFF" height="6" style="stroke:#FFFFFF;stroke-width:1;" width="10" x="990.5361" y="1070.5469"/><line style="stroke:#181818;stroke-width:1;" x1="990.5361" x2="990.5361" y1="1070.5469" y2="1076.5469"/><line style="stroke:#181818;stroke-width:1;" x1="1000.5361" x2="1000.5361" y1="1070.5469" y2="1076.5469"/><line style="stroke:#181818;stroke-width:1;" x1="990.5361" x2="1000.5361" y1="1076.5469" y2="1076.5469"/></g><g><title>Rotation</title><rect fill="#000000" fill-opacity="0.00000" height="940.7188" width="8" x="1098.4355" y="89.0234"/><line style="stroke:#181818;stroke-width:0.5;stroke-dasharray:5,5;" x1="1101.9355" x2="1101.9355" y1="89.0234" y2="1029.7422"/></g><line style="stroke:#181818;stroke-width:0.5;stroke-dasharray:1,4;" x1="1101.9355" x2="1101.9355" y1="1029.7422" y2="1070.5469"/><g><title>Rotation</title><rect fill="#000000" fill-opacity="0.00000" height="197.6641" width="8" x="1098.4355" y="1070.5469"/><line style="stroke:#181818;stroke-width:0.5;stroke-dasharray:5,5;" x1="1101.9355" x2="1101.9355" y1="1070.5469" y2="1268.2109"/></g><g><title/><rect fill="#FFFFFF" height="721.7891" style="stroke:#FFFFFF;stroke-width:1;" width="10" x="1096.9355" y="307.9531"/><line style="stroke:#181818;stroke-width:1;" x1="1096.9355" x2="1096.9355" y1="307.9531" y2="1029.7422"/><line style="stroke:#181818;stroke-width:1;" x1="1106.9355" x2="1106.9355" y1="307.9531" y2="1029.7422"/><line style="stroke:#181818;stroke-width:1;" x1="1096.9355" x2="1106.9355" y1="307.9531" y2="307.9531"/></g><g><title/><rect fill="#FFFFFF" height="134.3984" style="stroke:#FFFFFF;stroke-width:1;" width="10" x="1096.9355" y="1070.5469"/><line style="stroke:#181818;stroke-width:1;" x1="1096.9355" x2="1096.9355" y1="1070.5469" y2="1204.9453"/><line style="stroke:#181818;stroke-width:1;" x1="1106.9355" x2="1106.9355" y1="1070.5469" y2="1204.9453"/><line style="stroke:#181818;stroke-width:1;" x1="1096.9355" x2="1106.9355" y1="1204.9453" y2="1204.9453"/></g><g><title/><rect fill="#FFFFFF" height="256.0625" style="stroke:#FFFFFF;stroke-width:1;" width="10" x="1101.9355" y="773.6797"/><line style="stroke:#181818;stroke-width:1;" x1="1101.9355" x2="1101.9355" y1="773.6797" y2="1029.7422"/><line style="stroke:#181818;stroke-width:1;" x1="1111.9355" x2="1111.9355" y1="773.6797" y2="1029.7422"/><line style="stroke:#181818;stroke-width:1;" x1="1101.9355" x2="1111.9355" y1="773.6797" y2="773.6797"/></g><g><title/><rect fill="#FFFFFF" height="107.3984" style="stroke:#FFFFFF;stroke-width:1;" width="10" x="1101.9355" y="1070.5469"/><line style="stroke:#181818;stroke-width:1;" x1="1101.9355" x2="1101.9355" y1="1070.5469" y2="1177.9453"/><line style="stroke:#181818;stroke-width:1;" x1="1111.9355" x2="1111.9355" y1="1070.5469" y2="1177.9453"/><line style="stroke:#181818;stroke-width:1;" x1="1101.9355" x2="1111.9355" y1="1177.9453" y2="1177.9453"/></g><g><title>Rotation</title><rect fill="#000000" fill-opacity="0.00000" height="940.7188" width="8" x="1181.6143" y="89.0234"/><line style="stroke:#181818;stroke-width:0.5;stroke-dasharray:5,5;" x1="1185.1143" x2="1185.1143" y1="89.0234" y2="1029.7422"/></g><line style="stroke:#181818;stroke-width:0.5;stroke-dasharray:1,4;" x1="1185.1143" x2="1185.1143" y1="1029.7422" y2="1070.5469"/><g><title>Rotation</title><rect fill="#000000" fill-opacity="0.00000" height="197.6641" width="8" x="1181.6143" y="1070.5469"/><line style="stroke:#181818;stroke-width:0.5;stroke-dasharray:5,5;" x1="1185.1143" x2="1185.1143" y1="1070.5469" y2="1268.2109"/></g><g><title/><rect fill="#FFFFFF" height="782.0547" style="stroke:#FFFFFF;stroke-width:1;" width="10" x="1180.1143" y="247.6875"/><line style="stroke:#181818;stroke-width:1;" x1="1180.1143" x2="1180.1143" y1="247.6875" y2="1029.7422"/><line style="stroke:#181818;stroke-width:1;" x1="1190.1143" x2="1190.1143" y1="247.6875" y2="1029.7422"/><line style="stroke:#181818;stroke-width:1;" x1="1180.1143" x2="1190.1143" y1="247.6875" y2="247.6875"/></g><g><title/><rect fill="#FFFFFF" height="192.6641" style="stroke:#FFFFFF;stroke-width:1;" width="10" x="1180.1143" y="1070.5469"/><line style="stroke:#181818;stroke-width:1;" x1="1180.1143" x2="1180.1143" y1="1070.5469" y2="1263.2109"/><line style="stroke:#181818;stroke-width:1;" x1="1190.1143" x2="1190.1143" y1="1070.5469" y2="1263.2109"/><line style="stroke:#181818;stroke-width:1;" x1="1180.1143" x2="1190.1143" y1="1263.2109" y2="1263.2109"/></g><g><title>XRC</title><rect fill="#000000" fill-opacity="0.00000" height="940.7188" width="8" x="1260.7939" y="89.0234"/><line style="stroke:#181818;stroke-width:0.5;stroke-dasharray:5,5;" x1="1264.2939" x2="1264.2939" y1="89.0234" y2="1029.7422"/></g><line style="stroke:#181818;stroke-width:0.5;stroke-dasharray:1,4;" x1="1264.2939" x2="1264.2939" y1="1029.7422" y2="1070.5469"/><g><title>XRC</title><rect fill="#000000" fill-opacity="0.00000" height="197.6641" width="8" x="1260.7939" y="1070.5469"/><line style="stroke:#181818;stroke-width:0.5;stroke-dasharray:5,5;" x1="1264.2939" x2="1264.2939" y1="1070.5469" y2="1268.2109"/></g><g><title/><rect fill="#FFFFFF" height="21.1328" style="stroke:#181818;stroke-width:1;" width="10" x="1259.2939" y="97.0234"/></g><g><title>Snapshot</title><rect fill="#000000" fill-opacity="0.00000" height="940.7188" width="8" x="1356.3867" y="89.0234"/><line style="stroke:#181818;stroke-width:0.5;stroke-dasharray:5,5;" x1="1359.8867" x2="1359.8867" y1="89.0234" y2="1029.7422"/></g><line style="stroke:#181818;stroke-width:0.5;stroke-dasharray:1,4;" x1="1359.8867" x2="1359.8867" y1="1029.7422" y2="1070.5469"/><g><title>Snapshot</title><rect fill="#000000" fill-opacity="0.00000" height="197.6641" width="8" x="1356.3867" y="1070.5469"/><line style="stroke:#181818;stroke-width:0.5;stroke-dasharray:5,5;" x1="1359.8867" x2="1359.8867" y1="1070.5469" y2="1268.2109"/></g><g><title/><rect fill="#FFFFFF" height="618.3906" style="stroke:#181818;stroke-width:1;" width="10" x="1354.8867" y="97.0234"/></g><rect fill="#E2E2F0" height="30.2969" rx="2.5" ry="2.5" style="stroke:#181818;stroke-width:0.5;" width="150.165" x="5" y="57.7266"/><text fill="#000000" font-family="sans-serif" font-size="14" lengthAdjust="spacing" textLength="136.165" x="12" y="77.7217">BlueSky RunEngine</text><rect fill="#E2E2F0" height="46.5938" rx="2.5" ry="2.5" style="stroke:#181818;stroke-width:0.5;" width="105.4922" x="354.3779" y="41.4297"/><text fill="#000000" font-family="sans-serif" font-size="14" lengthAdjust="spacing" textLength="61.5645" x="376.3418" y="61.4248">Aperture</text><text fill="#000000" font-family="sans-serif" font-size="14" lengthAdjust="spacing" textLength="91.4922" x="361.3779" y="77.7217">Scatterguard</text><rect fill="#E2E2F0" height="30.2969" rx="2.5" ry="2.5" style="stroke:#181818;stroke-width:0.5;" width="77.1846" x="469.8701" y="57.7266"/><text fill="#000000" font-family="sans-serif" font-size="14" lengthAdjust="spacing" textLength="63.1846" x="476.8701" y="77.7217">Smargon</text><rect fill="#E2E2F0" height="30.2969" rx="2.5" ry="2.5" style="stroke:#181818;stroke-width:0.5;" width="55.2344" x="557.0547" y="57.7266"/><text fill="#000000" font-family="sans-serif" font-size="14" lengthAdjust="spacing" textLength="41.2344" x="564.0547" y="77.7217">Robot</text><rect fill="#E2E2F0" height="30.2969" rx="2.5" ry="2.5" style="stroke:#181818;stroke-width:0.5;" width="79.0166" x="622.2891" y="57.7266"/><text fill="#000000" font-family="sans-serif" font-size="14" lengthAdjust="spacing" textLength="65.0166" x="629.2891" y="77.7217">Backlight</text><rect fill="#E2E2F0" height="30.2969" rx="2.5" ry="2.5" style="stroke:#181818;stroke-width:0.5;" width="44.1738" x="711.3057" y="57.7266"/><text fill="#000000" font-family="sans-serif" font-size="14" lengthAdjust="spacing" textLength="30.1738" x="718.3057" y="77.7217">OAV</text><rect fill="#E2E2F0" height="30.2969" rx="2.5" ry="2.5" style="stroke:#181818;stroke-width:0.5;" width="55.4258" x="820.3091" y="57.7266"/><text fill="#000000" font-family="sans-serif" font-size="14" lengthAdjust="spacing" textLength="41.4258" x="827.3091" y="77.7217">Zebra</text><rect fill="#E2E2F0" height="30.2969" rx="2.5" ry="2.5" style="stroke:#181818;stroke-width:0.5;" width="49.9912" x="885.7349" y="57.7266"/><text fill="#000000" font-family="sans-serif" font-size="14" lengthAdjust="spacing" textLength="35.9912" x="892.7349" y="77.7217">Eiger</text><rect fill="#E2E2F0" height="30.2969" rx="2.5" ry="2.5" style="stroke:#181818;stroke-width:0.5;" width="99.6201" x="945.7261" y="57.7266"/><text fill="#000000" font-family="sans-serif" font-size="14" lengthAdjust="spacing" textLength="85.6201" x="952.7261" y="77.7217">Synchrotron</text><rect fill="#E2E2F0" height="46.5938" rx="2.5" ry="2.5" style="stroke:#181818;stroke-width:0.5;" width="73.1787" x="1065.3462" y="41.4297"/><text fill="#000000" font-family="sans-serif" font-size="14" lengthAdjust="spacing" textLength="59.1787" x="1072.3462" y="61.4248">Rotation</text><text fill="#000000" font-family="sans-serif" font-size="14" lengthAdjust="spacing" textLength="39.3477" x="1082.2617" y="77.7217">ISPyB</text><rect fill="#E2E2F0" height="46.5938" rx="2.5" ry="2.5" style="stroke:#181818;stroke-width:0.5;" width="73.1787" x="1148.5249" y="41.4297"/><text fill="#000000" font-family="sans-serif" font-size="14" lengthAdjust="spacing" textLength="59.1787" x="1155.5249" y="61.4248">Rotation</text><text fill="#000000" font-family="sans-serif" font-size="14" lengthAdjust="spacing" textLength="43.5381" x="1163.3452" y="77.7217">Nexus</text><rect fill="#E2E2F0" height="46.5938" rx="2.5" ry="2.5" style="stroke:#181818;stroke-width:0.5;" width="65.1807" x="1231.7036" y="41.4297"/><text fill="#000000" font-family="sans-serif" font-size="14" lengthAdjust="spacing" textLength="29.0938" x="1249.7471" y="61.4248">XRC</text><text fill="#000000" font-family="sans-serif" font-size="14" lengthAdjust="spacing" textLength="51.1807" x="1238.7036" y="77.7217">Results</text><rect fill="#E2E2F0" height="62.8906" rx="2.5" ry="2.5" style="stroke:#181818;stroke-width:0.5;" width="106.0049" x="1306.8843" y="25.1328"/><text fill="#000000" font-family="sans-serif" font-size="14" lengthAdjust="spacing" textLength="65.4473" x="1327.1631" y="45.1279">Snapshot</text><text fill="#000000" font-family="sans-serif" font-size="14" lengthAdjust="spacing" textLength="92.0049" x="1313.8843" y="61.4248">Beam Centre</text><text fill="#000000" font-family="sans-serif" font-size="14" lengthAdjust="spacing" textLength="76.7744" x="1321.4995" y="77.7217">Annotation</text><rect fill="#E2E2F0" height="30.2969" rx="2.5" ry="2.5" style="stroke:#181818;stroke-width:0.5;" width="150.165" x="5" y="1268.2109"/><text fill="#000000" font-family="sans-serif" font-size="14" lengthAdjust="spacing" textLength="136.165" x="12" y="1288.2061">BlueSky RunEngine</text><rect fill="#E2E2F0" height="46.5938" rx="2.5" ry="2.5" style="stroke:#181818;stroke-width:0.5;" width="105.4922" x="354.3779" y="1268.2109"/><text fill="#000000" font-family="sans-serif" font-size="14" lengthAdjust="spacing" textLength="61.5645" x="376.3418" y="1288.2061">Aperture</text><text fill="#000000" font-family="sans-serif" font-size="14" lengthAdjust="spacing" textLength="91.4922" x="361.3779" y="1304.5029">Scatterguard</text><rect fill="#E2E2F0" height="30.2969" rx="2.5" ry="2.5" style="stroke:#181818;stroke-width:0.5;" width="77.1846" x="469.8701" y="1268.2109"/><text fill="#000000" font-family="sans-serif" font-size="14" lengthAdjust="spacing" textLength="63.1846" x="476.8701" y="1288.2061">Smargon</text><rect fill="#E2E2F0" height="30.2969" rx="2.5" ry="2.5" style="stroke:#181818;stroke-width:0.5;" width="55.2344" x="557.0547" y="1268.2109"/><text fill="#000000" font-family="sans-serif" font-size="14" lengthAdjust="spacing" textLength="41.2344" x="564.0547" y="1288.2061">Robot</text><rect fill="#E2E2F0" height="30.2969" rx="2.5" ry="2.5" style="stroke:#181818;stroke-width:0.5;" width="79.0166" x="622.2891" y="1268.2109"/><text fill="#000000" font-family="sans-serif" font-size="14" lengthAdjust="spacing" textLength="65.0166" x="629.2891" y="1288.2061">Backlight</text><rect fill="#E2E2F0" height="30.2969" rx="2.5" ry="2.5" style="stroke:#181818;stroke-width:0.5;" width="44.1738" x="711.3057" y="1268.2109"/><text fill="#000000" font-family="sans-serif" font-size="14" lengthAdjust="spacing" textLength="30.1738" x="718.3057" y="1288.2061">OAV</text><rect fill="#E2E2F0" height="30.2969" rx="2.5" ry="2.5" style="stroke:#181818;stroke-width:0.5;" width="55.4258" x="820.3091" y="1268.2109"/><text fill="#000000" font-family="sans-serif" font-size="14" lengthAdjust="spacing" textLength="41.4258" x="827.3091" y="1288.2061">Zebra</text><rect fill="#E2E2F0" height="30.2969" rx="2.5" ry="2.5" style="stroke:#181818;stroke-width:0.5;" width="49.9912" x="885.7349" y="1268.2109"/><text fill="#000000" font-family="sans-serif" font-size="14" lengthAdjust="spacing" textLength="35.9912" x="892.7349" y="1288.2061">Eiger</text><rect fill="#E2E2F0" height="30.2969" rx="2.5" ry="2.5" style="stroke:#181818;stroke-width:0.5;" width="99.6201" x="945.7261" y="1268.2109"/><text fill="#000000" font-family="sans-serif" font-size="14" lengthAdjust="spacing" textLength="85.6201" x="952.7261" y="1288.2061">Synchrotron</text><rect fill="#E2E2F0" height="46.5938" rx="2.5" ry="2.5" style="stroke:#181818;stroke-width:0.5;" width="73.1787" x="1065.3462" y="1268.2109"/><text fill="#000000" font-family="sans-serif" font-size="14" lengthAdjust="spacing" textLength="59.1787" x="1072.3462" y="1288.2061">Rotation</text><text fill="#000000" font-family="sans-serif" font-size="14" lengthAdjust="spacing" textLength="39.3477" x="1082.2617" y="1304.5029">ISPyB</text><rect fill="#E2E2F0" height="46.5938" rx="2.5" ry="2.5" style="stroke:#181818;stroke-width:0.5;" width="73.1787" x="1148.5249" y="1268.2109"/><text fill="#000000" font-family="sans-serif" font-size="14" lengthAdjust="spacing" textLength="59.1787" x="1155.5249" y="1288.2061">Rotation</text><text fill="#000000" font-family="sans-serif" font-size="14" lengthAdjust="spacing" textLength="43.5381" x="1163.3452" y="1304.5029">Nexus</text><rect fill="#E2E2F0" height="46.5938" rx="2.5" ry="2.5" style="stroke:#181818;stroke-width:0.5;" width="65.1807" x="1231.7036" y="1268.2109"/><text fill="#000000" font-family="sans-serif" font-size="14" lengthAdjust="spacing" textLength="29.0938" x="1249.7471" y="1288.2061">XRC</text><text fill="#000000" font-family="sans-serif" font-size="14" lengthAdjust="spacing" textLength="51.1807" x="1238.7036" y="1304.5029">Results</text><rect fill="#E2E2F0" height="62.8906" rx="2.5" ry="2.5" style="stroke:#181818;stroke-width:0.5;" width="106.0049" x="1306.8843" y="1268.2109"/><text fill="#000000" font-family="sans-serif" font-size="14" lengthAdjust="spacing" textLength="65.4473" x="1327.1631" y="1288.2061">Snapshot</text><text fill="#000000" font-family="sans-serif" font-size="14" lengthAdjust="spacing" textLength="92.0049" x="1313.8843" y="1304.5029">Beam Centre</text><text fill="#000000" font-family="sans-serif" font-size="14" lengthAdjust="spacing" textLength="76.7744" x="1321.4995" y="1320.7998">Annotation</text><polygon fill="#181818" points="91.0825,114.1563,81.0825,118.1563,91.0825,122.1563,87.0825,118.1563" style="stroke:#181818;stroke-width:1;"/><line style="stroke:#181818;stroke-width:1;" x1="85.0825" x2="1258.2939" y1="118.1563" y2="118.1563"/><text fill="#000000" font-family="sans-serif" font-size="13" lengthAdjust="spacing" textLength="138.2266" x="97.0825" y="113.0903">results from gridscan</text><polygon fill="#181818" points="898.7305,143.2891,908.7305,147.2891,898.7305,151.2891,902.7305,147.2891" style="stroke:#181818;stroke-width:1;"/><line style="stroke:#181818;stroke-width:1;" x1="80.0825" x2="904.7305" y1="147.2891" y2="147.2891"/><text fill="#000000" font-family="sans-serif" font-size="13" lengthAdjust="spacing" textLength="178.2358" x="87.0825" y="142.2231">configure eiger parameters</text><line style="stroke:#181818;stroke-width:1;" x1="80.0825" x2="127.0825" y1="176.4219" y2="176.4219"/><line style="stroke:#181818;stroke-width:1;" x1="127.0825" x2="127.0825" y1="176.4219" y2="189.4219"/><line style="stroke:#181818;stroke-width:1;" x1="86.0825" x2="127.0825" y1="189.4219" y2="189.4219"/><polygon fill="#181818" points="96.0825,185.4219,86.0825,189.4219,96.0825,193.4219,92.0825,189.4219" style="stroke:#181818;stroke-width:1;"/><text fill="#000000" font-family="sans-serif" font-size="13" lengthAdjust="spacing" textLength="298.0415" x="92.0825" y="171.356">start_preparing_data_collection_then_do_plan</text><polygon fill="#181818" points="893.7305,214.5547,903.7305,218.5547,893.7305,222.5547,897.7305,218.5547" style="stroke:#181818;stroke-width:1;"/><line style="stroke:#181818;stroke-width:1;" x1="85.0825" x2="899.7305" y1="218.5547" y2="218.5547"/><text fill="#000000" font-family="sans-serif" font-size="13" lengthAdjust="spacing" textLength="143.292" x="92.0825" y="213.4888">start arming the eiger</text><polygon fill="#181818" points="1168.1143,243.6875,1178.1143,247.6875,1168.1143,251.6875,1172.1143,247.6875" style="stroke:#181818;stroke-width:1;"/><line style="stroke:#181818;stroke-width:1;" x1="85.0825" x2="1174.1143" y1="247.6875" y2="247.6875"/><text fill="#000000" font-family="sans-serif" font-size="13" lengthAdjust="spacing" textLength="166.1943" x="92.0825" y="242.6216">send rotation parameters</text><path d="M45.0825,259.6875 L121.7065,259.6875 L121.7065,266.8203 L111.7065,276.8203 L45.0825,276.8203 L45.0825,259.6875" fill="#EEEEEE" style="stroke:#000000;stroke-width:1.5;"/><rect fill="none" height="926.2578" style="stroke:#000000;stroke-width:1.5;" width="1503.5601" x="45.0825" y="259.6875"/><text fill="#000000" font-family="sans-serif" font-size="13" font-weight="bold" lengthAdjust="spacing" textLength="31.624" x="60.0825" y="272.7544">loop</text><text fill="#000000" font-family="sans-serif" font-size="11" font-weight="bold" lengthAdjust="spacing" textLength="114.7964" x="136.7065" y="271.8979">[for each rotation]</text><polygon fill="#181818" points="1084.9355,303.9531,1094.9355,307.9531,1084.9355,311.9531,1088.9355,307.9531" style="stroke:#181818;stroke-width:1;"/><line style="stroke:#181818;stroke-width:1;" x1="85.0825" x2="1090.9355" y1="307.9531" y2="307.9531"/><text fill="#000000" font-family="sans-serif" font-size="13" lengthAdjust="spacing" textLength="299.7363" x="92.0825" y="302.8872">send rotation parameters (ROTATION_OUTER)</text><polygon fill="#181818" points="1168.1143,303.9531,1178.1143,307.9531,1168.1143,311.9531,1172.1143,307.9531" style="stroke:#181818;stroke-width:1;"/><line style="stroke:#181818;stroke-width:1;" x1="1106.9355" x2="1174.1143" y1="307.9531" y2="307.9531"/><polygon fill="#181818" points="496.4624,333.0859,506.4624,337.0859,496.4624,341.0859,500.4624,337.0859" style="stroke:#181818;stroke-width:1;"/><line style="stroke:#181818;stroke-width:1;" x1="85.0825" x2="502.4624" y1="337.0859" y2="337.0859"/><text fill="#000000" font-family="sans-serif" font-size="13" lengthAdjust="spacing" textLength="127.9497" x="92.0825" y="332.02">move to xtal centre</text><line style="stroke:#181818;stroke-width:1;" x1="85.0825" x2="127.0825" y1="366.2188" y2="366.2188"/><line style="stroke:#181818;stroke-width:1;" x1="127.0825" x2="127.0825" y1="366.2188" y2="379.2188"/><line style="stroke:#181818;stroke-width:1;" x1="86.0825" x2="127.0825" y1="379.2188" y2="379.2188"/><polygon fill="#181818" points="96.0825,375.2188,86.0825,379.2188,96.0825,383.2188,92.0825,379.2188" style="stroke:#181818;stroke-width:1;"/><text fill="#000000" font-family="sans-serif" font-size="13" lengthAdjust="spacing" textLength="157.6885" x="92.0825" y="361.1528">setup_beamline_for_oav</text><path d="M90.0825,392.2188 L90.0825,417.2188 L442.0825,417.2188 L442.0825,402.2188 L432.0825,392.2188 L90.0825,392.2188" fill="#FEFFDD" style="stroke:#181818;stroke-width:0.5;"/><path d="M432.0825,392.2188 L432.0825,402.2188 L442.0825,402.2188 L432.0825,392.2188" fill="#FEFFDD" style="stroke:#181818;stroke-width:0.5;"/><text fill="#000000" font-family="sans-serif" font-size="13" lengthAdjust="spacing" textLength="331.8237" x="96.0825" y="409.2856">(if snapshots not derived from gridscan snapshots)</text><polygon fill="#181818" points="390.124,439.4844,400.124,443.4844,390.124,447.4844,394.124,443.4844" style="stroke:#181818;stroke-width:1;"/><line style="stroke:#181818;stroke-width:1;" x1="85.0825" x2="396.124" y1="443.4844" y2="443.4844"/><text fill="#000000" font-family="sans-serif" font-size="13" lengthAdjust="spacing" textLength="111.5283" x="92.0825" y="438.4185">prepare aperture</text><line style="stroke:#181818;stroke-width:1;" x1="85.0825" x2="132.0825" y1="472.6172" y2="472.6172"/><line style="stroke:#181818;stroke-width:1;" x1="132.0825" x2="132.0825" y1="472.6172" y2="485.6172"/><line style="stroke:#181818;stroke-width:1;" x1="91.0825" x2="132.0825" y1="485.6172" y2="485.6172"/><polygon fill="#181818" points="101.0825,481.6172,91.0825,485.6172,101.0825,489.6172,97.0825,485.6172" style="stroke:#181818;stroke-width:1;"/><text fill="#000000" font-family="sans-serif" font-size="13" lengthAdjust="spacing" textLength="123.9761" x="97.0825" y="467.5513">oav_snapshot_plan</text><path d="M64.0825,497.6172 L140.7065,497.6172 L140.7065,504.75 L130.7065,514.75 L64.0825,514.75 L64.0825,497.6172" fill="#EEEEEE" style="stroke:#000000;stroke-width:1.5;"/><rect fill="none" height="198.7969" style="stroke:#000000;stroke-width:1.5;" width="1459.5601" x="64.0825" y="497.6172"/><text fill="#000000" font-family="sans-serif" font-size="13" font-weight="bold" lengthAdjust="spacing" textLength="31.624" x="79.0825" y="510.6841">loop</text><text fill="#000000" font-family="sans-serif" font-size="11" font-weight="bold" lengthAdjust="spacing" textLength="121.5854" x="155.7065" y="509.8276">[for each snapshot]</text><polygon fill="#181818" points="496.4624,541.8828,506.4624,545.8828,496.4624,549.8828,500.4624,545.8828" style="stroke:#181818;stroke-width:1;"/><line style="stroke:#181818;stroke-width:1;" x1="90.0825" x2="502.4624" y1="545.8828" y2="545.8828"/><text fill="#000000" font-family="sans-serif" font-size="13" lengthAdjust="spacing" textLength="39.457" x="97.0825" y="540.8169">rotate</text><polygon fill="#181818" points="721.3926,571.0156,731.3926,575.0156,721.3926,579.0156,725.3926,575.0156" style="stroke:#181818;stroke-width:1;"/><line style="stroke:#181818;stroke-width:1;" x1="90.0825" x2="727.3926" y1="575.0156" y2="575.0156"/><text fill="#000000" font-family="sans-serif" font-size="13" lengthAdjust="spacing" textLength="354.3896" x="97.0825" y="569.9497">configure + trigger snapshot (if taking real snapshots)</text><line style="stroke:#181818;stroke-width:1;" x1="733.3926" x2="775.3926" y1="604.1484" y2="604.1484"/><line style="stroke:#181818;stroke-width:1;" x1="775.3926" x2="775.3926" y1="604.1484" y2="617.1484"/><line style="stroke:#181818;stroke-width:1;" x1="734.3926" x2="775.3926" y1="617.1484" y2="617.1484"/><polygon fill="#181818" points="744.3926,613.1484,734.3926,617.1484,744.3926,621.1484,740.3926,617.1484" style="stroke:#181818;stroke-width:1;"/><text fill="#000000" font-family="sans-serif" font-size="13" lengthAdjust="spacing" textLength="100.6294" x="740.3926" y="599.0825">save snapshots</text><polygon fill="#181818" points="1084.9355,642.2813,1094.9355,646.2813,1084.9355,650.2813,1088.9355,646.2813" style="stroke:#181818;stroke-width:1;"/><line style="stroke:#181818;stroke-width:1;" x1="90.0825" x2="1090.9355" y1="646.2813" y2="646.2813"/><text fill="#000000" font-family="sans-serif" font-size="13" lengthAdjust="spacing" textLength="163.4775" x="97.0825" y="641.2153">generate snapshot event</text><polygon fill="#181818" points="1342.8867,642.2813,1352.8867,646.2813,1342.8867,650.2813,1346.8867,646.2813" style="stroke:#181818;stroke-width:1;"/><line style="stroke:#181818;stroke-width:1;" x1="90.0825" x2="1348.8867" y1="646.2813" y2="646.2813"/><line style="stroke:#181818;stroke-width:1;" x1="1364.8867" x2="1406.8867" y1="675.4141" y2="675.4141"/><line style="stroke:#181818;stroke-width:1;" x1="1406.8867" x2="1406.8867" y1="675.4141" y2="688.4141"/><line style="stroke:#181818;stroke-width:1;" x1="1365.8867" x2="1406.8867" y1="688.4141" y2="688.4141"/><polygon fill="#181818" points="1375.8867,684.4141,1365.8867,688.4141,1375.8867,692.4141,1371.8867,688.4141" style="stroke:#181818;stroke-width:1;"/><text fill="#000000" font-family="sans-serif" font-size="13" lengthAdjust="spacing" textLength="128.7559" x="1371.8867" y="670.3481">annotate snapshots</text><line style="stroke:#181818;stroke-width:1;" x1="85.0825" x2="132.0825" y1="731.5469" y2="731.5469"/><line style="stroke:#181818;stroke-width:1;" x1="132.0825" x2="132.0825" y1="731.5469" y2="744.5469"/><line style="stroke:#181818;stroke-width:1;" x1="91.0825" x2="132.0825" y1="744.5469" y2="744.5469"/><polygon fill="#181818" points="101.0825,740.5469,91.0825,744.5469,101.0825,748.5469,97.0825,744.5469" style="stroke:#181818;stroke-width:1;"/><text fill="#000000" font-family="sans-serif" font-size="13" lengthAdjust="spacing" textLength="122.459" x="97.0825" y="726.481">rotation_scan_plan</text><polygon fill="#181818" points="1089.9355,769.6797,1099.9355,773.6797,1089.9355,777.6797,1093.9355,773.6797" style="stroke:#181818;stroke-width:1;"/><line style="stroke:#181818;stroke-width:1;" x1="90.0825" x2="1095.9355" y1="773.6797" y2="773.6797"/><text fill="#000000" font-family="sans-serif" font-size="13" lengthAdjust="spacing" textLength="274.3013" x="97.0825" y="768.6138">send scan points (ROTATION_SCAN_MAIN)</text><polygon fill="#181818" points="831.022,798.8125,841.022,802.8125,831.022,806.8125,835.022,802.8125" style="stroke:#181818;stroke-width:1;"/><line style="stroke:#181818;stroke-width:1;" x1="90.0825" x2="837.022" y1="802.8125" y2="802.8125"/><text fill="#000000" font-family="sans-serif" font-size="13" lengthAdjust="spacing" textLength="179.2832" x="97.0825" y="797.7466">configure zebra for rotation</text><line style="stroke:#181818;stroke-width:1;" x1="90.0825" x2="137.0825" y1="831.9453" y2="831.9453"/><line style="stroke:#181818;stroke-width:1;" x1="137.0825" x2="137.0825" y1="831.9453" y2="844.9453"/><line style="stroke:#181818;stroke-width:1;" x1="96.0825" x2="137.0825" y1="844.9453" y2="844.9453"/><polygon fill="#181818" points="106.0825,840.9453,96.0825,844.9453,106.0825,848.9453,102.0825,844.9453" style="stroke:#181818;stroke-width:1;"/><text fill="#000000" font-family="sans-serif" font-size="13" lengthAdjust="spacing" textLength="179.7021" x="102.0825" y="826.8794">setup_sample_environment</text><polygon fill="#181818" points="649.7974,870.0781,659.7974,874.0781,649.7974,878.0781,653.7974,874.0781" style="stroke:#181818;stroke-width:1;"/><line style="stroke:#181818;stroke-width:1;" x1="95.0825" x2="655.7974" y1="874.0781" y2="874.0781"/><text fill="#000000" font-family="sans-serif" font-size="13" lengthAdjust="spacing" textLength="125.5693" x="102.0825" y="869.0122">move backlight out</text><polygon fill="#181818" points="106.0825,899.2109,96.0825,903.2109,106.0825,907.2109,102.0825,903.2109" style="stroke:#181818;stroke-width:1;"/><line style="stroke:#181818;stroke-width:1;" x1="100.0825" x2="401.124" y1="903.2109" y2="903.2109"/><text fill="#000000" font-family="sans-serif" font-size="13" lengthAdjust="spacing" textLength="172.104" x="112.0825" y="898.145">select aperture completed</text><polygon fill="#181818" points="496.4624,928.3438,506.4624,932.3438,496.4624,936.3438,500.4624,932.3438" style="stroke:#181818;stroke-width:1;"/><line style="stroke:#181818;stroke-width:1;" x1="90.0825" x2="502.4624" y1="932.3438" y2="932.3438"/><text fill="#000000" font-family="sans-serif" font-size="13" lengthAdjust="spacing" textLength="74.8071" x="97.0825" y="927.2778">set velocity</text><polygon fill="#181818" points="831.022,957.4766,841.022,961.4766,831.022,965.4766,835.022,961.4766" style="stroke:#181818;stroke-width:1;"/><line style="stroke:#181818;stroke-width:1;" x1="90.0825" x2="837.022" y1="961.4766" y2="961.4766"/><text fill="#000000" font-family="sans-serif" font-size="13" lengthAdjust="spacing" textLength="87.5405" x="97.0825" y="956.4106">arm zebra PC</text><path d="M64.0825,973.4766 L133.5337,973.4766 L133.5337,980.6094 L123.5337,990.6094 L64.0825,990.6094 L64.0825,973.4766" fill="#EEEEEE" style="stroke:#000000;stroke-width:1.5;"/><rect fill="none" height="111.0703" style="stroke:#000000;stroke-width:1.5;" width="952.4536" x="64.0825" y="973.4766"/><text fill="#000000" font-family="sans-serif" font-size="13" font-weight="bold" lengthAdjust="spacing" textLength="24.4512" x="79.0825" y="986.5435">opt</text><text fill="#000000" font-family="sans-serif" font-size="11" font-weight="bold" lengthAdjust="spacing" textLength="98.4897" x="148.5337" y="985.687">[wait for topup]</text><polygon fill="#181818" points="978.5361,1017.7422,988.5361,1021.7422,978.5361,1025.7422,982.5361,1021.7422" style="stroke:#181818;stroke-width:1;"/><line style="stroke:#181818;stroke-width:1;" x1="90.0825" x2="984.5361" y1="1021.7422" y2="1021.7422"/><text fill="#000000" font-family="sans-serif" font-size="13" lengthAdjust="spacing" textLength="299.6411" x="97.0825" y="1016.6763">check synchrotron status vs desired exposure</text><text fill="#000000" font-family="sans-serif" font-size="11" lengthAdjust="spacing" textLength="223.3193" x="608.325" y="1053.9526">wait until topup is complete if necessary</text><polygon fill="#181818" points="101.0825,1072.5469,91.0825,1076.5469,101.0825,1080.5469,97.0825,1076.5469" style="stroke:#181818;stroke-width:1;"/><line style="stroke:#181818;stroke-width:1;stroke-dasharray:2,2;" x1="95.0825" x2="989.5361" y1="1076.5469" y2="1076.5469"/><polygon fill="#181818" points="496.4624,1115.6797,506.4624,1119.6797,496.4624,1123.6797,500.4624,1119.6797" style="stroke:#181818;stroke-width:1;"/><line style="stroke:#181818;stroke-width:1;" x1="90.0825" x2="502.4624" y1="1119.6797" y2="1119.6797"/><text fill="#000000" font-family="sans-serif" font-size="13" lengthAdjust="spacing" textLength="78.1587" x="97.0825" y="1114.6138">trigger scan</text><polygon fill="#181818" points="1089.9355,1144.8125,1099.9355,1148.8125,1089.9355,1152.8125,1093.9355,1148.8125" style="stroke:#181818;stroke-width:1;"/><line style="stroke:#181818;stroke-width:1;" x1="90.0825" x2="1095.9355" y1="1148.8125" y2="1148.8125"/><text fill="#000000" font-family="sans-serif" font-size="13" lengthAdjust="spacing" textLength="175.7666" x="97.0825" y="1143.7466">read hardware during scan</text><polygon fill="#181818" points="1168.1143,1144.8125,1178.1143,1148.8125,1168.1143,1152.8125,1172.1143,1148.8125" style="stroke:#181818;stroke-width:1;"/><line style="stroke:#181818;stroke-width:1;" x1="5" x2="1174.1143" y1="1148.8125" y2="1148.8125"/><polygon fill="#181818" points="1089.9355,1173.9453,1099.9355,1177.9453,1089.9355,1181.9453,1093.9355,1177.9453" style="stroke:#181818;stroke-width:1;"/><line style="stroke:#181818;stroke-width:1;" x1="85.0825" x2="1095.9355" y1="1177.9453" y2="1177.9453"/><text fill="#000000" font-family="sans-serif" font-size="13" lengthAdjust="spacing" textLength="170.1172" x="92.0825" y="1172.8794">record subplan exit status</text><polygon fill="#181818" points="96.0825,1217.0781,86.0825,1221.0781,96.0825,1225.0781,92.0825,1221.0781" style="stroke:#181818;stroke-width:1;"/><line style="stroke:#181818;stroke-width:1;" x1="90.0825" x2="904.7305" y1="1221.0781" y2="1221.0781"/><text fill="#000000" font-family="sans-serif" font-size="13" lengthAdjust="spacing" textLength="89.9019" x="102.0825" y="1216.0122">unstage eiger</text><polygon fill="#181818" points="831.022,1246.2109,841.022,1250.2109,831.022,1254.2109,835.022,1250.2109" style="stroke:#181818;stroke-width:1;"/><line style="stroke:#181818;stroke-width:1;" x1="85.0825" x2="837.022" y1="1250.2109" y2="1250.2109"/><text fill="#000000" font-family="sans-serif" font-size="13" lengthAdjust="spacing" textLength="65.1714" x="92.0825" y="1245.145">tidy zebra</text><?plantuml-src bLPBRziu4BxxLyocGDeWI7hFOG77DR0vR5p8QL4K1WHQ6ij4998WASNkh--Gb6GzqrqU4fdyvltDa7yfpRA2WKNv2wmkSQ6OjZpXYWaBLuzvYTlNCqIbM8kC2xm2PY1QB_Ro15SRTJwci3HdaS0Nh7Y2vgellrIeRQbn9xO9inPrLZATUYLCnIRhexS5qvaK_jY4xpuWadjf_R5sNmDVMVAQy-mO0FlcLn-qMNxtnv9L_OEVkDVC7_roN_t3DSzG-qDqNmElAVoZbbOtdbz-Br2aGAaAwLgnF7Tk3PCKISiibs8ddhPVpuyXnVMUtvc3F-EfD3quPJdizaL-HAkTYD2KkGtu7n4xhr1OZUkA_lt3H9gFuX9CcQEqE_68h800tucb4BKnhycTVT7iZOkiYQ-DUi4IoojcSSvUUpwbPLe6xluc_i43w10E7BGi8DCyDHJx8iK_sLoGDEdmXIGrYHG7dX55wnrA0IkGc6eQ9FszlIMaiPITM6aa2FaPfyooE95vZedBHcoFAE9KnYedFu1Mrz150p1Ta3WGl6RJ1JigOotd4ghhiww7JZANKi51Qg38ZotA7uqLUpgHqdcTy2dQl2nVdZRFyURRopgwQJLT3xHC-JimMpSnXL382i5AE5cMG-AhCdHnxIErfOhtn8QSXarCOSMkKniaCGz1kwu6UGWId_W1JCrKum2GekOLfdrYN30t0xj-3eKyXzeYROMfDVQGO1yEXvGMmScpk55xgNgp-dLfS3t8LA9yIN06HXPxbBsbaSqpnwz6ly-7PQ-EOHefrnDnDyjfQvKQHWLgmJFs-mHuW0m5QjThhNbqhJQIlgxbfzfyY9t0p8YI0omCepdFYUEztvtfy9uh7HZv_VdZkDBmyVCVoD6qLkpODsR7T5islUuPgoGNjjkFszNoEVvt-VHyCw7Atrf1nOKVOTEHS3GN9ZnFQBKzQ5YXSenHL9mkicAgga6ylMYRBhzio78i5DejcBsxy-RS06rxZhntXYtELYwKPCxBRcMc-elaeC9S9joUPzFuu8Pq_VrrrOD9PU6DSUkpQgKgrLnBNvu1TLcEI9pjRjDzO6d6LuR2CrpJpCAJagOxUPfrVt_lhPR2yZpO1MxQP05rlK1wVnccpuGToMjAbnRmRdSCKzNEbkG_aDTTo2o58ptltjmCJKjtIOvbhz-_DqPr7lVHHE-DF4cafYugznwF9qfSoFMadTvJgqwCCprzipRctzVWB_qEoqj13cJZ6x_Xc-NfkNvv3fHFReuJE6wG__5SePX-0m00?></g></svg>