<?plantuml 1.2026.3beta3?><svg xmlns="http://www.w3.org/2000/svg" xmlns:xlink="http://www.w3.org/1999/xlink" contentStyleType="text/css" data-diagram-type="SEQUENCE" height="1358px" preserveAspectRatio="none" style="width:1573px;height:1358px;background:#FFFFFF;" version="1.1" viewBox="0 0 1573 1358" width="1573px" zoomAndPan="magnify"><defs/><g><rect fill="#DDDDDD" height="1332.1016" style="stroke:#181818;stroke-width:0.5;" width="698.9683" x="355.3779" y="11"/><text fill="#000000" font-family="sans-serif" font-size="13" font-weight="bold" lengthAdjust="spacing" textLength="156.4761" x="626.624" y="23.0669">Opyhd Async Devices</text><rect fill="#DDDDDD" height="1332.1016" style="stroke:#181818;stroke-width:0.5;" width="355.543" x="1066.3462" y="11"/><text fill="#000000" font-family="sans-serif" font-size="13" font-weight="bold" lengthAdjust="spacing" textLength="69.3926" x="1209.4214" y="23.0669">Callbacks</text><g><title>BlueSky RunEngine</title><rect fill="#000000" fill-opacity="0.00000" height="940.7188" width="8" x="81.5825" y="94.0234"/><line style="stroke:#181818;stroke-width:0.5;stroke-dasharray:5,5;" x1="85.0825" x2="85.0825" y1="94.0234" y2="1034.7422"/></g><line style="stroke:#181818;stroke-width:0.5;stroke-dasharray:1,4;" x1="85.0825" x2="85.0825" y1="1034.7422" y2="1075.5469"/><g><title>BlueSky RunEngine</title><rect fill="#000000" fill-opacity="0.00000" height="197.6641" width="8" x="81.5825" y="1075.5469"/><line style="stroke:#181818;stroke-width:0.5;stroke-dasharray:5,5;" x1="85.0825" x2="85.0825" y1="1075.5469" y2="1273.2109"/></g><g><title/><rect fill="#FFFFFF" height="840.3203" style="stroke:#FFFFFF;stroke-width:1;" width="10" x="80.0825" y="194.4219"/><line style="stroke:#181818;stroke-width:1;" x1="80.0825" x2="80.0825" y1="194.4219" y2="1034.7422"/><line style="stroke:#181818;stroke-width:1;" x1="90.0825" x2="90.0825" y1="194.4219" y2="1034.7422"/><line style="stroke:#181818;stroke-width:1;" x1="80.0825" x2="90.0825" y1="194.4219" y2="194.4219"/></g><g><title/><rect fill="#FFFFFF" height="179.6641" style="stroke:#FFFFFF;stroke-width:1;" width="10" x="80.0825" y="1075.5469"/><line style="stroke:#181818;stroke-width:1;" x1="80.0825" x2="80.0825" y1="1075.5469" y2="1255.2109"/><line style="stroke:#181818;stroke-width:1;" x1="90.0825" x2="90.0825" y1="1075.5469" y2="1255.2109"/><line style="stroke:#181818;stroke-width:1;" x1="80.0825" x2="90.0825" y1="1255.2109" y2="1255.2109"/></g><g><title/><rect fill="#FFDDDD" height="224.7969" style="stroke:#181818;stroke-width:1;" width="10" x="85.0825" y="490.6172"/></g><g><title/><rect fill="#FFDDDD" height="285.1953" style="stroke:#FFDDDD;stroke-width:1;" width="10" x="85.0825" y="749.5469"/><line style="stroke:#181818;stroke-width:1;" x1="85.0825" x2="85.0825" y1="749.5469" y2="1034.7422"/><line style="stroke:#181818;stroke-width:1;" x1="95.0825" x2="95.0825" y1="749.5469" y2="1034.7422"/><line style="stroke:#181818;stroke-width:1;" x1="85.0825" x2="95.0825" y1="749.5469" y2="749.5469"/></g><g><title/><rect fill="#FFDDDD" height="78.2656" style="stroke:#FFDDDD;stroke-width:1;" width="10" x="85.0825" y="1075.5469"/><line style="stroke:#181818;stroke-width:1;" x1="85.0825" x2="85.0825" y1="1075.5469" y2="1153.8125"/><line style="stroke:#181818;stroke-width:1;" x1="95.0825" x2="95.0825" y1="1075.5469" y2="1153.8125"/><line style="stroke:#181818;stroke-width:1;" x1="85.0825" x2="95.0825" y1="1153.8125" y2="1153.8125"/></g><g><title/><rect fill="#FFCCCC" height="58.2656" style="stroke:#181818;stroke-width:1;" width="10" x="90.0825" y="849.9453"/></g><g><title>Aperture</title><rect fill="#000000" fill-opacity="0.00000" height="940.7188" width="8" x="408.624" y="94.0234"/><line style="stroke:#181818;stroke-width:0.5;stroke-dasharray:5,5;" x1="412.124" x2="412.124" y1="94.0234" y2="1034.7422"/></g><line style="stroke:#181818;stroke-width:0.5;stroke-dasharray:1,4;" x1="412.124" x2="412.124" y1="1034.7422" y2="1075.5469"/><g><title>Aperture</title><rect fill="#000000" fill-opacity="0.00000" height="197.6641" width="8" x="408.624" y="1075.5469"/><line style="stroke:#181818;stroke-width:0.5;stroke-dasharray:5,5;" x1="412.124" x2="412.124" y1="1075.5469" y2="1273.2109"/></g><g><title/><rect fill="#FFFFFF" height="459.7266" style="stroke:#181818;stroke-width:1;" width="10" x="407.124" y="448.4844"/></g><g><title>Smargon</title><rect fill="#000000" fill-opacity="0.00000" height="940.7188" width="8" x="509.9624" y="94.0234"/><line style="stroke:#181818;stroke-width:0.5;stroke-dasharray:5,5;" x1="513.4624" x2="513.4624" y1="94.0234" y2="1034.7422"/></g><line style="stroke:#181818;stroke-width:0.5;stroke-dasharray:1,4;" x1="513.4624" x2="513.4624" y1="1034.7422" y2="1075.5469"/><g><title>Smargon</title><rect fill="#000000" fill-opacity="0.00000" height="197.6641" width="8" x="509.9624" y="1075.5469"/><line style="stroke:#181818;stroke-width:0.5;stroke-dasharray:5,5;" x1="513.4624" x2="513.4624" y1="1075.5469" y2="1273.2109"/></g><g><title>Robot</title><rect fill="#000000" fill-opacity="0.00000" height="940.7188" width="8" x="586.1719" y="94.0234"/><line style="stroke:#181818;stroke-width:0.5;stroke-dasharray:5,5;" x1="589.6719" x2="589.6719" y1="94.0234" y2="1034.7422"/></g><line style="stroke:#181818;stroke-width:0.5;stroke-dasharray:1,4;" x1="589.6719" x2="589.6719" y1="1034.7422" y2="1075.5469"/><g><title>Robot</title><rect fill="#000000" fill-opacity="0.00000" height="197.6641" width="8" x="586.1719" y="1075.5469"/><line style="stroke:#181818;stroke-width:0.5;stroke-dasharray:5,5;" x1="589.6719" x2="589.6719" y1="1075.5469" y2="1273.2109"/></g><g><title>Backlight</title><rect fill="#000000" fill-opacity="0.00000" height="940.7188" width="8" x="663.2974" y="94.0234"/><line style="stroke:#181818;stroke-width:0.5;stroke-dasharray:5,5;" x1="666.7974" x2="666.7974" y1="94.0234" y2="1034.7422"/></g><line style="stroke:#181818;stroke-width:0.5;stroke-dasharray:1,4;" x1="666.7974" x2="666.7974" y1="1034.7422" y2="1075.5469"/><g><title>Backlight</title><rect fill="#000000" fill-opacity="0.00000" height="197.6641" width="8" x="663.2974" y="1075.5469"/><line style="stroke:#181818;stroke-width:0.5;stroke-dasharray:5,5;" x1="666.7974" x2="666.7974" y1="1075.5469" y2="1273.2109"/></g><g><title>OAV</title><rect fill="#000000" fill-opacity="0.00000" height="940.7188" width="8" x="734.8926" y="94.0234"/><line style="stroke:#181818;stroke-width:0.5;stroke-dasharray:5,5;" x1="738.3926" x2="738.3926" y1="94.0234" y2="1034.7422"/></g><line style="stroke:#181818;stroke-width:0.5;stroke-dasharray:1,4;" x1="738.3926" x2="738.3926" y1="1034.7422" y2="1075.5469"/><g><title>OAV</title><rect fill="#000000" fill-opacity="0.00000" height="197.6641" width="8" x="734.8926" y="1075.5469"/><line style="stroke:#181818;stroke-width:0.5;stroke-dasharray:5,5;" x1="738.3926" x2="738.3926" y1="1075.5469" y2="1273.2109"/></g><g><title>Zebra</title><rect fill="#000000" fill-opacity="0.00000" height="940.7188" width="8" x="849.522" y="94.0234"/><line style="stroke:#181818;stroke-width:0.5;stroke-dasharray:5,5;" x1="853.022" x2="853.022" y1="94.0234" y2="1034.7422"/></g><line style="stroke:#181818;stroke-width:0.5;stroke-dasharray:1,4;" x1="853.022" x2="853.022" y1="1034.7422" y2="1075.5469"/><g><title>Zebra</title><rect fill="#000000" fill-opacity="0.00000" height="197.6641" width="8" x="849.522" y="1075.5469"/><line style="stroke:#181818;stroke-width:0.5;stroke-dasharray:5,5;" x1="853.022" x2="853.022" y1="1075.5469" y2="1273.2109"/></g><g><title/><rect fill="#FFFFFF" height="226.9297" style="stroke:#FFFFFF;stroke-width:1;" width="10" x="848.022" y="807.8125"/><line style="stroke:#181818;stroke-width:1;" x1="848.022" x2="848.022" y1="807.8125" y2="1034.7422"/><line style="stroke:#181818;stroke-width:1;" x1="858.022" x2="858.022" y1="807.8125" y2="1034.7422"/><line style="stroke:#181818;stroke-width:1;" x1="848.022" x2="858.022" y1="807.8125" y2="807.8125"/></g><g><title/><rect fill="#FFFFFF" height="179.6641" style="stroke:#FFFFFF;stroke-width:1;" width="10" x="848.022" y="1075.5469"/><line style="stroke:#181818;stroke-width:1;" x1="848.022" x2="848.022" y1="1075.5469" y2="1255.2109"/><line style="stroke:#181818;stroke-width:1;" x1="858.022" x2="858.022" y1="1075.5469" y2="1255.2109"/><line style="stroke:#181818;stroke-width:1;" x1="848.022" x2="858.022" y1="1255.2109" y2="1255.2109"/></g><g><title>Eiger</title><rect fill="#000000" fill-opacity="0.00000" height="940.7188" width="8" x="912.2305" y="94.0234"/><line style="stroke:#181818;stroke-width:0.5;stroke-dasharray:5,5;" x1="915.7305" x2="915.7305" y1="94.0234" y2="1034.7422"/></g><line style="stroke:#181818;stroke-width:0.5;stroke-dasharray:1,4;" x1="915.7305" x2="915.7305" y1="1034.7422" y2="1075.5469"/><g><title>Eiger</title><rect fill="#000000" fill-opacity="0.00000" height="197.6641" width="8" x="912.2305" y="1075.5469"/><line style="stroke:#181818;stroke-width:0.5;stroke-dasharray:5,5;" x1="915.7305" x2="915.7305" y1="1075.5469" y2="1273.2109"/></g><g><title/><rect fill="#FFFFFF" height="811.1875" style="stroke:#FFFFFF;stroke-width:1;" width="10" x="910.7305" y="223.5547"/><line style="stroke:#181818;stroke-width:1;" x1="910.7305" x2="910.7305" y1="223.5547" y2="1034.7422"/><line style="stroke:#181818;stroke-width:1;" x1="920.7305" x2="920.7305" y1="223.5547" y2="1034.7422"/><line style="stroke:#181818;stroke-width:1;" x1="910.7305" x2="920.7305" y1="223.5547" y2="223.5547"/></g><g><title/><rect fill="#FFFFFF" height="150.5313" style="stroke:#FFFFFF;stroke-width:1;" width="10" x="910.7305" y="1075.5469"/><line style="stroke:#181818;stroke-width:1;" x1="910.7305" x2="910.7305" y1="1075.5469" y2="1226.0781"/><line style="stroke:#181818;stroke-width:1;" x1="920.7305" x2="920.7305" y1="1075.5469" y2="1226.0781"/><line style="stroke:#181818;stroke-width:1;" x1="910.7305" x2="920.7305" y1="1226.0781" y2="1226.0781"/></g><g><title>Synchrotron</title><rect fill="#000000" fill-opacity="0.00000" height="940.7188" width="8" x="997.0361" y="94.0234"/><line style="stroke:#181818;stroke-width:0.5;stroke-dasharray:5,5;" x1="1000.5361" x2="1000.5361" y1="94.0234" y2="1034.7422"/></g><line style="stroke:#181818;stroke-width:0.5;stroke-dasharray:1,4;" x1="1000.5361" x2="1000.5361" y1="1034.7422" y2="1075.5469"/><g><title>Synchrotron</title><rect fill="#000000" fill-opacity="0.00000" height="197.6641" width="8" x="997.0361" y="1075.5469"/><line style="stroke:#181818;stroke-width:0.5;stroke-dasharray:5,5;" x1="1000.5361" x2="1000.5361" y1="1075.5469" y2="1273.2109"/></g><g><title/><rect fill="#FFFFFF" height="8" style="stroke:#FFFFFF;stroke-width:1;" width="10" x="995.5361" y="1026.7422"/><line style="stroke:#181818;stroke-width:1;" x1="995.5361" x2="995.5361" y1="1026.7422" y2="1034.7422"/><line style="stroke:#181818;stroke-width:1;" x1="1005.5361" x2="1005.5361" y1="1026.7422" y2="1034.7422"/><line style="stroke:#181818;stroke-width:1;" x1="995.5361" x2="1005.5361" y1="1026.7422" y2="1026.7422"/></g><g><title/><rect fill="#FFFFFF" height="6" style="stroke:#FFFFFF;stroke-width:1;" width="10" x="995.5361" y="1075.5469"/><line style="stroke:#181818;stroke-width:1;" x1="995.5361" x2="995.5361" y1="1075.5469" y2="1081.5469"/><line style="stroke:#181818;stroke-width:1;" x1="1005.5361" x2="1005.5361" y1="1075.5469" y2="1081.5469"/><line style="stroke:#181818;stroke-width:1;" x1="995.5361" x2="1005.5361" y1="1081.5469" y2="1081.5469"/></g><g><title>Rotation</title><rect fill="#000000" fill-opacity="0.00000" height="940.7188" width="8" x="1103.4355" y="94.0234"/><line style="stroke:#181818;stroke-width:0.5;stroke-dasharray:5,5;" x1="1106.9355" x2="1106.9355" y1="94.0234" y2="1034.7422"/></g><line style="stroke:#181818;stroke-width:0.5;stroke-dasharray:1,4;" x1="1106.9355" x2="1106.9355" y1="1034.7422" y2="1075.5469"/><g><title>Rotation</title><rect fill="#000000" fill-opacity="0.00000" height="197.6641" width="8" x="1103.4355" y="1075.5469"/><line style="stroke:#181818;stroke-width:0.5;stroke-dasharray:5,5;" x1="1106.9355" x2="1106.9355" y1="1075.5469" y2="1273.2109"/></g><g><title/><rect fill="#FFFFFF" height="721.7891" style="stroke:#FFFFFF;stroke-width:1;" width="10" x="1101.9355" y="312.9531"/><line style="stroke:#181818;stroke-width:1;" x1="1101.9355" x2="1101.9355" y1="312.9531" y2="1034.7422"/><line style="stroke:#181818;stroke-width:1;" x1="1111.9355" x2="1111.9355" y1="312.9531" y2="1034.7422"/><line style="stroke:#181818;stroke-width:1;" x1="1101.9355" x2="1111.9355" y1="312.9531" y2="312.9531"/></g><g><title/><rect fill="#FFFFFF" height="129.3984" style="stroke:#FFFFFF;stroke-width:1;" width="10" x="1101.9355" y="1075.5469"/><line style="stroke:#181818;stroke-width:1;" x1="1101.9355" x2="1101.9355" y1="1075.5469" y2="1204.9453"/><line style="stroke:#181818;stroke-width:1;" x1="1111.9355" x2="1111.9355" y1="1075.5469" y2="1204.9453"/><line style="stroke:#181818;stroke-width:1;" x1="1101.9355" x2="1111.9355" y1="1204.9453" y2="1204.9453"/></g><g><title/><rect fill="#FFFFFF" height="256.0625" style="stroke:#FFFFFF;stroke-width:1;" width="10" x="1106.9355" y="778.6797"/><line style="stroke:#181818;stroke-width:1;" x1="1106.9355" x2="1106.9355" y1="778.6797" y2="1034.7422"/><line style="stroke:#181818;stroke-width:1;" x1="1116.9355" x2="1116.9355" y1="778.6797" y2="1034.7422"/><line style="stroke:#181818;stroke-width:1;" x1="1106.9355" x2="1116.9355" y1="778.6797" y2="778.6797"/></g><g><title/><rect fill="#FFFFFF" height="107.3984" style="stroke:#FFFFFF;stroke-width:1;" width="10" x="1106.9355" y="1075.5469"/><line style="stroke:#181818;stroke-width:1;" x1="1106.9355" x2="1106.9355" y1="1075.5469" y2="1182.9453"/><line style="stroke:#181818;stroke-width:1;" x1="1116.9355" x2="1116.9355" y1="1075.5469" y2="1182.9453"/><line style="stroke:#181818;stroke-width:1;" x1="1106.9355" x2="1116.9355" y1="1182.9453" y2="1182.9453"/></g><g><title>Rotation</title><rect fill="#000000" fill-opacity="0.00000" height="940.7188" width="8" x="1186.6143" y="94.0234"/><line style="stroke:#181818;stroke-width:0.5;stroke-dasharray:5,5;" x1="1190.1143" x2="1190.1143" y1="94.0234" y2="1034.7422"/></g><line style="stroke:#181818;stroke-width:0.5;stroke-dasharray:1,4;" x1="1190.1143" x2="1190.1143" y1="1034.7422" y2="1075.5469"/><g><title>Rotation</title><rect fill="#000000" fill-opacity="0.00000" height="197.6641" width="8" x="1186.6143" y="1075.5469"/><line style="stroke:#181818;stroke-width:0.5;stroke-dasharray:5,5;" x1="1190.1143" x2="1190.1143" y1="1075.5469" y2="1273.2109"/></g><g><title/><rect fill="#FFFFFF" height="782.0547" style="stroke:#FFFFFF;stroke-width:1;" width="10" x="1185.1143" y="252.6875"/><line style="stroke:#181818;stroke-width:1;" x1="1185.1143" x2="1185.1143" y1="252.6875" y2="1034.7422"/><line style="stroke:#181818;stroke-width:1;" x1="1195.1143" x2="1195.1143" y1="252.6875" y2="1034.7422"/><line style="stroke:#181818;stroke-width:1;" x1="1185.1143" x2="1195.1143" y1="252.6875" y2="252.6875"/></g><g><title/><rect fill="#FFFFFF" height="187.6641" style="stroke:#FFFFFF;stroke-width:1;" width="10" x="1185.1143" y="1075.5469"/><line style="stroke:#181818;stroke-width:1;" x1="1185.1143" x2="1185.1143" y1="1075.5469" y2="1263.2109"/><line style="stroke:#181818;stroke-width:1;" x1="1195.1143" x2="1195.1143" y1="1075.5469" y2="1263.2109"/><line style="stroke:#181818;stroke-width:1;" x1="1185.1143" x2="1195.1143" y1="1263.2109" y2="1263.2109"/></g><g><title>XRC</title><rect fill="#000000" fill-opacity="0.00000" height="940.7188" width="8" x="1265.7939" y="94.0234"/><line style="stroke:#181818;stroke-width:0.5;stroke-dasharray:5,5;" x1="1269.2939" x2="1269.2939" y1="94.0234" y2="1034.7422"/></g><line style="stroke:#181818;stroke-width:0.5;stroke-dasharray:1,4;" x1="1269.2939" x2="1269.2939" y1="1034.7422" y2="1075.5469"/><g><title>XRC</title><rect fill="#000000" fill-opacity="0.00000" height="197.6641" width="8" x="1265.7939" y="1075.5469"/><line style="stroke:#181818;stroke-width:0.5;stroke-dasharray:5,5;" x1="1269.2939" x2="1269.2939" y1="1075.5469" y2="1273.2109"/></g><g><title/><rect fill="#FFFFFF" height="21.1328" style="stroke:#181818;stroke-width:1;" width="10" x="1264.2939" y="102.0234"/></g><g><title>Snapshot</title><rect fill="#000000" fill-opacity="0.00000" height="940.7188" width="8" x="1361.3867" y="94.0234"/><line style="stroke:#181818;stroke-width:0.5;stroke-dasharray:5,5;" x1="1364.8867" x2="1364.8867" y1="94.0234" y2="1034.7422"/></g><line style="stroke:#181818;stroke-width:0.5;stroke-dasharray:1,4;" x1="1364.8867" x2="1364.8867" y1="1034.7422" y2="1075.5469"/><g><title>Snapshot</title><rect fill="#000000" fill-opacity="0.00000" height="197.6641" width="8" x="1361.3867" y="1075.5469"/><line style="stroke:#181818;stroke-width:0.5;stroke-dasharray:5,5;" x1="1364.8867" x2="1364.8867" y1="1075.5469" y2="1273.2109"/></g><g><title/><rect fill="#FFFFFF" height="613.3906" style="stroke:#181818;stroke-width:1;" width="10" x="1359.8867" y="102.0234"/></g><rect fill="#E2E2F0" height="30.2969" rx="2.5" ry="2.5" style="stroke:#181818;stroke-width:0.5;" width="150.165" x="10" y="62.7266"/><text fill="#000000" font-family="sans-serif" font-size="14" lengthAdjust="spacing" textLength="136.165" x="17" y="82.7217">BlueSky RunEngine</text><rect fill="#E2E2F0" height="46.5938" rx="2.5" ry="2.5" style="stroke:#181818;stroke-width:0.5;" width="105.4922" x="359.3779" y="46.4297"/><text fill="#000000" font-family="sans-serif" font-size="14" lengthAdjust="spacing" textLength="61.5645" x="381.3418" y="66.4248">Aperture</text><text fill="#000000" font-family="sans-serif" font-size="14" lengthAdjust="spacing" textLength="91.4922" x="366.3779" y="82.7217">Scatterguard</text><rect fill="#E2E2F0" height="30.2969" rx="2.5" ry="2.5" style="stroke:#181818;stroke-width:0.5;" width="77.1846" x="474.8701" y="62.7266"/><text fill="#000000" font-family="sans-serif" font-size="14" lengthAdjust="spacing" textLength="63.1846" x="481.8701" y="82.7217">Smargon</text><rect fill="#E2E2F0" height="30.2969" rx="2.5" ry="2.5" style="stroke:#181818;stroke-width:0.5;" width="55.2344" x="562.0547" y="62.7266"/><text fill="#000000" font-family="sans-serif" font-size="14" lengthAdjust="spacing" textLength="41.2344" x="569.0547" y="82.7217">Robot</text><rect fill="#E2E2F0" height="30.2969" rx="2.5" ry="2.5" style="stroke:#181818;stroke-width:0.5;" width="79.0166" x="627.2891" y="62.7266"/><text fill="#000000" font-family="sans-serif" font-size="14" lengthAdjust="spacing" textLength="65.0166" x="634.2891" y="82.7217">Backlight</text><rect fill="#E2E2F0" height="30.2969" rx="2.5" ry="2.5" style="stroke:#181818;stroke-width:0.5;" width="44.1738" x="716.3057" y="62.7266"/><text fill="#000000" font-family="sans-serif" font-size="14" lengthAdjust="spacing" textLength="30.1738" x="723.3057" y="82.7217">OAV</text><rect fill="#E2E2F0" height="30.2969" rx="2.5" ry="2.5" style="stroke:#181818;stroke-width:0.5;" width="55.4258" x="825.3091" y="62.7266"/><text fill="#000000" font-family="sans-serif" font-size="14" lengthAdjust="spacing" textLength="41.4258" x="832.3091" y="82.7217">Zebra</text><rect fill="#E2E2F0" height="30.2969" rx="2.5" ry="2.5" style="stroke:#181818;stroke-width:0.5;" width="49.9912" x="890.7349" y="62.7266"/><text fill="#000000" font-family="sans-serif" font-size="14" lengthAdjust="spacing" textLength="35.9912" x="897.7349" y="82.7217">Eiger</text><rect fill="#E2E2F0" height="30.2969" rx="2.5" ry="2.5" style="stroke:#181818;stroke-width:0.5;" width="99.6201" x="950.7261" y="62.7266"/><text fill="#000000" font-family="sans-serif" font-size="14" lengthAdjust="spacing" textLength="85.6201" x="957.7261" y="82.7217">Synchrotron</text><rect fill="#E2E2F0" height="46.5938" rx="2.5" ry="2.5" style="stroke:#181818;stroke-width:0.5;" width="73.1787" x="1070.3462" y="46.4297"/><text fill="#000000" font-family="sans-serif" font-size="14" lengthAdjust="spacing" textLength="59.1787" x="1077.3462" y="66.4248">Rotation</text><text fill="#000000" font-family="sans-serif" font-size="14" lengthAdjust="spacing" textLength="39.3477" x="1087.2617" y="82.7217">ISPyB</text><rect fill="#E2E2F0" height="46.5938" rx="2.5" ry="2.5" style="stroke:#181818;stroke-width:0.5;" width="73.1787" x="1153.5249" y="46.4297"/><text fill="#000000" font-family="sans-serif" font-size="14" lengthAdjust="spacing" textLength="59.1787" x="1160.5249" y="66.4248">Rotation</text><text fill="#000000" font-family="sans-serif" font-size="14" lengthAdjust="spacing" textLength="43.5381" x="1168.3452" y="82.7217">Nexus</text><rect fill="#E2E2F0" height="46.5938" rx="2.5" ry="2.5" style="stroke:#181818;stroke-width:0.5;" width="65.1807" x="1236.7036" y="46.4297"/><text fill="#000000" font-family="sans-serif" font-size="14" lengthAdjust="spacing" textLength="29.0938" x="1254.7471" y="66.4248">XRC</text><text fill="#000000" font-family="sans-serif" font-size="14" lengthAdjust="spacing" textLength="51.1807" x="1243.7036" y="82.7217">Results</text><rect fill="#E2E2F0" height="62.8906" rx="2.5" ry="2.5" style="stroke:#181818;stroke-width:0.5;" width="106.0049" x="1311.8843" y="30.1328"/><text fill="#000000" font-family="sans-serif" font-size="14" lengthAdjust="spacing" textLength="65.4473" x="1332.1631" y="50.1279">Snapshot</text><text fill="#000000" font-family="sans-serif" font-size="14" lengthAdjust="spacing" textLength="92.0049" x="1318.8843" y="66.4248">Beam Centre</text><text fill="#000000" font-family="sans-serif" font-size="14" lengthAdjust="spacing" textLength="76.7744" x="1326.4995" y="82.7217">Annotation</text><rect fill="#E2E2F0" height="30.2969" rx="2.5" ry="2.5" style="stroke:#181818;stroke-width:0.5;" width="150.165" x="10" y="1273.2109"/><text fill="#000000" font-family="sans-serif" font-size="14" lengthAdjust="spacing" textLength="136.165" x="17" y="1293.2061">BlueSky RunEngine</text><rect fill="#E2E2F0" height="46.5938" rx="2.5" ry="2.5" style="stroke:#181818;stroke-width:0.5;" width="105.4922" x="359.3779" y="1273.2109"/><text fill="#000000" font-family="sans-serif" font-size="14" lengthAdjust="spacing" textLength="61.5645" x="381.3418" y="1293.2061">Aperture</text><text fill="#000000" font-family="sans-serif" font-size="14" lengthAdjust="spacing" textLength="91.4922" x="366.3779" y="1309.5029">Scatterguard</text><rect fill="#E2E2F0" height="30.2969" rx="2.5" ry="2.5" style="stroke:#181818;stroke-width:0.5;" width="77.1846" x="474.8701" y="1273.2109"/><text fill="#000000" font-family="sans-serif" font-size="14" lengthAdjust="spacing" textLength="63.1846" x="481.8701" y="1293.2061">Smargon</text><rect fill="#E2E2F0" height="30.2969" rx="2.5" ry="2.5" style="stroke:#181818;stroke-width:0.5;" width="55.2344" x="562.0547" y="1273.2109"/><text fill="#000000" font-family="sans-serif" font-size="14" lengthAdjust="spacing" textLength="41.2344" x="569.0547" y="1293.2061">Robot</text><rect fill="#E2E2F0" height="30.2969" rx="2.5" ry="2.5" style="stroke:#181818;stroke-width:0.5;" width="79.0166" x="627.2891" y="1273.2109"/><text fill="#000000" font-family="sans-serif" font-size="14" lengthAdjust="spacing" textLength="65.0166" x="634.2891" y="1293.2061">Backlight</text><rect fill="#E2E2F0" height="30.2969" rx="2.5" ry="2.5" style="stroke:#181818;stroke-width:0.5;" width="44.1738" x="716.3057" y="1273.2109"/><text fill="#000000" font-family="sans-serif" font-size="14" lengthAdjust="spacing" textLength="30.1738" x="723.3057" y="1293.2061">OAV</text><rect fill="#E2E2F0" height="30.2969" rx="2.5" ry="2.5" style="stroke:#181818;stroke-width:0.5;" width="55.4258" x="825.3091" y="1273.2109"/><text fill="#000000" font-family="sans-serif" font-size="14" lengthAdjust="spacing" textLength="41.4258" x="832.3091" y="1293.2061">Zebra</text><rect fill="#E2E2F0" height="30.2969" rx="2.5" ry="2.5" style="stroke:#181818;stroke-width:0.5;" width="49.9912" x="890.7349" y="1273.2109"/><text fill="#000000" font-family="sans-serif" font-size="14" lengthAdjust="spacing" textLength="35.9912" x="897.7349" y="1293.2061">Eiger</text><rect fill="#E2E2F0" height="30.2969" rx="2.5" ry="2.5" style="stroke:#181818;stroke-width:0.5;" width="99.6201" x="950.7261" y="1273.2109"/><text fill="#000000" font-family="sans-serif" font-size="14" lengthAdjust="spacing" textLength="85.6201" x="957.7261" y="1293.2061">Synchrotron</text><rect fill="#E2E2F0" height="46.5938" rx="2.5" ry="2.5" style="stroke:#181818;stroke-width:0.5;" width="73.1787" x="1070.3462" y="1273.2109"/><text fill="#000000" font-family="sans-serif" font-size="14" lengthAdjust="spacing" textLength="59.1787" x="1077.3462" y="1293.2061">Rotation</text><text fill="#000000" font-family="sans-serif" font-size="14" lengthAdjust="spacing" textLength="39.3477" x="1087.2617" y="1309.5029">ISPyB</text><rect fill="#E2E2F0" height="46.5938" rx="2.5" ry="2.5" style="stroke:#181818;stroke-width:0.5;" width="73.1787" x="1153.5249" y="1273.2109"/><text fill="#000000" font-family="sans-serif" font-size="14" lengthAdjust="spacing" textLength="59.1787" x="1160.5249" y="1293.2061">Rotation</text><text fill="#000000" font-family="sans-serif" font-size="14" lengthAdjust="spacing" textLength="43.5381" x="1168.3452" y="1309.5029">Nexus</text><rect fill="#E2E2F0" height="46.5938" rx="2.5" ry="2.5" style="stroke:#181818;stroke-width:0.5;" width="65.1807" x="1236.7036" y="1273.2109"/><text fill="#000000" font-family="sans-serif" font-size="14" lengthAdjust="spacing" textLength="29.0938" x="1254.7471" y="1293.2061">XRC</text><text fill="#000000" font-family="sans-serif" font-size="14" lengthAdjust="spacing" textLength="51.1807" x="1243.7036" y="1309.5029">Results</text><rect fill="#E2E2F0" height="62.8906" rx="2.5" ry="2.5" style="stroke:#181818;stroke-width:0.5;" width="106.0049" x="1311.8843" y="1273.2109"/><text fill="#000000" font-family="sans-serif" font-size="14" lengthAdjust="spacing" textLength="65.4473" x="1332.1631" y="1293.2061">Snapshot</text><text fill="#000000" font-family="sans-serif" font-size="14" lengthAdjust="spacing" textLength="92.0049" x="1318.8843" y="1309.5029">Beam Centre</text><text fill="#000000" font-family="sans-serif" font-size="14" lengthAdjust="spacing" textLength="76.7744" x="1326.4995" y="1325.7998">Annotation</text><polygon fill="#181818" points="96.0825,119.1563,86.0825,123.1563,96.0825,127.1563,92.0825,123.1563" style="stroke:#181818;stroke-width:1;"/><line style="stroke:#181818;stroke-width:1;" x1="90.0825" x2="1263.2939" y1="123.1563" y2="123.1563"/><text fill="#000000" font-family="sans-serif" font-size="13" lengthAdjust="spacing" textLength="138.2266" x="102.0825" y="118.0903">results from gridscan</text><polygon fill="#181818" points="903.7305,148.2891,913.7305,152.2891,903.7305,156.2891,907.7305,152.2891" style="stroke:#181818;stroke-width:1;"/><line style="stroke:#181818;stroke-width:1;" x1="85.0825" x2="909.7305" y1="152.2891" y2="152.2891"/><text fill="#000000" font-family="sans-serif" font-size="13" lengthAdjust="spacing" textLength="178.2358" x="92.0825" y="147.2231">configure eiger parameters</text><line style="stroke:#181818;stroke-width:1;" x1="85.0825" x2="132.0825" y1="181.4219" y2="181.4219"/><line style="stroke:#181818;stroke-width:1;" x1="132.0825" x2="132.0825" y1="181.4219" y2="194.4219"/><line style="stroke:#181818;stroke-width:1;" x1="91.0825" x2="132.0825" y1="194.4219" y2="194.4219"/><polygon fill="#181818" points="101.0825,190.4219,91.0825,194.4219,101.0825,198.4219,97.0825,194.4219" style="stroke:#181818;stroke-width:1;"/><text fill="#000000" font-family="sans-serif" font-size="13" lengthAdjust="spacing" textLength="298.0415" x="97.0825" y="176.356">start_preparing_data_collection_then_do_plan</text><polygon fill="#181818" points="898.7305,219.5547,908.7305,223.5547,898.7305,227.5547,902.7305,223.5547" style="stroke:#181818;stroke-width:1;"/><line style="stroke:#181818;stroke-width:1;" x1="90.0825" x2="904.7305" y1="223.5547" y2="223.5547"/><text fill="#000000" font-family="sans-serif" font-size="13" lengthAdjust="spacing" textLength="143.292" x="97.0825" y="218.4888">start arming the eiger</text><polygon fill="#181818" points="1173.1143,248.6875,1183.1143,252.6875,1173.1143,256.6875,1177.1143,252.6875" style="stroke:#181818;stroke-width:1;"/><line style="stroke:#181818;stroke-width:1;" x1="90.0825" x2="1179.1143" y1="252.6875" y2="252.6875"/><text fill="#000000" font-family="sans-serif" font-size="13" lengthAdjust="spacing" textLength="166.1943" x="97.0825" y="247.6216">send rotation parameters</text><path d="M50.0825,264.6875 L126.7065,264.6875 L126.7065,271.8203 L116.7065,281.8203 L50.0825,281.8203 L50.0825,264.6875" fill="#EEEEEE" style="stroke:#000000;stroke-width:1.5;"/><rect fill="none" height="926.2578" style="stroke:#000000;stroke-width:1.5;" width="1503.5601" x="50.0825" y="264.6875"/><text fill="#000000" font-family="sans-serif" font-size="13" font-weight="bold" lengthAdjust="spacing" textLength="31.624" x="65.0825" y="277.7544">loop</text><text fill="#000000" font-family="sans-serif" font-size="11" font-weight="bold" lengthAdjust="spacing" textLength="114.7964" x="141.7065" y="276.8979">[for each rotation]</text><polygon fill="#181818" points="1089.9355,308.9531,1099.9355,312.9531,1089.9355,316.9531,1093.9355,312.9531" style="stroke:#181818;stroke-width:1;"/><line style="stroke:#181818;stroke-width:1;" x1="90.0825" x2="1095.9355" y1="312.9531" y2="312.9531"/><text fill="#000000" font-family="sans-serif" font-size="13" lengthAdjust="spacing" textLength="299.7363" x="97.0825" y="307.8872">send rotation parameters (ROTATION_OUTER)</text><polygon fill="#181818" points="1173.1143,308.9531,1183.1143,312.9531,1173.1143,316.9531,1177.1143,312.9531" style="stroke:#181818;stroke-width:1;"/><line style="stroke:#181818;stroke-width:1;" x1="1111.9355" x2="1179.1143" y1="312.9531" y2="312.9531"/><polygon fill="#181818" points="501.4624,338.0859,511.4624,342.0859,501.4624,346.0859,505.4624,342.0859" style="stroke:#181818;stroke-width:1;"/><line style="stroke:#181818;stroke-width:1;" x1="90.0825" x2="507.4624" y1="342.0859" y2="342.0859"/><text fill="#000000" font-family="sans-serif" font-size="13" lengthAdjust="spacing" textLength="127.9497" x="97.0825" y="337.02">move to xtal centre</text><line style="stroke:#181818;stroke-width:1;" x1="90.0825" x2="132.0825" y1="371.2188" y2="371.2188"/><line style="stroke:#181818;stroke-width:1;" x1="132.0825" x2="132.0825" y1="371.2188" y2="384.2188"/><line style="stroke:#181818;stroke-width:1;" x1="91.0825" x2="132.0825" y1="384.2188" y2="384.2188"/><polygon fill="#181818" points="101.0825,380.2188,91.0825,384.2188,101.0825,388.2188,97.0825,384.2188" style="stroke:#181818;stroke-width:1;"/><text fill="#000000" font-family="sans-serif" font-size="13" lengthAdjust="spacing" textLength="157.6885" x="97.0825" y="366.1528">setup_beamline_for_oav</text><path d="M95.0825,397.2188 L95.0825,422.2188 L447.0825,422.2188 L447.0825,407.2188 L437.0825,397.2188 L95.0825,397.2188" fill="#FEFFDD" style="stroke:#181818;stroke-width:0.5;"/><path d="M437.0825,397.2188 L437.0825,407.2188 L447.0825,407.2188 L437.0825,397.2188" fill="#FEFFDD" style="stroke:#181818;stroke-width:0.5;"/><text fill="#000000" font-family="sans-serif" font-size="13" lengthAdjust="spacing" textLength="331.8237" x="101.0825" y="414.2856">(if snapshots not derived from gridscan snapshots)</text><polygon fill="#181818" points="395.124,444.4844,405.124,448.4844,395.124,452.4844,399.124,448.4844" style="stroke:#181818;stroke-width:1;"/><line style="stroke:#181818;stroke-width:1;" x1="90.0825" x2="401.124" y1="448.4844" y2="448.4844"/><text fill="#000000" font-family="sans-serif" font-size="13" lengthAdjust="spacing" textLength="111.5283" x="97.0825" y="443.4185">prepare aperture</text><line style="stroke:#181818;stroke-width:1;" x1="90.0825" x2="137.0825" y1="477.6172" y2="477.6172"/><line style="stroke:#181818;stroke-width:1;" x1="137.0825" x2="137.0825" y1="477.6172" y2="490.6172"/><line style="stroke:#181818;stroke-width:1;" x1="96.0825" x2="137.0825" y1="490.6172" y2="490.6172"/><polygon fill="#181818" points="106.0825,486.6172,96.0825,490.6172,106.0825,494.6172,102.0825,490.6172" style="stroke:#181818;stroke-width:1;"/><text fill="#000000" font-family="sans-serif" font-size="13" lengthAdjust="spacing" textLength="123.9761" x="102.0825" y="472.5513">oav_snapshot_plan</text><path d="M69.0825,502.6172 L145.7065,502.6172 L145.7065,509.75 L135.7065,519.75 L69.0825,519.75 L69.0825,502.6172" fill="#EEEEEE" style="stroke:#000000;stroke-width:1.5;"/><rect fill="none" height="198.7969" style="stroke:#000000;stroke-width:1.5;" width="1459.5601" x="69.0825" y="502.6172"/><text fill="#000000" font-family="sans-serif" font-size="13" font-weight="bold" lengthAdjust="spacing" textLength="31.624" x="84.0825" y="515.6841">loop</text><text fill="#000000" font-family="sans-serif" font-size="11" font-weight="bold" lengthAdjust="spacing" textLength="121.5854" x="160.7065" y="514.8276">[for each snapshot]</text><polygon fill="#181818" points="501.4624,546.8828,511.4624,550.8828,501.4624,554.8828,505.4624,550.8828" style="stroke:#181818;stroke-width:1;"/><line style="stroke:#181818;stroke-width:1;" x1="95.0825" x2="507.4624" y1="550.8828" y2="550.8828"/><text fill="#000000" font-family="sans-serif" font-size="13" lengthAdjust="spacing" textLength="39.457" x="102.0825" y="545.8169">rotate</text><polygon fill="#181818" points="726.3926,576.0156,736.3926,580.0156,726.3926,584.0156,730.3926,580.0156" style="stroke:#181818;stroke-width:1;"/><line style="stroke:#181818;stroke-width:1;" x1="95.0825" x2="732.3926" y1="580.0156" y2="580.0156"/><text fill="#000000" font-family="sans-serif" font-size="13" lengthAdjust="spacing" textLength="354.3896" x="102.0825" y="574.9497">configure + trigger snapshot (if taking real snapshots)</text><line style="stroke:#181818;stroke-width:1;" x1="738.3926" x2="780.3926" y1="609.1484" y2="609.1484"/><line style="stroke:#181818;stroke-width:1;" x1="780.3926" x2="780.3926" y1="609.1484" y2="622.1484"/><line style="stroke:#181818;stroke-width:1;" x1="739.3926" x2="780.3926" y1="622.1484" y2="622.1484"/><polygon fill="#181818" points="749.3926,618.1484,739.3926,622.1484,749.3926,626.1484,745.3926,622.1484" style="stroke:#181818;stroke-width:1;"/><text fill="#000000" font-family="sans-serif" font-size="13" lengthAdjust="spacing" textLength="100.6294" x="745.3926" y="604.0825">save snapshots</text><polygon fill="#181818" points="1089.9355,647.2813,1099.9355,651.2813,1089.9355,655.2813,1093.9355,651.2813" style="stroke:#181818;stroke-width:1;"/><line style="stroke:#181818;stroke-width:1;" x1="95.0825" x2="1095.9355" y1="651.2813" y2="651.2813"/><text fill="#000000" font-family="sans-serif" font-size="13" lengthAdjust="spacing" textLength="163.4775" x="102.0825" y="646.2153">generate snapshot event</text><polygon fill="#181818" points="1347.8867,647.2813,1357.8867,651.2813,1347.8867,655.2813,1351.8867,651.2813" style="stroke:#181818;stroke-width:1;"/><line style="stroke:#181818;stroke-width:1;" x1="95.0825" x2="1353.8867" y1="651.2813" y2="651.2813"/><line style="stroke:#181818;stroke-width:1;" x1="1369.8867" x2="1411.8867" y1="680.4141" y2="680.4141"/><line style="stroke:#181818;stroke-width:1;" x1="1411.8867" x2="1411.8867" y1="680.4141" y2="693.4141"/><line style="stroke:#181818;stroke-width:1;" x1="1370.8867" x2="1411.8867" y1="693.4141" y2="693.4141"/><polygon fill="#181818" points="1380.8867,689.4141,1370.8867,693.4141,1380.8867,697.4141,1376.8867,693.4141" style="stroke:#181818;stroke-width:1;"/><text fill="#000000" font-family="sans-serif" font-size="13" lengthAdjust="spacing" textLength="128.7559" x="1376.8867" y="675.3481">annotate snapshots</text><line style="stroke:#181818;stroke-width:1;" x1="90.0825" x2="137.0825" y1="736.5469" y2="736.5469"/><line style="stroke:#181818;stroke-width:1;" x1="137.0825" x2="137.0825" y1="736.5469" y2="749.5469"/><line style="stroke:#181818;stroke-width:1;" x1="96.0825" x2="137.0825" y1="749.5469" y2="749.5469"/><polygon fill="#181818" points="106.0825,745.5469,96.0825,749.5469,106.0825,753.5469,102.0825,749.5469" style="stroke:#181818;stroke-width:1;"/><text fill="#000000" font-family="sans-serif" font-size="13" lengthAdjust="spacing" textLength="122.459" x="102.0825" y="731.481">rotation_scan_plan</text><polygon fill="#181818" points="1094.9355,774.6797,1104.9355,778.6797,1094.9355,782.6797,1098.9355,778.6797" style="stroke:#181818;stroke-width:1;"/><line style="stroke:#181818;stroke-width:1;" x1="95.0825" x2="1100.9355" y1="778.6797" y2="778.6797"/><text fill="#000000" font-family="sans-serif" font-size="13" lengthAdjust="spacing" textLength="274.3013" x="102.0825" y="773.6138">send scan points (ROTATION_SCAN_MAIN)</text><polygon fill="#181818" points="836.022,803.8125,846.022,807.8125,836.022,811.8125,840.022,807.8125" style="stroke:#181818;stroke-width:1;"/><line style="stroke:#181818;stroke-width:1;" x1="95.0825" x2="842.022" y1="807.8125" y2="807.8125"/><text fill="#000000" font-family="sans-serif" font-size="13" lengthAdjust="spacing" textLength="179.2832" x="102.0825" y="802.7466">configure zebra for rotation</text><line style="stroke:#181818;stroke-width:1;" x1="95.0825" x2="142.0825" y1="836.9453" y2="836.9453"/><line style="stroke:#181818;stroke-width:1;" x1="142.0825" x2="142.0825" y1="836.9453" y2="849.9453"/><line style="stroke:#181818;stroke-width:1;" x1="101.0825" x2="142.0825" y1="849.9453" y2="849.9453"/><polygon fill="#181818" points="111.0825,845.9453,101.0825,849.9453,111.0825,853.9453,107.0825,849.9453" style="stroke:#181818;stroke-width:1;"/><text fill="#000000" font-family="sans-serif" font-size="13" lengthAdjust="spacing" textLength="179.7021" x="107.0825" y="831.8794">setup_sample_environment</text><polygon fill="#181818" points="654.7974,875.0781,664.7974,879.0781,654.7974,883.0781,658.7974,879.0781" style="stroke:#181818;stroke-width:1;"/><line style="stroke:#181818;stroke-width:1;" x1="100.0825" x2="660.7974" y1="879.0781" y2="879.0781"/><text fill="#000000" font-family="sans-serif" font-size="13" lengthAdjust="spacing" textLength="125.5693" x="107.0825" y="874.0122">move backlight out</text><polygon fill="#181818" points="111.0825,904.2109,101.0825,908.2109,111.0825,912.2109,107.0825,908.2109" style="stroke:#181818;stroke-width:1;"/><line style="stroke:#181818;stroke-width:1;" x1="105.0825" x2="406.124" y1="908.2109" y2="908.2109"/><text fill="#000000" font-family="sans-serif" font-size="13" lengthAdjust="spacing" textLength="172.104" x="117.0825" y="903.145">select aperture completed</text><polygon fill="#181818" points="501.4624,933.3438,511.4624,937.3438,501.4624,941.3438,505.4624,937.3438" style="stroke:#181818;stroke-width:1;"/><line style="stroke:#181818;stroke-width:1;" x1="95.0825" x2="507.4624" y1="937.3438" y2="937.3438"/><text fill="#000000" font-family="sans-serif" font-size="13" lengthAdjust="spacing" textLength="74.8071" x="102.0825" y="932.2778">set velocity</text><polygon fill="#181818" points="836.022,962.4766,846.022,966.4766,836.022,970.4766,840.022,966.4766" style="stroke:#181818;stroke-width:1;"/><line style="stroke:#181818;stroke-width:1;" x1="95.0825" x2="842.022" y1="966.4766" y2="966.4766"/><text fill="#000000" font-family="sans-serif" font-size="13" lengthAdjust="spacing" textLength="87.5405" x="102.0825" y="961.4106">arm zebra PC</text><path d="M69.0825,978.4766 L138.5337,978.4766 L138.5337,985.6094 L128.5337,995.6094 L69.0825,995.6094 L69.0825,978.4766" fill="#EEEEEE" style="stroke:#000000;stroke-width:1.5;"/><rect fill="none" height="111.0703" style="stroke:#000000;stroke-width:1.5;" width="952.4536" x="69.0825" y="978.4766"/><text fill="#000000" font-family="sans-serif" font-size="13" font-weight="bold" lengthAdjust="spacing" textLength="24.4512" x="84.0825" y="991.5435">opt</text><text fill="#000000" font-family="sans-serif" font-size="11" font-weight="bold" lengthAdjust="spacing" textLength="98.4897" x="153.5337" y="990.687">[wait for topup]</text><polygon fill="#181818" points="983.5361,1022.7422,993.5361,1026.7422,983.5361,1030.7422,987.5361,1026.7422" style="stroke:#181818;stroke-width:1;"/><line style="stroke:#181818;stroke-width:1;" x1="95.0825" x2="989.5361" y1="1026.7422" y2="1026.7422"/><text fill="#000000" font-family="sans-serif" font-size="13" lengthAdjust="spacing" textLength="299.6411" x="102.0825" y="1021.6763">check synchrotron status vs desired exposure</text><text fill="#000000" font-family="sans-serif" font-size="11" lengthAdjust="spacing" textLength="223.3193" x="613.325" y="1058.9526">wait until topup is complete if necessary</text><polygon fill="#181818" points="106.0825,1077.5469,96.0825,1081.5469,106.0825,1085.5469,102.0825,1081.5469" style="stroke:#181818;stroke-width:1;"/><line style="stroke:#181818;stroke-width:1;stroke-dasharray:2,2;" x1="100.0825" x2="994.5361" y1="1081.5469" y2="1081.5469"/><polygon fill="#181818" points="501.4624,1120.6797,511.4624,1124.6797,501.4624,1128.6797,505.4624,1124.6797" style="stroke:#181818;stroke-width:1;"/><line style="stroke:#181818;stroke-width:1;" x1="95.0825" x2="507.4624" y1="1124.6797" y2="1124.6797"/><text fill="#000000" font-family="sans-serif" font-size="13" lengthAdjust="spacing" textLength="78.1587" x="102.0825" y="1119.6138">trigger scan</text><polygon fill="#181818" points="1094.9355,1149.8125,1104.9355,1153.8125,1094.9355,1157.8125,1098.9355,1153.8125" style="stroke:#181818;stroke-width:1;"/><line style="stroke:#181818;stroke-width:1;" x1="95.0825" x2="1100.9355" y1="1153.8125" y2="1153.8125"/><text fill="#000000" font-family="sans-serif" font-size="13" lengthAdjust="spacing" textLength="175.7666" x="102.0825" y="1148.7466">read hardware during scan</text><polygon fill="#181818" points="1173.1143,1149.8125,1183.1143,1153.8125,1173.1143,1157.8125,1177.1143,1153.8125" style="stroke:#181818;stroke-width:1;"/><line style="stroke:#181818;stroke-width:1;" x1="10" x2="1179.1143" y1="1153.8125" y2="1153.8125"/><polygon fill="#181818" points="1094.9355,1178.9453,1104.9355,1182.9453,1094.9355,1186.9453,1098.9355,1182.9453" style="stroke:#181818;stroke-width:1;"/><line style="stroke:#181818;stroke-width:1;" x1="90.0825" x2="1100.9355" y1="1182.9453" y2="1182.9453"/><text fill="#000000" font-family="sans-serif" font-size="13" lengthAdjust="spacing" textLength="170.1172" x="97.0825" y="1177.8794">record subplan exit status</text><polygon fill="#181818" points="101.0825,1222.0781,91.0825,1226.0781,101.0825,1230.0781,97.0825,1226.0781" style="stroke:#181818;stroke-width:1;"/><line style="stroke:#181818;stroke-width:1;" x1="95.0825" x2="909.7305" y1="1226.0781" y2="1226.0781"/><text fill="#000000" font-family="sans-serif" font-size="13" lengthAdjust="spacing" textLength="89.9019" x="107.0825" y="1221.0122">unstage eiger</text><polygon fill="#181818" points="836.022,1251.2109,846.022,1255.2109,836.022,1259.2109,840.022,1255.2109" style="stroke:#181818;stroke-width:1;"/><line style="stroke:#181818;stroke-width:1;" x1="90.0825" x2="842.022" y1="1255.2109" y2="1255.2109"/><text fill="#000000" font-family="sans-serif" font-size="13" lengthAdjust="spacing" textLength="65.1714" x="97.0825" y="1250.145">tidy zebra</text><?plantuml-src bLPBRziu4BxxLyocGDeWI7hFOG77DR0vR5p8QL4K1WHQ6ij4998WASNkh--Gb6GzqrqU4fdyvltDa7yfpRA2WKNv2wmkSQ6OjZpXYWaBLuzvYTlNCqIbM8kC2xm2PY1QB_Ro15SRTJwci3HdaS0Nh7Y2vgellrIeRQbn9xO9inPrLZATUYLCnIRhexS5qvaK_jY4xpuWadjf_R5sNmDVMVAQy-mO0FlcLn-qMNxtnv9L_OEVkDVC7_roN_t3DSzG-qDqNmElAVoZbbOtdbz-Br2aGAaAwLgnF7Tk3PCKISiibs8ddhPVpuyXnVMUtvc3F-EfD3quPJdizaL-HAkTYD2KkGtu7n4xhr1OZUkA_lt3H9gFuX9CcQEqE_68h800tucb4BKnhycTVT7iZOkiYQ-DUi4IoojcSSvUUpwbPLe6xluc_i43w10E7BGi8DCyDHJx8iK_sLoGDEdmXIGrYHG7dX55wnrA0IkGc6eQ9FszlIMaiPITM6aa2FaPfyooE95vZedBHcoFAE9KnYedFu1Mrz150p1Ta3WGl6RJ1JigOotd4ghhiww7JZANKi51Qg38ZotA7uqLUpgHqdcTy2dQl2nVdZRFyURRopgwQJLT3xHC-JimMpSnXL382i5AE5cMG-AhCdHnxIErfOhtn8QSXarCOSMkKniaCGz1kwu6UGWId_W1JCrKum2GekOLfdrYN30t0xj-3eKyXzeYROMfDVQGO1yEXvGMmScpk55xgNgp-dLfS3t8LA9yIN06HXPxbBsbaSqpnwz6ly-7PQ-EOHefrnDnDyjfQvKQHWLgmJFs-mHuW0m5QjThhNbqhJQIlgxbfzfyY9t0p8YI0omCepdFYUEztvtfy9uh7HZv_VdZkDBmyVCVoD6qLkpODsR7T5islUuPgoGNjjkFszNoEVvt-VHyCw7Atrf1nOKVOTEHS3GN9ZnFQBKzQ5YXSenHL9mkicAgga6ylMYRBhzio78i5DejcBsxy-RS06rxZhntXYtELYwKPCxBRcMc-elaeC9S9joUPzFuu8Pq_VrrrOD9PU6DSUkpQgKgrLnBNvu1TLcEI9pjRjDzO6d6LuR2CrpJpCAJagOxUPfrVt_lhPR2yZpO1MxQP05rlK1wVnccpuGToMjAbnRmRdSCKzNEbkG_aDTTo2o58ptltjmCJKjtIOvbhz-_DqPr7lVHHE-DF4cafYugznwF9qfSoFMadTvJgqwCCprzipRctzVWB_qEoqj13cJZ6x_Xc-NfkNvv3fHFReuJE6wG__5SePX-0m00?></g></svg>