<svg xmlns="http://www.w3.org/2000/svg" xmlns:xlink="http://www.w3.org/1999/xlink" contentStyleType="text/css" data-diagram-type="CLASS" height="1104px" preserveAspectRatio="none" style="width:3703px;height:1104px;background:#FFFFFF;" version="1.1" viewBox="0 0 3703 1104" width="3703px" zoomAndPan="magnify"><title>Hyperion Parameter Model</title><defs/><g><g class="title" data-source-line="3"><text fill="#000000" font-family="sans-serif" font-size="14" font-weight="bold" lengthAdjust="spacing" textLength="212.4951" x="1738.2524" y="22.9951">Hyperion Parameter Model</text></g><!--cluster mx_bluesky.common.parameters--><g class="cluster" data-entity="mx_bluesky.common.parameters" data-source-line="6" data-uid="ent0002" id="cluster_mx_bluesky.common.parameters"><path d="M1212.5,43.2969 L1473.8125,43.2969 A3.75,3.75 0 0 1 1476.3125,45.7969 L1483.3125,65.5938 L3693.5,65.5938 A2.5,2.5 0 0 1 3696,68.0938 L3696,822.0269 A2.5,2.5 0 0 1 3693.5,824.5269 L1212.5,824.5269 A2.5,2.5 0 0 1 1210,822.0269 L1210,45.7969 A2.5,2.5 0 0 1 1212.5,43.2969" fill="none" style="stroke:#000000;stroke-width:1.5;"/><line style="stroke:#000000;stroke-width:1.5;" x1="1210" x2="1483.3125" y1="65.5938" y2="65.5938"/><text fill="#000000" font-family="sans-serif" font-size="14" font-weight="bold" lengthAdjust="spacing" textLength="260.3125" x="1214" y="58.292">mx_bluesky.common.parameters</text></g><!--cluster mx_bluesky.hyperion.parameters--><g class="cluster" data-entity="mx_bluesky.hyperion.parameters" data-source-line="70" data-uid="ent0015" id="cluster_mx_bluesky.hyperion.parameters"><path d="M8.5,660.4869 L273.0322,660.4869 A3.75,3.75 0 0 1 275.5322,662.9869 L282.5322,682.7838 L1183.5,682.7838 A2.5,2.5 0 0 1 1186,685.2838 L1186,1095.2169 A2.5,2.5 0 0 1 1183.5,1097.7169 L8.5,1097.7169 A2.5,2.5 0 0 1 6,1095.2169 L6,662.9869 A2.5,2.5 0 0 1 8.5,660.4869" fill="none" style="stroke:#000000;stroke-width:1.5;"/><line style="stroke:#000000;stroke-width:1.5;" x1="6" x2="282.5322" y1="682.7838" y2="682.7838"/><text fill="#000000" font-family="sans-serif" font-size="14" font-weight="bold" lengthAdjust="spacing" textLength="263.5322" x="10" y="675.482">mx_bluesky.hyperion.parameters</text></g><!--class OptionalGonioAngleStarts--><g class="entity" data-entity="OptionalGonioAngleStarts" data-source-line="8" data-uid="ent0003" id="entity_OptionalGonioAngleStarts"><rect fill="#F1F1F1" height="113.1875" rx="2.5" ry="2.5" style="stroke:#181818;stroke-width:0.5;" width="219.3203" x="2801.34" y="94.4469"/><ellipse cx="2819.0633" cy="110.4469" fill="#ADD1B2" rx="11" ry="11" style="stroke:#181818;stroke-width:1;"/><path d="M2822.032,116.0875 Q2821.4539,116.3844 2820.8133,116.525 Q2820.1727,116.6813 2819.4695,116.6813 Q2816.9695,116.6813 2815.6414,115.0406 Q2814.3289,113.3844 2814.3289,110.2594 Q2814.3289,107.1344 2815.6414,105.4781 Q2816.9695,103.8219 2819.4695,103.8219 Q2820.1727,103.8219 2820.8133,103.9781 Q2821.4695,104.1344 2822.032,104.4313 L2822.032,107.15 Q2821.407,106.5719 2820.8133,106.3063 Q2820.2195,106.025 2819.5945,106.025 Q2818.2508,106.025 2817.5633,107.1031 Q2816.8758,108.1656 2816.8758,110.2594 Q2816.8758,112.3531 2817.5633,113.4313 Q2818.2508,114.4938 2819.5945,114.4938 Q2820.2195,114.4938 2820.8133,114.2281 Q2821.407,113.9469 2822.032,113.3688 L2822.032,116.0875 Z " fill="#000000"/><text fill="#000000" font-family="sans-serif" font-size="14" lengthAdjust="spacing" textLength="181.2686" x="2833.6685" y="115.2936">OptionalGonioAngleStarts</text><line style="stroke:#181818;stroke-width:0.5;" x1="2802.34" x2="3019.6603" y1="126.4469" y2="126.4469"/><text fill="#000000" font-family="sans-serif" font-size="14" lengthAdjust="spacing" textLength="207.3203" x="2807.34" y="143.442">float | None omega_start_deg</text><text fill="#000000" font-family="sans-serif" font-size="14" lengthAdjust="spacing" textLength="180.6875" x="2807.34" y="159.7389">float | None phi_start_deg</text><text fill="#000000" font-family="sans-serif" font-size="14" lengthAdjust="spacing" textLength="179.498" x="2807.34" y="176.0357">float | None chi_start_deg</text><text fill="#000000" font-family="sans-serif" font-size="14" lengthAdjust="spacing" textLength="202.0771" x="2807.34" y="192.3326">float | None kappa_start_deg</text><line style="stroke:#181818;stroke-width:0.5;" x1="2802.34" x2="3019.6603" y1="199.6344" y2="199.6344"/></g><!--class WithPandaGridScan--><g class="entity" data-entity="WithPandaGridScan" data-source-line="14" data-uid="ent0004" id="entity_WithPandaGridScan"><rect fill="#F1F1F1" height="64.2969" rx="2.5" ry="2.5" style="stroke:#181818;stroke-width:0.5;" width="240.5664" x="1589.72" y="118.8869"/><ellipse cx="1636.3172" cy="134.8869" fill="#ADD1B2" rx="11" ry="11" style="stroke:#181818;stroke-width:1;"/><path d="M1639.2859,140.5275 Q1638.7078,140.8244 1638.0672,140.965 Q1637.4265,141.1213 1636.7234,141.1213 Q1634.2234,141.1213 1632.8953,139.4806 Q1631.5828,137.8244 1631.5828,134.6994 Q1631.5828,131.5744 1632.8953,129.9181 Q1634.2234,128.2619 1636.7234,128.2619 Q1637.4265,128.2619 1638.0672,128.4181 Q1638.7234,128.5744 1639.2859,128.8713 L1639.2859,131.59 Q1638.6609,131.0119 1638.0672,130.7463 Q1637.4734,130.465 1636.8484,130.465 Q1635.5047,130.465 1634.8172,131.5431 Q1634.1297,132.6056 1634.1297,134.6994 Q1634.1297,136.7931 1634.8172,137.8713 Q1635.5047,138.9338 1636.8484,138.9338 Q1637.4734,138.9338 1638.0672,138.6681 Q1638.6609,138.3869 1639.2859,137.8088 L1639.2859,140.5275 Z " fill="#000000"/><text fill="#000000" font-family="sans-serif" font-size="14" lengthAdjust="spacing" textLength="138.8721" x="1656.8172" y="139.7336">WithPandaGridScan</text><line style="stroke:#181818;stroke-width:0.5;" x1="1590.72" x2="1829.2864" y1="150.8869" y2="150.8869"/><text fill="#000000" font-family="sans-serif" font-size="14" lengthAdjust="spacing" textLength="228.5664" x="1595.72" y="167.882">float panda_runup_distance_mm</text><line style="stroke:#181818;stroke-width:0.5;" x1="1590.72" x2="1829.2864" y1="175.1838" y2="175.1838"/></g><!--class WithOptionalEnergyChange--><g class="entity" data-entity="WithOptionalEnergyChange" data-source-line="17" data-uid="ent0005" id="entity_WithOptionalEnergyChange"><rect fill="#F1F1F1" height="64.2969" rx="2.5" ry="2.5" style="stroke:#181818;stroke-width:0.5;" width="235.4463" x="2531.28" y="118.8869"/><ellipse cx="2550.4645" cy="134.8869" fill="#ADD1B2" rx="11" ry="11" style="stroke:#181818;stroke-width:1;"/><path d="M2553.4332,140.5275 Q2552.8551,140.8244 2552.2145,140.965 Q2551.5738,141.1213 2550.8707,141.1213 Q2548.3707,141.1213 2547.0426,139.4806 Q2545.7301,137.8244 2545.7301,134.6994 Q2545.7301,131.5744 2547.0426,129.9181 Q2548.3707,128.2619 2550.8707,128.2619 Q2551.5738,128.2619 2552.2145,128.4181 Q2552.8707,128.5744 2553.4332,128.8713 L2553.4332,131.59 Q2552.8082,131.0119 2552.2145,130.7463 Q2551.6207,130.465 2550.9957,130.465 Q2549.652,130.465 2548.9645,131.5431 Q2548.277,132.6056 2548.277,134.6994 Q2548.277,136.7931 2548.9645,137.8713 Q2549.652,138.9338 2550.9957,138.9338 Q2551.6207,138.9338 2552.2145,138.6681 Q2552.8082,138.3869 2553.4332,137.8088 L2553.4332,140.5275 Z " fill="#000000"/><text fill="#000000" font-family="sans-serif" font-size="14" lengthAdjust="spacing" textLength="194.1475" x="2565.3944" y="139.7336">WithOptionalEnergyChange</text><line style="stroke:#181818;stroke-width:0.5;" x1="2532.28" x2="2765.7263" y1="150.8869" y2="150.8869"/><text fill="#000000" font-family="sans-serif" font-size="14" lengthAdjust="spacing" textLength="223.4463" x="2537.28" y="167.882">float | None demand_energy_ev</text><line style="stroke:#181818;stroke-width:0.5;" x1="2532.28" x2="2765.7263" y1="175.1838" y2="175.1838"/></g><!--class WithSnapshot--><g class="entity" data-entity="WithSnapshot" data-source-line="20" data-uid="ent0006" id="entity_WithSnapshot"><rect fill="#F1F1F1" height="80.5938" rx="2.5" ry="2.5" style="stroke:#181818;stroke-width:0.5;" width="289.3477" x="2207.33" y="110.7369"/><ellipse cx="2298.9828" cy="126.7369" fill="#ADD1B2" rx="11" ry="11" style="stroke:#181818;stroke-width:1;"/><path d="M2301.9516,132.3775 Q2301.3735,132.6744 2300.7328,132.815 Q2300.0922,132.9713 2299.3891,132.9713 Q2296.8891,132.9713 2295.561,131.3306 Q2294.2485,129.6744 2294.2485,126.5494 Q2294.2485,123.4244 2295.561,121.7681 Q2296.8891,120.1119 2299.3891,120.1119 Q2300.0922,120.1119 2300.7328,120.2681 Q2301.3891,120.4244 2301.9516,120.7213 L2301.9516,123.44 Q2301.3266,122.8619 2300.7328,122.5963 Q2300.1391,122.315 2299.5141,122.315 Q2298.1703,122.315 2297.4828,123.3931 Q2296.7953,124.4556 2296.7953,126.5494 Q2296.7953,128.6431 2297.4828,129.7213 Q2298.1703,130.7838 2299.5141,130.7838 Q2300.1391,130.7838 2300.7328,130.5181 Q2301.3266,130.2369 2301.9516,129.6588 L2301.9516,132.3775 Z " fill="#000000"/><text fill="#000000" font-family="sans-serif" font-size="14" lengthAdjust="spacing" textLength="97.542" x="2319.4828" y="131.5836">WithSnapshot</text><line style="stroke:#181818;stroke-width:0.5;" x1="2208.33" x2="2495.6777" y1="142.7369" y2="142.7369"/><text fill="#000000" font-family="sans-serif" font-size="14" lengthAdjust="spacing" textLength="169.627" x="2213.33" y="159.732">Path snapshot_directory</text><text fill="#000000" font-family="sans-serif" font-size="14" lengthAdjust="spacing" textLength="277.3477" x="2213.33" y="176.0289">list[float] | None snapshot_omegas_deg</text><line style="stroke:#181818;stroke-width:0.5;" x1="2208.33" x2="2495.6777" y1="183.3306" y2="183.3306"/></g><!--class WithCentreSelection--><g class="entity" data-entity="WithCentreSelection" data-source-line="24" data-uid="ent0007" id="entity_WithCentreSelection"><rect fill="#F1F1F1" height="64.2969" rx="2.5" ry="2.5" style="stroke:#181818;stroke-width:0.5;" width="306.7861" x="1865.61" y="118.8869"/><ellipse cx="1942.8869" cy="134.8869" fill="#ADD1B2" rx="11" ry="11" style="stroke:#181818;stroke-width:1;"/><path d="M1945.8556,140.5275 Q1945.2775,140.8244 1944.6369,140.965 Q1943.9962,141.1213 1943.2931,141.1213 Q1940.7931,141.1213 1939.465,139.4806 Q1938.1525,137.8244 1938.1525,134.6994 Q1938.1525,131.5744 1939.465,129.9181 Q1940.7931,128.2619 1943.2931,128.2619 Q1943.9962,128.2619 1944.6369,128.4181 Q1945.2931,128.5744 1945.8556,128.8713 L1945.8556,131.59 Q1945.2306,131.0119 1944.6369,130.7463 Q1944.0431,130.465 1943.4181,130.465 Q1942.0744,130.465 1941.3869,131.5431 Q1940.6994,132.6056 1940.6994,134.6994 Q1940.6994,136.7931 1941.3869,137.8713 Q1942.0744,138.9338 1943.4181,138.9338 Q1944.0431,138.9338 1944.6369,138.6681 Q1945.2306,138.3869 1945.8556,137.8088 L1945.8556,140.5275 Z " fill="#000000"/><text fill="#000000" font-family="sans-serif" font-size="14" lengthAdjust="spacing" textLength="143.7324" x="1963.3869" y="139.7336">WithCentreSelection</text><line style="stroke:#181818;stroke-width:0.5;" x1="1866.61" x2="2171.3961" y1="150.8869" y2="150.8869"/><text fill="#000000" font-family="sans-serif" font-size="14" lengthAdjust="spacing" textLength="294.7861" x="1871.61" y="167.882">TopNByMaxCountSelection select_centres</text><line style="stroke:#181818;stroke-width:0.5;" x1="1866.61" x2="2171.3961" y1="175.1838" y2="175.1838"/></g><!--class WithVisit--><g class="entity" data-entity="WithVisit" data-source-line="27" data-uid="ent0008" id="entity_WithVisit"><rect fill="#F1F1F1" height="129.4844" rx="2.5" ry="2.5" style="stroke:#181818;stroke-width:0.5;" width="271.7861" x="3056.11" y="86.2969"/><ellipse cx="3156.6359" cy="102.2969" fill="#ADD1B2" rx="11" ry="11" style="stroke:#181818;stroke-width:1;"/><path d="M3159.6046,107.9375 Q3159.0265,108.2344 3158.3859,108.375 Q3157.7453,108.5313 3157.0421,108.5313 Q3154.5421,108.5313 3153.214,106.8906 Q3151.9015,105.2344 3151.9015,102.1094 Q3151.9015,98.9844 3153.214,97.3281 Q3154.5421,95.6719 3157.0421,95.6719 Q3157.7453,95.6719 3158.3859,95.8281 Q3159.0421,95.9844 3159.6046,96.2813 L3159.6046,99 Q3158.9796,98.4219 3158.3859,98.1563 Q3157.7921,97.875 3157.1671,97.875 Q3155.8234,97.875 3155.1359,98.9531 Q3154.4484,100.0156 3154.4484,102.1094 Q3154.4484,104.2031 3155.1359,105.2813 Q3155.8234,106.3438 3157.1671,106.3438 Q3157.7921,106.3438 3158.3859,106.0781 Q3158.9796,105.7969 3159.6046,105.2188 L3159.6046,107.9375 Z " fill="#000000"/><text fill="#000000" font-family="sans-serif" font-size="14" lengthAdjust="spacing" textLength="62.2344" x="3177.1359" y="107.1436">WithVisit</text><line style="stroke:#181818;stroke-width:0.5;" x1="3057.11" x2="3326.8961" y1="118.2969" y2="118.2969"/><text fill="#000000" font-family="sans-serif" font-size="14" lengthAdjust="spacing" textLength="87.9717" x="3062.11" y="135.292">str beamline</text><text fill="#000000" font-family="sans-serif" font-size="14" lengthAdjust="spacing" textLength="51.8369" x="3062.11" y="151.5889">str visit</text><text fill="#000000" font-family="sans-serif" font-size="14" lengthAdjust="spacing" textLength="259.7861" x="3062.11" y="167.8857">str det_dist_to_beam_converter_path</text><text fill="#000000" font-family="sans-serif" font-size="14" lengthAdjust="spacing" textLength="131.5918" x="3062.11" y="184.1826">str insertion_prefix</text><text fill="#000000" font-family="sans-serif" font-size="14" lengthAdjust="spacing" textLength="245.752" x="3062.11" y="200.4795">float | None detector_distance_mm</text><line style="stroke:#181818;stroke-width:0.5;" x1="3057.11" x2="3326.8961" y1="207.7813" y2="207.7813"/></g><!--class WithSample--><g class="entity" data-entity="WithSample" data-source-line="34" data-uid="ent0009" id="entity_WithSample"><rect fill="#F1F1F1" height="96.8906" rx="2.5" ry="2.5" style="stroke:#181818;stroke-width:0.5;" width="176.3086" x="3362.85" y="102.5869"/><ellipse cx="3404.7243" cy="118.5869" fill="#ADD1B2" rx="11" ry="11" style="stroke:#181818;stroke-width:1;"/><path d="M3407.6931,124.2275 Q3407.1149,124.5244 3406.4743,124.665 Q3405.8337,124.8213 3405.1306,124.8213 Q3402.6306,124.8213 3401.3024,123.1806 Q3399.9899,121.5244 3399.9899,118.3994 Q3399.9899,115.2744 3401.3024,113.6181 Q3402.6306,111.9619 3405.1306,111.9619 Q3405.8337,111.9619 3406.4743,112.1181 Q3407.1306,112.2744 3407.6931,112.5713 L3407.6931,115.29 Q3407.0681,114.7119 3406.4743,114.4463 Q3405.8806,114.165 3405.2556,114.165 Q3403.9118,114.165 3403.2243,115.2431 Q3402.5368,116.3056 3402.5368,118.3994 Q3402.5368,120.4931 3403.2243,121.5713 Q3403.9118,122.6338 3405.2556,122.6338 Q3405.8806,122.6338 3406.4743,122.3681 Q3407.0681,122.0869 3407.6931,121.5088 L3407.6931,124.2275 Z " fill="#000000"/><text fill="#000000" font-family="sans-serif" font-size="14" lengthAdjust="spacing" textLength="84.5879" x="3424.6964" y="123.4336">WithSample</text><line style="stroke:#181818;stroke-width:0.5;" x1="3363.85" x2="3538.1586" y1="134.5869" y2="134.5869"/><text fill="#000000" font-family="sans-serif" font-size="14" lengthAdjust="spacing" textLength="93.3789" x="3368.85" y="151.582">int sample_id</text><text fill="#000000" font-family="sans-serif" font-size="14" lengthAdjust="spacing" textLength="164.3086" x="3368.85" y="167.8789">int | None sample_puck</text><text fill="#000000" font-family="sans-serif" font-size="14" lengthAdjust="spacing" textLength="152.3936" x="3368.85" y="184.1757">int | None sample_pin</text><line style="stroke:#181818;stroke-width:0.5;" x1="3363.85" x2="3538.1586" y1="191.4775" y2="191.4775"/></g><!--class SplitScan--><g class="entity" data-entity="SplitScan" data-source-line="39" data-uid="ent0010" id="entity_SplitScan"><rect fill="#F1F1F1" height="48" rx="2.5" ry="2.5" style="stroke:#181818;stroke-width:0.5;" width="97.0781" x="3574.46" y="127.0369"/><ellipse cx="3589.46" cy="143.0369" fill="#ADD1B2" rx="11" ry="11" style="stroke:#181818;stroke-width:1;"/><path d="M3592.4288,148.6775 Q3591.8506,148.9744 3591.21,149.115 Q3590.5694,149.2713 3589.8663,149.2713 Q3587.3663,149.2713 3586.0381,147.6306 Q3584.7256,145.9744 3584.7256,142.8494 Q3584.7256,139.7244 3586.0381,138.0681 Q3587.3663,136.4119 3589.8663,136.4119 Q3590.5694,136.4119 3591.21,136.5681 Q3591.8663,136.7244 3592.4288,137.0213 L3592.4288,139.74 Q3591.8038,139.1619 3591.21,138.8963 Q3590.6163,138.615 3589.9913,138.615 Q3588.6475,138.615 3587.96,139.6931 Q3587.2725,140.7556 3587.2725,142.8494 Q3587.2725,144.9431 3587.96,146.0213 Q3588.6475,147.0838 3589.9913,147.0838 Q3590.6163,147.0838 3591.21,146.8181 Q3591.8038,146.5369 3592.4288,145.9588 L3592.4288,148.6775 Z " fill="#000000"/><text fill="#000000" font-family="sans-serif" font-size="14" lengthAdjust="spacing" textLength="65.0781" x="3603.46" y="147.8836">SplitScan</text><line style="stroke:#181818;stroke-width:0.5;" x1="3575.46" x2="3670.5381" y1="159.0369" y2="159.0369"/><line style="stroke:#181818;stroke-width:0.5;" x1="3575.46" x2="3670.5381" y1="167.0369" y2="167.0369"/></g><!--class MxBlueskyParameters--><g class="entity" data-entity="MxBlueskyParameters" data-source-line="43" data-uid="ent0011" id="entity_MxBlueskyParameters"><rect fill="#F1F1F1" height="64.2969" rx="2.5" ry="2.5" style="stroke:#181818;stroke-width:0.5;" width="317.4639" x="1237.27" y="118.8869"/><ellipse cx="1313.8564" cy="134.8869" fill="#ADD1B2" rx="11" ry="11" style="stroke:#181818;stroke-width:1;"/><path d="M1316.8252,140.5275 Q1316.2471,140.8244 1315.6064,140.965 Q1314.9658,141.1213 1314.2627,141.1213 Q1311.7627,141.1213 1310.4346,139.4806 Q1309.1221,137.8244 1309.1221,134.6994 Q1309.1221,131.5744 1310.4346,129.9181 Q1311.7627,128.2619 1314.2627,128.2619 Q1314.9658,128.2619 1315.6064,128.4181 Q1316.2627,128.5744 1316.8252,128.8713 L1316.8252,131.59 Q1316.2002,131.0119 1315.6064,130.7463 Q1315.0127,130.465 1314.3877,130.465 Q1313.0439,130.465 1312.3564,131.5431 Q1311.6689,132.6056 1311.6689,134.6994 Q1311.6689,136.7931 1312.3564,137.8713 Q1313.0439,138.9338 1314.3877,138.9338 Q1315.0127,138.9338 1315.6064,138.6681 Q1316.2002,138.3869 1316.8252,137.8088 L1316.8252,140.5275 Z " fill="#000000"/><text fill="#000000" font-family="sans-serif" font-size="14" lengthAdjust="spacing" textLength="155.791" x="1334.3564" y="139.7336">MxBlueskyParameters</text><line style="stroke:#181818;stroke-width:0.5;" x1="1238.27" x2="1553.7339" y1="150.8869" y2="150.8869"/><text fill="#000000" font-family="sans-serif" font-size="14" lengthAdjust="spacing" textLength="305.4639" x="1243.27" y="167.882">SemanticVersion parameter_model_version</text><line style="stroke:#181818;stroke-width:0.5;" x1="1238.27" x2="1553.7339" y1="175.1838" y2="175.1838"/></g><!--class DiffractionExperiment--><g class="entity" data-entity="DiffractionExperiment" data-source-line="46" data-uid="ent0012" id="entity_DiffractionExperiment"><rect fill="#F1F1F1" height="210.9688" rx="2.5" ry="2.5" style="stroke:#181818;stroke-width:0.5;" width="332.332" x="1233.83" y="275.7769"/><ellipse cx="1318.6127" cy="291.7769" fill="#ADD1B2" rx="11" ry="11" style="stroke:#181818;stroke-width:1;"/><path d="M1321.5815,297.4175 Q1321.0033,297.7144 1320.3627,297.855 Q1319.7221,298.0113 1319.019,298.0113 Q1316.519,298.0113 1315.1908,296.3706 Q1313.8783,294.7144 1313.8783,291.5894 Q1313.8783,288.4644 1315.1908,286.8081 Q1316.519,285.1519 1319.019,285.1519 Q1319.7221,285.1519 1320.3627,285.3081 Q1321.019,285.4644 1321.5815,285.7613 L1321.5815,288.48 Q1320.9565,287.9019 1320.3627,287.6363 Q1319.769,287.355 1319.144,287.355 Q1317.8002,287.355 1317.1127,288.4331 Q1316.4252,289.4956 1316.4252,291.5894 Q1316.4252,293.6831 1317.1127,294.7613 Q1317.8002,295.8238 1319.144,295.8238 Q1319.769,295.8238 1320.3627,295.5581 Q1320.9565,295.2769 1321.5815,294.6988 L1321.5815,297.4175 Z " fill="#000000"/><text fill="#000000" font-family="sans-serif" font-size="14" lengthAdjust="spacing" textLength="154.2666" x="1339.1127" y="296.6236">DiffractionExperiment</text><line style="stroke:#181818;stroke-width:0.5;" x1="1234.83" x2="1565.162" y1="307.7769" y2="307.7769"/><text fill="#000000" font-family="sans-serif" font-size="14" lengthAdjust="spacing" textLength="91.0137" x="1239.83" y="324.772">str file_name</text><text fill="#000000" font-family="sans-serif" font-size="14" lengthAdjust="spacing" textLength="153.7129" x="1239.83" y="341.0689">float exposure_time_s</text><text fill="#000000" font-family="sans-serif" font-size="14" lengthAdjust="spacing" textLength="89.5029" x="1239.83" y="357.3657">str comment</text><text fill="#000000" font-family="sans-serif" font-size="14" lengthAdjust="spacing" textLength="186.915" x="1239.83" y="373.6626">TriggerMode trigger_mode</text><text fill="#000000" font-family="sans-serif" font-size="14" lengthAdjust="spacing" textLength="157.9854" x="1239.83" y="389.9595">int | None run_number</text><text fill="#000000" font-family="sans-serif" font-size="14" lengthAdjust="spacing" textLength="282.3516" x="1239.83" y="406.2564">ApertureValue | None selected_aperture</text><text fill="#000000" font-family="sans-serif" font-size="14" lengthAdjust="spacing" textLength="159.2979" x="1239.83" y="422.5532">float transmission_frac</text><text fill="#000000" font-family="sans-serif" font-size="14" lengthAdjust="spacing" textLength="320.332" x="1239.83" y="438.8501">IspybExperimentType ispyb_experiment_type</text><text fill="#000000" font-family="sans-serif" font-size="14" lengthAdjust="spacing" textLength="146.1113" x="1239.83" y="455.147">str storage_directory</text><text fill="#000000" font-family="sans-serif" font-size="14" lengthAdjust="spacing" textLength="131.0518" x="1239.83" y="471.4439">bool use_roi_mode</text><line style="stroke:#181818;stroke-width:0.5;" x1="1234.83" x2="1565.162" y1="478.7456" y2="478.7456"/></g><!--class GridCommon--><g class="entity" data-entity="GridCommon" data-source-line="58" data-uid="ent0013" id="entity_GridCommon"><rect fill="#F1F1F1" height="145.7813" rx="2.5" ry="2.5" style="stroke:#181818;stroke-width:0.5;" width="332.332" x="1233.83" y="654.7469"/><ellipse cx="1349.5282" cy="670.7469" fill="#ADD1B2" rx="11" ry="11" style="stroke:#181818;stroke-width:1;"/><path d="M1352.497,676.3875 Q1351.9189,676.6844 1351.2782,676.825 Q1350.6376,676.9813 1349.9345,676.9813 Q1347.4345,676.9813 1346.1064,675.3406 Q1344.7939,673.6844 1344.7939,670.5594 Q1344.7939,667.4344 1346.1064,665.7781 Q1347.4345,664.1219 1349.9345,664.1219 Q1350.6376,664.1219 1351.2782,664.2781 Q1351.9345,664.4344 1352.497,664.7313 L1352.497,667.45 Q1351.872,666.8719 1351.2782,666.6063 Q1350.6845,666.325 1350.0595,666.325 Q1348.7157,666.325 1348.0282,667.4031 Q1347.3407,668.4656 1347.3407,670.5594 Q1347.3407,672.6531 1348.0282,673.7313 Q1348.7157,674.7938 1350.0595,674.7938 Q1350.6845,674.7938 1351.2782,674.5281 Q1351.872,674.2469 1352.497,673.6688 L1352.497,676.3875 Z " fill="#000000"/><text fill="#000000" font-family="sans-serif" font-size="14" lengthAdjust="spacing" textLength="92.4355" x="1370.0282" y="675.5936">GridCommon</text><line style="stroke:#181818;stroke-width:0.5;" x1="1234.83" x2="1565.162" y1="686.7469" y2="686.7469"/><text fill="#000000" font-family="sans-serif" font-size="14" lengthAdjust="spacing" textLength="125.2959" x="1239.83" y="703.742">float box_size_um</text><text fill="#000000" font-family="sans-serif" font-size="14" lengthAdjust="spacing" textLength="138.4209" x="1239.83" y="720.0389">float grid_width_um</text><text fill="#000000" font-family="sans-serif" font-size="14" lengthAdjust="spacing" textLength="153.7129" x="1239.83" y="736.3357">float exposure_time_s</text><text fill="#000000" font-family="sans-serif" font-size="14" lengthAdjust="spacing" textLength="320.332" x="1239.83" y="752.6326">IspybExperimentType ispyb_experiment_type</text><text fill="#000000" font-family="sans-serif" font-size="14" lengthAdjust="spacing" textLength="282.3516" x="1239.83" y="768.9295">ApertureValue | None selected_aperture</text><text fill="#000000" font-family="sans-serif" font-size="14" lengthAdjust="spacing" textLength="130.498" x="1239.83" y="785.2264">float tip_offset_um</text><line style="stroke:#181818;stroke-width:0.5;" x1="1234.83" x2="1565.162" y1="792.5281" y2="792.5281"/></g><!--class DiffractionExperimentWithSample--><g class="entity" data-entity="DiffractionExperimentWithSample" data-source-line="66" data-uid="ent0014" id="entity_DiffractionExperimentWithSample"><rect fill="#F1F1F1" height="48" rx="2.5" ry="2.5" style="stroke:#181818;stroke-width:0.5;" width="270.8545" x="1264.57" y="546.7469"/><ellipse cx="1279.57" cy="562.7469" fill="#ADD1B2" rx="11" ry="11" style="stroke:#181818;stroke-width:1;"/><path d="M1282.5388,568.3875 Q1281.9606,568.6844 1281.32,568.825 Q1280.6794,568.9813 1279.9763,568.9813 Q1277.4763,568.9813 1276.1481,567.3406 Q1274.8356,565.6844 1274.8356,562.5594 Q1274.8356,559.4344 1276.1481,557.7781 Q1277.4763,556.1219 1279.9763,556.1219 Q1280.6794,556.1219 1281.32,556.2781 Q1281.9763,556.4344 1282.5388,556.7313 L1282.5388,559.45 Q1281.9138,558.8719 1281.32,558.6063 Q1280.7263,558.325 1280.1013,558.325 Q1278.7575,558.325 1278.07,559.4031 Q1277.3825,560.4656 1277.3825,562.5594 Q1277.3825,564.6531 1278.07,565.7313 Q1278.7575,566.7938 1280.1013,566.7938 Q1280.7263,566.7938 1281.32,566.5281 Q1281.9138,566.2469 1282.5388,565.6688 L1282.5388,568.3875 Z " fill="#000000"/><text fill="#000000" font-family="sans-serif" font-size="14" lengthAdjust="spacing" textLength="238.8545" x="1293.57" y="567.5936">DiffractionExperimentWithSample</text><line style="stroke:#181818;stroke-width:0.5;" x1="1265.57" x2="1534.4245" y1="578.7469" y2="578.7469"/><line style="stroke:#181818;stroke-width:0.5;" x1="1265.57" x2="1534.4245" y1="586.7469" y2="586.7469"/></g><!--class MultiRotationScan--><g class="entity" data-entity="MultiRotationScan" data-source-line="71" data-uid="ent0016" id="entity_MultiRotationScan"><rect fill="#F1F1F1" height="64.2969" rx="2.5" ry="2.5" style="stroke:#181818;stroke-width:0.5;" width="540.001" x="584" y="1017.4169"/><ellipse cx="786.0327" cy="1033.4169" fill="#ADD1B2" rx="11" ry="11" style="stroke:#181818;stroke-width:1;"/><path d="M789.0015,1039.0575 Q788.4233,1039.3544 787.7827,1039.495 Q787.1421,1039.6513 786.439,1039.6513 Q783.939,1039.6513 782.6108,1038.0106 Q781.2983,1036.3544 781.2983,1033.2294 Q781.2983,1030.1044 782.6108,1028.4481 Q783.939,1026.7919 786.439,1026.7919 Q787.1421,1026.7919 787.7827,1026.9481 Q788.439,1027.1044 789.0015,1027.4013 L789.0015,1030.12 Q788.3765,1029.5419 787.7827,1029.2763 Q787.189,1028.995 786.564,1028.995 Q785.2202,1028.995 784.5327,1030.0731 Q783.8452,1031.1356 783.8452,1033.2294 Q783.8452,1035.3231 784.5327,1036.4013 Q785.2202,1037.4638 786.564,1037.4638 Q787.189,1037.4638 787.7827,1037.1981 Q788.3765,1036.9169 789.0015,1036.3388 L789.0015,1039.0575 Z " fill="#000000"/><text fill="#000000" font-family="sans-serif" font-size="14" lengthAdjust="spacing" textLength="127.4355" x="806.5327" y="1038.2636">MultiRotationScan</text><line style="stroke:#181818;stroke-width:0.5;" x1="585" x2="1123.001" y1="1049.4169" y2="1049.4169"/><line style="stroke:#181818;stroke-width:0.5;" x1="585" x2="1123.001" y1="1057.4169" y2="1057.4169"/><text fill="#000000" font-family="sans-serif" font-size="14" lengthAdjust="spacing" textLength="528.001" x="590" y="1074.412">Annotated[list[RotationScanPerSweep], Len(min_length=1)] rotation_scans</text></g><!--class PinTipCentreThenXrayCentre--><g class="entity" data-entity="PinTipCentreThenXrayCentre" data-source-line="74" data-uid="ent0017" id="entity_PinTipCentreThenXrayCentre"><rect fill="#F1F1F1" height="64.2969" rx="2.5" ry="2.5" style="stroke:#181818;stroke-width:0.5;" width="235.8955" x="267.05" y="1017.4169"/><ellipse cx="282.05" cy="1033.4169" fill="#ADD1B2" rx="11" ry="11" style="stroke:#181818;stroke-width:1;"/><path d="M285.0188,1039.0575 Q284.4406,1039.3544 283.8,1039.495 Q283.1594,1039.6513 282.4563,1039.6513 Q279.9563,1039.6513 278.6281,1038.0106 Q277.3156,1036.3544 277.3156,1033.2294 Q277.3156,1030.1044 278.6281,1028.4481 Q279.9563,1026.7919 282.4563,1026.7919 Q283.1594,1026.7919 283.8,1026.9481 Q284.4563,1027.1044 285.0188,1027.4013 L285.0188,1030.12 Q284.3938,1029.5419 283.8,1029.2763 Q283.2063,1028.995 282.5813,1028.995 Q281.2375,1028.995 280.55,1030.0731 Q279.8625,1031.1356 279.8625,1033.2294 Q279.8625,1035.3231 280.55,1036.4013 Q281.2375,1037.4638 282.5813,1037.4638 Q283.2063,1037.4638 283.8,1037.1981 Q284.3938,1036.9169 285.0188,1036.3388 L285.0188,1039.0575 Z " fill="#000000"/><text fill="#000000" font-family="sans-serif" font-size="14" lengthAdjust="spacing" textLength="203.8955" x="296.05" y="1038.2636">PinTipCentreThenXrayCentre</text><line style="stroke:#181818;stroke-width:0.5;" x1="268.05" x2="501.9455" y1="1049.4169" y2="1049.4169"/><text fill="#000000" font-family="sans-serif" font-size="14" lengthAdjust="spacing" textLength="130.498" x="273.05" y="1066.412">float tip_offset_um</text><line style="stroke:#181818;stroke-width:0.5;" x1="268.05" x2="501.9455" y1="1073.7138" y2="1073.7138"/></g><!--class GridScanWithEdgeDetect--><g class="entity" data-entity="GridScanWithEdgeDetect" data-source-line="77" data-uid="ent0018" id="entity_GridScanWithEdgeDetect"><rect fill="#F1F1F1" height="48" rx="2.5" ry="2.5" style="stroke:#181818;stroke-width:0.5;" width="209.4268" x="22.29" y="1025.5669"/><ellipse cx="37.29" cy="1041.5669" fill="#ADD1B2" rx="11" ry="11" style="stroke:#181818;stroke-width:1;"/><path d="M40.2588,1047.2075 Q39.6806,1047.5044 39.04,1047.645 Q38.3994,1047.8013 37.6963,1047.8013 Q35.1963,1047.8013 33.8681,1046.1606 Q32.5556,1044.5044 32.5556,1041.3794 Q32.5556,1038.2544 33.8681,1036.5981 Q35.1963,1034.9419 37.6963,1034.9419 Q38.3994,1034.9419 39.04,1035.0981 Q39.6963,1035.2544 40.2588,1035.5513 L40.2588,1038.27 Q39.6338,1037.6919 39.04,1037.4263 Q38.4463,1037.145 37.8213,1037.145 Q36.4775,1037.145 35.79,1038.2231 Q35.1025,1039.2856 35.1025,1041.3794 Q35.1025,1043.4731 35.79,1044.5513 Q36.4775,1045.6138 37.8213,1045.6138 Q38.4463,1045.6138 39.04,1045.3481 Q39.6338,1045.0669 40.2588,1044.4888 L40.2588,1047.2075 Z " fill="#000000"/><text fill="#000000" font-family="sans-serif" font-size="14" lengthAdjust="spacing" textLength="177.4268" x="51.29" y="1046.4136">GridScanWithEdgeDetect</text><line style="stroke:#181818;stroke-width:0.5;" x1="23.29" x2="230.7168" y1="1057.5669" y2="1057.5669"/><line style="stroke:#181818;stroke-width:0.5;" x1="23.29" x2="230.7168" y1="1065.5669" y2="1065.5669"/></g><!--class RotationExperiment--><g class="entity" data-entity="RotationExperiment" data-source-line="79" data-uid="ent0019" id="entity_RotationExperiment"><rect fill="#F1F1F1" height="96.8906" rx="2.5" ry="2.5" style="stroke:#181818;stroke-width:0.5;" width="332.332" x="464.83" y="860.5269"/><ellipse cx="556.7118" cy="876.5269" fill="#ADD1B2" rx="11" ry="11" style="stroke:#181818;stroke-width:1;"/><path d="M559.6806,882.1675 Q559.1025,882.4644 558.4618,882.605 Q557.8212,882.7613 557.1181,882.7613 Q554.6181,882.7613 553.29,881.1206 Q551.9775,879.4644 551.9775,876.3394 Q551.9775,873.2144 553.29,871.5581 Q554.6181,869.9019 557.1181,869.9019 Q557.8212,869.9019 558.4618,870.0581 Q559.1181,870.2144 559.6806,870.5113 L559.6806,873.23 Q559.0556,872.6519 558.4618,872.3863 Q557.8681,872.105 557.2431,872.105 Q555.8993,872.105 555.2118,873.1831 Q554.5243,874.2456 554.5243,876.3394 Q554.5243,878.4331 555.2118,879.5113 Q555.8993,880.5738 557.2431,880.5738 Q557.8681,880.5738 558.4618,880.3081 Q559.0556,880.0269 559.6806,879.4488 L559.6806,882.1675 Z " fill="#000000"/><text fill="#000000" font-family="sans-serif" font-size="14" lengthAdjust="spacing" textLength="140.0684" x="577.2118" y="881.3736">RotationExperiment</text><line style="stroke:#181818;stroke-width:0.5;" x1="465.83" x2="796.162" y1="892.5269" y2="892.5269"/><text fill="#000000" font-family="sans-serif" font-size="14" lengthAdjust="spacing" textLength="202.8018" x="470.83" y="909.522">float shutter_opening_time_s</text><text fill="#000000" font-family="sans-serif" font-size="14" lengthAdjust="spacing" textLength="202.9385" x="470.83" y="925.8189">float rotation_increment_deg</text><text fill="#000000" font-family="sans-serif" font-size="14" lengthAdjust="spacing" textLength="320.332" x="470.83" y="942.1157">IspybExperimentType ispyb_experiment_type</text><line style="stroke:#181818;stroke-width:0.5;" x1="465.83" x2="796.162" y1="949.4175" y2="949.4175"/></g><!--class GridCommonWithHyperionDetectorParams--><g class="entity" data-entity="GridCommonWithHyperionDetectorParams" data-source-line="84" data-uid="ent0020" id="entity_GridCommonWithHyperionDetectorParams"><rect fill="#F1F1F1" height="48" rx="2.5" ry="2.5" style="stroke:#181818;stroke-width:0.5;" width="333.2188" x="96.39" y="884.9769"/><ellipse cx="111.39" cy="900.9769" fill="#ADD1B2" rx="11" ry="11" style="stroke:#181818;stroke-width:1;"/><path d="M114.3588,906.6175 Q113.7806,906.9144 113.14,907.055 Q112.4994,907.2113 111.7963,907.2113 Q109.2963,907.2113 107.9681,905.5706 Q106.6556,903.9144 106.6556,900.7894 Q106.6556,897.6644 107.9681,896.0081 Q109.2963,894.3519 111.7963,894.3519 Q112.4994,894.3519 113.14,894.5081 Q113.7963,894.6644 114.3588,894.9613 L114.3588,897.68 Q113.7338,897.1019 113.14,896.8363 Q112.5463,896.555 111.9213,896.555 Q110.5775,896.555 109.89,897.6331 Q109.2025,898.6956 109.2025,900.7894 Q109.2025,902.8831 109.89,903.9613 Q110.5775,905.0238 111.9213,905.0238 Q112.5463,905.0238 113.14,904.7581 Q113.7338,904.4769 114.3588,903.8988 L114.3588,906.6175 Z " fill="#000000"/><text fill="#000000" font-family="sans-serif" font-size="14" lengthAdjust="spacing" textLength="301.2188" x="125.39" y="905.8236">GridCommonWithHyperionDetectorParams</text><line style="stroke:#181818;stroke-width:0.5;" x1="97.39" x2="428.6088" y1="916.9769" y2="916.9769"/><line style="stroke:#181818;stroke-width:0.5;" x1="97.39" x2="428.6088" y1="924.9769" y2="924.9769"/></g><!--class WithHyperionUDCFeatures--><g class="entity" data-entity="WithHyperionUDCFeatures" data-source-line="86" data-uid="ent0021" id="entity_WithHyperionUDCFeatures"><rect fill="#F1F1F1" height="64.2969" rx="2.5" ry="2.5" style="stroke:#181818;stroke-width:0.5;" width="228.6719" x="315.66" y="695.4869"/><ellipse cx="334.7583" cy="711.4869" fill="#ADD1B2" rx="11" ry="11" style="stroke:#181818;stroke-width:1;"/><path d="M337.7271,717.1275 Q337.149,717.4244 336.5083,717.565 Q335.8677,717.7213 335.1646,717.7213 Q332.6646,717.7213 331.3365,716.0806 Q330.024,714.4244 330.024,711.2994 Q330.024,708.1744 331.3365,706.5181 Q332.6646,704.8619 335.1646,704.8619 Q335.8677,704.8619 336.5083,705.0181 Q337.1646,705.1744 337.7271,705.4713 L337.7271,708.19 Q337.1021,707.6119 336.5083,707.3463 Q335.9146,707.065 335.2896,707.065 Q333.9458,707.065 333.2583,708.1431 Q332.5708,709.2056 332.5708,711.2994 Q332.5708,713.3931 333.2583,714.4713 Q333.9458,715.5338 335.2896,715.5338 Q335.9146,715.5338 336.5083,715.2681 Q337.1021,714.9869 337.7271,714.4088 L337.7271,717.1275 Z " fill="#000000"/><text fill="#000000" font-family="sans-serif" font-size="14" lengthAdjust="spacing" textLength="187.5645" x="349.6691" y="716.3336">WithHyperionUDCFeatures</text><line style="stroke:#181818;stroke-width:0.5;" x1="316.66" x2="543.3319" y1="727.4869" y2="727.4869"/><text fill="#000000" font-family="sans-serif" font-size="14" lengthAdjust="spacing" textLength="216.6719" x="321.66" y="744.482">HyperionFeatureFlags features</text><line style="stroke:#181818;stroke-width:0.5;" x1="316.66" x2="543.3319" y1="751.7838" y2="751.7838"/></g><!--class LoadCentreCollect--><g class="entity" data-entity="LoadCentreCollect" data-source-line="89" data-uid="ent0022" id="entity_LoadCentreCollect"><rect fill="#F1F1F1" height="80.5938" rx="2.5" ry="2.5" style="stroke:#181818;stroke-width:0.5;" width="338.6211" x="831.69" y="868.6769"/><ellipse cx="932.315" cy="884.6769" fill="#ADD1B2" rx="11" ry="11" style="stroke:#181818;stroke-width:1;"/><path d="M935.2838,890.3175 Q934.7056,890.6144 934.065,890.755 Q933.4244,890.9113 932.7213,890.9113 Q930.2213,890.9113 928.8931,889.2706 Q927.5806,887.6144 927.5806,884.4894 Q927.5806,881.3644 928.8931,879.7081 Q930.2213,878.0519 932.7213,878.0519 Q933.4244,878.0519 934.065,878.2081 Q934.7213,878.3644 935.2838,878.6613 L935.2838,881.38 Q934.6588,880.8019 934.065,880.5363 Q933.4713,880.255 932.8463,880.255 Q931.5025,880.255 930.815,881.3331 Q930.1275,882.3956 930.1275,884.4894 Q930.1275,886.5831 930.815,887.6613 Q931.5025,888.7238 932.8463,888.7238 Q933.4713,888.7238 934.065,888.4581 Q934.6588,888.1769 935.2838,887.5988 L935.2838,890.3175 Z " fill="#000000"/><text fill="#000000" font-family="sans-serif" font-size="14" lengthAdjust="spacing" textLength="128.8711" x="952.815" y="889.5236">LoadCentreCollect</text><line style="stroke:#181818;stroke-width:0.5;" x1="832.69" x2="1169.3111" y1="900.6769" y2="900.6769"/><text fill="#000000" font-family="sans-serif" font-size="14" lengthAdjust="spacing" textLength="326.6211" x="837.69" y="917.672">RobotLoadThenCentre robot_load_then_centre</text><text fill="#000000" font-family="sans-serif" font-size="14" lengthAdjust="spacing" textLength="269.3154" x="837.69" y="933.9689">MultiRotationScan multi_rotation_scan</text><line style="stroke:#181818;stroke-width:0.5;" x1="832.69" x2="1169.3111" y1="941.2706" y2="941.2706"/></g><!--reverse link RotationExperiment to MultiRotationScan--><g class="link" data-entity-1="RotationExperiment" data-entity-2="MultiRotationScan" data-source-line="94" data-uid="lnk23" id="link_RotationExperiment_MultiRotationScan"><path codeLine="94" d="M723.3477,967.3688 C754.8177,986.9288 775.06,999.5069 803.19,1016.9869" fill="none" id="RotationExperiment-backto-MultiRotationScan" style="stroke:#181818;stroke-width:1;"/><polygon fill="none" points="708.06,957.8669,720.1803,972.4647,726.515,962.2729,708.06,957.8669" style="stroke:#181818;stroke-width:1;"/></g><!--reverse link SplitScan to MultiRotationScan--><g class="link" data-entity-1="SplitScan" data-entity-2="MultiRotationScan" data-source-line="95" data-uid="lnk24" id="link_SplitScan_MultiRotationScan"><path codeLine="95" d="M3595.8397,190.1552 C3543.1897,264.6352 3395,481.5569 3395,569.7469 C3395,569.7469 3395,569.7469 3395,728.6369 C3395,955.5769 1778.97,1024.0269 1124.43,1042.4369" fill="none" id="SplitScan-backto-MultiRotationScan" style="stroke:#181818;stroke-width:1;"/><polygon fill="none" points="3606.23,175.4569,3590.9403,186.6918,3600.7392,193.6187,3606.23,175.4569" style="stroke:#181818;stroke-width:1;"/></g><!--reverse link DiffractionExperiment to DiffractionExperimentWithSample--><g class="link" data-entity-1="DiffractionExperiment" data-entity-2="DiffractionExperimentWithSample" data-source-line="96" data-uid="lnk25" id="link_DiffractionExperiment_DiffractionExperimentWithSample"><path codeLine="96" d="M1400,505.2469 C1400,527.4969 1400,530.8969 1400,546.3269" fill="none" id="DiffractionExperiment-backto-DiffractionExperimentWithSample" style="stroke:#181818;stroke-width:1;"/><polygon fill="none" points="1400,487.2469,1394,505.2469,1406,505.2469,1400,487.2469" style="stroke:#181818;stroke-width:1;"/></g><!--reverse link WithSample to DiffractionExperimentWithSample--><g class="link" data-entity-1="WithSample" data-entity-2="DiffractionExperimentWithSample" data-source-line="97" data-uid="lnk26" id="link_WithSample_DiffractionExperimentWithSample"><path codeLine="97" d="M3376.2226,209.6391 C3361.7926,219.0491 3360.97,217.9669 3345,223.7769 C3134.65,300.3769 3065.28,241.8569 2844,275.7769 C2333.81,353.9969 1730.93,491.5069 1498.32,546.2769" fill="none" id="WithSample-backto-DiffractionExperimentWithSample" style="stroke:#181818;stroke-width:1;"/><polygon fill="none" points="3391.3,199.8069,3372.9452,204.6133,3379.5,214.6649,3391.3,199.8069" style="stroke:#181818;stroke-width:1;"/></g><!--reverse link GridCommonWithHyperionDetectorParams to PinTipCentreThenXrayCentre--><g class="link" data-entity-1="GridCommonWithHyperionDetectorParams" data-entity-2="PinTipCentreThenXrayCentre" data-source-line="98" data-uid="lnk27" id="link_GridCommonWithHyperionDetectorParams_PinTipCentreThenXrayCentre"><path codeLine="98" d="M295.313,946.6882 C315.523,969.6482 334.73,991.4569 357.19,1016.9769" fill="none" id="GridCommonWithHyperionDetectorParams-backto-PinTipCentreThenXrayCentre" style="stroke:#181818;stroke-width:1;"/><polygon fill="none" points="283.42,933.1769,290.8093,950.6525,299.8168,942.7239,283.42,933.1769" style="stroke:#181818;stroke-width:1;"/></g><!--reverse link WithHyperionUDCFeatures to PinTipCentreThenXrayCentre--><g class="link" data-entity-1="WithHyperionUDCFeatures" data-entity-2="PinTipCentreThenXrayCentre" data-source-line="99" data-uid="lnk28" id="link_WithHyperionUDCFeatures_PinTipCentreThenXrayCentre"><path codeLine="99" d="M297.5893,741.4421 C216.8393,755.0221 131.81,784.2669 79,860.5269 C54.48,895.9269 53.26,922.8969 79,957.4169 C90.91,973.3869 185.93,1000.1669 266.96,1020.5769" fill="none" id="WithHyperionUDCFeatures-backto-PinTipCentreThenXrayCentre" style="stroke:#181818;stroke-width:1;"/><polygon fill="none" points="315.34,738.4569,296.5942,735.5252,298.5843,747.359,315.34,738.4569" style="stroke:#181818;stroke-width:1;"/></g><!--reverse link GridCommonWithHyperionDetectorParams to GridScanWithEdgeDetect--><g class="link" data-entity-1="GridCommonWithHyperionDetectorParams" data-entity-2="GridScanWithEdgeDetect" data-source-line="100" data-uid="lnk29" id="link_GridCommonWithHyperionDetectorParams_GridScanWithEdgeDetect"><path codeLine="100" d="M227.6306,946.0223 C202.5206,971.6023 174.97,999.6769 149.84,1025.2969" fill="none" id="GridCommonWithHyperionDetectorParams-backto-GridScanWithEdgeDetect" style="stroke:#181818;stroke-width:1;"/><polygon fill="none" points="240.24,933.1769,223.3488,941.8191,231.9124,950.2254,240.24,933.1769" style="stroke:#181818;stroke-width:1;"/></g><!--reverse link WithHyperionUDCFeatures to GridScanWithEdgeDetect--><g class="link" data-entity-1="WithHyperionUDCFeatures" data-entity-2="GridScanWithEdgeDetect" data-source-line="101" data-uid="lnk30" id="link_WithHyperionUDCFeatures_GridScanWithEdgeDetect"><path codeLine="101" d="M297.3915,737.1272 C209.6915,748.5772 111.99,777.3969 53,860.5269 C28.08,895.6469 38.6,916.8369 53,957.4169 C62.41,983.9269 83.17,1008.3469 100.32,1025.2169" fill="none" id="WithHyperionUDCFeatures-backto-GridScanWithEdgeDetect" style="stroke:#181818;stroke-width:1;"/><polygon fill="none" points="315.24,734.7969,296.6147,731.1776,298.1682,743.0767,315.24,734.7969" style="stroke:#181818;stroke-width:1;"/></g><!--reverse link DiffractionExperimentWithSample to RotationExperiment--><g class="link" data-entity-1="DiffractionExperimentWithSample" data-entity-2="RotationExperiment" data-source-line="102" data-uid="lnk31" id="link_DiffractionExperimentWithSample_RotationExperiment"><path codeLine="102" d="M1330.0471,602.337 C1205.0371,656.987 908.09,786.8269 740.58,860.0569" fill="none" id="DiffractionExperimentWithSample-backto-RotationExperiment" style="stroke:#181818;stroke-width:1;"/><polygon fill="none" points="1346.54,595.1269,1327.6438,596.8394,1332.4505,607.8346,1346.54,595.1269" style="stroke:#181818;stroke-width:1;"/></g><!--reverse link WithHyperionUDCFeatures to RotationExperiment--><g class="link" data-entity-1="WithHyperionUDCFeatures" data-entity-2="RotationExperiment" data-source-line="103" data-uid="lnk32" id="link_WithHyperionUDCFeatures_RotationExperiment"><path codeLine="103" d="M478.4399,771.8617 C509.4799,799.5617 541.86,828.4469 577.5,860.2369" fill="none" id="WithHyperionUDCFeatures-backto-RotationExperiment" style="stroke:#181818;stroke-width:1;"/><polygon fill="none" points="465.01,759.8769,474.445,776.3384,482.4349,767.3851,465.01,759.8769" style="stroke:#181818;stroke-width:1;"/></g><!--reverse link GridCommon to GridCommonWithHyperionDetectorParams--><g class="link" data-entity-1="GridCommon" data-entity-2="GridCommonWithHyperionDetectorParams" data-source-line="104" data-uid="lnk33" id="link_GridCommon_GridCommonWithHyperionDetectorParams"><path codeLine="104" d="M1256.4733,808.4408 C1228.6533,821.2208 1215.15,825.2469 1186,832.5269 C1026.56,872.3769 609.61,836.7669 447,860.5269 C410.93,865.7969 371.72,875.3569 338.79,884.5269" fill="none" id="GridCommon-backto-GridCommonWithHyperionDetectorParams" style="stroke:#181818;stroke-width:1;"/><polygon fill="none" points="1272.83,800.9269,1253.9687,802.9886,1258.978,813.8931,1272.83,800.9269" style="stroke:#181818;stroke-width:1;"/></g><!--reverse link WithHyperionUDCFeatures to GridCommonWithHyperionDetectorParams--><g class="link" data-entity-1="WithHyperionUDCFeatures" data-entity-2="GridCommonWithHyperionDetectorParams" data-source-line="105" data-uid="lnk34" id="link_WithHyperionUDCFeatures_GridCommonWithHyperionDetectorParams"><path codeLine="105" d="M388.6425,773.0492 C355.5625,808.5692 314.57,852.5969 284.84,884.5169" fill="none" id="WithHyperionUDCFeatures-backto-GridCommonWithHyperionDetectorParams" style="stroke:#181818;stroke-width:1;"/><polygon fill="none" points="400.91,759.8769,384.2518,768.96,393.0333,777.1383,400.91,759.8769" style="stroke:#181818;stroke-width:1;"/></g><!--reverse link DiffractionExperimentWithSample to GridCommon--><g class="link" data-entity-1="DiffractionExperimentWithSample" data-entity-2="GridCommon" data-source-line="106" data-uid="lnk35" id="link_DiffractionExperimentWithSample_GridCommon"><path codeLine="106" d="M1400,612.9369 C1400,628.8869 1400,633.0069 1400,654.5669" fill="none" id="DiffractionExperimentWithSample-backto-GridCommon" style="stroke:#181818;stroke-width:1;"/><polygon fill="none" points="1400,594.9369,1394,612.9369,1406,612.9369,1400,594.9369" style="stroke:#181818;stroke-width:1;"/></g><!--reverse link OptionalGonioAngleStarts to GridCommon--><g class="link" data-entity-1="OptionalGonioAngleStarts" data-entity-2="GridCommon" data-source-line="107" data-uid="lnk36" id="link_OptionalGonioAngleStarts_GridCommon"><path codeLine="107" d="M2807.218,215.9694 C2794.388,222.1994 2797.23,219.8469 2784,223.7769 C2434.37,327.6569 2305.25,144.4069 1965,275.7769 C1909.72,297.1269 1628.46,532.3969 1484.76,654.3069" fill="none" id="OptionalGonioAngleStarts-backto-GridCommon" style="stroke:#181818;stroke-width:1;"/><polygon fill="none" points="2823.41,208.1069,2804.5972,210.5721,2809.8388,221.3667,2823.41,208.1069" style="stroke:#181818;stroke-width:1;"/></g><!--reverse link WithPandaGridScan to WithHyperionUDCFeatures--><g class="link" data-entity-1="WithPandaGridScan" data-entity-2="WithHyperionUDCFeatures" data-source-line="108" data-uid="lnk37" id="link_WithPandaGridScan_WithHyperionUDCFeatures"><path codeLine="108" d="M1649.4842,193.1859 C1625.9042,207.9859 1611.2,214.7369 1582,223.7769 C1334.76,300.2969 1242.5,180.1469 1002,275.7769 C757.61,372.9569 532.74,609.8569 457.01,695.2769" fill="none" id="WithPandaGridScan-backto-WithHyperionUDCFeatures" style="stroke:#181818;stroke-width:1;"/><polygon fill="none" points="1664.73,183.6169,1646.2945,188.104,1652.6739,198.2678,1664.73,183.6169" style="stroke:#181818;stroke-width:1;"/></g><!--reverse link MxBlueskyParameters to DiffractionExperiment--><g class="link" data-entity-1="MxBlueskyParameters" data-entity-2="DiffractionExperiment" data-source-line="109" data-uid="lnk38" id="link_MxBlueskyParameters_DiffractionExperiment"><path codeLine="109" d="M1396.8652,201.2941 C1397.2852,225.2741 1397.57,241.8669 1398.16,275.3869" fill="none" id="MxBlueskyParameters-backto-DiffractionExperiment" style="stroke:#181818;stroke-width:1;"/><polygon fill="none" points="1396.55,183.2969,1390.8661,201.3992,1402.8643,201.189,1396.55,183.2969" style="stroke:#181818;stroke-width:1;"/></g><!--reverse link WithSnapshot to DiffractionExperiment--><g class="link" data-entity-1="WithSnapshot" data-entity-2="DiffractionExperiment" data-source-line="110" data-uid="lnk39" id="link_WithSnapshot_DiffractionExperiment"><path codeLine="110" d="M2260.0666,199.2495 C2233.4366,211.5395 2219.19,216.2669 2190,223.7769 C1932.07,290.1569 1848.1,199.2269 1593,275.7769 C1584.24,278.4069 1575.43,281.4569 1566.65,284.8369" fill="none" id="WithSnapshot-backto-DiffractionExperiment" style="stroke:#181818;stroke-width:1;"/><polygon fill="none" points="2276.41,191.7069,2257.5523,193.8017,2262.5808,204.6973,2276.41,191.7069" style="stroke:#181818;stroke-width:1;"/></g><!--reverse link WithOptionalEnergyChange to DiffractionExperiment--><g class="link" data-entity-1="WithOptionalEnergyChange" data-entity-2="DiffractionExperiment" data-source-line="111" data-uid="lnk40" id="link_WithOptionalEnergyChange_DiffractionExperiment"><path codeLine="111" d="M2586.3368,192.9005 C2561.3468,207.9005 2544.93,215.1369 2514,223.7769 C2119.14,334.0969 1987.44,163.9369 1593,275.7769 C1584.2,278.2769 1575.36,281.2169 1566.55,284.5069" fill="none" id="WithOptionalEnergyChange-backto-DiffractionExperiment" style="stroke:#181818;stroke-width:1;"/><polygon fill="none" points="2601.77,183.6369,2583.2489,187.7561,2589.4246,198.0449,2601.77,183.6369" style="stroke:#181818;stroke-width:1;"/></g><!--reverse link WithVisit to DiffractionExperiment--><g class="link" data-entity-1="WithVisit" data-entity-2="DiffractionExperiment" data-source-line="112" data-uid="lnk41" id="link_WithVisit_DiffractionExperiment"><path codeLine="112" d="M3046.9095,221.9757 C3038.2495,224.9057 3046.6,221.7069 3038,223.7769 C2429.22,370.4669 2239.48,132.0069 1630,275.7769 C1608.98,280.7369 1587.53,287.6569 1566.6,295.5969" fill="none" id="WithVisit-backto-DiffractionExperiment" style="stroke:#181818;stroke-width:1;"/><polygon fill="none" points="3063.96,216.2069,3044.9865,216.2922,3048.8324,227.6592,3063.96,216.2069" style="stroke:#181818;stroke-width:1;"/></g><!--reverse link MxBlueskyParameters to LoadCentreCollect--><g class="link" data-entity-1="MxBlueskyParameters" data-entity-2="LoadCentreCollect" data-source-line="113" data-uid="lnk42" id="link_MxBlueskyParameters_LoadCentreCollect"><path codeLine="113" d="M1493.6118,191.6023 C1533.3518,211.5823 1561.29,233.6469 1584,275.7769 C1701.4,493.5969 1747.36,646.6669 1584,832.5269 C1556.86,863.4069 1332.94,885.3069 1170.69,897.2969" fill="none" id="MxBlueskyParameters-backto-LoadCentreCollect" style="stroke:#181818;stroke-width:1;"/><polygon fill="none" points="1477.53,183.5169,1490.9167,196.9629,1496.307,186.2417,1477.53,183.5169" style="stroke:#181818;stroke-width:1;"/></g><!--reverse link WithVisit to LoadCentreCollect--><g class="link" data-entity-1="WithVisit" data-entity-2="LoadCentreCollect" data-source-line="114" data-uid="lnk43" id="link_WithVisit_LoadCentreCollect"><path codeLine="114" d="M3041.0522,222.8889 C3034.4122,225.5389 3044.51,221.4069 3038,223.7769 C2954.11,254.2969 2927.84,245.1269 2844,275.7769 C2297.49,475.6169 2218.77,673.5669 1659,832.5269 C1497.09,878.5069 1305.22,896.5769 1170.57,903.6169" fill="none" id="WithVisit-backto-LoadCentreCollect" style="stroke:#181818;stroke-width:1;"/><polygon fill="none" points="3057.77,216.2169,3038.8282,217.3163,3043.2762,228.4615,3057.77,216.2169" style="stroke:#181818;stroke-width:1;"/></g><!--reverse link WithSample to LoadCentreCollect--><g class="link" data-entity-1="WithSample" data-entity-2="LoadCentreCollect" data-source-line="115" data-uid="lnk44" id="link_WithSample_LoadCentreCollect"><path codeLine="115" d="M3369.6098,209.6706 C3356.7298,218.1206 3358.18,216.6169 3345,223.7769 C2735.19,555.1269 2580.83,666.3669 1907,832.5269 C1771.95,865.8269 1393.41,889.0369 1170.67,900.2669" fill="none" id="WithSample-backto-LoadCentreCollect" style="stroke:#181818;stroke-width:1;"/><polygon fill="none" points="3384.66,199.7969,3366.3185,204.6539,3372.9011,214.6874,3384.66,199.7969" style="stroke:#181818;stroke-width:1;"/></g><!--reverse link WithCentreSelection to LoadCentreCollect--><g class="link" data-entity-1="WithCentreSelection" data-entity-2="LoadCentreCollect" data-source-line="116" data-uid="lnk45" id="link_WithCentreSelection_LoadCentreCollect"><path codeLine="116" d="M1940.5388,191.256 C1908.7788,205.976 1885.37,214.6469 1848,223.7769 C1711.54,257.1469 1328.87,189.5169 1218,275.7769 C1025.68,425.4269 1002.86,754.9769 1000.87,868.5669" fill="none" id="WithCentreSelection-backto-LoadCentreCollect" style="stroke:#181818;stroke-width:1;"/><polygon fill="none" points="1956.87,183.6869,1938.0158,185.8123,1943.0618,196.6997,1956.87,183.6869" style="stroke:#181818;stroke-width:1;"/></g><!--reverse link WithHyperionUDCFeatures to LoadCentreCollect--><g class="link" data-entity-1="WithHyperionUDCFeatures" data-entity-2="LoadCentreCollect" data-source-line="117" data-uid="lnk46" id="link_WithHyperionUDCFeatures_LoadCentreCollect"><path codeLine="117" d="M547.6132,765.5795 C643.3732,795.6495 770.77,835.6669 874.38,868.2069" fill="none" id="WithHyperionUDCFeatures-backto-LoadCentreCollect" style="stroke:#181818;stroke-width:1;"/><polygon fill="none" points="530.44,760.1869,545.8157,771.3039,549.4108,759.8551,530.44,760.1869" style="stroke:#181818;stroke-width:1;"/></g><!--SRC=[bLPBRziu43vRluAtxGAR07jl3wcJTXTeMgFsPXSe0eAMnX8HYYJ8KMglc__U8Id9TcJPBdomEFDn7jyyfDyMbVHi9HKm-XSDcgiID3Y1KB3bXdK7RfNGsDJgscwo32NIXRys5fmqcis44pKWE7Pl2b2P1sIQ9DwA7EPWIOt6CMqqP1d9daG9h5xpfMh0FsskSrFNHb_RpendsmnD2LYHoMsMA-4z-sAHV0drqMXfRdIfO8x2eTzcavKo0jaFzfaSC5D3ARWFEbv0-KfhApcgoq_edeIr-rPVsgZ-bLZDX2x4HoUBUIvq7uuDKkuQtLXUIBgfS-1rVN2po-cEI2utqqhe4bxdKq1DbZX428Vd0mDpBQol3DAbcS2A-VPC7XtaHFeccoXo_YsQVEnizh18bXzaD0MDZYgdo0O5IDONndv-lxaNwwbfDFOQvkCJp-C5Vs3aGNeP0lFes194hIILFvwUWoOz5e2H7Ow61n3FZNu6Hqt0BIMKG59x4f4xRXsiv7h04CPSHscUYzggGApKo7myS5caOyT8ajecVpegbxgtEBTAOYhr2_q6ZNg_Vf_wkX-BqAFpK4QK-GCT0t5zi_Cwp0n_JlBUowrShPo89D-jmvpLH77BPXXN7WQi8mBMrlZ60KU2SPzGOQhe3jNEoR845sQJONgEJWyIfKRbkgcNuBB93Vb3ClSWA96UYLXfABXejPrpT4BxMleGFWynPvE_lTqiTs4lQ57GUY4PXrx8aQGfKa_5evMmtxHBOnHhF71dP0gs8oOCsZGkZ7vIbcRDlVmVU5Dtef9G_BiiiDeJ3cZwXJX_aHDfkLcjQ146zoThkj-WB_5tP4DMxQezt95jlpKAvLU38jXjLz2Dra40nRSu_VlQ6RZvTm3x-0Vx1FfDBJLNe4kitltv-oDpBP9xWkxcUIRrGjgq5XOLwF-SsAJJzdJAtLeCMTuL9Tp6MTts-YwoWnvF1dtLO9WFOq5BNVP5Ize-KAbp1x5GSMjVNj9XGuKWkvVQRRjKuX3xxS4-wJ3_t4u_W0Xr3nFUILlH1oLAUhEs-lx-9oEAnDpKA1Mvc7mrIuD14QXDIigFP9nIBJXj5zrks6mog3QhWuGV52wsqP1QzlR7rTMmNx9-euq1ZZPk0f_fwMptU1d-aceaI-CzcOqKwUozovqVx-lJZaVkd64atHqMyxIl8_XTShjmpYLxFg6p5YvARsSf6_lE6m07dru9CH9nTkIrVA8Zi_slgtEuOvznv-x4hwDJeD5u1nlajRtZW7swZoDUVVMTWewsn03-4m00]--></g></svg>