<svg xmlns="http://www.w3.org/2000/svg" xmlns:xlink="http://www.w3.org/1999/xlink" contentStyleType="text/css" data-diagram-type="CLASS" height="1104px" preserveAspectRatio="none" style="width:3703px;height:1104px;background:#FFFFFF;" version="1.1" viewBox="0 0 3703 1104" width="3703px" zoomAndPan="magnify"><title>Hyperion Parameter Model</title><defs/><g><g class="title" data-source-line="3"><text fill="#000000" font-family="sans-serif" font-size="14" font-weight="bold" lengthAdjust="spacing" textLength="212.4951" x="1738.2524" y="22.9951">Hyperion Parameter Model</text></g><!--cluster mx_bluesky.common.parameters--><g class="cluster" data-entity="mx_bluesky.common.parameters" data-source-line="6" data-uid="ent0002" id="cluster_mx_bluesky.common.parameters"><path d="M1212.5,43.2969 L1473.8125,43.2969 A3.75,3.75 0 0 1 1476.3125,45.7969 L1483.3125,65.5938 L3693.5,65.5938 A2.5,2.5 0 0 1 3696,68.0938 L3696,822.0269 A2.5,2.5 0 0 1 3693.5,824.5269 L1212.5,824.5269 A2.5,2.5 0 0 1 1210,822.0269 L1210,45.7969 A2.5,2.5 0 0 1 1212.5,43.2969" fill="none" style="stroke:#000000;stroke-width:1.5;"/><line style="stroke:#000000;stroke-width:1.5;" x1="1210" x2="1483.3125" y1="65.5938" y2="65.5938"/><text fill="#000000" font-family="sans-serif" font-size="14" font-weight="bold" lengthAdjust="spacing" textLength="260.3125" x="1214" y="58.292">mx_bluesky.common.parameters</text></g><!--cluster mx_bluesky.hyperion.parameters--><g class="cluster" data-entity="mx_bluesky.hyperion.parameters" data-source-line="71" data-uid="ent0015" id="cluster_mx_bluesky.hyperion.parameters"><path d="M8.5,660.4869 L273.0322,660.4869 A3.75,3.75 0 0 1 275.5322,662.9869 L282.5322,682.7838 L1183.5,682.7838 A2.5,2.5 0 0 1 1186,685.2838 L1186,1095.2169 A2.5,2.5 0 0 1 1183.5,1097.7169 L8.5,1097.7169 A2.5,2.5 0 0 1 6,1095.2169 L6,662.9869 A2.5,2.5 0 0 1 8.5,660.4869" fill="none" style="stroke:#000000;stroke-width:1.5;"/><line style="stroke:#000000;stroke-width:1.5;" x1="6" x2="282.5322" y1="682.7838" y2="682.7838"/><text fill="#000000" font-family="sans-serif" font-size="14" font-weight="bold" lengthAdjust="spacing" textLength="263.5322" x="10" y="675.482">mx_bluesky.hyperion.parameters</text></g><!--class WithSnapshot--><g class="entity" data-entity="WithSnapshot" data-source-line="8" data-uid="ent0003" id="entity_WithSnapshot"><rect fill="#F1F1F1" height="96.8906" rx="2.5" ry="2.5" style="stroke:#181818;stroke-width:0.5;" width="289.3477" x="2207.33" y="102.5869"/><ellipse cx="2298.9828" cy="118.5869" fill="#ADD1B2" rx="11" ry="11" style="stroke:#181818;stroke-width:1;"/><path d="M2301.9516,124.2275 Q2301.3735,124.5244 2300.7328,124.665 Q2300.0922,124.8213 2299.3891,124.8213 Q2296.8891,124.8213 2295.561,123.1806 Q2294.2485,121.5244 2294.2485,118.3994 Q2294.2485,115.2744 2295.561,113.6181 Q2296.8891,111.9619 2299.3891,111.9619 Q2300.0922,111.9619 2300.7328,112.1181 Q2301.3891,112.2744 2301.9516,112.5713 L2301.9516,115.29 Q2301.3266,114.7119 2300.7328,114.4463 Q2300.1391,114.165 2299.5141,114.165 Q2298.1703,114.165 2297.4828,115.2431 Q2296.7953,116.3056 2296.7953,118.3994 Q2296.7953,120.4931 2297.4828,121.5713 Q2298.1703,122.6338 2299.5141,122.6338 Q2300.1391,122.6338 2300.7328,122.3681 Q2301.3266,122.0869 2301.9516,121.5088 L2301.9516,124.2275 Z " fill="#000000"/><text fill="#000000" font-family="sans-serif" font-size="14" lengthAdjust="spacing" textLength="97.542" x="2319.4828" y="123.4336">WithSnapshot</text><line style="stroke:#181818;stroke-width:0.5;" x1="2208.33" x2="2495.6777" y1="134.5869" y2="134.5869"/><text fill="#000000" font-family="sans-serif" font-size="14" lengthAdjust="spacing" textLength="169.627" x="2213.33" y="151.582">Path snapshot_directory</text><text fill="#000000" font-family="sans-serif" font-size="14" lengthAdjust="spacing" textLength="277.3477" x="2213.33" y="167.8789">list[float] | None snapshot_omegas_deg</text><text fill="#000000" font-family="sans-serif" font-size="14" lengthAdjust="spacing" textLength="171.7051" x="2213.33" y="184.1757">bool use_grid_snapshots</text><line style="stroke:#181818;stroke-width:0.5;" x1="2208.33" x2="2495.6777" y1="191.4775" y2="191.4775"/></g><!--class OptionalGonioAngleStarts--><g class="entity" data-entity="OptionalGonioAngleStarts" data-source-line="13" data-uid="ent0004" id="entity_OptionalGonioAngleStarts"><rect fill="#F1F1F1" height="113.1875" rx="2.5" ry="2.5" style="stroke:#181818;stroke-width:0.5;" width="219.3203" x="3320.34" y="94.4469"/><ellipse cx="3338.0633" cy="110.4469" fill="#ADD1B2" rx="11" ry="11" style="stroke:#181818;stroke-width:1;"/><path d="M3341.032,116.0875 Q3340.4539,116.3844 3339.8133,116.525 Q3339.1727,116.6813 3338.4695,116.6813 Q3335.9695,116.6813 3334.6414,115.0406 Q3333.3289,113.3844 3333.3289,110.2594 Q3333.3289,107.1344 3334.6414,105.4781 Q3335.9695,103.8219 3338.4695,103.8219 Q3339.1727,103.8219 3339.8133,103.9781 Q3340.4695,104.1344 3341.032,104.4313 L3341.032,107.15 Q3340.407,106.5719 3339.8133,106.3063 Q3339.2195,106.025 3338.5945,106.025 Q3337.2508,106.025 3336.5633,107.1031 Q3335.8758,108.1656 3335.8758,110.2594 Q3335.8758,112.3531 3336.5633,113.4313 Q3337.2508,114.4938 3338.5945,114.4938 Q3339.2195,114.4938 3339.8133,114.2281 Q3340.407,113.9469 3341.032,113.3688 L3341.032,116.0875 Z " fill="#000000"/><text fill="#000000" font-family="sans-serif" font-size="14" lengthAdjust="spacing" textLength="181.2686" x="3352.6685" y="115.2936">OptionalGonioAngleStarts</text><line style="stroke:#181818;stroke-width:0.5;" x1="3321.34" x2="3538.6603" y1="126.4469" y2="126.4469"/><text fill="#000000" font-family="sans-serif" font-size="14" lengthAdjust="spacing" textLength="207.3203" x="3326.34" y="143.442">float | None omega_start_deg</text><text fill="#000000" font-family="sans-serif" font-size="14" lengthAdjust="spacing" textLength="180.6875" x="3326.34" y="159.7389">float | None phi_start_deg</text><text fill="#000000" font-family="sans-serif" font-size="14" lengthAdjust="spacing" textLength="179.498" x="3326.34" y="176.0357">float | None chi_start_deg</text><text fill="#000000" font-family="sans-serif" font-size="14" lengthAdjust="spacing" textLength="202.0771" x="3326.34" y="192.3326">float | None kappa_start_deg</text><line style="stroke:#181818;stroke-width:0.5;" x1="3321.34" x2="3538.6603" y1="199.6344" y2="199.6344"/></g><!--class WithCentreSelection--><g class="entity" data-entity="WithCentreSelection" data-source-line="19" data-uid="ent0005" id="entity_WithCentreSelection"><rect fill="#F1F1F1" height="64.2969" rx="2.5" ry="2.5" style="stroke:#181818;stroke-width:0.5;" width="306.7861" x="1589.61" y="118.8869"/><ellipse cx="1666.8869" cy="134.8869" fill="#ADD1B2" rx="11" ry="11" style="stroke:#181818;stroke-width:1;"/><path d="M1669.8556,140.5275 Q1669.2775,140.8244 1668.6369,140.965 Q1667.9962,141.1213 1667.2931,141.1213 Q1664.7931,141.1213 1663.465,139.4806 Q1662.1525,137.8244 1662.1525,134.6994 Q1662.1525,131.5744 1663.465,129.9181 Q1664.7931,128.2619 1667.2931,128.2619 Q1667.9962,128.2619 1668.6369,128.4181 Q1669.2931,128.5744 1669.8556,128.8713 L1669.8556,131.59 Q1669.2306,131.0119 1668.6369,130.7463 Q1668.0431,130.465 1667.4181,130.465 Q1666.0744,130.465 1665.3869,131.5431 Q1664.6994,132.6056 1664.6994,134.6994 Q1664.6994,136.7931 1665.3869,137.8713 Q1666.0744,138.9338 1667.4181,138.9338 Q1668.0431,138.9338 1668.6369,138.6681 Q1669.2306,138.3869 1669.8556,137.8088 L1669.8556,140.5275 Z " fill="#000000"/><text fill="#000000" font-family="sans-serif" font-size="14" lengthAdjust="spacing" textLength="143.7324" x="1687.3869" y="139.7336">WithCentreSelection</text><line style="stroke:#181818;stroke-width:0.5;" x1="1590.61" x2="1895.3961" y1="150.8869" y2="150.8869"/><text fill="#000000" font-family="sans-serif" font-size="14" lengthAdjust="spacing" textLength="294.7861" x="1595.61" y="167.882">TopNByMaxCountSelection select_centres</text><line style="stroke:#181818;stroke-width:0.5;" x1="1590.61" x2="1895.3961" y1="175.1838" y2="175.1838"/></g><!--class WithOptionalEnergyChange--><g class="entity" data-entity="WithOptionalEnergyChange" data-source-line="22" data-uid="ent0006" id="entity_WithOptionalEnergyChange"><rect fill="#F1F1F1" height="64.2969" rx="2.5" ry="2.5" style="stroke:#181818;stroke-width:0.5;" width="235.4463" x="2531.28" y="118.8869"/><ellipse cx="2550.4645" cy="134.8869" fill="#ADD1B2" rx="11" ry="11" style="stroke:#181818;stroke-width:1;"/><path d="M2553.4332,140.5275 Q2552.8551,140.8244 2552.2145,140.965 Q2551.5738,141.1213 2550.8707,141.1213 Q2548.3707,141.1213 2547.0426,139.4806 Q2545.7301,137.8244 2545.7301,134.6994 Q2545.7301,131.5744 2547.0426,129.9181 Q2548.3707,128.2619 2550.8707,128.2619 Q2551.5738,128.2619 2552.2145,128.4181 Q2552.8707,128.5744 2553.4332,128.8713 L2553.4332,131.59 Q2552.8082,131.0119 2552.2145,130.7463 Q2551.6207,130.465 2550.9957,130.465 Q2549.652,130.465 2548.9645,131.5431 Q2548.277,132.6056 2548.277,134.6994 Q2548.277,136.7931 2548.9645,137.8713 Q2549.652,138.9338 2550.9957,138.9338 Q2551.6207,138.9338 2552.2145,138.6681 Q2552.8082,138.3869 2553.4332,137.8088 L2553.4332,140.5275 Z " fill="#000000"/><text fill="#000000" font-family="sans-serif" font-size="14" lengthAdjust="spacing" textLength="194.1475" x="2565.3944" y="139.7336">WithOptionalEnergyChange</text><line style="stroke:#181818;stroke-width:0.5;" x1="2532.28" x2="2765.7263" y1="150.8869" y2="150.8869"/><text fill="#000000" font-family="sans-serif" font-size="14" lengthAdjust="spacing" textLength="223.4463" x="2537.28" y="167.882">float | None demand_energy_ev</text><line style="stroke:#181818;stroke-width:0.5;" x1="2532.28" x2="2765.7263" y1="175.1838" y2="175.1838"/></g><!--class WithPandaGridScan--><g class="entity" data-entity="WithPandaGridScan" data-source-line="25" data-uid="ent0007" id="entity_WithPandaGridScan"><rect fill="#F1F1F1" height="64.2969" rx="2.5" ry="2.5" style="stroke:#181818;stroke-width:0.5;" width="240.5664" x="1931.72" y="118.8869"/><ellipse cx="1978.3172" cy="134.8869" fill="#ADD1B2" rx="11" ry="11" style="stroke:#181818;stroke-width:1;"/><path d="M1981.2859,140.5275 Q1980.7078,140.8244 1980.0672,140.965 Q1979.4265,141.1213 1978.7234,141.1213 Q1976.2234,141.1213 1974.8953,139.4806 Q1973.5828,137.8244 1973.5828,134.6994 Q1973.5828,131.5744 1974.8953,129.9181 Q1976.2234,128.2619 1978.7234,128.2619 Q1979.4265,128.2619 1980.0672,128.4181 Q1980.7234,128.5744 1981.2859,128.8713 L1981.2859,131.59 Q1980.6609,131.0119 1980.0672,130.7463 Q1979.4734,130.465 1978.8484,130.465 Q1977.5047,130.465 1976.8172,131.5431 Q1976.1297,132.6056 1976.1297,134.6994 Q1976.1297,136.7931 1976.8172,137.8713 Q1977.5047,138.9338 1978.8484,138.9338 Q1979.4734,138.9338 1980.0672,138.6681 Q1980.6609,138.3869 1981.2859,137.8088 L1981.2859,140.5275 Z " fill="#000000"/><text fill="#000000" font-family="sans-serif" font-size="14" lengthAdjust="spacing" textLength="138.8721" x="1998.8172" y="139.7336">WithPandaGridScan</text><line style="stroke:#181818;stroke-width:0.5;" x1="1932.72" x2="2171.2864" y1="150.8869" y2="150.8869"/><text fill="#000000" font-family="sans-serif" font-size="14" lengthAdjust="spacing" textLength="228.5664" x="1937.72" y="167.882">float panda_runup_distance_mm</text><line style="stroke:#181818;stroke-width:0.5;" x1="1932.72" x2="2171.2864" y1="175.1838" y2="175.1838"/></g><!--class WithSample--><g class="entity" data-entity="WithSample" data-source-line="28" data-uid="ent0008" id="entity_WithSample"><rect fill="#F1F1F1" height="96.8906" rx="2.5" ry="2.5" style="stroke:#181818;stroke-width:0.5;" width="176.3086" x="3108.85" y="102.5869"/><ellipse cx="3150.7243" cy="118.5869" fill="#ADD1B2" rx="11" ry="11" style="stroke:#181818;stroke-width:1;"/><path d="M3153.6931,124.2275 Q3153.1149,124.5244 3152.4743,124.665 Q3151.8337,124.8213 3151.1306,124.8213 Q3148.6306,124.8213 3147.3024,123.1806 Q3145.9899,121.5244 3145.9899,118.3994 Q3145.9899,115.2744 3147.3024,113.6181 Q3148.6306,111.9619 3151.1306,111.9619 Q3151.8337,111.9619 3152.4743,112.1181 Q3153.1306,112.2744 3153.6931,112.5713 L3153.6931,115.29 Q3153.0681,114.7119 3152.4743,114.4463 Q3151.8806,114.165 3151.2556,114.165 Q3149.9118,114.165 3149.2243,115.2431 Q3148.5368,116.3056 3148.5368,118.3994 Q3148.5368,120.4931 3149.2243,121.5713 Q3149.9118,122.6338 3151.2556,122.6338 Q3151.8806,122.6338 3152.4743,122.3681 Q3153.0681,122.0869 3153.6931,121.5088 L3153.6931,124.2275 Z " fill="#000000"/><text fill="#000000" font-family="sans-serif" font-size="14" lengthAdjust="spacing" textLength="84.5879" x="3170.6964" y="123.4336">WithSample</text><line style="stroke:#181818;stroke-width:0.5;" x1="3109.85" x2="3284.1586" y1="134.5869" y2="134.5869"/><text fill="#000000" font-family="sans-serif" font-size="14" lengthAdjust="spacing" textLength="93.3789" x="3114.85" y="151.582">int sample_id</text><text fill="#000000" font-family="sans-serif" font-size="14" lengthAdjust="spacing" textLength="164.3086" x="3114.85" y="167.8789">int | None sample_puck</text><text fill="#000000" font-family="sans-serif" font-size="14" lengthAdjust="spacing" textLength="152.3936" x="3114.85" y="184.1757">int | None sample_pin</text><line style="stroke:#181818;stroke-width:0.5;" x1="3109.85" x2="3284.1586" y1="191.4775" y2="191.4775"/></g><!--class SplitScan--><g class="entity" data-entity="SplitScan" data-source-line="33" data-uid="ent0009" id="entity_SplitScan"><rect fill="#F1F1F1" height="48" rx="2.5" ry="2.5" style="stroke:#181818;stroke-width:0.5;" width="97.0781" x="3574.46" y="127.0369"/><ellipse cx="3589.46" cy="143.0369" fill="#ADD1B2" rx="11" ry="11" style="stroke:#181818;stroke-width:1;"/><path d="M3592.4288,148.6775 Q3591.8506,148.9744 3591.21,149.115 Q3590.5694,149.2713 3589.8663,149.2713 Q3587.3663,149.2713 3586.0381,147.6306 Q3584.7256,145.9744 3584.7256,142.8494 Q3584.7256,139.7244 3586.0381,138.0681 Q3587.3663,136.4119 3589.8663,136.4119 Q3590.5694,136.4119 3591.21,136.5681 Q3591.8663,136.7244 3592.4288,137.0213 L3592.4288,139.74 Q3591.8038,139.1619 3591.21,138.8963 Q3590.6163,138.615 3589.9913,138.615 Q3588.6475,138.615 3587.96,139.6931 Q3587.2725,140.7556 3587.2725,142.8494 Q3587.2725,144.9431 3587.96,146.0213 Q3588.6475,147.0838 3589.9913,147.0838 Q3590.6163,147.0838 3591.21,146.8181 Q3591.8038,146.5369 3592.4288,145.9588 L3592.4288,148.6775 Z " fill="#000000"/><text fill="#000000" font-family="sans-serif" font-size="14" lengthAdjust="spacing" textLength="65.0781" x="3603.46" y="147.8836">SplitScan</text><line style="stroke:#181818;stroke-width:0.5;" x1="3575.46" x2="3670.5381" y1="159.0369" y2="159.0369"/><line style="stroke:#181818;stroke-width:0.5;" x1="3575.46" x2="3670.5381" y1="167.0369" y2="167.0369"/></g><!--class WithVisit--><g class="entity" data-entity="WithVisit" data-source-line="35" data-uid="ent0010" id="entity_WithVisit"><rect fill="#F1F1F1" height="129.4844" rx="2.5" ry="2.5" style="stroke:#181818;stroke-width:0.5;" width="271.7861" x="2802.11" y="86.2969"/><ellipse cx="2902.6359" cy="102.2969" fill="#ADD1B2" rx="11" ry="11" style="stroke:#181818;stroke-width:1;"/><path d="M2905.6046,107.9375 Q2905.0265,108.2344 2904.3859,108.375 Q2903.7453,108.5313 2903.0421,108.5313 Q2900.5421,108.5313 2899.214,106.8906 Q2897.9015,105.2344 2897.9015,102.1094 Q2897.9015,98.9844 2899.214,97.3281 Q2900.5421,95.6719 2903.0421,95.6719 Q2903.7453,95.6719 2904.3859,95.8281 Q2905.0421,95.9844 2905.6046,96.2813 L2905.6046,99 Q2904.9796,98.4219 2904.3859,98.1563 Q2903.7921,97.875 2903.1671,97.875 Q2901.8234,97.875 2901.1359,98.9531 Q2900.4484,100.0156 2900.4484,102.1094 Q2900.4484,104.2031 2901.1359,105.2813 Q2901.8234,106.3438 2903.1671,106.3438 Q2903.7921,106.3438 2904.3859,106.0781 Q2904.9796,105.7969 2905.6046,105.2188 L2905.6046,107.9375 Z " fill="#000000"/><text fill="#000000" font-family="sans-serif" font-size="14" lengthAdjust="spacing" textLength="62.2344" x="2923.1359" y="107.1436">WithVisit</text><line style="stroke:#181818;stroke-width:0.5;" x1="2803.11" x2="3072.8961" y1="118.2969" y2="118.2969"/><text fill="#000000" font-family="sans-serif" font-size="14" lengthAdjust="spacing" textLength="87.9717" x="2808.11" y="135.292">str beamline</text><text fill="#000000" font-family="sans-serif" font-size="14" lengthAdjust="spacing" textLength="51.8369" x="2808.11" y="151.5889">str visit</text><text fill="#000000" font-family="sans-serif" font-size="14" lengthAdjust="spacing" textLength="259.7861" x="2808.11" y="167.8857">str det_dist_to_beam_converter_path</text><text fill="#000000" font-family="sans-serif" font-size="14" lengthAdjust="spacing" textLength="131.5918" x="2808.11" y="184.1826">str insertion_prefix</text><text fill="#000000" font-family="sans-serif" font-size="14" lengthAdjust="spacing" textLength="245.752" x="2808.11" y="200.4795">float | None detector_distance_mm</text><line style="stroke:#181818;stroke-width:0.5;" x1="2803.11" x2="3072.8961" y1="207.7813" y2="207.7813"/></g><!--class DiffractionExperiment--><g class="entity" data-entity="DiffractionExperiment" data-source-line="44" data-uid="ent0011" id="entity_DiffractionExperiment"><rect fill="#F1F1F1" height="210.9688" rx="2.5" ry="2.5" style="stroke:#181818;stroke-width:0.5;" width="332.332" x="1233.83" y="275.7769"/><ellipse cx="1318.6127" cy="291.7769" fill="#ADD1B2" rx="11" ry="11" style="stroke:#181818;stroke-width:1;"/><path d="M1321.5815,297.4175 Q1321.0033,297.7144 1320.3627,297.855 Q1319.7221,298.0113 1319.019,298.0113 Q1316.519,298.0113 1315.1908,296.3706 Q1313.8783,294.7144 1313.8783,291.5894 Q1313.8783,288.4644 1315.1908,286.8081 Q1316.519,285.1519 1319.019,285.1519 Q1319.7221,285.1519 1320.3627,285.3081 Q1321.019,285.4644 1321.5815,285.7613 L1321.5815,288.48 Q1320.9565,287.9019 1320.3627,287.6363 Q1319.769,287.355 1319.144,287.355 Q1317.8002,287.355 1317.1127,288.4331 Q1316.4252,289.4956 1316.4252,291.5894 Q1316.4252,293.6831 1317.1127,294.7613 Q1317.8002,295.8238 1319.144,295.8238 Q1319.769,295.8238 1320.3627,295.5581 Q1320.9565,295.2769 1321.5815,294.6988 L1321.5815,297.4175 Z " fill="#000000"/><text fill="#000000" font-family="sans-serif" font-size="14" lengthAdjust="spacing" textLength="154.2666" x="1339.1127" y="296.6236">DiffractionExperiment</text><line style="stroke:#181818;stroke-width:0.5;" x1="1234.83" x2="1565.162" y1="307.7769" y2="307.7769"/><text fill="#000000" font-family="sans-serif" font-size="14" lengthAdjust="spacing" textLength="91.0137" x="1239.83" y="324.772">str file_name</text><text fill="#000000" font-family="sans-serif" font-size="14" lengthAdjust="spacing" textLength="153.7129" x="1239.83" y="341.0689">float exposure_time_s</text><text fill="#000000" font-family="sans-serif" font-size="14" lengthAdjust="spacing" textLength="89.5029" x="1239.83" y="357.3657">str comment</text><text fill="#000000" font-family="sans-serif" font-size="14" lengthAdjust="spacing" textLength="186.915" x="1239.83" y="373.6626">TriggerMode trigger_mode</text><text fill="#000000" font-family="sans-serif" font-size="14" lengthAdjust="spacing" textLength="157.9854" x="1239.83" y="389.9595">int | None run_number</text><text fill="#000000" font-family="sans-serif" font-size="14" lengthAdjust="spacing" textLength="282.3516" x="1239.83" y="406.2564">ApertureValue | None selected_aperture</text><text fill="#000000" font-family="sans-serif" font-size="14" lengthAdjust="spacing" textLength="159.2979" x="1239.83" y="422.5532">float transmission_frac</text><text fill="#000000" font-family="sans-serif" font-size="14" lengthAdjust="spacing" textLength="320.332" x="1239.83" y="438.8501">IspybExperimentType ispyb_experiment_type</text><text fill="#000000" font-family="sans-serif" font-size="14" lengthAdjust="spacing" textLength="146.1113" x="1239.83" y="455.147">str storage_directory</text><text fill="#000000" font-family="sans-serif" font-size="14" lengthAdjust="spacing" textLength="131.0518" x="1239.83" y="471.4439">bool use_roi_mode</text><line style="stroke:#181818;stroke-width:0.5;" x1="1234.83" x2="1565.162" y1="478.7456" y2="478.7456"/></g><!--class DiffractionExperimentWithSample--><g class="entity" data-entity="DiffractionExperimentWithSample" data-source-line="56" data-uid="ent0012" id="entity_DiffractionExperimentWithSample"><rect fill="#F1F1F1" height="48" rx="2.5" ry="2.5" style="stroke:#181818;stroke-width:0.5;" width="270.8545" x="1264.57" y="546.7469"/><ellipse cx="1279.57" cy="562.7469" fill="#ADD1B2" rx="11" ry="11" style="stroke:#181818;stroke-width:1;"/><path d="M1282.5388,568.3875 Q1281.9606,568.6844 1281.32,568.825 Q1280.6794,568.9813 1279.9763,568.9813 Q1277.4763,568.9813 1276.1481,567.3406 Q1274.8356,565.6844 1274.8356,562.5594 Q1274.8356,559.4344 1276.1481,557.7781 Q1277.4763,556.1219 1279.9763,556.1219 Q1280.6794,556.1219 1281.32,556.2781 Q1281.9763,556.4344 1282.5388,556.7313 L1282.5388,559.45 Q1281.9138,558.8719 1281.32,558.6063 Q1280.7263,558.325 1280.1013,558.325 Q1278.7575,558.325 1278.07,559.4031 Q1277.3825,560.4656 1277.3825,562.5594 Q1277.3825,564.6531 1278.07,565.7313 Q1278.7575,566.7938 1280.1013,566.7938 Q1280.7263,566.7938 1281.32,566.5281 Q1281.9138,566.2469 1282.5388,565.6688 L1282.5388,568.3875 Z " fill="#000000"/><text fill="#000000" font-family="sans-serif" font-size="14" lengthAdjust="spacing" textLength="238.8545" x="1293.57" y="567.5936">DiffractionExperimentWithSample</text><line style="stroke:#181818;stroke-width:0.5;" x1="1265.57" x2="1534.4245" y1="578.7469" y2="578.7469"/><line style="stroke:#181818;stroke-width:0.5;" x1="1265.57" x2="1534.4245" y1="586.7469" y2="586.7469"/></g><!--class MxBlueskyParameters--><g class="entity" data-entity="MxBlueskyParameters" data-source-line="58" data-uid="ent0013" id="entity_MxBlueskyParameters"><rect fill="#F1F1F1" height="64.2969" rx="2.5" ry="2.5" style="stroke:#181818;stroke-width:0.5;" width="317.4639" x="1237.27" y="118.8869"/><ellipse cx="1313.8564" cy="134.8869" fill="#ADD1B2" rx="11" ry="11" style="stroke:#181818;stroke-width:1;"/><path d="M1316.8252,140.5275 Q1316.2471,140.8244 1315.6064,140.965 Q1314.9658,141.1213 1314.2627,141.1213 Q1311.7627,141.1213 1310.4346,139.4806 Q1309.1221,137.8244 1309.1221,134.6994 Q1309.1221,131.5744 1310.4346,129.9181 Q1311.7627,128.2619 1314.2627,128.2619 Q1314.9658,128.2619 1315.6064,128.4181 Q1316.2627,128.5744 1316.8252,128.8713 L1316.8252,131.59 Q1316.2002,131.0119 1315.6064,130.7463 Q1315.0127,130.465 1314.3877,130.465 Q1313.0439,130.465 1312.3564,131.5431 Q1311.6689,132.6056 1311.6689,134.6994 Q1311.6689,136.7931 1312.3564,137.8713 Q1313.0439,138.9338 1314.3877,138.9338 Q1315.0127,138.9338 1315.6064,138.6681 Q1316.2002,138.3869 1316.8252,137.8088 L1316.8252,140.5275 Z " fill="#000000"/><text fill="#000000" font-family="sans-serif" font-size="14" lengthAdjust="spacing" textLength="155.791" x="1334.3564" y="139.7336">MxBlueskyParameters</text><line style="stroke:#181818;stroke-width:0.5;" x1="1238.27" x2="1553.7339" y1="150.8869" y2="150.8869"/><text fill="#000000" font-family="sans-serif" font-size="14" lengthAdjust="spacing" textLength="305.4639" x="1243.27" y="167.882">SemanticVersion parameter_model_version</text><line style="stroke:#181818;stroke-width:0.5;" x1="1238.27" x2="1553.7339" y1="175.1838" y2="175.1838"/></g><!--class GridCommon--><g class="entity" data-entity="GridCommon" data-source-line="61" data-uid="ent0014" id="entity_GridCommon"><rect fill="#F1F1F1" height="145.7813" rx="2.5" ry="2.5" style="stroke:#181818;stroke-width:0.5;" width="332.332" x="1233.83" y="654.7469"/><ellipse cx="1349.5282" cy="670.7469" fill="#ADD1B2" rx="11" ry="11" style="stroke:#181818;stroke-width:1;"/><path d="M1352.497,676.3875 Q1351.9189,676.6844 1351.2782,676.825 Q1350.6376,676.9813 1349.9345,676.9813 Q1347.4345,676.9813 1346.1064,675.3406 Q1344.7939,673.6844 1344.7939,670.5594 Q1344.7939,667.4344 1346.1064,665.7781 Q1347.4345,664.1219 1349.9345,664.1219 Q1350.6376,664.1219 1351.2782,664.2781 Q1351.9345,664.4344 1352.497,664.7313 L1352.497,667.45 Q1351.872,666.8719 1351.2782,666.6063 Q1350.6845,666.325 1350.0595,666.325 Q1348.7157,666.325 1348.0282,667.4031 Q1347.3407,668.4656 1347.3407,670.5594 Q1347.3407,672.6531 1348.0282,673.7313 Q1348.7157,674.7938 1350.0595,674.7938 Q1350.6845,674.7938 1351.2782,674.5281 Q1351.872,674.2469 1352.497,673.6688 L1352.497,676.3875 Z " fill="#000000"/><text fill="#000000" font-family="sans-serif" font-size="14" lengthAdjust="spacing" textLength="92.4355" x="1370.0282" y="675.5936">GridCommon</text><line style="stroke:#181818;stroke-width:0.5;" x1="1234.83" x2="1565.162" y1="686.7469" y2="686.7469"/><text fill="#000000" font-family="sans-serif" font-size="14" lengthAdjust="spacing" textLength="125.2959" x="1239.83" y="703.742">float box_size_um</text><text fill="#000000" font-family="sans-serif" font-size="14" lengthAdjust="spacing" textLength="138.4209" x="1239.83" y="720.0389">float grid_width_um</text><text fill="#000000" font-family="sans-serif" font-size="14" lengthAdjust="spacing" textLength="153.7129" x="1239.83" y="736.3357">float exposure_time_s</text><text fill="#000000" font-family="sans-serif" font-size="14" lengthAdjust="spacing" textLength="320.332" x="1239.83" y="752.6326">IspybExperimentType ispyb_experiment_type</text><text fill="#000000" font-family="sans-serif" font-size="14" lengthAdjust="spacing" textLength="282.3516" x="1239.83" y="768.9295">ApertureValue | None selected_aperture</text><text fill="#000000" font-family="sans-serif" font-size="14" lengthAdjust="spacing" textLength="130.498" x="1239.83" y="785.2264">float tip_offset_um</text><line style="stroke:#181818;stroke-width:0.5;" x1="1234.83" x2="1565.162" y1="792.5281" y2="792.5281"/></g><!--class GridScanWithEdgeDetect--><g class="entity" data-entity="GridScanWithEdgeDetect" data-source-line="72" data-uid="ent0016" id="entity_GridScanWithEdgeDetect"><rect fill="#F1F1F1" height="48" rx="2.5" ry="2.5" style="stroke:#181818;stroke-width:0.5;" width="209.4268" x="44.29" y="1025.5669"/><ellipse cx="59.29" cy="1041.5669" fill="#ADD1B2" rx="11" ry="11" style="stroke:#181818;stroke-width:1;"/><path d="M62.2588,1047.2075 Q61.6806,1047.5044 61.04,1047.645 Q60.3994,1047.8013 59.6963,1047.8013 Q57.1963,1047.8013 55.8681,1046.1606 Q54.5556,1044.5044 54.5556,1041.3794 Q54.5556,1038.2544 55.8681,1036.5981 Q57.1963,1034.9419 59.6963,1034.9419 Q60.3994,1034.9419 61.04,1035.0981 Q61.6963,1035.2544 62.2588,1035.5513 L62.2588,1038.27 Q61.6338,1037.6919 61.04,1037.4263 Q60.4463,1037.145 59.8213,1037.145 Q58.4775,1037.145 57.79,1038.2231 Q57.1025,1039.2856 57.1025,1041.3794 Q57.1025,1043.4731 57.79,1044.5513 Q58.4775,1045.6138 59.8213,1045.6138 Q60.4463,1045.6138 61.04,1045.3481 Q61.6338,1045.0669 62.2588,1044.4888 L62.2588,1047.2075 Z " fill="#000000"/><text fill="#000000" font-family="sans-serif" font-size="14" lengthAdjust="spacing" textLength="177.4268" x="73.29" y="1046.4136">GridScanWithEdgeDetect</text><line style="stroke:#181818;stroke-width:0.5;" x1="45.29" x2="252.7168" y1="1057.5669" y2="1057.5669"/><line style="stroke:#181818;stroke-width:0.5;" x1="45.29" x2="252.7168" y1="1065.5669" y2="1065.5669"/></g><!--class RotationExperiment--><g class="entity" data-entity="RotationExperiment" data-source-line="74" data-uid="ent0017" id="entity_RotationExperiment"><rect fill="#F1F1F1" height="96.8906" rx="2.5" ry="2.5" style="stroke:#181818;stroke-width:0.5;" width="332.332" x="464.83" y="860.5269"/><ellipse cx="556.7118" cy="876.5269" fill="#ADD1B2" rx="11" ry="11" style="stroke:#181818;stroke-width:1;"/><path d="M559.6806,882.1675 Q559.1025,882.4644 558.4618,882.605 Q557.8212,882.7613 557.1181,882.7613 Q554.6181,882.7613 553.29,881.1206 Q551.9775,879.4644 551.9775,876.3394 Q551.9775,873.2144 553.29,871.5581 Q554.6181,869.9019 557.1181,869.9019 Q557.8212,869.9019 558.4618,870.0581 Q559.1181,870.2144 559.6806,870.5113 L559.6806,873.23 Q559.0556,872.6519 558.4618,872.3863 Q557.8681,872.105 557.2431,872.105 Q555.8993,872.105 555.2118,873.1831 Q554.5243,874.2456 554.5243,876.3394 Q554.5243,878.4331 555.2118,879.5113 Q555.8993,880.5738 557.2431,880.5738 Q557.8681,880.5738 558.4618,880.3081 Q559.0556,880.0269 559.6806,879.4488 L559.6806,882.1675 Z " fill="#000000"/><text fill="#000000" font-family="sans-serif" font-size="14" lengthAdjust="spacing" textLength="140.0684" x="577.2118" y="881.3736">RotationExperiment</text><line style="stroke:#181818;stroke-width:0.5;" x1="465.83" x2="796.162" y1="892.5269" y2="892.5269"/><text fill="#000000" font-family="sans-serif" font-size="14" lengthAdjust="spacing" textLength="202.8018" x="470.83" y="909.522">float shutter_opening_time_s</text><text fill="#000000" font-family="sans-serif" font-size="14" lengthAdjust="spacing" textLength="202.9385" x="470.83" y="925.8189">float rotation_increment_deg</text><text fill="#000000" font-family="sans-serif" font-size="14" lengthAdjust="spacing" textLength="320.332" x="470.83" y="942.1157">IspybExperimentType ispyb_experiment_type</text><line style="stroke:#181818;stroke-width:0.5;" x1="465.83" x2="796.162" y1="949.4175" y2="949.4175"/></g><!--class GridCommonWithHyperionDetectorParams--><g class="entity" data-entity="GridCommonWithHyperionDetectorParams" data-source-line="79" data-uid="ent0018" id="entity_GridCommonWithHyperionDetectorParams"><rect fill="#F1F1F1" height="48" rx="2.5" ry="2.5" style="stroke:#181818;stroke-width:0.5;" width="333.2188" x="59.39" y="884.9769"/><ellipse cx="74.39" cy="900.9769" fill="#ADD1B2" rx="11" ry="11" style="stroke:#181818;stroke-width:1;"/><path d="M77.3588,906.6175 Q76.7806,906.9144 76.14,907.055 Q75.4994,907.2113 74.7963,907.2113 Q72.2963,907.2113 70.9681,905.5706 Q69.6556,903.9144 69.6556,900.7894 Q69.6556,897.6644 70.9681,896.0081 Q72.2963,894.3519 74.7963,894.3519 Q75.4994,894.3519 76.14,894.5081 Q76.7963,894.6644 77.3588,894.9613 L77.3588,897.68 Q76.7338,897.1019 76.14,896.8363 Q75.5463,896.555 74.9213,896.555 Q73.5775,896.555 72.89,897.6331 Q72.2025,898.6956 72.2025,900.7894 Q72.2025,902.8831 72.89,903.9613 Q73.5775,905.0238 74.9213,905.0238 Q75.5463,905.0238 76.14,904.7581 Q76.7338,904.4769 77.3588,903.8988 L77.3588,906.6175 Z " fill="#000000"/><text fill="#000000" font-family="sans-serif" font-size="14" lengthAdjust="spacing" textLength="301.2188" x="88.39" y="905.8236">GridCommonWithHyperionDetectorParams</text><line style="stroke:#181818;stroke-width:0.5;" x1="60.39" x2="391.6088" y1="916.9769" y2="916.9769"/><line style="stroke:#181818;stroke-width:0.5;" x1="60.39" x2="391.6088" y1="924.9769" y2="924.9769"/></g><!--class LoadCentreCollect--><g class="entity" data-entity="LoadCentreCollect" data-source-line="81" data-uid="ent0019" id="entity_LoadCentreCollect"><rect fill="#F1F1F1" height="80.5938" rx="2.5" ry="2.5" style="stroke:#181818;stroke-width:0.5;" width="338.6211" x="831.69" y="868.6769"/><ellipse cx="932.315" cy="884.6769" fill="#ADD1B2" rx="11" ry="11" style="stroke:#181818;stroke-width:1;"/><path d="M935.2838,890.3175 Q934.7056,890.6144 934.065,890.755 Q933.4244,890.9113 932.7213,890.9113 Q930.2213,890.9113 928.8931,889.2706 Q927.5806,887.6144 927.5806,884.4894 Q927.5806,881.3644 928.8931,879.7081 Q930.2213,878.0519 932.7213,878.0519 Q933.4244,878.0519 934.065,878.2081 Q934.7213,878.3644 935.2838,878.6613 L935.2838,881.38 Q934.6588,880.8019 934.065,880.5363 Q933.4713,880.255 932.8463,880.255 Q931.5025,880.255 930.815,881.3331 Q930.1275,882.3956 930.1275,884.4894 Q930.1275,886.5831 930.815,887.6613 Q931.5025,888.7238 932.8463,888.7238 Q933.4713,888.7238 934.065,888.4581 Q934.6588,888.1769 935.2838,887.5988 L935.2838,890.3175 Z " fill="#000000"/><text fill="#000000" font-family="sans-serif" font-size="14" lengthAdjust="spacing" textLength="128.8711" x="952.815" y="889.5236">LoadCentreCollect</text><line style="stroke:#181818;stroke-width:0.5;" x1="832.69" x2="1169.3111" y1="900.6769" y2="900.6769"/><text fill="#000000" font-family="sans-serif" font-size="14" lengthAdjust="spacing" textLength="326.6211" x="837.69" y="917.672">RobotLoadThenCentre robot_load_then_centre</text><text fill="#000000" font-family="sans-serif" font-size="14" lengthAdjust="spacing" textLength="269.3154" x="837.69" y="933.9689">MultiRotationScan multi_rotation_scan</text><line style="stroke:#181818;stroke-width:0.5;" x1="832.69" x2="1169.3111" y1="941.2706" y2="941.2706"/></g><!--class MultiRotationScan--><g class="entity" data-entity="MultiRotationScan" data-source-line="85" data-uid="ent0020" id="entity_MultiRotationScan"><rect fill="#F1F1F1" height="64.2969" rx="2.5" ry="2.5" style="stroke:#181818;stroke-width:0.5;" width="540.001" x="600" y="1017.4169"/><ellipse cx="802.0327" cy="1033.4169" fill="#ADD1B2" rx="11" ry="11" style="stroke:#181818;stroke-width:1;"/><path d="M805.0015,1039.0575 Q804.4233,1039.3544 803.7827,1039.495 Q803.1421,1039.6513 802.439,1039.6513 Q799.939,1039.6513 798.6108,1038.0106 Q797.2983,1036.3544 797.2983,1033.2294 Q797.2983,1030.1044 798.6108,1028.4481 Q799.939,1026.7919 802.439,1026.7919 Q803.1421,1026.7919 803.7827,1026.9481 Q804.439,1027.1044 805.0015,1027.4013 L805.0015,1030.12 Q804.3765,1029.5419 803.7827,1029.2763 Q803.189,1028.995 802.564,1028.995 Q801.2202,1028.995 800.5327,1030.0731 Q799.8452,1031.1356 799.8452,1033.2294 Q799.8452,1035.3231 800.5327,1036.4013 Q801.2202,1037.4638 802.564,1037.4638 Q803.189,1037.4638 803.7827,1037.1981 Q804.3765,1036.9169 805.0015,1036.3388 L805.0015,1039.0575 Z " fill="#000000"/><text fill="#000000" font-family="sans-serif" font-size="14" lengthAdjust="spacing" textLength="127.4355" x="822.5327" y="1038.2636">MultiRotationScan</text><line style="stroke:#181818;stroke-width:0.5;" x1="601" x2="1139.001" y1="1049.4169" y2="1049.4169"/><line style="stroke:#181818;stroke-width:0.5;" x1="601" x2="1139.001" y1="1057.4169" y2="1057.4169"/><text fill="#000000" font-family="sans-serif" font-size="14" lengthAdjust="spacing" textLength="528.001" x="606" y="1074.412">Annotated[list[RotationScanPerSweep], Len(min_length=1)] rotation_scans</text></g><!--class PinTipCentreThenXrayCentre--><g class="entity" data-entity="PinTipCentreThenXrayCentre" data-source-line="88" data-uid="ent0021" id="entity_PinTipCentreThenXrayCentre"><rect fill="#F1F1F1" height="64.2969" rx="2.5" ry="2.5" style="stroke:#181818;stroke-width:0.5;" width="235.8955" x="300.05" y="1017.4169"/><ellipse cx="315.05" cy="1033.4169" fill="#ADD1B2" rx="11" ry="11" style="stroke:#181818;stroke-width:1;"/><path d="M318.0188,1039.0575 Q317.4406,1039.3544 316.8,1039.495 Q316.1594,1039.6513 315.4563,1039.6513 Q312.9563,1039.6513 311.6281,1038.0106 Q310.3156,1036.3544 310.3156,1033.2294 Q310.3156,1030.1044 311.6281,1028.4481 Q312.9563,1026.7919 315.4563,1026.7919 Q316.1594,1026.7919 316.8,1026.9481 Q317.4563,1027.1044 318.0188,1027.4013 L318.0188,1030.12 Q317.3938,1029.5419 316.8,1029.2763 Q316.2063,1028.995 315.5813,1028.995 Q314.2375,1028.995 313.55,1030.0731 Q312.8625,1031.1356 312.8625,1033.2294 Q312.8625,1035.3231 313.55,1036.4013 Q314.2375,1037.4638 315.5813,1037.4638 Q316.2063,1037.4638 316.8,1037.1981 Q317.3938,1036.9169 318.0188,1036.3388 L318.0188,1039.0575 Z " fill="#000000"/><text fill="#000000" font-family="sans-serif" font-size="14" lengthAdjust="spacing" textLength="203.8955" x="329.05" y="1038.2636">PinTipCentreThenXrayCentre</text><line style="stroke:#181818;stroke-width:0.5;" x1="301.05" x2="534.9455" y1="1049.4169" y2="1049.4169"/><text fill="#000000" font-family="sans-serif" font-size="14" lengthAdjust="spacing" textLength="130.498" x="306.05" y="1066.412">float tip_offset_um</text><line style="stroke:#181818;stroke-width:0.5;" x1="301.05" x2="534.9455" y1="1073.7138" y2="1073.7138"/></g><!--class WithHyperionUDCFeatures--><g class="entity" data-entity="WithHyperionUDCFeatures" data-source-line="91" data-uid="ent0022" id="entity_WithHyperionUDCFeatures"><rect fill="#F1F1F1" height="64.2969" rx="2.5" ry="2.5" style="stroke:#181818;stroke-width:0.5;" width="228.6719" x="612.66" y="695.4869"/><ellipse cx="631.7583" cy="711.4869" fill="#ADD1B2" rx="11" ry="11" style="stroke:#181818;stroke-width:1;"/><path d="M634.7271,717.1275 Q634.149,717.4244 633.5083,717.565 Q632.8677,717.7213 632.1646,717.7213 Q629.6646,717.7213 628.3365,716.0806 Q627.024,714.4244 627.024,711.2994 Q627.024,708.1744 628.3365,706.5181 Q629.6646,704.8619 632.1646,704.8619 Q632.8677,704.8619 633.5083,705.0181 Q634.1646,705.1744 634.7271,705.4713 L634.7271,708.19 Q634.1021,707.6119 633.5083,707.3463 Q632.9146,707.065 632.2896,707.065 Q630.9458,707.065 630.2583,708.1431 Q629.5708,709.2056 629.5708,711.2994 Q629.5708,713.3931 630.2583,714.4713 Q630.9458,715.5338 632.2896,715.5338 Q632.9146,715.5338 633.5083,715.2681 Q634.1021,714.9869 634.7271,714.4088 L634.7271,717.1275 Z " fill="#000000"/><text fill="#000000" font-family="sans-serif" font-size="14" lengthAdjust="spacing" textLength="187.5645" x="646.6691" y="716.3336">WithHyperionUDCFeatures</text><line style="stroke:#181818;stroke-width:0.5;" x1="613.66" x2="840.3319" y1="727.4869" y2="727.4869"/><text fill="#000000" font-family="sans-serif" font-size="14" lengthAdjust="spacing" textLength="216.6719" x="618.66" y="744.482">HyperionFeatureFlags features</text><line style="stroke:#181818;stroke-width:0.5;" x1="613.66" x2="840.3319" y1="751.7838" y2="751.7838"/></g><!--reverse link GridCommonWithHyperionDetectorParams to GridScanWithEdgeDetect--><g class="link" data-entity-1="GridCommonWithHyperionDetectorParams" data-entity-2="GridScanWithEdgeDetect" data-source-line="95" data-uid="lnk23" id="link_GridCommonWithHyperionDetectorParams_GridScanWithEdgeDetect"><path codeLine="95" d="M204.3689,948.912 C190.1589,974.492 176.16,999.6769 161.93,1025.2969" fill="none" id="GridCommonWithHyperionDetectorParams-backto-GridScanWithEdgeDetect" style="stroke:#181818;stroke-width:1;"/><polygon fill="none" points="213.11,933.1769,199.1239,945.9983,209.614,951.8257,213.11,933.1769" style="stroke:#181818;stroke-width:1;"/></g><!--reverse link WithHyperionUDCFeatures to GridScanWithEdgeDetect--><g class="link" data-entity-1="WithHyperionUDCFeatures" data-entity-2="GridScanWithEdgeDetect" data-source-line="96" data-uid="lnk24" id="link_WithHyperionUDCFeatures_GridScanWithEdgeDetect"><path codeLine="96" d="M594.5111,734.6947 C418.6911,745.0447 113.04,774.4969 42,860.5269 C14.58,893.7369 23.95,918.3269 42,957.4169 C55.35,986.3269 82.9,1009.4569 106.69,1025.1769" fill="none" id="WithHyperionUDCFeatures-backto-GridScanWithEdgeDetect" style="stroke:#181818;stroke-width:1;"/><polygon fill="none" points="612.48,733.6369,594.1585,728.705,594.8637,740.6843,612.48,733.6369" style="stroke:#181818;stroke-width:1;"/></g><!--reverse link DiffractionExperiment to DiffractionExperimentWithSample--><g class="link" data-entity-1="DiffractionExperiment" data-entity-2="DiffractionExperimentWithSample" data-source-line="97" data-uid="lnk25" id="link_DiffractionExperiment_DiffractionExperimentWithSample"><path codeLine="97" d="M1400,505.2469 C1400,527.4969 1400,530.8969 1400,546.3269" fill="none" id="DiffractionExperiment-backto-DiffractionExperimentWithSample" style="stroke:#181818;stroke-width:1;"/><polygon fill="none" points="1400,487.2469,1394,505.2469,1406,505.2469,1400,487.2469" style="stroke:#181818;stroke-width:1;"/></g><!--reverse link WithSample to DiffractionExperimentWithSample--><g class="link" data-entity-1="WithSample" data-entity-2="DiffractionExperimentWithSample" data-source-line="98" data-uid="lnk26" id="link_WithSample_DiffractionExperimentWithSample"><path codeLine="98" d="M3123.6519,209.7386 C3108.9019,219.3986 3107.58,218.3669 3091,223.7769 C2936.57,274.1469 1754.67,171.6569 1630,275.7769 C1556.34,337.2969 1644.41,412.1769 1584,486.7469 C1561.28,514.7969 1527.06,533.7069 1494.26,546.2969" fill="none" id="WithSample-backto-DiffractionExperimentWithSample" style="stroke:#181818;stroke-width:1;"/><polygon fill="none" points="3138.71,199.8769,3120.3647,204.7193,3126.9392,214.758,3138.71,199.8769" style="stroke:#181818;stroke-width:1;"/></g><!--reverse link DiffractionExperimentWithSample to RotationExperiment--><g class="link" data-entity-1="DiffractionExperimentWithSample" data-entity-2="RotationExperiment" data-source-line="99" data-uid="lnk27" id="link_DiffractionExperimentWithSample_RotationExperiment"><path codeLine="99" d="M1327.954,602.2742 C1291.254,617.9942 1258.76,632.3469 1216,652.4869 C1055.25,728.2269 1023.13,764.4269 859,832.5269 C835.7,842.1969 810.68,851.5069 786.05,860.0969" fill="none" id="DiffractionExperimentWithSample-backto-RotationExperiment" style="stroke:#181818;stroke-width:1;"/><polygon fill="none" points="1344.5,595.1869,1325.5916,596.7588,1330.3164,607.7895,1344.5,595.1869" style="stroke:#181818;stroke-width:1;"/></g><!--reverse link WithHyperionUDCFeatures to RotationExperiment--><g class="link" data-entity-1="WithHyperionUDCFeatures" data-entity-2="RotationExperiment" data-source-line="100" data-uid="lnk28" id="link_WithHyperionUDCFeatures_RotationExperiment"><path codeLine="100" d="M701.7841,775.7457 C686.9541,803.4457 673.57,828.4469 656.55,860.2369" fill="none" id="WithHyperionUDCFeatures-backto-RotationExperiment" style="stroke:#181818;stroke-width:1;"/><polygon fill="none" points="710.28,759.8769,696.4945,772.9138,707.0738,778.5777,710.28,759.8769" style="stroke:#181818;stroke-width:1;"/></g><!--reverse link GridCommon to GridCommonWithHyperionDetectorParams--><g class="link" data-entity-1="GridCommon" data-entity-2="GridCommonWithHyperionDetectorParams" data-source-line="101" data-uid="lnk29" id="link_GridCommon_GridCommonWithHyperionDetectorParams"><path codeLine="101" d="M1256.4733,808.4408 C1228.6533,821.2208 1215.15,825.2469 1186,832.5269 C1026.56,872.3769 610.06,840.0969 447,860.5269 C404.17,865.8969 357.34,875.4169 317.86,884.5169" fill="none" id="GridCommon-backto-GridCommonWithHyperionDetectorParams" style="stroke:#181818;stroke-width:1;"/><polygon fill="none" points="1272.83,800.9269,1253.9687,802.9886,1258.978,813.8931,1272.83,800.9269" style="stroke:#181818;stroke-width:1;"/></g><!--reverse link WithHyperionUDCFeatures to GridCommonWithHyperionDetectorParams--><g class="link" data-entity-1="WithHyperionUDCFeatures" data-entity-2="GridCommonWithHyperionDetectorParams" data-source-line="102" data-uid="lnk30" id="link_WithHyperionUDCFeatures_GridCommonWithHyperionDetectorParams"><path codeLine="102" d="M621.9232,766.2536 C522.5332,801.8336 380.16,852.7969 291.29,884.6069" fill="none" id="WithHyperionUDCFeatures-backto-GridCommonWithHyperionDetectorParams" style="stroke:#181818;stroke-width:1;"/><polygon fill="none" points="638.87,760.1869,619.9009,760.6046,623.9454,771.9025,638.87,760.1869" style="stroke:#181818;stroke-width:1;"/></g><!--reverse link MxBlueskyParameters to LoadCentreCollect--><g class="link" data-entity-1="MxBlueskyParameters" data-entity-2="LoadCentreCollect" data-source-line="103" data-uid="lnk31" id="link_MxBlueskyParameters_LoadCentreCollect"><path codeLine="103" d="M1493.6118,191.6023 C1533.3518,211.5823 1561.29,233.6469 1584,275.7769 C1701.4,493.5969 1747.36,646.6669 1584,832.5269 C1556.86,863.4069 1332.94,885.3069 1170.69,897.2969" fill="none" id="MxBlueskyParameters-backto-LoadCentreCollect" style="stroke:#181818;stroke-width:1;"/><polygon fill="none" points="1477.53,183.5169,1490.9167,196.9629,1496.307,186.2417,1477.53,183.5169" style="stroke:#181818;stroke-width:1;"/></g><!--reverse link WithVisit to LoadCentreCollect--><g class="link" data-entity-1="WithVisit" data-entity-2="LoadCentreCollect" data-source-line="104" data-uid="lnk32" id="link_WithVisit_LoadCentreCollect"><path codeLine="104" d="M2814.9915,225.1509 C2553.5615,379.5609 1903.67,756.4269 1659,832.5269 C1498.01,882.6069 1305.58,900.0669 1170.54,905.8469" fill="none" id="WithVisit-backto-LoadCentreCollect" style="stroke:#181818;stroke-width:1;"/><polygon fill="none" points="2830.49,215.9969,2811.9401,219.9847,2818.0428,230.317,2830.49,215.9969" style="stroke:#181818;stroke-width:1;"/></g><!--reverse link WithSample to LoadCentreCollect--><g class="link" data-entity-1="WithSample" data-entity-2="LoadCentreCollect" data-source-line="105" data-uid="lnk33" id="link_WithSample_LoadCentreCollect"><path codeLine="105" d="M3114.727,210.0175 C2927.417,339.5975 2395.66,687.6169 1881,832.5269 C1751.85,868.8969 1388.05,890.7969 1170.76,901.0169" fill="none" id="WithSample-backto-LoadCentreCollect" style="stroke:#181818;stroke-width:1;"/><polygon fill="none" points="3129.53,199.7769,3111.3134,205.0832,3118.1405,214.9519,3129.53,199.7769" style="stroke:#181818;stroke-width:1;"/></g><!--reverse link WithCentreSelection to LoadCentreCollect--><g class="link" data-entity-1="WithCentreSelection" data-entity-2="LoadCentreCollect" data-source-line="106" data-uid="lnk34" id="link_WithCentreSelection_LoadCentreCollect"><path codeLine="106" d="M1668.967,191.5898 C1639.057,206.3898 1617.59,214.7369 1582,223.7769 C1438.98,260.1169 1051.65,209.1269 920,275.7769 C722.72,375.6669 672.05,445.2269 595,652.4869 C567.12,727.4969 542.11,772.4869 595,832.5269 C627.57,869.5169 766.59,851.3069 815,860.5269 C827.03,862.8169 839.44,865.4269 851.87,868.2269" fill="none" id="WithCentreSelection-backto-LoadCentreCollect" style="stroke:#181818;stroke-width:1;"/><polygon fill="none" points="1685.1,183.6069,1666.306,186.2121,1671.628,196.9674,1685.1,183.6069" style="stroke:#181818;stroke-width:1;"/></g><!--reverse link WithHyperionUDCFeatures to LoadCentreCollect--><g class="link" data-entity-1="WithHyperionUDCFeatures" data-entity-2="LoadCentreCollect" data-source-line="107" data-uid="lnk35" id="link_WithHyperionUDCFeatures_LoadCentreCollect"><path codeLine="107" d="M790.1014,769.9435 C836.1414,800.0735 890.75,835.8169 940.54,868.4069" fill="none" id="WithHyperionUDCFeatures-backto-LoadCentreCollect" style="stroke:#181818;stroke-width:1;"/><polygon fill="none" points="775.04,760.0869,786.8159,774.964,793.387,764.9231,775.04,760.0869" style="stroke:#181818;stroke-width:1;"/></g><!--reverse link MxBlueskyParameters to DiffractionExperiment--><g class="link" data-entity-1="MxBlueskyParameters" data-entity-2="DiffractionExperiment" data-source-line="108" data-uid="lnk36" id="link_MxBlueskyParameters_DiffractionExperiment"><path codeLine="108" d="M1396.8652,201.2941 C1397.2852,225.2741 1397.57,241.8669 1398.16,275.3869" fill="none" id="MxBlueskyParameters-backto-DiffractionExperiment" style="stroke:#181818;stroke-width:1;"/><polygon fill="none" points="1396.55,183.2969,1390.8661,201.3992,1402.8643,201.189,1396.55,183.2969" style="stroke:#181818;stroke-width:1;"/></g><!--reverse link WithSnapshot to DiffractionExperiment--><g class="link" data-entity-1="WithSnapshot" data-entity-2="DiffractionExperiment" data-source-line="109" data-uid="lnk37" id="link_WithSnapshot_DiffractionExperiment"><path codeLine="109" d="M2241.3823,207.0101 C2219.5623,216.3501 2212.64,217.9569 2190,223.7769 C1932.07,290.1569 1848.1,199.2269 1593,275.7769 C1584.24,278.4069 1575.43,281.4569 1566.65,284.8369" fill="none" id="WithSnapshot-backto-DiffractionExperiment" style="stroke:#181818;stroke-width:1;"/><polygon fill="none" points="2257.93,199.9269,2239.0212,201.4942,2243.7433,212.526,2257.93,199.9269" style="stroke:#181818;stroke-width:1;"/></g><!--reverse link WithOptionalEnergyChange to DiffractionExperiment--><g class="link" data-entity-1="WithOptionalEnergyChange" data-entity-2="DiffractionExperiment" data-source-line="110" data-uid="lnk38" id="link_WithOptionalEnergyChange_DiffractionExperiment"><path codeLine="110" d="M2586.3368,192.9005 C2561.3468,207.9005 2544.93,215.1369 2514,223.7769 C2119.14,334.0969 1987.44,163.9369 1593,275.7769 C1584.2,278.2769 1575.36,281.2169 1566.55,284.5069" fill="none" id="WithOptionalEnergyChange-backto-DiffractionExperiment" style="stroke:#181818;stroke-width:1;"/><polygon fill="none" points="2601.77,183.6369,2583.2489,187.7561,2589.4246,198.0449,2601.77,183.6369" style="stroke:#181818;stroke-width:1;"/></g><!--reverse link WithVisit to DiffractionExperiment--><g class="link" data-entity-1="WithVisit" data-entity-2="DiffractionExperiment" data-source-line="111" data-uid="lnk39" id="link_WithVisit_DiffractionExperiment"><path codeLine="111" d="M2792.9115,221.941 C2784.2515,224.891 2792.6,221.6769 2784,223.7769 C2269.32,349.6169 2103.65,134.4969 1593,275.7769 C1584.19,278.2169 1575.33,281.1169 1566.51,284.3669" fill="none" id="WithVisit-backto-DiffractionExperiment" style="stroke:#181818;stroke-width:1;"/><polygon fill="none" points="2809.95,216.1369,2790.9767,216.2615,2794.8462,227.6205,2809.95,216.1369" style="stroke:#181818;stroke-width:1;"/></g><!--reverse link RotationExperiment to MultiRotationScan--><g class="link" data-entity-1="RotationExperiment" data-entity-2="MultiRotationScan" data-source-line="112" data-uid="lnk40" id="link_RotationExperiment_MultiRotationScan"><path codeLine="112" d="M729.1524,966.8946 C762.8924,986.4546 785.4,999.5069 815.54,1016.9869" fill="none" id="RotationExperiment-backto-MultiRotationScan" style="stroke:#181818;stroke-width:1;"/><polygon fill="none" points="713.58,957.8669,726.1432,972.0854,732.1617,961.7038,713.58,957.8669" style="stroke:#181818;stroke-width:1;"/></g><!--reverse link SplitScan to MultiRotationScan--><g class="link" data-entity-1="SplitScan" data-entity-2="MultiRotationScan" data-source-line="113" data-uid="lnk41" id="link_SplitScan_MultiRotationScan"><path codeLine="113" d="M3592.4041,189.4589 C3532.3841,263.4889 3364,478.7669 3364,569.7469 C3364,569.7469 3364,569.7469 3364,728.6369 C3364,950.8669 1786.1,1021.9769 1140.46,1041.7769" fill="none" id="SplitScan-backto-MultiRotationScan" style="stroke:#181818;stroke-width:1;"/><polygon fill="none" points="3603.74,175.4769,3587.7434,185.6802,3597.0647,193.2375,3603.74,175.4769" style="stroke:#181818;stroke-width:1;"/></g><!--reverse link GridCommonWithHyperionDetectorParams to PinTipCentreThenXrayCentre--><g class="link" data-entity-1="GridCommonWithHyperionDetectorParams" data-entity-2="PinTipCentreThenXrayCentre" data-source-line="114" data-uid="lnk42" id="link_GridCommonWithHyperionDetectorParams_PinTipCentreThenXrayCentre"><path codeLine="114" d="M272.7353,943.7115 C304.5453,966.6715 338.89,991.4569 374.24,1016.9769" fill="none" id="GridCommonWithHyperionDetectorParams-backto-PinTipCentreThenXrayCentre" style="stroke:#181818;stroke-width:1;"/><polygon fill="none" points="258.14,933.1769,269.2237,948.5766,276.2468,938.8464,258.14,933.1769" style="stroke:#181818;stroke-width:1;"/></g><!--reverse link WithHyperionUDCFeatures to PinTipCentreThenXrayCentre--><g class="link" data-entity-1="WithHyperionUDCFeatures" data-entity-2="PinTipCentreThenXrayCentre" data-source-line="115" data-uid="lnk43" id="link_WithHyperionUDCFeatures_PinTipCentreThenXrayCentre"><path codeLine="115" d="M595.1708,760.7902 C536.7508,780.2302 486.89,807.1569 447,860.5269 C412.59,906.5669 411.56,976.8969 414.43,1017.2169" fill="none" id="WithHyperionUDCFeatures-backto-PinTipCentreThenXrayCentre" style="stroke:#181818;stroke-width:1;"/><polygon fill="none" points="612.25,755.1069,593.2763,755.0971,597.0652,766.4833,612.25,755.1069" style="stroke:#181818;stroke-width:1;"/></g><!--reverse link WithPandaGridScan to WithHyperionUDCFeatures--><g class="link" data-entity-1="WithPandaGridScan" data-entity-2="WithHyperionUDCFeatures" data-source-line="116" data-uid="lnk44" id="link_WithPandaGridScan_WithHyperionUDCFeatures"><path codeLine="116" d="M1987.6998,192.6428 C1962.1598,207.5328 1945.3,214.8769 1914,223.7769 C1615.63,308.6069 1502.65,152.5069 1218,275.7769 C997.11,371.4369 811.03,609.2869 749.01,695.1169" fill="none" id="WithPandaGridScan-backto-WithHyperionUDCFeatures" style="stroke:#181818;stroke-width:1;"/><polygon fill="none" points="2003.25,183.5769,1984.6778,187.4594,1990.7217,197.8262,2003.25,183.5769" style="stroke:#181818;stroke-width:1;"/></g><!--reverse link DiffractionExperimentWithSample to GridCommon--><g class="link" data-entity-1="DiffractionExperimentWithSample" data-entity-2="GridCommon" data-source-line="117" data-uid="lnk45" id="link_DiffractionExperimentWithSample_GridCommon"><path codeLine="117" d="M1400,612.9369 C1400,628.8869 1400,633.0069 1400,654.5669" fill="none" id="DiffractionExperimentWithSample-backto-GridCommon" style="stroke:#181818;stroke-width:1;"/><polygon fill="none" points="1400,594.9369,1394,612.9369,1406,612.9369,1400,594.9369" style="stroke:#181818;stroke-width:1;"/></g><!--reverse link OptionalGonioAngleStarts to GridCommon--><g class="link" data-entity-1="OptionalGonioAngleStarts" data-entity-2="GridCommon" data-source-line="118" data-uid="lnk46" id="link_OptionalGonioAngleStarts_GridCommon"><path codeLine="118" d="M3320.9819,216.2692 C3309.7219,221.9892 3314.26,219.2069 3303,223.7769 C2606.43,506.2469 2392.7,456.6469 1667,652.4869 C1634.49,661.2669 1599.79,670.7869 1566.54,679.9869" fill="none" id="OptionalGonioAngleStarts-backto-GridCommon" style="stroke:#181818;stroke-width:1;"/><polygon fill="none" points="3337.03,208.1169,3318.2645,210.9198,3323.6994,221.6185,3337.03,208.1169" style="stroke:#181818;stroke-width:1;"/></g><!--SRC=[bLPBRnit43wBluAtja1jeFVsuCXEMY1EXKXr2mG6GUsETWbpIOBaEb8T_VSCoNr9gvKKwA3blEUR1_dJgXIEReG4Yl-yzlgc00MMUyZfUaVR0pEIArzNyjRi2F72eyAVEmDMQ4KNtF8AF5Zwg7EGn86d2YdEy0oMO93jjQLAAo04QI-y05fjsLhMu5vsjvckAgrkJMl6qJVYTG6-H9Dl99FSEVglyELISUDAxT_8RC5zILrpPhcmaA6F7Pb9uVoNZTJSFzDlz1FwxCLq1GLtB8U2pDPQIrexO8KLEMj57Dat_lus7dFZyeDMGj-fGiBIS-iT-exMM-FH9dE1bmmVS4qf9ddP6TuBDsPeTJz0OGxAMyHLOieO8WQqqkRJkzqZtyvrhNp7eIv-iImgk0CZRNeFMDzYDo-vAk0ujHmghd86KOJ1wu611RBu1yHkcN7LQPf0PRPMjS6YOFmg0rPL1vfBNXaPd0dbgOi79l9qR2kMgARENaxIXUeiBeqKFiKmTF8ad0XzuhobQ-2L5DXyyVGQEEap1n-ZP5wp8CGohLx1OWioW_sLX8HoI4AmcB6m4TiHI3wstb6w-t47tulDnl9OcOTj69qAwzA462QGXPbfhSFMQ5TRO1x5c4jIOL1G1mjkHL603UD6VVfc5HuEmC8gC5LNQx1aTeV-F9fxuZXp7PgnFI1dlE6sphtbobN2kP1rY9dC_d9cj-x3Nk7iuyP06eEEo3nIKwGE4S4f7mvcDt1MYnJi_Xmmmqvf1H-txzBAw3PE6CTbQ5CliYSyXgxlzaZq8jbhedTMGjFEuyhfsdQjjyo9_u7LLKkAQ-6ho7qv88wgyWEm_609X65wiy5L6jplu-_4wYoR7NouFFiyms0491_o0kvZf_PeVjQUZvenUNTbxGE0se0IgkZIJLpRA3AXCWinnRZ1hWTZN8eGP7kXt3SZ5Qli-e0_QfwdvJVNKiPSPf_rMll0M9MW4XFZGnh3K7E60wYQ_KTcZxNqeiqw84EhG65TFWvfVRCTIwEtEwK20V8lyPePSXTWbry1pFElz2EedokXc0HL-FAFttvvfWSk-asy46ebJ0ex9F2VvRjqUfjgX7x5jN3zSpz_3pmqJvY6bjgGtajUu0NVy6CRNGCw_VtRpSr41v49vsTrJivuqhWm_gJ_l4x-0ZyP6JV_-RHEoFSuzfbVmlKoTXSjd5Y2INiq7gIx2Cy9354vBN7qu3WdEfdQM7moZvFr8yFttoMvKu-RIpe3d4uBZJiWIO_s1EcU95C2rq_Wz88u3_S5lOF7MzAOC7VTDFK9aQbtyx7WTm00]--></g></svg>