<svg xmlns="http://www.w3.org/2000/svg" xmlns:xlink="http://www.w3.org/1999/xlink" version="1.1" data-diagram-type="CLASS" style="width:3038px;height:1556px;background:#FFFFFF;" width="3038px" height="1556px" viewBox="0 0 3038 1556" zoomAndPan="magnify" preserveAspectRatio="none" contentStyleType="text/css"><?plantuml 1.2026.7beta8?><defs/><g font-family="sans-serif" lengthAdjust="spacing"><g class="title" data-source-line="1"><text x="1418.929" y="22.995" fill="#000" font-size="14" textLength="193.143" font-weight="700">GDA Baton Management</text></g><!--cluster Server--><g class="cluster" data-qualified-name="Server" id="ent0001" data-source-line="3"><path d="M216.5,649.557 L269.508,649.557 A3.75,3.75 0 0 1 272.008,652.057 L279.008,671.854 L2563.5,671.854 A2.5,2.5 0 0 1 2566,674.354 L2566,1538.607 A2.5,2.5 0 0 1 2563.5,1541.107 L216.5,1541.107 A2.5,2.5 0 0 1 214,1538.607 L214,652.057 A2.5,2.5 0 0 1 216.5,649.557" style="stroke:#000;stroke-width:1.5;" fill="none"/><line x1="214" y1="671.854" x2="279.008" y2="671.854" style="stroke:#000;stroke-width:1.5;"/><text x="218" y="664.552" fill="#000" font-size="14" textLength="52.008" font-weight="700">Server</text></g><!--cluster Common--><g class="cluster" data-qualified-name="Common" id="ent0040" data-source-line="98"><path d="M699.5,194.297 L769.153,194.297 A3.75,3.75 0 0 1 771.653,196.797 L778.653,216.594 L2765.5,216.594 A2.5,2.5 0 0 1 2768,219.094 L2768,598.057 A2.5,2.5 0 0 1 2765.5,600.557 L699.5,600.557 A2.5,2.5 0 0 1 697,598.057 L697,196.797 A2.5,2.5 0 0 1 699.5,194.297" style="stroke:#000;stroke-width:1.5;" fill="none"/><line x1="697" y1="216.594" x2="778.653" y2="216.594" style="stroke:#000;stroke-width:1.5;"/><text x="701" y="209.292" fill="#000" font-size="14" textLength="68.653" font-weight="700">Common</text></g><!--cluster Client--><g class="cluster" data-qualified-name="Client" id="ent0056" data-source-line="149"><path d="M2007.5,43.297 L2054.526,43.297 A3.75,3.75 0 0 1 2057.026,45.797 L2064.026,65.594 L3020.5,65.594 A2.5,2.5 0 0 1 3023,68.094 L3023,158.797 A2.5,2.5 0 0 1 3020.5,161.297 L2007.5,161.297 A2.5,2.5 0 0 1 2005,158.797 L2005,45.797 A2.5,2.5 0 0 1 2007.5,43.297" style="stroke:#000;stroke-width:1.5;" fill="none"/><line x1="2005" y1="65.594" x2="2064.026" y2="65.594" style="stroke:#000;stroke-width:1.5;"/><text x="2009" y="58.292" fill="#000" font-size="14" textLength="46.026" font-weight="700">Client</text></g><!--class Thread--><g class="entity" data-qualified-name="Server.Thread" id="ent0002" data-source-line="4"><rect x="2275.37" y="926.197" width="81.26" height="48" fill="#F1F1F1" style="stroke:#181818;stroke-width:0.5;" rx="2.5" ry="2.5"/><ellipse cx="2290.37" cy="942.197" rx="11" ry="11" fill="#ADD1B2" style="stroke:#181818;stroke-width:1;"/><path d="M2293.339,947.838 Q2292.761,948.134 2292.12,948.275 Q2291.479,948.431 2290.776,948.431 Q2288.276,948.431 2286.948,946.791 Q2285.636,945.134 2285.636,942.009 Q2285.636,938.884 2286.948,937.228 Q2288.276,935.572 2290.776,935.572 Q2291.479,935.572 2292.12,935.728 Q2292.776,935.884 2293.339,936.181 L2293.339,938.9 Q2292.714,938.322 2292.12,938.056 Q2291.526,937.775 2290.901,937.775 Q2289.558,937.775 2288.87,938.853 Q2288.183,939.916 2288.183,942.009 Q2288.183,944.103 2288.87,945.181 Q2289.558,946.244 2290.901,946.244 Q2291.526,946.244 2292.12,945.978 Q2292.714,945.697 2293.339,945.119 L2293.339,947.838 Z " fill="#000"/><text x="2304.37" y="947.044" fill="#000" font-size="14" textLength="49.26">Thread</text><line x1="2276.37" y1="958.197" x2="2355.63" y2="958.197" style="stroke:#181818;stroke-width:0.5;"/><line x1="2276.37" y1="966.197" x2="2355.63" y2="966.197" style="stroke:#181818;stroke-width:0.5;"/></g><!--class JythonServerThread--><g class="entity" data-qualified-name="Server.JythonServerThread" id="ent0003" data-source-line="5"><rect x="2167.23" y="1141.127" width="199.53" height="80.594" fill="#F1F1F1" style="stroke:#181818;stroke-width:0.5;" rx="2.5" ry="2.5"/><ellipse cx="2194.895" cy="1157.127" rx="11" ry="11" fill="#ADD1B2" style="stroke:#181818;stroke-width:1;"/><path d="M2197.864,1162.768 Q2197.286,1163.064 2196.645,1163.205 Q2196.005,1163.361 2195.302,1163.361 Q2192.802,1163.361 2191.474,1161.721 Q2190.161,1160.064 2190.161,1156.939 Q2190.161,1153.814 2191.474,1152.158 Q2192.802,1150.502 2195.302,1150.502 Q2196.005,1150.502 2196.645,1150.658 Q2197.302,1150.814 2197.864,1151.111 L2197.864,1153.83 Q2197.239,1153.252 2196.645,1152.986 Q2196.052,1152.705 2195.427,1152.705 Q2194.083,1152.705 2193.395,1153.783 Q2192.708,1154.846 2192.708,1156.939 Q2192.708,1159.033 2193.395,1160.111 Q2194.083,1161.174 2195.427,1161.174 Q2196.052,1161.174 2196.645,1160.908 Q2197.239,1160.627 2197.864,1160.049 L2197.864,1162.768 Z " fill="#000"/><text x="2211.71" y="1161.974" fill="#000" font-size="14" textLength="139.385">JythonServerThread</text><line x1="2168.23" y1="1173.127" x2="2365.76" y2="1173.127" style="stroke:#181818;stroke-width:0.5;"/><text x="2173.23" y="1190.122" fill="#000" font-size="14" textLength="157.336">authorisationLevel: int</text><line x1="2168.23" y1="1197.424" x2="2365.76" y2="1197.424" style="stroke:#181818;stroke-width:0.5;"/><text x="2173.23" y="1214.419" fill="#000" font-size="14" textLength="187.53">int getAuthorisationLevel()</text></g><!--class IBatonManager--><g class="entity" data-qualified-name="Server.IBatonManager" id="ent0005" data-source-line="10"><rect x="840.52" y="852.857" width="482.955" height="194.672" fill="#F1F1F1" style="stroke:#181818;stroke-width:0.5;" rx="2.5" ry="2.5"/><ellipse cx="1024.444" cy="868.857" rx="11" ry="11" fill="#B4A7E5" style="stroke:#181818;stroke-width:1;"/><path d="M1020.366,864.623 L1020.366,862.466 L1027.757,862.466 L1027.757,864.623 L1025.288,864.623 L1025.288,872.701 L1027.757,872.701 L1027.757,874.857 L1020.366,874.857 L1020.366,872.701 L1022.835,872.701 L1022.835,864.623 L1020.366,864.623 Z " fill="#000"/><text x="1044.944" y="873.704" fill="#000" font-size="14" textLength="106.606" font-style="italic">IBatonManager</text><line x1="841.52" y1="884.857" x2="1322.475" y2="884.857" style="stroke:#181818;stroke-width:0.5;"/><line x1="841.52" y1="892.857" x2="1322.475" y2="892.857" style="stroke:#181818;stroke-width:0.5;"/><text x="846.52" y="909.852" fill="#000" font-size="14" textLength="360.767">ClientDetails getClientInformation((myJSFIdentifier)</text><text x="846.52" y="926.149" fill="#000" font-size="14" textLength="277.061">boolean requestBaton(uniqueIdentifier)</text><text x="846.52" y="942.446" fill="#000" font-size="14" textLength="246.012">void returnBaton((uniqueIdentifier)</text><text x="846.52" y="958.743" fill="#000" font-size="14" textLength="470.955">void assignBaton(myJSFIdentifier, indexOfReceiver, indexOfPasser)</text><text x="846.52" y="975.039" fill="#000" font-size="14" textLength="155.559">boolean isBatonHeld()</text><text x="846.52" y="991.336" fill="#000" font-size="14" textLength="291.102">boolean amIBatonHolder(myJSFIdentifier)</text><text x="846.52" y="1007.633" fill="#000" font-size="14" textLength="302.572">int effectiveAuthorisationLevelOf(uniqueId)</text><text x="846.52" y="1023.93" fill="#000" font-size="14" textLength="316.176">void addFacade(uniqueId, info: ClientDetails)</text><text x="846.52" y="1040.227" fill="#000" font-size="14" textLength="209.904">void removeFacade(uniqueId)</text></g><!--class BatonManager--><g class="entity" data-qualified-name="Server.BatonManager" id="ent0006" data-source-line="22"><rect x="926.12" y="1108.527" width="287.762" height="145.781" fill="#F1F1F1" style="stroke:#181818;stroke-width:0.5;" rx="2.5" ry="2.5"/><ellipse cx="1014.512" cy="1124.527" rx="11" ry="11" fill="#ADD1B2" style="stroke:#181818;stroke-width:1;"/><path d="M1017.481,1130.168 Q1016.903,1130.464 1016.262,1130.605 Q1015.621,1130.761 1014.918,1130.761 Q1012.418,1130.761 1011.09,1129.121 Q1009.778,1127.464 1009.778,1124.339 Q1009.778,1121.214 1011.09,1119.558 Q1012.418,1117.902 1014.918,1117.902 Q1015.621,1117.902 1016.262,1118.058 Q1016.918,1118.214 1017.481,1118.511 L1017.481,1121.23 Q1016.856,1120.652 1016.262,1120.386 Q1015.668,1120.105 1015.043,1120.105 Q1013.7,1120.105 1013.012,1121.183 Q1012.325,1122.246 1012.325,1124.339 Q1012.325,1126.433 1013.012,1127.511 Q1013.7,1128.574 1015.043,1128.574 Q1015.668,1128.574 1016.262,1128.308 Q1016.856,1128.027 1017.481,1127.449 L1017.481,1130.168 Z " fill="#000"/><text x="1035.012" y="1129.374" fill="#000" font-size="14" textLength="102.478">BatonManager</text><line x1="927.12" y1="1140.527" x2="1212.882" y2="1140.527" style="stroke:#181818;stroke-width:0.5;"/><text x="932.12" y="1157.522" fill="#000" font-size="14" textLength="115.254">useBaton = true</text><text x="932.12" y="1173.819" fill="#000" font-size="14" textLength="112.827">useRBAC = true</text><text x="932.12" y="1190.116" fill="#000" font-size="14" textLength="199.507">firstClientTakesBaton = true</text><text x="932.12" y="1206.413" fill="#000" font-size="14" textLength="137.58">batonHolder: String</text><text x="932.12" y="1222.709" fill="#000" font-size="14" textLength="275.762">facadeNames: Map&lt;String, ClientInfo></text><text x="932.12" y="1239.006" fill="#000" font-size="14" textLength="237.501">leaseHolders: Map&lt;String, Long></text><line x1="927.12" y1="1246.308" x2="1212.882" y2="1246.308" style="stroke:#181818;stroke-width:0.5;"/></g><g class="entity" data-qualified-name="Server.batonManagerNote" id="ent0008" data-source-line="31"><path d="M324.94,1315.307 L324.94,1416.104 A0,0 0 0 0 324.94,1416.104 L857.053,1416.104 A0,0 0 0 0 857.053,1416.104 L857.053,1325.307 L847.053,1315.307 L726.02,1315.307 L925.63,1237.357 L718.02,1315.307 L324.94,1315.307 A0,0 0 0 0 324.94,1315.307" style="stroke:#181818;stroke-width:0.5;" fill="#FEFFDD"/><path d="M847.053,1315.307 L847.053,1325.307 L857.053,1325.307 L847.053,1315.307" style="stroke:#181818;stroke-width:0.5;" fill="#FEFFDD"/><text x="330.94" y="1332.374" fill="#000" font-size="13" textLength="393.294">Each client has a facade name aka uniqueId aka jsfIdentifier</text><text x="330.94" y="1347.507" fill="#000" font-size="13" textLength="511.113">There is a LeaseRefresher that periodically sends a BatonLeaseRenewRequest</text><text x="330.94" y="1362.639" fill="#000" font-size="13" textLength="466.318">to all clients, any interaction with the BatonManager extends the lease.</text><text x="330.94" y="1377.772" fill="#000" font-size="13"> </text><text x="330.94" y="1392.905" fill="#000" font-size="13" textLength="444.749">On first client registration, if firstClientTakesBaton is true then it will</text><text x="330.94" y="1408.038" fill="#000" font-size="13" textLength="410.478">assume the baton if it is not the server or an automated client.</text></g><!--class IJythonServerNotifier--><g class="entity" data-qualified-name="Server.IJythonServerNotifier" id="ent0010" data-source-line="40"><rect x="1749.91" y="918.047" width="230.176" height="64.297" fill="#F1F1F1" style="stroke:#181818;stroke-width:0.5;" rx="2.5" ry="2.5"/><ellipse cx="1788.453" cy="934.047" rx="11" ry="11" fill="#B4A7E5" style="stroke:#181818;stroke-width:1;"/><path d="M1784.375,929.813 L1784.375,927.656 L1791.765,927.656 L1791.765,929.813 L1789.297,929.813 L1789.297,937.891 L1791.765,937.891 L1791.765,940.047 L1784.375,940.047 L1784.375,937.891 L1786.843,937.891 L1786.843,929.813 L1784.375,929.813 Z " fill="#000"/><text x="1807.685" y="938.894" fill="#000" font-size="14" textLength="145.858" font-style="italic">IJythonServerNotifier</text><line x1="1750.91" y1="950.047" x2="1979.086" y2="950.047" style="stroke:#181818;stroke-width:0.5;"/><line x1="1750.91" y1="958.047" x2="1979.086" y2="958.047" style="stroke:#181818;stroke-width:0.5;"/><text x="1755.91" y="975.042" fill="#000" font-size="14" textLength="218.176">void notifyServer(source, data)</text></g><!--class LocalJython--><g class="entity" data-qualified-name="Server.LocalJython" id="ent0011" data-source-line="43"><rect x="2003.63" y="719.707" width="112.746" height="48" fill="#F1F1F1" style="stroke:#181818;stroke-width:0.5;" rx="2.5" ry="2.5"/><ellipse cx="2018.63" cy="735.707" rx="11" ry="11" fill="#B4A7E5" style="stroke:#181818;stroke-width:1;"/><path d="M2014.552,731.473 L2014.552,729.316 L2021.943,729.316 L2021.943,731.473 L2019.474,731.473 L2019.474,739.551 L2021.943,739.551 L2021.943,741.707 L2014.552,741.707 L2014.552,739.551 L2017.021,739.551 L2017.021,731.473 L2014.552,731.473 Z " fill="#000"/><text x="2032.63" y="740.554" fill="#000" font-size="14" textLength="80.746" font-style="italic">LocalJython</text><line x1="2004.63" y1="751.707" x2="2115.376" y2="751.707" style="stroke:#181818;stroke-width:0.5;"/><line x1="2004.63" y1="759.707" x2="2115.376" y2="759.707" style="stroke:#181818;stroke-width:0.5;"/></g><!--class JythonServer--><g class="entity" data-qualified-name="Server.JythonServer" id="ent0012" data-source-line="44"><rect x="2015.3" y="918.047" width="225.404" height="64.297" fill="#F1F1F1" style="stroke:#181818;stroke-width:0.5;" rx="2.5" ry="2.5"/><ellipse cx="2078.69" cy="934.047" rx="11" ry="11" fill="#ADD1B2" style="stroke:#181818;stroke-width:1;"/><path d="M2081.658,939.688 Q2081.08,939.984 2080.44,940.125 Q2079.799,940.281 2079.096,940.281 Q2076.596,940.281 2075.268,938.641 Q2073.955,936.984 2073.955,933.859 Q2073.955,930.734 2075.268,929.078 Q2076.596,927.422 2079.096,927.422 Q2079.799,927.422 2080.44,927.578 Q2081.096,927.734 2081.658,928.031 L2081.658,930.75 Q2081.033,930.172 2080.44,929.906 Q2079.846,929.625 2079.221,929.625 Q2077.877,929.625 2077.19,930.703 Q2076.502,931.766 2076.502,933.859 Q2076.502,935.953 2077.19,937.031 Q2077.877,938.094 2079.221,938.094 Q2079.846,938.094 2080.44,937.828 Q2081.033,937.547 2081.658,936.969 L2081.658,939.688 Z " fill="#000"/><text x="2099.19" y="938.894" fill="#000" font-size="14" textLength="90.125">JythonServer</text><line x1="2016.3" y1="950.047" x2="2239.704" y2="950.047" style="stroke:#181818;stroke-width:0.5;"/><text x="2021.3" y="967.042" fill="#000" font-size="14" textLength="213.404">batonManager: BatonManager</text><line x1="2016.3" y1="974.344" x2="2239.704" y2="974.344" style="stroke:#181818;stroke-width:0.5;"/></g><g class="entity" data-qualified-name="Server.jythonServerNote" id="ent0014" data-source-line="48"><path d="M1557.83,1161.287 L1557.83,1201.553 A0,0 0 0 0 1557.83,1201.553 L2132.174,1201.553 A0,0 0 0 0 2132.174,1201.553 L2132.174,1171.287 L2122.174,1161.287 L1873.12,1161.287 L2088.95,982.827 L1865.12,1161.287 L1557.83,1161.287 A0,0 0 0 0 1557.83,1161.287" style="stroke:#181818;stroke-width:0.5;" fill="#FEFFDD"/><path d="M2122.174,1161.287 L2122.174,1171.287 L2132.174,1171.287 L2122.174,1161.287" style="stroke:#181818;stroke-width:0.5;" fill="#FEFFDD"/><text x="1563.83" y="1178.354" fill="#000" font-size="13" textLength="553.344">JythonServer registers a client with the BatonManager via forwarding of addFacade()</text><text x="1563.83" y="1193.487" fill="#000" font-size="13" textLength="406.726">The authorisationLevel is determined by asking the Authoriser</text></g><!--class Authoriser--><g class="entity" data-qualified-name="Server.Authoriser" id="ent0016" data-source-line="53"><rect x="1249.22" y="1132.977" width="273.557" height="96.891" fill="#F1F1F1" style="stroke:#181818;stroke-width:0.5;" rx="2.5" ry="2.5"/><ellipse cx="1345.405" cy="1148.977" rx="11" ry="11" fill="#B4A7E5" style="stroke:#181818;stroke-width:1;"/><path d="M1341.327,1144.742 L1341.327,1142.586 L1348.718,1142.586 L1348.718,1144.742 L1346.249,1144.742 L1346.249,1152.821 L1348.718,1152.821 L1348.718,1154.977 L1341.327,1154.977 L1341.327,1152.821 L1343.796,1152.821 L1343.796,1144.742 L1341.327,1144.742 Z " fill="#000"/><text x="1365.905" y="1153.824" fill="#000" font-size="14" textLength="72.687" font-style="italic">Authoriser</text><line x1="1250.22" y1="1164.977" x2="1521.777" y2="1164.977" style="stroke:#181818;stroke-width:0.5;"/><line x1="1250.22" y1="1172.977" x2="1521.777" y2="1172.977" style="stroke:#181818;stroke-width:0.5;"/><text x="1255.22" y="1189.972" fill="#000" font-size="14" textLength="257.77">int getAuthorisationLevel(username)</text><text x="1255.22" y="1206.269" fill="#000" font-size="14" textLength="261.557">int getDefaultPermissions(username)</text><text x="1255.22" y="1222.566" fill="#000" font-size="14" textLength="161.69">isLocalStaff(username)</text></g><!--class FileAuthoriser--><g class="entity" data-qualified-name="Server.FileAuthoriser" id="ent0017" data-source-line="59"><rect x="1494.43" y="1341.707" width="129.132" height="48" fill="#F1F1F1" style="stroke:#181818;stroke-width:0.5;" rx="2.5" ry="2.5"/><ellipse cx="1509.43" cy="1357.707" rx="11" ry="11" fill="#ADD1B2" style="stroke:#181818;stroke-width:1;"/><path d="M1512.399,1363.347 Q1511.821,1363.644 1511.18,1363.785 Q1510.539,1363.941 1509.836,1363.941 Q1507.336,1363.941 1506.008,1362.301 Q1504.696,1360.644 1504.696,1357.519 Q1504.696,1354.394 1506.008,1352.738 Q1507.336,1351.082 1509.836,1351.082 Q1510.539,1351.082 1511.18,1351.238 Q1511.836,1351.394 1512.399,1351.691 L1512.399,1354.41 Q1511.774,1353.832 1511.18,1353.566 Q1510.586,1353.285 1509.961,1353.285 Q1508.618,1353.285 1507.93,1354.363 Q1507.243,1355.426 1507.243,1357.519 Q1507.243,1359.613 1507.93,1360.691 Q1508.618,1361.754 1509.961,1361.754 Q1510.586,1361.754 1511.18,1361.488 Q1511.774,1361.207 1512.399,1360.629 L1512.399,1363.347 Z " fill="#000"/><text x="1523.43" y="1362.554" fill="#000" font-size="14" textLength="97.132">FileAuthoriser</text><line x1="1495.43" y1="1373.707" x2="1622.562" y2="1373.707" style="stroke:#181818;stroke-width:0.5;"/><line x1="1495.43" y1="1381.707" x2="1622.562" y2="1381.707" style="stroke:#181818;stroke-width:0.5;"/></g><g class="entity" data-qualified-name="Server.fileAuthoriserNote" id="ent0019" data-source-line="60"><path d="M1285.86,1488.537 L1285.86,1513.67 A0,0 0 0 0 1285.86,1513.67 L1624.148,1513.67 A0,0 0 0 0 1624.148,1513.67 L1624.148,1498.537 L1614.148,1488.537 L1468.23,1488.537 L1540.88,1389.947 L1460.23,1488.537 L1285.86,1488.537 A0,0 0 0 0 1285.86,1488.537" style="stroke:#181818;stroke-width:0.5;" fill="#FEFFDD"/><path d="M1614.148,1488.537 L1614.148,1498.537 L1624.148,1498.537 L1614.148,1488.537" style="stroke:#181818;stroke-width:0.5;" fill="#FEFFDD"/><text x="1291.86" y="1505.604" fill="#000" font-size="13" textLength="317.288">Gets the permissions from user_permissions.xml</text></g><!--class LdapAuthoriser--><g class="entity" data-qualified-name="Server.LdapAuthoriser" id="ent0021" data-source-line="62"><rect x="1659.58" y="1477.107" width="138.839" height="48" fill="#F1F1F1" style="stroke:#181818;stroke-width:0.5;" rx="2.5" ry="2.5"/><ellipse cx="1674.58" cy="1493.107" rx="11" ry="11" fill="#ADD1B2" style="stroke:#181818;stroke-width:1;"/><path d="M1677.549,1498.748 Q1676.971,1499.044 1676.33,1499.185 Q1675.689,1499.341 1674.986,1499.341 Q1672.486,1499.341 1671.158,1497.701 Q1669.846,1496.044 1669.846,1492.919 Q1669.846,1489.794 1671.158,1488.138 Q1672.486,1486.482 1674.986,1486.482 Q1675.689,1486.482 1676.33,1486.638 Q1676.986,1486.794 1677.549,1487.091 L1677.549,1489.81 Q1676.924,1489.232 1676.33,1488.966 Q1675.736,1488.685 1675.111,1488.685 Q1673.768,1488.685 1673.08,1489.763 Q1672.393,1490.826 1672.393,1492.919 Q1672.393,1495.013 1673.08,1496.091 Q1673.768,1497.154 1675.111,1497.154 Q1675.736,1497.154 1676.33,1496.888 Q1676.924,1496.607 1677.549,1496.029 L1677.549,1498.748 Z " fill="#000"/><text x="1688.58" y="1497.954" fill="#000" font-size="14" textLength="106.839">LdapAuthoriser</text><line x1="1660.58" y1="1509.107" x2="1797.419" y2="1509.107" style="stroke:#181818;stroke-width:0.5;"/><line x1="1660.58" y1="1517.107" x2="1797.419" y2="1517.107" style="stroke:#181818;stroke-width:0.5;"/></g><!--class SingleFileAuthoriser--><g class="entity" data-qualified-name="Server.SingleFileAuthoriser" id="ent0023" data-source-line="63"><rect x="1658.91" y="1341.707" width="172.171" height="48" fill="#F1F1F1" style="stroke:#181818;stroke-width:0.5;" rx="2.5" ry="2.5"/><ellipse cx="1673.91" cy="1357.707" rx="11" ry="11" fill="#ADD1B2" style="stroke:#181818;stroke-width:1;"/><path d="M1676.879,1363.347 Q1676.301,1363.644 1675.66,1363.785 Q1675.019,1363.941 1674.316,1363.941 Q1671.816,1363.941 1670.488,1362.301 Q1669.176,1360.644 1669.176,1357.519 Q1669.176,1354.394 1670.488,1352.738 Q1671.816,1351.082 1674.316,1351.082 Q1675.019,1351.082 1675.66,1351.238 Q1676.316,1351.394 1676.879,1351.691 L1676.879,1354.41 Q1676.254,1353.832 1675.66,1353.566 Q1675.066,1353.285 1674.441,1353.285 Q1673.098,1353.285 1672.41,1354.363 Q1671.723,1355.426 1671.723,1357.519 Q1671.723,1359.613 1672.41,1360.691 Q1673.098,1361.754 1674.441,1361.754 Q1675.066,1361.754 1675.66,1361.488 Q1676.254,1361.207 1676.879,1360.629 L1676.879,1363.347 Z " fill="#000"/><text x="1687.91" y="1362.554" fill="#000" font-size="14" textLength="140.171">SingleFileAuthoriser</text><line x1="1659.91" y1="1373.707" x2="1830.081" y2="1373.707" style="stroke:#181818;stroke-width:0.5;"/><line x1="1659.91" y1="1381.707" x2="1830.081" y2="1381.707" style="stroke:#181818;stroke-width:0.5;"/></g><g class="entity" data-qualified-name="Server.authoriserNote" id="ent0025" data-source-line="64"><path d="M892.33,1353.147 L892.33,1378.28 A0,0 0 0 0 892.33,1378.28 L1459.673,1378.28 A0,0 0 0 0 1459.673,1378.28 L1459.673,1363.147 L1449.673,1353.147 L1193.68,1353.147 L1330.82,1230.317 L1185.68,1353.147 L892.33,1353.147 A0,0 0 0 0 892.33,1353.147" style="stroke:#181818;stroke-width:0.5;" fill="#FEFFDD"/><path d="M1449.673,1353.147 L1449.673,1363.147 L1459.673,1363.147 L1449.673,1353.147" style="stroke:#181818;stroke-width:0.5;" fill="#FEFFDD"/><text x="898.33" y="1370.214" fill="#000" font-size="13" textLength="546.343">Authorisation method is determined by gda.gui.AcquisitionGUI.authorisationMethod</text></g><!--class UDCBatonHandler--><g class="entity" data-qualified-name="Server.UDCBatonHandler" id="ent0027" data-source-line="69"><rect x="1359.48" y="711.557" width="159.039" height="64.297" fill="#F1F1F1" style="stroke:#181818;stroke-width:0.5;" rx="2.5" ry="2.5"/><ellipse cx="1374.48" cy="727.557" rx="11" ry="11" fill="#ADD1B2" style="stroke:#181818;stroke-width:1;"/><path d="M1377.449,733.198 Q1376.871,733.494 1376.23,733.635 Q1375.589,733.791 1374.886,733.791 Q1372.386,733.791 1371.058,732.151 Q1369.746,730.494 1369.746,727.369 Q1369.746,724.244 1371.058,722.588 Q1372.386,720.932 1374.886,720.932 Q1375.589,720.932 1376.23,721.088 Q1376.886,721.244 1377.449,721.541 L1377.449,724.26 Q1376.824,723.682 1376.23,723.416 Q1375.636,723.135 1375.011,723.135 Q1373.668,723.135 1372.98,724.213 Q1372.293,725.276 1372.293,727.369 Q1372.293,729.463 1372.98,730.541 Q1373.668,731.604 1375.011,731.604 Q1375.636,731.604 1376.23,731.338 Q1376.824,731.057 1377.449,730.479 L1377.449,733.198 Z " fill="#000"/><text x="1388.48" y="732.404" fill="#000" font-size="14" textLength="127.039">UDCBatonHandler</text><line x1="1360.48" y1="743.557" x2="1517.519" y2="743.557" style="stroke:#181818;stroke-width:0.5;"/><text x="1365.48" y="760.552" fill="#000" font-size="14" textLength="141.559">runner: IUDCRunner</text><line x1="1360.48" y1="767.854" x2="1517.519" y2="767.854" style="stroke:#181818;stroke-width:0.5;"/></g><!--class IUDCRunner--><g class="entity" data-qualified-name="Server.IUDCRunner" id="ent0028" data-source-line="72"><rect x="1553.18" y="719.707" width="117.647" height="48" fill="#F1F1F1" style="stroke:#181818;stroke-width:0.5;" rx="2.5" ry="2.5"/><ellipse cx="1568.18" cy="735.707" rx="11" ry="11" fill="#B4A7E5" style="stroke:#181818;stroke-width:1;"/><path d="M1564.102,731.473 L1564.102,729.316 L1571.493,729.316 L1571.493,731.473 L1569.024,731.473 L1569.024,739.551 L1571.493,739.551 L1571.493,741.707 L1564.102,741.707 L1564.102,739.551 L1566.571,739.551 L1566.571,731.473 L1564.102,731.473 Z " fill="#000"/><text x="1582.18" y="740.554" fill="#000" font-size="14" textLength="85.647" font-style="italic">IUDCRunner</text><line x1="1554.18" y1="751.707" x2="1669.827" y2="751.707" style="stroke:#181818;stroke-width:0.5;"/><line x1="1554.18" y1="759.707" x2="1669.827" y2="759.707" style="stroke:#181818;stroke-width:0.5;"/></g><!--class GDAUDCRunner--><g class="entity" data-qualified-name="Server.GDAUDCRunner" id="ent0029" data-source-line="73"><rect x="1570.64" y="926.197" width="144.725" height="48" fill="#F1F1F1" style="stroke:#181818;stroke-width:0.5;" rx="2.5" ry="2.5"/><ellipse cx="1585.64" cy="942.197" rx="11" ry="11" fill="#ADD1B2" style="stroke:#181818;stroke-width:1;"/><path d="M1588.609,947.838 Q1588.031,948.134 1587.39,948.275 Q1586.749,948.431 1586.046,948.431 Q1583.546,948.431 1582.218,946.791 Q1580.906,945.134 1580.906,942.009 Q1580.906,938.884 1582.218,937.228 Q1583.546,935.572 1586.046,935.572 Q1586.749,935.572 1587.39,935.728 Q1588.046,935.884 1588.609,936.181 L1588.609,938.9 Q1587.984,938.322 1587.39,938.056 Q1586.796,937.775 1586.171,937.775 Q1584.828,937.775 1584.14,938.853 Q1583.453,939.916 1583.453,942.009 Q1583.453,944.103 1584.14,945.181 Q1584.828,946.244 1586.171,946.244 Q1586.796,946.244 1587.39,945.978 Q1587.984,945.697 1588.609,945.119 L1588.609,947.838 Z " fill="#000"/><text x="1599.64" y="947.044" fill="#000" font-size="14" textLength="112.725">GDAUDCRunner</text><line x1="1571.64" y1="958.197" x2="1714.365" y2="958.197" style="stroke:#181818;stroke-width:0.5;"/><line x1="1571.64" y1="966.197" x2="1714.365" y2="966.197" style="stroke:#181818;stroke-width:0.5;"/></g><!--class HyperionUDCRunner--><g class="entity" data-qualified-name="Server.HyperionUDCRunner" id="ent0031" data-source-line="74"><rect x="1358.54" y="926.197" width="176.915" height="48" fill="#F1F1F1" style="stroke:#181818;stroke-width:0.5;" rx="2.5" ry="2.5"/><ellipse cx="1373.54" cy="942.197" rx="11" ry="11" fill="#ADD1B2" style="stroke:#181818;stroke-width:1;"/><path d="M1376.509,947.838 Q1375.931,948.134 1375.29,948.275 Q1374.649,948.431 1373.946,948.431 Q1371.446,948.431 1370.118,946.791 Q1368.806,945.134 1368.806,942.009 Q1368.806,938.884 1370.118,937.228 Q1371.446,935.572 1373.946,935.572 Q1374.649,935.572 1375.29,935.728 Q1375.946,935.884 1376.509,936.181 L1376.509,938.9 Q1375.884,938.322 1375.29,938.056 Q1374.696,937.775 1374.071,937.775 Q1372.728,937.775 1372.04,938.853 Q1371.353,939.916 1371.353,942.009 Q1371.353,944.103 1372.04,945.181 Q1372.728,946.244 1374.071,946.244 Q1374.696,946.244 1375.29,945.978 Q1375.884,945.697 1376.509,945.119 L1376.509,947.838 Z " fill="#000"/><text x="1387.54" y="947.044" fill="#000" font-size="14" textLength="144.915">HyperionUDCRunner</text><line x1="1359.54" y1="958.197" x2="1534.455" y2="958.197" style="stroke:#181818;stroke-width:0.5;"/><line x1="1359.54" y1="966.197" x2="1534.455" y2="966.197" style="stroke:#181818;stroke-width:0.5;"/></g><g class="entity" data-qualified-name="Server.udcBatonHandlerNote" id="ent0033" data-source-line="77"><path d="M230.42,930.057 L230.42,970.323 L805.583,970.323 L805.583,940.057 L795.583,930.057 L230.42,930.057" style="stroke:#181818;stroke-width:0.5;" fill="#FEFFDD"/><path d="M795.583,930.057 L795.583,940.057 L805.583,940.057 L795.583,930.057" style="stroke:#181818;stroke-width:1;" fill="#FEFFDD"/><text x="236.42" y="947.124" fill="#000" font-size="13" textLength="554.163">Creates the UDC Client by calling getUnattendedClientFacade() during configuration.</text><text x="236.42" y="962.257" fill="#000" font-size="13" textLength="525.104">Creates the UDC Runner according to the gda.mx.udc.hyperion.enable property.</text></g><!--class Device--><g class="entity" data-qualified-name="Server.Device" id="ent0035" data-source-line="83"><rect x="2401.78" y="1149.267" width="148.445" height="64.297" fill="#F1F1F1" style="stroke:#181818;stroke-width:0.5;" rx="2.5" ry="2.5"/><ellipse cx="2447.813" cy="1165.267" rx="11" ry="11" fill="#ADD1B2" style="stroke:#181818;stroke-width:1;"/><path d="M2450.782,1170.908 Q2450.204,1171.204 2449.563,1171.345 Q2448.923,1171.501 2448.219,1171.501 Q2445.719,1171.501 2444.391,1169.861 Q2443.079,1168.204 2443.079,1165.079 Q2443.079,1161.954 2444.391,1160.298 Q2445.719,1158.642 2448.219,1158.642 Q2448.923,1158.642 2449.563,1158.798 Q2450.219,1158.954 2450.782,1159.251 L2450.782,1161.97 Q2450.157,1161.392 2449.563,1161.126 Q2448.969,1160.845 2448.344,1160.845 Q2447.001,1160.845 2446.313,1161.923 Q2445.626,1162.986 2445.626,1165.079 Q2445.626,1167.173 2446.313,1168.251 Q2447.001,1169.314 2448.344,1169.314 Q2448.969,1169.314 2449.563,1169.048 Q2450.157,1168.767 2450.782,1168.189 L2450.782,1170.908 Z " fill="#000"/><text x="2468.313" y="1170.114" fill="#000" font-size="14" textLength="47.879">Device</text><line x1="2402.78" y1="1181.267" x2="2549.225" y2="1181.267" style="stroke:#181818;stroke-width:0.5;"/><text x="2407.78" y="1198.262" fill="#000" font-size="14" textLength="136.445">protectionLevel: int</text><line x1="2402.78" y1="1205.564" x2="2549.225" y2="1205.564" style="stroke:#181818;stroke-width:0.5;"/></g><!--class DeviceInterceptor--><g class="entity" data-qualified-name="Server.DeviceInterceptor" id="ent0036" data-source-line="86"><rect x="2392.13" y="926.197" width="157.747" height="48" fill="#F1F1F1" style="stroke:#181818;stroke-width:0.5;" rx="2.5" ry="2.5"/><ellipse cx="2407.13" cy="942.197" rx="11" ry="11" fill="#ADD1B2" style="stroke:#181818;stroke-width:1;"/><path d="M2410.099,947.838 Q2409.521,948.134 2408.88,948.275 Q2408.239,948.431 2407.536,948.431 Q2405.036,948.431 2403.708,946.791 Q2402.396,945.134 2402.396,942.009 Q2402.396,938.884 2403.708,937.228 Q2405.036,935.572 2407.536,935.572 Q2408.239,935.572 2408.88,935.728 Q2409.536,935.884 2410.099,936.181 L2410.099,938.9 Q2409.474,938.322 2408.88,938.056 Q2408.286,937.775 2407.661,937.775 Q2406.318,937.775 2405.63,938.853 Q2404.943,939.916 2404.943,942.009 Q2404.943,944.103 2405.63,945.181 Q2406.318,946.244 2407.661,946.244 Q2408.286,946.244 2408.88,945.978 Q2409.474,945.697 2410.099,945.119 L2410.099,947.838 Z " fill="#000"/><text x="2421.13" y="947.044" fill="#000" font-size="14" textLength="125.747">DeviceInterceptor</text><line x1="2393.13" y1="958.197" x2="2548.877" y2="958.197" style="stroke:#181818;stroke-width:0.5;"/><line x1="2393.13" y1="966.197" x2="2548.877" y2="966.197" style="stroke:#181818;stroke-width:0.5;"/></g><g class="entity" data-qualified-name="Server.deviceNote" id="ent0037" data-source-line="87"><path d="M1960.37,1338.007 L1960.37,1393.405 A0,0 0 0 0 1960.37,1393.405 L2549.638,1393.405 A0,0 0 0 0 2549.638,1393.405 L2549.638,1348.007 L2539.638,1338.007 L2291.74,1338.007 L2437.76,1213.967 L2283.74,1338.007 L1960.37,1338.007 A0,0 0 0 0 1960.37,1338.007" style="stroke:#181818;stroke-width:0.5;" fill="#FEFFDD"/><path d="M2539.638,1338.007 L2539.638,1348.007 L2549.638,1348.007 L2539.638,1338.007" style="stroke:#181818;stroke-width:0.5;" fill="#FEFFDD"/><text x="1966.37" y="1355.074" fill="#000" font-size="13" textLength="568.268">DeviceInterceptor is an interceptor on specific methods of Device, if the current thread</text><text x="1966.37" y="1370.207" fill="#000" font-size="13" textLength="463.188">has an authorisationLevel below the protectionLevel of the device, and</text><text x="1966.37" y="1385.339" fill="#000" font-size="13" textLength="500.951">the call is made from Jython the method call throws AccessDeniedException.</text></g><!--class UDCCompleteEvent--><g class="entity" data-qualified-name="Server.UDCCompleteEvent" id="ent0039" data-source-line="94"><rect x="1730.81" y="719.707" width="170.38" height="48" fill="#F1F1F1" style="stroke:#181818;stroke-width:0.5;" rx="2.5" ry="2.5"/><ellipse cx="1745.81" cy="735.707" rx="11" ry="11" fill="#ADD1B2" style="stroke:#181818;stroke-width:1;"/><path d="M1748.779,741.348 Q1748.201,741.644 1747.56,741.785 Q1746.919,741.941 1746.216,741.941 Q1743.716,741.941 1742.388,740.301 Q1741.076,738.644 1741.076,735.519 Q1741.076,732.394 1742.388,730.738 Q1743.716,729.082 1746.216,729.082 Q1746.919,729.082 1747.56,729.238 Q1748.216,729.394 1748.779,729.691 L1748.779,732.41 Q1748.154,731.832 1747.56,731.566 Q1746.966,731.285 1746.341,731.285 Q1744.998,731.285 1744.31,732.363 Q1743.623,733.426 1743.623,735.519 Q1743.623,737.613 1744.31,738.691 Q1744.998,739.754 1746.341,739.754 Q1746.966,739.754 1747.56,739.488 Q1748.154,739.207 1748.779,738.629 L1748.779,741.348 Z " fill="#000"/><text x="1759.81" y="740.554" fill="#000" font-size="14" textLength="138.38">UDCCompleteEvent</text><line x1="1731.81" y1="751.707" x2="1900.19" y2="751.707" style="stroke:#181818;stroke-width:0.5;"/><line x1="1731.81" y1="759.707" x2="1900.19" y2="759.707" style="stroke:#181818;stroke-width:0.5;"/></g><!--class BatonChanged--><g class="entity" data-qualified-name="Common.BatonChanged" id="ent0041" data-source-line="100"><rect x="896.2" y="313.477" width="135.599" height="48" fill="#F1F1F1" style="stroke:#181818;stroke-width:0.5;" rx="2.5" ry="2.5"/><ellipse cx="911.2" cy="329.477" rx="11" ry="11" fill="#ADD1B2" style="stroke:#181818;stroke-width:1;"/><path d="M914.169,335.117 Q913.591,335.414 912.95,335.555 Q912.309,335.711 911.606,335.711 Q909.106,335.711 907.778,334.071 Q906.466,332.414 906.466,329.289 Q906.466,326.164 907.778,324.508 Q909.106,322.852 911.606,322.852 Q912.309,322.852 912.95,323.008 Q913.606,323.164 914.169,323.461 L914.169,326.18 Q913.544,325.602 912.95,325.336 Q912.356,325.055 911.731,325.055 Q910.388,325.055 909.7,326.133 Q909.013,327.196 909.013,329.289 Q909.013,331.383 909.7,332.461 Q910.388,333.524 911.731,333.524 Q912.356,333.524 912.95,333.258 Q913.544,332.977 914.169,332.399 L914.169,335.117 Z " fill="#000"/><text x="925.2" y="334.324" fill="#000" font-size="14" textLength="103.599">BatonChanged</text><line x1="897.2" y1="345.477" x2="1030.799" y2="345.477" style="stroke:#181818;stroke-width:0.5;"/><line x1="897.2" y1="353.477" x2="1030.799" y2="353.477" style="stroke:#181818;stroke-width:0.5;"/></g><!--class BatonRequested--><g class="entity" data-qualified-name="Common.BatonRequested" id="ent0042" data-source-line="101"><rect x="712.95" y="313.477" width="148.108" height="48" fill="#F1F1F1" style="stroke:#181818;stroke-width:0.5;" rx="2.5" ry="2.5"/><ellipse cx="727.95" cy="329.477" rx="11" ry="11" fill="#ADD1B2" style="stroke:#181818;stroke-width:1;"/><path d="M730.919,335.117 Q730.341,335.414 729.7,335.555 Q729.059,335.711 728.356,335.711 Q725.856,335.711 724.528,334.071 Q723.216,332.414 723.216,329.289 Q723.216,326.164 724.528,324.508 Q725.856,322.852 728.356,322.852 Q729.059,322.852 729.7,323.008 Q730.356,323.164 730.919,323.461 L730.919,326.18 Q730.294,325.602 729.7,325.336 Q729.106,325.055 728.481,325.055 Q727.138,325.055 726.45,326.133 Q725.763,327.196 725.763,329.289 Q725.763,331.383 726.45,332.461 Q727.138,333.524 728.481,333.524 Q729.106,333.524 729.7,333.258 Q730.294,332.977 730.919,332.399 L730.919,335.117 Z " fill="#000"/><text x="741.95" y="334.324" fill="#000" font-size="14" textLength="116.108">BatonRequested</text><line x1="713.95" y1="345.477" x2="860.058" y2="345.477" style="stroke:#181818;stroke-width:0.5;"/><line x1="713.95" y1="353.477" x2="860.058" y2="353.477" style="stroke:#181818;stroke-width:0.5;"/></g><!--class BatonLeaseRenewRequest--><g class="entity" data-qualified-name="Common.BatonLeaseRenewRequest" id="ent0043" data-source-line="102"><rect x="2533.61" y="313.477" width="218.785" height="48" fill="#F1F1F1" style="stroke:#181818;stroke-width:0.5;" rx="2.5" ry="2.5"/><ellipse cx="2548.61" cy="329.477" rx="11" ry="11" fill="#ADD1B2" style="stroke:#181818;stroke-width:1;"/><path d="M2551.579,335.117 Q2551.001,335.414 2550.36,335.555 Q2549.719,335.711 2549.016,335.711 Q2546.516,335.711 2545.188,334.071 Q2543.876,332.414 2543.876,329.289 Q2543.876,326.164 2545.188,324.508 Q2546.516,322.852 2549.016,322.852 Q2549.719,322.852 2550.36,323.008 Q2551.016,323.164 2551.579,323.461 L2551.579,326.18 Q2550.954,325.602 2550.36,325.336 Q2549.766,325.055 2549.141,325.055 Q2547.798,325.055 2547.11,326.133 Q2546.423,327.196 2546.423,329.289 Q2546.423,331.383 2547.11,332.461 Q2547.798,333.524 2549.141,333.524 Q2549.766,333.524 2550.36,333.258 Q2550.954,332.977 2551.579,332.399 L2551.579,335.117 Z " fill="#000"/><text x="2562.61" y="334.324" fill="#000" font-size="14" textLength="186.785">BatonLeaseRenewRequest</text><line x1="2534.61" y1="345.477" x2="2751.395" y2="345.477" style="stroke:#181818;stroke-width:0.5;"/><line x1="2534.61" y1="353.477" x2="2751.395" y2="353.477" style="stroke:#181818;stroke-width:0.5;"/></g><!--class Jython--><g class="entity" data-qualified-name="Common.Jython" id="ent0044" data-source-line="105"><rect x="1818.96" y="487.667" width="482.08" height="96.891" fill="#F1F1F1" style="stroke:#181818;stroke-width:0.5;" rx="2.5" ry="2.5"/><ellipse cx="2033.643" cy="503.667" rx="11" ry="11" fill="#B4A7E5" style="stroke:#181818;stroke-width:1;"/><path d="M2029.564,499.432 L2029.564,497.276 L2036.955,497.276 L2036.955,499.432 L2034.486,499.432 L2034.486,507.511 L2036.955,507.511 L2036.955,509.667 L2029.564,509.667 L2029.564,507.511 L2032.033,507.511 L2032.033,499.432 L2029.564,499.432 Z " fill="#000"/><text x="2054.143" y="508.514" fill="#000" font-size="14" textLength="44.215" font-style="italic">Jython</text><line x1="1819.96" y1="519.667" x2="2300.04" y2="519.667" style="stroke:#181818;stroke-width:0.5;"/><line x1="1819.96" y1="527.667" x2="2300.04" y2="527.667" style="stroke:#181818;stroke-width:0.5;"/><text x="1824.96" y="544.662" fill="#000" font-size="14" textLength="291.102">boolean amIBatonHolder(myJSFIdentifier)</text><text x="1824.96" y="560.959" fill="#000" font-size="14" textLength="470.08">int addFacade(jsfIdentifier, hostname, username, fullName, visitId)</text><text x="1824.96" y="577.256" fill="#000" font-size="14" textLength="155.559">boolean isBatonHeld()</text></g><!--class ClientInfo--><g class="entity" data-qualified-name="Common.ClientInfo" id="ent0045" data-source-line="111"><rect x="1066.92" y="248.297" width="204.151" height="178.375" fill="#F1F1F1" style="stroke:#181818;stroke-width:0.5;" rx="2.5" ry="2.5"/><ellipse cx="1131.233" cy="264.297" rx="11" ry="11" fill="#ADD1B2" style="stroke:#181818;stroke-width:1;"/><path d="M1134.201,269.938 Q1133.623,270.234 1132.983,270.375 Q1132.342,270.531 1131.639,270.531 Q1129.139,270.531 1127.811,268.891 Q1126.498,267.234 1126.498,264.109 Q1126.498,260.984 1127.811,259.328 Q1129.139,257.672 1131.639,257.672 Q1132.342,257.672 1132.983,257.828 Q1133.639,257.984 1134.201,258.281 L1134.201,261 Q1133.576,260.422 1132.983,260.156 Q1132.389,259.875 1131.764,259.875 Q1130.42,259.875 1129.733,260.953 Q1129.045,262.016 1129.045,264.109 Q1129.045,266.203 1129.733,267.281 Q1130.42,268.344 1131.764,268.344 Q1132.389,268.344 1132.983,268.078 Q1133.576,267.797 1134.201,267.219 L1134.201,269.938 Z " fill="#000"/><text x="1151.733" y="269.144" fill="#000" font-size="14" textLength="67.026">ClientInfo</text><line x1="1067.92" y1="280.297" x2="1270.071" y2="280.297" style="stroke:#181818;stroke-width:0.5;"/><text x="1072.92" y="297.292" fill="#000" font-size="14" textLength="65.967">index: int</text><text x="1072.92" y="313.589" fill="#000" font-size="14" textLength="94.5">userId: String</text><text x="1072.92" y="329.886" fill="#000" font-size="14" textLength="113.832">fullName: String</text><text x="1072.92" y="346.183" fill="#000" font-size="14" textLength="120.873">hostname: String</text><text x="1072.92" y="362.479" fill="#000" font-size="14" textLength="157.336">authorisationLevel: int</text><text x="1072.92" y="378.776" fill="#000" font-size="14" textLength="94.705">visitID: String</text><line x1="1067.92" y1="386.078" x2="1270.071" y2="386.078" style="stroke:#181818;stroke-width:0.5;"/><text x="1072.92" y="403.073" fill="#000" font-size="14" textLength="128.44">boolean isServer()</text><text x="1072.92" y="419.37" fill="#000" font-size="14" textLength="192.151">boolean isAutomatedUser()</text></g><g class="entity" data-qualified-name="Common.clientInfoNote" id="ent0046" data-source-line="122"><path d="M890.87,523.547 L890.87,548.68 A0,0 0 0 0 890.87,548.68 L1385.126,548.68 A0,0 0 0 0 1385.126,548.68 L1385.126,533.547 L1375.126,523.547 L1143.88,523.547 L1155.04,427.017 L1135.88,523.547 L890.87,523.547 A0,0 0 0 0 890.87,523.547" style="stroke:#181818;stroke-width:0.5;" fill="#FEFFDD"/><path d="M1375.126,523.547 L1375.126,533.547 L1385.126,533.547 L1375.126,523.547" style="stroke:#181818;stroke-width:0.5;" fill="#FEFFDD"/><text x="896.87" y="540.614" fill="#000" font-size="13" textLength="473.256">isServer and isAutomatedUser are determined by the authorisationLevel</text></g><!--class ClientDetails--><g class="entity" data-qualified-name="Common.ClientDetails" id="ent0048" data-source-line="125"><rect x="712.5" y="503.967" width="142.997" height="64.297" fill="#F1F1F1" style="stroke:#181818;stroke-width:0.5;" rx="2.5" ry="2.5"/><ellipse cx="737.369" cy="519.967" rx="11" ry="11" fill="#ADD1B2" style="stroke:#181818;stroke-width:1;"/><path d="M740.338,525.607 Q739.76,525.904 739.119,526.045 Q738.479,526.201 737.775,526.201 Q735.275,526.201 733.947,524.561 Q732.635,522.904 732.635,519.779 Q732.635,516.654 733.947,514.998 Q735.275,513.342 737.775,513.342 Q738.479,513.342 739.119,513.498 Q739.775,513.654 740.338,513.951 L740.338,516.67 Q739.713,516.092 739.119,515.826 Q738.525,515.545 737.9,515.545 Q736.557,515.545 735.869,516.623 Q735.182,517.686 735.182,519.779 Q735.182,521.873 735.869,522.951 Q736.557,524.014 737.9,524.014 Q738.525,524.014 739.119,523.748 Q739.713,523.467 740.338,522.889 L740.338,525.607 Z " fill="#000"/><text x="753.562" y="524.814" fill="#000" font-size="14" textLength="89.065">ClientDetails</text><line x1="713.5" y1="535.967" x2="854.497" y2="535.967" style="stroke:#181818;stroke-width:0.5;"/><text x="718.5" y="552.962" fill="#000" font-size="14" textLength="130.997">hasBaton: boolean</text><line x1="713.5" y1="560.264" x2="854.497" y2="560.264" style="stroke:#181818;stroke-width:0.5;"/></g><!--class IAuthorisationHolder--><g class="entity" data-qualified-name="Common.IAuthorisationHolder" id="ent0050" data-source-line="129"><rect x="1452.18" y="297.187" width="299.649" height="80.594" fill="#F1F1F1" style="stroke:#181818;stroke-width:0.5;" rx="2.5" ry="2.5"/><ellipse cx="1525.714" cy="313.187" rx="11" ry="11" fill="#B4A7E5" style="stroke:#181818;stroke-width:1;"/><path d="M1521.636,308.952 L1521.636,306.796 L1529.027,306.796 L1529.027,308.952 L1526.558,308.952 L1526.558,317.031 L1529.027,317.031 L1529.027,319.187 L1521.636,319.187 L1521.636,317.031 L1524.105,317.031 L1524.105,308.952 L1521.636,308.952 Z " fill="#000"/><text x="1546.214" y="318.034" fill="#000" font-size="14" textLength="144.081" font-style="italic">IAuthorisationHolder</text><line x1="1453.18" y1="329.187" x2="1750.829" y2="329.187" style="stroke:#181818;stroke-width:0.5;"/><line x1="1453.18" y1="337.187" x2="1750.829" y2="337.187" style="stroke:#181818;stroke-width:0.5;"/><text x="1458.18" y="354.182" fill="#000" font-size="14" textLength="187.53">int getAuthorisationLevel()</text><text x="1458.18" y="370.479" fill="#000" font-size="14" textLength="287.649">int getAuthorisationLevelAtRegistration()</text></g><!--class IBatonStateProvider--><g class="entity" data-qualified-name="Common.IBatonStateProvider" id="ent0051" data-source-line="134"><rect x="1976.65" y="280.887" width="330.698" height="113.188" fill="#F1F1F1" style="stroke:#181818;stroke-width:0.5;" rx="2.5" ry="2.5"/><ellipse cx="2067.503" cy="296.887" rx="11" ry="11" fill="#B4A7E5" style="stroke:#181818;stroke-width:1;"/><path d="M2063.425,292.652 L2063.425,290.496 L2070.816,290.496 L2070.816,292.652 L2068.347,292.652 L2068.347,300.731 L2070.816,300.731 L2070.816,302.887 L2063.425,302.887 L2063.425,300.731 L2065.894,300.731 L2065.894,292.652 L2063.425,292.652 Z " fill="#000"/><text x="2088.003" y="301.734" fill="#000" font-size="14" textLength="140.492" font-style="italic">IBatonStateProvider</text><line x1="1977.65" y1="312.887" x2="2306.348" y2="312.887" style="stroke:#181818;stroke-width:0.5;"/><line x1="1977.65" y1="320.887" x2="2306.348" y2="320.887" style="stroke:#181818;stroke-width:0.5;"/><text x="1982.65" y="337.882" fill="#000" font-size="14" textLength="185.042">boolean amIBatonHolder()</text><text x="1982.65" y="354.179" fill="#000" font-size="14" textLength="155.559">boolean isBatonHeld()</text><text x="1982.65" y="370.476" fill="#000" font-size="14" textLength="300.945">void addBatonChangedObserver(observer)</text><text x="1982.65" y="386.773" fill="#000" font-size="14" textLength="318.698">void deleteBatonChangedObserver(observer)</text></g><g class="entity" data-qualified-name="Common.iBatonStateProviderNote" id="ent0052" data-source-line="140"><path d="M2335.57,523.547 L2335.57,548.68 A0,0 0 0 0 2335.57,548.68 L2752.429,548.68 A0,0 0 0 0 2752.429,548.68 L2752.429,533.547 L2742.429,523.547 L2523.43,523.547 L2256.66,394.567 L2515.43,523.547 L2335.57,523.547 A0,0 0 0 0 2335.57,523.547" style="stroke:#181818;stroke-width:0.5;" fill="#FEFFDD"/><path d="M2742.429,523.547 L2742.429,533.547 L2752.429,533.547 L2742.429,523.547" style="stroke:#181818;stroke-width:0.5;" fill="#FEFFDD"/><text x="2341.57" y="540.614" fill="#000" font-size="13" textLength="395.859">Access is enforced in the client via calls to amIBatonHolder()</text></g><!--class JythonServerFacade--><g class="entity" data-qualified-name="Common.JythonServerFacade" id="ent0053" data-source-line="142"><rect x="1419.81" y="487.667" width="364.386" height="96.891" fill="#F1F1F1" style="stroke:#181818;stroke-width:0.5;" rx="2.5" ry="2.5"/><ellipse cx="1527.486" cy="503.667" rx="11" ry="11" fill="#ADD1B2" style="stroke:#181818;stroke-width:1;"/><path d="M1530.455,509.307 Q1529.877,509.604 1529.236,509.745 Q1528.596,509.901 1527.893,509.901 Q1525.393,509.901 1524.064,508.261 Q1522.752,506.604 1522.752,503.479 Q1522.752,500.354 1524.064,498.698 Q1525.393,497.042 1527.893,497.042 Q1528.596,497.042 1529.236,497.198 Q1529.893,497.354 1530.455,497.651 L1530.455,500.37 Q1529.83,499.792 1529.236,499.526 Q1528.643,499.245 1528.018,499.245 Q1526.674,499.245 1525.986,500.323 Q1525.299,501.386 1525.299,503.479 Q1525.299,505.573 1525.986,506.651 Q1526.674,507.714 1528.018,507.714 Q1528.643,507.714 1529.236,507.448 Q1529.83,507.167 1530.455,506.589 L1530.455,509.307 Z " fill="#000"/><text x="1547.986" y="508.514" fill="#000" font-size="14" textLength="140.533">JythonServerFacade</text><line x1="1420.81" y1="519.667" x2="1783.196" y2="519.667" style="stroke:#181818;stroke-width:0.5;"/><text x="1425.81" y="536.662" fill="#000" font-size="14" textLength="169.169">commandServer: Jython</text><text x="1425.81" y="552.959" fill="#000" font-size="14" textLength="94.705">visitID: String</text><line x1="1420.81" y1="560.261" x2="1783.196" y2="560.261" style="stroke:#181818;stroke-width:0.5;"/><text x="1425.81" y="577.256" fill="#000" font-size="14" textLength="352.386" text-decoration="underline">JythonServerFacade getUnattendedClientFacade()</text></g><!--class ApplicationWorkbenchAdvisor--><g class="entity" data-qualified-name="Client.ApplicationWorkbenchAdvisor" id="ent0057" data-source-line="150"><rect x="2021.15" y="97.297" width="241.692" height="48" fill="#F1F1F1" style="stroke:#181818;stroke-width:0.5;" rx="2.5" ry="2.5"/><ellipse cx="2036.15" cy="113.297" rx="11" ry="11" fill="#ADD1B2" style="stroke:#181818;stroke-width:1;"/><path d="M2039.119,118.938 Q2038.541,119.234 2037.9,119.375 Q2037.259,119.531 2036.556,119.531 Q2034.056,119.531 2032.728,117.891 Q2031.416,116.234 2031.416,113.109 Q2031.416,109.984 2032.728,108.328 Q2034.056,106.672 2036.556,106.672 Q2037.259,106.672 2037.9,106.828 Q2038.556,106.984 2039.119,107.281 L2039.119,110 Q2038.494,109.422 2037.9,109.156 Q2037.306,108.875 2036.681,108.875 Q2035.338,108.875 2034.65,109.953 Q2033.963,111.016 2033.963,113.109 Q2033.963,115.203 2034.65,116.281 Q2035.338,117.344 2036.681,117.344 Q2037.306,117.344 2037.9,117.078 Q2038.494,116.797 2039.119,116.219 L2039.119,118.938 Z " fill="#000"/><text x="2050.15" y="118.144" fill="#000" font-size="14" textLength="209.692">ApplicationWorkbenchAdvisor</text><line x1="2022.15" y1="129.297" x2="2261.842" y2="129.297" style="stroke:#181818;stroke-width:0.5;"/><line x1="2022.15" y1="137.297" x2="2261.842" y2="137.297" style="stroke:#181818;stroke-width:0.5;"/></g><g class="entity" data-qualified-name="Client.applicationWorkbenchAdvisorNote" id="ent0058" data-source-line="151"><path d="M2332.73,101.157 L2332.73,117.297 L2263.17,121.297 L2332.73,125.297 L2332.73,141.422 A0,0 0 0 0 2332.73,141.422 L3007.278,141.422 A0,0 0 0 0 3007.278,141.422 L3007.278,111.157 L2997.278,101.157 L2332.73,101.157 A0,0 0 0 0 2332.73,101.157" style="stroke:#181818;stroke-width:0.5;" fill="#FEFFDD"/><path d="M2997.278,101.157 L2997.278,111.157 L3007.278,111.157 L2997.278,101.157" style="stroke:#181818;stroke-width:0.5;" fill="#FEFFDD"/><text x="2338.73" y="118.224" fill="#000" font-size="13" textLength="653.548">ApplicationWorkbenchAdvisor receives the BatonLeaseRenewRequest and uses IBatonStateProvider</text><text x="2338.73" y="133.357" fill="#000" font-size="13" textLength="307.842">to renew the lease by calling amIBatonHolder()</text></g><!--reverse link Thread to JythonServerThread--><g class="link" data-entity-1="ent0002" data-entity-2="ent0003" id="lnk4" data-source-line="6" data-link-type="extension"><path d="M2307.27,992.04 C2298.93,1031.08 2285.76,1092.647 2275.5,1140.667" style="stroke:#181818;stroke-width:1;" fill="none" id="Thread-backto-JythonServerThread"/><polygon points="2311.03,974.437,2301.402,990.786,2313.137,993.293,2311.03,974.437" fill="none" style="stroke:#181818;stroke-width:1;stroke-linejoin:miter;stroke-miterlimit:10;"/></g><!--reverse link IBatonManager to BatonManager--><g class="link" data-entity-1="ent0005" data-entity-2="ent0006" id="lnk7" data-source-line="23" data-link-type="extension"><path d="M1076.003,1065.712 C1074.933,1086.032 1074.78,1089.137 1073.77,1108.367" style="stroke:#181818;stroke-width:1;stroke-dasharray:7,7;" fill="none" id="IBatonManager-backto-BatonManager"/><polygon points="1076.95,1047.737,1070.012,1065.396,1081.995,1066.027,1076.95,1047.737" fill="none" style="stroke:#181818;stroke-width:1;stroke-linejoin:miter;stroke-miterlimit:10;"/></g><!--reverse link LocalJython to JythonServer--><g class="link" data-entity-1="ent0011" data-entity-2="ent0012" id="lnk13" data-source-line="45" data-link-type="extension"><path d="M2073.482,785.246 C2085.732,822.066 2103.79,876.397 2117.52,917.677" style="stroke:#181818;stroke-width:1;stroke-dasharray:7,7;" fill="none" id="LocalJython-backto-JythonServer"/><polygon points="2067.8,768.167,2067.789,787.141,2079.176,783.352,2067.8,768.167" fill="none" style="stroke:#181818;stroke-width:1;stroke-linejoin:miter;stroke-miterlimit:10;"/></g><!--reverse link Authoriser to FileAuthoriser--><g class="link" data-entity-1="ent0016" data-entity-2="ent0017" id="lnk18" data-source-line="59" data-link-type="extension"><path d="M1443.842,1243.372 C1477.882,1279.232 1510.57,1313.677 1537.01,1341.537" style="stroke:#181818;stroke-width:1;stroke-dasharray:7,7;" fill="none" id="Authoriser-backto-FileAuthoriser"/><polygon points="1431.45,1230.317,1439.491,1247.503,1448.194,1239.241,1431.45,1230.317" fill="none" style="stroke:#181818;stroke-width:1;stroke-linejoin:miter;stroke-miterlimit:10;"/></g><!--reverse link FileAuthoriser to LdapAuthoriser--><g class="link" data-entity-1="ent0017" data-entity-2="ent0021" id="lnk22" data-source-line="62" data-link-type="extension"><path d="M1602.771,1401.058 C1633.781,1425.388 1668.06,1452.287 1699.16,1476.687" style="stroke:#181818;stroke-width:1;" fill="none" id="FileAuthoriser-backto-LdapAuthoriser"/><polygon points="1588.61,1389.947,1599.068,1405.778,1606.475,1396.337,1588.61,1389.947" fill="none" style="stroke:#181818;stroke-width:1;stroke-linejoin:miter;stroke-miterlimit:10;"/></g><!--reverse link Authoriser to SingleFileAuthoriser--><g class="link" data-entity-1="ent0016" data-entity-2="ent0023" id="lnk24" data-source-line="63" data-link-type="extension"><path d="M1496.37,1238.466 C1566.8,1274.226 1643.95,1313.397 1698.89,1341.297" style="stroke:#181818;stroke-width:1;stroke-dasharray:7,7;" fill="none" id="Authoriser-backto-SingleFileAuthoriser"/><polygon points="1480.32,1230.317,1493.653,1243.816,1499.086,1233.116,1480.32,1230.317" fill="none" style="stroke:#181818;stroke-width:1;stroke-linejoin:miter;stroke-miterlimit:10;"/></g><!--reverse link IUDCRunner to GDAUDCRunner--><g class="link" data-entity-1="ent0028" data-entity-2="ent0029" id="lnk30" data-source-line="73" data-link-type="extension"><path d="M1618.256,785.964 C1624.216,825.304 1633.47,886.327 1639.44,925.697" style="stroke:#181818;stroke-width:1;stroke-dasharray:7,7;" fill="none" id="IUDCRunner-backto-GDAUDCRunner"/><polygon points="1615.56,768.167,1612.324,786.863,1624.189,785.065,1615.56,768.167" fill="none" style="stroke:#181818;stroke-width:1;stroke-linejoin:miter;stroke-miterlimit:10;"/></g><!--reverse link IUDCRunner to HyperionUDCRunner--><g class="link" data-entity-1="ent0028" data-entity-2="ent0031" id="lnk32" data-source-line="74" data-link-type="extension"><path d="M1581.767,782.176 C1550.027,821.516 1497.73,886.327 1465.96,925.697" style="stroke:#181818;stroke-width:1;stroke-dasharray:7,7;" fill="none" id="IUDCRunner-backto-HyperionUDCRunner"/><polygon points="1593.07,768.167,1577.098,778.408,1586.437,785.943,1593.07,768.167" fill="none" style="stroke:#181818;stroke-width:1;stroke-linejoin:miter;stroke-miterlimit:10;"/></g><!--link UDCBatonHandler to udcBatonHandlerNote--><g class="link" data-entity-1="ent0027" data-entity-2="ent0033" id="lnk34" data-source-line="81" data-link-type="association"><path d="M1359.05,755.297 C1240.9,771.727 1013.11,806.357 823,852.857 C734,874.627 633.02,908.357 572.48,929.577" style="stroke:#181818;stroke-width:1;stroke-dasharray:7,7;" fill="none" id="UDCBatonHandler-udcBatonHandlerNote" codeLine="81"/></g><!--reverse link ClientInfo to ClientDetails--><g class="link" data-entity-1="ent0045" data-entity-2="ent0048" id="lnk49" data-source-line="126" data-link-type="extension"><path d="M1051.121,426.061 C1045.291,429.581 1054.84,423.607 1049,426.667 C975.71,465.167 948.87,454.537 873,487.667 C862.09,492.437 850.69,498.017 839.84,503.647" style="stroke:#181818;stroke-width:1;" fill="none" id="ClientInfo-backto-ClientDetails"/><polygon points="1066.53,416.757,1048.02,420.924,1054.222,431.197,1066.53,416.757" fill="none" style="stroke:#181818;stroke-width:1;stroke-linejoin:miter;stroke-miterlimit:10;"/></g><!--reverse link IBatonStateProvider to JythonServerFacade--><g class="link" data-entity-1="ent0051" data-entity-2="ent0053" id="lnk54" data-source-line="143" data-link-type="extension"><path d="M1971.067,400.726 C1890.637,430.016 1810.17,459.317 1733.35,487.287" style="stroke:#181818;stroke-width:1;stroke-dasharray:7,7;" fill="none" id="IBatonStateProvider-backto-JythonServerFacade"/><polygon points="1987.98,394.567,1969.014,395.088,1973.12,406.364,1987.98,394.567" fill="none" style="stroke:#181818;stroke-width:1;stroke-linejoin:miter;stroke-miterlimit:10;"/></g><!--reverse link IAuthorisationHolder to JythonServerFacade--><g class="link" data-entity-1="ent0050" data-entity-2="ent0053" id="lnk55" data-source-line="143" data-link-type="extension"><path d="M1602,396.277 C1602,427.807 1602,453.967 1602,487.397" style="stroke:#181818;stroke-width:1;stroke-dasharray:7,7;" fill="none" id="IAuthorisationHolder-backto-JythonServerFacade"/><polygon points="1602,378.277,1596,396.277,1608,396.277,1602,378.277" fill="none" style="stroke:#181818;stroke-width:1;stroke-linejoin:miter;stroke-miterlimit:10;"/></g><!--link ApplicationWorkbenchAdvisor to IBatonStateProvider--><g class="link" data-entity-1="ent0057" data-entity-2="ent0051" id="lnk60" data-source-line="159" data-link-type="dependency"><path d="M2142,145.627 C2142,177.827 2142,231.887 2142,275.817" style="stroke:#181818;stroke-width:1;" fill="none" id="ApplicationWorkbenchAdvisor-to-IBatonStateProvider" codeLine="159"/><polygon points="2142,280.817,2146,271.817,2142,275.817,2138,271.817,2142,280.817" fill="#181818" style="stroke:#181818;stroke-width:1;stroke-linejoin:miter;stroke-miterlimit:10;"/></g><!--reverse link Jython to LocalJython--><g class="link" data-entity-1="ent0044" data-entity-2="ent0011" id="lnk63" data-source-line="162" data-link-type="extension"><path d="M2060,603.057 C2060,645.177 2060,686.677 2060,719.207" style="stroke:#181818;stroke-width:1;" fill="none" id="Jython-backto-LocalJython" codeLine="162"/><polygon points="2060,585.057,2054,603.057,2066,603.057,2060,585.057" fill="none" style="stroke:#181818;stroke-width:1;stroke-linejoin:miter;stroke-miterlimit:10;"/></g><!--link LocalJython to IJythonServerNotifier--><g class="link" data-entity-1="ent0011" data-entity-2="ent0010" id="lnk64" data-source-line="163" data-link-type="extension"><path d="M2003.16,752.617 C1968.3,760.407 1925.43,775.747 1899,805.857 C1871.75,836.897 1865.92,867.826 1864.91,899.716" style="stroke:#181818;stroke-width:1;" fill="none" id="LocalJython-to-IJythonServerNotifier" codeLine="163"/><polygon points="1864.34,917.707,1870.907,899.906,1858.913,899.526,1864.34,917.707" fill="none" style="stroke:#181818;stroke-width:1;stroke-linejoin:miter;stroke-miterlimit:10;"/></g><!--link JythonServerFacade to Jython--><g class="link" data-entity-1="ent0053" data-entity-2="ent0044" id="lnk65" data-source-line="165" data-link-type="aggregation"><path d="M1796.48,536.117 C1807.87,536.117 1802.26,536.117 1813.65,536.117" style="stroke:#181818;stroke-width:1;" fill="none" id="JythonServerFacade-Jython" codeLine="165"/><polygon points="1784.48,536.117,1790.48,540.117,1796.48,536.117,1790.48,532.117,1784.48,536.117" fill="none" style="stroke:#181818;stroke-width:1;stroke-linejoin:miter;stroke-miterlimit:10;"/><polygon points="1818.65,536.117,1809.65,532.117,1813.65,536.117,1809.65,540.117,1818.65,536.117" fill="#181818" style="stroke:#181818;stroke-width:1;stroke-linejoin:miter;stroke-miterlimit:10;"/></g><!--link JythonServer to BatonManager--><g class="link" data-entity-1="ent0012" data-entity-2="ent0006" id="lnk66" data-source-line="166" data-link-type="aggregation"><path d="M2087.478,990.756 C2062.888,1013.096 2035.61,1033.427 1998,1047.527 C1838.1,1107.457 1397.51,1066.517 1232,1108.527 C1226.04,1110.047 1224.783,1110.269 1218.753,1112.149" style="stroke:#181818;stroke-width:1;" fill="none" id="JythonServer-BatonManager" codeLine="166"/><polygon points="2096.36,982.687,2089.229,983.761,2087.478,990.756,2094.609,989.682,2096.36,982.687" fill="none" style="stroke:#181818;stroke-width:1;stroke-linejoin:miter;stroke-miterlimit:10;"/><polygon points="1213.98,1113.637,1223.763,1114.777,1218.753,1112.149,1221.382,1107.139,1213.98,1113.637" fill="#181818" style="stroke:#181818;stroke-width:1;stroke-linejoin:miter;stroke-miterlimit:10;"/></g><!--link JythonServer to Authoriser--><g class="link" data-entity-1="ent0012" data-entity-2="ent0016" id="lnk67" data-source-line="167" data-link-type="dependency"><path d="M2095.35,982.807 C2070.67,1004.737 2034.84,1032.597 1998,1047.527 C1807.69,1124.667 1737.09,1050.877 1540,1108.527 C1518.9,1114.697 1501.598,1121.312 1481.208,1130.502" style="stroke:#181818;stroke-width:1;" fill="none" id="JythonServer-to-Authoriser" codeLine="167"/><polygon points="1476.65,1132.557,1486.499,1132.505,1481.208,1130.502,1483.211,1125.212,1476.65,1132.557" fill="#181818" style="stroke:#181818;stroke-width:1;stroke-linejoin:miter;stroke-miterlimit:10;"/></g><!--link JythonServer to JythonServerThread--><g class="link" data-entity-1="ent0012" data-entity-2="ent0003" id="lnk68" data-source-line="169" data-link-type="dependency"><path d="M2147.04,982.587 C2172.02,1023.787 2213.288,1091.831 2240.488,1136.691" style="stroke:#181818;stroke-width:1;" fill="none" id="JythonServer-to-JythonServerThread" codeLine="169"/><polygon points="2243.08,1140.967,2241.834,1131.197,2240.488,1136.691,2234.993,1135.345,2243.08,1140.967" fill="#181818" style="stroke:#181818;stroke-width:1;stroke-linejoin:miter;stroke-miterlimit:10;"/></g><!--link BatonChanged to UDCBatonHandler--><g class="link" data-entity-1="ent0041" data-entity-2="ent0027" id="lnk69" data-source-line="171" data-link-type="dependency"><path d="M947.44,361.867 C931.98,381.987 907.11,410.287 879,426.667 C785.04,481.457 708.64,401.707 642,487.667 C609.08,530.137 604.17,570.407 642,608.557 C660.9,627.617 1589.1,597.507 1608,616.557 C1613.32,621.927 1613.04,627.927 1608,633.557 C1597.26,645.557 1550.44,634.437 1536,641.557 C1504.15,657.287 1480.057,683.949 1462.667,707.419" style="stroke:#181818;stroke-width:1;" fill="none" id="BatonChanged-to-UDCBatonHandler" codeLine="171"/><polygon points="1459.69,711.437,1468.262,706.587,1462.667,707.419,1461.834,701.824,1459.69,711.437" fill="#181818" style="stroke:#181818;stroke-width:1;stroke-linejoin:miter;stroke-miterlimit:10;"/><text x="643" y="540.684" fill="#000" font-size="13" textLength="51.08">handles</text></g><!--link BatonRequested to UDCBatonHandler--><g class="link" data-entity-1="ent0042" data-entity-2="ent0027" id="lnk70" data-source-line="172" data-link-type="dependency"><path d="M803.27,361.807 C819.63,383.087 846.98,413.197 879,426.667 C975.88,467.427 2696.88,412.157 2770,487.667 C2807.37,526.267 2807.48,570.067 2770,608.557 C2746.08,633.127 1567.36,627.687 1536,641.557 C1503.29,656.027 1479.073,683.173 1461.903,707.123" style="stroke:#181818;stroke-width:1;" fill="none" id="BatonRequested-to-UDCBatonHandler" codeLine="172"/><polygon points="1458.99,711.187,1467.485,706.203,1461.903,707.123,1460.983,701.542,1458.99,711.187" fill="#181818" style="stroke:#181818;stroke-width:1;stroke-linejoin:miter;stroke-miterlimit:10;"/><text x="2799" y="540.684" fill="#000" font-size="13" textLength="51.08">handles</text></g><!--link UDCCompleteEvent to UDCBatonHandler--><g class="link" data-entity-1="ent0039" data-entity-2="ent0027" id="lnk71" data-source-line="173" data-link-type="dependency"><path d="M1801.88,719.547 C1786.73,696.257 1760.28,662.497 1727,647.997 C1649.18,614.097 1614.54,615.777 1536,647.997 C1504.92,660.757 1481.542,684.854 1464.152,707.304" style="stroke:#181818;stroke-width:1;" fill="none" id="UDCCompleteEvent-to-UDCBatonHandler" codeLine="173"/><polygon points="1461.09,711.257,1469.764,706.591,1464.152,707.304,1463.439,701.692,1461.09,711.257" fill="#181818" style="stroke:#181818;stroke-width:1;stroke-linejoin:miter;stroke-miterlimit:10;"/><text x="1554.5" y="629.624" fill="#000" font-size="13" textLength="51.08">handles</text></g><!--link UDCBatonHandler to JythonServerFacade--><g class="link" data-entity-1="ent0027" data-entity-2="ent0053" id="lnk72" data-source-line="175" data-link-type="dependency"><path d="M1463.87,711.337 C1490.52,677.727 1530.023,627.895 1560.883,588.975" style="stroke:#181818;stroke-width:1;" fill="none" id="UDCBatonHandler-to-JythonServerFacade" codeLine="175"/><polygon points="1563.99,585.057,1555.264,589.624,1560.883,588.975,1561.533,594.594,1563.99,585.057" fill="#181818" style="stroke:#181818;stroke-width:1;stroke-linejoin:miter;stroke-miterlimit:10;"/></g><!--link UDCBatonHandler to IUDCRunner--><g class="link" data-entity-1="ent0027" data-entity-2="ent0028" id="lnk73" data-source-line="176" data-link-type="aggregation"><path d="M1530.74,743.707 C1542.16,743.707 1536.57,743.707 1547.99,743.707" style="stroke:#181818;stroke-width:1;" fill="none" id="UDCBatonHandler-IUDCRunner" codeLine="176"/><polygon points="1518.74,743.707,1524.74,747.707,1530.74,743.707,1524.74,739.707,1518.74,743.707" fill="none" style="stroke:#181818;stroke-width:1;stroke-linejoin:miter;stroke-miterlimit:10;"/><polygon points="1552.99,743.707,1543.99,739.707,1547.99,743.707,1543.99,747.707,1552.99,743.707" fill="#181818" style="stroke:#181818;stroke-width:1;stroke-linejoin:miter;stroke-miterlimit:10;"/></g><!--reverse link BatonChanged to BatonManager--><g class="link" data-entity-1="ent0041" data-entity-2="ent0006" id="lnk75" data-source-line="177" data-link-type="dependency"><path d="M945.496,365.851 C930.356,386.531 908.34,411.657 879,426.667 C738.47,498.557 177,377.267 177,535.117 C177,535.117 177,535.117 177,951.197 C177,996.897 177.56,1018.667 213,1047.527 C319.67,1134.407 710.78,1164.967 925.86,1175.347" style="stroke:#181818;stroke-width:1;" fill="none" id="BatonChanged-backto-BatonManager" codeLine="177"/><polygon points="948.45,361.817,939.906,366.716,945.496,365.851,946.361,371.442,948.45,361.817" fill="#181818" style="stroke:#181818;stroke-width:1;stroke-linejoin:miter;stroke-miterlimit:10;"/><text x="178" y="748.274" fill="#000" font-size="13" textLength="28.304">fires</text></g><!--reverse link BatonRequested to BatonManager--><g class="link" data-entity-1="ent0042" data-entity-2="ent0006" id="lnk77" data-source-line="178" data-link-type="dependency"><path d="M707.476,341.665 C512.256,351.355 6,390.307 6,535.117 C6,535.117 6,535.117 6,951.197 C6,1137.137 634.88,1172.657 925.67,1179.147" style="stroke:#181818;stroke-width:1;" fill="none" id="BatonRequested-backto-BatonManager" codeLine="178"/><polygon points="712.47,341.417,703.283,337.868,707.476,341.665,703.679,345.858,712.47,341.417" fill="#181818" style="stroke:#181818;stroke-width:1;stroke-linejoin:miter;stroke-miterlimit:10;"/><text x="7" y="748.274" fill="#000" font-size="13" textLength="28.304">fires</text></g><!--reverse link BatonLeaseRenewRequest to BatonManager--><g class="link" data-entity-1="ent0043" data-entity-2="ent0006" id="lnk79" data-source-line="179" data-link-type="dependency"><path d="M2743.45,363.398 C2826.25,390.028 2928,441.037 2928,535.117 C2928,535.117 2928,535.117 2928,951.197 C2928,1117.247 2731.11,1022.187 2567,1047.527 C2493.63,1058.857 1304.26,1091.487 1232,1108.527 C1226.16,1109.907 1220.27,1111.487 1214.37,1113.247" style="stroke:#181818;stroke-width:1;" fill="none" id="BatonLeaseRenewRequest-backto-BatonManager" codeLine="179"/><polygon points="2738.69,361.867,2746.033,368.43,2743.45,363.398,2748.482,360.815,2738.69,361.867" fill="#181818" style="stroke:#181818;stroke-width:1;stroke-linejoin:miter;stroke-miterlimit:10;"/><text x="2929" y="748.274" fill="#000" font-size="13" textLength="28.304">fires</text></g><!--link GDAUDCRunner to UDCCompleteEvent--><g class="link" data-entity-1="ent0029" data-entity-2="ent0039" id="lnk80" data-source-line="180" data-link-type="dependency"><path d="M1655.1,925.917 C1667.92,903.637 1690.29,870.827 1719,852.857 C1771.84,819.787 1816.92,871.417 1856,822.857 C1869.38,806.237 1859.505,788.133 1844.785,771.783" style="stroke:#181818;stroke-width:1;" fill="none" id="GDAUDCRunner-to-UDCCompleteEvent" codeLine="180"/><polygon points="1841.44,768.067,1844.489,777.432,1844.785,771.783,1850.435,772.079,1841.44,768.067" fill="#181818" style="stroke:#181818;stroke-width:1;stroke-linejoin:miter;stroke-miterlimit:10;"/><text x="1863" y="818.924" fill="#000" font-size="13" textLength="28.304">fires</text></g><!--link UDCCompleteEvent to GDAUDCRunner--><g class="link" data-entity-1="ent0039" data-entity-2="ent0029" id="lnk82" data-source-line="183" data-link-type="dependency"><path d="M1794.37,767.957 C1774.42,789.607 1744.17,822.947 1719,852.857 C1698.43,877.307 1678.916,902.212 1663.766,921.932" style="stroke:#181818;stroke-width:1;" fill="none" id="UDCCompleteEvent-to-GDAUDCRunner" codeLine="183"/><polygon points="1660.72,925.897,1669.375,921.197,1663.766,921.932,1663.031,916.323,1660.72,925.897" fill="#181818" style="stroke:#181818;stroke-width:1;stroke-linejoin:miter;stroke-miterlimit:10;"/><text x="1760" y="818.924" fill="#000" font-size="13" textLength="51.08">handles</text></g><!--link BatonManager to ClientInfo--><g class="link" data-entity-1="ent0006" data-entity-2="ent0045" id="lnk81" data-source-line="181" data-link-type="composition"><path d="M913.813,1173.934 C668.483,1162.404 203.23,1133.667 151,1078.527 C113.68,1039.127 105.94,732.717 134,641.557 C256.88,242.317 661.94,583.787 1049,426.667 C1054.87,424.287 1056.272,423.86 1062.052,420.86" style="stroke:#181818;stroke-width:1;" fill="none" id="BatonManager-ClientInfo" codeLine="181"/><polygon points="925.8,1174.497,919.994,1170.22,913.813,1173.934,919.619,1178.211,925.8,1174.497" fill="#181818" style="stroke:#181818;stroke-width:1;stroke-linejoin:miter;stroke-miterlimit:10;"/><polygon points="1066.49,418.557,1056.659,419.153,1062.052,420.86,1060.345,426.253,1066.49,418.557" fill="#181818" style="stroke:#181818;stroke-width:1;stroke-linejoin:miter;stroke-miterlimit:10;"/></g><!--link HyperionUDCRunner to UDCCompleteEvent--><g class="link" data-entity-1="ent0031" data-entity-2="ent0039" id="lnk83" data-source-line="184" data-link-type="dependency"><path d="M1467.88,926.067 C1488.02,904.827 1520.21,873.587 1553,852.857 C1587.22,831.217 1680.846,794.666 1747.086,769.936" style="stroke:#181818;stroke-width:1;" fill="none" id="HyperionUDCRunner-to-UDCCompleteEvent" codeLine="184"/><polygon points="1751.77,768.187,1741.939,767.587,1747.086,769.936,1744.737,775.082,1751.77,768.187" fill="#181818" style="stroke:#181818;stroke-width:1;stroke-linejoin:miter;stroke-miterlimit:10;"/><text x="1656" y="818.924" fill="#000" font-size="13" textLength="28.304">fires</text></g><!--link DeviceInterceptor to Device--><g class="link" data-entity-1="ent0036" data-entity-2="ent0035" id="lnk84" data-source-line="186" data-link-type="dependency"><path d="M2471.51,974.437 C2472.41,1015.867 2474.191,1097.498 2475.211,1144.118" style="stroke:#181818;stroke-width:1;" fill="none" id="DeviceInterceptor-to-Device" codeLine="186"/><polygon points="2475.32,1149.117,2479.122,1140.032,2475.211,1144.118,2471.124,1140.207,2475.32,1149.117" fill="#181818" style="stroke:#181818;stroke-width:1;stroke-linejoin:miter;stroke-miterlimit:10;"/></g><!--link DeviceInterceptor to JythonServerThread--><g class="link" data-entity-1="ent0036" data-entity-2="ent0003" id="lnk85" data-source-line="187" data-link-type="dependency"><path d="M2450.32,974.437 C2415.57,1013.477 2348.434,1088.912 2305.704,1136.932" style="stroke:#181818;stroke-width:1;" fill="none" id="DeviceInterceptor-to-JythonServerThread" codeLine="187"/><polygon points="2302.38,1140.667,2311.351,1136.602,2305.704,1136.932,2305.375,1131.284,2302.38,1140.667" fill="#181818" style="stroke:#181818;stroke-width:1;stroke-linejoin:miter;stroke-miterlimit:10;"/></g><!--reverse link IJythonServerNotifier to BatonManager--><g class="link" data-entity-1="ent0010" data-entity-2="ent0006" id="lnk87" data-source-line="189" data-link-type="dependency"><path d="M1827.705,985.944 C1802.195,1007.964 1768.9,1032.727 1731,1047.527 C1678.97,1067.857 1285.84,1093.647 1232,1108.527 C1226.07,1110.167 1220.07,1111.987 1214.07,1113.957" style="stroke:#181818;stroke-width:1;" fill="none" id="IJythonServerNotifier-backto-BatonManager" codeLine="189"/><polygon points="1831.49,982.677,1822.063,985.53,1827.705,985.944,1827.291,991.586,1831.49,982.677" fill="#181818" style="stroke:#181818;stroke-width:1;stroke-linejoin:miter;stroke-miterlimit:10;"/></g><?plantuml-src dLXPRnit47xVNq7q9N8XwGS8hG75pg70EM37w4CS5FJkhCHuHIeaLxQGwhztXjo3tCDowmT3udmyPhuvPOKjWBsxNBBNt2h9FdB9rx05QPDanzC7_C9kGEz1iry9mx-quCQmhniDF0iMFXpiHacFz486JnPaLcEhxVJ7IyHgORWLIbx17ee54tXXBSVFR0rssODDpXpcs22J2WuwvocmbTF1gw232oyAWGfTWkMYC7IqNrZ9NEcjEtuosHu-tBnTPRWiSW7whDbyhrG1N38DFqimrbqnAQN0RqFmlH8POcsffOUUmgBrnBh2TXunHTqoUFgSNqCAOXyiVC5TGuyKnXtq7efiqfVohRVGUrLaeCTL9W8Wpo6rU6cVXizverDNbonxorEUGGEW5-Tg4LFGizPMxQ6pCQGwyBE8OR7T5SvNpIZrfG7ls7yogqi8rwzVBo-woxdGflAEh_m1pE3U-zQ62tPZjP3hzW2dnIU-1RF0ODhzuULJrhhSUGD6KWpuWpheAoNNvrqBI6M1_VQ6fniq1ft6DjmmNjt995xA-0DdjGdTbnycRoc-aryte07T1BTTqUtNa6imkCZiXbks0orK9b9U50TcNFXoR_CABU7nsWV2dRIA8QvwYvaoBWy-67bAli8UXTtWiH2JLgS54ZW3pE_adVmilUrhpJIiXR7QEHtwK3x232f2rD1X-CNYbKLn9z5HogrRz5pHVXGY64teberFQKep2elIAam3a5MNpt_3eFGxgqT_GiidZeD8bVby0DNDIM5cH8JZ8N1G5m6IrWyUCp6gr2bCMSOjFsl8FtRElL98aZzx90s7uH6WWxl3noyYrQeh0xUBJlRieDUYTrI43PEz5-YUIZzodQ5VCvK7AUBCUUD0DI2YCi3Zjq8YAVS7fEE1jjFnTJe2xLZw4LktOYbwBBBKGuqKaFRmm4hZvGYJYAQeE-jYBo7dPM6_a0gOtfKqGrZZMBcnFCzRSOVmWDktee3WWG6xxMf0s3kmFiXsxIjOhjMMSf_-ErYTFsqBPymykg4nLETYjES8qB_pAkEx05x7UtnAWBz1QWluZzf5RB0juBUixpVhZC_NfPWlqv-bC8AmxsvNyyZbFhgzJd_ULydzYvMFKGxaK5OXyvl8TRo2jvSNlknocHMHdFvqAIM5tmfXr-vp8pw6VbNdapxCtu8zN2EAAkFOXlS7b-tbItP5gU02-paBthaGLfKsiZVL3GfKDCIjv9Q8XyoBww1dMKabZgLAvc9T-WoF9Q1xQFKadgRAvmwiDYGZIhTFyp9BvvjAWJb8VezTx4uhNB07dxyH4LgzORJB1Z8w10qSz1Bs0YtVqeONMKW7kjTZRzUAY4jXPrNelJsPgyZIqroje5kR7QHOBzBAlmtbJx_LbKGoHrfgJSQthic-awuZa4D9zHuAzUWJGlnyEfMMi-faD0BMTZgRgZi-R4lTXSiSLGKXOHLo3eENgqSCr3G5Oov12iZUF94QH8uZmv_TS51P54tV4NJ-DV5peSWrBRpPGsNgvDWEA2ZTDeLjD0mTnHSRBjUG3OcglcPOs6j_mh1eexDVOlz7wzsMoAXvcxADCfQAn9JLvMBAyh8eFhbFUyfmOKi-FXGSG_TkEzEewE6S4OzbTESgwtUyrGDwWlgrFS6f-SyhSjdRDw1OrJ8DwRoikxfRqo2EGGpMcydVkt36DNHAYHriLPnpfuq16pyER8fEFW3esR-UJkjosMS5GzlnkAYL77R1LLGQlR-zg9ivEurPskkWBv_qPhJkA8wzZOKlMkr5_8YHg7ZfF5lFcc54VxxtFVr4LHywy0meVxnWH-WZFgDH3WJwhI15Ln0-_LLTB_Mtb08DbQUkDiuvHDyGtVeITgi-yFkJRNJ0z1J9AIP4T6j_v885Oy9pyVNBu2KYFGuzw9cANbajpCVUEFGUh-5ojojmgAIt_gNqmpt8TBFCy1rHLNm6XHE7-mN4j2D6BoExGCOaDMWoDwrgGhU3PzYn37B7nn_aE4ILNrL9P5RkPkTL8KfULGK95xzjH8OP_3i9dLMIvxISpxz9fRby-7xoRWgvvuwQpJBrAC-7R94aGz69UMhCLyFfaHJzvxnsgKX2wuFZRf8CU9IQDQT4ungkHvDe99pXfc0Uw0lxlqCcIHZq3jHj0HUOM-cJIU96u0IusvUSW2TTqQmck_DkRw0Ud0mMjENHdEtTBr9qGJ-Pr2eDu5ejJo7xaLRlY6QEK9sUQGRl-3tSqXQyPDYoqMMjMVjZpEov1oJztflmVdL4EEfKiR46VVzV?></g></svg>