<svg xmlns="http://www.w3.org/2000/svg" xmlns:xlink="http://www.w3.org/1999/xlink" version="1.1" data-diagram-type="CLASS" style="width:1083px;height:377px;background:#FFFFFF;" width="1083px" height="377px" viewBox="0 0 1083 377" zoomAndPan="magnify" preserveAspectRatio="none" contentStyleType="text/css"><?plantuml 1.2026.7beta8?><defs/><g font-family="sans-serif" lengthAdjust="spacing"><g class="title" data-source-line="3"><text x="432.187" y="22.995" fill="#000" font-size="14" textLength="212.495" font-weight="700">Hyperion Parameter Model</text></g><!--cluster mx_bluesky.common.parameters--><g class="cluster" data-qualified-name="mx_bluesky.common.parameters" id="ent0001" data-source-line="6"><path d="M201.37,43.297 L462.683,43.297 A3.75,3.75 0 0 1 465.183,45.797 L472.183,65.594 L1066.37,65.594 A2.5,2.5 0 0 1 1068.87,68.094 L1068.87,204.687 A2.5,2.5 0 0 1 1066.37,207.187 L201.37,207.187 A2.5,2.5 0 0 1 198.87,204.687 L198.87,45.797 A2.5,2.5 0 0 1 201.37,43.297" style="stroke:#000;stroke-width:1.5;" fill="none"/><line x1="198.87" y1="65.594" x2="472.183" y2="65.594" style="stroke:#000;stroke-width:1.5;"/><text x="202.87" y="58.292" fill="#000" font-size="14" textLength="260.313" font-weight="700">mx_bluesky.common.parameters</text></g><!--cluster mx_bluesky.hyperion.parameters--><g class="cluster" data-qualified-name="mx_bluesky.hyperion.parameters" id="ent0005" data-source-line="25"><path d="M185.37,231.187 L449.902,231.187 A3.75,3.75 0 0 1 452.402,233.687 L459.402,253.484 L550.37,253.484 A2.5,2.5 0 0 1 552.87,255.984 L552.87,360.277 A2.5,2.5 0 0 1 550.37,362.777 L185.37,362.777 A2.5,2.5 0 0 1 182.87,360.277 L182.87,233.687 A2.5,2.5 0 0 1 185.37,231.187" style="stroke:#000;stroke-width:1.5;" fill="none"/><line x1="182.87" y1="253.484" x2="459.402" y2="253.484" style="stroke:#000;stroke-width:1.5;"/><text x="186.87" y="246.182" fill="#000" font-size="14" textLength="263.532" font-weight="700">mx_bluesky.hyperion.parameters</text></g><!--class WithVisit--><g class="entity" data-qualified-name="mx_bluesky.common.parameters.WithVisit" id="ent0002" data-source-line="8"><rect x="222.99" y="86.297" width="257.752" height="96.891" fill="#F1F1F1" style="stroke:#181818;stroke-width:0.5;" rx="2.5" ry="2.5"/><ellipse cx="316.499" cy="102.297" rx="11" ry="11" fill="#ADD1B2" style="stroke:#181818;stroke-width:1;"/><path d="M319.468,107.938 Q318.889,108.234 318.249,108.375 Q317.608,108.531 316.905,108.531 Q314.405,108.531 313.077,106.891 Q311.764,105.234 311.764,102.109 Q311.764,98.984 313.077,97.328 Q314.405,95.672 316.905,95.672 Q317.608,95.672 318.249,95.828 Q318.905,95.984 319.468,96.281 L319.468,99 Q318.843,98.422 318.249,98.156 Q317.655,97.875 317.03,97.875 Q315.686,97.875 314.999,98.953 Q314.311,100.016 314.311,102.109 Q314.311,104.203 314.999,105.281 Q315.686,106.344 317.03,106.344 Q317.655,106.344 318.249,106.078 Q318.843,105.797 319.468,105.219 L319.468,107.938 Z " fill="#000"/><text x="336.999" y="107.144" fill="#000" font-size="14" textLength="62.234">WithVisit</text><line x1="223.99" y1="118.297" x2="479.742" y2="118.297" style="stroke:#181818;stroke-width:0.5;"/><text x="228.99" y="135.292" fill="#000" font-size="14" textLength="87.972">str beamline</text><text x="228.99" y="151.589" fill="#000" font-size="14" textLength="51.837">str visit</text><text x="228.99" y="167.886" fill="#000" font-size="14" textLength="245.752">float | None detector_distance_mm</text><line x1="223.99" y1="175.188" x2="479.742" y2="175.188" style="stroke:#181818;stroke-width:0.5;"/></g><!--class WithSample--><g class="entity" data-qualified-name="mx_bluesky.common.parameters.WithSample" id="ent0003" data-source-line="13"><rect x="515.71" y="86.297" width="176.309" height="96.891" fill="#F1F1F1" style="stroke:#181818;stroke-width:0.5;" rx="2.5" ry="2.5"/><ellipse cx="557.584" cy="102.297" rx="11" ry="11" fill="#ADD1B2" style="stroke:#181818;stroke-width:1;"/><path d="M560.553,107.938 Q559.975,108.234 559.334,108.375 Q558.694,108.531 557.991,108.531 Q555.491,108.531 554.162,106.891 Q552.85,105.234 552.85,102.109 Q552.85,98.984 554.162,97.328 Q555.491,95.672 557.991,95.672 Q558.694,95.672 559.334,95.828 Q559.991,95.984 560.553,96.281 L560.553,99 Q559.928,98.422 559.334,98.156 Q558.741,97.875 558.116,97.875 Q556.772,97.875 556.084,98.953 Q555.397,100.016 555.397,102.109 Q555.397,104.203 556.084,105.281 Q556.772,106.344 558.116,106.344 Q558.741,106.344 559.334,106.078 Q559.928,105.797 560.553,105.219 L560.553,107.938 Z " fill="#000"/><text x="577.556" y="107.144" fill="#000" font-size="14" textLength="84.588">WithSample</text><line x1="516.71" y1="118.297" x2="691.019" y2="118.297" style="stroke:#181818;stroke-width:0.5;"/><text x="521.71" y="135.292" fill="#000" font-size="14" textLength="93.379">int sample_id</text><text x="521.71" y="151.589" fill="#000" font-size="14" textLength="164.309">int | None sample_puck</text><text x="521.71" y="167.886" fill="#000" font-size="14" textLength="152.394">int | None sample_pin</text><line x1="516.71" y1="175.188" x2="691.019" y2="175.188" style="stroke:#181818;stroke-width:0.5;"/></g><!--class MxBlueskyParameters--><g class="entity" data-qualified-name="mx_bluesky.common.parameters.MxBlueskyParameters" id="ent0004" data-source-line="20"><rect x="727.13" y="102.587" width="317.464" height="64.297" fill="#F1F1F1" style="stroke:#181818;stroke-width:0.5;" rx="2.5" ry="2.5"/><ellipse cx="803.716" cy="118.587" rx="11" ry="11" fill="#ADD1B2" style="stroke:#181818;stroke-width:1;"/><path d="M806.685,124.228 Q806.107,124.524 805.466,124.665 Q804.826,124.821 804.123,124.821 Q801.623,124.821 800.295,123.181 Q798.982,121.524 798.982,118.399 Q798.982,115.274 800.295,113.618 Q801.623,111.962 804.123,111.962 Q804.826,111.962 805.466,112.118 Q806.123,112.274 806.685,112.571 L806.685,115.29 Q806.06,114.712 805.466,114.446 Q804.873,114.165 804.248,114.165 Q802.904,114.165 802.216,115.243 Q801.529,116.306 801.529,118.399 Q801.529,120.493 802.216,121.571 Q802.904,122.634 804.248,122.634 Q804.873,122.634 805.466,122.368 Q806.06,122.087 806.685,121.509 L806.685,124.228 Z " fill="#000"/><text x="824.216" y="123.434" fill="#000" font-size="14" textLength="155.791">MxBlueskyParameters</text><line x1="728.13" y1="134.587" x2="1043.594" y2="134.587" style="stroke:#181818;stroke-width:0.5;"/><text x="733.13" y="151.582" fill="#000" font-size="14" textLength="305.464">SemanticVersion parameter_model_version</text><line x1="728.13" y1="158.884" x2="1043.594" y2="158.884" style="stroke:#181818;stroke-width:0.5;"/></g><!--class LoadCentreCollect--><g class="entity" data-qualified-name="mx_bluesky.hyperion.parameters.LoadCentreCollect" id="ent0006" data-source-line="26"><rect x="198.56" y="266.187" width="338.621" height="80.594" fill="#F1F1F1" style="stroke:#181818;stroke-width:0.5;" rx="2.5" ry="2.5"/><ellipse cx="299.185" cy="282.187" rx="11" ry="11" fill="#ADD1B2" style="stroke:#181818;stroke-width:1;"/><path d="M302.154,287.828 Q301.576,288.124 300.935,288.265 Q300.294,288.421 299.591,288.421 Q297.091,288.421 295.763,286.781 Q294.451,285.124 294.451,281.999 Q294.451,278.874 295.763,277.218 Q297.091,275.562 299.591,275.562 Q300.294,275.562 300.935,275.718 Q301.591,275.874 302.154,276.171 L302.154,278.89 Q301.529,278.312 300.935,278.046 Q300.341,277.765 299.716,277.765 Q298.373,277.765 297.685,278.843 Q296.998,279.906 296.998,281.999 Q296.998,284.093 297.685,285.171 Q298.373,286.234 299.716,286.234 Q300.341,286.234 300.935,285.968 Q301.529,285.687 302.154,285.109 L302.154,287.828 Z " fill="#000"/><text x="319.685" y="287.034" fill="#000" font-size="14" textLength="128.871">LoadCentreCollect</text><line x1="199.56" y1="298.187" x2="536.181" y2="298.187" style="stroke:#181818;stroke-width:0.5;"/><text x="204.56" y="315.182" fill="#000" font-size="14" textLength="326.621">RobotLoadThenCentre robot_load_then_centre</text><text x="204.56" y="331.479" fill="#000" font-size="14" textLength="235.095">RotationScan multi_rotation_scan</text><line x1="199.56" y1="338.781" x2="536.181" y2="338.781" style="stroke:#181818;stroke-width:0.5;"/></g><!--class WithCentreSelection--><g class="entity" data-qualified-name="WithCentreSelection" id="ent0010" data-source-line="34"><rect x="7" y="110.737" width="175.732" height="48" fill="#F1F1F1" style="stroke:#181818;stroke-width:0.5;" rx="2.5" ry="2.5"/><ellipse cx="22" cy="126.737" rx="11" ry="11" fill="#ADD1B2" style="stroke:#181818;stroke-width:1;"/><path d="M24.969,132.378 Q24.391,132.674 23.75,132.815 Q23.109,132.971 22.406,132.971 Q19.906,132.971 18.578,131.331 Q17.266,129.674 17.266,126.549 Q17.266,123.424 18.578,121.768 Q19.906,120.112 22.406,120.112 Q23.109,120.112 23.75,120.268 Q24.406,120.424 24.969,120.721 L24.969,123.44 Q24.344,122.862 23.75,122.596 Q23.156,122.315 22.531,122.315 Q21.188,122.315 20.5,123.393 Q19.813,124.456 19.813,126.549 Q19.813,128.643 20.5,129.721 Q21.188,130.784 22.531,130.784 Q23.156,130.784 23.75,130.518 Q24.344,130.237 24.969,129.659 L24.969,132.378 Z " fill="#000"/><text x="36" y="131.584" fill="#000" font-size="14" textLength="143.732">WithCentreSelection</text><line x1="8" y1="142.737" x2="181.732" y2="142.737" style="stroke:#181818;stroke-width:0.5;"/><line x1="8" y1="150.737" x2="181.732" y2="150.737" style="stroke:#181818;stroke-width:0.5;"/></g><!--reverse link MxBlueskyParameters to LoadCentreCollect--><g class="link" data-entity-1="ent0004" data-entity-2="ent0006" id="lnk7" data-source-line="31" data-link-type="extension"><path d="M805.489,174.993 C772.059,190.703 746.47,201.537 707.87,215.187 C653.31,234.467 592.56,251.847 537.67,266.087" style="stroke:#181818;stroke-width:1;" fill="none" id="MxBlueskyParameters-backto-LoadCentreCollect" codeLine="31"/><polygon points="821.78,167.337,802.937,169.562,808.041,180.423,821.78,167.337" fill="none" style="stroke:#181818;stroke-width:1;stroke-linejoin:miter;stroke-miterlimit:10;"/></g><!--reverse link WithVisit to LoadCentreCollect--><g class="link" data-entity-1="ent0002" data-entity-2="ent0006" id="lnk8" data-source-line="32" data-link-type="extension"><path d="M358.06,201.397 C360.51,227.377 361.81,241.227 364.13,265.837" style="stroke:#181818;stroke-width:1;" fill="none" id="WithVisit-backto-LoadCentreCollect" codeLine="32"/><polygon points="356.37,183.477,352.086,201.961,364.033,200.834,356.37,183.477" fill="none" style="stroke:#181818;stroke-width:1;stroke-linejoin:miter;stroke-miterlimit:10;"/></g><!--reverse link WithSample to LoadCentreCollect--><g class="link" data-entity-1="ent0003" data-entity-2="ent0006" id="lnk9" data-source-line="33" data-link-type="extension"><path d="M526.378,194.357 C512.318,204.857 511.85,205.087 497.87,215.187 C474.58,231.987 448.64,250.117 426.1,265.697" style="stroke:#181818;stroke-width:1;" fill="none" id="WithSample-backto-LoadCentreCollect" codeLine="33"/><polygon points="540.8,183.587,522.788,189.55,529.968,199.165,540.8,183.587" fill="none" style="stroke:#181818;stroke-width:1;stroke-linejoin:miter;stroke-miterlimit:10;"/></g><!--reverse link WithCentreSelection to LoadCentreCollect--><g class="link" data-entity-1="ent0010" data-entity-2="ent0006" id="lnk11" data-source-line="34" data-link-type="extension"><path d="M140.123,169.585 C162.293,185.945 178.66,197.337 206.87,215.187 C234.49,232.657 265.66,250.547 293.17,265.737" style="stroke:#181818;stroke-width:1;" fill="none" id="WithCentreSelection-backto-LoadCentreCollect" codeLine="34"/><polygon points="125.64,158.897,136.561,174.413,143.686,164.757,125.64,158.897" fill="none" style="stroke:#181818;stroke-width:1;stroke-linejoin:miter;stroke-miterlimit:10;"/></g><?plantuml-src VP7FRi8m3CRFv2bysmcUOATnsM5CquhOCKfJGoFoJucBg81tdzCMj0d4gVBFxlVPNrxMhScmDHQ1lwgZCD-XnwG86wXxk1OoMkMfStOHUo784F_mtaTC9dZuKaav94om2WrQaP70CybHQQmmSfj20Xyy2i5ihtO8xYXhss7UzmiTd0j-4Qyo6Kw2mWwfPScJq5Rb33-6set9XavYbYb1ZSfPmuf3TIWTCTlQe0ZEyCbMqB2MPcFPc4pAQvJEYSiVkKgvQ97rZ2V8Go5DCvQJnaHZf_SFkV6iUBdVTdLy6u-xPPFPfqB7AHgzuR84TxjOkXASF8nyaBmyIggT8l-VrMZv4LIpH4y9by5QlfmDlqCTg3JMBVgn2QamoK4rabVsKW-up98Yrgwqyk0wIqQc2SdCRDZfmLtmUfxFxzt5xS6U3OnFy6nY91KMK39xFFeB?></g></svg>