<svg xmlns="http://www.w3.org/2000/svg" xmlns:xlink="http://www.w3.org/1999/xlink" version="1.1" data-diagram-type="SEQUENCE" style="width:778px;height:540px;background:#FFFFFF;" width="778px" height="540px" viewBox="0 0 778 540" zoomAndPan="magnify" preserveAspectRatio="none" contentStyleType="text/css"><?plantuml 1.2026.7beta8?><defs/><g font-family="sans-serif" lengthAdjust="spacing"><rect x="325.799" y="11" width="428.01" height="514.32" fill="#DDD" style="stroke:#181818;stroke-width:0.5;"/><text x="461.566" y="23.067" fill="#000" font-size="13" textLength="156.476" font-weight="700">Opyhd Async Devices</text><g><title>BlueSky RunEngine</title><rect x="81.583" y="77.727" width="8" height="287.195" fill="#000" fill-opacity="0"/><line x1="85.083" y1="77.727" x2="85.083" y2="364.922" style="stroke:#181818;stroke-width:0.5;stroke-dasharray:5,5;"/></g><line x1="85.083" y1="364.922" x2="85.083" y2="405.727" style="stroke:#181818;stroke-width:0.5;stroke-dasharray:1,4;"/><g><title>BlueSky RunEngine</title><rect x="81.583" y="405.727" width="8" height="66" fill="#000" fill-opacity="0"/><line x1="85.083" y1="405.727" x2="85.083" y2="471.727" style="stroke:#181818;stroke-width:0.5;stroke-dasharray:5,5;"/></g><g><title></title><rect x="80.083" y="150.992" width="10" height="213.93" fill="#FFF" style="stroke:#FFF;stroke-width:1;"/><line x1="80.083" y1="150.992" x2="80.083" y2="364.922" style="stroke:#181818;stroke-width:1;"/><line x1="90.083" y1="150.992" x2="90.083" y2="364.922" style="stroke:#181818;stroke-width:1;"/><line x1="80.083" y1="150.992" x2="90.083" y2="150.992" style="stroke:#181818;stroke-width:1;"/></g><g><title></title><rect x="80.083" y="405.727" width="10" height="34" fill="#FFF" style="stroke:#FFF;stroke-width:1;"/><line x1="80.083" y1="405.727" x2="80.083" y2="439.727" style="stroke:#181818;stroke-width:1;"/><line x1="90.083" y1="405.727" x2="90.083" y2="439.727" style="stroke:#181818;stroke-width:1;"/><line x1="80.083" y1="439.727" x2="90.083" y2="439.727" style="stroke:#181818;stroke-width:1;"/></g><g><title>Undulator</title><rect x="367.878" y="77.727" width="8" height="287.195" fill="#000" fill-opacity="0"/><line x1="371.378" y1="77.727" x2="371.378" y2="364.922" style="stroke:#181818;stroke-width:0.5;stroke-dasharray:5,5;"/></g><line x1="371.378" y1="364.922" x2="371.378" y2="405.727" style="stroke:#181818;stroke-width:0.5;stroke-dasharray:1,4;"/><g><title>Undulator</title><rect x="367.878" y="405.727" width="8" height="66" fill="#000" fill-opacity="0"/><line x1="371.378" y1="405.727" x2="371.378" y2="471.727" style="stroke:#181818;stroke-width:0.5;stroke-dasharray:5,5;"/></g><g><title></title><rect x="366.378" y="209.258" width="10" height="155.664" fill="#FFF" style="stroke:#FFF;stroke-width:1;"/><line x1="366.378" y1="209.258" x2="366.378" y2="364.922" style="stroke:#181818;stroke-width:1;"/><line x1="376.378" y1="209.258" x2="376.378" y2="364.922" style="stroke:#181818;stroke-width:1;"/><line x1="366.378" y1="209.258" x2="376.378" y2="209.258" style="stroke:#181818;stroke-width:1;"/></g><g><title></title><rect x="366.378" y="405.727" width="10" height="34" fill="#FFF" style="stroke:#FFF;stroke-width:1;"/><line x1="366.378" y1="405.727" x2="366.378" y2="439.727" style="stroke:#181818;stroke-width:1;"/><line x1="376.378" y1="405.727" x2="376.378" y2="439.727" style="stroke:#181818;stroke-width:1;"/><line x1="366.378" y1="439.727" x2="376.378" y2="439.727" style="stroke:#181818;stroke-width:1;"/></g><g><title>DCM</title><rect x="442.775" y="77.727" width="8" height="287.195" fill="#000" fill-opacity="0"/><line x1="446.275" y1="77.727" x2="446.275" y2="364.922" style="stroke:#181818;stroke-width:0.5;stroke-dasharray:5,5;"/></g><line x1="446.275" y1="364.922" x2="446.275" y2="405.727" style="stroke:#181818;stroke-width:0.5;stroke-dasharray:1,4;"/><g><title>DCM</title><rect x="442.775" y="405.727" width="8" height="66" fill="#000" fill-opacity="0"/><line x1="446.275" y1="405.727" x2="446.275" y2="471.727" style="stroke:#181818;stroke-width:0.5;stroke-dasharray:5,5;"/></g><g><title></title><rect x="441.275" y="238.391" width="10" height="126.531" fill="#FFF" style="stroke:#FFF;stroke-width:1;"/><line x1="441.275" y1="238.391" x2="441.275" y2="364.922" style="stroke:#181818;stroke-width:1;"/><line x1="451.275" y1="238.391" x2="451.275" y2="364.922" style="stroke:#181818;stroke-width:1;"/><line x1="441.275" y1="238.391" x2="451.275" y2="238.391" style="stroke:#181818;stroke-width:1;"/></g><g><title></title><rect x="441.275" y="405.727" width="10" height="42" fill="#FFF" style="stroke:#FFF;stroke-width:1;"/><line x1="441.275" y1="405.727" x2="441.275" y2="447.727" style="stroke:#181818;stroke-width:1;"/><line x1="451.275" y1="405.727" x2="451.275" y2="447.727" style="stroke:#181818;stroke-width:1;"/><line x1="441.275" y1="447.727" x2="451.275" y2="447.727" style="stroke:#181818;stroke-width:1;"/></g><g><title>Transmission</title><rect x="532.206" y="77.727" width="8" height="287.195" fill="#000" fill-opacity="0"/><line x1="535.706" y1="77.727" x2="535.706" y2="364.922" style="stroke:#181818;stroke-width:0.5;stroke-dasharray:5,5;"/></g><line x1="535.706" y1="364.922" x2="535.706" y2="405.727" style="stroke:#181818;stroke-width:0.5;stroke-dasharray:1,4;"/><g><title>Transmission</title><rect x="532.206" y="405.727" width="8" height="66" fill="#000" fill-opacity="0"/><line x1="535.706" y1="405.727" x2="535.706" y2="471.727" style="stroke:#181818;stroke-width:0.5;stroke-dasharray:5,5;"/></g><g><title></title><rect x="530.706" y="180.125" width="10" height="184.797" fill="#FFF" style="stroke:#FFF;stroke-width:1;"/><line x1="530.706" y1="180.125" x2="530.706" y2="364.922" style="stroke:#181818;stroke-width:1;"/><line x1="540.706" y1="180.125" x2="540.706" y2="364.922" style="stroke:#181818;stroke-width:1;"/><line x1="530.706" y1="180.125" x2="540.706" y2="180.125" style="stroke:#181818;stroke-width:1;"/></g><g><title></title><rect x="530.706" y="405.727" width="10" height="42" fill="#FFF" style="stroke:#FFF;stroke-width:1;"/><line x1="530.706" y1="405.727" x2="530.706" y2="447.727" style="stroke:#181818;stroke-width:1;"/><line x1="540.706" y1="405.727" x2="540.706" y2="447.727" style="stroke:#181818;stroke-width:1;"/><line x1="530.706" y1="447.727" x2="540.706" y2="447.727" style="stroke:#181818;stroke-width:1;"/></g><g><title>Mirrors</title><rect x="629.866" y="77.727" width="8" height="287.195" fill="#000" fill-opacity="0"/><line x1="633.366" y1="77.727" x2="633.366" y2="364.922" style="stroke:#181818;stroke-width:0.5;stroke-dasharray:5,5;"/></g><line x1="633.366" y1="364.922" x2="633.366" y2="405.727" style="stroke:#181818;stroke-width:0.5;stroke-dasharray:1,4;"/><g><title>Mirrors</title><rect x="629.866" y="405.727" width="8" height="66" fill="#000" fill-opacity="0"/><line x1="633.366" y1="405.727" x2="633.366" y2="471.727" style="stroke:#181818;stroke-width:0.5;stroke-dasharray:5,5;"/></g><g><title></title><rect x="628.366" y="298.656" width="10" height="66.266" fill="#FFF" style="stroke:#FFF;stroke-width:1;"/><line x1="628.366" y1="298.656" x2="628.366" y2="364.922" style="stroke:#181818;stroke-width:1;"/><line x1="638.366" y1="298.656" x2="638.366" y2="364.922" style="stroke:#181818;stroke-width:1;"/><line x1="628.366" y1="298.656" x2="638.366" y2="298.656" style="stroke:#181818;stroke-width:1;"/></g><g><title></title><rect x="628.366" y="405.727" width="10" height="14" fill="#FFF" style="stroke:#FFF;stroke-width:1;"/><line x1="628.366" y1="405.727" x2="628.366" y2="419.727" style="stroke:#181818;stroke-width:1;"/><line x1="638.366" y1="405.727" x2="638.366" y2="419.727" style="stroke:#181818;stroke-width:1;"/><line x1="628.366" y1="419.727" x2="638.366" y2="419.727" style="stroke:#181818;stroke-width:1;"/></g><g><title>Mirror</title><rect x="708.861" y="77.727" width="8" height="287.195" fill="#000" fill-opacity="0"/><line x1="712.361" y1="77.727" x2="712.361" y2="364.922" style="stroke:#181818;stroke-width:0.5;stroke-dasharray:5,5;"/></g><line x1="712.361" y1="364.922" x2="712.361" y2="405.727" style="stroke:#181818;stroke-width:0.5;stroke-dasharray:1,4;"/><g><title>Mirror</title><rect x="708.861" y="405.727" width="8" height="66" fill="#000" fill-opacity="0"/><line x1="712.361" y1="405.727" x2="712.361" y2="471.727" style="stroke:#181818;stroke-width:0.5;stroke-dasharray:5,5;"/></g><g><title></title><rect x="707.361" y="356.922" width="10" height="8" fill="#FFF" style="stroke:#FFF;stroke-width:1;"/><line x1="707.361" y1="356.922" x2="707.361" y2="364.922" style="stroke:#181818;stroke-width:1;"/><line x1="717.361" y1="356.922" x2="717.361" y2="364.922" style="stroke:#181818;stroke-width:1;"/><line x1="707.361" y1="356.922" x2="717.361" y2="356.922" style="stroke:#181818;stroke-width:1;"/></g><g><title></title><rect x="707.361" y="405.727" width="10" height="6" fill="#FFF" style="stroke:#FFF;stroke-width:1;"/><line x1="707.361" y1="405.727" x2="707.361" y2="411.727" style="stroke:#181818;stroke-width:1;"/><line x1="717.361" y1="405.727" x2="717.361" y2="411.727" style="stroke:#181818;stroke-width:1;"/><line x1="707.361" y1="411.727" x2="717.361" y2="411.727" style="stroke:#181818;stroke-width:1;"/></g><rect x="10" y="46.43" width="150.165" height="30.297" fill="#E2E2F0" style="stroke:#181818;stroke-width:0.5;" rx="2.5" ry="2.5"/><text x="17" y="66.425" fill="#000" font-size="14" textLength="136.165">BlueSky RunEngine</text><rect x="329.799" y="46.43" width="83.159" height="30.297" fill="#E2E2F0" style="stroke:#181818;stroke-width:0.5;" rx="2.5" ry="2.5"/><text x="336.799" y="66.425" fill="#000" font-size="14" textLength="69.159">Undulator</text><rect x="422.958" y="46.43" width="46.635" height="30.297" fill="#E2E2F0" style="stroke:#181818;stroke-width:0.5;" rx="2.5" ry="2.5"/><text x="429.958" y="66.425" fill="#000" font-size="14" textLength="32.635">DCM</text><rect x="479.593" y="30.133" width="112.226" height="46.594" fill="#E2E2F0" style="stroke:#181818;stroke-width:0.5;" rx="2.5" ry="2.5"/><text x="489.457" y="50.128" fill="#000" font-size="14" textLength="92.497">Transmission</text><text x="486.593" y="66.425" fill="#000" font-size="14" textLength="98.226">and Feedback</text><rect x="601.818" y="46.43" width="63.096" height="30.297" fill="#E2E2F0" style="stroke:#181818;stroke-width:0.5;" rx="2.5" ry="2.5"/><text x="608.818" y="66.425" fill="#000" font-size="14" textLength="49.096">Mirrors</text><rect x="674.914" y="30.133" width="74.895" height="46.594" fill="#E2E2F0" style="stroke:#181818;stroke-width:0.5;" rx="2.5" ry="2.5"/><text x="691.46" y="50.128" fill="#000" font-size="14" textLength="41.802">Mirror</text><text x="681.914" y="66.425" fill="#000" font-size="14" textLength="60.895">Voltages</text><rect x="10" y="471.727" width="150.165" height="30.297" fill="#E2E2F0" style="stroke:#181818;stroke-width:0.5;" rx="2.5" ry="2.5"/><text x="17" y="491.722" fill="#000" font-size="14" textLength="136.165">BlueSky RunEngine</text><rect x="329.799" y="471.727" width="83.159" height="30.297" fill="#E2E2F0" style="stroke:#181818;stroke-width:0.5;" rx="2.5" ry="2.5"/><text x="336.799" y="491.722" fill="#000" font-size="14" textLength="69.159">Undulator</text><rect x="422.958" y="471.727" width="46.635" height="30.297" fill="#E2E2F0" style="stroke:#181818;stroke-width:0.5;" rx="2.5" ry="2.5"/><text x="429.958" y="491.722" fill="#000" font-size="14" textLength="32.635">DCM</text><rect x="479.593" y="471.727" width="112.226" height="46.594" fill="#E2E2F0" style="stroke:#181818;stroke-width:0.5;" rx="2.5" ry="2.5"/><text x="489.457" y="491.722" fill="#000" font-size="14" textLength="92.497">Transmission</text><text x="486.593" y="508.019" fill="#000" font-size="14" textLength="98.226">and Feedback</text><rect x="601.818" y="471.727" width="63.096" height="30.297" fill="#E2E2F0" style="stroke:#181818;stroke-width:0.5;" rx="2.5" ry="2.5"/><text x="608.818" y="491.722" fill="#000" font-size="14" textLength="49.096">Mirrors</text><rect x="674.914" y="471.727" width="74.895" height="46.594" fill="#E2E2F0" style="stroke:#181818;stroke-width:0.5;" rx="2.5" ry="2.5"/><text x="691.46" y="491.722" fill="#000" font-size="14" textLength="41.802">Mirror</text><text x="681.914" y="508.019" fill="#000" font-size="14" textLength="60.895">Voltages</text><path d="M50.083,89.727 L213.72,89.727 L213.72,96.859 L203.72,106.859 L50.083,106.859 L50.083,89.727" style="stroke:#000;stroke-width:1.5;" fill="#EEE"/><rect x="50.083" y="89.727" width="708.279" height="358" fill="none" style="stroke:#000;stroke-width:1.5;"/><text x="65.083" y="102.793" fill="#000" font-size="13" textLength="118.638" font-weight="700">set_energy_plan</text><line x1="85.083" y1="137.992" x2="132.083" y2="137.992" style="stroke:#181818;stroke-width:1;"/><line x1="132.083" y1="137.992" x2="132.083" y2="150.992" style="stroke:#181818;stroke-width:1;"/><line x1="91.083" y1="150.992" x2="132.083" y2="150.992" style="stroke:#181818;stroke-width:1;"/><polygon points="101.083,146.992,91.083,150.992,101.083,154.992,97.083,150.992" fill="#181818" style="stroke:#181818;stroke-width:1;stroke-linejoin:miter;stroke-miterlimit:10;"/><text x="97.083" y="132.926" fill="#000" font-size="13" textLength="106.463">set_energy_plan</text><polygon points="518.706,176.125,528.706,180.125,518.706,184.125,522.706,180.125" fill="#181818" style="stroke:#181818;stroke-width:1;stroke-linejoin:miter;stroke-miterlimit:10;"/><line x1="90.083" y1="180.125" x2="524.706" y2="180.125" style="stroke:#181818;stroke-width:1;"/><text x="97.083" y="175.059" fill="#000" font-size="13" textLength="80.958">feedback off</text><polygon points="354.378,205.258,364.378,209.258,354.378,213.258,358.378,209.258" fill="#181818" style="stroke:#181818;stroke-width:1;stroke-linejoin:miter;stroke-miterlimit:10;"/><line x1="90.083" y1="209.258" x2="360.378" y2="209.258" style="stroke:#181818;stroke-width:1;"/><text x="97.083" y="204.192" fill="#000" font-size="13" textLength="257.296">set undulator gap for requested energy</text><polygon points="429.275,234.391,439.275,238.391,429.275,242.391,433.275,238.391" fill="#181818" style="stroke:#181818;stroke-width:1;stroke-linejoin:miter;stroke-miterlimit:10;"/><line x1="90.083" y1="238.391" x2="435.275" y2="238.391" style="stroke:#181818;stroke-width:1;"/><text x="97.083" y="233.325" fill="#000" font-size="13" textLength="236.691">Adjust DCM pitch and roll for energy</text><path d="M69.083,250.391 L138.534,250.391 L138.534,257.523 L128.534,267.523 L69.083,267.523 L69.083,250.391" style="stroke:#000;stroke-width:1.5;" fill="#EEE"/><rect x="69.083" y="250.391" width="664.279" height="169.336" fill="none" style="stroke:#000;stroke-width:1.5;"/><text x="84.083" y="263.458" fill="#000" font-size="13" textLength="24.451" font-weight="700">opt</text><text x="153.534" y="262.601" fill="#000" font-size="11" textLength="191.071" font-weight="700">[mirror stripe needs changing]</text><polygon points="616.366,294.656,626.366,298.656,616.366,302.656,620.366,298.656" fill="#181818" style="stroke:#181818;stroke-width:1;stroke-linejoin:miter;stroke-miterlimit:10;"/><line x1="90.083" y1="298.656" x2="622.366" y2="298.656" style="stroke:#181818;stroke-width:1;"/><text x="97.083" y="293.59" fill="#000" font-size="13" textLength="126.471">Adjust mirror stripe</text><polygon points="616.366,323.789,626.366,327.789,616.366,331.789,620.366,327.789" fill="#181818" style="stroke:#181818;stroke-width:1;stroke-linejoin:miter;stroke-miterlimit:10;"/><line x1="90.083" y1="327.789" x2="622.366" y2="327.789" style="stroke:#181818;stroke-width:1;"/><text x="97.083" y="322.723" fill="#000" font-size="13" textLength="96.23">Adjust yaw, lat</text><polygon points="695.361,352.922,705.361,356.922,695.361,360.922,699.361,356.922" fill="#181818" style="stroke:#181818;stroke-width:1;stroke-linejoin:miter;stroke-miterlimit:10;"/><line x1="90.083" y1="356.922" x2="701.361" y2="356.922" style="stroke:#181818;stroke-width:1;"/><text x="97.083" y="351.856" fill="#000" font-size="13" textLength="144.739">Adjust mirror voltages</text><text x="319.087" y="389.132" fill="#000" font-size="11" textLength="159.269">Wait for all voltages to settle</text><polygon points="101.083,407.727,91.083,411.727,101.083,415.727,97.083,411.727" fill="#181818" style="stroke:#181818;stroke-width:1;stroke-linejoin:miter;stroke-miterlimit:10;"/><line x1="95.083" y1="411.727" x2="706.361" y2="411.727" style="stroke:#181818;stroke-width:1;"/><polygon points="101.083,435.727,91.083,439.727,101.083,443.727,97.083,439.727" fill="#181818" style="stroke:#181818;stroke-width:1;stroke-linejoin:miter;stroke-miterlimit:10;"/><line x1="95.083" y1="439.727" x2="365.378" y2="439.727" style="stroke:#181818;stroke-width:1;"/><?plantuml-src VLFBJiCm4BpdAvPUUe7stWCIZt93IELrGQgMP9iQKjlOcq90_3kEczWnBVJGPBsp3yzCZhJ1SeF0f3w1JKsPHiCY5nebm-YygkdsjO55BUUo5996W1OMy-nPVS3eHZVh0ivi8tEufAt8oOxI-djPr1MoChwkxgCKT7bnxTD5laaJTmQbtGXhXP9F4cK1LqJ5C-Ql7h_gWhJeMXYZZFM8pUxz4E19FgYAiQGTSji56Rafxd9PLXfLQx34Iv9aocQfAvGPkDzY3YUdxdzsC8ivYoqojIn5TB_hBBo1MgtIWd2VM1OOyxDY22LgMBcdeRUQB5C1kptIZf7msDAnF8EpugMs38vvq8BpDRJa6bLLlkcXLgquxO7ItD4AbetG1DAjRI5VOskGqeFYj4w1C34f3TWmfHVi_oODlX-3krU0VLbs2Yzx4R-xkZx-FJs8lJT_BpEPJ1vHiAS57Jqz05YrYd153X7tSEuPR170tYu1LT3VymQv8HUkhtz60yIMWv9Kxq6YLszmbBXjSEwecuwzstOsWDRPC9wsNyOF?></g></svg>