<svg xmlns="http://www.w3.org/2000/svg" xmlns:xlink="http://www.w3.org/1999/xlink" contentStyleType="text/css" data-diagram-type="CLASS" height="1235px" preserveAspectRatio="none" style="width:5176px;height:1235px;background:#FFFFFF;" version="1.1" viewBox="0 0 5176 1235" width="5176px" zoomAndPan="magnify"><title>Hyperion Parameter Model</title><defs/><g><text fill="#000000" font-family="sans-serif" font-size="14" font-weight="bold" lengthAdjust="spacing" textLength="212.4951" x="2475.2474" y="22.9951">Hyperion Parameter Model</text><!--cluster mx_bluesky.common.parameters--><g id="cluster_mx_bluesky.common.parameters"><path d="M8.5,43.2969 L269.8125,43.2969 A3.75,3.75 0 0 1 272.3125,45.7969 L279.3125,65.5938 L2992.5,65.5938 A2.5,2.5 0 0 1 2995,68.0938 L2995,1109.2969 A2.5,2.5 0 0 1 2992.5,1111.7969 L8.5,1111.7969 A2.5,2.5 0 0 1 6,1109.2969 L6,45.7969 A2.5,2.5 0 0 1 8.5,43.2969 " fill="#FFFFFF" fill-opacity="0.00000" style="stroke:#000000;stroke-width:1.5;"/><line style="stroke:#000000;stroke-width:1.5;" x1="6" x2="279.3125" y1="65.5938" y2="65.5938"/><text fill="#000000" font-family="sans-serif" font-size="14" font-weight="bold" lengthAdjust="spacing" textLength="260.3125" x="10" y="58.292">mx_bluesky.common.parameters</text></g><!--cluster mx_bluesky.hyperion.parameters--><g id="cluster_mx_bluesky.hyperion.parameters"><path d="M3021.5,660.4969 L3286.0322,660.4969 A3.75,3.75 0 0 1 3288.5322,662.9969 L3295.5322,682.7937 L4841.5,682.7937 A2.5,2.5 0 0 1 4844,685.2937 L4844,1225.5969 A2.5,2.5 0 0 1 4841.5,1228.0969 L3021.5,1228.0969 A2.5,2.5 0 0 1 3019,1225.5969 L3019,662.9969 A2.5,2.5 0 0 1 3021.5,660.4969 " fill="#FFFFFF" fill-opacity="0.00000" style="stroke:#000000;stroke-width:1.5;"/><line style="stroke:#000000;stroke-width:1.5;" x1="3019" x2="3295.5322" y1="682.7937" y2="682.7937"/><text fill="#000000" font-family="sans-serif" font-size="14" font-weight="bold" lengthAdjust="spacing" textLength="263.5322" x="3023" y="675.492">mx_bluesky.hyperion.parameters</text></g><!--class WithSample--><g id="elem_WithSample"><rect codeLine="8" fill="#F1F1F1" height="96.8906" id="WithSample" rx="2.5" ry="2.5" style="stroke:#181818;stroke-width:0.5;" width="176.3086" x="1170.85" y="102.5969"/><ellipse cx="1212.7243" cy="118.5969" fill="#ADD1B2" rx="11" ry="11" style="stroke:#181818;stroke-width:1;"/><path d="M1215.6931,124.2375 Q1215.1149,124.5344 1214.4743,124.675 Q1213.8337,124.8312 1213.1306,124.8312 Q1210.6306,124.8312 1209.3024,123.1906 Q1207.9899,121.5344 1207.9899,118.4094 Q1207.9899,115.2844 1209.3024,113.6281 Q1210.6306,111.9719 1213.1306,111.9719 Q1213.8337,111.9719 1214.4743,112.1281 Q1215.1306,112.2844 1215.6931,112.5812 L1215.6931,115.3 Q1215.0681,114.7219 1214.4743,114.4562 Q1213.8806,114.175 1213.2556,114.175 Q1211.9118,114.175 1211.2243,115.2531 Q1210.5368,116.3156 1210.5368,118.4094 Q1210.5368,120.5031 1211.2243,121.5812 Q1211.9118,122.6437 1213.2556,122.6437 Q1213.8806,122.6437 1214.4743,122.3781 Q1215.0681,122.0969 1215.6931,121.5187 L1215.6931,124.2375 Z " fill="#000000"/><text fill="#000000" font-family="sans-serif" font-size="14" lengthAdjust="spacing" textLength="84.5879" x="1232.6964" y="123.4436">WithSample</text><line style="stroke:#181818;stroke-width:0.5;" x1="1171.85" x2="1346.1586" y1="134.5969" y2="134.5969"/><text fill="#000000" font-family="sans-serif" font-size="14" lengthAdjust="spacing" textLength="93.3789" x="1176.85" y="151.592">int sample_id</text><text fill="#000000" font-family="sans-serif" font-size="14" lengthAdjust="spacing" textLength="164.3086" x="1176.85" y="167.8889">int | None sample_puck</text><text fill="#000000" font-family="sans-serif" font-size="14" lengthAdjust="spacing" textLength="152.3936" x="1176.85" y="184.1857">int | None sample_pin</text><line style="stroke:#181818;stroke-width:0.5;" x1="1171.85" x2="1346.1586" y1="191.4875" y2="191.4875"/></g><!--class WithVisit--><g id="elem_WithVisit"><rect codeLine="13" fill="#F1F1F1" height="129.4844" id="WithVisit" rx="2.5" ry="2.5" style="stroke:#181818;stroke-width:0.5;" width="271.7861" x="1726.11" y="86.2969"/><ellipse cx="1826.6359" cy="102.2969" fill="#ADD1B2" rx="11" ry="11" style="stroke:#181818;stroke-width:1;"/><path d="M1829.6046,107.9375 Q1829.0265,108.2344 1828.3859,108.375 Q1827.7453,108.5313 1827.0421,108.5313 Q1824.5421,108.5313 1823.214,106.8906 Q1821.9015,105.2344 1821.9015,102.1094 Q1821.9015,98.9844 1823.214,97.3281 Q1824.5421,95.6719 1827.0421,95.6719 Q1827.7453,95.6719 1828.3859,95.8281 Q1829.0421,95.9844 1829.6046,96.2813 L1829.6046,99 Q1828.9796,98.4219 1828.3859,98.1563 Q1827.7921,97.875 1827.1671,97.875 Q1825.8234,97.875 1825.1359,98.9531 Q1824.4484,100.0156 1824.4484,102.1094 Q1824.4484,104.2031 1825.1359,105.2813 Q1825.8234,106.3438 1827.1671,106.3438 Q1827.7921,106.3438 1828.3859,106.0781 Q1828.9796,105.7969 1829.6046,105.2188 L1829.6046,107.9375 Z " fill="#000000"/><text fill="#000000" font-family="sans-serif" font-size="14" lengthAdjust="spacing" textLength="62.2344" x="1847.1359" y="107.1436">WithVisit</text><line style="stroke:#181818;stroke-width:0.5;" x1="1727.11" x2="1996.8961" y1="118.2969" y2="118.2969"/><text fill="#000000" font-family="sans-serif" font-size="14" lengthAdjust="spacing" textLength="87.9717" x="1732.11" y="135.292">str beamline</text><text fill="#000000" font-family="sans-serif" font-size="14" lengthAdjust="spacing" textLength="51.8369" x="1732.11" y="151.5889">str visit</text><text fill="#000000" font-family="sans-serif" font-size="14" lengthAdjust="spacing" textLength="259.7861" x="1732.11" y="167.8857">str det_dist_to_beam_converter_path</text><text fill="#000000" font-family="sans-serif" font-size="14" lengthAdjust="spacing" textLength="131.5918" x="1732.11" y="184.1826">str insertion_prefix</text><text fill="#000000" font-family="sans-serif" font-size="14" lengthAdjust="spacing" textLength="245.752" x="1732.11" y="200.4795">float | None detector_distance_mm</text><line style="stroke:#181818;stroke-width:0.5;" x1="1727.11" x2="1996.8961" y1="207.7813" y2="207.7813"/></g><!--class WithCentreSelection--><g id="elem_WithCentreSelection"><rect codeLine="20" fill="#F1F1F1" height="64.2969" id="WithCentreSelection" rx="2.5" ry="2.5" style="stroke:#181818;stroke-width:0.5;" width="306.7861" x="2032.61" y="118.8969"/><ellipse cx="2109.8869" cy="134.8969" fill="#ADD1B2" rx="11" ry="11" style="stroke:#181818;stroke-width:1;"/><path d="M2112.8556,140.5375 Q2112.2775,140.8344 2111.6369,140.975 Q2110.9962,141.1312 2110.2931,141.1312 Q2107.7931,141.1312 2106.465,139.4906 Q2105.1525,137.8344 2105.1525,134.7094 Q2105.1525,131.5844 2106.465,129.9281 Q2107.7931,128.2719 2110.2931,128.2719 Q2110.9962,128.2719 2111.6369,128.4281 Q2112.2931,128.5844 2112.8556,128.8812 L2112.8556,131.6 Q2112.2306,131.0219 2111.6369,130.7562 Q2111.0431,130.475 2110.4181,130.475 Q2109.0744,130.475 2108.3869,131.5531 Q2107.6994,132.6156 2107.6994,134.7094 Q2107.6994,136.8031 2108.3869,137.8812 Q2109.0744,138.9437 2110.4181,138.9437 Q2111.0431,138.9437 2111.6369,138.6781 Q2112.2306,138.3969 2112.8556,137.8187 L2112.8556,140.5375 Z " fill="#000000"/><text fill="#000000" font-family="sans-serif" font-size="14" lengthAdjust="spacing" textLength="143.7324" x="2130.3869" y="139.7436">WithCentreSelection</text><line style="stroke:#181818;stroke-width:0.5;" x1="2033.61" x2="2338.3961" y1="150.8969" y2="150.8969"/><text fill="#000000" font-family="sans-serif" font-size="14" lengthAdjust="spacing" textLength="294.7861" x="2038.61" y="167.892">TopNByMaxCountSelection select_centres</text><line style="stroke:#181818;stroke-width:0.5;" x1="2033.61" x2="2338.3961" y1="175.1937" y2="175.1937"/></g><!--class SplitScan--><g id="elem_SplitScan"><rect codeLine="23" fill="#F1F1F1" height="48" id="SplitScan" rx="2.5" ry="2.5" style="stroke:#181818;stroke-width:0.5;" width="97.0781" x="1038.46" y="127.0469"/><ellipse cx="1053.46" cy="143.0469" fill="#ADD1B2" rx="11" ry="11" style="stroke:#181818;stroke-width:1;"/><path d="M1056.4288,148.6875 Q1055.8506,148.9844 1055.21,149.125 Q1054.5694,149.2813 1053.8663,149.2813 Q1051.3663,149.2813 1050.0381,147.6406 Q1048.7256,145.9844 1048.7256,142.8594 Q1048.7256,139.7344 1050.0381,138.0781 Q1051.3663,136.4219 1053.8663,136.4219 Q1054.5694,136.4219 1055.21,136.5781 Q1055.8663,136.7344 1056.4288,137.0313 L1056.4288,139.75 Q1055.8038,139.1719 1055.21,138.9063 Q1054.6163,138.625 1053.9913,138.625 Q1052.6475,138.625 1051.96,139.7031 Q1051.2725,140.7656 1051.2725,142.8594 Q1051.2725,144.9531 1051.96,146.0313 Q1052.6475,147.0938 1053.9913,147.0938 Q1054.6163,147.0938 1055.21,146.8281 Q1055.8038,146.5469 1056.4288,145.9688 L1056.4288,148.6875 Z " fill="#000000"/><text fill="#000000" font-family="sans-serif" font-size="14" lengthAdjust="spacing" textLength="65.0781" x="1067.46" y="147.8936">SplitScan</text><line style="stroke:#181818;stroke-width:0.5;" x1="1039.46" x2="1134.5381" y1="159.0469" y2="159.0469"/><line style="stroke:#181818;stroke-width:0.5;" x1="1039.46" x2="1134.5381" y1="167.0469" y2="167.0469"/></g><!--class WithSnapshot--><g id="elem_WithSnapshot"><rect codeLine="25" fill="#F1F1F1" height="80.5938" id="WithSnapshot" rx="2.5" ry="2.5" style="stroke:#181818;stroke-width:0.5;" width="289.3477" x="714.33" y="110.7469"/><ellipse cx="805.9828" cy="126.7469" fill="#ADD1B2" rx="11" ry="11" style="stroke:#181818;stroke-width:1;"/><path d="M808.9516,132.3875 Q808.3735,132.6844 807.7328,132.825 Q807.0922,132.9813 806.3891,132.9813 Q803.8891,132.9813 802.561,131.3406 Q801.2485,129.6844 801.2485,126.5594 Q801.2485,123.4344 802.561,121.7781 Q803.8891,120.1219 806.3891,120.1219 Q807.0922,120.1219 807.7328,120.2781 Q808.3891,120.4344 808.9516,120.7313 L808.9516,123.45 Q808.3266,122.8719 807.7328,122.6063 Q807.1391,122.325 806.5141,122.325 Q805.1703,122.325 804.4828,123.4031 Q803.7953,124.4656 803.7953,126.5594 Q803.7953,128.6531 804.4828,129.7313 Q805.1703,130.7938 806.5141,130.7938 Q807.1391,130.7938 807.7328,130.5281 Q808.3266,130.2469 808.9516,129.6688 L808.9516,132.3875 Z " fill="#000000"/><text fill="#000000" font-family="sans-serif" font-size="14" lengthAdjust="spacing" textLength="97.542" x="826.4828" y="131.5936">WithSnapshot</text><line style="stroke:#181818;stroke-width:0.5;" x1="715.33" x2="1002.6777" y1="142.7469" y2="142.7469"/><text fill="#000000" font-family="sans-serif" font-size="14" lengthAdjust="spacing" textLength="169.627" x="720.33" y="159.742">Path snapshot_directory</text><text fill="#000000" font-family="sans-serif" font-size="14" lengthAdjust="spacing" textLength="277.3477" x="720.33" y="176.0389">list[float] | None snapshot_omegas_deg</text><line style="stroke:#181818;stroke-width:0.5;" x1="715.33" x2="1002.6777" y1="183.3406" y2="183.3406"/></g><!--class OptionalXyzStarts--><g id="elem_OptionalXyzStarts"><rect codeLine="29" fill="#F1F1F1" height="96.8906" id="OptionalXyzStarts" rx="2.5" ry="2.5" style="stroke:#181818;stroke-width:0.5;" width="175.4473" x="1382.28" y="102.5969"/><ellipse cx="1405.1713" cy="118.5969" fill="#ADD1B2" rx="11" ry="11" style="stroke:#181818;stroke-width:1;"/><path d="M1408.14,124.2375 Q1407.5619,124.5344 1406.9213,124.675 Q1406.2806,124.8312 1405.5775,124.8312 Q1403.0775,124.8312 1401.7494,123.1906 Q1400.4369,121.5344 1400.4369,118.4094 Q1400.4369,115.2844 1401.7494,113.6281 Q1403.0775,111.9719 1405.5775,111.9719 Q1406.2806,111.9719 1406.9213,112.1281 Q1407.5775,112.2844 1408.14,112.5812 L1408.14,115.3 Q1407.515,114.7219 1406.9213,114.4562 Q1406.3275,114.175 1405.7025,114.175 Q1404.3588,114.175 1403.6713,115.2531 Q1402.9838,116.3156 1402.9838,118.4094 Q1402.9838,120.5031 1403.6713,121.5812 Q1404.3588,122.6437 1405.7025,122.6437 Q1406.3275,122.6437 1406.9213,122.3781 Q1407.515,122.0969 1408.14,121.5187 L1408.14,124.2375 Z " fill="#000000"/><text fill="#000000" font-family="sans-serif" font-size="14" lengthAdjust="spacing" textLength="125.9111" x="1420.9249" y="123.4436">OptionalXyzStarts</text><line style="stroke:#181818;stroke-width:0.5;" x1="1383.28" x2="1556.7273" y1="134.5969" y2="134.5969"/><text fill="#000000" font-family="sans-serif" font-size="14" lengthAdjust="spacing" textLength="163.4473" x="1388.28" y="151.592">float | None x_start_um</text><text fill="#000000" font-family="sans-serif" font-size="14" lengthAdjust="spacing" textLength="163.4473" x="1388.28" y="167.8889">float | None y_start_um</text><text fill="#000000" font-family="sans-serif" font-size="14" lengthAdjust="spacing" textLength="162.5107" x="1388.28" y="184.1857">float | None z_start_um</text><line style="stroke:#181818;stroke-width:0.5;" x1="1383.28" x2="1556.7273" y1="191.4875" y2="191.4875"/></g><!--class WithOptionalEnergyChange--><g id="elem_WithOptionalEnergyChange"><rect codeLine="34" fill="#F1F1F1" height="64.2969" id="WithOptionalEnergyChange" rx="2.5" ry="2.5" style="stroke:#181818;stroke-width:0.5;" width="235.4463" x="190.28" y="118.8969"/><ellipse cx="209.4645" cy="134.8969" fill="#ADD1B2" rx="11" ry="11" style="stroke:#181818;stroke-width:1;"/><path d="M212.4332,140.5375 Q211.8551,140.8344 211.2145,140.975 Q210.5738,141.1312 209.8707,141.1312 Q207.3707,141.1312 206.0426,139.4906 Q204.7301,137.8344 204.7301,134.7094 Q204.7301,131.5844 206.0426,129.9281 Q207.3707,128.2719 209.8707,128.2719 Q210.5738,128.2719 211.2145,128.4281 Q211.8707,128.5844 212.4332,128.8812 L212.4332,131.6 Q211.8082,131.0219 211.2145,130.7562 Q210.6207,130.475 209.9957,130.475 Q208.652,130.475 207.9645,131.5531 Q207.277,132.6156 207.277,134.7094 Q207.277,136.8031 207.9645,137.8812 Q208.652,138.9437 209.9957,138.9437 Q210.6207,138.9437 211.2145,138.6781 Q211.8082,138.3969 212.4332,137.8187 L212.4332,140.5375 Z " fill="#000000"/><text fill="#000000" font-family="sans-serif" font-size="14" lengthAdjust="spacing" textLength="194.1475" x="224.3944" y="139.7436">WithOptionalEnergyChange</text><line style="stroke:#181818;stroke-width:0.5;" x1="191.28" x2="424.7263" y1="150.8969" y2="150.8969"/><text fill="#000000" font-family="sans-serif" font-size="14" lengthAdjust="spacing" textLength="223.4463" x="196.28" y="167.892">float | None demand_energy_ev</text><line style="stroke:#181818;stroke-width:0.5;" x1="191.28" x2="424.7263" y1="175.1937" y2="175.1937"/></g><!--class WithPandaGridScan--><g id="elem_WithPandaGridScan"><rect codeLine="37" fill="#F1F1F1" height="64.2969" id="WithPandaGridScan" rx="2.5" ry="2.5" style="stroke:#181818;stroke-width:0.5;" width="240.5664" x="2374.72" y="118.8969"/><ellipse cx="2421.3172" cy="134.8969" fill="#ADD1B2" rx="11" ry="11" style="stroke:#181818;stroke-width:1;"/><path d="M2424.2859,140.5375 Q2423.7078,140.8344 2423.0672,140.975 Q2422.4265,141.1312 2421.7234,141.1312 Q2419.2234,141.1312 2417.8953,139.4906 Q2416.5828,137.8344 2416.5828,134.7094 Q2416.5828,131.5844 2417.8953,129.9281 Q2419.2234,128.2719 2421.7234,128.2719 Q2422.4265,128.2719 2423.0672,128.4281 Q2423.7234,128.5844 2424.2859,128.8812 L2424.2859,131.6 Q2423.6609,131.0219 2423.0672,130.7562 Q2422.4734,130.475 2421.8484,130.475 Q2420.5047,130.475 2419.8172,131.5531 Q2419.1297,132.6156 2419.1297,134.7094 Q2419.1297,136.8031 2419.8172,137.8812 Q2420.5047,138.9437 2421.8484,138.9437 Q2422.4734,138.9437 2423.0672,138.6781 Q2423.6609,138.3969 2424.2859,137.8187 L2424.2859,140.5375 Z " fill="#000000"/><text fill="#000000" font-family="sans-serif" font-size="14" lengthAdjust="spacing" textLength="138.8721" x="2441.8172" y="139.7436">WithPandaGridScan</text><line style="stroke:#181818;stroke-width:0.5;" x1="2375.72" x2="2614.2864" y1="150.8969" y2="150.8969"/><text fill="#000000" font-family="sans-serif" font-size="14" lengthAdjust="spacing" textLength="228.5664" x="2380.72" y="167.892">float panda_runup_distance_mm</text><line style="stroke:#181818;stroke-width:0.5;" x1="2375.72" x2="2614.2864" y1="175.1937" y2="175.1937"/></g><!--class XyzStarts--><g id="elem_XyzStarts"><rect codeLine="40" fill="#F1F1F1" height="96.8906" id="XyzStarts" rx="2.5" ry="2.5" style="stroke:#181818;stroke-width:0.5;" width="125.3057" x="30.35" y="102.5969"/><ellipse cx="57.3141" cy="118.5969" fill="#ADD1B2" rx="11" ry="11" style="stroke:#181818;stroke-width:1;"/><path d="M60.2829,124.2375 Q59.7047,124.5344 59.0641,124.675 Q58.4235,124.8312 57.7204,124.8312 Q55.2204,124.8312 53.8922,123.1906 Q52.5797,121.5344 52.5797,118.4094 Q52.5797,115.2844 53.8922,113.6281 Q55.2204,111.9719 57.7204,111.9719 Q58.4235,111.9719 59.0641,112.1281 Q59.7204,112.2844 60.2829,112.5812 L60.2829,115.3 Q59.6579,114.7219 59.0641,114.4562 Q58.4704,114.175 57.8454,114.175 Q56.5016,114.175 55.8141,115.2531 Q55.1266,116.3156 55.1266,118.4094 Q55.1266,120.5031 55.8141,121.5812 Q56.5016,122.6437 57.8454,122.6437 Q58.4704,122.6437 59.0641,122.3781 Q59.6579,122.0969 60.2829,121.5187 L60.2829,124.2375 Z " fill="#000000"/><text fill="#000000" font-family="sans-serif" font-size="14" lengthAdjust="spacing" textLength="66.7188" x="73.9728" y="123.4436">XyzStarts</text><line style="stroke:#181818;stroke-width:0.5;" x1="31.35" x2="154.6557" y1="134.5969" y2="134.5969"/><text fill="#000000" font-family="sans-serif" font-size="14" lengthAdjust="spacing" textLength="113.3057" x="36.35" y="151.592">float x_start_um</text><text fill="#000000" font-family="sans-serif" font-size="14" lengthAdjust="spacing" textLength="113.3057" x="36.35" y="167.8889">float y_start_um</text><text fill="#000000" font-family="sans-serif" font-size="14" lengthAdjust="spacing" textLength="112.3691" x="36.35" y="184.1857">float z_start_um</text><line style="stroke:#181818;stroke-width:0.5;" x1="31.35" x2="154.6557" y1="191.4875" y2="191.4875"/></g><!--class SpecifiedGrid--><g id="elem_SpecifiedGrid"><rect codeLine="45" fill="#F1F1F1" height="48" id="SpecifiedGrid" rx="2.5" ry="2.5" style="stroke:#181818;stroke-width:0.5;" width="125.6729" x="1579.16" y="357.2669"/><ellipse cx="1594.16" cy="373.2669" fill="#ADD1B2" rx="11" ry="11" style="stroke:#181818;stroke-width:1;"/><path d="M1597.1288,378.9075 Q1596.5506,379.2044 1595.91,379.345 Q1595.2694,379.5012 1594.5663,379.5012 Q1592.0663,379.5012 1590.7381,377.8606 Q1589.4256,376.2044 1589.4256,373.0794 Q1589.4256,369.9544 1590.7381,368.2981 Q1592.0663,366.6419 1594.5663,366.6419 Q1595.2694,366.6419 1595.91,366.7981 Q1596.5663,366.9544 1597.1288,367.2512 L1597.1288,369.97 Q1596.5038,369.3919 1595.91,369.1262 Q1595.3163,368.845 1594.6913,368.845 Q1593.3475,368.845 1592.66,369.9231 Q1591.9725,370.9856 1591.9725,373.0794 Q1591.9725,375.1731 1592.66,376.2512 Q1593.3475,377.3137 1594.6913,377.3137 Q1595.3163,377.3137 1595.91,377.0481 Q1596.5038,376.7669 1597.1288,376.1887 L1597.1288,378.9075 Z " fill="#000000"/><text fill="#000000" font-family="sans-serif" font-size="14" lengthAdjust="spacing" textLength="93.6729" x="1608.16" y="378.1136">SpecifiedGrid</text><line style="stroke:#181818;stroke-width:0.5;" x1="1580.16" x2="1703.8329" y1="389.2669" y2="389.2669"/><line style="stroke:#181818;stroke-width:0.5;" x1="1580.16" x2="1703.8329" y1="397.2669" y2="397.2669"/></g><!--class WithScan--><g id="elem_WithScan"><rect codeLine="47" fill="#F1F1F1" height="48" id="WithScan" rx="2.5" ry="2.5" style="stroke:#181818;stroke-width:0.5;" width="98.1309" x="1592.93" y="127.0469"/><ellipse cx="1607.93" cy="143.0469" fill="#ADD1B2" rx="11" ry="11" style="stroke:#181818;stroke-width:1;"/><path d="M1610.8988,148.6875 Q1610.3206,148.9844 1609.68,149.125 Q1609.0394,149.2813 1608.3363,149.2813 Q1605.8363,149.2813 1604.5081,147.6406 Q1603.1956,145.9844 1603.1956,142.8594 Q1603.1956,139.7344 1604.5081,138.0781 Q1605.8363,136.4219 1608.3363,136.4219 Q1609.0394,136.4219 1609.68,136.5781 Q1610.3363,136.7344 1610.8988,137.0313 L1610.8988,139.75 Q1610.2738,139.1719 1609.68,138.9063 Q1609.0863,138.625 1608.4613,138.625 Q1607.1175,138.625 1606.43,139.7031 Q1605.7425,140.7656 1605.7425,142.8594 Q1605.7425,144.9531 1606.43,146.0313 Q1607.1175,147.0938 1608.4613,147.0938 Q1609.0863,147.0938 1609.68,146.8281 Q1610.2738,146.5469 1610.8988,145.9688 L1610.8988,148.6875 Z " fill="#000000"/><text fill="#000000" font-family="sans-serif" font-size="14" lengthAdjust="spacing" textLength="66.1309" x="1621.93" y="147.8936">WithScan</text><line style="stroke:#181818;stroke-width:0.5;" x1="1593.93" x2="1690.0609" y1="159.0469" y2="159.0469"/><line style="stroke:#181818;stroke-width:0.5;" x1="1593.93" x2="1690.0609" y1="167.0469" y2="167.0469"/></g><!--class OptionalGonioAngleStarts--><g id="elem_OptionalGonioAngleStarts"><rect codeLine="49" fill="#F1F1F1" height="113.1875" id="OptionalGonioAngleStarts" rx="2.5" ry="2.5" style="stroke:#181818;stroke-width:0.5;" width="219.3203" x="460.34" y="94.4469"/><ellipse cx="478.0633" cy="110.4469" fill="#ADD1B2" rx="11" ry="11" style="stroke:#181818;stroke-width:1;"/><path d="M481.032,116.0875 Q480.4539,116.3844 479.8133,116.525 Q479.1727,116.6812 478.4695,116.6812 Q475.9695,116.6812 474.6414,115.0406 Q473.3289,113.3844 473.3289,110.2594 Q473.3289,107.1344 474.6414,105.4781 Q475.9695,103.8219 478.4695,103.8219 Q479.1727,103.8219 479.8133,103.9781 Q480.4695,104.1344 481.032,104.4312 L481.032,107.15 Q480.407,106.5719 479.8133,106.3062 Q479.2195,106.025 478.5945,106.025 Q477.2508,106.025 476.5633,107.1031 Q475.8758,108.1656 475.8758,110.2594 Q475.8758,112.3531 476.5633,113.4312 Q477.2508,114.4937 478.5945,114.4937 Q479.2195,114.4937 479.8133,114.2281 Q480.407,113.9469 481.032,113.3687 L481.032,116.0875 Z " fill="#000000"/><text fill="#000000" font-family="sans-serif" font-size="14" lengthAdjust="spacing" textLength="181.2686" x="492.6685" y="115.2936">OptionalGonioAngleStarts</text><line style="stroke:#181818;stroke-width:0.5;" x1="461.34" x2="678.6603" y1="126.4469" y2="126.4469"/><text fill="#000000" font-family="sans-serif" font-size="14" lengthAdjust="spacing" textLength="207.3203" x="466.34" y="143.442">float | None omega_start_deg</text><text fill="#000000" font-family="sans-serif" font-size="14" lengthAdjust="spacing" textLength="180.6875" x="466.34" y="159.7389">float | None phi_start_deg</text><text fill="#000000" font-family="sans-serif" font-size="14" lengthAdjust="spacing" textLength="179.498" x="466.34" y="176.0357">float | None chi_start_deg</text><text fill="#000000" font-family="sans-serif" font-size="14" lengthAdjust="spacing" textLength="202.0771" x="466.34" y="192.3326">float | None kappa_start_deg</text><line style="stroke:#181818;stroke-width:0.5;" x1="461.34" x2="678.6603" y1="199.6344" y2="199.6344"/></g><!--class DiffractionExperiment--><g id="elem_DiffractionExperiment"><rect codeLine="57" fill="#F1F1F1" height="210.9688" id="DiffractionExperiment" rx="2.5" ry="2.5" style="stroke:#181818;stroke-width:0.5;" width="332.332" x="2638.83" y="275.7869"/><ellipse cx="2723.6127" cy="291.7869" fill="#ADD1B2" rx="11" ry="11" style="stroke:#181818;stroke-width:1;"/><path d="M2726.5815,297.4275 Q2726.0033,297.7244 2725.3627,297.865 Q2724.7221,298.0213 2724.019,298.0213 Q2721.519,298.0213 2720.1908,296.3806 Q2718.8783,294.7244 2718.8783,291.5994 Q2718.8783,288.4744 2720.1908,286.8181 Q2721.519,285.1619 2724.019,285.1619 Q2724.7221,285.1619 2725.3627,285.3181 Q2726.019,285.4744 2726.5815,285.7713 L2726.5815,288.49 Q2725.9565,287.9119 2725.3627,287.6463 Q2724.769,287.365 2724.144,287.365 Q2722.8002,287.365 2722.1127,288.4431 Q2721.4252,289.5056 2721.4252,291.5994 Q2721.4252,293.6931 2722.1127,294.7713 Q2722.8002,295.8338 2724.144,295.8338 Q2724.769,295.8338 2725.3627,295.5681 Q2725.9565,295.2869 2726.5815,294.7088 L2726.5815,297.4275 Z " fill="#000000"/><text fill="#000000" font-family="sans-serif" font-size="14" lengthAdjust="spacing" textLength="154.2666" x="2744.1127" y="296.6336">DiffractionExperiment</text><line style="stroke:#181818;stroke-width:0.5;" x1="2639.83" x2="2970.162" y1="307.7869" y2="307.7869"/><text fill="#000000" font-family="sans-serif" font-size="14" lengthAdjust="spacing" textLength="91.0137" x="2644.83" y="324.782">str file_name</text><text fill="#000000" font-family="sans-serif" font-size="14" lengthAdjust="spacing" textLength="153.7129" x="2644.83" y="341.0789">float exposure_time_s</text><text fill="#000000" font-family="sans-serif" font-size="14" lengthAdjust="spacing" textLength="89.5029" x="2644.83" y="357.3757">str comment</text><text fill="#000000" font-family="sans-serif" font-size="14" lengthAdjust="spacing" textLength="186.915" x="2644.83" y="373.6726">TriggerMode trigger_mode</text><text fill="#000000" font-family="sans-serif" font-size="14" lengthAdjust="spacing" textLength="157.9854" x="2644.83" y="389.9695">int | None run_number</text><text fill="#000000" font-family="sans-serif" font-size="14" lengthAdjust="spacing" textLength="282.3516" x="2644.83" y="406.2664">ApertureValue | None selected_aperture</text><text fill="#000000" font-family="sans-serif" font-size="14" lengthAdjust="spacing" textLength="159.2979" x="2644.83" y="422.5632">float transmission_frac</text><text fill="#000000" font-family="sans-serif" font-size="14" lengthAdjust="spacing" textLength="320.332" x="2644.83" y="438.8601">IspybExperimentType ispyb_experiment_type</text><text fill="#000000" font-family="sans-serif" font-size="14" lengthAdjust="spacing" textLength="146.1113" x="2644.83" y="455.157">str storage_directory</text><text fill="#000000" font-family="sans-serif" font-size="14" lengthAdjust="spacing" textLength="131.0518" x="2644.83" y="471.4539">bool use_roi_mode</text><line style="stroke:#181818;stroke-width:0.5;" x1="2639.83" x2="2970.162" y1="478.7556" y2="478.7556"/></g><!--class DiffractionExperimentWithSample--><g id="elem_DiffractionExperimentWithSample"><rect codeLine="69" fill="#F1F1F1" height="48" id="DiffractionExperimentWithSample" rx="2.5" ry="2.5" style="stroke:#181818;stroke-width:0.5;" width="270.8545" x="2669.57" y="546.7569"/><ellipse cx="2684.57" cy="562.7569" fill="#ADD1B2" rx="11" ry="11" style="stroke:#181818;stroke-width:1;"/><path d="M2687.5388,568.3975 Q2686.9606,568.6944 2686.32,568.835 Q2685.6794,568.9912 2684.9763,568.9912 Q2682.4763,568.9912 2681.1481,567.3506 Q2679.8356,565.6944 2679.8356,562.5694 Q2679.8356,559.4444 2681.1481,557.7881 Q2682.4763,556.1319 2684.9763,556.1319 Q2685.6794,556.1319 2686.32,556.2881 Q2686.9763,556.4444 2687.5388,556.7412 L2687.5388,559.46 Q2686.9138,558.8819 2686.32,558.6162 Q2685.7263,558.335 2685.1013,558.335 Q2683.7575,558.335 2683.07,559.4131 Q2682.3825,560.4756 2682.3825,562.5694 Q2682.3825,564.6631 2683.07,565.7412 Q2683.7575,566.8037 2685.1013,566.8037 Q2685.7263,566.8037 2686.32,566.5381 Q2686.9138,566.2569 2687.5388,565.6787 L2687.5388,568.3975 Z " fill="#000000"/><text fill="#000000" font-family="sans-serif" font-size="14" lengthAdjust="spacing" textLength="238.8545" x="2698.57" y="567.6036">DiffractionExperimentWithSample</text><line style="stroke:#181818;stroke-width:0.5;" x1="2670.57" x2="2939.4245" y1="578.7569" y2="578.7569"/><line style="stroke:#181818;stroke-width:0.5;" x1="2670.57" x2="2939.4245" y1="586.7569" y2="586.7569"/></g><!--class MxBlueskyParameters--><g id="elem_MxBlueskyParameters"><rect codeLine="71" fill="#F1F1F1" height="64.2969" id="MxBlueskyParameters" rx="2.5" ry="2.5" style="stroke:#181818;stroke-width:0.5;" width="317.4639" x="2651.27" y="118.8969"/><ellipse cx="2727.8564" cy="134.8969" fill="#ADD1B2" rx="11" ry="11" style="stroke:#181818;stroke-width:1;"/><path d="M2730.8252,140.5375 Q2730.2471,140.8344 2729.6064,140.975 Q2728.9658,141.1312 2728.2627,141.1312 Q2725.7627,141.1312 2724.4346,139.4906 Q2723.1221,137.8344 2723.1221,134.7094 Q2723.1221,131.5844 2724.4346,129.9281 Q2725.7627,128.2719 2728.2627,128.2719 Q2728.9658,128.2719 2729.6064,128.4281 Q2730.2627,128.5844 2730.8252,128.8812 L2730.8252,131.6 Q2730.2002,131.0219 2729.6064,130.7562 Q2729.0127,130.475 2728.3877,130.475 Q2727.0439,130.475 2726.3564,131.5531 Q2725.6689,132.6156 2725.6689,134.7094 Q2725.6689,136.8031 2726.3564,137.8812 Q2727.0439,138.9437 2728.3877,138.9437 Q2729.0127,138.9437 2729.6064,138.6781 Q2730.2002,138.3969 2730.8252,137.8187 L2730.8252,140.5375 Z " fill="#000000"/><text fill="#000000" font-family="sans-serif" font-size="14" lengthAdjust="spacing" textLength="155.791" x="2748.3564" y="139.7436">MxBlueskyParameters</text><line style="stroke:#181818;stroke-width:0.5;" x1="2652.27" x2="2967.7339" y1="150.8969" y2="150.8969"/><text fill="#000000" font-family="sans-serif" font-size="14" lengthAdjust="spacing" textLength="305.4639" x="2657.27" y="167.892">SemanticVersion parameter_model_version</text><line style="stroke:#181818;stroke-width:0.5;" x1="2652.27" x2="2967.7339" y1="175.1937" y2="175.1937"/></g><!--class SpecifiedThreeDGridScan--><g id="elem_SpecifiedThreeDGridScan"><rect codeLine="74" fill="#F1F1F1" height="227.2656" id="SpecifiedThreeDGridScan" rx="2.5" ry="2.5" style="stroke:#181818;stroke-width:0.5;" width="210.8965" x="2638.55" y="860.5369"/><ellipse cx="2653.55" cy="876.5369" fill="#ADD1B2" rx="11" ry="11" style="stroke:#181818;stroke-width:1;"/><path d="M2656.5188,882.1775 Q2655.9406,882.4744 2655.3,882.615 Q2654.6594,882.7713 2653.9563,882.7713 Q2651.4563,882.7713 2650.1281,881.1306 Q2648.8156,879.4744 2648.8156,876.3494 Q2648.8156,873.2244 2650.1281,871.5681 Q2651.4563,869.9119 2653.9563,869.9119 Q2654.6594,869.9119 2655.3,870.0681 Q2655.9563,870.2244 2656.5188,870.5213 L2656.5188,873.24 Q2655.8938,872.6619 2655.3,872.3963 Q2654.7063,872.115 2654.0813,872.115 Q2652.7375,872.115 2652.05,873.1931 Q2651.3625,874.2556 2651.3625,876.3494 Q2651.3625,878.4431 2652.05,879.5213 Q2652.7375,880.5838 2654.0813,880.5838 Q2654.7063,880.5838 2655.3,880.3181 Q2655.8938,880.0369 2656.5188,879.4588 L2656.5188,882.1775 Z " fill="#000000"/><text fill="#000000" font-family="sans-serif" font-size="14" lengthAdjust="spacing" textLength="178.8965" x="2667.55" y="881.3836">SpecifiedThreeDGridScan</text><line style="stroke:#181818;stroke-width:0.5;" x1="2639.55" x2="2848.4465" y1="892.5369" y2="892.5369"/><text fill="#000000" font-family="sans-serif" font-size="14" lengthAdjust="spacing" textLength="160.8975" x="2644.55" y="909.532">float grid1_omega_deg</text><text fill="#000000" font-family="sans-serif" font-size="14" lengthAdjust="spacing" textLength="160.8975" x="2644.55" y="925.8289">float grid2_omega_deg</text><text fill="#000000" font-family="sans-serif" font-size="14" lengthAdjust="spacing" textLength="145.127" x="2644.55" y="942.1257">float x_step_size_um</text><text fill="#000000" font-family="sans-serif" font-size="14" lengthAdjust="spacing" textLength="145.127" x="2644.55" y="958.4226">float y_step_size_um</text><text fill="#000000" font-family="sans-serif" font-size="14" lengthAdjust="spacing" textLength="144.1904" x="2644.55" y="974.7195">float z_step_size_um</text><text fill="#000000" font-family="sans-serif" font-size="14" lengthAdjust="spacing" textLength="122.2129" x="2644.55" y="991.0164">float y2_start_um</text><text fill="#000000" font-family="sans-serif" font-size="14" lengthAdjust="spacing" textLength="121.2764" x="2644.55" y="1007.3132">float z2_start_um</text><text fill="#000000" font-family="sans-serif" font-size="14" lengthAdjust="spacing" textLength="75.5645" x="2644.55" y="1023.6101">int x_steps</text><text fill="#000000" font-family="sans-serif" font-size="14" lengthAdjust="spacing" textLength="75.5645" x="2644.55" y="1039.907">int y_steps</text><text fill="#000000" font-family="sans-serif" font-size="14" lengthAdjust="spacing" textLength="74.6279" x="2644.55" y="1056.2039">int z_steps</text><text fill="#000000" font-family="sans-serif" font-size="14" lengthAdjust="spacing" textLength="154.4102" x="2644.55" y="1072.5007">bool _set_stub_offsets</text><line style="stroke:#181818;stroke-width:0.5;" x1="2639.55" x2="2848.4465" y1="1079.8025" y2="1079.8025"/></g><!--class GridCommon--><g id="elem_GridCommon"><rect codeLine="87" fill="#F1F1F1" height="145.7813" id="GridCommon" rx="2.5" ry="2.5" style="stroke:#181818;stroke-width:0.5;" width="332.332" x="2638.83" y="654.7569"/><ellipse cx="2754.5282" cy="670.7569" fill="#ADD1B2" rx="11" ry="11" style="stroke:#181818;stroke-width:1;"/><path d="M2757.497,676.3975 Q2756.9189,676.6944 2756.2782,676.835 Q2755.6376,676.9912 2754.9345,676.9912 Q2752.4345,676.9912 2751.1064,675.3506 Q2749.7939,673.6944 2749.7939,670.5694 Q2749.7939,667.4444 2751.1064,665.7881 Q2752.4345,664.1319 2754.9345,664.1319 Q2755.6376,664.1319 2756.2782,664.2881 Q2756.9345,664.4444 2757.497,664.7412 L2757.497,667.46 Q2756.872,666.8819 2756.2782,666.6162 Q2755.6845,666.335 2755.0595,666.335 Q2753.7157,666.335 2753.0282,667.4131 Q2752.3407,668.4756 2752.3407,670.5694 Q2752.3407,672.6631 2753.0282,673.7412 Q2753.7157,674.8037 2755.0595,674.8037 Q2755.6845,674.8037 2756.2782,674.5381 Q2756.872,674.2569 2757.497,673.6787 L2757.497,676.3975 Z " fill="#000000"/><text fill="#000000" font-family="sans-serif" font-size="14" lengthAdjust="spacing" textLength="92.4355" x="2775.0282" y="675.6036">GridCommon</text><line style="stroke:#181818;stroke-width:0.5;" x1="2639.83" x2="2970.162" y1="686.7569" y2="686.7569"/><text fill="#000000" font-family="sans-serif" font-size="14" lengthAdjust="spacing" textLength="125.2959" x="2644.83" y="703.752">float box_size_um</text><text fill="#000000" font-family="sans-serif" font-size="14" lengthAdjust="spacing" textLength="138.4209" x="2644.83" y="720.0489">float grid_width_um</text><text fill="#000000" font-family="sans-serif" font-size="14" lengthAdjust="spacing" textLength="153.7129" x="2644.83" y="736.3457">float exposure_time_s</text><text fill="#000000" font-family="sans-serif" font-size="14" lengthAdjust="spacing" textLength="320.332" x="2644.83" y="752.6426">IspybExperimentType ispyb_experiment_type</text><text fill="#000000" font-family="sans-serif" font-size="14" lengthAdjust="spacing" textLength="282.3516" x="2644.83" y="768.9395">ApertureValue | None selected_aperture</text><text fill="#000000" font-family="sans-serif" font-size="14" lengthAdjust="spacing" textLength="130.498" x="2644.83" y="785.2364">float tip_offset_um</text><line style="stroke:#181818;stroke-width:0.5;" x1="2639.83" x2="2970.162" y1="792.5381" y2="792.5381"/></g><!--class RotationExperiment--><g id="elem_RotationExperiment"><rect codeLine="98" fill="#F1F1F1" height="96.8906" id="RotationExperiment" rx="2.5" ry="2.5" style="stroke:#181818;stroke-width:0.5;" width="332.332" x="3514.83" y="925.7269"/><ellipse cx="3606.7118" cy="941.7269" fill="#ADD1B2" rx="11" ry="11" style="stroke:#181818;stroke-width:1;"/><path d="M3609.6806,947.3675 Q3609.1025,947.6644 3608.4618,947.805 Q3607.8212,947.9613 3607.1181,947.9613 Q3604.6181,947.9613 3603.29,946.3206 Q3601.9775,944.6644 3601.9775,941.5394 Q3601.9775,938.4144 3603.29,936.7581 Q3604.6181,935.1019 3607.1181,935.1019 Q3607.8212,935.1019 3608.4618,935.2581 Q3609.1181,935.4144 3609.6806,935.7113 L3609.6806,938.43 Q3609.0556,937.8519 3608.4618,937.5863 Q3607.8681,937.305 3607.2431,937.305 Q3605.8993,937.305 3605.2118,938.3831 Q3604.5243,939.4456 3604.5243,941.5394 Q3604.5243,943.6331 3605.2118,944.7113 Q3605.8993,945.7738 3607.2431,945.7738 Q3607.8681,945.7738 3608.4618,945.5081 Q3609.0556,945.2269 3609.6806,944.6488 L3609.6806,947.3675 Z " fill="#000000"/><text fill="#000000" font-family="sans-serif" font-size="14" lengthAdjust="spacing" textLength="140.0684" x="3627.2118" y="946.5736">RotationExperiment</text><line style="stroke:#181818;stroke-width:0.5;" x1="3515.83" x2="3846.162" y1="957.7269" y2="957.7269"/><text fill="#000000" font-family="sans-serif" font-size="14" lengthAdjust="spacing" textLength="202.8018" x="3520.83" y="974.722">float shutter_opening_time_s</text><text fill="#000000" font-family="sans-serif" font-size="14" lengthAdjust="spacing" textLength="202.9385" x="3520.83" y="991.0189">float rotation_increment_deg</text><text fill="#000000" font-family="sans-serif" font-size="14" lengthAdjust="spacing" textLength="320.332" x="3520.83" y="1007.3157">IspybExperimentType ispyb_experiment_type</text><line style="stroke:#181818;stroke-width:0.5;" x1="3515.83" x2="3846.162" y1="1014.6175" y2="1014.6175"/></g><!--class LoadCentreCollect--><g id="elem_LoadCentreCollect"><rect codeLine="103" fill="#F1F1F1" height="80.5938" id="LoadCentreCollect" rx="2.5" ry="2.5" style="stroke:#181818;stroke-width:0.5;" width="338.6211" x="4489.69" y="933.8669"/><ellipse cx="4590.315" cy="949.8669" fill="#ADD1B2" rx="11" ry="11" style="stroke:#181818;stroke-width:1;"/><path d="M4593.2838,955.5075 Q4592.7056,955.8044 4592.065,955.945 Q4591.4244,956.1012 4590.7213,956.1012 Q4588.2213,956.1012 4586.8931,954.4606 Q4585.5806,952.8044 4585.5806,949.6794 Q4585.5806,946.5544 4586.8931,944.8981 Q4588.2213,943.2419 4590.7213,943.2419 Q4591.4244,943.2419 4592.065,943.3981 Q4592.7213,943.5544 4593.2838,943.8512 L4593.2838,946.57 Q4592.6588,945.9919 4592.065,945.7262 Q4591.4713,945.445 4590.8463,945.445 Q4589.5025,945.445 4588.815,946.5231 Q4588.1275,947.5856 4588.1275,949.6794 Q4588.1275,951.7731 4588.815,952.8512 Q4589.5025,953.9137 4590.8463,953.9137 Q4591.4713,953.9137 4592.065,953.6481 Q4592.6588,953.3669 4593.2838,952.7887 L4593.2838,955.5075 Z " fill="#000000"/><text fill="#000000" font-family="sans-serif" font-size="14" lengthAdjust="spacing" textLength="128.8711" x="4610.815" y="954.7136">LoadCentreCollect</text><line style="stroke:#181818;stroke-width:0.5;" x1="4490.69" x2="4827.3111" y1="965.8669" y2="965.8669"/><text fill="#000000" font-family="sans-serif" font-size="14" lengthAdjust="spacing" textLength="326.6211" x="4495.69" y="982.862">RobotLoadThenCentre robot_load_then_centre</text><text fill="#000000" font-family="sans-serif" font-size="14" lengthAdjust="spacing" textLength="269.3154" x="4495.69" y="999.1589">MultiRotationScan multi_rotation_scan</text><line style="stroke:#181818;stroke-width:0.5;" x1="4490.69" x2="4827.3111" y1="1006.4606" y2="1006.4606"/></g><!--class RobotLoadThenCentre--><g id="elem_RobotLoadThenCentre"><rect codeLine="107" fill="#F1F1F1" height="64.2969" id="RobotLoadThenCentre" rx="2.5" ry="2.5" style="stroke:#181818;stroke-width:0.5;" width="212.9355" x="3034.53" y="1147.7969"/><ellipse cx="3060.2575" cy="1163.7969" fill="#ADD1B2" rx="11" ry="11" style="stroke:#181818;stroke-width:1;"/><path d="M3063.2262,1169.4375 Q3062.6481,1169.7344 3062.0075,1169.875 Q3061.3669,1170.0313 3060.6637,1170.0313 Q3058.1637,1170.0313 3056.8356,1168.3906 Q3055.5231,1166.7344 3055.5231,1163.6094 Q3055.5231,1160.4844 3056.8356,1158.8281 Q3058.1637,1157.1719 3060.6637,1157.1719 Q3061.3669,1157.1719 3062.0075,1157.3281 Q3062.6637,1157.4844 3063.2262,1157.7813 L3063.2262,1160.5 Q3062.6012,1159.9219 3062.0075,1159.6563 Q3061.4137,1159.375 3060.7887,1159.375 Q3059.445,1159.375 3058.7575,1160.4531 Q3058.07,1161.5156 3058.07,1163.6094 Q3058.07,1165.7031 3058.7575,1166.7813 Q3059.445,1167.8438 3060.7887,1167.8438 Q3061.4137,1167.8438 3062.0075,1167.5781 Q3062.6012,1167.2969 3063.2262,1166.7188 L3063.2262,1169.4375 Z " fill="#000000"/><text fill="#000000" font-family="sans-serif" font-size="14" lengthAdjust="spacing" textLength="157.0967" x="3076.6414" y="1168.6436">RobotLoadThenCentre</text><line style="stroke:#181818;stroke-width:0.5;" x1="3035.53" x2="3246.4655" y1="1179.7969" y2="1179.7969"/><text fill="#000000" font-family="sans-serif" font-size="14" lengthAdjust="spacing" textLength="200.9355" x="3040.53" y="1196.792">&lt;class 'float'&gt; thawing_time</text><line style="stroke:#181818;stroke-width:0.5;" x1="3035.53" x2="3246.4655" y1="1204.0938" y2="1204.0938"/></g><!--class GridCommonWithHyperionDetectorParams--><g id="elem_GridCommonWithHyperionDetectorParams"><rect codeLine="110" fill="#F1F1F1" height="48" id="GridCommonWithHyperionDetectorParams" rx="2.5" ry="2.5" style="stroke:#181818;stroke-width:0.5;" width="333.2188" x="3072.39" y="950.1669"/><ellipse cx="3087.39" cy="966.1669" fill="#ADD1B2" rx="11" ry="11" style="stroke:#181818;stroke-width:1;"/><path d="M3090.3588,971.8075 Q3089.7806,972.1044 3089.14,972.245 Q3088.4994,972.4012 3087.7963,972.4012 Q3085.2963,972.4012 3083.9681,970.7606 Q3082.6556,969.1044 3082.6556,965.9794 Q3082.6556,962.8544 3083.9681,961.1981 Q3085.2963,959.5419 3087.7963,959.5419 Q3088.4994,959.5419 3089.14,959.6981 Q3089.7963,959.8544 3090.3588,960.1512 L3090.3588,962.87 Q3089.7338,962.2919 3089.14,962.0262 Q3088.5463,961.745 3087.9213,961.745 Q3086.5775,961.745 3085.89,962.8231 Q3085.2025,963.8856 3085.2025,965.9794 Q3085.2025,968.0731 3085.89,969.1512 Q3086.5775,970.2137 3087.9213,970.2137 Q3088.5463,970.2137 3089.14,969.9481 Q3089.7338,969.6669 3090.3588,969.0887 L3090.3588,971.8075 Z " fill="#000000"/><text fill="#000000" font-family="sans-serif" font-size="14" lengthAdjust="spacing" textLength="301.2188" x="3101.39" y="971.0136">GridCommonWithHyperionDetectorParams</text><line style="stroke:#181818;stroke-width:0.5;" x1="3073.39" x2="3404.6088" y1="982.1669" y2="982.1669"/><line style="stroke:#181818;stroke-width:0.5;" x1="3073.39" x2="3404.6088" y1="990.1669" y2="990.1669"/></g><!--class GridScanWithEdgeDetect--><g id="elem_GridScanWithEdgeDetect"><rect codeLine="112" fill="#F1F1F1" height="48" id="GridScanWithEdgeDetect" rx="2.5" ry="2.5" style="stroke:#181818;stroke-width:0.5;" width="209.4268" x="3282.29" y="1155.9469"/><ellipse cx="3297.29" cy="1171.9469" fill="#ADD1B2" rx="11" ry="11" style="stroke:#181818;stroke-width:1;"/><path d="M3300.2588,1177.5875 Q3299.6806,1177.8844 3299.04,1178.025 Q3298.3994,1178.1812 3297.6963,1178.1812 Q3295.1963,1178.1812 3293.8681,1176.5406 Q3292.5556,1174.8844 3292.5556,1171.7594 Q3292.5556,1168.6344 3293.8681,1166.9781 Q3295.1963,1165.3219 3297.6963,1165.3219 Q3298.3994,1165.3219 3299.04,1165.4781 Q3299.6963,1165.6344 3300.2588,1165.9312 L3300.2588,1168.65 Q3299.6338,1168.0719 3299.04,1167.8062 Q3298.4463,1167.525 3297.8213,1167.525 Q3296.4775,1167.525 3295.79,1168.6031 Q3295.1025,1169.6656 3295.1025,1171.7594 Q3295.1025,1173.8531 3295.79,1174.9312 Q3296.4775,1175.9937 3297.8213,1175.9937 Q3298.4463,1175.9937 3299.04,1175.7281 Q3299.6338,1175.4469 3300.2588,1174.8687 L3300.2588,1177.5875 Z " fill="#000000"/><text fill="#000000" font-family="sans-serif" font-size="14" lengthAdjust="spacing" textLength="177.4268" x="3311.29" y="1176.7936">GridScanWithEdgeDetect</text><line style="stroke:#181818;stroke-width:0.5;" x1="3283.29" x2="3490.7168" y1="1187.9469" y2="1187.9469"/><line style="stroke:#181818;stroke-width:0.5;" x1="3283.29" x2="3490.7168" y1="1195.9469" y2="1195.9469"/></g><!--class WithHyperionUDCFeatures--><g id="elem_WithHyperionUDCFeatures"><rect codeLine="114" fill="#F1F1F1" height="64.2969" id="WithHyperionUDCFeatures" rx="2.5" ry="2.5" style="stroke:#181818;stroke-width:0.5;" width="228.6719" x="3345.66" y="695.4969"/><ellipse cx="3364.7583" cy="711.4969" fill="#ADD1B2" rx="11" ry="11" style="stroke:#181818;stroke-width:1;"/><path d="M3367.7271,717.1375 Q3367.149,717.4344 3366.5083,717.575 Q3365.8677,717.7312 3365.1646,717.7312 Q3362.6646,717.7312 3361.3365,716.0906 Q3360.024,714.4344 3360.024,711.3094 Q3360.024,708.1844 3361.3365,706.5281 Q3362.6646,704.8719 3365.1646,704.8719 Q3365.8677,704.8719 3366.5083,705.0281 Q3367.1646,705.1844 3367.7271,705.4812 L3367.7271,708.2 Q3367.1021,707.6219 3366.5083,707.3562 Q3365.9146,707.075 3365.2896,707.075 Q3363.9458,707.075 3363.2583,708.1531 Q3362.5708,709.2156 3362.5708,711.3094 Q3362.5708,713.4031 3363.2583,714.4812 Q3363.9458,715.5437 3365.2896,715.5437 Q3365.9146,715.5437 3366.5083,715.2781 Q3367.1021,714.9969 3367.7271,714.4187 L3367.7271,717.1375 Z " fill="#000000"/><text fill="#000000" font-family="sans-serif" font-size="14" lengthAdjust="spacing" textLength="187.5645" x="3379.6691" y="716.3436">WithHyperionUDCFeatures</text><line style="stroke:#181818;stroke-width:0.5;" x1="3346.66" x2="3573.3319" y1="727.4969" y2="727.4969"/><text fill="#000000" font-family="sans-serif" font-size="14" lengthAdjust="spacing" textLength="216.6719" x="3351.66" y="744.492">HyperionFeatureFlags features</text><line style="stroke:#181818;stroke-width:0.5;" x1="3346.66" x2="3573.3319" y1="751.7937" y2="751.7937"/></g><!--class HyperionSpecifiedThreeDGridScan--><g id="elem_HyperionSpecifiedThreeDGridScan"><rect codeLine="117" fill="#F1F1F1" height="48" id="HyperionSpecifiedThreeDGridScan" rx="2.5" ry="2.5" style="stroke:#181818;stroke-width:0.5;" width="274.293" x="4180.85" y="950.1669"/><ellipse cx="4195.85" cy="966.1669" fill="#ADD1B2" rx="11" ry="11" style="stroke:#181818;stroke-width:1;"/><path d="M4198.8188,971.8075 Q4198.2406,972.1044 4197.6,972.245 Q4196.9594,972.4012 4196.2563,972.4012 Q4193.7563,972.4012 4192.4281,970.7606 Q4191.1156,969.1044 4191.1156,965.9794 Q4191.1156,962.8544 4192.4281,961.1981 Q4193.7563,959.5419 4196.2563,959.5419 Q4196.9594,959.5419 4197.6,959.6981 Q4198.2563,959.8544 4198.8188,960.1512 L4198.8188,962.87 Q4198.1938,962.2919 4197.6,962.0262 Q4197.0063,961.745 4196.3813,961.745 Q4195.0375,961.745 4194.35,962.8231 Q4193.6625,963.8856 4193.6625,965.9794 Q4193.6625,968.0731 4194.35,969.1512 Q4195.0375,970.2137 4196.3813,970.2137 Q4197.0063,970.2137 4197.6,969.9481 Q4198.1938,969.6669 4198.8188,969.0887 L4198.8188,971.8075 Z " fill="#000000"/><text fill="#000000" font-family="sans-serif" font-size="14" lengthAdjust="spacing" textLength="242.293" x="4209.85" y="971.0136">HyperionSpecifiedThreeDGridScan</text><line style="stroke:#181818;stroke-width:0.5;" x1="4181.85" x2="4454.143" y1="982.1669" y2="982.1669"/><line style="stroke:#181818;stroke-width:0.5;" x1="4181.85" x2="4454.143" y1="990.1669" y2="990.1669"/></g><!--class MultiRotationScan--><g id="elem_MultiRotationScan"><rect codeLine="119" fill="#F1F1F1" height="64.2969" id="MultiRotationScan" rx="2.5" ry="2.5" style="stroke:#181818;stroke-width:0.5;" width="540.001" x="3798" y="1147.7969"/><ellipse cx="4000.0327" cy="1163.7969" fill="#ADD1B2" rx="11" ry="11" style="stroke:#181818;stroke-width:1;"/><path d="M4003.0015,1169.4375 Q4002.4233,1169.7344 4001.7827,1169.875 Q4001.1421,1170.0313 4000.439,1170.0313 Q3997.939,1170.0313 3996.6108,1168.3906 Q3995.2983,1166.7344 3995.2983,1163.6094 Q3995.2983,1160.4844 3996.6108,1158.8281 Q3997.939,1157.1719 4000.439,1157.1719 Q4001.1421,1157.1719 4001.7827,1157.3281 Q4002.439,1157.4844 4003.0015,1157.7813 L4003.0015,1160.5 Q4002.3765,1159.9219 4001.7827,1159.6563 Q4001.189,1159.375 4000.564,1159.375 Q3999.2202,1159.375 3998.5327,1160.4531 Q3997.8452,1161.5156 3997.8452,1163.6094 Q3997.8452,1165.7031 3998.5327,1166.7813 Q3999.2202,1167.8438 4000.564,1167.8438 Q4001.189,1167.8438 4001.7827,1167.5781 Q4002.3765,1167.2969 4003.0015,1166.7188 L4003.0015,1169.4375 Z " fill="#000000"/><text fill="#000000" font-family="sans-serif" font-size="14" lengthAdjust="spacing" textLength="127.4355" x="4020.5327" y="1168.6436">MultiRotationScan</text><line style="stroke:#181818;stroke-width:0.5;" x1="3799" x2="4337.001" y1="1179.7969" y2="1179.7969"/><line style="stroke:#181818;stroke-width:0.5;" x1="3799" x2="4337.001" y1="1187.7969" y2="1187.7969"/><text fill="#000000" font-family="sans-serif" font-size="14" lengthAdjust="spacing" textLength="528.001" x="3804" y="1204.792">Annotated[list[RotationScanPerSweep], Len(min_length=1)] rotation_scans</text></g><!--class PinTipCentreThenXrayCentre--><g id="elem_PinTipCentreThenXrayCentre"><rect codeLine="122" fill="#F1F1F1" height="64.2969" id="PinTipCentreThenXrayCentre" rx="2.5" ry="2.5" style="stroke:#181818;stroke-width:0.5;" width="235.8955" x="3527.05" y="1147.7969"/><ellipse cx="3542.05" cy="1163.7969" fill="#ADD1B2" rx="11" ry="11" style="stroke:#181818;stroke-width:1;"/><path d="M3545.0188,1169.4375 Q3544.4406,1169.7344 3543.8,1169.875 Q3543.1594,1170.0313 3542.4563,1170.0313 Q3539.9563,1170.0313 3538.6281,1168.3906 Q3537.3156,1166.7344 3537.3156,1163.6094 Q3537.3156,1160.4844 3538.6281,1158.8281 Q3539.9563,1157.1719 3542.4563,1157.1719 Q3543.1594,1157.1719 3543.8,1157.3281 Q3544.4563,1157.4844 3545.0188,1157.7813 L3545.0188,1160.5 Q3544.3938,1159.9219 3543.8,1159.6563 Q3543.2063,1159.375 3542.5813,1159.375 Q3541.2375,1159.375 3540.55,1160.4531 Q3539.8625,1161.5156 3539.8625,1163.6094 Q3539.8625,1165.7031 3540.55,1166.7813 Q3541.2375,1167.8438 3542.5813,1167.8438 Q3543.2063,1167.8438 3543.8,1167.5781 Q3544.3938,1167.2969 3545.0188,1166.7188 L3545.0188,1169.4375 Z " fill="#000000"/><text fill="#000000" font-family="sans-serif" font-size="14" lengthAdjust="spacing" textLength="203.8955" x="3556.05" y="1168.6436">PinTipCentreThenXrayCentre</text><line style="stroke:#181818;stroke-width:0.5;" x1="3528.05" x2="3761.9455" y1="1179.7969" y2="1179.7969"/><text fill="#000000" font-family="sans-serif" font-size="14" lengthAdjust="spacing" textLength="130.498" x="3533.05" y="1196.792">float tip_offset_um</text><line style="stroke:#181818;stroke-width:0.5;" x1="3528.05" x2="3761.9455" y1="1204.0938" y2="1204.0938"/></g><!--class RotationScanPerSweep--><g id="elem_RotationScanPerSweep"><rect codeLine="125" fill="#F1F1F1" height="129.4844" id="RotationScanPerSweep" rx="2.5" ry="2.5" style="stroke:#181818;stroke-width:0.5;" width="263.0498" x="3882.48" y="909.4269"/><ellipse cx="3928.5166" cy="925.4269" fill="#ADD1B2" rx="11" ry="11" style="stroke:#181818;stroke-width:1;"/><path d="M3931.4854,931.0675 Q3930.9072,931.3644 3930.2666,931.505 Q3929.626,931.6612 3928.9229,931.6612 Q3926.4229,931.6612 3925.0947,930.0206 Q3923.7822,928.3644 3923.7822,925.2394 Q3923.7822,922.1144 3925.0947,920.4581 Q3926.4229,918.8019 3928.9229,918.8019 Q3929.626,918.8019 3930.2666,918.9581 Q3930.9229,919.1144 3931.4854,919.4112 L3931.4854,922.13 Q3930.8604,921.5519 3930.2666,921.2862 Q3929.6729,921.005 3929.0479,921.005 Q3927.7041,921.005 3927.0166,922.0831 Q3926.3291,923.1456 3926.3291,925.2394 Q3926.3291,927.3331 3927.0166,928.4112 Q3927.7041,929.4737 3929.0479,929.4737 Q3929.6729,929.4737 3930.2666,929.2081 Q3930.8604,928.9269 3931.4854,928.3487 L3931.4854,931.0675 Z " fill="#000000"/><text fill="#000000" font-family="sans-serif" font-size="14" lengthAdjust="spacing" textLength="162.4766" x="3949.0166" y="930.2736">RotationScanPerSweep</text><line style="stroke:#181818;stroke-width:0.5;" x1="3883.48" x2="4144.5298" y1="941.4269" y2="941.4269"/><text fill="#000000" font-family="sans-serif" font-size="14" lengthAdjust="spacing" textLength="157.1787" x="3888.48" y="958.422">float omega_start_deg</text><text fill="#000000" font-family="sans-serif" font-size="14" lengthAdjust="spacing" textLength="182.9297" x="3888.48" y="974.7189">RotationAxis rotation_axis</text><text fill="#000000" font-family="sans-serif" font-size="14" lengthAdjust="spacing" textLength="147.3213" x="3888.48" y="991.0157">float scan_width_deg</text><text fill="#000000" font-family="sans-serif" font-size="14" lengthAdjust="spacing" textLength="251.0498" x="3888.48" y="1007.3126">RotationDirection rotation_direction</text><text fill="#000000" font-family="sans-serif" font-size="14" lengthAdjust="spacing" textLength="169.1279" x="3888.48" y="1023.6095">int nexus_vds_start_img</text><line style="stroke:#181818;stroke-width:0.5;" x1="3883.48" x2="4144.5298" y1="1030.9112" y2="1030.9112"/></g><!--class RotationScan--><g id="elem_RotationScan"><rect codeLine="132" fill="#F1F1F1" height="48" id="RotationScan" rx="2.5" ry="2.5" style="stroke:#181818;stroke-width:0.5;" width="125.2148" x="4373.39" y="1155.9469"/><ellipse cx="4388.39" cy="1171.9469" fill="#ADD1B2" rx="11" ry="11" style="stroke:#181818;stroke-width:1;"/><path d="M4391.3588,1177.5875 Q4390.7806,1177.8844 4390.14,1178.025 Q4389.4994,1178.1812 4388.7963,1178.1812 Q4386.2963,1178.1812 4384.9681,1176.5406 Q4383.6556,1174.8844 4383.6556,1171.7594 Q4383.6556,1168.6344 4384.9681,1166.9781 Q4386.2963,1165.3219 4388.7963,1165.3219 Q4389.4994,1165.3219 4390.14,1165.4781 Q4390.7963,1165.6344 4391.3588,1165.9312 L4391.3588,1168.65 Q4390.7338,1168.0719 4390.14,1167.8062 Q4389.5463,1167.525 4388.9213,1167.525 Q4387.5775,1167.525 4386.89,1168.6031 Q4386.2025,1169.6656 4386.2025,1171.7594 Q4386.2025,1173.8531 4386.89,1174.9312 Q4387.5775,1175.9937 4388.9213,1175.9937 Q4389.5463,1175.9937 4390.14,1175.7281 Q4390.7338,1175.4469 4391.3588,1174.8687 L4391.3588,1177.5875 Z " fill="#000000"/><text fill="#000000" font-family="sans-serif" font-size="14" lengthAdjust="spacing" textLength="93.2148" x="4402.39" y="1176.7936">RotationScan</text><line style="stroke:#181818;stroke-width:0.5;" x1="4374.39" x2="4497.6048" y1="1187.9469" y2="1187.9469"/><line style="stroke:#181818;stroke-width:0.5;" x1="4374.39" x2="4497.6048" y1="1195.9469" y2="1195.9469"/></g><!--reverse link DiffractionExperimentWithSample to RotationExperiment--><g id="link_DiffractionExperimentWithSample_RotationExperiment"><path codeLine="135" d="M2888.6174,601.7431 C2924.7074,615.8331 2952.46,629.0269 2989,652.4969 C3072.18,705.9169 3067.06,755.3869 3155,800.5369 C3263.59,856.2769 3306.98,822.6069 3423,860.5369 C3477.35,878.2969 3535.91,903.3569 3583.48,925.3269 " fill="#FFFFFF" fill-opacity="0.00000" id="DiffractionExperimentWithSample-backto-RotationExperiment" style="stroke:#181818;stroke-width:1;"/><polygon fill="#FFFFFF" fill-opacity="0.00000" points="2871.85,595.1969,2886.4354,607.3322,2890.7995,596.154,2871.85,595.1969" style="stroke:#181818;stroke-width:1;"/></g><!--reverse link WithHyperionUDCFeatures to RotationExperiment--><g id="link_WithHyperionUDCFeatures_RotationExperiment"><path codeLine="136" d="M3500.5098,773.4605 C3538.3998,815.3805 3593.7,876.5769 3637.87,925.4369 " fill="#FFFFFF" fill-opacity="0.00000" id="WithHyperionUDCFeatures-backto-RotationExperiment" style="stroke:#181818;stroke-width:1;"/><polygon fill="#FFFFFF" fill-opacity="0.00000" points="3488.44,760.1069,3496.0586,777.4838,3504.9611,769.4372,3488.44,760.1069" style="stroke:#181818;stroke-width:1;"/></g><!--reverse link MxBlueskyParameters to LoadCentreCollect--><g id="link_MxBlueskyParameters_LoadCentreCollect"><path codeLine="137" d="M2986.8359,155.5933 C3475.3959,166.0833 4909.16,202.8969 4978,275.7869 C5169.99,479.0369 4832.34,818.1069 4704.79,933.3969 " fill="#FFFFFF" fill-opacity="0.00000" id="MxBlueskyParameters-backto-LoadCentreCollect" style="stroke:#181818;stroke-width:1;"/><polygon fill="#FFFFFF" fill-opacity="0.00000" points="2968.84,155.2069,2986.7071,161.5919,2986.9647,149.5947,2968.84,155.2069" style="stroke:#181818;stroke-width:1;"/></g><!--reverse link WithVisit to LoadCentreCollect--><g id="link_WithVisit_LoadCentreCollect"><path codeLine="138" d="M2015.3459,216.3912 C2386.6159,297.4312 3365.49,149.7869 3724,275.7869 C4131.89,419.1369 4509.75,808.4369 4623.97,933.7369 " fill="#FFFFFF" fill-opacity="0.00000" id="WithVisit-backto-LoadCentreCollect" style="stroke:#181818;stroke-width:1;"/><polygon fill="#FFFFFF" fill-opacity="0.00000" points="1998.01,211.5469,2013.7311,222.1698,2016.9606,210.6125,1998.01,211.5469" style="stroke:#181818;stroke-width:1;"/></g><!--reverse link WithSample to LoadCentreCollect--><g id="link_WithSample_LoadCentreCollect"><path codeLine="139" d="M1343.2209,208.4302 C1355.2909,214.8702 1352.22,212.0569 1365,215.7869 C1487.07,251.3869 3551.37,199.3669 3653,275.7869 C3731.63,334.9069 3656.48,411.6269 3720,486.7569 C3917.11,719.8569 4054.43,671.3069 4331,800.5369 C4393.07,829.5369 4411.98,829.3769 4473,860.5369 C4516.2,882.5969 4562.9,910.8869 4598.69,933.5969 " fill="#FFFFFF" fill-opacity="0.00000" id="WithSample-backto-LoadCentreCollect" style="stroke:#181818;stroke-width:1;"/><polygon fill="#FFFFFF" fill-opacity="0.00000" points="1327.34,199.9569,1340.3965,213.7238,1346.0453,203.1366,1327.34,199.9569" style="stroke:#181818;stroke-width:1;"/></g><!--reverse link WithCentreSelection to LoadCentreCollect--><g id="link_WithCentreSelection_LoadCentreCollect"><path codeLine="140" d="M2273.3057,190.249 C2303.6157,202.409 2323.1,208.4269 2357,215.7869 C2449.53,235.8569 3135.03,214.2569 3207,275.7869 C3388.93,431.3069 3144.67,646.6669 3328,800.5369 C3425.58,882.4369 4351.23,823.0769 4473,860.5369 C4522.97,875.9069 4573.32,907.6169 4609,933.4769 " fill="#FFFFFF" fill-opacity="0.00000" id="WithCentreSelection-backto-LoadCentreCollect" style="stroke:#181818;stroke-width:1;"/><polygon fill="#FFFFFF" fill-opacity="0.00000" points="2256.6,183.5469,2271.0717,195.8176,2275.5398,184.6804,2256.6,183.5469" style="stroke:#181818;stroke-width:1;"/></g><!--reverse link WithHyperionUDCFeatures to LoadCentreCollect--><g id="link_WithHyperionUDCFeatures_LoadCentreCollect"><path codeLine="141" d="M3554.5976,766.5406 C3594.1376,781.2706 3626.49,791.2669 3672,800.5369 C4021.82,871.7569 4132.98,751.7569 4473,860.5369 C4522.62,876.4069 4572.79,907.8969 4608.5,933.5569 " fill="#FFFFFF" fill-opacity="0.00000" id="WithHyperionUDCFeatures-backto-LoadCentreCollect" style="stroke:#181818;stroke-width:1;"/><polygon fill="#FFFFFF" fill-opacity="0.00000" points="3537.73,760.2569,3552.503,772.1631,3556.6921,760.9181,3537.73,760.2569" style="stroke:#181818;stroke-width:1;"/></g><!--reverse link GridCommonWithHyperionDetectorParams to RobotLoadThenCentre--><g id="link_GridCommonWithHyperionDetectorParams_RobotLoadThenCentre"><path codeLine="142" d="M3219.9569,1014.7676 C3202.3069,1051.4576 3175.89,1106.4069 3156.11,1147.5369 " fill="#FFFFFF" fill-opacity="0.00000" id="GridCommonWithHyperionDetectorParams-backto-RobotLoadThenCentre" style="stroke:#181818;stroke-width:1;"/><polygon fill="#FFFFFF" fill-opacity="0.00000" points="3227.76,998.5469,3214.55,1012.1666,3225.3638,1017.3686,3227.76,998.5469" style="stroke:#181818;stroke-width:1;"/></g><!--reverse link WithHyperionUDCFeatures to RobotLoadThenCentre--><g id="link_WithHyperionUDCFeatures_RobotLoadThenCentre"><path codeLine="143" d="M3327.6598,754.2195 C3220.4998,777.1895 3089.62,812.8469 3055,860.5369 C2987.3,953.7769 3001.36,1017.8169 3055,1119.7969 C3060.65,1130.5469 3069.24,1139.7169 3078.83,1147.4069 " fill="#FFFFFF" fill-opacity="0.00000" id="WithHyperionUDCFeatures-backto-RobotLoadThenCentre" style="stroke:#181818;stroke-width:1;"/><polygon fill="#FFFFFF" fill-opacity="0.00000" points="3345.26,750.4469,3326.4022,748.3528,3328.9173,760.0863,3345.26,750.4469" style="stroke:#181818;stroke-width:1;"/></g><!--reverse link GridCommon to GridCommonWithHyperionDetectorParams--><g id="link_GridCommon_GridCommonWithHyperionDetectorParams"><path codeLine="144" d="M2949.1323,809.8524 C3038.8723,860.4124 3137.3,915.8669 3197.49,949.7769 " fill="#FFFFFF" fill-opacity="0.00000" id="GridCommon-backto-GridCommonWithHyperionDetectorParams" style="stroke:#181818;stroke-width:1;"/><polygon fill="#FFFFFF" fill-opacity="0.00000" points="2933.45,801.0169,2946.1871,815.0798,2952.0775,804.6249,2933.45,801.0169" style="stroke:#181818;stroke-width:1;"/></g><!--reverse link WithHyperionUDCFeatures to GridCommonWithHyperionDetectorParams--><g id="link_WithHyperionUDCFeatures_GridCommonWithHyperionDetectorParams"><path codeLine="145" d="M3419.4907,773.4609 C3374.4907,823.2509 3299.97,905.7169 3260.07,949.8569 " fill="#FFFFFF" fill-opacity="0.00000" id="WithHyperionUDCFeatures-backto-GridCommonWithHyperionDetectorParams" style="stroke:#181818;stroke-width:1;"/><polygon fill="#FFFFFF" fill-opacity="0.00000" points="3431.56,760.1069,3415.0393,769.4378,3423.942,777.484,3431.56,760.1069" style="stroke:#181818;stroke-width:1;"/></g><!--reverse link GridCommonWithHyperionDetectorParams to GridScanWithEdgeDetect--><g id="link_GridCommonWithHyperionDetectorParams_GridScanWithEdgeDetect"><path codeLine="146" d="M3266.5576,1013.111 C3295.0276,1052.311 3341.5,1116.2969 3369.99,1155.5269 " fill="#FFFFFF" fill-opacity="0.00000" id="GridCommonWithHyperionDetectorParams-backto-GridScanWithEdgeDetect" style="stroke:#181818;stroke-width:1;"/><polygon fill="#FFFFFF" fill-opacity="0.00000" points="3255.98,998.5469,3261.7029,1016.6369,3271.4123,1009.5852,3255.98,998.5469" style="stroke:#181818;stroke-width:1;"/></g><!--reverse link WithHyperionUDCFeatures to GridScanWithEdgeDetect--><g id="link_WithHyperionUDCFeatures_GridScanWithEdgeDetect"><path codeLine="147" d="M3462.4374,778.0226 C3465.1374,845.7126 3465.55,991.6169 3423,1119.7969 C3418.8,1132.4669 3411.47,1145.2669 3404.52,1155.7069 " fill="#FFFFFF" fill-opacity="0.00000" id="WithHyperionUDCFeatures-backto-GridScanWithEdgeDetect" style="stroke:#181818;stroke-width:1;"/><polygon fill="#FFFFFF" fill-opacity="0.00000" points="3461.72,760.0369,3456.4422,778.2617,3468.4326,777.7834,3461.72,760.0369" style="stroke:#181818;stroke-width:1;"/></g><!--reverse link WithPandaGridScan to WithHyperionUDCFeatures--><g id="link_WithPandaGridScan_WithHyperionUDCFeatures"><path codeLine="148" d="M2563.243,192.1923 C2585.743,204.2923 2596.96,208.4169 2623,215.7869 C2766.62,256.4269 3173.33,185.2369 3292,275.7869 C3429.63,380.7969 3454.53,611.2769 3459.02,695.2469 " fill="#FFFFFF" fill-opacity="0.00000" id="WithPandaGridScan-backto-WithHyperionUDCFeatures" style="stroke:#181818;stroke-width:1;"/><polygon fill="#FFFFFF" fill-opacity="0.00000" points="2547.39,183.6669,2560.4012,197.4766,2566.0848,186.9079,2547.39,183.6669" style="stroke:#181818;stroke-width:1;"/></g><!--reverse link SpecifiedThreeDGridScan to HyperionSpecifiedThreeDGridScan--><g id="link_SpecifiedThreeDGridScan_HyperionSpecifiedThreeDGridScan"><path codeLine="149" d="M2865.3731,898.9242 C2919.1131,868.9742 2971.06,845.7369 3036.5,830.5369 C3156.53,802.6569 4029.63,788.6069 4145.5,830.5369 C4211.28,854.3369 4269.62,915.3769 4298.62,949.7269 " fill="#FFFFFF" fill-opacity="0.00000" id="SpecifiedThreeDGridScan-backto-HyperionSpecifiedThreeDGridScan" style="stroke:#181818;stroke-width:1;"/><polygon fill="#FFFFFF" fill-opacity="0.00000" points="2849.65,907.6869,2868.294,904.1652,2862.4522,893.6832,2849.65,907.6869" style="stroke:#181818;stroke-width:1;"/></g><!--reverse link WithHyperionUDCFeatures to HyperionSpecifiedThreeDGridScan--><g id="link_WithHyperionUDCFeatures_HyperionSpecifiedThreeDGridScan"><path codeLine="150" d="M3557.3321,766.4297 C3596.4921,780.6997 3627.67,790.4269 3672,800.5369 C3886.34,849.4269 3958.43,780.0069 4163,860.5369 C4215.16,881.0669 4265.8,923.3669 4294.33,949.8869 " fill="#FFFFFF" fill-opacity="0.00000" id="WithHyperionUDCFeatures-backto-HyperionSpecifiedThreeDGridScan" style="stroke:#181818;stroke-width:1;"/><polygon fill="#FFFFFF" fill-opacity="0.00000" points="3540.42,760.2669,3555.2778,772.0671,3559.3864,760.7923,3540.42,760.2669" style="stroke:#181818;stroke-width:1;"/></g><!--reverse link GridCommon to SpecifiedThreeDGridScan--><g id="link_GridCommon_SpecifiedThreeDGridScan"><path codeLine="151" d="M2782.591,818.4811 C2777.951,837.0711 2777.21,840.0569 2772.19,860.1669 " fill="#FFFFFF" fill-opacity="0.00000" id="GridCommon-backto-SpecifiedThreeDGridScan" style="stroke:#181818;stroke-width:1;"/><polygon fill="#FFFFFF" fill-opacity="0.00000" points="2786.95,801.0169,2776.7696,817.0281,2788.4124,819.9341,2786.95,801.0169" style="stroke:#181818;stroke-width:1;"/></g><!--reverse link SpecifiedGrid to SpecifiedThreeDGridScan--><g id="link_SpecifiedGrid_SpecifiedThreeDGridScan"><path codeLine="152" d="M1673.8611,419.2925 C1735.5211,489.9925 1919.03,689.4669 2126,800.5369 C2292.87,890.0869 2510.64,936.8269 2638.12,958.1269 " fill="#FFFFFF" fill-opacity="0.00000" id="SpecifiedGrid-backto-SpecifiedThreeDGridScan" style="stroke:#181818;stroke-width:1;"/><polygon fill="#FFFFFF" fill-opacity="0.00000" points="1662.03,405.7269,1669.3392,423.2362,1678.3829,415.3488,1662.03,405.7269" style="stroke:#181818;stroke-width:1;"/></g><!--reverse link SplitScan to SpecifiedThreeDGridScan--><g id="link_SplitScan_SpecifiedThreeDGridScan"><path codeLine="153" d="M1120.5017,188.5431 C1208.7417,283.6631 1546.4,632.2569 1913,800.5369 C2157.4,912.7169 2475.66,952.6869 2638.27,966.3869 " fill="#FFFFFF" fill-opacity="0.00000" id="SplitScan-backto-SpecifiedThreeDGridScan" style="stroke:#181818;stroke-width:1;"/><polygon fill="#FFFFFF" fill-opacity="0.00000" points="1108.26,175.3469,1116.103,192.6237,1124.9005,184.4625,1108.26,175.3469" style="stroke:#181818;stroke-width:1;"/></g><!--reverse link WithOptionalEnergyChange to SpecifiedThreeDGridScan--><g id="link_WithOptionalEnergyChange_SpecifiedThreeDGridScan"><path codeLine="154" d="M377.993,191.7967 C401.983,204.1867 415.08,208.8369 443,215.7869 C719.11,284.5269 1452.16,185.5169 1722,275.7869 C1922.65,342.9069 2419.69,719.6969 2638.14,889.8069 " fill="#FFFFFF" fill-opacity="0.00000" id="WithOptionalEnergyChange-backto-SpecifiedThreeDGridScan" style="stroke:#181818;stroke-width:1;"/><polygon fill="#FFFFFF" fill-opacity="0.00000" points="362,183.5369,375.2397,197.1277,380.7463,186.4657,362,183.5369" style="stroke:#181818;stroke-width:1;"/></g><!--reverse link RotationExperiment to MultiRotationScan--><g id="link_RotationExperiment_MultiRotationScan"><path codeLine="155" d="M3744.2519,1035.0319 C3779.3319,1066.4319 3815.31,1094.2569 3865,1119.7969 C3886.06,1130.6269 3909.39,1139.7469 3932.52,1147.3469 " fill="#FFFFFF" fill-opacity="0.00000" id="RotationExperiment-backto-MultiRotationScan" style="stroke:#181818;stroke-width:1;"/><polygon fill="#FFFFFF" fill-opacity="0.00000" points="3730.84,1023.0269,3740.2503,1039.5025,3748.2536,1030.5612,3730.84,1023.0269" style="stroke:#181818;stroke-width:1;"/></g><!--reverse link SplitScan to MultiRotationScan--><g id="link_SplitScan_MultiRotationScan"><path codeLine="156" d="M1115.1551,189.3126 C1127.0551,203.8426 1133.03,207.3769 1153,215.7869 C1366.1,305.4869 3003.01,252.0869 3233,275.7869 C3603.04,313.9169 4881,197.7469 4881,569.7569 C4881,569.7569 4881,569.7569 4881,728.6469 C4881,815.9169 4908.69,1059.0869 4846,1119.7969 C4806.82,1157.7369 4410.35,1143.3069 4356,1147.7969 C4350.11,1148.2869 4344.16,1148.7969 4338.15,1149.3169 " fill="#FFFFFF" fill-opacity="0.00000" id="SplitScan-backto-MultiRotationScan" style="stroke:#181818;stroke-width:1;"/><polygon fill="#FFFFFF" fill-opacity="0.00000" points="1103.75,175.3869,1110.5132,193.1142,1119.797,185.5109,1103.75,175.3869" style="stroke:#181818;stroke-width:1;"/></g><!--reverse link MxBlueskyParameters to DiffractionExperiment--><g id="link_MxBlueskyParameters_DiffractionExperiment"><path codeLine="157" d="M2808.9224,201.2925 C2808.3924,225.2825 2808.03,241.8769 2807.3,275.3969 " fill="#FFFFFF" fill-opacity="0.00000" id="MxBlueskyParameters-backto-DiffractionExperiment" style="stroke:#181818;stroke-width:1;"/><polygon fill="#FFFFFF" fill-opacity="0.00000" points="2809.32,183.2969,2802.9239,201.16,2814.921,201.425,2809.32,183.2969" style="stroke:#181818;stroke-width:1;"/></g><!--reverse link WithSnapshot to DiffractionExperiment--><g id="link_WithSnapshot_DiffractionExperiment"><path codeLine="158" d="M961.0996,198.454 C985.3596,208.044 995.41,210.4369 1021,215.7869 C1371.45,289.0369 2287.82,173.7469 2631,275.7869 C2633.45,276.5169 2635.9,277.2869 2638.35,278.0969 " fill="#FFFFFF" fill-opacity="0.00000" id="WithSnapshot-backto-DiffractionExperiment" style="stroke:#181818;stroke-width:1;"/><polygon fill="#FFFFFF" fill-opacity="0.00000" points="944.36,191.8369,958.8938,204.0339,963.3053,192.8742,944.36,191.8369" style="stroke:#181818;stroke-width:1;"/></g><!--reverse link WithOptionalEnergyChange to DiffractionExperiment--><g id="link_WithOptionalEnergyChange_DiffractionExperiment"><path codeLine="159" d="M377.5843,191.9229 C401.6343,204.4129 414.89,209.0769 443,215.7869 C916.12,328.6969 2164.09,139.4469 2631,275.7869 C2633.45,276.4969 2635.91,277.2569 2638.36,278.0569 " fill="#FFFFFF" fill-opacity="0.00000" id="WithOptionalEnergyChange-backto-DiffractionExperiment" style="stroke:#181818;stroke-width:1;"/><polygon fill="#FFFFFF" fill-opacity="0.00000" points="361.61,183.6269,374.8189,197.2476,380.3496,186.5981,361.61,183.6269" style="stroke:#181818;stroke-width:1;"/></g><!--reverse link WithVisit to DiffractionExperiment--><g id="link_WithVisit_DiffractionExperiment"><path codeLine="160" d="M2015.3408,216.3126 C2282.1408,283.2726 2369.8,189.5369 2631,275.7869 C2633.51,276.6169 2636.02,277.4869 2638.53,278.3869 " fill="#FFFFFF" fill-opacity="0.00000" id="WithVisit-backto-DiffractionExperiment" style="stroke:#181818;stroke-width:1;"/><polygon fill="#FFFFFF" fill-opacity="0.00000" points="1998.11,211.1069,2013.6055,222.0562,2017.076,210.569,1998.11,211.1069" style="stroke:#181818;stroke-width:1;"/></g><!--reverse link DiffractionExperiment to DiffractionExperimentWithSample--><g id="link_DiffractionExperiment_DiffractionExperimentWithSample"><path codeLine="161" d="M2805,505.2469 C2805,527.5069 2805,530.9069 2805,546.3269 " fill="#FFFFFF" fill-opacity="0.00000" id="DiffractionExperiment-backto-DiffractionExperimentWithSample" style="stroke:#181818;stroke-width:1;"/><polygon fill="#FFFFFF" fill-opacity="0.00000" points="2805,487.2469,2799,505.2469,2811,505.2469,2805,487.2469" style="stroke:#181818;stroke-width:1;"/></g><!--reverse link WithSample to DiffractionExperimentWithSample--><g id="link_WithSample_DiffractionExperimentWithSample"><path codeLine="162" d="M1343.922,208.3269 C1355.812,214.6869 1352.5,211.8669 1365,215.7869 C1753.49,337.4369 1891.2,151.9269 2279,275.7869 C2449.13,330.1169 2463.27,402.9769 2621,486.7569 C2662.63,508.8669 2711.3,530.6469 2748.13,546.3569 " fill="#FFFFFF" fill-opacity="0.00000" id="WithSample-backto-DiffractionExperimentWithSample" style="stroke:#181818;stroke-width:1;"/><polygon fill="#FFFFFF" fill-opacity="0.00000" points="1328.05,199.8369,1341.092,213.6175,1346.752,203.0362,1328.05,199.8369" style="stroke:#181818;stroke-width:1;"/></g><!--reverse link DiffractionExperimentWithSample to GridCommon--><g id="link_DiffractionExperimentWithSample_GridCommon"><path codeLine="163" d="M2805,612.9369 C2805,628.8969 2805,633.0169 2805,654.5769 " fill="#FFFFFF" fill-opacity="0.00000" id="DiffractionExperimentWithSample-backto-GridCommon" style="stroke:#181818;stroke-width:1;"/><polygon fill="#FFFFFF" fill-opacity="0.00000" points="2805,594.9369,2799,612.9369,2811,612.9369,2805,594.9369" style="stroke:#181818;stroke-width:1;"/></g><!--reverse link OptionalGonioAngleStarts to GridCommon--><g id="link_OptionalGonioAngleStarts_GridCommon"><path codeLine="164" d="M689.7665,214.4102 C697.7765,217.4102 689,213.7169 697,215.7869 C852.78,256.1069 2005.02,194.6769 2144,275.7869 C2239.32,331.4169 2192.03,413.9669 2275,486.7569 C2379.97,578.8369 2526.13,641.4169 2638.39,679.5169 " fill="#FFFFFF" fill-opacity="0.00000" id="OptionalGonioAngleStarts-backto-GridCommon" style="stroke:#181818;stroke-width:1;"/><polygon fill="#FFFFFF" fill-opacity="0.00000" points="672.91,208.0969,687.6621,220.029,691.871,208.7913,672.91,208.0969" style="stroke:#181818;stroke-width:1;"/></g><!--reverse link GridCommonWithHyperionDetectorParams to PinTipCentreThenXrayCentre--><g id="link_GridCommonWithHyperionDetectorParams_PinTipCentreThenXrayCentre"><path codeLine="165" d="M3285.5527,1008.9815 C3328.9027,1039.9115 3394.96,1084.2269 3470,1119.7969 C3491.59,1130.0369 3515.43,1139.3169 3538.39,1147.3469 " fill="#FFFFFF" fill-opacity="0.00000" id="GridCommonWithHyperionDetectorParams-backto-PinTipCentreThenXrayCentre" style="stroke:#181818;stroke-width:1;"/><polygon fill="#FFFFFF" fill-opacity="0.00000" points="3270.9,998.5269,3282.0678,1013.8657,3289.0376,1004.0973,3270.9,998.5269" style="stroke:#181818;stroke-width:1;"/></g><!--reverse link WithHyperionUDCFeatures to PinTipCentreThenXrayCentre--><g id="link_WithHyperionUDCFeatures_PinTipCentreThenXrayCentre"><path codeLine="166" d="M3458.394,778.23 C3456.114,860.94 3454.75,1063.3469 3497,1119.7969 C3505.37,1130.9869 3516.2,1140.0669 3528.19,1147.4269 " fill="#FFFFFF" fill-opacity="0.00000" id="WithHyperionUDCFeatures-backto-PinTipCentreThenXrayCentre" style="stroke:#181818;stroke-width:1;"/><polygon fill="#FFFFFF" fill-opacity="0.00000" points="3458.89,760.2369,3452.3963,778.0647,3464.3917,778.3954,3458.89,760.2369" style="stroke:#181818;stroke-width:1;"/></g><!--reverse link OptionalGonioAngleStarts to RotationScanPerSweep--><g id="link_OptionalGonioAngleStarts_RotationScanPerSweep"><path codeLine="167" d="M689.4002,214.3565 C697.5302,217.3665 688.86,213.7469 697,215.7869 C1190.78,339.5969 2499.42,129.4569 2987,275.7869 C3403.2,400.6869 3800.86,761.4369 3951.01,909.0469 " fill="#FFFFFF" fill-opacity="0.00000" id="OptionalGonioAngleStarts-backto-RotationScanPerSweep" style="stroke:#181818;stroke-width:1;"/><polygon fill="#FFFFFF" fill-opacity="0.00000" points="672.52,208.1069,687.317,219.9832,691.4834,208.7298,672.52,208.1069" style="stroke:#181818;stroke-width:1;"/></g><!--reverse link OptionalXyzStarts to RotationScanPerSweep--><g id="link_OptionalXyzStarts_RotationScanPerSweep"><path codeLine="168" d="M1553.8493,208.4691 C1565.7193,214.8591 1562.45,211.9869 1575,215.7869 C1725.29,261.2969 2855.29,190.2769 2987,275.7869 C3205.47,417.6269 3033.47,652.7969 3248,800.5369 C3361.46,878.6669 3736.67,810.4469 3865,860.5369 C3893.85,871.7969 3921.91,890.3269 3945.75,909.1369 " fill="#FFFFFF" fill-opacity="0.00000" id="OptionalXyzStarts-backto-RotationScanPerSweep" style="stroke:#181818;stroke-width:1;"/><polygon fill="#FFFFFF" fill-opacity="0.00000" points="1538,199.9369,1551.0053,213.7522,1556.6934,203.186,1538,199.9369" style="stroke:#181818;stroke-width:1;"/></g><!--reverse link WithScan to RotationScan--><g id="link_WithScan_RotationScan"><path codeLine="169" d="M1670.5593,189.3065 C1682.6593,203.8565 1688.8,207.4869 1709,215.7869 C1873.38,283.2769 4773.27,158.7669 4907,275.7869 C5006.47,362.8169 4952,437.5769 4952,569.7569 C4952,569.7569 4952,569.7569 4952,728.6469 C4952,903.6369 5030.1,995.4169 4907,1119.7969 C4878.74,1148.3569 4620.25,1167.7269 4498.67,1175.3369 " fill="#FFFFFF" fill-opacity="0.00000" id="WithScan-backto-RotationScan" style="stroke:#181818;stroke-width:1;"/><polygon fill="#FFFFFF" fill-opacity="0.00000" points="1659.05,175.4669,1665.9461,193.143,1675.1725,185.4701,1659.05,175.4669" style="stroke:#181818;stroke-width:1;"/></g><!--reverse link RotationScanPerSweep to RotationScan--><g id="link_RotationScanPerSweep_RotationScan"><path codeLine="170" d="M4075.6198,1052.6045 C4101.9098,1081.9545 4124.67,1100.9369 4163,1119.7969 C4240.77,1158.0669 4272.19,1125.7069 4356,1147.7969 C4364.07,1149.9269 4372.44,1152.6169 4380.59,1155.5169 " fill="#FFFFFF" fill-opacity="0.00000" id="RotationScanPerSweep-backto-RotationScan" style="stroke:#181818;stroke-width:1;"/><polygon fill="#FFFFFF" fill-opacity="0.00000" points="4063.61,1039.1969,4071.1506,1056.6078,4080.089,1048.6013,4063.61,1039.1969" style="stroke:#181818;stroke-width:1;"/></g><!--reverse link RotationExperiment to RotationScan--><g id="link_RotationExperiment_RotationScan"><path codeLine="171" d="M3738.009,1035.4021 C3772.479,1069.1121 3810.65,1099.2469 3865,1119.7969 C3967.22,1158.4569 4249.21,1124.5769 4356,1147.7969 C4364.74,1149.6969 4373.78,1152.4169 4382.49,1155.4769 " fill="#FFFFFF" fill-opacity="0.00000" id="RotationExperiment-backto-RotationScan" style="stroke:#181818;stroke-width:1;"/><polygon fill="#FFFFFF" fill-opacity="0.00000" points="3725.14,1022.8169,3733.8139,1039.6918,3742.2041,1031.1125,3725.14,1022.8169" style="stroke:#181818;stroke-width:1;"/></g><!--reverse link XyzStarts to SpecifiedGrid--><g id="link_XyzStarts_SpecifiedGrid"><path codeLine="172" d="M159.2977,210.0913 C168.2677,216.3813 163.15,211.7169 173,215.7869 C434.01,323.7269 1332.28,367.6569 1578.92,377.8469 " fill="#FFFFFF" fill-opacity="0.00000" id="XyzStarts-backto-SpecifiedGrid" style="stroke:#181818;stroke-width:1;"/><polygon fill="#FFFFFF" fill-opacity="0.00000" points="144.56,199.7569,155.8529,215.0039,162.7425,205.1788,144.56,199.7569" style="stroke:#181818;stroke-width:1;"/></g><!--reverse link WithScan to SpecifiedGrid--><g id="link_WithScan_SpecifiedGrid"><path codeLine="173" d="M1642,193.1769 C1642,236.9269 1642,313.2769 1642,357.0669 " fill="#FFFFFF" fill-opacity="0.00000" id="WithScan-backto-SpecifiedGrid" style="stroke:#181818;stroke-width:1;"/><polygon fill="#FFFFFF" fill-opacity="0.00000" points="1642,175.1769,1636,193.1769,1648,193.1769,1642,175.1769" style="stroke:#181818;stroke-width:1;"/></g><!--SRC=[bLTRRzis57wsVWNViW5BWFQv6v0wQJUWwOBQpGeK0K5Bnn8HYIH8AhNYvh_lK9HaoPHa5tc8USvtxXTI5-kC6xBbEH3ypqehBrCGe9c5X6mgqXweofcmPP5VgIgABBSey7UbG7Cfo3tJh00Bcjp91FB8W2K2AKQn65QWa6sb9a8AY2AaFR4KIB6Zcxm4yrHTnR8efBXIhHf3zf6LATWCLUwZE6V6aF-upLQiK3diemKNbfZwG7dYZp_9PzJVKbKPFutIkOXUUneVkE4M5HghoGPOaNFqiJuzEux_cO2b2JUMMaaTYCPIF8D6JwbYDlCWBWoIC1rKQTZoNRJOvf9rzb47n9Y5MX4JCT2Y67Yo164rPYj766f1dzPIVNvVtR7TKfR2TXnYwbyqhWLCfsIbScvNCKFHljwLOCfaqWLvZyuIqvpH4LrxL4MB77twNhlxsEMhXSa2KcPe0ccdzb_b_63vj-fbPPcsPdyKx8uQHwTbSSIefXWl1qRV-TRIBNPXMYqp9bBO1vajc4Wer10ApmC5zyXY7pLFV68QIUMeL9UYLAFr20CB8mf36ObXfI3cMmw9S-6eBeDAjO5-b8BBQv7cC9xPkXgD7LUI8LTbV98Np_2Uc59zhQ_u5mpW3TzkDQjRy7Rd9h_01cn6noqGwaQ-LGmx9KsfWLg4KUDHRivH1ZjRypG5xRO5iVutBV0mc5Wi3nLbiG4TBQxHdaLr3mnNHjUYzHn0Gbd3ROrRpOGfk35k6ftFqU8VewhDmUqrhYvSU4YZq16fHQhtrE1Su9BgpyX6ofoK1gYMt3lxEfUO_hfgWNUxztxZTGlJrNVb-jVo-06FRhoxDLXRoUcpfuSzjSuqm4tGt2aItlYnxPVQaT-6PDVOeAZXBt3Kt27rPHpxDfo4FicLr5in_b3r3o_jeSulnQi32UM6okqMVn-scmjpMTyJNQ0RkJlsnGL9V_34PZrYq8k_q0o_s7XSDOxx9U3-HkwxhBauXpUUZ_EBj2mOCQ_TPALrRI4L22xIBXpFrOqWvIBMK8TGb_dyODjKVv8iyRVHKkOkKlJWYzn8wnZh38HdeaMaKJIUK5mKehcGeiLTcLlUnk5QanIEGZiF3T8wQoEQqTuxpxoeOxluYzYC_MXZ7ka9DstjS-IckMdh8JFx0Tfvux2tIGeUDrpAhOwlDyiFm5nftOIsr8Rq8MSflfaQVYVVeYRdiri3n_b14zT2E08at-kxkC-z1xtw0Q0U_o2VGFnMS45p4AdD_dpp-oCP9FNWp3qNQwvyEbrYlsbMTSaTRzPX__KjToB1xTEYhtVuUknSONZgcXRrD1CvaBYfDwlRTvrOqfByPX2mAmrzJanZa1Vfg9VxUinEB67oxkVbvSXmHHDLdyIFx72F3QOcwjwNSu2-U-E8euVX77Goa11-pkoqIGW6z5JMGe63EOyvn_oybRCqd1_b-7OuxSA4pE3TwT4JggA9VU65JYoLUVzE2HyNPGetUCMUWZOV8VEmgRVzl5GuZXuVBDHZDqB0v1YFxf6e_o5r2ZSTrxHCRqsCWqQfCmA7rH9icLFuipRfeNMYgK-N07Z-C4xVNlCDFoCtx-NOhHS5dxapsFQBBeH4O_WPs75v1w0ZLmQ3UUJ3WFS_]--></g></svg>