<svg xmlns="http://www.w3.org/2000/svg" xmlns:xlink="http://www.w3.org/1999/xlink" contentStyleType="text/css" data-diagram-type="CLASS" height="1202px" preserveAspectRatio="none" style="width:4983px;height:1202px;background:#FFFFFF;" version="1.1" viewBox="0 0 4983 1202" width="4983px" zoomAndPan="magnify"><title>Hyperion Parameter Model</title><defs/><g><text fill="#000000" font-family="sans-serif" font-size="14" font-weight="bold" lengthAdjust="spacing" textLength="212.4951" x="2378.4174" y="22.9951">Hyperion Parameter Model</text><!--cluster mx_bluesky.common.parameters--><g id="cluster_mx_bluesky.common.parameters"><path d="M8.5,43.2969 L269.8125,43.2969 A3.75,3.75 0 0 1 272.3125,45.7969 L279.3125,65.5938 L3572.5,65.5938 A2.5,2.5 0 0 1 3575,68.0938 L3575,1076.6969 A2.5,2.5 0 0 1 3572.5,1079.1969 L8.5,1079.1969 A2.5,2.5 0 0 1 6,1076.6969 L6,45.7969 A2.5,2.5 0 0 1 8.5,43.2969 " fill="none" style="stroke:#000000;stroke-width:1.5;"/><line style="stroke:#000000;stroke-width:1.5;" x1="6" x2="279.3125" y1="65.5938" y2="65.5938"/><text fill="#000000" font-family="sans-serif" font-size="14" font-weight="bold" lengthAdjust="spacing" textLength="260.3125" x="10" y="58.292">mx_bluesky.common.parameters</text></g><!--cluster mx_bluesky.hyperion.parameters--><g id="cluster_mx_bluesky.hyperion.parameters"><path d="M3601.5,841.8269 L3866.0322,841.8269 A3.75,3.75 0 0 1 3868.5322,844.3269 L3875.5322,864.1238 L4896.5,864.1238 A2.5,2.5 0 0 1 4899,866.6238 L4899,1192.9969 A2.5,2.5 0 0 1 4896.5,1195.4969 L3601.5,1195.4969 A2.5,2.5 0 0 1 3599,1192.9969 L3599,844.3269 A2.5,2.5 0 0 1 3601.5,841.8269 " fill="none" style="stroke:#000000;stroke-width:1.5;"/><line style="stroke:#000000;stroke-width:1.5;" x1="3599" x2="3875.5322" y1="864.1238" y2="864.1238"/><text fill="#000000" font-family="sans-serif" font-size="14" font-weight="bold" lengthAdjust="spacing" textLength="263.5322" x="3603" y="856.822">mx_bluesky.hyperion.parameters</text></g><!--class SpecifiedGrid--><g id="elem_SpecifiedGrid"><rect codeLine="8" fill="#F1F1F1" height="48" id="SpecifiedGrid" rx="2.5" ry="2.5" style="stroke:#181818;stroke-width:0.5;" width="125.6729" x="854.16" y="349.1169"/><ellipse cx="869.16" cy="365.1169" fill="#ADD1B2" rx="11" ry="11" style="stroke:#181818;stroke-width:1;"/><path d="M872.1288,370.7575 Q871.5506,371.0544 870.91,371.195 Q870.2694,371.3513 869.5663,371.3513 Q867.0663,371.3513 865.7381,369.7106 Q864.4256,368.0544 864.4256,364.9294 Q864.4256,361.8044 865.7381,360.1481 Q867.0663,358.4919 869.5663,358.4919 Q870.2694,358.4919 870.91,358.6481 Q871.5663,358.8044 872.1288,359.1013 L872.1288,361.82 Q871.5038,361.2419 870.91,360.9763 Q870.3163,360.695 869.6913,360.695 Q868.3475,360.695 867.66,361.7731 Q866.9725,362.8356 866.9725,364.9294 Q866.9725,367.0231 867.66,368.1013 Q868.3475,369.1638 869.6913,369.1638 Q870.3163,369.1638 870.91,368.8981 Q871.5038,368.6169 872.1288,368.0388 L872.1288,370.7575 Z " fill="#000000"/><text fill="#000000" font-family="sans-serif" font-size="14" lengthAdjust="spacing" textLength="93.6729" x="883.16" y="369.9636">SpecifiedGrid</text><line style="stroke:#181818;stroke-width:0.5;" x1="855.16" x2="978.8329" y1="381.1169" y2="381.1169"/><line style="stroke:#181818;stroke-width:0.5;" x1="855.16" x2="978.8329" y1="389.1169" y2="389.1169"/></g><!--class SplitScan--><g id="elem_SplitScan"><rect codeLine="10" fill="#F1F1F1" height="48" id="SplitScan" rx="2.5" ry="2.5" style="stroke:#181818;stroke-width:0.5;" width="97.0781" x="305.46" y="127.0369"/><ellipse cx="320.46" cy="143.0369" fill="#ADD1B2" rx="11" ry="11" style="stroke:#181818;stroke-width:1;"/><path d="M323.4288,148.6775 Q322.8506,148.9744 322.21,149.115 Q321.5694,149.2713 320.8663,149.2713 Q318.3663,149.2713 317.0381,147.6306 Q315.7256,145.9744 315.7256,142.8494 Q315.7256,139.7244 317.0381,138.0681 Q318.3663,136.4119 320.8663,136.4119 Q321.5694,136.4119 322.21,136.5681 Q322.8663,136.7244 323.4288,137.0213 L323.4288,139.74 Q322.8038,139.1619 322.21,138.8963 Q321.6163,138.615 320.9913,138.615 Q319.6475,138.615 318.96,139.6931 Q318.2725,140.7556 318.2725,142.8494 Q318.2725,144.9431 318.96,146.0213 Q319.6475,147.0838 320.9913,147.0838 Q321.6163,147.0838 322.21,146.8181 Q322.8038,146.5369 323.4288,145.9588 L323.4288,148.6775 Z " fill="#000000"/><text fill="#000000" font-family="sans-serif" font-size="14" lengthAdjust="spacing" textLength="65.0781" x="334.46" y="147.8836">SplitScan</text><line style="stroke:#181818;stroke-width:0.5;" x1="306.46" x2="401.5381" y1="159.0369" y2="159.0369"/><line style="stroke:#181818;stroke-width:0.5;" x1="306.46" x2="401.5381" y1="167.0369" y2="167.0369"/></g><!--class WithSample--><g id="elem_WithSample"><rect codeLine="12" fill="#F1F1F1" height="96.8906" id="WithSample" rx="2.5" ry="2.5" style="stroke:#181818;stroke-width:0.5;" width="176.3086" x="1255.85" y="102.5869"/><ellipse cx="1297.7243" cy="118.5869" fill="#ADD1B2" rx="11" ry="11" style="stroke:#181818;stroke-width:1;"/><path d="M1300.6931,124.2275 Q1300.1149,124.5244 1299.4743,124.665 Q1298.8337,124.8212 1298.1306,124.8212 Q1295.6306,124.8212 1294.3024,123.1806 Q1292.9899,121.5244 1292.9899,118.3994 Q1292.9899,115.2744 1294.3024,113.6181 Q1295.6306,111.9619 1298.1306,111.9619 Q1298.8337,111.9619 1299.4743,112.1181 Q1300.1306,112.2744 1300.6931,112.5712 L1300.6931,115.29 Q1300.0681,114.7119 1299.4743,114.4462 Q1298.8806,114.165 1298.2556,114.165 Q1296.9118,114.165 1296.2243,115.2431 Q1295.5368,116.3056 1295.5368,118.3994 Q1295.5368,120.4931 1296.2243,121.5712 Q1296.9118,122.6337 1298.2556,122.6337 Q1298.8806,122.6337 1299.4743,122.3681 Q1300.0681,122.0869 1300.6931,121.5087 L1300.6931,124.2275 Z " fill="#000000"/><text fill="#000000" font-family="sans-serif" font-size="14" lengthAdjust="spacing" textLength="84.5879" x="1317.6964" y="123.4336">WithSample</text><line style="stroke:#181818;stroke-width:0.5;" x1="1256.85" x2="1431.1586" y1="134.5869" y2="134.5869"/><text fill="#000000" font-family="sans-serif" font-size="14" lengthAdjust="spacing" textLength="93.3789" x="1261.85" y="151.582">int sample_id</text><text fill="#000000" font-family="sans-serif" font-size="14" lengthAdjust="spacing" textLength="164.3086" x="1261.85" y="167.8789">int | None sample_puck</text><text fill="#000000" font-family="sans-serif" font-size="14" lengthAdjust="spacing" textLength="152.3936" x="1261.85" y="184.1757">int | None sample_pin</text><line style="stroke:#181818;stroke-width:0.5;" x1="1256.85" x2="1431.1586" y1="191.4775" y2="191.4775"/></g><!--class WithVisit--><g id="elem_WithVisit"><rect codeLine="17" fill="#F1F1F1" height="129.4844" id="WithVisit" rx="2.5" ry="2.5" style="stroke:#181818;stroke-width:0.5;" width="271.7861" x="1792.11" y="86.2969"/><ellipse cx="1892.6359" cy="102.2969" fill="#ADD1B2" rx="11" ry="11" style="stroke:#181818;stroke-width:1;"/><path d="M1895.6046,107.9375 Q1895.0265,108.2344 1894.3859,108.375 Q1893.7453,108.5313 1893.0421,108.5313 Q1890.5421,108.5313 1889.214,106.8906 Q1887.9015,105.2344 1887.9015,102.1094 Q1887.9015,98.9844 1889.214,97.3281 Q1890.5421,95.6719 1893.0421,95.6719 Q1893.7453,95.6719 1894.3859,95.8281 Q1895.0421,95.9844 1895.6046,96.2813 L1895.6046,99 Q1894.9796,98.4219 1894.3859,98.1563 Q1893.7921,97.875 1893.1671,97.875 Q1891.8234,97.875 1891.1359,98.9531 Q1890.4484,100.0156 1890.4484,102.1094 Q1890.4484,104.2031 1891.1359,105.2813 Q1891.8234,106.3438 1893.1671,106.3438 Q1893.7921,106.3438 1894.3859,106.0781 Q1894.9796,105.7969 1895.6046,105.2188 L1895.6046,107.9375 Z " fill="#000000"/><text fill="#000000" font-family="sans-serif" font-size="14" lengthAdjust="spacing" textLength="62.2344" x="1913.1359" y="107.1436">WithVisit</text><line style="stroke:#181818;stroke-width:0.5;" x1="1793.11" x2="2062.8961" y1="118.2969" y2="118.2969"/><text fill="#000000" font-family="sans-serif" font-size="14" lengthAdjust="spacing" textLength="87.9717" x="1798.11" y="135.292">str beamline</text><text fill="#000000" font-family="sans-serif" font-size="14" lengthAdjust="spacing" textLength="51.8369" x="1798.11" y="151.5889">str visit</text><text fill="#000000" font-family="sans-serif" font-size="14" lengthAdjust="spacing" textLength="259.7861" x="1798.11" y="167.8857">str det_dist_to_beam_converter_path</text><text fill="#000000" font-family="sans-serif" font-size="14" lengthAdjust="spacing" textLength="131.5918" x="1798.11" y="184.1826">str insertion_prefix</text><text fill="#000000" font-family="sans-serif" font-size="14" lengthAdjust="spacing" textLength="245.752" x="1798.11" y="200.4795">float | None detector_distance_mm</text><line style="stroke:#181818;stroke-width:0.5;" x1="1793.11" x2="2062.8961" y1="207.7813" y2="207.7813"/></g><!--class WithOptionalEnergyChange--><g id="elem_WithOptionalEnergyChange"><rect codeLine="24" fill="#F1F1F1" height="64.2969" id="WithOptionalEnergyChange" rx="2.5" ry="2.5" style="stroke:#181818;stroke-width:0.5;" width="235.4463" x="597.28" y="118.8869"/><ellipse cx="616.4645" cy="134.8869" fill="#ADD1B2" rx="11" ry="11" style="stroke:#181818;stroke-width:1;"/><path d="M619.4332,140.5275 Q618.8551,140.8244 618.2145,140.965 Q617.5738,141.1213 616.8707,141.1213 Q614.3707,141.1213 613.0426,139.4806 Q611.7301,137.8244 611.7301,134.6994 Q611.7301,131.5744 613.0426,129.9181 Q614.3707,128.2619 616.8707,128.2619 Q617.5738,128.2619 618.2145,128.4181 Q618.8707,128.5744 619.4332,128.8713 L619.4332,131.59 Q618.8082,131.0119 618.2145,130.7463 Q617.6207,130.465 616.9957,130.465 Q615.652,130.465 614.9645,131.5431 Q614.277,132.6056 614.277,134.6994 Q614.277,136.7931 614.9645,137.8713 Q615.652,138.9338 616.9957,138.9338 Q617.6207,138.9338 618.2145,138.6681 Q618.8082,138.3869 619.4332,137.8088 L619.4332,140.5275 Z " fill="#000000"/><text fill="#000000" font-family="sans-serif" font-size="14" lengthAdjust="spacing" textLength="194.1475" x="631.3944" y="139.7336">WithOptionalEnergyChange</text><line style="stroke:#181818;stroke-width:0.5;" x1="598.28" x2="831.7263" y1="150.8869" y2="150.8869"/><text fill="#000000" font-family="sans-serif" font-size="14" lengthAdjust="spacing" textLength="223.4463" x="603.28" y="167.882">float | None demand_energy_ev</text><line style="stroke:#181818;stroke-width:0.5;" x1="598.28" x2="831.7263" y1="175.1838" y2="175.1838"/></g><!--class WithPandaGridScan--><g id="elem_WithPandaGridScan"><rect codeLine="27" fill="#F1F1F1" height="64.2969" id="WithPandaGridScan" rx="2.5" ry="2.5" style="stroke:#181818;stroke-width:0.5;" width="240.5664" x="29.72" y="118.8869"/><ellipse cx="76.3172" cy="134.8869" fill="#ADD1B2" rx="11" ry="11" style="stroke:#181818;stroke-width:1;"/><path d="M79.2859,140.5275 Q78.7078,140.8244 78.0672,140.965 Q77.4265,141.1213 76.7234,141.1213 Q74.2234,141.1213 72.8953,139.4806 Q71.5828,137.8244 71.5828,134.6994 Q71.5828,131.5744 72.8953,129.9181 Q74.2234,128.2619 76.7234,128.2619 Q77.4265,128.2619 78.0672,128.4181 Q78.7234,128.5744 79.2859,128.8713 L79.2859,131.59 Q78.6609,131.0119 78.0672,130.7463 Q77.4734,130.465 76.8484,130.465 Q75.5047,130.465 74.8172,131.5431 Q74.1297,132.6056 74.1297,134.6994 Q74.1297,136.7931 74.8172,137.8713 Q75.5047,138.9338 76.8484,138.9338 Q77.4734,138.9338 78.0672,138.6681 Q78.6609,138.3869 79.2859,137.8088 L79.2859,140.5275 Z " fill="#000000"/><text fill="#000000" font-family="sans-serif" font-size="14" lengthAdjust="spacing" textLength="138.8721" x="96.8172" y="139.7336">WithPandaGridScan</text><line style="stroke:#181818;stroke-width:0.5;" x1="30.72" x2="269.2864" y1="150.8869" y2="150.8869"/><text fill="#000000" font-family="sans-serif" font-size="14" lengthAdjust="spacing" textLength="228.5664" x="35.72" y="167.882">float panda_runup_distance_mm</text><line style="stroke:#181818;stroke-width:0.5;" x1="30.72" x2="269.2864" y1="175.1838" y2="175.1838"/></g><!--class WithCentreSelection--><g id="elem_WithCentreSelection"><rect codeLine="30" fill="#F1F1F1" height="64.2969" id="WithCentreSelection" rx="2.5" ry="2.5" style="stroke:#181818;stroke-width:0.5;" width="306.7861" x="2309.61" y="118.8869"/><ellipse cx="2386.8869" cy="134.8869" fill="#ADD1B2" rx="11" ry="11" style="stroke:#181818;stroke-width:1;"/><path d="M2389.8556,140.5275 Q2389.2775,140.8244 2388.6369,140.965 Q2387.9962,141.1213 2387.2931,141.1213 Q2384.7931,141.1213 2383.465,139.4806 Q2382.1525,137.8244 2382.1525,134.6994 Q2382.1525,131.5744 2383.465,129.9181 Q2384.7931,128.2619 2387.2931,128.2619 Q2387.9962,128.2619 2388.6369,128.4181 Q2389.2931,128.5744 2389.8556,128.8713 L2389.8556,131.59 Q2389.2306,131.0119 2388.6369,130.7463 Q2388.0431,130.465 2387.4181,130.465 Q2386.0744,130.465 2385.3869,131.5431 Q2384.6994,132.6056 2384.6994,134.6994 Q2384.6994,136.7931 2385.3869,137.8713 Q2386.0744,138.9338 2387.4181,138.9338 Q2388.0431,138.9338 2388.6369,138.6681 Q2389.2306,138.3869 2389.8556,137.8088 L2389.8556,140.5275 Z " fill="#000000"/><text fill="#000000" font-family="sans-serif" font-size="14" lengthAdjust="spacing" textLength="143.7324" x="2407.3869" y="139.7336">WithCentreSelection</text><line style="stroke:#181818;stroke-width:0.5;" x1="2310.61" x2="2615.3961" y1="150.8869" y2="150.8869"/><text fill="#000000" font-family="sans-serif" font-size="14" lengthAdjust="spacing" textLength="294.7861" x="2315.61" y="167.882">TopNByMaxCountSelection select_centres</text><line style="stroke:#181818;stroke-width:0.5;" x1="2310.61" x2="2615.3961" y1="175.1838" y2="175.1838"/></g><!--class OptionalXyzStarts--><g id="elem_OptionalXyzStarts"><rect codeLine="33" fill="#F1F1F1" height="96.8906" id="OptionalXyzStarts" rx="2.5" ry="2.5" style="stroke:#181818;stroke-width:0.5;" width="175.4473" x="2099.28" y="102.5869"/><ellipse cx="2122.1713" cy="118.5869" fill="#ADD1B2" rx="11" ry="11" style="stroke:#181818;stroke-width:1;"/><path d="M2125.14,124.2275 Q2124.5619,124.5244 2123.9213,124.665 Q2123.2806,124.8212 2122.5775,124.8212 Q2120.0775,124.8212 2118.7494,123.1806 Q2117.4369,121.5244 2117.4369,118.3994 Q2117.4369,115.2744 2118.7494,113.6181 Q2120.0775,111.9619 2122.5775,111.9619 Q2123.2806,111.9619 2123.9213,112.1181 Q2124.5775,112.2744 2125.14,112.5712 L2125.14,115.29 Q2124.515,114.7119 2123.9213,114.4462 Q2123.3275,114.165 2122.7025,114.165 Q2121.3588,114.165 2120.6713,115.2431 Q2119.9838,116.3056 2119.9838,118.3994 Q2119.9838,120.4931 2120.6713,121.5712 Q2121.3588,122.6337 2122.7025,122.6337 Q2123.3275,122.6337 2123.9213,122.3681 Q2124.515,122.0869 2125.14,121.5087 L2125.14,124.2275 Z " fill="#000000"/><text fill="#000000" font-family="sans-serif" font-size="14" lengthAdjust="spacing" textLength="125.9111" x="2137.9249" y="123.4336">OptionalXyzStarts</text><line style="stroke:#181818;stroke-width:0.5;" x1="2100.28" x2="2273.7273" y1="134.5869" y2="134.5869"/><text fill="#000000" font-family="sans-serif" font-size="14" lengthAdjust="spacing" textLength="163.4473" x="2105.28" y="151.582">float | None x_start_um</text><text fill="#000000" font-family="sans-serif" font-size="14" lengthAdjust="spacing" textLength="163.4473" x="2105.28" y="167.8789">float | None y_start_um</text><text fill="#000000" font-family="sans-serif" font-size="14" lengthAdjust="spacing" textLength="162.5107" x="2105.28" y="184.1757">float | None z_start_um</text><line style="stroke:#181818;stroke-width:0.5;" x1="2100.28" x2="2273.7273" y1="191.4775" y2="191.4775"/></g><!--class WithSnapshot--><g id="elem_WithSnapshot"><rect codeLine="38" fill="#F1F1F1" height="80.5938" id="WithSnapshot" rx="2.5" ry="2.5" style="stroke:#181818;stroke-width:0.5;" width="289.3477" x="1467.33" y="110.7369"/><ellipse cx="1558.9828" cy="126.7369" fill="#ADD1B2" rx="11" ry="11" style="stroke:#181818;stroke-width:1;"/><path d="M1561.9516,132.3775 Q1561.3735,132.6744 1560.7328,132.815 Q1560.0922,132.9713 1559.3891,132.9713 Q1556.8891,132.9713 1555.561,131.3306 Q1554.2485,129.6744 1554.2485,126.5494 Q1554.2485,123.4244 1555.561,121.7681 Q1556.8891,120.1119 1559.3891,120.1119 Q1560.0922,120.1119 1560.7328,120.2681 Q1561.3891,120.4244 1561.9516,120.7213 L1561.9516,123.44 Q1561.3266,122.8619 1560.7328,122.5963 Q1560.1391,122.315 1559.5141,122.315 Q1558.1703,122.315 1557.4828,123.3931 Q1556.7953,124.4556 1556.7953,126.5494 Q1556.7953,128.6431 1557.4828,129.7213 Q1558.1703,130.7838 1559.5141,130.7838 Q1560.1391,130.7838 1560.7328,130.5181 Q1561.3266,130.2369 1561.9516,129.6588 L1561.9516,132.3775 Z " fill="#000000"/><text fill="#000000" font-family="sans-serif" font-size="14" lengthAdjust="spacing" textLength="97.542" x="1579.4828" y="131.5836">WithSnapshot</text><line style="stroke:#181818;stroke-width:0.5;" x1="1468.33" x2="1755.6777" y1="142.7369" y2="142.7369"/><text fill="#000000" font-family="sans-serif" font-size="14" lengthAdjust="spacing" textLength="169.627" x="1473.33" y="159.732">Path snapshot_directory</text><text fill="#000000" font-family="sans-serif" font-size="14" lengthAdjust="spacing" textLength="277.3477" x="1473.33" y="176.0289">list[float] | None snapshot_omegas_deg</text><line style="stroke:#181818;stroke-width:0.5;" x1="1468.33" x2="1755.6777" y1="183.3306" y2="183.3306"/></g><!--class OptionalGonioAngleStarts--><g id="elem_OptionalGonioAngleStarts"><rect codeLine="42" fill="#F1F1F1" height="113.1875" id="OptionalGonioAngleStarts" rx="2.5" ry="2.5" style="stroke:#181818;stroke-width:0.5;" width="219.3203" x="1001.34" y="94.4469"/><ellipse cx="1019.0633" cy="110.4469" fill="#ADD1B2" rx="11" ry="11" style="stroke:#181818;stroke-width:1;"/><path d="M1022.032,116.0875 Q1021.4539,116.3844 1020.8133,116.525 Q1020.1727,116.6813 1019.4695,116.6813 Q1016.9695,116.6813 1015.6414,115.0406 Q1014.3289,113.3844 1014.3289,110.2594 Q1014.3289,107.1344 1015.6414,105.4781 Q1016.9695,103.8219 1019.4695,103.8219 Q1020.1727,103.8219 1020.8133,103.9781 Q1021.4695,104.1344 1022.032,104.4313 L1022.032,107.15 Q1021.407,106.5719 1020.8133,106.3063 Q1020.2195,106.025 1019.5945,106.025 Q1018.2508,106.025 1017.5633,107.1031 Q1016.8758,108.1656 1016.8758,110.2594 Q1016.8758,112.3531 1017.5633,113.4313 Q1018.2508,114.4938 1019.5945,114.4938 Q1020.2195,114.4938 1020.8133,114.2281 Q1021.407,113.9469 1022.032,113.3688 L1022.032,116.0875 Z " fill="#000000"/><text fill="#000000" font-family="sans-serif" font-size="14" lengthAdjust="spacing" textLength="181.2686" x="1033.6685" y="115.2936">OptionalGonioAngleStarts</text><line style="stroke:#181818;stroke-width:0.5;" x1="1002.34" x2="1219.6603" y1="126.4469" y2="126.4469"/><text fill="#000000" font-family="sans-serif" font-size="14" lengthAdjust="spacing" textLength="207.3203" x="1007.34" y="143.442">float | None omega_start_deg</text><text fill="#000000" font-family="sans-serif" font-size="14" lengthAdjust="spacing" textLength="180.6875" x="1007.34" y="159.7389">float | None phi_start_deg</text><text fill="#000000" font-family="sans-serif" font-size="14" lengthAdjust="spacing" textLength="179.498" x="1007.34" y="176.0357">float | None chi_start_deg</text><text fill="#000000" font-family="sans-serif" font-size="14" lengthAdjust="spacing" textLength="202.0771" x="1007.34" y="192.3326">float | None kappa_start_deg</text><line style="stroke:#181818;stroke-width:0.5;" x1="1002.34" x2="1219.6603" y1="199.6344" y2="199.6344"/></g><!--class XyzStarts--><g id="elem_XyzStarts"><rect codeLine="48" fill="#F1F1F1" height="96.8906" id="XyzStarts" rx="2.5" ry="2.5" style="stroke:#181818;stroke-width:0.5;" width="125.3057" x="437.35" y="102.5869"/><ellipse cx="464.3141" cy="118.5869" fill="#ADD1B2" rx="11" ry="11" style="stroke:#181818;stroke-width:1;"/><path d="M467.2829,124.2275 Q466.7047,124.5244 466.0641,124.665 Q465.4235,124.8212 464.7204,124.8212 Q462.2204,124.8212 460.8922,123.1806 Q459.5797,121.5244 459.5797,118.3994 Q459.5797,115.2744 460.8922,113.6181 Q462.2204,111.9619 464.7204,111.9619 Q465.4235,111.9619 466.0641,112.1181 Q466.7204,112.2744 467.2829,112.5712 L467.2829,115.29 Q466.6579,114.7119 466.0641,114.4462 Q465.4704,114.165 464.8454,114.165 Q463.5016,114.165 462.8141,115.2431 Q462.1266,116.3056 462.1266,118.3994 Q462.1266,120.4931 462.8141,121.5712 Q463.5016,122.6337 464.8454,122.6337 Q465.4704,122.6337 466.0641,122.3681 Q466.6579,122.0869 467.2829,121.5087 L467.2829,124.2275 Z " fill="#000000"/><text fill="#000000" font-family="sans-serif" font-size="14" lengthAdjust="spacing" textLength="66.7188" x="480.9728" y="123.4336">XyzStarts</text><line style="stroke:#181818;stroke-width:0.5;" x1="438.35" x2="561.6557" y1="134.5869" y2="134.5869"/><text fill="#000000" font-family="sans-serif" font-size="14" lengthAdjust="spacing" textLength="113.3057" x="443.35" y="151.582">float x_start_um</text><text fill="#000000" font-family="sans-serif" font-size="14" lengthAdjust="spacing" textLength="113.3057" x="443.35" y="167.8789">float y_start_um</text><text fill="#000000" font-family="sans-serif" font-size="14" lengthAdjust="spacing" textLength="112.3691" x="443.35" y="184.1757">float z_start_um</text><line style="stroke:#181818;stroke-width:0.5;" x1="438.35" x2="561.6557" y1="191.4775" y2="191.4775"/></g><!--class WithScan--><g id="elem_WithScan"><rect codeLine="53" fill="#F1F1F1" height="48" id="WithScan" rx="2.5" ry="2.5" style="stroke:#181818;stroke-width:0.5;" width="98.1309" x="867.93" y="127.0369"/><ellipse cx="882.93" cy="143.0369" fill="#ADD1B2" rx="11" ry="11" style="stroke:#181818;stroke-width:1;"/><path d="M885.8988,148.6775 Q885.3206,148.9744 884.68,149.115 Q884.0394,149.2713 883.3363,149.2713 Q880.8363,149.2713 879.5081,147.6306 Q878.1956,145.9744 878.1956,142.8494 Q878.1956,139.7244 879.5081,138.0681 Q880.8363,136.4119 883.3363,136.4119 Q884.0394,136.4119 884.68,136.5681 Q885.3363,136.7244 885.8988,137.0213 L885.8988,139.74 Q885.2738,139.1619 884.68,138.8963 Q884.0863,138.615 883.4613,138.615 Q882.1175,138.615 881.43,139.6931 Q880.7425,140.7556 880.7425,142.8494 Q880.7425,144.9431 881.43,146.0213 Q882.1175,147.0838 883.4613,147.0838 Q884.0863,147.0838 884.68,146.8181 Q885.2738,146.5369 885.8988,145.9588 L885.8988,148.6775 Z " fill="#000000"/><text fill="#000000" font-family="sans-serif" font-size="14" lengthAdjust="spacing" textLength="66.1309" x="896.93" y="147.8836">WithScan</text><line style="stroke:#181818;stroke-width:0.5;" x1="868.93" x2="965.0609" y1="159.0369" y2="159.0369"/><line style="stroke:#181818;stroke-width:0.5;" x1="868.93" x2="965.0609" y1="167.0369" y2="167.0369"/></g><!--class GridScanWithEdgeDetect--><g id="elem_GridScanWithEdgeDetect"><rect codeLine="57" fill="#F1F1F1" height="64.2969" id="GridScanWithEdgeDetect" rx="2.5" ry="2.5" style="stroke:#181818;stroke-width:0.5;" width="209.4268" x="2847.29" y="909.4169"/><ellipse cx="2862.29" cy="925.4169" fill="#ADD1B2" rx="11" ry="11" style="stroke:#181818;stroke-width:1;"/><path d="M2865.2588,931.0575 Q2864.6806,931.3544 2864.04,931.495 Q2863.3994,931.6513 2862.6963,931.6513 Q2860.1963,931.6513 2858.8681,930.0106 Q2857.5556,928.3544 2857.5556,925.2294 Q2857.5556,922.1044 2858.8681,920.4481 Q2860.1963,918.7919 2862.6963,918.7919 Q2863.3994,918.7919 2864.04,918.9481 Q2864.6963,919.1044 2865.2588,919.4013 L2865.2588,922.12 Q2864.6338,921.5419 2864.04,921.2763 Q2863.4463,920.995 2862.8213,920.995 Q2861.4775,920.995 2860.79,922.0731 Q2860.1025,923.1356 2860.1025,925.2294 Q2860.1025,927.3231 2860.79,928.4013 Q2861.4775,929.4638 2862.8213,929.4638 Q2863.4463,929.4638 2864.04,929.1981 Q2864.6338,928.9169 2865.2588,928.3388 L2865.2588,931.0575 Z " fill="#000000"/><text fill="#000000" font-family="sans-serif" font-size="14" lengthAdjust="spacing" textLength="177.4268" x="2876.29" y="930.2636">GridScanWithEdgeDetect</text><line style="stroke:#181818;stroke-width:0.5;" x1="2848.29" x2="3055.7168" y1="941.4169" y2="941.4169"/><text fill="#000000" font-family="sans-serif" font-size="14" lengthAdjust="spacing" textLength="125.2959" x="2853.29" y="958.412">float box_size_um</text><line style="stroke:#181818;stroke-width:0.5;" x1="2848.29" x2="3055.7168" y1="965.7138" y2="965.7138"/></g><!--class DiffractionExperimentWithSample--><g id="elem_DiffractionExperimentWithSample"><rect codeLine="60" fill="#F1F1F1" height="48" id="DiffractionExperimentWithSample" rx="2.5" ry="2.5" style="stroke:#181818;stroke-width:0.5;" width="270.8545" x="2686.57" y="530.4469"/><ellipse cx="2701.57" cy="546.4469" fill="#ADD1B2" rx="11" ry="11" style="stroke:#181818;stroke-width:1;"/><path d="M2704.5388,552.0875 Q2703.9606,552.3844 2703.32,552.525 Q2702.6794,552.6813 2701.9763,552.6813 Q2699.4763,552.6813 2698.1481,551.0406 Q2696.8356,549.3844 2696.8356,546.2594 Q2696.8356,543.1344 2698.1481,541.4781 Q2699.4763,539.8219 2701.9763,539.8219 Q2702.6794,539.8219 2703.32,539.9781 Q2703.9763,540.1344 2704.5388,540.4313 L2704.5388,543.15 Q2703.9138,542.5719 2703.32,542.3063 Q2702.7263,542.025 2702.1013,542.025 Q2700.7575,542.025 2700.07,543.1031 Q2699.3825,544.1656 2699.3825,546.2594 Q2699.3825,548.3531 2700.07,549.4313 Q2700.7575,550.4938 2702.1013,550.4938 Q2702.7263,550.4938 2703.32,550.2281 Q2703.9138,549.9469 2704.5388,549.3688 L2704.5388,552.0875 Z " fill="#000000"/><text fill="#000000" font-family="sans-serif" font-size="14" lengthAdjust="spacing" textLength="238.8545" x="2715.57" y="551.2936">DiffractionExperimentWithSample</text><line style="stroke:#181818;stroke-width:0.5;" x1="2687.57" x2="2956.4245" y1="562.4469" y2="562.4469"/><line style="stroke:#181818;stroke-width:0.5;" x1="2687.57" x2="2956.4245" y1="570.4469" y2="570.4469"/></g><!--class MxBlueskyParameters--><g id="elem_MxBlueskyParameters"><rect codeLine="62" fill="#F1F1F1" height="64.2969" id="MxBlueskyParameters" rx="2.5" ry="2.5" style="stroke:#181818;stroke-width:0.5;" width="317.4639" x="2942.27" y="118.8869"/><ellipse cx="3018.8564" cy="134.8869" fill="#ADD1B2" rx="11" ry="11" style="stroke:#181818;stroke-width:1;"/><path d="M3021.8252,140.5275 Q3021.2471,140.8244 3020.6064,140.965 Q3019.9658,141.1213 3019.2627,141.1213 Q3016.7627,141.1213 3015.4346,139.4806 Q3014.1221,137.8244 3014.1221,134.6994 Q3014.1221,131.5744 3015.4346,129.9181 Q3016.7627,128.2619 3019.2627,128.2619 Q3019.9658,128.2619 3020.6064,128.4181 Q3021.2627,128.5744 3021.8252,128.8713 L3021.8252,131.59 Q3021.2002,131.0119 3020.6064,130.7463 Q3020.0127,130.465 3019.3877,130.465 Q3018.0439,130.465 3017.3564,131.5431 Q3016.6689,132.6056 3016.6689,134.6994 Q3016.6689,136.7931 3017.3564,137.8713 Q3018.0439,138.9338 3019.3877,138.9338 Q3020.0127,138.9338 3020.6064,138.6681 Q3021.2002,138.3869 3021.8252,137.8088 L3021.8252,140.5275 Z " fill="#000000"/><text fill="#000000" font-family="sans-serif" font-size="14" lengthAdjust="spacing" textLength="155.791" x="3039.3564" y="139.7336">MxBlueskyParameters</text><line style="stroke:#181818;stroke-width:0.5;" x1="2943.27" x2="3258.7339" y1="150.8869" y2="150.8869"/><text fill="#000000" font-family="sans-serif" font-size="14" lengthAdjust="spacing" textLength="305.4639" x="2948.27" y="167.882">SemanticVersion parameter_model_version</text><line style="stroke:#181818;stroke-width:0.5;" x1="2943.27" x2="3258.7339" y1="175.1838" y2="175.1838"/></g><!--class ThreeDGridScan--><g id="elem_ThreeDGridScan"><rect codeLine="65" fill="#F1F1F1" height="227.2656" id="ThreeDGridScan" rx="2.5" ry="2.5" style="stroke:#181818;stroke-width:0.5;" width="172.8975" x="2639.55" y="827.9369"/><ellipse cx="2666.3818" cy="843.9369" fill="#ADD1B2" rx="11" ry="11" style="stroke:#181818;stroke-width:1;"/><path d="M2669.3506,849.5775 Q2668.7725,849.8744 2668.1318,850.015 Q2667.4912,850.1713 2666.7881,850.1713 Q2664.2881,850.1713 2662.96,848.5306 Q2661.6475,846.8744 2661.6475,843.7494 Q2661.6475,840.6244 2662.96,838.9681 Q2664.2881,837.3119 2666.7881,837.3119 Q2667.4912,837.3119 2668.1318,837.4681 Q2668.7881,837.6244 2669.3506,837.9213 L2669.3506,840.64 Q2668.7256,840.0619 2668.1318,839.7963 Q2667.5381,839.515 2666.9131,839.515 Q2665.5693,839.515 2664.8818,840.5931 Q2664.1943,841.6556 2664.1943,843.7494 Q2664.1943,845.8431 2664.8818,846.9213 Q2665.5693,847.9838 2666.9131,847.9838 Q2667.5381,847.9838 2668.1318,847.7181 Q2668.7256,847.4369 2669.3506,846.8588 L2669.3506,849.5775 Z " fill="#000000"/><text fill="#000000" font-family="sans-serif" font-size="14" lengthAdjust="spacing" textLength="114.6045" x="2683.0111" y="848.7836">ThreeDGridScan</text><line style="stroke:#181818;stroke-width:0.5;" x1="2640.55" x2="2811.4475" y1="859.9369" y2="859.9369"/><text fill="#000000" font-family="sans-serif" font-size="14" lengthAdjust="spacing" textLength="160.8975" x="2645.55" y="876.932">float grid1_omega_deg</text><text fill="#000000" font-family="sans-serif" font-size="14" lengthAdjust="spacing" textLength="160.8975" x="2645.55" y="893.2289">float grid2_omega_deg</text><text fill="#000000" font-family="sans-serif" font-size="14" lengthAdjust="spacing" textLength="145.127" x="2645.55" y="909.5257">float x_step_size_um</text><text fill="#000000" font-family="sans-serif" font-size="14" lengthAdjust="spacing" textLength="145.127" x="2645.55" y="925.8226">float y_step_size_um</text><text fill="#000000" font-family="sans-serif" font-size="14" lengthAdjust="spacing" textLength="144.1904" x="2645.55" y="942.1195">float z_step_size_um</text><text fill="#000000" font-family="sans-serif" font-size="14" lengthAdjust="spacing" textLength="122.2129" x="2645.55" y="958.4164">float y2_start_um</text><text fill="#000000" font-family="sans-serif" font-size="14" lengthAdjust="spacing" textLength="121.2764" x="2645.55" y="974.7132">float z2_start_um</text><text fill="#000000" font-family="sans-serif" font-size="14" lengthAdjust="spacing" textLength="75.5645" x="2645.55" y="991.0101">int x_steps</text><text fill="#000000" font-family="sans-serif" font-size="14" lengthAdjust="spacing" textLength="75.5645" x="2645.55" y="1007.307">int y_steps</text><text fill="#000000" font-family="sans-serif" font-size="14" lengthAdjust="spacing" textLength="74.6279" x="2645.55" y="1023.6039">int z_steps</text><text fill="#000000" font-family="sans-serif" font-size="14" lengthAdjust="spacing" textLength="154.4102" x="2645.55" y="1039.9007">bool _set_stub_offsets</text><line style="stroke:#181818;stroke-width:0.5;" x1="2640.55" x2="2811.4475" y1="1047.2025" y2="1047.2025"/></g><!--class RobotLoadThenCentre--><g id="elem_RobotLoadThenCentre"><rect codeLine="78" fill="#F1F1F1" height="64.2969" id="RobotLoadThenCentre" rx="2.5" ry="2.5" style="stroke:#181818;stroke-width:0.5;" width="189.0967" x="3091.45" y="909.4169"/><ellipse cx="3106.45" cy="925.4169" fill="#ADD1B2" rx="11" ry="11" style="stroke:#181818;stroke-width:1;"/><path d="M3109.4188,931.0575 Q3108.8406,931.3544 3108.2,931.495 Q3107.5594,931.6513 3106.8563,931.6513 Q3104.3563,931.6513 3103.0281,930.0106 Q3101.7156,928.3544 3101.7156,925.2294 Q3101.7156,922.1044 3103.0281,920.4481 Q3104.3563,918.7919 3106.8563,918.7919 Q3107.5594,918.7919 3108.2,918.9481 Q3108.8563,919.1044 3109.4188,919.4013 L3109.4188,922.12 Q3108.7938,921.5419 3108.2,921.2763 Q3107.6063,920.995 3106.9813,920.995 Q3105.6375,920.995 3104.95,922.0731 Q3104.2625,923.1356 3104.2625,925.2294 Q3104.2625,927.3231 3104.95,928.4013 Q3105.6375,929.4638 3106.9813,929.4638 Q3107.6063,929.4638 3108.2,929.1981 Q3108.7938,928.9169 3109.4188,928.3388 L3109.4188,931.0575 Z " fill="#000000"/><text fill="#000000" font-family="sans-serif" font-size="14" lengthAdjust="spacing" textLength="157.0967" x="3120.45" y="930.2636">RobotLoadThenCentre</text><line style="stroke:#181818;stroke-width:0.5;" x1="3092.45" x2="3279.5467" y1="941.4169" y2="941.4169"/><text fill="#000000" font-family="sans-serif" font-size="14" lengthAdjust="spacing" textLength="130.5732" x="3097.45" y="958.412">float thawing_time</text><line style="stroke:#181818;stroke-width:0.5;" x1="3092.45" x2="3279.5467" y1="965.7138" y2="965.7138"/></g><!--class DiffractionExperiment--><g id="elem_DiffractionExperiment"><rect codeLine="81" fill="#F1F1F1" height="194.6719" id="DiffractionExperiment" rx="2.5" ry="2.5" style="stroke:#181818;stroke-width:0.5;" width="332.332" x="2639.83" y="275.7769"/><ellipse cx="2724.6127" cy="291.7769" fill="#ADD1B2" rx="11" ry="11" style="stroke:#181818;stroke-width:1;"/><path d="M2727.5815,297.4175 Q2727.0033,297.7144 2726.3627,297.855 Q2725.7221,298.0113 2725.019,298.0113 Q2722.519,298.0113 2721.1908,296.3706 Q2719.8783,294.7144 2719.8783,291.5894 Q2719.8783,288.4644 2721.1908,286.8081 Q2722.519,285.1519 2725.019,285.1519 Q2725.7221,285.1519 2726.3627,285.3081 Q2727.019,285.4644 2727.5815,285.7613 L2727.5815,288.48 Q2726.9565,287.9019 2726.3627,287.6363 Q2725.769,287.355 2725.144,287.355 Q2723.8002,287.355 2723.1127,288.4331 Q2722.4252,289.4956 2722.4252,291.5894 Q2722.4252,293.6831 2723.1127,294.7613 Q2723.8002,295.8238 2725.144,295.8238 Q2725.769,295.8238 2726.3627,295.5581 Q2726.9565,295.2769 2727.5815,294.6988 L2727.5815,297.4175 Z " fill="#000000"/><text fill="#000000" font-family="sans-serif" font-size="14" lengthAdjust="spacing" textLength="154.2666" x="2745.1127" y="296.6236">DiffractionExperiment</text><line style="stroke:#181818;stroke-width:0.5;" x1="2640.83" x2="2971.162" y1="307.7769" y2="307.7769"/><text fill="#000000" font-family="sans-serif" font-size="14" lengthAdjust="spacing" textLength="91.0137" x="2645.83" y="324.772">str file_name</text><text fill="#000000" font-family="sans-serif" font-size="14" lengthAdjust="spacing" textLength="153.7129" x="2645.83" y="341.0689">float exposure_time_s</text><text fill="#000000" font-family="sans-serif" font-size="14" lengthAdjust="spacing" textLength="89.5029" x="2645.83" y="357.3657">str comment</text><text fill="#000000" font-family="sans-serif" font-size="14" lengthAdjust="spacing" textLength="186.915" x="2645.83" y="373.6626">TriggerMode trigger_mode</text><text fill="#000000" font-family="sans-serif" font-size="14" lengthAdjust="spacing" textLength="157.9854" x="2645.83" y="389.9595">int | None run_number</text><text fill="#000000" font-family="sans-serif" font-size="14" lengthAdjust="spacing" textLength="282.3516" x="2645.83" y="406.2564">ApertureValue | None selected_aperture</text><text fill="#000000" font-family="sans-serif" font-size="14" lengthAdjust="spacing" textLength="159.2979" x="2645.83" y="422.5532">float transmission_frac</text><text fill="#000000" font-family="sans-serif" font-size="14" lengthAdjust="spacing" textLength="320.332" x="2645.83" y="438.8501">IspybExperimentType ispyb_experiment_type</text><text fill="#000000" font-family="sans-serif" font-size="14" lengthAdjust="spacing" textLength="146.1113" x="2645.83" y="455.147">str storage_directory</text><line style="stroke:#181818;stroke-width:0.5;" x1="2640.83" x2="2971.162" y1="462.4488" y2="462.4488"/></g><!--class GridCommon--><g id="elem_GridCommon"><rect codeLine="92" fill="#F1F1F1" height="129.4844" id="GridCommon" rx="2.5" ry="2.5" style="stroke:#181818;stroke-width:0.5;" width="332.332" x="2728.83" y="638.4469"/><ellipse cx="2844.5282" cy="654.4469" fill="#ADD1B2" rx="11" ry="11" style="stroke:#181818;stroke-width:1;"/><path d="M2847.497,660.0875 Q2846.9189,660.3844 2846.2782,660.525 Q2845.6376,660.6813 2844.9345,660.6813 Q2842.4345,660.6813 2841.1064,659.0406 Q2839.7939,657.3844 2839.7939,654.2594 Q2839.7939,651.1344 2841.1064,649.4781 Q2842.4345,647.8219 2844.9345,647.8219 Q2845.6376,647.8219 2846.2782,647.9781 Q2846.9345,648.1344 2847.497,648.4313 L2847.497,651.15 Q2846.872,650.5719 2846.2782,650.3063 Q2845.6845,650.025 2845.0595,650.025 Q2843.7157,650.025 2843.0282,651.1031 Q2842.3407,652.1656 2842.3407,654.2594 Q2842.3407,656.3531 2843.0282,657.4313 Q2843.7157,658.4938 2845.0595,658.4938 Q2845.6845,658.4938 2846.2782,658.2281 Q2846.872,657.9469 2847.497,657.3688 L2847.497,660.0875 Z " fill="#000000"/><text fill="#000000" font-family="sans-serif" font-size="14" lengthAdjust="spacing" textLength="92.4355" x="2865.0282" y="659.2936">GridCommon</text><line style="stroke:#181818;stroke-width:0.5;" x1="2729.83" x2="3060.162" y1="670.4469" y2="670.4469"/><text fill="#000000" font-family="sans-serif" font-size="14" lengthAdjust="spacing" textLength="138.4209" x="2734.83" y="687.442">float grid_width_um</text><text fill="#000000" font-family="sans-serif" font-size="14" lengthAdjust="spacing" textLength="153.7129" x="2734.83" y="703.7389">float exposure_time_s</text><text fill="#000000" font-family="sans-serif" font-size="14" lengthAdjust="spacing" textLength="131.0518" x="2734.83" y="720.0357">bool use_roi_mode</text><text fill="#000000" font-family="sans-serif" font-size="14" lengthAdjust="spacing" textLength="320.332" x="2734.83" y="736.3326">IspybExperimentType ispyb_experiment_type</text><text fill="#000000" font-family="sans-serif" font-size="14" lengthAdjust="spacing" textLength="282.3516" x="2734.83" y="752.6295">ApertureValue | None selected_aperture</text><line style="stroke:#181818;stroke-width:0.5;" x1="2729.83" x2="3060.162" y1="759.9313" y2="759.9313"/></g><!--class PinTipCentreThenXrayCentre--><g id="elem_PinTipCentreThenXrayCentre"><rect codeLine="99" fill="#F1F1F1" height="64.2969" id="PinTipCentreThenXrayCentre" rx="2.5" ry="2.5" style="stroke:#181818;stroke-width:0.5;" width="235.8955" x="3315.05" y="909.4169"/><ellipse cx="3330.05" cy="925.4169" fill="#ADD1B2" rx="11" ry="11" style="stroke:#181818;stroke-width:1;"/><path d="M3333.0188,931.0575 Q3332.4406,931.3544 3331.8,931.495 Q3331.1594,931.6513 3330.4563,931.6513 Q3327.9563,931.6513 3326.6281,930.0106 Q3325.3156,928.3544 3325.3156,925.2294 Q3325.3156,922.1044 3326.6281,920.4481 Q3327.9563,918.7919 3330.4563,918.7919 Q3331.1594,918.7919 3331.8,918.9481 Q3332.4563,919.1044 3333.0188,919.4013 L3333.0188,922.12 Q3332.3938,921.5419 3331.8,921.2763 Q3331.2063,920.995 3330.5813,920.995 Q3329.2375,920.995 3328.55,922.0731 Q3327.8625,923.1356 3327.8625,925.2294 Q3327.8625,927.3231 3328.55,928.4013 Q3329.2375,929.4638 3330.5813,929.4638 Q3331.2063,929.4638 3331.8,929.1981 Q3332.3938,928.9169 3333.0188,928.3388 L3333.0188,931.0575 Z " fill="#000000"/><text fill="#000000" font-family="sans-serif" font-size="14" lengthAdjust="spacing" textLength="203.8955" x="3344.05" y="930.2636">PinTipCentreThenXrayCentre</text><line style="stroke:#181818;stroke-width:0.5;" x1="3316.05" x2="3549.9455" y1="941.4169" y2="941.4169"/><text fill="#000000" font-family="sans-serif" font-size="14" lengthAdjust="spacing" textLength="130.498" x="3321.05" y="958.412">float tip_offset_um</text><line style="stroke:#181818;stroke-width:0.5;" x1="3316.05" x2="3549.9455" y1="965.7138" y2="965.7138"/></g><!--class MultiRotationScan--><g id="elem_MultiRotationScan"><rect codeLine="105" fill="#F1F1F1" height="64.2969" id="MultiRotationScan" rx="2.5" ry="2.5" style="stroke:#181818;stroke-width:0.5;" width="540.001" x="3860" y="1115.1969"/><ellipse cx="4062.0327" cy="1131.1969" fill="#ADD1B2" rx="11" ry="11" style="stroke:#181818;stroke-width:1;"/><path d="M4065.0015,1136.8375 Q4064.4233,1137.1344 4063.7827,1137.275 Q4063.1421,1137.4313 4062.439,1137.4313 Q4059.939,1137.4313 4058.6108,1135.7906 Q4057.2983,1134.1344 4057.2983,1131.0094 Q4057.2983,1127.8844 4058.6108,1126.2281 Q4059.939,1124.5719 4062.439,1124.5719 Q4063.1421,1124.5719 4063.7827,1124.7281 Q4064.439,1124.8844 4065.0015,1125.1813 L4065.0015,1127.9 Q4064.3765,1127.3219 4063.7827,1127.0563 Q4063.189,1126.775 4062.564,1126.775 Q4061.2202,1126.775 4060.5327,1127.8531 Q4059.8452,1128.9156 4059.8452,1131.0094 Q4059.8452,1133.1031 4060.5327,1134.1813 Q4061.2202,1135.2438 4062.564,1135.2438 Q4063.189,1135.2438 4063.7827,1134.9781 Q4064.3765,1134.6969 4065.0015,1134.1188 L4065.0015,1136.8375 Z " fill="#000000"/><text fill="#000000" font-family="sans-serif" font-size="14" lengthAdjust="spacing" textLength="127.4355" x="4082.5327" y="1136.0436">MultiRotationScan</text><line style="stroke:#181818;stroke-width:0.5;" x1="3861" x2="4399.001" y1="1147.1969" y2="1147.1969"/><line style="stroke:#181818;stroke-width:0.5;" x1="3861" x2="4399.001" y1="1155.1969" y2="1155.1969"/><text fill="#000000" font-family="sans-serif" font-size="14" lengthAdjust="spacing" textLength="528.001" x="3866" y="1172.192">Annotated[list[RotationScanPerSweep], Len(min_length=1)] rotation_scans</text></g><!--class RotationScanPerSweep--><g id="elem_RotationScanPerSweep"><rect codeLine="108" fill="#F1F1F1" height="129.4844" id="RotationScanPerSweep" rx="2.5" ry="2.5" style="stroke:#181818;stroke-width:0.5;" width="263.0498" x="4246.48" y="876.8269"/><ellipse cx="4292.5166" cy="892.8269" fill="#ADD1B2" rx="11" ry="11" style="stroke:#181818;stroke-width:1;"/><path d="M4295.4854,898.4675 Q4294.9072,898.7644 4294.2666,898.905 Q4293.626,899.0613 4292.9229,899.0613 Q4290.4229,899.0613 4289.0947,897.4206 Q4287.7822,895.7644 4287.7822,892.6394 Q4287.7822,889.5144 4289.0947,887.8581 Q4290.4229,886.2019 4292.9229,886.2019 Q4293.626,886.2019 4294.2666,886.3581 Q4294.9229,886.5144 4295.4854,886.8113 L4295.4854,889.53 Q4294.8604,888.9519 4294.2666,888.6863 Q4293.6729,888.405 4293.0479,888.405 Q4291.7041,888.405 4291.0166,889.4831 Q4290.3291,890.5456 4290.3291,892.6394 Q4290.3291,894.7331 4291.0166,895.8113 Q4291.7041,896.8738 4293.0479,896.8738 Q4293.6729,896.8738 4294.2666,896.6081 Q4294.8604,896.3269 4295.4854,895.7488 L4295.4854,898.4675 Z " fill="#000000"/><text fill="#000000" font-family="sans-serif" font-size="14" lengthAdjust="spacing" textLength="162.4766" x="4313.0166" y="897.6736">RotationScanPerSweep</text><line style="stroke:#181818;stroke-width:0.5;" x1="4247.48" x2="4508.5298" y1="908.8269" y2="908.8269"/><text fill="#000000" font-family="sans-serif" font-size="14" lengthAdjust="spacing" textLength="157.1787" x="4252.48" y="925.822">float omega_start_deg</text><text fill="#000000" font-family="sans-serif" font-size="14" lengthAdjust="spacing" textLength="182.9297" x="4252.48" y="942.1189">RotationAxis rotation_axis</text><text fill="#000000" font-family="sans-serif" font-size="14" lengthAdjust="spacing" textLength="147.3213" x="4252.48" y="958.4157">float scan_width_deg</text><text fill="#000000" font-family="sans-serif" font-size="14" lengthAdjust="spacing" textLength="251.0498" x="4252.48" y="974.7126">RotationDirection rotation_direction</text><text fill="#000000" font-family="sans-serif" font-size="14" lengthAdjust="spacing" textLength="169.1279" x="4252.48" y="991.0095">int nexus_vds_start_img</text><line style="stroke:#181818;stroke-width:0.5;" x1="4247.48" x2="4508.5298" y1="998.3113" y2="998.3113"/></g><!--class RotationScan--><g id="elem_RotationScan"><rect codeLine="115" fill="#F1F1F1" height="48" id="RotationScan" rx="2.5" ry="2.5" style="stroke:#181818;stroke-width:0.5;" width="125.2148" x="4435.39" y="1123.3469"/><ellipse cx="4450.39" cy="1139.3469" fill="#ADD1B2" rx="11" ry="11" style="stroke:#181818;stroke-width:1;"/><path d="M4453.3588,1144.9875 Q4452.7806,1145.2844 4452.14,1145.425 Q4451.4994,1145.5813 4450.7963,1145.5813 Q4448.2963,1145.5813 4446.9681,1143.9406 Q4445.6556,1142.2844 4445.6556,1139.1594 Q4445.6556,1136.0344 4446.9681,1134.3781 Q4448.2963,1132.7219 4450.7963,1132.7219 Q4451.4994,1132.7219 4452.14,1132.8781 Q4452.7963,1133.0344 4453.3588,1133.3313 L4453.3588,1136.05 Q4452.7338,1135.4719 4452.14,1135.2063 Q4451.5463,1134.925 4450.9213,1134.925 Q4449.5775,1134.925 4448.89,1136.0031 Q4448.2025,1137.0656 4448.2025,1139.1594 Q4448.2025,1141.2531 4448.89,1142.3313 Q4449.5775,1143.3938 4450.9213,1143.3938 Q4451.5463,1143.3938 4452.14,1143.1281 Q4452.7338,1142.8469 4453.3588,1142.2688 L4453.3588,1144.9875 Z " fill="#000000"/><text fill="#000000" font-family="sans-serif" font-size="14" lengthAdjust="spacing" textLength="93.2148" x="4464.39" y="1144.1936">RotationScan</text><line style="stroke:#181818;stroke-width:0.5;" x1="4436.39" x2="4559.6048" y1="1155.3469" y2="1155.3469"/><line style="stroke:#181818;stroke-width:0.5;" x1="4436.39" x2="4559.6048" y1="1163.3469" y2="1163.3469"/></g><!--class RotationExperiment--><g id="elem_RotationExperiment"><rect codeLine="117" fill="#F1F1F1" height="96.8906" id="RotationExperiment" rx="2.5" ry="2.5" style="stroke:#181818;stroke-width:0.5;" width="332.332" x="3878.83" y="893.1269"/><ellipse cx="3970.7118" cy="909.1269" fill="#ADD1B2" rx="11" ry="11" style="stroke:#181818;stroke-width:1;"/><path d="M3973.6806,914.7675 Q3973.1025,915.0644 3972.4618,915.205 Q3971.8212,915.3613 3971.1181,915.3613 Q3968.6181,915.3613 3967.29,913.7206 Q3965.9775,912.0644 3965.9775,908.9394 Q3965.9775,905.8144 3967.29,904.1581 Q3968.6181,902.5019 3971.1181,902.5019 Q3971.8212,902.5019 3972.4618,902.6581 Q3973.1181,902.8144 3973.6806,903.1113 L3973.6806,905.83 Q3973.0556,905.2519 3972.4618,904.9863 Q3971.8681,904.705 3971.2431,904.705 Q3969.8993,904.705 3969.2118,905.7831 Q3968.5243,906.8456 3968.5243,908.9394 Q3968.5243,911.0331 3969.2118,912.1113 Q3969.8993,913.1738 3971.2431,913.1738 Q3971.8681,913.1738 3972.4618,912.9081 Q3973.0556,912.6269 3973.6806,912.0488 L3973.6806,914.7675 Z " fill="#000000"/><text fill="#000000" font-family="sans-serif" font-size="14" lengthAdjust="spacing" textLength="140.0684" x="3991.2118" y="913.9736">RotationExperiment</text><line style="stroke:#181818;stroke-width:0.5;" x1="3879.83" x2="4210.162" y1="925.1269" y2="925.1269"/><text fill="#000000" font-family="sans-serif" font-size="14" lengthAdjust="spacing" textLength="202.8018" x="3884.83" y="942.122">float shutter_opening_time_s</text><text fill="#000000" font-family="sans-serif" font-size="14" lengthAdjust="spacing" textLength="202.9385" x="3884.83" y="958.4189">float rotation_increment_deg</text><text fill="#000000" font-family="sans-serif" font-size="14" lengthAdjust="spacing" textLength="320.332" x="3884.83" y="974.7157">IspybExperimentType ispyb_experiment_type</text><line style="stroke:#181818;stroke-width:0.5;" x1="3879.83" x2="4210.162" y1="982.0175" y2="982.0175"/></g><!--class LoadCentreCollect--><g id="elem_LoadCentreCollect"><rect codeLine="122" fill="#F1F1F1" height="80.5938" id="LoadCentreCollect" rx="2.5" ry="2.5" style="stroke:#181818;stroke-width:0.5;" width="338.6211" x="4544.69" y="901.2669"/><ellipse cx="4645.315" cy="917.2669" fill="#ADD1B2" rx="11" ry="11" style="stroke:#181818;stroke-width:1;"/><path d="M4648.2838,922.9075 Q4647.7056,923.2044 4647.065,923.345 Q4646.4244,923.5013 4645.7213,923.5013 Q4643.2213,923.5013 4641.8931,921.8606 Q4640.5806,920.2044 4640.5806,917.0794 Q4640.5806,913.9544 4641.8931,912.2981 Q4643.2213,910.6419 4645.7213,910.6419 Q4646.4244,910.6419 4647.065,910.7981 Q4647.7213,910.9544 4648.2838,911.2513 L4648.2838,913.97 Q4647.6588,913.3919 4647.065,913.1263 Q4646.4713,912.845 4645.8463,912.845 Q4644.5025,912.845 4643.815,913.9231 Q4643.1275,914.9856 4643.1275,917.0794 Q4643.1275,919.1731 4643.815,920.2513 Q4644.5025,921.3138 4645.8463,921.3138 Q4646.4713,921.3138 4647.065,921.0481 Q4647.6588,920.7669 4648.2838,920.1888 L4648.2838,922.9075 Z " fill="#000000"/><text fill="#000000" font-family="sans-serif" font-size="14" lengthAdjust="spacing" textLength="128.8711" x="4665.815" y="922.1136">LoadCentreCollect</text><line style="stroke:#181818;stroke-width:0.5;" x1="4545.69" x2="4882.3111" y1="933.2669" y2="933.2669"/><text fill="#000000" font-family="sans-serif" font-size="14" lengthAdjust="spacing" textLength="326.6211" x="4550.69" y="950.262">RobotLoadThenCentre robot_load_then_centre</text><text fill="#000000" font-family="sans-serif" font-size="14" lengthAdjust="spacing" textLength="269.3154" x="4550.69" y="966.5589">MultiRotationScan multi_rotation_scan</text><line style="stroke:#181818;stroke-width:0.5;" x1="4545.69" x2="4882.3111" y1="973.8606" y2="973.8606"/></g><!--class WithHyperionFeatures--><g id="elem_WithHyperionFeatures"><rect codeLine="126" fill="#F1F1F1" height="64.2969" id="WithHyperionFeatures" rx="2.5" ry="2.5" style="stroke:#181818;stroke-width:0.5;" width="228.6719" x="3614.66" y="909.4169"/><ellipse cx="3647.6196" cy="925.4169" fill="#ADD1B2" rx="11" ry="11" style="stroke:#181818;stroke-width:1;"/><path d="M3650.5883,931.0575 Q3650.0102,931.3544 3649.3696,931.495 Q3648.7289,931.6513 3648.0258,931.6513 Q3645.5258,931.6513 3644.1977,930.0106 Q3642.8852,928.3544 3642.8852,925.2294 Q3642.8852,922.1044 3644.1977,920.4481 Q3645.5258,918.7919 3648.0258,918.7919 Q3648.7289,918.7919 3649.3696,918.9481 Q3650.0258,919.1044 3650.5883,919.4013 L3650.5883,922.12 Q3649.9633,921.5419 3649.3696,921.2763 Q3648.7758,920.995 3648.1508,920.995 Q3646.8071,920.995 3646.1196,922.0731 Q3645.4321,923.1356 3645.4321,925.2294 Q3645.4321,927.3231 3646.1196,928.4013 Q3646.8071,929.4638 3648.1508,929.4638 Q3648.7758,929.4638 3649.3696,929.1981 Q3649.9633,928.9169 3650.5883,928.3388 L3650.5883,931.0575 Z " fill="#000000"/><text fill="#000000" font-family="sans-serif" font-size="14" lengthAdjust="spacing" textLength="156.7617" x="3665.6106" y="930.2636">WithHyperionFeatures</text><line style="stroke:#181818;stroke-width:0.5;" x1="3615.66" x2="3842.3319" y1="941.4169" y2="941.4169"/><text fill="#000000" font-family="sans-serif" font-size="14" lengthAdjust="spacing" textLength="216.6719" x="3620.66" y="958.412">HyperionFeatureFlags features</text><line style="stroke:#181818;stroke-width:0.5;" x1="3615.66" x2="3842.3319" y1="965.7138" y2="965.7138"/></g><!--class HyperionThreeDGridScan--><g id="elem_HyperionThreeDGridScan"><rect codeLine="129" fill="#F1F1F1" height="48" id="HyperionThreeDGridScan" rx="2.5" ry="2.5" style="stroke:#181818;stroke-width:0.5;" width="210.001" x="3615" y="1123.3469"/><ellipse cx="3630" cy="1139.3469" fill="#ADD1B2" rx="11" ry="11" style="stroke:#181818;stroke-width:1;"/><path d="M3632.9688,1144.9875 Q3632.3906,1145.2844 3631.75,1145.425 Q3631.1094,1145.5813 3630.4063,1145.5813 Q3627.9063,1145.5813 3626.5781,1143.9406 Q3625.2656,1142.2844 3625.2656,1139.1594 Q3625.2656,1136.0344 3626.5781,1134.3781 Q3627.9063,1132.7219 3630.4063,1132.7219 Q3631.1094,1132.7219 3631.75,1132.8781 Q3632.4063,1133.0344 3632.9688,1133.3313 L3632.9688,1136.05 Q3632.3438,1135.4719 3631.75,1135.2063 Q3631.1563,1134.925 3630.5313,1134.925 Q3629.1875,1134.925 3628.5,1136.0031 Q3627.8125,1137.0656 3627.8125,1139.1594 Q3627.8125,1141.2531 3628.5,1142.3313 Q3629.1875,1143.3938 3630.5313,1143.3938 Q3631.1563,1143.3938 3631.75,1143.1281 Q3632.3438,1142.8469 3632.9688,1142.2688 L3632.9688,1144.9875 Z " fill="#000000"/><text fill="#000000" font-family="sans-serif" font-size="14" lengthAdjust="spacing" textLength="178.001" x="3644" y="1144.1936">HyperionThreeDGridScan</text><line style="stroke:#181818;stroke-width:0.5;" x1="3616" x2="3824.001" y1="1155.3469" y2="1155.3469"/><line style="stroke:#181818;stroke-width:0.5;" x1="3616" x2="3824.001" y1="1163.3469" y2="1163.3469"/></g><!--reverse link GridCommon to GridScanWithEdgeDetect--><g id="link_GridCommon_GridScanWithEdgeDetect"><path codeLine="132" d="M2914.6485,785.6556 C2925.6585,831.3256 2935.77,873.2769 2944.41,909.0969 " fill="none" id="GridCommon-backto-GridScanWithEdgeDetect" style="stroke:#181818;stroke-width:1;"/><polygon fill="none" points="2910.43,768.1569,2908.8156,787.0617,2920.4814,784.2494,2910.43,768.1569" style="stroke:#181818;stroke-width:1;"/></g><!--reverse link RotationExperiment to MultiRotationScan--><g id="link_RotationExperiment_MultiRotationScan"><path codeLine="133" d="M4071.8608,1006.9591 C4087.8608,1045.3091 4102.93,1081.4569 4116.81,1114.7269 " fill="none" id="RotationExperiment-backto-MultiRotationScan" style="stroke:#181818;stroke-width:1;"/><polygon fill="none" points="4064.93,990.3469,4066.3234,1009.2693,4077.3982,1004.6488,4064.93,990.3469" style="stroke:#181818;stroke-width:1;"/></g><!--reverse link SplitScan to MultiRotationScan--><g id="link_SplitScan_MultiRotationScan"><path codeLine="134" d="M390.9992,188.0335 C448.7992,246.0035 577,391.2169 577,553.4469 C577,553.4469 577,553.4469 577,704.1969 C577,1166.9769 2163.72,1039.1769 2624,1087.1969 C3162.99,1143.4369 3302.24,1079.7069 3843,1115.1969 C3848.5,1115.5569 3854.06,1115.9469 3859.66,1116.3569 " fill="none" id="SplitScan-backto-MultiRotationScan" style="stroke:#181818;stroke-width:1;"/><polygon fill="none" points="378.29,175.2869,386.7504,192.2699,395.2481,183.7971,378.29,175.2869" style="stroke:#181818;stroke-width:1;"/></g><!--reverse link XyzStarts to SpecifiedGrid--><g id="link_XyzStarts_SpecifiedGrid"><path codeLine="135" d="M570.944,210.4075 C578.654,216.1075 572.14,210.9269 580,215.7769 C671.21,272.1469 786.08,321.2369 855.41,348.7269 " fill="none" id="XyzStarts-backto-SpecifiedGrid" style="stroke:#181818;stroke-width:1;"/><polygon fill="none" points="556.47,199.7069,567.3771,215.2322,574.5109,205.5828,556.47,199.7069" style="stroke:#181818;stroke-width:1;"/></g><!--reverse link WithScan to SpecifiedGrid--><g id="link_WithScan_SpecifiedGrid"><path codeLine="136" d="M917,193.1769 C917,235.3269 917,306.2069 917,348.6269 " fill="none" id="WithScan-backto-SpecifiedGrid" style="stroke:#181818;stroke-width:1;"/><polygon fill="none" points="917,175.1769,911,193.1769,923,193.1769,917,175.1769" style="stroke:#181818;stroke-width:1;"/></g><!--reverse link OptionalGonioAngleStarts to RotationScanPerSweep--><g id="link_OptionalGonioAngleStarts_RotationScanPerSweep"><path codeLine="137" d="M1230.4002,214.3565 C1238.5302,217.3665 1229.86,213.7369 1238,215.7769 C1363.55,247.2269 3455.76,209.6069 3567,275.7769 C3784.05,404.8769 3642.91,624.8369 3851,767.9369 C3991.16,864.3169 4072.48,761.3269 4229,827.9369 C4256.9,839.8069 4284.29,858.0269 4307.83,876.3869 " fill="none" id="OptionalGonioAngleStarts-backto-RotationScanPerSweep" style="stroke:#181818;stroke-width:1;"/><polygon fill="none" points="1213.52,208.1069,1228.317,219.9832,1232.4834,208.7298,1213.52,208.1069" style="stroke:#181818;stroke-width:1;"/></g><!--reverse link OptionalXyzStarts to RotationScanPerSweep--><g id="link_OptionalXyzStarts_RotationScanPerSweep"><path codeLine="138" d="M2270.5229,208.4009 C2282.4829,214.8509 2279.33,211.9969 2292,215.7769 C2478.12,271.3069 3875.14,171.4969 4039,275.7769 C4256.23,414.0269 4340.49,738.3169 4367.31,876.4369 " fill="none" id="OptionalXyzStarts-backto-RotationScanPerSweep" style="stroke:#181818;stroke-width:1;"/><polygon fill="none" points="2254.68,199.8569,2267.6749,213.6819,2273.371,203.12,2254.68,199.8569" style="stroke:#181818;stroke-width:1;"/></g><!--reverse link MxBlueskyParameters to DiffractionExperiment--><g id="link_MxBlueskyParameters_DiffractionExperiment"><path codeLine="139" d="M3044.3033,194.3312 C3011.9633,218.4612 2979.97,242.3269 2935.71,275.3469 " fill="none" id="MxBlueskyParameters-backto-DiffractionExperiment" style="stroke:#181818;stroke-width:1;"/><polygon fill="none" points="3058.73,183.5669,3040.7152,189.5222,3047.8914,199.1401,3058.73,183.5669" style="stroke:#181818;stroke-width:1;"/></g><!--reverse link WithSnapshot to DiffractionExperiment--><g id="link_WithSnapshot_DiffractionExperiment"><path codeLine="140" d="M1716.0668,198.3248 C1740.1368,207.7248 1749.8,210.1069 1775,215.7769 C2147.51,299.5969 2265.88,167.4069 2632,275.7769 C2634.48,276.5169 2636.97,277.2869 2639.46,278.0969 " fill="none" id="WithSnapshot-backto-DiffractionExperiment" style="stroke:#181818;stroke-width:1;"/><polygon fill="none" points="1699.3,191.7769,1713.8842,203.9137,1718.2494,192.7358,1699.3,191.7769" style="stroke:#181818;stroke-width:1;"/></g><!--reverse link WithOptionalEnergyChange to DiffractionExperiment--><g id="link_WithOptionalEnergyChange_DiffractionExperiment"><path codeLine="141" d="M784.607,191.8276 C808.657,204.3076 821.91,208.9769 850,215.7769 C1235.11,308.9569 2250.09,170.2269 2632,275.7769 C2634.5,276.4669 2637,277.1969 2639.5,277.9669 " fill="none" id="WithOptionalEnergyChange-backto-DiffractionExperiment" style="stroke:#181818;stroke-width:1;"/><polygon fill="none" points="768.63,183.5369,781.8434,197.1533,787.3705,186.502,768.63,183.5369" style="stroke:#181818;stroke-width:1;"/></g><!--reverse link WithVisit to DiffractionExperiment--><g id="link_WithVisit_DiffractionExperiment"><path codeLine="142" d="M2081.3921,216.0241 C2087.3721,217.8541 2076.11,214.2669 2082,215.7769 C2320.22,276.7469 2397.61,201.4369 2632,275.7769 C2634.47,276.5569 2636.94,277.3769 2639.42,278.2369 " fill="none" id="WithVisit-backto-DiffractionExperiment" style="stroke:#181818;stroke-width:1;"/><polygon fill="none" points="2064.18,210.7569,2079.6363,221.7615,2083.1478,210.2868,2064.18,210.7569" style="stroke:#181818;stroke-width:1;"/></g><!--reverse link WithScan to RotationScan--><g id="link_WithScan_RotationScan"><path codeLine="143" d="M945.5796,189.258 C957.6896,203.798 963.82,207.4369 984,215.7769 C1249.32,325.4169 3286.1,216.5469 3567,275.7769 C4194.86,408.1769 4544.44,294.4469 4901,827.9369 C4965.03,923.7369 4976.33,1000.0069 4901,1087.1969 C4857.83,1137.1669 4663.19,1145.7069 4561.04,1146.6769 " fill="none" id="WithScan-backto-RotationScan" style="stroke:#181818;stroke-width:1;"/><polygon fill="none" points="934.06,175.4269,940.9692,193.0978,950.1899,185.4181,934.06,175.4269" style="stroke:#181818;stroke-width:1;"/></g><!--reverse link RotationScanPerSweep to RotationScan--><g id="link_RotationScanPerSweep_RotationScan"><path codeLine="144" d="M4424.9352,1022.2765 C4448.2952,1061.9365 4467.74,1094.9669 4484.31,1123.1069 " fill="none" id="RotationScanPerSweep-backto-RotationScan" style="stroke:#181818;stroke-width:1;"/><polygon fill="none" points="4415.8,1006.7669,4419.7654,1025.3215,4430.1051,1019.2314,4415.8,1006.7669" style="stroke:#181818;stroke-width:1;"/></g><!--reverse link RotationExperiment to RotationScan--><g id="link_RotationExperiment_RotationScan"><path codeLine="145" d="M4104.2701,1002.542 C4139.0001,1035.322 4176.38,1064.5369 4229,1087.1969 C4306.99,1120.7869 4335.92,1093.4369 4418,1115.1969 C4426.07,1117.3369 4434.43,1120.0369 4442.58,1122.9369 " fill="none" id="RotationExperiment-backto-RotationScan" style="stroke:#181818;stroke-width:1;"/><polygon fill="none" points="4091.18,990.1869,4100.1517,1006.9054,4108.3885,998.1786,4091.18,990.1869" style="stroke:#181818;stroke-width:1;"/></g><!--reverse link DiffractionExperimentWithSample to GridCommon--><g id="link_DiffractionExperimentWithSample_GridCommon"><path codeLine="146" d="M2841.5838,594.8146 C2849.5838,610.9046 2852.63,617.0169 2863.16,638.1969 " fill="none" id="DiffractionExperimentWithSample-backto-GridCommon" style="stroke:#181818;stroke-width:1;"/><polygon fill="none" points="2833.57,578.6969,2836.2112,597.4858,2846.9563,592.1433,2833.57,578.6969" style="stroke:#181818;stroke-width:1;"/></g><!--reverse link OptionalGonioAngleStarts to GridCommon--><g id="link_OptionalGonioAngleStarts_GridCommon"><path codeLine="147" d="M1195.5549,218.9456 C1290.0249,291.2356 1451.61,404.6269 1622,470.4469 C2001.02,616.8769 2479.94,672.0769 2728.38,691.8669 " fill="none" id="OptionalGonioAngleStarts-backto-GridCommon" style="stroke:#181818;stroke-width:1;"/><polygon fill="none" points="1181.26,208.0069,1191.9087,223.7106,1199.2012,214.1806,1181.26,208.0069" style="stroke:#181818;stroke-width:1;"/></g><!--reverse link GridCommon to PinTipCentreThenXrayCentre--><g id="link_GridCommon_PinTipCentreThenXrayCentre"><path codeLine="148" d="M3078.6241,743.9401 C3153.7241,763.7601 3224.48,788.0969 3298,827.9369 C3337.85,849.5269 3376.9,883.9769 3402.66,909.0869 " fill="none" id="GridCommon-backto-PinTipCentreThenXrayCentre" style="stroke:#181818;stroke-width:1;"/><polygon fill="none" points="3061.22,739.3469,3077.093,749.7414,3080.1552,738.1387,3061.22,739.3469" style="stroke:#181818;stroke-width:1;"/></g><!--reverse link DiffractionExperimentWithSample to RotationExperiment--><g id="link_DiffractionExperimentWithSample_RotationExperiment"><path codeLine="149" d="M2931.955,583.362 C3178.185,645.962 3816.48,808.9569 3861,827.9369 C3901.66,845.2669 3943.93,870.5469 3977.68,892.7669 " fill="none" id="DiffractionExperimentWithSample-backto-RotationExperiment" style="stroke:#181818;stroke-width:1;"/><polygon fill="none" points="2914.51,578.9269,2930.4767,589.177,2933.4334,577.547,2914.51,578.9269" style="stroke:#181818;stroke-width:1;"/></g><!--reverse link DiffractionExperiment to DiffractionExperimentWithSample--><g id="link_DiffractionExperiment_DiffractionExperimentWithSample"><path codeLine="150" d="M2816.2312,488.7955 C2818.2112,510.9655 2818.54,514.6269 2819.92,530.1669 " fill="none" id="DiffractionExperiment-backto-DiffractionExperimentWithSample" style="stroke:#181818;stroke-width:1;"/><polygon fill="none" points="2814.63,470.8669,2810.255,489.3293,2822.2074,488.2618,2814.63,470.8669" style="stroke:#181818;stroke-width:1;"/></g><!--reverse link WithSample to DiffractionExperimentWithSample--><g id="link_WithSample_DiffractionExperimentWithSample"><path codeLine="151" d="M1433.0214,208.5258 C1443.7514,214.3958 1439.08,211.2769 1450,215.7769 C1883.67,394.7269 2435.11,494.7669 2686.32,533.9169 " fill="none" id="WithSample-backto-DiffractionExperimentWithSample" style="stroke:#181818;stroke-width:1;"/><polygon fill="none" points="1417.23,199.8869,1430.1418,213.7896,1435.9011,203.262,1417.23,199.8869" style="stroke:#181818;stroke-width:1;"/></g><!--reverse link MxBlueskyParameters to LoadCentreCollect--><g id="link_MxBlueskyParameters_LoadCentreCollect"><path codeLine="152" d="M3278.1798,152.1344 C3670.3898,153.8244 4640.71,168.7069 4740,275.7769 C4904.93,453.6269 4781.78,787.0369 4732.19,901.1169 " fill="none" id="MxBlueskyParameters-backto-LoadCentreCollect" style="stroke:#181818;stroke-width:1;"/><polygon fill="none" points="3260.18,152.0569,3278.154,158.1344,3278.2057,146.1345,3260.18,152.0569" style="stroke:#181818;stroke-width:1;"/></g><!--reverse link WithVisit to LoadCentreCollect--><g id="link_WithVisit_LoadCentreCollect"><path codeLine="153" d="M2081.3854,216.1627 C2087.3954,217.8427 2076.06,214.4969 2082,215.7769 C2279.88,258.5069 3725.72,178.0269 3903,275.7769 C3994.54,326.2569 3961.44,396.1769 4035,470.4469 C4137.09,573.5369 4502.1,807.4269 4650.54,900.8969 " fill="none" id="WithVisit-backto-LoadCentreCollect" style="stroke:#181818;stroke-width:1;"/><polygon fill="none" points="2064.05,211.3169,2079.7702,221.9412,2083.0007,210.3842,2064.05,211.3169" style="stroke:#181818;stroke-width:1;"/></g><!--reverse link WithSample to LoadCentreCollect--><g id="link_WithSample_LoadCentreCollect"><path codeLine="154" d="M1428.2209,208.4102 C1440.2909,214.8502 1437.22,212.0469 1450,215.7769 C1685.79,284.6769 3430.2,188.9669 3660,275.7769 C3699.93,290.8669 4211.64,749.2069 4250,767.9369 C4363.19,823.2069 4409.91,781.4769 4527,827.9369 C4574.21,846.6669 4623.23,876.6469 4659.23,900.9669 " fill="none" id="WithSample-backto-LoadCentreCollect" style="stroke:#181818;stroke-width:1;"/><polygon fill="none" points="1412.34,199.9369,1425.3965,213.7038,1431.0453,203.1166,1412.34,199.9369" style="stroke:#181818;stroke-width:1;"/></g><!--reverse link WithCentreSelection to LoadCentreCollect--><g id="link_WithCentreSelection_LoadCentreCollect"><path codeLine="155" d="M2544.116,190.7238 C2572.916,203.2038 2591.17,209.0169 2624,215.7769 C2735.32,238.7069 4587.11,196.9569 4669,275.7769 C4758.49,361.9169 4729.51,771.3469 4717.84,901.0569 " fill="none" id="WithCentreSelection-backto-LoadCentreCollect" style="stroke:#181818;stroke-width:1;"/><polygon fill="none" points="2527.6,183.5669,2541.7304,196.2291,2546.5016,185.2185,2527.6,183.5669" style="stroke:#181818;stroke-width:1;"/></g><!--reverse link GridCommon to RobotLoadThenCentre--><g id="link_GridCommon_RobotLoadThenCentre"><path codeLine="156" d="M3009.2767,778.4022 C3035.8367,796.7622 3049.22,807.2069 3074,827.9369 C3104.46,853.4069 3136.09,885.8669 3157.94,909.3869 " fill="none" id="GridCommon-backto-RobotLoadThenCentre" style="stroke:#181818;stroke-width:1;"/><polygon fill="none" points="2994.47,768.1669,3005.8649,783.3378,3012.6885,773.4667,2994.47,768.1669" style="stroke:#181818;stroke-width:1;"/></g><!--reverse link ThreeDGridScan to HyperionThreeDGridScan--><g id="link_ThreeDGridScan_HyperionThreeDGridScan"><path codeLine="157" d="M2803.0042,1068.6978 C2814.5342,1081.1978 2815.4,1079.0969 2830,1087.1969 C2897.1,1124.4569 3394.02,1139.4869 3614.8,1144.3669 " fill="none" id="ThreeDGridScan-backto-HyperionThreeDGridScan" style="stroke:#181818;stroke-width:1;"/><polygon fill="none" points="2790.8,1055.4669,2798.5939,1072.7659,2807.4145,1064.6297,2790.8,1055.4669" style="stroke:#181818;stroke-width:1;"/></g><!--reverse link WithPandaGridScan to HyperionThreeDGridScan--><g id="link_WithPandaGridScan_HyperionThreeDGridScan"><path codeLine="158" d="M209.3828,194.3765 C290.8428,255.5565 440,388.1669 440,553.4469 C440,553.4469 440,553.4469 440,704.1969 C440,881.4269 410.31,979.4269 551,1087.1969 C613.16,1134.8169 3071.56,1144.5169 3614.57,1146.0869 " fill="none" id="WithPandaGridScan-backto-HyperionThreeDGridScan" style="stroke:#181818;stroke-width:1;"/><polygon fill="none" points="194.99,183.5669,205.7796,199.1741,212.986,189.5789,194.99,183.5669" style="stroke:#181818;stroke-width:1;"/></g><!--reverse link WithHyperionFeatures to HyperionThreeDGridScan--><g id="link_WithHyperionFeatures_HyperionThreeDGridScan"><path codeLine="159" d="M3726.8179,991.9394 C3725.0079,1033.0294 3722.66,1086.1269 3721.04,1122.8569 " fill="none" id="WithHyperionFeatures-backto-HyperionThreeDGridScan" style="stroke:#181818;stroke-width:1;"/><polygon fill="none" points="3727.61,973.9569,3720.8237,991.6754,3732.8121,992.2035,3727.61,973.9569" style="stroke:#181818;stroke-width:1;"/></g><!--reverse link GridCommon to ThreeDGridScan--><g id="link_GridCommon_ThreeDGridScan"><path codeLine="160" d="M2838.8002,782.7987 C2825.6002,801.2587 2821.26,807.3269 2806.61,827.8169 " fill="none" id="GridCommon-backto-ThreeDGridScan" style="stroke:#181818;stroke-width:1;"/><polygon fill="none" points="2849.27,768.1569,2833.9196,779.3088,2843.6808,786.2886,2849.27,768.1569" style="stroke:#181818;stroke-width:1;"/></g><!--reverse link SpecifiedGrid to ThreeDGridScan--><g id="link_SpecifiedGrid_ThreeDGridScan"><path codeLine="161" d="M923.6401,415.0431 C935.7101,484.7731 978.85,675.6169 1111,767.9369 C1237.13,856.0469 2322.02,919.3969 2639.23,936.1569 " fill="none" id="SpecifiedGrid-backto-ThreeDGridScan" style="stroke:#181818;stroke-width:1;"/><polygon fill="none" points="920.57,397.3069,917.728,416.0665,929.5522,414.0198,920.57,397.3069" style="stroke:#181818;stroke-width:1;"/></g><!--reverse link SplitScan to ThreeDGridScan--><g id="link_SplitScan_ThreeDGridScan"><path codeLine="162" d="M383.1013,189.2895 C395.0713,203.4895 400.65,206.7669 420,215.7769 C653.73,324.6169 776.71,141.8069 997,275.7769 C1085.47,329.5769 1052.25,396.7569 1125,470.4469 C1290.84,638.4369 1345.01,682.3369 1565,767.9369 C1945.53,915.9969 2441.65,938.0369 2639.28,940.6269 " fill="none" id="SplitScan-backto-ThreeDGridScan" style="stroke:#181818;stroke-width:1;"/><polygon fill="none" points="371.5,175.5269,378.5138,193.1566,387.6888,185.4224,371.5,175.5269" style="stroke:#181818;stroke-width:1;"/></g><!--reverse link WithOptionalEnergyChange to ThreeDGridScan--><g id="link_WithOptionalEnergyChange_ThreeDGridScan"><path codeLine="163" d="M790.4152,191.5648 C813.5552,202.9348 824.47,207.1369 850,215.7769 C970.14,256.4569 1022.3,207.2069 1129,275.7769 C1219.76,334.1069 1186.31,407.6069 1274,470.4469 C1721.96,791.5069 2400.53,901.1969 2639.25,931.0469 " fill="none" id="WithOptionalEnergyChange-backto-ThreeDGridScan" style="stroke:#181818;stroke-width:1;"/><polygon fill="none" points="774.26,183.6269,787.7692,196.9499,793.0611,186.1798,774.26,183.6269" style="stroke:#181818;stroke-width:1;"/></g><!--SRC=[bLTBRzms43ulVmLlRO7QG79k3uxjF80uDR8BDq1W45nfLY8iaGH9sIix_kyTYX9NprqNFbYS-MOudCT7xc-RN5Yw4mLG_Cyhfyuoa62uWvHkQzejc2wuT5LPdEkQ42SS6dokDHYX9BtbXfVWmD0RbK91B3WgKM8rJs0D6jLE6IgL149Gzi0peEMUROiAx4DzdgYoLF9STsuiVI5EPU1oTFb2ae9RIzSQ4h4Ja7uo8dqXhr5S2BTEk3o8_XKkN_DI5_12La8wQfi54sbO_gBVC99EgglaOLOkvC3ZdR32eKFh3Dq2Bmk1fsbMZruJFbDmB1NMCQUO1x54oKSmU2QckSi3I4YB8amSqmPsOazMkqBnk3_wW0JprJZYCW5MbeD8_j7Uc1VNM9giliovpFn9HqvABbC63OJ1uy31BQguJsF8MskflPIPIbPwSUjBaCvWIGkC46D0sutItpxKDtn_gIhfeeRQveibZO6DJhhOVzJFQyUDi-F0zynwEQlAaQ9UKZmV58CEa5pRNFcItMBggMtNU3RJvBScgmAF-RDnTX-hty5K2HctB8Li4lmd9OMwa5a1ysTeJDkelFrGgtEng4kEw1wurdslNLJJL4vpE4tUKjRQINgT3c3NC1vsdMPmrVHft7IhS5ln37sFLsAtCxnfYEkz9uiIsw4_dXtmPlyXS46a4d-QjMzY9v8xNFgUYWJ1Iiypx378evTDRW2k9esTeU1Tg6S_hLxyVYhsoGCTZz9Bu5JwF8zzFyrsN-Iv9knYmwBkBvwxnLQfWZBaKXHKMwPsE_m-JD9tjLNkg-Bf9WSPvZAUsENyISYCEKpuyMAqXEOl0EOfk_C0UwriPQ1nmMn0UPv66nnw8x8CZ6Txwi9tKv81ZoAJC5cLMp1aTO7xENHtnx7CSTGQYe2KyLORmpTSsb9ONrpcOoQhBrRNsqFO6xnwyC926OCeP0wb8LAByusNJ6_MNtjTVDdSDuF-O4yYTNclOfC4DEMeB32ZH7lO_n7K6nFGHNahv4ReK5LVtn-6r-CQ2ztsH9Wu_pTpj-Rj9JsyNTkfgmedlYl7VK-q8tCXfHT0-hCXnxxs5ipw2K3V_qc_Wloz598L83EN__tkZtjgMYIp2EstwTH1FCE4A3lqnHvV8z4ZnrLduhstnHfON3MLzYmHpT9E5DfImhwox36rxOQYp6QZV9b81-FIXf5NpXEHqY2xIMCno1Y2a8c1fWsQOD_UC5q8Vi13uIzLKGI-dPbyt15b33TF6PAsREzTifgKc9PUmWRL6jm0tQlk8t3Vafw7HwAF1S_mpTZget676hEmRyp3rD6_VfsTBTmbP9hm09-SWiHdtn8Wtee1C7WzakwcczCjNV81EzVEPFAeEOATkUa2UfQUIVybSmetzouyPTEyQay645CrIF7S-Ox0naKTW4wy50vT4xheH9Lwm77dBJFhssAOdcRUxaXE3ox9sFif_6BtJ7XYNDrvG7_lUSJenRy47QTvXgF8a1W2RfuqoEHNoadqcBQE6eoZ7Qa7XB206D3FJ3pBmpW4_mS0]--></g></svg>