<svg xmlns="http://www.w3.org/2000/svg" xmlns:xlink="http://www.w3.org/1999/xlink" contentStyleType="text/css" data-diagram-type="CLASS" height="1235px" preserveAspectRatio="none" style="width:5050px;height:1235px;background:#FFFFFF;" version="1.1" viewBox="0 0 5050 1235" width="5050px" zoomAndPan="magnify"><title>Hyperion Parameter Model</title><defs/><g><text fill="#000000" font-family="sans-serif" font-size="14" font-weight="bold" lengthAdjust="spacing" textLength="212.4951" x="2411.9424" y="22.9951">Hyperion Parameter Model</text><!--cluster mx_bluesky.common.parameters--><g class="cluster" data-entity="mx_bluesky.common.parameters" data-source-line="6" data-uid="ent0002" id="cluster_mx_bluesky.common.parameters"><path d="M8.5,43.2969 L269.8125,43.2969 A3.75,3.75 0 0 1 272.3125,45.7969 L279.3125,65.5938 L2993.5,65.5938 A2.5,2.5 0 0 1 2996,68.0938 L2996,1109.2969 A2.5,2.5 0 0 1 2993.5,1111.7969 L8.5,1111.7969 A2.5,2.5 0 0 1 6,1109.2969 L6,45.7969 A2.5,2.5 0 0 1 8.5,43.2969 " fill="none" style="stroke:#000000;stroke-width:1.5;"/><line style="stroke:#000000;stroke-width:1.5;" x1="6" x2="279.3125" y1="65.5938" y2="65.5938"/><text fill="#000000" font-family="sans-serif" font-size="14" font-weight="bold" lengthAdjust="spacing" textLength="260.3125" x="10" y="58.292">mx_bluesky.common.parameters</text></g><!--cluster mx_bluesky.hyperion.parameters--><g class="cluster" data-entity="mx_bluesky.hyperion.parameters" data-source-line="97" data-uid="ent0020" id="cluster_mx_bluesky.hyperion.parameters"><path d="M3022.5,660.4969 L3287.0322,660.4969 A3.75,3.75 0 0 1 3289.5322,662.9969 L3296.5322,682.7937 L4842.5,682.7937 A2.5,2.5 0 0 1 4845,685.2937 L4845,1225.5969 A2.5,2.5 0 0 1 4842.5,1228.0969 L3022.5,1228.0969 A2.5,2.5 0 0 1 3020,1225.5969 L3020,662.9969 A2.5,2.5 0 0 1 3022.5,660.4969 " fill="none" style="stroke:#000000;stroke-width:1.5;"/><line style="stroke:#000000;stroke-width:1.5;" x1="3020" x2="3296.5322" y1="682.7937" y2="682.7937"/><text fill="#000000" font-family="sans-serif" font-size="14" font-weight="bold" lengthAdjust="spacing" textLength="263.5322" x="3024" y="675.492">mx_bluesky.hyperion.parameters</text></g><!--class XyzStarts--><g class="entity" data-entity="XyzStarts" data-source-line="8" data-uid="ent0003" id="entity_XyzStarts"><rect fill="#F1F1F1" height="96.8906" rx="2.5" ry="2.5" style="stroke:#181818;stroke-width:0.5;" width="125.3057" x="300.35" y="102.5969"/><ellipse cx="327.3141" cy="118.5969" fill="#ADD1B2" rx="11" ry="11" style="stroke:#181818;stroke-width:1;"/><path d="M330.2829,124.2375 Q329.7047,124.5344 329.0641,124.675 Q328.4235,124.8312 327.7204,124.8312 Q325.2204,124.8312 323.8922,123.1906 Q322.5797,121.5344 322.5797,118.4094 Q322.5797,115.2844 323.8922,113.6281 Q325.2204,111.9719 327.7204,111.9719 Q328.4235,111.9719 329.0641,112.1281 Q329.7204,112.2844 330.2829,112.5812 L330.2829,115.3 Q329.6579,114.7219 329.0641,114.4562 Q328.4704,114.175 327.8454,114.175 Q326.5016,114.175 325.8141,115.2531 Q325.1266,116.3156 325.1266,118.4094 Q325.1266,120.5031 325.8141,121.5812 Q326.5016,122.6437 327.8454,122.6437 Q328.4704,122.6437 329.0641,122.3781 Q329.6579,122.0969 330.2829,121.5187 L330.2829,124.2375 Z " fill="#000000"/><text fill="#000000" font-family="sans-serif" font-size="14" lengthAdjust="spacing" textLength="66.7188" x="343.9728" y="123.4436">XyzStarts</text><line style="stroke:#181818;stroke-width:0.5;" x1="301.35" x2="424.6557" y1="134.5969" y2="134.5969"/><text fill="#000000" font-family="sans-serif" font-size="14" lengthAdjust="spacing" textLength="113.3057" x="306.35" y="151.592">float x_start_um</text><text fill="#000000" font-family="sans-serif" font-size="14" lengthAdjust="spacing" textLength="113.3057" x="306.35" y="167.8889">float y_start_um</text><text fill="#000000" font-family="sans-serif" font-size="14" lengthAdjust="spacing" textLength="112.3691" x="306.35" y="184.1857">float z_start_um</text><line style="stroke:#181818;stroke-width:0.5;" x1="301.35" x2="424.6557" y1="191.4875" y2="191.4875"/></g><!--class WithOptionalEnergyChange--><g class="entity" data-entity="WithOptionalEnergyChange" data-source-line="13" data-uid="ent0004" id="entity_WithOptionalEnergyChange"><rect fill="#F1F1F1" height="64.2969" rx="2.5" ry="2.5" style="stroke:#181818;stroke-width:0.5;" width="235.4463" x="30.28" y="118.8969"/><ellipse cx="49.4645" cy="134.8969" fill="#ADD1B2" rx="11" ry="11" style="stroke:#181818;stroke-width:1;"/><path d="M52.4332,140.5375 Q51.8551,140.8344 51.2145,140.975 Q50.5738,141.1312 49.8707,141.1312 Q47.3707,141.1312 46.0426,139.4906 Q44.7301,137.8344 44.7301,134.7094 Q44.7301,131.5844 46.0426,129.9281 Q47.3707,128.2719 49.8707,128.2719 Q50.5738,128.2719 51.2145,128.4281 Q51.8707,128.5844 52.4332,128.8812 L52.4332,131.6 Q51.8082,131.0219 51.2145,130.7562 Q50.6207,130.475 49.9957,130.475 Q48.652,130.475 47.9645,131.5531 Q47.277,132.6156 47.277,134.7094 Q47.277,136.8031 47.9645,137.8812 Q48.652,138.9437 49.9957,138.9437 Q50.6207,138.9437 51.2145,138.6781 Q51.8082,138.3969 52.4332,137.8187 L52.4332,140.5375 Z " fill="#000000"/><text fill="#000000" font-family="sans-serif" font-size="14" lengthAdjust="spacing" textLength="194.1475" x="64.3944" y="139.7436">WithOptionalEnergyChange</text><line style="stroke:#181818;stroke-width:0.5;" x1="31.28" x2="264.7263" y1="150.8969" y2="150.8969"/><text fill="#000000" font-family="sans-serif" font-size="14" lengthAdjust="spacing" textLength="223.4463" x="36.28" y="167.892">float | None demand_energy_ev</text><line style="stroke:#181818;stroke-width:0.5;" x1="31.28" x2="264.7263" y1="175.1937" y2="175.1937"/></g><!--class WithVisit--><g class="entity" data-entity="WithVisit" data-source-line="16" data-uid="ent0005" id="entity_WithVisit"><rect fill="#F1F1F1" height="129.4844" rx="2.5" ry="2.5" style="stroke:#181818;stroke-width:0.5;" width="271.7861" x="997.11" y="86.2969"/><ellipse cx="1097.6359" cy="102.2969" fill="#ADD1B2" rx="11" ry="11" style="stroke:#181818;stroke-width:1;"/><path d="M1100.6046,107.9375 Q1100.0265,108.2344 1099.3859,108.375 Q1098.7453,108.5313 1098.0421,108.5313 Q1095.5421,108.5313 1094.214,106.8906 Q1092.9015,105.2344 1092.9015,102.1094 Q1092.9015,98.9844 1094.214,97.3281 Q1095.5421,95.6719 1098.0421,95.6719 Q1098.7453,95.6719 1099.3859,95.8281 Q1100.0421,95.9844 1100.6046,96.2813 L1100.6046,99 Q1099.9796,98.4219 1099.3859,98.1563 Q1098.7921,97.875 1098.1671,97.875 Q1096.8234,97.875 1096.1359,98.9531 Q1095.4484,100.0156 1095.4484,102.1094 Q1095.4484,104.2031 1096.1359,105.2813 Q1096.8234,106.3438 1098.1671,106.3438 Q1098.7921,106.3438 1099.3859,106.0781 Q1099.9796,105.7969 1100.6046,105.2188 L1100.6046,107.9375 Z " fill="#000000"/><text fill="#000000" font-family="sans-serif" font-size="14" lengthAdjust="spacing" textLength="62.2344" x="1118.1359" y="107.1436">WithVisit</text><line style="stroke:#181818;stroke-width:0.5;" x1="998.11" x2="1267.8961" y1="118.2969" y2="118.2969"/><text fill="#000000" font-family="sans-serif" font-size="14" lengthAdjust="spacing" textLength="87.9717" x="1003.11" y="135.292">str beamline</text><text fill="#000000" font-family="sans-serif" font-size="14" lengthAdjust="spacing" textLength="51.8369" x="1003.11" y="151.5889">str visit</text><text fill="#000000" font-family="sans-serif" font-size="14" lengthAdjust="spacing" textLength="259.7861" x="1003.11" y="167.8857">str det_dist_to_beam_converter_path</text><text fill="#000000" font-family="sans-serif" font-size="14" lengthAdjust="spacing" textLength="131.5918" x="1003.11" y="184.1826">str insertion_prefix</text><text fill="#000000" font-family="sans-serif" font-size="14" lengthAdjust="spacing" textLength="245.752" x="1003.11" y="200.4795">float | None detector_distance_mm</text><line style="stroke:#181818;stroke-width:0.5;" x1="998.11" x2="1267.8961" y1="207.7813" y2="207.7813"/></g><!--class WithSample--><g class="entity" data-entity="WithSample" data-source-line="23" data-uid="ent0006" id="entity_WithSample"><rect fill="#F1F1F1" height="96.8906" rx="2.5" ry="2.5" style="stroke:#181818;stroke-width:0.5;" width="176.3086" x="460.85" y="102.5969"/><ellipse cx="502.7243" cy="118.5969" fill="#ADD1B2" rx="11" ry="11" style="stroke:#181818;stroke-width:1;"/><path d="M505.6931,124.2375 Q505.1149,124.5344 504.4743,124.675 Q503.8337,124.8312 503.1306,124.8312 Q500.6306,124.8312 499.3024,123.1906 Q497.9899,121.5344 497.9899,118.4094 Q497.9899,115.2844 499.3024,113.6281 Q500.6306,111.9719 503.1306,111.9719 Q503.8337,111.9719 504.4743,112.1281 Q505.1306,112.2844 505.6931,112.5812 L505.6931,115.3 Q505.0681,114.7219 504.4743,114.4562 Q503.8806,114.175 503.2556,114.175 Q501.9118,114.175 501.2243,115.2531 Q500.5368,116.3156 500.5368,118.4094 Q500.5368,120.5031 501.2243,121.5812 Q501.9118,122.6437 503.2556,122.6437 Q503.8806,122.6437 504.4743,122.3781 Q505.0681,122.0969 505.6931,121.5187 L505.6931,124.2375 Z " fill="#000000"/><text fill="#000000" font-family="sans-serif" font-size="14" lengthAdjust="spacing" textLength="84.5879" x="522.6964" y="123.4436">WithSample</text><line style="stroke:#181818;stroke-width:0.5;" x1="461.85" x2="636.1586" y1="134.5969" y2="134.5969"/><text fill="#000000" font-family="sans-serif" font-size="14" lengthAdjust="spacing" textLength="93.3789" x="466.85" y="151.592">int sample_id</text><text fill="#000000" font-family="sans-serif" font-size="14" lengthAdjust="spacing" textLength="164.3086" x="466.85" y="167.8889">int | None sample_puck</text><text fill="#000000" font-family="sans-serif" font-size="14" lengthAdjust="spacing" textLength="152.3936" x="466.85" y="184.1857">int | None sample_pin</text><line style="stroke:#181818;stroke-width:0.5;" x1="461.85" x2="636.1586" y1="191.4875" y2="191.4875"/></g><!--class WithPandaGridScan--><g class="entity" data-entity="WithPandaGridScan" data-source-line="28" data-uid="ent0007" id="entity_WithPandaGridScan"><rect fill="#F1F1F1" height="64.2969" rx="2.5" ry="2.5" style="stroke:#181818;stroke-width:0.5;" width="240.5664" x="1822.72" y="118.8969"/><ellipse cx="1869.3172" cy="134.8969" fill="#ADD1B2" rx="11" ry="11" style="stroke:#181818;stroke-width:1;"/><path d="M1872.2859,140.5375 Q1871.7078,140.8344 1871.0672,140.975 Q1870.4265,141.1312 1869.7234,141.1312 Q1867.2234,141.1312 1865.8953,139.4906 Q1864.5828,137.8344 1864.5828,134.7094 Q1864.5828,131.5844 1865.8953,129.9281 Q1867.2234,128.2719 1869.7234,128.2719 Q1870.4265,128.2719 1871.0672,128.4281 Q1871.7234,128.5844 1872.2859,128.8812 L1872.2859,131.6 Q1871.6609,131.0219 1871.0672,130.7562 Q1870.4734,130.475 1869.8484,130.475 Q1868.5047,130.475 1867.8172,131.5531 Q1867.1297,132.6156 1867.1297,134.7094 Q1867.1297,136.8031 1867.8172,137.8812 Q1868.5047,138.9437 1869.8484,138.9437 Q1870.4734,138.9437 1871.0672,138.6781 Q1871.6609,138.3969 1872.2859,137.8187 L1872.2859,140.5375 Z " fill="#000000"/><text fill="#000000" font-family="sans-serif" font-size="14" lengthAdjust="spacing" textLength="138.8721" x="1889.8172" y="139.7436">WithPandaGridScan</text><line style="stroke:#181818;stroke-width:0.5;" x1="1823.72" x2="2062.2864" y1="150.8969" y2="150.8969"/><text fill="#000000" font-family="sans-serif" font-size="14" lengthAdjust="spacing" textLength="228.5664" x="1828.72" y="167.892">float panda_runup_distance_mm</text><line style="stroke:#181818;stroke-width:0.5;" x1="1823.72" x2="2062.2864" y1="175.1937" y2="175.1937"/></g><!--class SplitScan--><g class="entity" data-entity="SplitScan" data-source-line="31" data-uid="ent0008" id="entity_SplitScan"><rect fill="#F1F1F1" height="48" rx="2.5" ry="2.5" style="stroke:#181818;stroke-width:0.5;" width="97.0781" x="1303.46" y="127.0469"/><ellipse cx="1318.46" cy="143.0469" fill="#ADD1B2" rx="11" ry="11" style="stroke:#181818;stroke-width:1;"/><path d="M1321.4288,148.6875 Q1320.8506,148.9844 1320.21,149.125 Q1319.5694,149.2813 1318.8663,149.2813 Q1316.3663,149.2813 1315.0381,147.6406 Q1313.7256,145.9844 1313.7256,142.8594 Q1313.7256,139.7344 1315.0381,138.0781 Q1316.3663,136.4219 1318.8663,136.4219 Q1319.5694,136.4219 1320.21,136.5781 Q1320.8663,136.7344 1321.4288,137.0313 L1321.4288,139.75 Q1320.8038,139.1719 1320.21,138.9063 Q1319.6163,138.625 1318.9913,138.625 Q1317.6475,138.625 1316.96,139.7031 Q1316.2725,140.7656 1316.2725,142.8594 Q1316.2725,144.9531 1316.96,146.0313 Q1317.6475,147.0938 1318.9913,147.0938 Q1319.6163,147.0938 1320.21,146.8281 Q1320.8038,146.5469 1321.4288,145.9688 L1321.4288,148.6875 Z " fill="#000000"/><text fill="#000000" font-family="sans-serif" font-size="14" lengthAdjust="spacing" textLength="65.0781" x="1332.46" y="147.8936">SplitScan</text><line style="stroke:#181818;stroke-width:0.5;" x1="1304.46" x2="1399.5381" y1="159.0469" y2="159.0469"/><line style="stroke:#181818;stroke-width:0.5;" x1="1304.46" x2="1399.5381" y1="167.0469" y2="167.0469"/></g><!--class WithSnapshot--><g class="entity" data-entity="WithSnapshot" data-source-line="33" data-uid="ent0009" id="entity_WithSnapshot"><rect fill="#F1F1F1" height="80.5938" rx="2.5" ry="2.5" style="stroke:#181818;stroke-width:0.5;" width="289.3477" x="672.33" y="110.7469"/><ellipse cx="763.9828" cy="126.7469" fill="#ADD1B2" rx="11" ry="11" style="stroke:#181818;stroke-width:1;"/><path d="M766.9516,132.3875 Q766.3735,132.6844 765.7328,132.825 Q765.0922,132.9813 764.3891,132.9813 Q761.8891,132.9813 760.561,131.3406 Q759.2485,129.6844 759.2485,126.5594 Q759.2485,123.4344 760.561,121.7781 Q761.8891,120.1219 764.3891,120.1219 Q765.0922,120.1219 765.7328,120.2781 Q766.3891,120.4344 766.9516,120.7313 L766.9516,123.45 Q766.3266,122.8719 765.7328,122.6063 Q765.1391,122.325 764.5141,122.325 Q763.1703,122.325 762.4828,123.4031 Q761.7953,124.4656 761.7953,126.5594 Q761.7953,128.6531 762.4828,129.7313 Q763.1703,130.7938 764.5141,130.7938 Q765.1391,130.7938 765.7328,130.5281 Q766.3266,130.2469 766.9516,129.6688 L766.9516,132.3875 Z " fill="#000000"/><text fill="#000000" font-family="sans-serif" font-size="14" lengthAdjust="spacing" textLength="97.542" x="784.4828" y="131.5936">WithSnapshot</text><line style="stroke:#181818;stroke-width:0.5;" x1="673.33" x2="960.6777" y1="142.7469" y2="142.7469"/><text fill="#000000" font-family="sans-serif" font-size="14" lengthAdjust="spacing" textLength="169.627" x="678.33" y="159.742">Path snapshot_directory</text><text fill="#000000" font-family="sans-serif" font-size="14" lengthAdjust="spacing" textLength="277.3477" x="678.33" y="176.0389">list[float] | None snapshot_omegas_deg</text><line style="stroke:#181818;stroke-width:0.5;" x1="673.33" x2="960.6777" y1="183.3406" y2="183.3406"/></g><!--class SpecifiedGrid--><g class="entity" data-entity="SpecifiedGrid" data-source-line="37" data-uid="ent0010" id="entity_SpecifiedGrid"><rect fill="#F1F1F1" height="48" rx="2.5" ry="2.5" style="stroke:#181818;stroke-width:0.5;" width="125.6729" x="1676.16" y="357.2669"/><ellipse cx="1691.16" cy="373.2669" fill="#ADD1B2" rx="11" ry="11" style="stroke:#181818;stroke-width:1;"/><path d="M1694.1288,378.9075 Q1693.5506,379.2044 1692.91,379.345 Q1692.2694,379.5012 1691.5663,379.5012 Q1689.0663,379.5012 1687.7381,377.8606 Q1686.4256,376.2044 1686.4256,373.0794 Q1686.4256,369.9544 1687.7381,368.2981 Q1689.0663,366.6419 1691.5663,366.6419 Q1692.2694,366.6419 1692.91,366.7981 Q1693.5663,366.9544 1694.1288,367.2512 L1694.1288,369.97 Q1693.5038,369.3919 1692.91,369.1262 Q1692.3163,368.845 1691.6913,368.845 Q1690.3475,368.845 1689.66,369.9231 Q1688.9725,370.9856 1688.9725,373.0794 Q1688.9725,375.1731 1689.66,376.2512 Q1690.3475,377.3137 1691.6913,377.3137 Q1692.3163,377.3137 1692.91,377.0481 Q1693.5038,376.7669 1694.1288,376.1887 L1694.1288,378.9075 Z " fill="#000000"/><text fill="#000000" font-family="sans-serif" font-size="14" lengthAdjust="spacing" textLength="93.6729" x="1705.16" y="378.1136">SpecifiedGrid</text><line style="stroke:#181818;stroke-width:0.5;" x1="1677.16" x2="1800.8329" y1="389.2669" y2="389.2669"/><line style="stroke:#181818;stroke-width:0.5;" x1="1677.16" x2="1800.8329" y1="397.2669" y2="397.2669"/></g><!--class WithCentreSelection--><g class="entity" data-entity="WithCentreSelection" data-source-line="39" data-uid="ent0011" id="entity_WithCentreSelection"><rect fill="#F1F1F1" height="64.2969" rx="2.5" ry="2.5" style="stroke:#181818;stroke-width:0.5;" width="306.7861" x="2098.61" y="118.8969"/><ellipse cx="2175.8869" cy="134.8969" fill="#ADD1B2" rx="11" ry="11" style="stroke:#181818;stroke-width:1;"/><path d="M2178.8556,140.5375 Q2178.2775,140.8344 2177.6369,140.975 Q2176.9962,141.1312 2176.2931,141.1312 Q2173.7931,141.1312 2172.465,139.4906 Q2171.1525,137.8344 2171.1525,134.7094 Q2171.1525,131.5844 2172.465,129.9281 Q2173.7931,128.2719 2176.2931,128.2719 Q2176.9962,128.2719 2177.6369,128.4281 Q2178.2931,128.5844 2178.8556,128.8812 L2178.8556,131.6 Q2178.2306,131.0219 2177.6369,130.7562 Q2177.0431,130.475 2176.4181,130.475 Q2175.0744,130.475 2174.3869,131.5531 Q2173.6994,132.6156 2173.6994,134.7094 Q2173.6994,136.8031 2174.3869,137.8812 Q2175.0744,138.9437 2176.4181,138.9437 Q2177.0431,138.9437 2177.6369,138.6781 Q2178.2306,138.3969 2178.8556,137.8187 L2178.8556,140.5375 Z " fill="#000000"/><text fill="#000000" font-family="sans-serif" font-size="14" lengthAdjust="spacing" textLength="143.7324" x="2196.3869" y="139.7436">WithCentreSelection</text><line style="stroke:#181818;stroke-width:0.5;" x1="2099.61" x2="2404.3961" y1="150.8969" y2="150.8969"/><text fill="#000000" font-family="sans-serif" font-size="14" lengthAdjust="spacing" textLength="294.7861" x="2104.61" y="167.892">TopNByMaxCountSelection select_centres</text><line style="stroke:#181818;stroke-width:0.5;" x1="2099.61" x2="2404.3961" y1="175.1937" y2="175.1937"/></g><!--class OptionalXyzStarts--><g class="entity" data-entity="OptionalXyzStarts" data-source-line="42" data-uid="ent0012" id="entity_OptionalXyzStarts"><rect fill="#F1F1F1" height="96.8906" rx="2.5" ry="2.5" style="stroke:#181818;stroke-width:0.5;" width="175.4473" x="2440.28" y="102.5969"/><ellipse cx="2463.1713" cy="118.5969" fill="#ADD1B2" rx="11" ry="11" style="stroke:#181818;stroke-width:1;"/><path d="M2466.14,124.2375 Q2465.5619,124.5344 2464.9213,124.675 Q2464.2806,124.8312 2463.5775,124.8312 Q2461.0775,124.8312 2459.7494,123.1906 Q2458.4369,121.5344 2458.4369,118.4094 Q2458.4369,115.2844 2459.7494,113.6281 Q2461.0775,111.9719 2463.5775,111.9719 Q2464.2806,111.9719 2464.9213,112.1281 Q2465.5775,112.2844 2466.14,112.5812 L2466.14,115.3 Q2465.515,114.7219 2464.9213,114.4562 Q2464.3275,114.175 2463.7025,114.175 Q2462.3588,114.175 2461.6713,115.2531 Q2460.9838,116.3156 2460.9838,118.4094 Q2460.9838,120.5031 2461.6713,121.5812 Q2462.3588,122.6437 2463.7025,122.6437 Q2464.3275,122.6437 2464.9213,122.3781 Q2465.515,122.0969 2466.14,121.5187 L2466.14,124.2375 Z " fill="#000000"/><text fill="#000000" font-family="sans-serif" font-size="14" lengthAdjust="spacing" textLength="125.9111" x="2478.9249" y="123.4436">OptionalXyzStarts</text><line style="stroke:#181818;stroke-width:0.5;" x1="2441.28" x2="2614.7273" y1="134.5969" y2="134.5969"/><text fill="#000000" font-family="sans-serif" font-size="14" lengthAdjust="spacing" textLength="163.4473" x="2446.28" y="151.592">float | None x_start_um</text><text fill="#000000" font-family="sans-serif" font-size="14" lengthAdjust="spacing" textLength="163.4473" x="2446.28" y="167.8889">float | None y_start_um</text><text fill="#000000" font-family="sans-serif" font-size="14" lengthAdjust="spacing" textLength="162.5107" x="2446.28" y="184.1857">float | None z_start_um</text><line style="stroke:#181818;stroke-width:0.5;" x1="2441.28" x2="2614.7273" y1="191.4875" y2="191.4875"/></g><!--class WithScan--><g class="entity" data-entity="WithScan" data-source-line="47" data-uid="ent0013" id="entity_WithScan"><rect fill="#F1F1F1" height="48" rx="2.5" ry="2.5" style="stroke:#181818;stroke-width:0.5;" width="98.1309" x="1689.93" y="127.0469"/><ellipse cx="1704.93" cy="143.0469" fill="#ADD1B2" rx="11" ry="11" style="stroke:#181818;stroke-width:1;"/><path d="M1707.8988,148.6875 Q1707.3206,148.9844 1706.68,149.125 Q1706.0394,149.2813 1705.3363,149.2813 Q1702.8363,149.2813 1701.5081,147.6406 Q1700.1956,145.9844 1700.1956,142.8594 Q1700.1956,139.7344 1701.5081,138.0781 Q1702.8363,136.4219 1705.3363,136.4219 Q1706.0394,136.4219 1706.68,136.5781 Q1707.3363,136.7344 1707.8988,137.0313 L1707.8988,139.75 Q1707.2738,139.1719 1706.68,138.9063 Q1706.0863,138.625 1705.4613,138.625 Q1704.1175,138.625 1703.43,139.7031 Q1702.7425,140.7656 1702.7425,142.8594 Q1702.7425,144.9531 1703.43,146.0313 Q1704.1175,147.0938 1705.4613,147.0938 Q1706.0863,147.0938 1706.68,146.8281 Q1707.2738,146.5469 1707.8988,145.9688 L1707.8988,148.6875 Z " fill="#000000"/><text fill="#000000" font-family="sans-serif" font-size="14" lengthAdjust="spacing" textLength="66.1309" x="1718.93" y="147.8936">WithScan</text><line style="stroke:#181818;stroke-width:0.5;" x1="1690.93" x2="1787.0609" y1="159.0469" y2="159.0469"/><line style="stroke:#181818;stroke-width:0.5;" x1="1690.93" x2="1787.0609" y1="167.0469" y2="167.0469"/></g><!--class OptionalGonioAngleStarts--><g class="entity" data-entity="OptionalGonioAngleStarts" data-source-line="49" data-uid="ent0014" id="entity_OptionalGonioAngleStarts"><rect fill="#F1F1F1" height="113.1875" rx="2.5" ry="2.5" style="stroke:#181818;stroke-width:0.5;" width="219.3203" x="1435.34" y="94.4469"/><ellipse cx="1453.0633" cy="110.4469" fill="#ADD1B2" rx="11" ry="11" style="stroke:#181818;stroke-width:1;"/><path d="M1456.032,116.0875 Q1455.4539,116.3844 1454.8133,116.525 Q1454.1727,116.6812 1453.4695,116.6812 Q1450.9695,116.6812 1449.6414,115.0406 Q1448.3289,113.3844 1448.3289,110.2594 Q1448.3289,107.1344 1449.6414,105.4781 Q1450.9695,103.8219 1453.4695,103.8219 Q1454.1727,103.8219 1454.8133,103.9781 Q1455.4695,104.1344 1456.032,104.4312 L1456.032,107.15 Q1455.407,106.5719 1454.8133,106.3062 Q1454.2195,106.025 1453.5945,106.025 Q1452.2508,106.025 1451.5633,107.1031 Q1450.8758,108.1656 1450.8758,110.2594 Q1450.8758,112.3531 1451.5633,113.4312 Q1452.2508,114.4937 1453.5945,114.4937 Q1454.2195,114.4937 1454.8133,114.2281 Q1455.407,113.9469 1456.032,113.3687 L1456.032,116.0875 Z " fill="#000000"/><text fill="#000000" font-family="sans-serif" font-size="14" lengthAdjust="spacing" textLength="181.2686" x="1467.6685" y="115.2936">OptionalGonioAngleStarts</text><line style="stroke:#181818;stroke-width:0.5;" x1="1436.34" x2="1653.6603" y1="126.4469" y2="126.4469"/><text fill="#000000" font-family="sans-serif" font-size="14" lengthAdjust="spacing" textLength="207.3203" x="1441.34" y="143.442">float | None omega_start_deg</text><text fill="#000000" font-family="sans-serif" font-size="14" lengthAdjust="spacing" textLength="180.6875" x="1441.34" y="159.7389">float | None phi_start_deg</text><text fill="#000000" font-family="sans-serif" font-size="14" lengthAdjust="spacing" textLength="179.498" x="1441.34" y="176.0357">float | None chi_start_deg</text><text fill="#000000" font-family="sans-serif" font-size="14" lengthAdjust="spacing" textLength="202.0771" x="1441.34" y="192.3326">float | None kappa_start_deg</text><line style="stroke:#181818;stroke-width:0.5;" x1="1436.34" x2="1653.6603" y1="199.6344" y2="199.6344"/></g><!--class SpecifiedThreeDGridScan--><g class="entity" data-entity="SpecifiedThreeDGridScan" data-source-line="57" data-uid="ent0015" id="entity_SpecifiedThreeDGridScan"><rect fill="#F1F1F1" height="227.2656" rx="2.5" ry="2.5" style="stroke:#181818;stroke-width:0.5;" width="210.8965" x="2639.55" y="860.5369"/><ellipse cx="2654.55" cy="876.5369" fill="#ADD1B2" rx="11" ry="11" style="stroke:#181818;stroke-width:1;"/><path d="M2657.5188,882.1775 Q2656.9406,882.4744 2656.3,882.615 Q2655.6594,882.7713 2654.9563,882.7713 Q2652.4563,882.7713 2651.1281,881.1306 Q2649.8156,879.4744 2649.8156,876.3494 Q2649.8156,873.2244 2651.1281,871.5681 Q2652.4563,869.9119 2654.9563,869.9119 Q2655.6594,869.9119 2656.3,870.0681 Q2656.9563,870.2244 2657.5188,870.5213 L2657.5188,873.24 Q2656.8938,872.6619 2656.3,872.3963 Q2655.7063,872.115 2655.0813,872.115 Q2653.7375,872.115 2653.05,873.1931 Q2652.3625,874.2556 2652.3625,876.3494 Q2652.3625,878.4431 2653.05,879.5213 Q2653.7375,880.5838 2655.0813,880.5838 Q2655.7063,880.5838 2656.3,880.3181 Q2656.8938,880.0369 2657.5188,879.4588 L2657.5188,882.1775 Z " fill="#000000"/><text fill="#000000" font-family="sans-serif" font-size="14" lengthAdjust="spacing" textLength="178.8965" x="2668.55" y="881.3836">SpecifiedThreeDGridScan</text><line style="stroke:#181818;stroke-width:0.5;" x1="2640.55" x2="2849.4465" y1="892.5369" y2="892.5369"/><text fill="#000000" font-family="sans-serif" font-size="14" lengthAdjust="spacing" textLength="160.8975" x="2645.55" y="909.532">float grid1_omega_deg</text><text fill="#000000" font-family="sans-serif" font-size="14" lengthAdjust="spacing" textLength="160.8975" x="2645.55" y="925.8289">float grid2_omega_deg</text><text fill="#000000" font-family="sans-serif" font-size="14" lengthAdjust="spacing" textLength="145.127" x="2645.55" y="942.1257">float x_step_size_um</text><text fill="#000000" font-family="sans-serif" font-size="14" lengthAdjust="spacing" textLength="145.127" x="2645.55" y="958.4226">float y_step_size_um</text><text fill="#000000" font-family="sans-serif" font-size="14" lengthAdjust="spacing" textLength="144.1904" x="2645.55" y="974.7195">float z_step_size_um</text><text fill="#000000" font-family="sans-serif" font-size="14" lengthAdjust="spacing" textLength="122.2129" x="2645.55" y="991.0164">float y2_start_um</text><text fill="#000000" font-family="sans-serif" font-size="14" lengthAdjust="spacing" textLength="121.2764" x="2645.55" y="1007.3132">float z2_start_um</text><text fill="#000000" font-family="sans-serif" font-size="14" lengthAdjust="spacing" textLength="75.5645" x="2645.55" y="1023.6101">int x_steps</text><text fill="#000000" font-family="sans-serif" font-size="14" lengthAdjust="spacing" textLength="75.5645" x="2645.55" y="1039.907">int y_steps</text><text fill="#000000" font-family="sans-serif" font-size="14" lengthAdjust="spacing" textLength="74.6279" x="2645.55" y="1056.2039">int z_steps</text><text fill="#000000" font-family="sans-serif" font-size="14" lengthAdjust="spacing" textLength="154.4102" x="2645.55" y="1072.5007">bool _set_stub_offsets</text><line style="stroke:#181818;stroke-width:0.5;" x1="2640.55" x2="2849.4465" y1="1079.8025" y2="1079.8025"/></g><!--class MxBlueskyParameters--><g class="entity" data-entity="MxBlueskyParameters" data-source-line="70" data-uid="ent0016" id="entity_MxBlueskyParameters"><rect fill="#F1F1F1" height="64.2969" rx="2.5" ry="2.5" style="stroke:#181818;stroke-width:0.5;" width="317.4639" x="2652.27" y="118.8969"/><ellipse cx="2728.8564" cy="134.8969" fill="#ADD1B2" rx="11" ry="11" style="stroke:#181818;stroke-width:1;"/><path d="M2731.8252,140.5375 Q2731.2471,140.8344 2730.6064,140.975 Q2729.9658,141.1312 2729.2627,141.1312 Q2726.7627,141.1312 2725.4346,139.4906 Q2724.1221,137.8344 2724.1221,134.7094 Q2724.1221,131.5844 2725.4346,129.9281 Q2726.7627,128.2719 2729.2627,128.2719 Q2729.9658,128.2719 2730.6064,128.4281 Q2731.2627,128.5844 2731.8252,128.8812 L2731.8252,131.6 Q2731.2002,131.0219 2730.6064,130.7562 Q2730.0127,130.475 2729.3877,130.475 Q2728.0439,130.475 2727.3564,131.5531 Q2726.6689,132.6156 2726.6689,134.7094 Q2726.6689,136.8031 2727.3564,137.8812 Q2728.0439,138.9437 2729.3877,138.9437 Q2730.0127,138.9437 2730.6064,138.6781 Q2731.2002,138.3969 2731.8252,137.8187 L2731.8252,140.5375 Z " fill="#000000"/><text fill="#000000" font-family="sans-serif" font-size="14" lengthAdjust="spacing" textLength="155.791" x="2749.3564" y="139.7436">MxBlueskyParameters</text><line style="stroke:#181818;stroke-width:0.5;" x1="2653.27" x2="2968.7339" y1="150.8969" y2="150.8969"/><text fill="#000000" font-family="sans-serif" font-size="14" lengthAdjust="spacing" textLength="305.4639" x="2658.27" y="167.892">SemanticVersion parameter_model_version</text><line style="stroke:#181818;stroke-width:0.5;" x1="2653.27" x2="2968.7339" y1="175.1937" y2="175.1937"/></g><!--class DiffractionExperimentWithSample--><g class="entity" data-entity="DiffractionExperimentWithSample" data-source-line="73" data-uid="ent0017" id="entity_DiffractionExperimentWithSample"><rect fill="#F1F1F1" height="48" rx="2.5" ry="2.5" style="stroke:#181818;stroke-width:0.5;" width="270.8545" x="2670.57" y="546.7569"/><ellipse cx="2685.57" cy="562.7569" fill="#ADD1B2" rx="11" ry="11" style="stroke:#181818;stroke-width:1;"/><path d="M2688.5388,568.3975 Q2687.9606,568.6944 2687.32,568.835 Q2686.6794,568.9912 2685.9763,568.9912 Q2683.4763,568.9912 2682.1481,567.3506 Q2680.8356,565.6944 2680.8356,562.5694 Q2680.8356,559.4444 2682.1481,557.7881 Q2683.4763,556.1319 2685.9763,556.1319 Q2686.6794,556.1319 2687.32,556.2881 Q2687.9763,556.4444 2688.5388,556.7412 L2688.5388,559.46 Q2687.9138,558.8819 2687.32,558.6162 Q2686.7263,558.335 2686.1013,558.335 Q2684.7575,558.335 2684.07,559.4131 Q2683.3825,560.4756 2683.3825,562.5694 Q2683.3825,564.6631 2684.07,565.7412 Q2684.7575,566.8037 2686.1013,566.8037 Q2686.7263,566.8037 2687.32,566.5381 Q2687.9138,566.2569 2688.5388,565.6787 L2688.5388,568.3975 Z " fill="#000000"/><text fill="#000000" font-family="sans-serif" font-size="14" lengthAdjust="spacing" textLength="238.8545" x="2699.57" y="567.6036">DiffractionExperimentWithSample</text><line style="stroke:#181818;stroke-width:0.5;" x1="2671.57" x2="2940.4245" y1="578.7569" y2="578.7569"/><line style="stroke:#181818;stroke-width:0.5;" x1="2671.57" x2="2940.4245" y1="586.7569" y2="586.7569"/></g><!--class DiffractionExperiment--><g class="entity" data-entity="DiffractionExperiment" data-source-line="75" data-uid="ent0018" id="entity_DiffractionExperiment"><rect fill="#F1F1F1" height="210.9688" rx="2.5" ry="2.5" style="stroke:#181818;stroke-width:0.5;" width="332.332" x="2639.83" y="275.7869"/><ellipse cx="2724.6127" cy="291.7869" fill="#ADD1B2" rx="11" ry="11" style="stroke:#181818;stroke-width:1;"/><path d="M2727.5815,297.4275 Q2727.0033,297.7244 2726.3627,297.865 Q2725.7221,298.0213 2725.019,298.0213 Q2722.519,298.0213 2721.1908,296.3806 Q2719.8783,294.7244 2719.8783,291.5994 Q2719.8783,288.4744 2721.1908,286.8181 Q2722.519,285.1619 2725.019,285.1619 Q2725.7221,285.1619 2726.3627,285.3181 Q2727.019,285.4744 2727.5815,285.7713 L2727.5815,288.49 Q2726.9565,287.9119 2726.3627,287.6463 Q2725.769,287.365 2725.144,287.365 Q2723.8002,287.365 2723.1127,288.4431 Q2722.4252,289.5056 2722.4252,291.5994 Q2722.4252,293.6931 2723.1127,294.7713 Q2723.8002,295.8338 2725.144,295.8338 Q2725.769,295.8338 2726.3627,295.5681 Q2726.9565,295.2869 2727.5815,294.7088 L2727.5815,297.4275 Z " fill="#000000"/><text fill="#000000" font-family="sans-serif" font-size="14" lengthAdjust="spacing" textLength="154.2666" x="2745.1127" y="296.6336">DiffractionExperiment</text><line style="stroke:#181818;stroke-width:0.5;" x1="2640.83" x2="2971.162" y1="307.7869" y2="307.7869"/><text fill="#000000" font-family="sans-serif" font-size="14" lengthAdjust="spacing" textLength="91.0137" x="2645.83" y="324.782">str file_name</text><text fill="#000000" font-family="sans-serif" font-size="14" lengthAdjust="spacing" textLength="153.7129" x="2645.83" y="341.0789">float exposure_time_s</text><text fill="#000000" font-family="sans-serif" font-size="14" lengthAdjust="spacing" textLength="89.5029" x="2645.83" y="357.3757">str comment</text><text fill="#000000" font-family="sans-serif" font-size="14" lengthAdjust="spacing" textLength="186.915" x="2645.83" y="373.6726">TriggerMode trigger_mode</text><text fill="#000000" font-family="sans-serif" font-size="14" lengthAdjust="spacing" textLength="157.9854" x="2645.83" y="389.9695">int | None run_number</text><text fill="#000000" font-family="sans-serif" font-size="14" lengthAdjust="spacing" textLength="282.3516" x="2645.83" y="406.2664">ApertureValue | None selected_aperture</text><text fill="#000000" font-family="sans-serif" font-size="14" lengthAdjust="spacing" textLength="159.2979" x="2645.83" y="422.5632">float transmission_frac</text><text fill="#000000" font-family="sans-serif" font-size="14" lengthAdjust="spacing" textLength="320.332" x="2645.83" y="438.8601">IspybExperimentType ispyb_experiment_type</text><text fill="#000000" font-family="sans-serif" font-size="14" lengthAdjust="spacing" textLength="146.1113" x="2645.83" y="455.157">str storage_directory</text><text fill="#000000" font-family="sans-serif" font-size="14" lengthAdjust="spacing" textLength="131.0518" x="2645.83" y="471.4539">bool use_roi_mode</text><line style="stroke:#181818;stroke-width:0.5;" x1="2640.83" x2="2971.162" y1="478.7556" y2="478.7556"/></g><!--class GridCommon--><g class="entity" data-entity="GridCommon" data-source-line="87" data-uid="ent0019" id="entity_GridCommon"><rect fill="#F1F1F1" height="145.7813" rx="2.5" ry="2.5" style="stroke:#181818;stroke-width:0.5;" width="332.332" x="2639.83" y="654.7569"/><ellipse cx="2755.5282" cy="670.7569" fill="#ADD1B2" rx="11" ry="11" style="stroke:#181818;stroke-width:1;"/><path d="M2758.497,676.3975 Q2757.9189,676.6944 2757.2782,676.835 Q2756.6376,676.9912 2755.9345,676.9912 Q2753.4345,676.9912 2752.1064,675.3506 Q2750.7939,673.6944 2750.7939,670.5694 Q2750.7939,667.4444 2752.1064,665.7881 Q2753.4345,664.1319 2755.9345,664.1319 Q2756.6376,664.1319 2757.2782,664.2881 Q2757.9345,664.4444 2758.497,664.7412 L2758.497,667.46 Q2757.872,666.8819 2757.2782,666.6162 Q2756.6845,666.335 2756.0595,666.335 Q2754.7157,666.335 2754.0282,667.4131 Q2753.3407,668.4756 2753.3407,670.5694 Q2753.3407,672.6631 2754.0282,673.7412 Q2754.7157,674.8037 2756.0595,674.8037 Q2756.6845,674.8037 2757.2782,674.5381 Q2757.872,674.2569 2758.497,673.6787 L2758.497,676.3975 Z " fill="#000000"/><text fill="#000000" font-family="sans-serif" font-size="14" lengthAdjust="spacing" textLength="92.4355" x="2776.0282" y="675.6036">GridCommon</text><line style="stroke:#181818;stroke-width:0.5;" x1="2640.83" x2="2971.162" y1="686.7569" y2="686.7569"/><text fill="#000000" font-family="sans-serif" font-size="14" lengthAdjust="spacing" textLength="125.2959" x="2645.83" y="703.752">float box_size_um</text><text fill="#000000" font-family="sans-serif" font-size="14" lengthAdjust="spacing" textLength="138.4209" x="2645.83" y="720.0489">float grid_width_um</text><text fill="#000000" font-family="sans-serif" font-size="14" lengthAdjust="spacing" textLength="153.7129" x="2645.83" y="736.3457">float exposure_time_s</text><text fill="#000000" font-family="sans-serif" font-size="14" lengthAdjust="spacing" textLength="320.332" x="2645.83" y="752.6426">IspybExperimentType ispyb_experiment_type</text><text fill="#000000" font-family="sans-serif" font-size="14" lengthAdjust="spacing" textLength="282.3516" x="2645.83" y="768.9395">ApertureValue | None selected_aperture</text><text fill="#000000" font-family="sans-serif" font-size="14" lengthAdjust="spacing" textLength="130.498" x="2645.83" y="785.2364">float tip_offset_um</text><line style="stroke:#181818;stroke-width:0.5;" x1="2640.83" x2="2971.162" y1="792.5381" y2="792.5381"/></g><!--class GridCommonWithHyperionDetectorParams--><g class="entity" data-entity="GridCommonWithHyperionDetectorParams" data-source-line="98" data-uid="ent0021" id="entity_GridCommonWithHyperionDetectorParams"><rect fill="#F1F1F1" height="48" rx="2.5" ry="2.5" style="stroke:#181818;stroke-width:0.5;" width="333.2188" x="3073.39" y="950.1669"/><ellipse cx="3088.39" cy="966.1669" fill="#ADD1B2" rx="11" ry="11" style="stroke:#181818;stroke-width:1;"/><path d="M3091.3588,971.8075 Q3090.7806,972.1044 3090.14,972.245 Q3089.4994,972.4012 3088.7963,972.4012 Q3086.2963,972.4012 3084.9681,970.7606 Q3083.6556,969.1044 3083.6556,965.9794 Q3083.6556,962.8544 3084.9681,961.1981 Q3086.2963,959.5419 3088.7963,959.5419 Q3089.4994,959.5419 3090.14,959.6981 Q3090.7963,959.8544 3091.3588,960.1512 L3091.3588,962.87 Q3090.7338,962.2919 3090.14,962.0262 Q3089.5463,961.745 3088.9213,961.745 Q3087.5775,961.745 3086.89,962.8231 Q3086.2025,963.8856 3086.2025,965.9794 Q3086.2025,968.0731 3086.89,969.1512 Q3087.5775,970.2137 3088.9213,970.2137 Q3089.5463,970.2137 3090.14,969.9481 Q3090.7338,969.6669 3091.3588,969.0887 L3091.3588,971.8075 Z " fill="#000000"/><text fill="#000000" font-family="sans-serif" font-size="14" lengthAdjust="spacing" textLength="301.2188" x="3102.39" y="971.0136">GridCommonWithHyperionDetectorParams</text><line style="stroke:#181818;stroke-width:0.5;" x1="3074.39" x2="3405.6088" y1="982.1669" y2="982.1669"/><line style="stroke:#181818;stroke-width:0.5;" x1="3074.39" x2="3405.6088" y1="990.1669" y2="990.1669"/></g><!--class RotationExperiment--><g class="entity" data-entity="RotationExperiment" data-source-line="100" data-uid="ent0022" id="entity_RotationExperiment"><rect fill="#F1F1F1" height="96.8906" rx="2.5" ry="2.5" style="stroke:#181818;stroke-width:0.5;" width="332.332" x="3441.83" y="925.7269"/><ellipse cx="3533.7118" cy="941.7269" fill="#ADD1B2" rx="11" ry="11" style="stroke:#181818;stroke-width:1;"/><path d="M3536.6806,947.3675 Q3536.1025,947.6644 3535.4618,947.805 Q3534.8212,947.9613 3534.1181,947.9613 Q3531.6181,947.9613 3530.29,946.3206 Q3528.9775,944.6644 3528.9775,941.5394 Q3528.9775,938.4144 3530.29,936.7581 Q3531.6181,935.1019 3534.1181,935.1019 Q3534.8212,935.1019 3535.4618,935.2581 Q3536.1181,935.4144 3536.6806,935.7113 L3536.6806,938.43 Q3536.0556,937.8519 3535.4618,937.5863 Q3534.8681,937.305 3534.2431,937.305 Q3532.8993,937.305 3532.2118,938.3831 Q3531.5243,939.4456 3531.5243,941.5394 Q3531.5243,943.6331 3532.2118,944.7113 Q3532.8993,945.7738 3534.2431,945.7738 Q3534.8681,945.7738 3535.4618,945.5081 Q3536.0556,945.2269 3536.6806,944.6488 L3536.6806,947.3675 Z " fill="#000000"/><text fill="#000000" font-family="sans-serif" font-size="14" lengthAdjust="spacing" textLength="140.0684" x="3554.2118" y="946.5736">RotationExperiment</text><line style="stroke:#181818;stroke-width:0.5;" x1="3442.83" x2="3773.162" y1="957.7269" y2="957.7269"/><text fill="#000000" font-family="sans-serif" font-size="14" lengthAdjust="spacing" textLength="202.8018" x="3447.83" y="974.722">float shutter_opening_time_s</text><text fill="#000000" font-family="sans-serif" font-size="14" lengthAdjust="spacing" textLength="202.9385" x="3447.83" y="991.0189">float rotation_increment_deg</text><text fill="#000000" font-family="sans-serif" font-size="14" lengthAdjust="spacing" textLength="320.332" x="3447.83" y="1007.3157">IspybExperimentType ispyb_experiment_type</text><line style="stroke:#181818;stroke-width:0.5;" x1="3442.83" x2="3773.162" y1="1014.6175" y2="1014.6175"/></g><!--class HyperionSpecifiedThreeDGridScan--><g class="entity" data-entity="HyperionSpecifiedThreeDGridScan" data-source-line="105" data-uid="ent0023" id="entity_HyperionSpecifiedThreeDGridScan"><rect fill="#F1F1F1" height="48" rx="2.5" ry="2.5" style="stroke:#181818;stroke-width:0.5;" width="274.293" x="3808.85" y="950.1669"/><ellipse cx="3823.85" cy="966.1669" fill="#ADD1B2" rx="11" ry="11" style="stroke:#181818;stroke-width:1;"/><path d="M3826.8188,971.8075 Q3826.2406,972.1044 3825.6,972.245 Q3824.9594,972.4012 3824.2563,972.4012 Q3821.7563,972.4012 3820.4281,970.7606 Q3819.1156,969.1044 3819.1156,965.9794 Q3819.1156,962.8544 3820.4281,961.1981 Q3821.7563,959.5419 3824.2563,959.5419 Q3824.9594,959.5419 3825.6,959.6981 Q3826.2563,959.8544 3826.8188,960.1512 L3826.8188,962.87 Q3826.1938,962.2919 3825.6,962.0262 Q3825.0063,961.745 3824.3813,961.745 Q3823.0375,961.745 3822.35,962.8231 Q3821.6625,963.8856 3821.6625,965.9794 Q3821.6625,968.0731 3822.35,969.1512 Q3823.0375,970.2137 3824.3813,970.2137 Q3825.0063,970.2137 3825.6,969.9481 Q3826.1938,969.6669 3826.8188,969.0887 L3826.8188,971.8075 Z " fill="#000000"/><text fill="#000000" font-family="sans-serif" font-size="14" lengthAdjust="spacing" textLength="242.293" x="3837.85" y="971.0136">HyperionSpecifiedThreeDGridScan</text><line style="stroke:#181818;stroke-width:0.5;" x1="3809.85" x2="4082.143" y1="982.1669" y2="982.1669"/><line style="stroke:#181818;stroke-width:0.5;" x1="3809.85" x2="4082.143" y1="990.1669" y2="990.1669"/></g><!--class LoadCentreCollect--><g class="entity" data-entity="LoadCentreCollect" data-source-line="107" data-uid="ent0024" id="entity_LoadCentreCollect"><rect fill="#F1F1F1" height="80.5938" rx="2.5" ry="2.5" style="stroke:#181818;stroke-width:0.5;" width="338.6211" x="4191.69" y="933.8669"/><ellipse cx="4292.315" cy="949.8669" fill="#ADD1B2" rx="11" ry="11" style="stroke:#181818;stroke-width:1;"/><path d="M4295.2838,955.5075 Q4294.7056,955.8044 4294.065,955.945 Q4293.4244,956.1012 4292.7213,956.1012 Q4290.2213,956.1012 4288.8931,954.4606 Q4287.5806,952.8044 4287.5806,949.6794 Q4287.5806,946.5544 4288.8931,944.8981 Q4290.2213,943.2419 4292.7213,943.2419 Q4293.4244,943.2419 4294.065,943.3981 Q4294.7213,943.5544 4295.2838,943.8512 L4295.2838,946.57 Q4294.6588,945.9919 4294.065,945.7262 Q4293.4713,945.445 4292.8463,945.445 Q4291.5025,945.445 4290.815,946.5231 Q4290.1275,947.5856 4290.1275,949.6794 Q4290.1275,951.7731 4290.815,952.8512 Q4291.5025,953.9137 4292.8463,953.9137 Q4293.4713,953.9137 4294.065,953.6481 Q4294.6588,953.3669 4295.2838,952.7887 L4295.2838,955.5075 Z " fill="#000000"/><text fill="#000000" font-family="sans-serif" font-size="14" lengthAdjust="spacing" textLength="128.8711" x="4312.815" y="954.7136">LoadCentreCollect</text><line style="stroke:#181818;stroke-width:0.5;" x1="4192.69" x2="4529.3111" y1="965.8669" y2="965.8669"/><text fill="#000000" font-family="sans-serif" font-size="14" lengthAdjust="spacing" textLength="326.6211" x="4197.69" y="982.862">RobotLoadThenCentre robot_load_then_centre</text><text fill="#000000" font-family="sans-serif" font-size="14" lengthAdjust="spacing" textLength="269.3154" x="4197.69" y="999.1589">MultiRotationScan multi_rotation_scan</text><line style="stroke:#181818;stroke-width:0.5;" x1="4192.69" x2="4529.3111" y1="1006.4606" y2="1006.4606"/></g><!--class RotationScan--><g class="entity" data-entity="RotationScan" data-source-line="111" data-uid="ent0025" id="entity_RotationScan"><rect fill="#F1F1F1" height="48" rx="2.5" ry="2.5" style="stroke:#181818;stroke-width:0.5;" width="125.2148" x="4634.39" y="1155.9469"/><ellipse cx="4649.39" cy="1171.9469" fill="#ADD1B2" rx="11" ry="11" style="stroke:#181818;stroke-width:1;"/><path d="M4652.3588,1177.5875 Q4651.7806,1177.8844 4651.14,1178.025 Q4650.4994,1178.1812 4649.7963,1178.1812 Q4647.2963,1178.1812 4645.9681,1176.5406 Q4644.6556,1174.8844 4644.6556,1171.7594 Q4644.6556,1168.6344 4645.9681,1166.9781 Q4647.2963,1165.3219 4649.7963,1165.3219 Q4650.4994,1165.3219 4651.14,1165.4781 Q4651.7963,1165.6344 4652.3588,1165.9312 L4652.3588,1168.65 Q4651.7338,1168.0719 4651.14,1167.8062 Q4650.5463,1167.525 4649.9213,1167.525 Q4648.5775,1167.525 4647.89,1168.6031 Q4647.2025,1169.6656 4647.2025,1171.7594 Q4647.2025,1173.8531 4647.89,1174.9312 Q4648.5775,1175.9937 4649.9213,1175.9937 Q4650.5463,1175.9937 4651.14,1175.7281 Q4651.7338,1175.4469 4652.3588,1174.8687 L4652.3588,1177.5875 Z " fill="#000000"/><text fill="#000000" font-family="sans-serif" font-size="14" lengthAdjust="spacing" textLength="93.2148" x="4663.39" y="1176.7936">RotationScan</text><line style="stroke:#181818;stroke-width:0.5;" x1="4635.39" x2="4758.6048" y1="1187.9469" y2="1187.9469"/><line style="stroke:#181818;stroke-width:0.5;" x1="4635.39" x2="4758.6048" y1="1195.9469" y2="1195.9469"/></g><!--class RobotLoadThenCentre--><g class="entity" data-entity="RobotLoadThenCentre" data-source-line="113" data-uid="ent0026" id="entity_RobotLoadThenCentre"><rect fill="#F1F1F1" height="64.2969" rx="2.5" ry="2.5" style="stroke:#181818;stroke-width:0.5;" width="212.9355" x="3084.53" y="1147.7969"/><ellipse cx="3110.2575" cy="1163.7969" fill="#ADD1B2" rx="11" ry="11" style="stroke:#181818;stroke-width:1;"/><path d="M3113.2262,1169.4375 Q3112.6481,1169.7344 3112.0075,1169.875 Q3111.3669,1170.0313 3110.6637,1170.0313 Q3108.1637,1170.0313 3106.8356,1168.3906 Q3105.5231,1166.7344 3105.5231,1163.6094 Q3105.5231,1160.4844 3106.8356,1158.8281 Q3108.1637,1157.1719 3110.6637,1157.1719 Q3111.3669,1157.1719 3112.0075,1157.3281 Q3112.6637,1157.4844 3113.2262,1157.7813 L3113.2262,1160.5 Q3112.6012,1159.9219 3112.0075,1159.6563 Q3111.4137,1159.375 3110.7887,1159.375 Q3109.445,1159.375 3108.7575,1160.4531 Q3108.07,1161.5156 3108.07,1163.6094 Q3108.07,1165.7031 3108.7575,1166.7813 Q3109.445,1167.8438 3110.7887,1167.8438 Q3111.4137,1167.8438 3112.0075,1167.5781 Q3112.6012,1167.2969 3113.2262,1166.7188 L3113.2262,1169.4375 Z " fill="#000000"/><text fill="#000000" font-family="sans-serif" font-size="14" lengthAdjust="spacing" textLength="157.0967" x="3126.6414" y="1168.6436">RobotLoadThenCentre</text><line style="stroke:#181818;stroke-width:0.5;" x1="3085.53" x2="3296.4655" y1="1179.7969" y2="1179.7969"/><text fill="#000000" font-family="sans-serif" font-size="14" lengthAdjust="spacing" textLength="200.9355" x="3090.53" y="1196.792">&lt;class 'float'&gt; thawing_time</text><line style="stroke:#181818;stroke-width:0.5;" x1="3085.53" x2="3296.4655" y1="1204.0938" y2="1204.0938"/></g><!--class MultiRotationScan--><g class="entity" data-entity="MultiRotationScan" data-source-line="116" data-uid="ent0027" id="entity_MultiRotationScan"><rect fill="#F1F1F1" height="64.2969" rx="2.5" ry="2.5" style="stroke:#181818;stroke-width:0.5;" width="540.001" x="4033" y="1147.7969"/><ellipse cx="4235.0327" cy="1163.7969" fill="#ADD1B2" rx="11" ry="11" style="stroke:#181818;stroke-width:1;"/><path d="M4238.0015,1169.4375 Q4237.4233,1169.7344 4236.7827,1169.875 Q4236.1421,1170.0313 4235.439,1170.0313 Q4232.939,1170.0313 4231.6108,1168.3906 Q4230.2983,1166.7344 4230.2983,1163.6094 Q4230.2983,1160.4844 4231.6108,1158.8281 Q4232.939,1157.1719 4235.439,1157.1719 Q4236.1421,1157.1719 4236.7827,1157.3281 Q4237.439,1157.4844 4238.0015,1157.7813 L4238.0015,1160.5 Q4237.3765,1159.9219 4236.7827,1159.6563 Q4236.189,1159.375 4235.564,1159.375 Q4234.2202,1159.375 4233.5327,1160.4531 Q4232.8452,1161.5156 4232.8452,1163.6094 Q4232.8452,1165.7031 4233.5327,1166.7813 Q4234.2202,1167.8438 4235.564,1167.8438 Q4236.189,1167.8438 4236.7827,1167.5781 Q4237.3765,1167.2969 4238.0015,1166.7188 L4238.0015,1169.4375 Z " fill="#000000"/><text fill="#000000" font-family="sans-serif" font-size="14" lengthAdjust="spacing" textLength="127.4355" x="4255.5327" y="1168.6436">MultiRotationScan</text><line style="stroke:#181818;stroke-width:0.5;" x1="4034" x2="4572.001" y1="1179.7969" y2="1179.7969"/><line style="stroke:#181818;stroke-width:0.5;" x1="4034" x2="4572.001" y1="1187.7969" y2="1187.7969"/><text fill="#000000" font-family="sans-serif" font-size="14" lengthAdjust="spacing" textLength="528.001" x="4039" y="1204.792">Annotated[list[RotationScanPerSweep], Len(min_length=1)] rotation_scans</text></g><!--class RotationScanPerSweep--><g class="entity" data-entity="RotationScanPerSweep" data-source-line="119" data-uid="ent0028" id="entity_RotationScanPerSweep"><rect fill="#F1F1F1" height="129.4844" rx="2.5" ry="2.5" style="stroke:#181818;stroke-width:0.5;" width="263.0498" x="4565.48" y="909.4269"/><ellipse cx="4611.5166" cy="925.4269" fill="#ADD1B2" rx="11" ry="11" style="stroke:#181818;stroke-width:1;"/><path d="M4614.4854,931.0675 Q4613.9072,931.3644 4613.2666,931.505 Q4612.626,931.6612 4611.9229,931.6612 Q4609.4229,931.6612 4608.0947,930.0206 Q4606.7822,928.3644 4606.7822,925.2394 Q4606.7822,922.1144 4608.0947,920.4581 Q4609.4229,918.8019 4611.9229,918.8019 Q4612.626,918.8019 4613.2666,918.9581 Q4613.9229,919.1144 4614.4854,919.4112 L4614.4854,922.13 Q4613.8604,921.5519 4613.2666,921.2862 Q4612.6729,921.005 4612.0479,921.005 Q4610.7041,921.005 4610.0166,922.0831 Q4609.3291,923.1456 4609.3291,925.2394 Q4609.3291,927.3331 4610.0166,928.4112 Q4610.7041,929.4737 4612.0479,929.4737 Q4612.6729,929.4737 4613.2666,929.2081 Q4613.8604,928.9269 4614.4854,928.3487 L4614.4854,931.0675 Z " fill="#000000"/><text fill="#000000" font-family="sans-serif" font-size="14" lengthAdjust="spacing" textLength="162.4766" x="4632.0166" y="930.2736">RotationScanPerSweep</text><line style="stroke:#181818;stroke-width:0.5;" x1="4566.48" x2="4827.5298" y1="941.4269" y2="941.4269"/><text fill="#000000" font-family="sans-serif" font-size="14" lengthAdjust="spacing" textLength="157.1787" x="4571.48" y="958.422">float omega_start_deg</text><text fill="#000000" font-family="sans-serif" font-size="14" lengthAdjust="spacing" textLength="182.9297" x="4571.48" y="974.7189">RotationAxis rotation_axis</text><text fill="#000000" font-family="sans-serif" font-size="14" lengthAdjust="spacing" textLength="147.3213" x="4571.48" y="991.0157">float scan_width_deg</text><text fill="#000000" font-family="sans-serif" font-size="14" lengthAdjust="spacing" textLength="251.0498" x="4571.48" y="1007.3126">RotationDirection rotation_direction</text><text fill="#000000" font-family="sans-serif" font-size="14" lengthAdjust="spacing" textLength="169.1279" x="4571.48" y="1023.6095">int nexus_vds_start_img</text><line style="stroke:#181818;stroke-width:0.5;" x1="4566.48" x2="4827.5298" y1="1030.9112" y2="1030.9112"/></g><!--class GridScanWithEdgeDetect--><g class="entity" data-entity="GridScanWithEdgeDetect" data-source-line="126" data-uid="ent0029" id="entity_GridScanWithEdgeDetect"><rect fill="#F1F1F1" height="48" rx="2.5" ry="2.5" style="stroke:#181818;stroke-width:0.5;" width="209.4268" x="3359.29" y="1155.9469"/><ellipse cx="3374.29" cy="1171.9469" fill="#ADD1B2" rx="11" ry="11" style="stroke:#181818;stroke-width:1;"/><path d="M3377.2588,1177.5875 Q3376.6806,1177.8844 3376.04,1178.025 Q3375.3994,1178.1812 3374.6963,1178.1812 Q3372.1963,1178.1812 3370.8681,1176.5406 Q3369.5556,1174.8844 3369.5556,1171.7594 Q3369.5556,1168.6344 3370.8681,1166.9781 Q3372.1963,1165.3219 3374.6963,1165.3219 Q3375.3994,1165.3219 3376.04,1165.4781 Q3376.6963,1165.6344 3377.2588,1165.9312 L3377.2588,1168.65 Q3376.6338,1168.0719 3376.04,1167.8062 Q3375.4463,1167.525 3374.8213,1167.525 Q3373.4775,1167.525 3372.79,1168.6031 Q3372.1025,1169.6656 3372.1025,1171.7594 Q3372.1025,1173.8531 3372.79,1174.9312 Q3373.4775,1175.9937 3374.8213,1175.9937 Q3375.4463,1175.9937 3376.04,1175.7281 Q3376.6338,1175.4469 3377.2588,1174.8687 L3377.2588,1177.5875 Z " fill="#000000"/><text fill="#000000" font-family="sans-serif" font-size="14" lengthAdjust="spacing" textLength="177.4268" x="3388.29" y="1176.7936">GridScanWithEdgeDetect</text><line style="stroke:#181818;stroke-width:0.5;" x1="3360.29" x2="3567.7168" y1="1187.9469" y2="1187.9469"/><line style="stroke:#181818;stroke-width:0.5;" x1="3360.29" x2="3567.7168" y1="1195.9469" y2="1195.9469"/></g><!--class WithHyperionUDCFeatures--><g class="entity" data-entity="WithHyperionUDCFeatures" data-source-line="128" data-uid="ent0030" id="entity_WithHyperionUDCFeatures"><rect fill="#F1F1F1" height="64.2969" rx="2.5" ry="2.5" style="stroke:#181818;stroke-width:0.5;" width="228.6719" x="3586.66" y="695.4969"/><ellipse cx="3605.7583" cy="711.4969" fill="#ADD1B2" rx="11" ry="11" style="stroke:#181818;stroke-width:1;"/><path d="M3608.7271,717.1375 Q3608.149,717.4344 3607.5083,717.575 Q3606.8677,717.7312 3606.1646,717.7312 Q3603.6646,717.7312 3602.3365,716.0906 Q3601.024,714.4344 3601.024,711.3094 Q3601.024,708.1844 3602.3365,706.5281 Q3603.6646,704.8719 3606.1646,704.8719 Q3606.8677,704.8719 3607.5083,705.0281 Q3608.1646,705.1844 3608.7271,705.4812 L3608.7271,708.2 Q3608.1021,707.6219 3607.5083,707.3562 Q3606.9146,707.075 3606.2896,707.075 Q3604.9458,707.075 3604.2583,708.1531 Q3603.5708,709.2156 3603.5708,711.3094 Q3603.5708,713.4031 3604.2583,714.4812 Q3604.9458,715.5437 3606.2896,715.5437 Q3606.9146,715.5437 3607.5083,715.2781 Q3608.1021,714.9969 3608.7271,714.4187 L3608.7271,717.1375 Z " fill="#000000"/><text fill="#000000" font-family="sans-serif" font-size="14" lengthAdjust="spacing" textLength="187.5645" x="3620.6691" y="716.3436">WithHyperionUDCFeatures</text><line style="stroke:#181818;stroke-width:0.5;" x1="3587.66" x2="3814.3319" y1="727.4969" y2="727.4969"/><text fill="#000000" font-family="sans-serif" font-size="14" lengthAdjust="spacing" textLength="216.6719" x="3592.66" y="744.492">HyperionFeatureFlags features</text><line style="stroke:#181818;stroke-width:0.5;" x1="3587.66" x2="3814.3319" y1="751.7937" y2="751.7937"/></g><!--class PinTipCentreThenXrayCentre--><g class="entity" data-entity="PinTipCentreThenXrayCentre" data-source-line="131" data-uid="ent0031" id="entity_PinTipCentreThenXrayCentre"><rect fill="#F1F1F1" height="64.2969" rx="2.5" ry="2.5" style="stroke:#181818;stroke-width:0.5;" width="235.8955" x="3709.05" y="1147.7969"/><ellipse cx="3724.05" cy="1163.7969" fill="#ADD1B2" rx="11" ry="11" style="stroke:#181818;stroke-width:1;"/><path d="M3727.0188,1169.4375 Q3726.4406,1169.7344 3725.8,1169.875 Q3725.1594,1170.0313 3724.4563,1170.0313 Q3721.9563,1170.0313 3720.6281,1168.3906 Q3719.3156,1166.7344 3719.3156,1163.6094 Q3719.3156,1160.4844 3720.6281,1158.8281 Q3721.9563,1157.1719 3724.4563,1157.1719 Q3725.1594,1157.1719 3725.8,1157.3281 Q3726.4563,1157.4844 3727.0188,1157.7813 L3727.0188,1160.5 Q3726.3938,1159.9219 3725.8,1159.6563 Q3725.2063,1159.375 3724.5813,1159.375 Q3723.2375,1159.375 3722.55,1160.4531 Q3721.8625,1161.5156 3721.8625,1163.6094 Q3721.8625,1165.7031 3722.55,1166.7813 Q3723.2375,1167.8438 3724.5813,1167.8438 Q3725.2063,1167.8438 3725.8,1167.5781 Q3726.3938,1167.2969 3727.0188,1166.7188 L3727.0188,1169.4375 Z " fill="#000000"/><text fill="#000000" font-family="sans-serif" font-size="14" lengthAdjust="spacing" textLength="203.8955" x="3738.05" y="1168.6436">PinTipCentreThenXrayCentre</text><line style="stroke:#181818;stroke-width:0.5;" x1="3710.05" x2="3943.9455" y1="1179.7969" y2="1179.7969"/><text fill="#000000" font-family="sans-serif" font-size="14" lengthAdjust="spacing" textLength="130.498" x="3715.05" y="1196.792">float tip_offset_um</text><line style="stroke:#181818;stroke-width:0.5;" x1="3710.05" x2="3943.9455" y1="1204.0938" y2="1204.0938"/></g><!--reverse link GridCommon to GridCommonWithHyperionDetectorParams--><g class="link" data-entity-1="GridCommon" data-entity-2="GridCommonWithHyperionDetectorParams" data-source-line="135" data-uid="lnk32" id="link_GridCommon_GridCommonWithHyperionDetectorParams"><path codeLine="135" d="M2950.1323,809.8524 C3039.8723,860.4124 3138.3,915.8669 3198.49,949.7769 " fill="none" id="GridCommon-backto-GridCommonWithHyperionDetectorParams" style="stroke:#181818;stroke-width:1;"/><polygon fill="none" points="2934.45,801.0169,2947.1871,815.0798,2953.0775,804.6249,2934.45,801.0169" style="stroke:#181818;stroke-width:1;"/></g><!--reverse link WithHyperionUDCFeatures to GridCommonWithHyperionDetectorParams--><g class="link" data-entity-1="WithHyperionUDCFeatures" data-entity-2="GridCommonWithHyperionDetectorParams" data-source-line="136" data-uid="lnk33" id="link_WithHyperionUDCFeatures_GridCommonWithHyperionDetectorParams"><path codeLine="136" d="M3612.9866,767.6482 C3556.4366,793.1982 3492.36,823.4669 3424,860.5369 C3371.15,889.1869 3312.25,926.1869 3275.65,949.7969 " fill="none" id="WithHyperionUDCFeatures-backto-GridCommonWithHyperionDetectorParams" style="stroke:#181818;stroke-width:1;"/><polygon fill="none" points="3629.39,760.2369,3610.5161,762.1803,3615.457,773.116,3629.39,760.2369" style="stroke:#181818;stroke-width:1;"/></g><!--reverse link DiffractionExperimentWithSample to RotationExperiment--><g class="link" data-entity-1="DiffractionExperimentWithSample" data-entity-2="RotationExperiment" data-source-line="137" data-uid="lnk34" id="link_DiffractionExperimentWithSample_RotationExperiment"><path codeLine="137" d="M2877.0829,602.2679 C2913.8029,618.1379 2946.72,632.6369 2990,652.4969 C3184.41,741.7169 3236.09,758.3269 3424,860.5369 C3460.85,880.5769 3500.68,904.6369 3533.82,925.3669 " fill="none" id="DiffractionExperimentWithSample-backto-RotationExperiment" style="stroke:#181818;stroke-width:1;"/><polygon fill="none" points="2860.56,595.1269,2874.7025,607.7755,2879.4632,596.7603,2860.56,595.1269" style="stroke:#181818;stroke-width:1;"/></g><!--reverse link WithHyperionUDCFeatures to RotationExperiment--><g class="link" data-entity-1="WithHyperionUDCFeatures" data-entity-2="RotationExperiment" data-source-line="138" data-uid="lnk35" id="link_WithHyperionUDCFeatures_RotationExperiment"><path codeLine="138" d="M3682.6324,776.9316 C3666.6924,818.8516 3644.74,876.5769 3626.15,925.4369 " fill="none" id="WithHyperionUDCFeatures-backto-RotationExperiment" style="stroke:#181818;stroke-width:1;"/><polygon fill="none" points="3689.03,760.1069,3677.0242,774.7991,3688.2407,779.0641,3689.03,760.1069" style="stroke:#181818;stroke-width:1;"/></g><!--reverse link WithHyperionUDCFeatures to HyperionSpecifiedThreeDGridScan--><g class="link" data-entity-1="WithHyperionUDCFeatures" data-entity-2="HyperionSpecifiedThreeDGridScan" data-source-line="139" data-uid="lnk36" id="link_WithHyperionUDCFeatures_HyperionSpecifiedThreeDGridScan"><path codeLine="139" d="M3745.2694,772.8233 C3795.1494,822.6133 3878.41,905.7169 3922.64,949.8569 " fill="none" id="WithHyperionUDCFeatures-backto-HyperionSpecifiedThreeDGridScan" style="stroke:#181818;stroke-width:1;"/><polygon fill="none" points="3732.53,760.1069,3741.0306,777.0698,3749.5082,768.5768,3732.53,760.1069" style="stroke:#181818;stroke-width:1;"/></g><!--reverse link SpecifiedThreeDGridScan to HyperionSpecifiedThreeDGridScan--><g class="link" data-entity-1="SpecifiedThreeDGridScan" data-entity-2="HyperionSpecifiedThreeDGridScan" data-source-line="140" data-uid="lnk37" id="link_SpecifiedThreeDGridScan_HyperionSpecifiedThreeDGridScan"><path codeLine="140" d="M2866.3731,898.9242 C2920.1131,868.9742 2972.06,845.7369 3037.5,830.5369 C3117.27,812.0069 3697.54,802.5669 3774.5,830.5369 C3840.02,854.3469 3897.97,915.3869 3926.76,949.7369 " fill="none" id="SpecifiedThreeDGridScan-backto-HyperionSpecifiedThreeDGridScan" style="stroke:#181818;stroke-width:1;"/><polygon fill="none" points="2850.65,907.6869,2869.294,904.1652,2863.4522,893.6832,2850.65,907.6869" style="stroke:#181818;stroke-width:1;"/></g><!--reverse link MxBlueskyParameters to LoadCentreCollect--><g class="link" data-entity-1="MxBlueskyParameters" data-entity-2="LoadCentreCollect" data-source-line="141" data-uid="lnk38" id="link_MxBlueskyParameters_LoadCentreCollect"><path codeLine="141" d="M2987.8359,155.5933 C3476.3959,166.0833 4910.16,202.8969 4979,275.7869 C5043.38,343.9469 5019.95,402.4069 4979,486.7569 C4918.88,610.5769 4570.11,841.0869 4424.66,933.4169 " fill="none" id="MxBlueskyParameters-backto-LoadCentreCollect" style="stroke:#181818;stroke-width:1;"/><polygon fill="none" points="2969.84,155.2069,2987.7071,161.5919,2987.9647,149.5947,2969.84,155.2069" style="stroke:#181818;stroke-width:1;"/></g><!--reverse link WithVisit to LoadCentreCollect--><g class="link" data-entity-1="WithVisit" data-entity-2="LoadCentreCollect" data-source-line="142" data-uid="lnk39" id="link_WithVisit_LoadCentreCollect"><path codeLine="142" d="M1286.3515,216.3885 C1428.1315,246.4385 3786.33,178.7669 3894,275.7869 C4068.67,433.1669 3810.4,619.9869 3961,800.5369 C4017.45,868.2169 4068.79,826.3069 4150,860.5369 C4199.74,881.4969 4253.38,910.2169 4294.12,933.4069 " fill="none" id="WithVisit-backto-LoadCentreCollect" style="stroke:#181818;stroke-width:1;"/><polygon fill="none" points="1268.99,211.6369,1284.7677,222.1756,1287.9354,210.6013,1268.99,211.6369" style="stroke:#181818;stroke-width:1;"/></g><!--reverse link WithSample to LoadCentreCollect--><g class="link" data-entity-1="WithSample" data-entity-2="LoadCentreCollect" data-source-line="143" data-uid="lnk40" id="link_WithSample_LoadCentreCollect"><path codeLine="143" d="M633.2209,208.4302 C645.2909,214.8702 642.22,212.0569 655,215.7869 C1152.91,360.8769 2482.17,161.3269 2988,275.7869 C3389.05,366.5369 3539.02,365.0069 3833,652.4969 C3885.03,703.3769 3846.58,754.5569 3903,800.5369 C3990.58,871.8969 4044.44,820.2869 4150,860.5369 C4201.41,880.1369 4256.13,909.6269 4296.95,933.5069 " fill="none" id="WithSample-backto-LoadCentreCollect" style="stroke:#181818;stroke-width:1;"/><polygon fill="none" points="617.34,199.9569,630.3965,213.7238,636.0453,203.1366,617.34,199.9569" style="stroke:#181818;stroke-width:1;"/></g><!--reverse link WithCentreSelection to LoadCentreCollect--><g class="link" data-entity-1="WithCentreSelection" data-entity-2="LoadCentreCollect" data-source-line="144" data-uid="lnk41" id="link_WithCentreSelection_LoadCentreCollect"><path codeLine="144" d="M2339.7411,190.3157 C2369.9711,202.4157 2389.27,208.3769 2423,215.7869 C2768.23,291.5969 2875.43,181.2469 3216,275.7869 C3575.05,375.4469 3651.96,450.3669 3965,652.4969 C4102.67,741.3869 4248.46,869.5469 4318.53,933.5969 " fill="none" id="WithCentreSelection-backto-LoadCentreCollect" style="stroke:#181818;stroke-width:1;"/><polygon fill="none" points="2323.03,183.6269,2337.5114,195.8861,2341.9707,184.7454,2323.03,183.6269" style="stroke:#181818;stroke-width:1;"/></g><!--reverse link WithHyperionUDCFeatures to LoadCentreCollect--><g class="link" data-entity-1="WithHyperionUDCFeatures" data-entity-2="LoadCentreCollect" data-source-line="145" data-uid="lnk42" id="link_WithHyperionUDCFeatures_LoadCentreCollect"><path codeLine="145" d="M3769.7556,768.9146 C3795.5456,783.0846 3811.69,790.2369 3842,800.5369 C3980.25,847.5169 4027.97,810.1069 4165,860.5369 C4214.54,878.7669 4266.13,908.9269 4303.93,933.4569 " fill="none" id="WithHyperionUDCFeatures-backto-LoadCentreCollect" style="stroke:#181818;stroke-width:1;"/><polygon fill="none" points="3753.98,760.2469,3766.8664,774.1731,3772.6449,763.6561,3753.98,760.2469" style="stroke:#181818;stroke-width:1;"/></g><!--reverse link MxBlueskyParameters to DiffractionExperiment--><g class="link" data-entity-1="MxBlueskyParameters" data-entity-2="DiffractionExperiment" data-source-line="146" data-uid="lnk43" id="link_MxBlueskyParameters_DiffractionExperiment"><path codeLine="146" d="M2809.9224,201.2925 C2809.3924,225.2825 2809.03,241.8769 2808.3,275.3969 " fill="none" id="MxBlueskyParameters-backto-DiffractionExperiment" style="stroke:#181818;stroke-width:1;"/><polygon fill="none" points="2810.32,183.2969,2803.9239,201.16,2815.921,201.425,2810.32,183.2969" style="stroke:#181818;stroke-width:1;"/></g><!--reverse link WithSnapshot to DiffractionExperiment--><g class="link" data-entity-1="WithSnapshot" data-entity-2="DiffractionExperiment" data-source-line="147" data-uid="lnk44" id="link_WithSnapshot_DiffractionExperiment"><path codeLine="147" d="M919.2295,198.2788 C943.7495,207.9288 954.12,210.4169 980,215.7869 C1339.7,290.3969 2279.83,171.2569 2632,275.7869 C2634.45,276.5069 2636.9,277.2769 2639.35,278.0869 " fill="none" id="WithSnapshot-backto-DiffractionExperiment" style="stroke:#181818;stroke-width:1;"/><polygon fill="none" points="902.48,191.6869,917.0322,203.8619,921.4268,192.6956,902.48,191.6869" style="stroke:#181818;stroke-width:1;"/></g><!--reverse link WithOptionalEnergyChange to DiffractionExperiment--><g class="link" data-entity-1="WithOptionalEnergyChange" data-entity-2="DiffractionExperiment" data-source-line="148" data-uid="lnk45" id="link_WithOptionalEnergyChange_DiffractionExperiment"><path codeLine="148" d="M217.5828,191.9556 C241.6228,204.4456 254.88,209.1069 283,215.7869 C791.02,336.5269 2130.62,129.8969 2632,275.7869 C2634.45,276.4969 2636.91,277.2569 2639.36,278.0569 " fill="none" id="WithOptionalEnergyChange-backto-DiffractionExperiment" style="stroke:#181818;stroke-width:1;"/><polygon fill="none" points="201.61,183.6569,214.8166,197.2799,220.3491,186.6313,201.61,183.6569" style="stroke:#181818;stroke-width:1;"/></g><!--reverse link WithVisit to DiffractionExperiment--><g class="link" data-entity-1="WithVisit" data-entity-2="DiffractionExperiment" data-source-line="149" data-uid="lnk46" id="link_WithVisit_DiffractionExperiment"><path codeLine="149" d="M1286.34,216.3776 C1578.55,281.6076 2345.32,189.4069 2632,275.7869 C2634.45,276.5169 2636.89,277.2969 2639.34,278.1169 " fill="none" id="WithVisit-backto-DiffractionExperiment" style="stroke:#181818;stroke-width:1;"/><polygon fill="none" points="1269.02,211.4769,1284.7064,222.151,1287.9736,210.6043,1269.02,211.4769" style="stroke:#181818;stroke-width:1;"/></g><!--reverse link WithScan to RotationScan--><g class="link" data-entity-1="WithScan" data-entity-2="RotationScan" data-source-line="150" data-uid="lnk47" id="link_WithScan_RotationScan"><path codeLine="150" d="M1767.1304,189.3564 C1779.0304,203.8964 1785.01,207.4369 1805,215.7869 C2074.95,328.4569 4155.1,197.6669 4437,275.7869 C4691.35,346.2669 4953,305.8169 4953,569.7569 C4953,569.7569 4953,569.7569 4953,728.6469 C4953,903.8469 5018.01,986.7669 4904,1119.7969 C4868.61,1161.0969 4806.58,1174.5569 4759.63,1178.4769 " fill="none" id="WithScan-backto-RotationScan" style="stroke:#181818;stroke-width:1;"/><polygon fill="none" points="1755.73,175.4269,1762.4872,193.1565,1771.7735,185.5563,1755.73,175.4269" style="stroke:#181818;stroke-width:1;"/></g><!--reverse link RotationScanPerSweep to RotationScan--><g class="link" data-entity-1="RotationScanPerSweep" data-entity-2="RotationScan" data-source-line="151" data-uid="lnk48" id="link_RotationScanPerSweep_RotationScan"><path codeLine="151" d="M4697,1057.3669 C4697,1097.0269 4697,1127.5669 4697,1155.7069 " fill="none" id="RotationScanPerSweep-backto-RotationScan" style="stroke:#181818;stroke-width:1;"/><polygon fill="none" points="4697,1039.3669,4691,1057.3669,4703,1057.3669,4697,1039.3669" style="stroke:#181818;stroke-width:1;"/></g><!--reverse link RotationExperiment to RotationScan--><g class="link" data-entity-1="RotationExperiment" data-entity-2="RotationScan" data-source-line="152" data-uid="lnk49" id="link_RotationExperiment_RotationScan"><path codeLine="152" d="M3664.1345,1035.488 C3698.3245,1069.428 3736.45,1099.7669 3791,1119.7969 C3874.49,1150.4569 4503.2,1133.5969 4591,1147.7969 C4605.11,1150.0869 4619.98,1153.6769 4633.98,1157.6169 " fill="none" id="RotationExperiment-backto-RotationScan" style="stroke:#181818;stroke-width:1;"/><polygon fill="none" points="3651.36,1022.8069,3659.9075,1039.7462,3668.3616,1031.2298,3651.36,1022.8069" style="stroke:#181818;stroke-width:1;"/></g><!--reverse link GridCommonWithHyperionDetectorParams to RobotLoadThenCentre--><g class="link" data-entity-1="GridCommonWithHyperionDetectorParams" data-entity-2="RobotLoadThenCentre" data-source-line="153" data-uid="lnk50" id="link_GridCommonWithHyperionDetectorParams_RobotLoadThenCentre"><path codeLine="153" d="M3230.1728,1016.0483 C3221.3528,1052.7383 3208.44,1106.4069 3198.55,1147.5369 " fill="none" id="GridCommonWithHyperionDetectorParams-backto-RobotLoadThenCentre" style="stroke:#181818;stroke-width:1;"/><polygon fill="none" points="3234.38,998.5469,3224.339,1014.6459,3236.0066,1017.4507,3234.38,998.5469" style="stroke:#181818;stroke-width:1;"/></g><!--reverse link WithHyperionUDCFeatures to RobotLoadThenCentre--><g class="link" data-entity-1="WithHyperionUDCFeatures" data-entity-2="RobotLoadThenCentre" data-source-line="154" data-uid="lnk51" id="link_WithHyperionUDCFeatures_RobotLoadThenCentre"><path codeLine="154" d="M3568.3177,736.4968 C3401.2577,748.6868 3121.68,780.0669 3056,860.5369 C2983.14,949.8069 2992.96,1023.3469 3056,1119.7969 C3063.28,1130.9369 3073.17,1139.9869 3084.32,1147.3469 " fill="none" id="WithHyperionUDCFeatures-backto-RobotLoadThenCentre" style="stroke:#181818;stroke-width:1;"/><polygon fill="none" points="3586.27,735.1869,3567.8811,730.5127,3568.7544,742.4809,3586.27,735.1869" style="stroke:#181818;stroke-width:1;"/></g><!--reverse link RotationExperiment to MultiRotationScan--><g class="link" data-entity-1="RotationExperiment" data-entity-2="MultiRotationScan" data-source-line="155" data-uid="lnk52" id="link_RotationExperiment_MultiRotationScan"><path codeLine="155" d="M3666.2762,1035.4216 C3700.6962,1068.5116 3738.04,1097.9169 3791,1119.7969 C3814.98,1129.7069 3922.35,1142.7869 4032.62,1154.1169 " fill="none" id="RotationExperiment-backto-MultiRotationScan" style="stroke:#181818;stroke-width:1;"/><polygon fill="none" points="3653.3,1022.9469,3662.1179,1039.747,3670.4344,1031.0962,3653.3,1022.9469" style="stroke:#181818;stroke-width:1;"/></g><!--reverse link SplitScan to MultiRotationScan--><g class="link" data-entity-1="SplitScan" data-entity-2="MultiRotationScan" data-source-line="156" data-uid="lnk53" id="link_SplitScan_MultiRotationScan"><path codeLine="156" d="M1380.1304,189.3564 C1392.0304,203.8964 1398.01,207.4269 1418,215.7869 C1677.75,324.3369 3673.29,229.6069 3951,275.7869 C4379.04,346.9569 4882,135.8369 4882,569.7569 C4882,569.7569 4882,569.7569 4882,728.6469 C4882,903.2269 4968.41,995.3269 4846,1119.7969 C4843.35,1122.4969 4708.12,1137.2369 4573.3,1151.3169 " fill="none" id="SplitScan-backto-MultiRotationScan" style="stroke:#181818;stroke-width:1;"/><polygon fill="none" points="1368.73,175.4269,1375.4872,193.1565,1384.7735,185.5563,1368.73,175.4269" style="stroke:#181818;stroke-width:1;"/></g><!--reverse link OptionalGonioAngleStarts to RotationScanPerSweep--><g class="link" data-entity-1="OptionalGonioAngleStarts" data-entity-2="RotationScanPerSweep" data-source-line="157" data-uid="lnk54" id="link_OptionalGonioAngleStarts_RotationScanPerSweep"><path codeLine="157" d="M1664.3935,214.3748 C1672.5235,217.3948 1663.86,213.7469 1672,215.7869 C1919.21,277.7669 3729.63,178.0269 3965,275.7869 C4290.82,411.1169 4556.26,763.8469 4655.27,909.1669 " fill="none" id="OptionalGonioAngleStarts-backto-RotationScanPerSweep" style="stroke:#181818;stroke-width:1;"/><polygon fill="none" points="1647.52,208.1069,1662.3042,219.9992,1666.4828,208.7503,1647.52,208.1069" style="stroke:#181818;stroke-width:1;"/></g><!--reverse link OptionalXyzStarts to RotationScanPerSweep--><g class="link" data-entity-1="OptionalXyzStarts" data-entity-2="RotationScanPerSweep" data-source-line="158" data-uid="lnk55" id="link_OptionalXyzStarts_RotationScanPerSweep"><path codeLine="158" d="M2605.0003,208.984 C2615.9803,215.434 2612.19,212.0069 2624,215.7869 C2813.42,276.4269 4249.84,162.0469 4413,275.7869 C4627.48,425.3069 4680.18,766.8469 4692.97,909.1169 " fill="none" id="OptionalXyzStarts-backto-RotationScanPerSweep" style="stroke:#181818;stroke-width:1;"/><polygon fill="none" points="2589.48,199.8669,2601.9612,214.1574,2608.0393,203.8105,2589.48,199.8669" style="stroke:#181818;stroke-width:1;"/></g><!--reverse link GridCommonWithHyperionDetectorParams to GridScanWithEdgeDetect--><g class="link" data-entity-1="GridCommonWithHyperionDetectorParams" data-entity-2="GridScanWithEdgeDetect" data-source-line="159" data-uid="lnk56" id="link_GridCommonWithHyperionDetectorParams_GridScanWithEdgeDetect"><path codeLine="159" d="M3279.0147,1010.6596 C3322.1047,1049.8596 3395.14,1116.2969 3438.26,1155.5269 " fill="none" id="GridCommonWithHyperionDetectorParams-backto-GridScanWithEdgeDetect" style="stroke:#181818;stroke-width:1;"/><polygon fill="none" points="3265.7,998.5469,3274.9772,1015.0978,3283.0523,1006.2214,3265.7,998.5469" style="stroke:#181818;stroke-width:1;"/></g><!--reverse link WithHyperionUDCFeatures to GridScanWithEdgeDetect--><g class="link" data-entity-1="WithHyperionUDCFeatures" data-entity-2="GridScanWithEdgeDetect" data-source-line="160" data-uid="lnk57" id="link_WithHyperionUDCFeatures_GridScanWithEdgeDetect"><path codeLine="160" d="M3771.0131,768.7777 C3796.6631,782.6877 3812.31,789.7069 3842,800.5369 C3953.01,841.0069 4027.48,768.0369 4101,860.5369 C4118.92,883.0869 4120.66,1098.7469 4101,1119.7969 C4069.91,1153.0869 3737.31,1143.1569 3692,1147.7969 C3651.76,1151.9169 3607.69,1157.6569 3569.1,1163.0769 " fill="none" id="WithHyperionUDCFeatures-backto-GridScanWithEdgeDetect" style="stroke:#181818;stroke-width:1;"/><polygon fill="none" points="3755.19,760.1969,3768.1528,774.0521,3773.8733,763.5034,3755.19,760.1969" style="stroke:#181818;stroke-width:1;"/></g><!--reverse link WithPandaGridScan to WithHyperionUDCFeatures--><g class="link" data-entity-1="WithPandaGridScan" data-entity-2="WithHyperionUDCFeatures" data-source-line="161" data-uid="lnk58" id="link_WithPandaGridScan_WithHyperionUDCFeatures"><path codeLine="161" d="M2015.0991,191.6678 C2039.5191,203.9178 2052.87,208.6169 2081,215.7869 C2472.49,315.4869 2603.88,150.6369 2988,275.7869 C3277.99,370.2669 3568,609.3869 3666.1,695.2969 " fill="none" id="WithPandaGridScan-backto-WithHyperionUDCFeatures" style="stroke:#181818;stroke-width:1;"/><polygon fill="none" points="1999.01,183.5969,2012.4088,197.0308,2017.7894,186.3048,1999.01,183.5969" style="stroke:#181818;stroke-width:1;"/></g><!--reverse link GridCommonWithHyperionDetectorParams to PinTipCentreThenXrayCentre--><g class="link" data-entity-1="GridCommonWithHyperionDetectorParams" data-entity-2="PinTipCentreThenXrayCentre" data-source-line="162" data-uid="lnk59" id="link_GridCommonWithHyperionDetectorParams_PinTipCentreThenXrayCentre"><path codeLine="162" d="M3274.0446,1011.405 C3306.0146,1044.405 3356.99,1090.9969 3424,1119.7969 C3437.14,1125.4469 3594.56,1147.5669 3708.69,1163.0969 " fill="none" id="GridCommonWithHyperionDetectorParams-backto-PinTipCentreThenXrayCentre" style="stroke:#181818;stroke-width:1;"/><polygon fill="none" points="3261.52,998.4769,3269.7352,1015.5798,3278.3539,1007.2301,3261.52,998.4769" style="stroke:#181818;stroke-width:1;"/></g><!--reverse link WithHyperionUDCFeatures to PinTipCentreThenXrayCentre--><g class="link" data-entity-1="WithHyperionUDCFeatures" data-entity-2="PinTipCentreThenXrayCentre" data-source-line="163" data-uid="lnk60" id="link_WithHyperionUDCFeatures_PinTipCentreThenXrayCentre"><path codeLine="163" d="M3770.2184,768.7431 C3795.9684,782.8031 3811.94,789.9269 3842,800.5369 C3964.48,843.7469 4046.13,759.7069 4128,860.5369 C4164.32,905.2569 4164.6,1075.3069 4128,1119.7969 C4121.89,1127.2269 4026.78,1145.1169 3945.08,1159.2869 " fill="none" id="WithHyperionUDCFeatures-backto-PinTipCentreThenXrayCentre" style="stroke:#181818;stroke-width:1;"/><polygon fill="none" points="3754.42,760.1169,3767.343,774.0092,3773.0938,763.477,3754.42,760.1169" style="stroke:#181818;stroke-width:1;"/></g><!--reverse link GridCommon to SpecifiedThreeDGridScan--><g class="link" data-entity-1="GridCommon" data-entity-2="SpecifiedThreeDGridScan" data-source-line="164" data-uid="lnk61" id="link_GridCommon_SpecifiedThreeDGridScan"><path codeLine="164" d="M2783.591,818.4811 C2778.951,837.0711 2778.21,840.0569 2773.19,860.1669 " fill="none" id="GridCommon-backto-SpecifiedThreeDGridScan" style="stroke:#181818;stroke-width:1;"/><polygon fill="none" points="2787.95,801.0169,2777.7696,817.0281,2789.4124,819.9341,2787.95,801.0169" style="stroke:#181818;stroke-width:1;"/></g><!--reverse link SpecifiedGrid to SpecifiedThreeDGridScan--><g class="link" data-entity-1="SpecifiedGrid" data-entity-2="SpecifiedThreeDGridScan" data-source-line="165" data-uid="lnk62" id="link_SpecifiedGrid_SpecifiedThreeDGridScan"><path codeLine="165" d="M1759.2095,421.3061 C1771.6395,444.2661 1784.59,463.4069 1811,486.7569 C2069.74,715.4269 2455.1,871.4469 2639.4,937.5469 " fill="none" id="SpecifiedGrid-backto-SpecifiedThreeDGridScan" style="stroke:#181818;stroke-width:1;"/><polygon fill="none" points="1750.64,405.4769,1753.9331,424.1626,1764.4859,418.4495,1750.64,405.4769" style="stroke:#181818;stroke-width:1;"/></g><!--reverse link SplitScan to SpecifiedThreeDGridScan--><g class="link" data-entity-1="SplitScan" data-entity-2="SpecifiedThreeDGridScan" data-source-line="166" data-uid="lnk63" id="link_SplitScan_SpecifiedThreeDGridScan"><path codeLine="166" d="M1378.6969,189.975 C1446.9669,285.765 1711.6,637.4869 2035,800.5369 C2234.64,901.1869 2495.93,945.0769 2639.34,962.6469 " fill="none" id="SplitScan-backto-SpecifiedThreeDGridScan" style="stroke:#181818;stroke-width:1;"/><polygon fill="none" points="1368.25,175.3169,1373.8109,193.4573,1383.583,186.4927,1368.25,175.3169" style="stroke:#181818;stroke-width:1;"/></g><!--reverse link WithOptionalEnergyChange to SpecifiedThreeDGridScan--><g class="link" data-entity-1="WithOptionalEnergyChange" data-entity-2="SpecifiedThreeDGridScan" data-source-line="167" data-uid="lnk64" id="link_WithOptionalEnergyChange_SpecifiedThreeDGridScan"><path codeLine="167" d="M228.6877,191.4336 C250.8777,202.0136 259.75,205.8669 283,215.7869 C952.63,501.3469 1112.21,603.4869 1813,800.5369 C2107.06,883.2169 2464.69,936.7569 2639.09,959.9469 " fill="none" id="WithOptionalEnergyChange-backto-SpecifiedThreeDGridScan" style="stroke:#181818;stroke-width:1;"/><polygon fill="none" points="212.44,183.6869,226.1054,196.8495,231.27,186.0177,212.44,183.6869" style="stroke:#181818;stroke-width:1;"/></g><!--reverse link DiffractionExperiment to DiffractionExperimentWithSample--><g class="link" data-entity-1="DiffractionExperiment" data-entity-2="DiffractionExperimentWithSample" data-source-line="168" data-uid="lnk65" id="link_DiffractionExperiment_DiffractionExperimentWithSample"><path codeLine="168" d="M2806,505.2469 C2806,527.5069 2806,530.9069 2806,546.3269 " fill="none" id="DiffractionExperiment-backto-DiffractionExperimentWithSample" style="stroke:#181818;stroke-width:1;"/><polygon fill="none" points="2806,487.2469,2800,505.2469,2812,505.2469,2806,487.2469" style="stroke:#181818;stroke-width:1;"/></g><!--reverse link WithSample to DiffractionExperimentWithSample--><g class="link" data-entity-1="WithSample" data-entity-2="DiffractionExperimentWithSample" data-source-line="169" data-uid="lnk66" id="link_WithSample_DiffractionExperimentWithSample"><path codeLine="169" d="M633.581,208.3288 C645.561,214.7388 642.37,211.9269 655,215.7869 C902.71,291.4469 1563.75,231.8369 1819,275.7869 C2179.11,337.7769 2593.3,488.1469 2745.71,546.2769 " fill="none" id="WithSample-backto-DiffractionExperimentWithSample" style="stroke:#181818;stroke-width:1;"/><polygon fill="none" points="617.71,199.8369,630.7503,213.6191,636.4116,203.0384,617.71,199.8369" style="stroke:#181818;stroke-width:1;"/></g><!--reverse link XyzStarts to SpecifiedGrid--><g class="link" data-entity-1="XyzStarts" data-entity-2="SpecifiedGrid" data-source-line="170" data-uid="lnk67" id="link_XyzStarts_SpecifiedGrid"><path codeLine="170" d="M429.8124,210.2602 C438.6524,216.4402 433.35,211.7069 443,215.7869 C557.85,264.2769 1431.46,350.8069 1675.72,374.2669 " fill="none" id="XyzStarts-backto-SpecifiedGrid" style="stroke:#181818;stroke-width:1;"/><polygon fill="none" points="415.06,199.9469,426.3747,215.1777,433.2502,205.3428,415.06,199.9469" style="stroke:#181818;stroke-width:1;"/></g><!--reverse link WithScan to SpecifiedGrid--><g class="link" data-entity-1="WithScan" data-entity-2="SpecifiedGrid" data-source-line="171" data-uid="lnk68" id="link_WithScan_SpecifiedGrid"><path codeLine="171" d="M1739,193.1769 C1739,236.9269 1739,313.2769 1739,357.0669 " fill="none" id="WithScan-backto-SpecifiedGrid" style="stroke:#181818;stroke-width:1;"/><polygon fill="none" points="1739,175.1769,1733,193.1769,1745,193.1769,1739,175.1769" style="stroke:#181818;stroke-width:1;"/></g><!--reverse link DiffractionExperimentWithSample to GridCommon--><g class="link" data-entity-1="DiffractionExperimentWithSample" data-entity-2="GridCommon" data-source-line="172" data-uid="lnk69" id="link_DiffractionExperimentWithSample_GridCommon"><path codeLine="172" d="M2806,612.9369 C2806,628.8969 2806,633.0169 2806,654.5769 " fill="none" id="DiffractionExperimentWithSample-backto-GridCommon" style="stroke:#181818;stroke-width:1;"/><polygon fill="none" points="2806,594.9369,2800,612.9369,2812,612.9369,2806,594.9369" style="stroke:#181818;stroke-width:1;"/></g><!--reverse link OptionalGonioAngleStarts to GridCommon--><g class="link" data-entity-1="OptionalGonioAngleStarts" data-entity-2="GridCommon" data-source-line="173" data-uid="lnk70" id="link_OptionalGonioAngleStarts_GridCommon"><path codeLine="173" d="M1671.1556,215.5561 C1676.9156,218.2861 1666.38,213.2369 1672,215.7869 C1736.25,244.9669 1754.23,247.7869 1819,275.7869 C2116.42,404.3469 2459.73,563.6769 2653.01,654.3969 " fill="none" id="OptionalGonioAngleStarts-backto-GridCommon" style="stroke:#181818;stroke-width:1;"/><polygon fill="none" points="1654.89,207.8469,1668.5858,220.9779,1673.7253,210.1342,1654.89,207.8469" style="stroke:#181818;stroke-width:1;"/></g><!--SRC=[bLVVRzis47wE_Wg-PGEM0ErpDo1rqcv0qmMrcnKe0eAMpX8HYIH8Ah7Izd_VKHHfoP9i1tc8UB_utV7k8ts-AhWX6ru2mV-ijl8Y1m6QMSZ8kY5XGLN9XAshyb8rIMAvHOU_6mMQIq7kc6OLMD3aLcPG9WOi4IWnYgMm18LgApKHKa2IeEoHvK2gBLsNDPZ7vZALLIN5fGfX3FcHM9c3BJ3aZoGjcJ7aM_Eoj4nRyoCvsvIIMRAbnWbeNGL9CvAyx2I_ka3_SLlygom2P-KDPfStYuA976BSd-Gp8YKPL4na55eJ2a-30FVSS8iUncgo1bQL77DhLqzEupypi3JZnb8hgJEYgHHFe353gfWjl14N1aM8XYeD6xuTeR2GOlNQG4oaGAjXAajMgTA1vy8Iqouep_ooYz59LPq-Jigv64IymxJPHyspPSf4h8foKgfhKQj9B4jLSkiz1l04KwQGhbPtc3CntHfZw3Qn9ZahCTptTfU722sOoGfoPcW6UMydIFc6G-Om3dTRWB0QMwx4q5XIt7GbrUVtpItRBcGjRDGGqtxHj7KmCKXeZ76tTS36JTSfcZd5J0iEInNs_IW5brSYBs5w-xOSNK1Naw5M5NnMbnxGFJAb-b5_uTze06FPLuK6k1urI8w2D_wy-biuyTknsDKH53Ny1VO6U2nzcRPzEvxsliWrkj_5-4NJNxo4nLhAab2aB1JKQoet6_pUDSJjzhrdgKXoxaoMZXiiJ-znwRefKXUj70FI9o-FKQxvPgDPstatMyUQ5VPTVteF6dOyurYQEbuDwS9MILDhe1RDgF5MZapH1pjVypm7xIYPMF_TeXjG0Cup5NMr1fsSNU5-5iFTCymu3c8x9v1Hrcd3vbOpOIfkN9xKOKxE_Z6gMUzWh_1-m5i5PHIYa5gKUgG6fnzlWZuJj8TH6w1QSWys5CQrswAz9sB3hULsloTSiz5ddjcY9noLwHKuNraJhhe6yjFk_YRkkwAxE8SttdwUhZt25NlTtG9j4vfTktoHberwnMCnHMrTGqe5Weiy9k-rkdEaNAGQseJRuJozD052W3XB3y7masIPv-U5B5q14UeNkPRMALO52Az4Q2YZY3AZo3-Ye-ZaxBOkBGy9kz2aSX8QKp4e6rLcY65YFqJnpYlFszAS_qLimPv3oNP4iByzEbu9uGIGVM-liBxs3lJo6K0z_44-WVYjueAM879R_FdczmSom6mcGOS0yK17r1-ihxRuT8iH6QvY3s2SRXm67jVjn3dYYcvP47bw4B2j3NtAJBSXh_B1A3g4ha5liXnySmuluj0LNwyN7u2v6N6q6QITw4F9SdnyTlheVyV5YYj_EkwSlcdMnBEQ6xJTt91tFoykJfgZP0RfAo8S8NOVQJobXtT-hVsH4KncvASvJro0td4qpqby61yow1TcscBl4NV8TBOaO_FPF2QFCEc_NO_PJVsQEERJgzC10F6K-ioGJD740RDTq0cZKxeyk8suyrWRZntcC8tODOc_9-OCvfxCuoH3ZPBHw_w0xUc5cUR3u-GoupFu-UMjPqAz0kCyfnx6US1ldt6Fie-J73CTdFcSsU6Pc_EQ7BC34xWZgn5l7RFVwwz11VO6UwWxwJhP5Vx83EmC_mS0]--></g></svg>