<svg xmlns="http://www.w3.org/2000/svg" xmlns:xlink="http://www.w3.org/1999/xlink" contentStyleType="text/css" data-diagram-type="CLASS" height="1391px" preserveAspectRatio="none" style="width:4304px;height:1391px;background:#FFFFFF;" version="1.1" viewBox="0 0 4304 1391" width="4304px" zoomAndPan="magnify"><title>Hyperion Parameter Model</title><defs/><g><g class="title" data-source-line="3"><text fill="#000000" font-family="sans-serif" font-size="14" font-weight="bold" lengthAdjust="spacing" textLength="212.4951" x="2038.7524" y="22.9951">Hyperion Parameter Model</text></g><!--cluster mx_bluesky.common.parameters--><g class="cluster" data-entity="mx_bluesky.common.parameters" data-source-line="6" data-uid="ent0002" id="cluster_mx_bluesky.common.parameters"><path d="M8.5,43.2969 L269.8125,43.2969 A3.75,3.75 0 0 1 272.3125,45.7969 L279.3125,65.5938 L2781.5,65.5938 A2.5,2.5 0 0 1 2784,68.0938 L2784,1109.2969 A2.5,2.5 0 0 1 2781.5,1111.7969 L8.5,1111.7969 A2.5,2.5 0 0 1 6,1109.2969 L6,45.7969 A2.5,2.5 0 0 1 8.5,43.2969" fill="none" style="stroke:#000000;stroke-width:1.5;"/><line style="stroke:#000000;stroke-width:1.5;" x1="6" x2="279.3125" y1="65.5938" y2="65.5938"/><text fill="#000000" font-family="sans-serif" font-size="14" font-weight="bold" lengthAdjust="spacing" textLength="260.3125" x="10" y="58.292">mx_bluesky.common.parameters</text></g><!--cluster mx_bluesky.hyperion.parameters--><g class="cluster" data-entity="mx_bluesky.hyperion.parameters" data-source-line="92" data-uid="ent0019" id="cluster_mx_bluesky.hyperion.parameters"><path d="M2810.5,907.0169 L3075.0322,907.0169 A3.75,3.75 0 0 1 3077.5322,909.5169 L3084.5322,929.3138 L4294.5,929.3138 A2.5,2.5 0 0 1 4297,931.8138 L4297,1382.4869 A2.5,2.5 0 0 1 4294.5,1384.9869 L2810.5,1384.9869 A2.5,2.5 0 0 1 2808,1382.4869 L2808,909.5169 A2.5,2.5 0 0 1 2810.5,907.0169" fill="none" style="stroke:#000000;stroke-width:1.5;"/><line style="stroke:#000000;stroke-width:1.5;" x1="2808" x2="3084.5322" y1="929.3138" y2="929.3138"/><text fill="#000000" font-family="sans-serif" font-size="14" font-weight="bold" lengthAdjust="spacing" textLength="263.5322" x="2812" y="922.012">mx_bluesky.hyperion.parameters</text></g><!--class WithCentreSelection--><g class="entity" data-entity="WithCentreSelection" data-source-line="8" data-uid="ent0003" id="entity_WithCentreSelection"><rect fill="#F1F1F1" height="64.2969" rx="2.5" ry="2.5" style="stroke:#181818;stroke-width:0.5;" width="306.7861" x="162.61" y="118.8969"/><ellipse cx="239.8869" cy="134.8969" fill="#ADD1B2" rx="11" ry="11" style="stroke:#181818;stroke-width:1;"/><path d="M242.8556,140.5375 Q242.2775,140.8344 241.6369,140.975 Q240.9962,141.1313 240.2931,141.1313 Q237.7931,141.1313 236.465,139.4906 Q235.1525,137.8344 235.1525,134.7094 Q235.1525,131.5844 236.465,129.9281 Q237.7931,128.2719 240.2931,128.2719 Q240.9962,128.2719 241.6369,128.4281 Q242.2931,128.5844 242.8556,128.8813 L242.8556,131.6 Q242.2306,131.0219 241.6369,130.7563 Q241.0431,130.475 240.4181,130.475 Q239.0744,130.475 238.3869,131.5531 Q237.6994,132.6156 237.6994,134.7094 Q237.6994,136.8031 238.3869,137.8813 Q239.0744,138.9438 240.4181,138.9438 Q241.0431,138.9438 241.6369,138.6781 Q242.2306,138.3969 242.8556,137.8188 L242.8556,140.5375 Z " fill="#000000"/><text fill="#000000" font-family="sans-serif" font-size="14" lengthAdjust="spacing" textLength="143.7324" x="260.3869" y="139.7436">WithCentreSelection</text><line style="stroke:#181818;stroke-width:0.5;" x1="163.61" x2="468.3961" y1="150.8969" y2="150.8969"/><text fill="#000000" font-family="sans-serif" font-size="14" lengthAdjust="spacing" textLength="294.7861" x="168.61" y="167.892">TopNByMaxCountSelection select_centres</text><line style="stroke:#181818;stroke-width:0.5;" x1="163.61" x2="468.3961" y1="175.1938" y2="175.1938"/></g><!--class WithSample--><g class="entity" data-entity="WithSample" data-source-line="11" data-uid="ent0004" id="entity_WithSample"><rect fill="#F1F1F1" height="96.8906" rx="2.5" ry="2.5" style="stroke:#181818;stroke-width:0.5;" width="176.3086" x="1645.85" y="102.5969"/><ellipse cx="1687.7243" cy="118.5969" fill="#ADD1B2" rx="11" ry="11" style="stroke:#181818;stroke-width:1;"/><path d="M1690.6931,124.2375 Q1690.1149,124.5344 1689.4743,124.675 Q1688.8337,124.8312 1688.1306,124.8312 Q1685.6306,124.8312 1684.3024,123.1906 Q1682.9899,121.5344 1682.9899,118.4094 Q1682.9899,115.2844 1684.3024,113.6281 Q1685.6306,111.9719 1688.1306,111.9719 Q1688.8337,111.9719 1689.4743,112.1281 Q1690.1306,112.2844 1690.6931,112.5812 L1690.6931,115.3 Q1690.0681,114.7219 1689.4743,114.4562 Q1688.8806,114.175 1688.2556,114.175 Q1686.9118,114.175 1686.2243,115.2531 Q1685.5368,116.3156 1685.5368,118.4094 Q1685.5368,120.5031 1686.2243,121.5812 Q1686.9118,122.6437 1688.2556,122.6437 Q1688.8806,122.6437 1689.4743,122.3781 Q1690.0681,122.0969 1690.6931,121.5187 L1690.6931,124.2375 Z " fill="#000000"/><text fill="#000000" font-family="sans-serif" font-size="14" lengthAdjust="spacing" textLength="84.5879" x="1707.6964" y="123.4436">WithSample</text><line style="stroke:#181818;stroke-width:0.5;" x1="1646.85" x2="1821.1586" y1="134.5969" y2="134.5969"/><text fill="#000000" font-family="sans-serif" font-size="14" lengthAdjust="spacing" textLength="93.3789" x="1651.85" y="151.592">int sample_id</text><text fill="#000000" font-family="sans-serif" font-size="14" lengthAdjust="spacing" textLength="164.3086" x="1651.85" y="167.8889">int | None sample_puck</text><text fill="#000000" font-family="sans-serif" font-size="14" lengthAdjust="spacing" textLength="152.3936" x="1651.85" y="184.1857">int | None sample_pin</text><line style="stroke:#181818;stroke-width:0.5;" x1="1646.85" x2="1821.1586" y1="191.4875" y2="191.4875"/></g><!--class SplitScan--><g class="entity" data-entity="SplitScan" data-source-line="16" data-uid="ent0005" id="entity_SplitScan"><rect fill="#F1F1F1" height="48" rx="2.5" ry="2.5" style="stroke:#181818;stroke-width:0.5;" width="97.0781" x="30.46" y="127.0369"/><ellipse cx="45.46" cy="143.0369" fill="#ADD1B2" rx="11" ry="11" style="stroke:#181818;stroke-width:1;"/><path d="M48.4288,148.6775 Q47.8506,148.9744 47.21,149.115 Q46.5694,149.2713 45.8663,149.2713 Q43.3663,149.2713 42.0381,147.6306 Q40.7256,145.9744 40.7256,142.8494 Q40.7256,139.7244 42.0381,138.0681 Q43.3663,136.4119 45.8663,136.4119 Q46.5694,136.4119 47.21,136.5681 Q47.8663,136.7244 48.4288,137.0213 L48.4288,139.74 Q47.8038,139.1619 47.21,138.8963 Q46.6163,138.615 45.9913,138.615 Q44.6475,138.615 43.96,139.6931 Q43.2725,140.7556 43.2725,142.8494 Q43.2725,144.9431 43.96,146.0213 Q44.6475,147.0838 45.9913,147.0838 Q46.6163,147.0838 47.21,146.8181 Q47.8038,146.5369 48.4288,145.9588 L48.4288,148.6775 Z " fill="#000000"/><text fill="#000000" font-family="sans-serif" font-size="14" lengthAdjust="spacing" textLength="65.0781" x="59.46" y="147.8836">SplitScan</text><line style="stroke:#181818;stroke-width:0.5;" x1="31.46" x2="126.5381" y1="159.0369" y2="159.0369"/><line style="stroke:#181818;stroke-width:0.5;" x1="31.46" x2="126.5381" y1="167.0369" y2="167.0369"/></g><!--class WithVisit--><g class="entity" data-entity="WithVisit" data-source-line="18" data-uid="ent0006" id="entity_WithVisit"><rect fill="#F1F1F1" height="129.4844" rx="2.5" ry="2.5" style="stroke:#181818;stroke-width:0.5;" width="271.7861" x="1857.11" y="86.2969"/><ellipse cx="1957.6359" cy="102.2969" fill="#ADD1B2" rx="11" ry="11" style="stroke:#181818;stroke-width:1;"/><path d="M1960.6046,107.9375 Q1960.0265,108.2344 1959.3859,108.375 Q1958.7453,108.5313 1958.0421,108.5313 Q1955.5421,108.5313 1954.214,106.8906 Q1952.9015,105.2344 1952.9015,102.1094 Q1952.9015,98.9844 1954.214,97.3281 Q1955.5421,95.6719 1958.0421,95.6719 Q1958.7453,95.6719 1959.3859,95.8281 Q1960.0421,95.9844 1960.6046,96.2813 L1960.6046,99 Q1959.9796,98.4219 1959.3859,98.1563 Q1958.7921,97.875 1958.1671,97.875 Q1956.8234,97.875 1956.1359,98.9531 Q1955.4484,100.0156 1955.4484,102.1094 Q1955.4484,104.2031 1956.1359,105.2813 Q1956.8234,106.3438 1958.1671,106.3438 Q1958.7921,106.3438 1959.3859,106.0781 Q1959.9796,105.7969 1960.6046,105.2188 L1960.6046,107.9375 Z " fill="#000000"/><text fill="#000000" font-family="sans-serif" font-size="14" lengthAdjust="spacing" textLength="62.2344" x="1978.1359" y="107.1436">WithVisit</text><line style="stroke:#181818;stroke-width:0.5;" x1="1858.11" x2="2127.8961" y1="118.2969" y2="118.2969"/><text fill="#000000" font-family="sans-serif" font-size="14" lengthAdjust="spacing" textLength="87.9717" x="1863.11" y="135.292">str beamline</text><text fill="#000000" font-family="sans-serif" font-size="14" lengthAdjust="spacing" textLength="51.8369" x="1863.11" y="151.5889">str visit</text><text fill="#000000" font-family="sans-serif" font-size="14" lengthAdjust="spacing" textLength="259.7861" x="1863.11" y="167.8857">str det_dist_to_beam_converter_path</text><text fill="#000000" font-family="sans-serif" font-size="14" lengthAdjust="spacing" textLength="131.5918" x="1863.11" y="184.1826">str insertion_prefix</text><text fill="#000000" font-family="sans-serif" font-size="14" lengthAdjust="spacing" textLength="245.752" x="1863.11" y="200.4795">float | None detector_distance_mm</text><line style="stroke:#181818;stroke-width:0.5;" x1="1858.11" x2="2127.8961" y1="207.7813" y2="207.7813"/></g><!--class WithScan--><g class="entity" data-entity="WithScan" data-source-line="25" data-uid="ent0007" id="entity_WithScan"><rect fill="#F1F1F1" height="48" rx="2.5" ry="2.5" style="stroke:#181818;stroke-width:0.5;" width="98.1309" x="503.93" y="127.0369"/><ellipse cx="518.93" cy="143.0369" fill="#ADD1B2" rx="11" ry="11" style="stroke:#181818;stroke-width:1;"/><path d="M521.8988,148.6775 Q521.3206,148.9744 520.68,149.115 Q520.0394,149.2713 519.3363,149.2713 Q516.8363,149.2713 515.5081,147.6306 Q514.1956,145.9744 514.1956,142.8494 Q514.1956,139.7244 515.5081,138.0681 Q516.8363,136.4119 519.3363,136.4119 Q520.0394,136.4119 520.68,136.5681 Q521.3363,136.7244 521.8988,137.0213 L521.8988,139.74 Q521.2738,139.1619 520.68,138.8963 Q520.0863,138.615 519.4613,138.615 Q518.1175,138.615 517.43,139.6931 Q516.7425,140.7556 516.7425,142.8494 Q516.7425,144.9431 517.43,146.0213 Q518.1175,147.0838 519.4613,147.0838 Q520.0863,147.0838 520.68,146.8181 Q521.2738,146.5369 521.8988,145.9588 L521.8988,148.6775 Z " fill="#000000"/><text fill="#000000" font-family="sans-serif" font-size="14" lengthAdjust="spacing" textLength="66.1309" x="532.93" y="147.8836">WithScan</text><line style="stroke:#181818;stroke-width:0.5;" x1="504.93" x2="601.0609" y1="159.0369" y2="159.0369"/><line style="stroke:#181818;stroke-width:0.5;" x1="504.93" x2="601.0609" y1="167.0369" y2="167.0369"/></g><!--class WithOptionalEnergyChange--><g class="entity" data-entity="WithOptionalEnergyChange" data-source-line="27" data-uid="ent0008" id="entity_WithOptionalEnergyChange"><rect fill="#F1F1F1" height="64.2969" rx="2.5" ry="2.5" style="stroke:#181818;stroke-width:0.5;" width="235.4463" x="797.28" y="118.8969"/><ellipse cx="816.4645" cy="134.8969" fill="#ADD1B2" rx="11" ry="11" style="stroke:#181818;stroke-width:1;"/><path d="M819.4332,140.5375 Q818.8551,140.8344 818.2145,140.975 Q817.5738,141.1313 816.8707,141.1313 Q814.3707,141.1313 813.0426,139.4906 Q811.7301,137.8344 811.7301,134.7094 Q811.7301,131.5844 813.0426,129.9281 Q814.3707,128.2719 816.8707,128.2719 Q817.5738,128.2719 818.2145,128.4281 Q818.8707,128.5844 819.4332,128.8813 L819.4332,131.6 Q818.8082,131.0219 818.2145,130.7563 Q817.6207,130.475 816.9957,130.475 Q815.652,130.475 814.9645,131.5531 Q814.277,132.6156 814.277,134.7094 Q814.277,136.8031 814.9645,137.8813 Q815.652,138.9438 816.9957,138.9438 Q817.6207,138.9438 818.2145,138.6781 Q818.8082,138.3969 819.4332,137.8188 L819.4332,140.5375 Z " fill="#000000"/><text fill="#000000" font-family="sans-serif" font-size="14" lengthAdjust="spacing" textLength="194.1475" x="831.3944" y="139.7436">WithOptionalEnergyChange</text><line style="stroke:#181818;stroke-width:0.5;" x1="798.28" x2="1031.7263" y1="150.8969" y2="150.8969"/><text fill="#000000" font-family="sans-serif" font-size="14" lengthAdjust="spacing" textLength="223.4463" x="803.28" y="167.892">float | None demand_energy_ev</text><line style="stroke:#181818;stroke-width:0.5;" x1="798.28" x2="1031.7263" y1="175.1938" y2="175.1938"/></g><!--class SpecifiedGrid--><g class="entity" data-entity="SpecifiedGrid" data-source-line="30" data-uid="ent0009" id="entity_SpecifiedGrid"><rect fill="#F1F1F1" height="48" rx="2.5" ry="2.5" style="stroke:#181818;stroke-width:0.5;" width="125.6729" x="637.16" y="357.2669"/><ellipse cx="652.16" cy="373.2669" fill="#ADD1B2" rx="11" ry="11" style="stroke:#181818;stroke-width:1;"/><path d="M655.1288,378.9075 Q654.5506,379.2044 653.91,379.345 Q653.2694,379.5013 652.5663,379.5013 Q650.0663,379.5013 648.7381,377.8606 Q647.4256,376.2044 647.4256,373.0794 Q647.4256,369.9544 648.7381,368.2981 Q650.0663,366.6419 652.5663,366.6419 Q653.2694,366.6419 653.91,366.7981 Q654.5663,366.9544 655.1288,367.2513 L655.1288,369.97 Q654.5038,369.3919 653.91,369.1263 Q653.3163,368.845 652.6913,368.845 Q651.3475,368.845 650.66,369.9231 Q649.9725,370.9856 649.9725,373.0794 Q649.9725,375.1731 650.66,376.2513 Q651.3475,377.3138 652.6913,377.3138 Q653.3163,377.3138 653.91,377.0481 Q654.5038,376.7669 655.1288,376.1888 L655.1288,378.9075 Z " fill="#000000"/><text fill="#000000" font-family="sans-serif" font-size="14" lengthAdjust="spacing" textLength="93.6729" x="666.16" y="378.1136">SpecifiedGrid</text><line style="stroke:#181818;stroke-width:0.5;" x1="638.16" x2="761.8329" y1="389.2669" y2="389.2669"/><line style="stroke:#181818;stroke-width:0.5;" x1="638.16" x2="761.8329" y1="397.2669" y2="397.2669"/></g><!--class XyzStarts--><g class="entity" data-entity="XyzStarts" data-source-line="32" data-uid="ent0010" id="entity_XyzStarts"><rect fill="#F1F1F1" height="96.8906" rx="2.5" ry="2.5" style="stroke:#181818;stroke-width:0.5;" width="125.3057" x="637.35" y="102.5969"/><ellipse cx="664.3141" cy="118.5969" fill="#ADD1B2" rx="11" ry="11" style="stroke:#181818;stroke-width:1;"/><path d="M667.2829,124.2375 Q666.7047,124.5344 666.0641,124.675 Q665.4235,124.8312 664.7204,124.8312 Q662.2204,124.8312 660.8922,123.1906 Q659.5797,121.5344 659.5797,118.4094 Q659.5797,115.2844 660.8922,113.6281 Q662.2204,111.9719 664.7204,111.9719 Q665.4235,111.9719 666.0641,112.1281 Q666.7204,112.2844 667.2829,112.5812 L667.2829,115.3 Q666.6579,114.7219 666.0641,114.4562 Q665.4704,114.175 664.8454,114.175 Q663.5016,114.175 662.8141,115.2531 Q662.1266,116.3156 662.1266,118.4094 Q662.1266,120.5031 662.8141,121.5812 Q663.5016,122.6437 664.8454,122.6437 Q665.4704,122.6437 666.0641,122.3781 Q666.6579,122.0969 667.2829,121.5187 L667.2829,124.2375 Z " fill="#000000"/><text fill="#000000" font-family="sans-serif" font-size="14" lengthAdjust="spacing" textLength="66.7188" x="680.9728" y="123.4436">XyzStarts</text><line style="stroke:#181818;stroke-width:0.5;" x1="638.35" x2="761.6557" y1="134.5969" y2="134.5969"/><text fill="#000000" font-family="sans-serif" font-size="14" lengthAdjust="spacing" textLength="113.3057" x="643.35" y="151.592">float x_start_um</text><text fill="#000000" font-family="sans-serif" font-size="14" lengthAdjust="spacing" textLength="113.3057" x="643.35" y="167.8889">float y_start_um</text><text fill="#000000" font-family="sans-serif" font-size="14" lengthAdjust="spacing" textLength="112.3691" x="643.35" y="184.1857">float z_start_um</text><line style="stroke:#181818;stroke-width:0.5;" x1="638.35" x2="761.6557" y1="191.4875" y2="191.4875"/></g><!--class WithPandaGridScan--><g class="entity" data-entity="WithPandaGridScan" data-source-line="37" data-uid="ent0011" id="entity_WithPandaGridScan"><rect fill="#F1F1F1" height="64.2969" rx="2.5" ry="2.5" style="stroke:#181818;stroke-width:0.5;" width="240.5664" x="2163.72" y="118.8969"/><ellipse cx="2210.3172" cy="134.8969" fill="#ADD1B2" rx="11" ry="11" style="stroke:#181818;stroke-width:1;"/><path d="M2213.2859,140.5375 Q2212.7078,140.8344 2212.0672,140.975 Q2211.4265,141.1313 2210.7234,141.1313 Q2208.2234,141.1313 2206.8953,139.4906 Q2205.5828,137.8344 2205.5828,134.7094 Q2205.5828,131.5844 2206.8953,129.9281 Q2208.2234,128.2719 2210.7234,128.2719 Q2211.4265,128.2719 2212.0672,128.4281 Q2212.7234,128.5844 2213.2859,128.8813 L2213.2859,131.6 Q2212.6609,131.0219 2212.0672,130.7563 Q2211.4734,130.475 2210.8484,130.475 Q2209.5047,130.475 2208.8172,131.5531 Q2208.1297,132.6156 2208.1297,134.7094 Q2208.1297,136.8031 2208.8172,137.8813 Q2209.5047,138.9438 2210.8484,138.9438 Q2211.4734,138.9438 2212.0672,138.6781 Q2212.6609,138.3969 2213.2859,137.8188 L2213.2859,140.5375 Z " fill="#000000"/><text fill="#000000" font-family="sans-serif" font-size="14" lengthAdjust="spacing" textLength="138.8721" x="2230.8172" y="139.7436">WithPandaGridScan</text><line style="stroke:#181818;stroke-width:0.5;" x1="2164.72" x2="2403.2864" y1="150.8969" y2="150.8969"/><text fill="#000000" font-family="sans-serif" font-size="14" lengthAdjust="spacing" textLength="228.5664" x="2169.72" y="167.892">float panda_runup_distance_mm</text><line style="stroke:#181818;stroke-width:0.5;" x1="2164.72" x2="2403.2864" y1="175.1938" y2="175.1938"/></g><!--class OptionalGonioAngleStarts--><g class="entity" data-entity="OptionalGonioAngleStarts" data-source-line="40" data-uid="ent0012" id="entity_OptionalGonioAngleStarts"><rect fill="#F1F1F1" height="113.1875" rx="2.5" ry="2.5" style="stroke:#181818;stroke-width:0.5;" width="219.3203" x="1067.34" y="94.4469"/><ellipse cx="1085.0633" cy="110.4469" fill="#ADD1B2" rx="11" ry="11" style="stroke:#181818;stroke-width:1;"/><path d="M1088.032,116.0875 Q1087.4539,116.3844 1086.8133,116.525 Q1086.1727,116.6813 1085.4695,116.6813 Q1082.9695,116.6813 1081.6414,115.0406 Q1080.3289,113.3844 1080.3289,110.2594 Q1080.3289,107.1344 1081.6414,105.4781 Q1082.9695,103.8219 1085.4695,103.8219 Q1086.1727,103.8219 1086.8133,103.9781 Q1087.4695,104.1344 1088.032,104.4313 L1088.032,107.15 Q1087.407,106.5719 1086.8133,106.3063 Q1086.2195,106.025 1085.5945,106.025 Q1084.2508,106.025 1083.5633,107.1031 Q1082.8758,108.1656 1082.8758,110.2594 Q1082.8758,112.3531 1083.5633,113.4313 Q1084.2508,114.4938 1085.5945,114.4938 Q1086.2195,114.4938 1086.8133,114.2281 Q1087.407,113.9469 1088.032,113.3688 L1088.032,116.0875 Z " fill="#000000"/><text fill="#000000" font-family="sans-serif" font-size="14" lengthAdjust="spacing" textLength="181.2686" x="1099.6685" y="115.2936">OptionalGonioAngleStarts</text><line style="stroke:#181818;stroke-width:0.5;" x1="1068.34" x2="1285.6603" y1="126.4469" y2="126.4469"/><text fill="#000000" font-family="sans-serif" font-size="14" lengthAdjust="spacing" textLength="207.3203" x="1073.34" y="143.442">float | None omega_start_deg</text><text fill="#000000" font-family="sans-serif" font-size="14" lengthAdjust="spacing" textLength="180.6875" x="1073.34" y="159.7389">float | None phi_start_deg</text><text fill="#000000" font-family="sans-serif" font-size="14" lengthAdjust="spacing" textLength="179.498" x="1073.34" y="176.0357">float | None chi_start_deg</text><text fill="#000000" font-family="sans-serif" font-size="14" lengthAdjust="spacing" textLength="202.0771" x="1073.34" y="192.3326">float | None kappa_start_deg</text><line style="stroke:#181818;stroke-width:0.5;" x1="1068.34" x2="1285.6603" y1="199.6344" y2="199.6344"/></g><!--class WithSnapshot--><g class="entity" data-entity="WithSnapshot" data-source-line="46" data-uid="ent0013" id="entity_WithSnapshot"><rect fill="#F1F1F1" height="80.5938" rx="2.5" ry="2.5" style="stroke:#181818;stroke-width:0.5;" width="289.3477" x="1321.33" y="110.7469"/><ellipse cx="1412.9828" cy="126.7469" fill="#ADD1B2" rx="11" ry="11" style="stroke:#181818;stroke-width:1;"/><path d="M1415.9516,132.3875 Q1415.3735,132.6844 1414.7328,132.825 Q1414.0922,132.9813 1413.3891,132.9813 Q1410.8891,132.9813 1409.561,131.3406 Q1408.2485,129.6844 1408.2485,126.5594 Q1408.2485,123.4344 1409.561,121.7781 Q1410.8891,120.1219 1413.3891,120.1219 Q1414.0922,120.1219 1414.7328,120.2781 Q1415.3891,120.4344 1415.9516,120.7313 L1415.9516,123.45 Q1415.3266,122.8719 1414.7328,122.6063 Q1414.1391,122.325 1413.5141,122.325 Q1412.1703,122.325 1411.4828,123.4031 Q1410.7953,124.4656 1410.7953,126.5594 Q1410.7953,128.6531 1411.4828,129.7313 Q1412.1703,130.7938 1413.5141,130.7938 Q1414.1391,130.7938 1414.7328,130.5281 Q1415.3266,130.2469 1415.9516,129.6688 L1415.9516,132.3875 Z " fill="#000000"/><text fill="#000000" font-family="sans-serif" font-size="14" lengthAdjust="spacing" textLength="97.542" x="1433.4828" y="131.5936">WithSnapshot</text><line style="stroke:#181818;stroke-width:0.5;" x1="1322.33" x2="1609.6777" y1="142.7469" y2="142.7469"/><text fill="#000000" font-family="sans-serif" font-size="14" lengthAdjust="spacing" textLength="169.627" x="1327.33" y="159.742">Path snapshot_directory</text><text fill="#000000" font-family="sans-serif" font-size="14" lengthAdjust="spacing" textLength="277.3477" x="1327.33" y="176.0389">list[float] | None snapshot_omegas_deg</text><line style="stroke:#181818;stroke-width:0.5;" x1="1322.33" x2="1609.6777" y1="183.3406" y2="183.3406"/></g><!--class MxBlueskyParameters--><g class="entity" data-entity="MxBlueskyParameters" data-source-line="52" data-uid="ent0014" id="entity_MxBlueskyParameters"><rect fill="#F1F1F1" height="64.2969" rx="2.5" ry="2.5" style="stroke:#181818;stroke-width:0.5;" width="317.4639" x="2440.27" y="118.8969"/><ellipse cx="2516.8564" cy="134.8969" fill="#ADD1B2" rx="11" ry="11" style="stroke:#181818;stroke-width:1;"/><path d="M2519.8252,140.5375 Q2519.2471,140.8344 2518.6064,140.975 Q2517.9658,141.1313 2517.2627,141.1313 Q2514.7627,141.1313 2513.4346,139.4906 Q2512.1221,137.8344 2512.1221,134.7094 Q2512.1221,131.5844 2513.4346,129.9281 Q2514.7627,128.2719 2517.2627,128.2719 Q2517.9658,128.2719 2518.6064,128.4281 Q2519.2627,128.5844 2519.8252,128.8813 L2519.8252,131.6 Q2519.2002,131.0219 2518.6064,130.7563 Q2518.0127,130.475 2517.3877,130.475 Q2516.0439,130.475 2515.3564,131.5531 Q2514.6689,132.6156 2514.6689,134.7094 Q2514.6689,136.8031 2515.3564,137.8813 Q2516.0439,138.9438 2517.3877,138.9438 Q2518.0127,138.9438 2518.6064,138.6781 Q2519.2002,138.3969 2519.8252,137.8188 L2519.8252,140.5375 Z " fill="#000000"/><text fill="#000000" font-family="sans-serif" font-size="14" lengthAdjust="spacing" textLength="155.791" x="2537.3564" y="139.7436">MxBlueskyParameters</text><line style="stroke:#181818;stroke-width:0.5;" x1="2441.27" x2="2756.7339" y1="150.8969" y2="150.8969"/><text fill="#000000" font-family="sans-serif" font-size="14" lengthAdjust="spacing" textLength="305.4639" x="2446.27" y="167.892">SemanticVersion parameter_model_version</text><line style="stroke:#181818;stroke-width:0.5;" x1="2441.27" x2="2756.7339" y1="175.1938" y2="175.1938"/></g><!--class SpecifiedThreeDGridScan--><g class="entity" data-entity="SpecifiedThreeDGridScan" data-source-line="55" data-uid="ent0015" id="entity_SpecifiedThreeDGridScan"><rect fill="#F1F1F1" height="227.2656" rx="2.5" ry="2.5" style="stroke:#181818;stroke-width:0.5;" width="210.8965" x="2427.55" y="860.5369"/><ellipse cx="2442.55" cy="876.5369" fill="#ADD1B2" rx="11" ry="11" style="stroke:#181818;stroke-width:1;"/><path d="M2445.5188,882.1775 Q2444.9406,882.4744 2444.3,882.615 Q2443.6594,882.7713 2442.9563,882.7713 Q2440.4563,882.7713 2439.1281,881.1306 Q2437.8156,879.4744 2437.8156,876.3494 Q2437.8156,873.2244 2439.1281,871.5681 Q2440.4563,869.9119 2442.9563,869.9119 Q2443.6594,869.9119 2444.3,870.0681 Q2444.9563,870.2244 2445.5188,870.5213 L2445.5188,873.24 Q2444.8938,872.6619 2444.3,872.3963 Q2443.7063,872.115 2443.0813,872.115 Q2441.7375,872.115 2441.05,873.1931 Q2440.3625,874.2556 2440.3625,876.3494 Q2440.3625,878.4431 2441.05,879.5213 Q2441.7375,880.5838 2443.0813,880.5838 Q2443.7063,880.5838 2444.3,880.3181 Q2444.8938,880.0369 2445.5188,879.4588 L2445.5188,882.1775 Z " fill="#000000"/><text fill="#000000" font-family="sans-serif" font-size="14" lengthAdjust="spacing" textLength="178.8965" x="2456.55" y="881.3836">SpecifiedThreeDGridScan</text><line style="stroke:#181818;stroke-width:0.5;" x1="2428.55" x2="2637.4465" y1="892.5369" y2="892.5369"/><text fill="#000000" font-family="sans-serif" font-size="14" lengthAdjust="spacing" textLength="160.8975" x="2433.55" y="909.532">float grid1_omega_deg</text><text fill="#000000" font-family="sans-serif" font-size="14" lengthAdjust="spacing" textLength="160.8975" x="2433.55" y="925.8289">float grid2_omega_deg</text><text fill="#000000" font-family="sans-serif" font-size="14" lengthAdjust="spacing" textLength="145.127" x="2433.55" y="942.1257">float x_step_size_um</text><text fill="#000000" font-family="sans-serif" font-size="14" lengthAdjust="spacing" textLength="145.127" x="2433.55" y="958.4226">float y_step_size_um</text><text fill="#000000" font-family="sans-serif" font-size="14" lengthAdjust="spacing" textLength="144.1904" x="2433.55" y="974.7195">float z_step_size_um</text><text fill="#000000" font-family="sans-serif" font-size="14" lengthAdjust="spacing" textLength="122.2129" x="2433.55" y="991.0164">float y2_start_um</text><text fill="#000000" font-family="sans-serif" font-size="14" lengthAdjust="spacing" textLength="121.2764" x="2433.55" y="1007.3132">float z2_start_um</text><text fill="#000000" font-family="sans-serif" font-size="14" lengthAdjust="spacing" textLength="75.5645" x="2433.55" y="1023.6101">int x_steps</text><text fill="#000000" font-family="sans-serif" font-size="14" lengthAdjust="spacing" textLength="75.5645" x="2433.55" y="1039.907">int y_steps</text><text fill="#000000" font-family="sans-serif" font-size="14" lengthAdjust="spacing" textLength="74.6279" x="2433.55" y="1056.2039">int z_steps</text><text fill="#000000" font-family="sans-serif" font-size="14" lengthAdjust="spacing" textLength="154.4102" x="2433.55" y="1072.5007">bool _set_stub_offsets</text><line style="stroke:#181818;stroke-width:0.5;" x1="2428.55" x2="2637.4465" y1="1079.8025" y2="1079.8025"/></g><!--class DiffractionExperiment--><g class="entity" data-entity="DiffractionExperiment" data-source-line="68" data-uid="ent0016" id="entity_DiffractionExperiment"><rect fill="#F1F1F1" height="210.9688" rx="2.5" ry="2.5" style="stroke:#181818;stroke-width:0.5;" width="332.332" x="2427.83" y="275.7869"/><ellipse cx="2512.6127" cy="291.7869" fill="#ADD1B2" rx="11" ry="11" style="stroke:#181818;stroke-width:1;"/><path d="M2515.5815,297.4275 Q2515.0033,297.7244 2514.3627,297.865 Q2513.7221,298.0213 2513.019,298.0213 Q2510.519,298.0213 2509.1908,296.3806 Q2507.8783,294.7244 2507.8783,291.5994 Q2507.8783,288.4744 2509.1908,286.8181 Q2510.519,285.1619 2513.019,285.1619 Q2513.7221,285.1619 2514.3627,285.3181 Q2515.019,285.4744 2515.5815,285.7713 L2515.5815,288.49 Q2514.9565,287.9119 2514.3627,287.6463 Q2513.769,287.365 2513.144,287.365 Q2511.8002,287.365 2511.1127,288.4431 Q2510.4252,289.5056 2510.4252,291.5994 Q2510.4252,293.6931 2511.1127,294.7713 Q2511.8002,295.8338 2513.144,295.8338 Q2513.769,295.8338 2514.3627,295.5681 Q2514.9565,295.2869 2515.5815,294.7088 L2515.5815,297.4275 Z " fill="#000000"/><text fill="#000000" font-family="sans-serif" font-size="14" lengthAdjust="spacing" textLength="154.2666" x="2533.1127" y="296.6336">DiffractionExperiment</text><line style="stroke:#181818;stroke-width:0.5;" x1="2428.83" x2="2759.162" y1="307.7869" y2="307.7869"/><text fill="#000000" font-family="sans-serif" font-size="14" lengthAdjust="spacing" textLength="91.0137" x="2433.83" y="324.782">str file_name</text><text fill="#000000" font-family="sans-serif" font-size="14" lengthAdjust="spacing" textLength="153.7129" x="2433.83" y="341.0789">float exposure_time_s</text><text fill="#000000" font-family="sans-serif" font-size="14" lengthAdjust="spacing" textLength="89.5029" x="2433.83" y="357.3757">str comment</text><text fill="#000000" font-family="sans-serif" font-size="14" lengthAdjust="spacing" textLength="186.915" x="2433.83" y="373.6726">TriggerMode trigger_mode</text><text fill="#000000" font-family="sans-serif" font-size="14" lengthAdjust="spacing" textLength="157.9854" x="2433.83" y="389.9695">int | None run_number</text><text fill="#000000" font-family="sans-serif" font-size="14" lengthAdjust="spacing" textLength="282.3516" x="2433.83" y="406.2664">ApertureValue | None selected_aperture</text><text fill="#000000" font-family="sans-serif" font-size="14" lengthAdjust="spacing" textLength="159.2979" x="2433.83" y="422.5632">float transmission_frac</text><text fill="#000000" font-family="sans-serif" font-size="14" lengthAdjust="spacing" textLength="320.332" x="2433.83" y="438.8601">IspybExperimentType ispyb_experiment_type</text><text fill="#000000" font-family="sans-serif" font-size="14" lengthAdjust="spacing" textLength="146.1113" x="2433.83" y="455.157">str storage_directory</text><text fill="#000000" font-family="sans-serif" font-size="14" lengthAdjust="spacing" textLength="131.0518" x="2433.83" y="471.4539">bool use_roi_mode</text><line style="stroke:#181818;stroke-width:0.5;" x1="2428.83" x2="2759.162" y1="478.7556" y2="478.7556"/></g><!--class DiffractionExperimentWithSample--><g class="entity" data-entity="DiffractionExperimentWithSample" data-source-line="80" data-uid="ent0017" id="entity_DiffractionExperimentWithSample"><rect fill="#F1F1F1" height="48" rx="2.5" ry="2.5" style="stroke:#181818;stroke-width:0.5;" width="270.8545" x="2442.57" y="546.7569"/><ellipse cx="2457.57" cy="562.7569" fill="#ADD1B2" rx="11" ry="11" style="stroke:#181818;stroke-width:1;"/><path d="M2460.5388,568.3975 Q2459.9606,568.6944 2459.32,568.835 Q2458.6794,568.9913 2457.9763,568.9913 Q2455.4763,568.9913 2454.1481,567.3506 Q2452.8356,565.6944 2452.8356,562.5694 Q2452.8356,559.4444 2454.1481,557.7881 Q2455.4763,556.1319 2457.9763,556.1319 Q2458.6794,556.1319 2459.32,556.2881 Q2459.9763,556.4444 2460.5388,556.7413 L2460.5388,559.46 Q2459.9138,558.8819 2459.32,558.6163 Q2458.7263,558.335 2458.1013,558.335 Q2456.7575,558.335 2456.07,559.4131 Q2455.3825,560.4756 2455.3825,562.5694 Q2455.3825,564.6631 2456.07,565.7413 Q2456.7575,566.8038 2458.1013,566.8038 Q2458.7263,566.8038 2459.32,566.5381 Q2459.9138,566.2569 2460.5388,565.6788 L2460.5388,568.3975 Z " fill="#000000"/><text fill="#000000" font-family="sans-serif" font-size="14" lengthAdjust="spacing" textLength="238.8545" x="2471.57" y="567.6036">DiffractionExperimentWithSample</text><line style="stroke:#181818;stroke-width:0.5;" x1="2443.57" x2="2712.4245" y1="578.7569" y2="578.7569"/><line style="stroke:#181818;stroke-width:0.5;" x1="2443.57" x2="2712.4245" y1="586.7569" y2="586.7569"/></g><!--class GridCommon--><g class="entity" data-entity="GridCommon" data-source-line="82" data-uid="ent0018" id="entity_GridCommon"><rect fill="#F1F1F1" height="145.7813" rx="2.5" ry="2.5" style="stroke:#181818;stroke-width:0.5;" width="332.332" x="2427.83" y="654.7569"/><ellipse cx="2543.5282" cy="670.7569" fill="#ADD1B2" rx="11" ry="11" style="stroke:#181818;stroke-width:1;"/><path d="M2546.497,676.3975 Q2545.9189,676.6944 2545.2782,676.835 Q2544.6376,676.9913 2543.9345,676.9913 Q2541.4345,676.9913 2540.1064,675.3506 Q2538.7939,673.6944 2538.7939,670.5694 Q2538.7939,667.4444 2540.1064,665.7881 Q2541.4345,664.1319 2543.9345,664.1319 Q2544.6376,664.1319 2545.2782,664.2881 Q2545.9345,664.4444 2546.497,664.7413 L2546.497,667.46 Q2545.872,666.8819 2545.2782,666.6163 Q2544.6845,666.335 2544.0595,666.335 Q2542.7157,666.335 2542.0282,667.4131 Q2541.3407,668.4756 2541.3407,670.5694 Q2541.3407,672.6631 2542.0282,673.7413 Q2542.7157,674.8038 2544.0595,674.8038 Q2544.6845,674.8038 2545.2782,674.5381 Q2545.872,674.2569 2546.497,673.6788 L2546.497,676.3975 Z " fill="#000000"/><text fill="#000000" font-family="sans-serif" font-size="14" lengthAdjust="spacing" textLength="92.4355" x="2564.0282" y="675.6036">GridCommon</text><line style="stroke:#181818;stroke-width:0.5;" x1="2428.83" x2="2759.162" y1="686.7569" y2="686.7569"/><text fill="#000000" font-family="sans-serif" font-size="14" lengthAdjust="spacing" textLength="125.2959" x="2433.83" y="703.752">float box_size_um</text><text fill="#000000" font-family="sans-serif" font-size="14" lengthAdjust="spacing" textLength="138.4209" x="2433.83" y="720.0489">float grid_width_um</text><text fill="#000000" font-family="sans-serif" font-size="14" lengthAdjust="spacing" textLength="153.7129" x="2433.83" y="736.3457">float exposure_time_s</text><text fill="#000000" font-family="sans-serif" font-size="14" lengthAdjust="spacing" textLength="320.332" x="2433.83" y="752.6426">IspybExperimentType ispyb_experiment_type</text><text fill="#000000" font-family="sans-serif" font-size="14" lengthAdjust="spacing" textLength="282.3516" x="2433.83" y="768.9395">ApertureValue | None selected_aperture</text><text fill="#000000" font-family="sans-serif" font-size="14" lengthAdjust="spacing" textLength="130.498" x="2433.83" y="785.2364">float tip_offset_um</text><line style="stroke:#181818;stroke-width:0.5;" x1="2428.83" x2="2759.162" y1="792.5381" y2="792.5381"/></g><!--class GridCommonWithHyperionDetectorParams--><g class="entity" data-entity="GridCommonWithHyperionDetectorParams" data-source-line="93" data-uid="ent0020" id="entity_GridCommonWithHyperionDetectorParams"><rect fill="#F1F1F1" height="48" rx="2.5" ry="2.5" style="stroke:#181818;stroke-width:0.5;" width="333.2188" x="3500.39" y="1172.2469"/><ellipse cx="3515.39" cy="1188.2469" fill="#ADD1B2" rx="11" ry="11" style="stroke:#181818;stroke-width:1;"/><path d="M3518.3588,1193.8875 Q3517.7806,1194.1844 3517.14,1194.325 Q3516.4994,1194.4813 3515.7963,1194.4813 Q3513.2963,1194.4813 3511.9681,1192.8406 Q3510.6556,1191.1844 3510.6556,1188.0594 Q3510.6556,1184.9344 3511.9681,1183.2781 Q3513.2963,1181.6219 3515.7963,1181.6219 Q3516.4994,1181.6219 3517.14,1181.7781 Q3517.7963,1181.9344 3518.3588,1182.2313 L3518.3588,1184.95 Q3517.7338,1184.3719 3517.14,1184.1063 Q3516.5463,1183.825 3515.9213,1183.825 Q3514.5775,1183.825 3513.89,1184.9031 Q3513.2025,1185.9656 3513.2025,1188.0594 Q3513.2025,1190.1531 3513.89,1191.2313 Q3514.5775,1192.2938 3515.9213,1192.2938 Q3516.5463,1192.2938 3517.14,1192.0281 Q3517.7338,1191.7469 3518.3588,1191.1688 L3518.3588,1193.8875 Z " fill="#000000"/><text fill="#000000" font-family="sans-serif" font-size="14" lengthAdjust="spacing" textLength="301.2188" x="3529.39" y="1193.0936">GridCommonWithHyperionDetectorParams</text><line style="stroke:#181818;stroke-width:0.5;" x1="3501.39" x2="3832.6088" y1="1204.2469" y2="1204.2469"/><line style="stroke:#181818;stroke-width:0.5;" x1="3501.39" x2="3832.6088" y1="1212.2469" y2="1212.2469"/></g><!--class HyperionSpecifiedThreeDGridScan--><g class="entity" data-entity="HyperionSpecifiedThreeDGridScan" data-source-line="95" data-uid="ent0021" id="entity_HyperionSpecifiedThreeDGridScan"><rect fill="#F1F1F1" height="48" rx="2.5" ry="2.5" style="stroke:#181818;stroke-width:0.5;" width="274.293" x="3190.85" y="1172.2469"/><ellipse cx="3205.85" cy="1188.2469" fill="#ADD1B2" rx="11" ry="11" style="stroke:#181818;stroke-width:1;"/><path d="M3208.8188,1193.8875 Q3208.2406,1194.1844 3207.6,1194.325 Q3206.9594,1194.4813 3206.2563,1194.4813 Q3203.7563,1194.4813 3202.4281,1192.8406 Q3201.1156,1191.1844 3201.1156,1188.0594 Q3201.1156,1184.9344 3202.4281,1183.2781 Q3203.7563,1181.6219 3206.2563,1181.6219 Q3206.9594,1181.6219 3207.6,1181.7781 Q3208.2563,1181.9344 3208.8188,1182.2313 L3208.8188,1184.95 Q3208.1938,1184.3719 3207.6,1184.1063 Q3207.0063,1183.825 3206.3813,1183.825 Q3205.0375,1183.825 3204.35,1184.9031 Q3203.6625,1185.9656 3203.6625,1188.0594 Q3203.6625,1190.1531 3204.35,1191.2313 Q3205.0375,1192.2938 3206.3813,1192.2938 Q3207.0063,1192.2938 3207.6,1192.0281 Q3208.1938,1191.7469 3208.8188,1191.1688 L3208.8188,1193.8875 Z " fill="#000000"/><text fill="#000000" font-family="sans-serif" font-size="14" lengthAdjust="spacing" textLength="242.293" x="3219.85" y="1193.0936">HyperionSpecifiedThreeDGridScan</text><line style="stroke:#181818;stroke-width:0.5;" x1="3191.85" x2="3464.143" y1="1204.2469" y2="1204.2469"/><line style="stroke:#181818;stroke-width:0.5;" x1="3191.85" x2="3464.143" y1="1212.2469" y2="1212.2469"/></g><!--class RotationExperiment--><g class="entity" data-entity="RotationExperiment" data-source-line="97" data-uid="ent0022" id="entity_RotationExperiment"><rect fill="#F1F1F1" height="96.8906" rx="2.5" ry="2.5" style="stroke:#181818;stroke-width:0.5;" width="332.332" x="2823.83" y="1147.7969"/><ellipse cx="2915.7118" cy="1163.7969" fill="#ADD1B2" rx="11" ry="11" style="stroke:#181818;stroke-width:1;"/><path d="M2918.6806,1169.4375 Q2918.1025,1169.7344 2917.4618,1169.875 Q2916.8212,1170.0313 2916.1181,1170.0313 Q2913.6181,1170.0313 2912.29,1168.3906 Q2910.9775,1166.7344 2910.9775,1163.6094 Q2910.9775,1160.4844 2912.29,1158.8281 Q2913.6181,1157.1719 2916.1181,1157.1719 Q2916.8212,1157.1719 2917.4618,1157.3281 Q2918.1181,1157.4844 2918.6806,1157.7813 L2918.6806,1160.5 Q2918.0556,1159.9219 2917.4618,1159.6563 Q2916.8681,1159.375 2916.2431,1159.375 Q2914.8993,1159.375 2914.2118,1160.4531 Q2913.5243,1161.5156 2913.5243,1163.6094 Q2913.5243,1165.7031 2914.2118,1166.7813 Q2914.8993,1167.8438 2916.2431,1167.8438 Q2916.8681,1167.8438 2917.4618,1167.5781 Q2918.0556,1167.2969 2918.6806,1166.7188 L2918.6806,1169.4375 Z " fill="#000000"/><text fill="#000000" font-family="sans-serif" font-size="14" lengthAdjust="spacing" textLength="140.0684" x="2936.2118" y="1168.6436">RotationExperiment</text><line style="stroke:#181818;stroke-width:0.5;" x1="2824.83" x2="3155.162" y1="1179.7969" y2="1179.7969"/><text fill="#000000" font-family="sans-serif" font-size="14" lengthAdjust="spacing" textLength="202.8018" x="2829.83" y="1196.792">float shutter_opening_time_s</text><text fill="#000000" font-family="sans-serif" font-size="14" lengthAdjust="spacing" textLength="202.9385" x="2829.83" y="1213.0889">float rotation_increment_deg</text><text fill="#000000" font-family="sans-serif" font-size="14" lengthAdjust="spacing" textLength="320.332" x="2829.83" y="1229.3857">IspybExperimentType ispyb_experiment_type</text><line style="stroke:#181818;stroke-width:0.5;" x1="2824.83" x2="3155.162" y1="1236.6875" y2="1236.6875"/></g><!--class LoadCentreCollect--><g class="entity" data-entity="LoadCentreCollect" data-source-line="102" data-uid="ent0023" id="entity_LoadCentreCollect"><rect fill="#F1F1F1" height="80.5938" rx="2.5" ry="2.5" style="stroke:#181818;stroke-width:0.5;" width="338.6211" x="3868.69" y="1155.9469"/><ellipse cx="3969.315" cy="1171.9469" fill="#ADD1B2" rx="11" ry="11" style="stroke:#181818;stroke-width:1;"/><path d="M3972.2838,1177.5875 Q3971.7056,1177.8844 3971.065,1178.025 Q3970.4244,1178.1813 3969.7213,1178.1813 Q3967.2213,1178.1813 3965.8931,1176.5406 Q3964.5806,1174.8844 3964.5806,1171.7594 Q3964.5806,1168.6344 3965.8931,1166.9781 Q3967.2213,1165.3219 3969.7213,1165.3219 Q3970.4244,1165.3219 3971.065,1165.4781 Q3971.7213,1165.6344 3972.2838,1165.9313 L3972.2838,1168.65 Q3971.6588,1168.0719 3971.065,1167.8063 Q3970.4713,1167.525 3969.8463,1167.525 Q3968.5025,1167.525 3967.815,1168.6031 Q3967.1275,1169.6656 3967.1275,1171.7594 Q3967.1275,1173.8531 3967.815,1174.9313 Q3968.5025,1175.9938 3969.8463,1175.9938 Q3970.4713,1175.9938 3971.065,1175.7281 Q3971.6588,1175.4469 3972.2838,1174.8688 L3972.2838,1177.5875 Z " fill="#000000"/><text fill="#000000" font-family="sans-serif" font-size="14" lengthAdjust="spacing" textLength="128.8711" x="3989.815" y="1176.7936">LoadCentreCollect</text><line style="stroke:#181818;stroke-width:0.5;" x1="3869.69" x2="4206.3111" y1="1187.9469" y2="1187.9469"/><text fill="#000000" font-family="sans-serif" font-size="14" lengthAdjust="spacing" textLength="326.6211" x="3874.69" y="1204.942">RobotLoadThenCentre robot_load_then_centre</text><text fill="#000000" font-family="sans-serif" font-size="14" lengthAdjust="spacing" textLength="269.3154" x="3874.69" y="1221.2389">MultiRotationScan multi_rotation_scan</text><line style="stroke:#181818;stroke-width:0.5;" x1="3869.69" x2="4206.3111" y1="1228.5406" y2="1228.5406"/></g><!--class WithHyperionUDCFeatures--><g class="entity" data-entity="WithHyperionUDCFeatures" data-source-line="106" data-uid="ent0024" id="entity_WithHyperionUDCFeatures"><rect fill="#F1F1F1" height="64.2969" rx="2.5" ry="2.5" style="stroke:#181818;stroke-width:0.5;" width="228.6719" x="3552.66" y="942.0169"/><ellipse cx="3571.7583" cy="958.0169" fill="#ADD1B2" rx="11" ry="11" style="stroke:#181818;stroke-width:1;"/><path d="M3574.7271,963.6575 Q3574.149,963.9544 3573.5083,964.095 Q3572.8677,964.2513 3572.1646,964.2513 Q3569.6646,964.2513 3568.3365,962.6106 Q3567.024,960.9544 3567.024,957.8294 Q3567.024,954.7044 3568.3365,953.0481 Q3569.6646,951.3919 3572.1646,951.3919 Q3572.8677,951.3919 3573.5083,951.5481 Q3574.1646,951.7044 3574.7271,952.0013 L3574.7271,954.72 Q3574.1021,954.1419 3573.5083,953.8763 Q3572.9146,953.595 3572.2896,953.595 Q3570.9458,953.595 3570.2583,954.6731 Q3569.5708,955.7356 3569.5708,957.8294 Q3569.5708,959.9231 3570.2583,961.0013 Q3570.9458,962.0638 3572.2896,962.0638 Q3572.9146,962.0638 3573.5083,961.7981 Q3574.1021,961.5169 3574.7271,960.9388 L3574.7271,963.6575 Z " fill="#000000"/><text fill="#000000" font-family="sans-serif" font-size="14" lengthAdjust="spacing" textLength="187.5645" x="3586.6691" y="962.8636">WithHyperionUDCFeatures</text><line style="stroke:#181818;stroke-width:0.5;" x1="3553.66" x2="3780.3319" y1="974.0169" y2="974.0169"/><text fill="#000000" font-family="sans-serif" font-size="14" lengthAdjust="spacing" textLength="216.6719" x="3558.66" y="991.012">HyperionFeatureFlags features</text><line style="stroke:#181818;stroke-width:0.5;" x1="3553.66" x2="3780.3319" y1="998.3138" y2="998.3138"/></g><!--class GridScanWithEdgeDetect--><g class="entity" data-entity="GridScanWithEdgeDetect" data-source-line="109" data-uid="ent0025" id="entity_GridScanWithEdgeDetect"><rect fill="#F1F1F1" height="48" rx="2.5" ry="2.5" style="stroke:#181818;stroke-width:0.5;" width="209.4268" x="3621.29" y="1312.8369"/><ellipse cx="3636.29" cy="1328.8369" fill="#ADD1B2" rx="11" ry="11" style="stroke:#181818;stroke-width:1;"/><path d="M3639.2588,1334.4775 Q3638.6806,1334.7744 3638.04,1334.915 Q3637.3994,1335.0713 3636.6963,1335.0713 Q3634.1963,1335.0713 3632.8681,1333.4306 Q3631.5556,1331.7744 3631.5556,1328.6494 Q3631.5556,1325.5244 3632.8681,1323.8681 Q3634.1963,1322.2119 3636.6963,1322.2119 Q3637.3994,1322.2119 3638.04,1322.3681 Q3638.6963,1322.5244 3639.2588,1322.8213 L3639.2588,1325.54 Q3638.6338,1324.9619 3638.04,1324.6963 Q3637.4463,1324.415 3636.8213,1324.415 Q3635.4775,1324.415 3634.79,1325.4931 Q3634.1025,1326.5556 3634.1025,1328.6494 Q3634.1025,1330.7431 3634.79,1331.8213 Q3635.4775,1332.8838 3636.8213,1332.8838 Q3637.4463,1332.8838 3638.04,1332.6181 Q3638.6338,1332.3369 3639.2588,1331.7588 L3639.2588,1334.4775 Z " fill="#000000"/><text fill="#000000" font-family="sans-serif" font-size="14" lengthAdjust="spacing" textLength="177.4268" x="3650.29" y="1333.6836">GridScanWithEdgeDetect</text><line style="stroke:#181818;stroke-width:0.5;" x1="3622.29" x2="3829.7168" y1="1344.8369" y2="1344.8369"/><line style="stroke:#181818;stroke-width:0.5;" x1="3622.29" x2="3829.7168" y1="1352.8369" y2="1352.8369"/></g><!--class MultiRotationScan--><g class="entity" data-entity="MultiRotationScan" data-source-line="111" data-uid="ent0026" id="entity_MultiRotationScan"><rect fill="#F1F1F1" height="64.2969" rx="2.5" ry="2.5" style="stroke:#181818;stroke-width:0.5;" width="540.001" x="2824" y="1304.6869"/><ellipse cx="3026.0327" cy="1320.6869" fill="#ADD1B2" rx="11" ry="11" style="stroke:#181818;stroke-width:1;"/><path d="M3029.0015,1326.3275 Q3028.4233,1326.6244 3027.7827,1326.765 Q3027.1421,1326.9213 3026.439,1326.9213 Q3023.939,1326.9213 3022.6108,1325.2806 Q3021.2983,1323.6244 3021.2983,1320.4994 Q3021.2983,1317.3744 3022.6108,1315.7181 Q3023.939,1314.0619 3026.439,1314.0619 Q3027.1421,1314.0619 3027.7827,1314.2181 Q3028.439,1314.3744 3029.0015,1314.6713 L3029.0015,1317.39 Q3028.3765,1316.8119 3027.7827,1316.5463 Q3027.189,1316.265 3026.564,1316.265 Q3025.2202,1316.265 3024.5327,1317.3431 Q3023.8452,1318.4056 3023.8452,1320.4994 Q3023.8452,1322.5931 3024.5327,1323.6713 Q3025.2202,1324.7338 3026.564,1324.7338 Q3027.189,1324.7338 3027.7827,1324.4681 Q3028.3765,1324.1869 3029.0015,1323.6088 L3029.0015,1326.3275 Z " fill="#000000"/><text fill="#000000" font-family="sans-serif" font-size="14" lengthAdjust="spacing" textLength="127.4355" x="3046.5327" y="1325.5336">MultiRotationScan</text><line style="stroke:#181818;stroke-width:0.5;" x1="2825" x2="3363.001" y1="1336.6869" y2="1336.6869"/><line style="stroke:#181818;stroke-width:0.5;" x1="2825" x2="3363.001" y1="1344.6869" y2="1344.6869"/><text fill="#000000" font-family="sans-serif" font-size="14" lengthAdjust="spacing" textLength="528.001" x="2830" y="1361.682">Annotated[list[RotationScanPerSweep], Len(min_length=1)] rotation_scans</text></g><!--class PinTipCentreThenXrayCentre--><g class="entity" data-entity="PinTipCentreThenXrayCentre" data-source-line="114" data-uid="ent0027" id="entity_PinTipCentreThenXrayCentre"><rect fill="#F1F1F1" height="64.2969" rx="2.5" ry="2.5" style="stroke:#181818;stroke-width:0.5;" width="235.8955" x="3985.05" y="1304.6869"/><ellipse cx="4000.05" cy="1320.6869" fill="#ADD1B2" rx="11" ry="11" style="stroke:#181818;stroke-width:1;"/><path d="M4003.0188,1326.3275 Q4002.4406,1326.6244 4001.8,1326.765 Q4001.1594,1326.9213 4000.4563,1326.9213 Q3997.9563,1326.9213 3996.6281,1325.2806 Q3995.3156,1323.6244 3995.3156,1320.4994 Q3995.3156,1317.3744 3996.6281,1315.7181 Q3997.9563,1314.0619 4000.4563,1314.0619 Q4001.1594,1314.0619 4001.8,1314.2181 Q4002.4563,1314.3744 4003.0188,1314.6713 L4003.0188,1317.39 Q4002.3938,1316.8119 4001.8,1316.5463 Q4001.2063,1316.265 4000.5813,1316.265 Q3999.2375,1316.265 3998.55,1317.3431 Q3997.8625,1318.4056 3997.8625,1320.4994 Q3997.8625,1322.5931 3998.55,1323.6713 Q3999.2375,1324.7338 4000.5813,1324.7338 Q4001.2063,1324.7338 4001.8,1324.4681 Q4002.3938,1324.1869 4003.0188,1323.6088 L4003.0188,1326.3275 Z " fill="#000000"/><text fill="#000000" font-family="sans-serif" font-size="14" lengthAdjust="spacing" textLength="203.8955" x="4014.05" y="1325.5336">PinTipCentreThenXrayCentre</text><line style="stroke:#181818;stroke-width:0.5;" x1="3986.05" x2="4219.9455" y1="1336.6869" y2="1336.6869"/><text fill="#000000" font-family="sans-serif" font-size="14" lengthAdjust="spacing" textLength="130.498" x="3991.05" y="1353.682">float tip_offset_um</text><line style="stroke:#181818;stroke-width:0.5;" x1="3986.05" x2="4219.9455" y1="1360.9838" y2="1360.9838"/></g><!--reverse link GridCommon to GridCommonWithHyperionDetectorParams--><g class="link" data-entity-1="GridCommon" data-entity-2="GridCommonWithHyperionDetectorParams" data-source-line="118" data-uid="lnk28" id="link_GridCommon_GridCommonWithHyperionDetectorParams"><path codeLine="118" d="M2682.0811,813.0874 C2782.8111,905.3874 2958.67,1049.3869 3153,1119.7969 C3291.39,1169.9369 3337.89,1123.1169 3483,1147.7969 C3517.8,1153.7169 3555.65,1162.9769 3587.93,1171.7569" fill="none" id="GridCommon-backto-GridCommonWithHyperionDetectorParams" style="stroke:#181818;stroke-width:1;"/><polygon fill="none" points="2668.81,800.9269,2678.0276,817.5111,2686.1346,808.6636,2668.81,800.9269" style="stroke:#181818;stroke-width:1;"/></g><!--reverse link WithHyperionUDCFeatures to GridCommonWithHyperionDetectorParams--><g class="link" data-entity-1="WithHyperionUDCFeatures" data-entity-2="GridCommonWithHyperionDetectorParams" data-source-line="119" data-uid="lnk29" id="link_WithHyperionUDCFeatures_GridCommonWithHyperionDetectorParams"><path codeLine="119" d="M3667,1024.6969 C3667,1069.3869 3667,1132.1269 3667,1171.8569" fill="none" id="WithHyperionUDCFeatures-backto-GridCommonWithHyperionDetectorParams" style="stroke:#181818;stroke-width:1;"/><polygon fill="none" points="3667,1006.6969,3661,1024.6969,3673,1024.6969,3667,1006.6969" style="stroke:#181818;stroke-width:1;"/></g><!--reverse link WithHyperionUDCFeatures to HyperionSpecifiedThreeDGridScan--><g class="link" data-entity-1="WithHyperionUDCFeatures" data-entity-2="HyperionSpecifiedThreeDGridScan" data-source-line="120" data-uid="lnk30" id="link_WithHyperionUDCFeatures_HyperionSpecifiedThreeDGridScan"><path codeLine="120" d="M3603.3324,1016.498 C3534.4924,1061.188 3425.23,1132.1269 3364.02,1171.8569" fill="none" id="WithHyperionUDCFeatures-backto-HyperionSpecifiedThreeDGridScan" style="stroke:#181818;stroke-width:1;"/><polygon fill="none" points="3618.43,1006.6969,3600.0654,1011.4655,3606.5995,1021.5306,3618.43,1006.6969" style="stroke:#181818;stroke-width:1;"/></g><!--reverse link SpecifiedThreeDGridScan to HyperionSpecifiedThreeDGridScan--><g class="link" data-entity-1="SpecifiedThreeDGridScan" data-entity-2="HyperionSpecifiedThreeDGridScan" data-source-line="121" data-uid="lnk31" id="link_SpecifiedThreeDGridScan_HyperionSpecifiedThreeDGridScan"><path codeLine="121" d="M2654.3306,1052.8004 C2703.7506,1081.3904 2749.03,1102.8269 2808,1119.7969 C2964.78,1164.9269 3013.72,1117.3769 3174,1147.7969 C3203.82,1153.4569 3236.03,1162.8469 3263.24,1171.7769" fill="none" id="SpecifiedThreeDGridScan-backto-HyperionSpecifiedThreeDGridScan" style="stroke:#181818;stroke-width:1;"/><polygon fill="none" points="2638.75,1043.7869,2651.3261,1057.994,2657.3351,1047.6069,2638.75,1043.7869" style="stroke:#181818;stroke-width:1;"/></g><!--reverse link MxBlueskyParameters to DiffractionExperiment--><g class="link" data-entity-1="MxBlueskyParameters" data-entity-2="DiffractionExperiment" data-source-line="122" data-uid="lnk32" id="link_MxBlueskyParameters_DiffractionExperiment"><path codeLine="122" d="M2597.9224,201.2925 C2597.3924,225.2825 2597.03,241.8769 2596.3,275.3969" fill="none" id="MxBlueskyParameters-backto-DiffractionExperiment" style="stroke:#181818;stroke-width:1;"/><polygon fill="none" points="2598.32,183.2969,2591.9239,201.16,2603.921,201.425,2598.32,183.2969" style="stroke:#181818;stroke-width:1;"/></g><!--reverse link WithSnapshot to DiffractionExperiment--><g class="link" data-entity-1="WithSnapshot" data-entity-2="DiffractionExperiment" data-source-line="123" data-uid="lnk33" id="link_WithSnapshot_DiffractionExperiment"><path codeLine="123" d="M1569.5138,198.268 C1593.4438,207.668 1602.96,210.0469 1628,215.7869 C1972.09,294.6269 2083.62,168.7069 2420,275.7869 C2422.52,276.5869 2425.04,277.4269 2427.56,278.3169" fill="none" id="WithSnapshot-backto-DiffractionExperiment" style="stroke:#181818;stroke-width:1;"/><polygon fill="none" points="1552.76,191.6869,1567.3201,203.8526,1571.7075,192.6834,1552.76,191.6869" style="stroke:#181818;stroke-width:1;"/></g><!--reverse link WithOptionalEnergyChange to DiffractionExperiment--><g class="link" data-entity-1="WithOptionalEnergyChange" data-entity-2="DiffractionExperiment" data-source-line="124" data-uid="lnk34" id="link_WithOptionalEnergyChange_DiffractionExperiment"><path codeLine="124" d="M984.9803,191.842 C1008.9703,204.242 1022.07,208.8769 1050,215.7869 C1345.82,288.9469 2128.19,187.9769 2420,275.7869 C2422.45,276.5169 2424.89,277.2969 2427.34,278.1169" fill="none" id="WithOptionalEnergyChange-backto-DiffractionExperiment" style="stroke:#181818;stroke-width:1;"/><polygon fill="none" points="968.99,183.5769,982.2252,197.172,987.7353,186.5119,968.99,183.5769" style="stroke:#181818;stroke-width:1;"/></g><!--reverse link WithVisit to DiffractionExperiment--><g class="link" data-entity-1="WithVisit" data-entity-2="DiffractionExperiment" data-source-line="125" data-uid="lnk35" id="link_WithVisit_DiffractionExperiment"><path codeLine="125" d="M2146.3583,216.159 C2265.2583,253.609 2304.15,229.7569 2420,275.7869 C2422.46,276.7569 2424.92,277.7669 2427.38,278.8069" fill="none" id="WithVisit-backto-DiffractionExperiment" style="stroke:#181818;stroke-width:1;"/><polygon fill="none" points="2129.35,210.2669,2144.3943,221.8285,2148.3224,210.4896,2129.35,210.2669" style="stroke:#181818;stroke-width:1;"/></g><!--reverse link DiffractionExperimentWithSample to RotationExperiment--><g class="link" data-entity-1="DiffractionExperimentWithSample" data-entity-2="RotationExperiment" data-source-line="126" data-uid="lnk36" id="link_DiffractionExperimentWithSample_RotationExperiment"><path codeLine="126" d="M2471.16,602.0629 C2441.13,614.6029 2427.51,626.5669 2410,654.7569 C2300.92,830.3069 2273.6,964.5069 2410,1119.7969 C2437.12,1150.6769 2661.85,1172.6669 2823.43,1184.6669" fill="none" id="DiffractionExperimentWithSample-backto-RotationExperiment" style="stroke:#181818;stroke-width:1;"/><polygon fill="none" points="2487.77,595.1269,2468.848,596.5263,2473.472,607.5996,2487.77,595.1269" style="stroke:#181818;stroke-width:1;"/></g><!--reverse link WithHyperionUDCFeatures to RotationExperiment--><g class="link" data-entity-1="WithHyperionUDCFeatures" data-entity-2="RotationExperiment" data-source-line="127" data-uid="lnk37" id="link_WithHyperionUDCFeatures_RotationExperiment"><path codeLine="127" d="M3552.882,1012.2622 C3439.722,1049.0522 3268.55,1104.6969 3137.31,1147.3569" fill="none" id="WithHyperionUDCFeatures-backto-RotationExperiment" style="stroke:#181818;stroke-width:1;"/><polygon fill="none" points="3570,1006.6969,3551.0269,1006.5562,3554.7371,1017.9682,3570,1006.6969" style="stroke:#181818;stroke-width:1;"/></g><!--reverse link MxBlueskyParameters to LoadCentreCollect--><g class="link" data-entity-1="MxBlueskyParameters" data-entity-2="LoadCentreCollect" data-source-line="128" data-uid="lnk38" id="link_MxBlueskyParameters_LoadCentreCollect"><path codeLine="128" d="M2776.0877,164.4286 C3007.1477,182.0886 3405.13,219.2169 3544,275.7869 C3745.68,357.9369 3936,351.9869 3936,569.7569 C3936,569.7569 3936,569.7569 3936,728.6469 C3936,890.1269 3995.03,1075.9569 4023.28,1155.6269" fill="none" id="MxBlueskyParameters-backto-LoadCentreCollect" style="stroke:#181818;stroke-width:1;"/><polygon fill="none" points="2758.14,163.0569,2775.6304,170.4112,2776.5449,158.4461,2758.14,163.0569" style="stroke:#181818;stroke-width:1;"/></g><!--reverse link WithVisit to LoadCentreCollect--><g class="link" data-entity-1="WithVisit" data-entity-2="LoadCentreCollect" data-source-line="129" data-uid="lnk39" id="link_WithVisit_LoadCentreCollect"><path codeLine="129" d="M2146.3497,216.3338 C2376.0797,269.0738 2998.29,162.5069 3205,275.7869 C3346.26,353.1969 3417,408.6669 3417,569.7569 C3417,569.7569 3417,569.7569 3417,728.6469 C3417,910.2269 3394.16,1005.1869 3535,1119.7969 C3589.68,1164.2969 3781.5,1135.9769 3851,1147.7969 C3863.88,1149.9869 3877.17,1152.6169 3890.46,1155.4869" fill="none" id="WithVisit-backto-LoadCentreCollect" style="stroke:#181818;stroke-width:1;"/><polygon fill="none" points="2129.04,211.3969,2144.7041,222.1037,2147.9954,210.5639,2129.04,211.3969" style="stroke:#181818;stroke-width:1;"/></g><!--reverse link WithSample to LoadCentreCollect--><g class="link" data-entity-1="WithSample" data-entity-2="LoadCentreCollect" data-source-line="130" data-uid="lnk40" id="link_WithSample_LoadCentreCollect"><path codeLine="130" d="M1818.919,208.3524 C1830.799,214.7124 1827.5,211.8769 1840,215.7869 C2237.9,340.0469 2384.01,133.9769 2776,275.7869 C2984.48,351.2069 3179,348.0569 3179,569.7569 C3179,569.7569 3179,569.7569 3179,728.6469 C3179,929.8669 3235.77,1014.1069 3407,1119.7969 C3449.06,1145.7669 3802.17,1140.1369 3851,1147.7969 C3864.4,1149.9069 3878.24,1152.5269 3892.05,1155.4569" fill="none" id="WithSample-backto-LoadCentreCollect" style="stroke:#181818;stroke-width:1;"/><polygon fill="none" points="1803.05,199.8569,1816.0872,213.6421,1821.7509,203.0627,1803.05,199.8569" style="stroke:#181818;stroke-width:1;"/></g><!--reverse link WithCentreSelection to LoadCentreCollect--><g class="link" data-entity-1="WithCentreSelection" data-entity-2="LoadCentreCollect" data-source-line="131" data-uid="lnk41" id="link_WithCentreSelection_LoadCentreCollect"><path codeLine="131" d="M342.1241,199.5727 C378.5041,267.8527 450,419.1469 450,569.7569 C450,569.7569 450,569.7569 450,728.6469 C450,1173.2269 1970.02,1071.8269 2412,1119.7969 C2729.97,1154.3169 3534.03,1105.0769 3851,1147.7969 C3865.44,1149.7469 3880.37,1152.3969 3895.21,1155.4669" fill="none" id="WithCentreSelection-backto-LoadCentreCollect" style="stroke:#181818;stroke-width:1;"/><polygon fill="none" points="333.66,183.6869,336.8288,202.3941,347.4193,196.7513,333.66,183.6869" style="stroke:#181818;stroke-width:1;"/></g><!--reverse link WithHyperionUDCFeatures to LoadCentreCollect--><g class="link" data-entity-1="WithHyperionUDCFeatures" data-entity-2="LoadCentreCollect" data-source-line="132" data-uid="lnk42" id="link_WithHyperionUDCFeatures_LoadCentreCollect"><path codeLine="132" d="M3735.0389,1015.7676 C3784.2289,1045.1076 3844.32,1080.8969 3910,1119.7969 C3929.64,1131.4369 3951,1144.0369 3970.54,1155.5569" fill="none" id="WithHyperionUDCFeatures-backto-LoadCentreCollect" style="stroke:#181818;stroke-width:1;"/><polygon fill="none" points="3719.58,1006.5469,3731.9654,1020.9205,3738.1125,1010.6146,3719.58,1006.5469" style="stroke:#181818;stroke-width:1;"/></g><!--reverse link WithPandaGridScan to WithHyperionUDCFeatures--><g class="link" data-entity-1="WithPandaGridScan" data-entity-2="WithHyperionUDCFeatures" data-source-line="133" data-uid="lnk43" id="link_WithPandaGridScan_WithHyperionUDCFeatures"><path codeLine="133" d="M2351.1654,192.1618 C2373.8354,204.4818 2385.49,208.7269 2412,215.7869 C2522.89,245.2969 3352.28,205.5169 3443,275.7869 C3661.41,444.9669 3670.44,829.2369 3668.17,941.6969" fill="none" id="WithPandaGridScan-backto-WithHyperionUDCFeatures" style="stroke:#181818;stroke-width:1;"/><polygon fill="none" points="2335.35,183.5669,2348.3005,197.4336,2354.0304,186.89,2335.35,183.5669" style="stroke:#181818;stroke-width:1;"/></g><!--reverse link GridCommonWithHyperionDetectorParams to GridScanWithEdgeDetect--><g class="link" data-entity-1="GridCommonWithHyperionDetectorParams" data-entity-2="GridScanWithEdgeDetect" data-source-line="134" data-uid="lnk44" id="link_GridCommonWithHyperionDetectorParams_GridScanWithEdgeDetect"><path codeLine="134" d="M3683.9307,1237.0085 C3694.8207,1262.5885 3705.19,1286.9469 3716.09,1312.5669" fill="none" id="GridCommonWithHyperionDetectorParams-backto-GridScanWithEdgeDetect" style="stroke:#181818;stroke-width:1;"/><polygon fill="none" points="3676.88,1220.4469,3678.4101,1239.3587,3689.4512,1234.6583,3676.88,1220.4469" style="stroke:#181818;stroke-width:1;"/></g><!--reverse link WithHyperionUDCFeatures to GridScanWithEdgeDetect--><g class="link" data-entity-1="WithHyperionUDCFeatures" data-entity-2="GridScanWithEdgeDetect" data-source-line="135" data-uid="lnk45" id="link_WithHyperionUDCFeatures_GridScanWithEdgeDetect"><path codeLine="135" d="M3799.231,997.5439 C3946.551,1024.7339 4172.11,1076.0769 4225,1147.7969 C4250.56,1182.4569 4252.58,1211.6169 4225,1244.6869 C4212.39,1259.8169 3973.78,1298.3069 3831.15,1320.1269" fill="none" id="WithHyperionUDCFeatures-backto-GridScanWithEdgeDetect" style="stroke:#181818;stroke-width:1;"/><polygon fill="none" points="3781.53,994.2769,3798.142,1003.4442,3800.32,991.6435,3781.53,994.2769" style="stroke:#181818;stroke-width:1;"/></g><!--reverse link GridCommon to SpecifiedThreeDGridScan--><g class="link" data-entity-1="GridCommon" data-entity-2="SpecifiedThreeDGridScan" data-source-line="136" data-uid="lnk46" id="link_GridCommon_SpecifiedThreeDGridScan"><path codeLine="136" d="M2571.591,818.4811 C2566.951,837.0711 2566.21,840.0469 2561.19,860.1669" fill="none" id="GridCommon-backto-SpecifiedThreeDGridScan" style="stroke:#181818;stroke-width:1;"/><polygon fill="none" points="2575.95,801.0169,2565.7696,817.0281,2577.4124,819.9341,2575.95,801.0169" style="stroke:#181818;stroke-width:1;"/></g><!--reverse link SpecifiedGrid to SpecifiedThreeDGridScan--><g class="link" data-entity-1="SpecifiedGrid" data-entity-2="SpecifiedThreeDGridScan" data-source-line="137" data-uid="lnk47" id="link_SpecifiedGrid_SpecifiedThreeDGridScan"><path codeLine="137" d="M780.2318,408.1296 C1049.5818,494.9596 2087.68,829.6069 2427.17,939.0469" fill="none" id="SpecifiedGrid-backto-SpecifiedThreeDGridScan" style="stroke:#181818;stroke-width:1;"/><polygon fill="none" points="763.1,402.6069,778.3909,413.8402,782.0727,402.419,763.1,402.6069" style="stroke:#181818;stroke-width:1;"/></g><!--reverse link SplitScan to SpecifiedThreeDGridScan--><g class="link" data-entity-1="SplitScan" data-entity-2="SpecifiedThreeDGridScan" data-source-line="138" data-uid="lnk48" id="link_SplitScan_SpecifiedThreeDGridScan"><path codeLine="138" d="M107.7641,189.0708 C119.7441,203.3608 125.46,206.7969 145,215.7869 C402.54,334.2469 503.88,211.5969 780,275.7869 C1432.02,427.3469 2160.24,781.3869 2427.43,918.0169" fill="none" id="SplitScan-backto-SpecifiedThreeDGridScan" style="stroke:#181818;stroke-width:1;"/><polygon fill="none" points="96.2,175.2769,103.1661,192.9255,112.3621,185.2161,96.2,175.2769" style="stroke:#181818;stroke-width:1;"/></g><!--reverse link WithOptionalEnergyChange to SpecifiedThreeDGridScan--><g class="link" data-entity-1="WithOptionalEnergyChange" data-entity-2="SpecifiedThreeDGridScan" data-source-line="139" data-uid="lnk49" id="link_WithOptionalEnergyChange_SpecifiedThreeDGridScan"><path codeLine="139" d="M985.3309,191.9314 C1009.2609,204.2614 1022.21,208.8469 1050,215.7869 C1183.83,249.2069 2187.39,183.5969 2290,275.7869 C2325.3,307.4969 2312.98,440.3669 2323,486.7569 C2353.57,628.2069 2347.73,669.8969 2410,800.5369 C2419.58,820.6369 2431.5,840.8769 2444.12,860.0669" fill="none" id="WithOptionalEnergyChange-backto-SpecifiedThreeDGridScan" style="stroke:#181818;stroke-width:1;"/><polygon fill="none" points="969.33,183.6869,982.5827,197.265,988.079,186.5977,969.33,183.6869" style="stroke:#181818;stroke-width:1;"/></g><!--reverse link DiffractionExperiment to DiffractionExperimentWithSample--><g class="link" data-entity-1="DiffractionExperiment" data-entity-2="DiffractionExperimentWithSample" data-source-line="140" data-uid="lnk50" id="link_DiffractionExperiment_DiffractionExperimentWithSample"><path codeLine="140" d="M2583.5092,505.1817 C2581.6092,527.4417 2581.32,530.9069 2580,546.3269" fill="none" id="DiffractionExperiment-backto-DiffractionExperimentWithSample" style="stroke:#181818;stroke-width:1;"/><polygon fill="none" points="2585.04,487.2469,2577.5309,504.6714,2589.4874,505.6919,2585.04,487.2469" style="stroke:#181818;stroke-width:1;"/></g><!--reverse link WithSample to DiffractionExperimentWithSample--><g class="link" data-entity-1="WithSample" data-entity-2="DiffractionExperimentWithSample" data-source-line="141" data-uid="lnk51" id="link_WithSample_DiffractionExperimentWithSample"><path codeLine="141" d="M1820.2575,208.4453 C1831.7775,214.6153 1828,211.7069 1840,215.7869 C1950.97,253.5069 2277.06,197.1869 2364,275.7869 C2435.19,340.1469 2350.91,411.1369 2410,486.7569 C2431.63,514.4369 2464.91,533.5369 2496.16,546.3669" fill="none" id="WithSample-backto-DiffractionExperimentWithSample" style="stroke:#181818;stroke-width:1;"/><polygon fill="none" points="1804.39,199.9469,1817.4246,213.7345,1823.0903,203.1562,1804.39,199.9469" style="stroke:#181818;stroke-width:1;"/></g><!--reverse link DiffractionExperimentWithSample to GridCommon--><g class="link" data-entity-1="DiffractionExperimentWithSample" data-entity-2="GridCommon" data-source-line="142" data-uid="lnk52" id="link_DiffractionExperimentWithSample_GridCommon"><path codeLine="142" d="M2582.2411,612.8425 C2583.8811,628.7925 2584.33,633.0169 2586.56,654.5769" fill="none" id="DiffractionExperimentWithSample-backto-GridCommon" style="stroke:#181818;stroke-width:1;"/><polygon fill="none" points="2580.4,594.9369,2576.2725,613.4562,2588.2096,612.2288,2580.4,594.9369" style="stroke:#181818;stroke-width:1;"/></g><!--reverse link OptionalGonioAngleStarts to GridCommon--><g class="link" data-entity-1="OptionalGonioAngleStarts" data-entity-2="GridCommon" data-source-line="143" data-uid="lnk53" id="link_OptionalGonioAngleStarts_GridCommon"><path codeLine="143" d="M1297.1463,214.4439 C1305.0263,217.4239 1296.14,213.6769 1304,215.7869 C1413.98,245.2669 2242.69,199.2469 2327,275.7869 C2397.27,339.5769 2327.59,397.5569 2360,486.7569 C2379.13,539.4069 2387.85,552.8169 2425,594.7569 C2443.88,616.0669 2466.57,636.4169 2489.1,654.4769" fill="none" id="OptionalGonioAngleStarts-backto-GridCommon" style="stroke:#181818;stroke-width:1;"/><polygon fill="none" points="1280.31,208.0769,1295.024,220.056,1299.2686,208.8318,1280.31,208.0769" style="stroke:#181818;stroke-width:1;"/></g><!--reverse link XyzStarts to SpecifiedGrid--><g class="link" data-entity-1="XyzStarts" data-entity-2="SpecifiedGrid" data-source-line="144" data-uid="lnk54" id="link_XyzStarts_SpecifiedGrid"><path codeLine="144" d="M700,217.8869 C700,265.9869 700,320.1269 700,356.9069" fill="none" id="XyzStarts-backto-SpecifiedGrid" style="stroke:#181818;stroke-width:1;"/><polygon fill="none" points="700,199.8869,694,217.8869,706,217.8869,700,199.8869" style="stroke:#181818;stroke-width:1;"/></g><!--reverse link WithScan to SpecifiedGrid--><g class="link" data-entity-1="WithScan" data-entity-2="SpecifiedGrid" data-source-line="145" data-uid="lnk55" id="link_WithScan_SpecifiedGrid"><path codeLine="145" d="M577.6471,190.3094 C605.8271,234.0594 656.85,313.2769 685.06,357.0669" fill="none" id="WithScan-backto-SpecifiedGrid" style="stroke:#181818;stroke-width:1;"/><polygon fill="none" points="567.9,175.1769,572.6029,193.5585,582.6913,187.0604,567.9,175.1769" style="stroke:#181818;stroke-width:1;"/></g><!--reverse link RotationExperiment to MultiRotationScan--><g class="link" data-entity-1="RotationExperiment" data-entity-2="MultiRotationScan" data-source-line="146" data-uid="lnk56" id="link_RotationExperiment_MultiRotationScan"><path codeLine="146" d="M3036.5923,1259.3351 C3051.4023,1279.0751 3057.35,1286.9969 3070.55,1304.5869" fill="none" id="RotationExperiment-backto-MultiRotationScan" style="stroke:#181818;stroke-width:1;"/><polygon fill="none" points="3025.79,1244.9369,3031.7929,1262.9359,3041.3918,1255.7343,3025.79,1244.9369" style="stroke:#181818;stroke-width:1;"/></g><!--reverse link SplitScan to MultiRotationScan--><g class="link" data-entity-1="SplitScan" data-entity-2="MultiRotationScan" data-source-line="147" data-uid="lnk57" id="link_SplitScan_MultiRotationScan"><path codeLine="147" d="M113.6344,188.4391 C169.0744,248.3591 296,402.2269 296,569.7569 C296,569.7569 296,569.7569 296,975.1669 C296,1087.7669 398.05,1081.6769 504,1119.7969 C925.18,1271.3569 2249.23,1317.7569 2823.67,1330.9669" fill="none" id="SplitScan-backto-MultiRotationScan" style="stroke:#181818;stroke-width:1;"/><polygon fill="none" points="101.41,175.2269,109.2303,192.5139,118.0385,184.3643,101.41,175.2269" style="stroke:#181818;stroke-width:1;"/></g><!--reverse link GridCommonWithHyperionDetectorParams to PinTipCentreThenXrayCentre--><g class="link" data-entity-1="GridCommonWithHyperionDetectorParams" data-entity-2="PinTipCentreThenXrayCentre" data-source-line="148" data-uid="lnk58" id="link_GridCommonWithHyperionDetectorParams_PinTipCentreThenXrayCentre"><path codeLine="148" d="M3757.6242,1226.0496 C3829.8242,1248.9996 3923.36,1278.7369 4003.44,1304.1869" fill="none" id="GridCommonWithHyperionDetectorParams-backto-PinTipCentreThenXrayCentre" style="stroke:#181818;stroke-width:1;"/><polygon fill="none" points="3740.47,1220.5969,3755.8066,1231.7677,3759.4418,1220.3316,3740.47,1220.5969" style="stroke:#181818;stroke-width:1;"/></g><!--reverse link WithHyperionUDCFeatures to PinTipCentreThenXrayCentre--><g class="link" data-entity-1="WithHyperionUDCFeatures" data-entity-2="PinTipCentreThenXrayCentre" data-source-line="149" data-uid="lnk59" id="link_WithHyperionUDCFeatures_PinTipCentreThenXrayCentre"><path codeLine="149" d="M3799.3542,996.1889 C3950.9742,1022.5389 4187.8,1073.6269 4243,1147.7969 C4268.71,1182.3469 4263.53,1206.8369 4243,1244.6869 C4229.04,1270.4369 4204.3,1290.0569 4179.46,1304.3769" fill="none" id="WithHyperionUDCFeatures-backto-PinTipCentreThenXrayCentre" style="stroke:#181818;stroke-width:1;"/><polygon fill="none" points="3781.62,993.1069,3798.3268,1002.1003,3800.3815,990.2775,3781.62,993.1069" style="stroke:#181818;stroke-width:1;"/></g><!--SRC=[hLTBRziu43wRluAttGKs0ThpxY5rqdQ1fclKtco18Y1eQImHaKY2f5BBQVzxXw9UriDsWIA7YDyCX_FyIF-sIOMbEv41nV-ySEeg0Gc6EuZfjgJDWkcCIrVasRKk2N72uORtfGOZbAGhRdWE3WozLp5an8AZ4X6hUGHhq2Xsob2f9122s1DFWEPxjiqAi4_bTQJoNCbhtPYnz8KubO1BqUGBYJ9kBVrVk7G9qXcqc47ayE0NijWe_V5DUS_tIrL8rqgehRvOL6smv7lFo9hdEWFSAwIZjbem4OVbD_eHdMnGNKHFaxYGhSMrpeHRHnoTwH_o8AnmU8PrXcw1vvd0sAlLivU4pnWSYuLrp2dcbLYav3COp03JtAL1IKYB4CR4j86Ts9F5BbEyTGbjOA3AL8QuZ83b-N6u8z_-rTuSp-wmj4cvJBbCV3e6PdCkOmQL2eFdNhmGYPs0-9qHSMVtStbOEswSRGtjcVK0A_86AKV8eKFw3gxmQExj1zzhPUrHPWfPwCbWcx3UAIdKZKmo67XKXwPoI7XzS0p9GAfJCIkBJiYUkDPzgqSba5pRLFb-M65TgQtN68QfYbUIHOOHVQaiFhRTrgXL7jlQxFVnQDpltuH9QWVH1xts9NGYUi2b7ubsl5ZkfvGz1tnSsKrg06v7-KyGU1LywSVluTTZs9SVDBFY08CM6AE7QTtNutxfGtukmoasBCh-uj0ijafbb24b8L1icThjyBjZX5knsnbUaSRTtlDPZfHH3wwdHUQ9h3aVzbhPmW1pgCPiqFBiXNkGYun84Z2U0waBtrMgZoW4-vV98j-28OiRFC-XkGUEvMkhNZ4Nn8pNqkPmPxYqkR2-QCpxJ1R_M5rkExStICX8uuWnQ47c40sUMcmrfDv-srNPAImmeqHmzcHY-lpPAFf6MLOCthRALks7rVHjmhwAsAKzS9JFdmZe9vCdT5twG3R-R-8cIkihxVWk6iRfiz1SVhSr_rQZPxkiDFBPgMeKFod7HzqNdBPfuVoyAWrIoAJDKf2QUYCJCZ9GPQQQlyjpsBZmGV4uNArBbVa4eWUVr5OvBzYa88CGJqICuU4nG_wHzUrA5lT5vaGJXu-EvXvXhOSMiID6RBBpt-toBN1VACzO3Lf3RpEUuDkabX_rcp_4sxcB4mWLw18wyWOjtqZf0OY_L3pRbwx0hBy2wCS_wGUGl-T2iWnaujA_N_tnI8z2w7nO2RaHEgJ59-YpuMLOlSntNDT0zAzlLrSNDHIPoTQlid2cJSaCVjdcYNifR9pa5jA_Ai_fJRrXpksftcIdbCvGNjWwdjVJ6PxGdytBQ127VayhzDsRrXWyd4-fpWOohNxqLWkACrR89TtQzVLunC_FmiIUuT2TRNIFd5Ejd_odrKwtwTokoHuyqRHT_KUjS4x_edRlyaVc7jWZnVR7m21KhqAQtoHJil6i1AqHfGzhC5QulDdckVnqmytl-m40]--></g></svg>