<svg xmlns="http://www.w3.org/2000/svg" xmlns:xlink="http://www.w3.org/1999/xlink" contentStyleType="text/css" data-diagram-type="CLASS" height="1218px" preserveAspectRatio="none" style="width:5172px;height:1218px;background:#FFFFFF;" version="1.1" viewBox="0 0 5172 1218" width="5172px" zoomAndPan="magnify"><title>Hyperion Parameter Model</title><defs/><g><text fill="#000000" font-family="sans-serif" font-size="14" font-weight="bold" lengthAdjust="spacing" textLength="212.4951" x="2473.1674" y="22.9951">Hyperion Parameter Model</text><!--cluster mx_bluesky.common.parameters--><g id="cluster_mx_bluesky.common.parameters"><path d="M8.5,43.2969 L269.8125,43.2969 A3.75,3.75 0 0 1 272.3125,45.7969 L279.3125,65.5938 L2992.5,65.5938 A2.5,2.5 0 0 1 2995,68.0938 L2995,1092.9969 A2.5,2.5 0 0 1 2992.5,1095.4969 L8.5,1095.4969 A2.5,2.5 0 0 1 6,1092.9969 L6,45.7969 A2.5,2.5 0 0 1 8.5,43.2969 " fill="#FFFFFF" fill-opacity="0.00000" style="stroke:#000000;stroke-width:1.5;"/><line style="stroke:#000000;stroke-width:1.5;" x1="6" x2="279.3125" y1="65.5938" y2="65.5938"/><text fill="#000000" font-family="sans-serif" font-size="14" font-weight="bold" lengthAdjust="spacing" textLength="260.3125" x="10" y="58.292">mx_bluesky.common.parameters</text></g><!--cluster mx_bluesky.hyperion.parameters--><g id="cluster_mx_bluesky.hyperion.parameters"><path d="M3021.5,652.3469 L3286.0322,652.3469 A3.75,3.75 0 0 1 3288.5322,654.8469 L3295.5322,674.6438 L4841.5,674.6438 A2.5,2.5 0 0 1 4844,677.1438 L4844,1209.2969 A2.5,2.5 0 0 1 4841.5,1211.7969 L3021.5,1211.7969 A2.5,2.5 0 0 1 3019,1209.2969 L3019,654.8469 A2.5,2.5 0 0 1 3021.5,652.3469 " fill="#FFFFFF" fill-opacity="0.00000" style="stroke:#000000;stroke-width:1.5;"/><line style="stroke:#000000;stroke-width:1.5;" x1="3019" x2="3295.5322" y1="674.6438" y2="674.6438"/><text fill="#000000" font-family="sans-serif" font-size="14" font-weight="bold" lengthAdjust="spacing" textLength="263.5322" x="3023" y="667.342">mx_bluesky.hyperion.parameters</text></g><!--class SpecifiedGrid--><g id="elem_SpecifiedGrid"><rect codeLine="8" fill="#F1F1F1" height="48" id="SpecifiedGrid" rx="2.5" ry="2.5" style="stroke:#181818;stroke-width:0.5;" width="125.6729" x="1644.16" y="357.2669"/><ellipse cx="1659.16" cy="373.2669" fill="#ADD1B2" rx="11" ry="11" style="stroke:#181818;stroke-width:1;"/><path d="M1662.1288,378.9075 Q1661.5506,379.2044 1660.91,379.345 Q1660.2694,379.5013 1659.5663,379.5013 Q1657.0663,379.5013 1655.7381,377.8606 Q1654.4256,376.2044 1654.4256,373.0794 Q1654.4256,369.9544 1655.7381,368.2981 Q1657.0663,366.6419 1659.5663,366.6419 Q1660.2694,366.6419 1660.91,366.7981 Q1661.5663,366.9544 1662.1288,367.2513 L1662.1288,369.97 Q1661.5038,369.3919 1660.91,369.1263 Q1660.3163,368.845 1659.6913,368.845 Q1658.3475,368.845 1657.66,369.9231 Q1656.9725,370.9856 1656.9725,373.0794 Q1656.9725,375.1731 1657.66,376.2513 Q1658.3475,377.3138 1659.6913,377.3138 Q1660.3163,377.3138 1660.91,377.0481 Q1661.5038,376.7669 1662.1288,376.1888 L1662.1288,378.9075 Z " fill="#000000"/><text fill="#000000" font-family="sans-serif" font-size="14" lengthAdjust="spacing" textLength="93.6729" x="1673.16" y="378.1136">SpecifiedGrid</text><line style="stroke:#181818;stroke-width:0.5;" x1="1645.16" x2="1768.8329" y1="389.2669" y2="389.2669"/><line style="stroke:#181818;stroke-width:0.5;" x1="1645.16" x2="1768.8329" y1="397.2669" y2="397.2669"/></g><!--class XyzStarts--><g id="elem_XyzStarts"><rect codeLine="10" fill="#F1F1F1" height="96.8906" id="XyzStarts" rx="2.5" ry="2.5" style="stroke:#181818;stroke-width:0.5;" width="125.3057" x="300.35" y="102.5969"/><ellipse cx="327.3141" cy="118.5969" fill="#ADD1B2" rx="11" ry="11" style="stroke:#181818;stroke-width:1;"/><path d="M330.2829,124.2375 Q329.7047,124.5344 329.0641,124.675 Q328.4235,124.8312 327.7204,124.8312 Q325.2204,124.8312 323.8922,123.1906 Q322.5797,121.5344 322.5797,118.4094 Q322.5797,115.2844 323.8922,113.6281 Q325.2204,111.9719 327.7204,111.9719 Q328.4235,111.9719 329.0641,112.1281 Q329.7204,112.2844 330.2829,112.5812 L330.2829,115.3 Q329.6579,114.7219 329.0641,114.4562 Q328.4704,114.175 327.8454,114.175 Q326.5016,114.175 325.8141,115.2531 Q325.1266,116.3156 325.1266,118.4094 Q325.1266,120.5031 325.8141,121.5812 Q326.5016,122.6437 327.8454,122.6437 Q328.4704,122.6437 329.0641,122.3781 Q329.6579,122.0969 330.2829,121.5187 L330.2829,124.2375 Z " fill="#000000"/><text fill="#000000" font-family="sans-serif" font-size="14" lengthAdjust="spacing" textLength="66.7188" x="343.9728" y="123.4436">XyzStarts</text><line style="stroke:#181818;stroke-width:0.5;" x1="301.35" x2="424.6557" y1="134.5969" y2="134.5969"/><text fill="#000000" font-family="sans-serif" font-size="14" lengthAdjust="spacing" textLength="113.3057" x="306.35" y="151.592">float x_start_um</text><text fill="#000000" font-family="sans-serif" font-size="14" lengthAdjust="spacing" textLength="113.3057" x="306.35" y="167.8889">float y_start_um</text><text fill="#000000" font-family="sans-serif" font-size="14" lengthAdjust="spacing" textLength="112.3691" x="306.35" y="184.1857">float z_start_um</text><line style="stroke:#181818;stroke-width:0.5;" x1="301.35" x2="424.6557" y1="191.4875" y2="191.4875"/></g><!--class SplitScan--><g id="elem_SplitScan"><rect codeLine="15" fill="#F1F1F1" height="48" id="SplitScan" rx="2.5" ry="2.5" style="stroke:#181818;stroke-width:0.5;" width="97.0781" x="1314.46" y="127.0369"/><ellipse cx="1329.46" cy="143.0369" fill="#ADD1B2" rx="11" ry="11" style="stroke:#181818;stroke-width:1;"/><path d="M1332.4288,148.6775 Q1331.8506,148.9744 1331.21,149.115 Q1330.5694,149.2713 1329.8663,149.2713 Q1327.3663,149.2713 1326.0381,147.6306 Q1324.7256,145.9744 1324.7256,142.8494 Q1324.7256,139.7244 1326.0381,138.0681 Q1327.3663,136.4119 1329.8663,136.4119 Q1330.5694,136.4119 1331.21,136.5681 Q1331.8663,136.7244 1332.4288,137.0213 L1332.4288,139.74 Q1331.8038,139.1619 1331.21,138.8963 Q1330.6163,138.615 1329.9913,138.615 Q1328.6475,138.615 1327.96,139.6931 Q1327.2725,140.7556 1327.2725,142.8494 Q1327.2725,144.9431 1327.96,146.0213 Q1328.6475,147.0838 1329.9913,147.0838 Q1330.6163,147.0838 1331.21,146.8181 Q1331.8038,146.5369 1332.4288,145.9588 L1332.4288,148.6775 Z " fill="#000000"/><text fill="#000000" font-family="sans-serif" font-size="14" lengthAdjust="spacing" textLength="65.0781" x="1343.46" y="147.8836">SplitScan</text><line style="stroke:#181818;stroke-width:0.5;" x1="1315.46" x2="1410.5381" y1="159.0369" y2="159.0369"/><line style="stroke:#181818;stroke-width:0.5;" x1="1315.46" x2="1410.5381" y1="167.0369" y2="167.0369"/></g><!--class WithPandaGridScan--><g id="elem_WithPandaGridScan"><rect codeLine="17" fill="#F1F1F1" height="64.2969" id="WithPandaGridScan" rx="2.5" ry="2.5" style="stroke:#181818;stroke-width:0.5;" width="240.5664" x="784.72" y="118.8869"/><ellipse cx="831.3172" cy="134.8869" fill="#ADD1B2" rx="11" ry="11" style="stroke:#181818;stroke-width:1;"/><path d="M834.2859,140.5275 Q833.7078,140.8244 833.0672,140.965 Q832.4265,141.1212 831.7234,141.1212 Q829.2234,141.1212 827.8953,139.4806 Q826.5828,137.8244 826.5828,134.6994 Q826.5828,131.5744 827.8953,129.9181 Q829.2234,128.2619 831.7234,128.2619 Q832.4265,128.2619 833.0672,128.4181 Q833.7234,128.5744 834.2859,128.8712 L834.2859,131.59 Q833.6609,131.0119 833.0672,130.7462 Q832.4734,130.465 831.8484,130.465 Q830.5047,130.465 829.8172,131.5431 Q829.1297,132.6056 829.1297,134.6994 Q829.1297,136.7931 829.8172,137.8712 Q830.5047,138.9337 831.8484,138.9337 Q832.4734,138.9337 833.0672,138.6681 Q833.6609,138.3869 834.2859,137.8087 L834.2859,140.5275 Z " fill="#000000"/><text fill="#000000" font-family="sans-serif" font-size="14" lengthAdjust="spacing" textLength="138.8721" x="851.8172" y="139.7336">WithPandaGridScan</text><line style="stroke:#181818;stroke-width:0.5;" x1="785.72" x2="1024.2864" y1="150.8869" y2="150.8869"/><text fill="#000000" font-family="sans-serif" font-size="14" lengthAdjust="spacing" textLength="228.5664" x="790.72" y="167.882">float panda_runup_distance_mm</text><line style="stroke:#181818;stroke-width:0.5;" x1="785.72" x2="1024.2864" y1="175.1837" y2="175.1837"/></g><!--class OptionalGonioAngleStarts--><g id="elem_OptionalGonioAngleStarts"><rect codeLine="20" fill="#F1F1F1" height="113.1875" id="OptionalGonioAngleStarts" rx="2.5" ry="2.5" style="stroke:#181818;stroke-width:0.5;" width="219.3203" x="1060.34" y="94.4469"/><ellipse cx="1078.0633" cy="110.4469" fill="#ADD1B2" rx="11" ry="11" style="stroke:#181818;stroke-width:1;"/><path d="M1081.032,116.0875 Q1080.4539,116.3844 1079.8133,116.525 Q1079.1727,116.6813 1078.4695,116.6813 Q1075.9695,116.6813 1074.6414,115.0406 Q1073.3289,113.3844 1073.3289,110.2594 Q1073.3289,107.1344 1074.6414,105.4781 Q1075.9695,103.8219 1078.4695,103.8219 Q1079.1727,103.8219 1079.8133,103.9781 Q1080.4695,104.1344 1081.032,104.4313 L1081.032,107.15 Q1080.407,106.5719 1079.8133,106.3063 Q1079.2195,106.025 1078.5945,106.025 Q1077.2508,106.025 1076.5633,107.1031 Q1075.8758,108.1656 1075.8758,110.2594 Q1075.8758,112.3531 1076.5633,113.4313 Q1077.2508,114.4938 1078.5945,114.4938 Q1079.2195,114.4938 1079.8133,114.2281 Q1080.407,113.9469 1081.032,113.3688 L1081.032,116.0875 Z " fill="#000000"/><text fill="#000000" font-family="sans-serif" font-size="14" lengthAdjust="spacing" textLength="181.2686" x="1092.6685" y="115.2936">OptionalGonioAngleStarts</text><line style="stroke:#181818;stroke-width:0.5;" x1="1061.34" x2="1278.6603" y1="126.4469" y2="126.4469"/><text fill="#000000" font-family="sans-serif" font-size="14" lengthAdjust="spacing" textLength="207.3203" x="1066.34" y="143.442">float | None omega_start_deg</text><text fill="#000000" font-family="sans-serif" font-size="14" lengthAdjust="spacing" textLength="180.6875" x="1066.34" y="159.7389">float | None phi_start_deg</text><text fill="#000000" font-family="sans-serif" font-size="14" lengthAdjust="spacing" textLength="179.498" x="1066.34" y="176.0357">float | None chi_start_deg</text><text fill="#000000" font-family="sans-serif" font-size="14" lengthAdjust="spacing" textLength="202.0771" x="1066.34" y="192.3326">float | None kappa_start_deg</text><line style="stroke:#181818;stroke-width:0.5;" x1="1061.34" x2="1278.6603" y1="199.6344" y2="199.6344"/></g><!--class WithCentreSelection--><g id="elem_WithCentreSelection"><rect codeLine="26" fill="#F1F1F1" height="64.2969" id="WithCentreSelection" rx="2.5" ry="2.5" style="stroke:#181818;stroke-width:0.5;" width="306.7861" x="2308.61" y="118.8869"/><ellipse cx="2385.8869" cy="134.8869" fill="#ADD1B2" rx="11" ry="11" style="stroke:#181818;stroke-width:1;"/><path d="M2388.8556,140.5275 Q2388.2775,140.8244 2387.6369,140.965 Q2386.9962,141.1212 2386.2931,141.1212 Q2383.7931,141.1212 2382.465,139.4806 Q2381.1525,137.8244 2381.1525,134.6994 Q2381.1525,131.5744 2382.465,129.9181 Q2383.7931,128.2619 2386.2931,128.2619 Q2386.9962,128.2619 2387.6369,128.4181 Q2388.2931,128.5744 2388.8556,128.8712 L2388.8556,131.59 Q2388.2306,131.0119 2387.6369,130.7462 Q2387.0431,130.465 2386.4181,130.465 Q2385.0744,130.465 2384.3869,131.5431 Q2383.6994,132.6056 2383.6994,134.6994 Q2383.6994,136.7931 2384.3869,137.8712 Q2385.0744,138.9337 2386.4181,138.9337 Q2387.0431,138.9337 2387.6369,138.6681 Q2388.2306,138.3869 2388.8556,137.8087 L2388.8556,140.5275 Z " fill="#000000"/><text fill="#000000" font-family="sans-serif" font-size="14" lengthAdjust="spacing" textLength="143.7324" x="2406.3869" y="139.7336">WithCentreSelection</text><line style="stroke:#181818;stroke-width:0.5;" x1="2309.61" x2="2614.3961" y1="150.8869" y2="150.8869"/><text fill="#000000" font-family="sans-serif" font-size="14" lengthAdjust="spacing" textLength="294.7861" x="2314.61" y="167.882">TopNByMaxCountSelection select_centres</text><line style="stroke:#181818;stroke-width:0.5;" x1="2309.61" x2="2614.3961" y1="175.1837" y2="175.1837"/></g><!--class WithVisit--><g id="elem_WithVisit"><rect codeLine="29" fill="#F1F1F1" height="129.4844" id="WithVisit" rx="2.5" ry="2.5" style="stroke:#181818;stroke-width:0.5;" width="271.7861" x="2002.11" y="86.2969"/><ellipse cx="2102.6359" cy="102.2969" fill="#ADD1B2" rx="11" ry="11" style="stroke:#181818;stroke-width:1;"/><path d="M2105.6046,107.9375 Q2105.0265,108.2344 2104.3859,108.375 Q2103.7453,108.5313 2103.0421,108.5313 Q2100.5421,108.5313 2099.214,106.8906 Q2097.9015,105.2344 2097.9015,102.1094 Q2097.9015,98.9844 2099.214,97.3281 Q2100.5421,95.6719 2103.0421,95.6719 Q2103.7453,95.6719 2104.3859,95.8281 Q2105.0421,95.9844 2105.6046,96.2813 L2105.6046,99 Q2104.9796,98.4219 2104.3859,98.1563 Q2103.7921,97.875 2103.1671,97.875 Q2101.8234,97.875 2101.1359,98.9531 Q2100.4484,100.0156 2100.4484,102.1094 Q2100.4484,104.2031 2101.1359,105.2813 Q2101.8234,106.3438 2103.1671,106.3438 Q2103.7921,106.3438 2104.3859,106.0781 Q2104.9796,105.7969 2105.6046,105.2188 L2105.6046,107.9375 Z " fill="#000000"/><text fill="#000000" font-family="sans-serif" font-size="14" lengthAdjust="spacing" textLength="62.2344" x="2123.1359" y="107.1436">WithVisit</text><line style="stroke:#181818;stroke-width:0.5;" x1="2003.11" x2="2272.8961" y1="118.2969" y2="118.2969"/><text fill="#000000" font-family="sans-serif" font-size="14" lengthAdjust="spacing" textLength="87.9717" x="2008.11" y="135.292">str beamline</text><text fill="#000000" font-family="sans-serif" font-size="14" lengthAdjust="spacing" textLength="51.8369" x="2008.11" y="151.5889">str visit</text><text fill="#000000" font-family="sans-serif" font-size="14" lengthAdjust="spacing" textLength="259.7861" x="2008.11" y="167.8857">str det_dist_to_beam_converter_path</text><text fill="#000000" font-family="sans-serif" font-size="14" lengthAdjust="spacing" textLength="131.5918" x="2008.11" y="184.1826">str insertion_prefix</text><text fill="#000000" font-family="sans-serif" font-size="14" lengthAdjust="spacing" textLength="245.752" x="2008.11" y="200.4795">float | None detector_distance_mm</text><line style="stroke:#181818;stroke-width:0.5;" x1="2003.11" x2="2272.8961" y1="207.7813" y2="207.7813"/></g><!--class WithSample--><g id="elem_WithSample"><rect codeLine="36" fill="#F1F1F1" height="96.8906" id="WithSample" rx="2.5" ry="2.5" style="stroke:#181818;stroke-width:0.5;" width="176.3086" x="1446.85" y="102.5969"/><ellipse cx="1488.7243" cy="118.5969" fill="#ADD1B2" rx="11" ry="11" style="stroke:#181818;stroke-width:1;"/><path d="M1491.6931,124.2375 Q1491.1149,124.5344 1490.4743,124.675 Q1489.8337,124.8312 1489.1306,124.8312 Q1486.6306,124.8312 1485.3024,123.1906 Q1483.9899,121.5344 1483.9899,118.4094 Q1483.9899,115.2844 1485.3024,113.6281 Q1486.6306,111.9719 1489.1306,111.9719 Q1489.8337,111.9719 1490.4743,112.1281 Q1491.1306,112.2844 1491.6931,112.5812 L1491.6931,115.3 Q1491.0681,114.7219 1490.4743,114.4562 Q1489.8806,114.175 1489.2556,114.175 Q1487.9118,114.175 1487.2243,115.2531 Q1486.5368,116.3156 1486.5368,118.4094 Q1486.5368,120.5031 1487.2243,121.5812 Q1487.9118,122.6437 1489.2556,122.6437 Q1489.8806,122.6437 1490.4743,122.3781 Q1491.0681,122.0969 1491.6931,121.5187 L1491.6931,124.2375 Z " fill="#000000"/><text fill="#000000" font-family="sans-serif" font-size="14" lengthAdjust="spacing" textLength="84.5879" x="1508.6964" y="123.4436">WithSample</text><line style="stroke:#181818;stroke-width:0.5;" x1="1447.85" x2="1622.1586" y1="134.5969" y2="134.5969"/><text fill="#000000" font-family="sans-serif" font-size="14" lengthAdjust="spacing" textLength="93.3789" x="1452.85" y="151.592">int sample_id</text><text fill="#000000" font-family="sans-serif" font-size="14" lengthAdjust="spacing" textLength="164.3086" x="1452.85" y="167.8889">int | None sample_puck</text><text fill="#000000" font-family="sans-serif" font-size="14" lengthAdjust="spacing" textLength="152.3936" x="1452.85" y="184.1857">int | None sample_pin</text><line style="stroke:#181818;stroke-width:0.5;" x1="1447.85" x2="1622.1586" y1="191.4875" y2="191.4875"/></g><!--class OptionalXyzStarts--><g id="elem_OptionalXyzStarts"><rect codeLine="41" fill="#F1F1F1" height="96.8906" id="OptionalXyzStarts" rx="2.5" ry="2.5" style="stroke:#181818;stroke-width:0.5;" width="175.4473" x="1791.28" y="102.5969"/><ellipse cx="1814.1713" cy="118.5969" fill="#ADD1B2" rx="11" ry="11" style="stroke:#181818;stroke-width:1;"/><path d="M1817.14,124.2375 Q1816.5619,124.5344 1815.9213,124.675 Q1815.2806,124.8312 1814.5775,124.8312 Q1812.0775,124.8312 1810.7494,123.1906 Q1809.4369,121.5344 1809.4369,118.4094 Q1809.4369,115.2844 1810.7494,113.6281 Q1812.0775,111.9719 1814.5775,111.9719 Q1815.2806,111.9719 1815.9213,112.1281 Q1816.5775,112.2844 1817.14,112.5812 L1817.14,115.3 Q1816.515,114.7219 1815.9213,114.4562 Q1815.3275,114.175 1814.7025,114.175 Q1813.3588,114.175 1812.6713,115.2531 Q1811.9838,116.3156 1811.9838,118.4094 Q1811.9838,120.5031 1812.6713,121.5812 Q1813.3588,122.6437 1814.7025,122.6437 Q1815.3275,122.6437 1815.9213,122.3781 Q1816.515,122.0969 1817.14,121.5187 L1817.14,124.2375 Z " fill="#000000"/><text fill="#000000" font-family="sans-serif" font-size="14" lengthAdjust="spacing" textLength="125.9111" x="1829.9249" y="123.4436">OptionalXyzStarts</text><line style="stroke:#181818;stroke-width:0.5;" x1="1792.28" x2="1965.7273" y1="134.5969" y2="134.5969"/><text fill="#000000" font-family="sans-serif" font-size="14" lengthAdjust="spacing" textLength="163.4473" x="1797.28" y="151.592">float | None x_start_um</text><text fill="#000000" font-family="sans-serif" font-size="14" lengthAdjust="spacing" textLength="163.4473" x="1797.28" y="167.8889">float | None y_start_um</text><text fill="#000000" font-family="sans-serif" font-size="14" lengthAdjust="spacing" textLength="162.5107" x="1797.28" y="184.1857">float | None z_start_um</text><line style="stroke:#181818;stroke-width:0.5;" x1="1792.28" x2="1965.7273" y1="191.4875" y2="191.4875"/></g><!--class WithScan--><g id="elem_WithScan"><rect codeLine="46" fill="#F1F1F1" height="48" id="WithScan" rx="2.5" ry="2.5" style="stroke:#181818;stroke-width:0.5;" width="98.1309" x="1657.93" y="127.0369"/><ellipse cx="1672.93" cy="143.0369" fill="#ADD1B2" rx="11" ry="11" style="stroke:#181818;stroke-width:1;"/><path d="M1675.8988,148.6775 Q1675.3206,148.9744 1674.68,149.115 Q1674.0394,149.2713 1673.3363,149.2713 Q1670.8363,149.2713 1669.5081,147.6306 Q1668.1956,145.9744 1668.1956,142.8494 Q1668.1956,139.7244 1669.5081,138.0681 Q1670.8363,136.4119 1673.3363,136.4119 Q1674.0394,136.4119 1674.68,136.5681 Q1675.3363,136.7244 1675.8988,137.0213 L1675.8988,139.74 Q1675.2738,139.1619 1674.68,138.8963 Q1674.0863,138.615 1673.4613,138.615 Q1672.1175,138.615 1671.43,139.6931 Q1670.7425,140.7556 1670.7425,142.8494 Q1670.7425,144.9431 1671.43,146.0213 Q1672.1175,147.0838 1673.4613,147.0838 Q1674.0863,147.0838 1674.68,146.8181 Q1675.2738,146.5369 1675.8988,145.9588 L1675.8988,148.6775 Z " fill="#000000"/><text fill="#000000" font-family="sans-serif" font-size="14" lengthAdjust="spacing" textLength="66.1309" x="1686.93" y="147.8836">WithScan</text><line style="stroke:#181818;stroke-width:0.5;" x1="1658.93" x2="1755.0609" y1="159.0369" y2="159.0369"/><line style="stroke:#181818;stroke-width:0.5;" x1="1658.93" x2="1755.0609" y1="167.0369" y2="167.0369"/></g><!--class WithOptionalEnergyChange--><g id="elem_WithOptionalEnergyChange"><rect codeLine="48" fill="#F1F1F1" height="64.2969" id="WithOptionalEnergyChange" rx="2.5" ry="2.5" style="stroke:#181818;stroke-width:0.5;" width="235.4463" x="30.28" y="118.8869"/><ellipse cx="49.4645" cy="134.8869" fill="#ADD1B2" rx="11" ry="11" style="stroke:#181818;stroke-width:1;"/><path d="M52.4332,140.5275 Q51.8551,140.8244 51.2145,140.965 Q50.5738,141.1212 49.8707,141.1212 Q47.3707,141.1212 46.0426,139.4806 Q44.7301,137.8244 44.7301,134.6994 Q44.7301,131.5744 46.0426,129.9181 Q47.3707,128.2619 49.8707,128.2619 Q50.5738,128.2619 51.2145,128.4181 Q51.8707,128.5744 52.4332,128.8712 L52.4332,131.59 Q51.8082,131.0119 51.2145,130.7462 Q50.6207,130.465 49.9957,130.465 Q48.652,130.465 47.9645,131.5431 Q47.277,132.6056 47.277,134.6994 Q47.277,136.7931 47.9645,137.8712 Q48.652,138.9337 49.9957,138.9337 Q50.6207,138.9337 51.2145,138.6681 Q51.8082,138.3869 52.4332,137.8087 L52.4332,140.5275 Z " fill="#000000"/><text fill="#000000" font-family="sans-serif" font-size="14" lengthAdjust="spacing" textLength="194.1475" x="64.3944" y="139.7336">WithOptionalEnergyChange</text><line style="stroke:#181818;stroke-width:0.5;" x1="31.28" x2="264.7263" y1="150.8869" y2="150.8869"/><text fill="#000000" font-family="sans-serif" font-size="14" lengthAdjust="spacing" textLength="223.4463" x="36.28" y="167.882">float | None demand_energy_ev</text><line style="stroke:#181818;stroke-width:0.5;" x1="31.28" x2="264.7263" y1="175.1837" y2="175.1837"/></g><!--class WithSnapshot--><g id="elem_WithSnapshot"><rect codeLine="51" fill="#F1F1F1" height="80.5938" id="WithSnapshot" rx="2.5" ry="2.5" style="stroke:#181818;stroke-width:0.5;" width="289.3477" x="460.33" y="110.7469"/><ellipse cx="551.9828" cy="126.7469" fill="#ADD1B2" rx="11" ry="11" style="stroke:#181818;stroke-width:1;"/><path d="M554.9516,132.3875 Q554.3735,132.6844 553.7328,132.825 Q553.0922,132.9813 552.3891,132.9813 Q549.8891,132.9813 548.561,131.3406 Q547.2485,129.6844 547.2485,126.5594 Q547.2485,123.4344 548.561,121.7781 Q549.8891,120.1219 552.3891,120.1219 Q553.0922,120.1219 553.7328,120.2781 Q554.3891,120.4344 554.9516,120.7313 L554.9516,123.45 Q554.3266,122.8719 553.7328,122.6063 Q553.1391,122.325 552.5141,122.325 Q551.1703,122.325 550.4828,123.4031 Q549.7953,124.4656 549.7953,126.5594 Q549.7953,128.6531 550.4828,129.7313 Q551.1703,130.7938 552.5141,130.7938 Q553.1391,130.7938 553.7328,130.5281 Q554.3266,130.2469 554.9516,129.6688 L554.9516,132.3875 Z " fill="#000000"/><text fill="#000000" font-family="sans-serif" font-size="14" lengthAdjust="spacing" textLength="97.542" x="572.4828" y="131.5936">WithSnapshot</text><line style="stroke:#181818;stroke-width:0.5;" x1="461.33" x2="748.6777" y1="142.7469" y2="142.7469"/><text fill="#000000" font-family="sans-serif" font-size="14" lengthAdjust="spacing" textLength="169.627" x="466.33" y="159.742">Path snapshot_directory</text><text fill="#000000" font-family="sans-serif" font-size="14" lengthAdjust="spacing" textLength="277.3477" x="466.33" y="176.0389">list[float] | None snapshot_omegas_deg</text><line style="stroke:#181818;stroke-width:0.5;" x1="461.33" x2="748.6777" y1="183.3406" y2="183.3406"/></g><!--class DiffractionExperiment--><g id="elem_DiffractionExperiment"><rect codeLine="57" fill="#F1F1F1" height="210.9688" id="DiffractionExperiment" rx="2.5" ry="2.5" style="stroke:#181818;stroke-width:0.5;" width="332.332" x="2638.83" y="275.7769"/><ellipse cx="2723.6127" cy="291.7769" fill="#ADD1B2" rx="11" ry="11" style="stroke:#181818;stroke-width:1;"/><path d="M2726.5815,297.4175 Q2726.0033,297.7144 2725.3627,297.855 Q2724.7221,298.0113 2724.019,298.0113 Q2721.519,298.0113 2720.1908,296.3706 Q2718.8783,294.7144 2718.8783,291.5894 Q2718.8783,288.4644 2720.1908,286.8081 Q2721.519,285.1519 2724.019,285.1519 Q2724.7221,285.1519 2725.3627,285.3081 Q2726.019,285.4644 2726.5815,285.7613 L2726.5815,288.48 Q2725.9565,287.9019 2725.3627,287.6363 Q2724.769,287.355 2724.144,287.355 Q2722.8002,287.355 2722.1127,288.4331 Q2721.4252,289.4956 2721.4252,291.5894 Q2721.4252,293.6831 2722.1127,294.7613 Q2722.8002,295.8238 2724.144,295.8238 Q2724.769,295.8238 2725.3627,295.5581 Q2725.9565,295.2769 2726.5815,294.6988 L2726.5815,297.4175 Z " fill="#000000"/><text fill="#000000" font-family="sans-serif" font-size="14" lengthAdjust="spacing" textLength="154.2666" x="2744.1127" y="296.6236">DiffractionExperiment</text><line style="stroke:#181818;stroke-width:0.5;" x1="2639.83" x2="2970.162" y1="307.7769" y2="307.7769"/><text fill="#000000" font-family="sans-serif" font-size="14" lengthAdjust="spacing" textLength="91.0137" x="2644.83" y="324.772">str file_name</text><text fill="#000000" font-family="sans-serif" font-size="14" lengthAdjust="spacing" textLength="153.7129" x="2644.83" y="341.0689">float exposure_time_s</text><text fill="#000000" font-family="sans-serif" font-size="14" lengthAdjust="spacing" textLength="89.5029" x="2644.83" y="357.3657">str comment</text><text fill="#000000" font-family="sans-serif" font-size="14" lengthAdjust="spacing" textLength="186.915" x="2644.83" y="373.6626">TriggerMode trigger_mode</text><text fill="#000000" font-family="sans-serif" font-size="14" lengthAdjust="spacing" textLength="157.9854" x="2644.83" y="389.9595">int | None run_number</text><text fill="#000000" font-family="sans-serif" font-size="14" lengthAdjust="spacing" textLength="282.3516" x="2644.83" y="406.2564">ApertureValue | None selected_aperture</text><text fill="#000000" font-family="sans-serif" font-size="14" lengthAdjust="spacing" textLength="159.2979" x="2644.83" y="422.5532">float transmission_frac</text><text fill="#000000" font-family="sans-serif" font-size="14" lengthAdjust="spacing" textLength="320.332" x="2644.83" y="438.8501">IspybExperimentType ispyb_experiment_type</text><text fill="#000000" font-family="sans-serif" font-size="14" lengthAdjust="spacing" textLength="146.1113" x="2644.83" y="455.147">str storage_directory</text><text fill="#000000" font-family="sans-serif" font-size="14" lengthAdjust="spacing" textLength="131.0518" x="2644.83" y="471.4439">bool use_roi_mode</text><line style="stroke:#181818;stroke-width:0.5;" x1="2639.83" x2="2970.162" y1="478.7456" y2="478.7456"/></g><!--class SpecifiedThreeDGridScan--><g id="elem_SpecifiedThreeDGridScan"><rect codeLine="69" fill="#F1F1F1" height="227.2656" id="SpecifiedThreeDGridScan" rx="2.5" ry="2.5" style="stroke:#181818;stroke-width:0.5;" width="210.8965" x="2638.55" y="844.2369"/><ellipse cx="2653.55" cy="860.2369" fill="#ADD1B2" rx="11" ry="11" style="stroke:#181818;stroke-width:1;"/><path d="M2656.5188,865.8775 Q2655.9406,866.1744 2655.3,866.315 Q2654.6594,866.4713 2653.9563,866.4713 Q2651.4563,866.4713 2650.1281,864.8306 Q2648.8156,863.1744 2648.8156,860.0494 Q2648.8156,856.9244 2650.1281,855.2681 Q2651.4563,853.6119 2653.9563,853.6119 Q2654.6594,853.6119 2655.3,853.7681 Q2655.9563,853.9244 2656.5188,854.2213 L2656.5188,856.94 Q2655.8938,856.3619 2655.3,856.0963 Q2654.7063,855.815 2654.0813,855.815 Q2652.7375,855.815 2652.05,856.8931 Q2651.3625,857.9556 2651.3625,860.0494 Q2651.3625,862.1431 2652.05,863.2213 Q2652.7375,864.2838 2654.0813,864.2838 Q2654.7063,864.2838 2655.3,864.0181 Q2655.8938,863.7369 2656.5188,863.1588 L2656.5188,865.8775 Z " fill="#000000"/><text fill="#000000" font-family="sans-serif" font-size="14" lengthAdjust="spacing" textLength="178.8965" x="2667.55" y="865.0836">SpecifiedThreeDGridScan</text><line style="stroke:#181818;stroke-width:0.5;" x1="2639.55" x2="2848.4465" y1="876.2369" y2="876.2369"/><text fill="#000000" font-family="sans-serif" font-size="14" lengthAdjust="spacing" textLength="160.8975" x="2644.55" y="893.232">float grid1_omega_deg</text><text fill="#000000" font-family="sans-serif" font-size="14" lengthAdjust="spacing" textLength="160.8975" x="2644.55" y="909.5289">float grid2_omega_deg</text><text fill="#000000" font-family="sans-serif" font-size="14" lengthAdjust="spacing" textLength="145.127" x="2644.55" y="925.8257">float x_step_size_um</text><text fill="#000000" font-family="sans-serif" font-size="14" lengthAdjust="spacing" textLength="145.127" x="2644.55" y="942.1226">float y_step_size_um</text><text fill="#000000" font-family="sans-serif" font-size="14" lengthAdjust="spacing" textLength="144.1904" x="2644.55" y="958.4195">float z_step_size_um</text><text fill="#000000" font-family="sans-serif" font-size="14" lengthAdjust="spacing" textLength="122.2129" x="2644.55" y="974.7164">float y2_start_um</text><text fill="#000000" font-family="sans-serif" font-size="14" lengthAdjust="spacing" textLength="121.2764" x="2644.55" y="991.0132">float z2_start_um</text><text fill="#000000" font-family="sans-serif" font-size="14" lengthAdjust="spacing" textLength="75.5645" x="2644.55" y="1007.3101">int x_steps</text><text fill="#000000" font-family="sans-serif" font-size="14" lengthAdjust="spacing" textLength="75.5645" x="2644.55" y="1023.607">int y_steps</text><text fill="#000000" font-family="sans-serif" font-size="14" lengthAdjust="spacing" textLength="74.6279" x="2644.55" y="1039.9039">int z_steps</text><text fill="#000000" font-family="sans-serif" font-size="14" lengthAdjust="spacing" textLength="154.4102" x="2644.55" y="1056.2007">bool _set_stub_offsets</text><line style="stroke:#181818;stroke-width:0.5;" x1="2639.55" x2="2848.4465" y1="1063.5025" y2="1063.5025"/></g><!--class GridCommon--><g id="elem_GridCommon"><rect codeLine="82" fill="#F1F1F1" height="129.4844" id="GridCommon" rx="2.5" ry="2.5" style="stroke:#181818;stroke-width:0.5;" width="332.332" x="2638.83" y="654.7469"/><ellipse cx="2754.5282" cy="670.7469" fill="#ADD1B2" rx="11" ry="11" style="stroke:#181818;stroke-width:1;"/><path d="M2757.497,676.3875 Q2756.9189,676.6844 2756.2782,676.825 Q2755.6376,676.9813 2754.9345,676.9813 Q2752.4345,676.9813 2751.1064,675.3406 Q2749.7939,673.6844 2749.7939,670.5594 Q2749.7939,667.4344 2751.1064,665.7781 Q2752.4345,664.1219 2754.9345,664.1219 Q2755.6376,664.1219 2756.2782,664.2781 Q2756.9345,664.4344 2757.497,664.7313 L2757.497,667.45 Q2756.872,666.8719 2756.2782,666.6063 Q2755.6845,666.325 2755.0595,666.325 Q2753.7157,666.325 2753.0282,667.4031 Q2752.3407,668.4656 2752.3407,670.5594 Q2752.3407,672.6531 2753.0282,673.7313 Q2753.7157,674.7938 2755.0595,674.7938 Q2755.6845,674.7938 2756.2782,674.5281 Q2756.872,674.2469 2757.497,673.6688 L2757.497,676.3875 Z " fill="#000000"/><text fill="#000000" font-family="sans-serif" font-size="14" lengthAdjust="spacing" textLength="92.4355" x="2775.0282" y="675.5936">GridCommon</text><line style="stroke:#181818;stroke-width:0.5;" x1="2639.83" x2="2970.162" y1="686.7469" y2="686.7469"/><text fill="#000000" font-family="sans-serif" font-size="14" lengthAdjust="spacing" textLength="138.4209" x="2644.83" y="703.742">float grid_width_um</text><text fill="#000000" font-family="sans-serif" font-size="14" lengthAdjust="spacing" textLength="153.7129" x="2644.83" y="720.0389">float exposure_time_s</text><text fill="#000000" font-family="sans-serif" font-size="14" lengthAdjust="spacing" textLength="320.332" x="2644.83" y="736.3357">IspybExperimentType ispyb_experiment_type</text><text fill="#000000" font-family="sans-serif" font-size="14" lengthAdjust="spacing" textLength="282.3516" x="2644.83" y="752.6326">ApertureValue | None selected_aperture</text><text fill="#000000" font-family="sans-serif" font-size="14" lengthAdjust="spacing" textLength="130.498" x="2644.83" y="768.9295">float tip_offset_um</text><line style="stroke:#181818;stroke-width:0.5;" x1="2639.83" x2="2970.162" y1="776.2313" y2="776.2313"/></g><!--class DiffractionExperimentWithSample--><g id="elem_DiffractionExperimentWithSample"><rect codeLine="89" fill="#F1F1F1" height="48" id="DiffractionExperimentWithSample" rx="2.5" ry="2.5" style="stroke:#181818;stroke-width:0.5;" width="270.8545" x="2669.57" y="546.7469"/><ellipse cx="2684.57" cy="562.7469" fill="#ADD1B2" rx="11" ry="11" style="stroke:#181818;stroke-width:1;"/><path d="M2687.5388,568.3875 Q2686.9606,568.6844 2686.32,568.825 Q2685.6794,568.9813 2684.9763,568.9813 Q2682.4763,568.9813 2681.1481,567.3406 Q2679.8356,565.6844 2679.8356,562.5594 Q2679.8356,559.4344 2681.1481,557.7781 Q2682.4763,556.1219 2684.9763,556.1219 Q2685.6794,556.1219 2686.32,556.2781 Q2686.9763,556.4344 2687.5388,556.7313 L2687.5388,559.45 Q2686.9138,558.8719 2686.32,558.6063 Q2685.7263,558.325 2685.1013,558.325 Q2683.7575,558.325 2683.07,559.4031 Q2682.3825,560.4656 2682.3825,562.5594 Q2682.3825,564.6531 2683.07,565.7313 Q2683.7575,566.7938 2685.1013,566.7938 Q2685.7263,566.7938 2686.32,566.5281 Q2686.9138,566.2469 2687.5388,565.6688 L2687.5388,568.3875 Z " fill="#000000"/><text fill="#000000" font-family="sans-serif" font-size="14" lengthAdjust="spacing" textLength="238.8545" x="2698.57" y="567.5936">DiffractionExperimentWithSample</text><line style="stroke:#181818;stroke-width:0.5;" x1="2670.57" x2="2939.4245" y1="578.7469" y2="578.7469"/><line style="stroke:#181818;stroke-width:0.5;" x1="2670.57" x2="2939.4245" y1="586.7469" y2="586.7469"/></g><!--class MxBlueskyParameters--><g id="elem_MxBlueskyParameters"><rect codeLine="91" fill="#F1F1F1" height="64.2969" id="MxBlueskyParameters" rx="2.5" ry="2.5" style="stroke:#181818;stroke-width:0.5;" width="317.4639" x="2651.27" y="118.8869"/><ellipse cx="2727.8564" cy="134.8869" fill="#ADD1B2" rx="11" ry="11" style="stroke:#181818;stroke-width:1;"/><path d="M2730.8252,140.5275 Q2730.2471,140.8244 2729.6064,140.965 Q2728.9658,141.1212 2728.2627,141.1212 Q2725.7627,141.1212 2724.4346,139.4806 Q2723.1221,137.8244 2723.1221,134.6994 Q2723.1221,131.5744 2724.4346,129.9181 Q2725.7627,128.2619 2728.2627,128.2619 Q2728.9658,128.2619 2729.6064,128.4181 Q2730.2627,128.5744 2730.8252,128.8712 L2730.8252,131.59 Q2730.2002,131.0119 2729.6064,130.7462 Q2729.0127,130.465 2728.3877,130.465 Q2727.0439,130.465 2726.3564,131.5431 Q2725.6689,132.6056 2725.6689,134.6994 Q2725.6689,136.7931 2726.3564,137.8712 Q2727.0439,138.9337 2728.3877,138.9337 Q2729.0127,138.9337 2729.6064,138.6681 Q2730.2002,138.3869 2730.8252,137.8087 L2730.8252,140.5275 Z " fill="#000000"/><text fill="#000000" font-family="sans-serif" font-size="14" lengthAdjust="spacing" textLength="155.791" x="2748.3564" y="139.7336">MxBlueskyParameters</text><line style="stroke:#181818;stroke-width:0.5;" x1="2652.27" x2="2967.7339" y1="150.8869" y2="150.8869"/><text fill="#000000" font-family="sans-serif" font-size="14" lengthAdjust="spacing" textLength="305.4639" x="2657.27" y="167.882">SemanticVersion parameter_model_version</text><line style="stroke:#181818;stroke-width:0.5;" x1="2652.27" x2="2967.7339" y1="175.1837" y2="175.1837"/></g><!--class GridCommonWithHyperionDetectorParams--><g id="elem_GridCommonWithHyperionDetectorParams"><rect codeLine="97" fill="#F1F1F1" height="48" id="GridCommonWithHyperionDetectorParams" rx="2.5" ry="2.5" style="stroke:#181818;stroke-width:0.5;" width="333.2188" x="3072.39" y="933.8669"/><ellipse cx="3087.39" cy="949.8669" fill="#ADD1B2" rx="11" ry="11" style="stroke:#181818;stroke-width:1;"/><path d="M3090.3588,955.5075 Q3089.7806,955.8044 3089.14,955.945 Q3088.4994,956.1012 3087.7963,956.1012 Q3085.2963,956.1012 3083.9681,954.4606 Q3082.6556,952.8044 3082.6556,949.6794 Q3082.6556,946.5544 3083.9681,944.8981 Q3085.2963,943.2419 3087.7963,943.2419 Q3088.4994,943.2419 3089.14,943.3981 Q3089.7963,943.5544 3090.3588,943.8512 L3090.3588,946.57 Q3089.7338,945.9919 3089.14,945.7262 Q3088.5463,945.445 3087.9213,945.445 Q3086.5775,945.445 3085.89,946.5231 Q3085.2025,947.5856 3085.2025,949.6794 Q3085.2025,951.7731 3085.89,952.8512 Q3086.5775,953.9137 3087.9213,953.9137 Q3088.5463,953.9137 3089.14,953.6481 Q3089.7338,953.3669 3090.3588,952.7887 L3090.3588,955.5075 Z " fill="#000000"/><text fill="#000000" font-family="sans-serif" font-size="14" lengthAdjust="spacing" textLength="301.2188" x="3101.39" y="954.7136">GridCommonWithHyperionDetectorParams</text><line style="stroke:#181818;stroke-width:0.5;" x1="3073.39" x2="3404.6088" y1="965.8669" y2="965.8669"/><line style="stroke:#181818;stroke-width:0.5;" x1="3073.39" x2="3404.6088" y1="973.8669" y2="973.8669"/></g><!--class MultiRotationScan--><g id="elem_MultiRotationScan"><rect codeLine="99" fill="#F1F1F1" height="64.2969" id="MultiRotationScan" rx="2.5" ry="2.5" style="stroke:#181818;stroke-width:0.5;" width="540.001" x="3798" y="1131.4969"/><ellipse cx="4000.0327" cy="1147.4969" fill="#ADD1B2" rx="11" ry="11" style="stroke:#181818;stroke-width:1;"/><path d="M4003.0015,1153.1375 Q4002.4233,1153.4344 4001.7827,1153.575 Q4001.1421,1153.7313 4000.439,1153.7313 Q3997.939,1153.7313 3996.6108,1152.0906 Q3995.2983,1150.4344 3995.2983,1147.3094 Q3995.2983,1144.1844 3996.6108,1142.5281 Q3997.939,1140.8719 4000.439,1140.8719 Q4001.1421,1140.8719 4001.7827,1141.0281 Q4002.439,1141.1844 4003.0015,1141.4813 L4003.0015,1144.2 Q4002.3765,1143.6219 4001.7827,1143.3563 Q4001.189,1143.075 4000.564,1143.075 Q3999.2202,1143.075 3998.5327,1144.1531 Q3997.8452,1145.2156 3997.8452,1147.3094 Q3997.8452,1149.4031 3998.5327,1150.4813 Q3999.2202,1151.5438 4000.564,1151.5438 Q4001.189,1151.5438 4001.7827,1151.2781 Q4002.3765,1150.9969 4003.0015,1150.4188 L4003.0015,1153.1375 Z " fill="#000000"/><text fill="#000000" font-family="sans-serif" font-size="14" lengthAdjust="spacing" textLength="127.4355" x="4020.5327" y="1152.3436">MultiRotationScan</text><line style="stroke:#181818;stroke-width:0.5;" x1="3799" x2="4337.001" y1="1163.4969" y2="1163.4969"/><line style="stroke:#181818;stroke-width:0.5;" x1="3799" x2="4337.001" y1="1171.4969" y2="1171.4969"/><text fill="#000000" font-family="sans-serif" font-size="14" lengthAdjust="spacing" textLength="528.001" x="3804" y="1188.492">Annotated[list[RotationScanPerSweep], Len(min_length=1)] rotation_scans</text></g><!--class WithHyperionUDCFeatures--><g id="elem_WithHyperionUDCFeatures"><rect codeLine="102" fill="#F1F1F1" height="64.2969" id="WithHyperionUDCFeatures" rx="2.5" ry="2.5" style="stroke:#181818;stroke-width:0.5;" width="228.6719" x="3345.66" y="687.3469"/><ellipse cx="3364.7583" cy="703.3469" fill="#ADD1B2" rx="11" ry="11" style="stroke:#181818;stroke-width:1;"/><path d="M3367.7271,708.9875 Q3367.149,709.2844 3366.5083,709.425 Q3365.8677,709.5813 3365.1646,709.5813 Q3362.6646,709.5813 3361.3365,707.9406 Q3360.024,706.2844 3360.024,703.1594 Q3360.024,700.0344 3361.3365,698.3781 Q3362.6646,696.7219 3365.1646,696.7219 Q3365.8677,696.7219 3366.5083,696.8781 Q3367.1646,697.0344 3367.7271,697.3313 L3367.7271,700.05 Q3367.1021,699.4719 3366.5083,699.2063 Q3365.9146,698.925 3365.2896,698.925 Q3363.9458,698.925 3363.2583,700.0031 Q3362.5708,701.0656 3362.5708,703.1594 Q3362.5708,705.2531 3363.2583,706.3313 Q3363.9458,707.3938 3365.2896,707.3938 Q3365.9146,707.3938 3366.5083,707.1281 Q3367.1021,706.8469 3367.7271,706.2688 L3367.7271,708.9875 Z " fill="#000000"/><text fill="#000000" font-family="sans-serif" font-size="14" lengthAdjust="spacing" textLength="187.5645" x="3379.6691" y="708.1936">WithHyperionUDCFeatures</text><line style="stroke:#181818;stroke-width:0.5;" x1="3346.66" x2="3573.3319" y1="719.3469" y2="719.3469"/><text fill="#000000" font-family="sans-serif" font-size="14" lengthAdjust="spacing" textLength="216.6719" x="3351.66" y="736.342">HyperionFeatureFlags features</text><line style="stroke:#181818;stroke-width:0.5;" x1="3346.66" x2="3573.3319" y1="743.6438" y2="743.6438"/></g><!--class RobotLoadThenCentre--><g id="elem_RobotLoadThenCentre"><rect codeLine="105" fill="#F1F1F1" height="64.2969" id="RobotLoadThenCentre" rx="2.5" ry="2.5" style="stroke:#181818;stroke-width:0.5;" width="212.9355" x="3034.53" y="1131.4969"/><ellipse cx="3060.2575" cy="1147.4969" fill="#ADD1B2" rx="11" ry="11" style="stroke:#181818;stroke-width:1;"/><path d="M3063.2262,1153.1375 Q3062.6481,1153.4344 3062.0075,1153.575 Q3061.3669,1153.7313 3060.6637,1153.7313 Q3058.1637,1153.7313 3056.8356,1152.0906 Q3055.5231,1150.4344 3055.5231,1147.3094 Q3055.5231,1144.1844 3056.8356,1142.5281 Q3058.1637,1140.8719 3060.6637,1140.8719 Q3061.3669,1140.8719 3062.0075,1141.0281 Q3062.6637,1141.1844 3063.2262,1141.4813 L3063.2262,1144.2 Q3062.6012,1143.6219 3062.0075,1143.3563 Q3061.4137,1143.075 3060.7887,1143.075 Q3059.445,1143.075 3058.7575,1144.1531 Q3058.07,1145.2156 3058.07,1147.3094 Q3058.07,1149.4031 3058.7575,1150.4813 Q3059.445,1151.5438 3060.7887,1151.5438 Q3061.4137,1151.5438 3062.0075,1151.2781 Q3062.6012,1150.9969 3063.2262,1150.4188 L3063.2262,1153.1375 Z " fill="#000000"/><text fill="#000000" font-family="sans-serif" font-size="14" lengthAdjust="spacing" textLength="157.0967" x="3076.6414" y="1152.3436">RobotLoadThenCentre</text><line style="stroke:#181818;stroke-width:0.5;" x1="3035.53" x2="3246.4655" y1="1163.4969" y2="1163.4969"/><text fill="#000000" font-family="sans-serif" font-size="14" lengthAdjust="spacing" textLength="200.9355" x="3040.53" y="1180.492">&lt;class 'float'&gt; thawing_time</text><line style="stroke:#181818;stroke-width:0.5;" x1="3035.53" x2="3246.4655" y1="1187.7938" y2="1187.7938"/></g><!--class RotationScan--><g id="elem_RotationScan"><rect codeLine="108" fill="#F1F1F1" height="48" id="RotationScan" rx="2.5" ry="2.5" style="stroke:#181818;stroke-width:0.5;" width="125.2148" x="4373.39" y="1139.6469"/><ellipse cx="4388.39" cy="1155.6469" fill="#ADD1B2" rx="11" ry="11" style="stroke:#181818;stroke-width:1;"/><path d="M4391.3588,1161.2875 Q4390.7806,1161.5844 4390.14,1161.725 Q4389.4994,1161.8813 4388.7963,1161.8813 Q4386.2963,1161.8813 4384.9681,1160.2406 Q4383.6556,1158.5844 4383.6556,1155.4594 Q4383.6556,1152.3344 4384.9681,1150.6781 Q4386.2963,1149.0219 4388.7963,1149.0219 Q4389.4994,1149.0219 4390.14,1149.1781 Q4390.7963,1149.3344 4391.3588,1149.6313 L4391.3588,1152.35 Q4390.7338,1151.7719 4390.14,1151.5063 Q4389.5463,1151.225 4388.9213,1151.225 Q4387.5775,1151.225 4386.89,1152.3031 Q4386.2025,1153.3656 4386.2025,1155.4594 Q4386.2025,1157.5531 4386.89,1158.6313 Q4387.5775,1159.6938 4388.9213,1159.6938 Q4389.5463,1159.6938 4390.14,1159.4281 Q4390.7338,1159.1469 4391.3588,1158.5688 L4391.3588,1161.2875 Z " fill="#000000"/><text fill="#000000" font-family="sans-serif" font-size="14" lengthAdjust="spacing" textLength="93.2148" x="4402.39" y="1160.4936">RotationScan</text><line style="stroke:#181818;stroke-width:0.5;" x1="4374.39" x2="4497.6048" y1="1171.6469" y2="1171.6469"/><line style="stroke:#181818;stroke-width:0.5;" x1="4374.39" x2="4497.6048" y1="1179.6469" y2="1179.6469"/></g><!--class HyperionSpecifiedThreeDGridScan--><g id="elem_HyperionSpecifiedThreeDGridScan"><rect codeLine="110" fill="#F1F1F1" height="48" id="HyperionSpecifiedThreeDGridScan" rx="2.5" ry="2.5" style="stroke:#181818;stroke-width:0.5;" width="274.293" x="3881.85" y="933.8669"/><ellipse cx="3896.85" cy="949.8669" fill="#ADD1B2" rx="11" ry="11" style="stroke:#181818;stroke-width:1;"/><path d="M3899.8188,955.5075 Q3899.2406,955.8044 3898.6,955.945 Q3897.9594,956.1012 3897.2563,956.1012 Q3894.7563,956.1012 3893.4281,954.4606 Q3892.1156,952.8044 3892.1156,949.6794 Q3892.1156,946.5544 3893.4281,944.8981 Q3894.7563,943.2419 3897.2563,943.2419 Q3897.9594,943.2419 3898.6,943.3981 Q3899.2563,943.5544 3899.8188,943.8512 L3899.8188,946.57 Q3899.1938,945.9919 3898.6,945.7262 Q3898.0063,945.445 3897.3813,945.445 Q3896.0375,945.445 3895.35,946.5231 Q3894.6625,947.5856 3894.6625,949.6794 Q3894.6625,951.7731 3895.35,952.8512 Q3896.0375,953.9137 3897.3813,953.9137 Q3898.0063,953.9137 3898.6,953.6481 Q3899.1938,953.3669 3899.8188,952.7887 L3899.8188,955.5075 Z " fill="#000000"/><text fill="#000000" font-family="sans-serif" font-size="14" lengthAdjust="spacing" textLength="242.293" x="3910.85" y="954.7136">HyperionSpecifiedThreeDGridScan</text><line style="stroke:#181818;stroke-width:0.5;" x1="3882.85" x2="4155.143" y1="965.8669" y2="965.8669"/><line style="stroke:#181818;stroke-width:0.5;" x1="3882.85" x2="4155.143" y1="973.8669" y2="973.8669"/></g><!--class RotationExperiment--><g id="elem_RotationExperiment"><rect codeLine="112" fill="#F1F1F1" height="96.8906" id="RotationExperiment" rx="2.5" ry="2.5" style="stroke:#181818;stroke-width:0.5;" width="332.332" x="3514.83" y="909.4269"/><ellipse cx="3606.7118" cy="925.4269" fill="#ADD1B2" rx="11" ry="11" style="stroke:#181818;stroke-width:1;"/><path d="M3609.6806,931.0675 Q3609.1025,931.3644 3608.4618,931.505 Q3607.8212,931.6613 3607.1181,931.6613 Q3604.6181,931.6613 3603.29,930.0206 Q3601.9775,928.3644 3601.9775,925.2394 Q3601.9775,922.1144 3603.29,920.4581 Q3604.6181,918.8019 3607.1181,918.8019 Q3607.8212,918.8019 3608.4618,918.9581 Q3609.1181,919.1144 3609.6806,919.4113 L3609.6806,922.13 Q3609.0556,921.5519 3608.4618,921.2863 Q3607.8681,921.005 3607.2431,921.005 Q3605.8993,921.005 3605.2118,922.0831 Q3604.5243,923.1456 3604.5243,925.2394 Q3604.5243,927.3331 3605.2118,928.4113 Q3605.8993,929.4738 3607.2431,929.4738 Q3607.8681,929.4738 3608.4618,929.2081 Q3609.0556,928.9269 3609.6806,928.3488 L3609.6806,931.0675 Z " fill="#000000"/><text fill="#000000" font-family="sans-serif" font-size="14" lengthAdjust="spacing" textLength="140.0684" x="3627.2118" y="930.2736">RotationExperiment</text><line style="stroke:#181818;stroke-width:0.5;" x1="3515.83" x2="3846.162" y1="941.4269" y2="941.4269"/><text fill="#000000" font-family="sans-serif" font-size="14" lengthAdjust="spacing" textLength="202.8018" x="3520.83" y="958.422">float shutter_opening_time_s</text><text fill="#000000" font-family="sans-serif" font-size="14" lengthAdjust="spacing" textLength="202.9385" x="3520.83" y="974.7189">float rotation_increment_deg</text><text fill="#000000" font-family="sans-serif" font-size="14" lengthAdjust="spacing" textLength="320.332" x="3520.83" y="991.0157">IspybExperimentType ispyb_experiment_type</text><line style="stroke:#181818;stroke-width:0.5;" x1="3515.83" x2="3846.162" y1="998.3175" y2="998.3175"/></g><!--class RotationScanPerSweep--><g id="elem_RotationScanPerSweep"><rect codeLine="117" fill="#F1F1F1" height="129.4844" id="RotationScanPerSweep" rx="2.5" ry="2.5" style="stroke:#181818;stroke-width:0.5;" width="263.0498" x="4191.48" y="893.1269"/><ellipse cx="4237.5166" cy="909.1269" fill="#ADD1B2" rx="11" ry="11" style="stroke:#181818;stroke-width:1;"/><path d="M4240.4854,914.7675 Q4239.9072,915.0644 4239.2666,915.205 Q4238.626,915.3612 4237.9229,915.3612 Q4235.4229,915.3612 4234.0947,913.7206 Q4232.7822,912.0644 4232.7822,908.9394 Q4232.7822,905.8144 4234.0947,904.1581 Q4235.4229,902.5019 4237.9229,902.5019 Q4238.626,902.5019 4239.2666,902.6581 Q4239.9229,902.8144 4240.4854,903.1112 L4240.4854,905.83 Q4239.8604,905.2519 4239.2666,904.9862 Q4238.6729,904.705 4238.0479,904.705 Q4236.7041,904.705 4236.0166,905.7831 Q4235.3291,906.8456 4235.3291,908.9394 Q4235.3291,911.0331 4236.0166,912.1112 Q4236.7041,913.1737 4238.0479,913.1737 Q4238.6729,913.1737 4239.2666,912.9081 Q4239.8604,912.6269 4240.4854,912.0487 L4240.4854,914.7675 Z " fill="#000000"/><text fill="#000000" font-family="sans-serif" font-size="14" lengthAdjust="spacing" textLength="162.4766" x="4258.0166" y="913.9736">RotationScanPerSweep</text><line style="stroke:#181818;stroke-width:0.5;" x1="4192.48" x2="4453.5298" y1="925.1269" y2="925.1269"/><text fill="#000000" font-family="sans-serif" font-size="14" lengthAdjust="spacing" textLength="157.1787" x="4197.48" y="942.122">float omega_start_deg</text><text fill="#000000" font-family="sans-serif" font-size="14" lengthAdjust="spacing" textLength="182.9297" x="4197.48" y="958.4189">RotationAxis rotation_axis</text><text fill="#000000" font-family="sans-serif" font-size="14" lengthAdjust="spacing" textLength="147.3213" x="4197.48" y="974.7157">float scan_width_deg</text><text fill="#000000" font-family="sans-serif" font-size="14" lengthAdjust="spacing" textLength="251.0498" x="4197.48" y="991.0126">RotationDirection rotation_direction</text><text fill="#000000" font-family="sans-serif" font-size="14" lengthAdjust="spacing" textLength="169.1279" x="4197.48" y="1007.3095">int nexus_vds_start_img</text><line style="stroke:#181818;stroke-width:0.5;" x1="4192.48" x2="4453.5298" y1="1014.6112" y2="1014.6112"/></g><!--class GridScanWithEdgeDetect--><g id="elem_GridScanWithEdgeDetect"><rect codeLine="124" fill="#F1F1F1" height="64.2969" id="GridScanWithEdgeDetect" rx="2.5" ry="2.5" style="stroke:#181818;stroke-width:0.5;" width="209.4268" x="3282.29" y="1131.4969"/><ellipse cx="3297.29" cy="1147.4969" fill="#ADD1B2" rx="11" ry="11" style="stroke:#181818;stroke-width:1;"/><path d="M3300.2588,1153.1375 Q3299.6806,1153.4344 3299.04,1153.575 Q3298.3994,1153.7313 3297.6963,1153.7313 Q3295.1963,1153.7313 3293.8681,1152.0906 Q3292.5556,1150.4344 3292.5556,1147.3094 Q3292.5556,1144.1844 3293.8681,1142.5281 Q3295.1963,1140.8719 3297.6963,1140.8719 Q3298.3994,1140.8719 3299.04,1141.0281 Q3299.6963,1141.1844 3300.2588,1141.4813 L3300.2588,1144.2 Q3299.6338,1143.6219 3299.04,1143.3563 Q3298.4463,1143.075 3297.8213,1143.075 Q3296.4775,1143.075 3295.79,1144.1531 Q3295.1025,1145.2156 3295.1025,1147.3094 Q3295.1025,1149.4031 3295.79,1150.4813 Q3296.4775,1151.5438 3297.8213,1151.5438 Q3298.4463,1151.5438 3299.04,1151.2781 Q3299.6338,1150.9969 3300.2588,1150.4188 L3300.2588,1153.1375 Z " fill="#000000"/><text fill="#000000" font-family="sans-serif" font-size="14" lengthAdjust="spacing" textLength="177.4268" x="3311.29" y="1152.3436">GridScanWithEdgeDetect</text><line style="stroke:#181818;stroke-width:0.5;" x1="3283.29" x2="3490.7168" y1="1163.4969" y2="1163.4969"/><text fill="#000000" font-family="sans-serif" font-size="14" lengthAdjust="spacing" textLength="125.2959" x="3288.29" y="1180.492">float box_size_um</text><line style="stroke:#181818;stroke-width:0.5;" x1="3283.29" x2="3490.7168" y1="1187.7938" y2="1187.7938"/></g><!--class PinTipCentreThenXrayCentre--><g id="elem_PinTipCentreThenXrayCentre"><rect codeLine="127" fill="#F1F1F1" height="64.2969" id="PinTipCentreThenXrayCentre" rx="2.5" ry="2.5" style="stroke:#181818;stroke-width:0.5;" width="235.8955" x="3527.05" y="1131.4969"/><ellipse cx="3542.05" cy="1147.4969" fill="#ADD1B2" rx="11" ry="11" style="stroke:#181818;stroke-width:1;"/><path d="M3545.0188,1153.1375 Q3544.4406,1153.4344 3543.8,1153.575 Q3543.1594,1153.7313 3542.4563,1153.7313 Q3539.9563,1153.7313 3538.6281,1152.0906 Q3537.3156,1150.4344 3537.3156,1147.3094 Q3537.3156,1144.1844 3538.6281,1142.5281 Q3539.9563,1140.8719 3542.4563,1140.8719 Q3543.1594,1140.8719 3543.8,1141.0281 Q3544.4563,1141.1844 3545.0188,1141.4813 L3545.0188,1144.2 Q3544.3938,1143.6219 3543.8,1143.3563 Q3543.2063,1143.075 3542.5813,1143.075 Q3541.2375,1143.075 3540.55,1144.1531 Q3539.8625,1145.2156 3539.8625,1147.3094 Q3539.8625,1149.4031 3540.55,1150.4813 Q3541.2375,1151.5438 3542.5813,1151.5438 Q3543.2063,1151.5438 3543.8,1151.2781 Q3544.3938,1150.9969 3545.0188,1150.4188 L3545.0188,1153.1375 Z " fill="#000000"/><text fill="#000000" font-family="sans-serif" font-size="14" lengthAdjust="spacing" textLength="203.8955" x="3556.05" y="1152.3436">PinTipCentreThenXrayCentre</text><line style="stroke:#181818;stroke-width:0.5;" x1="3528.05" x2="3761.9455" y1="1163.4969" y2="1163.4969"/><text fill="#000000" font-family="sans-serif" font-size="14" lengthAdjust="spacing" textLength="130.498" x="3533.05" y="1180.492">float tip_offset_um</text><line style="stroke:#181818;stroke-width:0.5;" x1="3528.05" x2="3761.9455" y1="1187.7938" y2="1187.7938"/></g><!--class LoadCentreCollect--><g id="elem_LoadCentreCollect"><rect codeLine="130" fill="#F1F1F1" height="80.5938" id="LoadCentreCollect" rx="2.5" ry="2.5" style="stroke:#181818;stroke-width:0.5;" width="338.6211" x="4489.69" y="917.5669"/><ellipse cx="4590.315" cy="933.5669" fill="#ADD1B2" rx="11" ry="11" style="stroke:#181818;stroke-width:1;"/><path d="M4593.2838,939.2075 Q4592.7056,939.5044 4592.065,939.645 Q4591.4244,939.8013 4590.7213,939.8013 Q4588.2213,939.8013 4586.8931,938.1606 Q4585.5806,936.5044 4585.5806,933.3794 Q4585.5806,930.2544 4586.8931,928.5981 Q4588.2213,926.9419 4590.7213,926.9419 Q4591.4244,926.9419 4592.065,927.0981 Q4592.7213,927.2544 4593.2838,927.5513 L4593.2838,930.27 Q4592.6588,929.6919 4592.065,929.4263 Q4591.4713,929.145 4590.8463,929.145 Q4589.5025,929.145 4588.815,930.2231 Q4588.1275,931.2856 4588.1275,933.3794 Q4588.1275,935.4731 4588.815,936.5513 Q4589.5025,937.6138 4590.8463,937.6138 Q4591.4713,937.6138 4592.065,937.3481 Q4592.6588,937.0669 4593.2838,936.4888 L4593.2838,939.2075 Z " fill="#000000"/><text fill="#000000" font-family="sans-serif" font-size="14" lengthAdjust="spacing" textLength="128.8711" x="4610.815" y="938.4136">LoadCentreCollect</text><line style="stroke:#181818;stroke-width:0.5;" x1="4490.69" x2="4827.3111" y1="949.5669" y2="949.5669"/><text fill="#000000" font-family="sans-serif" font-size="14" lengthAdjust="spacing" textLength="326.6211" x="4495.69" y="966.562">RobotLoadThenCentre robot_load_then_centre</text><text fill="#000000" font-family="sans-serif" font-size="14" lengthAdjust="spacing" textLength="269.3154" x="4495.69" y="982.8589">MultiRotationScan multi_rotation_scan</text><line style="stroke:#181818;stroke-width:0.5;" x1="4490.69" x2="4827.3111" y1="990.1606" y2="990.1606"/></g><!--reverse link GridCommon to GridCommonWithHyperionDetectorParams--><g id="link_GridCommon_GridCommonWithHyperionDetectorParams"><path codeLine="135" d="M2938.5383,793.225 C3029.0383,842.505 3133.08,899.1769 3196.08,933.4969 " fill="#FFFFFF" fill-opacity="0.00000" id="GridCommon-backto-GridCommonWithHyperionDetectorParams" style="stroke:#181818;stroke-width:1;"/><polygon fill="#FFFFFF" fill-opacity="0.00000" points="2922.73,784.6169,2935.6689,798.4944,2941.4076,787.9555,2922.73,784.6169" style="stroke:#181818;stroke-width:1;"/></g><!--reverse link WithHyperionUDCFeatures to GridCommonWithHyperionDetectorParams--><g id="link_WithHyperionUDCFeatures_GridCommonWithHyperionDetectorParams"><path codeLine="136" d="M3418.3571,765.0254 C3373.3871,813.1254 3300.75,890.8269 3260.8,933.5469 " fill="#FFFFFF" fill-opacity="0.00000" id="WithHyperionUDCFeatures-backto-GridCommonWithHyperionDetectorParams" style="stroke:#181818;stroke-width:1;"/><polygon fill="#FFFFFF" fill-opacity="0.00000" points="3430.65,751.8769,3413.9742,760.9278,3422.7399,769.1231,3430.65,751.8769" style="stroke:#181818;stroke-width:1;"/></g><!--reverse link RotationExperiment to MultiRotationScan--><g id="link_RotationExperiment_MultiRotationScan"><path codeLine="137" d="M3743.8841,1018.814 C3778.7541,1050.224 3814.5,1078.0069 3864,1103.4969 C3885.06,1114.3469 3908.4,1123.4769 3931.55,1131.0669 " fill="#FFFFFF" fill-opacity="0.00000" id="RotationExperiment-backto-MultiRotationScan" style="stroke:#181818;stroke-width:1;"/><polygon fill="#FFFFFF" fill-opacity="0.00000" points="3730.51,1006.7669,3739.8684,1023.272,3747.8998,1014.3559,3730.51,1006.7669" style="stroke:#181818;stroke-width:1;"/></g><!--reverse link SplitScan to MultiRotationScan--><g id="link_SplitScan_MultiRotationScan"><path codeLine="138" d="M1391.1655,189.294 C1403.0755,203.814 1409.04,207.3669 1429,215.7769 C1633.34,301.9469 3203.69,250.4269 3424,275.7769 C3752.14,313.5469 4881,239.4469 4881,569.7469 C4881,569.7469 4881,569.7469 4881,720.4969 C4881,891.4269 4968.91,984.7069 4846,1103.4969 C4806.79,1141.3969 4410.35,1127.0069 4356,1131.4969 C4350.11,1131.9869 4344.16,1132.4969 4338.15,1133.0169 " fill="#FFFFFF" fill-opacity="0.00000" id="SplitScan-backto-MultiRotationScan" style="stroke:#181818;stroke-width:1;"/><polygon fill="#FFFFFF" fill-opacity="0.00000" points="1379.75,175.3769,1386.5265,193.0992,1395.8045,185.4888,1379.75,175.3769" style="stroke:#181818;stroke-width:1;"/></g><!--reverse link WithPandaGridScan to WithHyperionUDCFeatures--><g id="link_WithPandaGridScan_WithHyperionUDCFeatures"><path codeLine="139" d="M975.9424,191.7205 C1000.5424,204.2005 1014.36,209.0169 1043,215.7769 C1253.32,265.4269 2787.26,193.3069 2987,275.7769 C3203.24,365.0669 3380.34,601.5269 3439.16,687.0569 " fill="#FFFFFF" fill-opacity="0.00000" id="WithPandaGridScan-backto-WithHyperionUDCFeatures" style="stroke:#181818;stroke-width:1;"/><polygon fill="#FFFFFF" fill-opacity="0.00000" points="959.89,183.5769,973.2279,197.0714,978.657,186.3697,959.89,183.5769" style="stroke:#181818;stroke-width:1;"/></g><!--reverse link DiffractionExperiment to DiffractionExperimentWithSample--><g id="link_DiffractionExperiment_DiffractionExperimentWithSample"><path codeLine="140" d="M2805,505.2469 C2805,527.4969 2805,530.8969 2805,546.3269 " fill="#FFFFFF" fill-opacity="0.00000" id="DiffractionExperiment-backto-DiffractionExperimentWithSample" style="stroke:#181818;stroke-width:1;"/><polygon fill="#FFFFFF" fill-opacity="0.00000" points="2805,487.2469,2799,505.2469,2811,505.2469,2805,487.2469" style="stroke:#181818;stroke-width:1;"/></g><!--reverse link WithSample to DiffractionExperimentWithSample--><g id="link_WithSample_DiffractionExperimentWithSample"><path codeLine="141" d="M1620.2068,208.4309 C1631.7068,214.6609 1627.98,211.7069 1640,215.7769 C1874.99,295.3869 1956.82,206.3169 2195,275.7769 C2397.83,334.9369 2430.01,396.4169 2621,486.7469 C2664.72,507.4269 2714.77,529.9269 2751.62,546.2869 " fill="#FFFFFF" fill-opacity="0.00000" id="WithSample-backto-DiffractionExperimentWithSample" style="stroke:#181818;stroke-width:1;"/><polygon fill="#FFFFFF" fill-opacity="0.00000" points="1604.38,199.8569,1617.3488,213.7065,1623.0648,203.1553,1604.38,199.8569" style="stroke:#181818;stroke-width:1;"/></g><!--reverse link GridCommonWithHyperionDetectorParams to RobotLoadThenCentre--><g id="link_GridCommonWithHyperionDetectorParams_RobotLoadThenCentre"><path codeLine="142" d="M3219.9569,998.4676 C3202.3069,1035.1576 3175.89,1090.1069 3156.11,1131.2369 " fill="#FFFFFF" fill-opacity="0.00000" id="GridCommonWithHyperionDetectorParams-backto-RobotLoadThenCentre" style="stroke:#181818;stroke-width:1;"/><polygon fill="#FFFFFF" fill-opacity="0.00000" points="3227.76,982.2469,3214.55,995.8666,3225.3638,1001.0686,3227.76,982.2469" style="stroke:#181818;stroke-width:1;"/></g><!--reverse link WithHyperionUDCFeatures to RobotLoadThenCentre--><g id="link_WithHyperionUDCFeatures_RobotLoadThenCentre"><path codeLine="143" d="M3327.6897,743.376 C3220.6097,764.156 3089.85,797.1369 3055,844.2369 C2986.45,936.8569 3001.36,1001.5169 3055,1103.4969 C3060.65,1114.2469 3069.24,1123.4169 3078.83,1131.1069 " fill="#FFFFFF" fill-opacity="0.00000" id="WithHyperionUDCFeatures-backto-RobotLoadThenCentre" style="stroke:#181818;stroke-width:1;"/><polygon fill="#FFFFFF" fill-opacity="0.00000" points="3345.36,739.9469,3326.5466,737.4859,3328.8327,749.2661,3345.36,739.9469" style="stroke:#181818;stroke-width:1;"/></g><!--reverse link DiffractionExperimentWithSample to GridCommon--><g id="link_DiffractionExperimentWithSample_GridCommon"><path codeLine="144" d="M2805,612.9969 C2805,629.0869 2805,633.3169 2805,654.4969 " fill="#FFFFFF" fill-opacity="0.00000" id="DiffractionExperimentWithSample-backto-GridCommon" style="stroke:#181818;stroke-width:1;"/><polygon fill="#FFFFFF" fill-opacity="0.00000" points="2805,594.9969,2799,612.9969,2811,612.9969,2805,594.9969" style="stroke:#181818;stroke-width:1;"/></g><!--reverse link OptionalGonioAngleStarts to GridCommon--><g id="link_OptionalGonioAngleStarts_GridCommon"><path codeLine="145" d="M1291.6654,214.6283 C1299.0354,217.5083 1289.68,213.5669 1297,215.7769 C1507.02,279.2569 1577.5,210.6169 1787,275.7769 C1980.42,335.9369 2006.13,403.9569 2191,486.7469 C2339.7,553.3469 2513.86,617.8469 2638.63,661.8269 " fill="#FFFFFF" fill-opacity="0.00000" id="OptionalGonioAngleStarts-backto-GridCommon" style="stroke:#181818;stroke-width:1;"/><polygon fill="#FFFFFF" fill-opacity="0.00000" points="1274.9,208.0769,1289.4816,220.2168,1293.8492,209.0399,1274.9,208.0769" style="stroke:#181818;stroke-width:1;"/></g><!--reverse link WithScan to RotationScan--><g id="link_WithScan_RotationScan"><path codeLine="146" d="M1735.5896,189.248 C1747.6996,203.788 1753.83,207.4269 1774,215.7769 C2019.2,317.3769 3901.22,226.3869 4162,275.7769 C4530.09,345.5069 4952,195.1169 4952,569.7469 C4952,569.7469 4952,569.7469 4952,720.4969 C4952,892.0469 5025.25,982.1269 4904,1103.4969 C4875.82,1131.7069 4619.67,1151.2269 4498.71,1158.9569 " fill="#FFFFFF" fill-opacity="0.00000" id="WithScan-backto-RotationScan" style="stroke:#181818;stroke-width:1;"/><polygon fill="#FFFFFF" fill-opacity="0.00000" points="1724.07,175.4169,1730.9792,193.0878,1740.1999,185.4081,1724.07,175.4169" style="stroke:#181818;stroke-width:1;"/></g><!--reverse link RotationScanPerSweep to RotationScan--><g id="link_RotationScanPerSweep_RotationScan"><path codeLine="147" d="M4367.3284,1038.809 C4389.3184,1078.469 4407.51,1111.2669 4423.11,1139.4069 " fill="#FFFFFF" fill-opacity="0.00000" id="RotationScanPerSweep-backto-RotationScan" style="stroke:#181818;stroke-width:1;"/><polygon fill="#FFFFFF" fill-opacity="0.00000" points="4358.6,1023.0669,4362.0811,1041.7185,4372.5758,1035.8995,4358.6,1023.0669" style="stroke:#181818;stroke-width:1;"/></g><!--reverse link RotationExperiment to RotationScan--><g id="link_RotationExperiment_RotationScan"><path codeLine="148" d="M3737.6705,1019.1414 C3771.9305,1052.8514 3809.86,1082.9469 3864,1103.4969 C3966.38,1142.3669 4248.99,1108.2369 4356,1131.4969 C4364.74,1133.3969 4373.78,1136.1169 4382.49,1139.1769 " fill="#FFFFFF" fill-opacity="0.00000" id="RotationExperiment-backto-RotationScan" style="stroke:#181818;stroke-width:1;"/><polygon fill="#FFFFFF" fill-opacity="0.00000" points="3724.84,1006.5169,3733.4623,1023.4182,3741.8787,1014.8646,3724.84,1006.5169" style="stroke:#181818;stroke-width:1;"/></g><!--reverse link MxBlueskyParameters to DiffractionExperiment--><g id="link_MxBlueskyParameters_DiffractionExperiment"><path codeLine="149" d="M2808.9224,201.2925 C2808.3924,225.2825 2808.03,241.8669 2807.3,275.3869 " fill="#FFFFFF" fill-opacity="0.00000" id="MxBlueskyParameters-backto-DiffractionExperiment" style="stroke:#181818;stroke-width:1;"/><polygon fill="#FFFFFF" fill-opacity="0.00000" points="2809.32,183.2969,2802.9239,201.16,2814.921,201.425,2809.32,183.2969" style="stroke:#181818;stroke-width:1;"/></g><!--reverse link WithSnapshot to DiffractionExperiment--><g id="link_WithSnapshot_DiffractionExperiment"><path codeLine="150" d="M706.6533,198.3798 C731.0233,208.0398 741.25,210.4669 767,215.7769 C1172.88,299.5469 2233.45,158.6769 2631,275.7769 C2633.45,276.5069 2635.9,277.2669 2638.35,278.0769 " fill="#FFFFFF" fill-opacity="0.00000" id="WithSnapshot-backto-DiffractionExperiment" style="stroke:#181818;stroke-width:1;"/><polygon fill="#FFFFFF" fill-opacity="0.00000" points="689.92,191.7469,704.4424,203.9576,708.8643,192.802,689.92,191.7469" style="stroke:#181818;stroke-width:1;"/></g><!--reverse link WithOptionalEnergyChange to DiffractionExperiment--><g id="link_WithOptionalEnergyChange_DiffractionExperiment"><path codeLine="151" d="M217.5801,191.9508 C241.6201,204.4508 254.88,209.0969 283,215.7769 C790.8,336.4669 2129.84,129.9569 2631,275.7769 C2633.45,276.4969 2635.91,277.2569 2638.36,278.0469 " fill="#FFFFFF" fill-opacity="0.00000" id="WithOptionalEnergyChange-backto-DiffractionExperiment" style="stroke:#181818;stroke-width:1;"/><polygon fill="#FFFFFF" fill-opacity="0.00000" points="201.61,183.6469,214.8121,197.2742,220.3481,186.6274,201.61,183.6469" style="stroke:#181818;stroke-width:1;"/></g><!--reverse link WithVisit to DiffractionExperiment--><g id="link_WithVisit_DiffractionExperiment"><path codeLine="152" d="M2291.3575,216.185 C2438.6275,259.285 2487.27,222.0569 2631,275.7769 C2633.48,276.7069 2635.96,277.6669 2638.44,278.6569 " fill="#FFFFFF" fill-opacity="0.00000" id="WithVisit-backto-DiffractionExperiment" style="stroke:#181818;stroke-width:1;"/><polygon fill="#FFFFFF" fill-opacity="0.00000" points="2274.26,210.5569,2289.4814,221.8842,2293.2335,210.4859,2274.26,210.5569" style="stroke:#181818;stroke-width:1;"/></g><!--reverse link SpecifiedThreeDGridScan to HyperionSpecifiedThreeDGridScan--><g id="link_SpecifiedThreeDGridScan_HyperionSpecifiedThreeDGridScan"><path codeLine="153" d="M2865.3731,882.6242 C2919.1131,852.6742 2971.06,829.4369 3036.5,814.2369 C3124.27,793.8469 3762.81,783.4569 3847.5,814.2369 C3913.02,838.0469 3970.97,899.0869 3999.76,933.4369 " fill="#FFFFFF" fill-opacity="0.00000" id="SpecifiedThreeDGridScan-backto-HyperionSpecifiedThreeDGridScan" style="stroke:#181818;stroke-width:1;"/><polygon fill="#FFFFFF" fill-opacity="0.00000" points="2849.65,891.3869,2868.294,887.8652,2862.4522,877.3832,2849.65,891.3869" style="stroke:#181818;stroke-width:1;"/></g><!--reverse link WithHyperionUDCFeatures to HyperionSpecifiedThreeDGridScan--><g id="link_WithHyperionUDCFeatures_HyperionSpecifiedThreeDGridScan"><path codeLine="154" d="M3577.488,757.4941 C3610.488,767.8241 3630.2,773.9069 3664,784.2369 C3753.16,811.4669 3781.49,802.7769 3865,844.2369 C3913.95,868.5369 3963.78,908.2969 3993.01,933.4969 " fill="#FFFFFF" fill-opacity="0.00000" id="WithHyperionUDCFeatures-backto-HyperionSpecifiedThreeDGridScan" style="stroke:#181818;stroke-width:1;"/><polygon fill="#FFFFFF" fill-opacity="0.00000" points="3560.31,752.1169,3575.6956,763.2201,3579.2805,751.7681,3560.31,752.1169" style="stroke:#181818;stroke-width:1;"/></g><!--reverse link GridCommon to SpecifiedThreeDGridScan--><g id="link_GridCommon_SpecifiedThreeDGridScan"><path codeLine="155" d="M2783.9956,801.8868 C2779.2356,820.3468 2778.38,823.6269 2773.1,844.1169 " fill="#FFFFFF" fill-opacity="0.00000" id="GridCommon-backto-SpecifiedThreeDGridScan" style="stroke:#181818;stroke-width:1;"/><polygon fill="#FFFFFF" fill-opacity="0.00000" points="2788.49,784.4569,2778.1857,800.3886,2789.8056,803.3849,2788.49,784.4569" style="stroke:#181818;stroke-width:1;"/></g><!--reverse link SpecifiedGrid to SpecifiedThreeDGridScan--><g id="link_SpecifiedGrid_SpecifiedThreeDGridScan"><path codeLine="156" d="M1765.0042,414.4016 C1915.7742,497.9516 2414.45,774.2669 2638.4,898.3569 " fill="#FFFFFF" fill-opacity="0.00000" id="SpecifiedGrid-backto-SpecifiedThreeDGridScan" style="stroke:#181818;stroke-width:1;"/><polygon fill="#FFFFFF" fill-opacity="0.00000" points="1749.26,405.6769,1762.0959,419.6497,1767.9124,409.1535,1749.26,405.6769" style="stroke:#181818;stroke-width:1;"/></g><!--reverse link SplitScan to SpecifiedThreeDGridScan--><g id="link_SplitScan_SpecifiedThreeDGridScan"><path codeLine="157" d="M1386.0003,190.7941 C1421.2703,249.3241 1511.29,389.1869 1627,486.7469 C1941.06,751.5669 2425.82,885.9069 2638.2,934.7469 " fill="#FFFFFF" fill-opacity="0.00000" id="SplitScan-backto-SpecifiedThreeDGridScan" style="stroke:#181818;stroke-width:1;"/><polygon fill="#FFFFFF" fill-opacity="0.00000" points="1376.71,175.3769,1380.8613,193.8908,1391.1394,187.6973,1376.71,175.3769" style="stroke:#181818;stroke-width:1;"/></g><!--reverse link WithOptionalEnergyChange to SpecifiedThreeDGridScan--><g id="link_WithOptionalEnergyChange_SpecifiedThreeDGridScan"><path codeLine="158" d="M227.891,191.3777 C250.241,202.0577 259.42,205.9969 283,215.7769 C971.49,501.5669 1142.44,585.8169 1861,784.2369 C2137.29,860.5269 2471.18,916.1469 2638.13,941.5269 " fill="#FFFFFF" fill-opacity="0.00000" id="WithOptionalEnergyChange-backto-SpecifiedThreeDGridScan" style="stroke:#181818;stroke-width:1;"/><polygon fill="#FFFFFF" fill-opacity="0.00000" points="211.65,183.6169,225.3041,196.7913,230.4779,185.964,211.65,183.6169" style="stroke:#181818;stroke-width:1;"/></g><!--reverse link DiffractionExperimentWithSample to RotationExperiment--><g id="link_DiffractionExperimentWithSample_RotationExperiment"><path codeLine="159" d="M2883.4286,601.6986 C2919.2986,615.5686 2948.51,627.2269 2989,644.3469 C3200.57,733.7969 3444.73,846.2669 3579.09,908.9769 " fill="#FFFFFF" fill-opacity="0.00000" id="DiffractionExperimentWithSample-backto-RotationExperiment" style="stroke:#181818;stroke-width:1;"/><polygon fill="#FFFFFF" fill-opacity="0.00000" points="2866.64,595.2069,2881.2647,607.2948,2885.5925,596.1024,2866.64,595.2069" style="stroke:#181818;stroke-width:1;"/></g><!--reverse link WithHyperionUDCFeatures to RotationExperiment--><g id="link_WithHyperionUDCFeatures_RotationExperiment"><path codeLine="160" d="M3501.6421,765.0262 C3539.2121,805.2162 3592.39,862.0969 3636.21,908.9669 " fill="#FFFFFF" fill-opacity="0.00000" id="WithHyperionUDCFeatures-backto-RotationExperiment" style="stroke:#181818;stroke-width:1;"/><polygon fill="#FFFFFF" fill-opacity="0.00000" points="3489.35,751.8769,3497.259,769.1235,3506.0252,760.9288,3489.35,751.8769" style="stroke:#181818;stroke-width:1;"/></g><!--reverse link OptionalGonioAngleStarts to RotationScanPerSweep--><g id="link_OptionalGonioAngleStarts_RotationScanPerSweep"><path codeLine="161" d="M1289.3967,214.333 C1297.5267,217.363 1288.87,213.7169 1297,215.7769 C1696.96,317.3769 2755.31,165.6469 3153,275.7769 C3607.43,401.6269 4068.18,748.5269 4246.24,892.7169 " fill="#FFFFFF" fill-opacity="0.00000" id="OptionalGonioAngleStarts-backto-RotationScanPerSweep" style="stroke:#181818;stroke-width:1;"/><polygon fill="#FFFFFF" fill-opacity="0.00000" points="1272.53,208.0469,1287.3013,219.9552,1291.492,208.7108,1272.53,208.0469" style="stroke:#181818;stroke-width:1;"/></g><!--reverse link OptionalXyzStarts to RotationScanPerSweep--><g id="link_OptionalXyzStarts_RotationScanPerSweep"><path codeLine="162" d="M1963.2309,208.4002 C1975.3009,214.8402 1972.22,212.0369 1985,215.7769 C2096.36,248.4169 3978.81,207.9869 4073,275.7769 C4276.57,422.2969 4314.71,752.9569 4321.61,892.6469 " fill="#FFFFFF" fill-opacity="0.00000" id="OptionalXyzStarts-backto-RotationScanPerSweep" style="stroke:#181818;stroke-width:1;"/><polygon fill="#FFFFFF" fill-opacity="0.00000" points="1947.35,199.9269,1960.4065,213.6938,1966.0553,203.1066,1947.35,199.9269" style="stroke:#181818;stroke-width:1;"/></g><!--reverse link GridCommonWithHyperionDetectorParams to GridScanWithEdgeDetect--><g id="link_GridCommonWithHyperionDetectorParams_GridScanWithEdgeDetect"><path codeLine="163" d="M3266.5584,996.8105 C3293.2084,1033.5005 3334.32,1090.1069 3364.19,1131.2369 " fill="#FFFFFF" fill-opacity="0.00000" id="GridCommonWithHyperionDetectorParams-backto-GridScanWithEdgeDetect" style="stroke:#181818;stroke-width:1;"/><polygon fill="#FFFFFF" fill-opacity="0.00000" points="3255.98,982.2469,3261.7038,1000.3366,3271.4129,993.2844,3255.98,982.2469" style="stroke:#181818;stroke-width:1;"/></g><!--reverse link WithHyperionUDCFeatures to GridScanWithEdgeDetect--><g id="link_WithHyperionUDCFeatures_GridScanWithEdgeDetect"><path codeLine="164" d="M3462.2903,769.9848 C3464.7403,836.7248 3464.64,978.4869 3423,1103.4969 C3419.85,1112.9669 3414.95,1122.5169 3409.78,1131.0869 " fill="#FFFFFF" fill-opacity="0.00000" id="WithHyperionUDCFeatures-backto-GridScanWithEdgeDetect" style="stroke:#181818;stroke-width:1;"/><polygon fill="#FFFFFF" fill-opacity="0.00000" points="3461.63,751.9969,3456.2944,770.2049,3468.2863,769.7646,3461.63,751.9969" style="stroke:#181818;stroke-width:1;"/></g><!--reverse link XyzStarts to SpecifiedGrid--><g id="link_XyzStarts_SpecifiedGrid"><path codeLine="165" d="M429.817,210.2381 C438.647,216.4181 433.35,211.6869 443,215.7769 C554.8,263.1969 1404.14,350.2269 1644.06,374.0769 " fill="#FFFFFF" fill-opacity="0.00000" id="XyzStarts-backto-SpecifiedGrid" style="stroke:#181818;stroke-width:1;"/><polygon fill="#FFFFFF" fill-opacity="0.00000" points="415.07,199.9169,426.3766,215.1537,433.2574,205.3224,415.07,199.9169" style="stroke:#181818;stroke-width:1;"/></g><!--reverse link WithScan to SpecifiedGrid--><g id="link_WithScan_SpecifiedGrid"><path codeLine="166" d="M1707,193.1769 C1707,236.9169 1707,313.2769 1707,357.0669 " fill="#FFFFFF" fill-opacity="0.00000" id="WithScan-backto-SpecifiedGrid" style="stroke:#181818;stroke-width:1;"/><polygon fill="#FFFFFF" fill-opacity="0.00000" points="1707,175.1769,1701,193.1769,1713,193.1769,1707,175.1769" style="stroke:#181818;stroke-width:1;"/></g><!--reverse link GridCommonWithHyperionDetectorParams to PinTipCentreThenXrayCentre--><g id="link_GridCommonWithHyperionDetectorParams_PinTipCentreThenXrayCentre"><path codeLine="167" d="M3285.5527,992.6815 C3328.9027,1023.6115 3394.96,1067.9269 3470,1103.4969 C3491.59,1113.7369 3515.43,1123.0169 3538.39,1131.0469 " fill="#FFFFFF" fill-opacity="0.00000" id="GridCommonWithHyperionDetectorParams-backto-PinTipCentreThenXrayCentre" style="stroke:#181818;stroke-width:1;"/><polygon fill="#FFFFFF" fill-opacity="0.00000" points="3270.9,982.2269,3282.0678,997.5657,3289.0376,987.7973,3270.9,982.2269" style="stroke:#181818;stroke-width:1;"/></g><!--reverse link WithHyperionUDCFeatures to PinTipCentreThenXrayCentre--><g id="link_WithHyperionUDCFeatures_PinTipCentreThenXrayCentre"><path codeLine="168" d="M3458.5171,770.0112 C3456.4671,851.4612 3455.67,1048.3869 3497,1103.4969 C3505.38,1114.6769 3516.22,1123.7469 3528.21,1131.1069 " fill="#FFFFFF" fill-opacity="0.00000" id="WithHyperionUDCFeatures-backto-PinTipCentreThenXrayCentre" style="stroke:#181818;stroke-width:1;"/><polygon fill="#FFFFFF" fill-opacity="0.00000" points="3458.97,752.0169,3452.519,769.8602,3464.5152,770.1621,3458.97,752.0169" style="stroke:#181818;stroke-width:1;"/></g><!--reverse link MxBlueskyParameters to LoadCentreCollect--><g id="link_MxBlueskyParameters_LoadCentreCollect"><path codeLine="169" d="M2986.8359,155.5833 C3475.3959,166.0733 4909.16,202.8969 4978,275.7769 C5165.83,474.6469 4832.6,804.1569 4705.34,917.2969 " fill="#FFFFFF" fill-opacity="0.00000" id="MxBlueskyParameters-backto-LoadCentreCollect" style="stroke:#181818;stroke-width:1;"/><polygon fill="#FFFFFF" fill-opacity="0.00000" points="2968.84,155.1969,2986.7071,161.5819,2986.9647,149.5847,2968.84,155.1969" style="stroke:#181818;stroke-width:1;"/></g><!--reverse link WithVisit to LoadCentreCollect--><g id="link_WithVisit_LoadCentreCollect"><path codeLine="170" d="M2291.3459,216.375 C2496.4759,260.805 3994.24,176.2069 4179,275.7769 C4449.6,421.6269 4601.7,794.6369 4645.57,917.1869 " fill="#FFFFFF" fill-opacity="0.00000" id="WithVisit-backto-LoadCentreCollect" style="stroke:#181818;stroke-width:1;"/><polygon fill="#FFFFFF" fill-opacity="0.00000" points="2274,211.5669,2289.7432,222.157,2292.9487,210.5931,2274,211.5669" style="stroke:#181818;stroke-width:1;"/></g><!--reverse link WithSample to LoadCentreCollect--><g id="link_WithSample_LoadCentreCollect"><path codeLine="171" d="M1618.5085,208.4607 C1630.4685,214.9007 1627.32,212.0369 1640,215.7769 C2082.62,346.5369 3278.96,127.4469 3716,275.7769 C3922.42,345.8369 4451.26,782.0569 4611.98,917.0769 " fill="#FFFFFF" fill-opacity="0.00000" id="WithSample-backto-LoadCentreCollect" style="stroke:#181818;stroke-width:1;"/><polygon fill="#FFFFFF" fill-opacity="0.00000" points="1602.66,199.9269,1615.6639,213.7435,1621.3531,203.1778,1602.66,199.9269" style="stroke:#181818;stroke-width:1;"/></g><!--reverse link WithCentreSelection to LoadCentreCollect--><g id="link_WithCentreSelection_LoadCentreCollect"><path codeLine="172" d="M2543.1281,190.679 C2571.9281,203.149 2590.18,208.9669 2623,215.7769 C2723.47,236.6469 4388.29,212.4169 4469,275.7769 C4673.45,436.3069 4669.67,797.2569 4662.26,917.2469 " fill="#FFFFFF" fill-opacity="0.00000" id="WithCentreSelection-backto-LoadCentreCollect" style="stroke:#181818;stroke-width:1;"/><polygon fill="#FFFFFF" fill-opacity="0.00000" points="2526.61,183.5269,2540.7441,196.185,2545.5121,185.1729,2526.61,183.5269" style="stroke:#181818;stroke-width:1;"/></g><!--reverse link WithHyperionUDCFeatures to LoadCentreCollect--><g id="link_WithHyperionUDCFeatures_LoadCentreCollect"><path codeLine="173" d="M3592.5979,735.9795 C3853.1679,766.4795 4450.91,836.9669 4472,844.2369 C4520.91,861.0869 4570.83,891.9969 4606.77,917.1669 " fill="#FFFFFF" fill-opacity="0.00000" id="WithHyperionUDCFeatures-backto-LoadCentreCollect" style="stroke:#181818;stroke-width:1;"/><polygon fill="#FFFFFF" fill-opacity="0.00000" points="3574.72,733.8869,3591.9004,741.9388,3593.2955,730.0202,3574.72,733.8869" style="stroke:#181818;stroke-width:1;"/></g><!--SRC=[bLVRRjms47ssle9lRe7QGFAS5d3MJbeWJesiumO8388hpKg49P8WANjbn__U8IbfTT_rqufpu-7CcI7tz3RZXcnv3WH_MMdbMGe2DBEGa4r5cWLLEHEsBF9pLKMHvHOT_guKQ2u5kM6Q5M11askPG1uPi4IWn2WMmneKggtKH4W1KOIo1vO2ANPqavTW7ghpM1Q55EUg2MF8IsHb2ZR3a2zHd3DZo5f1pBSSai-Q9o_HQot-KJslBTFMl4GdsrmoItRKE04jYqPIZIJFUybh6p_dTXqpiO_z7xVP3HC9Sri6LUsld9JgKfIA9XnZYHXeiG_shxAO69P_beBB2v7cC03vYtp5R11PGCfgB0ca0wtA-AmkNj0zCAMwKRldMO6m6ekIG-mW8g1RgRv-hAxPRYLBOLiDCVwBnjx1z8BSSSCjkXghoGPOaNEih5yzEatuJC3wt50hgJEYiHIFeB6-L36R1ICk38fmEweqRFbkS1ACWHYadaooGx9cXSe1eN1XYV4BofEmh6FKKbN63vDoBaPb6vEgzXbpgrPKSue9fddS8w8rUrzXmwNLAcCYXPTHEWea7WLlGk6n7r8mPJBfwdA3-IMcNcFkj4zY5PtacCQVFkHzcuR6p7FHr8Hv7JVW9TzkDVFSkDgvpY-G6JK9t02XhkKRmB1JqfGQg4KpQeALwtFqGSffdgQWtRGWDdpJ0XUz-c1tKL4M6z3HoGNkPp7S7SEHqIBt18M4ibhRR6ur4wRWnZXUESpHoJz6LPizx5iSNJZmK4QX5LABqe3KOBfmI7LJjv4o9wK1gYKFO5-7a-asqm2Nes6Hek1TI6-tMPtu_LZiA0QA6luCWn4sbZvFsxuVpxkkoEKux6B2ekekdfk5Fp35MOw2SaFbTelV-pdWZhdoWxjtKFh44vjrjXunuGsbU6FPkQfHThjjahRTqT4ONky-XlkelSvS-wzToraUt-7IJSNsal8SoEbZaFkMUPswtBBwbknVRyCSEa3DVNfP3psFmtG0bhdbtwHbxYmrmow4S098VlhMxcflGA-V0DJz7-GBYDyABcWE8hNPd-z-loUwjgG6JVlJlS7n_NBr2PZBi4j48wr5dtAMuiEXrhV-t-H6sY-IOI-027SD-du8obDVfzE_YCtO4nUffqJ7jNkoHjfiEzjaG_VUR0h4C5bfNSMa0j5iwvWOj6qck8WrUFRvTZoUfrCdQBBVWXXTzOtrnGvVNYq8XgiMDyQf-wddSUcdacDZwvOqej340dQbeO-9gJVaHTfhN8VGbVegII7GhSMvaRjse3GkDrpSSXNAwGhxGxEgBUvIypac1CELpFEmpGH5y1meenWeeNZdYFhH4PsCA4yA9w4zzlhEsxSI-V3hxEoerefcsFw626FM1USHyAXzNyuPZ5wRmN06OpGvruBBWP4NxJ-Fipyc4o7IH6sNappbS03Ei3hHt6DxPDWyl9gjEycVQjq5is76UqOJ5yb2dgFks-sGtTGZyP2FVwml6SsCrk1oOFukL_UGyx1fv-nw__qEcVRQR0dsV3Bdl8vYvfWZXrfWPB_Cw2ckHgE_BWksn_Vpz5rnU6vE-0o0zKewwCo-xdYqyzVKCk85lzbU7jrimrwRDkWIPTfYy0TzoNJsG2Fp_m40]--></g></svg>