<svg xmlns="http://www.w3.org/2000/svg" xmlns:xlink="http://www.w3.org/1999/xlink" contentStyleType="text/css" data-diagram-type="CLASS" height="1235px" preserveAspectRatio="none" style="width:5014px;height:1235px;background:#FFFFFF;" version="1.1" viewBox="0 0 5014 1235" width="5014px" zoomAndPan="magnify"><title>Hyperion Parameter Model</title><defs/><g><g class="title" data-source-line="3"><text fill="#000000" font-family="sans-serif" font-size="14" font-weight="bold" lengthAdjust="spacing" textLength="212.4951" x="2393.9274" y="22.9951">Hyperion Parameter Model</text></g><!--cluster mx_bluesky.common.parameters--><g class="cluster" data-entity="mx_bluesky.common.parameters" data-source-line="6" data-uid="ent0002" id="cluster_mx_bluesky.common.parameters"><path d="M8.5,43.2969 L269.8125,43.2969 A3.75,3.75 0 0 1 272.3125,45.7969 L279.3125,65.5938 L2994.5,65.5938 A2.5,2.5 0 0 1 2997,68.0938 L2997,1109.2969 A2.5,2.5 0 0 1 2994.5,1111.7969 L8.5,1111.7969 A2.5,2.5 0 0 1 6,1109.2969 L6,45.7969 A2.5,2.5 0 0 1 8.5,43.2969" fill="none" style="stroke:#000000;stroke-width:1.5;"/><line style="stroke:#000000;stroke-width:1.5;" x1="6" x2="279.3125" y1="65.5938" y2="65.5938"/><text fill="#000000" font-family="sans-serif" font-size="14" font-weight="bold" lengthAdjust="spacing" textLength="260.3125" x="10" y="58.292">mx_bluesky.common.parameters</text></g><!--cluster mx_bluesky.hyperion.parameters--><g class="cluster" data-entity="mx_bluesky.hyperion.parameters" data-source-line="97" data-uid="ent0020" id="cluster_mx_bluesky.hyperion.parameters"><path d="M3023.5,660.4969 L3288.0322,660.4969 A3.75,3.75 0 0 1 3290.5322,662.9969 L3297.5322,682.7937 L4806.5,682.7937 A2.5,2.5 0 0 1 4809,685.2937 L4809,1225.5969 A2.5,2.5 0 0 1 4806.5,1228.0969 L3023.5,1228.0969 A2.5,2.5 0 0 1 3021,1225.5969 L3021,662.9969 A2.5,2.5 0 0 1 3023.5,660.4969" fill="none" style="stroke:#000000;stroke-width:1.5;"/><line style="stroke:#000000;stroke-width:1.5;" x1="3021" x2="3297.5322" y1="682.7937" y2="682.7937"/><text fill="#000000" font-family="sans-serif" font-size="14" font-weight="bold" lengthAdjust="spacing" textLength="263.5322" x="3025" y="675.492">mx_bluesky.hyperion.parameters</text></g><!--class XyzStarts--><g class="entity" data-entity="XyzStarts" data-source-line="8" data-uid="ent0003" id="entity_XyzStarts"><rect fill="#F1F1F1" height="96.8906" rx="2.5" ry="2.5" style="stroke:#181818;stroke-width:0.5;" width="125.3057" x="30.35" y="102.5969"/><ellipse cx="57.3141" cy="118.5969" fill="#ADD1B2" rx="11" ry="11" style="stroke:#181818;stroke-width:1;"/><path d="M60.2829,124.2375 Q59.7047,124.5344 59.0641,124.675 Q58.4235,124.8312 57.7204,124.8312 Q55.2204,124.8312 53.8922,123.1906 Q52.5797,121.5344 52.5797,118.4094 Q52.5797,115.2844 53.8922,113.6281 Q55.2204,111.9719 57.7204,111.9719 Q58.4235,111.9719 59.0641,112.1281 Q59.7204,112.2844 60.2829,112.5812 L60.2829,115.3 Q59.6579,114.7219 59.0641,114.4562 Q58.4704,114.175 57.8454,114.175 Q56.5016,114.175 55.8141,115.2531 Q55.1266,116.3156 55.1266,118.4094 Q55.1266,120.5031 55.8141,121.5812 Q56.5016,122.6437 57.8454,122.6437 Q58.4704,122.6437 59.0641,122.3781 Q59.6579,122.0969 60.2829,121.5187 L60.2829,124.2375 Z " fill="#000000"/><text fill="#000000" font-family="sans-serif" font-size="14" lengthAdjust="spacing" textLength="66.7188" x="73.9728" y="123.4436">XyzStarts</text><line style="stroke:#181818;stroke-width:0.5;" x1="31.35" x2="154.6557" y1="134.5969" y2="134.5969"/><text fill="#000000" font-family="sans-serif" font-size="14" lengthAdjust="spacing" textLength="113.3057" x="36.35" y="151.592">float x_start_um</text><text fill="#000000" font-family="sans-serif" font-size="14" lengthAdjust="spacing" textLength="113.3057" x="36.35" y="167.8889">float y_start_um</text><text fill="#000000" font-family="sans-serif" font-size="14" lengthAdjust="spacing" textLength="112.3691" x="36.35" y="184.1857">float z_start_um</text><line style="stroke:#181818;stroke-width:0.5;" x1="31.35" x2="154.6557" y1="191.4875" y2="191.4875"/></g><!--class WithPandaGridScan--><g class="entity" data-entity="WithPandaGridScan" data-source-line="13" data-uid="ent0004" id="entity_WithPandaGridScan"><rect fill="#F1F1F1" height="64.2969" rx="2.5" ry="2.5" style="stroke:#181818;stroke-width:0.5;" width="240.5664" x="1823.72" y="118.8969"/><ellipse cx="1870.3172" cy="134.8969" fill="#ADD1B2" rx="11" ry="11" style="stroke:#181818;stroke-width:1;"/><path d="M1873.2859,140.5375 Q1872.7078,140.8344 1872.0672,140.975 Q1871.4265,141.1312 1870.7234,141.1312 Q1868.2234,141.1312 1866.8953,139.4906 Q1865.5828,137.8344 1865.5828,134.7094 Q1865.5828,131.5844 1866.8953,129.9281 Q1868.2234,128.2719 1870.7234,128.2719 Q1871.4265,128.2719 1872.0672,128.4281 Q1872.7234,128.5844 1873.2859,128.8812 L1873.2859,131.6 Q1872.6609,131.0219 1872.0672,130.7562 Q1871.4734,130.475 1870.8484,130.475 Q1869.5047,130.475 1868.8172,131.5531 Q1868.1297,132.6156 1868.1297,134.7094 Q1868.1297,136.8031 1868.8172,137.8812 Q1869.5047,138.9437 1870.8484,138.9437 Q1871.4734,138.9437 1872.0672,138.6781 Q1872.6609,138.3969 1873.2859,137.8187 L1873.2859,140.5375 Z " fill="#000000"/><text fill="#000000" font-family="sans-serif" font-size="14" lengthAdjust="spacing" textLength="138.8721" x="1890.8172" y="139.7436">WithPandaGridScan</text><line style="stroke:#181818;stroke-width:0.5;" x1="1824.72" x2="2063.2864" y1="150.8969" y2="150.8969"/><text fill="#000000" font-family="sans-serif" font-size="14" lengthAdjust="spacing" textLength="228.5664" x="1829.72" y="167.892">float panda_runup_distance_mm</text><line style="stroke:#181818;stroke-width:0.5;" x1="1824.72" x2="2063.2864" y1="175.1937" y2="175.1937"/></g><!--class WithScan--><g class="entity" data-entity="WithScan" data-source-line="16" data-uid="ent0005" id="entity_WithScan"><rect fill="#F1F1F1" height="48" rx="2.5" ry="2.5" style="stroke:#181818;stroke-width:0.5;" width="98.1309" x="996.93" y="127.0469"/><ellipse cx="1011.93" cy="143.0469" fill="#ADD1B2" rx="11" ry="11" style="stroke:#181818;stroke-width:1;"/><path d="M1014.8988,148.6875 Q1014.3206,148.9844 1013.68,149.125 Q1013.0394,149.2813 1012.3363,149.2813 Q1009.8363,149.2813 1008.5081,147.6406 Q1007.1956,145.9844 1007.1956,142.8594 Q1007.1956,139.7344 1008.5081,138.0781 Q1009.8363,136.4219 1012.3363,136.4219 Q1013.0394,136.4219 1013.68,136.5781 Q1014.3363,136.7344 1014.8988,137.0313 L1014.8988,139.75 Q1014.2738,139.1719 1013.68,138.9063 Q1013.0863,138.625 1012.4613,138.625 Q1011.1175,138.625 1010.43,139.7031 Q1009.7425,140.7656 1009.7425,142.8594 Q1009.7425,144.9531 1010.43,146.0313 Q1011.1175,147.0938 1012.4613,147.0938 Q1013.0863,147.0938 1013.68,146.8281 Q1014.2738,146.5469 1014.8988,145.9688 L1014.8988,148.6875 Z " fill="#000000"/><text fill="#000000" font-family="sans-serif" font-size="14" lengthAdjust="spacing" textLength="66.1309" x="1025.93" y="147.8936">WithScan</text><line style="stroke:#181818;stroke-width:0.5;" x1="997.93" x2="1094.0609" y1="159.0469" y2="159.0469"/><line style="stroke:#181818;stroke-width:0.5;" x1="997.93" x2="1094.0609" y1="167.0469" y2="167.0469"/></g><!--class SpecifiedGrid--><g class="entity" data-entity="SpecifiedGrid" data-source-line="18" data-uid="ent0006" id="entity_SpecifiedGrid"><rect fill="#F1F1F1" height="48" rx="2.5" ry="2.5" style="stroke:#181818;stroke-width:0.5;" width="125.6729" x="983.16" y="357.2669"/><ellipse cx="998.16" cy="373.2669" fill="#ADD1B2" rx="11" ry="11" style="stroke:#181818;stroke-width:1;"/><path d="M1001.1288,378.9075 Q1000.5506,379.2044 999.91,379.345 Q999.2694,379.5012 998.5663,379.5012 Q996.0663,379.5012 994.7381,377.8606 Q993.4256,376.2044 993.4256,373.0794 Q993.4256,369.9544 994.7381,368.2981 Q996.0663,366.6419 998.5663,366.6419 Q999.2694,366.6419 999.91,366.7981 Q1000.5663,366.9544 1001.1288,367.2512 L1001.1288,369.97 Q1000.5038,369.3919 999.91,369.1262 Q999.3163,368.845 998.6913,368.845 Q997.3475,368.845 996.66,369.9231 Q995.9725,370.9856 995.9725,373.0794 Q995.9725,375.1731 996.66,376.2512 Q997.3475,377.3137 998.6913,377.3137 Q999.3163,377.3137 999.91,377.0481 Q1000.5038,376.7669 1001.1288,376.1887 L1001.1288,378.9075 Z " fill="#000000"/><text fill="#000000" font-family="sans-serif" font-size="14" lengthAdjust="spacing" textLength="93.6729" x="1012.16" y="378.1136">SpecifiedGrid</text><line style="stroke:#181818;stroke-width:0.5;" x1="984.16" x2="1107.8329" y1="389.2669" y2="389.2669"/><line style="stroke:#181818;stroke-width:0.5;" x1="984.16" x2="1107.8329" y1="397.2669" y2="397.2669"/></g><!--class WithSnapshot--><g class="entity" data-entity="WithSnapshot" data-source-line="20" data-uid="ent0007" id="entity_WithSnapshot"><rect fill="#F1F1F1" height="80.5938" rx="2.5" ry="2.5" style="stroke:#181818;stroke-width:0.5;" width="289.3477" x="672.33" y="110.7469"/><ellipse cx="763.9828" cy="126.7469" fill="#ADD1B2" rx="11" ry="11" style="stroke:#181818;stroke-width:1;"/><path d="M766.9516,132.3875 Q766.3735,132.6844 765.7328,132.825 Q765.0922,132.9813 764.3891,132.9813 Q761.8891,132.9813 760.561,131.3406 Q759.2485,129.6844 759.2485,126.5594 Q759.2485,123.4344 760.561,121.7781 Q761.8891,120.1219 764.3891,120.1219 Q765.0922,120.1219 765.7328,120.2781 Q766.3891,120.4344 766.9516,120.7313 L766.9516,123.45 Q766.3266,122.8719 765.7328,122.6063 Q765.1391,122.325 764.5141,122.325 Q763.1703,122.325 762.4828,123.4031 Q761.7953,124.4656 761.7953,126.5594 Q761.7953,128.6531 762.4828,129.7313 Q763.1703,130.7938 764.5141,130.7938 Q765.1391,130.7938 765.7328,130.5281 Q766.3266,130.2469 766.9516,129.6688 L766.9516,132.3875 Z " fill="#000000"/><text fill="#000000" font-family="sans-serif" font-size="14" lengthAdjust="spacing" textLength="97.542" x="784.4828" y="131.5936">WithSnapshot</text><line style="stroke:#181818;stroke-width:0.5;" x1="673.33" x2="960.6777" y1="142.7469" y2="142.7469"/><text fill="#000000" font-family="sans-serif" font-size="14" lengthAdjust="spacing" textLength="169.627" x="678.33" y="159.742">Path snapshot_directory</text><text fill="#000000" font-family="sans-serif" font-size="14" lengthAdjust="spacing" textLength="277.3477" x="678.33" y="176.0389">list[float] | None snapshot_omegas_deg</text><line style="stroke:#181818;stroke-width:0.5;" x1="673.33" x2="960.6777" y1="183.3406" y2="183.3406"/></g><!--class WithCentreSelection--><g class="entity" data-entity="WithCentreSelection" data-source-line="24" data-uid="ent0008" id="entity_WithCentreSelection"><rect fill="#F1F1F1" height="64.2969" rx="2.5" ry="2.5" style="stroke:#181818;stroke-width:0.5;" width="306.7861" x="2099.61" y="118.8969"/><ellipse cx="2176.8869" cy="134.8969" fill="#ADD1B2" rx="11" ry="11" style="stroke:#181818;stroke-width:1;"/><path d="M2179.8556,140.5375 Q2179.2775,140.8344 2178.6369,140.975 Q2177.9962,141.1312 2177.2931,141.1312 Q2174.7931,141.1312 2173.465,139.4906 Q2172.1525,137.8344 2172.1525,134.7094 Q2172.1525,131.5844 2173.465,129.9281 Q2174.7931,128.2719 2177.2931,128.2719 Q2177.9962,128.2719 2178.6369,128.4281 Q2179.2931,128.5844 2179.8556,128.8812 L2179.8556,131.6 Q2179.2306,131.0219 2178.6369,130.7562 Q2178.0431,130.475 2177.4181,130.475 Q2176.0744,130.475 2175.3869,131.5531 Q2174.6994,132.6156 2174.6994,134.7094 Q2174.6994,136.8031 2175.3869,137.8812 Q2176.0744,138.9437 2177.4181,138.9437 Q2178.0431,138.9437 2178.6369,138.6781 Q2179.2306,138.3969 2179.8556,137.8187 L2179.8556,140.5375 Z " fill="#000000"/><text fill="#000000" font-family="sans-serif" font-size="14" lengthAdjust="spacing" textLength="143.7324" x="2197.3869" y="139.7436">WithCentreSelection</text><line style="stroke:#181818;stroke-width:0.5;" x1="2100.61" x2="2405.3961" y1="150.8969" y2="150.8969"/><text fill="#000000" font-family="sans-serif" font-size="14" lengthAdjust="spacing" textLength="294.7861" x="2105.61" y="167.892">TopNByMaxCountSelection select_centres</text><line style="stroke:#181818;stroke-width:0.5;" x1="2100.61" x2="2405.3961" y1="175.1937" y2="175.1937"/></g><!--class WithOptionalEnergyChange--><g class="entity" data-entity="WithOptionalEnergyChange" data-source-line="27" data-uid="ent0009" id="entity_WithOptionalEnergyChange"><rect fill="#F1F1F1" height="64.2969" rx="2.5" ry="2.5" style="stroke:#181818;stroke-width:0.5;" width="235.4463" x="190.28" y="118.8969"/><ellipse cx="209.4645" cy="134.8969" fill="#ADD1B2" rx="11" ry="11" style="stroke:#181818;stroke-width:1;"/><path d="M212.4332,140.5375 Q211.8551,140.8344 211.2145,140.975 Q210.5738,141.1312 209.8707,141.1312 Q207.3707,141.1312 206.0426,139.4906 Q204.7301,137.8344 204.7301,134.7094 Q204.7301,131.5844 206.0426,129.9281 Q207.3707,128.2719 209.8707,128.2719 Q210.5738,128.2719 211.2145,128.4281 Q211.8707,128.5844 212.4332,128.8812 L212.4332,131.6 Q211.8082,131.0219 211.2145,130.7562 Q210.6207,130.475 209.9957,130.475 Q208.652,130.475 207.9645,131.5531 Q207.277,132.6156 207.277,134.7094 Q207.277,136.8031 207.9645,137.8812 Q208.652,138.9437 209.9957,138.9437 Q210.6207,138.9437 211.2145,138.6781 Q211.8082,138.3969 212.4332,137.8187 L212.4332,140.5375 Z " fill="#000000"/><text fill="#000000" font-family="sans-serif" font-size="14" lengthAdjust="spacing" textLength="194.1475" x="224.3944" y="139.7436">WithOptionalEnergyChange</text><line style="stroke:#181818;stroke-width:0.5;" x1="191.28" x2="424.7263" y1="150.8969" y2="150.8969"/><text fill="#000000" font-family="sans-serif" font-size="14" lengthAdjust="spacing" textLength="223.4463" x="196.28" y="167.892">float | None demand_energy_ev</text><line style="stroke:#181818;stroke-width:0.5;" x1="191.28" x2="424.7263" y1="175.1937" y2="175.1937"/></g><!--class WithVisit--><g class="entity" data-entity="WithVisit" data-source-line="30" data-uid="ent0010" id="entity_WithVisit"><rect fill="#F1F1F1" height="129.4844" rx="2.5" ry="2.5" style="stroke:#181818;stroke-width:0.5;" width="271.7861" x="1130.11" y="86.2969"/><ellipse cx="1230.6359" cy="102.2969" fill="#ADD1B2" rx="11" ry="11" style="stroke:#181818;stroke-width:1;"/><path d="M1233.6046,107.9375 Q1233.0265,108.2344 1232.3859,108.375 Q1231.7453,108.5313 1231.0421,108.5313 Q1228.5421,108.5313 1227.214,106.8906 Q1225.9015,105.2344 1225.9015,102.1094 Q1225.9015,98.9844 1227.214,97.3281 Q1228.5421,95.6719 1231.0421,95.6719 Q1231.7453,95.6719 1232.3859,95.8281 Q1233.0421,95.9844 1233.6046,96.2813 L1233.6046,99 Q1232.9796,98.4219 1232.3859,98.1563 Q1231.7921,97.875 1231.1671,97.875 Q1229.8234,97.875 1229.1359,98.9531 Q1228.4484,100.0156 1228.4484,102.1094 Q1228.4484,104.2031 1229.1359,105.2813 Q1229.8234,106.3438 1231.1671,106.3438 Q1231.7921,106.3438 1232.3859,106.0781 Q1232.9796,105.7969 1233.6046,105.2188 L1233.6046,107.9375 Z " fill="#000000"/><text fill="#000000" font-family="sans-serif" font-size="14" lengthAdjust="spacing" textLength="62.2344" x="1251.1359" y="107.1436">WithVisit</text><line style="stroke:#181818;stroke-width:0.5;" x1="1131.11" x2="1400.8961" y1="118.2969" y2="118.2969"/><text fill="#000000" font-family="sans-serif" font-size="14" lengthAdjust="spacing" textLength="87.9717" x="1136.11" y="135.292">str beamline</text><text fill="#000000" font-family="sans-serif" font-size="14" lengthAdjust="spacing" textLength="51.8369" x="1136.11" y="151.5889">str visit</text><text fill="#000000" font-family="sans-serif" font-size="14" lengthAdjust="spacing" textLength="259.7861" x="1136.11" y="167.8857">str det_dist_to_beam_converter_path</text><text fill="#000000" font-family="sans-serif" font-size="14" lengthAdjust="spacing" textLength="131.5918" x="1136.11" y="184.1826">str insertion_prefix</text><text fill="#000000" font-family="sans-serif" font-size="14" lengthAdjust="spacing" textLength="245.752" x="1136.11" y="200.4795">float | None detector_distance_mm</text><line style="stroke:#181818;stroke-width:0.5;" x1="1131.11" x2="1400.8961" y1="207.7813" y2="207.7813"/></g><!--class WithSample--><g class="entity" data-entity="WithSample" data-source-line="37" data-uid="ent0011" id="entity_WithSample"><rect fill="#F1F1F1" height="96.8906" rx="2.5" ry="2.5" style="stroke:#181818;stroke-width:0.5;" width="176.3086" x="460.85" y="102.5969"/><ellipse cx="502.7243" cy="118.5969" fill="#ADD1B2" rx="11" ry="11" style="stroke:#181818;stroke-width:1;"/><path d="M505.6931,124.2375 Q505.1149,124.5344 504.4743,124.675 Q503.8337,124.8312 503.1306,124.8312 Q500.6306,124.8312 499.3024,123.1906 Q497.9899,121.5344 497.9899,118.4094 Q497.9899,115.2844 499.3024,113.6281 Q500.6306,111.9719 503.1306,111.9719 Q503.8337,111.9719 504.4743,112.1281 Q505.1306,112.2844 505.6931,112.5812 L505.6931,115.3 Q505.0681,114.7219 504.4743,114.4562 Q503.8806,114.175 503.2556,114.175 Q501.9118,114.175 501.2243,115.2531 Q500.5368,116.3156 500.5368,118.4094 Q500.5368,120.5031 501.2243,121.5812 Q501.9118,122.6437 503.2556,122.6437 Q503.8806,122.6437 504.4743,122.3781 Q505.0681,122.0969 505.6931,121.5187 L505.6931,124.2375 Z " fill="#000000"/><text fill="#000000" font-family="sans-serif" font-size="14" lengthAdjust="spacing" textLength="84.5879" x="522.6964" y="123.4436">WithSample</text><line style="stroke:#181818;stroke-width:0.5;" x1="461.85" x2="636.1586" y1="134.5969" y2="134.5969"/><text fill="#000000" font-family="sans-serif" font-size="14" lengthAdjust="spacing" textLength="93.3789" x="466.85" y="151.592">int sample_id</text><text fill="#000000" font-family="sans-serif" font-size="14" lengthAdjust="spacing" textLength="164.3086" x="466.85" y="167.8889">int | None sample_puck</text><text fill="#000000" font-family="sans-serif" font-size="14" lengthAdjust="spacing" textLength="152.3936" x="466.85" y="184.1857">int | None sample_pin</text><line style="stroke:#181818;stroke-width:0.5;" x1="461.85" x2="636.1586" y1="191.4875" y2="191.4875"/></g><!--class SplitScan--><g class="entity" data-entity="SplitScan" data-source-line="42" data-uid="ent0012" id="entity_SplitScan"><rect fill="#F1F1F1" height="48" rx="2.5" ry="2.5" style="stroke:#181818;stroke-width:0.5;" width="97.0781" x="1691.46" y="127.0469"/><ellipse cx="1706.46" cy="143.0469" fill="#ADD1B2" rx="11" ry="11" style="stroke:#181818;stroke-width:1;"/><path d="M1709.4288,148.6875 Q1708.8506,148.9844 1708.21,149.125 Q1707.5694,149.2813 1706.8663,149.2813 Q1704.3663,149.2813 1703.0381,147.6406 Q1701.7256,145.9844 1701.7256,142.8594 Q1701.7256,139.7344 1703.0381,138.0781 Q1704.3663,136.4219 1706.8663,136.4219 Q1707.5694,136.4219 1708.21,136.5781 Q1708.8663,136.7344 1709.4288,137.0313 L1709.4288,139.75 Q1708.8038,139.1719 1708.21,138.9063 Q1707.6163,138.625 1706.9913,138.625 Q1705.6475,138.625 1704.96,139.7031 Q1704.2725,140.7656 1704.2725,142.8594 Q1704.2725,144.9531 1704.96,146.0313 Q1705.6475,147.0938 1706.9913,147.0938 Q1707.6163,147.0938 1708.21,146.8281 Q1708.8038,146.5469 1709.4288,145.9688 L1709.4288,148.6875 Z " fill="#000000"/><text fill="#000000" font-family="sans-serif" font-size="14" lengthAdjust="spacing" textLength="65.0781" x="1720.46" y="147.8936">SplitScan</text><line style="stroke:#181818;stroke-width:0.5;" x1="1692.46" x2="1787.5381" y1="159.0469" y2="159.0469"/><line style="stroke:#181818;stroke-width:0.5;" x1="1692.46" x2="1787.5381" y1="167.0469" y2="167.0469"/></g><!--class OptionalXyzStarts--><g class="entity" data-entity="OptionalXyzStarts" data-source-line="44" data-uid="ent0013" id="entity_OptionalXyzStarts"><rect fill="#F1F1F1" height="96.8906" rx="2.5" ry="2.5" style="stroke:#181818;stroke-width:0.5;" width="175.4473" x="2441.28" y="102.5969"/><ellipse cx="2464.1713" cy="118.5969" fill="#ADD1B2" rx="11" ry="11" style="stroke:#181818;stroke-width:1;"/><path d="M2467.14,124.2375 Q2466.5619,124.5344 2465.9213,124.675 Q2465.2806,124.8312 2464.5775,124.8312 Q2462.0775,124.8312 2460.7494,123.1906 Q2459.4369,121.5344 2459.4369,118.4094 Q2459.4369,115.2844 2460.7494,113.6281 Q2462.0775,111.9719 2464.5775,111.9719 Q2465.2806,111.9719 2465.9213,112.1281 Q2466.5775,112.2844 2467.14,112.5812 L2467.14,115.3 Q2466.515,114.7219 2465.9213,114.4562 Q2465.3275,114.175 2464.7025,114.175 Q2463.3588,114.175 2462.6713,115.2531 Q2461.9838,116.3156 2461.9838,118.4094 Q2461.9838,120.5031 2462.6713,121.5812 Q2463.3588,122.6437 2464.7025,122.6437 Q2465.3275,122.6437 2465.9213,122.3781 Q2466.515,122.0969 2467.14,121.5187 L2467.14,124.2375 Z " fill="#000000"/><text fill="#000000" font-family="sans-serif" font-size="14" lengthAdjust="spacing" textLength="125.9111" x="2479.9249" y="123.4436">OptionalXyzStarts</text><line style="stroke:#181818;stroke-width:0.5;" x1="2442.28" x2="2615.7273" y1="134.5969" y2="134.5969"/><text fill="#000000" font-family="sans-serif" font-size="14" lengthAdjust="spacing" textLength="163.4473" x="2447.28" y="151.592">float | None x_start_um</text><text fill="#000000" font-family="sans-serif" font-size="14" lengthAdjust="spacing" textLength="163.4473" x="2447.28" y="167.8889">float | None y_start_um</text><text fill="#000000" font-family="sans-serif" font-size="14" lengthAdjust="spacing" textLength="162.5107" x="2447.28" y="184.1857">float | None z_start_um</text><line style="stroke:#181818;stroke-width:0.5;" x1="2442.28" x2="2615.7273" y1="191.4875" y2="191.4875"/></g><!--class OptionalGonioAngleStarts--><g class="entity" data-entity="OptionalGonioAngleStarts" data-source-line="49" data-uid="ent0014" id="entity_OptionalGonioAngleStarts"><rect fill="#F1F1F1" height="113.1875" rx="2.5" ry="2.5" style="stroke:#181818;stroke-width:0.5;" width="219.3203" x="1437.34" y="94.4469"/><ellipse cx="1455.0633" cy="110.4469" fill="#ADD1B2" rx="11" ry="11" style="stroke:#181818;stroke-width:1;"/><path d="M1458.032,116.0875 Q1457.4539,116.3844 1456.8133,116.525 Q1456.1727,116.6812 1455.4695,116.6812 Q1452.9695,116.6812 1451.6414,115.0406 Q1450.3289,113.3844 1450.3289,110.2594 Q1450.3289,107.1344 1451.6414,105.4781 Q1452.9695,103.8219 1455.4695,103.8219 Q1456.1727,103.8219 1456.8133,103.9781 Q1457.4695,104.1344 1458.032,104.4312 L1458.032,107.15 Q1457.407,106.5719 1456.8133,106.3062 Q1456.2195,106.025 1455.5945,106.025 Q1454.2508,106.025 1453.5633,107.1031 Q1452.8758,108.1656 1452.8758,110.2594 Q1452.8758,112.3531 1453.5633,113.4312 Q1454.2508,114.4937 1455.5945,114.4937 Q1456.2195,114.4937 1456.8133,114.2281 Q1457.407,113.9469 1458.032,113.3687 L1458.032,116.0875 Z " fill="#000000"/><text fill="#000000" font-family="sans-serif" font-size="14" lengthAdjust="spacing" textLength="181.2686" x="1469.6685" y="115.2936">OptionalGonioAngleStarts</text><line style="stroke:#181818;stroke-width:0.5;" x1="1438.34" x2="1655.6603" y1="126.4469" y2="126.4469"/><text fill="#000000" font-family="sans-serif" font-size="14" lengthAdjust="spacing" textLength="207.3203" x="1443.34" y="143.442">float | None omega_start_deg</text><text fill="#000000" font-family="sans-serif" font-size="14" lengthAdjust="spacing" textLength="180.6875" x="1443.34" y="159.7389">float | None phi_start_deg</text><text fill="#000000" font-family="sans-serif" font-size="14" lengthAdjust="spacing" textLength="179.498" x="1443.34" y="176.0357">float | None chi_start_deg</text><text fill="#000000" font-family="sans-serif" font-size="14" lengthAdjust="spacing" textLength="202.0771" x="1443.34" y="192.3326">float | None kappa_start_deg</text><line style="stroke:#181818;stroke-width:0.5;" x1="1438.34" x2="1655.6603" y1="199.6344" y2="199.6344"/></g><!--class DiffractionExperiment--><g class="entity" data-entity="DiffractionExperiment" data-source-line="57" data-uid="ent0015" id="entity_DiffractionExperiment"><rect fill="#F1F1F1" height="210.9688" rx="2.5" ry="2.5" style="stroke:#181818;stroke-width:0.5;" width="332.332" x="2640.83" y="275.7869"/><ellipse cx="2725.6127" cy="291.7869" fill="#ADD1B2" rx="11" ry="11" style="stroke:#181818;stroke-width:1;"/><path d="M2728.5815,297.4275 Q2728.0033,297.7244 2727.3627,297.865 Q2726.7221,298.0213 2726.019,298.0213 Q2723.519,298.0213 2722.1908,296.3806 Q2720.8783,294.7244 2720.8783,291.5994 Q2720.8783,288.4744 2722.1908,286.8181 Q2723.519,285.1619 2726.019,285.1619 Q2726.7221,285.1619 2727.3627,285.3181 Q2728.019,285.4744 2728.5815,285.7713 L2728.5815,288.49 Q2727.9565,287.9119 2727.3627,287.6463 Q2726.769,287.365 2726.144,287.365 Q2724.8002,287.365 2724.1127,288.4431 Q2723.4252,289.5056 2723.4252,291.5994 Q2723.4252,293.6931 2724.1127,294.7713 Q2724.8002,295.8338 2726.144,295.8338 Q2726.769,295.8338 2727.3627,295.5681 Q2727.9565,295.2869 2728.5815,294.7088 L2728.5815,297.4275 Z " fill="#000000"/><text fill="#000000" font-family="sans-serif" font-size="14" lengthAdjust="spacing" textLength="154.2666" x="2746.1127" y="296.6336">DiffractionExperiment</text><line style="stroke:#181818;stroke-width:0.5;" x1="2641.83" x2="2972.162" y1="307.7869" y2="307.7869"/><text fill="#000000" font-family="sans-serif" font-size="14" lengthAdjust="spacing" textLength="91.0137" x="2646.83" y="324.782">str file_name</text><text fill="#000000" font-family="sans-serif" font-size="14" lengthAdjust="spacing" textLength="153.7129" x="2646.83" y="341.0789">float exposure_time_s</text><text fill="#000000" font-family="sans-serif" font-size="14" lengthAdjust="spacing" textLength="89.5029" x="2646.83" y="357.3757">str comment</text><text fill="#000000" font-family="sans-serif" font-size="14" lengthAdjust="spacing" textLength="186.915" x="2646.83" y="373.6726">TriggerMode trigger_mode</text><text fill="#000000" font-family="sans-serif" font-size="14" lengthAdjust="spacing" textLength="157.9854" x="2646.83" y="389.9695">int | None run_number</text><text fill="#000000" font-family="sans-serif" font-size="14" lengthAdjust="spacing" textLength="282.3516" x="2646.83" y="406.2664">ApertureValue | None selected_aperture</text><text fill="#000000" font-family="sans-serif" font-size="14" lengthAdjust="spacing" textLength="159.2979" x="2646.83" y="422.5632">float transmission_frac</text><text fill="#000000" font-family="sans-serif" font-size="14" lengthAdjust="spacing" textLength="320.332" x="2646.83" y="438.8601">IspybExperimentType ispyb_experiment_type</text><text fill="#000000" font-family="sans-serif" font-size="14" lengthAdjust="spacing" textLength="146.1113" x="2646.83" y="455.157">str storage_directory</text><text fill="#000000" font-family="sans-serif" font-size="14" lengthAdjust="spacing" textLength="131.0518" x="2646.83" y="471.4539">bool use_roi_mode</text><line style="stroke:#181818;stroke-width:0.5;" x1="2641.83" x2="2972.162" y1="478.7556" y2="478.7556"/></g><!--class GridCommon--><g class="entity" data-entity="GridCommon" data-source-line="69" data-uid="ent0016" id="entity_GridCommon"><rect fill="#F1F1F1" height="145.7813" rx="2.5" ry="2.5" style="stroke:#181818;stroke-width:0.5;" width="332.332" x="2640.83" y="654.7569"/><ellipse cx="2756.5282" cy="670.7569" fill="#ADD1B2" rx="11" ry="11" style="stroke:#181818;stroke-width:1;"/><path d="M2759.497,676.3975 Q2758.9189,676.6944 2758.2782,676.835 Q2757.6376,676.9912 2756.9345,676.9912 Q2754.4345,676.9912 2753.1064,675.3506 Q2751.7939,673.6944 2751.7939,670.5694 Q2751.7939,667.4444 2753.1064,665.7881 Q2754.4345,664.1319 2756.9345,664.1319 Q2757.6376,664.1319 2758.2782,664.2881 Q2758.9345,664.4444 2759.497,664.7412 L2759.497,667.46 Q2758.872,666.8819 2758.2782,666.6162 Q2757.6845,666.335 2757.0595,666.335 Q2755.7157,666.335 2755.0282,667.4131 Q2754.3407,668.4756 2754.3407,670.5694 Q2754.3407,672.6631 2755.0282,673.7412 Q2755.7157,674.8037 2757.0595,674.8037 Q2757.6845,674.8037 2758.2782,674.5381 Q2758.872,674.2569 2759.497,673.6787 L2759.497,676.3975 Z " fill="#000000"/><text fill="#000000" font-family="sans-serif" font-size="14" lengthAdjust="spacing" textLength="92.4355" x="2777.0282" y="675.6036">GridCommon</text><line style="stroke:#181818;stroke-width:0.5;" x1="2641.83" x2="2972.162" y1="686.7569" y2="686.7569"/><text fill="#000000" font-family="sans-serif" font-size="14" lengthAdjust="spacing" textLength="125.2959" x="2646.83" y="703.752">float box_size_um</text><text fill="#000000" font-family="sans-serif" font-size="14" lengthAdjust="spacing" textLength="138.4209" x="2646.83" y="720.0489">float grid_width_um</text><text fill="#000000" font-family="sans-serif" font-size="14" lengthAdjust="spacing" textLength="153.7129" x="2646.83" y="736.3457">float exposure_time_s</text><text fill="#000000" font-family="sans-serif" font-size="14" lengthAdjust="spacing" textLength="320.332" x="2646.83" y="752.6426">IspybExperimentType ispyb_experiment_type</text><text fill="#000000" font-family="sans-serif" font-size="14" lengthAdjust="spacing" textLength="282.3516" x="2646.83" y="768.9395">ApertureValue | None selected_aperture</text><text fill="#000000" font-family="sans-serif" font-size="14" lengthAdjust="spacing" textLength="130.498" x="2646.83" y="785.2364">float tip_offset_um</text><line style="stroke:#181818;stroke-width:0.5;" x1="2641.83" x2="2972.162" y1="792.5381" y2="792.5381"/></g><!--class SpecifiedThreeDGridScan--><g class="entity" data-entity="SpecifiedThreeDGridScan" data-source-line="77" data-uid="ent0017" id="entity_SpecifiedThreeDGridScan"><rect fill="#F1F1F1" height="227.2656" rx="2.5" ry="2.5" style="stroke:#181818;stroke-width:0.5;" width="210.8965" x="2640.55" y="860.5369"/><ellipse cx="2655.55" cy="876.5369" fill="#ADD1B2" rx="11" ry="11" style="stroke:#181818;stroke-width:1;"/><path d="M2658.5188,882.1775 Q2657.9406,882.4744 2657.3,882.615 Q2656.6594,882.7713 2655.9563,882.7713 Q2653.4563,882.7713 2652.1281,881.1306 Q2650.8156,879.4744 2650.8156,876.3494 Q2650.8156,873.2244 2652.1281,871.5681 Q2653.4563,869.9119 2655.9563,869.9119 Q2656.6594,869.9119 2657.3,870.0681 Q2657.9563,870.2244 2658.5188,870.5213 L2658.5188,873.24 Q2657.8938,872.6619 2657.3,872.3963 Q2656.7063,872.115 2656.0813,872.115 Q2654.7375,872.115 2654.05,873.1931 Q2653.3625,874.2556 2653.3625,876.3494 Q2653.3625,878.4431 2654.05,879.5213 Q2654.7375,880.5838 2656.0813,880.5838 Q2656.7063,880.5838 2657.3,880.3181 Q2657.8938,880.0369 2658.5188,879.4588 L2658.5188,882.1775 Z " fill="#000000"/><text fill="#000000" font-family="sans-serif" font-size="14" lengthAdjust="spacing" textLength="178.8965" x="2669.55" y="881.3836">SpecifiedThreeDGridScan</text><line style="stroke:#181818;stroke-width:0.5;" x1="2641.55" x2="2850.4465" y1="892.5369" y2="892.5369"/><text fill="#000000" font-family="sans-serif" font-size="14" lengthAdjust="spacing" textLength="160.8975" x="2646.55" y="909.532">float grid1_omega_deg</text><text fill="#000000" font-family="sans-serif" font-size="14" lengthAdjust="spacing" textLength="160.8975" x="2646.55" y="925.8289">float grid2_omega_deg</text><text fill="#000000" font-family="sans-serif" font-size="14" lengthAdjust="spacing" textLength="145.127" x="2646.55" y="942.1257">float x_step_size_um</text><text fill="#000000" font-family="sans-serif" font-size="14" lengthAdjust="spacing" textLength="145.127" x="2646.55" y="958.4226">float y_step_size_um</text><text fill="#000000" font-family="sans-serif" font-size="14" lengthAdjust="spacing" textLength="144.1904" x="2646.55" y="974.7195">float z_step_size_um</text><text fill="#000000" font-family="sans-serif" font-size="14" lengthAdjust="spacing" textLength="122.2129" x="2646.55" y="991.0164">float y2_start_um</text><text fill="#000000" font-family="sans-serif" font-size="14" lengthAdjust="spacing" textLength="121.2764" x="2646.55" y="1007.3132">float z2_start_um</text><text fill="#000000" font-family="sans-serif" font-size="14" lengthAdjust="spacing" textLength="75.5645" x="2646.55" y="1023.6101">int x_steps</text><text fill="#000000" font-family="sans-serif" font-size="14" lengthAdjust="spacing" textLength="75.5645" x="2646.55" y="1039.907">int y_steps</text><text fill="#000000" font-family="sans-serif" font-size="14" lengthAdjust="spacing" textLength="74.6279" x="2646.55" y="1056.2039">int z_steps</text><text fill="#000000" font-family="sans-serif" font-size="14" lengthAdjust="spacing" textLength="154.4102" x="2646.55" y="1072.5007">bool _set_stub_offsets</text><line style="stroke:#181818;stroke-width:0.5;" x1="2641.55" x2="2850.4465" y1="1079.8025" y2="1079.8025"/></g><!--class MxBlueskyParameters--><g class="entity" data-entity="MxBlueskyParameters" data-source-line="90" data-uid="ent0018" id="entity_MxBlueskyParameters"><rect fill="#F1F1F1" height="64.2969" rx="2.5" ry="2.5" style="stroke:#181818;stroke-width:0.5;" width="317.4639" x="2653.27" y="118.8969"/><ellipse cx="2729.8564" cy="134.8969" fill="#ADD1B2" rx="11" ry="11" style="stroke:#181818;stroke-width:1;"/><path d="M2732.8252,140.5375 Q2732.2471,140.8344 2731.6064,140.975 Q2730.9658,141.1312 2730.2627,141.1312 Q2727.7627,141.1312 2726.4346,139.4906 Q2725.1221,137.8344 2725.1221,134.7094 Q2725.1221,131.5844 2726.4346,129.9281 Q2727.7627,128.2719 2730.2627,128.2719 Q2730.9658,128.2719 2731.6064,128.4281 Q2732.2627,128.5844 2732.8252,128.8812 L2732.8252,131.6 Q2732.2002,131.0219 2731.6064,130.7562 Q2731.0127,130.475 2730.3877,130.475 Q2729.0439,130.475 2728.3564,131.5531 Q2727.6689,132.6156 2727.6689,134.7094 Q2727.6689,136.8031 2728.3564,137.8812 Q2729.0439,138.9437 2730.3877,138.9437 Q2731.0127,138.9437 2731.6064,138.6781 Q2732.2002,138.3969 2732.8252,137.8187 L2732.8252,140.5375 Z " fill="#000000"/><text fill="#000000" font-family="sans-serif" font-size="14" lengthAdjust="spacing" textLength="155.791" x="2750.3564" y="139.7436">MxBlueskyParameters</text><line style="stroke:#181818;stroke-width:0.5;" x1="2654.27" x2="2969.7339" y1="150.8969" y2="150.8969"/><text fill="#000000" font-family="sans-serif" font-size="14" lengthAdjust="spacing" textLength="305.4639" x="2659.27" y="167.892">SemanticVersion parameter_model_version</text><line style="stroke:#181818;stroke-width:0.5;" x1="2654.27" x2="2969.7339" y1="175.1937" y2="175.1937"/></g><!--class DiffractionExperimentWithSample--><g class="entity" data-entity="DiffractionExperimentWithSample" data-source-line="93" data-uid="ent0019" id="entity_DiffractionExperimentWithSample"><rect fill="#F1F1F1" height="48" rx="2.5" ry="2.5" style="stroke:#181818;stroke-width:0.5;" width="270.8545" x="2671.57" y="546.7569"/><ellipse cx="2686.57" cy="562.7569" fill="#ADD1B2" rx="11" ry="11" style="stroke:#181818;stroke-width:1;"/><path d="M2689.5388,568.3975 Q2688.9606,568.6944 2688.32,568.835 Q2687.6794,568.9912 2686.9763,568.9912 Q2684.4763,568.9912 2683.1481,567.3506 Q2681.8356,565.6944 2681.8356,562.5694 Q2681.8356,559.4444 2683.1481,557.7881 Q2684.4763,556.1319 2686.9763,556.1319 Q2687.6794,556.1319 2688.32,556.2881 Q2688.9763,556.4444 2689.5388,556.7412 L2689.5388,559.46 Q2688.9138,558.8819 2688.32,558.6162 Q2687.7263,558.335 2687.1013,558.335 Q2685.7575,558.335 2685.07,559.4131 Q2684.3825,560.4756 2684.3825,562.5694 Q2684.3825,564.6631 2685.07,565.7412 Q2685.7575,566.8037 2687.1013,566.8037 Q2687.7263,566.8037 2688.32,566.5381 Q2688.9138,566.2569 2689.5388,565.6787 L2689.5388,568.3975 Z " fill="#000000"/><text fill="#000000" font-family="sans-serif" font-size="14" lengthAdjust="spacing" textLength="238.8545" x="2700.57" y="567.6036">DiffractionExperimentWithSample</text><line style="stroke:#181818;stroke-width:0.5;" x1="2672.57" x2="2941.4245" y1="578.7569" y2="578.7569"/><line style="stroke:#181818;stroke-width:0.5;" x1="2672.57" x2="2941.4245" y1="586.7569" y2="586.7569"/></g><!--class WithHyperionUDCFeatures--><g class="entity" data-entity="WithHyperionUDCFeatures" data-source-line="98" data-uid="ent0021" id="entity_WithHyperionUDCFeatures"><rect fill="#F1F1F1" height="64.2969" rx="2.5" ry="2.5" style="stroke:#181818;stroke-width:0.5;" width="228.6719" x="3329.66" y="695.4969"/><ellipse cx="3348.7583" cy="711.4969" fill="#ADD1B2" rx="11" ry="11" style="stroke:#181818;stroke-width:1;"/><path d="M3351.7271,717.1375 Q3351.149,717.4344 3350.5083,717.575 Q3349.8677,717.7312 3349.1646,717.7312 Q3346.6646,717.7312 3345.3365,716.0906 Q3344.024,714.4344 3344.024,711.3094 Q3344.024,708.1844 3345.3365,706.5281 Q3346.6646,704.8719 3349.1646,704.8719 Q3349.8677,704.8719 3350.5083,705.0281 Q3351.1646,705.1844 3351.7271,705.4812 L3351.7271,708.2 Q3351.1021,707.6219 3350.5083,707.3562 Q3349.9146,707.075 3349.2896,707.075 Q3347.9458,707.075 3347.2583,708.1531 Q3346.5708,709.2156 3346.5708,711.3094 Q3346.5708,713.4031 3347.2583,714.4812 Q3347.9458,715.5437 3349.2896,715.5437 Q3349.9146,715.5437 3350.5083,715.2781 Q3351.1021,714.9969 3351.7271,714.4187 L3351.7271,717.1375 Z " fill="#000000"/><text fill="#000000" font-family="sans-serif" font-size="14" lengthAdjust="spacing" textLength="187.5645" x="3363.6691" y="716.3436">WithHyperionUDCFeatures</text><line style="stroke:#181818;stroke-width:0.5;" x1="3330.66" x2="3557.3319" y1="727.4969" y2="727.4969"/><text fill="#000000" font-family="sans-serif" font-size="14" lengthAdjust="spacing" textLength="216.6719" x="3335.66" y="744.492">HyperionFeatureFlags features</text><line style="stroke:#181818;stroke-width:0.5;" x1="3330.66" x2="3557.3319" y1="751.7937" y2="751.7937"/></g><!--class RotationScanPerSweep--><g class="entity" data-entity="RotationScanPerSweep" data-source-line="101" data-uid="ent0022" id="entity_RotationScanPerSweep"><rect fill="#F1F1F1" height="129.4844" rx="2.5" ry="2.5" style="stroke:#181818;stroke-width:0.5;" width="263.0498" x="4529.48" y="909.4269"/><ellipse cx="4575.5166" cy="925.4269" fill="#ADD1B2" rx="11" ry="11" style="stroke:#181818;stroke-width:1;"/><path d="M4578.4854,931.0675 Q4577.9072,931.3644 4577.2666,931.505 Q4576.626,931.6612 4575.9229,931.6612 Q4573.4229,931.6612 4572.0947,930.0206 Q4570.7822,928.3644 4570.7822,925.2394 Q4570.7822,922.1144 4572.0947,920.4581 Q4573.4229,918.8019 4575.9229,918.8019 Q4576.626,918.8019 4577.2666,918.9581 Q4577.9229,919.1144 4578.4854,919.4112 L4578.4854,922.13 Q4577.8604,921.5519 4577.2666,921.2862 Q4576.6729,921.005 4576.0479,921.005 Q4574.7041,921.005 4574.0166,922.0831 Q4573.3291,923.1456 4573.3291,925.2394 Q4573.3291,927.3331 4574.0166,928.4112 Q4574.7041,929.4737 4576.0479,929.4737 Q4576.6729,929.4737 4577.2666,929.2081 Q4577.8604,928.9269 4578.4854,928.3487 L4578.4854,931.0675 Z " fill="#000000"/><text fill="#000000" font-family="sans-serif" font-size="14" lengthAdjust="spacing" textLength="162.4766" x="4596.0166" y="930.2736">RotationScanPerSweep</text><line style="stroke:#181818;stroke-width:0.5;" x1="4530.48" x2="4791.5298" y1="941.4269" y2="941.4269"/><text fill="#000000" font-family="sans-serif" font-size="14" lengthAdjust="spacing" textLength="157.1787" x="4535.48" y="958.422">float omega_start_deg</text><text fill="#000000" font-family="sans-serif" font-size="14" lengthAdjust="spacing" textLength="182.9297" x="4535.48" y="974.7189">RotationAxis rotation_axis</text><text fill="#000000" font-family="sans-serif" font-size="14" lengthAdjust="spacing" textLength="147.3213" x="4535.48" y="991.0157">float scan_width_deg</text><text fill="#000000" font-family="sans-serif" font-size="14" lengthAdjust="spacing" textLength="251.0498" x="4535.48" y="1007.3126">RotationDirection rotation_direction</text><text fill="#000000" font-family="sans-serif" font-size="14" lengthAdjust="spacing" textLength="169.1279" x="4535.48" y="1023.6095">int nexus_vds_start_img</text><line style="stroke:#181818;stroke-width:0.5;" x1="4530.48" x2="4791.5298" y1="1030.9112" y2="1030.9112"/></g><!--class GridCommonWithHyperionDetectorParams--><g class="entity" data-entity="GridCommonWithHyperionDetectorParams" data-source-line="108" data-uid="ent0023" id="entity_GridCommonWithHyperionDetectorParams"><rect fill="#F1F1F1" height="48" rx="2.5" ry="2.5" style="stroke:#181818;stroke-width:0.5;" width="333.2188" x="3037.39" y="950.1669"/><ellipse cx="3052.39" cy="966.1669" fill="#ADD1B2" rx="11" ry="11" style="stroke:#181818;stroke-width:1;"/><path d="M3055.3588,971.8075 Q3054.7806,972.1044 3054.14,972.245 Q3053.4994,972.4012 3052.7963,972.4012 Q3050.2963,972.4012 3048.9681,970.7606 Q3047.6556,969.1044 3047.6556,965.9794 Q3047.6556,962.8544 3048.9681,961.1981 Q3050.2963,959.5419 3052.7963,959.5419 Q3053.4994,959.5419 3054.14,959.6981 Q3054.7963,959.8544 3055.3588,960.1512 L3055.3588,962.87 Q3054.7338,962.2919 3054.14,962.0262 Q3053.5463,961.745 3052.9213,961.745 Q3051.5775,961.745 3050.89,962.8231 Q3050.2025,963.8856 3050.2025,965.9794 Q3050.2025,968.0731 3050.89,969.1512 Q3051.5775,970.2137 3052.9213,970.2137 Q3053.5463,970.2137 3054.14,969.9481 Q3054.7338,969.6669 3055.3588,969.0887 L3055.3588,971.8075 Z " fill="#000000"/><text fill="#000000" font-family="sans-serif" font-size="14" lengthAdjust="spacing" textLength="301.2188" x="3066.39" y="971.0136">GridCommonWithHyperionDetectorParams</text><line style="stroke:#181818;stroke-width:0.5;" x1="3038.39" x2="3369.6088" y1="982.1669" y2="982.1669"/><line style="stroke:#181818;stroke-width:0.5;" x1="3038.39" x2="3369.6088" y1="990.1669" y2="990.1669"/></g><!--class RotationScan--><g class="entity" data-entity="RotationScan" data-source-line="110" data-uid="ent0024" id="entity_RotationScan"><rect fill="#F1F1F1" height="48" rx="2.5" ry="2.5" style="stroke:#181818;stroke-width:0.5;" width="125.2148" x="4092.39" y="1155.9469"/><ellipse cx="4107.39" cy="1171.9469" fill="#ADD1B2" rx="11" ry="11" style="stroke:#181818;stroke-width:1;"/><path d="M4110.3588,1177.5875 Q4109.7806,1177.8844 4109.14,1178.025 Q4108.4994,1178.1812 4107.7963,1178.1812 Q4105.2963,1178.1812 4103.9681,1176.5406 Q4102.6556,1174.8844 4102.6556,1171.7594 Q4102.6556,1168.6344 4103.9681,1166.9781 Q4105.2963,1165.3219 4107.7963,1165.3219 Q4108.4994,1165.3219 4109.14,1165.4781 Q4109.7963,1165.6344 4110.3588,1165.9312 L4110.3588,1168.65 Q4109.7338,1168.0719 4109.14,1167.8062 Q4108.5463,1167.525 4107.9213,1167.525 Q4106.5775,1167.525 4105.89,1168.6031 Q4105.2025,1169.6656 4105.2025,1171.7594 Q4105.2025,1173.8531 4105.89,1174.9312 Q4106.5775,1175.9937 4107.9213,1175.9937 Q4108.5463,1175.9937 4109.14,1175.7281 Q4109.7338,1175.4469 4110.3588,1174.8687 L4110.3588,1177.5875 Z " fill="#000000"/><text fill="#000000" font-family="sans-serif" font-size="14" lengthAdjust="spacing" textLength="93.2148" x="4121.39" y="1176.7936">RotationScan</text><line style="stroke:#181818;stroke-width:0.5;" x1="4093.39" x2="4216.6048" y1="1187.9469" y2="1187.9469"/><line style="stroke:#181818;stroke-width:0.5;" x1="4093.39" x2="4216.6048" y1="1195.9469" y2="1195.9469"/></g><!--class LoadCentreCollect--><g class="entity" data-entity="LoadCentreCollect" data-source-line="112" data-uid="ent0025" id="entity_LoadCentreCollect"><rect fill="#F1F1F1" height="80.5938" rx="2.5" ry="2.5" style="stroke:#181818;stroke-width:0.5;" width="338.6211" x="4155.69" y="933.8669"/><ellipse cx="4256.315" cy="949.8669" fill="#ADD1B2" rx="11" ry="11" style="stroke:#181818;stroke-width:1;"/><path d="M4259.2838,955.5075 Q4258.7056,955.8044 4258.065,955.945 Q4257.4244,956.1012 4256.7213,956.1012 Q4254.2213,956.1012 4252.8931,954.4606 Q4251.5806,952.8044 4251.5806,949.6794 Q4251.5806,946.5544 4252.8931,944.8981 Q4254.2213,943.2419 4256.7213,943.2419 Q4257.4244,943.2419 4258.065,943.3981 Q4258.7213,943.5544 4259.2838,943.8512 L4259.2838,946.57 Q4258.6588,945.9919 4258.065,945.7262 Q4257.4713,945.445 4256.8463,945.445 Q4255.5025,945.445 4254.815,946.5231 Q4254.1275,947.5856 4254.1275,949.6794 Q4254.1275,951.7731 4254.815,952.8512 Q4255.5025,953.9137 4256.8463,953.9137 Q4257.4713,953.9137 4258.065,953.6481 Q4258.6588,953.3669 4259.2838,952.7887 L4259.2838,955.5075 Z " fill="#000000"/><text fill="#000000" font-family="sans-serif" font-size="14" lengthAdjust="spacing" textLength="128.8711" x="4276.815" y="954.7136">LoadCentreCollect</text><line style="stroke:#181818;stroke-width:0.5;" x1="4156.69" x2="4493.3111" y1="965.8669" y2="965.8669"/><text fill="#000000" font-family="sans-serif" font-size="14" lengthAdjust="spacing" textLength="326.6211" x="4161.69" y="982.862">RobotLoadThenCentre robot_load_then_centre</text><text fill="#000000" font-family="sans-serif" font-size="14" lengthAdjust="spacing" textLength="269.3154" x="4161.69" y="999.1589">MultiRotationScan multi_rotation_scan</text><line style="stroke:#181818;stroke-width:0.5;" x1="4156.69" x2="4493.3111" y1="1006.4606" y2="1006.4606"/></g><!--class HyperionSpecifiedThreeDGridScan--><g class="entity" data-entity="HyperionSpecifiedThreeDGridScan" data-source-line="116" data-uid="ent0026" id="entity_HyperionSpecifiedThreeDGridScan"><rect fill="#F1F1F1" height="48" rx="2.5" ry="2.5" style="stroke:#181818;stroke-width:0.5;" width="274.293" x="3846.85" y="950.1669"/><ellipse cx="3861.85" cy="966.1669" fill="#ADD1B2" rx="11" ry="11" style="stroke:#181818;stroke-width:1;"/><path d="M3864.8188,971.8075 Q3864.2406,972.1044 3863.6,972.245 Q3862.9594,972.4012 3862.2563,972.4012 Q3859.7563,972.4012 3858.4281,970.7606 Q3857.1156,969.1044 3857.1156,965.9794 Q3857.1156,962.8544 3858.4281,961.1981 Q3859.7563,959.5419 3862.2563,959.5419 Q3862.9594,959.5419 3863.6,959.6981 Q3864.2563,959.8544 3864.8188,960.1512 L3864.8188,962.87 Q3864.1938,962.2919 3863.6,962.0262 Q3863.0063,961.745 3862.3813,961.745 Q3861.0375,961.745 3860.35,962.8231 Q3859.6625,963.8856 3859.6625,965.9794 Q3859.6625,968.0731 3860.35,969.1512 Q3861.0375,970.2137 3862.3813,970.2137 Q3863.0063,970.2137 3863.6,969.9481 Q3864.1938,969.6669 3864.8188,969.0887 L3864.8188,971.8075 Z " fill="#000000"/><text fill="#000000" font-family="sans-serif" font-size="14" lengthAdjust="spacing" textLength="242.293" x="3875.85" y="971.0136">HyperionSpecifiedThreeDGridScan</text><line style="stroke:#181818;stroke-width:0.5;" x1="3847.85" x2="4120.143" y1="982.1669" y2="982.1669"/><line style="stroke:#181818;stroke-width:0.5;" x1="3847.85" x2="4120.143" y1="990.1669" y2="990.1669"/></g><!--class RotationExperiment--><g class="entity" data-entity="RotationExperiment" data-source-line="118" data-uid="ent0027" id="entity_RotationExperiment"><rect fill="#F1F1F1" height="96.8906" rx="2.5" ry="2.5" style="stroke:#181818;stroke-width:0.5;" width="332.332" x="3479.83" y="925.7269"/><ellipse cx="3571.7118" cy="941.7269" fill="#ADD1B2" rx="11" ry="11" style="stroke:#181818;stroke-width:1;"/><path d="M3574.6806,947.3675 Q3574.1025,947.6644 3573.4618,947.805 Q3572.8212,947.9613 3572.1181,947.9613 Q3569.6181,947.9613 3568.29,946.3206 Q3566.9775,944.6644 3566.9775,941.5394 Q3566.9775,938.4144 3568.29,936.7581 Q3569.6181,935.1019 3572.1181,935.1019 Q3572.8212,935.1019 3573.4618,935.2581 Q3574.1181,935.4144 3574.6806,935.7113 L3574.6806,938.43 Q3574.0556,937.8519 3573.4618,937.5863 Q3572.8681,937.305 3572.2431,937.305 Q3570.8993,937.305 3570.2118,938.3831 Q3569.5243,939.4456 3569.5243,941.5394 Q3569.5243,943.6331 3570.2118,944.7113 Q3570.8993,945.7738 3572.2431,945.7738 Q3572.8681,945.7738 3573.4618,945.5081 Q3574.0556,945.2269 3574.6806,944.6488 L3574.6806,947.3675 Z " fill="#000000"/><text fill="#000000" font-family="sans-serif" font-size="14" lengthAdjust="spacing" textLength="140.0684" x="3592.2118" y="946.5736">RotationExperiment</text><line style="stroke:#181818;stroke-width:0.5;" x1="3480.83" x2="3811.162" y1="957.7269" y2="957.7269"/><text fill="#000000" font-family="sans-serif" font-size="14" lengthAdjust="spacing" textLength="202.8018" x="3485.83" y="974.722">float shutter_opening_time_s</text><text fill="#000000" font-family="sans-serif" font-size="14" lengthAdjust="spacing" textLength="202.9385" x="3485.83" y="991.0189">float rotation_increment_deg</text><text fill="#000000" font-family="sans-serif" font-size="14" lengthAdjust="spacing" textLength="320.332" x="3485.83" y="1007.3157">IspybExperimentType ispyb_experiment_type</text><line style="stroke:#181818;stroke-width:0.5;" x1="3480.83" x2="3811.162" y1="1014.6175" y2="1014.6175"/></g><!--class MultiRotationScan--><g class="entity" data-entity="MultiRotationScan" data-source-line="123" data-uid="ent0028" id="entity_MultiRotationScan"><rect fill="#F1F1F1" height="64.2969" rx="2.5" ry="2.5" style="stroke:#181818;stroke-width:0.5;" width="540.001" x="4253" y="1147.7969"/><ellipse cx="4455.0327" cy="1163.7969" fill="#ADD1B2" rx="11" ry="11" style="stroke:#181818;stroke-width:1;"/><path d="M4458.0015,1169.4375 Q4457.4233,1169.7344 4456.7827,1169.875 Q4456.1421,1170.0313 4455.439,1170.0313 Q4452.939,1170.0313 4451.6108,1168.3906 Q4450.2983,1166.7344 4450.2983,1163.6094 Q4450.2983,1160.4844 4451.6108,1158.8281 Q4452.939,1157.1719 4455.439,1157.1719 Q4456.1421,1157.1719 4456.7827,1157.3281 Q4457.439,1157.4844 4458.0015,1157.7813 L4458.0015,1160.5 Q4457.3765,1159.9219 4456.7827,1159.6563 Q4456.189,1159.375 4455.564,1159.375 Q4454.2202,1159.375 4453.5327,1160.4531 Q4452.8452,1161.5156 4452.8452,1163.6094 Q4452.8452,1165.7031 4453.5327,1166.7813 Q4454.2202,1167.8438 4455.564,1167.8438 Q4456.189,1167.8438 4456.7827,1167.5781 Q4457.3765,1167.2969 4458.0015,1166.7188 L4458.0015,1169.4375 Z " fill="#000000"/><text fill="#000000" font-family="sans-serif" font-size="14" lengthAdjust="spacing" textLength="127.4355" x="4475.5327" y="1168.6436">MultiRotationScan</text><line style="stroke:#181818;stroke-width:0.5;" x1="4254" x2="4792.001" y1="1179.7969" y2="1179.7969"/><line style="stroke:#181818;stroke-width:0.5;" x1="4254" x2="4792.001" y1="1187.7969" y2="1187.7969"/><text fill="#000000" font-family="sans-serif" font-size="14" lengthAdjust="spacing" textLength="528.001" x="4259" y="1204.792">Annotated[list[RotationScanPerSweep], Len(min_length=1)] rotation_scans</text></g><!--class PinTipCentreThenXrayCentre--><g class="entity" data-entity="PinTipCentreThenXrayCentre" data-source-line="126" data-uid="ent0029" id="entity_PinTipCentreThenXrayCentre"><rect fill="#F1F1F1" height="64.2969" rx="2.5" ry="2.5" style="stroke:#181818;stroke-width:0.5;" width="235.8955" x="3077.05" y="1147.7969"/><ellipse cx="3092.05" cy="1163.7969" fill="#ADD1B2" rx="11" ry="11" style="stroke:#181818;stroke-width:1;"/><path d="M3095.0188,1169.4375 Q3094.4406,1169.7344 3093.8,1169.875 Q3093.1594,1170.0313 3092.4563,1170.0313 Q3089.9563,1170.0313 3088.6281,1168.3906 Q3087.3156,1166.7344 3087.3156,1163.6094 Q3087.3156,1160.4844 3088.6281,1158.8281 Q3089.9563,1157.1719 3092.4563,1157.1719 Q3093.1594,1157.1719 3093.8,1157.3281 Q3094.4563,1157.4844 3095.0188,1157.7813 L3095.0188,1160.5 Q3094.3938,1159.9219 3093.8,1159.6563 Q3093.2063,1159.375 3092.5813,1159.375 Q3091.2375,1159.375 3090.55,1160.4531 Q3089.8625,1161.5156 3089.8625,1163.6094 Q3089.8625,1165.7031 3090.55,1166.7813 Q3091.2375,1167.8438 3092.5813,1167.8438 Q3093.2063,1167.8438 3093.8,1167.5781 Q3094.3938,1167.2969 3095.0188,1166.7188 L3095.0188,1169.4375 Z " fill="#000000"/><text fill="#000000" font-family="sans-serif" font-size="14" lengthAdjust="spacing" textLength="203.8955" x="3106.05" y="1168.6436">PinTipCentreThenXrayCentre</text><line style="stroke:#181818;stroke-width:0.5;" x1="3078.05" x2="3311.9455" y1="1179.7969" y2="1179.7969"/><text fill="#000000" font-family="sans-serif" font-size="14" lengthAdjust="spacing" textLength="130.498" x="3083.05" y="1196.792">float tip_offset_um</text><line style="stroke:#181818;stroke-width:0.5;" x1="3078.05" x2="3311.9455" y1="1204.0938" y2="1204.0938"/></g><!--class GridScanWithEdgeDetect--><g class="entity" data-entity="GridScanWithEdgeDetect" data-source-line="129" data-uid="ent0030" id="entity_GridScanWithEdgeDetect"><rect fill="#F1F1F1" height="48" rx="2.5" ry="2.5" style="stroke:#181818;stroke-width:0.5;" width="209.4268" x="3348.29" y="1155.9469"/><ellipse cx="3363.29" cy="1171.9469" fill="#ADD1B2" rx="11" ry="11" style="stroke:#181818;stroke-width:1;"/><path d="M3366.2588,1177.5875 Q3365.6806,1177.8844 3365.04,1178.025 Q3364.3994,1178.1812 3363.6963,1178.1812 Q3361.1963,1178.1812 3359.8681,1176.5406 Q3358.5556,1174.8844 3358.5556,1171.7594 Q3358.5556,1168.6344 3359.8681,1166.9781 Q3361.1963,1165.3219 3363.6963,1165.3219 Q3364.3994,1165.3219 3365.04,1165.4781 Q3365.6963,1165.6344 3366.2588,1165.9312 L3366.2588,1168.65 Q3365.6338,1168.0719 3365.04,1167.8062 Q3364.4463,1167.525 3363.8213,1167.525 Q3362.4775,1167.525 3361.79,1168.6031 Q3361.1025,1169.6656 3361.1025,1171.7594 Q3361.1025,1173.8531 3361.79,1174.9312 Q3362.4775,1175.9937 3363.8213,1175.9937 Q3364.4463,1175.9937 3365.04,1175.7281 Q3365.6338,1175.4469 3366.2588,1174.8687 L3366.2588,1177.5875 Z " fill="#000000"/><text fill="#000000" font-family="sans-serif" font-size="14" lengthAdjust="spacing" textLength="177.4268" x="3377.29" y="1176.7936">GridScanWithEdgeDetect</text><line style="stroke:#181818;stroke-width:0.5;" x1="3349.29" x2="3556.7168" y1="1187.9469" y2="1187.9469"/><line style="stroke:#181818;stroke-width:0.5;" x1="3349.29" x2="3556.7168" y1="1195.9469" y2="1195.9469"/></g><!--reverse link GridCommon to SpecifiedThreeDGridScan--><g class="link" data-entity-1="GridCommon" data-entity-2="SpecifiedThreeDGridScan" data-source-line="132" data-uid="lnk31" id="link_GridCommon_SpecifiedThreeDGridScan"><path codeLine="132" d="M2784.591,818.4811 C2779.951,837.0711 2779.21,840.0569 2774.19,860.1669" fill="none" id="GridCommon-backto-SpecifiedThreeDGridScan" style="stroke:#181818;stroke-width:1;"/><polygon fill="none" points="2788.95,801.0169,2778.7696,817.0281,2790.4124,819.9341,2788.95,801.0169" style="stroke:#181818;stroke-width:1;"/></g><!--reverse link SpecifiedGrid to SpecifiedThreeDGridScan--><g class="link" data-entity-1="SpecifiedGrid" data-entity-2="SpecifiedThreeDGridScan" data-source-line="133" data-uid="lnk32" id="link_SpecifiedGrid_SpecifiedThreeDGridScan"><path codeLine="133" d="M1058.9046,422.8055 C1082.9246,495.8255 1161.6,703.0769 1318,800.5369 C1539.08,938.2969 2348.2,966.1769 2640.1,971.7769" fill="none" id="SpecifiedGrid-backto-SpecifiedThreeDGridScan" style="stroke:#181818;stroke-width:1;"/><polygon fill="none" points="1053.28,405.7069,1053.2051,424.6804,1064.6042,420.9306,1053.28,405.7069" style="stroke:#181818;stroke-width:1;"/></g><!--reverse link SplitScan to SpecifiedThreeDGridScan--><g class="link" data-entity-1="SplitScan" data-entity-2="SpecifiedThreeDGridScan" data-source-line="134" data-uid="lnk33" id="link_SplitScan_SpecifiedThreeDGridScan"><path codeLine="134" d="M1775.8396,187.9327 C1788.2996,200.2527 1791.31,202.8169 1806,215.7869 C2098.85,474.2469 2463.52,757.8069 2640.21,892.9269" fill="none" id="SplitScan-backto-SpecifiedThreeDGridScan" style="stroke:#181818;stroke-width:1;"/><polygon fill="none" points="1763.04,175.2769,1771.621,192.1992,1780.0582,183.6661,1763.04,175.2769" style="stroke:#181818;stroke-width:1;"/></g><!--reverse link WithOptionalEnergyChange to SpecifiedThreeDGridScan--><g class="link" data-entity-1="WithOptionalEnergyChange" data-entity-2="SpecifiedThreeDGridScan" data-source-line="135" data-uid="lnk34" id="link_WithOptionalEnergyChange_SpecifiedThreeDGridScan"><path codeLine="135" d="M379.484,191.8172 C403.254,203.9072 415.73,208.4069 443,215.7869 C737.14,295.4069 830.7,200.5969 1126,275.7869 C1691.68,419.8169 1792.85,572.0469 2330,800.5369 C2435.23,845.2969 2556,895.2569 2640.21,929.8669" fill="none" id="WithOptionalEnergyChange-backto-SpecifiedThreeDGridScan" style="stroke:#181818;stroke-width:1;"/><polygon fill="none" points="363.44,183.6569,376.7638,197.1652,382.2041,186.4692,363.44,183.6569" style="stroke:#181818;stroke-width:1;"/></g><!--reverse link WithPandaGridScan to WithHyperionUDCFeatures--><g class="link" data-entity-1="WithPandaGridScan" data-entity-2="WithHyperionUDCFeatures" data-source-line="136" data-uid="lnk35" id="link_WithPandaGridScan_WithHyperionUDCFeatures"><path codeLine="136" d="M2016.0991,191.6678 C2040.5191,203.9178 2053.87,208.6169 2082,215.7869 C2277.75,265.6369 2804.84,192.7869 2989,275.7869 C3199.88,370.8269 3368.45,609.0669 3424.25,695.0569" fill="none" id="WithPandaGridScan-backto-WithHyperionUDCFeatures" style="stroke:#181818;stroke-width:1;"/><polygon fill="none" points="2000.01,183.5969,2013.4088,197.0308,2018.7894,186.3048,2000.01,183.5969" style="stroke:#181818;stroke-width:1;"/></g><!--reverse link MxBlueskyParameters to DiffractionExperiment--><g class="link" data-entity-1="MxBlueskyParameters" data-entity-2="DiffractionExperiment" data-source-line="137" data-uid="lnk36" id="link_MxBlueskyParameters_DiffractionExperiment"><path codeLine="137" d="M2810.9224,201.2925 C2810.3924,225.2825 2810.03,241.8769 2809.3,275.3969" fill="none" id="MxBlueskyParameters-backto-DiffractionExperiment" style="stroke:#181818;stroke-width:1;"/><polygon fill="none" points="2811.32,183.2969,2804.9239,201.16,2816.921,201.425,2811.32,183.2969" style="stroke:#181818;stroke-width:1;"/></g><!--reverse link WithSnapshot to DiffractionExperiment--><g class="link" data-entity-1="WithSnapshot" data-entity-2="DiffractionExperiment" data-source-line="138" data-uid="lnk37" id="link_WithSnapshot_DiffractionExperiment"><path codeLine="138" d="M918.6657,198.3138 C943.0357,207.9638 953.26,210.4169 979,215.7869 C1339.05,290.8569 2280.4,171.1369 2633,275.7869 C2635.45,276.5069 2637.9,277.2769 2640.35,278.0869" fill="none" id="WithSnapshot-backto-DiffractionExperiment" style="stroke:#181818;stroke-width:1;"/><polygon fill="none" points="901.93,191.6869,916.4567,203.8924,920.8747,192.7353,901.93,191.6869" style="stroke:#181818;stroke-width:1;"/></g><!--reverse link WithOptionalEnergyChange to DiffractionExperiment--><g class="link" data-entity-1="WithOptionalEnergyChange" data-entity-2="DiffractionExperiment" data-source-line="139" data-uid="lnk38" id="link_WithOptionalEnergyChange_DiffractionExperiment"><path codeLine="139" d="M377.5843,191.9229 C401.6343,204.4129 414.89,209.0769 443,215.7869 C916.55,328.7969 2165.66,139.3269 2633,275.7869 C2635.45,276.4969 2637.91,277.2569 2640.36,278.0569" fill="none" id="WithOptionalEnergyChange-backto-DiffractionExperiment" style="stroke:#181818;stroke-width:1;"/><polygon fill="none" points="361.61,183.6269,374.8189,197.2476,380.3496,186.5981,361.61,183.6269" style="stroke:#181818;stroke-width:1;"/></g><!--reverse link WithVisit to DiffractionExperiment--><g class="link" data-entity-1="WithVisit" data-entity-2="DiffractionExperiment" data-source-line="140" data-uid="lnk39" id="link_WithVisit_DiffractionExperiment"><path codeLine="140" d="M1419.3829,216.1228 C1425.3929,217.8328 1414.07,214.4569 1420,215.7869 C1946.65,334.0669 2116.56,118.7969 2633,275.7869 C2635.53,276.5569 2638.06,277.3669 2640.59,278.2169" fill="none" id="WithVisit-backto-DiffractionExperiment" style="stroke:#181818;stroke-width:1;"/><polygon fill="none" points="1402.07,211.1969,1417.7409,221.8938,1421.0248,210.3519,1402.07,211.1969" style="stroke:#181818;stroke-width:1;"/></g><!--reverse link XyzStarts to SpecifiedGrid--><g class="link" data-entity-1="XyzStarts" data-entity-2="SpecifiedGrid" data-source-line="141" data-uid="lnk40" id="link_XyzStarts_SpecifiedGrid"><path codeLine="141" d="M160.4454,210.1372 C169.1154,216.2572 163.64,211.4969 173,215.7869 C455.72,345.2769 834.63,372.8269 982.84,378.6869" fill="none" id="XyzStarts-backto-SpecifiedGrid" style="stroke:#181818;stroke-width:1;"/><polygon fill="none" points="145.74,199.7569,156.9853,215.039,163.9055,205.2354,145.74,199.7569" style="stroke:#181818;stroke-width:1;"/></g><!--reverse link WithScan to SpecifiedGrid--><g class="link" data-entity-1="WithScan" data-entity-2="SpecifiedGrid" data-source-line="142" data-uid="lnk41" id="link_WithScan_SpecifiedGrid"><path codeLine="142" d="M1046,193.1769 C1046,236.9269 1046,313.2769 1046,357.0669" fill="none" id="WithScan-backto-SpecifiedGrid" style="stroke:#181818;stroke-width:1;"/><polygon fill="none" points="1046,175.1769,1040,193.1769,1052,193.1769,1046,175.1769" style="stroke:#181818;stroke-width:1;"/></g><!--reverse link DiffractionExperimentWithSample to GridCommon--><g class="link" data-entity-1="DiffractionExperimentWithSample" data-entity-2="GridCommon" data-source-line="143" data-uid="lnk42" id="link_DiffractionExperimentWithSample_GridCommon"><path codeLine="143" d="M2807,612.9369 C2807,628.8969 2807,633.0169 2807,654.5769" fill="none" id="DiffractionExperimentWithSample-backto-GridCommon" style="stroke:#181818;stroke-width:1;"/><polygon fill="none" points="2807,594.9369,2801,612.9369,2813,612.9369,2807,594.9369" style="stroke:#181818;stroke-width:1;"/></g><!--reverse link OptionalGonioAngleStarts to GridCommon--><g class="link" data-entity-1="OptionalGonioAngleStarts" data-entity-2="GridCommon" data-source-line="144" data-uid="lnk43" id="link_OptionalGonioAngleStarts_GridCommon"><path codeLine="144" d="M1673.2,215.4529 C1678.94,218.2329 1668.43,213.1369 1674,215.7869 C2014.93,378.1169 2419.19,557.2369 2640.89,654.3269" fill="none" id="OptionalGonioAngleStarts-backto-GridCommon" style="stroke:#181818;stroke-width:1;"/><polygon fill="none" points="1657,207.6069,1670.5847,220.8529,1675.8153,210.0529,1657,207.6069" style="stroke:#181818;stroke-width:1;"/></g><!--reverse link OptionalGonioAngleStarts to RotationScanPerSweep--><g class="link" data-entity-1="OptionalGonioAngleStarts" data-entity-2="RotationScanPerSweep" data-source-line="145" data-uid="lnk44" id="link_OptionalGonioAngleStarts_RotationScanPerSweep"><path codeLine="145" d="M1666.4035,214.3448 C1674.5335,217.3648 1665.87,213.7269 1674,215.7869 C2109.19,325.7169 3267.62,132.5069 3693,275.7869 C4087.79,408.7569 4459.74,763.2369 4601.05,909.1069" fill="none" id="OptionalGonioAngleStarts-backto-RotationScanPerSweep" style="stroke:#181818;stroke-width:1;"/><polygon fill="none" points="1649.53,208.0769,1664.3142,219.9692,1668.4928,208.7203,1649.53,208.0769" style="stroke:#181818;stroke-width:1;"/></g><!--reverse link OptionalXyzStarts to RotationScanPerSweep--><g class="link" data-entity-1="OptionalXyzStarts" data-entity-2="RotationScanPerSweep" data-source-line="146" data-uid="lnk45" id="link_OptionalXyzStarts_RotationScanPerSweep"><path codeLine="146" d="M2606.0103,208.954 C2616.9903,215.404 2613.19,211.9869 2625,215.7869 C2800.49,272.2269 4126.34,178.6269 4283,275.7869 C4517.36,421.1369 4616.37,765.8069 4648.37,909.0269" fill="none" id="OptionalXyzStarts-backto-RotationScanPerSweep" style="stroke:#181818;stroke-width:1;"/><polygon fill="none" points="2590.49,199.8369,2602.9712,214.1274,2609.0493,203.7805,2590.49,199.8369" style="stroke:#181818;stroke-width:1;"/></g><!--reverse link GridCommon to GridCommonWithHyperionDetectorParams--><g class="link" data-entity-1="GridCommon" data-entity-2="GridCommonWithHyperionDetectorParams" data-source-line="147" data-uid="lnk46" id="link_GridCommon_GridCommonWithHyperionDetectorParams"><path codeLine="147" d="M2939.8257,810.4573 C3021.9057,861.0173 3110.97,915.8669 3166.03,949.7769" fill="none" id="GridCommon-backto-GridCommonWithHyperionDetectorParams" style="stroke:#181818;stroke-width:1;"/><polygon fill="none" points="2924.5,801.0169,2936.6789,815.5659,2942.9726,805.3487,2924.5,801.0169" style="stroke:#181818;stroke-width:1;"/></g><!--reverse link WithHyperionUDCFeatures to GridCommonWithHyperionDetectorParams--><g class="link" data-entity-1="WithHyperionUDCFeatures" data-entity-2="GridCommonWithHyperionDetectorParams" data-source-line="148" data-uid="lnk47" id="link_WithHyperionUDCFeatures_GridCommonWithHyperionDetectorParams"><path codeLine="148" d="M3400.5113,772.9529 C3351.6413,822.7429 3270.21,905.7169 3226.88,949.8569" fill="none" id="WithHyperionUDCFeatures-backto-GridCommonWithHyperionDetectorParams" style="stroke:#181818;stroke-width:1;"/><polygon fill="none" points="3413.12,760.1069,3396.2293,768.75,3404.7933,777.1558,3413.12,760.1069" style="stroke:#181818;stroke-width:1;"/></g><!--reverse link WithScan to RotationScan--><g class="link" data-entity-1="WithScan" data-entity-2="RotationScan" data-source-line="149" data-uid="lnk48" id="link_WithScan_RotationScan"><path codeLine="149" d="M1074.6043,189.2241 C1086.7143,203.7541 1092.84,207.3869 1113,215.7869 C1327.67,305.1769 2973.69,251.8869 3205,275.7869 C3573.51,313.8669 4846,199.2769 4846,569.7569 C4846,569.7569 4846,569.7569 4846,728.6469 C4846,815.9369 4873.04,1059.4169 4810,1119.7969 C4763.81,1164.0469 4297.56,1134.4669 4235,1147.7969 C4226.11,1149.6969 4216.91,1152.4569 4208.06,1155.5569" fill="none" id="WithScan-backto-RotationScan" style="stroke:#181818;stroke-width:1;"/><polygon fill="none" points="1063.08,175.3969,1069.9952,193.0655,1079.2133,185.3827,1063.08,175.3969" style="stroke:#181818;stroke-width:1;"/></g><!--reverse link RotationScanPerSweep to RotationScan--><g class="link" data-entity-1="RotationScanPerSweep" data-entity-2="RotationScan" data-source-line="150" data-uid="lnk49" id="link_RotationScanPerSweep_RotationScan"><path codeLine="150" d="M4600.4787,1052.6532 C4574.1987,1082.3832 4551.06,1101.6169 4512,1119.7969 C4399.82,1172.0169 4355.31,1118.8669 4235,1147.7969 C4226.6,1149.8169 4217.89,1152.5269 4209.46,1155.4969" fill="none" id="RotationScanPerSweep-backto-RotationScan" style="stroke:#181818;stroke-width:1;"/><polygon fill="none" points="4612.4,1039.1669,4595.9832,1048.6794,4604.9741,1056.627,4612.4,1039.1669" style="stroke:#181818;stroke-width:1;"/></g><!--reverse link RotationExperiment to RotationScan--><g class="link" data-entity-1="RotationExperiment" data-entity-2="RotationScan" data-source-line="151" data-uid="lnk50" id="link_RotationExperiment_RotationScan"><path codeLine="151" d="M3705.975,1035.2843 C3740.575,1067.7043 3777.33,1096.4669 3829,1119.7969 C3914.84,1158.5669 4024.25,1171.9369 4091.95,1176.5469" fill="none" id="RotationExperiment-backto-RotationScan" style="stroke:#181818;stroke-width:1;"/><polygon fill="none" points="3692.84,1022.9769,3701.8725,1039.6626,3710.0775,1030.906,3692.84,1022.9769" style="stroke:#181818;stroke-width:1;"/></g><!--reverse link MxBlueskyParameters to LoadCentreCollect--><g class="link" data-entity-1="MxBlueskyParameters" data-entity-2="LoadCentreCollect" data-source-line="152" data-uid="lnk51" id="link_MxBlueskyParameters_LoadCentreCollect"><path codeLine="152" d="M2989.0954,155.7821 C3472.2254,166.6621 4875.5,204.2569 4943,275.7869 C5007.35,343.9769 4983.95,402.4069 4943,486.7569 C4882.88,610.5769 4534.11,841.0869 4388.66,933.4169" fill="none" id="MxBlueskyParameters-backto-LoadCentreCollect" style="stroke:#181818;stroke-width:1;"/><polygon fill="none" points="2971.1,155.3769,2988.9604,161.7806,2989.2305,149.7836,2971.1,155.3769" style="stroke:#181818;stroke-width:1;"/></g><!--reverse link WithVisit to LoadCentreCollect--><g class="link" data-entity-1="WithVisit" data-entity-2="LoadCentreCollect" data-source-line="153" data-uid="lnk52" id="link_WithVisit_LoadCentreCollect"><path codeLine="153" d="M1419.3829,216.186 C1425.3929,217.856 1414.06,214.5169 1420,215.7869 C1540.51,241.4369 3540.44,199.2569 3637,275.7869 C3751.89,366.8369 3655.04,463.8269 3721,594.7569 C3773.74,699.4469 3786.92,737.8769 3886,800.5369 C3983.67,862.2969 4032.06,816.7369 4139,860.5369 C4185.64,879.6369 4234.22,909.4469 4270.03,933.5969" fill="none" id="WithVisit-backto-LoadCentreCollect" style="stroke:#181818;stroke-width:1;"/><polygon fill="none" points="1402.04,211.3669,1417.7765,221.9669,1420.9893,210.405,1402.04,211.3669" style="stroke:#181818;stroke-width:1;"/></g><!--reverse link WithSample to LoadCentreCollect--><g class="link" data-entity-1="WithSample" data-entity-2="LoadCentreCollect" data-source-line="154" data-uid="lnk53" id="link_WithSample_LoadCentreCollect"><path codeLine="154" d="M633.2209,208.4302 C645.2909,214.8702 642.22,212.0569 655,215.7869 C1153.12,360.9369 2493.05,123.3869 2989,275.7869 C3285.32,366.8369 3329.11,465.0369 3576,652.4969 C3654.73,712.2769 3652.52,758.5069 3742,800.5369 C3903.52,876.4069 3971.2,799.8069 4139,860.5369 C4187.28,878.0069 4236.75,908.7069 4272.53,933.6369" fill="none" id="WithSample-backto-LoadCentreCollect" style="stroke:#181818;stroke-width:1;"/><polygon fill="none" points="617.34,199.9569,630.3965,213.7238,636.0453,203.1366,617.34,199.9569" style="stroke:#181818;stroke-width:1;"/></g><!--reverse link WithCentreSelection to LoadCentreCollect--><g class="link" data-entity-1="WithCentreSelection" data-entity-2="LoadCentreCollect" data-source-line="155" data-uid="lnk54" id="link_WithCentreSelection_LoadCentreCollect"><path codeLine="155" d="M2341.1902,190.3528 C2371.3402,202.3728 2390.45,208.2969 2424,215.7869 C2740.43,286.4069 2842.08,177.3869 3151,275.7869 C3631.85,428.9569 4124.78,809.6069 4277.21,933.5069" fill="none" id="WithCentreSelection-backto-LoadCentreCollect" style="stroke:#181818;stroke-width:1;"/><polygon fill="none" points="2324.47,183.6869,2338.9683,195.9262,2343.4122,184.7794,2324.47,183.6869" style="stroke:#181818;stroke-width:1;"/></g><!--reverse link WithHyperionUDCFeatures to LoadCentreCollect--><g class="link" data-entity-1="WithHyperionUDCFeatures" data-entity-2="LoadCentreCollect" data-source-line="156" data-uid="lnk55" id="link_WithHyperionUDCFeatures_LoadCentreCollect"><path codeLine="156" d="M3510.3463,769.013 C3536.3963,783.713 3553.53,791.1569 3585,800.5369 C3822.34,871.2769 3904.4,781.1769 4139,860.5369 C4187.99,877.1069 4237.82,908.1969 4273.55,933.5269" fill="none" id="WithHyperionUDCFeatures-backto-LoadCentreCollect" style="stroke:#181818;stroke-width:1;"/><polygon fill="none" points="3494.67,760.1669,3507.3976,774.2384,3513.295,763.7876,3494.67,760.1669" style="stroke:#181818;stroke-width:1;"/></g><!--reverse link WithHyperionUDCFeatures to HyperionSpecifiedThreeDGridScan--><g class="link" data-entity-1="WithHyperionUDCFeatures" data-entity-2="HyperionSpecifiedThreeDGridScan" data-source-line="157" data-uid="lnk56" id="link_WithHyperionUDCFeatures_HyperionSpecifiedThreeDGridScan"><path codeLine="157" d="M3514.4181,768.7598 C3540.0281,782.5898 3555.51,789.5769 3585,800.5369 C3690.08,839.5869 3728.37,813.2069 3830,860.5369 C3879.85,883.7469 3929.8,924.2169 3958.76,949.7969" fill="none" id="WithHyperionUDCFeatures-backto-HyperionSpecifiedThreeDGridScan" style="stroke:#181818;stroke-width:1;"/><polygon fill="none" points="3498.58,760.2069,3511.5672,774.0392,3517.2691,763.4805,3498.58,760.2069" style="stroke:#181818;stroke-width:1;"/></g><!--reverse link SpecifiedThreeDGridScan to HyperionSpecifiedThreeDGridScan--><g class="link" data-entity-1="SpecifiedThreeDGridScan" data-entity-2="HyperionSpecifiedThreeDGridScan" data-source-line="158" data-uid="lnk57" id="link_SpecifiedThreeDGridScan_HyperionSpecifiedThreeDGridScan"><path codeLine="158" d="M2867.3731,898.9242 C2921.1131,868.9742 2973.06,845.7369 3038.5,830.5369 C3122.27,811.0769 3731.67,801.1569 3812.5,830.5369 C3878.02,854.3469 3935.97,915.3869 3964.76,949.7369" fill="none" id="SpecifiedThreeDGridScan-backto-HyperionSpecifiedThreeDGridScan" style="stroke:#181818;stroke-width:1;"/><polygon fill="none" points="2851.65,907.6869,2870.294,904.1652,2864.4522,893.6832,2851.65,907.6869" style="stroke:#181818;stroke-width:1;"/></g><!--reverse link DiffractionExperimentWithSample to RotationExperiment--><g class="link" data-entity-1="DiffractionExperimentWithSample" data-entity-2="RotationExperiment" data-source-line="159" data-uid="lnk58" id="link_DiffractionExperimentWithSample_RotationExperiment"><path codeLine="159" d="M2878.5529,602.3046 C2915.2529,618.1046 2947.96,632.5269 2991,652.4969 C3192.14,745.8169 3424.6,861.5169 3551.41,925.3169" fill="none" id="DiffractionExperimentWithSample-backto-RotationExperiment" style="stroke:#181818;stroke-width:1;"/><polygon fill="none" points="2862.02,595.1869,2876.1804,607.8156,2880.9255,596.7936,2862.02,595.1869" style="stroke:#181818;stroke-width:1;"/></g><!--reverse link WithHyperionUDCFeatures to RotationExperiment--><g class="link" data-entity-1="WithHyperionUDCFeatures" data-entity-2="RotationExperiment" data-source-line="160" data-uid="lnk59" id="link_WithHyperionUDCFeatures_RotationExperiment"><path codeLine="160" d="M3481.4559,773.9825 C3516.0959,815.9025 3566.21,876.5769 3606.57,925.4369" fill="none" id="WithHyperionUDCFeatures-backto-RotationExperiment" style="stroke:#181818;stroke-width:1;"/><polygon fill="none" points="3469.99,760.1069,3476.8307,777.8045,3486.0811,770.1605,3469.99,760.1069" style="stroke:#181818;stroke-width:1;"/></g><!--reverse link RotationExperiment to MultiRotationScan--><g class="link" data-entity-1="RotationExperiment" data-entity-2="MultiRotationScan" data-source-line="161" data-uid="lnk60" id="link_RotationExperiment_MultiRotationScan"><path codeLine="161" d="M3703.1441,1035.5671 C3737.4341,1069.1271 3775.17,1098.9969 3829,1119.7969 C3913.35,1152.4069 4144.92,1139.8269 4235,1147.7969 C4240.89,1148.3169 4246.84,1148.8569 4252.84,1149.4169" fill="none" id="RotationExperiment-backto-MultiRotationScan" style="stroke:#181818;stroke-width:1;"/><polygon fill="none" points="3690.28,1022.9769,3698.9474,1039.8552,3707.3409,1031.2791,3690.28,1022.9769" style="stroke:#181818;stroke-width:1;"/></g><!--reverse link SplitScan to MultiRotationScan--><g class="link" data-entity-1="SplitScan" data-entity-2="MultiRotationScan" data-source-line="162" data-uid="lnk61" id="link_SplitScan_MultiRotationScan"><path codeLine="162" d="M1768.1157,189.3802 C1780.0157,203.9302 1785.99,207.4769 1806,215.7869 C1963.33,281.1469 4743.83,163.5469 4872,275.7869 C4971.44,362.8669 4917,437.5769 4917,569.7569 C4917,569.7569 4917,569.7569 4917,728.6469 C4917,903.6369 4992.4,992.8069 4872,1119.7969 C4858.31,1134.2369 4829.22,1145.1569 4793.4,1153.4169" fill="none" id="SplitScan-backto-MultiRotationScan" style="stroke:#181818;stroke-width:1;"/><polygon fill="none" points="1756.72,175.4469,1763.4712,193.1788,1772.7601,185.5817,1756.72,175.4469" style="stroke:#181818;stroke-width:1;"/></g><!--reverse link DiffractionExperiment to DiffractionExperimentWithSample--><g class="link" data-entity-1="DiffractionExperiment" data-entity-2="DiffractionExperimentWithSample" data-source-line="163" data-uid="lnk62" id="link_DiffractionExperiment_DiffractionExperimentWithSample"><path codeLine="163" d="M2807,505.2469 C2807,527.5069 2807,530.9069 2807,546.3269" fill="none" id="DiffractionExperiment-backto-DiffractionExperimentWithSample" style="stroke:#181818;stroke-width:1;"/><polygon fill="none" points="2807,487.2469,2801,505.2469,2813,505.2469,2807,487.2469" style="stroke:#181818;stroke-width:1;"/></g><!--reverse link WithSample to DiffractionExperimentWithSample--><g class="link" data-entity-1="WithSample" data-entity-2="DiffractionExperimentWithSample" data-source-line="164" data-uid="lnk63" id="link_WithSample_DiffractionExperimentWithSample"><path codeLine="164" d="M634.5854,208.4091 C646.2854,214.6791 642.75,211.7969 655,215.7869 C943.92,309.8169 1035.24,232.6169 1336,275.7869 C1857.7,350.6669 2473.84,490.8669 2709.08,546.3169" fill="none" id="WithSample-backto-DiffractionExperimentWithSample" style="stroke:#181818;stroke-width:1;"/><polygon fill="none" points="618.72,199.9069,631.7513,213.6976,637.4195,203.1206,618.72,199.9069" style="stroke:#181818;stroke-width:1;"/></g><!--reverse link GridCommonWithHyperionDetectorParams to PinTipCentreThenXrayCentre--><g class="link" data-entity-1="GridCommonWithHyperionDetectorParams" data-entity-2="PinTipCentreThenXrayCentre" data-source-line="165" data-uid="lnk64" id="link_GridCommonWithHyperionDetectorParams_PinTipCentreThenXrayCentre"><path codeLine="165" d="M3202.176,1016.5294 C3200.556,1053.2194 3198.2,1106.4069 3196.39,1147.5369" fill="none" id="GridCommonWithHyperionDetectorParams-backto-PinTipCentreThenXrayCentre" style="stroke:#181818;stroke-width:1;"/><polygon fill="none" points="3202.97,998.5469,3196.1818,1016.2647,3208.1702,1016.794,3202.97,998.5469" style="stroke:#181818;stroke-width:1;"/></g><!--reverse link WithHyperionUDCFeatures to PinTipCentreThenXrayCentre--><g class="link" data-entity-1="WithHyperionUDCFeatures" data-entity-2="PinTipCentreThenXrayCentre" data-source-line="166" data-uid="lnk65" id="link_WithHyperionUDCFeatures_PinTipCentreThenXrayCentre"><path codeLine="166" d="M3439.8913,778.2227 C3432.4213,866.4427 3411.33,1092.5369 3388,1119.7969 C3382.15,1126.6369 3349.9,1137.5169 3313.39,1148.0869" fill="none" id="WithHyperionUDCFeatures-backto-PinTipCentreThenXrayCentre" style="stroke:#181818;stroke-width:1;"/><polygon fill="none" points="3441.41,760.2869,3433.9127,777.7165,3445.8699,778.7289,3441.41,760.2869" style="stroke:#181818;stroke-width:1;"/></g><!--reverse link GridCommonWithHyperionDetectorParams to GridScanWithEdgeDetect--><g class="link" data-entity-1="GridCommonWithHyperionDetectorParams" data-entity-2="GridScanWithEdgeDetect" data-source-line="167" data-uid="lnk66" id="link_GridCommonWithHyperionDetectorParams_GridScanWithEdgeDetect"><path codeLine="167" d="M3246.4911,1009.9453 C3294.4011,1049.1453 3376.45,1116.2969 3424.39,1155.5269" fill="none" id="GridCommonWithHyperionDetectorParams-backto-GridScanWithEdgeDetect" style="stroke:#181818;stroke-width:1;"/><polygon fill="none" points="3232.56,998.5469,3242.6916,1014.589,3250.2906,1005.3016,3232.56,998.5469" style="stroke:#181818;stroke-width:1;"/></g><!--reverse link WithHyperionUDCFeatures to GridScanWithEdgeDetect--><g class="link" data-entity-1="WithHyperionUDCFeatures" data-entity-2="GridScanWithEdgeDetect" data-source-line="168" data-uid="lnk67" id="link_WithHyperionUDCFeatures_GridScanWithEdgeDetect"><path codeLine="168" d="M3444.9884,777.9433 C3446.6884,863.3133 3451.04,1080.7569 3452.54,1155.7069" fill="none" id="WithHyperionUDCFeatures-backto-GridScanWithEdgeDetect" style="stroke:#181818;stroke-width:1;"/><polygon fill="none" points="3444.63,759.9469,3438.9896,778.0628,3450.9872,777.8239,3444.63,759.9469" style="stroke:#181818;stroke-width:1;"/></g><!--SRC=[bLVVRzms37wE_mgzRGEM0Etpzf1Uqcv0qmMxMrQW20ITpRE5s98WoUavr_plfIp_FCk-2-uX5aLI5Fdne_BB9kE6x7WE1F-oqihB50HePY4Xsugq2wfo9cnPv5UgYYBBBHhyLIdGN0foppGhm88cTpA1F39WYK29KIo6DIZSjb8J8GL44SgUM0gasDDjNe9vggvYMHHINAdMZI67oCeKR8Ok3r6SCsF8r-fbRPcsvX1Tx7B9BDbJumIqB5f9DP6yz9BNnj7_t6RtJ2Jia-R9EcQYSwYSbEfIb8ec70r53BGOMtg3Lh9M4FCTXyJvEemL1LCcanQztpER4TEiqRE66FDHHHSv7lAjFlkH_21VC3-zcYmWPOOca8xSha1OZKdDqGVc7hrlfFhoeRfZ-vKiXUrsYAc_Q5mRc96JVvJJOFaj5ZUjLXaJANHPQ099eC1qKAXLA3oF73nmmztDZDLa2wp8EPQsNZsx7V-PWAtJIAsaJed6KZo3nW9JXHdnIbmO564qL6dOyVqa2bidQxuUh52v2vuBIqoze3pnopQbNghA-2aevs9GpvpRSOdRN4tnrxYPmh3PgEOs0g1iJ_aa1PVN8iqXV5YDYiRSGMEygp8-knSlx3qnfOPUN_4tQS0RljjfLcFhTkywlq1aDHXm149ToxUEOQ-aAJLGYshKU2tNvsY3aDKyJK4xjY3MVzC25wFoO1zIKHPRqD75DPvdqTq3GyhewbS371BAcjtsSAkPC0Ktni7AnHnT_6rKjUt3tY1r8U6XZ48df1QbFbA3a4EI6lRgLigSb0Qebjm7szREzVwgfh2kMbk9gE0lCAXzYbhqEqziDX1EqlI6ED-O4wwetEsGceUmw_Xhasc0cmaZkg3VUIeQmiQ9tq_5hXD07L-y2afVmhhlfmm-53bu-5ECNrJ3nKkxg6j5tLsDBRVDlNiAlDj_y9Ed6rokpzQEy2oF7t3f-BCRHtMrS_hivPsNO3yCAUcr_WNcNTOCpl74wpcj7Qp_tQm-0dDLTF6rqaRqCMSfJkvclulgNscP2ycLyHxq-Zk0wievOOzM-tgFqryt2yfmrPeOzDF0TcHnKtU6orDdbhGYNmq1-zBGvyGq1_8Y3RJCyBut3TdNPJ67u9rwwMV94ZyDLp9tg3-uwBRIkerD1i9lOdmeetYPX2AVYMOWHXTtPMxvq3Kfd8Hszt5NxqvhOvpjcEDWHnpPv38hhSEJL22uIBkczxlTkLp46kf6hpD-FYLq-3w-6KPmBOGJGFAjVdI4OFBuE_aCujU22vg3I6tsvxlV7iae7JtExhdOSELJx9BzLRFAhmxBbDDcp1N-Dad15zrtImyByiUFoyivUef6pwvJgir4NrQRUnMTjXez9RtwJ0z70Txn1a4gYOQlo5Dwyx7FszIFk2Mbxibpb0LtswXz38VsJb2ZD-cB7SszVjwe609rD7c_BUWUu-yScefcglr63tqgXv55eJ0NrFfi1vHcuJTXqcDuX1M6nGnh7FspigGwcy4tgf_WwMX6VfxnMRYUrc8vue3-N3adn7vCRrE5OCWBJT_VPbBZK_hdODrxcXyUowbQi3l_yF00Ejt6KvkV]--></g></svg>