<svg xmlns="http://www.w3.org/2000/svg" xmlns:xlink="http://www.w3.org/1999/xlink" contentStyleType="text/css" data-diagram-type="CLASS" height="1304px" preserveAspectRatio="none" style="width:4980px;height:1304px;background:#FFFFFF;" version="1.1" viewBox="0 0 4980 1304" width="4980px" zoomAndPan="magnify"><title>Hyperion Parameter Model</title><defs/><g><text fill="#000000" font-family="sans-serif" font-size="14" font-weight="bold" lengthAdjust="spacing" textLength="212.4951" x="2376.9124" y="22.9951">Hyperion Parameter Model</text><!--cluster mx_bluesky.common.parameters--><g id="cluster_mx_bluesky.common.parameters"><path d="M8.5,43.2969 L269.8125,43.2969 A3.75,3.75 0 0 1 272.3125,45.7969 L279.3125,65.5938 L2994.5,65.5938 A2.5,2.5 0 0 1 2997,68.0938 L2997,1109.2969 A2.5,2.5 0 0 1 2994.5,1111.7969 L8.5,1111.7969 A2.5,2.5 0 0 1 6,1109.2969 L6,45.7969 A2.5,2.5 0 0 1 8.5,43.2969 " fill="#FFFFFF" fill-opacity="0.00000" style="stroke:#000000;stroke-width:1.5;"/><line style="stroke:#000000;stroke-width:1.5;" x1="6" x2="279.3125" y1="65.5938" y2="65.5938"/><text fill="#000000" font-family="sans-serif" font-size="14" font-weight="bold" lengthAdjust="spacing" textLength="260.3125" x="10" y="58.292">mx_bluesky.common.parameters</text></g><!--cluster mx_bluesky.hyperion.parameters--><g id="cluster_mx_bluesky.hyperion.parameters"><path d="M3023.5,660.4969 L3288.0322,660.4969 A3.75,3.75 0 0 1 3290.5322,662.9969 L3297.5322,682.7937 L4843.5,682.7937 A2.5,2.5 0 0 1 4846,685.2937 L4846,1225.5969 A2.5,2.5 0 0 1 4843.5,1228.0969 L3023.5,1228.0969 A2.5,2.5 0 0 1 3021,1225.5969 L3021,662.9969 A2.5,2.5 0 0 1 3023.5,660.4969 " fill="#FFFFFF" fill-opacity="0.00000" style="stroke:#000000;stroke-width:1.5;"/><line style="stroke:#000000;stroke-width:1.5;" x1="3021" x2="3297.5322" y1="682.7937" y2="682.7937"/><text fill="#000000" font-family="sans-serif" font-size="14" font-weight="bold" lengthAdjust="spacing" textLength="263.5322" x="3025" y="675.492">mx_bluesky.hyperion.parameters</text></g><!--class XyzStarts--><g id="elem_XyzStarts"><rect codeLine="8" fill="#F1F1F1" height="96.8906" id="XyzStarts" rx="2.5" ry="2.5" style="stroke:#181818;stroke-width:0.5;" width="125.3057" x="163.35" y="102.5969"/><ellipse cx="190.3141" cy="118.5969" fill="#ADD1B2" rx="11" ry="11" style="stroke:#181818;stroke-width:1;"/><path d="M193.2829,124.2375 Q192.7047,124.5344 192.0641,124.675 Q191.4235,124.8312 190.7204,124.8312 Q188.2204,124.8312 186.8922,123.1906 Q185.5797,121.5344 185.5797,118.4094 Q185.5797,115.2844 186.8922,113.6281 Q188.2204,111.9719 190.7204,111.9719 Q191.4235,111.9719 192.0641,112.1281 Q192.7204,112.2844 193.2829,112.5812 L193.2829,115.3 Q192.6579,114.7219 192.0641,114.4562 Q191.4704,114.175 190.8454,114.175 Q189.5016,114.175 188.8141,115.2531 Q188.1266,116.3156 188.1266,118.4094 Q188.1266,120.5031 188.8141,121.5812 Q189.5016,122.6437 190.8454,122.6437 Q191.4704,122.6437 192.0641,122.3781 Q192.6579,122.0969 193.2829,121.5187 L193.2829,124.2375 Z " fill="#000000"/><text fill="#000000" font-family="sans-serif" font-size="14" lengthAdjust="spacing" textLength="66.7188" x="206.9728" y="123.4436">XyzStarts</text><line style="stroke:#181818;stroke-width:0.5;" x1="164.35" x2="287.6557" y1="134.5969" y2="134.5969"/><text fill="#000000" font-family="sans-serif" font-size="14" lengthAdjust="spacing" textLength="113.3057" x="169.35" y="151.592">float x_start_um</text><text fill="#000000" font-family="sans-serif" font-size="14" lengthAdjust="spacing" textLength="113.3057" x="169.35" y="167.8889">float y_start_um</text><text fill="#000000" font-family="sans-serif" font-size="14" lengthAdjust="spacing" textLength="112.3691" x="169.35" y="184.1857">float z_start_um</text><line style="stroke:#181818;stroke-width:0.5;" x1="164.35" x2="287.6557" y1="191.4875" y2="191.4875"/></g><!--class OptionalGonioAngleStarts--><g id="elem_OptionalGonioAngleStarts"><rect codeLine="13" fill="#F1F1F1" height="113.1875" id="OptionalGonioAngleStarts" rx="2.5" ry="2.5" style="stroke:#181818;stroke-width:0.5;" width="219.3203" x="1437.34" y="94.4469"/><ellipse cx="1455.0633" cy="110.4469" fill="#ADD1B2" rx="11" ry="11" style="stroke:#181818;stroke-width:1;"/><path d="M1458.032,116.0875 Q1457.4539,116.3844 1456.8133,116.525 Q1456.1727,116.6812 1455.4695,116.6812 Q1452.9695,116.6812 1451.6414,115.0406 Q1450.3289,113.3844 1450.3289,110.2594 Q1450.3289,107.1344 1451.6414,105.4781 Q1452.9695,103.8219 1455.4695,103.8219 Q1456.1727,103.8219 1456.8133,103.9781 Q1457.4695,104.1344 1458.032,104.4312 L1458.032,107.15 Q1457.407,106.5719 1456.8133,106.3062 Q1456.2195,106.025 1455.5945,106.025 Q1454.2508,106.025 1453.5633,107.1031 Q1452.8758,108.1656 1452.8758,110.2594 Q1452.8758,112.3531 1453.5633,113.4312 Q1454.2508,114.4937 1455.5945,114.4937 Q1456.2195,114.4937 1456.8133,114.2281 Q1457.407,113.9469 1458.032,113.3687 L1458.032,116.0875 Z " fill="#000000"/><text fill="#000000" font-family="sans-serif" font-size="14" lengthAdjust="spacing" textLength="181.2686" x="1469.6685" y="115.2936">OptionalGonioAngleStarts</text><line style="stroke:#181818;stroke-width:0.5;" x1="1438.34" x2="1655.6603" y1="126.4469" y2="126.4469"/><text fill="#000000" font-family="sans-serif" font-size="14" lengthAdjust="spacing" textLength="207.3203" x="1443.34" y="143.442">float | None omega_start_deg</text><text fill="#000000" font-family="sans-serif" font-size="14" lengthAdjust="spacing" textLength="180.6875" x="1443.34" y="159.7389">float | None phi_start_deg</text><text fill="#000000" font-family="sans-serif" font-size="14" lengthAdjust="spacing" textLength="179.498" x="1443.34" y="176.0357">float | None chi_start_deg</text><text fill="#000000" font-family="sans-serif" font-size="14" lengthAdjust="spacing" textLength="202.0771" x="1443.34" y="192.3326">float | None kappa_start_deg</text><line style="stroke:#181818;stroke-width:0.5;" x1="1438.34" x2="1655.6603" y1="199.6344" y2="199.6344"/></g><!--class WithSample--><g id="elem_WithSample"><rect codeLine="19" fill="#F1F1F1" height="96.8906" id="WithSample" rx="2.5" ry="2.5" style="stroke:#181818;stroke-width:0.5;" width="176.3086" x="593.85" y="102.5969"/><ellipse cx="635.7243" cy="118.5969" fill="#ADD1B2" rx="11" ry="11" style="stroke:#181818;stroke-width:1;"/><path d="M638.6931,124.2375 Q638.1149,124.5344 637.4743,124.675 Q636.8337,124.8312 636.1306,124.8312 Q633.6306,124.8312 632.3024,123.1906 Q630.9899,121.5344 630.9899,118.4094 Q630.9899,115.2844 632.3024,113.6281 Q633.6306,111.9719 636.1306,111.9719 Q636.8337,111.9719 637.4743,112.1281 Q638.1306,112.2844 638.6931,112.5812 L638.6931,115.3 Q638.0681,114.7219 637.4743,114.4562 Q636.8806,114.175 636.2556,114.175 Q634.9118,114.175 634.2243,115.2531 Q633.5368,116.3156 633.5368,118.4094 Q633.5368,120.5031 634.2243,121.5812 Q634.9118,122.6437 636.2556,122.6437 Q636.8806,122.6437 637.4743,122.3781 Q638.0681,122.0969 638.6931,121.5187 L638.6931,124.2375 Z " fill="#000000"/><text fill="#000000" font-family="sans-serif" font-size="14" lengthAdjust="spacing" textLength="84.5879" x="655.6964" y="123.4436">WithSample</text><line style="stroke:#181818;stroke-width:0.5;" x1="594.85" x2="769.1586" y1="134.5969" y2="134.5969"/><text fill="#000000" font-family="sans-serif" font-size="14" lengthAdjust="spacing" textLength="93.3789" x="599.85" y="151.592">int sample_id</text><text fill="#000000" font-family="sans-serif" font-size="14" lengthAdjust="spacing" textLength="164.3086" x="599.85" y="167.8889">int | None sample_puck</text><text fill="#000000" font-family="sans-serif" font-size="14" lengthAdjust="spacing" textLength="152.3936" x="599.85" y="184.1857">int | None sample_pin</text><line style="stroke:#181818;stroke-width:0.5;" x1="594.85" x2="769.1586" y1="191.4875" y2="191.4875"/></g><!--class WithOptionalEnergyChange--><g id="elem_WithOptionalEnergyChange"><rect codeLine="24" fill="#F1F1F1" height="64.2969" id="WithOptionalEnergyChange" rx="2.5" ry="2.5" style="stroke:#181818;stroke-width:0.5;" width="235.4463" x="323.28" y="118.8969"/><ellipse cx="342.4645" cy="134.8969" fill="#ADD1B2" rx="11" ry="11" style="stroke:#181818;stroke-width:1;"/><path d="M345.4332,140.5375 Q344.8551,140.8344 344.2145,140.975 Q343.5738,141.1312 342.8707,141.1312 Q340.3707,141.1312 339.0426,139.4906 Q337.7301,137.8344 337.7301,134.7094 Q337.7301,131.5844 339.0426,129.9281 Q340.3707,128.2719 342.8707,128.2719 Q343.5738,128.2719 344.2145,128.4281 Q344.8707,128.5844 345.4332,128.8812 L345.4332,131.6 Q344.8082,131.0219 344.2145,130.7562 Q343.6207,130.475 342.9957,130.475 Q341.652,130.475 340.9645,131.5531 Q340.277,132.6156 340.277,134.7094 Q340.277,136.8031 340.9645,137.8812 Q341.652,138.9437 342.9957,138.9437 Q343.6207,138.9437 344.2145,138.6781 Q344.8082,138.3969 345.4332,137.8187 L345.4332,140.5375 Z " fill="#000000"/><text fill="#000000" font-family="sans-serif" font-size="14" lengthAdjust="spacing" textLength="194.1475" x="357.3944" y="139.7436">WithOptionalEnergyChange</text><line style="stroke:#181818;stroke-width:0.5;" x1="324.28" x2="557.7263" y1="150.8969" y2="150.8969"/><text fill="#000000" font-family="sans-serif" font-size="14" lengthAdjust="spacing" textLength="223.4463" x="329.28" y="167.892">float | None demand_energy_ev</text><line style="stroke:#181818;stroke-width:0.5;" x1="324.28" x2="557.7263" y1="175.1937" y2="175.1937"/></g><!--class SplitScan--><g id="elem_SplitScan"><rect codeLine="27" fill="#F1F1F1" height="48" id="SplitScan" rx="2.5" ry="2.5" style="stroke:#181818;stroke-width:0.5;" width="97.0781" x="1691.46" y="127.0469"/><ellipse cx="1706.46" cy="143.0469" fill="#ADD1B2" rx="11" ry="11" style="stroke:#181818;stroke-width:1;"/><path d="M1709.4288,148.6875 Q1708.8506,148.9844 1708.21,149.125 Q1707.5694,149.2813 1706.8663,149.2813 Q1704.3663,149.2813 1703.0381,147.6406 Q1701.7256,145.9844 1701.7256,142.8594 Q1701.7256,139.7344 1703.0381,138.0781 Q1704.3663,136.4219 1706.8663,136.4219 Q1707.5694,136.4219 1708.21,136.5781 Q1708.8663,136.7344 1709.4288,137.0313 L1709.4288,139.75 Q1708.8038,139.1719 1708.21,138.9063 Q1707.6163,138.625 1706.9913,138.625 Q1705.6475,138.625 1704.96,139.7031 Q1704.2725,140.7656 1704.2725,142.8594 Q1704.2725,144.9531 1704.96,146.0313 Q1705.6475,147.0938 1706.9913,147.0938 Q1707.6163,147.0938 1708.21,146.8281 Q1708.8038,146.5469 1709.4288,145.9688 L1709.4288,148.6875 Z " fill="#000000"/><text fill="#000000" font-family="sans-serif" font-size="14" lengthAdjust="spacing" textLength="65.0781" x="1720.46" y="147.8936">SplitScan</text><line style="stroke:#181818;stroke-width:0.5;" x1="1692.46" x2="1787.5381" y1="159.0469" y2="159.0469"/><line style="stroke:#181818;stroke-width:0.5;" x1="1692.46" x2="1787.5381" y1="167.0469" y2="167.0469"/></g><!--class WithScan--><g id="elem_WithScan"><rect codeLine="29" fill="#F1F1F1" height="48" id="WithScan" rx="2.5" ry="2.5" style="stroke:#181818;stroke-width:0.5;" width="98.1309" x="29.93" y="127.0469"/><ellipse cx="44.93" cy="143.0469" fill="#ADD1B2" rx="11" ry="11" style="stroke:#181818;stroke-width:1;"/><path d="M47.8988,148.6875 Q47.3206,148.9844 46.68,149.125 Q46.0394,149.2813 45.3363,149.2813 Q42.8363,149.2813 41.5081,147.6406 Q40.1956,145.9844 40.1956,142.8594 Q40.1956,139.7344 41.5081,138.0781 Q42.8363,136.4219 45.3363,136.4219 Q46.0394,136.4219 46.68,136.5781 Q47.3363,136.7344 47.8988,137.0313 L47.8988,139.75 Q47.2738,139.1719 46.68,138.9063 Q46.0863,138.625 45.4613,138.625 Q44.1175,138.625 43.43,139.7031 Q42.7425,140.7656 42.7425,142.8594 Q42.7425,144.9531 43.43,146.0313 Q44.1175,147.0938 45.4613,147.0938 Q46.0863,147.0938 46.68,146.8281 Q47.2738,146.5469 47.8988,145.9688 L47.8988,148.6875 Z " fill="#000000"/><text fill="#000000" font-family="sans-serif" font-size="14" lengthAdjust="spacing" textLength="66.1309" x="58.93" y="147.8936">WithScan</text><line style="stroke:#181818;stroke-width:0.5;" x1="30.93" x2="127.0609" y1="159.0469" y2="159.0469"/><line style="stroke:#181818;stroke-width:0.5;" x1="30.93" x2="127.0609" y1="167.0469" y2="167.0469"/></g><!--class WithPandaGridScan--><g id="elem_WithPandaGridScan"><rect codeLine="31" fill="#F1F1F1" height="64.2969" id="WithPandaGridScan" rx="2.5" ry="2.5" style="stroke:#181818;stroke-width:0.5;" width="240.5664" x="1823.72" y="118.8969"/><ellipse cx="1870.3172" cy="134.8969" fill="#ADD1B2" rx="11" ry="11" style="stroke:#181818;stroke-width:1;"/><path d="M1873.2859,140.5375 Q1872.7078,140.8344 1872.0672,140.975 Q1871.4265,141.1312 1870.7234,141.1312 Q1868.2234,141.1312 1866.8953,139.4906 Q1865.5828,137.8344 1865.5828,134.7094 Q1865.5828,131.5844 1866.8953,129.9281 Q1868.2234,128.2719 1870.7234,128.2719 Q1871.4265,128.2719 1872.0672,128.4281 Q1872.7234,128.5844 1873.2859,128.8812 L1873.2859,131.6 Q1872.6609,131.0219 1872.0672,130.7562 Q1871.4734,130.475 1870.8484,130.475 Q1869.5047,130.475 1868.8172,131.5531 Q1868.1297,132.6156 1868.1297,134.7094 Q1868.1297,136.8031 1868.8172,137.8812 Q1869.5047,138.9437 1870.8484,138.9437 Q1871.4734,138.9437 1872.0672,138.6781 Q1872.6609,138.3969 1873.2859,137.8187 L1873.2859,140.5375 Z " fill="#000000"/><text fill="#000000" font-family="sans-serif" font-size="14" lengthAdjust="spacing" textLength="138.8721" x="1890.8172" y="139.7436">WithPandaGridScan</text><line style="stroke:#181818;stroke-width:0.5;" x1="1824.72" x2="2063.2864" y1="150.8969" y2="150.8969"/><text fill="#000000" font-family="sans-serif" font-size="14" lengthAdjust="spacing" textLength="228.5664" x="1829.72" y="167.892">float panda_runup_distance_mm</text><line style="stroke:#181818;stroke-width:0.5;" x1="1824.72" x2="2063.2864" y1="175.1937" y2="175.1937"/></g><!--class SpecifiedGrid--><g id="elem_SpecifiedGrid"><rect codeLine="34" fill="#F1F1F1" height="48" id="SpecifiedGrid" rx="2.5" ry="2.5" style="stroke:#181818;stroke-width:0.5;" width="125.6729" x="163.16" y="357.2669"/><ellipse cx="178.16" cy="373.2669" fill="#ADD1B2" rx="11" ry="11" style="stroke:#181818;stroke-width:1;"/><path d="M181.1288,378.9075 Q180.5506,379.2044 179.91,379.345 Q179.2694,379.5012 178.5663,379.5012 Q176.0663,379.5012 174.7381,377.8606 Q173.4256,376.2044 173.4256,373.0794 Q173.4256,369.9544 174.7381,368.2981 Q176.0663,366.6419 178.5663,366.6419 Q179.2694,366.6419 179.91,366.7981 Q180.5663,366.9544 181.1288,367.2512 L181.1288,369.97 Q180.5038,369.3919 179.91,369.1262 Q179.3163,368.845 178.6913,368.845 Q177.3475,368.845 176.66,369.9231 Q175.9725,370.9856 175.9725,373.0794 Q175.9725,375.1731 176.66,376.2512 Q177.3475,377.3137 178.6913,377.3137 Q179.3163,377.3137 179.91,377.0481 Q180.5038,376.7669 181.1288,376.1887 L181.1288,378.9075 Z " fill="#000000"/><text fill="#000000" font-family="sans-serif" font-size="14" lengthAdjust="spacing" textLength="93.6729" x="192.16" y="378.1136">SpecifiedGrid</text><line style="stroke:#181818;stroke-width:0.5;" x1="164.16" x2="287.8329" y1="389.2669" y2="389.2669"/><line style="stroke:#181818;stroke-width:0.5;" x1="164.16" x2="287.8329" y1="397.2669" y2="397.2669"/></g><!--class WithCentreSelection--><g id="elem_WithCentreSelection"><rect codeLine="36" fill="#F1F1F1" height="64.2969" id="WithCentreSelection" rx="2.5" ry="2.5" style="stroke:#181818;stroke-width:0.5;" width="306.7861" x="2099.61" y="118.8969"/><ellipse cx="2176.8869" cy="134.8969" fill="#ADD1B2" rx="11" ry="11" style="stroke:#181818;stroke-width:1;"/><path d="M2179.8556,140.5375 Q2179.2775,140.8344 2178.6369,140.975 Q2177.9962,141.1312 2177.2931,141.1312 Q2174.7931,141.1312 2173.465,139.4906 Q2172.1525,137.8344 2172.1525,134.7094 Q2172.1525,131.5844 2173.465,129.9281 Q2174.7931,128.2719 2177.2931,128.2719 Q2177.9962,128.2719 2178.6369,128.4281 Q2179.2931,128.5844 2179.8556,128.8812 L2179.8556,131.6 Q2179.2306,131.0219 2178.6369,130.7562 Q2178.0431,130.475 2177.4181,130.475 Q2176.0744,130.475 2175.3869,131.5531 Q2174.6994,132.6156 2174.6994,134.7094 Q2174.6994,136.8031 2175.3869,137.8812 Q2176.0744,138.9437 2177.4181,138.9437 Q2178.0431,138.9437 2178.6369,138.6781 Q2179.2306,138.3969 2179.8556,137.8187 L2179.8556,140.5375 Z " fill="#000000"/><text fill="#000000" font-family="sans-serif" font-size="14" lengthAdjust="spacing" textLength="143.7324" x="2197.3869" y="139.7436">WithCentreSelection</text><line style="stroke:#181818;stroke-width:0.5;" x1="2100.61" x2="2405.3961" y1="150.8969" y2="150.8969"/><text fill="#000000" font-family="sans-serif" font-size="14" lengthAdjust="spacing" textLength="294.7861" x="2105.61" y="167.892">TopNByMaxCountSelection select_centres</text><line style="stroke:#181818;stroke-width:0.5;" x1="2100.61" x2="2405.3961" y1="175.1937" y2="175.1937"/></g><!--class WithSnapshot--><g id="elem_WithSnapshot"><rect codeLine="39" fill="#F1F1F1" height="80.5938" id="WithSnapshot" rx="2.5" ry="2.5" style="stroke:#181818;stroke-width:0.5;" width="289.3477" x="805.33" y="110.7469"/><ellipse cx="896.9828" cy="126.7469" fill="#ADD1B2" rx="11" ry="11" style="stroke:#181818;stroke-width:1;"/><path d="M899.9516,132.3875 Q899.3735,132.6844 898.7328,132.825 Q898.0922,132.9813 897.3891,132.9813 Q894.8891,132.9813 893.561,131.3406 Q892.2485,129.6844 892.2485,126.5594 Q892.2485,123.4344 893.561,121.7781 Q894.8891,120.1219 897.3891,120.1219 Q898.0922,120.1219 898.7328,120.2781 Q899.3891,120.4344 899.9516,120.7313 L899.9516,123.45 Q899.3266,122.8719 898.7328,122.6063 Q898.1391,122.325 897.5141,122.325 Q896.1703,122.325 895.4828,123.4031 Q894.7953,124.4656 894.7953,126.5594 Q894.7953,128.6531 895.4828,129.7313 Q896.1703,130.7938 897.5141,130.7938 Q898.1391,130.7938 898.7328,130.5281 Q899.3266,130.2469 899.9516,129.6688 L899.9516,132.3875 Z " fill="#000000"/><text fill="#000000" font-family="sans-serif" font-size="14" lengthAdjust="spacing" textLength="97.542" x="917.4828" y="131.5936">WithSnapshot</text><line style="stroke:#181818;stroke-width:0.5;" x1="806.33" x2="1093.6777" y1="142.7469" y2="142.7469"/><text fill="#000000" font-family="sans-serif" font-size="14" lengthAdjust="spacing" textLength="169.627" x="811.33" y="159.742">Path snapshot_directory</text><text fill="#000000" font-family="sans-serif" font-size="14" lengthAdjust="spacing" textLength="277.3477" x="811.33" y="176.0389">list[float] | None snapshot_omegas_deg</text><line style="stroke:#181818;stroke-width:0.5;" x1="806.33" x2="1093.6777" y1="183.3406" y2="183.3406"/></g><!--class WithVisit--><g id="elem_WithVisit"><rect codeLine="43" fill="#F1F1F1" height="129.4844" id="WithVisit" rx="2.5" ry="2.5" style="stroke:#181818;stroke-width:0.5;" width="271.7861" x="1130.11" y="86.2969"/><ellipse cx="1230.6359" cy="102.2969" fill="#ADD1B2" rx="11" ry="11" style="stroke:#181818;stroke-width:1;"/><path d="M1233.6046,107.9375 Q1233.0265,108.2344 1232.3859,108.375 Q1231.7453,108.5313 1231.0421,108.5313 Q1228.5421,108.5313 1227.214,106.8906 Q1225.9015,105.2344 1225.9015,102.1094 Q1225.9015,98.9844 1227.214,97.3281 Q1228.5421,95.6719 1231.0421,95.6719 Q1231.7453,95.6719 1232.3859,95.8281 Q1233.0421,95.9844 1233.6046,96.2813 L1233.6046,99 Q1232.9796,98.4219 1232.3859,98.1563 Q1231.7921,97.875 1231.1671,97.875 Q1229.8234,97.875 1229.1359,98.9531 Q1228.4484,100.0156 1228.4484,102.1094 Q1228.4484,104.2031 1229.1359,105.2813 Q1229.8234,106.3438 1231.1671,106.3438 Q1231.7921,106.3438 1232.3859,106.0781 Q1232.9796,105.7969 1233.6046,105.2188 L1233.6046,107.9375 Z " fill="#000000"/><text fill="#000000" font-family="sans-serif" font-size="14" lengthAdjust="spacing" textLength="62.2344" x="1251.1359" y="107.1436">WithVisit</text><line style="stroke:#181818;stroke-width:0.5;" x1="1131.11" x2="1400.8961" y1="118.2969" y2="118.2969"/><text fill="#000000" font-family="sans-serif" font-size="14" lengthAdjust="spacing" textLength="87.9717" x="1136.11" y="135.292">str beamline</text><text fill="#000000" font-family="sans-serif" font-size="14" lengthAdjust="spacing" textLength="51.8369" x="1136.11" y="151.5889">str visit</text><text fill="#000000" font-family="sans-serif" font-size="14" lengthAdjust="spacing" textLength="259.7861" x="1136.11" y="167.8857">str det_dist_to_beam_converter_path</text><text fill="#000000" font-family="sans-serif" font-size="14" lengthAdjust="spacing" textLength="131.5918" x="1136.11" y="184.1826">str insertion_prefix</text><text fill="#000000" font-family="sans-serif" font-size="14" lengthAdjust="spacing" textLength="245.752" x="1136.11" y="200.4795">float | None detector_distance_mm</text><line style="stroke:#181818;stroke-width:0.5;" x1="1131.11" x2="1400.8961" y1="207.7813" y2="207.7813"/></g><!--class OptionalXyzStarts--><g id="elem_OptionalXyzStarts"><rect codeLine="50" fill="#F1F1F1" height="96.8906" id="OptionalXyzStarts" rx="2.5" ry="2.5" style="stroke:#181818;stroke-width:0.5;" width="175.4473" x="2441.28" y="102.5969"/><ellipse cx="2464.1713" cy="118.5969" fill="#ADD1B2" rx="11" ry="11" style="stroke:#181818;stroke-width:1;"/><path d="M2467.14,124.2375 Q2466.5619,124.5344 2465.9213,124.675 Q2465.2806,124.8312 2464.5775,124.8312 Q2462.0775,124.8312 2460.7494,123.1906 Q2459.4369,121.5344 2459.4369,118.4094 Q2459.4369,115.2844 2460.7494,113.6281 Q2462.0775,111.9719 2464.5775,111.9719 Q2465.2806,111.9719 2465.9213,112.1281 Q2466.5775,112.2844 2467.14,112.5812 L2467.14,115.3 Q2466.515,114.7219 2465.9213,114.4562 Q2465.3275,114.175 2464.7025,114.175 Q2463.3588,114.175 2462.6713,115.2531 Q2461.9838,116.3156 2461.9838,118.4094 Q2461.9838,120.5031 2462.6713,121.5812 Q2463.3588,122.6437 2464.7025,122.6437 Q2465.3275,122.6437 2465.9213,122.3781 Q2466.515,122.0969 2467.14,121.5187 L2467.14,124.2375 Z " fill="#000000"/><text fill="#000000" font-family="sans-serif" font-size="14" lengthAdjust="spacing" textLength="125.9111" x="2479.9249" y="123.4436">OptionalXyzStarts</text><line style="stroke:#181818;stroke-width:0.5;" x1="2442.28" x2="2615.7273" y1="134.5969" y2="134.5969"/><text fill="#000000" font-family="sans-serif" font-size="14" lengthAdjust="spacing" textLength="163.4473" x="2447.28" y="151.592">float | None x_start_um</text><text fill="#000000" font-family="sans-serif" font-size="14" lengthAdjust="spacing" textLength="163.4473" x="2447.28" y="167.8889">float | None y_start_um</text><text fill="#000000" font-family="sans-serif" font-size="14" lengthAdjust="spacing" textLength="162.5107" x="2447.28" y="184.1857">float | None z_start_um</text><line style="stroke:#181818;stroke-width:0.5;" x1="2442.28" x2="2615.7273" y1="191.4875" y2="191.4875"/></g><!--class MxBlueskyParameters--><g id="elem_MxBlueskyParameters"><rect codeLine="57" fill="#F1F1F1" height="64.2969" id="MxBlueskyParameters" rx="2.5" ry="2.5" style="stroke:#181818;stroke-width:0.5;" width="317.4639" x="2653.27" y="118.8969"/><ellipse cx="2729.8564" cy="134.8969" fill="#ADD1B2" rx="11" ry="11" style="stroke:#181818;stroke-width:1;"/><path d="M2732.8252,140.5375 Q2732.2471,140.8344 2731.6064,140.975 Q2730.9658,141.1312 2730.2627,141.1312 Q2727.7627,141.1312 2726.4346,139.4906 Q2725.1221,137.8344 2725.1221,134.7094 Q2725.1221,131.5844 2726.4346,129.9281 Q2727.7627,128.2719 2730.2627,128.2719 Q2730.9658,128.2719 2731.6064,128.4281 Q2732.2627,128.5844 2732.8252,128.8812 L2732.8252,131.6 Q2732.2002,131.0219 2731.6064,130.7562 Q2731.0127,130.475 2730.3877,130.475 Q2729.0439,130.475 2728.3564,131.5531 Q2727.6689,132.6156 2727.6689,134.7094 Q2727.6689,136.8031 2728.3564,137.8812 Q2729.0439,138.9437 2730.3877,138.9437 Q2731.0127,138.9437 2731.6064,138.6781 Q2732.2002,138.3969 2732.8252,137.8187 L2732.8252,140.5375 Z " fill="#000000"/><text fill="#000000" font-family="sans-serif" font-size="14" lengthAdjust="spacing" textLength="155.791" x="2750.3564" y="139.7436">MxBlueskyParameters</text><line style="stroke:#181818;stroke-width:0.5;" x1="2654.27" x2="2969.7339" y1="150.8969" y2="150.8969"/><text fill="#000000" font-family="sans-serif" font-size="14" lengthAdjust="spacing" textLength="305.4639" x="2659.27" y="167.892">SemanticVersion parameter_model_version</text><line style="stroke:#181818;stroke-width:0.5;" x1="2654.27" x2="2969.7339" y1="175.1937" y2="175.1937"/></g><!--class GridCommon--><g id="elem_GridCommon"><rect codeLine="60" fill="#F1F1F1" height="145.7813" id="GridCommon" rx="2.5" ry="2.5" style="stroke:#181818;stroke-width:0.5;" width="332.332" x="2640.83" y="654.7569"/><ellipse cx="2756.5282" cy="670.7569" fill="#ADD1B2" rx="11" ry="11" style="stroke:#181818;stroke-width:1;"/><path d="M2759.497,676.3975 Q2758.9189,676.6944 2758.2782,676.835 Q2757.6376,676.9912 2756.9345,676.9912 Q2754.4345,676.9912 2753.1064,675.3506 Q2751.7939,673.6944 2751.7939,670.5694 Q2751.7939,667.4444 2753.1064,665.7881 Q2754.4345,664.1319 2756.9345,664.1319 Q2757.6376,664.1319 2758.2782,664.2881 Q2758.9345,664.4444 2759.497,664.7412 L2759.497,667.46 Q2758.872,666.8819 2758.2782,666.6162 Q2757.6845,666.335 2757.0595,666.335 Q2755.7157,666.335 2755.0282,667.4131 Q2754.3407,668.4756 2754.3407,670.5694 Q2754.3407,672.6631 2755.0282,673.7412 Q2755.7157,674.8037 2757.0595,674.8037 Q2757.6845,674.8037 2758.2782,674.5381 Q2758.872,674.2569 2759.497,673.6787 L2759.497,676.3975 Z " fill="#000000"/><text fill="#000000" font-family="sans-serif" font-size="14" lengthAdjust="spacing" textLength="92.4355" x="2777.0282" y="675.6036">GridCommon</text><line style="stroke:#181818;stroke-width:0.5;" x1="2641.83" x2="2972.162" y1="686.7569" y2="686.7569"/><text fill="#000000" font-family="sans-serif" font-size="14" lengthAdjust="spacing" textLength="125.2959" x="2646.83" y="703.752">float box_size_um</text><text fill="#000000" font-family="sans-serif" font-size="14" lengthAdjust="spacing" textLength="138.4209" x="2646.83" y="720.0489">float grid_width_um</text><text fill="#000000" font-family="sans-serif" font-size="14" lengthAdjust="spacing" textLength="153.7129" x="2646.83" y="736.3457">float exposure_time_s</text><text fill="#000000" font-family="sans-serif" font-size="14" lengthAdjust="spacing" textLength="320.332" x="2646.83" y="752.6426">IspybExperimentType ispyb_experiment_type</text><text fill="#000000" font-family="sans-serif" font-size="14" lengthAdjust="spacing" textLength="282.3516" x="2646.83" y="768.9395">ApertureValue | None selected_aperture</text><text fill="#000000" font-family="sans-serif" font-size="14" lengthAdjust="spacing" textLength="130.498" x="2646.83" y="785.2364">float tip_offset_um</text><line style="stroke:#181818;stroke-width:0.5;" x1="2641.83" x2="2972.162" y1="792.5381" y2="792.5381"/></g><!--class SpecifiedThreeDGridScan--><g id="elem_SpecifiedThreeDGridScan"><rect codeLine="68" fill="#F1F1F1" height="227.2656" id="SpecifiedThreeDGridScan" rx="2.5" ry="2.5" style="stroke:#181818;stroke-width:0.5;" width="210.8965" x="2640.55" y="860.5369"/><ellipse cx="2655.55" cy="876.5369" fill="#ADD1B2" rx="11" ry="11" style="stroke:#181818;stroke-width:1;"/><path d="M2658.5188,882.1775 Q2657.9406,882.4744 2657.3,882.615 Q2656.6594,882.7713 2655.9563,882.7713 Q2653.4563,882.7713 2652.1281,881.1306 Q2650.8156,879.4744 2650.8156,876.3494 Q2650.8156,873.2244 2652.1281,871.5681 Q2653.4563,869.9119 2655.9563,869.9119 Q2656.6594,869.9119 2657.3,870.0681 Q2657.9563,870.2244 2658.5188,870.5213 L2658.5188,873.24 Q2657.8938,872.6619 2657.3,872.3963 Q2656.7063,872.115 2656.0813,872.115 Q2654.7375,872.115 2654.05,873.1931 Q2653.3625,874.2556 2653.3625,876.3494 Q2653.3625,878.4431 2654.05,879.5213 Q2654.7375,880.5838 2656.0813,880.5838 Q2656.7063,880.5838 2657.3,880.3181 Q2657.8938,880.0369 2658.5188,879.4588 L2658.5188,882.1775 Z " fill="#000000"/><text fill="#000000" font-family="sans-serif" font-size="14" lengthAdjust="spacing" textLength="178.8965" x="2669.55" y="881.3836">SpecifiedThreeDGridScan</text><line style="stroke:#181818;stroke-width:0.5;" x1="2641.55" x2="2850.4465" y1="892.5369" y2="892.5369"/><text fill="#000000" font-family="sans-serif" font-size="14" lengthAdjust="spacing" textLength="160.8975" x="2646.55" y="909.532">float grid1_omega_deg</text><text fill="#000000" font-family="sans-serif" font-size="14" lengthAdjust="spacing" textLength="160.8975" x="2646.55" y="925.8289">float grid2_omega_deg</text><text fill="#000000" font-family="sans-serif" font-size="14" lengthAdjust="spacing" textLength="145.127" x="2646.55" y="942.1257">float x_step_size_um</text><text fill="#000000" font-family="sans-serif" font-size="14" lengthAdjust="spacing" textLength="145.127" x="2646.55" y="958.4226">float y_step_size_um</text><text fill="#000000" font-family="sans-serif" font-size="14" lengthAdjust="spacing" textLength="144.1904" x="2646.55" y="974.7195">float z_step_size_um</text><text fill="#000000" font-family="sans-serif" font-size="14" lengthAdjust="spacing" textLength="122.2129" x="2646.55" y="991.0164">float y2_start_um</text><text fill="#000000" font-family="sans-serif" font-size="14" lengthAdjust="spacing" textLength="121.2764" x="2646.55" y="1007.3132">float z2_start_um</text><text fill="#000000" font-family="sans-serif" font-size="14" lengthAdjust="spacing" textLength="75.5645" x="2646.55" y="1023.6101">int x_steps</text><text fill="#000000" font-family="sans-serif" font-size="14" lengthAdjust="spacing" textLength="75.5645" x="2646.55" y="1039.907">int y_steps</text><text fill="#000000" font-family="sans-serif" font-size="14" lengthAdjust="spacing" textLength="74.6279" x="2646.55" y="1056.2039">int z_steps</text><text fill="#000000" font-family="sans-serif" font-size="14" lengthAdjust="spacing" textLength="154.4102" x="2646.55" y="1072.5007">bool _set_stub_offsets</text><line style="stroke:#181818;stroke-width:0.5;" x1="2641.55" x2="2850.4465" y1="1079.8025" y2="1079.8025"/></g><!--class DiffractionExperiment--><g id="elem_DiffractionExperiment"><rect codeLine="81" fill="#F1F1F1" height="210.9688" id="DiffractionExperiment" rx="2.5" ry="2.5" style="stroke:#181818;stroke-width:0.5;" width="332.332" x="2640.83" y="275.7869"/><ellipse cx="2725.6127" cy="291.7869" fill="#ADD1B2" rx="11" ry="11" style="stroke:#181818;stroke-width:1;"/><path d="M2728.5815,297.4275 Q2728.0033,297.7244 2727.3627,297.865 Q2726.7221,298.0213 2726.019,298.0213 Q2723.519,298.0213 2722.1908,296.3806 Q2720.8783,294.7244 2720.8783,291.5994 Q2720.8783,288.4744 2722.1908,286.8181 Q2723.519,285.1619 2726.019,285.1619 Q2726.7221,285.1619 2727.3627,285.3181 Q2728.019,285.4744 2728.5815,285.7713 L2728.5815,288.49 Q2727.9565,287.9119 2727.3627,287.6463 Q2726.769,287.365 2726.144,287.365 Q2724.8002,287.365 2724.1127,288.4431 Q2723.4252,289.5056 2723.4252,291.5994 Q2723.4252,293.6931 2724.1127,294.7713 Q2724.8002,295.8338 2726.144,295.8338 Q2726.769,295.8338 2727.3627,295.5681 Q2727.9565,295.2869 2728.5815,294.7088 L2728.5815,297.4275 Z " fill="#000000"/><text fill="#000000" font-family="sans-serif" font-size="14" lengthAdjust="spacing" textLength="154.2666" x="2746.1127" y="296.6336">DiffractionExperiment</text><line style="stroke:#181818;stroke-width:0.5;" x1="2641.83" x2="2972.162" y1="307.7869" y2="307.7869"/><text fill="#000000" font-family="sans-serif" font-size="14" lengthAdjust="spacing" textLength="91.0137" x="2646.83" y="324.782">str file_name</text><text fill="#000000" font-family="sans-serif" font-size="14" lengthAdjust="spacing" textLength="153.7129" x="2646.83" y="341.0789">float exposure_time_s</text><text fill="#000000" font-family="sans-serif" font-size="14" lengthAdjust="spacing" textLength="89.5029" x="2646.83" y="357.3757">str comment</text><text fill="#000000" font-family="sans-serif" font-size="14" lengthAdjust="spacing" textLength="186.915" x="2646.83" y="373.6726">TriggerMode trigger_mode</text><text fill="#000000" font-family="sans-serif" font-size="14" lengthAdjust="spacing" textLength="157.9854" x="2646.83" y="389.9695">int | None run_number</text><text fill="#000000" font-family="sans-serif" font-size="14" lengthAdjust="spacing" textLength="282.3516" x="2646.83" y="406.2664">ApertureValue | None selected_aperture</text><text fill="#000000" font-family="sans-serif" font-size="14" lengthAdjust="spacing" textLength="159.2979" x="2646.83" y="422.5632">float transmission_frac</text><text fill="#000000" font-family="sans-serif" font-size="14" lengthAdjust="spacing" textLength="320.332" x="2646.83" y="438.8601">IspybExperimentType ispyb_experiment_type</text><text fill="#000000" font-family="sans-serif" font-size="14" lengthAdjust="spacing" textLength="146.1113" x="2646.83" y="455.157">str storage_directory</text><text fill="#000000" font-family="sans-serif" font-size="14" lengthAdjust="spacing" textLength="131.0518" x="2646.83" y="471.4539">bool use_roi_mode</text><line style="stroke:#181818;stroke-width:0.5;" x1="2641.83" x2="2972.162" y1="478.7556" y2="478.7556"/></g><!--class DiffractionExperimentWithSample--><g id="elem_DiffractionExperimentWithSample"><rect codeLine="93" fill="#F1F1F1" height="48" id="DiffractionExperimentWithSample" rx="2.5" ry="2.5" style="stroke:#181818;stroke-width:0.5;" width="270.8545" x="2671.57" y="546.7569"/><ellipse cx="2686.57" cy="562.7569" fill="#ADD1B2" rx="11" ry="11" style="stroke:#181818;stroke-width:1;"/><path d="M2689.5388,568.3975 Q2688.9606,568.6944 2688.32,568.835 Q2687.6794,568.9912 2686.9763,568.9912 Q2684.4763,568.9912 2683.1481,567.3506 Q2681.8356,565.6944 2681.8356,562.5694 Q2681.8356,559.4444 2683.1481,557.7881 Q2684.4763,556.1319 2686.9763,556.1319 Q2687.6794,556.1319 2688.32,556.2881 Q2688.9763,556.4444 2689.5388,556.7412 L2689.5388,559.46 Q2688.9138,558.8819 2688.32,558.6162 Q2687.7263,558.335 2687.1013,558.335 Q2685.7575,558.335 2685.07,559.4131 Q2684.3825,560.4756 2684.3825,562.5694 Q2684.3825,564.6631 2685.07,565.7412 Q2685.7575,566.8037 2687.1013,566.8037 Q2687.7263,566.8037 2688.32,566.5381 Q2688.9138,566.2569 2689.5388,565.6787 L2689.5388,568.3975 Z " fill="#000000"/><text fill="#000000" font-family="sans-serif" font-size="14" lengthAdjust="spacing" textLength="238.8545" x="2700.57" y="567.6036">DiffractionExperimentWithSample</text><line style="stroke:#181818;stroke-width:0.5;" x1="2672.57" x2="2941.4245" y1="578.7569" y2="578.7569"/><line style="stroke:#181818;stroke-width:0.5;" x1="2672.57" x2="2941.4245" y1="586.7569" y2="586.7569"/></g><!--class RobotLoadThenCentre--><g id="elem_RobotLoadThenCentre"><rect codeLine="98" fill="#F1F1F1" height="64.2969" id="RobotLoadThenCentre" rx="2.5" ry="2.5" style="stroke:#181818;stroke-width:0.5;" width="212.9355" x="3281.53" y="1147.7969"/><ellipse cx="3307.2575" cy="1163.7969" fill="#ADD1B2" rx="11" ry="11" style="stroke:#181818;stroke-width:1;"/><path d="M3310.2262,1169.4375 Q3309.6481,1169.7344 3309.0075,1169.875 Q3308.3669,1170.0313 3307.6637,1170.0313 Q3305.1637,1170.0313 3303.8356,1168.3906 Q3302.5231,1166.7344 3302.5231,1163.6094 Q3302.5231,1160.4844 3303.8356,1158.8281 Q3305.1637,1157.1719 3307.6637,1157.1719 Q3308.3669,1157.1719 3309.0075,1157.3281 Q3309.6637,1157.4844 3310.2262,1157.7813 L3310.2262,1160.5 Q3309.6012,1159.9219 3309.0075,1159.6563 Q3308.4137,1159.375 3307.7887,1159.375 Q3306.445,1159.375 3305.7575,1160.4531 Q3305.07,1161.5156 3305.07,1163.6094 Q3305.07,1165.7031 3305.7575,1166.7813 Q3306.445,1167.8438 3307.7887,1167.8438 Q3308.4137,1167.8438 3309.0075,1167.5781 Q3309.6012,1167.2969 3310.2262,1166.7188 L3310.2262,1169.4375 Z " fill="#000000"/><text fill="#000000" font-family="sans-serif" font-size="14" lengthAdjust="spacing" textLength="157.0967" x="3323.6414" y="1168.6436">RobotLoadThenCentre</text><line style="stroke:#181818;stroke-width:0.5;" x1="3282.53" x2="3493.4655" y1="1179.7969" y2="1179.7969"/><text fill="#000000" font-family="sans-serif" font-size="14" lengthAdjust="spacing" textLength="200.9355" x="3287.53" y="1196.792">&lt;class 'float'&gt; thawing_time</text><line style="stroke:#181818;stroke-width:0.5;" x1="3282.53" x2="3493.4655" y1="1204.0938" y2="1204.0938"/></g><!--class PinTipCentreThenXrayCentre--><g id="elem_PinTipCentreThenXrayCentre"><rect codeLine="101" fill="#F1F1F1" height="64.2969" id="PinTipCentreThenXrayCentre" rx="2.5" ry="2.5" style="stroke:#181818;stroke-width:0.5;" width="235.8955" x="3529.05" y="1147.7969"/><ellipse cx="3544.05" cy="1163.7969" fill="#ADD1B2" rx="11" ry="11" style="stroke:#181818;stroke-width:1;"/><path d="M3547.0188,1169.4375 Q3546.4406,1169.7344 3545.8,1169.875 Q3545.1594,1170.0313 3544.4563,1170.0313 Q3541.9563,1170.0313 3540.6281,1168.3906 Q3539.3156,1166.7344 3539.3156,1163.6094 Q3539.3156,1160.4844 3540.6281,1158.8281 Q3541.9563,1157.1719 3544.4563,1157.1719 Q3545.1594,1157.1719 3545.8,1157.3281 Q3546.4563,1157.4844 3547.0188,1157.7813 L3547.0188,1160.5 Q3546.3938,1159.9219 3545.8,1159.6563 Q3545.2063,1159.375 3544.5813,1159.375 Q3543.2375,1159.375 3542.55,1160.4531 Q3541.8625,1161.5156 3541.8625,1163.6094 Q3541.8625,1165.7031 3542.55,1166.7813 Q3543.2375,1167.8438 3544.5813,1167.8438 Q3545.2063,1167.8438 3545.8,1167.5781 Q3546.3938,1167.2969 3547.0188,1166.7188 L3547.0188,1169.4375 Z " fill="#000000"/><text fill="#000000" font-family="sans-serif" font-size="14" lengthAdjust="spacing" textLength="203.8955" x="3558.05" y="1168.6436">PinTipCentreThenXrayCentre</text><line style="stroke:#181818;stroke-width:0.5;" x1="3530.05" x2="3763.9455" y1="1179.7969" y2="1179.7969"/><text fill="#000000" font-family="sans-serif" font-size="14" lengthAdjust="spacing" textLength="130.498" x="3535.05" y="1196.792">float tip_offset_um</text><line style="stroke:#181818;stroke-width:0.5;" x1="3530.05" x2="3763.9455" y1="1204.0938" y2="1204.0938"/></g><!--class RotationScanPerSweep--><g id="elem_RotationScanPerSweep"><rect codeLine="104" fill="#F1F1F1" height="129.4844" id="RotationScanPerSweep" rx="2.5" ry="2.5" style="stroke:#181818;stroke-width:0.5;" width="263.0498" x="4566.48" y="909.4269"/><ellipse cx="4612.5166" cy="925.4269" fill="#ADD1B2" rx="11" ry="11" style="stroke:#181818;stroke-width:1;"/><path d="M4615.4854,931.0675 Q4614.9072,931.3644 4614.2666,931.505 Q4613.626,931.6612 4612.9229,931.6612 Q4610.4229,931.6612 4609.0947,930.0206 Q4607.7822,928.3644 4607.7822,925.2394 Q4607.7822,922.1144 4609.0947,920.4581 Q4610.4229,918.8019 4612.9229,918.8019 Q4613.626,918.8019 4614.2666,918.9581 Q4614.9229,919.1144 4615.4854,919.4112 L4615.4854,922.13 Q4614.8604,921.5519 4614.2666,921.2862 Q4613.6729,921.005 4613.0479,921.005 Q4611.7041,921.005 4611.0166,922.0831 Q4610.3291,923.1456 4610.3291,925.2394 Q4610.3291,927.3331 4611.0166,928.4112 Q4611.7041,929.4737 4613.0479,929.4737 Q4613.6729,929.4737 4614.2666,929.2081 Q4614.8604,928.9269 4615.4854,928.3487 L4615.4854,931.0675 Z " fill="#000000"/><text fill="#000000" font-family="sans-serif" font-size="14" lengthAdjust="spacing" textLength="162.4766" x="4633.0166" y="930.2736">RotationScanPerSweep</text><line style="stroke:#181818;stroke-width:0.5;" x1="4567.48" x2="4828.5298" y1="941.4269" y2="941.4269"/><text fill="#000000" font-family="sans-serif" font-size="14" lengthAdjust="spacing" textLength="157.1787" x="4572.48" y="958.422">float omega_start_deg</text><text fill="#000000" font-family="sans-serif" font-size="14" lengthAdjust="spacing" textLength="182.9297" x="4572.48" y="974.7189">RotationAxis rotation_axis</text><text fill="#000000" font-family="sans-serif" font-size="14" lengthAdjust="spacing" textLength="147.3213" x="4572.48" y="991.0157">float scan_width_deg</text><text fill="#000000" font-family="sans-serif" font-size="14" lengthAdjust="spacing" textLength="251.0498" x="4572.48" y="1007.3126">RotationDirection rotation_direction</text><text fill="#000000" font-family="sans-serif" font-size="14" lengthAdjust="spacing" textLength="169.1279" x="4572.48" y="1023.6095">int nexus_vds_start_img</text><line style="stroke:#181818;stroke-width:0.5;" x1="4567.48" x2="4828.5298" y1="1030.9112" y2="1030.9112"/></g><!--class GridCommonWithHyperionDetectorParams--><g id="elem_GridCommonWithHyperionDetectorParams"><rect codeLine="111" fill="#F1F1F1" height="48" id="GridCommonWithHyperionDetectorParams" rx="2.5" ry="2.5" style="stroke:#181818;stroke-width:0.5;" width="333.2188" x="3074.39" y="950.1669"/><ellipse cx="3089.39" cy="966.1669" fill="#ADD1B2" rx="11" ry="11" style="stroke:#181818;stroke-width:1;"/><path d="M3092.3588,971.8075 Q3091.7806,972.1044 3091.14,972.245 Q3090.4994,972.4012 3089.7963,972.4012 Q3087.2963,972.4012 3085.9681,970.7606 Q3084.6556,969.1044 3084.6556,965.9794 Q3084.6556,962.8544 3085.9681,961.1981 Q3087.2963,959.5419 3089.7963,959.5419 Q3090.4994,959.5419 3091.14,959.6981 Q3091.7963,959.8544 3092.3588,960.1512 L3092.3588,962.87 Q3091.7338,962.2919 3091.14,962.0262 Q3090.5463,961.745 3089.9213,961.745 Q3088.5775,961.745 3087.89,962.8231 Q3087.2025,963.8856 3087.2025,965.9794 Q3087.2025,968.0731 3087.89,969.1512 Q3088.5775,970.2137 3089.9213,970.2137 Q3090.5463,970.2137 3091.14,969.9481 Q3091.7338,969.6669 3092.3588,969.0887 L3092.3588,971.8075 Z " fill="#000000"/><text fill="#000000" font-family="sans-serif" font-size="14" lengthAdjust="spacing" textLength="301.2188" x="3103.39" y="971.0136">GridCommonWithHyperionDetectorParams</text><line style="stroke:#181818;stroke-width:0.5;" x1="3075.39" x2="3406.6088" y1="982.1669" y2="982.1669"/><line style="stroke:#181818;stroke-width:0.5;" x1="3075.39" x2="3406.6088" y1="990.1669" y2="990.1669"/></g><!--class HyperionSpecifiedThreeDGridScan--><g id="elem_HyperionSpecifiedThreeDGridScan"><rect codeLine="113" fill="#F1F1F1" height="48" id="HyperionSpecifiedThreeDGridScan" rx="2.5" ry="2.5" style="stroke:#181818;stroke-width:0.5;" width="274.293" x="3883.85" y="950.1669"/><ellipse cx="3898.85" cy="966.1669" fill="#ADD1B2" rx="11" ry="11" style="stroke:#181818;stroke-width:1;"/><path d="M3901.8188,971.8075 Q3901.2406,972.1044 3900.6,972.245 Q3899.9594,972.4012 3899.2563,972.4012 Q3896.7563,972.4012 3895.4281,970.7606 Q3894.1156,969.1044 3894.1156,965.9794 Q3894.1156,962.8544 3895.4281,961.1981 Q3896.7563,959.5419 3899.2563,959.5419 Q3899.9594,959.5419 3900.6,959.6981 Q3901.2563,959.8544 3901.8188,960.1512 L3901.8188,962.87 Q3901.1938,962.2919 3900.6,962.0262 Q3900.0063,961.745 3899.3813,961.745 Q3898.0375,961.745 3897.35,962.8231 Q3896.6625,963.8856 3896.6625,965.9794 Q3896.6625,968.0731 3897.35,969.1512 Q3898.0375,970.2137 3899.3813,970.2137 Q3900.0063,970.2137 3900.6,969.9481 Q3901.1938,969.6669 3901.8188,969.0887 L3901.8188,971.8075 Z " fill="#000000"/><text fill="#000000" font-family="sans-serif" font-size="14" lengthAdjust="spacing" textLength="242.293" x="3912.85" y="971.0136">HyperionSpecifiedThreeDGridScan</text><line style="stroke:#181818;stroke-width:0.5;" x1="3884.85" x2="4157.143" y1="982.1669" y2="982.1669"/><line style="stroke:#181818;stroke-width:0.5;" x1="3884.85" x2="4157.143" y1="990.1669" y2="990.1669"/></g><!--class GridScanWithEdgeDetect--><g id="elem_GridScanWithEdgeDetect"><rect codeLine="115" fill="#F1F1F1" height="48" id="GridScanWithEdgeDetect" rx="2.5" ry="2.5" style="stroke:#181818;stroke-width:0.5;" width="209.4268" x="3037.29" y="1155.9469"/><ellipse cx="3052.29" cy="1171.9469" fill="#ADD1B2" rx="11" ry="11" style="stroke:#181818;stroke-width:1;"/><path d="M3055.2588,1177.5875 Q3054.6806,1177.8844 3054.04,1178.025 Q3053.3994,1178.1812 3052.6963,1178.1812 Q3050.1963,1178.1812 3048.8681,1176.5406 Q3047.5556,1174.8844 3047.5556,1171.7594 Q3047.5556,1168.6344 3048.8681,1166.9781 Q3050.1963,1165.3219 3052.6963,1165.3219 Q3053.3994,1165.3219 3054.04,1165.4781 Q3054.6963,1165.6344 3055.2588,1165.9312 L3055.2588,1168.65 Q3054.6338,1168.0719 3054.04,1167.8062 Q3053.4463,1167.525 3052.8213,1167.525 Q3051.4775,1167.525 3050.79,1168.6031 Q3050.1025,1169.6656 3050.1025,1171.7594 Q3050.1025,1173.8531 3050.79,1174.9312 Q3051.4775,1175.9937 3052.8213,1175.9937 Q3053.4463,1175.9937 3054.04,1175.7281 Q3054.6338,1175.4469 3055.2588,1174.8687 L3055.2588,1177.5875 Z " fill="#000000"/><text fill="#000000" font-family="sans-serif" font-size="14" lengthAdjust="spacing" textLength="177.4268" x="3066.29" y="1176.7936">GridScanWithEdgeDetect</text><line style="stroke:#181818;stroke-width:0.5;" x1="3038.29" x2="3245.7168" y1="1187.9469" y2="1187.9469"/><line style="stroke:#181818;stroke-width:0.5;" x1="3038.29" x2="3245.7168" y1="1195.9469" y2="1195.9469"/></g><!--class LoadCentreCollect--><g id="elem_LoadCentreCollect"><rect codeLine="117" fill="#F1F1F1" height="80.5938" id="LoadCentreCollect" rx="2.5" ry="2.5" style="stroke:#181818;stroke-width:0.5;" width="338.6211" x="4192.69" y="933.8669"/><ellipse cx="4293.315" cy="949.8669" fill="#ADD1B2" rx="11" ry="11" style="stroke:#181818;stroke-width:1;"/><path d="M4296.2838,955.5075 Q4295.7056,955.8044 4295.065,955.945 Q4294.4244,956.1012 4293.7213,956.1012 Q4291.2213,956.1012 4289.8931,954.4606 Q4288.5806,952.8044 4288.5806,949.6794 Q4288.5806,946.5544 4289.8931,944.8981 Q4291.2213,943.2419 4293.7213,943.2419 Q4294.4244,943.2419 4295.065,943.3981 Q4295.7213,943.5544 4296.2838,943.8512 L4296.2838,946.57 Q4295.6588,945.9919 4295.065,945.7262 Q4294.4713,945.445 4293.8463,945.445 Q4292.5025,945.445 4291.815,946.5231 Q4291.1275,947.5856 4291.1275,949.6794 Q4291.1275,951.7731 4291.815,952.8512 Q4292.5025,953.9137 4293.8463,953.9137 Q4294.4713,953.9137 4295.065,953.6481 Q4295.6588,953.3669 4296.2838,952.7887 L4296.2838,955.5075 Z " fill="#000000"/><text fill="#000000" font-family="sans-serif" font-size="14" lengthAdjust="spacing" textLength="128.8711" x="4313.815" y="954.7136">LoadCentreCollect</text><line style="stroke:#181818;stroke-width:0.5;" x1="4193.69" x2="4530.3111" y1="965.8669" y2="965.8669"/><text fill="#000000" font-family="sans-serif" font-size="14" lengthAdjust="spacing" textLength="326.6211" x="4198.69" y="982.862">RobotLoadThenCentre robot_load_then_centre</text><text fill="#000000" font-family="sans-serif" font-size="14" lengthAdjust="spacing" textLength="269.3154" x="4198.69" y="999.1589">MultiRotationScan multi_rotation_scan</text><line style="stroke:#181818;stroke-width:0.5;" x1="4193.69" x2="4530.3111" y1="1006.4606" y2="1006.4606"/></g><!--class RotationExperiment--><g id="elem_RotationExperiment"><rect codeLine="121" fill="#F1F1F1" height="96.8906" id="RotationExperiment" rx="2.5" ry="2.5" style="stroke:#181818;stroke-width:0.5;" width="332.332" x="3516.83" y="925.7269"/><ellipse cx="3608.7118" cy="941.7269" fill="#ADD1B2" rx="11" ry="11" style="stroke:#181818;stroke-width:1;"/><path d="M3611.6806,947.3675 Q3611.1025,947.6644 3610.4618,947.805 Q3609.8212,947.9613 3609.1181,947.9613 Q3606.6181,947.9613 3605.29,946.3206 Q3603.9775,944.6644 3603.9775,941.5394 Q3603.9775,938.4144 3605.29,936.7581 Q3606.6181,935.1019 3609.1181,935.1019 Q3609.8212,935.1019 3610.4618,935.2581 Q3611.1181,935.4144 3611.6806,935.7113 L3611.6806,938.43 Q3611.0556,937.8519 3610.4618,937.5863 Q3609.8681,937.305 3609.2431,937.305 Q3607.8993,937.305 3607.2118,938.3831 Q3606.5243,939.4456 3606.5243,941.5394 Q3606.5243,943.6331 3607.2118,944.7113 Q3607.8993,945.7738 3609.2431,945.7738 Q3609.8681,945.7738 3610.4618,945.5081 Q3611.0556,945.2269 3611.6806,944.6488 L3611.6806,947.3675 Z " fill="#000000"/><text fill="#000000" font-family="sans-serif" font-size="14" lengthAdjust="spacing" textLength="140.0684" x="3629.2118" y="946.5736">RotationExperiment</text><line style="stroke:#181818;stroke-width:0.5;" x1="3517.83" x2="3848.162" y1="957.7269" y2="957.7269"/><text fill="#000000" font-family="sans-serif" font-size="14" lengthAdjust="spacing" textLength="202.8018" x="3522.83" y="974.722">float shutter_opening_time_s</text><text fill="#000000" font-family="sans-serif" font-size="14" lengthAdjust="spacing" textLength="202.9385" x="3522.83" y="991.0189">float rotation_increment_deg</text><text fill="#000000" font-family="sans-serif" font-size="14" lengthAdjust="spacing" textLength="320.332" x="3522.83" y="1007.3157">IspybExperimentType ispyb_experiment_type</text><line style="stroke:#181818;stroke-width:0.5;" x1="3517.83" x2="3848.162" y1="1014.6175" y2="1014.6175"/></g><!--class WithHyperionUDCFeatures--><g id="elem_WithHyperionUDCFeatures"><rect codeLine="126" fill="#F1F1F1" height="64.2969" id="WithHyperionUDCFeatures" rx="2.5" ry="2.5" style="stroke:#181818;stroke-width:0.5;" width="228.6719" x="3347.66" y="695.4969"/><ellipse cx="3366.7583" cy="711.4969" fill="#ADD1B2" rx="11" ry="11" style="stroke:#181818;stroke-width:1;"/><path d="M3369.7271,717.1375 Q3369.149,717.4344 3368.5083,717.575 Q3367.8677,717.7312 3367.1646,717.7312 Q3364.6646,717.7312 3363.3365,716.0906 Q3362.024,714.4344 3362.024,711.3094 Q3362.024,708.1844 3363.3365,706.5281 Q3364.6646,704.8719 3367.1646,704.8719 Q3367.8677,704.8719 3368.5083,705.0281 Q3369.1646,705.1844 3369.7271,705.4812 L3369.7271,708.2 Q3369.1021,707.6219 3368.5083,707.3562 Q3367.9146,707.075 3367.2896,707.075 Q3365.9458,707.075 3365.2583,708.1531 Q3364.5708,709.2156 3364.5708,711.3094 Q3364.5708,713.4031 3365.2583,714.4812 Q3365.9458,715.5437 3367.2896,715.5437 Q3367.9146,715.5437 3368.5083,715.2781 Q3369.1021,714.9969 3369.7271,714.4187 L3369.7271,717.1375 Z " fill="#000000"/><text fill="#000000" font-family="sans-serif" font-size="14" lengthAdjust="spacing" textLength="187.5645" x="3381.6691" y="716.3436">WithHyperionUDCFeatures</text><line style="stroke:#181818;stroke-width:0.5;" x1="3348.66" x2="3575.3319" y1="727.4969" y2="727.4969"/><text fill="#000000" font-family="sans-serif" font-size="14" lengthAdjust="spacing" textLength="216.6719" x="3353.66" y="744.492">HyperionFeatureFlags features</text><line style="stroke:#181818;stroke-width:0.5;" x1="3348.66" x2="3575.3319" y1="751.7937" y2="751.7937"/></g><!--class MultiRotationScan--><g id="elem_MultiRotationScan"><rect codeLine="129" fill="#F1F1F1" height="64.2969" id="MultiRotationScan" rx="2.5" ry="2.5" style="stroke:#181818;stroke-width:0.5;" width="540.001" x="4125" y="1147.7969"/><ellipse cx="4327.0327" cy="1163.7969" fill="#ADD1B2" rx="11" ry="11" style="stroke:#181818;stroke-width:1;"/><path d="M4330.0015,1169.4375 Q4329.4233,1169.7344 4328.7827,1169.875 Q4328.1421,1170.0313 4327.439,1170.0313 Q4324.939,1170.0313 4323.6108,1168.3906 Q4322.2983,1166.7344 4322.2983,1163.6094 Q4322.2983,1160.4844 4323.6108,1158.8281 Q4324.939,1157.1719 4327.439,1157.1719 Q4328.1421,1157.1719 4328.7827,1157.3281 Q4329.439,1157.4844 4330.0015,1157.7813 L4330.0015,1160.5 Q4329.3765,1159.9219 4328.7827,1159.6563 Q4328.189,1159.375 4327.564,1159.375 Q4326.2202,1159.375 4325.5327,1160.4531 Q4324.8452,1161.5156 4324.8452,1163.6094 Q4324.8452,1165.7031 4325.5327,1166.7813 Q4326.2202,1167.8438 4327.564,1167.8438 Q4328.189,1167.8438 4328.7827,1167.5781 Q4329.3765,1167.2969 4330.0015,1166.7188 L4330.0015,1169.4375 Z " fill="#000000"/><text fill="#000000" font-family="sans-serif" font-size="14" lengthAdjust="spacing" textLength="127.4355" x="4347.5327" y="1168.6436">MultiRotationScan</text><line style="stroke:#181818;stroke-width:0.5;" x1="4126" x2="4664.001" y1="1179.7969" y2="1179.7969"/><line style="stroke:#181818;stroke-width:0.5;" x1="4126" x2="4664.001" y1="1187.7969" y2="1187.7969"/><text fill="#000000" font-family="sans-serif" font-size="14" lengthAdjust="spacing" textLength="528.001" x="4131" y="1204.792">Annotated[list[RotationScanPerSweep], Len(min_length=1)] rotation_scans</text></g><!--class RotationScan--><g id="elem_RotationScan"><rect codeLine="132" fill="#F1F1F1" height="48" id="RotationScan" rx="2.5" ry="2.5" style="stroke:#181818;stroke-width:0.5;" width="125.2148" x="3800.39" y="1155.9469"/><ellipse cx="3815.39" cy="1171.9469" fill="#ADD1B2" rx="11" ry="11" style="stroke:#181818;stroke-width:1;"/><path d="M3818.3588,1177.5875 Q3817.7806,1177.8844 3817.14,1178.025 Q3816.4994,1178.1812 3815.7963,1178.1812 Q3813.2963,1178.1812 3811.9681,1176.5406 Q3810.6556,1174.8844 3810.6556,1171.7594 Q3810.6556,1168.6344 3811.9681,1166.9781 Q3813.2963,1165.3219 3815.7963,1165.3219 Q3816.4994,1165.3219 3817.14,1165.4781 Q3817.7963,1165.6344 3818.3588,1165.9312 L3818.3588,1168.65 Q3817.7338,1168.0719 3817.14,1167.8062 Q3816.5463,1167.525 3815.9213,1167.525 Q3814.5775,1167.525 3813.89,1168.6031 Q3813.2025,1169.6656 3813.2025,1171.7594 Q3813.2025,1173.8531 3813.89,1174.9312 Q3814.5775,1175.9937 3815.9213,1175.9937 Q3816.5463,1175.9937 3817.14,1175.7281 Q3817.7338,1175.4469 3818.3588,1174.8687 L3818.3588,1177.5875 Z " fill="#000000"/><text fill="#000000" font-family="sans-serif" font-size="14" lengthAdjust="spacing" textLength="93.2148" x="3829.39" y="1176.7936">RotationScan</text><line style="stroke:#181818;stroke-width:0.5;" x1="3801.39" x2="3924.6048" y1="1187.9469" y2="1187.9469"/><line style="stroke:#181818;stroke-width:0.5;" x1="3801.39" x2="3924.6048" y1="1195.9469" y2="1195.9469"/></g><!--reverse link GridCommonWithHyperionDetectorParams to RobotLoadThenCentre--><g id="link_GridCommonWithHyperionDetectorParams_RobotLoadThenCentre"><path codeLine="135" d="M3268.3914,1013.1444 C3294.8614,1049.8344 3335.67,1106.4069 3365.34,1147.5369 " fill="#FFFFFF" fill-opacity="0.00000" id="GridCommonWithHyperionDetectorParams-backto-RobotLoadThenCentre" style="stroke:#181818;stroke-width:1;"/><polygon fill="#FFFFFF" fill-opacity="0.00000" points="3257.86,998.5469,3263.5256,1016.6549,3273.2573,1009.634,3257.86,998.5469" style="stroke:#181818;stroke-width:1;"/></g><!--reverse link WithHyperionUDCFeatures to RobotLoadThenCentre--><g id="link_WithHyperionUDCFeatures_RobotLoadThenCentre"><path codeLine="136" d="M3464.6176,778.0701 C3467.5476,845.8301 3468.34,991.8769 3425,1119.7969 C3421.77,1129.3169 3416.75,1138.8869 3411.43,1147.4669 " fill="#FFFFFF" fill-opacity="0.00000" id="WithHyperionUDCFeatures-backto-RobotLoadThenCentre" style="stroke:#181818;stroke-width:1;"/><polygon fill="#FFFFFF" fill-opacity="0.00000" points="3463.84,760.0869,3458.6232,778.3293,3470.612,777.8109,3463.84,760.0869" style="stroke:#181818;stroke-width:1;"/></g><!--reverse link GridCommonWithHyperionDetectorParams to PinTipCentreThenXrayCentre--><g id="link_GridCommonWithHyperionDetectorParams_PinTipCentreThenXrayCentre"><path codeLine="137" d="M3287.5527,1008.9815 C3330.9027,1039.9115 3396.96,1084.2269 3472,1119.7969 C3493.59,1130.0369 3517.43,1139.3169 3540.39,1147.3469 " fill="#FFFFFF" fill-opacity="0.00000" id="GridCommonWithHyperionDetectorParams-backto-PinTipCentreThenXrayCentre" style="stroke:#181818;stroke-width:1;"/><polygon fill="#FFFFFF" fill-opacity="0.00000" points="3272.9,998.5269,3284.0678,1013.8657,3291.0376,1004.0973,3272.9,998.5269" style="stroke:#181818;stroke-width:1;"/></g><!--reverse link WithHyperionUDCFeatures to PinTipCentreThenXrayCentre--><g id="link_WithHyperionUDCFeatures_PinTipCentreThenXrayCentre"><path codeLine="138" d="M3460.394,778.23 C3458.114,860.94 3456.75,1063.3469 3499,1119.7969 C3507.37,1130.9869 3518.2,1140.0669 3530.19,1147.4269 " fill="#FFFFFF" fill-opacity="0.00000" id="WithHyperionUDCFeatures-backto-PinTipCentreThenXrayCentre" style="stroke:#181818;stroke-width:1;"/><polygon fill="#FFFFFF" fill-opacity="0.00000" points="3460.89,760.2369,3454.3963,778.0647,3466.3917,778.3954,3460.89,760.2369" style="stroke:#181818;stroke-width:1;"/></g><!--reverse link OptionalGonioAngleStarts to RotationScanPerSweep--><g id="link_OptionalGonioAngleStarts_RotationScanPerSweep"><path codeLine="139" d="M1666.4009,214.3515 C1674.5209,217.3715 1665.87,213.7269 1674,215.7869 C2113.08,326.6469 3281.03,133.6069 3711,275.7869 C4111.65,408.2669 4491.98,763.0269 4636.62,909.0369 " fill="#FFFFFF" fill-opacity="0.00000" id="OptionalGonioAngleStarts-backto-RotationScanPerSweep" style="stroke:#181818;stroke-width:1;"/><polygon fill="#FFFFFF" fill-opacity="0.00000" points="1649.53,208.0769,1664.3094,219.9752,1668.4925,208.7279,1649.53,208.0769" style="stroke:#181818;stroke-width:1;"/></g><!--reverse link OptionalXyzStarts to RotationScanPerSweep--><g id="link_OptionalXyzStarts_RotationScanPerSweep"><path codeLine="140" d="M2606.0103,208.964 C2616.9903,215.414 2613.19,211.9869 2625,215.7869 C2803.89,273.2469 4155.01,177.2469 4315,275.7869 C4550.52,420.8369 4651.93,765.6769 4684.93,908.9869 " fill="#FFFFFF" fill-opacity="0.00000" id="OptionalXyzStarts-backto-RotationScanPerSweep" style="stroke:#181818;stroke-width:1;"/><polygon fill="#FFFFFF" fill-opacity="0.00000" points="2590.49,199.8469,2602.9712,214.1374,2609.0493,203.7905,2590.49,199.8469" style="stroke:#181818;stroke-width:1;"/></g><!--reverse link GridCommon to SpecifiedThreeDGridScan--><g id="link_GridCommon_SpecifiedThreeDGridScan"><path codeLine="141" d="M2784.591,818.4811 C2779.951,837.0711 2779.21,840.0569 2774.19,860.1669 " fill="#FFFFFF" fill-opacity="0.00000" id="GridCommon-backto-SpecifiedThreeDGridScan" style="stroke:#181818;stroke-width:1;"/><polygon fill="#FFFFFF" fill-opacity="0.00000" points="2788.95,801.0169,2778.7696,817.0281,2790.4124,819.9341,2788.95,801.0169" style="stroke:#181818;stroke-width:1;"/></g><!--reverse link SpecifiedGrid to SpecifiedThreeDGridScan--><g id="link_SpecifiedGrid_SpecifiedThreeDGridScan"><path codeLine="142" d="M284.5061,414.2637 C418.7561,486.8037 830.46,700.2069 1213,800.5369 C1736.64,937.8669 2389.06,965.9569 2640.47,971.6969 " fill="#FFFFFF" fill-opacity="0.00000" id="SpecifiedGrid-backto-SpecifiedThreeDGridScan" style="stroke:#181818;stroke-width:1;"/><polygon fill="#FFFFFF" fill-opacity="0.00000" points="268.67,405.7069,281.6538,419.5424,287.3583,408.985,268.67,405.7069" style="stroke:#181818;stroke-width:1;"/></g><!--reverse link SplitScan to SpecifiedThreeDGridScan--><g id="link_SplitScan_SpecifiedThreeDGridScan"><path codeLine="143" d="M1775.8396,187.9327 C1788.2996,200.2527 1791.31,202.8169 1806,215.7869 C2098.85,474.2469 2463.52,757.8069 2640.21,892.9269 " fill="#FFFFFF" fill-opacity="0.00000" id="SplitScan-backto-SpecifiedThreeDGridScan" style="stroke:#181818;stroke-width:1;"/><polygon fill="#FFFFFF" fill-opacity="0.00000" points="1763.04,175.2769,1771.621,192.1992,1780.0582,183.6661,1763.04,175.2769" style="stroke:#181818;stroke-width:1;"/></g><!--reverse link WithOptionalEnergyChange to SpecifiedThreeDGridScan--><g id="link_WithOptionalEnergyChange_SpecifiedThreeDGridScan"><path codeLine="144" d="M520.4877,191.3646 C542.9177,202.0946 552.25,206.0669 576,215.7869 C1354.75,534.4969 2322.95,842.0469 2640.09,940.5769 " fill="#FFFFFF" fill-opacity="0.00000" id="WithOptionalEnergyChange-backto-SpecifiedThreeDGridScan" style="stroke:#181818;stroke-width:1;"/><polygon fill="#FFFFFF" fill-opacity="0.00000" points="504.25,183.5969,517.8984,196.7772,523.0769,185.9521,504.25,183.5969" style="stroke:#181818;stroke-width:1;"/></g><!--reverse link MxBlueskyParameters to DiffractionExperiment--><g id="link_MxBlueskyParameters_DiffractionExperiment"><path codeLine="145" d="M2810.9224,201.2925 C2810.3924,225.2825 2810.03,241.8769 2809.3,275.3969 " fill="#FFFFFF" fill-opacity="0.00000" id="MxBlueskyParameters-backto-DiffractionExperiment" style="stroke:#181818;stroke-width:1;"/><polygon fill="#FFFFFF" fill-opacity="0.00000" points="2811.32,183.2969,2804.9239,201.16,2816.921,201.425,2811.32,183.2969" style="stroke:#181818;stroke-width:1;"/></g><!--reverse link WithSnapshot to DiffractionExperiment--><g id="link_WithSnapshot_DiffractionExperiment"><path codeLine="146" d="M1052.6634,198.3788 C1077.0734,207.9688 1087.27,210.4069 1113,215.7869 C1443.89,284.9669 2309.09,179.0869 2633,275.7869 C2635.45,276.5169 2637.9,277.2869 2640.34,278.0969 " fill="#FFFFFF" fill-opacity="0.00000" id="WithSnapshot-backto-DiffractionExperiment" style="stroke:#181818;stroke-width:1;"/><polygon fill="#FFFFFF" fill-opacity="0.00000" points="1035.91,191.7969,1050.4695,203.9633,1054.8574,192.7943,1035.91,191.7969" style="stroke:#181818;stroke-width:1;"/></g><!--reverse link WithOptionalEnergyChange to DiffractionExperiment--><g id="link_WithOptionalEnergyChange_DiffractionExperiment"><path codeLine="147" d="M510.5956,191.9003 C534.6356,204.3803 547.9,209.0469 576,215.7869 C1020.72,322.3269 2194.14,147.2269 2633,275.7869 C2635.45,276.5069 2637.9,277.2669 2640.35,278.0669 " fill="#FFFFFF" fill-opacity="0.00000" id="WithOptionalEnergyChange-backto-DiffractionExperiment" style="stroke:#181818;stroke-width:1;"/><polygon fill="#FFFFFF" fill-opacity="0.00000" points="494.62,183.6069,507.8311,197.2255,513.36,186.5752,494.62,183.6069" style="stroke:#181818;stroke-width:1;"/></g><!--reverse link WithVisit to DiffractionExperiment--><g id="link_WithVisit_DiffractionExperiment"><path codeLine="148" d="M1419.3829,216.1228 C1425.3929,217.8328 1414.07,214.4569 1420,215.7869 C1946.65,334.0669 2116.56,118.7969 2633,275.7869 C2635.53,276.5569 2638.06,277.3669 2640.59,278.2169 " fill="#FFFFFF" fill-opacity="0.00000" id="WithVisit-backto-DiffractionExperiment" style="stroke:#181818;stroke-width:1;"/><polygon fill="#FFFFFF" fill-opacity="0.00000" points="1402.07,211.1969,1417.7409,221.8938,1421.0248,210.3519,1402.07,211.1969" style="stroke:#181818;stroke-width:1;"/></g><!--reverse link DiffractionExperiment to DiffractionExperimentWithSample--><g id="link_DiffractionExperiment_DiffractionExperimentWithSample"><path codeLine="149" d="M2807,505.2469 C2807,527.5069 2807,530.9069 2807,546.3269 " fill="#FFFFFF" fill-opacity="0.00000" id="DiffractionExperiment-backto-DiffractionExperimentWithSample" style="stroke:#181818;stroke-width:1;"/><polygon fill="#FFFFFF" fill-opacity="0.00000" points="2807,487.2469,2801,505.2469,2813,505.2469,2807,487.2469" style="stroke:#181818;stroke-width:1;"/></g><!--reverse link WithSample to DiffractionExperimentWithSample--><g id="link_WithSample_DiffractionExperimentWithSample"><path codeLine="150" d="M768.608,208.4115 C780.028,214.5615 776.15,211.6169 788,215.7869 C975.44,281.6669 1034.84,244.2269 1231,275.7869 C1780.25,364.1469 2432.55,493.7269 2692.16,546.2969 " fill="#FFFFFF" fill-opacity="0.00000" id="WithSample-backto-DiffractionExperimentWithSample" style="stroke:#181818;stroke-width:1;"/><polygon fill="#FFFFFF" fill-opacity="0.00000" points="752.76,199.8769,765.7632,213.6942,771.4529,203.1288,752.76,199.8769" style="stroke:#181818;stroke-width:1;"/></g><!--reverse link GridCommon to GridCommonWithHyperionDetectorParams--><g id="link_GridCommon_GridCommonWithHyperionDetectorParams"><path codeLine="151" d="M2951.1323,809.8524 C3040.8723,860.4124 3139.3,915.8669 3199.49,949.7769 " fill="#FFFFFF" fill-opacity="0.00000" id="GridCommon-backto-GridCommonWithHyperionDetectorParams" style="stroke:#181818;stroke-width:1;"/><polygon fill="#FFFFFF" fill-opacity="0.00000" points="2935.45,801.0169,2948.1871,815.0798,2954.0775,804.6249,2935.45,801.0169" style="stroke:#181818;stroke-width:1;"/></g><!--reverse link WithHyperionUDCFeatures to GridCommonWithHyperionDetectorParams--><g id="link_WithHyperionUDCFeatures_GridCommonWithHyperionDetectorParams"><path codeLine="152" d="M3421.4907,773.4609 C3376.4907,823.2509 3301.97,905.7169 3262.07,949.8569 " fill="#FFFFFF" fill-opacity="0.00000" id="WithHyperionUDCFeatures-backto-GridCommonWithHyperionDetectorParams" style="stroke:#181818;stroke-width:1;"/><polygon fill="#FFFFFF" fill-opacity="0.00000" points="3433.56,760.1069,3417.0393,769.4378,3425.942,777.484,3433.56,760.1069" style="stroke:#181818;stroke-width:1;"/></g><!--reverse link XyzStarts to SpecifiedGrid--><g id="link_XyzStarts_SpecifiedGrid"><path codeLine="153" d="M226,217.8869 C226,265.9869 226,320.1269 226,356.9069 " fill="#FFFFFF" fill-opacity="0.00000" id="XyzStarts-backto-SpecifiedGrid" style="stroke:#181818;stroke-width:1;"/><polygon fill="#FFFFFF" fill-opacity="0.00000" points="226,199.8869,220,217.8869,232,217.8869,226,199.8869" style="stroke:#181818;stroke-width:1;"/></g><!--reverse link WithScan to SpecifiedGrid--><g id="link_WithScan_SpecifiedGrid"><path codeLine="154" d="M103.6471,190.3094 C131.8271,234.0594 182.85,313.2769 211.06,357.0669 " fill="#FFFFFF" fill-opacity="0.00000" id="WithScan-backto-SpecifiedGrid" style="stroke:#181818;stroke-width:1;"/><polygon fill="#FFFFFF" fill-opacity="0.00000" points="93.9,175.1769,98.6029,193.5585,108.6913,187.0604,93.9,175.1769" style="stroke:#181818;stroke-width:1;"/></g><!--reverse link WithHyperionUDCFeatures to HyperionSpecifiedThreeDGridScan--><g id="link_WithHyperionUDCFeatures_HyperionSpecifiedThreeDGridScan"><path codeLine="155" d="M3531.9819,768.8399 C3557.6419,782.7599 3573.29,789.7769 3603,800.5369 C3716.13,841.5069 3757.5,810.6469 3867,860.5369 C3917.19,883.3969 3967.24,924.1669 3996.1,949.8769 " fill="#FFFFFF" fill-opacity="0.00000" id="WithHyperionUDCFeatures-backto-HyperionSpecifiedThreeDGridScan" style="stroke:#181818;stroke-width:1;"/><polygon fill="#FFFFFF" fill-opacity="0.00000" points="3516.16,760.2569,3529.1209,774.1139,3534.8429,763.5659,3516.16,760.2569" style="stroke:#181818;stroke-width:1;"/></g><!--reverse link SpecifiedThreeDGridScan to HyperionSpecifiedThreeDGridScan--><g id="link_SpecifiedThreeDGridScan_HyperionSpecifiedThreeDGridScan"><path codeLine="156" d="M2867.3731,898.9242 C2921.1131,868.9742 2973.06,845.7369 3038.5,830.5369 C3126.27,810.1469 3764.81,799.7569 3849.5,830.5369 C3915.02,854.3469 3972.97,915.3869 4001.76,949.7369 " fill="#FFFFFF" fill-opacity="0.00000" id="SpecifiedThreeDGridScan-backto-HyperionSpecifiedThreeDGridScan" style="stroke:#181818;stroke-width:1;"/><polygon fill="#FFFFFF" fill-opacity="0.00000" points="2851.65,907.6869,2870.294,904.1652,2864.4522,893.6832,2851.65,907.6869" style="stroke:#181818;stroke-width:1;"/></g><!--reverse link GridCommonWithHyperionDetectorParams to GridScanWithEdgeDetect--><g id="link_GridCommonWithHyperionDetectorParams_GridScanWithEdgeDetect"><path codeLine="157" d="M3221.7757,1014.738 C3202.7357,1053.938 3172.44,1116.2969 3153.38,1155.5269 " fill="#FFFFFF" fill-opacity="0.00000" id="GridCommonWithHyperionDetectorParams-backto-GridScanWithEdgeDetect" style="stroke:#181818;stroke-width:1;"/><polygon fill="#FFFFFF" fill-opacity="0.00000" points="3229.64,998.5469,3216.3787,1012.1166,3227.1728,1017.3594,3229.64,998.5469" style="stroke:#181818;stroke-width:1;"/></g><!--reverse link WithHyperionUDCFeatures to GridScanWithEdgeDetect--><g id="link_WithHyperionUDCFeatures_GridScanWithEdgeDetect"><path codeLine="158" d="M3329.6598,754.2195 C3222.4998,777.1895 3091.62,812.8469 3057,860.5369 C2989.3,953.7769 3003.64,1017.6669 3057,1119.7969 C3064.74,1134.6169 3078.08,1146.4769 3091.92,1155.5669 " fill="#FFFFFF" fill-opacity="0.00000" id="WithHyperionUDCFeatures-backto-GridScanWithEdgeDetect" style="stroke:#181818;stroke-width:1;"/><polygon fill="#FFFFFF" fill-opacity="0.00000" points="3347.26,750.4469,3328.4022,748.3528,3330.9173,760.0863,3347.26,750.4469" style="stroke:#181818;stroke-width:1;"/></g><!--reverse link MxBlueskyParameters to LoadCentreCollect--><g id="link_MxBlueskyParameters_LoadCentreCollect"><path codeLine="159" d="M2989.095,155.9505 C3466.925,167.2005 4842.72,205.4869 4909,275.7869 C4973.32,344.0069 4947.4,401.2169 4909,486.7569 C4856.3,604.1369 4544.71,840.1669 4416.78,933.6969 " fill="#FFFFFF" fill-opacity="0.00000" id="MxBlueskyParameters-backto-LoadCentreCollect" style="stroke:#181818;stroke-width:1;"/><polygon fill="#FFFFFF" fill-opacity="0.00000" points="2971.1,155.5269,2988.9538,161.9489,2989.2362,149.9522,2971.1,155.5269" style="stroke:#181818;stroke-width:1;"/></g><!--reverse link WithVisit to LoadCentreCollect--><g id="link_WithVisit_LoadCentreCollect"><path codeLine="160" d="M1419.3829,216.186 C1425.3929,217.856 1414.06,214.5169 1420,215.7869 C1541.49,241.6369 3557.53,198.7869 3655,275.7869 C3770.12,366.7269 3673.03,464.2169 3740,594.7569 C3794.02,700.0569 3808.24,738.4569 3909,800.5369 C4012.55,864.3269 4063.18,815.1069 4176,860.5369 C4222.75,879.3569 4271.32,909.1769 4307.1,933.4069 " fill="#FFFFFF" fill-opacity="0.00000" id="WithVisit-backto-LoadCentreCollect" style="stroke:#181818;stroke-width:1;"/><polygon fill="#FFFFFF" fill-opacity="0.00000" points="1402.04,211.3669,1417.7765,221.9669,1420.9893,210.405,1402.04,211.3669" style="stroke:#181818;stroke-width:1;"/></g><!--reverse link WithSample to LoadCentreCollect--><g id="link_WithSample_LoadCentreCollect"><path codeLine="161" d="M766.2209,208.4202 C778.2909,214.8602 775.22,212.0469 788,215.7869 C1257.65,353.0369 2520.43,134.8969 2989,275.7869 C3292.34,366.9969 3339.86,463.4269 3594,652.4969 C3673.85,711.8969 3671.67,758.7669 3762,800.5369 C3930.75,878.5669 4000.98,797.7969 4176,860.5369 C4224.33,877.8569 4273.8,908.5669 4309.57,933.5469 " fill="#FFFFFF" fill-opacity="0.00000" id="WithSample-backto-LoadCentreCollect" style="stroke:#181818;stroke-width:1;"/><polygon fill="#FFFFFF" fill-opacity="0.00000" points="750.34,199.9469,763.3965,213.7138,769.0453,203.1266,750.34,199.9469" style="stroke:#181818;stroke-width:1;"/></g><!--reverse link WithCentreSelection to LoadCentreCollect--><g id="link_WithCentreSelection_LoadCentreCollect"><path codeLine="162" d="M2341.1883,190.3576 C2371.3383,202.3876 2390.45,208.3069 2424,215.7869 C2742.17,286.7169 2843.68,179.1369 3155,275.7869 C3647.02,428.5269 4155.36,809.4569 4312.67,933.4669 " fill="#FFFFFF" fill-opacity="0.00000" id="WithCentreSelection-backto-LoadCentreCollect" style="stroke:#181818;stroke-width:1;"/><polygon fill="#FFFFFF" fill-opacity="0.00000" points="2324.47,183.6869,2338.9647,195.9303,2343.4119,184.7848,2324.47,183.6869" style="stroke:#181818;stroke-width:1;"/></g><!--reverse link WithHyperionUDCFeatures to LoadCentreCollect--><g id="link_WithHyperionUDCFeatures_LoadCentreCollect"><path codeLine="163" d="M3528.3297,769.0647 C3554.3697,783.7847 3571.52,791.2069 3603,800.5369 C3848.52,873.2469 3933.3,778.9169 4176,860.5369 C4225.02,877.0169 4274.84,908.1169 4310.57,933.4669 " fill="#FFFFFF" fill-opacity="0.00000" id="WithHyperionUDCFeatures-backto-LoadCentreCollect" style="stroke:#181818;stroke-width:1;"/><polygon fill="#FFFFFF" fill-opacity="0.00000" points="3512.66,760.2069,3525.3771,774.2879,3531.2823,763.8415,3512.66,760.2069" style="stroke:#181818;stroke-width:1;"/></g><!--reverse link DiffractionExperimentWithSample to RotationExperiment--><g id="link_DiffractionExperimentWithSample_RotationExperiment"><path codeLine="164" d="M2877.5772,602.3141 C2914.3072,618.2841 2947.43,632.8469 2991,652.4969 C3201.62,747.4969 3446.63,861.9769 3581.29,925.2469 " fill="#FFFFFF" fill-opacity="0.00000" id="DiffractionExperimentWithSample-backto-RotationExperiment" style="stroke:#181818;stroke-width:1;"/><polygon fill="#FFFFFF" fill-opacity="0.00000" points="2861.07,595.1369,2875.1848,607.8165,2879.9696,596.8117,2861.07,595.1369" style="stroke:#181818;stroke-width:1;"/></g><!--reverse link WithHyperionUDCFeatures to RotationExperiment--><g id="link_WithHyperionUDCFeatures_RotationExperiment"><path codeLine="165" d="M3502.5098,773.4605 C3540.3998,815.3805 3595.7,876.5769 3639.87,925.4369 " fill="#FFFFFF" fill-opacity="0.00000" id="WithHyperionUDCFeatures-backto-RotationExperiment" style="stroke:#181818;stroke-width:1;"/><polygon fill="#FFFFFF" fill-opacity="0.00000" points="3490.44,760.1069,3498.0586,777.4838,3506.9611,769.4372,3490.44,760.1069" style="stroke:#181818;stroke-width:1;"/></g><!--reverse link WithPandaGridScan to WithHyperionUDCFeatures--><g id="link_WithPandaGridScan_WithHyperionUDCFeatures"><path codeLine="166" d="M2016.0991,191.6678 C2040.5191,203.9178 2053.87,208.6169 2082,215.7869 C2277.75,265.6369 2804.05,194.5769 2989,275.7869 C3205.06,370.6569 3382.28,608.9969 3441.14,695.0469 " fill="#FFFFFF" fill-opacity="0.00000" id="WithPandaGridScan-backto-WithHyperionUDCFeatures" style="stroke:#181818;stroke-width:1;"/><polygon fill="#FFFFFF" fill-opacity="0.00000" points="2000.01,183.5969,2013.4088,197.0308,2018.7894,186.3048,2000.01,183.5969" style="stroke:#181818;stroke-width:1;"/></g><!--reverse link RotationExperiment to MultiRotationScan--><g id="link_RotationExperiment_MultiRotationScan"><path codeLine="167" d="M3741.2406,1035.4874 C3775.6506,1068.5974 3813,1098.0069 3866,1119.7969 C3913.6,1139.3669 4019.91,1153.1069 4124.83,1162.3869 " fill="#FFFFFF" fill-opacity="0.00000" id="RotationExperiment-backto-MultiRotationScan" style="stroke:#181818;stroke-width:1;"/><polygon fill="#FFFFFF" fill-opacity="0.00000" points="3728.27,1023.0069,3737.0804,1039.811,3745.4008,1031.1639,3728.27,1023.0069" style="stroke:#181818;stroke-width:1;"/></g><!--reverse link SplitScan to MultiRotationScan--><g id="link_SplitScan_MultiRotationScan"><path codeLine="168" d="M1768.1598,189.3187 C1780.0598,203.8387 1786.03,207.3869 1806,215.7869 C2024.66,307.7269 3706.02,236.7869 3940,275.7869 C4373.03,347.9569 4883,130.7469 4883,569.7569 C4883,569.7569 4883,569.7569 4883,728.6469 C4883,903.2269 4968.06,994.0069 4847,1119.7969 C4832.54,1134.8269 4753.4,1147.4969 4665.28,1157.2169 " fill="#FFFFFF" fill-opacity="0.00000" id="SplitScan-backto-MultiRotationScan" style="stroke:#181818;stroke-width:1;"/><polygon fill="#FFFFFF" fill-opacity="0.00000" points="1756.75,175.3969,1763.5192,193.122,1772.8004,185.5154,1756.75,175.3969" style="stroke:#181818;stroke-width:1;"/></g><!--reverse link DiffractionExperimentWithSample to GridCommon--><g id="link_DiffractionExperimentWithSample_GridCommon"><path codeLine="169" d="M2807,612.9369 C2807,628.8969 2807,633.0169 2807,654.5769 " fill="#FFFFFF" fill-opacity="0.00000" id="DiffractionExperimentWithSample-backto-GridCommon" style="stroke:#181818;stroke-width:1;"/><polygon fill="#FFFFFF" fill-opacity="0.00000" points="2807,594.9369,2801,612.9369,2813,612.9369,2807,594.9369" style="stroke:#181818;stroke-width:1;"/></g><!--reverse link OptionalGonioAngleStarts to GridCommon--><g id="link_OptionalGonioAngleStarts_GridCommon"><path codeLine="170" d="M1673.2,215.4529 C1678.94,218.2329 1668.43,213.1369 1674,215.7869 C2014.93,378.1169 2419.19,557.2369 2640.89,654.3269 " fill="#FFFFFF" fill-opacity="0.00000" id="OptionalGonioAngleStarts-backto-GridCommon" style="stroke:#181818;stroke-width:1;"/><polygon fill="#FFFFFF" fill-opacity="0.00000" points="1657,207.6069,1670.5847,220.8529,1675.8153,210.0529,1657,207.6069" style="stroke:#181818;stroke-width:1;"/></g><!--reverse link WithScan to RotationScan--><g id="link_WithScan_RotationScan"><path codeLine="171" d="M81.6424,193.0912 C85.6224,256.2312 95,419.1669 95,569.7569 C95,569.7569 95,569.7569 95,728.6469 C95,1297.5469 2058.34,1069.3469 2625,1119.7969 C2881.17,1142.6069 3529.72,1097.7969 3782,1147.7969 C3791.16,1149.6169 3800.64,1152.3769 3809.74,1155.5269 " fill="#FFFFFF" fill-opacity="0.00000" id="WithScan-backto-RotationScan" style="stroke:#181818;stroke-width:1;"/><polygon fill="#FFFFFF" fill-opacity="0.00000" points="80.51,175.1269,75.6543,193.4687,87.6305,192.7138,80.51,175.1269" style="stroke:#181818;stroke-width:1;"/></g><!--reverse link RotationScanPerSweep to RotationScan--><g id="link_RotationScanPerSweep_RotationScan"><path codeLine="172" d="M4638.4994,1052.6041 C4612.2194,1082.6941 4588.72,1102.2069 4549,1119.7969 C4459.01,1159.6569 4204.97,1138.4569 4107,1147.7969 C4045.36,1153.6769 3975.27,1162.8969 3926.07,1169.7769 " fill="#FFFFFF" fill-opacity="0.00000" id="RotationScanPerSweep-backto-RotationScan" style="stroke:#181818;stroke-width:1;"/><polygon fill="#FFFFFF" fill-opacity="0.00000" points="4650.34,1039.0469,4633.9803,1048.6573,4643.0184,1056.551,4650.34,1039.0469" style="stroke:#181818;stroke-width:1;"/></g><!--reverse link RotationExperiment to RotationScan--><g id="link_RotationExperiment_RotationScan"><path codeLine="173" d="M3737.117,1036.4371 C3774.007,1078.1971 3814.07,1123.5569 3842.48,1155.7169 " fill="#FFFFFF" fill-opacity="0.00000" id="RotationExperiment-backto-RotationScan" style="stroke:#181818;stroke-width:1;"/><polygon fill="#FFFFFF" fill-opacity="0.00000" points="3725.2,1022.9469,3732.6203,1040.4094,3741.6137,1032.4647,3725.2,1022.9469" style="stroke:#181818;stroke-width:1;"/></g><!--SRC=[bLTBRzms43wlVWLlRe7QG79E2pXh9oqGfqRMSGC41i6LPYN24acGbBEou__U8IbfzTuDVB0uByxZcndksLt63Tdn70Z-PwMLvoa8qCn2GhOLQGvKvKpOiiWlL1L5bbjK-BjIeBaKv9PfLe05JMva0dbam1A15ADO31jGoBPI4o45H17I7baAfDZJRLw2UQmkObaKKboenemXBv6LATWCJRv4SSwC8T-gvurbsfgNQBNB9RDaJuqZqB9eADM8ydoWlDQ6_bKMdMRvHocul1Hf3WExFybdz9J80b9MgoUG3hWguxEyU87to9JgMcsy-e_RRCCAbGFwmOKbnXyeJyAnLg-fgemV9-bSz2msiLvZ5TDgdJ6HmZ3E10ec4WfUXC9JQs2ZScutCHClVIz7b5lKPnyrJmAhDgySbUfIb8ec72CMCT2Yw9Y7cEyu94wpRt0Dmcf4JWwnynzDtadr-Nrrm_PhMGhRSeZnNpJs2gRlfs3APDAYzYsp6J7r6PtHg2Dr5QrozEkxT_UXpMGZvkjlHaMwvuOxcyPgiWLMv1nHxKzFZXC-4x0-PcebTK8qbk89D6ARAlGb275Xa8HHKALXn_UZkbZlvcJociAEkwBM7ZT7pQZc6BrMUHqtuCt-VUZNjjtTfHk77ilZUpowWhHDJ0it2-XJeBUEksAlVR-t7cybEikVeUDIYbBq1qzirY72NabJQg2M5q1DjFh7g6fxlNTJg400tE4ymYc6D0ejaLgaHgjBF5lKlMSOGrjg3nv8AAkvpKsMAoftEvnZtS7H0lOkqm1N8y0xfzy4s7GRtv7VZickGA26WLUJrETfsRVZSTSbkV4GRZ7XK7KFpyrXAsLEg8lLs79RntrefIk-ssdck-sGwXh_RczGD-bdI-Iat7X77MnYpTCKj5iIn8PlZvBU9CE1GKLPR47_SjKq4wRWnk6DEfz_2I7EKuFjXhkfEo5yTae3L4iUd5rCJ7UCl_g_YNsNrOkpl_62rIzoA-qdoH1a8C8Sn6I_2ymp7-ZPNyHcx0SNgKzpwz0j5tTS1Hsd_KspghMm1EmlqZ8NXaFpBUZD3m3LgepMO2DzkSSNWwuFbE6fKJ5ef-xUdiQLJwkR4grQqf021WJiIqEV4bDVo8jqOdAu93UFZwjwIlgXP0vhfE7FDctNhACuezT92i7WWUzg4RAubddkMQk98c58IACOVq9nR8fw9KMhcpAtl9jXKZWARLFWiZKgHQ_LwgncfNLpLIeGJUrfc_FM71Un1ezhd_lJEw2xv9hiVRrQVm3ccipD-ePQapxaBCMtOyrlzKS1e-Qb48u0oNU_SQS0z_07-GJYju8BceD8RVRdczyVI2zBPXAneT5EGGTvz_FyVAh3efcOvnLElsw-AvTlNT2RUy4sxewJ6utU2mkoXzY2q4mBHRq7t37H-YcvB3RtP5tMcdYO18N92HrrtuR7vEQTcTVn3yGbeKdgWi9XfqI7pzFaXwKy1RRBi3p9mW1bFQ14pM-8ETxirKT6UZH3Fqtvz8QUNXZ7ipQXCulSqT8P8cjQe0kDQOd1BwibqTbWnk97ODYVDODsMHYxa_Az7vj1SiPCDBOGv4SRQZYVnW8dHNZ0q94HtH7iTqFlpgdXl20sZB8hz3y0]--></g></svg>