<svg xmlns="http://www.w3.org/2000/svg" xmlns:xlink="http://www.w3.org/1999/xlink" contentStyleType="text/css" data-diagram-type="CLASS" height="1104px" preserveAspectRatio="none" style="width:4076px;height:1104px;background:#FFFFFF;" version="1.1" viewBox="0 0 4076 1104" width="4076px" zoomAndPan="magnify"><title>Hyperion Parameter Model</title><defs/><g><g class="title" data-source-line="3"><text fill="#000000" font-family="sans-serif" font-size="14" font-weight="bold" lengthAdjust="spacing" textLength="212.4951" x="1925.2324" y="22.9951">Hyperion Parameter Model</text></g><!--cluster mx_bluesky.common.parameters--><g class="cluster" data-entity="mx_bluesky.common.parameters" data-source-line="6" data-uid="ent0002" id="cluster_mx_bluesky.common.parameters"><path d="M276.14,43.2969 L537.4525,43.2969 A3.75,3.75 0 0 1 539.9525,45.7969 L546.9525,65.5938 L2757.14,65.5938 A2.5,2.5 0 0 1 2759.64,68.0938 L2759.64,822.0269 A2.5,2.5 0 0 1 2757.14,824.5269 L276.14,824.5269 A2.5,2.5 0 0 1 273.64,822.0269 L273.64,45.7969 A2.5,2.5 0 0 1 276.14,43.2969" fill="none" style="stroke:#000000;stroke-width:1.5;"/><line style="stroke:#000000;stroke-width:1.5;" x1="273.64" x2="546.9525" y1="65.5938" y2="65.5938"/><text fill="#000000" font-family="sans-serif" font-size="14" font-weight="bold" lengthAdjust="spacing" textLength="260.3125" x="277.64" y="58.292">mx_bluesky.common.parameters</text></g><!--cluster mx_bluesky.hyperion.parameters--><g class="cluster" data-entity="mx_bluesky.hyperion.parameters" data-source-line="71" data-uid="ent0015" id="cluster_mx_bluesky.hyperion.parameters"><path d="M2786.14,660.4869 L3050.6722,660.4869 A3.75,3.75 0 0 1 3053.1722,662.9869 L3060.1722,682.7838 L3961.14,682.7838 A2.5,2.5 0 0 1 3963.64,685.2838 L3963.64,1095.2169 A2.5,2.5 0 0 1 3961.14,1097.7169 L2786.14,1097.7169 A2.5,2.5 0 0 1 2783.64,1095.2169 L2783.64,662.9869 A2.5,2.5 0 0 1 2786.14,660.4869" fill="none" style="stroke:#000000;stroke-width:1.5;"/><line style="stroke:#000000;stroke-width:1.5;" x1="2783.64" x2="3060.1722" y1="682.7838" y2="682.7838"/><text fill="#000000" font-family="sans-serif" font-size="14" font-weight="bold" lengthAdjust="spacing" textLength="263.5322" x="2787.64" y="675.482">mx_bluesky.hyperion.parameters</text></g><!--class WithCentreSelection--><g class="entity" data-entity="WithCentreSelection" data-source-line="8" data-uid="ent0003" id="entity_WithCentreSelection"><rect fill="#F1F1F1" height="64.2969" rx="2.5" ry="2.5" style="stroke:#181818;stroke-width:0.5;" width="306.7861" x="653.24" y="118.8869"/><ellipse cx="730.5169" cy="134.8869" fill="#ADD1B2" rx="11" ry="11" style="stroke:#181818;stroke-width:1;"/><path d="M733.4856,140.5275 Q732.9075,140.8244 732.2669,140.965 Q731.6262,141.1213 730.9231,141.1213 Q728.4231,141.1213 727.095,139.4806 Q725.7825,137.8244 725.7825,134.6994 Q725.7825,131.5744 727.095,129.9181 Q728.4231,128.2619 730.9231,128.2619 Q731.6262,128.2619 732.2669,128.4181 Q732.9231,128.5744 733.4856,128.8713 L733.4856,131.59 Q732.8606,131.0119 732.2669,130.7463 Q731.6731,130.465 731.0481,130.465 Q729.7044,130.465 729.0169,131.5431 Q728.3294,132.6056 728.3294,134.6994 Q728.3294,136.7931 729.0169,137.8713 Q729.7044,138.9338 731.0481,138.9338 Q731.6731,138.9338 732.2669,138.6681 Q732.8606,138.3869 733.4856,137.8088 L733.4856,140.5275 Z " fill="#000000"/><text fill="#000000" font-family="sans-serif" font-size="14" lengthAdjust="spacing" textLength="143.7324" x="751.0169" y="139.7336">WithCentreSelection</text><line style="stroke:#181818;stroke-width:0.5;" x1="654.24" x2="959.0261" y1="150.8869" y2="150.8869"/><text fill="#000000" font-family="sans-serif" font-size="14" lengthAdjust="spacing" textLength="294.7861" x="659.24" y="167.882">TopNByMaxCountSelection select_centres</text><line style="stroke:#181818;stroke-width:0.5;" x1="654.24" x2="959.0261" y1="175.1838" y2="175.1838"/></g><!--class WithSnapshot--><g class="entity" data-entity="WithSnapshot" data-source-line="11" data-uid="ent0004" id="entity_WithSnapshot"><rect fill="#F1F1F1" height="96.8906" rx="2.5" ry="2.5" style="stroke:#181818;stroke-width:0.5;" width="289.3477" x="994.96" y="102.5869"/><ellipse cx="1086.6128" cy="118.5869" fill="#ADD1B2" rx="11" ry="11" style="stroke:#181818;stroke-width:1;"/><path d="M1089.5816,124.2275 Q1089.0035,124.5244 1088.3628,124.665 Q1087.7222,124.8213 1087.0191,124.8213 Q1084.5191,124.8213 1083.191,123.1806 Q1081.8785,121.5244 1081.8785,118.3994 Q1081.8785,115.2744 1083.191,113.6181 Q1084.5191,111.9619 1087.0191,111.9619 Q1087.7222,111.9619 1088.3628,112.1181 Q1089.0191,112.2744 1089.5816,112.5713 L1089.5816,115.29 Q1088.9566,114.7119 1088.3628,114.4463 Q1087.7691,114.165 1087.1441,114.165 Q1085.8003,114.165 1085.1128,115.2431 Q1084.4253,116.3056 1084.4253,118.3994 Q1084.4253,120.4931 1085.1128,121.5713 Q1085.8003,122.6338 1087.1441,122.6338 Q1087.7691,122.6338 1088.3628,122.3681 Q1088.9566,122.0869 1089.5816,121.5088 L1089.5816,124.2275 Z " fill="#000000"/><text fill="#000000" font-family="sans-serif" font-size="14" lengthAdjust="spacing" textLength="97.542" x="1107.1128" y="123.4336">WithSnapshot</text><line style="stroke:#181818;stroke-width:0.5;" x1="995.96" x2="1283.3077" y1="134.5869" y2="134.5869"/><text fill="#000000" font-family="sans-serif" font-size="14" lengthAdjust="spacing" textLength="169.627" x="1000.96" y="151.582">Path snapshot_directory</text><text fill="#000000" font-family="sans-serif" font-size="14" lengthAdjust="spacing" textLength="277.3477" x="1000.96" y="167.8789">list[float] | None snapshot_omegas_deg</text><text fill="#000000" font-family="sans-serif" font-size="14" lengthAdjust="spacing" textLength="171.7051" x="1000.96" y="184.1757">bool use_grid_snapshots</text><line style="stroke:#181818;stroke-width:0.5;" x1="995.96" x2="1283.3077" y1="191.4775" y2="191.4775"/></g><!--class WithSample--><g class="entity" data-entity="WithSample" data-source-line="16" data-uid="ent0005" id="entity_WithSample"><rect fill="#F1F1F1" height="96.8906" rx="2.5" ry="2.5" style="stroke:#181818;stroke-width:0.5;" width="176.3086" x="1589.48" y="102.5869"/><ellipse cx="1631.3543" cy="118.5869" fill="#ADD1B2" rx="11" ry="11" style="stroke:#181818;stroke-width:1;"/><path d="M1634.3231,124.2275 Q1633.7449,124.5244 1633.1043,124.665 Q1632.4637,124.8213 1631.7606,124.8213 Q1629.2606,124.8213 1627.9324,123.1806 Q1626.6199,121.5244 1626.6199,118.3994 Q1626.6199,115.2744 1627.9324,113.6181 Q1629.2606,111.9619 1631.7606,111.9619 Q1632.4637,111.9619 1633.1043,112.1181 Q1633.7606,112.2744 1634.3231,112.5713 L1634.3231,115.29 Q1633.6981,114.7119 1633.1043,114.4463 Q1632.5106,114.165 1631.8856,114.165 Q1630.5418,114.165 1629.8543,115.2431 Q1629.1668,116.3056 1629.1668,118.3994 Q1629.1668,120.4931 1629.8543,121.5713 Q1630.5418,122.6338 1631.8856,122.6338 Q1632.5106,122.6338 1633.1043,122.3681 Q1633.6981,122.0869 1634.3231,121.5088 L1634.3231,124.2275 Z " fill="#000000"/><text fill="#000000" font-family="sans-serif" font-size="14" lengthAdjust="spacing" textLength="84.5879" x="1651.3264" y="123.4336">WithSample</text><line style="stroke:#181818;stroke-width:0.5;" x1="1590.48" x2="1764.7886" y1="134.5869" y2="134.5869"/><text fill="#000000" font-family="sans-serif" font-size="14" lengthAdjust="spacing" textLength="93.3789" x="1595.48" y="151.582">int sample_id</text><text fill="#000000" font-family="sans-serif" font-size="14" lengthAdjust="spacing" textLength="164.3086" x="1595.48" y="167.8789">int | None sample_puck</text><text fill="#000000" font-family="sans-serif" font-size="14" lengthAdjust="spacing" textLength="152.3936" x="1595.48" y="184.1757">int | None sample_pin</text><line style="stroke:#181818;stroke-width:0.5;" x1="1590.48" x2="1764.7886" y1="191.4775" y2="191.4775"/></g><!--class WithVisit--><g class="entity" data-entity="WithVisit" data-source-line="21" data-uid="ent0006" id="entity_WithVisit"><rect fill="#F1F1F1" height="129.4844" rx="2.5" ry="2.5" style="stroke:#181818;stroke-width:0.5;" width="271.7861" x="2055.74" y="86.2969"/><ellipse cx="2156.2659" cy="102.2969" fill="#ADD1B2" rx="11" ry="11" style="stroke:#181818;stroke-width:1;"/><path d="M2159.2346,107.9375 Q2158.6565,108.2344 2158.0159,108.375 Q2157.3753,108.5313 2156.6721,108.5313 Q2154.1721,108.5313 2152.844,106.8906 Q2151.5315,105.2344 2151.5315,102.1094 Q2151.5315,98.9844 2152.844,97.3281 Q2154.1721,95.6719 2156.6721,95.6719 Q2157.3753,95.6719 2158.0159,95.8281 Q2158.6721,95.9844 2159.2346,96.2813 L2159.2346,99 Q2158.6096,98.4219 2158.0159,98.1563 Q2157.4221,97.875 2156.7971,97.875 Q2155.4534,97.875 2154.7659,98.9531 Q2154.0784,100.0156 2154.0784,102.1094 Q2154.0784,104.2031 2154.7659,105.2813 Q2155.4534,106.3438 2156.7971,106.3438 Q2157.4221,106.3438 2158.0159,106.0781 Q2158.6096,105.7969 2159.2346,105.2188 L2159.2346,107.9375 Z " fill="#000000"/><text fill="#000000" font-family="sans-serif" font-size="14" lengthAdjust="spacing" textLength="62.2344" x="2176.7659" y="107.1436">WithVisit</text><line style="stroke:#181818;stroke-width:0.5;" x1="2056.74" x2="2326.5261" y1="118.2969" y2="118.2969"/><text fill="#000000" font-family="sans-serif" font-size="14" lengthAdjust="spacing" textLength="87.9717" x="2061.74" y="135.292">str beamline</text><text fill="#000000" font-family="sans-serif" font-size="14" lengthAdjust="spacing" textLength="51.8369" x="2061.74" y="151.5889">str visit</text><text fill="#000000" font-family="sans-serif" font-size="14" lengthAdjust="spacing" textLength="259.7861" x="2061.74" y="167.8857">str det_dist_to_beam_converter_path</text><text fill="#000000" font-family="sans-serif" font-size="14" lengthAdjust="spacing" textLength="131.5918" x="2061.74" y="184.1826">str insertion_prefix</text><text fill="#000000" font-family="sans-serif" font-size="14" lengthAdjust="spacing" textLength="245.752" x="2061.74" y="200.4795">float | None detector_distance_mm</text><line style="stroke:#181818;stroke-width:0.5;" x1="2056.74" x2="2326.5261" y1="207.7813" y2="207.7813"/></g><!--class WithPandaGridScan--><g class="entity" data-entity="WithPandaGridScan" data-source-line="28" data-uid="ent0007" id="entity_WithPandaGridScan"><rect fill="#F1F1F1" height="64.2969" rx="2.5" ry="2.5" style="stroke:#181818;stroke-width:0.5;" width="240.5664" x="2362.35" y="118.8869"/><ellipse cx="2408.9472" cy="134.8869" fill="#ADD1B2" rx="11" ry="11" style="stroke:#181818;stroke-width:1;"/><path d="M2411.9159,140.5275 Q2411.3378,140.8244 2410.6972,140.965 Q2410.0565,141.1213 2409.3534,141.1213 Q2406.8534,141.1213 2405.5253,139.4806 Q2404.2128,137.8244 2404.2128,134.6994 Q2404.2128,131.5744 2405.5253,129.9181 Q2406.8534,128.2619 2409.3534,128.2619 Q2410.0565,128.2619 2410.6972,128.4181 Q2411.3534,128.5744 2411.9159,128.8713 L2411.9159,131.59 Q2411.2909,131.0119 2410.6972,130.7463 Q2410.1034,130.465 2409.4784,130.465 Q2408.1347,130.465 2407.4472,131.5431 Q2406.7597,132.6056 2406.7597,134.6994 Q2406.7597,136.7931 2407.4472,137.8713 Q2408.1347,138.9338 2409.4784,138.9338 Q2410.1034,138.9338 2410.6972,138.6681 Q2411.2909,138.3869 2411.9159,137.8088 L2411.9159,140.5275 Z " fill="#000000"/><text fill="#000000" font-family="sans-serif" font-size="14" lengthAdjust="spacing" textLength="138.8721" x="2429.4472" y="139.7336">WithPandaGridScan</text><line style="stroke:#181818;stroke-width:0.5;" x1="2363.35" x2="2601.9164" y1="150.8869" y2="150.8869"/><text fill="#000000" font-family="sans-serif" font-size="14" lengthAdjust="spacing" textLength="228.5664" x="2368.35" y="167.882">float panda_runup_distance_mm</text><line style="stroke:#181818;stroke-width:0.5;" x1="2363.35" x2="2601.9164" y1="175.1838" y2="175.1838"/></g><!--class SplitScan--><g class="entity" data-entity="SplitScan" data-source-line="31" data-uid="ent0008" id="entity_SplitScan"><rect fill="#F1F1F1" height="48" rx="2.5" ry="2.5" style="stroke:#181818;stroke-width:0.5;" width="97.0781" x="2638.1" y="127.0369"/><ellipse cx="2653.1" cy="143.0369" fill="#ADD1B2" rx="11" ry="11" style="stroke:#181818;stroke-width:1;"/><path d="M2656.0688,148.6775 Q2655.4906,148.9744 2654.85,149.115 Q2654.2094,149.2713 2653.5063,149.2713 Q2651.0063,149.2713 2649.6781,147.6306 Q2648.3656,145.9744 2648.3656,142.8494 Q2648.3656,139.7244 2649.6781,138.0681 Q2651.0063,136.4119 2653.5063,136.4119 Q2654.2094,136.4119 2654.85,136.5681 Q2655.5063,136.7244 2656.0688,137.0213 L2656.0688,139.74 Q2655.4438,139.1619 2654.85,138.8963 Q2654.2563,138.615 2653.6313,138.615 Q2652.2875,138.615 2651.6,139.6931 Q2650.9125,140.7556 2650.9125,142.8494 Q2650.9125,144.9431 2651.6,146.0213 Q2652.2875,147.0838 2653.6313,147.0838 Q2654.2563,147.0838 2654.85,146.8181 Q2655.4438,146.5369 2656.0688,145.9588 L2656.0688,148.6775 Z " fill="#000000"/><text fill="#000000" font-family="sans-serif" font-size="14" lengthAdjust="spacing" textLength="65.0781" x="2667.1" y="147.8836">SplitScan</text><line style="stroke:#181818;stroke-width:0.5;" x1="2639.1" x2="2734.1781" y1="159.0369" y2="159.0369"/><line style="stroke:#181818;stroke-width:0.5;" x1="2639.1" x2="2734.1781" y1="167.0369" y2="167.0369"/></g><!--class OptionalGonioAngleStarts--><g class="entity" data-entity="OptionalGonioAngleStarts" data-source-line="33" data-uid="ent0009" id="entity_OptionalGonioAngleStarts"><rect fill="#F1F1F1" height="113.1875" rx="2.5" ry="2.5" style="stroke:#181818;stroke-width:0.5;" width="219.3203" x="1800.98" y="94.4469"/><ellipse cx="1818.7033" cy="110.4469" fill="#ADD1B2" rx="11" ry="11" style="stroke:#181818;stroke-width:1;"/><path d="M1821.672,116.0875 Q1821.0939,116.3844 1820.4533,116.525 Q1819.8127,116.6813 1819.1095,116.6813 Q1816.6095,116.6813 1815.2814,115.0406 Q1813.9689,113.3844 1813.9689,110.2594 Q1813.9689,107.1344 1815.2814,105.4781 Q1816.6095,103.8219 1819.1095,103.8219 Q1819.8127,103.8219 1820.4533,103.9781 Q1821.1095,104.1344 1821.672,104.4313 L1821.672,107.15 Q1821.047,106.5719 1820.4533,106.3063 Q1819.8595,106.025 1819.2345,106.025 Q1817.8908,106.025 1817.2033,107.1031 Q1816.5158,108.1656 1816.5158,110.2594 Q1816.5158,112.3531 1817.2033,113.4313 Q1817.8908,114.4938 1819.2345,114.4938 Q1819.8595,114.4938 1820.4533,114.2281 Q1821.047,113.9469 1821.672,113.3688 L1821.672,116.0875 Z " fill="#000000"/><text fill="#000000" font-family="sans-serif" font-size="14" lengthAdjust="spacing" textLength="181.2686" x="1833.3085" y="115.2936">OptionalGonioAngleStarts</text><line style="stroke:#181818;stroke-width:0.5;" x1="1801.98" x2="2019.3003" y1="126.4469" y2="126.4469"/><text fill="#000000" font-family="sans-serif" font-size="14" lengthAdjust="spacing" textLength="207.3203" x="1806.98" y="143.442">float | None omega_start_deg</text><text fill="#000000" font-family="sans-serif" font-size="14" lengthAdjust="spacing" textLength="180.6875" x="1806.98" y="159.7389">float | None phi_start_deg</text><text fill="#000000" font-family="sans-serif" font-size="14" lengthAdjust="spacing" textLength="179.498" x="1806.98" y="176.0357">float | None chi_start_deg</text><text fill="#000000" font-family="sans-serif" font-size="14" lengthAdjust="spacing" textLength="202.0771" x="1806.98" y="192.3326">float | None kappa_start_deg</text><line style="stroke:#181818;stroke-width:0.5;" x1="1801.98" x2="2019.3003" y1="199.6344" y2="199.6344"/></g><!--class WithOptionalEnergyChange--><g class="entity" data-entity="WithOptionalEnergyChange" data-source-line="39" data-uid="ent0010" id="entity_WithOptionalEnergyChange"><rect fill="#F1F1F1" height="64.2969" rx="2.5" ry="2.5" style="stroke:#181818;stroke-width:0.5;" width="235.4463" x="1318.91" y="118.8869"/><ellipse cx="1338.0945" cy="134.8869" fill="#ADD1B2" rx="11" ry="11" style="stroke:#181818;stroke-width:1;"/><path d="M1341.0632,140.5275 Q1340.4851,140.8244 1339.8445,140.965 Q1339.2038,141.1213 1338.5007,141.1213 Q1336.0007,141.1213 1334.6726,139.4806 Q1333.3601,137.8244 1333.3601,134.6994 Q1333.3601,131.5744 1334.6726,129.9181 Q1336.0007,128.2619 1338.5007,128.2619 Q1339.2038,128.2619 1339.8445,128.4181 Q1340.5007,128.5744 1341.0632,128.8713 L1341.0632,131.59 Q1340.4382,131.0119 1339.8445,130.7463 Q1339.2507,130.465 1338.6257,130.465 Q1337.282,130.465 1336.5945,131.5431 Q1335.907,132.6056 1335.907,134.6994 Q1335.907,136.7931 1336.5945,137.8713 Q1337.282,138.9338 1338.6257,138.9338 Q1339.2507,138.9338 1339.8445,138.6681 Q1340.4382,138.3869 1341.0632,137.8088 L1341.0632,140.5275 Z " fill="#000000"/><text fill="#000000" font-family="sans-serif" font-size="14" lengthAdjust="spacing" textLength="194.1475" x="1353.0244" y="139.7336">WithOptionalEnergyChange</text><line style="stroke:#181818;stroke-width:0.5;" x1="1319.91" x2="1553.3563" y1="150.8869" y2="150.8869"/><text fill="#000000" font-family="sans-serif" font-size="14" lengthAdjust="spacing" textLength="223.4463" x="1324.91" y="167.882">float | None demand_energy_ev</text><line style="stroke:#181818;stroke-width:0.5;" x1="1319.91" x2="1553.3563" y1="175.1838" y2="175.1838"/></g><!--class DiffractionExperiment--><g class="entity" data-entity="DiffractionExperiment" data-source-line="44" data-uid="ent0011" id="entity_DiffractionExperiment"><rect fill="#F1F1F1" height="210.9688" rx="2.5" ry="2.5" style="stroke:#181818;stroke-width:0.5;" width="332.332" x="297.47" y="275.7769"/><ellipse cx="382.2527" cy="291.7769" fill="#ADD1B2" rx="11" ry="11" style="stroke:#181818;stroke-width:1;"/><path d="M385.2215,297.4175 Q384.6433,297.7144 384.0027,297.855 Q383.3621,298.0113 382.659,298.0113 Q380.159,298.0113 378.8308,296.3706 Q377.5183,294.7144 377.5183,291.5894 Q377.5183,288.4644 378.8308,286.8081 Q380.159,285.1519 382.659,285.1519 Q383.3621,285.1519 384.0027,285.3081 Q384.659,285.4644 385.2215,285.7613 L385.2215,288.48 Q384.5965,287.9019 384.0027,287.6363 Q383.409,287.355 382.784,287.355 Q381.4402,287.355 380.7527,288.4331 Q380.0652,289.4956 380.0652,291.5894 Q380.0652,293.6831 380.7527,294.7613 Q381.4402,295.8238 382.784,295.8238 Q383.409,295.8238 384.0027,295.5581 Q384.5965,295.2769 385.2215,294.6988 L385.2215,297.4175 Z " fill="#000000"/><text fill="#000000" font-family="sans-serif" font-size="14" lengthAdjust="spacing" textLength="154.2666" x="402.7527" y="296.6236">DiffractionExperiment</text><line style="stroke:#181818;stroke-width:0.5;" x1="298.47" x2="628.802" y1="307.7769" y2="307.7769"/><text fill="#000000" font-family="sans-serif" font-size="14" lengthAdjust="spacing" textLength="91.0137" x="303.47" y="324.772">str file_name</text><text fill="#000000" font-family="sans-serif" font-size="14" lengthAdjust="spacing" textLength="153.7129" x="303.47" y="341.0689">float exposure_time_s</text><text fill="#000000" font-family="sans-serif" font-size="14" lengthAdjust="spacing" textLength="89.5029" x="303.47" y="357.3657">str comment</text><text fill="#000000" font-family="sans-serif" font-size="14" lengthAdjust="spacing" textLength="186.915" x="303.47" y="373.6626">TriggerMode trigger_mode</text><text fill="#000000" font-family="sans-serif" font-size="14" lengthAdjust="spacing" textLength="157.9854" x="303.47" y="389.9595">int | None run_number</text><text fill="#000000" font-family="sans-serif" font-size="14" lengthAdjust="spacing" textLength="282.3516" x="303.47" y="406.2564">ApertureValue | None selected_aperture</text><text fill="#000000" font-family="sans-serif" font-size="14" lengthAdjust="spacing" textLength="159.2979" x="303.47" y="422.5532">float transmission_frac</text><text fill="#000000" font-family="sans-serif" font-size="14" lengthAdjust="spacing" textLength="320.332" x="303.47" y="438.8501">IspybExperimentType ispyb_experiment_type</text><text fill="#000000" font-family="sans-serif" font-size="14" lengthAdjust="spacing" textLength="146.1113" x="303.47" y="455.147">str storage_directory</text><text fill="#000000" font-family="sans-serif" font-size="14" lengthAdjust="spacing" textLength="131.0518" x="303.47" y="471.4439">bool use_roi_mode</text><line style="stroke:#181818;stroke-width:0.5;" x1="298.47" x2="628.802" y1="478.7456" y2="478.7456"/></g><!--class MxBlueskyParameters--><g class="entity" data-entity="MxBlueskyParameters" data-source-line="56" data-uid="ent0012" id="entity_MxBlueskyParameters"><rect fill="#F1F1F1" height="64.2969" rx="2.5" ry="2.5" style="stroke:#181818;stroke-width:0.5;" width="317.4639" x="300.9" y="118.8869"/><ellipse cx="377.4864" cy="134.8869" fill="#ADD1B2" rx="11" ry="11" style="stroke:#181818;stroke-width:1;"/><path d="M380.4552,140.5275 Q379.8771,140.8244 379.2364,140.965 Q378.5958,141.1213 377.8927,141.1213 Q375.3927,141.1213 374.0646,139.4806 Q372.7521,137.8244 372.7521,134.6994 Q372.7521,131.5744 374.0646,129.9181 Q375.3927,128.2619 377.8927,128.2619 Q378.5958,128.2619 379.2364,128.4181 Q379.8927,128.5744 380.4552,128.8713 L380.4552,131.59 Q379.8302,131.0119 379.2364,130.7463 Q378.6427,130.465 378.0177,130.465 Q376.6739,130.465 375.9864,131.5431 Q375.2989,132.6056 375.2989,134.6994 Q375.2989,136.7931 375.9864,137.8713 Q376.6739,138.9338 378.0177,138.9338 Q378.6427,138.9338 379.2364,138.6681 Q379.8302,138.3869 380.4552,137.8088 L380.4552,140.5275 Z " fill="#000000"/><text fill="#000000" font-family="sans-serif" font-size="14" lengthAdjust="spacing" textLength="155.791" x="397.9864" y="139.7336">MxBlueskyParameters</text><line style="stroke:#181818;stroke-width:0.5;" x1="301.9" x2="617.3639" y1="150.8869" y2="150.8869"/><text fill="#000000" font-family="sans-serif" font-size="14" lengthAdjust="spacing" textLength="305.4639" x="306.9" y="167.882">SemanticVersion parameter_model_version</text><line style="stroke:#181818;stroke-width:0.5;" x1="301.9" x2="617.3639" y1="175.1838" y2="175.1838"/></g><!--class GridCommon--><g class="entity" data-entity="GridCommon" data-source-line="59" data-uid="ent0013" id="entity_GridCommon"><rect fill="#F1F1F1" height="145.7813" rx="2.5" ry="2.5" style="stroke:#181818;stroke-width:0.5;" width="332.332" x="297.47" y="654.7469"/><ellipse cx="413.1682" cy="670.7469" fill="#ADD1B2" rx="11" ry="11" style="stroke:#181818;stroke-width:1;"/><path d="M416.137,676.3875 Q415.5589,676.6844 414.9182,676.825 Q414.2776,676.9813 413.5745,676.9813 Q411.0745,676.9813 409.7464,675.3406 Q408.4339,673.6844 408.4339,670.5594 Q408.4339,667.4344 409.7464,665.7781 Q411.0745,664.1219 413.5745,664.1219 Q414.2776,664.1219 414.9182,664.2781 Q415.5745,664.4344 416.137,664.7313 L416.137,667.45 Q415.512,666.8719 414.9182,666.6063 Q414.3245,666.325 413.6995,666.325 Q412.3557,666.325 411.6682,667.4031 Q410.9807,668.4656 410.9807,670.5594 Q410.9807,672.6531 411.6682,673.7313 Q412.3557,674.7938 413.6995,674.7938 Q414.3245,674.7938 414.9182,674.5281 Q415.512,674.2469 416.137,673.6688 L416.137,676.3875 Z " fill="#000000"/><text fill="#000000" font-family="sans-serif" font-size="14" lengthAdjust="spacing" textLength="92.4355" x="433.6682" y="675.5936">GridCommon</text><line style="stroke:#181818;stroke-width:0.5;" x1="298.47" x2="628.802" y1="686.7469" y2="686.7469"/><text fill="#000000" font-family="sans-serif" font-size="14" lengthAdjust="spacing" textLength="125.2959" x="303.47" y="703.742">float box_size_um</text><text fill="#000000" font-family="sans-serif" font-size="14" lengthAdjust="spacing" textLength="138.4209" x="303.47" y="720.0389">float grid_width_um</text><text fill="#000000" font-family="sans-serif" font-size="14" lengthAdjust="spacing" textLength="153.7129" x="303.47" y="736.3357">float exposure_time_s</text><text fill="#000000" font-family="sans-serif" font-size="14" lengthAdjust="spacing" textLength="320.332" x="303.47" y="752.6326">IspybExperimentType ispyb_experiment_type</text><text fill="#000000" font-family="sans-serif" font-size="14" lengthAdjust="spacing" textLength="282.3516" x="303.47" y="768.9295">ApertureValue | None selected_aperture</text><text fill="#000000" font-family="sans-serif" font-size="14" lengthAdjust="spacing" textLength="130.498" x="303.47" y="785.2264">float tip_offset_um</text><line style="stroke:#181818;stroke-width:0.5;" x1="298.47" x2="628.802" y1="792.5281" y2="792.5281"/></g><!--class DiffractionExperimentWithSample--><g class="entity" data-entity="DiffractionExperimentWithSample" data-source-line="67" data-uid="ent0014" id="entity_DiffractionExperimentWithSample"><rect fill="#F1F1F1" height="48" rx="2.5" ry="2.5" style="stroke:#181818;stroke-width:0.5;" width="270.8545" x="328.21" y="546.7469"/><ellipse cx="343.21" cy="562.7469" fill="#ADD1B2" rx="11" ry="11" style="stroke:#181818;stroke-width:1;"/><path d="M346.1788,568.3875 Q345.6006,568.6844 344.96,568.825 Q344.3194,568.9813 343.6163,568.9813 Q341.1163,568.9813 339.7881,567.3406 Q338.4756,565.6844 338.4756,562.5594 Q338.4756,559.4344 339.7881,557.7781 Q341.1163,556.1219 343.6163,556.1219 Q344.3194,556.1219 344.96,556.2781 Q345.6163,556.4344 346.1788,556.7313 L346.1788,559.45 Q345.5538,558.8719 344.96,558.6063 Q344.3663,558.325 343.7413,558.325 Q342.3975,558.325 341.71,559.4031 Q341.0225,560.4656 341.0225,562.5594 Q341.0225,564.6531 341.71,565.7313 Q342.3975,566.7938 343.7413,566.7938 Q344.3663,566.7938 344.96,566.5281 Q345.5538,566.2469 346.1788,565.6688 L346.1788,568.3875 Z " fill="#000000"/><text fill="#000000" font-family="sans-serif" font-size="14" lengthAdjust="spacing" textLength="238.8545" x="357.21" y="567.5936">DiffractionExperimentWithSample</text><line style="stroke:#181818;stroke-width:0.5;" x1="329.21" x2="598.0645" y1="578.7469" y2="578.7469"/><line style="stroke:#181818;stroke-width:0.5;" x1="329.21" x2="598.0645" y1="586.7469" y2="586.7469"/></g><!--class PinTipCentreThenXrayCentre--><g class="entity" data-entity="PinTipCentreThenXrayCentre" data-source-line="72" data-uid="ent0016" id="entity_PinTipCentreThenXrayCentre"><rect fill="#F1F1F1" height="64.2969" rx="2.5" ry="2.5" style="stroke:#181818;stroke-width:0.5;" width="235.8955" x="2891.69" y="1017.4169"/><ellipse cx="2906.69" cy="1033.4169" fill="#ADD1B2" rx="11" ry="11" style="stroke:#181818;stroke-width:1;"/><path d="M2909.6588,1039.0575 Q2909.0806,1039.3544 2908.44,1039.495 Q2907.7994,1039.6513 2907.0963,1039.6513 Q2904.5963,1039.6513 2903.2681,1038.0106 Q2901.9556,1036.3544 2901.9556,1033.2294 Q2901.9556,1030.1044 2903.2681,1028.4481 Q2904.5963,1026.7919 2907.0963,1026.7919 Q2907.7994,1026.7919 2908.44,1026.9481 Q2909.0963,1027.1044 2909.6588,1027.4013 L2909.6588,1030.12 Q2909.0338,1029.5419 2908.44,1029.2763 Q2907.8463,1028.995 2907.2213,1028.995 Q2905.8775,1028.995 2905.19,1030.0731 Q2904.5025,1031.1356 2904.5025,1033.2294 Q2904.5025,1035.3231 2905.19,1036.4013 Q2905.8775,1037.4638 2907.2213,1037.4638 Q2907.8463,1037.4638 2908.44,1037.1981 Q2909.0338,1036.9169 2909.6588,1036.3388 L2909.6588,1039.0575 Z " fill="#000000"/><text fill="#000000" font-family="sans-serif" font-size="14" lengthAdjust="spacing" textLength="203.8955" x="2920.69" y="1038.2636">PinTipCentreThenXrayCentre</text><line style="stroke:#181818;stroke-width:0.5;" x1="2892.69" x2="3126.5855" y1="1049.4169" y2="1049.4169"/><text fill="#000000" font-family="sans-serif" font-size="14" lengthAdjust="spacing" textLength="130.498" x="2897.69" y="1066.412">float tip_offset_um</text><line style="stroke:#181818;stroke-width:0.5;" x1="2892.69" x2="3126.5855" y1="1073.7138" y2="1073.7138"/></g><!--class RotationExperiment--><g class="entity" data-entity="RotationExperiment" data-source-line="75" data-uid="ent0017" id="entity_RotationExperiment"><rect fill="#F1F1F1" height="96.8906" rx="2.5" ry="2.5" style="stroke:#181818;stroke-width:0.5;" width="332.332" x="3578.47" y="860.5269"/><ellipse cx="3670.3518" cy="876.5269" fill="#ADD1B2" rx="11" ry="11" style="stroke:#181818;stroke-width:1;"/><path d="M3673.3206,882.1675 Q3672.7425,882.4644 3672.1018,882.605 Q3671.4612,882.7613 3670.7581,882.7613 Q3668.2581,882.7613 3666.93,881.1206 Q3665.6175,879.4644 3665.6175,876.3394 Q3665.6175,873.2144 3666.93,871.5581 Q3668.2581,869.9019 3670.7581,869.9019 Q3671.4612,869.9019 3672.1018,870.0581 Q3672.7581,870.2144 3673.3206,870.5113 L3673.3206,873.23 Q3672.6956,872.6519 3672.1018,872.3863 Q3671.5081,872.105 3670.8831,872.105 Q3669.5393,872.105 3668.8518,873.1831 Q3668.1643,874.2456 3668.1643,876.3394 Q3668.1643,878.4331 3668.8518,879.5113 Q3669.5393,880.5738 3670.8831,880.5738 Q3671.5081,880.5738 3672.1018,880.3081 Q3672.6956,880.0269 3673.3206,879.4488 L3673.3206,882.1675 Z " fill="#000000"/><text fill="#000000" font-family="sans-serif" font-size="14" lengthAdjust="spacing" textLength="140.0684" x="3690.8518" y="881.3736">RotationExperiment</text><line style="stroke:#181818;stroke-width:0.5;" x1="3579.47" x2="3909.802" y1="892.5269" y2="892.5269"/><text fill="#000000" font-family="sans-serif" font-size="14" lengthAdjust="spacing" textLength="202.8018" x="3584.47" y="909.522">float shutter_opening_time_s</text><text fill="#000000" font-family="sans-serif" font-size="14" lengthAdjust="spacing" textLength="202.9385" x="3584.47" y="925.8189">float rotation_increment_deg</text><text fill="#000000" font-family="sans-serif" font-size="14" lengthAdjust="spacing" textLength="320.332" x="3584.47" y="942.1157">IspybExperimentType ispyb_experiment_type</text><line style="stroke:#181818;stroke-width:0.5;" x1="3579.47" x2="3909.802" y1="949.4175" y2="949.4175"/></g><!--class WithHyperionUDCFeatures--><g class="entity" data-entity="WithHyperionUDCFeatures" data-source-line="80" data-uid="ent0018" id="entity_WithHyperionUDCFeatures"><rect fill="#F1F1F1" height="64.2969" rx="2.5" ry="2.5" style="stroke:#181818;stroke-width:0.5;" width="228.6719" x="2937.3" y="695.4869"/><ellipse cx="2956.3983" cy="711.4869" fill="#ADD1B2" rx="11" ry="11" style="stroke:#181818;stroke-width:1;"/><path d="M2959.3671,717.1275 Q2958.789,717.4244 2958.1483,717.565 Q2957.5077,717.7213 2956.8046,717.7213 Q2954.3046,717.7213 2952.9765,716.0806 Q2951.664,714.4244 2951.664,711.2994 Q2951.664,708.1744 2952.9765,706.5181 Q2954.3046,704.8619 2956.8046,704.8619 Q2957.5077,704.8619 2958.1483,705.0181 Q2958.8046,705.1744 2959.3671,705.4713 L2959.3671,708.19 Q2958.7421,707.6119 2958.1483,707.3463 Q2957.5546,707.065 2956.9296,707.065 Q2955.5858,707.065 2954.8983,708.1431 Q2954.2108,709.2056 2954.2108,711.2994 Q2954.2108,713.3931 2954.8983,714.4713 Q2955.5858,715.5338 2956.9296,715.5338 Q2957.5546,715.5338 2958.1483,715.2681 Q2958.7421,714.9869 2959.3671,714.4088 L2959.3671,717.1275 Z " fill="#000000"/><text fill="#000000" font-family="sans-serif" font-size="14" lengthAdjust="spacing" textLength="187.5645" x="2971.3091" y="716.3336">WithHyperionUDCFeatures</text><line style="stroke:#181818;stroke-width:0.5;" x1="2938.3" x2="3164.9719" y1="727.4869" y2="727.4869"/><text fill="#000000" font-family="sans-serif" font-size="14" lengthAdjust="spacing" textLength="216.6719" x="2943.3" y="744.482">HyperionFeatureFlags features</text><line style="stroke:#181818;stroke-width:0.5;" x1="2938.3" x2="3164.9719" y1="751.7838" y2="751.7838"/></g><!--class MultiRotationScan--><g class="entity" data-entity="MultiRotationScan" data-source-line="83" data-uid="ent0019" id="entity_MultiRotationScan"><rect fill="#F1F1F1" height="64.2969" rx="2.5" ry="2.5" style="stroke:#181818;stroke-width:0.5;" width="540.001" x="3407.64" y="1017.4169"/><ellipse cx="3609.6727" cy="1033.4169" fill="#ADD1B2" rx="11" ry="11" style="stroke:#181818;stroke-width:1;"/><path d="M3612.6415,1039.0575 Q3612.0633,1039.3544 3611.4227,1039.495 Q3610.7821,1039.6513 3610.079,1039.6513 Q3607.579,1039.6513 3606.2508,1038.0106 Q3604.9383,1036.3544 3604.9383,1033.2294 Q3604.9383,1030.1044 3606.2508,1028.4481 Q3607.579,1026.7919 3610.079,1026.7919 Q3610.7821,1026.7919 3611.4227,1026.9481 Q3612.079,1027.1044 3612.6415,1027.4013 L3612.6415,1030.12 Q3612.0165,1029.5419 3611.4227,1029.2763 Q3610.829,1028.995 3610.204,1028.995 Q3608.8602,1028.995 3608.1727,1030.0731 Q3607.4852,1031.1356 3607.4852,1033.2294 Q3607.4852,1035.3231 3608.1727,1036.4013 Q3608.8602,1037.4638 3610.204,1037.4638 Q3610.829,1037.4638 3611.4227,1037.1981 Q3612.0165,1036.9169 3612.6415,1036.3388 L3612.6415,1039.0575 Z " fill="#000000"/><text fill="#000000" font-family="sans-serif" font-size="14" lengthAdjust="spacing" textLength="127.4355" x="3630.1727" y="1038.2636">MultiRotationScan</text><line style="stroke:#181818;stroke-width:0.5;" x1="3408.64" x2="3946.641" y1="1049.4169" y2="1049.4169"/><line style="stroke:#181818;stroke-width:0.5;" x1="3408.64" x2="3946.641" y1="1057.4169" y2="1057.4169"/><text fill="#000000" font-family="sans-serif" font-size="14" lengthAdjust="spacing" textLength="528.001" x="3413.64" y="1074.412">Annotated[list[RotationScanPerSweep], Len(min_length=1)] rotation_scans</text></g><!--class LoadCentreCollect--><g class="entity" data-entity="LoadCentreCollect" data-source-line="86" data-uid="ent0020" id="entity_LoadCentreCollect"><rect fill="#F1F1F1" height="80.5938" rx="2.5" ry="2.5" style="stroke:#181818;stroke-width:0.5;" width="338.6211" x="2799.33" y="868.6769"/><ellipse cx="2899.955" cy="884.6769" fill="#ADD1B2" rx="11" ry="11" style="stroke:#181818;stroke-width:1;"/><path d="M2902.9238,890.3175 Q2902.3456,890.6144 2901.705,890.755 Q2901.0644,890.9113 2900.3613,890.9113 Q2897.8613,890.9113 2896.5331,889.2706 Q2895.2206,887.6144 2895.2206,884.4894 Q2895.2206,881.3644 2896.5331,879.7081 Q2897.8613,878.0519 2900.3613,878.0519 Q2901.0644,878.0519 2901.705,878.2081 Q2902.3613,878.3644 2902.9238,878.6613 L2902.9238,881.38 Q2902.2988,880.8019 2901.705,880.5363 Q2901.1113,880.255 2900.4863,880.255 Q2899.1425,880.255 2898.455,881.3331 Q2897.7675,882.3956 2897.7675,884.4894 Q2897.7675,886.5831 2898.455,887.6613 Q2899.1425,888.7238 2900.4863,888.7238 Q2901.1113,888.7238 2901.705,888.4581 Q2902.2988,888.1769 2902.9238,887.5988 L2902.9238,890.3175 Z " fill="#000000"/><text fill="#000000" font-family="sans-serif" font-size="14" lengthAdjust="spacing" textLength="128.8711" x="2920.455" y="889.5236">LoadCentreCollect</text><line style="stroke:#181818;stroke-width:0.5;" x1="2800.33" x2="3136.9511" y1="900.6769" y2="900.6769"/><text fill="#000000" font-family="sans-serif" font-size="14" lengthAdjust="spacing" textLength="326.6211" x="2805.33" y="917.672">RobotLoadThenCentre robot_load_then_centre</text><text fill="#000000" font-family="sans-serif" font-size="14" lengthAdjust="spacing" textLength="269.3154" x="2805.33" y="933.9689">MultiRotationScan multi_rotation_scan</text><line style="stroke:#181818;stroke-width:0.5;" x1="2800.33" x2="3136.9511" y1="941.2706" y2="941.2706"/></g><!--class GridCommonWithHyperionDetectorParams--><g class="entity" data-entity="GridCommonWithHyperionDetectorParams" data-source-line="90" data-uid="ent0021" id="entity_GridCommonWithHyperionDetectorParams"><rect fill="#F1F1F1" height="48" rx="2.5" ry="2.5" style="stroke:#181818;stroke-width:0.5;" width="333.2188" x="3210.03" y="884.9769"/><ellipse cx="3225.03" cy="900.9769" fill="#ADD1B2" rx="11" ry="11" style="stroke:#181818;stroke-width:1;"/><path d="M3227.9988,906.6175 Q3227.4206,906.9144 3226.78,907.055 Q3226.1394,907.2113 3225.4363,907.2113 Q3222.9363,907.2113 3221.6081,905.5706 Q3220.2956,903.9144 3220.2956,900.7894 Q3220.2956,897.6644 3221.6081,896.0081 Q3222.9363,894.3519 3225.4363,894.3519 Q3226.1394,894.3519 3226.78,894.5081 Q3227.4363,894.6644 3227.9988,894.9613 L3227.9988,897.68 Q3227.3738,897.1019 3226.78,896.8363 Q3226.1863,896.555 3225.5613,896.555 Q3224.2175,896.555 3223.53,897.6331 Q3222.8425,898.6956 3222.8425,900.7894 Q3222.8425,902.8831 3223.53,903.9613 Q3224.2175,905.0238 3225.5613,905.0238 Q3226.1863,905.0238 3226.78,904.7581 Q3227.3738,904.4769 3227.9988,903.8988 L3227.9988,906.6175 Z " fill="#000000"/><text fill="#000000" font-family="sans-serif" font-size="14" lengthAdjust="spacing" textLength="301.2188" x="3239.03" y="905.8236">GridCommonWithHyperionDetectorParams</text><line style="stroke:#181818;stroke-width:0.5;" x1="3211.03" x2="3542.2488" y1="916.9769" y2="916.9769"/><line style="stroke:#181818;stroke-width:0.5;" x1="3211.03" x2="3542.2488" y1="924.9769" y2="924.9769"/></g><!--class GridScanWithEdgeDetect--><g class="entity" data-entity="GridScanWithEdgeDetect" data-source-line="92" data-uid="ent0022" id="entity_GridScanWithEdgeDetect"><rect fill="#F1F1F1" height="48" rx="2.5" ry="2.5" style="stroke:#181818;stroke-width:0.5;" width="209.4268" x="3162.92" y="1025.5669"/><ellipse cx="3177.92" cy="1041.5669" fill="#ADD1B2" rx="11" ry="11" style="stroke:#181818;stroke-width:1;"/><path d="M3180.8888,1047.2075 Q3180.3106,1047.5044 3179.67,1047.645 Q3179.0294,1047.8013 3178.3263,1047.8013 Q3175.8263,1047.8013 3174.4981,1046.1606 Q3173.1856,1044.5044 3173.1856,1041.3794 Q3173.1856,1038.2544 3174.4981,1036.5981 Q3175.8263,1034.9419 3178.3263,1034.9419 Q3179.0294,1034.9419 3179.67,1035.0981 Q3180.3263,1035.2544 3180.8888,1035.5513 L3180.8888,1038.27 Q3180.2638,1037.6919 3179.67,1037.4263 Q3179.0763,1037.145 3178.4513,1037.145 Q3177.1075,1037.145 3176.42,1038.2231 Q3175.7325,1039.2856 3175.7325,1041.3794 Q3175.7325,1043.4731 3176.42,1044.5513 Q3177.1075,1045.6138 3178.4513,1045.6138 Q3179.0763,1045.6138 3179.67,1045.3481 Q3180.2638,1045.0669 3180.8888,1044.4888 L3180.8888,1047.2075 Z " fill="#000000"/><text fill="#000000" font-family="sans-serif" font-size="14" lengthAdjust="spacing" textLength="177.4268" x="3191.92" y="1046.4136">GridScanWithEdgeDetect</text><line style="stroke:#181818;stroke-width:0.5;" x1="3163.92" x2="3371.3468" y1="1057.5669" y2="1057.5669"/><line style="stroke:#181818;stroke-width:0.5;" x1="3163.92" x2="3371.3468" y1="1065.5669" y2="1065.5669"/></g><!--reverse link GridCommonWithHyperionDetectorParams to PinTipCentreThenXrayCentre--><g class="link" data-entity-1="GridCommonWithHyperionDetectorParams" data-entity-2="PinTipCentreThenXrayCentre" data-source-line="95" data-uid="lnk23" id="link_GridCommonWithHyperionDetectorParams_PinTipCentreThenXrayCentre"><path codeLine="95" d="M3297.9508,939.6863 C3237.1808,962.6363 3160.84,991.4669 3093.44,1016.9169" fill="none" id="GridCommonWithHyperionDetectorParams-backto-PinTipCentreThenXrayCentre" style="stroke:#181818;stroke-width:1;"/><polygon fill="none" points="3314.79,933.3269,3295.831,934.0732,3300.0706,945.2993,3314.79,933.3269" style="stroke:#181818;stroke-width:1;"/></g><!--reverse link WithHyperionUDCFeatures to PinTipCentreThenXrayCentre--><g class="link" data-entity-1="WithHyperionUDCFeatures" data-entity-2="PinTipCentreThenXrayCentre" data-source-line="96" data-uid="lnk24" id="link_WithHyperionUDCFeatures_PinTipCentreThenXrayCentre"><path codeLine="96" d="M3099.5275,773.0152 C3124.0575,797.5852 3142.02,821.2669 3155.64,860.5269 C3169.75,901.2169 3176.52,919.7569 3155.64,957.4169 C3141.29,983.2869 3116.2,1002.7869 3090.83,1016.9669" fill="none" id="WithHyperionUDCFeatures-backto-PinTipCentreThenXrayCentre" style="stroke:#181818;stroke-width:1;"/><polygon fill="none" points="3086.81,760.2769,3095.2815,777.2543,3103.7736,768.776,3086.81,760.2769" style="stroke:#181818;stroke-width:1;"/></g><!--reverse link DiffractionExperimentWithSample to RotationExperiment--><g class="link" data-entity-1="DiffractionExperimentWithSample" data-entity-2="RotationExperiment" data-source-line="97" data-uid="lnk25" id="link_DiffractionExperimentWithSample_RotationExperiment"><path codeLine="97" d="M339.7182,601.9389 C309.8082,613.9589 297.38,625.3269 279.64,652.4869 C235.88,719.4769 223.3,775.7069 279.64,832.5269 C311.72,864.8869 3515.45,854.5969 3560.64,860.5269 C3566.36,861.2769 3572.16,862.1469 3578,863.1169" fill="none" id="DiffractionExperimentWithSample-backto-RotationExperiment" style="stroke:#181818;stroke-width:1;"/><polygon fill="none" points="356.42,595.2269,337.4809,596.3716,341.9556,607.5061,356.42,595.2269" style="stroke:#181818;stroke-width:1;"/></g><!--reverse link WithHyperionUDCFeatures to RotationExperiment--><g class="link" data-entity-1="WithHyperionUDCFeatures" data-entity-2="RotationExperiment" data-source-line="98" data-uid="lnk26" id="link_WithHyperionUDCFeatures_RotationExperiment"><path codeLine="98" d="M3183.886,762.8663 C3296.106,791.9063 3450.75,831.9169 3578.01,864.8569" fill="none" id="WithHyperionUDCFeatures-backto-RotationExperiment" style="stroke:#181818;stroke-width:1;"/><polygon fill="none" points="3166.46,758.3569,3182.3828,768.675,3185.3891,757.0577,3166.46,758.3569" style="stroke:#181818;stroke-width:1;"/></g><!--reverse link WithPandaGridScan to WithHyperionUDCFeatures--><g class="link" data-entity-1="WithPandaGridScan" data-entity-2="WithHyperionUDCFeatures" data-source-line="99" data-uid="lnk27" id="link_WithPandaGridScan_WithHyperionUDCFeatures"><path codeLine="99" d="M2549.7484,192.3316 C2575.0284,206.5516 2590.73,213.5869 2620.64,223.7769 C2744.58,266.0169 2812.41,189.1869 2910.64,275.7769 C3037.67,387.7769 3051.51,612.4469 3052.11,695.1469" fill="none" id="WithPandaGridScan-backto-WithHyperionUDCFeatures" style="stroke:#181818;stroke-width:1;"/><polygon fill="none" points="2534.06,183.5069,2546.8068,197.561,2552.6899,187.1021,2534.06,183.5069" style="stroke:#181818;stroke-width:1;"/></g><!--reverse link RotationExperiment to MultiRotationScan--><g class="link" data-entity-1="RotationExperiment" data-entity-2="MultiRotationScan" data-source-line="100" data-uid="lnk28" id="link_RotationExperiment_MultiRotationScan"><path codeLine="100" d="M3713.7476,973.8735 C3704.2076,993.6135 3701.25,999.7269 3692.74,1017.3169" fill="none" id="RotationExperiment-backto-MultiRotationScan" style="stroke:#181818;stroke-width:1;"/><polygon fill="none" points="3721.58,957.6669,3708.3454,971.2627,3719.1498,976.4843,3721.58,957.6669" style="stroke:#181818;stroke-width:1;"/></g><!--reverse link SplitScan to MultiRotationScan--><g class="link" data-entity-1="SplitScan" data-entity-2="MultiRotationScan" data-source-line="101" data-uid="lnk29" id="link_SplitScan_MultiRotationScan"><path codeLine="101" d="M2753.2607,158.4279 C2991.0707,182.2079 4000.64,298.8069 4000.64,569.7469 C4000.64,569.7469 4000.64,569.7469 4000.64,728.6369 C4000.64,832.2669 4024.29,879.7869 3955.64,957.4169 C3931.66,984.5269 3899.5,1003.6069 3865.56,1017.0269" fill="none" id="SplitScan-backto-MultiRotationScan" style="stroke:#181818;stroke-width:1;"/><polygon fill="none" points="2735.35,156.6369,2752.6637,164.3981,2753.8577,152.4576,2735.35,156.6369" style="stroke:#181818;stroke-width:1;"/></g><!--reverse link MxBlueskyParameters to LoadCentreCollect--><g class="link" data-entity-1="MxBlueskyParameters" data-entity-2="LoadCentreCollect" data-source-line="102" data-uid="lnk30" id="link_MxBlueskyParameters_LoadCentreCollect"><path codeLine="102" d="M544.2767,190.6358 C576.9367,204.6758 600.44,213.2869 637.64,223.7769 C1189.82,379.5669 2813.15,214.4069 3183.64,652.4869 C3235.31,713.5869 3229.91,767.2469 3183.64,832.5269 C3171.8,849.2269 3155.96,862.2569 3138.22,872.4269" fill="none" id="MxBlueskyParameters-backto-LoadCentreCollect" style="stroke:#181818;stroke-width:1;"/><polygon fill="none" points="527.74,183.5269,541.9071,196.148,546.6464,185.1235,527.74,183.5269" style="stroke:#181818;stroke-width:1;"/></g><!--reverse link WithVisit to LoadCentreCollect--><g class="link" data-entity-1="WithVisit" data-entity-2="LoadCentreCollect" data-source-line="103" data-uid="lnk31" id="link_WithVisit_LoadCentreCollect"><path codeLine="103" d="M2270.4509,228.7094 C2426.3609,380.4094 2801.35,745.2169 2927.96,868.3969" fill="none" id="WithVisit-backto-LoadCentreCollect" style="stroke:#181818;stroke-width:1;"/><polygon fill="none" points="2257.55,216.1569,2266.2667,233.0097,2274.6351,224.4091,2257.55,216.1569" style="stroke:#181818;stroke-width:1;"/></g><!--reverse link WithSample to LoadCentreCollect--><g class="link" data-entity-1="WithSample" data-entity-2="LoadCentreCollect" data-source-line="104" data-uid="lnk32" id="link_WithSample_LoadCentreCollect"><path codeLine="104" d="M1604.265,209.6833 C1589.525,219.3433 1588.21,218.3269 1571.64,223.7769 C1435.36,268.5869 387.36,178.8269 281.64,275.7769 C190.11,359.7169 147.05,743.5169 233.64,832.5269 C278.51,878.6569 2208.58,900.7669 2798.89,906.4569" fill="none" id="WithSample-backto-LoadCentreCollect" style="stroke:#181818;stroke-width:1;"/><polygon fill="none" points="1619.32,199.8169,1600.9762,204.665,1607.5538,214.7017,1619.32,199.8169" style="stroke:#181818;stroke-width:1;"/></g><!--reverse link WithCentreSelection to LoadCentreCollect--><g class="link" data-entity-1="WithCentreSelection" data-entity-2="LoadCentreCollect" data-source-line="105" data-uid="lnk33" id="link_WithCentreSelection_LoadCentreCollect"><path codeLine="105" d="M731.2928,191.5198 C701.5328,206.0398 680.62,214.2269 645.64,223.7769 C547.68,250.5369 260.89,201.5169 191.64,275.7769 C22.83,456.7969 6,655.1669 178.64,832.5269 C224.51,879.6669 2200.69,901.1269 2798.85,906.5469" fill="none" id="WithCentreSelection-backto-LoadCentreCollect" style="stroke:#181818;stroke-width:1;"/><polygon fill="none" points="747.47,183.6269,728.6618,186.1274,733.9238,196.9122,747.47,183.6269" style="stroke:#181818;stroke-width:1;"/></g><!--reverse link WithHyperionUDCFeatures to LoadCentreCollect--><g class="link" data-entity-1="WithHyperionUDCFeatures" data-entity-2="LoadCentreCollect" data-source-line="106" data-uid="lnk34" id="link_WithHyperionUDCFeatures_LoadCentreCollect"><path codeLine="106" d="M3029.6222,776.2133 C3015.6922,806.3233 3002.11,835.6569 2986.99,868.3169" fill="none" id="WithHyperionUDCFeatures-backto-LoadCentreCollect" style="stroke:#181818;stroke-width:1;"/><polygon fill="none" points="3037.18,759.8769,3024.1767,773.694,3035.0676,778.7326,3037.18,759.8769" style="stroke:#181818;stroke-width:1;"/></g><!--reverse link DiffractionExperimentWithSample to GridCommon--><g class="link" data-entity-1="DiffractionExperimentWithSample" data-entity-2="GridCommon" data-source-line="107" data-uid="lnk35" id="link_DiffractionExperimentWithSample_GridCommon"><path codeLine="107" d="M463.64,612.9369 C463.64,628.8869 463.64,633.0069 463.64,654.5669" fill="none" id="DiffractionExperimentWithSample-backto-GridCommon" style="stroke:#181818;stroke-width:1;"/><polygon fill="none" points="463.64,594.9369,457.64,612.9369,469.64,612.9369,463.64,594.9369" style="stroke:#181818;stroke-width:1;"/></g><!--reverse link OptionalGonioAngleStarts to GridCommon--><g class="link" data-entity-1="OptionalGonioAngleStarts" data-entity-2="GridCommon" data-source-line="108" data-uid="lnk36" id="link_OptionalGonioAngleStarts_GridCommon"><path codeLine="108" d="M1798.694,216.4294 C1788.344,221.9594 1793.77,218.8569 1783.64,223.7769 C1382.14,418.7269 884.35,590.6469 630.11,673.7469" fill="none" id="OptionalGonioAngleStarts-backto-GridCommon" style="stroke:#181818;stroke-width:1;"/><polygon fill="none" points="1814.57,207.9469,1795.8665,211.1374,1801.5215,221.7214,1814.57,207.9469" style="stroke:#181818;stroke-width:1;"/></g><!--reverse link GridCommon to GridCommonWithHyperionDetectorParams--><g class="link" data-entity-1="GridCommon" data-entity-2="GridCommonWithHyperionDetectorParams" data-source-line="109" data-uid="lnk37" id="link_GridCommon_GridCommonWithHyperionDetectorParams"><path codeLine="109" d="M647.9457,735.9249 C1195.9757,757.8049 2906.33,827.8769 3155.64,860.5269 C3198.05,866.0869 3244.41,875.5069 3283.67,884.5069" fill="none" id="GridCommon-backto-GridCommonWithHyperionDetectorParams" style="stroke:#181818;stroke-width:1;"/><polygon fill="none" points="629.96,735.2069,647.7063,741.9202,648.185,729.9297,629.96,735.2069" style="stroke:#181818;stroke-width:1;"/></g><!--reverse link WithHyperionUDCFeatures to GridCommonWithHyperionDetectorParams--><g class="link" data-entity-1="WithHyperionUDCFeatures" data-entity-2="GridCommonWithHyperionDetectorParams" data-source-line="110" data-uid="lnk38" id="link_WithHyperionUDCFeatures_GridCommonWithHyperionDetectorParams"><path codeLine="110" d="M3124.3797,768.7836 C3188.8197,804.3436 3276.52,852.7269 3334.23,884.5769" fill="none" id="WithHyperionUDCFeatures-backto-GridCommonWithHyperionDetectorParams" style="stroke:#181818;stroke-width:1;"/><polygon fill="none" points="3108.62,760.0869,3121.4808,774.0368,3127.2786,763.5303,3108.62,760.0869" style="stroke:#181818;stroke-width:1;"/></g><!--reverse link MxBlueskyParameters to DiffractionExperiment--><g class="link" data-entity-1="MxBlueskyParameters" data-entity-2="DiffractionExperiment" data-source-line="111" data-uid="lnk39" id="link_MxBlueskyParameters_DiffractionExperiment"><path codeLine="111" d="M460.4952,201.2941 C460.9152,225.2741 461.21,241.8669 461.8,275.3869" fill="none" id="MxBlueskyParameters-backto-DiffractionExperiment" style="stroke:#181818;stroke-width:1;"/><polygon fill="none" points="460.18,183.2969,454.4961,201.3992,466.4943,201.189,460.18,183.2969" style="stroke:#181818;stroke-width:1;"/></g><!--reverse link WithSnapshot to DiffractionExperiment--><g class="link" data-entity-1="WithSnapshot" data-entity-2="DiffractionExperiment" data-source-line="112" data-uid="lnk40" id="link_WithSnapshot_DiffractionExperiment"><path codeLine="112" d="M1020.1752,206.9935 C1000.7252,215.3935 996.95,216.5969 977.64,223.7769 C863.33,266.3069 731.7,306.2169 630.27,335.0869" fill="none" id="WithSnapshot-backto-DiffractionExperiment" style="stroke:#181818;stroke-width:1;"/><polygon fill="none" points="1036.7,199.8569,1017.7963,201.4853,1022.5541,212.5018,1036.7,199.8569" style="stroke:#181818;stroke-width:1;"/></g><!--reverse link WithOptionalEnergyChange to DiffractionExperiment--><g class="link" data-entity-1="WithOptionalEnergyChange" data-entity-2="DiffractionExperiment" data-source-line="113" data-uid="lnk41" id="link_WithOptionalEnergyChange_DiffractionExperiment"><path codeLine="113" d="M1370.4504,192.6001 C1345.7904,206.7601 1330.82,213.5669 1301.64,223.7769 C1076.2,302.6469 801.99,344.2669 630.07,364.2569" fill="none" id="WithOptionalEnergyChange-backto-DiffractionExperiment" style="stroke:#181818;stroke-width:1;"/><polygon fill="none" points="1386.06,183.6369,1367.4626,187.3969,1373.4381,197.8033,1386.06,183.6369" style="stroke:#181818;stroke-width:1;"/></g><!--reverse link WithVisit to DiffractionExperiment--><g class="link" data-entity-1="WithVisit" data-entity-2="DiffractionExperiment" data-source-line="114" data-uid="lnk42" id="link_WithVisit_DiffractionExperiment"><path codeLine="114" d="M2044.7377,222.1921 C2036.6977,225.0321 2045.6,221.5969 2037.64,223.7769 C1775.69,295.5769 978.77,349.8469 630.02,370.8169" fill="none" id="WithVisit-backto-DiffractionExperiment" style="stroke:#181818;stroke-width:1;"/><polygon fill="none" points="2061.71,216.1969,2042.7393,216.5346,2046.7361,227.8495,2061.71,216.1969" style="stroke:#181818;stroke-width:1;"/></g><!--reverse link GridCommonWithHyperionDetectorParams to GridScanWithEdgeDetect--><g class="link" data-entity-1="GridCommonWithHyperionDetectorParams" data-entity-2="GridScanWithEdgeDetect" data-source-line="115" data-uid="lnk43" id="link_GridCommonWithHyperionDetectorParams_GridScanWithEdgeDetect"><path codeLine="115" d="M3347.2619,947.3248 C3327.1419,972.9048 3306.08,999.6769 3285.94,1025.2969" fill="none" id="GridCommonWithHyperionDetectorParams-backto-GridScanWithEdgeDetect" style="stroke:#181818;stroke-width:1;"/><polygon fill="none" points="3358.39,933.1769,3342.5459,943.6155,3351.9779,951.0342,3358.39,933.1769" style="stroke:#181818;stroke-width:1;"/></g><!--reverse link WithHyperionUDCFeatures to GridScanWithEdgeDetect--><g class="link" data-entity-1="WithHyperionUDCFeatures" data-entity-2="GridScanWithEdgeDetect" data-source-line="116" data-uid="lnk44" id="link_WithHyperionUDCFeatures_GridScanWithEdgeDetect"><path codeLine="116" d="M3184.3893,728.3652 C3399.2993,730.2552 3831.58,747.7769 3928.64,860.5269 C4069.96,1024.6969 3799.95,942.5769 3389.64,1017.4169 C3377.81,1019.5769 3365.43,1022.2469 3353.29,1025.1069" fill="none" id="WithHyperionUDCFeatures-backto-GridScanWithEdgeDetect" style="stroke:#181818;stroke-width:1;"/><polygon fill="none" points="3166.39,728.2069,3184.3365,734.3649,3184.4421,722.3654,3166.39,728.2069" style="stroke:#181818;stroke-width:1;"/></g><!--reverse link DiffractionExperiment to DiffractionExperimentWithSample--><g class="link" data-entity-1="DiffractionExperiment" data-entity-2="DiffractionExperimentWithSample" data-source-line="117" data-uid="lnk45" id="link_DiffractionExperiment_DiffractionExperimentWithSample"><path codeLine="117" d="M463.64,505.2469 C463.64,527.4969 463.64,530.8969 463.64,546.3269" fill="none" id="DiffractionExperiment-backto-DiffractionExperimentWithSample" style="stroke:#181818;stroke-width:1;"/><polygon fill="none" points="463.64,487.2469,457.64,505.2469,469.64,505.2469,463.64,487.2469" style="stroke:#181818;stroke-width:1;"/></g><!--reverse link WithSample to DiffractionExperimentWithSample--><g class="link" data-entity-1="WithSample" data-entity-2="DiffractionExperimentWithSample" data-source-line="118" data-uid="lnk46" id="link_WithSample_DiffractionExperimentWithSample"><path codeLine="118" d="M1598.1827,209.7438 C1584.8427,218.4238 1585.65,217.0269 1571.64,223.7769 C1225.31,390.5769 779.93,500.8869 575.39,546.2869" fill="none" id="WithSample-backto-DiffractionExperimentWithSample" style="stroke:#181818;stroke-width:1;"/><polygon fill="none" points="1613.27,199.9269,1594.9104,204.7147,1601.455,214.7729,1613.27,199.9269" style="stroke:#181818;stroke-width:1;"/></g><!--SRC=[bLPBRziu43wRluAtxGAR07jl3wcJTXTeMgFsPXSe0eAMnX8HYYH8AhNMpN_la9HaEP8VHGuHPxvvSEQReNzRbSBHZP10yJ-llRugG87b7dAwRcXtO4PovUjANfk642yy6lpL6B12AxhWbbVWmT9xdOCa3ZnLA766Px04WsglBLLQ0I4eU-85q6hBrh86zzHSPxggjBesdHj7TyJh0do9BdSaazmv-g_mvHoKj-XHGkOny8xCLjfyVj_Sy-rSryht6khY5ykYWICl0oTBnOqhjKVh1VSbTUsPvSAYZRODcKdX_BUDrDm_qX_qCoQ-X-aA2kvO3WMPhRMMj7R02Yjora5UnUELaO3HXFBKnGCJUJfslfFKrDdJf5oe0uyFmecGllEMhe5NKc1Xu-avQD9d3k56pZElMG2nJAjdi5XUPl3Q2IIKGn4MZ1aB6x4bitZfBZxwY1M9ZhZAW5NLGIOBhdB-4U- -p7XeHx8sGSfihMepQRaqKlXaqOc-c905bn-r4lf65HAMdbllTgyoYiLdBkXI1mwqfXH7TTa9tHCtPkXrUCKkipiSXAAPbrmLi1lLgS8hCuWG1i_eu6NCu5knsLWU-Nct3QDJ8JlRDeO9P65cEi-mDThL5fX767C95GO5RP3sLXG5s31krATlLk7XW3tO0ARgQWsMp6umdaTt3nndhgTN71B86M-rNN1lkNALS2um8-HCPdyxqwptQQzmzd5Ze8n1BsGUfIbJXwp1AH_EL3yhLekKR5Vc- -txj0dwHHBwlWn5zI9xm6COwNuzH6F9dfEyzn9eE8-Rf6_FMc-P4_y3gwjE50VrkyXzEH2EYlqBj_t5oWh3z6Q36pA4Vpd5ZE7kU8b_4wkpR7VmuV9CNXT2hOH9EtDLWlhFyYQTTgVJ-Qez7x4q6RYozg45se0IgkWBbhIsDMH2PHPYaUAmNLxEuUHrxyi_j_CFm4CL0oqwQIlw87c13rYhtrEgbbvqzsYNqurIGG3vjxZUXze5sELt0FFu1_q4waqb59EW2b- - -_Ftn_sr74BtCJvfdgTwphKC_SOON_LQ-w081KzAD4SPmmBb3FU1QXybCXlbIAiWOGVX9kWzhCrjkw7ZvBZT0Jgu3DYxl824IqIwn1Dz- -FgwWI3o946dRKxG_LaFoRWwNX7y0UlKq8USKF67X9-r2FIFrx701FRB457V27zOtuAC2pCDEBLpw9JqACb7CClwjIUI-JO4pu2xZzVguxpyNJo5tausfV9YvBXJyLpkAdV2ETi1dsV1bq-fjF3Vhva4pQJgPp8Si-74LVFu7y2]--></g></svg>