<svg xmlns="http://www.w3.org/2000/svg" xmlns:xlink="http://www.w3.org/1999/xlink" contentStyleType="text/css" data-diagram-type="CLASS" height="1391px" preserveAspectRatio="none" style="width:4602px;height:1391px;background:#FFFFFF;" version="1.1" viewBox="0 0 4602 1391" width="4602px" zoomAndPan="magnify"><title>Hyperion Parameter Model</title><defs/><g><g class="title" data-source-line="3"><text fill="#000000" font-family="sans-serif" font-size="14" font-weight="bold" lengthAdjust="spacing" textLength="212.4951" x="2188.0174" y="22.9951">Hyperion Parameter Model</text></g><!--cluster mx_bluesky.common.parameters--><g class="cluster" data-entity="mx_bluesky.common.parameters" data-source-line="6" data-uid="ent0002" id="cluster_mx_bluesky.common.parameters"><path d="M262.45,43.2969 L523.7625,43.2969 A3.75,3.75 0 0 1 526.2625,45.7969 L533.2625,65.5938 L3037.45,65.5938 A2.5,2.5 0 0 1 3039.95,68.0938 L3039.95,1109.2969 A2.5,2.5 0 0 1 3037.45,1111.7969 L262.45,1111.7969 A2.5,2.5 0 0 1 259.95,1109.2969 L259.95,45.7969 A2.5,2.5 0 0 1 262.45,43.2969" fill="none" style="stroke:#000000;stroke-width:1.5;"/><line style="stroke:#000000;stroke-width:1.5;" x1="259.95" x2="533.2625" y1="65.5938" y2="65.5938"/><text fill="#000000" font-family="sans-serif" font-size="14" font-weight="bold" lengthAdjust="spacing" textLength="260.3125" x="263.95" y="58.292">mx_bluesky.common.parameters</text></g><!--cluster mx_bluesky.hyperion.parameters--><g class="cluster" data-entity="mx_bluesky.hyperion.parameters" data-source-line="92" data-uid="ent0019" id="cluster_mx_bluesky.hyperion.parameters"><path d="M3066.45,907.0169 L3330.9822,907.0169 A3.75,3.75 0 0 1 3333.4822,909.5169 L3340.4822,929.3138 L4550.45,929.3138 A2.5,2.5 0 0 1 4552.95,931.8138 L4552.95,1382.4869 A2.5,2.5 0 0 1 4550.45,1384.9869 L3066.45,1384.9869 A2.5,2.5 0 0 1 3063.95,1382.4869 L3063.95,909.5169 A2.5,2.5 0 0 1 3066.45,907.0169" fill="none" style="stroke:#000000;stroke-width:1.5;"/><line style="stroke:#000000;stroke-width:1.5;" x1="3063.95" x2="3340.4822" y1="929.3138" y2="929.3138"/><text fill="#000000" font-family="sans-serif" font-size="14" font-weight="bold" lengthAdjust="spacing" textLength="263.5322" x="3067.95" y="922.012">mx_bluesky.hyperion.parameters</text></g><!--class OptionalGonioAngleStarts--><g class="entity" data-entity="OptionalGonioAngleStarts" data-source-line="8" data-uid="ent0003" id="entity_OptionalGonioAngleStarts"><rect fill="#F1F1F1" height="113.1875" rx="2.5" ry="2.5" style="stroke:#181818;stroke-width:0.5;" width="219.3203" x="1541.29" y="94.4469"/><ellipse cx="1559.0133" cy="110.4469" fill="#ADD1B2" rx="11" ry="11" style="stroke:#181818;stroke-width:1;"/><path d="M1561.982,116.0875 Q1561.4039,116.3844 1560.7633,116.525 Q1560.1227,116.6813 1559.4195,116.6813 Q1556.9195,116.6813 1555.5914,115.0406 Q1554.2789,113.3844 1554.2789,110.2594 Q1554.2789,107.1344 1555.5914,105.4781 Q1556.9195,103.8219 1559.4195,103.8219 Q1560.1227,103.8219 1560.7633,103.9781 Q1561.4195,104.1344 1561.982,104.4313 L1561.982,107.15 Q1561.357,106.5719 1560.7633,106.3063 Q1560.1695,106.025 1559.5445,106.025 Q1558.2008,106.025 1557.5133,107.1031 Q1556.8258,108.1656 1556.8258,110.2594 Q1556.8258,112.3531 1557.5133,113.4313 Q1558.2008,114.4938 1559.5445,114.4938 Q1560.1695,114.4938 1560.7633,114.2281 Q1561.357,113.9469 1561.982,113.3688 L1561.982,116.0875 Z " fill="#000000"/><text fill="#000000" font-family="sans-serif" font-size="14" lengthAdjust="spacing" textLength="181.2686" x="1573.6185" y="115.2936">OptionalGonioAngleStarts</text><line style="stroke:#181818;stroke-width:0.5;" x1="1542.29" x2="1759.6103" y1="126.4469" y2="126.4469"/><text fill="#000000" font-family="sans-serif" font-size="14" lengthAdjust="spacing" textLength="207.3203" x="1547.29" y="143.442">float | None omega_start_deg</text><text fill="#000000" font-family="sans-serif" font-size="14" lengthAdjust="spacing" textLength="180.6875" x="1547.29" y="159.7389">float | None phi_start_deg</text><text fill="#000000" font-family="sans-serif" font-size="14" lengthAdjust="spacing" textLength="179.498" x="1547.29" y="176.0357">float | None chi_start_deg</text><text fill="#000000" font-family="sans-serif" font-size="14" lengthAdjust="spacing" textLength="202.0771" x="1547.29" y="192.3326">float | None kappa_start_deg</text><line style="stroke:#181818;stroke-width:0.5;" x1="1542.29" x2="1759.6103" y1="199.6344" y2="199.6344"/></g><!--class WithOptionalEnergyChange--><g class="entity" data-entity="WithOptionalEnergyChange" data-source-line="14" data-uid="ent0004" id="entity_WithOptionalEnergyChange"><rect fill="#F1F1F1" height="64.2969" rx="2.5" ry="2.5" style="stroke:#181818;stroke-width:0.5;" width="235.4463" x="1271.23" y="118.8969"/><ellipse cx="1290.4145" cy="134.8969" fill="#ADD1B2" rx="11" ry="11" style="stroke:#181818;stroke-width:1;"/><path d="M1293.3832,140.5375 Q1292.8051,140.8344 1292.1645,140.975 Q1291.5238,141.1313 1290.8207,141.1313 Q1288.3207,141.1313 1286.9926,139.4906 Q1285.6801,137.8344 1285.6801,134.7094 Q1285.6801,131.5844 1286.9926,129.9281 Q1288.3207,128.2719 1290.8207,128.2719 Q1291.5238,128.2719 1292.1645,128.4281 Q1292.8207,128.5844 1293.3832,128.8813 L1293.3832,131.6 Q1292.7582,131.0219 1292.1645,130.7563 Q1291.5707,130.475 1290.9457,130.475 Q1289.602,130.475 1288.9145,131.5531 Q1288.227,132.6156 1288.227,134.7094 Q1288.227,136.8031 1288.9145,137.8813 Q1289.602,138.9438 1290.9457,138.9438 Q1291.5707,138.9438 1292.1645,138.6781 Q1292.7582,138.3969 1293.3832,137.8188 L1293.3832,140.5375 Z " fill="#000000"/><text fill="#000000" font-family="sans-serif" font-size="14" lengthAdjust="spacing" textLength="194.1475" x="1305.3444" y="139.7436">WithOptionalEnergyChange</text><line style="stroke:#181818;stroke-width:0.5;" x1="1272.23" x2="1505.6763" y1="150.8969" y2="150.8969"/><text fill="#000000" font-family="sans-serif" font-size="14" lengthAdjust="spacing" textLength="223.4463" x="1277.23" y="167.892">float | None demand_energy_ev</text><line style="stroke:#181818;stroke-width:0.5;" x1="1272.23" x2="1505.6763" y1="175.1938" y2="175.1938"/></g><!--class WithVisit--><g class="entity" data-entity="WithVisit" data-source-line="17" data-uid="ent0005" id="entity_WithVisit"><rect fill="#F1F1F1" height="129.4844" rx="2.5" ry="2.5" style="stroke:#181818;stroke-width:0.5;" width="271.7861" x="640.06" y="86.2969"/><ellipse cx="740.5859" cy="102.2969" fill="#ADD1B2" rx="11" ry="11" style="stroke:#181818;stroke-width:1;"/><path d="M743.5546,107.9375 Q742.9765,108.2344 742.3359,108.375 Q741.6953,108.5313 740.9921,108.5313 Q738.4921,108.5313 737.164,106.8906 Q735.8515,105.2344 735.8515,102.1094 Q735.8515,98.9844 737.164,97.3281 Q738.4921,95.6719 740.9921,95.6719 Q741.6953,95.6719 742.3359,95.8281 Q742.9921,95.9844 743.5546,96.2813 L743.5546,99 Q742.9296,98.4219 742.3359,98.1563 Q741.7421,97.875 741.1171,97.875 Q739.7734,97.875 739.0859,98.9531 Q738.3984,100.0156 738.3984,102.1094 Q738.3984,104.2031 739.0859,105.2813 Q739.7734,106.3438 741.1171,106.3438 Q741.7421,106.3438 742.3359,106.0781 Q742.9296,105.7969 743.5546,105.2188 L743.5546,107.9375 Z " fill="#000000"/><text fill="#000000" font-family="sans-serif" font-size="14" lengthAdjust="spacing" textLength="62.2344" x="761.0859" y="107.1436">WithVisit</text><line style="stroke:#181818;stroke-width:0.5;" x1="641.06" x2="910.8461" y1="118.2969" y2="118.2969"/><text fill="#000000" font-family="sans-serif" font-size="14" lengthAdjust="spacing" textLength="87.9717" x="646.06" y="135.292">str beamline</text><text fill="#000000" font-family="sans-serif" font-size="14" lengthAdjust="spacing" textLength="51.8369" x="646.06" y="151.5889">str visit</text><text fill="#000000" font-family="sans-serif" font-size="14" lengthAdjust="spacing" textLength="259.7861" x="646.06" y="167.8857">str det_dist_to_beam_converter_path</text><text fill="#000000" font-family="sans-serif" font-size="14" lengthAdjust="spacing" textLength="131.5918" x="646.06" y="184.1826">str insertion_prefix</text><text fill="#000000" font-family="sans-serif" font-size="14" lengthAdjust="spacing" textLength="245.752" x="646.06" y="200.4795">float | None detector_distance_mm</text><line style="stroke:#181818;stroke-width:0.5;" x1="641.06" x2="910.8461" y1="207.7813" y2="207.7813"/></g><!--class XyzStarts--><g class="entity" data-entity="XyzStarts" data-source-line="24" data-uid="ent0006" id="entity_XyzStarts"><rect fill="#F1F1F1" height="96.8906" rx="2.5" ry="2.5" style="stroke:#181818;stroke-width:0.5;" width="125.3057" x="1929.3" y="102.5969"/><ellipse cx="1956.2641" cy="118.5969" fill="#ADD1B2" rx="11" ry="11" style="stroke:#181818;stroke-width:1;"/><path d="M1959.2329,124.2375 Q1958.6547,124.5344 1958.0141,124.675 Q1957.3735,124.8312 1956.6704,124.8312 Q1954.1704,124.8312 1952.8422,123.1906 Q1951.5297,121.5344 1951.5297,118.4094 Q1951.5297,115.2844 1952.8422,113.6281 Q1954.1704,111.9719 1956.6704,111.9719 Q1957.3735,111.9719 1958.0141,112.1281 Q1958.6704,112.2844 1959.2329,112.5812 L1959.2329,115.3 Q1958.6079,114.7219 1958.0141,114.4562 Q1957.4204,114.175 1956.7954,114.175 Q1955.4516,114.175 1954.7641,115.2531 Q1954.0766,116.3156 1954.0766,118.4094 Q1954.0766,120.5031 1954.7641,121.5812 Q1955.4516,122.6437 1956.7954,122.6437 Q1957.4204,122.6437 1958.0141,122.3781 Q1958.6079,122.0969 1959.2329,121.5187 L1959.2329,124.2375 Z " fill="#000000"/><text fill="#000000" font-family="sans-serif" font-size="14" lengthAdjust="spacing" textLength="66.7188" x="1972.9228" y="123.4436">XyzStarts</text><line style="stroke:#181818;stroke-width:0.5;" x1="1930.3" x2="2053.6057" y1="134.5969" y2="134.5969"/><text fill="#000000" font-family="sans-serif" font-size="14" lengthAdjust="spacing" textLength="113.3057" x="1935.3" y="151.592">float x_start_um</text><text fill="#000000" font-family="sans-serif" font-size="14" lengthAdjust="spacing" textLength="113.3057" x="1935.3" y="167.8889">float y_start_um</text><text fill="#000000" font-family="sans-serif" font-size="14" lengthAdjust="spacing" textLength="112.3691" x="1935.3" y="184.1857">float z_start_um</text><line style="stroke:#181818;stroke-width:0.5;" x1="1930.3" x2="2053.6057" y1="191.4875" y2="191.4875"/></g><!--class WithCentreSelection--><g class="entity" data-entity="WithCentreSelection" data-source-line="29" data-uid="ent0007" id="entity_WithCentreSelection"><rect fill="#F1F1F1" height="64.2969" rx="2.5" ry="2.5" style="stroke:#181818;stroke-width:0.5;" width="306.7861" x="2433.56" y="118.8969"/><ellipse cx="2510.8369" cy="134.8969" fill="#ADD1B2" rx="11" ry="11" style="stroke:#181818;stroke-width:1;"/><path d="M2513.8056,140.5375 Q2513.2275,140.8344 2512.5869,140.975 Q2511.9462,141.1313 2511.2431,141.1313 Q2508.7431,141.1313 2507.415,139.4906 Q2506.1025,137.8344 2506.1025,134.7094 Q2506.1025,131.5844 2507.415,129.9281 Q2508.7431,128.2719 2511.2431,128.2719 Q2511.9462,128.2719 2512.5869,128.4281 Q2513.2431,128.5844 2513.8056,128.8813 L2513.8056,131.6 Q2513.1806,131.0219 2512.5869,130.7563 Q2511.9931,130.475 2511.3681,130.475 Q2510.0244,130.475 2509.3369,131.5531 Q2508.6494,132.6156 2508.6494,134.7094 Q2508.6494,136.8031 2509.3369,137.8813 Q2510.0244,138.9438 2511.3681,138.9438 Q2511.9931,138.9438 2512.5869,138.6781 Q2513.1806,138.3969 2513.8056,137.8188 L2513.8056,140.5375 Z " fill="#000000"/><text fill="#000000" font-family="sans-serif" font-size="14" lengthAdjust="spacing" textLength="143.7324" x="2531.3369" y="139.7436">WithCentreSelection</text><line style="stroke:#181818;stroke-width:0.5;" x1="2434.56" x2="2739.3461" y1="150.8969" y2="150.8969"/><text fill="#000000" font-family="sans-serif" font-size="14" lengthAdjust="spacing" textLength="294.7861" x="2439.56" y="167.892">TopNByMaxCountSelection select_centres</text><line style="stroke:#181818;stroke-width:0.5;" x1="2434.56" x2="2739.3461" y1="175.1938" y2="175.1938"/></g><!--class WithScan--><g class="entity" data-entity="WithScan" data-source-line="32" data-uid="ent0008" id="entity_WithScan"><rect fill="#F1F1F1" height="48" rx="2.5" ry="2.5" style="stroke:#181818;stroke-width:0.5;" width="98.1309" x="1795.88" y="127.0369"/><ellipse cx="1810.88" cy="143.0369" fill="#ADD1B2" rx="11" ry="11" style="stroke:#181818;stroke-width:1;"/><path d="M1813.8488,148.6775 Q1813.2706,148.9744 1812.63,149.115 Q1811.9894,149.2713 1811.2863,149.2713 Q1808.7863,149.2713 1807.4581,147.6306 Q1806.1456,145.9744 1806.1456,142.8494 Q1806.1456,139.7244 1807.4581,138.0681 Q1808.7863,136.4119 1811.2863,136.4119 Q1811.9894,136.4119 1812.63,136.5681 Q1813.2863,136.7244 1813.8488,137.0213 L1813.8488,139.74 Q1813.2238,139.1619 1812.63,138.8963 Q1812.0363,138.615 1811.4113,138.615 Q1810.0675,138.615 1809.38,139.6931 Q1808.6925,140.7556 1808.6925,142.8494 Q1808.6925,144.9431 1809.38,146.0213 Q1810.0675,147.0838 1811.4113,147.0838 Q1812.0363,147.0838 1812.63,146.8181 Q1813.2238,146.5369 1813.8488,145.9588 L1813.8488,148.6775 Z " fill="#000000"/><text fill="#000000" font-family="sans-serif" font-size="14" lengthAdjust="spacing" textLength="66.1309" x="1824.88" y="147.8836">WithScan</text><line style="stroke:#181818;stroke-width:0.5;" x1="1796.88" x2="1893.0109" y1="159.0369" y2="159.0369"/><line style="stroke:#181818;stroke-width:0.5;" x1="1796.88" x2="1893.0109" y1="167.0369" y2="167.0369"/></g><!--class WithSample--><g class="entity" data-entity="WithSample" data-source-line="34" data-uid="ent0009" id="entity_WithSample"><rect fill="#F1F1F1" height="96.8906" rx="2.5" ry="2.5" style="stroke:#181818;stroke-width:0.5;" width="176.3086" x="2089.79" y="102.5969"/><ellipse cx="2131.6643" cy="118.5969" fill="#ADD1B2" rx="11" ry="11" style="stroke:#181818;stroke-width:1;"/><path d="M2134.6331,124.2375 Q2134.0549,124.5344 2133.4143,124.675 Q2132.7737,124.8312 2132.0706,124.8312 Q2129.5706,124.8312 2128.2424,123.1906 Q2126.9299,121.5344 2126.9299,118.4094 Q2126.9299,115.2844 2128.2424,113.6281 Q2129.5706,111.9719 2132.0706,111.9719 Q2132.7737,111.9719 2133.4143,112.1281 Q2134.0706,112.2844 2134.6331,112.5812 L2134.6331,115.3 Q2134.0081,114.7219 2133.4143,114.4562 Q2132.8206,114.175 2132.1956,114.175 Q2130.8518,114.175 2130.1643,115.2531 Q2129.4768,116.3156 2129.4768,118.4094 Q2129.4768,120.5031 2130.1643,121.5812 Q2130.8518,122.6437 2132.1956,122.6437 Q2132.8206,122.6437 2133.4143,122.3781 Q2134.0081,122.0969 2134.6331,121.5187 L2134.6331,124.2375 Z " fill="#000000"/><text fill="#000000" font-family="sans-serif" font-size="14" lengthAdjust="spacing" textLength="84.5879" x="2151.6364" y="123.4436">WithSample</text><line style="stroke:#181818;stroke-width:0.5;" x1="2090.79" x2="2265.0986" y1="134.5969" y2="134.5969"/><text fill="#000000" font-family="sans-serif" font-size="14" lengthAdjust="spacing" textLength="93.3789" x="2095.79" y="151.592">int sample_id</text><text fill="#000000" font-family="sans-serif" font-size="14" lengthAdjust="spacing" textLength="164.3086" x="2095.79" y="167.8889">int | None sample_puck</text><text fill="#000000" font-family="sans-serif" font-size="14" lengthAdjust="spacing" textLength="152.3936" x="2095.79" y="184.1857">int | None sample_pin</text><line style="stroke:#181818;stroke-width:0.5;" x1="2090.79" x2="2265.0986" y1="191.4875" y2="191.4875"/></g><!--class WithPandaGridScan--><g class="entity" data-entity="WithPandaGridScan" data-source-line="39" data-uid="ent0010" id="entity_WithPandaGridScan"><rect fill="#F1F1F1" height="64.2969" rx="2.5" ry="2.5" style="stroke:#181818;stroke-width:0.5;" width="240.5664" x="2775.67" y="118.8969"/><ellipse cx="2822.2672" cy="134.8969" fill="#ADD1B2" rx="11" ry="11" style="stroke:#181818;stroke-width:1;"/><path d="M2825.2359,140.5375 Q2824.6578,140.8344 2824.0172,140.975 Q2823.3765,141.1313 2822.6734,141.1313 Q2820.1734,141.1313 2818.8453,139.4906 Q2817.5328,137.8344 2817.5328,134.7094 Q2817.5328,131.5844 2818.8453,129.9281 Q2820.1734,128.2719 2822.6734,128.2719 Q2823.3765,128.2719 2824.0172,128.4281 Q2824.6734,128.5844 2825.2359,128.8813 L2825.2359,131.6 Q2824.6109,131.0219 2824.0172,130.7563 Q2823.4234,130.475 2822.7984,130.475 Q2821.4547,130.475 2820.7672,131.5531 Q2820.0797,132.6156 2820.0797,134.7094 Q2820.0797,136.8031 2820.7672,137.8813 Q2821.4547,138.9438 2822.7984,138.9438 Q2823.4234,138.9438 2824.0172,138.6781 Q2824.6109,138.3969 2825.2359,137.8188 L2825.2359,140.5375 Z " fill="#000000"/><text fill="#000000" font-family="sans-serif" font-size="14" lengthAdjust="spacing" textLength="138.8721" x="2842.7672" y="139.7436">WithPandaGridScan</text><line style="stroke:#181818;stroke-width:0.5;" x1="2776.67" x2="3015.2364" y1="150.8969" y2="150.8969"/><text fill="#000000" font-family="sans-serif" font-size="14" lengthAdjust="spacing" textLength="228.5664" x="2781.67" y="167.892">float panda_runup_distance_mm</text><line style="stroke:#181818;stroke-width:0.5;" x1="2776.67" x2="3015.2364" y1="175.1938" y2="175.1938"/></g><!--class SplitScan--><g class="entity" data-entity="SplitScan" data-source-line="42" data-uid="ent0011" id="entity_SplitScan"><rect fill="#F1F1F1" height="48" rx="2.5" ry="2.5" style="stroke:#181818;stroke-width:0.5;" width="97.0781" x="2301.41" y="127.0369"/><ellipse cx="2316.41" cy="143.0369" fill="#ADD1B2" rx="11" ry="11" style="stroke:#181818;stroke-width:1;"/><path d="M2319.3788,148.6775 Q2318.8006,148.9744 2318.16,149.115 Q2317.5194,149.2713 2316.8163,149.2713 Q2314.3163,149.2713 2312.9881,147.6306 Q2311.6756,145.9744 2311.6756,142.8494 Q2311.6756,139.7244 2312.9881,138.0681 Q2314.3163,136.4119 2316.8163,136.4119 Q2317.5194,136.4119 2318.16,136.5681 Q2318.8163,136.7244 2319.3788,137.0213 L2319.3788,139.74 Q2318.7538,139.1619 2318.16,138.8963 Q2317.5663,138.615 2316.9413,138.615 Q2315.5975,138.615 2314.91,139.6931 Q2314.2225,140.7556 2314.2225,142.8494 Q2314.2225,144.9431 2314.91,146.0213 Q2315.5975,147.0838 2316.9413,147.0838 Q2317.5663,147.0838 2318.16,146.8181 Q2318.7538,146.5369 2319.3788,145.9588 L2319.3788,148.6775 Z " fill="#000000"/><text fill="#000000" font-family="sans-serif" font-size="14" lengthAdjust="spacing" textLength="65.0781" x="2330.41" y="147.8836">SplitScan</text><line style="stroke:#181818;stroke-width:0.5;" x1="2302.41" x2="2397.4881" y1="159.0369" y2="159.0369"/><line style="stroke:#181818;stroke-width:0.5;" x1="2302.41" x2="2397.4881" y1="167.0369" y2="167.0369"/></g><!--class WithSnapshot--><g class="entity" data-entity="WithSnapshot" data-source-line="44" data-uid="ent0012" id="entity_WithSnapshot"><rect fill="#F1F1F1" height="80.5938" rx="2.5" ry="2.5" style="stroke:#181818;stroke-width:0.5;" width="289.3477" x="947.27" y="110.7469"/><ellipse cx="1038.9228" cy="126.7469" fill="#ADD1B2" rx="11" ry="11" style="stroke:#181818;stroke-width:1;"/><path d="M1041.8916,132.3875 Q1041.3135,132.6844 1040.6728,132.825 Q1040.0322,132.9813 1039.3291,132.9813 Q1036.8291,132.9813 1035.501,131.3406 Q1034.1885,129.6844 1034.1885,126.5594 Q1034.1885,123.4344 1035.501,121.7781 Q1036.8291,120.1219 1039.3291,120.1219 Q1040.0322,120.1219 1040.6728,120.2781 Q1041.3291,120.4344 1041.8916,120.7313 L1041.8916,123.45 Q1041.2666,122.8719 1040.6728,122.6063 Q1040.0791,122.325 1039.4541,122.325 Q1038.1103,122.325 1037.4228,123.4031 Q1036.7353,124.4656 1036.7353,126.5594 Q1036.7353,128.6531 1037.4228,129.7313 Q1038.1103,130.7938 1039.4541,130.7938 Q1040.0791,130.7938 1040.6728,130.5281 Q1041.2666,130.2469 1041.8916,129.6688 L1041.8916,132.3875 Z " fill="#000000"/><text fill="#000000" font-family="sans-serif" font-size="14" lengthAdjust="spacing" textLength="97.542" x="1059.4228" y="131.5936">WithSnapshot</text><line style="stroke:#181818;stroke-width:0.5;" x1="948.27" x2="1235.6177" y1="142.7469" y2="142.7469"/><text fill="#000000" font-family="sans-serif" font-size="14" lengthAdjust="spacing" textLength="169.627" x="953.27" y="159.742">Path snapshot_directory</text><text fill="#000000" font-family="sans-serif" font-size="14" lengthAdjust="spacing" textLength="277.3477" x="953.27" y="176.0389">list[float] | None snapshot_omegas_deg</text><line style="stroke:#181818;stroke-width:0.5;" x1="948.27" x2="1235.6177" y1="183.3406" y2="183.3406"/></g><!--class SpecifiedGrid--><g class="entity" data-entity="SpecifiedGrid" data-source-line="48" data-uid="ent0013" id="entity_SpecifiedGrid"><rect fill="#F1F1F1" height="48" rx="2.5" ry="2.5" style="stroke:#181818;stroke-width:0.5;" width="125.6729" x="1782.11" y="357.2669"/><ellipse cx="1797.11" cy="373.2669" fill="#ADD1B2" rx="11" ry="11" style="stroke:#181818;stroke-width:1;"/><path d="M1800.0788,378.9075 Q1799.5006,379.2044 1798.86,379.345 Q1798.2194,379.5013 1797.5163,379.5013 Q1795.0163,379.5013 1793.6881,377.8606 Q1792.3756,376.2044 1792.3756,373.0794 Q1792.3756,369.9544 1793.6881,368.2981 Q1795.0163,366.6419 1797.5163,366.6419 Q1798.2194,366.6419 1798.86,366.7981 Q1799.5163,366.9544 1800.0788,367.2513 L1800.0788,369.97 Q1799.4538,369.3919 1798.86,369.1263 Q1798.2663,368.845 1797.6413,368.845 Q1796.2975,368.845 1795.61,369.9231 Q1794.9225,370.9856 1794.9225,373.0794 Q1794.9225,375.1731 1795.61,376.2513 Q1796.2975,377.3138 1797.6413,377.3138 Q1798.2663,377.3138 1798.86,377.0481 Q1799.4538,376.7669 1800.0788,376.1888 L1800.0788,378.9075 Z " fill="#000000"/><text fill="#000000" font-family="sans-serif" font-size="14" lengthAdjust="spacing" textLength="93.6729" x="1811.11" y="378.1136">SpecifiedGrid</text><line style="stroke:#181818;stroke-width:0.5;" x1="1783.11" x2="1906.7829" y1="389.2669" y2="389.2669"/><line style="stroke:#181818;stroke-width:0.5;" x1="1783.11" x2="1906.7829" y1="397.2669" y2="397.2669"/></g><!--class DiffractionExperimentWithSample--><g class="entity" data-entity="DiffractionExperimentWithSample" data-source-line="52" data-uid="ent0014" id="entity_DiffractionExperimentWithSample"><rect fill="#F1F1F1" height="48" rx="2.5" ry="2.5" style="stroke:#181818;stroke-width:0.5;" width="270.8545" x="314.52" y="546.7569"/><ellipse cx="329.52" cy="562.7569" fill="#ADD1B2" rx="11" ry="11" style="stroke:#181818;stroke-width:1;"/><path d="M332.4888,568.3975 Q331.9106,568.6944 331.27,568.835 Q330.6294,568.9913 329.9263,568.9913 Q327.4263,568.9913 326.0981,567.3506 Q324.7856,565.6944 324.7856,562.5694 Q324.7856,559.4444 326.0981,557.7881 Q327.4263,556.1319 329.9263,556.1319 Q330.6294,556.1319 331.27,556.2881 Q331.9263,556.4444 332.4888,556.7413 L332.4888,559.46 Q331.8638,558.8819 331.27,558.6163 Q330.6763,558.335 330.0513,558.335 Q328.7075,558.335 328.02,559.4131 Q327.3325,560.4756 327.3325,562.5694 Q327.3325,564.6631 328.02,565.7413 Q328.7075,566.8038 330.0513,566.8038 Q330.6763,566.8038 331.27,566.5381 Q331.8638,566.2569 332.4888,565.6788 L332.4888,568.3975 Z " fill="#000000"/><text fill="#000000" font-family="sans-serif" font-size="14" lengthAdjust="spacing" textLength="238.8545" x="343.52" y="567.6036">DiffractionExperimentWithSample</text><line style="stroke:#181818;stroke-width:0.5;" x1="315.52" x2="584.3745" y1="578.7569" y2="578.7569"/><line style="stroke:#181818;stroke-width:0.5;" x1="315.52" x2="584.3745" y1="586.7569" y2="586.7569"/></g><!--class GridCommon--><g class="entity" data-entity="GridCommon" data-source-line="54" data-uid="ent0015" id="entity_GridCommon"><rect fill="#F1F1F1" height="145.7813" rx="2.5" ry="2.5" style="stroke:#181818;stroke-width:0.5;" width="332.332" x="283.78" y="654.7569"/><ellipse cx="399.4782" cy="670.7569" fill="#ADD1B2" rx="11" ry="11" style="stroke:#181818;stroke-width:1;"/><path d="M402.447,676.3975 Q401.8689,676.6944 401.2282,676.835 Q400.5876,676.9913 399.8845,676.9913 Q397.3845,676.9913 396.0564,675.3506 Q394.7439,673.6944 394.7439,670.5694 Q394.7439,667.4444 396.0564,665.7881 Q397.3845,664.1319 399.8845,664.1319 Q400.5876,664.1319 401.2282,664.2881 Q401.8845,664.4444 402.447,664.7413 L402.447,667.46 Q401.822,666.8819 401.2282,666.6163 Q400.6345,666.335 400.0095,666.335 Q398.6657,666.335 397.9782,667.4131 Q397.2907,668.4756 397.2907,670.5694 Q397.2907,672.6631 397.9782,673.7413 Q398.6657,674.8038 400.0095,674.8038 Q400.6345,674.8038 401.2282,674.5381 Q401.822,674.2569 402.447,673.6788 L402.447,676.3975 Z " fill="#000000"/><text fill="#000000" font-family="sans-serif" font-size="14" lengthAdjust="spacing" textLength="92.4355" x="419.9782" y="675.6036">GridCommon</text><line style="stroke:#181818;stroke-width:0.5;" x1="284.78" x2="615.112" y1="686.7569" y2="686.7569"/><text fill="#000000" font-family="sans-serif" font-size="14" lengthAdjust="spacing" textLength="125.2959" x="289.78" y="703.752">float box_size_um</text><text fill="#000000" font-family="sans-serif" font-size="14" lengthAdjust="spacing" textLength="138.4209" x="289.78" y="720.0489">float grid_width_um</text><text fill="#000000" font-family="sans-serif" font-size="14" lengthAdjust="spacing" textLength="153.7129" x="289.78" y="736.3457">float exposure_time_s</text><text fill="#000000" font-family="sans-serif" font-size="14" lengthAdjust="spacing" textLength="320.332" x="289.78" y="752.6426">IspybExperimentType ispyb_experiment_type</text><text fill="#000000" font-family="sans-serif" font-size="14" lengthAdjust="spacing" textLength="282.3516" x="289.78" y="768.9395">ApertureValue | None selected_aperture</text><text fill="#000000" font-family="sans-serif" font-size="14" lengthAdjust="spacing" textLength="130.498" x="289.78" y="785.2364">float tip_offset_um</text><line style="stroke:#181818;stroke-width:0.5;" x1="284.78" x2="615.112" y1="792.5381" y2="792.5381"/></g><!--class SpecifiedThreeDGridScan--><g class="entity" data-entity="SpecifiedThreeDGridScan" data-source-line="62" data-uid="ent0016" id="entity_SpecifiedThreeDGridScan"><rect fill="#F1F1F1" height="227.2656" rx="2.5" ry="2.5" style="stroke:#181818;stroke-width:0.5;" width="210.8965" x="405.5" y="860.5369"/><ellipse cx="420.5" cy="876.5369" fill="#ADD1B2" rx="11" ry="11" style="stroke:#181818;stroke-width:1;"/><path d="M423.4688,882.1775 Q422.8906,882.4744 422.25,882.615 Q421.6094,882.7713 420.9063,882.7713 Q418.4063,882.7713 417.0781,881.1306 Q415.7656,879.4744 415.7656,876.3494 Q415.7656,873.2244 417.0781,871.5681 Q418.4063,869.9119 420.9063,869.9119 Q421.6094,869.9119 422.25,870.0681 Q422.9063,870.2244 423.4688,870.5213 L423.4688,873.24 Q422.8438,872.6619 422.25,872.3963 Q421.6563,872.115 421.0313,872.115 Q419.6875,872.115 419,873.1931 Q418.3125,874.2556 418.3125,876.3494 Q418.3125,878.4431 419,879.5213 Q419.6875,880.5838 421.0313,880.5838 Q421.6563,880.5838 422.25,880.3181 Q422.8438,880.0369 423.4688,879.4588 L423.4688,882.1775 Z " fill="#000000"/><text fill="#000000" font-family="sans-serif" font-size="14" lengthAdjust="spacing" textLength="178.8965" x="434.5" y="881.3836">SpecifiedThreeDGridScan</text><line style="stroke:#181818;stroke-width:0.5;" x1="406.5" x2="615.3965" y1="892.5369" y2="892.5369"/><text fill="#000000" font-family="sans-serif" font-size="14" lengthAdjust="spacing" textLength="160.8975" x="411.5" y="909.532">float grid1_omega_deg</text><text fill="#000000" font-family="sans-serif" font-size="14" lengthAdjust="spacing" textLength="160.8975" x="411.5" y="925.8289">float grid2_omega_deg</text><text fill="#000000" font-family="sans-serif" font-size="14" lengthAdjust="spacing" textLength="145.127" x="411.5" y="942.1257">float x_step_size_um</text><text fill="#000000" font-family="sans-serif" font-size="14" lengthAdjust="spacing" textLength="145.127" x="411.5" y="958.4226">float y_step_size_um</text><text fill="#000000" font-family="sans-serif" font-size="14" lengthAdjust="spacing" textLength="144.1904" x="411.5" y="974.7195">float z_step_size_um</text><text fill="#000000" font-family="sans-serif" font-size="14" lengthAdjust="spacing" textLength="122.2129" x="411.5" y="991.0164">float y2_start_um</text><text fill="#000000" font-family="sans-serif" font-size="14" lengthAdjust="spacing" textLength="121.2764" x="411.5" y="1007.3132">float z2_start_um</text><text fill="#000000" font-family="sans-serif" font-size="14" lengthAdjust="spacing" textLength="75.5645" x="411.5" y="1023.6101">int x_steps</text><text fill="#000000" font-family="sans-serif" font-size="14" lengthAdjust="spacing" textLength="75.5645" x="411.5" y="1039.907">int y_steps</text><text fill="#000000" font-family="sans-serif" font-size="14" lengthAdjust="spacing" textLength="74.6279" x="411.5" y="1056.2039">int z_steps</text><text fill="#000000" font-family="sans-serif" font-size="14" lengthAdjust="spacing" textLength="154.4102" x="411.5" y="1072.5007">bool _set_stub_offsets</text><line style="stroke:#181818;stroke-width:0.5;" x1="406.5" x2="615.3965" y1="1079.8025" y2="1079.8025"/></g><!--class MxBlueskyParameters--><g class="entity" data-entity="MxBlueskyParameters" data-source-line="75" data-uid="ent0017" id="entity_MxBlueskyParameters"><rect fill="#F1F1F1" height="64.2969" rx="2.5" ry="2.5" style="stroke:#181818;stroke-width:0.5;" width="317.4639" x="287.22" y="118.8969"/><ellipse cx="363.8064" cy="134.8969" fill="#ADD1B2" rx="11" ry="11" style="stroke:#181818;stroke-width:1;"/><path d="M366.7752,140.5375 Q366.1971,140.8344 365.5564,140.975 Q364.9158,141.1313 364.2127,141.1313 Q361.7127,141.1313 360.3846,139.4906 Q359.0721,137.8344 359.0721,134.7094 Q359.0721,131.5844 360.3846,129.9281 Q361.7127,128.2719 364.2127,128.2719 Q364.9158,128.2719 365.5564,128.4281 Q366.2127,128.5844 366.7752,128.8813 L366.7752,131.6 Q366.1502,131.0219 365.5564,130.7563 Q364.9627,130.475 364.3377,130.475 Q362.9939,130.475 362.3064,131.5531 Q361.6189,132.6156 361.6189,134.7094 Q361.6189,136.8031 362.3064,137.8813 Q362.9939,138.9438 364.3377,138.9438 Q364.9627,138.9438 365.5564,138.6781 Q366.1502,138.3969 366.7752,137.8188 L366.7752,140.5375 Z " fill="#000000"/><text fill="#000000" font-family="sans-serif" font-size="14" lengthAdjust="spacing" textLength="155.791" x="384.3064" y="139.7436">MxBlueskyParameters</text><line style="stroke:#181818;stroke-width:0.5;" x1="288.22" x2="603.6839" y1="150.8969" y2="150.8969"/><text fill="#000000" font-family="sans-serif" font-size="14" lengthAdjust="spacing" textLength="305.4639" x="293.22" y="167.892">SemanticVersion parameter_model_version</text><line style="stroke:#181818;stroke-width:0.5;" x1="288.22" x2="603.6839" y1="175.1938" y2="175.1938"/></g><!--class DiffractionExperiment--><g class="entity" data-entity="DiffractionExperiment" data-source-line="78" data-uid="ent0018" id="entity_DiffractionExperiment"><rect fill="#F1F1F1" height="210.9688" rx="2.5" ry="2.5" style="stroke:#181818;stroke-width:0.5;" width="332.332" x="283.78" y="275.7869"/><ellipse cx="368.5627" cy="291.7869" fill="#ADD1B2" rx="11" ry="11" style="stroke:#181818;stroke-width:1;"/><path d="M371.5315,297.4275 Q370.9533,297.7244 370.3127,297.865 Q369.6721,298.0213 368.969,298.0213 Q366.469,298.0213 365.1408,296.3806 Q363.8283,294.7244 363.8283,291.5994 Q363.8283,288.4744 365.1408,286.8181 Q366.469,285.1619 368.969,285.1619 Q369.6721,285.1619 370.3127,285.3181 Q370.969,285.4744 371.5315,285.7713 L371.5315,288.49 Q370.9065,287.9119 370.3127,287.6463 Q369.719,287.365 369.094,287.365 Q367.7502,287.365 367.0627,288.4431 Q366.3752,289.5056 366.3752,291.5994 Q366.3752,293.6931 367.0627,294.7713 Q367.7502,295.8338 369.094,295.8338 Q369.719,295.8338 370.3127,295.5681 Q370.9065,295.2869 371.5315,294.7088 L371.5315,297.4275 Z " fill="#000000"/><text fill="#000000" font-family="sans-serif" font-size="14" lengthAdjust="spacing" textLength="154.2666" x="389.0627" y="296.6336">DiffractionExperiment</text><line style="stroke:#181818;stroke-width:0.5;" x1="284.78" x2="615.112" y1="307.7869" y2="307.7869"/><text fill="#000000" font-family="sans-serif" font-size="14" lengthAdjust="spacing" textLength="91.0137" x="289.78" y="324.782">str file_name</text><text fill="#000000" font-family="sans-serif" font-size="14" lengthAdjust="spacing" textLength="153.7129" x="289.78" y="341.0789">float exposure_time_s</text><text fill="#000000" font-family="sans-serif" font-size="14" lengthAdjust="spacing" textLength="89.5029" x="289.78" y="357.3757">str comment</text><text fill="#000000" font-family="sans-serif" font-size="14" lengthAdjust="spacing" textLength="186.915" x="289.78" y="373.6726">TriggerMode trigger_mode</text><text fill="#000000" font-family="sans-serif" font-size="14" lengthAdjust="spacing" textLength="157.9854" x="289.78" y="389.9695">int | None run_number</text><text fill="#000000" font-family="sans-serif" font-size="14" lengthAdjust="spacing" textLength="282.3516" x="289.78" y="406.2664">ApertureValue | None selected_aperture</text><text fill="#000000" font-family="sans-serif" font-size="14" lengthAdjust="spacing" textLength="159.2979" x="289.78" y="422.5632">float transmission_frac</text><text fill="#000000" font-family="sans-serif" font-size="14" lengthAdjust="spacing" textLength="320.332" x="289.78" y="438.8601">IspybExperimentType ispyb_experiment_type</text><text fill="#000000" font-family="sans-serif" font-size="14" lengthAdjust="spacing" textLength="146.1113" x="289.78" y="455.157">str storage_directory</text><text fill="#000000" font-family="sans-serif" font-size="14" lengthAdjust="spacing" textLength="131.0518" x="289.78" y="471.4539">bool use_roi_mode</text><line style="stroke:#181818;stroke-width:0.5;" x1="284.78" x2="615.112" y1="478.7556" y2="478.7556"/></g><!--class RotationExperiment--><g class="entity" data-entity="RotationExperiment" data-source-line="93" data-uid="ent0020" id="entity_RotationExperiment"><rect fill="#F1F1F1" height="96.8906" rx="2.5" ry="2.5" style="stroke:#181818;stroke-width:0.5;" width="332.332" x="3079.78" y="1147.7969"/><ellipse cx="3171.6618" cy="1163.7969" fill="#ADD1B2" rx="11" ry="11" style="stroke:#181818;stroke-width:1;"/><path d="M3174.6306,1169.4375 Q3174.0525,1169.7344 3173.4118,1169.875 Q3172.7712,1170.0313 3172.0681,1170.0313 Q3169.5681,1170.0313 3168.24,1168.3906 Q3166.9275,1166.7344 3166.9275,1163.6094 Q3166.9275,1160.4844 3168.24,1158.8281 Q3169.5681,1157.1719 3172.0681,1157.1719 Q3172.7712,1157.1719 3173.4118,1157.3281 Q3174.0681,1157.4844 3174.6306,1157.7813 L3174.6306,1160.5 Q3174.0056,1159.9219 3173.4118,1159.6563 Q3172.8181,1159.375 3172.1931,1159.375 Q3170.8493,1159.375 3170.1618,1160.4531 Q3169.4743,1161.5156 3169.4743,1163.6094 Q3169.4743,1165.7031 3170.1618,1166.7813 Q3170.8493,1167.8438 3172.1931,1167.8438 Q3172.8181,1167.8438 3173.4118,1167.5781 Q3174.0056,1167.2969 3174.6306,1166.7188 L3174.6306,1169.4375 Z " fill="#000000"/><text fill="#000000" font-family="sans-serif" font-size="14" lengthAdjust="spacing" textLength="140.0684" x="3192.1618" y="1168.6436">RotationExperiment</text><line style="stroke:#181818;stroke-width:0.5;" x1="3080.78" x2="3411.112" y1="1179.7969" y2="1179.7969"/><text fill="#000000" font-family="sans-serif" font-size="14" lengthAdjust="spacing" textLength="202.8018" x="3085.78" y="1196.792">float shutter_opening_time_s</text><text fill="#000000" font-family="sans-serif" font-size="14" lengthAdjust="spacing" textLength="202.9385" x="3085.78" y="1213.0889">float rotation_increment_deg</text><text fill="#000000" font-family="sans-serif" font-size="14" lengthAdjust="spacing" textLength="320.332" x="3085.78" y="1229.3857">IspybExperimentType ispyb_experiment_type</text><line style="stroke:#181818;stroke-width:0.5;" x1="3080.78" x2="3411.112" y1="1236.6875" y2="1236.6875"/></g><!--class GridScanWithEdgeDetect--><g class="entity" data-entity="GridScanWithEdgeDetect" data-source-line="98" data-uid="ent0021" id="entity_GridScanWithEdgeDetect"><rect fill="#F1F1F1" height="48" rx="2.5" ry="2.5" style="stroke:#181818;stroke-width:0.5;" width="209.4268" x="3752.24" y="1312.8369"/><ellipse cx="3767.24" cy="1328.8369" fill="#ADD1B2" rx="11" ry="11" style="stroke:#181818;stroke-width:1;"/><path d="M3770.2088,1334.4775 Q3769.6306,1334.7744 3768.99,1334.915 Q3768.3494,1335.0713 3767.6463,1335.0713 Q3765.1463,1335.0713 3763.8181,1333.4306 Q3762.5056,1331.7744 3762.5056,1328.6494 Q3762.5056,1325.5244 3763.8181,1323.8681 Q3765.1463,1322.2119 3767.6463,1322.2119 Q3768.3494,1322.2119 3768.99,1322.3681 Q3769.6463,1322.5244 3770.2088,1322.8213 L3770.2088,1325.54 Q3769.5838,1324.9619 3768.99,1324.6963 Q3768.3963,1324.415 3767.7713,1324.415 Q3766.4275,1324.415 3765.74,1325.4931 Q3765.0525,1326.5556 3765.0525,1328.6494 Q3765.0525,1330.7431 3765.74,1331.8213 Q3766.4275,1332.8838 3767.7713,1332.8838 Q3768.3963,1332.8838 3768.99,1332.6181 Q3769.5838,1332.3369 3770.2088,1331.7588 L3770.2088,1334.4775 Z " fill="#000000"/><text fill="#000000" font-family="sans-serif" font-size="14" lengthAdjust="spacing" textLength="177.4268" x="3781.24" y="1333.6836">GridScanWithEdgeDetect</text><line style="stroke:#181818;stroke-width:0.5;" x1="3753.24" x2="3960.6668" y1="1344.8369" y2="1344.8369"/><line style="stroke:#181818;stroke-width:0.5;" x1="3753.24" x2="3960.6668" y1="1352.8369" y2="1352.8369"/></g><!--class PinTipCentreThenXrayCentre--><g class="entity" data-entity="PinTipCentreThenXrayCentre" data-source-line="100" data-uid="ent0022" id="entity_PinTipCentreThenXrayCentre"><rect fill="#F1F1F1" height="64.2969" rx="2.5" ry="2.5" style="stroke:#181818;stroke-width:0.5;" width="235.8955" x="3481" y="1304.6869"/><ellipse cx="3496" cy="1320.6869" fill="#ADD1B2" rx="11" ry="11" style="stroke:#181818;stroke-width:1;"/><path d="M3498.9688,1326.3275 Q3498.3906,1326.6244 3497.75,1326.765 Q3497.1094,1326.9213 3496.4063,1326.9213 Q3493.9063,1326.9213 3492.5781,1325.2806 Q3491.2656,1323.6244 3491.2656,1320.4994 Q3491.2656,1317.3744 3492.5781,1315.7181 Q3493.9063,1314.0619 3496.4063,1314.0619 Q3497.1094,1314.0619 3497.75,1314.2181 Q3498.4063,1314.3744 3498.9688,1314.6713 L3498.9688,1317.39 Q3498.3438,1316.8119 3497.75,1316.5463 Q3497.1563,1316.265 3496.5313,1316.265 Q3495.1875,1316.265 3494.5,1317.3431 Q3493.8125,1318.4056 3493.8125,1320.4994 Q3493.8125,1322.5931 3494.5,1323.6713 Q3495.1875,1324.7338 3496.5313,1324.7338 Q3497.1563,1324.7338 3497.75,1324.4681 Q3498.3438,1324.1869 3498.9688,1323.6088 L3498.9688,1326.3275 Z " fill="#000000"/><text fill="#000000" font-family="sans-serif" font-size="14" lengthAdjust="spacing" textLength="203.8955" x="3510" y="1325.5336">PinTipCentreThenXrayCentre</text><line style="stroke:#181818;stroke-width:0.5;" x1="3482" x2="3715.8955" y1="1336.6869" y2="1336.6869"/><text fill="#000000" font-family="sans-serif" font-size="14" lengthAdjust="spacing" textLength="130.498" x="3487" y="1353.682">float tip_offset_um</text><line style="stroke:#181818;stroke-width:0.5;" x1="3482" x2="3715.8955" y1="1360.9838" y2="1360.9838"/></g><!--class MultiRotationScan--><g class="entity" data-entity="MultiRotationScan" data-source-line="103" data-uid="ent0023" id="entity_MultiRotationScan"><rect fill="#F1F1F1" height="64.2969" rx="2.5" ry="2.5" style="stroke:#181818;stroke-width:0.5;" width="540.001" x="3996.95" y="1304.6869"/><ellipse cx="4198.9827" cy="1320.6869" fill="#ADD1B2" rx="11" ry="11" style="stroke:#181818;stroke-width:1;"/><path d="M4201.9515,1326.3275 Q4201.3733,1326.6244 4200.7327,1326.765 Q4200.0921,1326.9213 4199.389,1326.9213 Q4196.889,1326.9213 4195.5608,1325.2806 Q4194.2483,1323.6244 4194.2483,1320.4994 Q4194.2483,1317.3744 4195.5608,1315.7181 Q4196.889,1314.0619 4199.389,1314.0619 Q4200.0921,1314.0619 4200.7327,1314.2181 Q4201.389,1314.3744 4201.9515,1314.6713 L4201.9515,1317.39 Q4201.3265,1316.8119 4200.7327,1316.5463 Q4200.139,1316.265 4199.514,1316.265 Q4198.1702,1316.265 4197.4827,1317.3431 Q4196.7952,1318.4056 4196.7952,1320.4994 Q4196.7952,1322.5931 4197.4827,1323.6713 Q4198.1702,1324.7338 4199.514,1324.7338 Q4200.139,1324.7338 4200.7327,1324.4681 Q4201.3265,1324.1869 4201.9515,1323.6088 L4201.9515,1326.3275 Z " fill="#000000"/><text fill="#000000" font-family="sans-serif" font-size="14" lengthAdjust="spacing" textLength="127.4355" x="4219.4827" y="1325.5336">MultiRotationScan</text><line style="stroke:#181818;stroke-width:0.5;" x1="3997.95" x2="4535.951" y1="1336.6869" y2="1336.6869"/><line style="stroke:#181818;stroke-width:0.5;" x1="3997.95" x2="4535.951" y1="1344.6869" y2="1344.6869"/><text fill="#000000" font-family="sans-serif" font-size="14" lengthAdjust="spacing" textLength="528.001" x="4002.95" y="1361.682">Annotated[list[RotationScanPerSweep], Len(min_length=1)] rotation_scans</text></g><!--class GridCommonWithHyperionDetectorParams--><g class="entity" data-entity="GridCommonWithHyperionDetectorParams" data-source-line="106" data-uid="ent0024" id="entity_GridCommonWithHyperionDetectorParams"><rect fill="#F1F1F1" height="48" rx="2.5" ry="2.5" style="stroke:#181818;stroke-width:0.5;" width="333.2188" x="3756.34" y="1172.2469"/><ellipse cx="3771.34" cy="1188.2469" fill="#ADD1B2" rx="11" ry="11" style="stroke:#181818;stroke-width:1;"/><path d="M3774.3088,1193.8875 Q3773.7306,1194.1844 3773.09,1194.325 Q3772.4494,1194.4813 3771.7463,1194.4813 Q3769.2463,1194.4813 3767.9181,1192.8406 Q3766.6056,1191.1844 3766.6056,1188.0594 Q3766.6056,1184.9344 3767.9181,1183.2781 Q3769.2463,1181.6219 3771.7463,1181.6219 Q3772.4494,1181.6219 3773.09,1181.7781 Q3773.7463,1181.9344 3774.3088,1182.2313 L3774.3088,1184.95 Q3773.6838,1184.3719 3773.09,1184.1063 Q3772.4963,1183.825 3771.8713,1183.825 Q3770.5275,1183.825 3769.84,1184.9031 Q3769.1525,1185.9656 3769.1525,1188.0594 Q3769.1525,1190.1531 3769.84,1191.2313 Q3770.5275,1192.2938 3771.8713,1192.2938 Q3772.4963,1192.2938 3773.09,1192.0281 Q3773.6838,1191.7469 3774.3088,1191.1688 L3774.3088,1193.8875 Z " fill="#000000"/><text fill="#000000" font-family="sans-serif" font-size="14" lengthAdjust="spacing" textLength="301.2188" x="3785.34" y="1193.0936">GridCommonWithHyperionDetectorParams</text><line style="stroke:#181818;stroke-width:0.5;" x1="3757.34" x2="4088.5588" y1="1204.2469" y2="1204.2469"/><line style="stroke:#181818;stroke-width:0.5;" x1="3757.34" x2="4088.5588" y1="1212.2469" y2="1212.2469"/></g><!--class HyperionSpecifiedThreeDGridScan--><g class="entity" data-entity="HyperionSpecifiedThreeDGridScan" data-source-line="108" data-uid="ent0025" id="entity_HyperionSpecifiedThreeDGridScan"><rect fill="#F1F1F1" height="48" rx="2.5" ry="2.5" style="stroke:#181818;stroke-width:0.5;" width="274.293" x="3446.8" y="1172.2469"/><ellipse cx="3461.8" cy="1188.2469" fill="#ADD1B2" rx="11" ry="11" style="stroke:#181818;stroke-width:1;"/><path d="M3464.7688,1193.8875 Q3464.1906,1194.1844 3463.55,1194.325 Q3462.9094,1194.4813 3462.2063,1194.4813 Q3459.7063,1194.4813 3458.3781,1192.8406 Q3457.0656,1191.1844 3457.0656,1188.0594 Q3457.0656,1184.9344 3458.3781,1183.2781 Q3459.7063,1181.6219 3462.2063,1181.6219 Q3462.9094,1181.6219 3463.55,1181.7781 Q3464.2063,1181.9344 3464.7688,1182.2313 L3464.7688,1184.95 Q3464.1438,1184.3719 3463.55,1184.1063 Q3462.9563,1183.825 3462.3313,1183.825 Q3460.9875,1183.825 3460.3,1184.9031 Q3459.6125,1185.9656 3459.6125,1188.0594 Q3459.6125,1190.1531 3460.3,1191.2313 Q3460.9875,1192.2938 3462.3313,1192.2938 Q3462.9563,1192.2938 3463.55,1192.0281 Q3464.1438,1191.7469 3464.7688,1191.1688 L3464.7688,1193.8875 Z " fill="#000000"/><text fill="#000000" font-family="sans-serif" font-size="14" lengthAdjust="spacing" textLength="242.293" x="3475.8" y="1193.0936">HyperionSpecifiedThreeDGridScan</text><line style="stroke:#181818;stroke-width:0.5;" x1="3447.8" x2="3720.093" y1="1204.2469" y2="1204.2469"/><line style="stroke:#181818;stroke-width:0.5;" x1="3447.8" x2="3720.093" y1="1212.2469" y2="1212.2469"/></g><!--class LoadCentreCollect--><g class="entity" data-entity="LoadCentreCollect" data-source-line="110" data-uid="ent0026" id="entity_LoadCentreCollect"><rect fill="#F1F1F1" height="80.5938" rx="2.5" ry="2.5" style="stroke:#181818;stroke-width:0.5;" width="338.6211" x="4124.64" y="1155.9469"/><ellipse cx="4225.265" cy="1171.9469" fill="#ADD1B2" rx="11" ry="11" style="stroke:#181818;stroke-width:1;"/><path d="M4228.2337,1177.5875 Q4227.6556,1177.8844 4227.015,1178.025 Q4226.3744,1178.1813 4225.6712,1178.1813 Q4223.1712,1178.1813 4221.8431,1176.5406 Q4220.5306,1174.8844 4220.5306,1171.7594 Q4220.5306,1168.6344 4221.8431,1166.9781 Q4223.1712,1165.3219 4225.6712,1165.3219 Q4226.3744,1165.3219 4227.015,1165.4781 Q4227.6712,1165.6344 4228.2337,1165.9313 L4228.2337,1168.65 Q4227.6087,1168.0719 4227.015,1167.8063 Q4226.4212,1167.525 4225.7962,1167.525 Q4224.4525,1167.525 4223.765,1168.6031 Q4223.0775,1169.6656 4223.0775,1171.7594 Q4223.0775,1173.8531 4223.765,1174.9313 Q4224.4525,1175.9938 4225.7962,1175.9938 Q4226.4212,1175.9938 4227.015,1175.7281 Q4227.6087,1175.4469 4228.2337,1174.8688 L4228.2337,1177.5875 Z " fill="#000000"/><text fill="#000000" font-family="sans-serif" font-size="14" lengthAdjust="spacing" textLength="128.8711" x="4245.765" y="1176.7936">LoadCentreCollect</text><line style="stroke:#181818;stroke-width:0.5;" x1="4125.64" x2="4462.2611" y1="1187.9469" y2="1187.9469"/><text fill="#000000" font-family="sans-serif" font-size="14" lengthAdjust="spacing" textLength="326.6211" x="4130.64" y="1204.942">RobotLoadThenCentre robot_load_then_centre</text><text fill="#000000" font-family="sans-serif" font-size="14" lengthAdjust="spacing" textLength="269.3154" x="4130.64" y="1221.2389">MultiRotationScan multi_rotation_scan</text><line style="stroke:#181818;stroke-width:0.5;" x1="4125.64" x2="4462.2611" y1="1228.5406" y2="1228.5406"/></g><!--class WithHyperionUDCFeatures--><g class="entity" data-entity="WithHyperionUDCFeatures" data-source-line="114" data-uid="ent0027" id="entity_WithHyperionUDCFeatures"><rect fill="#F1F1F1" height="64.2969" rx="2.5" ry="2.5" style="stroke:#181818;stroke-width:0.5;" width="228.6719" x="4068.61" y="942.0169"/><ellipse cx="4087.7083" cy="958.0169" fill="#ADD1B2" rx="11" ry="11" style="stroke:#181818;stroke-width:1;"/><path d="M4090.6771,963.6575 Q4090.099,963.9544 4089.4583,964.095 Q4088.8177,964.2513 4088.1146,964.2513 Q4085.6146,964.2513 4084.2865,962.6106 Q4082.974,960.9544 4082.974,957.8294 Q4082.974,954.7044 4084.2865,953.0481 Q4085.6146,951.3919 4088.1146,951.3919 Q4088.8177,951.3919 4089.4583,951.5481 Q4090.1146,951.7044 4090.6771,952.0013 L4090.6771,954.72 Q4090.0521,954.1419 4089.4583,953.8763 Q4088.8646,953.595 4088.2396,953.595 Q4086.8958,953.595 4086.2083,954.6731 Q4085.5208,955.7356 4085.5208,957.8294 Q4085.5208,959.9231 4086.2083,961.0013 Q4086.8958,962.0638 4088.2396,962.0638 Q4088.8646,962.0638 4089.4583,961.7981 Q4090.0521,961.5169 4090.6771,960.9388 L4090.6771,963.6575 Z " fill="#000000"/><text fill="#000000" font-family="sans-serif" font-size="14" lengthAdjust="spacing" textLength="187.5645" x="4102.6191" y="962.8636">WithHyperionUDCFeatures</text><line style="stroke:#181818;stroke-width:0.5;" x1="4069.61" x2="4296.2819" y1="974.0169" y2="974.0169"/><text fill="#000000" font-family="sans-serif" font-size="14" lengthAdjust="spacing" textLength="216.6719" x="4074.61" y="991.012">HyperionFeatureFlags features</text><line style="stroke:#181818;stroke-width:0.5;" x1="4069.61" x2="4296.2819" y1="998.3138" y2="998.3138"/></g><!--reverse link DiffractionExperimentWithSample to RotationExperiment--><g class="link" data-entity-1="DiffractionExperimentWithSample" data-entity-2="RotationExperiment" data-source-line="118" data-uid="lnk28" id="link_DiffractionExperimentWithSample_RotationExperiment"><path codeLine="118" d="M329.3178,601.8378 C298.2378,614.2178 284.3,626.3469 265.95,654.7569 C179.52,788.5569 371.11,1107.8769 387.95,1119.7969 C443.14,1158.8769 2476.84,1186.1069 3079.37,1193.3369" fill="none" id="DiffractionExperimentWithSample-backto-RotationExperiment" style="stroke:#181818;stroke-width:1;"/><polygon fill="none" points="346.04,595.1769,327.0975,596.2637,331.5381,607.4119,346.04,595.1769" style="stroke:#181818;stroke-width:1;"/></g><!--reverse link WithHyperionUDCFeatures to RotationExperiment--><g class="link" data-entity-1="WithHyperionUDCFeatures" data-entity-2="RotationExperiment" data-source-line="119" data-uid="lnk29" id="link_WithHyperionUDCFeatures_RotationExperiment"><path codeLine="119" d="M4050.805,1004.2153 C3902.825,1036.9553 3654.97,1092.6369 3428.95,1147.7969 C3423.53,1149.1269 3418.02,1150.4769 3412.46,1151.8569" fill="none" id="WithHyperionUDCFeatures-backto-RotationExperiment" style="stroke:#181818;stroke-width:1;"/><polygon fill="none" points="4068.38,1000.3269,4049.5089,998.3569,4052.1011,1010.0736,4068.38,1000.3269" style="stroke:#181818;stroke-width:1;"/></g><!--reverse link DiffractionExperiment to DiffractionExperimentWithSample--><g class="link" data-entity-1="DiffractionExperiment" data-entity-2="DiffractionExperimentWithSample" data-source-line="120" data-uid="lnk30" id="link_DiffractionExperiment_DiffractionExperimentWithSample"><path codeLine="120" d="M449.95,505.2469 C449.95,527.5069 449.95,530.9069 449.95,546.3269" fill="none" id="DiffractionExperiment-backto-DiffractionExperimentWithSample" style="stroke:#181818;stroke-width:1;"/><polygon fill="none" points="449.95,487.2469,443.95,505.2469,455.95,505.2469,449.95,487.2469" style="stroke:#181818;stroke-width:1;"/></g><!--reverse link WithSample to DiffractionExperimentWithSample--><g class="link" data-entity-1="WithSample" data-entity-2="DiffractionExperimentWithSample" data-source-line="121" data-uid="lnk31" id="link_WithSample_DiffractionExperimentWithSample"><path codeLine="121" d="M2092.707,208.4049 C2080.907,214.7149 2084.33,211.8569 2071.95,215.7869 C1722.36,326.6469 1607.44,198.3769 1248.95,275.7869 C1098.51,308.2669 664.1,482.4369 507.27,546.2769" fill="none" id="WithSample-backto-DiffractionExperimentWithSample" style="stroke:#181818;stroke-width:1;"/><polygon fill="none" points="2108.58,199.9169,2089.8776,203.1139,2095.5363,213.6959,2108.58,199.9169" style="stroke:#181818;stroke-width:1;"/></g><!--reverse link GridCommonWithHyperionDetectorParams to GridScanWithEdgeDetect--><g class="link" data-entity-1="GridCommonWithHyperionDetectorParams" data-entity-2="GridScanWithEdgeDetect" data-source-line="122" data-uid="lnk32" id="link_GridCommonWithHyperionDetectorParams_GridScanWithEdgeDetect"><path codeLine="122" d="M3904.1617,1236.6986 C3891.9817,1262.2786 3880.23,1286.9469 3868.03,1312.5669" fill="none" id="GridCommonWithHyperionDetectorParams-backto-GridScanWithEdgeDetect" style="stroke:#181818;stroke-width:1;"/><polygon fill="none" points="3911.9,1220.4469,3898.7444,1234.1192,3909.5789,1239.278,3911.9,1220.4469" style="stroke:#181818;stroke-width:1;"/></g><!--reverse link WithHyperionUDCFeatures to GridScanWithEdgeDetect--><g class="link" data-entity-1="WithHyperionUDCFeatures" data-entity-2="GridScanWithEdgeDetect" data-source-line="123" data-uid="lnk33" id="link_WithHyperionUDCFeatures_GridScanWithEdgeDetect"><path codeLine="123" d="M4293.2546,1013.142 C4417.6546,1060.002 4595.53,1146.6169 4507.95,1244.6869 C4429.15,1332.9369 4095.32,1283.3369 3978.95,1304.6869 C3967.12,1306.8569 3954.75,1309.5369 3942.6,1312.3969" fill="none" id="WithHyperionUDCFeatures-backto-GridScanWithEdgeDetect" style="stroke:#181818;stroke-width:1;"/><polygon fill="none" points="4276.41,1006.7969,4291.1395,1018.7569,4295.3696,1007.5272,4276.41,1006.7969" style="stroke:#181818;stroke-width:1;"/></g><!--reverse link GridCommonWithHyperionDetectorParams to PinTipCentreThenXrayCentre--><g class="link" data-entity-1="GridCommonWithHyperionDetectorParams" data-entity-2="PinTipCentreThenXrayCentre" data-source-line="124" data-uid="lnk34" id="link_GridCommonWithHyperionDetectorParams_PinTipCentreThenXrayCentre"><path codeLine="124" d="M3851.8006,1227.6763 C3798.1506,1250.6263 3732.44,1278.7369 3672.93,1304.1869" fill="none" id="GridCommonWithHyperionDetectorParams-backto-PinTipCentreThenXrayCentre" style="stroke:#181818;stroke-width:1;"/><polygon fill="none" points="3868.35,1220.5969,3849.4408,1222.1598,3854.1604,1233.1927,3868.35,1220.5969" style="stroke:#181818;stroke-width:1;"/></g><!--reverse link WithHyperionUDCFeatures to PinTipCentreThenXrayCentre--><g class="link" data-entity-1="WithHyperionUDCFeatures" data-entity-2="PinTipCentreThenXrayCentre" data-source-line="125" data-uid="lnk35" id="link_WithHyperionUDCFeatures_PinTipCentreThenXrayCentre"><path codeLine="125" d="M4282.391,1013.6745 C4397.731,1062.0145 4566.81,1151.6469 4480.95,1244.6869 C4424.55,1305.8069 3817.14,1292.0369 3734.95,1304.6869 C3729.08,1305.5969 3723.09,1306.6069 3717.06,1307.7069" fill="none" id="WithHyperionUDCFeatures-backto-PinTipCentreThenXrayCentre" style="stroke:#181818;stroke-width:1;"/><polygon fill="none" points="4265.79,1006.7169,4280.0718,1019.2081,4284.7102,1008.1408,4265.79,1006.7169" style="stroke:#181818;stroke-width:1;"/></g><!--reverse link DiffractionExperimentWithSample to GridCommon--><g class="link" data-entity-1="DiffractionExperimentWithSample" data-entity-2="GridCommon" data-source-line="126" data-uid="lnk36" id="link_DiffractionExperimentWithSample_GridCommon"><path codeLine="126" d="M449.95,612.9369 C449.95,628.8869 449.95,633.0169 449.95,654.5769" fill="none" id="DiffractionExperimentWithSample-backto-GridCommon" style="stroke:#181818;stroke-width:1;"/><polygon fill="none" points="449.95,594.9369,443.95,612.9369,455.95,612.9369,449.95,594.9369" style="stroke:#181818;stroke-width:1;"/></g><!--reverse link OptionalGonioAngleStarts to GridCommon--><g class="link" data-entity-1="OptionalGonioAngleStarts" data-entity-2="GridCommon" data-source-line="127" data-uid="lnk37" id="link_OptionalGonioAngleStarts_GridCommon"><path codeLine="127" d="M1527.3958,214.9389 C1520.6758,217.7289 1530.58,213.4369 1523.95,215.7869 C1406.01,257.4969 1365.84,231.2169 1248.95,275.7869 C984.41,376.6469 702.03,554.8069 554.12,654.2969" fill="none" id="OptionalGonioAngleStarts-backto-GridCommon" style="stroke:#181818;stroke-width:1;"/><polygon fill="none" points="1544.02,208.0369,1525.0952,209.3975,1529.6965,220.4803,1544.02,208.0369" style="stroke:#181818;stroke-width:1;"/></g><!--reverse link RotationExperiment to MultiRotationScan--><g class="link" data-entity-1="RotationExperiment" data-entity-2="MultiRotationScan" data-source-line="128" data-uid="lnk38" id="link_RotationExperiment_MultiRotationScan"><path codeLine="128" d="M3429.9195,1245.0514 C3433.4795,1245.7114 3753.15,1280.1569 3996.71,1306.5569" fill="none" id="RotationExperiment-backto-MultiRotationScan" style="stroke:#181818;stroke-width:1;"/><polygon fill="none" points="3412.28,1241.4669,3428.7247,1250.9312,3431.1143,1239.1715,3412.28,1241.4669" style="stroke:#181818;stroke-width:1;"/></g><!--reverse link SplitScan to MultiRotationScan--><g class="link" data-entity-1="SplitScan" data-entity-2="MultiRotationScan" data-source-line="129" data-uid="lnk39" id="link_SplitScan_MultiRotationScan"><path codeLine="129" d="M2378.5634,189.3114 C2390.5034,203.6814 2396.28,207.0869 2415.95,215.7869 C2603.31,298.6769 3136.68,228.1769 3335.95,275.7869 C3739.83,372.2769 3865.55,395.5369 4189.95,654.7569 C4397.31,820.4469 4456.54,891.8769 4526.95,1147.7969 C4538.37,1189.3169 4551.86,1209.5669 4526.95,1244.6869 C4507.79,1271.7069 4479.97,1290.7769 4449.58,1304.2269" fill="none" id="SplitScan-backto-MultiRotationScan" style="stroke:#181818;stroke-width:1;"/><polygon fill="none" points="2367.06,175.4669,2373.9486,193.1459,2383.1783,185.477,2367.06,175.4669" style="stroke:#181818;stroke-width:1;"/></g><!--reverse link XyzStarts to SpecifiedGrid--><g class="link" data-entity-1="XyzStarts" data-entity-2="SpecifiedGrid" data-source-line="130" data-uid="lnk40" id="link_XyzStarts_SpecifiedGrid"><path codeLine="130" d="M1951.3833,215.0197 C1920.4033,263.1197 1883.68,320.1269 1860,356.9069" fill="none" id="XyzStarts-backto-SpecifiedGrid" style="stroke:#181818;stroke-width:1;"/><polygon fill="none" points="1961.13,199.8869,1946.3391,211.7708,1956.4276,218.2686,1961.13,199.8869" style="stroke:#181818;stroke-width:1;"/></g><!--reverse link WithScan to SpecifiedGrid--><g class="link" data-entity-1="WithScan" data-entity-2="SpecifiedGrid" data-source-line="131" data-uid="lnk41" id="link_WithScan_SpecifiedGrid"><path codeLine="131" d="M1844.95,193.1769 C1844.95,236.9269 1844.95,313.2769 1844.95,357.0669" fill="none" id="WithScan-backto-SpecifiedGrid" style="stroke:#181818;stroke-width:1;"/><polygon fill="none" points="1844.95,175.1769,1838.95,193.1769,1850.95,193.1769,1844.95,175.1769" style="stroke:#181818;stroke-width:1;"/></g><!--reverse link GridCommon to SpecifiedThreeDGridScan--><g class="link" data-entity-1="GridCommon" data-entity-2="SpecifiedThreeDGridScan" data-source-line="132" data-uid="lnk42" id="link_GridCommon_SpecifiedThreeDGridScan"><path codeLine="132" d="M472.359,818.4811 C476.999,837.0711 477.74,840.0469 482.76,860.1669" fill="none" id="GridCommon-backto-SpecifiedThreeDGridScan" style="stroke:#181818;stroke-width:1;"/><polygon fill="none" points="468,801.0169,466.5376,819.9341,478.1804,817.0281,468,801.0169" style="stroke:#181818;stroke-width:1;"/></g><!--reverse link SpecifiedGrid to SpecifiedThreeDGridScan--><g class="link" data-entity-1="SpecifiedGrid" data-entity-2="SpecifiedThreeDGridScan" data-source-line="133" data-uid="lnk43" id="link_SpecifiedGrid_SpecifiedThreeDGridScan"><path codeLine="133" d="M1807.423,418.0847 C1731.893,489.2947 1505.85,692.2769 1266.95,800.5369 C1048.06,899.7169 766.87,944.5169 616.67,962.5569" fill="none" id="SpecifiedGrid-backto-SpecifiedThreeDGridScan" style="stroke:#181818;stroke-width:1;"/><polygon fill="none" points="1820.52,405.7369,1803.3071,413.7191,1811.539,422.4504,1820.52,405.7369" style="stroke:#181818;stroke-width:1;"/></g><!--reverse link SplitScan to SpecifiedThreeDGridScan--><g class="link" data-entity-1="SplitScan" data-entity-2="SpecifiedThreeDGridScan" data-source-line="134" data-uid="lnk44" id="link_SplitScan_SpecifiedThreeDGridScan"><path codeLine="134" d="M2320.793,189.1978 C2308.803,203.3678 2303.25,206.6569 2283.95,215.7869 C2074.02,315.0169 1985.99,204.6569 1764.95,275.7869 C1523.51,353.4669 872.78,748.7869 616.62,907.2969" fill="none" id="SplitScan-backto-SpecifiedThreeDGridScan" style="stroke:#181818;stroke-width:1;"/><polygon fill="none" points="2332.42,175.4569,2316.2127,185.3222,2325.3734,193.0735,2332.42,175.4569" style="stroke:#181818;stroke-width:1;"/></g><!--reverse link WithOptionalEnergyChange to SpecifiedThreeDGridScan--><g class="link" data-entity-1="WithOptionalEnergyChange" data-entity-2="SpecifiedThreeDGridScan" data-source-line="135" data-uid="lnk45" id="link_WithOptionalEnergyChange_SpecifiedThreeDGridScan"><path codeLine="135" d="M1339.1283,195.3424 C1310.6883,220.1624 1283.79,243.9369 1248.95,275.7869 C1020.91,484.1969 759.23,734.0869 616.84,870.9869" fill="none" id="WithOptionalEnergyChange-backto-SpecifiedThreeDGridScan" style="stroke:#181818;stroke-width:1;"/><polygon fill="none" points="1352.69,183.5069,1335.1831,190.8218,1343.0734,199.863,1352.69,183.5069" style="stroke:#181818;stroke-width:1;"/></g><!--reverse link MxBlueskyParameters to DiffractionExperiment--><g class="link" data-entity-1="MxBlueskyParameters" data-entity-2="DiffractionExperiment" data-source-line="136" data-uid="lnk46" id="link_MxBlueskyParameters_DiffractionExperiment"><path codeLine="136" d="M446.8151,201.2941 C447.2351,225.2841 447.52,241.8769 448.11,275.3969" fill="none" id="MxBlueskyParameters-backto-DiffractionExperiment" style="stroke:#181818;stroke-width:1;"/><polygon fill="none" points="446.5,183.2969,440.816,201.3991,452.8142,201.1891,446.5,183.2969" style="stroke:#181818;stroke-width:1;"/></g><!--reverse link WithSnapshot to DiffractionExperiment--><g class="link" data-entity-1="WithSnapshot" data-entity-2="DiffractionExperiment" data-source-line="137" data-uid="lnk47" id="link_WithSnapshot_DiffractionExperiment"><path codeLine="137" d="M982.1969,198.1669 C959.5469,206.9069 951.99,209.0669 928.95,215.7869 C796.31,254.4269 752.88,226.1469 623.95,275.7869 C621.48,276.7369 619.01,277.7169 616.54,278.7269" fill="none" id="WithSnapshot-backto-DiffractionExperiment" style="stroke:#181818;stroke-width:1;"/><polygon fill="none" points="998.99,191.6869,980.0369,192.5692,984.3569,203.7646,998.99,191.6869" style="stroke:#181818;stroke-width:1;"/></g><!--reverse link WithOptionalEnergyChange to DiffractionExperiment--><g class="link" data-entity-1="WithOptionalEnergyChange" data-entity-2="DiffractionExperiment" data-source-line="138" data-uid="lnk48" id="link_WithOptionalEnergyChange_DiffractionExperiment"><path codeLine="138" d="M1317.4333,191.7119 C1293.6633,203.7919 1281.19,208.2969 1253.95,215.7869 C982.73,290.2769 891.13,187.8769 623.95,275.7869 C621.44,276.6069 618.93,277.4769 616.41,278.3869" fill="none" id="WithOptionalEnergyChange-backto-DiffractionExperiment" style="stroke:#181818;stroke-width:1;"/><polygon fill="none" points="1333.48,183.5569,1314.715,186.363,1320.1516,197.0608,1333.48,183.5569" style="stroke:#181818;stroke-width:1;"/></g><!--reverse link WithVisit to DiffractionExperiment--><g class="link" data-entity-1="WithVisit" data-entity-2="DiffractionExperiment" data-source-line="139" data-uid="lnk49" id="link_WithVisit_DiffractionExperiment"><path codeLine="139" d="M669.5241,226.5496 C643.2541,244.9396 628.65,255.1669 599.85,275.3269" fill="none" id="WithVisit-backto-DiffractionExperiment" style="stroke:#181818;stroke-width:1;"/><polygon fill="none" points="684.27,216.2269,666.0832,221.6343,672.965,231.4649,684.27,216.2269" style="stroke:#181818;stroke-width:1;"/></g><!--reverse link GridCommon to GridCommonWithHyperionDetectorParams--><g class="link" data-entity-1="GridCommon" data-entity-2="GridCommonWithHyperionDetectorParams" data-source-line="140" data-uid="lnk50" id="link_GridCommon_GridCommonWithHyperionDetectorParams"><path codeLine="140" d="M634.1739,743.9383 C1118.7639,785.5883 2552.49,920.1669 3738.95,1147.7969 C3772.64,1154.2669 3809.33,1163.3069 3841.01,1171.7669" fill="none" id="GridCommon-backto-GridCommonWithHyperionDetectorParams" style="stroke:#181818;stroke-width:1;"/><polygon fill="none" points="616.24,742.3969,633.6601,749.9162,634.6877,737.9603,616.24,742.3969" style="stroke:#181818;stroke-width:1;"/></g><!--reverse link WithHyperionUDCFeatures to GridCommonWithHyperionDetectorParams--><g class="link" data-entity-1="WithHyperionUDCFeatures" data-entity-2="GridCommonWithHyperionDetectorParams" data-source-line="141" data-uid="lnk51" id="link_WithHyperionUDCFeatures_GridCommonWithHyperionDetectorParams"><path codeLine="141" d="M4131.9607,1018.3258 C4079.1607,1063.0158 3997.52,1132.1269 3950.57,1171.8569" fill="none" id="WithHyperionUDCFeatures-backto-GridCommonWithHyperionDetectorParams" style="stroke:#181818;stroke-width:1;"/><polygon fill="none" points="4145.7,1006.6969,4128.0844,1013.7461,4135.837,1022.9056,4145.7,1006.6969" style="stroke:#181818;stroke-width:1;"/></g><!--reverse link WithHyperionUDCFeatures to HyperionSpecifiedThreeDGridScan--><g class="link" data-entity-1="WithHyperionUDCFeatures" data-entity-2="HyperionSpecifiedThreeDGridScan" data-source-line="142" data-uid="lnk52" id="link_WithHyperionUDCFeatures_HyperionSpecifiedThreeDGridScan"><path codeLine="142" d="M4080.2342,1012.9043 C3958.5942,1057.5943 3755.75,1132.1269 3647.59,1171.8569" fill="none" id="WithHyperionUDCFeatures-backto-HyperionSpecifiedThreeDGridScan" style="stroke:#181818;stroke-width:1;"/><polygon fill="none" points="4097.13,1006.6969,4078.1651,1007.2724,4082.3034,1018.5362,4097.13,1006.6969" style="stroke:#181818;stroke-width:1;"/></g><!--reverse link SpecifiedThreeDGridScan to HyperionSpecifiedThreeDGridScan--><g class="link" data-entity-1="SpecifiedThreeDGridScan" data-entity-2="HyperionSpecifiedThreeDGridScan" data-source-line="143" data-uid="lnk53" id="link_SpecifiedThreeDGridScan_HyperionSpecifiedThreeDGridScan"><path codeLine="143" d="M634.5025,988.2675 C901.9925,1016.2175 1609.97,1087.0969 2216.95,1119.7969 C2486.19,1134.3069 3163.81,1104.5869 3429.95,1147.7969 C3460.88,1152.8169 3494.22,1162.5269 3521.94,1171.8669" fill="none" id="SpecifiedThreeDGridScan-backto-HyperionSpecifiedThreeDGridScan" style="stroke:#181818;stroke-width:1;"/><polygon fill="none" points="616.6,986.3969,633.879,994.235,635.1261,982.3,616.6,986.3969" style="stroke:#181818;stroke-width:1;"/></g><!--reverse link MxBlueskyParameters to LoadCentreCollect--><g class="link" data-entity-1="MxBlueskyParameters" data-entity-2="LoadCentreCollect" data-source-line="144" data-uid="lnk54" id="link_MxBlueskyParameters_LoadCentreCollect"><path codeLine="144" d="M534.4304,190.1912 C566.3204,202.6812 587.97,209.0769 623.95,215.7869 C1150.15,313.9269 2510.32,155.6969 3031.95,275.7869 C3337.29,346.0769 4145.45,597.0069 4314.95,860.5369 C4373.93,952.2269 4335.39,1088.8569 4310.44,1155.6269" fill="none" id="MxBlueskyParameters-backto-LoadCentreCollect" style="stroke:#181818;stroke-width:1;"/><polygon fill="none" points="517.67,183.6269,532.2422,195.778,536.6185,184.6044,517.67,183.6269" style="stroke:#181818;stroke-width:1;"/></g><!--reverse link WithVisit to LoadCentreCollect--><g class="link" data-entity-1="WithVisit" data-entity-2="LoadCentreCollect" data-source-line="145" data-uid="lnk55" id="link_WithVisit_LoadCentreCollect"><path codeLine="145" d="M622.7101,218.8346 C544.1501,242.2746 320.99,213.2769 267.95,275.7869 C25.22,561.7969 6,855.2469 271.95,1119.7969 C309.71,1157.3669 4054.12,1141.0069 4106.95,1147.7969 C4121.73,1149.6969 4137.03,1152.3769 4152.21,1155.4969" fill="none" id="WithVisit-backto-LoadCentreCollect" style="stroke:#181818;stroke-width:1;"/><polygon fill="none" points="639.85,213.3369,620.8776,213.1213,624.5427,224.5479,639.85,213.3369" style="stroke:#181818;stroke-width:1;"/></g><!--reverse link WithSample to LoadCentreCollect--><g class="link" data-entity-1="WithSample" data-entity-2="LoadCentreCollect" data-source-line="146" data-uid="lnk56" id="link_WithSample_LoadCentreCollect"><path codeLine="146" d="M2266.2793,208.493 C2277.2093,214.443 2272.76,211.3669 2283.95,215.7869 C2635.03,354.2569 3944.95,192.3569 3944.95,569.7569 C3944.95,569.7569 3944.95,569.7569 3944.95,728.6469 C3944.95,902.7869 3853.73,988.3469 3967.95,1119.7969 C4009.28,1167.3669 4045.5,1133.8269 4106.95,1147.7969 C4117.64,1150.2369 4128.66,1152.8169 4139.75,1155.4769" fill="none" id="WithSample-backto-LoadCentreCollect" style="stroke:#181818;stroke-width:1;"/><polygon fill="none" points="2250.47,199.8869,2263.4106,213.7628,2269.148,203.2233,2250.47,199.8869" style="stroke:#181818;stroke-width:1;"/></g><!--reverse link WithCentreSelection to LoadCentreCollect--><g class="link" data-entity-1="WithCentreSelection" data-entity-2="LoadCentreCollect" data-source-line="147" data-uid="lnk57" id="link_WithCentreSelection_LoadCentreCollect"><path codeLine="147" d="M2673.3294,190.3095 C2703.7994,202.6195 2723.66,208.7169 2757.95,215.7869 C2890.12,243.0069 3873.4,182.5369 3970.95,275.7869 C4243.32,536.1469 3813.4,827.3169 4050.95,1119.7969 C4058.02,1128.4969 4097.68,1142.1569 4142.98,1155.4869" fill="none" id="WithCentreSelection-backto-LoadCentreCollect" style="stroke:#181818;stroke-width:1;"/><polygon fill="none" points="2656.64,183.5669,2671.0819,195.8726,2675.577,184.7463,2656.64,183.5669" style="stroke:#181818;stroke-width:1;"/></g><!--reverse link WithHyperionUDCFeatures to LoadCentreCollect--><g class="link" data-entity-1="WithHyperionUDCFeatures" data-entity-2="LoadCentreCollect" data-source-line="148" data-uid="lnk58" id="link_WithHyperionUDCFeatures_LoadCentreCollect"><path codeLine="148" d="M4206.9555,1022.7686 C4226.7355,1061.9886 4252.42,1112.9069 4273.94,1155.5769" fill="none" id="WithHyperionUDCFeatures-backto-LoadCentreCollect" style="stroke:#181818;stroke-width:1;"/><polygon fill="none" points="4198.85,1006.6969,4201.5983,1025.4704,4212.3128,1020.0668,4198.85,1006.6969" style="stroke:#181818;stroke-width:1;"/></g><!--reverse link WithPandaGridScan to WithHyperionUDCFeatures--><g class="link" data-entity-1="WithPandaGridScan" data-entity-2="WithHyperionUDCFeatures" data-source-line="149" data-uid="lnk59" id="link_WithPandaGridScan_WithHyperionUDCFeatures"><path codeLine="149" d="M3034.7089,156.4295 C3327.0389,166.7095 4036.41,199.1469 4112.95,275.7869 C4299.11,462.1869 4220.46,832.0869 4191.76,941.7969" fill="none" id="WithPandaGridScan-backto-WithHyperionUDCFeatures" style="stroke:#181818;stroke-width:1;"/><polygon fill="none" points="3016.72,155.7969,3034.498,162.4258,3034.9197,150.4332,3016.72,155.7969" style="stroke:#181818;stroke-width:1;"/></g><!--SRC=[fLTRRzis57wsVWNVjW5BWFPvUqYTj1lGT47jPGMAWA2bOua8HH8abLf9yzzxI4goP4csYo4F4S_rErVIlwmBRicM2o3udrLENUGWmJ076TdKf3rGBPXqLIakTPqaZZjK-AlMOBYIv8uPLe83GsvL1YAnu8X4YjKiXHLeP3jbY5GIaWHfZom7KkxeHbHW7-lBL9MbafUwDMF9I-9K3gv0aoz9AfYrv1_jq1SJ7vJawahc0bQE6MTVaiLMAER8T_897H1LGiwezJoQGNx0rGMVvQL7U8zCwxxLrmRLVzmLBR8RJ5LUBmicSpX4bK79P4OXY51u6XYuvvOxrB3Ea0smKd1CL3WzUKxyp00zS-keKzGBqLJ99p2OBggPAw8GbnP9Y8Pg0rk-6w5ma68fWY4cKw1bsI7vKZyVP7JN15oLBQKUKPxtb7v8Iv3EOEq5-aCuQ7AjzATtzItRBLKbNSSXDdpHD2ZOWP5Lob1pG66b5ZwvN3fYmu7oB1wR61kghjB7IJgN0ujtM1RsmV0iEckYqfvAJIKhFPchbHRSJS2JJDj2-LhUOKs8RSvemuJ4ryb2eBclmSj31wqL2xrh1mssqf3oBOVCO_JUNiUZSSstMyD2EczsVYPBJ6O_NQqnRsCPXgsBTAEmolmPUYNDKOf-uvahUaJOQMKh0zIXTMgJnTzMrvkzkpKk0rmXIAFG4Qb3QhAumhD3tNk60zy57UeE6MKDj_NakAPgkyKbqc-gBW_hmW1SZohcGR-92UoFhoU_7PDzPuC-3BoUf3vFoxuTZqAVv3ilUh7nKFSFp-rXevGWrCTgNRLfujvFmUtkNToHtOhrqxdooyJnz1wFVeIwnKbBlt_fKwHtLYRxezatVlLJlwnd2-sb_8P67PnYm_CSZD_pnCNlu7GmQZWtL5Rb1inFrzumQKjkFNpgCVzKdtca5gSChvV-n8KSLnQeKJo2VGr_4pTHqLnfmxiePl6pScoKmWZR5fNpwLSQ99Tvbxh8DOqYvJ8r4F26LZm_ilxy-gxtitsJvN0Tzlb-lk-uN7CTT- -w0Fd5i3gUNevFrsqb76y3RERgIafFWEnhM5bzxXsOrJS0_V0x-GZorv9BAa3chlZppMyF-tWjYjg9vUFXju-7w-PA2Wrkzw6q_DcvRmK_AfR569TAY92EnMUrKSupV18Y4r4XZM8ECehBKpONJh8OXKvAJw63A0PRleNsx_NoFJ3VldueMsf3UYzOZW-hXX_wxSIQ9dzylxYOwB9ankUi_AIVA7q2GdA8vfJyEJMDbgPRztXiCphdEvsVX-EEZ-YTLSGzmcJksJeI71SoYepwC-aU7tC2tKik2WoU44dxi9hYxU4SS8V3bmoqJeaEmCw9pRsZZsjDN8z7-ZRfFz5EoSs3cTS9x_XZGeVvFQUJJu_8_xDmOj4cC_Jpb6SBDDhQXmcS5kWFsRJ4mG-FOwApAPaM7_nIY88pLdu0]--></g></svg>