<svg xmlns="http://www.w3.org/2000/svg" xmlns:xlink="http://www.w3.org/1999/xlink" contentStyleType="text/css" data-diagram-type="CLASS" height="1104px" preserveAspectRatio="none" style="width:4156px;height:1104px;background:#FFFFFF;" version="1.1" viewBox="0 0 4156 1104" width="4156px" zoomAndPan="magnify"><title>Hyperion Parameter Model</title><defs/><g><g class="title" data-source-line="3"><text fill="#000000" font-family="sans-serif" font-size="14" font-weight="bold" lengthAdjust="spacing" textLength="212.4951" x="1964.8874" y="22.9951">Hyperion Parameter Model</text></g><!--cluster mx_bluesky.common.parameters--><g class="cluster" data-entity="mx_bluesky.common.parameters" data-source-line="6" data-uid="ent0002" id="cluster_mx_bluesky.common.parameters"><path d="M1266.41,43.2969 L1527.7225,43.2969 A3.75,3.75 0 0 1 1530.2225,45.7969 L1537.2225,65.5938 L4088.41,65.5938 A2.5,2.5 0 0 1 4090.91,68.0938 L4090.91,822.0269 A2.5,2.5 0 0 1 4088.41,824.5269 L1266.41,824.5269 A2.5,2.5 0 0 1 1263.91,822.0269 L1263.91,45.7969 A2.5,2.5 0 0 1 1266.41,43.2969" fill="none" style="stroke:#000000;stroke-width:1.5;"/><line style="stroke:#000000;stroke-width:1.5;" x1="1263.91" x2="1537.2225" y1="65.5938" y2="65.5938"/><text fill="#000000" font-family="sans-serif" font-size="14" font-weight="bold" lengthAdjust="spacing" textLength="260.3125" x="1267.91" y="58.292">mx_bluesky.common.parameters</text></g><!--cluster mx_bluesky.hyperion.parameters--><g class="cluster" data-entity="mx_bluesky.hyperion.parameters" data-source-line="71" data-uid="ent0015" id="cluster_mx_bluesky.hyperion.parameters"><path d="M62.41,660.4869 L326.9422,660.4869 A3.75,3.75 0 0 1 329.4422,662.9869 L336.4422,682.7838 L1237.41,682.7838 A2.5,2.5 0 0 1 1239.91,685.2838 L1239.91,1095.2169 A2.5,2.5 0 0 1 1237.41,1097.7169 L62.41,1097.7169 A2.5,2.5 0 0 1 59.91,1095.2169 L59.91,662.9869 A2.5,2.5 0 0 1 62.41,660.4869" fill="none" style="stroke:#000000;stroke-width:1.5;"/><line style="stroke:#000000;stroke-width:1.5;" x1="59.91" x2="336.4422" y1="682.7838" y2="682.7838"/><text fill="#000000" font-family="sans-serif" font-size="14" font-weight="bold" lengthAdjust="spacing" textLength="263.5322" x="63.91" y="675.482">mx_bluesky.hyperion.parameters</text></g><!--class WithSnapshot--><g class="entity" data-entity="WithSnapshot" data-source-line="8" data-uid="ent0003" id="entity_WithSnapshot"><rect fill="#F1F1F1" height="96.8906" rx="2.5" ry="2.5" style="stroke:#181818;stroke-width:0.5;" width="289.3477" x="3138.24" y="102.5869"/><ellipse cx="3229.8928" cy="118.5869" fill="#ADD1B2" rx="11" ry="11" style="stroke:#181818;stroke-width:1;"/><path d="M3232.8616,124.2275 Q3232.2835,124.5244 3231.6428,124.665 Q3231.0022,124.8213 3230.2991,124.8213 Q3227.7991,124.8213 3226.471,123.1806 Q3225.1585,121.5244 3225.1585,118.3994 Q3225.1585,115.2744 3226.471,113.6181 Q3227.7991,111.9619 3230.2991,111.9619 Q3231.0022,111.9619 3231.6428,112.1181 Q3232.2991,112.2744 3232.8616,112.5713 L3232.8616,115.29 Q3232.2366,114.7119 3231.6428,114.4463 Q3231.0491,114.165 3230.4241,114.165 Q3229.0803,114.165 3228.3928,115.2431 Q3227.7053,116.3056 3227.7053,118.3994 Q3227.7053,120.4931 3228.3928,121.5713 Q3229.0803,122.6338 3230.4241,122.6338 Q3231.0491,122.6338 3231.6428,122.3681 Q3232.2366,122.0869 3232.8616,121.5088 L3232.8616,124.2275 Z " fill="#000000"/><text fill="#000000" font-family="sans-serif" font-size="14" lengthAdjust="spacing" textLength="97.542" x="3250.3928" y="123.4336">WithSnapshot</text><line style="stroke:#181818;stroke-width:0.5;" x1="3139.24" x2="3426.5877" y1="134.5869" y2="134.5869"/><text fill="#000000" font-family="sans-serif" font-size="14" lengthAdjust="spacing" textLength="169.627" x="3144.24" y="151.582">Path snapshot_directory</text><text fill="#000000" font-family="sans-serif" font-size="14" lengthAdjust="spacing" textLength="277.3477" x="3144.24" y="167.8789">list[float] | None snapshot_omegas_deg</text><text fill="#000000" font-family="sans-serif" font-size="14" lengthAdjust="spacing" textLength="171.7051" x="3144.24" y="184.1757">bool use_grid_snapshots</text><line style="stroke:#181818;stroke-width:0.5;" x1="3139.24" x2="3426.5877" y1="191.4775" y2="191.4775"/></g><!--class SplitScan--><g class="entity" data-entity="SplitScan" data-source-line="13" data-uid="ent0004" id="entity_SplitScan"><rect fill="#F1F1F1" height="48" rx="2.5" ry="2.5" style="stroke:#181818;stroke-width:0.5;" width="97.0781" x="1288.37" y="127.0369"/><ellipse cx="1303.37" cy="143.0369" fill="#ADD1B2" rx="11" ry="11" style="stroke:#181818;stroke-width:1;"/><path d="M1306.3388,148.6775 Q1305.7606,148.9744 1305.12,149.115 Q1304.4794,149.2713 1303.7763,149.2713 Q1301.2763,149.2713 1299.9481,147.6306 Q1298.6356,145.9744 1298.6356,142.8494 Q1298.6356,139.7244 1299.9481,138.0681 Q1301.2763,136.4119 1303.7763,136.4119 Q1304.4794,136.4119 1305.12,136.5681 Q1305.7763,136.7244 1306.3388,137.0213 L1306.3388,139.74 Q1305.7138,139.1619 1305.12,138.8963 Q1304.5263,138.615 1303.9013,138.615 Q1302.5575,138.615 1301.87,139.6931 Q1301.1825,140.7556 1301.1825,142.8494 Q1301.1825,144.9431 1301.87,146.0213 Q1302.5575,147.0838 1303.9013,147.0838 Q1304.5263,147.0838 1305.12,146.8181 Q1305.7138,146.5369 1306.3388,145.9588 L1306.3388,148.6775 Z " fill="#000000"/><text fill="#000000" font-family="sans-serif" font-size="14" lengthAdjust="spacing" textLength="65.0781" x="1317.37" y="147.8836">SplitScan</text><line style="stroke:#181818;stroke-width:0.5;" x1="1289.37" x2="1384.4481" y1="159.0369" y2="159.0369"/><line style="stroke:#181818;stroke-width:0.5;" x1="1289.37" x2="1384.4481" y1="167.0369" y2="167.0369"/></g><!--class WithPandaGridScan--><g class="entity" data-entity="WithPandaGridScan" data-source-line="15" data-uid="ent0005" id="entity_WithPandaGridScan"><rect fill="#F1F1F1" height="64.2969" rx="2.5" ry="2.5" style="stroke:#181818;stroke-width:0.5;" width="240.5664" x="1420.63" y="118.8869"/><ellipse cx="1467.2272" cy="134.8869" fill="#ADD1B2" rx="11" ry="11" style="stroke:#181818;stroke-width:1;"/><path d="M1470.1959,140.5275 Q1469.6178,140.8244 1468.9772,140.965 Q1468.3365,141.1213 1467.6334,141.1213 Q1465.1334,141.1213 1463.8053,139.4806 Q1462.4928,137.8244 1462.4928,134.6994 Q1462.4928,131.5744 1463.8053,129.9181 Q1465.1334,128.2619 1467.6334,128.2619 Q1468.3365,128.2619 1468.9772,128.4181 Q1469.6334,128.5744 1470.1959,128.8713 L1470.1959,131.59 Q1469.5709,131.0119 1468.9772,130.7463 Q1468.3834,130.465 1467.7584,130.465 Q1466.4147,130.465 1465.7272,131.5431 Q1465.0397,132.6056 1465.0397,134.6994 Q1465.0397,136.7931 1465.7272,137.8713 Q1466.4147,138.9338 1467.7584,138.9338 Q1468.3834,138.9338 1468.9772,138.6681 Q1469.5709,138.3869 1470.1959,137.8088 L1470.1959,140.5275 Z " fill="#000000"/><text fill="#000000" font-family="sans-serif" font-size="14" lengthAdjust="spacing" textLength="138.8721" x="1487.7272" y="139.7336">WithPandaGridScan</text><line style="stroke:#181818;stroke-width:0.5;" x1="1421.63" x2="1660.1964" y1="150.8869" y2="150.8869"/><text fill="#000000" font-family="sans-serif" font-size="14" lengthAdjust="spacing" textLength="228.5664" x="1426.63" y="167.882">float panda_runup_distance_mm</text><line style="stroke:#181818;stroke-width:0.5;" x1="1421.63" x2="1660.1964" y1="175.1838" y2="175.1838"/></g><!--class WithVisit--><g class="entity" data-entity="WithVisit" data-source-line="18" data-uid="ent0006" id="entity_WithVisit"><rect fill="#F1F1F1" height="129.4844" rx="2.5" ry="2.5" style="stroke:#181818;stroke-width:0.5;" width="271.7861" x="2561.02" y="86.2969"/><ellipse cx="2661.5459" cy="102.2969" fill="#ADD1B2" rx="11" ry="11" style="stroke:#181818;stroke-width:1;"/><path d="M2664.5146,107.9375 Q2663.9365,108.2344 2663.2959,108.375 Q2662.6553,108.5313 2661.9521,108.5313 Q2659.4521,108.5313 2658.124,106.8906 Q2656.8115,105.2344 2656.8115,102.1094 Q2656.8115,98.9844 2658.124,97.3281 Q2659.4521,95.6719 2661.9521,95.6719 Q2662.6553,95.6719 2663.2959,95.8281 Q2663.9521,95.9844 2664.5146,96.2813 L2664.5146,99 Q2663.8896,98.4219 2663.2959,98.1563 Q2662.7021,97.875 2662.0771,97.875 Q2660.7334,97.875 2660.0459,98.9531 Q2659.3584,100.0156 2659.3584,102.1094 Q2659.3584,104.2031 2660.0459,105.2813 Q2660.7334,106.3438 2662.0771,106.3438 Q2662.7021,106.3438 2663.2959,106.0781 Q2663.8896,105.7969 2664.5146,105.2188 L2664.5146,107.9375 Z " fill="#000000"/><text fill="#000000" font-family="sans-serif" font-size="14" lengthAdjust="spacing" textLength="62.2344" x="2682.0459" y="107.1436">WithVisit</text><line style="stroke:#181818;stroke-width:0.5;" x1="2562.02" x2="2831.8061" y1="118.2969" y2="118.2969"/><text fill="#000000" font-family="sans-serif" font-size="14" lengthAdjust="spacing" textLength="87.9717" x="2567.02" y="135.292">str beamline</text><text fill="#000000" font-family="sans-serif" font-size="14" lengthAdjust="spacing" textLength="51.8369" x="2567.02" y="151.5889">str visit</text><text fill="#000000" font-family="sans-serif" font-size="14" lengthAdjust="spacing" textLength="259.7861" x="2567.02" y="167.8857">str det_dist_to_beam_converter_path</text><text fill="#000000" font-family="sans-serif" font-size="14" lengthAdjust="spacing" textLength="131.5918" x="2567.02" y="184.1826">str insertion_prefix</text><text fill="#000000" font-family="sans-serif" font-size="14" lengthAdjust="spacing" textLength="245.752" x="2567.02" y="200.4795">float | None detector_distance_mm</text><line style="stroke:#181818;stroke-width:0.5;" x1="2562.02" x2="2831.8061" y1="207.7813" y2="207.7813"/></g><!--class WithOptionalEnergyChange--><g class="entity" data-entity="WithOptionalEnergyChange" data-source-line="25" data-uid="ent0007" id="entity_WithOptionalEnergyChange"><rect fill="#F1F1F1" height="64.2969" rx="2.5" ry="2.5" style="stroke:#181818;stroke-width:0.5;" width="235.4463" x="2868.19" y="118.8869"/><ellipse cx="2887.3745" cy="134.8869" fill="#ADD1B2" rx="11" ry="11" style="stroke:#181818;stroke-width:1;"/><path d="M2890.3432,140.5275 Q2889.7651,140.8244 2889.1245,140.965 Q2888.4838,141.1213 2887.7807,141.1213 Q2885.2807,141.1213 2883.9526,139.4806 Q2882.6401,137.8244 2882.6401,134.6994 Q2882.6401,131.5744 2883.9526,129.9181 Q2885.2807,128.2619 2887.7807,128.2619 Q2888.4838,128.2619 2889.1245,128.4181 Q2889.7807,128.5744 2890.3432,128.8713 L2890.3432,131.59 Q2889.7182,131.0119 2889.1245,130.7463 Q2888.5307,130.465 2887.9057,130.465 Q2886.562,130.465 2885.8745,131.5431 Q2885.187,132.6056 2885.187,134.6994 Q2885.187,136.7931 2885.8745,137.8713 Q2886.562,138.9338 2887.9057,138.9338 Q2888.5307,138.9338 2889.1245,138.6681 Q2889.7182,138.3869 2890.3432,137.8088 L2890.3432,140.5275 Z " fill="#000000"/><text fill="#000000" font-family="sans-serif" font-size="14" lengthAdjust="spacing" textLength="194.1475" x="2902.3044" y="139.7336">WithOptionalEnergyChange</text><line style="stroke:#181818;stroke-width:0.5;" x1="2869.19" x2="3102.6363" y1="150.8869" y2="150.8869"/><text fill="#000000" font-family="sans-serif" font-size="14" lengthAdjust="spacing" textLength="223.4463" x="2874.19" y="167.882">float | None demand_energy_ev</text><line style="stroke:#181818;stroke-width:0.5;" x1="2869.19" x2="3102.6363" y1="175.1838" y2="175.1838"/></g><!--class WithSample--><g class="entity" data-entity="WithSample" data-source-line="28" data-uid="ent0008" id="entity_WithSample"><rect fill="#F1F1F1" height="96.8906" rx="2.5" ry="2.5" style="stroke:#181818;stroke-width:0.5;" width="176.3086" x="2349.76" y="102.5869"/><ellipse cx="2391.6343" cy="118.5869" fill="#ADD1B2" rx="11" ry="11" style="stroke:#181818;stroke-width:1;"/><path d="M2394.6031,124.2275 Q2394.0249,124.5244 2393.3843,124.665 Q2392.7437,124.8213 2392.0406,124.8213 Q2389.5406,124.8213 2388.2124,123.1806 Q2386.8999,121.5244 2386.8999,118.3994 Q2386.8999,115.2744 2388.2124,113.6181 Q2389.5406,111.9619 2392.0406,111.9619 Q2392.7437,111.9619 2393.3843,112.1181 Q2394.0406,112.2744 2394.6031,112.5713 L2394.6031,115.29 Q2393.9781,114.7119 2393.3843,114.4463 Q2392.7906,114.165 2392.1656,114.165 Q2390.8218,114.165 2390.1343,115.2431 Q2389.4468,116.3056 2389.4468,118.3994 Q2389.4468,120.4931 2390.1343,121.5713 Q2390.8218,122.6338 2392.1656,122.6338 Q2392.7906,122.6338 2393.3843,122.3681 Q2393.9781,122.0869 2394.6031,121.5088 L2394.6031,124.2275 Z " fill="#000000"/><text fill="#000000" font-family="sans-serif" font-size="14" lengthAdjust="spacing" textLength="84.5879" x="2411.6064" y="123.4336">WithSample</text><line style="stroke:#181818;stroke-width:0.5;" x1="2350.76" x2="2525.0686" y1="134.5869" y2="134.5869"/><text fill="#000000" font-family="sans-serif" font-size="14" lengthAdjust="spacing" textLength="93.3789" x="2355.76" y="151.582">int sample_id</text><text fill="#000000" font-family="sans-serif" font-size="14" lengthAdjust="spacing" textLength="164.3086" x="2355.76" y="167.8789">int | None sample_puck</text><text fill="#000000" font-family="sans-serif" font-size="14" lengthAdjust="spacing" textLength="152.3936" x="2355.76" y="184.1757">int | None sample_pin</text><line style="stroke:#181818;stroke-width:0.5;" x1="2350.76" x2="2525.0686" y1="191.4775" y2="191.4775"/></g><!--class WithCentreSelection--><g class="entity" data-entity="WithCentreSelection" data-source-line="33" data-uid="ent0009" id="entity_WithCentreSelection"><rect fill="#F1F1F1" height="64.2969" rx="2.5" ry="2.5" style="stroke:#181818;stroke-width:0.5;" width="618.6689" x="1696.58" y="118.8869"/><ellipse cx="1929.7983" cy="134.8869" fill="#ADD1B2" rx="11" ry="11" style="stroke:#181818;stroke-width:1;"/><path d="M1932.767,140.5275 Q1932.1889,140.8244 1931.5483,140.965 Q1930.9076,141.1213 1930.2045,141.1213 Q1927.7045,141.1213 1926.3764,139.4806 Q1925.0639,137.8244 1925.0639,134.6994 Q1925.0639,131.5744 1926.3764,129.9181 Q1927.7045,128.2619 1930.2045,128.2619 Q1930.9076,128.2619 1931.5483,128.4181 Q1932.2045,128.5744 1932.767,128.8713 L1932.767,131.59 Q1932.142,131.0119 1931.5483,130.7463 Q1930.9545,130.465 1930.3295,130.465 Q1928.9858,130.465 1928.2983,131.5431 Q1927.6108,132.6056 1927.6108,134.6994 Q1927.6108,136.7931 1928.2983,137.8713 Q1928.9858,138.9338 1930.3295,138.9338 Q1930.9545,138.9338 1931.5483,138.6681 Q1932.142,138.3869 1932.767,137.8088 L1932.767,140.5275 Z " fill="#000000"/><text fill="#000000" font-family="sans-serif" font-size="14" lengthAdjust="spacing" textLength="143.7324" x="1950.2983" y="139.7336">WithCentreSelection</text><line style="stroke:#181818;stroke-width:0.5;" x1="1697.58" x2="2314.2489" y1="150.8869" y2="150.8869"/><text fill="#000000" font-family="sans-serif" font-size="14" lengthAdjust="spacing" textLength="606.6689" x="1702.58" y="167.882">TopNByMaxCountSelection | TopNByMaxCountForEachSampleSelection select_centres</text><line style="stroke:#181818;stroke-width:0.5;" x1="1697.58" x2="2314.2489" y1="175.1838" y2="175.1838"/></g><!--class OptionalGonioAngleStarts--><g class="entity" data-entity="OptionalGonioAngleStarts" data-source-line="36" data-uid="ent0010" id="entity_OptionalGonioAngleStarts"><rect fill="#F1F1F1" height="113.1875" rx="2.5" ry="2.5" style="stroke:#181818;stroke-width:0.5;" width="219.3203" x="3462.25" y="94.4469"/><ellipse cx="3479.9733" cy="110.4469" fill="#ADD1B2" rx="11" ry="11" style="stroke:#181818;stroke-width:1;"/><path d="M3482.942,116.0875 Q3482.3639,116.3844 3481.7233,116.525 Q3481.0827,116.6813 3480.3795,116.6813 Q3477.8795,116.6813 3476.5514,115.0406 Q3475.2389,113.3844 3475.2389,110.2594 Q3475.2389,107.1344 3476.5514,105.4781 Q3477.8795,103.8219 3480.3795,103.8219 Q3481.0827,103.8219 3481.7233,103.9781 Q3482.3795,104.1344 3482.942,104.4313 L3482.942,107.15 Q3482.317,106.5719 3481.7233,106.3063 Q3481.1295,106.025 3480.5045,106.025 Q3479.1608,106.025 3478.4733,107.1031 Q3477.7858,108.1656 3477.7858,110.2594 Q3477.7858,112.3531 3478.4733,113.4313 Q3479.1608,114.4938 3480.5045,114.4938 Q3481.1295,114.4938 3481.7233,114.2281 Q3482.317,113.9469 3482.942,113.3688 L3482.942,116.0875 Z " fill="#000000"/><text fill="#000000" font-family="sans-serif" font-size="14" lengthAdjust="spacing" textLength="181.2686" x="3494.5785" y="115.2936">OptionalGonioAngleStarts</text><line style="stroke:#181818;stroke-width:0.5;" x1="3463.25" x2="3680.5703" y1="126.4469" y2="126.4469"/><text fill="#000000" font-family="sans-serif" font-size="14" lengthAdjust="spacing" textLength="207.3203" x="3468.25" y="143.442">float | None omega_start_deg</text><text fill="#000000" font-family="sans-serif" font-size="14" lengthAdjust="spacing" textLength="180.6875" x="3468.25" y="159.7389">float | None phi_start_deg</text><text fill="#000000" font-family="sans-serif" font-size="14" lengthAdjust="spacing" textLength="179.498" x="3468.25" y="176.0357">float | None chi_start_deg</text><text fill="#000000" font-family="sans-serif" font-size="14" lengthAdjust="spacing" textLength="202.0771" x="3468.25" y="192.3326">float | None kappa_start_deg</text><line style="stroke:#181818;stroke-width:0.5;" x1="3463.25" x2="3680.5703" y1="199.6344" y2="199.6344"/></g><!--class DiffractionExperiment--><g class="entity" data-entity="DiffractionExperiment" data-source-line="44" data-uid="ent0011" id="entity_DiffractionExperiment"><rect fill="#F1F1F1" height="210.9688" rx="2.5" ry="2.5" style="stroke:#181818;stroke-width:0.5;" width="332.332" x="3705.75" y="275.7769"/><ellipse cx="3790.5327" cy="291.7769" fill="#ADD1B2" rx="11" ry="11" style="stroke:#181818;stroke-width:1;"/><path d="M3793.5015,297.4175 Q3792.9233,297.7144 3792.2827,297.855 Q3791.6421,298.0113 3790.939,298.0113 Q3788.439,298.0113 3787.1108,296.3706 Q3785.7983,294.7144 3785.7983,291.5894 Q3785.7983,288.4644 3787.1108,286.8081 Q3788.439,285.1519 3790.939,285.1519 Q3791.6421,285.1519 3792.2827,285.3081 Q3792.939,285.4644 3793.5015,285.7613 L3793.5015,288.48 Q3792.8765,287.9019 3792.2827,287.6363 Q3791.689,287.355 3791.064,287.355 Q3789.7202,287.355 3789.0327,288.4331 Q3788.3452,289.4956 3788.3452,291.5894 Q3788.3452,293.6831 3789.0327,294.7613 Q3789.7202,295.8238 3791.064,295.8238 Q3791.689,295.8238 3792.2827,295.5581 Q3792.8765,295.2769 3793.5015,294.6988 L3793.5015,297.4175 Z " fill="#000000"/><text fill="#000000" font-family="sans-serif" font-size="14" lengthAdjust="spacing" textLength="154.2666" x="3811.0327" y="296.6236">DiffractionExperiment</text><line style="stroke:#181818;stroke-width:0.5;" x1="3706.75" x2="4037.082" y1="307.7769" y2="307.7769"/><text fill="#000000" font-family="sans-serif" font-size="14" lengthAdjust="spacing" textLength="91.0137" x="3711.75" y="324.772">str file_name</text><text fill="#000000" font-family="sans-serif" font-size="14" lengthAdjust="spacing" textLength="153.7129" x="3711.75" y="341.0689">float exposure_time_s</text><text fill="#000000" font-family="sans-serif" font-size="14" lengthAdjust="spacing" textLength="89.5029" x="3711.75" y="357.3657">str comment</text><text fill="#000000" font-family="sans-serif" font-size="14" lengthAdjust="spacing" textLength="186.915" x="3711.75" y="373.6626">TriggerMode trigger_mode</text><text fill="#000000" font-family="sans-serif" font-size="14" lengthAdjust="spacing" textLength="157.9854" x="3711.75" y="389.9595">int | None run_number</text><text fill="#000000" font-family="sans-serif" font-size="14" lengthAdjust="spacing" textLength="282.3516" x="3711.75" y="406.2564">ApertureValue | None selected_aperture</text><text fill="#000000" font-family="sans-serif" font-size="14" lengthAdjust="spacing" textLength="159.2979" x="3711.75" y="422.5532">float transmission_frac</text><text fill="#000000" font-family="sans-serif" font-size="14" lengthAdjust="spacing" textLength="320.332" x="3711.75" y="438.8501">IspybExperimentType ispyb_experiment_type</text><text fill="#000000" font-family="sans-serif" font-size="14" lengthAdjust="spacing" textLength="146.1113" x="3711.75" y="455.147">str storage_directory</text><text fill="#000000" font-family="sans-serif" font-size="14" lengthAdjust="spacing" textLength="131.0518" x="3711.75" y="471.4439">bool use_roi_mode</text><line style="stroke:#181818;stroke-width:0.5;" x1="3706.75" x2="4037.082" y1="478.7456" y2="478.7456"/></g><!--class MxBlueskyParameters--><g class="entity" data-entity="MxBlueskyParameters" data-source-line="56" data-uid="ent0012" id="entity_MxBlueskyParameters"><rect fill="#F1F1F1" height="64.2969" rx="2.5" ry="2.5" style="stroke:#181818;stroke-width:0.5;" width="317.4639" x="3716.18" y="118.8869"/><ellipse cx="3792.7664" cy="134.8869" fill="#ADD1B2" rx="11" ry="11" style="stroke:#181818;stroke-width:1;"/><path d="M3795.7352,140.5275 Q3795.1571,140.8244 3794.5164,140.965 Q3793.8758,141.1213 3793.1727,141.1213 Q3790.6727,141.1213 3789.3446,139.4806 Q3788.0321,137.8244 3788.0321,134.6994 Q3788.0321,131.5744 3789.3446,129.9181 Q3790.6727,128.2619 3793.1727,128.2619 Q3793.8758,128.2619 3794.5164,128.4181 Q3795.1727,128.5744 3795.7352,128.8713 L3795.7352,131.59 Q3795.1102,131.0119 3794.5164,130.7463 Q3793.9227,130.465 3793.2977,130.465 Q3791.9539,130.465 3791.2664,131.5431 Q3790.5789,132.6056 3790.5789,134.6994 Q3790.5789,136.7931 3791.2664,137.8713 Q3791.9539,138.9338 3793.2977,138.9338 Q3793.9227,138.9338 3794.5164,138.6681 Q3795.1102,138.3869 3795.7352,137.8088 L3795.7352,140.5275 Z " fill="#000000"/><text fill="#000000" font-family="sans-serif" font-size="14" lengthAdjust="spacing" textLength="155.791" x="3813.2664" y="139.7336">MxBlueskyParameters</text><line style="stroke:#181818;stroke-width:0.5;" x1="3717.18" x2="4032.6439" y1="150.8869" y2="150.8869"/><text fill="#000000" font-family="sans-serif" font-size="14" lengthAdjust="spacing" textLength="305.4639" x="3722.18" y="167.882">SemanticVersion parameter_model_version</text><line style="stroke:#181818;stroke-width:0.5;" x1="3717.18" x2="4032.6439" y1="175.1838" y2="175.1838"/></g><!--class GridCommon--><g class="entity" data-entity="GridCommon" data-source-line="59" data-uid="ent0013" id="entity_GridCommon"><rect fill="#F1F1F1" height="145.7813" rx="2.5" ry="2.5" style="stroke:#181818;stroke-width:0.5;" width="332.332" x="3705.75" y="654.7469"/><ellipse cx="3821.4482" cy="670.7469" fill="#ADD1B2" rx="11" ry="11" style="stroke:#181818;stroke-width:1;"/><path d="M3824.417,676.3875 Q3823.8389,676.6844 3823.1982,676.825 Q3822.5576,676.9813 3821.8545,676.9813 Q3819.3545,676.9813 3818.0264,675.3406 Q3816.7139,673.6844 3816.7139,670.5594 Q3816.7139,667.4344 3818.0264,665.7781 Q3819.3545,664.1219 3821.8545,664.1219 Q3822.5576,664.1219 3823.1982,664.2781 Q3823.8545,664.4344 3824.417,664.7313 L3824.417,667.45 Q3823.792,666.8719 3823.1982,666.6063 Q3822.6045,666.325 3821.9795,666.325 Q3820.6357,666.325 3819.9482,667.4031 Q3819.2607,668.4656 3819.2607,670.5594 Q3819.2607,672.6531 3819.9482,673.7313 Q3820.6357,674.7938 3821.9795,674.7938 Q3822.6045,674.7938 3823.1982,674.5281 Q3823.792,674.2469 3824.417,673.6688 L3824.417,676.3875 Z " fill="#000000"/><text fill="#000000" font-family="sans-serif" font-size="14" lengthAdjust="spacing" textLength="92.4355" x="3841.9482" y="675.5936">GridCommon</text><line style="stroke:#181818;stroke-width:0.5;" x1="3706.75" x2="4037.082" y1="686.7469" y2="686.7469"/><text fill="#000000" font-family="sans-serif" font-size="14" lengthAdjust="spacing" textLength="125.2959" x="3711.75" y="703.742">float box_size_um</text><text fill="#000000" font-family="sans-serif" font-size="14" lengthAdjust="spacing" textLength="138.4209" x="3711.75" y="720.0389">float grid_width_um</text><text fill="#000000" font-family="sans-serif" font-size="14" lengthAdjust="spacing" textLength="153.7129" x="3711.75" y="736.3357">float exposure_time_s</text><text fill="#000000" font-family="sans-serif" font-size="14" lengthAdjust="spacing" textLength="320.332" x="3711.75" y="752.6326">IspybExperimentType ispyb_experiment_type</text><text fill="#000000" font-family="sans-serif" font-size="14" lengthAdjust="spacing" textLength="282.3516" x="3711.75" y="768.9295">ApertureValue | None selected_aperture</text><text fill="#000000" font-family="sans-serif" font-size="14" lengthAdjust="spacing" textLength="130.498" x="3711.75" y="785.2264">float tip_offset_um</text><line style="stroke:#181818;stroke-width:0.5;" x1="3706.75" x2="4037.082" y1="792.5281" y2="792.5281"/></g><!--class DiffractionExperimentWithSample--><g class="entity" data-entity="DiffractionExperimentWithSample" data-source-line="67" data-uid="ent0014" id="entity_DiffractionExperimentWithSample"><rect fill="#F1F1F1" height="48" rx="2.5" ry="2.5" style="stroke:#181818;stroke-width:0.5;" width="270.8545" x="3736.48" y="546.7469"/><ellipse cx="3751.48" cy="562.7469" fill="#ADD1B2" rx="11" ry="11" style="stroke:#181818;stroke-width:1;"/><path d="M3754.4488,568.3875 Q3753.8706,568.6844 3753.23,568.825 Q3752.5894,568.9813 3751.8863,568.9813 Q3749.3863,568.9813 3748.0581,567.3406 Q3746.7456,565.6844 3746.7456,562.5594 Q3746.7456,559.4344 3748.0581,557.7781 Q3749.3863,556.1219 3751.8863,556.1219 Q3752.5894,556.1219 3753.23,556.2781 Q3753.8863,556.4344 3754.4488,556.7313 L3754.4488,559.45 Q3753.8238,558.8719 3753.23,558.6063 Q3752.6363,558.325 3752.0113,558.325 Q3750.6675,558.325 3749.98,559.4031 Q3749.2925,560.4656 3749.2925,562.5594 Q3749.2925,564.6531 3749.98,565.7313 Q3750.6675,566.7938 3752.0113,566.7938 Q3752.6363,566.7938 3753.23,566.5281 Q3753.8238,566.2469 3754.4488,565.6688 L3754.4488,568.3875 Z " fill="#000000"/><text fill="#000000" font-family="sans-serif" font-size="14" lengthAdjust="spacing" textLength="238.8545" x="3765.48" y="567.5936">DiffractionExperimentWithSample</text><line style="stroke:#181818;stroke-width:0.5;" x1="3737.48" x2="4006.3345" y1="578.7469" y2="578.7469"/><line style="stroke:#181818;stroke-width:0.5;" x1="3737.48" x2="4006.3345" y1="586.7469" y2="586.7469"/></g><!--class GridScanWithEdgeDetect--><g class="entity" data-entity="GridScanWithEdgeDetect" data-source-line="72" data-uid="ent0016" id="entity_GridScanWithEdgeDetect"><rect fill="#F1F1F1" height="48" rx="2.5" ry="2.5" style="stroke:#181818;stroke-width:0.5;" width="209.4268" x="948.2" y="1025.5669"/><ellipse cx="963.2" cy="1041.5669" fill="#ADD1B2" rx="11" ry="11" style="stroke:#181818;stroke-width:1;"/><path d="M966.1687,1047.2075 Q965.5906,1047.5044 964.95,1047.645 Q964.3094,1047.8013 963.6062,1047.8013 Q961.1062,1047.8013 959.7781,1046.1606 Q958.4656,1044.5044 958.4656,1041.3794 Q958.4656,1038.2544 959.7781,1036.5981 Q961.1062,1034.9419 963.6062,1034.9419 Q964.3094,1034.9419 964.95,1035.0981 Q965.6062,1035.2544 966.1687,1035.5513 L966.1687,1038.27 Q965.5437,1037.6919 964.95,1037.4263 Q964.3562,1037.145 963.7312,1037.145 Q962.3875,1037.145 961.7,1038.2231 Q961.0125,1039.2856 961.0125,1041.3794 Q961.0125,1043.4731 961.7,1044.5513 Q962.3875,1045.6138 963.7312,1045.6138 Q964.3562,1045.6138 964.95,1045.3481 Q965.5437,1045.0669 966.1687,1044.4888 L966.1687,1047.2075 Z " fill="#000000"/><text fill="#000000" font-family="sans-serif" font-size="14" lengthAdjust="spacing" textLength="177.4268" x="977.2" y="1046.4136">GridScanWithEdgeDetect</text><line style="stroke:#181818;stroke-width:0.5;" x1="949.2" x2="1156.6268" y1="1057.5669" y2="1057.5669"/><line style="stroke:#181818;stroke-width:0.5;" x1="949.2" x2="1156.6268" y1="1065.5669" y2="1065.5669"/></g><!--class PinTipCentreThenXrayCentre--><g class="entity" data-entity="PinTipCentreThenXrayCentre" data-source-line="74" data-uid="ent0017" id="entity_PinTipCentreThenXrayCentre"><rect fill="#F1F1F1" height="64.2969" rx="2.5" ry="2.5" style="stroke:#181818;stroke-width:0.5;" width="235.8955" x="672.96" y="1017.4169"/><ellipse cx="687.96" cy="1033.4169" fill="#ADD1B2" rx="11" ry="11" style="stroke:#181818;stroke-width:1;"/><path d="M690.9287,1039.0575 Q690.3506,1039.3544 689.71,1039.495 Q689.0694,1039.6513 688.3662,1039.6513 Q685.8662,1039.6513 684.5381,1038.0106 Q683.2256,1036.3544 683.2256,1033.2294 Q683.2256,1030.1044 684.5381,1028.4481 Q685.8662,1026.7919 688.3662,1026.7919 Q689.0694,1026.7919 689.71,1026.9481 Q690.3662,1027.1044 690.9287,1027.4013 L690.9287,1030.12 Q690.3037,1029.5419 689.71,1029.2763 Q689.1162,1028.995 688.4912,1028.995 Q687.1475,1028.995 686.46,1030.0731 Q685.7725,1031.1356 685.7725,1033.2294 Q685.7725,1035.3231 686.46,1036.4013 Q687.1475,1037.4638 688.4912,1037.4638 Q689.1162,1037.4638 689.71,1037.1981 Q690.3037,1036.9169 690.9287,1036.3388 L690.9287,1039.0575 Z " fill="#000000"/><text fill="#000000" font-family="sans-serif" font-size="14" lengthAdjust="spacing" textLength="203.8955" x="701.96" y="1038.2636">PinTipCentreThenXrayCentre</text><line style="stroke:#181818;stroke-width:0.5;" x1="673.96" x2="907.8555" y1="1049.4169" y2="1049.4169"/><text fill="#000000" font-family="sans-serif" font-size="14" lengthAdjust="spacing" textLength="130.498" x="678.96" y="1066.412">float tip_offset_um</text><line style="stroke:#181818;stroke-width:0.5;" x1="673.96" x2="907.8555" y1="1073.7138" y2="1073.7138"/></g><!--class RotationExperiment--><g class="entity" data-entity="RotationExperiment" data-source-line="77" data-uid="ent0018" id="entity_RotationExperiment"><rect fill="#F1F1F1" height="96.8906" rx="2.5" ry="2.5" style="stroke:#181818;stroke-width:0.5;" width="332.332" x="522.75" y="860.5269"/><ellipse cx="614.6318" cy="876.5269" fill="#ADD1B2" rx="11" ry="11" style="stroke:#181818;stroke-width:1;"/><path d="M617.6006,882.1675 Q617.0225,882.4644 616.3818,882.605 Q615.7412,882.7613 615.0381,882.7613 Q612.5381,882.7613 611.21,881.1206 Q609.8975,879.4644 609.8975,876.3394 Q609.8975,873.2144 611.21,871.5581 Q612.5381,869.9019 615.0381,869.9019 Q615.7412,869.9019 616.3818,870.0581 Q617.0381,870.2144 617.6006,870.5113 L617.6006,873.23 Q616.9756,872.6519 616.3818,872.3863 Q615.7881,872.105 615.1631,872.105 Q613.8193,872.105 613.1318,873.1831 Q612.4443,874.2456 612.4443,876.3394 Q612.4443,878.4331 613.1318,879.5113 Q613.8193,880.5738 615.1631,880.5738 Q615.7881,880.5738 616.3818,880.3081 Q616.9756,880.0269 617.6006,879.4488 L617.6006,882.1675 Z " fill="#000000"/><text fill="#000000" font-family="sans-serif" font-size="14" lengthAdjust="spacing" textLength="140.0684" x="635.1318" y="881.3736">RotationExperiment</text><line style="stroke:#181818;stroke-width:0.5;" x1="523.75" x2="854.082" y1="892.5269" y2="892.5269"/><text fill="#000000" font-family="sans-serif" font-size="14" lengthAdjust="spacing" textLength="202.8018" x="528.75" y="909.522">float shutter_opening_time_s</text><text fill="#000000" font-family="sans-serif" font-size="14" lengthAdjust="spacing" textLength="202.9385" x="528.75" y="925.8189">float rotation_increment_deg</text><text fill="#000000" font-family="sans-serif" font-size="14" lengthAdjust="spacing" textLength="320.332" x="528.75" y="942.1157">IspybExperimentType ispyb_experiment_type</text><line style="stroke:#181818;stroke-width:0.5;" x1="523.75" x2="854.082" y1="949.4175" y2="949.4175"/></g><!--class LoadCentreCollect--><g class="entity" data-entity="LoadCentreCollect" data-source-line="82" data-uid="ent0019" id="entity_LoadCentreCollect"><rect fill="#F1F1F1" height="80.5938" rx="2.5" ry="2.5" style="stroke:#181818;stroke-width:0.5;" width="338.6211" x="149.6" y="868.6769"/><ellipse cx="250.225" cy="884.6769" fill="#ADD1B2" rx="11" ry="11" style="stroke:#181818;stroke-width:1;"/><path d="M253.1938,890.3175 Q252.6156,890.6144 251.975,890.755 Q251.3344,890.9113 250.6313,890.9113 Q248.1313,890.9113 246.8031,889.2706 Q245.4906,887.6144 245.4906,884.4894 Q245.4906,881.3644 246.8031,879.7081 Q248.1313,878.0519 250.6313,878.0519 Q251.3344,878.0519 251.975,878.2081 Q252.6313,878.3644 253.1938,878.6613 L253.1938,881.38 Q252.5688,880.8019 251.975,880.5363 Q251.3813,880.255 250.7563,880.255 Q249.4125,880.255 248.725,881.3331 Q248.0375,882.3956 248.0375,884.4894 Q248.0375,886.5831 248.725,887.6613 Q249.4125,888.7238 250.7563,888.7238 Q251.3813,888.7238 251.975,888.4581 Q252.5688,888.1769 253.1938,887.5988 L253.1938,890.3175 Z " fill="#000000"/><text fill="#000000" font-family="sans-serif" font-size="14" lengthAdjust="spacing" textLength="128.8711" x="270.725" y="889.5236">LoadCentreCollect</text><line style="stroke:#181818;stroke-width:0.5;" x1="150.6" x2="487.2211" y1="900.6769" y2="900.6769"/><text fill="#000000" font-family="sans-serif" font-size="14" lengthAdjust="spacing" textLength="326.6211" x="155.6" y="917.672">RobotLoadThenCentre robot_load_then_centre</text><text fill="#000000" font-family="sans-serif" font-size="14" lengthAdjust="spacing" textLength="235.0947" x="155.6" y="933.9689">RotationScan multi_rotation_scan</text><line style="stroke:#181818;stroke-width:0.5;" x1="150.6" x2="487.2211" y1="941.2706" y2="941.2706"/></g><!--class GridCommonWithHyperionDetectorParams--><g class="entity" data-entity="GridCommonWithHyperionDetectorParams" data-source-line="86" data-uid="ent0020" id="entity_GridCommonWithHyperionDetectorParams"><rect fill="#F1F1F1" height="48" rx="2.5" ry="2.5" style="stroke:#181818;stroke-width:0.5;" width="333.2188" x="890.3" y="884.9769"/><ellipse cx="905.3" cy="900.9769" fill="#ADD1B2" rx="11" ry="11" style="stroke:#181818;stroke-width:1;"/><path d="M908.2688,906.6175 Q907.6906,906.9144 907.05,907.055 Q906.4094,907.2113 905.7063,907.2113 Q903.2063,907.2113 901.8781,905.5706 Q900.5656,903.9144 900.5656,900.7894 Q900.5656,897.6644 901.8781,896.0081 Q903.2063,894.3519 905.7063,894.3519 Q906.4094,894.3519 907.05,894.5081 Q907.7063,894.6644 908.2688,894.9613 L908.2688,897.68 Q907.6438,897.1019 907.05,896.8363 Q906.4563,896.555 905.8313,896.555 Q904.4875,896.555 903.8,897.6331 Q903.1125,898.6956 903.1125,900.7894 Q903.1125,902.8831 903.8,903.9613 Q904.4875,905.0238 905.8313,905.0238 Q906.4563,905.0238 907.05,904.7581 Q907.6438,904.4769 908.2688,903.8988 L908.2688,906.6175 Z " fill="#000000"/><text fill="#000000" font-family="sans-serif" font-size="14" lengthAdjust="spacing" textLength="301.2188" x="919.3" y="905.8236">GridCommonWithHyperionDetectorParams</text><line style="stroke:#181818;stroke-width:0.5;" x1="891.3" x2="1222.5188" y1="916.9769" y2="916.9769"/><line style="stroke:#181818;stroke-width:0.5;" x1="891.3" x2="1222.5188" y1="924.9769" y2="924.9769"/></g><!--class WithHyperionUDCFeatures--><g class="entity" data-entity="WithHyperionUDCFeatures" data-source-line="88" data-uid="ent0021" id="entity_WithHyperionUDCFeatures"><rect fill="#F1F1F1" height="64.2969" rx="2.5" ry="2.5" style="stroke:#181818;stroke-width:0.5;" width="228.6719" x="257.58" y="695.4869"/><ellipse cx="276.6783" cy="711.4869" fill="#ADD1B2" rx="11" ry="11" style="stroke:#181818;stroke-width:1;"/><path d="M279.6471,717.1275 Q279.069,717.4244 278.4283,717.565 Q277.7877,717.7213 277.0846,717.7213 Q274.5846,717.7213 273.2565,716.0806 Q271.944,714.4244 271.944,711.2994 Q271.944,708.1744 273.2565,706.5181 Q274.5846,704.8619 277.0846,704.8619 Q277.7877,704.8619 278.4283,705.0181 Q279.0846,705.1744 279.6471,705.4713 L279.6471,708.19 Q279.0221,707.6119 278.4283,707.3463 Q277.8346,707.065 277.2096,707.065 Q275.8658,707.065 275.1783,708.1431 Q274.4908,709.2056 274.4908,711.2994 Q274.4908,713.3931 275.1783,714.4713 Q275.8658,715.5338 277.2096,715.5338 Q277.8346,715.5338 278.4283,715.2681 Q279.0221,714.9869 279.6471,714.4088 L279.6471,717.1275 Z " fill="#000000"/><text fill="#000000" font-family="sans-serif" font-size="14" lengthAdjust="spacing" textLength="187.5645" x="291.5891" y="716.3336">WithHyperionUDCFeatures</text><line style="stroke:#181818;stroke-width:0.5;" x1="258.58" x2="485.2519" y1="727.4869" y2="727.4869"/><text fill="#000000" font-family="sans-serif" font-size="14" lengthAdjust="spacing" textLength="216.6719" x="263.58" y="744.482">HyperionFeatureFlags features</text><line style="stroke:#181818;stroke-width:0.5;" x1="258.58" x2="485.2519" y1="751.7838" y2="751.7838"/></g><!--class RotationScan--><g class="entity" data-entity="RotationScan" data-source-line="91" data-uid="ent0022" id="entity_RotationScan"><rect fill="#F1F1F1" height="64.2969" rx="2.5" ry="2.5" style="stroke:#181818;stroke-width:0.5;" width="540.001" x="90.91" y="1017.4169"/><ellipse cx="310.0531" cy="1033.4169" fill="#ADD1B2" rx="11" ry="11" style="stroke:#181818;stroke-width:1;"/><path d="M313.0218,1039.0575 Q312.4437,1039.3544 311.8031,1039.495 Q311.1624,1039.6513 310.4593,1039.6513 Q307.9593,1039.6513 306.6312,1038.0106 Q305.3187,1036.3544 305.3187,1033.2294 Q305.3187,1030.1044 306.6312,1028.4481 Q307.9593,1026.7919 310.4593,1026.7919 Q311.1624,1026.7919 311.8031,1026.9481 Q312.4593,1027.1044 313.0218,1027.4013 L313.0218,1030.12 Q312.3968,1029.5419 311.8031,1029.2763 Q311.2093,1028.995 310.5843,1028.995 Q309.2406,1028.995 308.5531,1030.0731 Q307.8656,1031.1356 307.8656,1033.2294 Q307.8656,1035.3231 308.5531,1036.4013 Q309.2406,1037.4638 310.5843,1037.4638 Q311.2093,1037.4638 311.8031,1037.1981 Q312.3968,1036.9169 313.0218,1036.3388 L313.0218,1039.0575 Z " fill="#000000"/><text fill="#000000" font-family="sans-serif" font-size="14" lengthAdjust="spacing" textLength="93.2148" x="330.5531" y="1038.2636">RotationScan</text><line style="stroke:#181818;stroke-width:0.5;" x1="91.91" x2="629.911" y1="1049.4169" y2="1049.4169"/><line style="stroke:#181818;stroke-width:0.5;" x1="91.91" x2="629.911" y1="1057.4169" y2="1057.4169"/><text fill="#000000" font-family="sans-serif" font-size="14" lengthAdjust="spacing" textLength="528.001" x="96.91" y="1074.412">Annotated[list[RotationScanPerSweep], Len(min_length=1)] rotation_scans</text></g><!--reverse link GridCommonWithHyperionDetectorParams to GridScanWithEdgeDetect--><g class="link" data-entity-1="GridCommonWithHyperionDetectorParams" data-entity-2="GridScanWithEdgeDetect" data-source-line="95" data-uid="lnk23" id="link_GridCommonWithHyperionDetectorParams_GridScanWithEdgeDetect"><path codeLine="95" d="M1055.7195,951.1693 C1054.9795,976.7493 1054.32,999.6769 1053.58,1025.2969" fill="none" id="GridCommonWithHyperionDetectorParams-backto-GridScanWithEdgeDetect" style="stroke:#181818;stroke-width:1;"/><polygon fill="none" points="1056.24,933.1769,1049.722,950.9958,1061.717,951.3428,1056.24,933.1769" style="stroke:#181818;stroke-width:1;"/></g><!--reverse link WithHyperionUDCFeatures to GridScanWithEdgeDetect--><g class="link" data-entity-1="WithHyperionUDCFeatures" data-entity-2="GridScanWithEdgeDetect" data-source-line="96" data-uid="lnk24" id="link_WithHyperionUDCFeatures_GridScanWithEdgeDetect"><path codeLine="96" d="M246.1406,767.0621 C197.0606,787.3121 160.47,812.2469 131.91,860.5269 C109.99,897.5969 102.63,925.8469 131.91,957.4169 C192.07,1022.2969 838.54,1003.5069 925.91,1017.4169 C938.8,1019.4769 952.31,1022.1769 965.51,1025.1369" fill="none" id="WithHyperionUDCFeatures-backto-GridScanWithEdgeDetect" style="stroke:#181818;stroke-width:1;"/><polygon fill="none" points="262.78,760.1969,243.8522,761.5157,248.4291,772.6086,262.78,760.1969" style="stroke:#181818;stroke-width:1;"/></g><!--reverse link GridCommonWithHyperionDetectorParams to PinTipCentreThenXrayCentre--><g class="link" data-entity-1="GridCommonWithHyperionDetectorParams" data-entity-2="PinTipCentreThenXrayCentre" data-source-line="97" data-uid="lnk25" id="link_GridCommonWithHyperionDetectorParams_PinTipCentreThenXrayCentre"><path codeLine="97" d="M996.1272,941.6448 C952.0072,964.6348 900.28,991.5869 851.4,1017.0469" fill="none" id="GridCommonWithHyperionDetectorParams-backto-PinTipCentreThenXrayCentre" style="stroke:#181818;stroke-width:1;"/><polygon fill="none" points="1012.09,933.3269,993.3545,936.3238,998.8998,946.9657,1012.09,933.3269" style="stroke:#181818;stroke-width:1;"/></g><!--reverse link WithHyperionUDCFeatures to PinTipCentreThenXrayCentre--><g class="link" data-entity-1="WithHyperionUDCFeatures" data-entity-2="PinTipCentreThenXrayCentre" data-source-line="98" data-uid="lnk26" id="link_WithHyperionUDCFeatures_PinTipCentreThenXrayCentre"><path codeLine="98" d="M240.055,760.7906 C183.885,780.0706 138.34,806.7369 104.91,860.5269 C82.18,897.1069 76.18,925.3469 104.91,957.4169 C186.06,1048.0069 528.9,997.6969 648.91,1017.4169 C656.63,1018.6869 664.56,1020.1069 672.55,1021.6169" fill="none" id="WithHyperionUDCFeatures-backto-PinTipCentreThenXrayCentre" style="stroke:#181818;stroke-width:1;"/><polygon fill="none" points="257.08,754.9469,238.1071,755.1156,242.0029,766.4656,257.08,754.9469" style="stroke:#181818;stroke-width:1;"/></g><!--reverse link DiffractionExperiment to RotationExperiment--><g class="link" data-entity-1="DiffractionExperiment" data-entity-2="RotationExperiment" data-source-line="99" data-uid="lnk27" id="link_DiffractionExperiment_RotationExperiment"><path codeLine="99" d="M3688.6804,454.3478 C3413.3604,559.2878 2860.23,754.4669 2356.91,832.5269 C2030.97,883.0869 1199.72,815.9369 872.91,860.5269 C867.19,861.3069 861.39,862.2069 855.55,863.1969" fill="none" id="DiffractionExperiment-backto-RotationExperiment" style="stroke:#181818;stroke-width:1;"/><polygon fill="none" points="3705.5,447.9369,3686.5434,448.7412,3690.8173,459.9543,3705.5,447.9369" style="stroke:#181818;stroke-width:1;"/></g><!--reverse link WithHyperionUDCFeatures to RotationExperiment--><g class="link" data-entity-1="WithHyperionUDCFeatures" data-entity-2="RotationExperiment" data-source-line="100" data-uid="lnk28" id="link_WithHyperionUDCFeatures_RotationExperiment"><path codeLine="100" d="M443.1574,768.9487 C492.0774,796.6187 548.38,828.4669 604.42,860.1769" fill="none" id="WithHyperionUDCFeatures-backto-RotationExperiment" style="stroke:#181818;stroke-width:1;"/><polygon fill="none" points="427.49,760.0869,440.2035,774.1711,446.1114,763.7262,427.49,760.0869" style="stroke:#181818;stroke-width:1;"/></g><!--reverse link MxBlueskyParameters to LoadCentreCollect--><g class="link" data-entity-1="MxBlueskyParameters" data-entity-2="LoadCentreCollect" data-source-line="101" data-uid="lnk29" id="link_MxBlueskyParameters_LoadCentreCollect"><path codeLine="101" d="M3787.7719,190.5787 C3755.7119,204.1387 3733.62,212.4369 3697.91,223.7769 C2567.64,582.8769 2274.48,668.6869 1099.91,832.5269 C837.71,869.1069 766.74,821.3869 504.91,860.5269 C491.15,862.5869 476.93,865.2369 462.77,868.2269" fill="none" id="MxBlueskyParameters-backto-LoadCentreCollect" style="stroke:#181818;stroke-width:1;"/><polygon fill="none" points="3804.35,183.5669,3785.4346,185.0527,3790.1092,196.1047,3804.35,183.5669" style="stroke:#181818;stroke-width:1;"/></g><!--reverse link WithVisit to LoadCentreCollect--><g class="link" data-entity-1="WithVisit" data-entity-2="LoadCentreCollect" data-source-line="102" data-uid="lnk30" id="link_WithVisit_LoadCentreCollect"><path codeLine="102" d="M2548.1815,222.6088 C2541.1215,225.3388 2550.86,221.4269 2543.91,223.7769 C2440.94,258.6269 2409.28,245.3769 2304.91,275.7769 C1616.97,476.1469 1490.39,672.7169 791.91,832.5269 C666.98,861.1169 631.15,838.4069 504.91,860.5269 C492.27,862.7469 479.23,865.3669 466.19,868.2269" fill="none" id="WithVisit-backto-LoadCentreCollect" style="stroke:#181818;stroke-width:1;"/><polygon fill="none" points="2564.97,216.1169,2546.0175,217.0126,2550.3454,228.2049,2564.97,216.1169" style="stroke:#181818;stroke-width:1;"/></g><!--reverse link WithSample to LoadCentreCollect--><g class="link" data-entity-1="WithSample" data-entity-2="LoadCentreCollect" data-source-line="103" data-uid="lnk31" id="link_WithSample_LoadCentreCollect"><path codeLine="103" d="M2364.8403,209.7469 C2350.3203,219.3369 2349.22,218.2469 2332.91,223.7769 C1936.29,358.4369 1785.69,132.9969 1391.91,275.7769 C1197.28,346.3569 834.04,748.3069 644.91,832.5269 C586.94,858.3469 566.79,846.4569 504.91,860.5269 C494.27,862.9469 483.31,865.5269 472.28,868.1769" fill="none" id="WithSample-backto-LoadCentreCollect" style="stroke:#181818;stroke-width:1;"/><polygon fill="none" points="2379.86,199.8269,2361.5336,204.7404,2368.147,214.7535,2379.86,199.8269" style="stroke:#181818;stroke-width:1;"/></g><!--reverse link WithCentreSelection to LoadCentreCollect--><g class="link" data-entity-1="WithCentreSelection" data-entity-2="LoadCentreCollect" data-source-line="104" data-uid="lnk32" id="link_WithCentreSelection_LoadCentreCollect"><path codeLine="104" d="M1859.2806,187.6528 C1799.3706,201.4728 1744.57,212.9169 1678.91,223.7769 C1474.62,257.5669 1407.61,197.4869 1215.91,275.7769 C844.03,427.6669 851.43,631.0369 503.91,832.5269 C480.96,845.8369 455.2,857.9269 430.37,868.3469" fill="none" id="WithCentreSelection-backto-LoadCentreCollect" style="stroke:#181818;stroke-width:1;"/><polygon fill="none" points="1876.82,183.6069,1857.932,181.8064,1860.6293,193.4993,1876.82,183.6069" style="stroke:#181818;stroke-width:1;"/></g><!--reverse link WithHyperionUDCFeatures to LoadCentreCollect--><g class="link" data-entity-1="WithHyperionUDCFeatures" data-entity-2="LoadCentreCollect" data-source-line="105" data-uid="lnk33" id="link_WithHyperionUDCFeatures_LoadCentreCollect"><path codeLine="105" d="M357.5777,777.1386 C348.6777,807.2486 340.28,835.6569 330.63,868.3169" fill="none" id="WithHyperionUDCFeatures-backto-LoadCentreCollect" style="stroke:#181818;stroke-width:1;"/><polygon fill="none" points="362.68,759.8769,351.8238,775.4378,363.3316,778.8393,362.68,759.8769" style="stroke:#181818;stroke-width:1;"/></g><!--reverse link GridCommon to GridCommonWithHyperionDetectorParams--><g class="link" data-entity-1="GridCommon" data-entity-2="GridCommonWithHyperionDetectorParams" data-source-line="106" data-uid="lnk34" id="link_GridCommon_GridCommonWithHyperionDetectorParams"><path codeLine="106" d="M3687.9121,782.6511 C3610.3921,803.4011 3533.89,820.7669 3447.91,832.5269 C3017.4,891.4069 1693.21,904.4369 1223.93,907.2369" fill="none" id="GridCommon-backto-GridCommonWithHyperionDetectorParams" style="stroke:#181818;stroke-width:1;"/><polygon fill="none" points="3705.3,777.9969,3686.3607,776.8552,3689.4636,788.4471,3705.3,777.9969" style="stroke:#181818;stroke-width:1;"/></g><!--reverse link WithHyperionUDCFeatures to GridCommonWithHyperionDetectorParams--><g class="link" data-entity-1="WithHyperionUDCFeatures" data-entity-2="GridCommonWithHyperionDetectorParams" data-source-line="107" data-uid="lnk35" id="link_WithHyperionUDCFeatures_GridCommonWithHyperionDetectorParams"><path codeLine="107" d="M503.9733,763.2151 C639.2833,798.6351 843.99,852.2269 967.31,884.5169" fill="none" id="WithHyperionUDCFeatures-backto-GridCommonWithHyperionDetectorParams" style="stroke:#181818;stroke-width:1;"/><polygon fill="none" points="486.56,758.6569,502.4539,769.0196,505.4927,757.4107,486.56,758.6569" style="stroke:#181818;stroke-width:1;"/></g><!--reverse link MxBlueskyParameters to DiffractionExperiment--><g class="link" data-entity-1="MxBlueskyParameters" data-entity-2="DiffractionExperiment" data-source-line="108" data-uid="lnk36" id="link_MxBlueskyParameters_DiffractionExperiment"><path codeLine="108" d="M3874.2673,201.2954 C3873.9573,225.2754 3873.73,241.8669 3873.29,275.3869" fill="none" id="MxBlueskyParameters-backto-DiffractionExperiment" style="stroke:#181818;stroke-width:1;"/><polygon fill="none" points="3874.5,183.2969,3868.2678,201.2178,3880.2668,201.3729,3874.5,183.2969" style="stroke:#181818;stroke-width:1;"/></g><!--reverse link WithSnapshot to DiffractionExperiment--><g class="link" data-entity-1="WithSnapshot" data-entity-2="DiffractionExperiment" data-source-line="109" data-uid="lnk37" id="link_WithSnapshot_DiffractionExperiment"><path codeLine="109" d="M3404.8583,207.1245 C3423.6083,215.3045 3426.52,216.3469 3444.91,223.7769 C3530.1,258.2069 3626.08,293.6769 3705.43,322.1169" fill="none" id="WithSnapshot-backto-DiffractionExperiment" style="stroke:#181818;stroke-width:1;"/><polygon fill="none" points="3388.36,199.9269,3402.4591,212.624,3407.2575,201.6251,3388.36,199.9269" style="stroke:#181818;stroke-width:1;"/></g><!--reverse link WithOptionalEnergyChange to DiffractionExperiment--><g class="link" data-entity-1="WithOptionalEnergyChange" data-entity-2="DiffractionExperiment" data-source-line="110" data-uid="lnk38" id="link_WithOptionalEnergyChange_DiffractionExperiment"><path codeLine="110" d="M3052.5335,192.4685 C3077.1535,206.5185 3091.96,213.3069 3120.91,223.7769 C3315.67,294.1969 3550.92,336.8069 3705.61,359.4069" fill="none" id="WithOptionalEnergyChange-backto-DiffractionExperiment" style="stroke:#181818;stroke-width:1;"/><polygon fill="none" points="3036.9,183.5469,3049.5596,197.6796,3055.5073,187.2573,3036.9,183.5469" style="stroke:#181818;stroke-width:1;"/></g><!--reverse link WithVisit to DiffractionExperiment--><g class="link" data-entity-1="WithVisit" data-entity-2="DiffractionExperiment" data-source-line="111" data-uid="lnk39" id="link_WithVisit_DiffractionExperiment"><path codeLine="111" d="M2845.1693,222.3648 C2852.7493,225.1448 2843.43,221.5169 2850.91,223.7769 C3007.31,271.1369 3458.49,330.3769 3705.47,360.5769" fill="none" id="WithVisit-backto-DiffractionExperiment" style="stroke:#181818;stroke-width:1;"/><polygon fill="none" points="2828.27,216.1669,2843.1033,227.9979,2847.2353,216.7317,2828.27,216.1669" style="stroke:#181818;stroke-width:1;"/></g><!--reverse link DiffractionExperimentWithSample to GridCommon--><g class="link" data-entity-1="DiffractionExperimentWithSample" data-entity-2="GridCommon" data-source-line="112" data-uid="lnk40" id="link_DiffractionExperimentWithSample_GridCommon"><path codeLine="112" d="M3871.91,612.9369 C3871.91,628.8869 3871.91,633.0069 3871.91,654.5669" fill="none" id="DiffractionExperimentWithSample-backto-GridCommon" style="stroke:#181818;stroke-width:1;"/><polygon fill="none" points="3871.91,594.9369,3865.91,612.9369,3877.91,612.9369,3871.91,594.9369" style="stroke:#181818;stroke-width:1;"/></g><!--reverse link OptionalGonioAngleStarts to GridCommon--><g class="link" data-entity-1="OptionalGonioAngleStarts" data-entity-2="GridCommon" data-source-line="113" data-uid="lnk41" id="link_OptionalGonioAngleStarts_GridCommon"><path codeLine="113" d="M3670.8373,216.5016 C3682.2573,222.5316 3678.17,219.5769 3689.91,223.7769 C3767.26,251.4569 4002.06,213.7369 4055.91,275.7769 C4149.27,383.3469 4101.7,474.7869 4024.91,594.7469 C4010.92,616.6069 3992.23,636.8469 3972.73,654.5769" fill="none" id="OptionalGonioAngleStarts-backto-GridCommon" style="stroke:#181818;stroke-width:1;"/><polygon fill="none" points="3654.92,208.0969,3668.0358,221.8073,3673.6389,211.1958,3654.92,208.0969" style="stroke:#181818;stroke-width:1;"/></g><!--reverse link WithPandaGridScan to WithHyperionUDCFeatures--><g class="link" data-entity-1="WithPandaGridScan" data-entity-2="WithHyperionUDCFeatures" data-source-line="114" data-uid="lnk42" id="link_WithPandaGridScan_WithHyperionUDCFeatures"><path codeLine="114" d="M1475.4566,192.631 C1450.0366,207.251 1433.66,214.4369 1402.91,223.7769 C1202.24,284.7369 1127.62,195.4169 933.91,275.7769 C693.88,375.3669 473.31,610.2369 398.7,695.2369" fill="none" id="WithPandaGridScan-backto-WithHyperionUDCFeatures" style="stroke:#181818;stroke-width:1;"/><polygon fill="none" points="1491.06,183.6569,1472.4653,187.4298,1478.448,197.8321,1491.06,183.6569" style="stroke:#181818;stroke-width:1;"/></g><!--reverse link RotationExperiment to RotationScan--><g class="link" data-entity-1="RotationExperiment" data-entity-2="RotationScan" data-source-line="115" data-uid="lnk43" id="link_RotationExperiment_RotationScan"><path codeLine="115" d="M558.9895,964.873 C512.6995,984.433 477.02,999.5069 435.65,1016.9869" fill="none" id="RotationExperiment-backto-RotationScan" style="stroke:#181818;stroke-width:1;"/><polygon fill="none" points="575.57,957.8669,556.6541,959.3462,561.3249,970.3999,575.57,957.8669" style="stroke:#181818;stroke-width:1;"/></g><!--reverse link SplitScan to RotationScan--><g class="link" data-entity-1="SplitScan" data-entity-2="RotationScan" data-source-line="116" data-uid="lnk44" id="link_SplitScan_RotationScan"><path codeLine="116" d="M1270.2793,158.4279 C1032.4793,182.2079 22.91,298.8069 22.91,569.7469 C22.91,569.7469 22.91,569.7469 22.91,728.6369 C22.91,833.1169 6,880.6969 76.91,957.4169 C101.95,984.5169 135.05,1003.5869 169.79,1017.0069" fill="none" id="SplitScan-backto-RotationScan" style="stroke:#181818;stroke-width:1;"/><polygon fill="none" points="1288.19,156.6369,1269.6823,152.4577,1270.8764,164.3982,1288.19,156.6369" style="stroke:#181818;stroke-width:1;"/></g><!--reverse link DiffractionExperiment to DiffractionExperimentWithSample--><g class="link" data-entity-1="DiffractionExperiment" data-entity-2="DiffractionExperimentWithSample" data-source-line="117" data-uid="lnk45" id="link_DiffractionExperiment_DiffractionExperimentWithSample"><path codeLine="117" d="M3871.91,505.2469 C3871.91,527.4969 3871.91,530.8969 3871.91,546.3269" fill="none" id="DiffractionExperiment-backto-DiffractionExperimentWithSample" style="stroke:#181818;stroke-width:1;"/><polygon fill="none" points="3871.91,487.2469,3865.91,505.2469,3877.91,505.2469,3871.91,487.2469" style="stroke:#181818;stroke-width:1;"/></g><!--reverse link WithSample to DiffractionExperimentWithSample--><g class="link" data-entity-1="WithSample" data-entity-2="DiffractionExperimentWithSample" data-source-line="118" data-uid="lnk46" id="link_WithSample_DiffractionExperimentWithSample"><path codeLine="118" d="M2516.2703,209.7038 C2529.8803,218.5338 2529.44,217.2269 2543.91,223.7769 C2957.15,410.7669 3490.18,510.9769 3736.31,550.0569" fill="none" id="WithSample-backto-DiffractionExperimentWithSample" style="stroke:#181818;stroke-width:1;"/><polygon fill="none" points="2501.17,199.9069,2513.0047,214.7372,2519.536,204.6703,2501.17,199.9069" style="stroke:#181818;stroke-width:1;"/></g><!--SRC=[bLPBRziu43wRluAttGKs0NhV7b8dwHPeMgFsfWMAWA2biKI48WcIIkrryzyx92NPYcGvXGyMv_tuPiW_LgLmT2CaKFpdjTSN1IYmt4DErplQ7fYHNFcwafTcHuWN7XN-tHcmGYkwu9PNuC7IEvs390uyLKXnXcUm18DihorLMW4XI7la1T1gozQo1lUukynqLMbrQLepZkw9rmNu4atkIIQvS_IhyELISUDAxVTajk2-fAuvirnOoD37ZioaSFxxHchk7-XF-Wbz7iHq1GLtB8U2pDPQIrexO8KLEMj577bk_2sD57wPSRNlI2641LSvVuygYJMBdgW9L6PhLHkCnNckCc1LrTEy5qw4o9stT0syaWBB4KzFWPC-S_3H0FEQ1I6MQVK45el236QSX8HoICBACsDX8xPj54swQ2CMusGadqrGvl86UrlivYLN1Um7HYhCYK4KOV3KCx3abP51HIXFNJmmaQTZM_D4DNNsE4eNgcTn3ifRn8h4o34sDBtIvjExtHtVpdMjVCT1EttEhROtF6j2EeYv-CMoQFVGrJRrzre9VQKALF7SUlSo_OWKvW8lmQN7DQKuoSicU8_Sc6Ehp_WR0FrQR3QMnonkjc72AioXmKqOL1P6gpKCMwDTRO5v56CkIOLvGXsieHL50JPC9VNfcrLuw7K4KSjKNQt1ajaL-lDexfxZQ7OjYwM4dF66sphtbYjN2US254FCPFR1cTtw4FOALmGk5gGnw8ZC8pL5wX2ck0oEvxURIwj52hRjtTtsNLeOtRu9RLi6e7gHtUCnDBxR8b5PigT4xwo4sPt7XTFrVAstp8d_WTLLIufBuOV8VNb471JxDxBzpSeAm_HcWuiqk7-UGiRnF3x7tyY6BPjLtT-nXuA4PHOCtUG5NCVrSTXw2w5MmgG1NPMWlbc-IwVzTBXVjES352S5LzO-j4WRK48LNK4JrpQAJAZCGYnYdANNbxiDuQFcUOfrhgMCQSs-wBNsWH6IIKpqY3I6pdE6iwYQjH5aKoIXFhIgfHUi2yuXRGHLeOpjpNZTRE88MDU_I5gP_wxdjy13ymEQMsf3kfMymEkvuGygszn1Lqe50kJVu-Ltp5s0NVu0C0z_qu-W_go4OX9KuSktR_vweBrSN0JFQnAX__oyk3Y16t8YjqcTrpiz3SPfnnDwerELj8O8dlOo8Z-oj9Bi09gaUoHC2QHHdv9uSPLEYPvCP2X-QD6Xa-TQTXuBPosSBDzeryZn8_6StDWhw9pEKNl6XSwiw9UParFlaO7WuEsP94vKc0oHs4Tei42w9-u8Rs8gpkGuWEaP-Ly0]--></g></svg>