<svg xmlns="http://www.w3.org/2000/svg" xmlns:xlink="http://www.w3.org/1999/xlink" contentStyleType="text/css" data-diagram-type="CLASS" height="1127px" preserveAspectRatio="none" style="width:2535px;height:1127px;background:#FFFFFF;" version="1.1" viewBox="0 0 2535 1127" width="2535px" zoomAndPan="magnify"><title>Hyperion Parameter Model</title><defs/><g><g class="title" data-source-line="3"><text fill="#000000" font-family="sans-serif" font-size="14" font-weight="bold" lengthAdjust="spacing" textLength="212.4951" x="1154.2524" y="22.9951">Hyperion Parameter Model</text></g><!--cluster mx_bluesky.common.parameters--><g class="cluster" data-entity="mx_bluesky.common.parameters" data-source-line="6" data-uid="ent0002" id="cluster_mx_bluesky.common.parameters"><path d="M8.5,43.2969 L269.8125,43.2969 A3.75,3.75 0 0 1 272.3125,45.7969 L279.3125,65.5938 L2525.5,65.5938 A2.5,2.5 0 0 1 2528,68.0938 L2528,822.0269 A2.5,2.5 0 0 1 2525.5,824.5269 L8.5,824.5269 A2.5,2.5 0 0 1 6,822.0269 L6,45.7969 A2.5,2.5 0 0 1 8.5,43.2969" fill="none" style="stroke:#000000;stroke-width:1.5;"/><line style="stroke:#000000;stroke-width:1.5;" x1="6" x2="279.3125" y1="65.5938" y2="65.5938"/><text fill="#000000" font-family="sans-serif" font-size="14" font-weight="bold" lengthAdjust="spacing" textLength="260.3125" x="10" y="58.292">mx_bluesky.common.parameters</text></g><!--cluster mx_bluesky.hyperion.parameters--><g class="cluster" data-entity="mx_bluesky.hyperion.parameters" data-source-line="68" data-uid="ent0014" id="cluster_mx_bluesky.hyperion.parameters"><path d="M452.5,848.5269 L717.0322,848.5269 A3.75,3.75 0 0 1 719.5322,851.0269 L726.5322,870.8238 L1553.5,870.8238 A2.5,2.5 0 0 1 1556,873.3238 L1556,1118.2169 A2.5,2.5 0 0 1 1553.5,1120.7169 L452.5,1120.7169 A2.5,2.5 0 0 1 450,1118.2169 L450,851.0269 A2.5,2.5 0 0 1 452.5,848.5269" fill="none" style="stroke:#000000;stroke-width:1.5;"/><line style="stroke:#000000;stroke-width:1.5;" x1="450" x2="726.5322" y1="870.8238" y2="870.8238"/><text fill="#000000" font-family="sans-serif" font-size="14" font-weight="bold" lengthAdjust="spacing" textLength="263.5322" x="454" y="863.522">mx_bluesky.hyperion.parameters</text></g><!--class WithCentreSelection--><g class="entity" data-entity="WithCentreSelection" data-source-line="8" data-uid="ent0003" id="entity_WithCentreSelection"><rect fill="#F1F1F1" height="64.2969" rx="2.5" ry="2.5" style="stroke:#181818;stroke-width:0.5;" width="618.6689" x="1752.67" y="118.8869"/><ellipse cx="1985.8883" cy="134.8869" fill="#ADD1B2" rx="11" ry="11" style="stroke:#181818;stroke-width:1;"/><path d="M1988.857,140.5275 Q1988.2789,140.8244 1987.6383,140.965 Q1986.9976,141.1213 1986.2945,141.1213 Q1983.7945,141.1213 1982.4664,139.4806 Q1981.1539,137.8244 1981.1539,134.6994 Q1981.1539,131.5744 1982.4664,129.9181 Q1983.7945,128.2619 1986.2945,128.2619 Q1986.9976,128.2619 1987.6383,128.4181 Q1988.2945,128.5744 1988.857,128.8713 L1988.857,131.59 Q1988.232,131.0119 1987.6383,130.7463 Q1987.0445,130.465 1986.4195,130.465 Q1985.0758,130.465 1984.3883,131.5431 Q1983.7008,132.6056 1983.7008,134.6994 Q1983.7008,136.7931 1984.3883,137.8713 Q1985.0758,138.9338 1986.4195,138.9338 Q1987.0445,138.9338 1987.6383,138.6681 Q1988.232,138.3869 1988.857,137.8088 L1988.857,140.5275 Z " fill="#000000"/><text fill="#000000" font-family="sans-serif" font-size="14" lengthAdjust="spacing" textLength="143.7324" x="2006.3883" y="139.7336">WithCentreSelection</text><line style="stroke:#181818;stroke-width:0.5;" x1="1753.67" x2="2370.3389" y1="150.8869" y2="150.8869"/><text fill="#000000" font-family="sans-serif" font-size="14" lengthAdjust="spacing" textLength="606.6689" x="1758.67" y="167.882">TopNByMaxCountSelection | TopNByMaxCountForEachSampleSelection select_centres</text><line style="stroke:#181818;stroke-width:0.5;" x1="1753.67" x2="2370.3389" y1="175.1838" y2="175.1838"/></g><!--class OptionalGonioAngleStarts--><g class="entity" data-entity="OptionalGonioAngleStarts" data-source-line="11" data-uid="ent0004" id="entity_OptionalGonioAngleStarts"><rect fill="#F1F1F1" height="113.1875" rx="2.5" ry="2.5" style="stroke:#181818;stroke-width:0.5;" width="219.3203" x="980.34" y="94.4469"/><ellipse cx="998.0633" cy="110.4469" fill="#ADD1B2" rx="11" ry="11" style="stroke:#181818;stroke-width:1;"/><path d="M1001.032,116.0875 Q1000.4539,116.3844 999.8133,116.525 Q999.1727,116.6813 998.4695,116.6813 Q995.9695,116.6813 994.6414,115.0406 Q993.3289,113.3844 993.3289,110.2594 Q993.3289,107.1344 994.6414,105.4781 Q995.9695,103.8219 998.4695,103.8219 Q999.1727,103.8219 999.8133,103.9781 Q1000.4695,104.1344 1001.032,104.4313 L1001.032,107.15 Q1000.407,106.5719 999.8133,106.3063 Q999.2195,106.025 998.5945,106.025 Q997.2508,106.025 996.5633,107.1031 Q995.8758,108.1656 995.8758,110.2594 Q995.8758,112.3531 996.5633,113.4313 Q997.2508,114.4938 998.5945,114.4938 Q999.2195,114.4938 999.8133,114.2281 Q1000.407,113.9469 1001.032,113.3688 L1001.032,116.0875 Z " fill="#000000"/><text fill="#000000" font-family="sans-serif" font-size="14" lengthAdjust="spacing" textLength="181.2686" x="1012.6685" y="115.2936">OptionalGonioAngleStarts</text><line style="stroke:#181818;stroke-width:0.5;" x1="981.34" x2="1198.6603" y1="126.4469" y2="126.4469"/><text fill="#000000" font-family="sans-serif" font-size="14" lengthAdjust="spacing" textLength="207.3203" x="986.34" y="143.442">float | None omega_start_deg</text><text fill="#000000" font-family="sans-serif" font-size="14" lengthAdjust="spacing" textLength="180.6875" x="986.34" y="159.7389">float | None phi_start_deg</text><text fill="#000000" font-family="sans-serif" font-size="14" lengthAdjust="spacing" textLength="179.498" x="986.34" y="176.0357">float | None chi_start_deg</text><text fill="#000000" font-family="sans-serif" font-size="14" lengthAdjust="spacing" textLength="202.0771" x="986.34" y="192.3326">float | None kappa_start_deg</text><line style="stroke:#181818;stroke-width:0.5;" x1="981.34" x2="1198.6603" y1="199.6344" y2="199.6344"/></g><!--class WithVisit--><g class="entity" data-entity="WithVisit" data-source-line="17" data-uid="ent0005" id="entity_WithVisit"><rect fill="#F1F1F1" height="129.4844" rx="2.5" ry="2.5" style="stroke:#181818;stroke-width:0.5;" width="271.7861" x="1235.11" y="86.2969"/><ellipse cx="1335.6359" cy="102.2969" fill="#ADD1B2" rx="11" ry="11" style="stroke:#181818;stroke-width:1;"/><path d="M1338.6046,107.9375 Q1338.0265,108.2344 1337.3859,108.375 Q1336.7453,108.5313 1336.0421,108.5313 Q1333.5421,108.5313 1332.214,106.8906 Q1330.9015,105.2344 1330.9015,102.1094 Q1330.9015,98.9844 1332.214,97.3281 Q1333.5421,95.6719 1336.0421,95.6719 Q1336.7453,95.6719 1337.3859,95.8281 Q1338.0421,95.9844 1338.6046,96.2813 L1338.6046,99 Q1337.9796,98.4219 1337.3859,98.1563 Q1336.7921,97.875 1336.1671,97.875 Q1334.8234,97.875 1334.1359,98.9531 Q1333.4484,100.0156 1333.4484,102.1094 Q1333.4484,104.2031 1334.1359,105.2813 Q1334.8234,106.3438 1336.1671,106.3438 Q1336.7921,106.3438 1337.3859,106.0781 Q1337.9796,105.7969 1338.6046,105.2188 L1338.6046,107.9375 Z " fill="#000000"/><text fill="#000000" font-family="sans-serif" font-size="14" lengthAdjust="spacing" textLength="62.2344" x="1356.1359" y="107.1436">WithVisit</text><line style="stroke:#181818;stroke-width:0.5;" x1="1236.11" x2="1505.8961" y1="118.2969" y2="118.2969"/><text fill="#000000" font-family="sans-serif" font-size="14" lengthAdjust="spacing" textLength="87.9717" x="1241.11" y="135.292">str beamline</text><text fill="#000000" font-family="sans-serif" font-size="14" lengthAdjust="spacing" textLength="51.8369" x="1241.11" y="151.5889">str visit</text><text fill="#000000" font-family="sans-serif" font-size="14" lengthAdjust="spacing" textLength="259.7861" x="1241.11" y="167.8857">str det_dist_to_beam_converter_path</text><text fill="#000000" font-family="sans-serif" font-size="14" lengthAdjust="spacing" textLength="131.5918" x="1241.11" y="184.1826">str insertion_prefix</text><text fill="#000000" font-family="sans-serif" font-size="14" lengthAdjust="spacing" textLength="245.752" x="1241.11" y="200.4795">float | None detector_distance_mm</text><line style="stroke:#181818;stroke-width:0.5;" x1="1236.11" x2="1505.8961" y1="207.7813" y2="207.7813"/></g><!--class SplitScan--><g class="entity" data-entity="SplitScan" data-source-line="24" data-uid="ent0006" id="entity_SplitScan"><rect fill="#F1F1F1" height="48" rx="2.5" ry="2.5" style="stroke:#181818;stroke-width:0.5;" width="97.0781" x="2406.46" y="127.0369"/><ellipse cx="2421.46" cy="143.0369" fill="#ADD1B2" rx="11" ry="11" style="stroke:#181818;stroke-width:1;"/><path d="M2424.4288,148.6775 Q2423.8506,148.9744 2423.21,149.115 Q2422.5694,149.2713 2421.8663,149.2713 Q2419.3663,149.2713 2418.0381,147.6306 Q2416.7256,145.9744 2416.7256,142.8494 Q2416.7256,139.7244 2418.0381,138.0681 Q2419.3663,136.4119 2421.8663,136.4119 Q2422.5694,136.4119 2423.21,136.5681 Q2423.8663,136.7244 2424.4288,137.0213 L2424.4288,139.74 Q2423.8038,139.1619 2423.21,138.8963 Q2422.6163,138.615 2421.9913,138.615 Q2420.6475,138.615 2419.96,139.6931 Q2419.2725,140.7556 2419.2725,142.8494 Q2419.2725,144.9431 2419.96,146.0213 Q2420.6475,147.0838 2421.9913,147.0838 Q2422.6163,147.0838 2423.21,146.8181 Q2423.8038,146.5369 2424.4288,145.9588 L2424.4288,148.6775 Z " fill="#000000"/><text fill="#000000" font-family="sans-serif" font-size="14" lengthAdjust="spacing" textLength="65.0781" x="2435.46" y="147.8836">SplitScan</text><line style="stroke:#181818;stroke-width:0.5;" x1="2407.46" x2="2502.5381" y1="159.0369" y2="159.0369"/><line style="stroke:#181818;stroke-width:0.5;" x1="2407.46" x2="2502.5381" y1="167.0369" y2="167.0369"/></g><!--class WithSnapshot--><g class="entity" data-entity="WithSnapshot" data-source-line="26" data-uid="ent0007" id="entity_WithSnapshot"><rect fill="#F1F1F1" height="96.8906" rx="2.5" ry="2.5" style="stroke:#181818;stroke-width:0.5;" width="289.3477" x="386.33" y="102.5869"/><ellipse cx="477.9828" cy="118.5869" fill="#ADD1B2" rx="11" ry="11" style="stroke:#181818;stroke-width:1;"/><path d="M480.9516,124.2275 Q480.3735,124.5244 479.7328,124.665 Q479.0922,124.8212 478.3891,124.8212 Q475.8891,124.8212 474.561,123.1806 Q473.2485,121.5244 473.2485,118.3994 Q473.2485,115.2744 474.561,113.6181 Q475.8891,111.9619 478.3891,111.9619 Q479.0922,111.9619 479.7328,112.1181 Q480.3891,112.2744 480.9516,112.5712 L480.9516,115.29 Q480.3266,114.7119 479.7328,114.4462 Q479.1391,114.165 478.5141,114.165 Q477.1703,114.165 476.4828,115.2431 Q475.7953,116.3056 475.7953,118.3994 Q475.7953,120.4931 476.4828,121.5712 Q477.1703,122.6337 478.5141,122.6337 Q479.1391,122.6337 479.7328,122.3681 Q480.3266,122.0869 480.9516,121.5087 L480.9516,124.2275 Z " fill="#000000"/><text fill="#000000" font-family="sans-serif" font-size="14" lengthAdjust="spacing" textLength="97.542" x="498.4828" y="123.4336">WithSnapshot</text><line style="stroke:#181818;stroke-width:0.5;" x1="387.33" x2="674.6777" y1="134.5869" y2="134.5869"/><text fill="#000000" font-family="sans-serif" font-size="14" lengthAdjust="spacing" textLength="169.627" x="392.33" y="151.582">Path snapshot_directory</text><text fill="#000000" font-family="sans-serif" font-size="14" lengthAdjust="spacing" textLength="277.3477" x="392.33" y="167.8789">list[float] | None snapshot_omegas_deg</text><text fill="#000000" font-family="sans-serif" font-size="14" lengthAdjust="spacing" textLength="171.7051" x="392.33" y="184.1757">bool use_grid_snapshots</text><line style="stroke:#181818;stroke-width:0.5;" x1="387.33" x2="674.6777" y1="191.4775" y2="191.4775"/></g><!--class WithSample--><g class="entity" data-entity="WithSample" data-source-line="31" data-uid="ent0008" id="entity_WithSample"><rect fill="#F1F1F1" height="96.8906" rx="2.5" ry="2.5" style="stroke:#181818;stroke-width:0.5;" width="176.3086" x="1541.85" y="102.5869"/><ellipse cx="1583.7243" cy="118.5869" fill="#ADD1B2" rx="11" ry="11" style="stroke:#181818;stroke-width:1;"/><path d="M1586.6931,124.2275 Q1586.1149,124.5244 1585.4743,124.665 Q1584.8337,124.8212 1584.1306,124.8212 Q1581.6306,124.8212 1580.3024,123.1806 Q1578.9899,121.5244 1578.9899,118.3994 Q1578.9899,115.2744 1580.3024,113.6181 Q1581.6306,111.9619 1584.1306,111.9619 Q1584.8337,111.9619 1585.4743,112.1181 Q1586.1306,112.2744 1586.6931,112.5712 L1586.6931,115.29 Q1586.0681,114.7119 1585.4743,114.4462 Q1584.8806,114.165 1584.2556,114.165 Q1582.9118,114.165 1582.2243,115.2431 Q1581.5368,116.3056 1581.5368,118.3994 Q1581.5368,120.4931 1582.2243,121.5712 Q1582.9118,122.6337 1584.2556,122.6337 Q1584.8806,122.6337 1585.4743,122.3681 Q1586.0681,122.0869 1586.6931,121.5087 L1586.6931,124.2275 Z " fill="#000000"/><text fill="#000000" font-family="sans-serif" font-size="14" lengthAdjust="spacing" textLength="84.5879" x="1603.6964" y="123.4336">WithSample</text><line style="stroke:#181818;stroke-width:0.5;" x1="1542.85" x2="1717.1586" y1="134.5869" y2="134.5869"/><text fill="#000000" font-family="sans-serif" font-size="14" lengthAdjust="spacing" textLength="93.3789" x="1547.85" y="151.582">int sample_id</text><text fill="#000000" font-family="sans-serif" font-size="14" lengthAdjust="spacing" textLength="164.3086" x="1547.85" y="167.8789">int | None sample_puck</text><text fill="#000000" font-family="sans-serif" font-size="14" lengthAdjust="spacing" textLength="152.3936" x="1547.85" y="184.1757">int | None sample_pin</text><line style="stroke:#181818;stroke-width:0.5;" x1="1542.85" x2="1717.1586" y1="191.4775" y2="191.4775"/></g><!--class WithOptionalEnergyChange--><g class="entity" data-entity="WithOptionalEnergyChange" data-source-line="36" data-uid="ent0009" id="entity_WithOptionalEnergyChange"><rect fill="#F1F1F1" height="64.2969" rx="2.5" ry="2.5" style="stroke:#181818;stroke-width:0.5;" width="235.4463" x="710.28" y="118.8869"/><ellipse cx="729.4645" cy="134.8869" fill="#ADD1B2" rx="11" ry="11" style="stroke:#181818;stroke-width:1;"/><path d="M732.4332,140.5275 Q731.8551,140.8244 731.2145,140.965 Q730.5738,141.1213 729.8707,141.1213 Q727.3707,141.1213 726.0426,139.4806 Q724.7301,137.8244 724.7301,134.6994 Q724.7301,131.5744 726.0426,129.9181 Q727.3707,128.2619 729.8707,128.2619 Q730.5738,128.2619 731.2145,128.4181 Q731.8707,128.5744 732.4332,128.8713 L732.4332,131.59 Q731.8082,131.0119 731.2145,130.7463 Q730.6207,130.465 729.9957,130.465 Q728.652,130.465 727.9645,131.5431 Q727.277,132.6056 727.277,134.6994 Q727.277,136.7931 727.9645,137.8713 Q728.652,138.9338 729.9957,138.9338 Q730.6207,138.9338 731.2145,138.6681 Q731.8082,138.3869 732.4332,137.8088 L732.4332,140.5275 Z " fill="#000000"/><text fill="#000000" font-family="sans-serif" font-size="14" lengthAdjust="spacing" textLength="194.1475" x="744.3944" y="139.7336">WithOptionalEnergyChange</text><line style="stroke:#181818;stroke-width:0.5;" x1="711.28" x2="944.7263" y1="150.8869" y2="150.8869"/><text fill="#000000" font-family="sans-serif" font-size="14" lengthAdjust="spacing" textLength="223.4463" x="716.28" y="167.882">float | None demand_energy_ev</text><line style="stroke:#181818;stroke-width:0.5;" x1="711.28" x2="944.7263" y1="175.1838" y2="175.1838"/></g><!--class GridCommon--><g class="entity" data-entity="GridCommon" data-source-line="41" data-uid="ent0010" id="entity_GridCommon"><rect fill="#F1F1F1" height="145.7813" rx="2.5" ry="2.5" style="stroke:#181818;stroke-width:0.5;" width="332.332" x="29.83" y="654.7469"/><ellipse cx="145.5282" cy="670.7469" fill="#ADD1B2" rx="11" ry="11" style="stroke:#181818;stroke-width:1;"/><path d="M148.497,676.3875 Q147.9189,676.6844 147.2782,676.825 Q146.6376,676.9813 145.9345,676.9813 Q143.4345,676.9813 142.1064,675.3406 Q140.7939,673.6844 140.7939,670.5594 Q140.7939,667.4344 142.1064,665.7781 Q143.4345,664.1219 145.9345,664.1219 Q146.6376,664.1219 147.2782,664.2781 Q147.9345,664.4344 148.497,664.7313 L148.497,667.45 Q147.872,666.8719 147.2782,666.6063 Q146.6845,666.325 146.0595,666.325 Q144.7157,666.325 144.0282,667.4031 Q143.3407,668.4656 143.3407,670.5594 Q143.3407,672.6531 144.0282,673.7313 Q144.7157,674.7938 146.0595,674.7938 Q146.6845,674.7938 147.2782,674.5281 Q147.872,674.2469 148.497,673.6688 L148.497,676.3875 Z " fill="#000000"/><text fill="#000000" font-family="sans-serif" font-size="14" lengthAdjust="spacing" textLength="92.4355" x="166.0282" y="675.5936">GridCommon</text><line style="stroke:#181818;stroke-width:0.5;" x1="30.83" x2="361.162" y1="686.7469" y2="686.7469"/><text fill="#000000" font-family="sans-serif" font-size="14" lengthAdjust="spacing" textLength="125.2959" x="35.83" y="703.742">float box_size_um</text><text fill="#000000" font-family="sans-serif" font-size="14" lengthAdjust="spacing" textLength="138.4209" x="35.83" y="720.0389">float grid_width_um</text><text fill="#000000" font-family="sans-serif" font-size="14" lengthAdjust="spacing" textLength="153.7129" x="35.83" y="736.3357">float exposure_time_s</text><text fill="#000000" font-family="sans-serif" font-size="14" lengthAdjust="spacing" textLength="320.332" x="35.83" y="752.6326">IspybExperimentType ispyb_experiment_type</text><text fill="#000000" font-family="sans-serif" font-size="14" lengthAdjust="spacing" textLength="282.3516" x="35.83" y="768.9295">ApertureValue | None selected_aperture</text><text fill="#000000" font-family="sans-serif" font-size="14" lengthAdjust="spacing" textLength="130.498" x="35.83" y="785.2264">float tip_offset_um</text><line style="stroke:#181818;stroke-width:0.5;" x1="30.83" x2="361.162" y1="792.5281" y2="792.5281"/></g><!--class DiffractionExperiment--><g class="entity" data-entity="DiffractionExperiment" data-source-line="49" data-uid="ent0011" id="entity_DiffractionExperiment"><rect fill="#F1F1F1" height="210.9688" rx="2.5" ry="2.5" style="stroke:#181818;stroke-width:0.5;" width="332.332" x="29.83" y="275.7769"/><ellipse cx="114.6127" cy="291.7769" fill="#ADD1B2" rx="11" ry="11" style="stroke:#181818;stroke-width:1;"/><path d="M117.5815,297.4175 Q117.0033,297.7144 116.3627,297.855 Q115.7221,298.0113 115.019,298.0113 Q112.519,298.0113 111.1908,296.3706 Q109.8783,294.7144 109.8783,291.5894 Q109.8783,288.4644 111.1908,286.8081 Q112.519,285.1519 115.019,285.1519 Q115.7221,285.1519 116.3627,285.3081 Q117.019,285.4644 117.5815,285.7613 L117.5815,288.48 Q116.9565,287.9019 116.3627,287.6363 Q115.769,287.355 115.144,287.355 Q113.8002,287.355 113.1127,288.4331 Q112.4252,289.4956 112.4252,291.5894 Q112.4252,293.6831 113.1127,294.7613 Q113.8002,295.8238 115.144,295.8238 Q115.769,295.8238 116.3627,295.5581 Q116.9565,295.2769 117.5815,294.6988 L117.5815,297.4175 Z " fill="#000000"/><text fill="#000000" font-family="sans-serif" font-size="14" lengthAdjust="spacing" textLength="154.2666" x="135.1127" y="296.6236">DiffractionExperiment</text><line style="stroke:#181818;stroke-width:0.5;" x1="30.83" x2="361.162" y1="307.7769" y2="307.7769"/><text fill="#000000" font-family="sans-serif" font-size="14" lengthAdjust="spacing" textLength="91.0137" x="35.83" y="324.772">str file_name</text><text fill="#000000" font-family="sans-serif" font-size="14" lengthAdjust="spacing" textLength="153.7129" x="35.83" y="341.0689">float exposure_time_s</text><text fill="#000000" font-family="sans-serif" font-size="14" lengthAdjust="spacing" textLength="89.5029" x="35.83" y="357.3657">str comment</text><text fill="#000000" font-family="sans-serif" font-size="14" lengthAdjust="spacing" textLength="186.915" x="35.83" y="373.6626">TriggerMode trigger_mode</text><text fill="#000000" font-family="sans-serif" font-size="14" lengthAdjust="spacing" textLength="157.9854" x="35.83" y="389.9595">int | None run_number</text><text fill="#000000" font-family="sans-serif" font-size="14" lengthAdjust="spacing" textLength="282.3516" x="35.83" y="406.2564">ApertureValue | None selected_aperture</text><text fill="#000000" font-family="sans-serif" font-size="14" lengthAdjust="spacing" textLength="159.2979" x="35.83" y="422.5532">float transmission_frac</text><text fill="#000000" font-family="sans-serif" font-size="14" lengthAdjust="spacing" textLength="320.332" x="35.83" y="438.8501">IspybExperimentType ispyb_experiment_type</text><text fill="#000000" font-family="sans-serif" font-size="14" lengthAdjust="spacing" textLength="146.1113" x="35.83" y="455.147">str storage_directory</text><text fill="#000000" font-family="sans-serif" font-size="14" lengthAdjust="spacing" textLength="131.0518" x="35.83" y="471.4439">bool use_roi_mode</text><line style="stroke:#181818;stroke-width:0.5;" x1="30.83" x2="361.162" y1="478.7456" y2="478.7456"/></g><!--class MxBlueskyParameters--><g class="entity" data-entity="MxBlueskyParameters" data-source-line="61" data-uid="ent0012" id="entity_MxBlueskyParameters"><rect fill="#F1F1F1" height="64.2969" rx="2.5" ry="2.5" style="stroke:#181818;stroke-width:0.5;" width="317.4639" x="34.27" y="118.8869"/><ellipse cx="110.8564" cy="134.8869" fill="#ADD1B2" rx="11" ry="11" style="stroke:#181818;stroke-width:1;"/><path d="M113.8252,140.5275 Q113.2471,140.8244 112.6064,140.965 Q111.9658,141.1213 111.2627,141.1213 Q108.7627,141.1213 107.4346,139.4806 Q106.1221,137.8244 106.1221,134.6994 Q106.1221,131.5744 107.4346,129.9181 Q108.7627,128.2619 111.2627,128.2619 Q111.9658,128.2619 112.6064,128.4181 Q113.2627,128.5744 113.8252,128.8713 L113.8252,131.59 Q113.2002,131.0119 112.6064,130.7463 Q112.0127,130.465 111.3877,130.465 Q110.0439,130.465 109.3564,131.5431 Q108.6689,132.6056 108.6689,134.6994 Q108.6689,136.7931 109.3564,137.8713 Q110.0439,138.9338 111.3877,138.9338 Q112.0127,138.9338 112.6064,138.6681 Q113.2002,138.3869 113.8252,137.8088 L113.8252,140.5275 Z " fill="#000000"/><text fill="#000000" font-family="sans-serif" font-size="14" lengthAdjust="spacing" textLength="155.791" x="131.3564" y="139.7336">MxBlueskyParameters</text><line style="stroke:#181818;stroke-width:0.5;" x1="35.27" x2="350.7339" y1="150.8869" y2="150.8869"/><text fill="#000000" font-family="sans-serif" font-size="14" lengthAdjust="spacing" textLength="305.4639" x="40.27" y="167.882">SemanticVersion parameter_model_version</text><line style="stroke:#181818;stroke-width:0.5;" x1="35.27" x2="350.7339" y1="175.1838" y2="175.1838"/></g><!--class DiffractionExperimentWithSample--><g class="entity" data-entity="DiffractionExperimentWithSample" data-source-line="64" data-uid="ent0013" id="entity_DiffractionExperimentWithSample"><rect fill="#F1F1F1" height="48" rx="2.5" ry="2.5" style="stroke:#181818;stroke-width:0.5;" width="270.8545" x="60.57" y="546.7469"/><ellipse cx="75.57" cy="562.7469" fill="#ADD1B2" rx="11" ry="11" style="stroke:#181818;stroke-width:1;"/><path d="M78.5388,568.3875 Q77.9606,568.6844 77.32,568.825 Q76.6794,568.9813 75.9763,568.9813 Q73.4763,568.9813 72.1481,567.3406 Q70.8356,565.6844 70.8356,562.5594 Q70.8356,559.4344 72.1481,557.7781 Q73.4763,556.1219 75.9763,556.1219 Q76.6794,556.1219 77.32,556.2781 Q77.9763,556.4344 78.5388,556.7313 L78.5388,559.45 Q77.9138,558.8719 77.32,558.6063 Q76.7263,558.325 76.1013,558.325 Q74.7575,558.325 74.07,559.4031 Q73.3825,560.4656 73.3825,562.5594 Q73.3825,564.6531 74.07,565.7313 Q74.7575,566.7938 76.1013,566.7938 Q76.7263,566.7938 77.32,566.5281 Q77.9138,566.2469 78.5388,565.6688 L78.5388,568.3875 Z " fill="#000000"/><text fill="#000000" font-family="sans-serif" font-size="14" lengthAdjust="spacing" textLength="238.8545" x="89.57" y="567.5936">DiffractionExperimentWithSample</text><line style="stroke:#181818;stroke-width:0.5;" x1="61.57" x2="330.4245" y1="578.7469" y2="578.7469"/><line style="stroke:#181818;stroke-width:0.5;" x1="61.57" x2="330.4245" y1="586.7469" y2="586.7469"/></g><!--class RotationScan--><g class="entity" data-entity="RotationScan" data-source-line="69" data-uid="ent0015" id="entity_RotationScan"><rect fill="#F1F1F1" height="64.2969" rx="2.5" ry="2.5" style="stroke:#181818;stroke-width:0.5;" width="540.001" x="995" y="1040.4169"/><ellipse cx="1214.1431" cy="1056.4169" fill="#ADD1B2" rx="11" ry="11" style="stroke:#181818;stroke-width:1;"/><path d="M1217.1118,1062.0575 Q1216.5337,1062.3544 1215.8931,1062.495 Q1215.2524,1062.6513 1214.5493,1062.6513 Q1212.0493,1062.6513 1210.7212,1061.0106 Q1209.4087,1059.3544 1209.4087,1056.2294 Q1209.4087,1053.1044 1210.7212,1051.4481 Q1212.0493,1049.7919 1214.5493,1049.7919 Q1215.2524,1049.7919 1215.8931,1049.9481 Q1216.5493,1050.1044 1217.1118,1050.4013 L1217.1118,1053.12 Q1216.4868,1052.5419 1215.8931,1052.2763 Q1215.2993,1051.995 1214.6743,1051.995 Q1213.3306,1051.995 1212.6431,1053.0731 Q1211.9556,1054.1356 1211.9556,1056.2294 Q1211.9556,1058.3231 1212.6431,1059.4013 Q1213.3306,1060.4638 1214.6743,1060.4638 Q1215.2993,1060.4638 1215.8931,1060.1981 Q1216.4868,1059.9169 1217.1118,1059.3388 L1217.1118,1062.0575 Z " fill="#000000"/><text fill="#000000" font-family="sans-serif" font-size="14" lengthAdjust="spacing" textLength="93.2148" x="1234.6431" y="1061.2636">RotationScan</text><line style="stroke:#181818;stroke-width:0.5;" x1="996" x2="1534.001" y1="1072.4169" y2="1072.4169"/><line style="stroke:#181818;stroke-width:0.5;" x1="996" x2="1534.001" y1="1080.4169" y2="1080.4169"/><text fill="#000000" font-family="sans-serif" font-size="14" lengthAdjust="spacing" textLength="528.001" x="1001" y="1097.412">Annotated[list[RotationScanPerSweep], Len(min_length=1)] rotation_scans</text></g><!--class GridCommonWithHyperionDetectorParams--><g class="entity" data-entity="GridCommonWithHyperionDetectorParams" data-source-line="72" data-uid="ent0016" id="entity_GridCommonWithHyperionDetectorParams"><rect fill="#F1F1F1" height="48" rx="2.5" ry="2.5" style="stroke:#181818;stroke-width:0.5;" width="333.2188" x="466.39" y="907.9769"/><ellipse cx="481.39" cy="923.9769" fill="#ADD1B2" rx="11" ry="11" style="stroke:#181818;stroke-width:1;"/><path d="M484.3588,929.6175 Q483.7806,929.9144 483.14,930.055 Q482.4994,930.2113 481.7963,930.2113 Q479.2963,930.2113 477.9681,928.5706 Q476.6556,926.9144 476.6556,923.7894 Q476.6556,920.6644 477.9681,919.0081 Q479.2963,917.3519 481.7963,917.3519 Q482.4994,917.3519 483.14,917.5081 Q483.7963,917.6644 484.3588,917.9613 L484.3588,920.68 Q483.7338,920.1019 483.14,919.8363 Q482.5463,919.555 481.9213,919.555 Q480.5775,919.555 479.89,920.6331 Q479.2025,921.6956 479.2025,923.7894 Q479.2025,925.8831 479.89,926.9613 Q480.5775,928.0238 481.9213,928.0238 Q482.5463,928.0238 483.14,927.7581 Q483.7338,927.4769 484.3588,926.8988 L484.3588,929.6175 Z " fill="#000000"/><text fill="#000000" font-family="sans-serif" font-size="14" lengthAdjust="spacing" textLength="301.2188" x="495.39" y="928.8236">GridCommonWithHyperionDetectorParams</text><line style="stroke:#181818;stroke-width:0.5;" x1="467.39" x2="798.6088" y1="939.9769" y2="939.9769"/><line style="stroke:#181818;stroke-width:0.5;" x1="467.39" x2="798.6088" y1="947.9769" y2="947.9769"/></g><!--class LoadCentreCollect--><g class="entity" data-entity="LoadCentreCollect" data-source-line="74" data-uid="ent0017" id="entity_LoadCentreCollect"><rect fill="#F1F1F1" height="80.5938" rx="2.5" ry="2.5" style="stroke:#181818;stroke-width:0.5;" width="338.6211" x="1201.69" y="891.6769"/><ellipse cx="1302.315" cy="907.6769" fill="#ADD1B2" rx="11" ry="11" style="stroke:#181818;stroke-width:1;"/><path d="M1305.2838,913.3175 Q1304.7056,913.6144 1304.065,913.755 Q1303.4244,913.9113 1302.7213,913.9113 Q1300.2213,913.9113 1298.8931,912.2706 Q1297.5806,910.6144 1297.5806,907.4894 Q1297.5806,904.3644 1298.8931,902.7081 Q1300.2213,901.0519 1302.7213,901.0519 Q1303.4244,901.0519 1304.065,901.2081 Q1304.7213,901.3644 1305.2838,901.6613 L1305.2838,904.38 Q1304.6588,903.8019 1304.065,903.5363 Q1303.4713,903.255 1302.8463,903.255 Q1301.5025,903.255 1300.815,904.3331 Q1300.1275,905.3956 1300.1275,907.4894 Q1300.1275,909.5831 1300.815,910.6613 Q1301.5025,911.7238 1302.8463,911.7238 Q1303.4713,911.7238 1304.065,911.4581 Q1304.6588,911.1769 1305.2838,910.5988 L1305.2838,913.3175 Z " fill="#000000"/><text fill="#000000" font-family="sans-serif" font-size="14" lengthAdjust="spacing" textLength="128.8711" x="1322.815" y="912.5236">LoadCentreCollect</text><line style="stroke:#181818;stroke-width:0.5;" x1="1202.69" x2="1539.3111" y1="923.6769" y2="923.6769"/><text fill="#000000" font-family="sans-serif" font-size="14" lengthAdjust="spacing" textLength="326.6211" x="1207.69" y="940.672">RobotLoadThenCentre robot_load_then_centre</text><text fill="#000000" font-family="sans-serif" font-size="14" lengthAdjust="spacing" textLength="235.0947" x="1207.69" y="956.9689">RotationScan multi_rotation_scan</text><line style="stroke:#181818;stroke-width:0.5;" x1="1202.69" x2="1539.3111" y1="964.2706" y2="964.2706"/></g><!--class GridScanWithEdgeDetect--><g class="entity" data-entity="GridScanWithEdgeDetect" data-source-line="78" data-uid="ent0018" id="entity_GridScanWithEdgeDetect"><rect fill="#F1F1F1" height="48" rx="2.5" ry="2.5" style="stroke:#181818;stroke-width:0.5;" width="209.4268" x="475.29" y="1048.5669"/><ellipse cx="490.29" cy="1064.5669" fill="#ADD1B2" rx="11" ry="11" style="stroke:#181818;stroke-width:1;"/><path d="M493.2588,1070.2075 Q492.6806,1070.5044 492.04,1070.645 Q491.3994,1070.8013 490.6963,1070.8013 Q488.1963,1070.8013 486.8681,1069.1606 Q485.5556,1067.5044 485.5556,1064.3794 Q485.5556,1061.2544 486.8681,1059.5981 Q488.1963,1057.9419 490.6963,1057.9419 Q491.3994,1057.9419 492.04,1058.0981 Q492.6963,1058.2544 493.2588,1058.5513 L493.2588,1061.27 Q492.6338,1060.6919 492.04,1060.4263 Q491.4463,1060.145 490.8213,1060.145 Q489.4775,1060.145 488.79,1061.2231 Q488.1025,1062.2856 488.1025,1064.3794 Q488.1025,1066.4731 488.79,1067.5513 Q489.4775,1068.6138 490.8213,1068.6138 Q491.4463,1068.6138 492.04,1068.3481 Q492.6338,1068.0669 493.2588,1067.4888 L493.2588,1070.2075 Z " fill="#000000"/><text fill="#000000" font-family="sans-serif" font-size="14" lengthAdjust="spacing" textLength="177.4268" x="504.29" y="1069.4136">GridScanWithEdgeDetect</text><line style="stroke:#181818;stroke-width:0.5;" x1="476.29" x2="683.7168" y1="1080.5669" y2="1080.5669"/><line style="stroke:#181818;stroke-width:0.5;" x1="476.29" x2="683.7168" y1="1088.5669" y2="1088.5669"/></g><!--class PinTipCentreThenXrayCentre--><g class="entity" data-entity="PinTipCentreThenXrayCentre" data-source-line="80" data-uid="ent0019" id="entity_PinTipCentreThenXrayCentre"><rect fill="#F1F1F1" height="64.2969" rx="2.5" ry="2.5" style="stroke:#181818;stroke-width:0.5;" width="235.8955" x="720.05" y="1040.4169"/><ellipse cx="735.05" cy="1056.4169" fill="#ADD1B2" rx="11" ry="11" style="stroke:#181818;stroke-width:1;"/><path d="M738.0188,1062.0575 Q737.4406,1062.3544 736.8,1062.495 Q736.1594,1062.6513 735.4563,1062.6513 Q732.9563,1062.6513 731.6281,1061.0106 Q730.3156,1059.3544 730.3156,1056.2294 Q730.3156,1053.1044 731.6281,1051.4481 Q732.9563,1049.7919 735.4563,1049.7919 Q736.1594,1049.7919 736.8,1049.9481 Q737.4563,1050.1044 738.0188,1050.4013 L738.0188,1053.12 Q737.3938,1052.5419 736.8,1052.2763 Q736.2063,1051.995 735.5813,1051.995 Q734.2375,1051.995 733.55,1053.0731 Q732.8625,1054.1356 732.8625,1056.2294 Q732.8625,1058.3231 733.55,1059.4013 Q734.2375,1060.4638 735.5813,1060.4638 Q736.2063,1060.4638 736.8,1060.1981 Q737.3938,1059.9169 738.0188,1059.3388 L738.0188,1062.0575 Z " fill="#000000"/><text fill="#000000" font-family="sans-serif" font-size="14" lengthAdjust="spacing" textLength="203.8955" x="749.05" y="1061.2636">PinTipCentreThenXrayCentre</text><line style="stroke:#181818;stroke-width:0.5;" x1="721.05" x2="954.9455" y1="1072.4169" y2="1072.4169"/><text fill="#000000" font-family="sans-serif" font-size="14" lengthAdjust="spacing" textLength="130.498" x="726.05" y="1089.412">float tip_offset_um</text><line style="stroke:#181818;stroke-width:0.5;" x1="721.05" x2="954.9455" y1="1096.7138" y2="1096.7138"/></g><!--class RotationExperiment--><g class="entity" data-entity="RotationExperiment" data-source-line="83" data-uid="ent0020" id="entity_RotationExperiment"><rect fill="#F1F1F1" height="96.8906" rx="2.5" ry="2.5" style="stroke:#181818;stroke-width:0.5;" width="332.332" x="834.83" y="883.5269"/><ellipse cx="926.7118" cy="899.5269" fill="#ADD1B2" rx="11" ry="11" style="stroke:#181818;stroke-width:1;"/><path d="M929.6806,905.1675 Q929.1025,905.4644 928.4618,905.605 Q927.8212,905.7613 927.1181,905.7613 Q924.6181,905.7613 923.29,904.1206 Q921.9775,902.4644 921.9775,899.3394 Q921.9775,896.2144 923.29,894.5581 Q924.6181,892.9019 927.1181,892.9019 Q927.8212,892.9019 928.4618,893.0581 Q929.1181,893.2144 929.6806,893.5113 L929.6806,896.23 Q929.0556,895.6519 928.4618,895.3863 Q927.8681,895.105 927.2431,895.105 Q925.8993,895.105 925.2118,896.1831 Q924.5243,897.2456 924.5243,899.3394 Q924.5243,901.4331 925.2118,902.5113 Q925.8993,903.5738 927.2431,903.5738 Q927.8681,903.5738 928.4618,903.3081 Q929.0556,903.0269 929.6806,902.4488 L929.6806,905.1675 Z " fill="#000000"/><text fill="#000000" font-family="sans-serif" font-size="14" lengthAdjust="spacing" textLength="140.0684" x="947.2118" y="904.3736">RotationExperiment</text><line style="stroke:#181818;stroke-width:0.5;" x1="835.83" x2="1166.162" y1="915.5269" y2="915.5269"/><text fill="#000000" font-family="sans-serif" font-size="14" lengthAdjust="spacing" textLength="202.8018" x="840.83" y="932.522">float shutter_opening_time_s</text><text fill="#000000" font-family="sans-serif" font-size="14" lengthAdjust="spacing" textLength="202.9385" x="840.83" y="948.8189">float rotation_increment_deg</text><text fill="#000000" font-family="sans-serif" font-size="14" lengthAdjust="spacing" textLength="320.332" x="840.83" y="965.1157">IspybExperimentType ispyb_experiment_type</text><line style="stroke:#181818;stroke-width:0.5;" x1="835.83" x2="1166.162" y1="972.4175" y2="972.4175"/></g><!--reverse link DiffractionExperimentWithSample to GridCommon--><g class="link" data-entity-1="DiffractionExperimentWithSample" data-entity-2="GridCommon" data-source-line="89" data-uid="lnk21" id="link_DiffractionExperimentWithSample_GridCommon"><path codeLine="89" d="M196,612.9369 C196,628.8869 196,633.0069 196,654.5669" fill="none" id="DiffractionExperimentWithSample-backto-GridCommon" style="stroke:#181818;stroke-width:1;"/><polygon fill="none" points="196,594.9369,190,612.9369,202,612.9369,196,594.9369" style="stroke:#181818;stroke-width:1;"/></g><!--reverse link OptionalGonioAngleStarts to GridCommon--><g class="link" data-entity-1="OptionalGonioAngleStarts" data-entity-2="GridCommon" data-source-line="90" data-uid="lnk22" id="link_OptionalGonioAngleStarts_GridCommon"><path codeLine="90" d="M987.9179,217.6491 C825.0179,322.3491 489.17,538.2069 308.51,654.3269" fill="none" id="OptionalGonioAngleStarts-backto-GridCommon" style="stroke:#181818;stroke-width:1;"/><polygon fill="none" points="1003.06,207.9169,984.6738,212.6017,991.162,222.6965,1003.06,207.9169" style="stroke:#181818;stroke-width:1;"/></g><!--reverse link RotationExperiment to RotationScan--><g class="link" data-entity-1="RotationExperiment" data-entity-2="RotationScan" data-source-line="91" data-uid="lnk23" id="link_RotationExperiment_RotationScan"><path codeLine="91" d="M1108.1574,989.2334 C1145.4174,1008.7934 1171.55,1022.5069 1204.85,1039.9869" fill="none" id="RotationExperiment-backto-RotationScan" style="stroke:#181818;stroke-width:1;"/><polygon fill="none" points="1092.22,980.8669,1105.3686,994.5459,1110.9463,983.9209,1092.22,980.8669" style="stroke:#181818;stroke-width:1;"/></g><!--reverse link SplitScan to RotationScan--><g class="link" data-entity-1="SplitScan" data-entity-2="RotationScan" data-source-line="92" data-uid="lnk24" id="link_SplitScan_RotationScan"><path codeLine="92" d="M2424.431,189.0906 C2411.891,203.8406 2406.28,209.0969 2389,223.7769 C2175.79,404.9869 1863,289.9369 1863,569.7469 C1863,569.7469 1863,569.7469 1863,728.6369 C1863,913.8469 1644.48,1000.4469 1471.64,1039.9869" fill="none" id="SplitScan-backto-RotationScan" style="stroke:#181818;stroke-width:1;"/><polygon fill="none" points="2436.09,175.3769,2419.8597,185.2043,2429.0022,192.977,2436.09,175.3769" style="stroke:#181818;stroke-width:1;"/></g><!--reverse link GridCommon to GridCommonWithHyperionDetectorParams--><g class="link" data-entity-1="GridCommon" data-entity-2="GridCommonWithHyperionDetectorParams" data-source-line="93" data-uid="lnk25" id="link_GridCommon_GridCommonWithHyperionDetectorParams"><path codeLine="93" d="M368.5548,808.5382 C449.4148,845.9682 526.35,881.5969 582.44,907.5669" fill="none" id="GridCommon-backto-GridCommonWithHyperionDetectorParams" style="stroke:#181818;stroke-width:1;"/><polygon fill="none" points="352.22,800.9769,366.0343,813.9832,371.0753,803.0933,352.22,800.9769" style="stroke:#181818;stroke-width:1;"/></g><!--reverse link MxBlueskyParameters to LoadCentreCollect--><g class="link" data-entity-1="MxBlueskyParameters" data-entity-2="LoadCentreCollect" data-source-line="94" data-uid="lnk26" id="link_MxBlueskyParameters_LoadCentreCollect"><path codeLine="94" d="M255.6543,193.4652 C441.8143,316.5652 1105.04,755.1069 1311.17,891.4169" fill="none" id="MxBlueskyParameters-backto-LoadCentreCollect" style="stroke:#181818;stroke-width:1;"/><polygon fill="none" points="240.64,183.5369,252.3448,198.47,258.9637,188.4604,240.64,183.5369" style="stroke:#181818;stroke-width:1;"/></g><!--reverse link WithVisit to LoadCentreCollect--><g class="link" data-entity-1="WithVisit" data-entity-2="LoadCentreCollect" data-source-line="95" data-uid="lnk27" id="link_WithVisit_LoadCentreCollect"><path codeLine="95" d="M1371,234.1069 C1371,389.5069 1371,764.9169 1371,891.2569" fill="none" id="WithVisit-backto-LoadCentreCollect" style="stroke:#181818;stroke-width:1;"/><polygon fill="none" points="1371,216.1069,1365,234.1069,1377,234.1069,1371,216.1069" style="stroke:#181818;stroke-width:1;"/></g><!--reverse link WithSample to LoadCentreCollect--><g class="link" data-entity-1="WithSample" data-entity-2="LoadCentreCollect" data-source-line="96" data-uid="lnk28" id="link_WithSample_LoadCentreCollect"><path codeLine="96" d="M1608.4105,216.9674 C1561.1405,359.1274 1427.79,760.1669 1384.22,891.2169" fill="none" id="WithSample-backto-LoadCentreCollect" style="stroke:#181818;stroke-width:1;"/><polygon fill="none" points="1614.09,199.8869,1602.717,215.0742,1614.104,218.8605,1614.09,199.8869" style="stroke:#181818;stroke-width:1;"/></g><!--reverse link WithCentreSelection to LoadCentreCollect--><g class="link" data-entity-1="WithCentreSelection" data-entity-2="LoadCentreCollect" data-source-line="97" data-uid="lnk29" id="link_WithCentreSelection_LoadCentreCollect"><path codeLine="97" d="M1967.978,191.1426 C1921.718,212.5026 1880.16,236.4369 1837,275.7769 C1616.16,477.1069 1644.43,597.3969 1460,832.5269 C1444.22,852.6569 1425.39,873.8369 1409.12,891.3669" fill="none" id="WithCentreSelection-backto-LoadCentreCollect" style="stroke:#181818;stroke-width:1;"/><polygon fill="none" points="1984.32,183.5969,1965.4627,185.6953,1970.4932,196.59,1984.32,183.5969" style="stroke:#181818;stroke-width:1;"/></g><!--reverse link MxBlueskyParameters to DiffractionExperiment--><g class="link" data-entity-1="MxBlueskyParameters" data-entity-2="DiffractionExperiment" data-source-line="98" data-uid="lnk30" id="link_MxBlueskyParameters_DiffractionExperiment"><path codeLine="98" d="M193.6502,201.2953 C193.9702,225.2753 194.18,241.8669 194.62,275.3869" fill="none" id="MxBlueskyParameters-backto-DiffractionExperiment" style="stroke:#181818;stroke-width:1;"/><polygon fill="none" points="193.41,183.2969,187.6507,201.3753,199.6496,201.2152,193.41,183.2969" style="stroke:#181818;stroke-width:1;"/></g><!--reverse link WithSnapshot to DiffractionExperiment--><g class="link" data-entity-1="WithSnapshot" data-entity-2="DiffractionExperiment" data-source-line="99" data-uid="lnk31" id="link_WithSnapshot_DiffractionExperiment"><path codeLine="99" d="M445.8951,210.0128 C413.5651,232.0428 388.72,248.9669 349.96,275.3769" fill="none" id="WithSnapshot-backto-DiffractionExperiment" style="stroke:#181818;stroke-width:1;"/><polygon fill="none" points="460.77,199.8769,442.5164,205.0545,449.2737,214.9711,460.77,199.8769" style="stroke:#181818;stroke-width:1;"/></g><!--reverse link WithOptionalEnergyChange to DiffractionExperiment--><g class="link" data-entity-1="WithOptionalEnergyChange" data-entity-2="DiffractionExperiment" data-source-line="100" data-uid="lnk32" id="link_WithOptionalEnergyChange_DiffractionExperiment"><path codeLine="100" d="M758.5381,192.2858 C734.2281,205.7658 720.56,212.2869 693,223.7769 C621.25,253.7069 600.17,252.4869 526,275.7769 C472.82,292.4769 414.86,310.7869 362.56,327.3569" fill="none" id="WithOptionalEnergyChange-backto-DiffractionExperiment" style="stroke:#181818;stroke-width:1;"/><polygon fill="none" points="774.28,183.5569,755.6285,187.0385,761.4478,197.5331,774.28,183.5569" style="stroke:#181818;stroke-width:1;"/></g><!--reverse link WithVisit to DiffractionExperiment--><g class="link" data-entity-1="WithVisit" data-entity-2="DiffractionExperiment" data-source-line="101" data-uid="lnk33" id="link_WithVisit_DiffractionExperiment"><path codeLine="101" d="M1223.6501,222.235 C1215.7601,225.055 1224.8,221.5669 1217,223.7769 C1026.72,277.7869 970.64,246.6469 775,275.7769 C635.45,296.5569 477.93,325.3369 362.46,347.4269" fill="none" id="WithVisit-backto-DiffractionExperiment" style="stroke:#181818;stroke-width:1;"/><polygon fill="none" points="1240.6,216.1769,1221.6307,216.585,1225.6695,227.885,1240.6,216.1769" style="stroke:#181818;stroke-width:1;"/></g><!--reverse link DiffractionExperiment to DiffractionExperimentWithSample--><g class="link" data-entity-1="DiffractionExperiment" data-entity-2="DiffractionExperimentWithSample" data-source-line="102" data-uid="lnk34" id="link_DiffractionExperiment_DiffractionExperimentWithSample"><path codeLine="102" d="M196,505.2469 C196,527.4969 196,530.8969 196,546.3269" fill="none" id="DiffractionExperiment-backto-DiffractionExperimentWithSample" style="stroke:#181818;stroke-width:1;"/><polygon fill="none" points="196,487.2469,190,505.2469,202,505.2469,196,487.2469" style="stroke:#181818;stroke-width:1;"/></g><!--reverse link WithSample to DiffractionExperimentWithSample--><g class="link" data-entity-1="WithSample" data-entity-2="DiffractionExperimentWithSample" data-source-line="103" data-uid="lnk35" id="link_WithSample_DiffractionExperimentWithSample"><path codeLine="103" d="M1551.6397,209.7038 C1538.0297,218.5338 1538.48,217.2269 1524,223.7769 C1110.77,410.7669 577.73,510.9769 331.6,550.0569" fill="none" id="WithSample-backto-DiffractionExperimentWithSample" style="stroke:#181818;stroke-width:1;"/><polygon fill="none" points="1566.74,199.9069,1548.374,204.6703,1554.9053,214.7372,1566.74,199.9069" style="stroke:#181818;stroke-width:1;"/></g><!--reverse link GridCommonWithHyperionDetectorParams to GridScanWithEdgeDetect--><g class="link" data-entity-1="GridCommonWithHyperionDetectorParams" data-entity-2="GridScanWithEdgeDetect" data-source-line="104" data-uid="lnk36" id="link_GridCommonWithHyperionDetectorParams_GridScanWithEdgeDetect"><path codeLine="104" d="M617.7019,972.9899 C607.9219,998.5699 598.69,1022.6769 588.9,1048.2969" fill="none" id="GridCommonWithHyperionDetectorParams-backto-GridScanWithEdgeDetect" style="stroke:#181818;stroke-width:1;"/><polygon fill="none" points="624.13,956.1769,612.0975,970.8472,623.3062,975.1326,624.13,956.1769" style="stroke:#181818;stroke-width:1;"/></g><!--reverse link GridCommonWithHyperionDetectorParams to PinTipCentreThenXrayCentre--><g class="link" data-entity-1="GridCommonWithHyperionDetectorParams" data-entity-2="PinTipCentreThenXrayCentre" data-source-line="105" data-uid="lnk37" id="link_GridCommonWithHyperionDetectorParams_PinTipCentreThenXrayCentre"><path codeLine="105" d="M682.2231,966.2565 C716.1931,989.2165 753.53,1014.4569 791.27,1039.9769" fill="none" id="GridCommonWithHyperionDetectorParams-backto-PinTipCentreThenXrayCentre" style="stroke:#181818;stroke-width:1;"/><polygon fill="none" points="667.31,956.1769,678.8632,971.2275,685.583,961.2855,667.31,956.1769" style="stroke:#181818;stroke-width:1;"/></g><!--reverse link DiffractionExperiment to RotationExperiment--><g class="link" data-entity-1="DiffractionExperiment" data-entity-2="RotationExperiment" data-source-line="106" data-uid="lnk38" id="link_DiffractionExperiment_RotationExperiment"><path codeLine="106" d="M364.6534,497.225 C539.3234,616.285 801.9,795.2669 930.85,883.1569" fill="none" id="DiffractionExperiment-backto-RotationExperiment" style="stroke:#181818;stroke-width:1;"/><polygon fill="none" points="349.78,487.0869,361.274,502.1828,368.0328,492.2672,349.78,487.0869" style="stroke:#181818;stroke-width:1;"/></g><!--SRC=[bLPBRnit43vhVmLlQO7QGExfmL6Sj42S6f7W1WWCWjeTxHBc2-Ii8rNnV- -Gr3vahUGOFdWvpuyptmprPjd8mDPI0QF_eaLxKOC1Bn0gjjgoxi2T4WPRhIxTjYXG8ZdyjNNWfJNiLdYX0S6p6rk1AW8WCoG9JfIm04Tgj9uPQw0eIFOWQc1wmrUgXV2mlIojrjPSkYvCOBi2RGtOKCXTKIeH0ljNOZC7WvuYAYYH4k-AsTAwB- -tDs8pjwt1NiD-iaFDH-klHTaiX7Pg2C12-k9bYXkAftskVrpK2lN96cclJ4qkA3m6IhXMLY25_qANOLP3BNY8Ebv1_Kph6dbILvxHFGZdnb6VHXMuaq4YmGZesGg4Lf9gcawFKPC_Ao176P2ZvT68bzOyWgVASYUmoKRI11BHDRdpi9QRPo0e1bN6-XH8c1AurZsIXLCI5wMW3ep1BOnmeR4HtotbOM5_fXW-1TiMCqNXlgTCzrsgtYoLC-IAhAnLh0t0Qoyhtfc4mtofcvHD6cGX7RYiyh6BdQMkBHycvT8SHEmQVqsihxVpHfWQTaULqS9K7989XqSAy7HCrqy4UvvutVklx8O7-H_mLdUYTBaVii9c98IDiw7rm55guA6O_HtSTdMzYTEcYQbBcZkQLf9nw8KSILhChkYCv7idQBRwooQMGyN5NjjbGkcuNQzfNcFwhX0Vv7hjHHgG8UcUSt5Jy3ZR9y56gpZGv4FZwMLTWuzhWM7-vfeE1xtmhU6crIlmhyRlXGbQXX1f736_gbOHQI1MqZOQCxHddhSoW-qASxDvdpTMl_3YHbX4Fg0ix-WOTqg_nfApuezPVhwyOpe_fR-9FTdi5-xXfinHlreKCMIUojcLCL40rVSqS6FjBVZ53m1t_mVx3EOtBGrNO6fi_dpx-ptpUqiUo7GOju7E4Mct-J_ibqIgHnYMmMShghohvrR5tX6YhtPbCIgM3PYif6GauzJAYjFmcFqUZhO3NAPRXP8Vu3g05OqYgEkgXWne078hpLAwd2tc_UR5DfzsvsUWGt0m0DaXD2t6xbe7Hfgw9txMzZYbAJqajgLzzkkyZCr_WIFitS-BYr5FYbCFrf7XyRsooRZYHR_U9tH3hEUnJnEZc1YSx7r4bA9_vCuPZAimRV7iby8fqvF09XjGZ1-vb-ocdfANV4ONdpQQb9vn68frLBUNx7-biGC5ZeVm5G5EJ-cv2nzJ-Ny0]--></g></svg>