<svg xmlns="http://www.w3.org/2000/svg" xmlns:xlink="http://www.w3.org/1999/xlink" contentStyleType="text/css" data-diagram-type="CLASS" height="1104px" preserveAspectRatio="none" style="width:4242px;height:1104px;background:#FFFFFF;" version="1.1" viewBox="0 0 4242 1104" width="4242px" zoomAndPan="magnify"><title>Hyperion Parameter Model</title><defs/><g><g class="title" data-source-line="3"><text fill="#000000" font-family="sans-serif" font-size="14" font-weight="bold" lengthAdjust="spacing" textLength="212.4951" x="2008.1074" y="22.9951">Hyperion Parameter Model</text></g><!--cluster mx_bluesky.common.parameters--><g class="cluster" data-entity="mx_bluesky.common.parameters" data-source-line="6" data-uid="ent0002" id="cluster_mx_bluesky.common.parameters"><path d="M1212.5,43.2969 L1473.8125,43.2969 A3.75,3.75 0 0 1 1476.3125,45.7969 L1483.3125,65.5938 L4033.5,65.5938 A2.5,2.5 0 0 1 4036,68.0938 L4036,822.0269 A2.5,2.5 0 0 1 4033.5,824.5269 L1212.5,824.5269 A2.5,2.5 0 0 1 1210,822.0269 L1210,45.7969 A2.5,2.5 0 0 1 1212.5,43.2969" fill="none" style="stroke:#000000;stroke-width:1.5;"/><line style="stroke:#000000;stroke-width:1.5;" x1="1210" x2="1483.3125" y1="65.5938" y2="65.5938"/><text fill="#000000" font-family="sans-serif" font-size="14" font-weight="bold" lengthAdjust="spacing" textLength="260.3125" x="1214" y="58.292">mx_bluesky.common.parameters</text></g><!--cluster mx_bluesky.hyperion.parameters--><g class="cluster" data-entity="mx_bluesky.hyperion.parameters" data-source-line="71" data-uid="ent0015" id="cluster_mx_bluesky.hyperion.parameters"><path d="M8.5,660.4869 L273.0322,660.4869 A3.75,3.75 0 0 1 275.5322,662.9869 L282.5322,682.7838 L1183.5,682.7838 A2.5,2.5 0 0 1 1186,685.2838 L1186,1095.2169 A2.5,2.5 0 0 1 1183.5,1097.7169 L8.5,1097.7169 A2.5,2.5 0 0 1 6,1095.2169 L6,662.9869 A2.5,2.5 0 0 1 8.5,660.4869" fill="none" style="stroke:#000000;stroke-width:1.5;"/><line style="stroke:#000000;stroke-width:1.5;" x1="6" x2="282.5322" y1="682.7838" y2="682.7838"/><text fill="#000000" font-family="sans-serif" font-size="14" font-weight="bold" lengthAdjust="spacing" textLength="263.5322" x="10" y="675.482">mx_bluesky.hyperion.parameters</text></g><!--class OptionalGonioAngleStarts--><g class="entity" data-entity="OptionalGonioAngleStarts" data-source-line="8" data-uid="ent0003" id="entity_OptionalGonioAngleStarts"><rect fill="#F1F1F1" height="113.1875" rx="2.5" ry="2.5" style="stroke:#181818;stroke-width:0.5;" width="219.3203" x="3275.34" y="94.4469"/><ellipse cx="3293.0633" cy="110.4469" fill="#ADD1B2" rx="11" ry="11" style="stroke:#181818;stroke-width:1;"/><path d="M3296.032,116.0875 Q3295.4539,116.3844 3294.8133,116.525 Q3294.1727,116.6813 3293.4695,116.6813 Q3290.9695,116.6813 3289.6414,115.0406 Q3288.3289,113.3844 3288.3289,110.2594 Q3288.3289,107.1344 3289.6414,105.4781 Q3290.9695,103.8219 3293.4695,103.8219 Q3294.1727,103.8219 3294.8133,103.9781 Q3295.4695,104.1344 3296.032,104.4313 L3296.032,107.15 Q3295.407,106.5719 3294.8133,106.3063 Q3294.2195,106.025 3293.5945,106.025 Q3292.2508,106.025 3291.5633,107.1031 Q3290.8758,108.1656 3290.8758,110.2594 Q3290.8758,112.3531 3291.5633,113.4313 Q3292.2508,114.4938 3293.5945,114.4938 Q3294.2195,114.4938 3294.8133,114.2281 Q3295.407,113.9469 3296.032,113.3688 L3296.032,116.0875 Z " fill="#000000"/><text fill="#000000" font-family="sans-serif" font-size="14" lengthAdjust="spacing" textLength="181.2686" x="3307.6685" y="115.2936">OptionalGonioAngleStarts</text><line style="stroke:#181818;stroke-width:0.5;" x1="3276.34" x2="3493.6603" y1="126.4469" y2="126.4469"/><text fill="#000000" font-family="sans-serif" font-size="14" lengthAdjust="spacing" textLength="207.3203" x="3281.34" y="143.442">float | None omega_start_deg</text><text fill="#000000" font-family="sans-serif" font-size="14" lengthAdjust="spacing" textLength="180.6875" x="3281.34" y="159.7389">float | None phi_start_deg</text><text fill="#000000" font-family="sans-serif" font-size="14" lengthAdjust="spacing" textLength="179.498" x="3281.34" y="176.0357">float | None chi_start_deg</text><text fill="#000000" font-family="sans-serif" font-size="14" lengthAdjust="spacing" textLength="202.0771" x="3281.34" y="192.3326">float | None kappa_start_deg</text><line style="stroke:#181818;stroke-width:0.5;" x1="3276.34" x2="3493.6603" y1="199.6344" y2="199.6344"/></g><!--class WithSample--><g class="entity" data-entity="WithSample" data-source-line="14" data-uid="ent0004" id="entity_WithSample"><rect fill="#F1F1F1" height="96.8906" rx="2.5" ry="2.5" style="stroke:#181818;stroke-width:0.5;" width="176.3086" x="2162.85" y="102.5869"/><ellipse cx="2204.7243" cy="118.5869" fill="#ADD1B2" rx="11" ry="11" style="stroke:#181818;stroke-width:1;"/><path d="M2207.6931,124.2275 Q2207.1149,124.5244 2206.4743,124.665 Q2205.8337,124.8213 2205.1306,124.8213 Q2202.6306,124.8213 2201.3024,123.1806 Q2199.9899,121.5244 2199.9899,118.3994 Q2199.9899,115.2744 2201.3024,113.6181 Q2202.6306,111.9619 2205.1306,111.9619 Q2205.8337,111.9619 2206.4743,112.1181 Q2207.1306,112.2744 2207.6931,112.5713 L2207.6931,115.29 Q2207.0681,114.7119 2206.4743,114.4463 Q2205.8806,114.165 2205.2556,114.165 Q2203.9118,114.165 2203.2243,115.2431 Q2202.5368,116.3056 2202.5368,118.3994 Q2202.5368,120.4931 2203.2243,121.5713 Q2203.9118,122.6338 2205.2556,122.6338 Q2205.8806,122.6338 2206.4743,122.3681 Q2207.0681,122.0869 2207.6931,121.5088 L2207.6931,124.2275 Z " fill="#000000"/><text fill="#000000" font-family="sans-serif" font-size="14" lengthAdjust="spacing" textLength="84.5879" x="2224.6964" y="123.4336">WithSample</text><line style="stroke:#181818;stroke-width:0.5;" x1="2163.85" x2="2338.1586" y1="134.5869" y2="134.5869"/><text fill="#000000" font-family="sans-serif" font-size="14" lengthAdjust="spacing" textLength="93.3789" x="2168.85" y="151.582">int sample_id</text><text fill="#000000" font-family="sans-serif" font-size="14" lengthAdjust="spacing" textLength="164.3086" x="2168.85" y="167.8789">int | None sample_puck</text><text fill="#000000" font-family="sans-serif" font-size="14" lengthAdjust="spacing" textLength="152.3936" x="2168.85" y="184.1757">int | None sample_pin</text><line style="stroke:#181818;stroke-width:0.5;" x1="2163.85" x2="2338.1586" y1="191.4775" y2="191.4775"/></g><!--class WithCentreSelection--><g class="entity" data-entity="WithCentreSelection" data-source-line="19" data-uid="ent0005" id="entity_WithCentreSelection"><rect fill="#F1F1F1" height="64.2969" rx="2.5" ry="2.5" style="stroke:#181818;stroke-width:0.5;" width="618.6689" x="1233.67" y="118.8869"/><ellipse cx="1466.8883" cy="134.8869" fill="#ADD1B2" rx="11" ry="11" style="stroke:#181818;stroke-width:1;"/><path d="M1469.857,140.5275 Q1469.2789,140.8244 1468.6383,140.965 Q1467.9976,141.1213 1467.2945,141.1213 Q1464.7945,141.1213 1463.4664,139.4806 Q1462.1539,137.8244 1462.1539,134.6994 Q1462.1539,131.5744 1463.4664,129.9181 Q1464.7945,128.2619 1467.2945,128.2619 Q1467.9976,128.2619 1468.6383,128.4181 Q1469.2945,128.5744 1469.857,128.8713 L1469.857,131.59 Q1469.232,131.0119 1468.6383,130.7463 Q1468.0445,130.465 1467.4195,130.465 Q1466.0758,130.465 1465.3883,131.5431 Q1464.7008,132.6056 1464.7008,134.6994 Q1464.7008,136.7931 1465.3883,137.8713 Q1466.0758,138.9338 1467.4195,138.9338 Q1468.0445,138.9338 1468.6383,138.6681 Q1469.232,138.3869 1469.857,137.8088 L1469.857,140.5275 Z " fill="#000000"/><text fill="#000000" font-family="sans-serif" font-size="14" lengthAdjust="spacing" textLength="143.7324" x="1487.3883" y="139.7336">WithCentreSelection</text><line style="stroke:#181818;stroke-width:0.5;" x1="1234.67" x2="1851.3389" y1="150.8869" y2="150.8869"/><text fill="#000000" font-family="sans-serif" font-size="14" lengthAdjust="spacing" textLength="606.6689" x="1239.67" y="167.882">TopNByMaxCountSelection | TopNByMaxCountForEachSampleSelection select_centres</text><line style="stroke:#181818;stroke-width:0.5;" x1="1234.67" x2="1851.3389" y1="175.1838" y2="175.1838"/></g><!--class WithVisit--><g class="entity" data-entity="WithVisit" data-source-line="22" data-uid="ent0006" id="entity_WithVisit"><rect fill="#F1F1F1" height="129.4844" rx="2.5" ry="2.5" style="stroke:#181818;stroke-width:0.5;" width="271.7861" x="2374.11" y="86.2969"/><ellipse cx="2474.6359" cy="102.2969" fill="#ADD1B2" rx="11" ry="11" style="stroke:#181818;stroke-width:1;"/><path d="M2477.6046,107.9375 Q2477.0265,108.2344 2476.3859,108.375 Q2475.7453,108.5313 2475.0421,108.5313 Q2472.5421,108.5313 2471.214,106.8906 Q2469.9015,105.2344 2469.9015,102.1094 Q2469.9015,98.9844 2471.214,97.3281 Q2472.5421,95.6719 2475.0421,95.6719 Q2475.7453,95.6719 2476.3859,95.8281 Q2477.0421,95.9844 2477.6046,96.2813 L2477.6046,99 Q2476.9796,98.4219 2476.3859,98.1563 Q2475.7921,97.875 2475.1671,97.875 Q2473.8234,97.875 2473.1359,98.9531 Q2472.4484,100.0156 2472.4484,102.1094 Q2472.4484,104.2031 2473.1359,105.2813 Q2473.8234,106.3438 2475.1671,106.3438 Q2475.7921,106.3438 2476.3859,106.0781 Q2476.9796,105.7969 2477.6046,105.2188 L2477.6046,107.9375 Z " fill="#000000"/><text fill="#000000" font-family="sans-serif" font-size="14" lengthAdjust="spacing" textLength="62.2344" x="2495.1359" y="107.1436">WithVisit</text><line style="stroke:#181818;stroke-width:0.5;" x1="2375.11" x2="2644.8961" y1="118.2969" y2="118.2969"/><text fill="#000000" font-family="sans-serif" font-size="14" lengthAdjust="spacing" textLength="87.9717" x="2380.11" y="135.292">str beamline</text><text fill="#000000" font-family="sans-serif" font-size="14" lengthAdjust="spacing" textLength="51.8369" x="2380.11" y="151.5889">str visit</text><text fill="#000000" font-family="sans-serif" font-size="14" lengthAdjust="spacing" textLength="259.7861" x="2380.11" y="167.8857">str det_dist_to_beam_converter_path</text><text fill="#000000" font-family="sans-serif" font-size="14" lengthAdjust="spacing" textLength="131.5918" x="2380.11" y="184.1826">str insertion_prefix</text><text fill="#000000" font-family="sans-serif" font-size="14" lengthAdjust="spacing" textLength="245.752" x="2380.11" y="200.4795">float | None detector_distance_mm</text><line style="stroke:#181818;stroke-width:0.5;" x1="2375.11" x2="2644.8961" y1="207.7813" y2="207.7813"/></g><!--class WithSnapshot--><g class="entity" data-entity="WithSnapshot" data-source-line="29" data-uid="ent0007" id="entity_WithSnapshot"><rect fill="#F1F1F1" height="96.8906" rx="2.5" ry="2.5" style="stroke:#181818;stroke-width:0.5;" width="289.3477" x="2951.33" y="102.5869"/><ellipse cx="3042.9828" cy="118.5869" fill="#ADD1B2" rx="11" ry="11" style="stroke:#181818;stroke-width:1;"/><path d="M3045.9516,124.2275 Q3045.3735,124.5244 3044.7328,124.665 Q3044.0922,124.8213 3043.3891,124.8213 Q3040.8891,124.8213 3039.561,123.1806 Q3038.2485,121.5244 3038.2485,118.3994 Q3038.2485,115.2744 3039.561,113.6181 Q3040.8891,111.9619 3043.3891,111.9619 Q3044.0922,111.9619 3044.7328,112.1181 Q3045.3891,112.2744 3045.9516,112.5713 L3045.9516,115.29 Q3045.3266,114.7119 3044.7328,114.4463 Q3044.1391,114.165 3043.5141,114.165 Q3042.1703,114.165 3041.4828,115.2431 Q3040.7953,116.3056 3040.7953,118.3994 Q3040.7953,120.4931 3041.4828,121.5713 Q3042.1703,122.6338 3043.5141,122.6338 Q3044.1391,122.6338 3044.7328,122.3681 Q3045.3266,122.0869 3045.9516,121.5088 L3045.9516,124.2275 Z " fill="#000000"/><text fill="#000000" font-family="sans-serif" font-size="14" lengthAdjust="spacing" textLength="97.542" x="3063.4828" y="123.4336">WithSnapshot</text><line style="stroke:#181818;stroke-width:0.5;" x1="2952.33" x2="3239.6777" y1="134.5869" y2="134.5869"/><text fill="#000000" font-family="sans-serif" font-size="14" lengthAdjust="spacing" textLength="169.627" x="2957.33" y="151.582">Path snapshot_directory</text><text fill="#000000" font-family="sans-serif" font-size="14" lengthAdjust="spacing" textLength="277.3477" x="2957.33" y="167.8789">list[float] | None snapshot_omegas_deg</text><text fill="#000000" font-family="sans-serif" font-size="14" lengthAdjust="spacing" textLength="171.7051" x="2957.33" y="184.1757">bool use_grid_snapshots</text><line style="stroke:#181818;stroke-width:0.5;" x1="2952.33" x2="3239.6777" y1="191.4775" y2="191.4775"/></g><!--class WithOptionalEnergyChange--><g class="entity" data-entity="WithOptionalEnergyChange" data-source-line="34" data-uid="ent0008" id="entity_WithOptionalEnergyChange"><rect fill="#F1F1F1" height="64.2969" rx="2.5" ry="2.5" style="stroke:#181818;stroke-width:0.5;" width="235.4463" x="2681.28" y="118.8869"/><ellipse cx="2700.4645" cy="134.8869" fill="#ADD1B2" rx="11" ry="11" style="stroke:#181818;stroke-width:1;"/><path d="M2703.4332,140.5275 Q2702.8551,140.8244 2702.2145,140.965 Q2701.5738,141.1213 2700.8707,141.1213 Q2698.3707,141.1213 2697.0426,139.4806 Q2695.7301,137.8244 2695.7301,134.6994 Q2695.7301,131.5744 2697.0426,129.9181 Q2698.3707,128.2619 2700.8707,128.2619 Q2701.5738,128.2619 2702.2145,128.4181 Q2702.8707,128.5744 2703.4332,128.8713 L2703.4332,131.59 Q2702.8082,131.0119 2702.2145,130.7463 Q2701.6207,130.465 2700.9957,130.465 Q2699.652,130.465 2698.9645,131.5431 Q2698.277,132.6056 2698.277,134.6994 Q2698.277,136.7931 2698.9645,137.8713 Q2699.652,138.9338 2700.9957,138.9338 Q2701.6207,138.9338 2702.2145,138.6681 Q2702.8082,138.3869 2703.4332,137.8088 L2703.4332,140.5275 Z " fill="#000000"/><text fill="#000000" font-family="sans-serif" font-size="14" lengthAdjust="spacing" textLength="194.1475" x="2715.3944" y="139.7336">WithOptionalEnergyChange</text><line style="stroke:#181818;stroke-width:0.5;" x1="2682.28" x2="2915.7263" y1="150.8869" y2="150.8869"/><text fill="#000000" font-family="sans-serif" font-size="14" lengthAdjust="spacing" textLength="223.4463" x="2687.28" y="167.882">float | None demand_energy_ev</text><line style="stroke:#181818;stroke-width:0.5;" x1="2682.28" x2="2915.7263" y1="175.1838" y2="175.1838"/></g><!--class SplitScan--><g class="entity" data-entity="SplitScan" data-source-line="37" data-uid="ent0009" id="entity_SplitScan"><rect fill="#F1F1F1" height="48" rx="2.5" ry="2.5" style="stroke:#181818;stroke-width:0.5;" width="97.0781" x="3529.46" y="127.0369"/><ellipse cx="3544.46" cy="143.0369" fill="#ADD1B2" rx="11" ry="11" style="stroke:#181818;stroke-width:1;"/><path d="M3547.4288,148.6775 Q3546.8506,148.9744 3546.21,149.115 Q3545.5694,149.2713 3544.8663,149.2713 Q3542.3663,149.2713 3541.0381,147.6306 Q3539.7256,145.9744 3539.7256,142.8494 Q3539.7256,139.7244 3541.0381,138.0681 Q3542.3663,136.4119 3544.8663,136.4119 Q3545.5694,136.4119 3546.21,136.5681 Q3546.8663,136.7244 3547.4288,137.0213 L3547.4288,139.74 Q3546.8038,139.1619 3546.21,138.8963 Q3545.6163,138.615 3544.9913,138.615 Q3543.6475,138.615 3542.96,139.6931 Q3542.2725,140.7556 3542.2725,142.8494 Q3542.2725,144.9431 3542.96,146.0213 Q3543.6475,147.0838 3544.9913,147.0838 Q3545.6163,147.0838 3546.21,146.8181 Q3546.8038,146.5369 3547.4288,145.9588 L3547.4288,148.6775 Z " fill="#000000"/><text fill="#000000" font-family="sans-serif" font-size="14" lengthAdjust="spacing" textLength="65.0781" x="3558.46" y="147.8836">SplitScan</text><line style="stroke:#181818;stroke-width:0.5;" x1="3530.46" x2="3625.5381" y1="159.0369" y2="159.0369"/><line style="stroke:#181818;stroke-width:0.5;" x1="3530.46" x2="3625.5381" y1="167.0369" y2="167.0369"/></g><!--class WithPandaGridScan--><g class="entity" data-entity="WithPandaGridScan" data-source-line="39" data-uid="ent0010" id="entity_WithPandaGridScan"><rect fill="#F1F1F1" height="64.2969" rx="2.5" ry="2.5" style="stroke:#181818;stroke-width:0.5;" width="240.5664" x="1887.72" y="118.8869"/><ellipse cx="1934.3172" cy="134.8869" fill="#ADD1B2" rx="11" ry="11" style="stroke:#181818;stroke-width:1;"/><path d="M1937.2859,140.5275 Q1936.7078,140.8244 1936.0672,140.965 Q1935.4265,141.1213 1934.7234,141.1213 Q1932.2234,141.1213 1930.8953,139.4806 Q1929.5828,137.8244 1929.5828,134.6994 Q1929.5828,131.5744 1930.8953,129.9181 Q1932.2234,128.2619 1934.7234,128.2619 Q1935.4265,128.2619 1936.0672,128.4181 Q1936.7234,128.5744 1937.2859,128.8713 L1937.2859,131.59 Q1936.6609,131.0119 1936.0672,130.7463 Q1935.4734,130.465 1934.8484,130.465 Q1933.5047,130.465 1932.8172,131.5431 Q1932.1297,132.6056 1932.1297,134.6994 Q1932.1297,136.7931 1932.8172,137.8713 Q1933.5047,138.9338 1934.8484,138.9338 Q1935.4734,138.9338 1936.0672,138.6681 Q1936.6609,138.3869 1937.2859,137.8088 L1937.2859,140.5275 Z " fill="#000000"/><text fill="#000000" font-family="sans-serif" font-size="14" lengthAdjust="spacing" textLength="138.8721" x="1954.8172" y="139.7336">WithPandaGridScan</text><line style="stroke:#181818;stroke-width:0.5;" x1="1888.72" x2="2127.2864" y1="150.8869" y2="150.8869"/><text fill="#000000" font-family="sans-serif" font-size="14" lengthAdjust="spacing" textLength="228.5664" x="1893.72" y="167.882">float panda_runup_distance_mm</text><line style="stroke:#181818;stroke-width:0.5;" x1="1888.72" x2="2127.2864" y1="175.1838" y2="175.1838"/></g><!--class MxBlueskyParameters--><g class="entity" data-entity="MxBlueskyParameters" data-source-line="44" data-uid="ent0011" id="entity_MxBlueskyParameters"><rect fill="#F1F1F1" height="64.2969" rx="2.5" ry="2.5" style="stroke:#181818;stroke-width:0.5;" width="317.4639" x="3663.27" y="118.8869"/><ellipse cx="3739.8564" cy="134.8869" fill="#ADD1B2" rx="11" ry="11" style="stroke:#181818;stroke-width:1;"/><path d="M3742.8252,140.5275 Q3742.2471,140.8244 3741.6064,140.965 Q3740.9658,141.1213 3740.2627,141.1213 Q3737.7627,141.1213 3736.4346,139.4806 Q3735.1221,137.8244 3735.1221,134.6994 Q3735.1221,131.5744 3736.4346,129.9181 Q3737.7627,128.2619 3740.2627,128.2619 Q3740.9658,128.2619 3741.6064,128.4181 Q3742.2627,128.5744 3742.8252,128.8713 L3742.8252,131.59 Q3742.2002,131.0119 3741.6064,130.7463 Q3741.0127,130.465 3740.3877,130.465 Q3739.0439,130.465 3738.3564,131.5431 Q3737.6689,132.6056 3737.6689,134.6994 Q3737.6689,136.7931 3738.3564,137.8713 Q3739.0439,138.9338 3740.3877,138.9338 Q3741.0127,138.9338 3741.6064,138.6681 Q3742.2002,138.3869 3742.8252,137.8088 L3742.8252,140.5275 Z " fill="#000000"/><text fill="#000000" font-family="sans-serif" font-size="14" lengthAdjust="spacing" textLength="155.791" x="3760.3564" y="139.7336">MxBlueskyParameters</text><line style="stroke:#181818;stroke-width:0.5;" x1="3664.27" x2="3979.7339" y1="150.8869" y2="150.8869"/><text fill="#000000" font-family="sans-serif" font-size="14" lengthAdjust="spacing" textLength="305.4639" x="3669.27" y="167.882">SemanticVersion parameter_model_version</text><line style="stroke:#181818;stroke-width:0.5;" x1="3664.27" x2="3979.7339" y1="175.1838" y2="175.1838"/></g><!--class DiffractionExperiment--><g class="entity" data-entity="DiffractionExperiment" data-source-line="47" data-uid="ent0012" id="entity_DiffractionExperiment"><rect fill="#F1F1F1" height="210.9688" rx="2.5" ry="2.5" style="stroke:#181818;stroke-width:0.5;" width="332.332" x="3650.83" y="275.7769"/><ellipse cx="3735.6127" cy="291.7769" fill="#ADD1B2" rx="11" ry="11" style="stroke:#181818;stroke-width:1;"/><path d="M3738.5815,297.4175 Q3738.0033,297.7144 3737.3627,297.855 Q3736.7221,298.0113 3736.019,298.0113 Q3733.519,298.0113 3732.1908,296.3706 Q3730.8783,294.7144 3730.8783,291.5894 Q3730.8783,288.4644 3732.1908,286.8081 Q3733.519,285.1519 3736.019,285.1519 Q3736.7221,285.1519 3737.3627,285.3081 Q3738.019,285.4644 3738.5815,285.7613 L3738.5815,288.48 Q3737.9565,287.9019 3737.3627,287.6363 Q3736.769,287.355 3736.144,287.355 Q3734.8002,287.355 3734.1127,288.4331 Q3733.4252,289.4956 3733.4252,291.5894 Q3733.4252,293.6831 3734.1127,294.7613 Q3734.8002,295.8238 3736.144,295.8238 Q3736.769,295.8238 3737.3627,295.5581 Q3737.9565,295.2769 3738.5815,294.6988 L3738.5815,297.4175 Z " fill="#000000"/><text fill="#000000" font-family="sans-serif" font-size="14" lengthAdjust="spacing" textLength="154.2666" x="3756.1127" y="296.6236">DiffractionExperiment</text><line style="stroke:#181818;stroke-width:0.5;" x1="3651.83" x2="3982.162" y1="307.7769" y2="307.7769"/><text fill="#000000" font-family="sans-serif" font-size="14" lengthAdjust="spacing" textLength="91.0137" x="3656.83" y="324.772">str file_name</text><text fill="#000000" font-family="sans-serif" font-size="14" lengthAdjust="spacing" textLength="153.7129" x="3656.83" y="341.0689">float exposure_time_s</text><text fill="#000000" font-family="sans-serif" font-size="14" lengthAdjust="spacing" textLength="89.5029" x="3656.83" y="357.3657">str comment</text><text fill="#000000" font-family="sans-serif" font-size="14" lengthAdjust="spacing" textLength="186.915" x="3656.83" y="373.6626">TriggerMode trigger_mode</text><text fill="#000000" font-family="sans-serif" font-size="14" lengthAdjust="spacing" textLength="157.9854" x="3656.83" y="389.9595">int | None run_number</text><text fill="#000000" font-family="sans-serif" font-size="14" lengthAdjust="spacing" textLength="282.3516" x="3656.83" y="406.2564">ApertureValue | None selected_aperture</text><text fill="#000000" font-family="sans-serif" font-size="14" lengthAdjust="spacing" textLength="159.2979" x="3656.83" y="422.5532">float transmission_frac</text><text fill="#000000" font-family="sans-serif" font-size="14" lengthAdjust="spacing" textLength="320.332" x="3656.83" y="438.8501">IspybExperimentType ispyb_experiment_type</text><text fill="#000000" font-family="sans-serif" font-size="14" lengthAdjust="spacing" textLength="146.1113" x="3656.83" y="455.147">str storage_directory</text><text fill="#000000" font-family="sans-serif" font-size="14" lengthAdjust="spacing" textLength="131.0518" x="3656.83" y="471.4439">bool use_roi_mode</text><line style="stroke:#181818;stroke-width:0.5;" x1="3651.83" x2="3982.162" y1="478.7456" y2="478.7456"/></g><!--class GridCommon--><g class="entity" data-entity="GridCommon" data-source-line="59" data-uid="ent0013" id="entity_GridCommon"><rect fill="#F1F1F1" height="145.7813" rx="2.5" ry="2.5" style="stroke:#181818;stroke-width:0.5;" width="332.332" x="3650.83" y="654.7469"/><ellipse cx="3766.5282" cy="670.7469" fill="#ADD1B2" rx="11" ry="11" style="stroke:#181818;stroke-width:1;"/><path d="M3769.497,676.3875 Q3768.9189,676.6844 3768.2782,676.825 Q3767.6376,676.9813 3766.9345,676.9813 Q3764.4345,676.9813 3763.1064,675.3406 Q3761.7939,673.6844 3761.7939,670.5594 Q3761.7939,667.4344 3763.1064,665.7781 Q3764.4345,664.1219 3766.9345,664.1219 Q3767.6376,664.1219 3768.2782,664.2781 Q3768.9345,664.4344 3769.497,664.7313 L3769.497,667.45 Q3768.872,666.8719 3768.2782,666.6063 Q3767.6845,666.325 3767.0595,666.325 Q3765.7157,666.325 3765.0282,667.4031 Q3764.3407,668.4656 3764.3407,670.5594 Q3764.3407,672.6531 3765.0282,673.7313 Q3765.7157,674.7938 3767.0595,674.7938 Q3767.6845,674.7938 3768.2782,674.5281 Q3768.872,674.2469 3769.497,673.6688 L3769.497,676.3875 Z " fill="#000000"/><text fill="#000000" font-family="sans-serif" font-size="14" lengthAdjust="spacing" textLength="92.4355" x="3787.0282" y="675.5936">GridCommon</text><line style="stroke:#181818;stroke-width:0.5;" x1="3651.83" x2="3982.162" y1="686.7469" y2="686.7469"/><text fill="#000000" font-family="sans-serif" font-size="14" lengthAdjust="spacing" textLength="125.2959" x="3656.83" y="703.742">float box_size_um</text><text fill="#000000" font-family="sans-serif" font-size="14" lengthAdjust="spacing" textLength="138.4209" x="3656.83" y="720.0389">float grid_width_um</text><text fill="#000000" font-family="sans-serif" font-size="14" lengthAdjust="spacing" textLength="153.7129" x="3656.83" y="736.3357">float exposure_time_s</text><text fill="#000000" font-family="sans-serif" font-size="14" lengthAdjust="spacing" textLength="320.332" x="3656.83" y="752.6326">IspybExperimentType ispyb_experiment_type</text><text fill="#000000" font-family="sans-serif" font-size="14" lengthAdjust="spacing" textLength="282.3516" x="3656.83" y="768.9295">ApertureValue | None selected_aperture</text><text fill="#000000" font-family="sans-serif" font-size="14" lengthAdjust="spacing" textLength="130.498" x="3656.83" y="785.2264">float tip_offset_um</text><line style="stroke:#181818;stroke-width:0.5;" x1="3651.83" x2="3982.162" y1="792.5281" y2="792.5281"/></g><!--class DiffractionExperimentWithSample--><g class="entity" data-entity="DiffractionExperimentWithSample" data-source-line="67" data-uid="ent0014" id="entity_DiffractionExperimentWithSample"><rect fill="#F1F1F1" height="48" rx="2.5" ry="2.5" style="stroke:#181818;stroke-width:0.5;" width="270.8545" x="3681.57" y="546.7469"/><ellipse cx="3696.57" cy="562.7469" fill="#ADD1B2" rx="11" ry="11" style="stroke:#181818;stroke-width:1;"/><path d="M3699.5388,568.3875 Q3698.9606,568.6844 3698.32,568.825 Q3697.6794,568.9813 3696.9763,568.9813 Q3694.4763,568.9813 3693.1481,567.3406 Q3691.8356,565.6844 3691.8356,562.5594 Q3691.8356,559.4344 3693.1481,557.7781 Q3694.4763,556.1219 3696.9763,556.1219 Q3697.6794,556.1219 3698.32,556.2781 Q3698.9763,556.4344 3699.5388,556.7313 L3699.5388,559.45 Q3698.9138,558.8719 3698.32,558.6063 Q3697.7263,558.325 3697.1013,558.325 Q3695.7575,558.325 3695.07,559.4031 Q3694.3825,560.4656 3694.3825,562.5594 Q3694.3825,564.6531 3695.07,565.7313 Q3695.7575,566.7938 3697.1013,566.7938 Q3697.7263,566.7938 3698.32,566.5281 Q3698.9138,566.2469 3699.5388,565.6688 L3699.5388,568.3875 Z " fill="#000000"/><text fill="#000000" font-family="sans-serif" font-size="14" lengthAdjust="spacing" textLength="238.8545" x="3710.57" y="567.5936">DiffractionExperimentWithSample</text><line style="stroke:#181818;stroke-width:0.5;" x1="3682.57" x2="3951.4245" y1="578.7469" y2="578.7469"/><line style="stroke:#181818;stroke-width:0.5;" x1="3682.57" x2="3951.4245" y1="586.7469" y2="586.7469"/></g><!--class GridCommonWithHyperionDetectorParams--><g class="entity" data-entity="GridCommonWithHyperionDetectorParams" data-source-line="72" data-uid="ent0016" id="entity_GridCommonWithHyperionDetectorParams"><rect fill="#F1F1F1" height="48" rx="2.5" ry="2.5" style="stroke:#181818;stroke-width:0.5;" width="333.2188" x="469.39" y="884.9769"/><ellipse cx="484.39" cy="900.9769" fill="#ADD1B2" rx="11" ry="11" style="stroke:#181818;stroke-width:1;"/><path d="M487.3588,906.6175 Q486.7806,906.9144 486.14,907.055 Q485.4994,907.2113 484.7963,907.2113 Q482.2963,907.2113 480.9681,905.5706 Q479.6556,903.9144 479.6556,900.7894 Q479.6556,897.6644 480.9681,896.0081 Q482.2963,894.3519 484.7963,894.3519 Q485.4994,894.3519 486.14,894.5081 Q486.7963,894.6644 487.3588,894.9613 L487.3588,897.68 Q486.7338,897.1019 486.14,896.8363 Q485.5463,896.555 484.9213,896.555 Q483.5775,896.555 482.89,897.6331 Q482.2025,898.6956 482.2025,900.7894 Q482.2025,902.8831 482.89,903.9613 Q483.5775,905.0238 484.9213,905.0238 Q485.5463,905.0238 486.14,904.7581 Q486.7338,904.4769 487.3588,903.8988 L487.3588,906.6175 Z " fill="#000000"/><text fill="#000000" font-family="sans-serif" font-size="14" lengthAdjust="spacing" textLength="301.2188" x="498.39" y="905.8236">GridCommonWithHyperionDetectorParams</text><line style="stroke:#181818;stroke-width:0.5;" x1="470.39" x2="801.6088" y1="916.9769" y2="916.9769"/><line style="stroke:#181818;stroke-width:0.5;" x1="470.39" x2="801.6088" y1="924.9769" y2="924.9769"/></g><!--class PinTipCentreThenXrayCentre--><g class="entity" data-entity="PinTipCentreThenXrayCentre" data-source-line="74" data-uid="ent0017" id="entity_PinTipCentreThenXrayCentre"><rect fill="#F1F1F1" height="64.2969" rx="2.5" ry="2.5" style="stroke:#181818;stroke-width:0.5;" width="235.8955" x="114.05" y="1017.4169"/><ellipse cx="129.05" cy="1033.4169" fill="#ADD1B2" rx="11" ry="11" style="stroke:#181818;stroke-width:1;"/><path d="M132.0188,1039.0575 Q131.4406,1039.3544 130.8,1039.495 Q130.1594,1039.6513 129.4563,1039.6513 Q126.9563,1039.6513 125.6281,1038.0106 Q124.3156,1036.3544 124.3156,1033.2294 Q124.3156,1030.1044 125.6281,1028.4481 Q126.9563,1026.7919 129.4563,1026.7919 Q130.1594,1026.7919 130.8,1026.9481 Q131.4563,1027.1044 132.0188,1027.4013 L132.0188,1030.12 Q131.3938,1029.5419 130.8,1029.2763 Q130.2063,1028.995 129.5813,1028.995 Q128.2375,1028.995 127.55,1030.0731 Q126.8625,1031.1356 126.8625,1033.2294 Q126.8625,1035.3231 127.55,1036.4013 Q128.2375,1037.4638 129.5813,1037.4638 Q130.2063,1037.4638 130.8,1037.1981 Q131.3938,1036.9169 132.0188,1036.3388 L132.0188,1039.0575 Z " fill="#000000"/><text fill="#000000" font-family="sans-serif" font-size="14" lengthAdjust="spacing" textLength="203.8955" x="143.05" y="1038.2636">PinTipCentreThenXrayCentre</text><line style="stroke:#181818;stroke-width:0.5;" x1="115.05" x2="348.9455" y1="1049.4169" y2="1049.4169"/><text fill="#000000" font-family="sans-serif" font-size="14" lengthAdjust="spacing" textLength="130.498" x="120.05" y="1066.412">float tip_offset_um</text><line style="stroke:#181818;stroke-width:0.5;" x1="115.05" x2="348.9455" y1="1073.7138" y2="1073.7138"/></g><!--class RotationScan--><g class="entity" data-entity="RotationScan" data-source-line="77" data-uid="ent0018" id="entity_RotationScan"><rect fill="#F1F1F1" height="64.2969" rx="2.5" ry="2.5" style="stroke:#181818;stroke-width:0.5;" width="540.001" x="630" y="1017.4169"/><ellipse cx="849.1431" cy="1033.4169" fill="#ADD1B2" rx="11" ry="11" style="stroke:#181818;stroke-width:1;"/><path d="M852.1118,1039.0575 Q851.5337,1039.3544 850.8931,1039.495 Q850.2524,1039.6513 849.5493,1039.6513 Q847.0493,1039.6513 845.7212,1038.0106 Q844.4087,1036.3544 844.4087,1033.2294 Q844.4087,1030.1044 845.7212,1028.4481 Q847.0493,1026.7919 849.5493,1026.7919 Q850.2524,1026.7919 850.8931,1026.9481 Q851.5493,1027.1044 852.1118,1027.4013 L852.1118,1030.12 Q851.4868,1029.5419 850.8931,1029.2763 Q850.2993,1028.995 849.6743,1028.995 Q848.3306,1028.995 847.6431,1030.0731 Q846.9556,1031.1356 846.9556,1033.2294 Q846.9556,1035.3231 847.6431,1036.4013 Q848.3306,1037.4638 849.6743,1037.4638 Q850.2993,1037.4638 850.8931,1037.1981 Q851.4868,1036.9169 852.1118,1036.3388 L852.1118,1039.0575 Z " fill="#000000"/><text fill="#000000" font-family="sans-serif" font-size="14" lengthAdjust="spacing" textLength="93.2148" x="869.6431" y="1038.2636">RotationScan</text><line style="stroke:#181818;stroke-width:0.5;" x1="631" x2="1169.001" y1="1049.4169" y2="1049.4169"/><line style="stroke:#181818;stroke-width:0.5;" x1="631" x2="1169.001" y1="1057.4169" y2="1057.4169"/><text fill="#000000" font-family="sans-serif" font-size="14" lengthAdjust="spacing" textLength="528.001" x="636" y="1074.412">Annotated[list[RotationScanPerSweep], Len(min_length=1)] rotation_scans</text></g><!--class LoadCentreCollect--><g class="entity" data-entity="LoadCentreCollect" data-source-line="80" data-uid="ent0019" id="entity_LoadCentreCollect"><rect fill="#F1F1F1" height="80.5938" rx="2.5" ry="2.5" style="stroke:#181818;stroke-width:0.5;" width="338.6211" x="21.69" y="868.6769"/><ellipse cx="122.315" cy="884.6769" fill="#ADD1B2" rx="11" ry="11" style="stroke:#181818;stroke-width:1;"/><path d="M125.2838,890.3175 Q124.7056,890.6144 124.065,890.755 Q123.4244,890.9113 122.7213,890.9113 Q120.2213,890.9113 118.8931,889.2706 Q117.5806,887.6144 117.5806,884.4894 Q117.5806,881.3644 118.8931,879.7081 Q120.2213,878.0519 122.7213,878.0519 Q123.4244,878.0519 124.065,878.2081 Q124.7213,878.3644 125.2838,878.6613 L125.2838,881.38 Q124.6588,880.8019 124.065,880.5363 Q123.4713,880.255 122.8463,880.255 Q121.5025,880.255 120.815,881.3331 Q120.1275,882.3956 120.1275,884.4894 Q120.1275,886.5831 120.815,887.6613 Q121.5025,888.7238 122.8463,888.7238 Q123.4713,888.7238 124.065,888.4581 Q124.6588,888.1769 125.2838,887.5988 L125.2838,890.3175 Z " fill="#000000"/><text fill="#000000" font-family="sans-serif" font-size="14" lengthAdjust="spacing" textLength="128.8711" x="142.815" y="889.5236">LoadCentreCollect</text><line style="stroke:#181818;stroke-width:0.5;" x1="22.69" x2="359.3111" y1="900.6769" y2="900.6769"/><text fill="#000000" font-family="sans-serif" font-size="14" lengthAdjust="spacing" textLength="326.6211" x="27.69" y="917.672">RobotLoadThenCentre robot_load_then_centre</text><text fill="#000000" font-family="sans-serif" font-size="14" lengthAdjust="spacing" textLength="235.0947" x="27.69" y="933.9689">RotationScan multi_rotation_scan</text><line style="stroke:#181818;stroke-width:0.5;" x1="22.69" x2="359.3111" y1="941.2706" y2="941.2706"/></g><!--class WithHyperionUDCFeatures--><g class="entity" data-entity="WithHyperionUDCFeatures" data-source-line="84" data-uid="ent0020" id="entity_WithHyperionUDCFeatures"><rect fill="#F1F1F1" height="64.2969" rx="2.5" ry="2.5" style="stroke:#181818;stroke-width:0.5;" width="228.6719" x="489.66" y="695.4869"/><ellipse cx="508.7583" cy="711.4869" fill="#ADD1B2" rx="11" ry="11" style="stroke:#181818;stroke-width:1;"/><path d="M511.7271,717.1275 Q511.149,717.4244 510.5083,717.565 Q509.8677,717.7213 509.1646,717.7213 Q506.6646,717.7213 505.3365,716.0806 Q504.024,714.4244 504.024,711.2994 Q504.024,708.1744 505.3365,706.5181 Q506.6646,704.8619 509.1646,704.8619 Q509.8677,704.8619 510.5083,705.0181 Q511.1646,705.1744 511.7271,705.4713 L511.7271,708.19 Q511.1021,707.6119 510.5083,707.3463 Q509.9146,707.065 509.2896,707.065 Q507.9458,707.065 507.2583,708.1431 Q506.5708,709.2056 506.5708,711.2994 Q506.5708,713.3931 507.2583,714.4713 Q507.9458,715.5338 509.2896,715.5338 Q509.9146,715.5338 510.5083,715.2681 Q511.1021,714.9869 511.7271,714.4088 L511.7271,717.1275 Z " fill="#000000"/><text fill="#000000" font-family="sans-serif" font-size="14" lengthAdjust="spacing" textLength="187.5645" x="523.6691" y="716.3336">WithHyperionUDCFeatures</text><line style="stroke:#181818;stroke-width:0.5;" x1="490.66" x2="717.3319" y1="727.4869" y2="727.4869"/><text fill="#000000" font-family="sans-serif" font-size="14" lengthAdjust="spacing" textLength="216.6719" x="495.66" y="744.482">HyperionFeatureFlags features</text><line style="stroke:#181818;stroke-width:0.5;" x1="490.66" x2="717.3319" y1="751.7838" y2="751.7838"/></g><!--class GridScanWithEdgeDetect--><g class="entity" data-entity="GridScanWithEdgeDetect" data-source-line="87" data-uid="ent0021" id="entity_GridScanWithEdgeDetect"><rect fill="#F1F1F1" height="48" rx="2.5" ry="2.5" style="stroke:#181818;stroke-width:0.5;" width="209.4268" x="385.29" y="1025.5669"/><ellipse cx="400.29" cy="1041.5669" fill="#ADD1B2" rx="11" ry="11" style="stroke:#181818;stroke-width:1;"/><path d="M403.2588,1047.2075 Q402.6806,1047.5044 402.04,1047.645 Q401.3994,1047.8013 400.6963,1047.8013 Q398.1963,1047.8013 396.8681,1046.1606 Q395.5556,1044.5044 395.5556,1041.3794 Q395.5556,1038.2544 396.8681,1036.5981 Q398.1963,1034.9419 400.6963,1034.9419 Q401.3994,1034.9419 402.04,1035.0981 Q402.6963,1035.2544 403.2588,1035.5513 L403.2588,1038.27 Q402.6338,1037.6919 402.04,1037.4263 Q401.4463,1037.145 400.8213,1037.145 Q399.4775,1037.145 398.79,1038.2231 Q398.1025,1039.2856 398.1025,1041.3794 Q398.1025,1043.4731 398.79,1044.5513 Q399.4775,1045.6138 400.8213,1045.6138 Q401.4463,1045.6138 402.04,1045.3481 Q402.6338,1045.0669 403.2588,1044.4888 L403.2588,1047.2075 Z " fill="#000000"/><text fill="#000000" font-family="sans-serif" font-size="14" lengthAdjust="spacing" textLength="177.4268" x="414.29" y="1046.4136">GridScanWithEdgeDetect</text><line style="stroke:#181818;stroke-width:0.5;" x1="386.29" x2="593.7168" y1="1057.5669" y2="1057.5669"/><line style="stroke:#181818;stroke-width:0.5;" x1="386.29" x2="593.7168" y1="1065.5669" y2="1065.5669"/></g><!--class RotationExperiment--><g class="entity" data-entity="RotationExperiment" data-source-line="89" data-uid="ent0022" id="entity_RotationExperiment"><rect fill="#F1F1F1" height="96.8906" rx="2.5" ry="2.5" style="stroke:#181818;stroke-width:0.5;" width="332.332" x="837.83" y="860.5269"/><ellipse cx="929.7118" cy="876.5269" fill="#ADD1B2" rx="11" ry="11" style="stroke:#181818;stroke-width:1;"/><path d="M932.6806,882.1675 Q932.1025,882.4644 931.4618,882.605 Q930.8212,882.7613 930.1181,882.7613 Q927.6181,882.7613 926.29,881.1206 Q924.9775,879.4644 924.9775,876.3394 Q924.9775,873.2144 926.29,871.5581 Q927.6181,869.9019 930.1181,869.9019 Q930.8212,869.9019 931.4618,870.0581 Q932.1181,870.2144 932.6806,870.5113 L932.6806,873.23 Q932.0556,872.6519 931.4618,872.3863 Q930.8681,872.105 930.2431,872.105 Q928.8993,872.105 928.2118,873.1831 Q927.5243,874.2456 927.5243,876.3394 Q927.5243,878.4331 928.2118,879.5113 Q928.8993,880.5738 930.2431,880.5738 Q930.8681,880.5738 931.4618,880.3081 Q932.0556,880.0269 932.6806,879.4488 L932.6806,882.1675 Z " fill="#000000"/><text fill="#000000" font-family="sans-serif" font-size="14" lengthAdjust="spacing" textLength="140.0684" x="950.2118" y="881.3736">RotationExperiment</text><line style="stroke:#181818;stroke-width:0.5;" x1="838.83" x2="1169.162" y1="892.5269" y2="892.5269"/><text fill="#000000" font-family="sans-serif" font-size="14" lengthAdjust="spacing" textLength="202.8018" x="843.83" y="909.522">float shutter_opening_time_s</text><text fill="#000000" font-family="sans-serif" font-size="14" lengthAdjust="spacing" textLength="202.9385" x="843.83" y="925.8189">float rotation_increment_deg</text><text fill="#000000" font-family="sans-serif" font-size="14" lengthAdjust="spacing" textLength="320.332" x="843.83" y="942.1157">IspybExperimentType ispyb_experiment_type</text><line style="stroke:#181818;stroke-width:0.5;" x1="838.83" x2="1169.162" y1="949.4175" y2="949.4175"/></g><!--reverse link GridCommon to GridCommonWithHyperionDetectorParams--><g class="link" data-entity-1="GridCommon" data-entity-2="GridCommonWithHyperionDetectorParams" data-source-line="95" data-uid="lnk23" id="link_GridCommon_GridCommonWithHyperionDetectorParams"><path codeLine="95" d="M3632.4133,735.6983 C3022.9333,759.1283 960.57,839.5469 820,860.5269 C784.11,865.8869 745.09,875.3969 712.26,884.5069" fill="none" id="GridCommon-backto-GridCommonWithHyperionDetectorParams" style="stroke:#181818;stroke-width:1;"/><polygon fill="none" points="3650.4,735.0069,3632.1828,729.7028,3632.6438,741.6939,3650.4,735.0069" style="stroke:#181818;stroke-width:1;"/></g><!--reverse link WithHyperionUDCFeatures to GridCommonWithHyperionDetectorParams--><g class="link" data-entity-1="WithHyperionUDCFeatures" data-entity-2="GridCommonWithHyperionDetectorParams" data-source-line="96" data-uid="lnk24" id="link_WithHyperionUDCFeatures_GridCommonWithHyperionDetectorParams"><path codeLine="96" d="M612.7329,777.5968 C619.0729,813.1168 626.12,852.5969 631.81,884.5169" fill="none" id="WithHyperionUDCFeatures-backto-GridCommonWithHyperionDetectorParams" style="stroke:#181818;stroke-width:1;"/><polygon fill="none" points="609.57,759.8769,606.8262,778.6511,618.6395,776.5425,609.57,759.8769" style="stroke:#181818;stroke-width:1;"/></g><!--reverse link GridCommonWithHyperionDetectorParams to PinTipCentreThenXrayCentre--><g class="link" data-entity-1="GridCommonWithHyperionDetectorParams" data-entity-2="PinTipCentreThenXrayCentre" data-source-line="97" data-uid="lnk25" id="link_GridCommonWithHyperionDetectorParams_PinTipCentreThenXrayCentre"><path codeLine="97" d="M550.894,939.1676 C483.994,962.1176 398.45,991.4669 324.25,1016.9169" fill="none" id="GridCommonWithHyperionDetectorParams-backto-PinTipCentreThenXrayCentre" style="stroke:#181818;stroke-width:1;"/><polygon fill="none" points="567.92,933.3269,548.9471,933.4923,552.8409,944.843,567.92,933.3269" style="stroke:#181818;stroke-width:1;"/></g><!--reverse link WithHyperionUDCFeatures to PinTipCentreThenXrayCentre--><g class="link" data-entity-1="WithHyperionUDCFeatures" data-entity-2="PinTipCentreThenXrayCentre" data-source-line="98" data-uid="lnk26" id="link_WithHyperionUDCFeatures_PinTipCentreThenXrayCentre"><path codeLine="98" d="M545.4536,770.6213 C502.3236,801.9313 454.82,837.9369 435,860.5269 C402.06,898.0969 412.86,921.6269 378,957.4169 C354.75,981.2869 324.06,1001.6569 296.82,1017.0469" fill="none" id="WithHyperionUDCFeatures-backto-PinTipCentreThenXrayCentre" style="stroke:#181818;stroke-width:1;"/><polygon fill="none" points="560.02,760.0469,541.9287,765.7658,548.9784,775.4768,560.02,760.0469" style="stroke:#181818;stroke-width:1;"/></g><!--reverse link RotationExperiment to RotationScan--><g class="link" data-entity-1="RotationExperiment" data-entity-2="RotationScan" data-source-line="99" data-uid="lnk27" id="link_RotationExperiment_RotationScan"><path codeLine="99" d="M957.4077,972.0651 C942.5977,991.8051 936.65,999.7269 923.45,1017.3169" fill="none" id="RotationExperiment-backto-RotationScan" style="stroke:#181818;stroke-width:1;"/><polygon fill="none" points="968.21,957.6669,952.6082,968.4643,962.2071,975.6659,968.21,957.6669" style="stroke:#181818;stroke-width:1;"/></g><!--reverse link SplitScan to RotationScan--><g class="link" data-entity-1="SplitScan" data-entity-2="RotationScan" data-source-line="100" data-uid="lnk28" id="link_SplitScan_RotationScan"><path codeLine="100" d="M3599.4168,190.8442 C3609.2268,207.2042 3615.36,212.6169 3635,223.7769 C3785.11,309.0969 3895.24,156.4069 4020,275.7769 C4115.92,367.5569 4073,436.9869 4073,569.7469 C4073,569.7469 4073,569.7469 4073,728.6369 C4073,785.3269 4048.45,804.8169 3999,832.5269 C3755.52,968.9569 1879.59,1026.0069 1170.38,1042.8469" fill="none" id="SplitScan-backto-RotationScan" style="stroke:#181818;stroke-width:1;"/><polygon fill="none" points="3590.16,175.4069,3594.271,193.9298,3604.5626,187.7587,3590.16,175.4069" style="stroke:#181818;stroke-width:1;"/></g><!--reverse link DiffractionExperimentWithSample to GridCommon--><g class="link" data-entity-1="DiffractionExperimentWithSample" data-entity-2="GridCommon" data-source-line="101" data-uid="lnk29" id="link_DiffractionExperimentWithSample_GridCommon"><path codeLine="101" d="M3817,612.9369 C3817,628.8869 3817,633.0069 3817,654.5669" fill="none" id="DiffractionExperimentWithSample-backto-GridCommon" style="stroke:#181818;stroke-width:1;"/><polygon fill="none" points="3817,594.9369,3811,612.9369,3823,612.9369,3817,594.9369" style="stroke:#181818;stroke-width:1;"/></g><!--reverse link OptionalGonioAngleStarts to GridCommon--><g class="link" data-entity-1="OptionalGonioAngleStarts" data-entity-2="GridCommon" data-source-line="102" data-uid="lnk30" id="link_OptionalGonioAngleStarts_GridCommon"><path codeLine="102" d="M3489.9816,216.0113 C3502.4616,222.1113 3499.22,219.6869 3512,223.7769 C3616.07,257.1269 3927.93,194.5269 4001,275.7769 C4048.62,328.7369 4008.4,534.7669 3970,594.7469 C3956.01,616.6069 3937.32,636.8469 3917.82,654.5769" fill="none" id="OptionalGonioAngleStarts-backto-GridCommon" style="stroke:#181818;stroke-width:1;"/><polygon fill="none" points="3473.81,208.1069,3487.3468,221.4018,3492.6164,210.6207,3473.81,208.1069" style="stroke:#181818;stroke-width:1;"/></g><!--reverse link MxBlueskyParameters to LoadCentreCollect--><g class="link" data-entity-1="MxBlueskyParameters" data-entity-2="LoadCentreCollect" data-source-line="103" data-uid="lnk31" id="link_MxBlueskyParameters_LoadCentreCollect"><path codeLine="103" d="M3987.2579,189.8228 C4036.7379,208.1628 4069.77,230.7069 4099,275.7769 C4235.71,486.5769 4200.82,680.2269 4001,832.5269 C3961.8,862.4069 501.08,855.9069 452,860.5269 C422.31,863.3269 390.94,867.7369 360.64,872.7769" fill="none" id="MxBlueskyParameters-backto-LoadCentreCollect" style="stroke:#181818;stroke-width:1;"/><polygon fill="none" points="3970.38,183.5669,3985.1726,195.4487,3989.3432,184.1968,3970.38,183.5669" style="stroke:#181818;stroke-width:1;"/></g><!--reverse link WithVisit to LoadCentreCollect--><g class="link" data-entity-1="WithVisit" data-entity-2="LoadCentreCollect" data-source-line="104" data-uid="lnk32" id="link_WithVisit_LoadCentreCollect"><path codeLine="104" d="M2360.8362,222.7368 C2353.9262,225.4268 2363.8,221.4469 2357,223.7769 C1544.48,503.0369 1179.52,165.0569 472,652.4869 C392.81,707.0469 424.89,769.8069 352,832.5269 C335.86,846.4169 316.72,858.3069 297.37,868.2569" fill="none" id="WithVisit-backto-LoadCentreCollect" style="stroke:#181818;stroke-width:1;"/><polygon fill="none" points="2377.61,216.2069,2358.6596,217.1455,2363.0128,228.328,2377.61,216.2069" style="stroke:#181818;stroke-width:1;"/></g><!--reverse link WithSample to LoadCentreCollect--><g class="link" data-entity-1="WithSample" data-entity-2="LoadCentreCollect" data-source-line="105" data-uid="lnk33" id="link_WithSample_LoadCentreCollect"><path codeLine="105" d="M2178.3137,209.8721 C2163.7137,219.5221 2162.48,218.4169 2146,223.7769 C2054.3,253.6269 484.25,213.0669 411,275.7769 C315.39,357.6369 376.96,727.9069 307,832.5269 C297.72,846.4069 284.93,858.3169 271.22,868.2869" fill="none" id="WithSample-backto-LoadCentreCollect" style="stroke:#181818;stroke-width:1;"/><polygon fill="none" points="2193.33,199.9469,2175.0053,204.8666,2181.622,214.8775,2193.33,199.9469" style="stroke:#181818;stroke-width:1;"/></g><!--reverse link WithCentreSelection to LoadCentreCollect--><g class="link" data-entity-1="WithCentreSelection" data-entity-2="LoadCentreCollect" data-source-line="106" data-uid="lnk34" id="link_WithCentreSelection_LoadCentreCollect"><path codeLine="106" d="M1367.0889,187.6819 C1119.1789,244.1119 653,378.7869 340,652.4869 C271,712.8269 225.78,813.2269 204.73,868.4969" fill="none" id="WithCentreSelection-backto-LoadCentreCollect" style="stroke:#181818;stroke-width:1;"/><polygon fill="none" points="1384.64,183.6869,1365.7573,181.8315,1368.4206,193.5323,1384.64,183.6869" style="stroke:#181818;stroke-width:1;"/></g><!--reverse link WithHyperionUDCFeatures to LoadCentreCollect--><g class="link" data-entity-1="WithHyperionUDCFeatures" data-entity-2="LoadCentreCollect" data-source-line="107" data-uid="lnk35" id="link_WithHyperionUDCFeatures_LoadCentreCollect"><path codeLine="107" d="M555.222,771.7554 C528.042,794.7254 502.24,813.4369 463,832.5269 C441.96,842.7669 398.76,855.8669 352.87,868.2669" fill="none" id="WithHyperionUDCFeatures-backto-LoadCentreCollect" style="stroke:#181818;stroke-width:1;"/><polygon fill="none" points="568.97,760.1369,551.3491,767.1728,559.0948,776.3381,568.97,760.1369" style="stroke:#181818;stroke-width:1;"/></g><!--reverse link MxBlueskyParameters to DiffractionExperiment--><g class="link" data-entity-1="MxBlueskyParameters" data-entity-2="DiffractionExperiment" data-source-line="108" data-uid="lnk36" id="link_MxBlueskyParameters_DiffractionExperiment"><path codeLine="108" d="M3820.9223,201.2925 C3820.3923,225.2725 3820.03,241.8669 3819.3,275.3869" fill="none" id="MxBlueskyParameters-backto-DiffractionExperiment" style="stroke:#181818;stroke-width:1;"/><polygon fill="none" points="3821.32,183.2969,3814.9237,201.1599,3826.9208,201.4251,3821.32,183.2969" style="stroke:#181818;stroke-width:1;"/></g><!--reverse link WithSnapshot to DiffractionExperiment--><g class="link" data-entity-1="WithSnapshot" data-entity-2="DiffractionExperiment" data-source-line="109" data-uid="lnk37" id="link_WithSnapshot_DiffractionExperiment"><path codeLine="109" d="M3214.4642,206.9517 C3234.1942,215.4417 3238.32,216.7069 3258,223.7769 C3387.7,270.3769 3538.34,311.8469 3650.54,340.3669" fill="none" id="WithSnapshot-backto-DiffractionExperiment" style="stroke:#181818;stroke-width:1;"/><polygon fill="none" points="3197.93,199.8369,3212.0926,212.4631,3216.8358,201.4403,3197.93,199.8369" style="stroke:#181818;stroke-width:1;"/></g><!--reverse link WithOptionalEnergyChange to DiffractionExperiment--><g class="link" data-entity-1="WithOptionalEnergyChange" data-entity-2="DiffractionExperiment" data-source-line="110" data-uid="lnk38" id="link_WithOptionalEnergyChange_DiffractionExperiment"><path codeLine="110" d="M2864.8056,192.5544 C2889.5156,206.7944 2904.64,213.6569 2934,223.7769 C3175.39,306.9869 3469.88,347.8069 3650.37,366.3969" fill="none" id="WithOptionalEnergyChange-backto-DiffractionExperiment" style="stroke:#181818;stroke-width:1;"/><polygon fill="none" points="2849.21,183.5669,2861.8098,197.753,2867.8015,187.3559,2849.21,183.5669" style="stroke:#181818;stroke-width:1;"/></g><!--reverse link WithVisit to DiffractionExperiment--><g class="link" data-entity-1="WithVisit" data-entity-2="DiffractionExperiment" data-source-line="111" data-uid="lnk39" id="link_WithVisit_DiffractionExperiment"><path codeLine="111" d="M2657.8065,222.2901 C2665.5465,225.0901 2656.36,221.5369 2664,223.7769 C2756.65,250.9669 3354,324.8269 3650.52,360.4769" fill="none" id="WithVisit-backto-DiffractionExperiment" style="stroke:#181818;stroke-width:1;"/><polygon fill="none" points="2640.88,216.1669,2655.7654,227.9323,2659.8476,216.648,2640.88,216.1669" style="stroke:#181818;stroke-width:1;"/></g><!--reverse link WithPandaGridScan to WithHyperionUDCFeatures--><g class="link" data-entity-1="WithPandaGridScan" data-entity-2="WithHyperionUDCFeatures" data-source-line="112" data-uid="lnk40" id="link_WithPandaGridScan_WithHyperionUDCFeatures"><path codeLine="112" d="M1934.6635,192.0009 C1910.1335,205.0309 1896.89,211.4869 1870,223.7769 C1436.33,422.0169 900.46,619.9169 692.39,695.0469" fill="none" id="WithPandaGridScan-backto-WithHyperionUDCFeatures" style="stroke:#181818;stroke-width:1;"/><polygon fill="none" points="1950.56,183.5569,1931.8488,186.702,1937.4782,197.2997,1950.56,183.5569" style="stroke:#181818;stroke-width:1;"/></g><!--reverse link GridCommonWithHyperionDetectorParams to GridScanWithEdgeDetect--><g class="link" data-entity-1="GridCommonWithHyperionDetectorParams" data-entity-2="GridScanWithEdgeDetect" data-source-line="113" data-uid="lnk41" id="link_GridCommonWithHyperionDetectorParams_GridScanWithEdgeDetect"><path codeLine="113" d="M598.5046,945.5686 C571.5546,971.1486 541.5,999.6769 514.52,1025.2969" fill="none" id="GridCommonWithHyperionDetectorParams-backto-GridScanWithEdgeDetect" style="stroke:#181818;stroke-width:1;"/><polygon fill="none" points="611.56,933.1769,594.374,941.2168,602.6352,949.9204,611.56,933.1769" style="stroke:#181818;stroke-width:1;"/></g><!--reverse link WithHyperionUDCFeatures to GridScanWithEdgeDetect--><g class="link" data-entity-1="WithHyperionUDCFeatures" data-entity-2="GridScanWithEdgeDetect" data-source-line="114" data-uid="lnk42" id="link_WithHyperionUDCFeatures_GridScanWithEdgeDetect"><path codeLine="114" d="M532.7072,770.0823 C498.0572,792.9523 471.65,817.4569 452,860.5269 C426.63,916.1269 457.15,988.6369 476.48,1025.2469" fill="none" id="WithHyperionUDCFeatures-backto-GridScanWithEdgeDetect" style="stroke:#181818;stroke-width:1;"/><polygon fill="none" points="547.73,760.1669,529.4021,765.0747,536.0124,775.0899,547.73,760.1669" style="stroke:#181818;stroke-width:1;"/></g><!--reverse link DiffractionExperiment to RotationExperiment--><g class="link" data-entity-1="DiffractionExperiment" data-entity-2="RotationExperiment" data-source-line="115" data-uid="lnk43" id="link_DiffractionExperiment_RotationExperiment"><path codeLine="115" d="M3632.8063,416.6836 C3133.4163,510.0136 1669.66,783.5669 1170.4,876.8769" fill="none" id="DiffractionExperiment-backto-RotationExperiment" style="stroke:#181818;stroke-width:1;"/><polygon fill="none" points="3650.5,413.3769,3631.7041,410.7857,3633.9086,422.5815,3650.5,413.3769" style="stroke:#181818;stroke-width:1;"/></g><!--reverse link WithHyperionUDCFeatures to RotationExperiment--><g class="link" data-entity-1="WithHyperionUDCFeatures" data-entity-2="RotationExperiment" data-source-line="116" data-uid="lnk44" id="link_WithHyperionUDCFeatures_RotationExperiment"><path codeLine="116" d="M690.5554,767.4494 C752.2854,795.1194 826.67,828.4669 897.39,860.1769" fill="none" id="WithHyperionUDCFeatures-backto-RotationExperiment" style="stroke:#181818;stroke-width:1;"/><polygon fill="none" points="674.13,760.0869,688.1012,772.9245,693.0096,761.9743,674.13,760.0869" style="stroke:#181818;stroke-width:1;"/></g><!--reverse link DiffractionExperiment to DiffractionExperimentWithSample--><g class="link" data-entity-1="DiffractionExperiment" data-entity-2="DiffractionExperimentWithSample" data-source-line="117" data-uid="lnk45" id="link_DiffractionExperiment_DiffractionExperimentWithSample"><path codeLine="117" d="M3817,505.2469 C3817,527.4969 3817,530.8969 3817,546.3269" fill="none" id="DiffractionExperiment-backto-DiffractionExperimentWithSample" style="stroke:#181818;stroke-width:1;"/><polygon fill="none" points="3817,487.2469,3811,505.2469,3823,505.2469,3817,487.2469" style="stroke:#181818;stroke-width:1;"/></g><!--reverse link WithSample to DiffractionExperimentWithSample--><g class="link" data-entity-1="WithSample" data-entity-2="DiffractionExperimentWithSample" data-source-line="118" data-uid="lnk46" id="link_WithSample_DiffractionExperimentWithSample"><path codeLine="118" d="M2328.9646,209.7673 C2342.6646,218.6473 2342.35,217.3469 2357,223.7769 C2818.65,426.5369 3416.86,520.4669 3681.2,554.2269" fill="none" id="WithSample-backto-DiffractionExperimentWithSample" style="stroke:#181818;stroke-width:1;"/><polygon fill="none" points="2313.86,199.9769,2325.7011,214.8021,2332.228,204.7324,2313.86,199.9769" style="stroke:#181818;stroke-width:1;"/></g><!--SRC=[bLR1Rjiu43r7Ny7RTe5DWBstXzH9kWiqhL5ximiK0K5BOua8HH8abLhhvjyx92LPiYGxGGwnPXvd7cVUZFJRkk2MRBa0WlzPvTHb3X8CSv2HJKtQ1we5awugnPMkayHnXmV-gZKOhYHPCiDAS638lSf091OSaMYncgMm0erkfmoHIaAIeEs9vK3A7Ts82knJVPMgibJoIhTXBDadJkNW2WovJrB1h2LVjSDSJ7nIagjhcGjOEMQStISNMw6O8p_95qn0L0avezRxQ0RvaLSNVDQNdl0zCQtxKLyQLlzoLwnOgGKW3ouTiU61yYm-DiSRgwxIfqaxbuE82v3EOEK4fFxI67gjz9UFzJtRBLGbNUV1E4FFdJAtB6qe7M0s_A9fY6i7kHwuvGupM6V81bWfE7OfF3rxJ_oP0LwRMqUTeXv4KoMVmM2lg6QkY20kBPem7TK6jdntL4ACWHoK2O6OJ86MvR2EacbRA4zcYK69RPxnW0adw-H2uDdl8UnZLyCM5ZflO_CsIWbIMQ2vuHbj8SERjugwHOddzQ9WCeVzY7J9P4OXG2WyTm5MMd2tIXasfnzpYMZs2ND6LnDCUoirbQpqqUrVnaA_ttsCSz6DbTVuoXDnF7t0Hz_HRbXewMUEFaTxH-Q6RxU6XUxVxloSbjZxfir-tAaVq9OVxBIobG7g44PjHFcfn3EeFSFp78oVRUBYxv1qe6Iy79LLkG6JN5nZFeVX7XXUf6jJa21ab3NUDhapJDgIMq-VUix9nTzMrvi3xJKk6bnFQAFG6Qb3QsHgKHkuKlewwVfl58zasyBuvYp2mkdQir4xQld_GAkoDGNP_E2PAth6KPdUmFEDDU6QgkqM5wbFVxAd_Gtq4lucDcpHhEhXZZqkY0_LBlMRPbg32Er1v4ikrrp71RKkGFvdM1sVzgV9VrEEUURDO5nBwGsGVGyZtVSkmQn-0EZ7FyXdaEzABga0cRlYmv-_FnBJ8Ab5w66WFokMHHuB9NnLCSStjL7EEppHwCJZQAF8CwCuTR9PYHvx843AIZXE1va6KzuMwP-RnHqmtpW_egsrCTq9bkEhjV4FzEUJ-3YtMGwnqFjHdGPJ6mjhYyhvYLSQ99Tv9yFexUXocHe8qWkhyFKYzU8vg86y_tbv-Ifr93CrUKE4ru1Yk7a1dgPnujouvF58NnD9j_0dV6S6yxWEoTotp0WuyIw8c97Sa-vTVWhGvpEDEFhqE0MTBVKOFdkFoSeb_Q-1SxYfj_YvCxqwpOC6h_88dhdr6zGxFVtd1sZYp2JpeJYFRZIROG9_8lePjO-4TWR_2m00]--></g></svg>