<svg xmlns="http://www.w3.org/2000/svg" xmlns:xlink="http://www.w3.org/1999/xlink" contentStyleType="text/css" data-diagram-type="CLASS" height="1235px" preserveAspectRatio="none" style="width:5035px;height:1235px;background:#FFFFFF;" version="1.1" viewBox="0 0 5035 1235" width="5035px" zoomAndPan="magnify"><title>Hyperion Parameter Model</title><defs/><g><text fill="#000000" font-family="sans-serif" font-size="14" font-weight="bold" lengthAdjust="spacing" textLength="212.4951" x="2404.4524" y="22.9951">Hyperion Parameter Model</text><!--cluster mx_bluesky.common.parameters--><g id="cluster_mx_bluesky.common.parameters"><path d="M8.5,43.2969 L269.8125,43.2969 A3.75,3.75 0 0 1 272.3125,45.7969 L279.3125,65.5938 L2993.5,65.5938 A2.5,2.5 0 0 1 2996,68.0938 L2996,1109.2969 A2.5,2.5 0 0 1 2993.5,1111.7969 L8.5,1111.7969 A2.5,2.5 0 0 1 6,1109.2969 L6,45.7969 A2.5,2.5 0 0 1 8.5,43.2969 " fill="#FFFFFF" fill-opacity="0.00000" style="stroke:#000000;stroke-width:1.5;"/><line style="stroke:#000000;stroke-width:1.5;" x1="6" x2="279.3125" y1="65.5938" y2="65.5938"/><text fill="#000000" font-family="sans-serif" font-size="14" font-weight="bold" lengthAdjust="spacing" textLength="260.3125" x="10" y="58.292">mx_bluesky.common.parameters</text></g><!--cluster mx_bluesky.hyperion.parameters--><g id="cluster_mx_bluesky.hyperion.parameters"><path d="M3022.5,660.4969 L3287.0322,660.4969 A3.75,3.75 0 0 1 3289.5322,662.9969 L3296.5322,682.7937 L4842.5,682.7937 A2.5,2.5 0 0 1 4845,685.2937 L4845,1225.5969 A2.5,2.5 0 0 1 4842.5,1228.0969 L3022.5,1228.0969 A2.5,2.5 0 0 1 3020,1225.5969 L3020,662.9969 A2.5,2.5 0 0 1 3022.5,660.4969 " fill="#FFFFFF" fill-opacity="0.00000" style="stroke:#000000;stroke-width:1.5;"/><line style="stroke:#000000;stroke-width:1.5;" x1="3020" x2="3296.5322" y1="682.7937" y2="682.7937"/><text fill="#000000" font-family="sans-serif" font-size="14" font-weight="bold" lengthAdjust="spacing" textLength="263.5322" x="3024" y="675.492">mx_bluesky.hyperion.parameters</text></g><!--class WithScan--><g id="elem_WithScan"><rect codeLine="8" fill="#F1F1F1" height="48" id="WithScan" rx="2.5" ry="2.5" style="stroke:#181818;stroke-width:0.5;" width="98.1309" x="1250.93" y="127.0469"/><ellipse cx="1265.93" cy="143.0469" fill="#ADD1B2" rx="11" ry="11" style="stroke:#181818;stroke-width:1;"/><path d="M1268.8988,148.6875 Q1268.3206,148.9844 1267.68,149.125 Q1267.0394,149.2813 1266.3363,149.2813 Q1263.8363,149.2813 1262.5081,147.6406 Q1261.1956,145.9844 1261.1956,142.8594 Q1261.1956,139.7344 1262.5081,138.0781 Q1263.8363,136.4219 1266.3363,136.4219 Q1267.0394,136.4219 1267.68,136.5781 Q1268.3363,136.7344 1268.8988,137.0313 L1268.8988,139.75 Q1268.2738,139.1719 1267.68,138.9063 Q1267.0863,138.625 1266.4613,138.625 Q1265.1175,138.625 1264.43,139.7031 Q1263.7425,140.7656 1263.7425,142.8594 Q1263.7425,144.9531 1264.43,146.0313 Q1265.1175,147.0938 1266.4613,147.0938 Q1267.0863,147.0938 1267.68,146.8281 Q1268.2738,146.5469 1268.8988,145.9688 L1268.8988,148.6875 Z " fill="#000000"/><text fill="#000000" font-family="sans-serif" font-size="14" lengthAdjust="spacing" textLength="66.1309" x="1279.93" y="147.8936">WithScan</text><line style="stroke:#181818;stroke-width:0.5;" x1="1251.93" x2="1348.0609" y1="159.0469" y2="159.0469"/><line style="stroke:#181818;stroke-width:0.5;" x1="1251.93" x2="1348.0609" y1="167.0469" y2="167.0469"/></g><!--class WithPandaGridScan--><g id="elem_WithPandaGridScan"><rect codeLine="10" fill="#F1F1F1" height="64.2969" id="WithPandaGridScan" rx="2.5" ry="2.5" style="stroke:#181818;stroke-width:0.5;" width="240.5664" x="1822.72" y="118.8969"/><ellipse cx="1869.3172" cy="134.8969" fill="#ADD1B2" rx="11" ry="11" style="stroke:#181818;stroke-width:1;"/><path d="M1872.2859,140.5375 Q1871.7078,140.8344 1871.0672,140.975 Q1870.4265,141.1312 1869.7234,141.1312 Q1867.2234,141.1312 1865.8953,139.4906 Q1864.5828,137.8344 1864.5828,134.7094 Q1864.5828,131.5844 1865.8953,129.9281 Q1867.2234,128.2719 1869.7234,128.2719 Q1870.4265,128.2719 1871.0672,128.4281 Q1871.7234,128.5844 1872.2859,128.8812 L1872.2859,131.6 Q1871.6609,131.0219 1871.0672,130.7562 Q1870.4734,130.475 1869.8484,130.475 Q1868.5047,130.475 1867.8172,131.5531 Q1867.1297,132.6156 1867.1297,134.7094 Q1867.1297,136.8031 1867.8172,137.8812 Q1868.5047,138.9437 1869.8484,138.9437 Q1870.4734,138.9437 1871.0672,138.6781 Q1871.6609,138.3969 1872.2859,137.8187 L1872.2859,140.5375 Z " fill="#000000"/><text fill="#000000" font-family="sans-serif" font-size="14" lengthAdjust="spacing" textLength="138.8721" x="1889.8172" y="139.7436">WithPandaGridScan</text><line style="stroke:#181818;stroke-width:0.5;" x1="1823.72" x2="2062.2864" y1="150.8969" y2="150.8969"/><text fill="#000000" font-family="sans-serif" font-size="14" lengthAdjust="spacing" textLength="228.5664" x="1828.72" y="167.892">float panda_runup_distance_mm</text><line style="stroke:#181818;stroke-width:0.5;" x1="1823.72" x2="2062.2864" y1="175.1937" y2="175.1937"/></g><!--class WithSample--><g id="elem_WithSample"><rect codeLine="13" fill="#F1F1F1" height="96.8906" id="WithSample" rx="2.5" ry="2.5" style="stroke:#181818;stroke-width:0.5;" width="176.3086" x="460.85" y="102.5969"/><ellipse cx="502.7243" cy="118.5969" fill="#ADD1B2" rx="11" ry="11" style="stroke:#181818;stroke-width:1;"/><path d="M505.6931,124.2375 Q505.1149,124.5344 504.4743,124.675 Q503.8337,124.8312 503.1306,124.8312 Q500.6306,124.8312 499.3024,123.1906 Q497.9899,121.5344 497.9899,118.4094 Q497.9899,115.2844 499.3024,113.6281 Q500.6306,111.9719 503.1306,111.9719 Q503.8337,111.9719 504.4743,112.1281 Q505.1306,112.2844 505.6931,112.5812 L505.6931,115.3 Q505.0681,114.7219 504.4743,114.4562 Q503.8806,114.175 503.2556,114.175 Q501.9118,114.175 501.2243,115.2531 Q500.5368,116.3156 500.5368,118.4094 Q500.5368,120.5031 501.2243,121.5812 Q501.9118,122.6437 503.2556,122.6437 Q503.8806,122.6437 504.4743,122.3781 Q505.0681,122.0969 505.6931,121.5187 L505.6931,124.2375 Z " fill="#000000"/><text fill="#000000" font-family="sans-serif" font-size="14" lengthAdjust="spacing" textLength="84.5879" x="522.6964" y="123.4436">WithSample</text><line style="stroke:#181818;stroke-width:0.5;" x1="461.85" x2="636.1586" y1="134.5969" y2="134.5969"/><text fill="#000000" font-family="sans-serif" font-size="14" lengthAdjust="spacing" textLength="93.3789" x="466.85" y="151.592">int sample_id</text><text fill="#000000" font-family="sans-serif" font-size="14" lengthAdjust="spacing" textLength="164.3086" x="466.85" y="167.8889">int | None sample_puck</text><text fill="#000000" font-family="sans-serif" font-size="14" lengthAdjust="spacing" textLength="152.3936" x="466.85" y="184.1857">int | None sample_pin</text><line style="stroke:#181818;stroke-width:0.5;" x1="461.85" x2="636.1586" y1="191.4875" y2="191.4875"/></g><!--class OptionalGonioAngleStarts--><g id="elem_OptionalGonioAngleStarts"><rect codeLine="18" fill="#F1F1F1" height="113.1875" id="OptionalGonioAngleStarts" rx="2.5" ry="2.5" style="stroke:#181818;stroke-width:0.5;" width="219.3203" x="672.34" y="94.4469"/><ellipse cx="690.0633" cy="110.4469" fill="#ADD1B2" rx="11" ry="11" style="stroke:#181818;stroke-width:1;"/><path d="M693.032,116.0875 Q692.4539,116.3844 691.8133,116.525 Q691.1727,116.6812 690.4695,116.6812 Q687.9695,116.6812 686.6414,115.0406 Q685.3289,113.3844 685.3289,110.2594 Q685.3289,107.1344 686.6414,105.4781 Q687.9695,103.8219 690.4695,103.8219 Q691.1727,103.8219 691.8133,103.9781 Q692.4695,104.1344 693.032,104.4312 L693.032,107.15 Q692.407,106.5719 691.8133,106.3062 Q691.2195,106.025 690.5945,106.025 Q689.2508,106.025 688.5633,107.1031 Q687.8758,108.1656 687.8758,110.2594 Q687.8758,112.3531 688.5633,113.4312 Q689.2508,114.4937 690.5945,114.4937 Q691.2195,114.4937 691.8133,114.2281 Q692.407,113.9469 693.032,113.3687 L693.032,116.0875 Z " fill="#000000"/><text fill="#000000" font-family="sans-serif" font-size="14" lengthAdjust="spacing" textLength="181.2686" x="704.6685" y="115.2936">OptionalGonioAngleStarts</text><line style="stroke:#181818;stroke-width:0.5;" x1="673.34" x2="890.6603" y1="126.4469" y2="126.4469"/><text fill="#000000" font-family="sans-serif" font-size="14" lengthAdjust="spacing" textLength="207.3203" x="678.34" y="143.442">float | None omega_start_deg</text><text fill="#000000" font-family="sans-serif" font-size="14" lengthAdjust="spacing" textLength="180.6875" x="678.34" y="159.7389">float | None phi_start_deg</text><text fill="#000000" font-family="sans-serif" font-size="14" lengthAdjust="spacing" textLength="179.498" x="678.34" y="176.0357">float | None chi_start_deg</text><text fill="#000000" font-family="sans-serif" font-size="14" lengthAdjust="spacing" textLength="202.0771" x="678.34" y="192.3326">float | None kappa_start_deg</text><line style="stroke:#181818;stroke-width:0.5;" x1="673.34" x2="890.6603" y1="199.6344" y2="199.6344"/></g><!--class WithVisit--><g id="elem_WithVisit"><rect codeLine="24" fill="#F1F1F1" height="129.4844" id="WithVisit" rx="2.5" ry="2.5" style="stroke:#181818;stroke-width:0.5;" width="271.7861" x="1384.11" y="86.2969"/><ellipse cx="1484.6359" cy="102.2969" fill="#ADD1B2" rx="11" ry="11" style="stroke:#181818;stroke-width:1;"/><path d="M1487.6046,107.9375 Q1487.0265,108.2344 1486.3859,108.375 Q1485.7453,108.5313 1485.0421,108.5313 Q1482.5421,108.5313 1481.214,106.8906 Q1479.9015,105.2344 1479.9015,102.1094 Q1479.9015,98.9844 1481.214,97.3281 Q1482.5421,95.6719 1485.0421,95.6719 Q1485.7453,95.6719 1486.3859,95.8281 Q1487.0421,95.9844 1487.6046,96.2813 L1487.6046,99 Q1486.9796,98.4219 1486.3859,98.1563 Q1485.7921,97.875 1485.1671,97.875 Q1483.8234,97.875 1483.1359,98.9531 Q1482.4484,100.0156 1482.4484,102.1094 Q1482.4484,104.2031 1483.1359,105.2813 Q1483.8234,106.3438 1485.1671,106.3438 Q1485.7921,106.3438 1486.3859,106.0781 Q1486.9796,105.7969 1487.6046,105.2188 L1487.6046,107.9375 Z " fill="#000000"/><text fill="#000000" font-family="sans-serif" font-size="14" lengthAdjust="spacing" textLength="62.2344" x="1505.1359" y="107.1436">WithVisit</text><line style="stroke:#181818;stroke-width:0.5;" x1="1385.11" x2="1654.8961" y1="118.2969" y2="118.2969"/><text fill="#000000" font-family="sans-serif" font-size="14" lengthAdjust="spacing" textLength="87.9717" x="1390.11" y="135.292">str beamline</text><text fill="#000000" font-family="sans-serif" font-size="14" lengthAdjust="spacing" textLength="51.8369" x="1390.11" y="151.5889">str visit</text><text fill="#000000" font-family="sans-serif" font-size="14" lengthAdjust="spacing" textLength="259.7861" x="1390.11" y="167.8857">str det_dist_to_beam_converter_path</text><text fill="#000000" font-family="sans-serif" font-size="14" lengthAdjust="spacing" textLength="131.5918" x="1390.11" y="184.1826">str insertion_prefix</text><text fill="#000000" font-family="sans-serif" font-size="14" lengthAdjust="spacing" textLength="245.752" x="1390.11" y="200.4795">float | None detector_distance_mm</text><line style="stroke:#181818;stroke-width:0.5;" x1="1385.11" x2="1654.8961" y1="207.7813" y2="207.7813"/></g><!--class SplitScan--><g id="elem_SplitScan"><rect codeLine="31" fill="#F1F1F1" height="48" id="SplitScan" rx="2.5" ry="2.5" style="stroke:#181818;stroke-width:0.5;" width="97.0781" x="1690.46" y="127.0469"/><ellipse cx="1705.46" cy="143.0469" fill="#ADD1B2" rx="11" ry="11" style="stroke:#181818;stroke-width:1;"/><path d="M1708.4288,148.6875 Q1707.8506,148.9844 1707.21,149.125 Q1706.5694,149.2813 1705.8663,149.2813 Q1703.3663,149.2813 1702.0381,147.6406 Q1700.7256,145.9844 1700.7256,142.8594 Q1700.7256,139.7344 1702.0381,138.0781 Q1703.3663,136.4219 1705.8663,136.4219 Q1706.5694,136.4219 1707.21,136.5781 Q1707.8663,136.7344 1708.4288,137.0313 L1708.4288,139.75 Q1707.8038,139.1719 1707.21,138.9063 Q1706.6163,138.625 1705.9913,138.625 Q1704.6475,138.625 1703.96,139.7031 Q1703.2725,140.7656 1703.2725,142.8594 Q1703.2725,144.9531 1703.96,146.0313 Q1704.6475,147.0938 1705.9913,147.0938 Q1706.6163,147.0938 1707.21,146.8281 Q1707.8038,146.5469 1708.4288,145.9688 L1708.4288,148.6875 Z " fill="#000000"/><text fill="#000000" font-family="sans-serif" font-size="14" lengthAdjust="spacing" textLength="65.0781" x="1719.46" y="147.8936">SplitScan</text><line style="stroke:#181818;stroke-width:0.5;" x1="1691.46" x2="1786.5381" y1="159.0469" y2="159.0469"/><line style="stroke:#181818;stroke-width:0.5;" x1="1691.46" x2="1786.5381" y1="167.0469" y2="167.0469"/></g><!--class WithSnapshot--><g id="elem_WithSnapshot"><rect codeLine="33" fill="#F1F1F1" height="80.5938" id="WithSnapshot" rx="2.5" ry="2.5" style="stroke:#181818;stroke-width:0.5;" width="289.3477" x="926.33" y="110.7469"/><ellipse cx="1017.9828" cy="126.7469" fill="#ADD1B2" rx="11" ry="11" style="stroke:#181818;stroke-width:1;"/><path d="M1020.9516,132.3875 Q1020.3735,132.6844 1019.7328,132.825 Q1019.0922,132.9813 1018.3891,132.9813 Q1015.8891,132.9813 1014.561,131.3406 Q1013.2485,129.6844 1013.2485,126.5594 Q1013.2485,123.4344 1014.561,121.7781 Q1015.8891,120.1219 1018.3891,120.1219 Q1019.0922,120.1219 1019.7328,120.2781 Q1020.3891,120.4344 1020.9516,120.7313 L1020.9516,123.45 Q1020.3266,122.8719 1019.7328,122.6063 Q1019.1391,122.325 1018.5141,122.325 Q1017.1703,122.325 1016.4828,123.4031 Q1015.7953,124.4656 1015.7953,126.5594 Q1015.7953,128.6531 1016.4828,129.7313 Q1017.1703,130.7938 1018.5141,130.7938 Q1019.1391,130.7938 1019.7328,130.5281 Q1020.3266,130.2469 1020.9516,129.6688 L1020.9516,132.3875 Z " fill="#000000"/><text fill="#000000" font-family="sans-serif" font-size="14" lengthAdjust="spacing" textLength="97.542" x="1038.4828" y="131.5936">WithSnapshot</text><line style="stroke:#181818;stroke-width:0.5;" x1="927.33" x2="1214.6777" y1="142.7469" y2="142.7469"/><text fill="#000000" font-family="sans-serif" font-size="14" lengthAdjust="spacing" textLength="169.627" x="932.33" y="159.742">Path snapshot_directory</text><text fill="#000000" font-family="sans-serif" font-size="14" lengthAdjust="spacing" textLength="277.3477" x="932.33" y="176.0389">list[float] | None snapshot_omegas_deg</text><line style="stroke:#181818;stroke-width:0.5;" x1="927.33" x2="1214.6777" y1="183.3406" y2="183.3406"/></g><!--class WithCentreSelection--><g id="elem_WithCentreSelection"><rect codeLine="37" fill="#F1F1F1" height="64.2969" id="WithCentreSelection" rx="2.5" ry="2.5" style="stroke:#181818;stroke-width:0.5;" width="306.7861" x="2098.61" y="118.8969"/><ellipse cx="2175.8869" cy="134.8969" fill="#ADD1B2" rx="11" ry="11" style="stroke:#181818;stroke-width:1;"/><path d="M2178.8556,140.5375 Q2178.2775,140.8344 2177.6369,140.975 Q2176.9962,141.1312 2176.2931,141.1312 Q2173.7931,141.1312 2172.465,139.4906 Q2171.1525,137.8344 2171.1525,134.7094 Q2171.1525,131.5844 2172.465,129.9281 Q2173.7931,128.2719 2176.2931,128.2719 Q2176.9962,128.2719 2177.6369,128.4281 Q2178.2931,128.5844 2178.8556,128.8812 L2178.8556,131.6 Q2178.2306,131.0219 2177.6369,130.7562 Q2177.0431,130.475 2176.4181,130.475 Q2175.0744,130.475 2174.3869,131.5531 Q2173.6994,132.6156 2173.6994,134.7094 Q2173.6994,136.8031 2174.3869,137.8812 Q2175.0744,138.9437 2176.4181,138.9437 Q2177.0431,138.9437 2177.6369,138.6781 Q2178.2306,138.3969 2178.8556,137.8187 L2178.8556,140.5375 Z " fill="#000000"/><text fill="#000000" font-family="sans-serif" font-size="14" lengthAdjust="spacing" textLength="143.7324" x="2196.3869" y="139.7436">WithCentreSelection</text><line style="stroke:#181818;stroke-width:0.5;" x1="2099.61" x2="2404.3961" y1="150.8969" y2="150.8969"/><text fill="#000000" font-family="sans-serif" font-size="14" lengthAdjust="spacing" textLength="294.7861" x="2104.61" y="167.892">TopNByMaxCountSelection select_centres</text><line style="stroke:#181818;stroke-width:0.5;" x1="2099.61" x2="2404.3961" y1="175.1937" y2="175.1937"/></g><!--class OptionalXyzStarts--><g id="elem_OptionalXyzStarts"><rect codeLine="40" fill="#F1F1F1" height="96.8906" id="OptionalXyzStarts" rx="2.5" ry="2.5" style="stroke:#181818;stroke-width:0.5;" width="175.4473" x="2440.28" y="102.5969"/><ellipse cx="2463.1713" cy="118.5969" fill="#ADD1B2" rx="11" ry="11" style="stroke:#181818;stroke-width:1;"/><path d="M2466.14,124.2375 Q2465.5619,124.5344 2464.9213,124.675 Q2464.2806,124.8312 2463.5775,124.8312 Q2461.0775,124.8312 2459.7494,123.1906 Q2458.4369,121.5344 2458.4369,118.4094 Q2458.4369,115.2844 2459.7494,113.6281 Q2461.0775,111.9719 2463.5775,111.9719 Q2464.2806,111.9719 2464.9213,112.1281 Q2465.5775,112.2844 2466.14,112.5812 L2466.14,115.3 Q2465.515,114.7219 2464.9213,114.4562 Q2464.3275,114.175 2463.7025,114.175 Q2462.3588,114.175 2461.6713,115.2531 Q2460.9838,116.3156 2460.9838,118.4094 Q2460.9838,120.5031 2461.6713,121.5812 Q2462.3588,122.6437 2463.7025,122.6437 Q2464.3275,122.6437 2464.9213,122.3781 Q2465.515,122.0969 2466.14,121.5187 L2466.14,124.2375 Z " fill="#000000"/><text fill="#000000" font-family="sans-serif" font-size="14" lengthAdjust="spacing" textLength="125.9111" x="2478.9249" y="123.4436">OptionalXyzStarts</text><line style="stroke:#181818;stroke-width:0.5;" x1="2441.28" x2="2614.7273" y1="134.5969" y2="134.5969"/><text fill="#000000" font-family="sans-serif" font-size="14" lengthAdjust="spacing" textLength="163.4473" x="2446.28" y="151.592">float | None x_start_um</text><text fill="#000000" font-family="sans-serif" font-size="14" lengthAdjust="spacing" textLength="163.4473" x="2446.28" y="167.8889">float | None y_start_um</text><text fill="#000000" font-family="sans-serif" font-size="14" lengthAdjust="spacing" textLength="162.5107" x="2446.28" y="184.1857">float | None z_start_um</text><line style="stroke:#181818;stroke-width:0.5;" x1="2441.28" x2="2614.7273" y1="191.4875" y2="191.4875"/></g><!--class SpecifiedGrid--><g id="elem_SpecifiedGrid"><rect codeLine="45" fill="#F1F1F1" height="48" id="SpecifiedGrid" rx="2.5" ry="2.5" style="stroke:#181818;stroke-width:0.5;" width="125.6729" x="1237.16" y="357.2669"/><ellipse cx="1252.16" cy="373.2669" fill="#ADD1B2" rx="11" ry="11" style="stroke:#181818;stroke-width:1;"/><path d="M1255.1288,378.9075 Q1254.5506,379.2044 1253.91,379.345 Q1253.2694,379.5012 1252.5663,379.5012 Q1250.0663,379.5012 1248.7381,377.8606 Q1247.4256,376.2044 1247.4256,373.0794 Q1247.4256,369.9544 1248.7381,368.2981 Q1250.0663,366.6419 1252.5663,366.6419 Q1253.2694,366.6419 1253.91,366.7981 Q1254.5663,366.9544 1255.1288,367.2512 L1255.1288,369.97 Q1254.5038,369.3919 1253.91,369.1262 Q1253.3163,368.845 1252.6913,368.845 Q1251.3475,368.845 1250.66,369.9231 Q1249.9725,370.9856 1249.9725,373.0794 Q1249.9725,375.1731 1250.66,376.2512 Q1251.3475,377.3137 1252.6913,377.3137 Q1253.3163,377.3137 1253.91,377.0481 Q1254.5038,376.7669 1255.1288,376.1887 L1255.1288,378.9075 Z " fill="#000000"/><text fill="#000000" font-family="sans-serif" font-size="14" lengthAdjust="spacing" textLength="93.6729" x="1266.16" y="378.1136">SpecifiedGrid</text><line style="stroke:#181818;stroke-width:0.5;" x1="1238.16" x2="1361.8329" y1="389.2669" y2="389.2669"/><line style="stroke:#181818;stroke-width:0.5;" x1="1238.16" x2="1361.8329" y1="397.2669" y2="397.2669"/></g><!--class WithOptionalEnergyChange--><g id="elem_WithOptionalEnergyChange"><rect codeLine="47" fill="#F1F1F1" height="64.2969" id="WithOptionalEnergyChange" rx="2.5" ry="2.5" style="stroke:#181818;stroke-width:0.5;" width="235.4463" x="190.28" y="118.8969"/><ellipse cx="209.4645" cy="134.8969" fill="#ADD1B2" rx="11" ry="11" style="stroke:#181818;stroke-width:1;"/><path d="M212.4332,140.5375 Q211.8551,140.8344 211.2145,140.975 Q210.5738,141.1312 209.8707,141.1312 Q207.3707,141.1312 206.0426,139.4906 Q204.7301,137.8344 204.7301,134.7094 Q204.7301,131.5844 206.0426,129.9281 Q207.3707,128.2719 209.8707,128.2719 Q210.5738,128.2719 211.2145,128.4281 Q211.8707,128.5844 212.4332,128.8812 L212.4332,131.6 Q211.8082,131.0219 211.2145,130.7562 Q210.6207,130.475 209.9957,130.475 Q208.652,130.475 207.9645,131.5531 Q207.277,132.6156 207.277,134.7094 Q207.277,136.8031 207.9645,137.8812 Q208.652,138.9437 209.9957,138.9437 Q210.6207,138.9437 211.2145,138.6781 Q211.8082,138.3969 212.4332,137.8187 L212.4332,140.5375 Z " fill="#000000"/><text fill="#000000" font-family="sans-serif" font-size="14" lengthAdjust="spacing" textLength="194.1475" x="224.3944" y="139.7436">WithOptionalEnergyChange</text><line style="stroke:#181818;stroke-width:0.5;" x1="191.28" x2="424.7263" y1="150.8969" y2="150.8969"/><text fill="#000000" font-family="sans-serif" font-size="14" lengthAdjust="spacing" textLength="223.4463" x="196.28" y="167.892">float | None demand_energy_ev</text><line style="stroke:#181818;stroke-width:0.5;" x1="191.28" x2="424.7263" y1="175.1937" y2="175.1937"/></g><!--class XyzStarts--><g id="elem_XyzStarts"><rect codeLine="50" fill="#F1F1F1" height="96.8906" id="XyzStarts" rx="2.5" ry="2.5" style="stroke:#181818;stroke-width:0.5;" width="125.3057" x="30.35" y="102.5969"/><ellipse cx="57.3141" cy="118.5969" fill="#ADD1B2" rx="11" ry="11" style="stroke:#181818;stroke-width:1;"/><path d="M60.2829,124.2375 Q59.7047,124.5344 59.0641,124.675 Q58.4235,124.8312 57.7204,124.8312 Q55.2204,124.8312 53.8922,123.1906 Q52.5797,121.5344 52.5797,118.4094 Q52.5797,115.2844 53.8922,113.6281 Q55.2204,111.9719 57.7204,111.9719 Q58.4235,111.9719 59.0641,112.1281 Q59.7204,112.2844 60.2829,112.5812 L60.2829,115.3 Q59.6579,114.7219 59.0641,114.4562 Q58.4704,114.175 57.8454,114.175 Q56.5016,114.175 55.8141,115.2531 Q55.1266,116.3156 55.1266,118.4094 Q55.1266,120.5031 55.8141,121.5812 Q56.5016,122.6437 57.8454,122.6437 Q58.4704,122.6437 59.0641,122.3781 Q59.6579,122.0969 60.2829,121.5187 L60.2829,124.2375 Z " fill="#000000"/><text fill="#000000" font-family="sans-serif" font-size="14" lengthAdjust="spacing" textLength="66.7188" x="73.9728" y="123.4436">XyzStarts</text><line style="stroke:#181818;stroke-width:0.5;" x1="31.35" x2="154.6557" y1="134.5969" y2="134.5969"/><text fill="#000000" font-family="sans-serif" font-size="14" lengthAdjust="spacing" textLength="113.3057" x="36.35" y="151.592">float x_start_um</text><text fill="#000000" font-family="sans-serif" font-size="14" lengthAdjust="spacing" textLength="113.3057" x="36.35" y="167.8889">float y_start_um</text><text fill="#000000" font-family="sans-serif" font-size="14" lengthAdjust="spacing" textLength="112.3691" x="36.35" y="184.1857">float z_start_um</text><line style="stroke:#181818;stroke-width:0.5;" x1="31.35" x2="154.6557" y1="191.4875" y2="191.4875"/></g><!--class DiffractionExperimentWithSample--><g id="elem_DiffractionExperimentWithSample"><rect codeLine="57" fill="#F1F1F1" height="48" id="DiffractionExperimentWithSample" rx="2.5" ry="2.5" style="stroke:#181818;stroke-width:0.5;" width="270.8545" x="2670.57" y="546.7569"/><ellipse cx="2685.57" cy="562.7569" fill="#ADD1B2" rx="11" ry="11" style="stroke:#181818;stroke-width:1;"/><path d="M2688.5388,568.3975 Q2687.9606,568.6944 2687.32,568.835 Q2686.6794,568.9912 2685.9763,568.9912 Q2683.4763,568.9912 2682.1481,567.3506 Q2680.8356,565.6944 2680.8356,562.5694 Q2680.8356,559.4444 2682.1481,557.7881 Q2683.4763,556.1319 2685.9763,556.1319 Q2686.6794,556.1319 2687.32,556.2881 Q2687.9763,556.4444 2688.5388,556.7412 L2688.5388,559.46 Q2687.9138,558.8819 2687.32,558.6162 Q2686.7263,558.335 2686.1013,558.335 Q2684.7575,558.335 2684.07,559.4131 Q2683.3825,560.4756 2683.3825,562.5694 Q2683.3825,564.6631 2684.07,565.7412 Q2684.7575,566.8037 2686.1013,566.8037 Q2686.7263,566.8037 2687.32,566.5381 Q2687.9138,566.2569 2688.5388,565.6787 L2688.5388,568.3975 Z " fill="#000000"/><text fill="#000000" font-family="sans-serif" font-size="14" lengthAdjust="spacing" textLength="238.8545" x="2699.57" y="567.6036">DiffractionExperimentWithSample</text><line style="stroke:#181818;stroke-width:0.5;" x1="2671.57" x2="2940.4245" y1="578.7569" y2="578.7569"/><line style="stroke:#181818;stroke-width:0.5;" x1="2671.57" x2="2940.4245" y1="586.7569" y2="586.7569"/></g><!--class DiffractionExperiment--><g id="elem_DiffractionExperiment"><rect codeLine="59" fill="#F1F1F1" height="210.9688" id="DiffractionExperiment" rx="2.5" ry="2.5" style="stroke:#181818;stroke-width:0.5;" width="332.332" x="2639.83" y="275.7869"/><ellipse cx="2724.6127" cy="291.7869" fill="#ADD1B2" rx="11" ry="11" style="stroke:#181818;stroke-width:1;"/><path d="M2727.5815,297.4275 Q2727.0033,297.7244 2726.3627,297.865 Q2725.7221,298.0213 2725.019,298.0213 Q2722.519,298.0213 2721.1908,296.3806 Q2719.8783,294.7244 2719.8783,291.5994 Q2719.8783,288.4744 2721.1908,286.8181 Q2722.519,285.1619 2725.019,285.1619 Q2725.7221,285.1619 2726.3627,285.3181 Q2727.019,285.4744 2727.5815,285.7713 L2727.5815,288.49 Q2726.9565,287.9119 2726.3627,287.6463 Q2725.769,287.365 2725.144,287.365 Q2723.8002,287.365 2723.1127,288.4431 Q2722.4252,289.5056 2722.4252,291.5994 Q2722.4252,293.6931 2723.1127,294.7713 Q2723.8002,295.8338 2725.144,295.8338 Q2725.769,295.8338 2726.3627,295.5681 Q2726.9565,295.2869 2727.5815,294.7088 L2727.5815,297.4275 Z " fill="#000000"/><text fill="#000000" font-family="sans-serif" font-size="14" lengthAdjust="spacing" textLength="154.2666" x="2745.1127" y="296.6336">DiffractionExperiment</text><line style="stroke:#181818;stroke-width:0.5;" x1="2640.83" x2="2971.162" y1="307.7869" y2="307.7869"/><text fill="#000000" font-family="sans-serif" font-size="14" lengthAdjust="spacing" textLength="91.0137" x="2645.83" y="324.782">str file_name</text><text fill="#000000" font-family="sans-serif" font-size="14" lengthAdjust="spacing" textLength="153.7129" x="2645.83" y="341.0789">float exposure_time_s</text><text fill="#000000" font-family="sans-serif" font-size="14" lengthAdjust="spacing" textLength="89.5029" x="2645.83" y="357.3757">str comment</text><text fill="#000000" font-family="sans-serif" font-size="14" lengthAdjust="spacing" textLength="186.915" x="2645.83" y="373.6726">TriggerMode trigger_mode</text><text fill="#000000" font-family="sans-serif" font-size="14" lengthAdjust="spacing" textLength="157.9854" x="2645.83" y="389.9695">int | None run_number</text><text fill="#000000" font-family="sans-serif" font-size="14" lengthAdjust="spacing" textLength="282.3516" x="2645.83" y="406.2664">ApertureValue | None selected_aperture</text><text fill="#000000" font-family="sans-serif" font-size="14" lengthAdjust="spacing" textLength="159.2979" x="2645.83" y="422.5632">float transmission_frac</text><text fill="#000000" font-family="sans-serif" font-size="14" lengthAdjust="spacing" textLength="320.332" x="2645.83" y="438.8601">IspybExperimentType ispyb_experiment_type</text><text fill="#000000" font-family="sans-serif" font-size="14" lengthAdjust="spacing" textLength="146.1113" x="2645.83" y="455.157">str storage_directory</text><text fill="#000000" font-family="sans-serif" font-size="14" lengthAdjust="spacing" textLength="131.0518" x="2645.83" y="471.4539">bool use_roi_mode</text><line style="stroke:#181818;stroke-width:0.5;" x1="2640.83" x2="2971.162" y1="478.7556" y2="478.7556"/></g><!--class MxBlueskyParameters--><g id="elem_MxBlueskyParameters"><rect codeLine="71" fill="#F1F1F1" height="64.2969" id="MxBlueskyParameters" rx="2.5" ry="2.5" style="stroke:#181818;stroke-width:0.5;" width="317.4639" x="2652.27" y="118.8969"/><ellipse cx="2728.8564" cy="134.8969" fill="#ADD1B2" rx="11" ry="11" style="stroke:#181818;stroke-width:1;"/><path d="M2731.8252,140.5375 Q2731.2471,140.8344 2730.6064,140.975 Q2729.9658,141.1312 2729.2627,141.1312 Q2726.7627,141.1312 2725.4346,139.4906 Q2724.1221,137.8344 2724.1221,134.7094 Q2724.1221,131.5844 2725.4346,129.9281 Q2726.7627,128.2719 2729.2627,128.2719 Q2729.9658,128.2719 2730.6064,128.4281 Q2731.2627,128.5844 2731.8252,128.8812 L2731.8252,131.6 Q2731.2002,131.0219 2730.6064,130.7562 Q2730.0127,130.475 2729.3877,130.475 Q2728.0439,130.475 2727.3564,131.5531 Q2726.6689,132.6156 2726.6689,134.7094 Q2726.6689,136.8031 2727.3564,137.8812 Q2728.0439,138.9437 2729.3877,138.9437 Q2730.0127,138.9437 2730.6064,138.6781 Q2731.2002,138.3969 2731.8252,137.8187 L2731.8252,140.5375 Z " fill="#000000"/><text fill="#000000" font-family="sans-serif" font-size="14" lengthAdjust="spacing" textLength="155.791" x="2749.3564" y="139.7436">MxBlueskyParameters</text><line style="stroke:#181818;stroke-width:0.5;" x1="2653.27" x2="2968.7339" y1="150.8969" y2="150.8969"/><text fill="#000000" font-family="sans-serif" font-size="14" lengthAdjust="spacing" textLength="305.4639" x="2658.27" y="167.892">SemanticVersion parameter_model_version</text><line style="stroke:#181818;stroke-width:0.5;" x1="2653.27" x2="2968.7339" y1="175.1937" y2="175.1937"/></g><!--class SpecifiedThreeDGridScan--><g id="elem_SpecifiedThreeDGridScan"><rect codeLine="74" fill="#F1F1F1" height="227.2656" id="SpecifiedThreeDGridScan" rx="2.5" ry="2.5" style="stroke:#181818;stroke-width:0.5;" width="210.8965" x="2639.55" y="860.5369"/><ellipse cx="2654.55" cy="876.5369" fill="#ADD1B2" rx="11" ry="11" style="stroke:#181818;stroke-width:1;"/><path d="M2657.5188,882.1775 Q2656.9406,882.4744 2656.3,882.615 Q2655.6594,882.7713 2654.9563,882.7713 Q2652.4563,882.7713 2651.1281,881.1306 Q2649.8156,879.4744 2649.8156,876.3494 Q2649.8156,873.2244 2651.1281,871.5681 Q2652.4563,869.9119 2654.9563,869.9119 Q2655.6594,869.9119 2656.3,870.0681 Q2656.9563,870.2244 2657.5188,870.5213 L2657.5188,873.24 Q2656.8938,872.6619 2656.3,872.3963 Q2655.7063,872.115 2655.0813,872.115 Q2653.7375,872.115 2653.05,873.1931 Q2652.3625,874.2556 2652.3625,876.3494 Q2652.3625,878.4431 2653.05,879.5213 Q2653.7375,880.5838 2655.0813,880.5838 Q2655.7063,880.5838 2656.3,880.3181 Q2656.8938,880.0369 2657.5188,879.4588 L2657.5188,882.1775 Z " fill="#000000"/><text fill="#000000" font-family="sans-serif" font-size="14" lengthAdjust="spacing" textLength="178.8965" x="2668.55" y="881.3836">SpecifiedThreeDGridScan</text><line style="stroke:#181818;stroke-width:0.5;" x1="2640.55" x2="2849.4465" y1="892.5369" y2="892.5369"/><text fill="#000000" font-family="sans-serif" font-size="14" lengthAdjust="spacing" textLength="160.8975" x="2645.55" y="909.532">float grid1_omega_deg</text><text fill="#000000" font-family="sans-serif" font-size="14" lengthAdjust="spacing" textLength="160.8975" x="2645.55" y="925.8289">float grid2_omega_deg</text><text fill="#000000" font-family="sans-serif" font-size="14" lengthAdjust="spacing" textLength="145.127" x="2645.55" y="942.1257">float x_step_size_um</text><text fill="#000000" font-family="sans-serif" font-size="14" lengthAdjust="spacing" textLength="145.127" x="2645.55" y="958.4226">float y_step_size_um</text><text fill="#000000" font-family="sans-serif" font-size="14" lengthAdjust="spacing" textLength="144.1904" x="2645.55" y="974.7195">float z_step_size_um</text><text fill="#000000" font-family="sans-serif" font-size="14" lengthAdjust="spacing" textLength="122.2129" x="2645.55" y="991.0164">float y2_start_um</text><text fill="#000000" font-family="sans-serif" font-size="14" lengthAdjust="spacing" textLength="121.2764" x="2645.55" y="1007.3132">float z2_start_um</text><text fill="#000000" font-family="sans-serif" font-size="14" lengthAdjust="spacing" textLength="75.5645" x="2645.55" y="1023.6101">int x_steps</text><text fill="#000000" font-family="sans-serif" font-size="14" lengthAdjust="spacing" textLength="75.5645" x="2645.55" y="1039.907">int y_steps</text><text fill="#000000" font-family="sans-serif" font-size="14" lengthAdjust="spacing" textLength="74.6279" x="2645.55" y="1056.2039">int z_steps</text><text fill="#000000" font-family="sans-serif" font-size="14" lengthAdjust="spacing" textLength="154.4102" x="2645.55" y="1072.5007">bool _set_stub_offsets</text><line style="stroke:#181818;stroke-width:0.5;" x1="2640.55" x2="2849.4465" y1="1079.8025" y2="1079.8025"/></g><!--class GridCommon--><g id="elem_GridCommon"><rect codeLine="87" fill="#F1F1F1" height="145.7813" id="GridCommon" rx="2.5" ry="2.5" style="stroke:#181818;stroke-width:0.5;" width="332.332" x="2639.83" y="654.7569"/><ellipse cx="2755.5282" cy="670.7569" fill="#ADD1B2" rx="11" ry="11" style="stroke:#181818;stroke-width:1;"/><path d="M2758.497,676.3975 Q2757.9189,676.6944 2757.2782,676.835 Q2756.6376,676.9912 2755.9345,676.9912 Q2753.4345,676.9912 2752.1064,675.3506 Q2750.7939,673.6944 2750.7939,670.5694 Q2750.7939,667.4444 2752.1064,665.7881 Q2753.4345,664.1319 2755.9345,664.1319 Q2756.6376,664.1319 2757.2782,664.2881 Q2757.9345,664.4444 2758.497,664.7412 L2758.497,667.46 Q2757.872,666.8819 2757.2782,666.6162 Q2756.6845,666.335 2756.0595,666.335 Q2754.7157,666.335 2754.0282,667.4131 Q2753.3407,668.4756 2753.3407,670.5694 Q2753.3407,672.6631 2754.0282,673.7412 Q2754.7157,674.8037 2756.0595,674.8037 Q2756.6845,674.8037 2757.2782,674.5381 Q2757.872,674.2569 2758.497,673.6787 L2758.497,676.3975 Z " fill="#000000"/><text fill="#000000" font-family="sans-serif" font-size="14" lengthAdjust="spacing" textLength="92.4355" x="2776.0282" y="675.6036">GridCommon</text><line style="stroke:#181818;stroke-width:0.5;" x1="2640.83" x2="2971.162" y1="686.7569" y2="686.7569"/><text fill="#000000" font-family="sans-serif" font-size="14" lengthAdjust="spacing" textLength="125.2959" x="2645.83" y="703.752">float box_size_um</text><text fill="#000000" font-family="sans-serif" font-size="14" lengthAdjust="spacing" textLength="138.4209" x="2645.83" y="720.0489">float grid_width_um</text><text fill="#000000" font-family="sans-serif" font-size="14" lengthAdjust="spacing" textLength="153.7129" x="2645.83" y="736.3457">float exposure_time_s</text><text fill="#000000" font-family="sans-serif" font-size="14" lengthAdjust="spacing" textLength="320.332" x="2645.83" y="752.6426">IspybExperimentType ispyb_experiment_type</text><text fill="#000000" font-family="sans-serif" font-size="14" lengthAdjust="spacing" textLength="282.3516" x="2645.83" y="768.9395">ApertureValue | None selected_aperture</text><text fill="#000000" font-family="sans-serif" font-size="14" lengthAdjust="spacing" textLength="130.498" x="2645.83" y="785.2364">float tip_offset_um</text><line style="stroke:#181818;stroke-width:0.5;" x1="2640.83" x2="2971.162" y1="792.5381" y2="792.5381"/></g><!--class RotationScan--><g id="elem_RotationScan"><rect codeLine="98" fill="#F1F1F1" height="48" id="RotationScan" rx="2.5" ry="2.5" style="stroke:#181818;stroke-width:0.5;" width="125.2148" x="4128.39" y="1155.9469"/><ellipse cx="4143.39" cy="1171.9469" fill="#ADD1B2" rx="11" ry="11" style="stroke:#181818;stroke-width:1;"/><path d="M4146.3588,1177.5875 Q4145.7806,1177.8844 4145.14,1178.025 Q4144.4994,1178.1812 4143.7963,1178.1812 Q4141.2963,1178.1812 4139.9681,1176.5406 Q4138.6556,1174.8844 4138.6556,1171.7594 Q4138.6556,1168.6344 4139.9681,1166.9781 Q4141.2963,1165.3219 4143.7963,1165.3219 Q4144.4994,1165.3219 4145.14,1165.4781 Q4145.7963,1165.6344 4146.3588,1165.9312 L4146.3588,1168.65 Q4145.7338,1168.0719 4145.14,1167.8062 Q4144.5463,1167.525 4143.9213,1167.525 Q4142.5775,1167.525 4141.89,1168.6031 Q4141.2025,1169.6656 4141.2025,1171.7594 Q4141.2025,1173.8531 4141.89,1174.9312 Q4142.5775,1175.9937 4143.9213,1175.9937 Q4144.5463,1175.9937 4145.14,1175.7281 Q4145.7338,1175.4469 4146.3588,1174.8687 L4146.3588,1177.5875 Z " fill="#000000"/><text fill="#000000" font-family="sans-serif" font-size="14" lengthAdjust="spacing" textLength="93.2148" x="4157.39" y="1176.7936">RotationScan</text><line style="stroke:#181818;stroke-width:0.5;" x1="4129.39" x2="4252.6048" y1="1187.9469" y2="1187.9469"/><line style="stroke:#181818;stroke-width:0.5;" x1="4129.39" x2="4252.6048" y1="1195.9469" y2="1195.9469"/></g><!--class GridScanWithEdgeDetect--><g id="elem_GridScanWithEdgeDetect"><rect codeLine="100" fill="#F1F1F1" height="48" id="GridScanWithEdgeDetect" rx="2.5" ry="2.5" style="stroke:#181818;stroke-width:0.5;" width="209.4268" x="3036.29" y="1155.9469"/><ellipse cx="3051.29" cy="1171.9469" fill="#ADD1B2" rx="11" ry="11" style="stroke:#181818;stroke-width:1;"/><path d="M3054.2588,1177.5875 Q3053.6806,1177.8844 3053.04,1178.025 Q3052.3994,1178.1812 3051.6963,1178.1812 Q3049.1963,1178.1812 3047.8681,1176.5406 Q3046.5556,1174.8844 3046.5556,1171.7594 Q3046.5556,1168.6344 3047.8681,1166.9781 Q3049.1963,1165.3219 3051.6963,1165.3219 Q3052.3994,1165.3219 3053.04,1165.4781 Q3053.6963,1165.6344 3054.2588,1165.9312 L3054.2588,1168.65 Q3053.6338,1168.0719 3053.04,1167.8062 Q3052.4463,1167.525 3051.8213,1167.525 Q3050.4775,1167.525 3049.79,1168.6031 Q3049.1025,1169.6656 3049.1025,1171.7594 Q3049.1025,1173.8531 3049.79,1174.9312 Q3050.4775,1175.9937 3051.8213,1175.9937 Q3052.4463,1175.9937 3053.04,1175.7281 Q3053.6338,1175.4469 3054.2588,1174.8687 L3054.2588,1177.5875 Z " fill="#000000"/><text fill="#000000" font-family="sans-serif" font-size="14" lengthAdjust="spacing" textLength="177.4268" x="3065.29" y="1176.7936">GridScanWithEdgeDetect</text><line style="stroke:#181818;stroke-width:0.5;" x1="3037.29" x2="3244.7168" y1="1187.9469" y2="1187.9469"/><line style="stroke:#181818;stroke-width:0.5;" x1="3037.29" x2="3244.7168" y1="1195.9469" y2="1195.9469"/></g><!--class RotationExperiment--><g id="elem_RotationExperiment"><rect codeLine="102" fill="#F1F1F1" height="96.8906" id="RotationExperiment" rx="2.5" ry="2.5" style="stroke:#181818;stroke-width:0.5;" width="332.332" x="3515.83" y="925.7269"/><ellipse cx="3607.7118" cy="941.7269" fill="#ADD1B2" rx="11" ry="11" style="stroke:#181818;stroke-width:1;"/><path d="M3610.6806,947.3675 Q3610.1025,947.6644 3609.4618,947.805 Q3608.8212,947.9613 3608.1181,947.9613 Q3605.6181,947.9613 3604.29,946.3206 Q3602.9775,944.6644 3602.9775,941.5394 Q3602.9775,938.4144 3604.29,936.7581 Q3605.6181,935.1019 3608.1181,935.1019 Q3608.8212,935.1019 3609.4618,935.2581 Q3610.1181,935.4144 3610.6806,935.7113 L3610.6806,938.43 Q3610.0556,937.8519 3609.4618,937.5863 Q3608.8681,937.305 3608.2431,937.305 Q3606.8993,937.305 3606.2118,938.3831 Q3605.5243,939.4456 3605.5243,941.5394 Q3605.5243,943.6331 3606.2118,944.7113 Q3606.8993,945.7738 3608.2431,945.7738 Q3608.8681,945.7738 3609.4618,945.5081 Q3610.0556,945.2269 3610.6806,944.6488 L3610.6806,947.3675 Z " fill="#000000"/><text fill="#000000" font-family="sans-serif" font-size="14" lengthAdjust="spacing" textLength="140.0684" x="3628.2118" y="946.5736">RotationExperiment</text><line style="stroke:#181818;stroke-width:0.5;" x1="3516.83" x2="3847.162" y1="957.7269" y2="957.7269"/><text fill="#000000" font-family="sans-serif" font-size="14" lengthAdjust="spacing" textLength="202.8018" x="3521.83" y="974.722">float shutter_opening_time_s</text><text fill="#000000" font-family="sans-serif" font-size="14" lengthAdjust="spacing" textLength="202.9385" x="3521.83" y="991.0189">float rotation_increment_deg</text><text fill="#000000" font-family="sans-serif" font-size="14" lengthAdjust="spacing" textLength="320.332" x="3521.83" y="1007.3157">IspybExperimentType ispyb_experiment_type</text><line style="stroke:#181818;stroke-width:0.5;" x1="3516.83" x2="3847.162" y1="1014.6175" y2="1014.6175"/></g><!--class MultiRotationScan--><g id="elem_MultiRotationScan"><rect codeLine="107" fill="#F1F1F1" height="64.2969" id="MultiRotationScan" rx="2.5" ry="2.5" style="stroke:#181818;stroke-width:0.5;" width="540.001" x="4289" y="1147.7969"/><ellipse cx="4491.0327" cy="1163.7969" fill="#ADD1B2" rx="11" ry="11" style="stroke:#181818;stroke-width:1;"/><path d="M4494.0015,1169.4375 Q4493.4233,1169.7344 4492.7827,1169.875 Q4492.1421,1170.0313 4491.439,1170.0313 Q4488.939,1170.0313 4487.6108,1168.3906 Q4486.2983,1166.7344 4486.2983,1163.6094 Q4486.2983,1160.4844 4487.6108,1158.8281 Q4488.939,1157.1719 4491.439,1157.1719 Q4492.1421,1157.1719 4492.7827,1157.3281 Q4493.439,1157.4844 4494.0015,1157.7813 L4494.0015,1160.5 Q4493.3765,1159.9219 4492.7827,1159.6563 Q4492.189,1159.375 4491.564,1159.375 Q4490.2202,1159.375 4489.5327,1160.4531 Q4488.8452,1161.5156 4488.8452,1163.6094 Q4488.8452,1165.7031 4489.5327,1166.7813 Q4490.2202,1167.8438 4491.564,1167.8438 Q4492.189,1167.8438 4492.7827,1167.5781 Q4493.3765,1167.2969 4494.0015,1166.7188 L4494.0015,1169.4375 Z " fill="#000000"/><text fill="#000000" font-family="sans-serif" font-size="14" lengthAdjust="spacing" textLength="127.4355" x="4511.5327" y="1168.6436">MultiRotationScan</text><line style="stroke:#181818;stroke-width:0.5;" x1="4290" x2="4828.001" y1="1179.7969" y2="1179.7969"/><line style="stroke:#181818;stroke-width:0.5;" x1="4290" x2="4828.001" y1="1187.7969" y2="1187.7969"/><text fill="#000000" font-family="sans-serif" font-size="14" lengthAdjust="spacing" textLength="528.001" x="4295" y="1204.792">Annotated[list[RotationScanPerSweep], Len(min_length=1)] rotation_scans</text></g><!--class PinTipCentreThenXrayCentre--><g id="elem_PinTipCentreThenXrayCentre"><rect codeLine="110" fill="#F1F1F1" height="64.2969" id="PinTipCentreThenXrayCentre" rx="2.5" ry="2.5" style="stroke:#181818;stroke-width:0.5;" width="235.8955" x="3281.05" y="1147.7969"/><ellipse cx="3296.05" cy="1163.7969" fill="#ADD1B2" rx="11" ry="11" style="stroke:#181818;stroke-width:1;"/><path d="M3299.0188,1169.4375 Q3298.4406,1169.7344 3297.8,1169.875 Q3297.1594,1170.0313 3296.4563,1170.0313 Q3293.9563,1170.0313 3292.6281,1168.3906 Q3291.3156,1166.7344 3291.3156,1163.6094 Q3291.3156,1160.4844 3292.6281,1158.8281 Q3293.9563,1157.1719 3296.4563,1157.1719 Q3297.1594,1157.1719 3297.8,1157.3281 Q3298.4563,1157.4844 3299.0188,1157.7813 L3299.0188,1160.5 Q3298.3938,1159.9219 3297.8,1159.6563 Q3297.2063,1159.375 3296.5813,1159.375 Q3295.2375,1159.375 3294.55,1160.4531 Q3293.8625,1161.5156 3293.8625,1163.6094 Q3293.8625,1165.7031 3294.55,1166.7813 Q3295.2375,1167.8438 3296.5813,1167.8438 Q3297.2063,1167.8438 3297.8,1167.5781 Q3298.3938,1167.2969 3299.0188,1166.7188 L3299.0188,1169.4375 Z " fill="#000000"/><text fill="#000000" font-family="sans-serif" font-size="14" lengthAdjust="spacing" textLength="203.8955" x="3310.05" y="1168.6436">PinTipCentreThenXrayCentre</text><line style="stroke:#181818;stroke-width:0.5;" x1="3282.05" x2="3515.9455" y1="1179.7969" y2="1179.7969"/><text fill="#000000" font-family="sans-serif" font-size="14" lengthAdjust="spacing" textLength="130.498" x="3287.05" y="1196.792">float tip_offset_um</text><line style="stroke:#181818;stroke-width:0.5;" x1="3282.05" x2="3515.9455" y1="1204.0938" y2="1204.0938"/></g><!--class RobotLoadThenCentre--><g id="elem_RobotLoadThenCentre"><rect codeLine="113" fill="#F1F1F1" height="64.2969" id="RobotLoadThenCentre" rx="2.5" ry="2.5" style="stroke:#181818;stroke-width:0.5;" width="212.9355" x="3551.53" y="1147.7969"/><ellipse cx="3577.2575" cy="1163.7969" fill="#ADD1B2" rx="11" ry="11" style="stroke:#181818;stroke-width:1;"/><path d="M3580.2262,1169.4375 Q3579.6481,1169.7344 3579.0075,1169.875 Q3578.3669,1170.0313 3577.6637,1170.0313 Q3575.1637,1170.0313 3573.8356,1168.3906 Q3572.5231,1166.7344 3572.5231,1163.6094 Q3572.5231,1160.4844 3573.8356,1158.8281 Q3575.1637,1157.1719 3577.6637,1157.1719 Q3578.3669,1157.1719 3579.0075,1157.3281 Q3579.6637,1157.4844 3580.2262,1157.7813 L3580.2262,1160.5 Q3579.6012,1159.9219 3579.0075,1159.6563 Q3578.4137,1159.375 3577.7887,1159.375 Q3576.445,1159.375 3575.7575,1160.4531 Q3575.07,1161.5156 3575.07,1163.6094 Q3575.07,1165.7031 3575.7575,1166.7813 Q3576.445,1167.8438 3577.7887,1167.8438 Q3578.4137,1167.8438 3579.0075,1167.5781 Q3579.6012,1167.2969 3580.2262,1166.7188 L3580.2262,1169.4375 Z " fill="#000000"/><text fill="#000000" font-family="sans-serif" font-size="14" lengthAdjust="spacing" textLength="157.0967" x="3593.6414" y="1168.6436">RobotLoadThenCentre</text><line style="stroke:#181818;stroke-width:0.5;" x1="3552.53" x2="3763.4655" y1="1179.7969" y2="1179.7969"/><text fill="#000000" font-family="sans-serif" font-size="14" lengthAdjust="spacing" textLength="200.9355" x="3557.53" y="1196.792">&lt;class 'float'&gt; thawing_time</text><line style="stroke:#181818;stroke-width:0.5;" x1="3552.53" x2="3763.4655" y1="1204.0938" y2="1204.0938"/></g><!--class GridCommonWithHyperionDetectorParams--><g id="elem_GridCommonWithHyperionDetectorParams"><rect codeLine="116" fill="#F1F1F1" height="48" id="GridCommonWithHyperionDetectorParams" rx="2.5" ry="2.5" style="stroke:#181818;stroke-width:0.5;" width="333.2188" x="3073.39" y="950.1669"/><ellipse cx="3088.39" cy="966.1669" fill="#ADD1B2" rx="11" ry="11" style="stroke:#181818;stroke-width:1;"/><path d="M3091.3588,971.8075 Q3090.7806,972.1044 3090.14,972.245 Q3089.4994,972.4012 3088.7963,972.4012 Q3086.2963,972.4012 3084.9681,970.7606 Q3083.6556,969.1044 3083.6556,965.9794 Q3083.6556,962.8544 3084.9681,961.1981 Q3086.2963,959.5419 3088.7963,959.5419 Q3089.4994,959.5419 3090.14,959.6981 Q3090.7963,959.8544 3091.3588,960.1512 L3091.3588,962.87 Q3090.7338,962.2919 3090.14,962.0262 Q3089.5463,961.745 3088.9213,961.745 Q3087.5775,961.745 3086.89,962.8231 Q3086.2025,963.8856 3086.2025,965.9794 Q3086.2025,968.0731 3086.89,969.1512 Q3087.5775,970.2137 3088.9213,970.2137 Q3089.5463,970.2137 3090.14,969.9481 Q3090.7338,969.6669 3091.3588,969.0887 L3091.3588,971.8075 Z " fill="#000000"/><text fill="#000000" font-family="sans-serif" font-size="14" lengthAdjust="spacing" textLength="301.2188" x="3102.39" y="971.0136">GridCommonWithHyperionDetectorParams</text><line style="stroke:#181818;stroke-width:0.5;" x1="3074.39" x2="3405.6088" y1="982.1669" y2="982.1669"/><line style="stroke:#181818;stroke-width:0.5;" x1="3074.39" x2="3405.6088" y1="990.1669" y2="990.1669"/></g><!--class WithHyperionUDCFeatures--><g id="elem_WithHyperionUDCFeatures"><rect codeLine="118" fill="#F1F1F1" height="64.2969" id="WithHyperionUDCFeatures" rx="2.5" ry="2.5" style="stroke:#181818;stroke-width:0.5;" width="228.6719" x="3331.66" y="695.4969"/><ellipse cx="3350.7583" cy="711.4969" fill="#ADD1B2" rx="11" ry="11" style="stroke:#181818;stroke-width:1;"/><path d="M3353.7271,717.1375 Q3353.149,717.4344 3352.5083,717.575 Q3351.8677,717.7312 3351.1646,717.7312 Q3348.6646,717.7312 3347.3365,716.0906 Q3346.024,714.4344 3346.024,711.3094 Q3346.024,708.1844 3347.3365,706.5281 Q3348.6646,704.8719 3351.1646,704.8719 Q3351.8677,704.8719 3352.5083,705.0281 Q3353.1646,705.1844 3353.7271,705.4812 L3353.7271,708.2 Q3353.1021,707.6219 3352.5083,707.3562 Q3351.9146,707.075 3351.2896,707.075 Q3349.9458,707.075 3349.2583,708.1531 Q3348.5708,709.2156 3348.5708,711.3094 Q3348.5708,713.4031 3349.2583,714.4812 Q3349.9458,715.5437 3351.2896,715.5437 Q3351.9146,715.5437 3352.5083,715.2781 Q3353.1021,714.9969 3353.7271,714.4187 L3353.7271,717.1375 Z " fill="#000000"/><text fill="#000000" font-family="sans-serif" font-size="14" lengthAdjust="spacing" textLength="187.5645" x="3365.6691" y="716.3436">WithHyperionUDCFeatures</text><line style="stroke:#181818;stroke-width:0.5;" x1="3332.66" x2="3559.3319" y1="727.4969" y2="727.4969"/><text fill="#000000" font-family="sans-serif" font-size="14" lengthAdjust="spacing" textLength="216.6719" x="3337.66" y="744.492">HyperionFeatureFlags features</text><line style="stroke:#181818;stroke-width:0.5;" x1="3332.66" x2="3559.3319" y1="751.7937" y2="751.7937"/></g><!--class HyperionSpecifiedThreeDGridScan--><g id="elem_HyperionSpecifiedThreeDGridScan"><rect codeLine="121" fill="#F1F1F1" height="48" id="HyperionSpecifiedThreeDGridScan" rx="2.5" ry="2.5" style="stroke:#181818;stroke-width:0.5;" width="274.293" x="3882.85" y="950.1669"/><ellipse cx="3897.85" cy="966.1669" fill="#ADD1B2" rx="11" ry="11" style="stroke:#181818;stroke-width:1;"/><path d="M3900.8188,971.8075 Q3900.2406,972.1044 3899.6,972.245 Q3898.9594,972.4012 3898.2563,972.4012 Q3895.7563,972.4012 3894.4281,970.7606 Q3893.1156,969.1044 3893.1156,965.9794 Q3893.1156,962.8544 3894.4281,961.1981 Q3895.7563,959.5419 3898.2563,959.5419 Q3898.9594,959.5419 3899.6,959.6981 Q3900.2563,959.8544 3900.8188,960.1512 L3900.8188,962.87 Q3900.1938,962.2919 3899.6,962.0262 Q3899.0063,961.745 3898.3813,961.745 Q3897.0375,961.745 3896.35,962.8231 Q3895.6625,963.8856 3895.6625,965.9794 Q3895.6625,968.0731 3896.35,969.1512 Q3897.0375,970.2137 3898.3813,970.2137 Q3899.0063,970.2137 3899.6,969.9481 Q3900.1938,969.6669 3900.8188,969.0887 L3900.8188,971.8075 Z " fill="#000000"/><text fill="#000000" font-family="sans-serif" font-size="14" lengthAdjust="spacing" textLength="242.293" x="3911.85" y="971.0136">HyperionSpecifiedThreeDGridScan</text><line style="stroke:#181818;stroke-width:0.5;" x1="3883.85" x2="4156.143" y1="982.1669" y2="982.1669"/><line style="stroke:#181818;stroke-width:0.5;" x1="3883.85" x2="4156.143" y1="990.1669" y2="990.1669"/></g><!--class LoadCentreCollect--><g id="elem_LoadCentreCollect"><rect codeLine="123" fill="#F1F1F1" height="80.5938" id="LoadCentreCollect" rx="2.5" ry="2.5" style="stroke:#181818;stroke-width:0.5;" width="338.6211" x="4191.69" y="933.8669"/><ellipse cx="4292.315" cy="949.8669" fill="#ADD1B2" rx="11" ry="11" style="stroke:#181818;stroke-width:1;"/><path d="M4295.2838,955.5075 Q4294.7056,955.8044 4294.065,955.945 Q4293.4244,956.1012 4292.7213,956.1012 Q4290.2213,956.1012 4288.8931,954.4606 Q4287.5806,952.8044 4287.5806,949.6794 Q4287.5806,946.5544 4288.8931,944.8981 Q4290.2213,943.2419 4292.7213,943.2419 Q4293.4244,943.2419 4294.065,943.3981 Q4294.7213,943.5544 4295.2838,943.8512 L4295.2838,946.57 Q4294.6588,945.9919 4294.065,945.7262 Q4293.4713,945.445 4292.8463,945.445 Q4291.5025,945.445 4290.815,946.5231 Q4290.1275,947.5856 4290.1275,949.6794 Q4290.1275,951.7731 4290.815,952.8512 Q4291.5025,953.9137 4292.8463,953.9137 Q4293.4713,953.9137 4294.065,953.6481 Q4294.6588,953.3669 4295.2838,952.7887 L4295.2838,955.5075 Z " fill="#000000"/><text fill="#000000" font-family="sans-serif" font-size="14" lengthAdjust="spacing" textLength="128.8711" x="4312.815" y="954.7136">LoadCentreCollect</text><line style="stroke:#181818;stroke-width:0.5;" x1="4192.69" x2="4529.3111" y1="965.8669" y2="965.8669"/><text fill="#000000" font-family="sans-serif" font-size="14" lengthAdjust="spacing" textLength="326.6211" x="4197.69" y="982.862">RobotLoadThenCentre robot_load_then_centre</text><text fill="#000000" font-family="sans-serif" font-size="14" lengthAdjust="spacing" textLength="269.3154" x="4197.69" y="999.1589">MultiRotationScan multi_rotation_scan</text><line style="stroke:#181818;stroke-width:0.5;" x1="4192.69" x2="4529.3111" y1="1006.4606" y2="1006.4606"/></g><!--class RotationScanPerSweep--><g id="elem_RotationScanPerSweep"><rect codeLine="127" fill="#F1F1F1" height="129.4844" id="RotationScanPerSweep" rx="2.5" ry="2.5" style="stroke:#181818;stroke-width:0.5;" width="263.0498" x="4565.48" y="909.4269"/><ellipse cx="4611.5166" cy="925.4269" fill="#ADD1B2" rx="11" ry="11" style="stroke:#181818;stroke-width:1;"/><path d="M4614.4854,931.0675 Q4613.9072,931.3644 4613.2666,931.505 Q4612.626,931.6612 4611.9229,931.6612 Q4609.4229,931.6612 4608.0947,930.0206 Q4606.7822,928.3644 4606.7822,925.2394 Q4606.7822,922.1144 4608.0947,920.4581 Q4609.4229,918.8019 4611.9229,918.8019 Q4612.626,918.8019 4613.2666,918.9581 Q4613.9229,919.1144 4614.4854,919.4112 L4614.4854,922.13 Q4613.8604,921.5519 4613.2666,921.2862 Q4612.6729,921.005 4612.0479,921.005 Q4610.7041,921.005 4610.0166,922.0831 Q4609.3291,923.1456 4609.3291,925.2394 Q4609.3291,927.3331 4610.0166,928.4112 Q4610.7041,929.4737 4612.0479,929.4737 Q4612.6729,929.4737 4613.2666,929.2081 Q4613.8604,928.9269 4614.4854,928.3487 L4614.4854,931.0675 Z " fill="#000000"/><text fill="#000000" font-family="sans-serif" font-size="14" lengthAdjust="spacing" textLength="162.4766" x="4632.0166" y="930.2736">RotationScanPerSweep</text><line style="stroke:#181818;stroke-width:0.5;" x1="4566.48" x2="4827.5298" y1="941.4269" y2="941.4269"/><text fill="#000000" font-family="sans-serif" font-size="14" lengthAdjust="spacing" textLength="157.1787" x="4571.48" y="958.422">float omega_start_deg</text><text fill="#000000" font-family="sans-serif" font-size="14" lengthAdjust="spacing" textLength="182.9297" x="4571.48" y="974.7189">RotationAxis rotation_axis</text><text fill="#000000" font-family="sans-serif" font-size="14" lengthAdjust="spacing" textLength="147.3213" x="4571.48" y="991.0157">float scan_width_deg</text><text fill="#000000" font-family="sans-serif" font-size="14" lengthAdjust="spacing" textLength="251.0498" x="4571.48" y="1007.3126">RotationDirection rotation_direction</text><text fill="#000000" font-family="sans-serif" font-size="14" lengthAdjust="spacing" textLength="169.1279" x="4571.48" y="1023.6095">int nexus_vds_start_img</text><line style="stroke:#181818;stroke-width:0.5;" x1="4566.48" x2="4827.5298" y1="1030.9112" y2="1030.9112"/></g><!--reverse link WithScan to RotationScan--><g id="link_WithScan_RotationScan"><path codeLine="135" d="M1328.6043,189.2241 C1340.7143,203.7541 1346.84,207.3969 1367,215.7869 C1583.53,305.9169 3244.07,248.3269 3477,275.7869 C3793.79,313.1269 4882,250.7669 4882,569.7569 C4882,569.7569 4882,569.7569 4882,728.6469 C4882,815.9369 4909.04,1059.4169 4846,1119.7969 C4799.81,1164.0469 4333.56,1134.4669 4271,1147.7969 C4262.11,1149.6969 4252.91,1152.4569 4244.06,1155.5569 " fill="#FFFFFF" fill-opacity="0.00000" id="WithScan-backto-RotationScan" style="stroke:#181818;stroke-width:1;"/><polygon fill="#FFFFFF" fill-opacity="0.00000" points="1317.08,175.3969,1323.9952,193.0655,1333.2133,185.3827,1317.08,175.3969" style="stroke:#181818;stroke-width:1;"/></g><!--reverse link RotationScanPerSweep to RotationScan--><g id="link_RotationScanPerSweep_RotationScan"><path codeLine="136" d="M4636.4787,1052.6532 C4610.1987,1082.3832 4587.06,1101.6169 4548,1119.7969 C4435.82,1172.0169 4391.31,1118.8669 4271,1147.7969 C4262.6,1149.8169 4253.89,1152.5269 4245.46,1155.4969 " fill="#FFFFFF" fill-opacity="0.00000" id="RotationScanPerSweep-backto-RotationScan" style="stroke:#181818;stroke-width:1;"/><polygon fill="#FFFFFF" fill-opacity="0.00000" points="4648.4,1039.1669,4631.9832,1048.6794,4640.9741,1056.627,4648.4,1039.1669" style="stroke:#181818;stroke-width:1;"/></g><!--reverse link RotationExperiment to RotationScan--><g id="link_RotationExperiment_RotationScan"><path codeLine="137" d="M3741.975,1035.2843 C3776.575,1067.7043 3813.33,1096.4669 3865,1119.7969 C3950.84,1158.5669 4060.25,1171.9369 4127.95,1176.5469 " fill="#FFFFFF" fill-opacity="0.00000" id="RotationExperiment-backto-RotationScan" style="stroke:#181818;stroke-width:1;"/><polygon fill="#FFFFFF" fill-opacity="0.00000" points="3728.84,1022.9769,3737.8725,1039.6626,3746.0775,1030.906,3728.84,1022.9769" style="stroke:#181818;stroke-width:1;"/></g><!--reverse link GridCommonWithHyperionDetectorParams to GridScanWithEdgeDetect--><g id="link_GridCommonWithHyperionDetectorParams_GridScanWithEdgeDetect"><path codeLine="138" d="M3220.7757,1014.738 C3201.7357,1053.938 3171.44,1116.2969 3152.38,1155.5269 " fill="#FFFFFF" fill-opacity="0.00000" id="GridCommonWithHyperionDetectorParams-backto-GridScanWithEdgeDetect" style="stroke:#181818;stroke-width:1;"/><polygon fill="#FFFFFF" fill-opacity="0.00000" points="3228.64,998.5469,3215.3787,1012.1166,3226.1728,1017.3594,3228.64,998.5469" style="stroke:#181818;stroke-width:1;"/></g><!--reverse link WithHyperionUDCFeatures to GridScanWithEdgeDetect--><g id="link_WithHyperionUDCFeatures_GridScanWithEdgeDetect"><path codeLine="139" d="M3313.6641,735.1304 C3222.5341,745.4404 3118.19,773.8569 3056,860.5369 C2988.83,954.1569 3002.64,1017.6669 3056,1119.7969 C3063.74,1134.6169 3077.08,1146.4769 3090.92,1155.5669 " fill="#FFFFFF" fill-opacity="0.00000" id="WithHyperionUDCFeatures-backto-GridScanWithEdgeDetect" style="stroke:#181818;stroke-width:1;"/><polygon fill="#FFFFFF" fill-opacity="0.00000" points="3331.55,733.1069,3312.9896,729.1684,3314.3386,741.0924,3331.55,733.1069" style="stroke:#181818;stroke-width:1;"/></g><!--reverse link DiffractionExperimentWithSample to RotationExperiment--><g id="link_DiffractionExperimentWithSample_RotationExperiment"><path codeLine="140" d="M2876.5772,602.3141 C2913.3072,618.2841 2946.43,632.8469 2990,652.4969 C3200.62,747.4969 3445.63,861.9769 3580.29,925.2469 " fill="#FFFFFF" fill-opacity="0.00000" id="DiffractionExperimentWithSample-backto-RotationExperiment" style="stroke:#181818;stroke-width:1;"/><polygon fill="#FFFFFF" fill-opacity="0.00000" points="2860.07,595.1369,2874.1848,607.8165,2878.9696,596.8117,2860.07,595.1369" style="stroke:#181818;stroke-width:1;"/></g><!--reverse link WithHyperionUDCFeatures to RotationExperiment--><g id="link_WithHyperionUDCFeatures_RotationExperiment"><path codeLine="141" d="M3488.8704,773.0583 C3529.3304,814.9783 3588.78,876.5769 3635.94,925.4369 " fill="#FFFFFF" fill-opacity="0.00000" id="WithHyperionUDCFeatures-backto-RotationExperiment" style="stroke:#181818;stroke-width:1;"/><polygon fill="#FFFFFF" fill-opacity="0.00000" points="3476.37,760.1069,3484.5532,777.2251,3493.1875,768.8915,3476.37,760.1069" style="stroke:#181818;stroke-width:1;"/></g><!--reverse link RotationExperiment to MultiRotationScan--><g id="link_RotationExperiment_MultiRotationScan"><path codeLine="142" d="M3739.1441,1035.5671 C3773.4341,1069.1271 3811.17,1098.9969 3865,1119.7969 C3949.35,1152.4069 4180.92,1139.8269 4271,1147.7969 C4276.89,1148.3169 4282.84,1148.8569 4288.84,1149.4169 " fill="#FFFFFF" fill-opacity="0.00000" id="RotationExperiment-backto-MultiRotationScan" style="stroke:#181818;stroke-width:1;"/><polygon fill="#FFFFFF" fill-opacity="0.00000" points="3726.28,1022.9769,3734.9474,1039.8552,3743.3409,1031.2791,3726.28,1022.9769" style="stroke:#181818;stroke-width:1;"/></g><!--reverse link SplitScan to MultiRotationScan--><g id="link_SplitScan_MultiRotationScan"><path codeLine="143" d="M1767.111,189.3841 C1779.011,203.9441 1784.99,207.4769 1805,215.7869 C1964.23,281.9169 4778.27,162.2069 4908,275.7869 C5007.45,362.8469 4953,437.5769 4953,569.7569 C4953,569.7569 4953,569.7569 4953,728.6469 C4953,903.6369 5028.4,992.8069 4908,1119.7969 C4894.31,1134.2369 4865.22,1145.1569 4829.4,1153.4169 " fill="#FFFFFF" fill-opacity="0.00000" id="SplitScan-backto-MultiRotationScan" style="stroke:#181818;stroke-width:1;"/><polygon fill="#FFFFFF" fill-opacity="0.00000" points="1755.72,175.4469,1762.4652,193.1811,1771.7567,185.5871,1755.72,175.4469" style="stroke:#181818;stroke-width:1;"/></g><!--reverse link GridCommonWithHyperionDetectorParams to PinTipCentreThenXrayCentre--><g id="link_GridCommonWithHyperionDetectorParams_PinTipCentreThenXrayCentre"><path codeLine="144" d="M3269.3134,1012.7377 C3297.9434,1049.4277 3342.4,1106.4069 3374.49,1147.5369 " fill="#FFFFFF" fill-opacity="0.00000" id="GridCommonWithHyperionDetectorParams-backto-PinTipCentreThenXrayCentre" style="stroke:#181818;stroke-width:1;"/><polygon fill="#FFFFFF" fill-opacity="0.00000" points="3258.24,998.5469,3264.5831,1016.4288,3274.0437,1009.0466,3258.24,998.5469" style="stroke:#181818;stroke-width:1;"/></g><!--reverse link WithHyperionUDCFeatures to PinTipCentreThenXrayCentre--><g id="link_WithHyperionUDCFeatures_PinTipCentreThenXrayCentre"><path codeLine="145" d="M3448.6787,778.0673 C3451.8087,845.1673 3454.37,988.9469 3424,1119.7969 C3421.86,1129.0269 3418.38,1138.6569 3414.69,1147.3869 " fill="#FFFFFF" fill-opacity="0.00000" id="WithHyperionUDCFeatures-backto-PinTipCentreThenXrayCentre" style="stroke:#181818;stroke-width:1;"/><polygon fill="#FFFFFF" fill-opacity="0.00000" points="3447.84,760.0869,3442.6852,778.3469,3454.6722,777.7877,3447.84,760.0869" style="stroke:#181818;stroke-width:1;"/></g><!--reverse link GridCommon to SpecifiedThreeDGridScan--><g id="link_GridCommon_SpecifiedThreeDGridScan"><path codeLine="146" d="M2783.591,818.4811 C2778.951,837.0711 2778.21,840.0569 2773.19,860.1669 " fill="#FFFFFF" fill-opacity="0.00000" id="GridCommon-backto-SpecifiedThreeDGridScan" style="stroke:#181818;stroke-width:1;"/><polygon fill="#FFFFFF" fill-opacity="0.00000" points="2787.95,801.0169,2777.7696,817.0281,2789.4124,819.9341,2787.95,801.0169" style="stroke:#181818;stroke-width:1;"/></g><!--reverse link SpecifiedGrid to SpecifiedThreeDGridScan--><g id="link_SpecifiedGrid_SpecifiedThreeDGridScan"><path codeLine="147" d="M1329.6702,419.6178 C1387.9502,491.8778 1566.07,699.1169 1777,800.5369 C2067,939.9769 2454.76,967.6669 2639.08,972.5769 " fill="#FFFFFF" fill-opacity="0.00000" id="SpecifiedGrid-backto-SpecifiedThreeDGridScan" style="stroke:#181818;stroke-width:1;"/><polygon fill="#FFFFFF" fill-opacity="0.00000" points="1318.37,405.6069,1324.9999,423.3845,1334.3405,415.851,1318.37,405.6069" style="stroke:#181818;stroke-width:1;"/></g><!--reverse link SplitScan to SpecifiedThreeDGridScan--><g id="link_SplitScan_SpecifiedThreeDGridScan"><path codeLine="148" d="M1742.7108,193.2315 C1751.9208,287.4715 1797.84,626.1469 2002,800.5369 C2097.28,881.9169 2457.74,937.3169 2639.23,960.6769 " fill="#FFFFFF" fill-opacity="0.00000" id="SplitScan-backto-SpecifiedThreeDGridScan" style="stroke:#181818;stroke-width:1;"/><polygon fill="#FFFFFF" fill-opacity="0.00000" points="1740.96,175.3169,1736.7392,193.8151,1748.6823,192.6479,1740.96,175.3169" style="stroke:#181818;stroke-width:1;"/></g><!--reverse link WithOptionalEnergyChange to SpecifiedThreeDGridScan--><g id="link_WithOptionalEnergyChange_SpecifiedThreeDGridScan"><path codeLine="149" d="M378.7257,191.8526 C402.6057,204.1026 415.39,208.6569 443,215.7869 C847.06,320.0469 977.61,165.2269 1380,275.7869 C1883.91,414.2369 2417.93,750.6369 2639.36,899.8269 " fill="#FFFFFF" fill-opacity="0.00000" id="WithOptionalEnergyChange-backto-SpecifiedThreeDGridScan" style="stroke:#181818;stroke-width:1;"/><polygon fill="#FFFFFF" fill-opacity="0.00000" points="362.71,183.6369,375.9871,197.1912,381.4642,186.5141,362.71,183.6369" style="stroke:#181818;stroke-width:1;"/></g><!--reverse link DiffractionExperiment to DiffractionExperimentWithSample--><g id="link_DiffractionExperiment_DiffractionExperimentWithSample"><path codeLine="150" d="M2806,505.2469 C2806,527.5069 2806,530.9069 2806,546.3269 " fill="#FFFFFF" fill-opacity="0.00000" id="DiffractionExperiment-backto-DiffractionExperimentWithSample" style="stroke:#181818;stroke-width:1;"/><polygon fill="#FFFFFF" fill-opacity="0.00000" points="2806,487.2469,2800,505.2469,2812,505.2469,2806,487.2469" style="stroke:#181818;stroke-width:1;"/></g><!--reverse link WithSample to DiffractionExperimentWithSample--><g id="link_WithSample_DiffractionExperimentWithSample"><path codeLine="151" d="M633.5665,208.3985 C645.5465,214.7985 642.36,211.9769 655,215.7869 C945.72,303.3869 1722.48,215.1869 2020,275.7869 C2168.83,306.0969 2596.61,482.0269 2750.23,546.2769 " fill="#FFFFFF" fill-opacity="0.00000" id="WithSample-backto-DiffractionExperimentWithSample" style="stroke:#181818;stroke-width:1;"/><polygon fill="#FFFFFF" fill-opacity="0.00000" points="617.69,199.9169,630.7393,213.6906,636.3937,203.1063,617.69,199.9169" style="stroke:#181818;stroke-width:1;"/></g><!--reverse link MxBlueskyParameters to DiffractionExperiment--><g id="link_MxBlueskyParameters_DiffractionExperiment"><path codeLine="152" d="M2809.9224,201.2925 C2809.3924,225.2825 2809.03,241.8769 2808.3,275.3969 " fill="#FFFFFF" fill-opacity="0.00000" id="MxBlueskyParameters-backto-DiffractionExperiment" style="stroke:#181818;stroke-width:1;"/><polygon fill="#FFFFFF" fill-opacity="0.00000" points="2810.32,183.2969,2803.9239,201.16,2815.921,201.425,2810.32,183.2969" style="stroke:#181818;stroke-width:1;"/></g><!--reverse link WithSnapshot to DiffractionExperiment--><g id="link_WithSnapshot_DiffractionExperiment"><path codeLine="153" d="M1173.1196,198.354 C1197.3796,207.944 1207.42,210.3669 1233,215.7869 C1537.41,280.3069 2333.98,186.2569 2632,275.7869 C2634.45,276.5169 2636.89,277.2969 2639.34,278.1169 " fill="#FFFFFF" fill-opacity="0.00000" id="WithSnapshot-backto-DiffractionExperiment" style="stroke:#181818;stroke-width:1;"/><polygon fill="#FFFFFF" fill-opacity="0.00000" points="1156.38,191.7369,1170.9138,203.9339,1175.3253,192.7742,1156.38,191.7369" style="stroke:#181818;stroke-width:1;"/></g><!--reverse link WithOptionalEnergyChange to DiffractionExperiment--><g id="link_WithOptionalEnergyChange_DiffractionExperiment"><path codeLine="154" d="M377.5843,191.9229 C401.6343,204.4129 414.89,209.0769 443,215.7869 C916.33,328.7469 2164.88,139.3869 2632,275.7869 C2634.45,276.4969 2636.91,277.2569 2639.36,278.0569 " fill="#FFFFFF" fill-opacity="0.00000" id="WithOptionalEnergyChange-backto-DiffractionExperiment" style="stroke:#181818;stroke-width:1;"/><polygon fill="#FFFFFF" fill-opacity="0.00000" points="361.61,183.6269,374.8189,197.2476,380.3496,186.5981,361.61,183.6269" style="stroke:#181818;stroke-width:1;"/></g><!--reverse link WithVisit to DiffractionExperiment--><g id="link_WithVisit_DiffractionExperiment"><path codeLine="155" d="M1673.3517,216.322 C2089.2917,313.102 2224.22,148.9169 2632,275.7869 C2634.52,276.5669 2637.05,277.3969 2639.57,278.2669 " fill="#FFFFFF" fill-opacity="0.00000" id="WithVisit-backto-DiffractionExperiment" style="stroke:#181818;stroke-width:1;"/><polygon fill="#FFFFFF" fill-opacity="0.00000" points="1656.05,211.3569,1671.6966,222.0892,1675.0067,210.5547,1656.05,211.3569" style="stroke:#181818;stroke-width:1;"/></g><!--reverse link GridCommonWithHyperionDetectorParams to RobotLoadThenCentre--><g id="link_GridCommonWithHyperionDetectorParams_RobotLoadThenCentre"><path codeLine="156" d="M3286.0265,1009.0098 C3329.1665,1040.1398 3395.4,1084.8669 3471,1119.7969 C3496.35,1131.5169 3524.64,1141.7869 3551.4,1150.3469 " fill="#FFFFFF" fill-opacity="0.00000" id="GridCommonWithHyperionDetectorParams-backto-RobotLoadThenCentre" style="stroke:#181818;stroke-width:1;"/><polygon fill="#FFFFFF" fill-opacity="0.00000" points="3271.43,998.4769,3282.5155,1013.8753,3289.5375,1004.1443,3271.43,998.4769" style="stroke:#181818;stroke-width:1;"/></g><!--reverse link WithHyperionUDCFeatures to RobotLoadThenCentre--><g id="link_WithHyperionUDCFeatures_RobotLoadThenCentre"><path codeLine="157" d="M3446.3222,778.0657 C3447.2522,860.8557 3453.72,1064.4169 3498,1119.7969 C3506.04,1129.8669 3527.1,1139.9169 3551.39,1148.8069 " fill="#FFFFFF" fill-opacity="0.00000" id="WithHyperionUDCFeatures-backto-RobotLoadThenCentre" style="stroke:#181818;stroke-width:1;"/><polygon fill="#FFFFFF" fill-opacity="0.00000" points="3446.12,760.0669,3440.3226,778.1331,3452.3218,777.9983,3446.12,760.0669" style="stroke:#181818;stroke-width:1;"/></g><!--reverse link GridCommon to GridCommonWithHyperionDetectorParams--><g id="link_GridCommon_GridCommonWithHyperionDetectorParams"><path codeLine="158" d="M2950.1323,809.8524 C3039.8723,860.4124 3138.3,915.8669 3198.49,949.7769 " fill="#FFFFFF" fill-opacity="0.00000" id="GridCommon-backto-GridCommonWithHyperionDetectorParams" style="stroke:#181818;stroke-width:1;"/><polygon fill="#FFFFFF" fill-opacity="0.00000" points="2934.45,801.0169,2947.1871,815.0798,2953.0775,804.6249,2934.45,801.0169" style="stroke:#181818;stroke-width:1;"/></g><!--reverse link WithHyperionUDCFeatures to GridCommonWithHyperionDetectorParams--><g id="link_WithHyperionUDCFeatures_GridCommonWithHyperionDetectorParams"><path codeLine="159" d="M3407.8937,773.8737 C3365.9537,823.6637 3296.83,905.7169 3259.64,949.8569 " fill="#FFFFFF" fill-opacity="0.00000" id="WithHyperionUDCFeatures-backto-GridCommonWithHyperionDetectorParams" style="stroke:#181818;stroke-width:1;"/><polygon fill="#FFFFFF" fill-opacity="0.00000" points="3419.49,760.1069,3403.3047,770.0083,3412.4826,777.7391,3419.49,760.1069" style="stroke:#181818;stroke-width:1;"/></g><!--reverse link XyzStarts to SpecifiedGrid--><g id="link_XyzStarts_SpecifiedGrid"><path codeLine="160" d="M159.8558,210.1383 C168.6758,216.3383 163.39,211.6169 173,215.7869 C367.82,300.1869 1028.85,358.7369 1236.82,375.4069 " fill="#FFFFFF" fill-opacity="0.00000" id="XyzStarts-backto-SpecifiedGrid" style="stroke:#181818;stroke-width:1;"/><polygon fill="#FFFFFF" fill-opacity="0.00000" points="145.13,199.7869,156.4053,215.0469,163.3062,205.2297,145.13,199.7869" style="stroke:#181818;stroke-width:1;"/></g><!--reverse link WithScan to SpecifiedGrid--><g id="link_WithScan_SpecifiedGrid"><path codeLine="161" d="M1300,193.1769 C1300,236.9269 1300,313.2769 1300,357.0669 " fill="#FFFFFF" fill-opacity="0.00000" id="WithScan-backto-SpecifiedGrid" style="stroke:#181818;stroke-width:1;"/><polygon fill="#FFFFFF" fill-opacity="0.00000" points="1300,175.1769,1294,193.1769,1306,193.1769,1300,175.1769" style="stroke:#181818;stroke-width:1;"/></g><!--reverse link WithPandaGridScan to WithHyperionUDCFeatures--><g id="link_WithPandaGridScan_WithHyperionUDCFeatures"><path codeLine="162" d="M2015.0991,191.6678 C2039.5191,203.9178 2052.87,208.6169 2081,215.7869 C2276.75,265.6369 2803.71,193.0869 2988,275.7869 C3199.74,370.7969 3369.75,609.0569 3426.07,695.0569 " fill="#FFFFFF" fill-opacity="0.00000" id="WithPandaGridScan-backto-WithHyperionUDCFeatures" style="stroke:#181818;stroke-width:1;"/><polygon fill="#FFFFFF" fill-opacity="0.00000" points="1999.01,183.5969,2012.4088,197.0308,2017.7894,186.3048,1999.01,183.5969" style="stroke:#181818;stroke-width:1;"/></g><!--reverse link SpecifiedThreeDGridScan to HyperionSpecifiedThreeDGridScan--><g id="link_SpecifiedThreeDGridScan_HyperionSpecifiedThreeDGridScan"><path codeLine="163" d="M2866.3731,898.9242 C2920.1131,868.9742 2972.06,845.7369 3037.5,830.5369 C3125.27,810.1469 3763.81,799.7569 3848.5,830.5369 C3914.02,854.3469 3971.97,915.3869 4000.76,949.7369 " fill="#FFFFFF" fill-opacity="0.00000" id="SpecifiedThreeDGridScan-backto-HyperionSpecifiedThreeDGridScan" style="stroke:#181818;stroke-width:1;"/><polygon fill="#FFFFFF" fill-opacity="0.00000" points="2850.65,907.6869,2869.294,904.1652,2863.4522,893.6832,2850.65,907.6869" style="stroke:#181818;stroke-width:1;"/></g><!--reverse link WithHyperionUDCFeatures to HyperionSpecifiedThreeDGridScan--><g id="link_WithHyperionUDCFeatures_HyperionSpecifiedThreeDGridScan"><path codeLine="164" d="M3517.3339,768.5381 C3543.7839,782.5181 3560.38,789.7869 3591,800.5369 C3709.04,841.9669 3751.94,809.1669 3866,860.5369 C3916.29,883.1769 3966.3,924.0169 3995.13,949.7969 " fill="#FFFFFF" fill-opacity="0.00000" id="WithHyperionUDCFeatures-backto-HyperionSpecifiedThreeDGridScan" style="stroke:#181818;stroke-width:1;"/><polygon fill="#FFFFFF" fill-opacity="0.00000" points="3501.42,760.1269,3514.5302,773.8427,3520.1376,763.2334,3501.42,760.1269" style="stroke:#181818;stroke-width:1;"/></g><!--reverse link MxBlueskyParameters to LoadCentreCollect--><g id="link_MxBlueskyParameters_LoadCentreCollect"><path codeLine="165" d="M2988.2058,158.4214 C3315.7058,171.4314 4023.62,207.0069 4112,275.7869 C4327.34,443.3769 4356.77,812.4569 4360.54,933.7069 " fill="#FFFFFF" fill-opacity="0.00000" id="MxBlueskyParameters-backto-LoadCentreCollect" style="stroke:#181818;stroke-width:1;"/><polygon fill="#FFFFFF" fill-opacity="0.00000" points="2970.22,157.7069,2987.9677,164.4166,2988.444,152.4261,2970.22,157.7069" style="stroke:#181818;stroke-width:1;"/></g><!--reverse link WithVisit to LoadCentreCollect--><g id="link_WithVisit_LoadCentreCollect"><path codeLine="166" d="M1673.3516,216.3846 C1789.6416,241.3346 3717.07,205.4769 3813,275.7869 C4012.1,421.7069 3819.4,627.0469 3995,800.5369 C4054.99,859.7969 4098.46,825.1369 4175,860.5369 C4219.72,881.2069 4267.18,910.0769 4302.96,933.4069 " fill="#FFFFFF" fill-opacity="0.00000" id="WithVisit-backto-LoadCentreCollect" style="stroke:#181818;stroke-width:1;"/><polygon fill="#FFFFFF" fill-opacity="0.00000" points="1656,211.5969,1671.7557,222.1684,1674.9475,210.6007,1656,211.5969" style="stroke:#181818;stroke-width:1;"/></g><!--reverse link WithSample to LoadCentreCollect--><g id="link_WithSample_LoadCentreCollect"><path codeLine="167" d="M633.2209,208.4302 C645.2909,214.8702 642.22,212.0569 655,215.7869 C1152.91,360.8769 2492.09,124.0169 2988,275.7869 C3285.5,366.8269 3325.55,470.6669 3578,652.4969 C3662.89,713.6369 3665.14,758.6369 3761,800.5369 C3931.36,874.9969 3999.98,797.7969 4175,860.5369 C4223.33,877.8569 4272.8,908.5669 4308.57,933.5469 " fill="#FFFFFF" fill-opacity="0.00000" id="WithSample-backto-LoadCentreCollect" style="stroke:#181818;stroke-width:1;"/><polygon fill="#FFFFFF" fill-opacity="0.00000" points="617.34,199.9569,630.3965,213.7238,636.0453,203.1366,617.34,199.9569" style="stroke:#181818;stroke-width:1;"/></g><!--reverse link WithCentreSelection to LoadCentreCollect--><g id="link_WithCentreSelection_LoadCentreCollect"><path codeLine="168" d="M2337.9277,190.3284 C2368.4677,202.7284 2388.52,208.8569 2423,215.7869 C2587.62,248.8569 3803.13,169.3569 3933,275.7869 C4118.59,427.8769 3912.18,611.5169 4060,800.5369 C4095.51,845.9469 4124.76,832.2569 4175,860.5369 C4216.45,883.8669 4262.16,911.5169 4297.89,933.5769 " fill="#FFFFFF" fill-opacity="0.00000" id="WithCentreSelection-backto-LoadCentreCollect" style="stroke:#181818;stroke-width:1;"/><polygon fill="#FFFFFF" fill-opacity="0.00000" points="2321.25,183.5569,2335.6705,195.8877,2340.1849,184.7692,2321.25,183.5569" style="stroke:#181818;stroke-width:1;"/></g><!--reverse link WithHyperionUDCFeatures to LoadCentreCollect--><g id="link_WithHyperionUDCFeatures_LoadCentreCollect"><path codeLine="169" d="M3513.9807,768.8754 C3540.7907,783.5854 3558.74,791.2169 3591,800.5369 C3841.66,872.9769 3927.61,777.6069 4175,860.5369 C4224.04,876.9769 4273.86,908.0769 4309.58,933.4369 " fill="#FFFFFF" fill-opacity="0.00000" id="WithHyperionUDCFeatures-backto-LoadCentreCollect" style="stroke:#181818;stroke-width:1;"/><polygon fill="#FFFFFF" fill-opacity="0.00000" points="3498.2,760.2169,3511.0945,774.1356,3516.8669,763.6151,3498.2,760.2169" style="stroke:#181818;stroke-width:1;"/></g><!--reverse link DiffractionExperimentWithSample to GridCommon--><g id="link_DiffractionExperimentWithSample_GridCommon"><path codeLine="170" d="M2806,612.9369 C2806,628.8969 2806,633.0169 2806,654.5769 " fill="#FFFFFF" fill-opacity="0.00000" id="DiffractionExperimentWithSample-backto-GridCommon" style="stroke:#181818;stroke-width:1;"/><polygon fill="#FFFFFF" fill-opacity="0.00000" points="2806,594.9369,2800,612.9369,2812,612.9369,2806,594.9369" style="stroke:#181818;stroke-width:1;"/></g><!--reverse link OptionalGonioAngleStarts to GridCommon--><g id="link_OptionalGonioAngleStarts_GridCommon"><path codeLine="171" d="M902.1504,214.4565 C910.0304,217.4165 901.13,213.6969 909,215.7869 C1386.93,342.6969 1545.78,135.6269 2020,275.7869 C2293.44,356.5969 2573.69,548.9869 2714.03,654.4469 " fill="#FFFFFF" fill-opacity="0.00000" id="OptionalGonioAngleStarts-backto-GridCommon" style="stroke:#181818;stroke-width:1;"/><polygon fill="#FFFFFF" fill-opacity="0.00000" points="885.3,208.1269,900.0405,220.0733,904.2603,208.8397,885.3,208.1269" style="stroke:#181818;stroke-width:1;"/></g><!--reverse link OptionalGonioAngleStarts to RotationScanPerSweep--><g id="link_OptionalGonioAngleStarts_RotationScanPerSweep"><path codeLine="172" d="M901.3935,214.3748 C909.5235,217.3948 900.86,213.7469 909,215.7869 C1404.07,339.9069 2708.96,155.5769 3205,275.7869 C3726.76,402.2269 3786.92,621.3769 4293,800.5369 C4402.75,839.3869 4442.62,811.0269 4548,860.5369 C4574.86,873.1469 4601.55,891.1369 4624.76,909.0469 " fill="#FFFFFF" fill-opacity="0.00000" id="OptionalGonioAngleStarts-backto-RotationScanPerSweep" style="stroke:#181818;stroke-width:1;"/><polygon fill="#FFFFFF" fill-opacity="0.00000" points="884.52,208.1069,899.3042,219.9992,903.4828,208.7503,884.52,208.1069" style="stroke:#181818;stroke-width:1;"/></g><!--reverse link OptionalXyzStarts to RotationScanPerSweep--><g id="link_OptionalXyzStarts_RotationScanPerSweep"><path codeLine="173" d="M2605.3021,209.0308 C2616.2021,215.4308 2612.3,211.9769 2624,215.7869 C2769.51,263.1769 3871.21,193.1269 4000,275.7869 C4088.65,332.6769 4042.03,404.6369 4108,486.7569 C4148.16,536.7369 4463.72,788.7469 4615.71,909.0569 " fill="#FFFFFF" fill-opacity="0.00000" id="OptionalXyzStarts-backto-RotationScanPerSweep" style="stroke:#181818;stroke-width:1;"/><polygon fill="#FFFFFF" fill-opacity="0.00000" points="2589.78,199.9169,2602.2642,214.2048,2608.3401,203.8567,2589.78,199.9169" style="stroke:#181818;stroke-width:1;"/></g><!--SRC=[bLZVRzis47ws_WgzPGEM0ErpDo2rqsv0qmMpbnKe0eAMpX8HYIH8AhMIvd_VaPHaoPHavodctNVa_VZkIELYapCTxrW1CVwbbH6N6N1Gr40QR-kuNH1PK6wgihYITHGPPj3Wprg2OeB7TrJH4Woe-5QaK4GQJCnHeYLDO0qIrKQec0iEKOIoHvf1NEx9jgX0FzPNYIXBmQzakusENo8ZCZ0vRlaI9GNLElwFcNoTKFuIlVOaTvIdzBDYgLSjTeMW9fPMIbJ5AqbIfWtb2P2o75YkQIaBG1F6JQpTWh3KBt_6Nz7NLYghv75KpdYtuz_IO2PeyLbm9gvvLi3QK6Lqvr9ZAah8AD5MHrB8ZhGoPvEwP4RtIANixzgFyvvfPj0DRLIy1LeM3AlWLazMut-cO5oYY174WaWY-1Ceh0MHrEGUnBX64OP9f88TsnyvWNj0WdKUpVXQ5io4vLjpAdKkh7ztU4wicpNkeTncTRGeSBllxgI7hW0jpALJ1p4lWHk5p2jm3_GNTzy8-VLZVKltIr5nqsbYxNwHn1dee9pVwkVnEkwRR5VbaQAUKZmV58UaGC9s359Bu65YMWTkiFsoUfbJdi5BaF0IUKx0GGWyTHk4NeVkXduE77mD6t35TZj5NTfkzhRpIqnQlvDUvu0D0-sa8NOsjAV2NWfTAI06OKHxb1q8Q8DbKopBGDcn4Xl_cvIu6BGZzZdXLRa55IskyJo3szrJd2qTNLoH8IMqqRQ76qMvBfdMbjJMvsZnbvRrzk3s1cSSJaQK4UY4nA3KUwgHepZD-dpT2b74bGQY1FFEjecvtN_q4wyRcBP2Qrj6mv9xN5fATcFG6HVaoSj3rcno1R0AXb-6WdU-C_gZmehVXsBB3914isSuOaSeVHx7lW-fr1VPIlbJj5_K_SLpkt1f8tXreA3Q4h7RuUz3Hzemb-wUw0BTYlsnBpP8yeEb9ky90ugzeSPlv1EJZUDj5xsEtNTvSt4ERpmVvp_2KDivmrdP5jcssqsQmShDseE-jHhqc_T9vvMnP18IEEDPbmIlLOqXOJnHu09tv3W_HHsvgyAmeVUBQywj0DBlReZtjNUWrZy0vCDlyHVWlvICam9uPlBVt_twS71B8_H0WZl6DqpwwRx9WNzJjFQhbwaIjFdP2lD5qDHQTHOVlFB2MLxy4PkS_cXJD48yc_pspRDgBZlNoNeukrlClwlb9w2M7xRDMsaZ-bJG31zUZRwpRr6JJTu2RJ0-aAKe2aU6nKYKc4cK4Gmm9JZDUNFJHOkWN75f9MIG-O1V_SfrAG_UD2twUezlocv3YgkEbBXFqwS3YvKRetOATcPfA_BpWiE-qkGfrSs1hCnScxNFm_Z3pylBWR_HcFCpi0FhHq3diC6RZRTiD46GMPiJD-_GpGDY_gmH_5G60gv4tNDk2d1-dgPxUjx_6Rl3uHuwqKpHuFrr2Ze8U0eszNIRjngjhpSvKVhec0Mdy2DFa1d3gFz6FuMRZdlQndsSp87Evz78y3lL0A71CNFEEVvqIv_SeNkm7_746XzDjb0t-0Jse0cFeWa2UgCJLyzycAUC9taNt6F7l1W7z3a_ZZZw1fo3JaOLmiyQnOUQHrF_5tWZSEmAYuAFr6di_m00]--></g></svg>