<svg xmlns="http://www.w3.org/2000/svg" xmlns:xlink="http://www.w3.org/1999/xlink" contentStyleType="text/css" data-diagram-type="CLASS" height="1104px" preserveAspectRatio="none" style="width:4021px;height:1104px;background:#FFFFFF;" version="1.1" viewBox="0 0 4021 1104" width="4021px" zoomAndPan="magnify"><title>Hyperion Parameter Model</title><defs/><g><g class="title" data-source-line="3"><text fill="#000000" font-family="sans-serif" font-size="14" font-weight="bold" lengthAdjust="spacing" textLength="212.4951" x="1897.3424" y="22.9951">Hyperion Parameter Model</text></g><!--cluster mx_bluesky.common.parameters--><g class="cluster" data-entity="mx_bluesky.common.parameters" data-source-line="6" data-uid="ent0002" id="cluster_mx_bluesky.common.parameters"><path d="M1299.44,43.2969 L1560.7525,43.2969 A3.75,3.75 0 0 1 1563.2525,45.7969 L1570.2525,65.5938 L3779.44,65.5938 A2.5,2.5 0 0 1 3781.94,68.0938 L3781.94,822.0269 A2.5,2.5 0 0 1 3779.44,824.5269 L1299.44,824.5269 A2.5,2.5 0 0 1 1296.94,822.0269 L1296.94,45.7969 A2.5,2.5 0 0 1 1299.44,43.2969" fill="none" style="stroke:#000000;stroke-width:1.5;"/><line style="stroke:#000000;stroke-width:1.5;" x1="1296.94" x2="1570.2525" y1="65.5938" y2="65.5938"/><text fill="#000000" font-family="sans-serif" font-size="14" font-weight="bold" lengthAdjust="spacing" textLength="260.3125" x="1300.94" y="58.292">mx_bluesky.common.parameters</text></g><!--cluster mx_bluesky.hyperion.parameters--><g class="cluster" data-entity="mx_bluesky.hyperion.parameters" data-source-line="71" data-uid="ent0015" id="cluster_mx_bluesky.hyperion.parameters"><path d="M95.44,660.4869 L359.9722,660.4869 A3.75,3.75 0 0 1 362.4722,662.9869 L369.4722,682.7838 L1270.44,682.7838 A2.5,2.5 0 0 1 1272.94,685.2838 L1272.94,1095.2169 A2.5,2.5 0 0 1 1270.44,1097.7169 L95.44,1097.7169 A2.5,2.5 0 0 1 92.94,1095.2169 L92.94,662.9869 A2.5,2.5 0 0 1 95.44,660.4869" fill="none" style="stroke:#000000;stroke-width:1.5;"/><line style="stroke:#000000;stroke-width:1.5;" x1="92.94" x2="369.4722" y1="682.7838" y2="682.7838"/><text fill="#000000" font-family="sans-serif" font-size="14" font-weight="bold" lengthAdjust="spacing" textLength="263.5322" x="96.94" y="675.482">mx_bluesky.hyperion.parameters</text></g><!--class WithOptionalEnergyChange--><g class="entity" data-entity="WithOptionalEnergyChange" data-source-line="8" data-uid="ent0003" id="entity_WithOptionalEnergyChange"><rect fill="#F1F1F1" height="64.2969" rx="2.5" ry="2.5" style="stroke:#181818;stroke-width:0.5;" width="235.4463" x="2501.22" y="118.8869"/><ellipse cx="2520.4045" cy="134.8869" fill="#ADD1B2" rx="11" ry="11" style="stroke:#181818;stroke-width:1;"/><path d="M2523.3732,140.5275 Q2522.7951,140.8244 2522.1545,140.965 Q2521.5138,141.1213 2520.8107,141.1213 Q2518.3107,141.1213 2516.9826,139.4806 Q2515.6701,137.8244 2515.6701,134.6994 Q2515.6701,131.5744 2516.9826,129.9181 Q2518.3107,128.2619 2520.8107,128.2619 Q2521.5138,128.2619 2522.1545,128.4181 Q2522.8107,128.5744 2523.3732,128.8713 L2523.3732,131.59 Q2522.7482,131.0119 2522.1545,130.7463 Q2521.5607,130.465 2520.9357,130.465 Q2519.592,130.465 2518.9045,131.5431 Q2518.217,132.6056 2518.217,134.6994 Q2518.217,136.7931 2518.9045,137.8713 Q2519.592,138.9338 2520.9357,138.9338 Q2521.5607,138.9338 2522.1545,138.6681 Q2522.7482,138.3869 2523.3732,137.8088 L2523.3732,140.5275 Z " fill="#000000"/><text fill="#000000" font-family="sans-serif" font-size="14" lengthAdjust="spacing" textLength="194.1475" x="2535.3344" y="139.7336">WithOptionalEnergyChange</text><line style="stroke:#181818;stroke-width:0.5;" x1="2502.22" x2="2735.6663" y1="150.8869" y2="150.8869"/><text fill="#000000" font-family="sans-serif" font-size="14" lengthAdjust="spacing" textLength="223.4463" x="2507.22" y="167.882">float | None demand_energy_ev</text><line style="stroke:#181818;stroke-width:0.5;" x1="2502.22" x2="2735.6663" y1="175.1838" y2="175.1838"/></g><!--class OptionalGonioAngleStarts--><g class="entity" data-entity="OptionalGonioAngleStarts" data-source-line="11" data-uid="ent0004" id="entity_OptionalGonioAngleStarts"><rect fill="#F1F1F1" height="113.1875" rx="2.5" ry="2.5" style="stroke:#181818;stroke-width:0.5;" width="219.3203" x="2247.28" y="94.4469"/><ellipse cx="2265.0033" cy="110.4469" fill="#ADD1B2" rx="11" ry="11" style="stroke:#181818;stroke-width:1;"/><path d="M2267.972,116.0875 Q2267.3939,116.3844 2266.7533,116.525 Q2266.1127,116.6813 2265.4095,116.6813 Q2262.9095,116.6813 2261.5814,115.0406 Q2260.2689,113.3844 2260.2689,110.2594 Q2260.2689,107.1344 2261.5814,105.4781 Q2262.9095,103.8219 2265.4095,103.8219 Q2266.1127,103.8219 2266.7533,103.9781 Q2267.4095,104.1344 2267.972,104.4313 L2267.972,107.15 Q2267.347,106.5719 2266.7533,106.3063 Q2266.1595,106.025 2265.5345,106.025 Q2264.1908,106.025 2263.5033,107.1031 Q2262.8158,108.1656 2262.8158,110.2594 Q2262.8158,112.3531 2263.5033,113.4313 Q2264.1908,114.4938 2265.5345,114.4938 Q2266.1595,114.4938 2266.7533,114.2281 Q2267.347,113.9469 2267.972,113.3688 L2267.972,116.0875 Z " fill="#000000"/><text fill="#000000" font-family="sans-serif" font-size="14" lengthAdjust="spacing" textLength="181.2686" x="2279.6085" y="115.2936">OptionalGonioAngleStarts</text><line style="stroke:#181818;stroke-width:0.5;" x1="2248.28" x2="2465.6003" y1="126.4469" y2="126.4469"/><text fill="#000000" font-family="sans-serif" font-size="14" lengthAdjust="spacing" textLength="207.3203" x="2253.28" y="143.442">float | None omega_start_deg</text><text fill="#000000" font-family="sans-serif" font-size="14" lengthAdjust="spacing" textLength="180.6875" x="2253.28" y="159.7389">float | None phi_start_deg</text><text fill="#000000" font-family="sans-serif" font-size="14" lengthAdjust="spacing" textLength="179.498" x="2253.28" y="176.0357">float | None chi_start_deg</text><text fill="#000000" font-family="sans-serif" font-size="14" lengthAdjust="spacing" textLength="202.0771" x="2253.28" y="192.3326">float | None kappa_start_deg</text><line style="stroke:#181818;stroke-width:0.5;" x1="2248.28" x2="2465.6003" y1="199.6344" y2="199.6344"/></g><!--class SplitScan--><g class="entity" data-entity="SplitScan" data-source-line="17" data-uid="ent0005" id="entity_SplitScan"><rect fill="#F1F1F1" height="48" rx="2.5" ry="2.5" style="stroke:#181818;stroke-width:0.5;" width="97.0781" x="1321.4" y="127.0369"/><ellipse cx="1336.4" cy="143.0369" fill="#ADD1B2" rx="11" ry="11" style="stroke:#181818;stroke-width:1;"/><path d="M1339.3687,148.6775 Q1338.7906,148.9744 1338.15,149.115 Q1337.5094,149.2713 1336.8062,149.2713 Q1334.3062,149.2713 1332.9781,147.6306 Q1331.6656,145.9744 1331.6656,142.8494 Q1331.6656,139.7244 1332.9781,138.0681 Q1334.3062,136.4119 1336.8062,136.4119 Q1337.5094,136.4119 1338.15,136.5681 Q1338.8062,136.7244 1339.3687,137.0213 L1339.3687,139.74 Q1338.7437,139.1619 1338.15,138.8963 Q1337.5562,138.615 1336.9312,138.615 Q1335.5875,138.615 1334.9,139.6931 Q1334.2125,140.7556 1334.2125,142.8494 Q1334.2125,144.9431 1334.9,146.0213 Q1335.5875,147.0838 1336.9312,147.0838 Q1337.5562,147.0838 1338.15,146.8181 Q1338.7437,146.5369 1339.3687,145.9588 L1339.3687,148.6775 Z " fill="#000000"/><text fill="#000000" font-family="sans-serif" font-size="14" lengthAdjust="spacing" textLength="65.0781" x="1350.4" y="147.8836">SplitScan</text><line style="stroke:#181818;stroke-width:0.5;" x1="1322.4" x2="1417.4781" y1="159.0369" y2="159.0369"/><line style="stroke:#181818;stroke-width:0.5;" x1="1322.4" x2="1417.4781" y1="167.0369" y2="167.0369"/></g><!--class WithSnapshot--><g class="entity" data-entity="WithSnapshot" data-source-line="19" data-uid="ent0006" id="entity_WithSnapshot"><rect fill="#F1F1F1" height="96.8906" rx="2.5" ry="2.5" style="stroke:#181818;stroke-width:0.5;" width="289.3477" x="2771.27" y="102.5869"/><ellipse cx="2862.9228" cy="118.5869" fill="#ADD1B2" rx="11" ry="11" style="stroke:#181818;stroke-width:1;"/><path d="M2865.8916,124.2275 Q2865.3135,124.5244 2864.6728,124.665 Q2864.0322,124.8213 2863.3291,124.8213 Q2860.8291,124.8213 2859.501,123.1806 Q2858.1885,121.5244 2858.1885,118.3994 Q2858.1885,115.2744 2859.501,113.6181 Q2860.8291,111.9619 2863.3291,111.9619 Q2864.0322,111.9619 2864.6728,112.1181 Q2865.3291,112.2744 2865.8916,112.5713 L2865.8916,115.29 Q2865.2666,114.7119 2864.6728,114.4463 Q2864.0791,114.165 2863.4541,114.165 Q2862.1103,114.165 2861.4228,115.2431 Q2860.7353,116.3056 2860.7353,118.3994 Q2860.7353,120.4931 2861.4228,121.5713 Q2862.1103,122.6338 2863.4541,122.6338 Q2864.0791,122.6338 2864.6728,122.3681 Q2865.2666,122.0869 2865.8916,121.5088 L2865.8916,124.2275 Z " fill="#000000"/><text fill="#000000" font-family="sans-serif" font-size="14" lengthAdjust="spacing" textLength="97.542" x="2883.4228" y="123.4336">WithSnapshot</text><line style="stroke:#181818;stroke-width:0.5;" x1="2772.27" x2="3059.6177" y1="134.5869" y2="134.5869"/><text fill="#000000" font-family="sans-serif" font-size="14" lengthAdjust="spacing" textLength="169.627" x="2777.27" y="151.582">Path snapshot_directory</text><text fill="#000000" font-family="sans-serif" font-size="14" lengthAdjust="spacing" textLength="277.3477" x="2777.27" y="167.8789">list[float] | None snapshot_omegas_deg</text><text fill="#000000" font-family="sans-serif" font-size="14" lengthAdjust="spacing" textLength="171.7051" x="2777.27" y="184.1757">bool use_grid_snapshots</text><line style="stroke:#181818;stroke-width:0.5;" x1="2772.27" x2="3059.6177" y1="191.4775" y2="191.4775"/></g><!--class WithVisit--><g class="entity" data-entity="WithVisit" data-source-line="24" data-uid="ent0007" id="entity_WithVisit"><rect fill="#F1F1F1" height="129.4844" rx="2.5" ry="2.5" style="stroke:#181818;stroke-width:0.5;" width="271.7861" x="1665.05" y="86.2969"/><ellipse cx="1765.5759" cy="102.2969" fill="#ADD1B2" rx="11" ry="11" style="stroke:#181818;stroke-width:1;"/><path d="M1768.5446,107.9375 Q1767.9665,108.2344 1767.3259,108.375 Q1766.6853,108.5313 1765.9821,108.5313 Q1763.4821,108.5313 1762.154,106.8906 Q1760.8415,105.2344 1760.8415,102.1094 Q1760.8415,98.9844 1762.154,97.3281 Q1763.4821,95.6719 1765.9821,95.6719 Q1766.6853,95.6719 1767.3259,95.8281 Q1767.9821,95.9844 1768.5446,96.2813 L1768.5446,99 Q1767.9196,98.4219 1767.3259,98.1563 Q1766.7321,97.875 1766.1071,97.875 Q1764.7634,97.875 1764.0759,98.9531 Q1763.3884,100.0156 1763.3884,102.1094 Q1763.3884,104.2031 1764.0759,105.2813 Q1764.7634,106.3438 1766.1071,106.3438 Q1766.7321,106.3438 1767.3259,106.0781 Q1767.9196,105.7969 1768.5446,105.2188 L1768.5446,107.9375 Z " fill="#000000"/><text fill="#000000" font-family="sans-serif" font-size="14" lengthAdjust="spacing" textLength="62.2344" x="1786.0759" y="107.1436">WithVisit</text><line style="stroke:#181818;stroke-width:0.5;" x1="1666.05" x2="1935.8361" y1="118.2969" y2="118.2969"/><text fill="#000000" font-family="sans-serif" font-size="14" lengthAdjust="spacing" textLength="87.9717" x="1671.05" y="135.292">str beamline</text><text fill="#000000" font-family="sans-serif" font-size="14" lengthAdjust="spacing" textLength="51.8369" x="1671.05" y="151.5889">str visit</text><text fill="#000000" font-family="sans-serif" font-size="14" lengthAdjust="spacing" textLength="259.7861" x="1671.05" y="167.8857">str det_dist_to_beam_converter_path</text><text fill="#000000" font-family="sans-serif" font-size="14" lengthAdjust="spacing" textLength="131.5918" x="1671.05" y="184.1826">str insertion_prefix</text><text fill="#000000" font-family="sans-serif" font-size="14" lengthAdjust="spacing" textLength="245.752" x="1671.05" y="200.4795">float | None detector_distance_mm</text><line style="stroke:#181818;stroke-width:0.5;" x1="1666.05" x2="1935.8361" y1="207.7813" y2="207.7813"/></g><!--class WithSample--><g class="entity" data-entity="WithSample" data-source-line="31" data-uid="ent0008" id="entity_WithSample"><rect fill="#F1F1F1" height="96.8906" rx="2.5" ry="2.5" style="stroke:#181818;stroke-width:0.5;" width="176.3086" x="1453.79" y="102.5869"/><ellipse cx="1495.6643" cy="118.5869" fill="#ADD1B2" rx="11" ry="11" style="stroke:#181818;stroke-width:1;"/><path d="M1498.6331,124.2275 Q1498.0549,124.5244 1497.4143,124.665 Q1496.7737,124.8213 1496.0706,124.8213 Q1493.5706,124.8213 1492.2424,123.1806 Q1490.9299,121.5244 1490.9299,118.3994 Q1490.9299,115.2744 1492.2424,113.6181 Q1493.5706,111.9619 1496.0706,111.9619 Q1496.7737,111.9619 1497.4143,112.1181 Q1498.0706,112.2744 1498.6331,112.5713 L1498.6331,115.29 Q1498.0081,114.7119 1497.4143,114.4463 Q1496.8206,114.165 1496.1956,114.165 Q1494.8518,114.165 1494.1643,115.2431 Q1493.4768,116.3056 1493.4768,118.3994 Q1493.4768,120.4931 1494.1643,121.5713 Q1494.8518,122.6338 1496.1956,122.6338 Q1496.8206,122.6338 1497.4143,122.3681 Q1498.0081,122.0869 1498.6331,121.5088 L1498.6331,124.2275 Z " fill="#000000"/><text fill="#000000" font-family="sans-serif" font-size="14" lengthAdjust="spacing" textLength="84.5879" x="1515.6364" y="123.4336">WithSample</text><line style="stroke:#181818;stroke-width:0.5;" x1="1454.79" x2="1629.0986" y1="134.5869" y2="134.5869"/><text fill="#000000" font-family="sans-serif" font-size="14" lengthAdjust="spacing" textLength="93.3789" x="1459.79" y="151.582">int sample_id</text><text fill="#000000" font-family="sans-serif" font-size="14" lengthAdjust="spacing" textLength="164.3086" x="1459.79" y="167.8789">int | None sample_puck</text><text fill="#000000" font-family="sans-serif" font-size="14" lengthAdjust="spacing" textLength="152.3936" x="1459.79" y="184.1757">int | None sample_pin</text><line style="stroke:#181818;stroke-width:0.5;" x1="1454.79" x2="1629.0986" y1="191.4775" y2="191.4775"/></g><!--class WithPandaGridScan--><g class="entity" data-entity="WithPandaGridScan" data-source-line="36" data-uid="ent0009" id="entity_WithPandaGridScan"><rect fill="#F1F1F1" height="64.2969" rx="2.5" ry="2.5" style="stroke:#181818;stroke-width:0.5;" width="240.5664" x="1971.66" y="118.8869"/><ellipse cx="2018.2572" cy="134.8869" fill="#ADD1B2" rx="11" ry="11" style="stroke:#181818;stroke-width:1;"/><path d="M2021.2259,140.5275 Q2020.6478,140.8244 2020.0072,140.965 Q2019.3665,141.1213 2018.6634,141.1213 Q2016.1634,141.1213 2014.8353,139.4806 Q2013.5228,137.8244 2013.5228,134.6994 Q2013.5228,131.5744 2014.8353,129.9181 Q2016.1634,128.2619 2018.6634,128.2619 Q2019.3665,128.2619 2020.0072,128.4181 Q2020.6634,128.5744 2021.2259,128.8713 L2021.2259,131.59 Q2020.6009,131.0119 2020.0072,130.7463 Q2019.4134,130.465 2018.7884,130.465 Q2017.4447,130.465 2016.7572,131.5431 Q2016.0697,132.6056 2016.0697,134.6994 Q2016.0697,136.7931 2016.7572,137.8713 Q2017.4447,138.9338 2018.7884,138.9338 Q2019.4134,138.9338 2020.0072,138.6681 Q2020.6009,138.3869 2021.2259,137.8088 L2021.2259,140.5275 Z " fill="#000000"/><text fill="#000000" font-family="sans-serif" font-size="14" lengthAdjust="spacing" textLength="138.8721" x="2038.7572" y="139.7336">WithPandaGridScan</text><line style="stroke:#181818;stroke-width:0.5;" x1="1972.66" x2="2211.2264" y1="150.8869" y2="150.8869"/><text fill="#000000" font-family="sans-serif" font-size="14" lengthAdjust="spacing" textLength="228.5664" x="1977.66" y="167.882">float panda_runup_distance_mm</text><line style="stroke:#181818;stroke-width:0.5;" x1="1972.66" x2="2211.2264" y1="175.1838" y2="175.1838"/></g><!--class WithCentreSelection--><g class="entity" data-entity="WithCentreSelection" data-source-line="39" data-uid="ent0010" id="entity_WithCentreSelection"><rect fill="#F1F1F1" height="64.2969" rx="2.5" ry="2.5" style="stroke:#181818;stroke-width:0.5;" width="306.7861" x="3095.55" y="118.8869"/><ellipse cx="3172.8269" cy="134.8869" fill="#ADD1B2" rx="11" ry="11" style="stroke:#181818;stroke-width:1;"/><path d="M3175.7956,140.5275 Q3175.2175,140.8244 3174.5769,140.965 Q3173.9362,141.1213 3173.2331,141.1213 Q3170.7331,141.1213 3169.405,139.4806 Q3168.0925,137.8244 3168.0925,134.6994 Q3168.0925,131.5744 3169.405,129.9181 Q3170.7331,128.2619 3173.2331,128.2619 Q3173.9362,128.2619 3174.5769,128.4181 Q3175.2331,128.5744 3175.7956,128.8713 L3175.7956,131.59 Q3175.1706,131.0119 3174.5769,130.7463 Q3173.9831,130.465 3173.3581,130.465 Q3172.0144,130.465 3171.3269,131.5431 Q3170.6394,132.6056 3170.6394,134.6994 Q3170.6394,136.7931 3171.3269,137.8713 Q3172.0144,138.9338 3173.3581,138.9338 Q3173.9831,138.9338 3174.5769,138.6681 Q3175.1706,138.3869 3175.7956,137.8088 L3175.7956,140.5275 Z " fill="#000000"/><text fill="#000000" font-family="sans-serif" font-size="14" lengthAdjust="spacing" textLength="143.7324" x="3193.3269" y="139.7336">WithCentreSelection</text><line style="stroke:#181818;stroke-width:0.5;" x1="3096.55" x2="3401.3361" y1="150.8869" y2="150.8869"/><text fill="#000000" font-family="sans-serif" font-size="14" lengthAdjust="spacing" textLength="294.7861" x="3101.55" y="167.882">TopNByMaxCountSelection select_centres</text><line style="stroke:#181818;stroke-width:0.5;" x1="3096.55" x2="3401.3361" y1="175.1838" y2="175.1838"/></g><!--class DiffractionExperiment--><g class="entity" data-entity="DiffractionExperiment" data-source-line="44" data-uid="ent0011" id="entity_DiffractionExperiment"><rect fill="#F1F1F1" height="210.9688" rx="2.5" ry="2.5" style="stroke:#181818;stroke-width:0.5;" width="332.332" x="3425.77" y="275.7769"/><ellipse cx="3510.5527" cy="291.7769" fill="#ADD1B2" rx="11" ry="11" style="stroke:#181818;stroke-width:1;"/><path d="M3513.5215,297.4175 Q3512.9433,297.7144 3512.3027,297.855 Q3511.6621,298.0113 3510.959,298.0113 Q3508.459,298.0113 3507.1308,296.3706 Q3505.8183,294.7144 3505.8183,291.5894 Q3505.8183,288.4644 3507.1308,286.8081 Q3508.459,285.1519 3510.959,285.1519 Q3511.6621,285.1519 3512.3027,285.3081 Q3512.959,285.4644 3513.5215,285.7613 L3513.5215,288.48 Q3512.8965,287.9019 3512.3027,287.6363 Q3511.709,287.355 3511.084,287.355 Q3509.7402,287.355 3509.0527,288.4331 Q3508.3652,289.4956 3508.3652,291.5894 Q3508.3652,293.6831 3509.0527,294.7613 Q3509.7402,295.8238 3511.084,295.8238 Q3511.709,295.8238 3512.3027,295.5581 Q3512.8965,295.2769 3513.5215,294.6988 L3513.5215,297.4175 Z " fill="#000000"/><text fill="#000000" font-family="sans-serif" font-size="14" lengthAdjust="spacing" textLength="154.2666" x="3531.0527" y="296.6236">DiffractionExperiment</text><line style="stroke:#181818;stroke-width:0.5;" x1="3426.77" x2="3757.102" y1="307.7769" y2="307.7769"/><text fill="#000000" font-family="sans-serif" font-size="14" lengthAdjust="spacing" textLength="91.0137" x="3431.77" y="324.772">str file_name</text><text fill="#000000" font-family="sans-serif" font-size="14" lengthAdjust="spacing" textLength="153.7129" x="3431.77" y="341.0689">float exposure_time_s</text><text fill="#000000" font-family="sans-serif" font-size="14" lengthAdjust="spacing" textLength="89.5029" x="3431.77" y="357.3657">str comment</text><text fill="#000000" font-family="sans-serif" font-size="14" lengthAdjust="spacing" textLength="186.915" x="3431.77" y="373.6626">TriggerMode trigger_mode</text><text fill="#000000" font-family="sans-serif" font-size="14" lengthAdjust="spacing" textLength="157.9854" x="3431.77" y="389.9595">int | None run_number</text><text fill="#000000" font-family="sans-serif" font-size="14" lengthAdjust="spacing" textLength="282.3516" x="3431.77" y="406.2564">ApertureValue | None selected_aperture</text><text fill="#000000" font-family="sans-serif" font-size="14" lengthAdjust="spacing" textLength="159.2979" x="3431.77" y="422.5532">float transmission_frac</text><text fill="#000000" font-family="sans-serif" font-size="14" lengthAdjust="spacing" textLength="320.332" x="3431.77" y="438.8501">IspybExperimentType ispyb_experiment_type</text><text fill="#000000" font-family="sans-serif" font-size="14" lengthAdjust="spacing" textLength="146.1113" x="3431.77" y="455.147">str storage_directory</text><text fill="#000000" font-family="sans-serif" font-size="14" lengthAdjust="spacing" textLength="131.0518" x="3431.77" y="471.4439">bool use_roi_mode</text><line style="stroke:#181818;stroke-width:0.5;" x1="3426.77" x2="3757.102" y1="478.7456" y2="478.7456"/></g><!--class DiffractionExperimentWithSample--><g class="entity" data-entity="DiffractionExperimentWithSample" data-source-line="56" data-uid="ent0012" id="entity_DiffractionExperimentWithSample"><rect fill="#F1F1F1" height="48" rx="2.5" ry="2.5" style="stroke:#181818;stroke-width:0.5;" width="270.8545" x="3440.51" y="546.7469"/><ellipse cx="3455.51" cy="562.7469" fill="#ADD1B2" rx="11" ry="11" style="stroke:#181818;stroke-width:1;"/><path d="M3458.4787,568.3875 Q3457.9006,568.6844 3457.26,568.825 Q3456.6194,568.9813 3455.9162,568.9813 Q3453.4162,568.9813 3452.0881,567.3406 Q3450.7756,565.6844 3450.7756,562.5594 Q3450.7756,559.4344 3452.0881,557.7781 Q3453.4162,556.1219 3455.9162,556.1219 Q3456.6194,556.1219 3457.26,556.2781 Q3457.9162,556.4344 3458.4787,556.7313 L3458.4787,559.45 Q3457.8537,558.8719 3457.26,558.6063 Q3456.6662,558.325 3456.0412,558.325 Q3454.6975,558.325 3454.01,559.4031 Q3453.3225,560.4656 3453.3225,562.5594 Q3453.3225,564.6531 3454.01,565.7313 Q3454.6975,566.7938 3456.0412,566.7938 Q3456.6662,566.7938 3457.26,566.5281 Q3457.8537,566.2469 3458.4787,565.6688 L3458.4787,568.3875 Z " fill="#000000"/><text fill="#000000" font-family="sans-serif" font-size="14" lengthAdjust="spacing" textLength="238.8545" x="3469.51" y="567.5936">DiffractionExperimentWithSample</text><line style="stroke:#181818;stroke-width:0.5;" x1="3441.51" x2="3710.3645" y1="578.7469" y2="578.7469"/><line style="stroke:#181818;stroke-width:0.5;" x1="3441.51" x2="3710.3645" y1="586.7469" y2="586.7469"/></g><!--class GridCommon--><g class="entity" data-entity="GridCommon" data-source-line="58" data-uid="ent0013" id="entity_GridCommon"><rect fill="#F1F1F1" height="145.7813" rx="2.5" ry="2.5" style="stroke:#181818;stroke-width:0.5;" width="332.332" x="3425.77" y="654.7469"/><ellipse cx="3541.4682" cy="670.7469" fill="#ADD1B2" rx="11" ry="11" style="stroke:#181818;stroke-width:1;"/><path d="M3544.437,676.3875 Q3543.8589,676.6844 3543.2182,676.825 Q3542.5776,676.9813 3541.8745,676.9813 Q3539.3745,676.9813 3538.0464,675.3406 Q3536.7339,673.6844 3536.7339,670.5594 Q3536.7339,667.4344 3538.0464,665.7781 Q3539.3745,664.1219 3541.8745,664.1219 Q3542.5776,664.1219 3543.2182,664.2781 Q3543.8745,664.4344 3544.437,664.7313 L3544.437,667.45 Q3543.812,666.8719 3543.2182,666.6063 Q3542.6245,666.325 3541.9995,666.325 Q3540.6557,666.325 3539.9682,667.4031 Q3539.2807,668.4656 3539.2807,670.5594 Q3539.2807,672.6531 3539.9682,673.7313 Q3540.6557,674.7938 3541.9995,674.7938 Q3542.6245,674.7938 3543.2182,674.5281 Q3543.812,674.2469 3544.437,673.6688 L3544.437,676.3875 Z " fill="#000000"/><text fill="#000000" font-family="sans-serif" font-size="14" lengthAdjust="spacing" textLength="92.4355" x="3561.9682" y="675.5936">GridCommon</text><line style="stroke:#181818;stroke-width:0.5;" x1="3426.77" x2="3757.102" y1="686.7469" y2="686.7469"/><text fill="#000000" font-family="sans-serif" font-size="14" lengthAdjust="spacing" textLength="125.2959" x="3431.77" y="703.742">float box_size_um</text><text fill="#000000" font-family="sans-serif" font-size="14" lengthAdjust="spacing" textLength="138.4209" x="3431.77" y="720.0389">float grid_width_um</text><text fill="#000000" font-family="sans-serif" font-size="14" lengthAdjust="spacing" textLength="153.7129" x="3431.77" y="736.3357">float exposure_time_s</text><text fill="#000000" font-family="sans-serif" font-size="14" lengthAdjust="spacing" textLength="320.332" x="3431.77" y="752.6326">IspybExperimentType ispyb_experiment_type</text><text fill="#000000" font-family="sans-serif" font-size="14" lengthAdjust="spacing" textLength="282.3516" x="3431.77" y="768.9295">ApertureValue | None selected_aperture</text><text fill="#000000" font-family="sans-serif" font-size="14" lengthAdjust="spacing" textLength="130.498" x="3431.77" y="785.2264">float tip_offset_um</text><line style="stroke:#181818;stroke-width:0.5;" x1="3426.77" x2="3757.102" y1="792.5281" y2="792.5281"/></g><!--class MxBlueskyParameters--><g class="entity" data-entity="MxBlueskyParameters" data-source-line="66" data-uid="ent0014" id="entity_MxBlueskyParameters"><rect fill="#F1F1F1" height="64.2969" rx="2.5" ry="2.5" style="stroke:#181818;stroke-width:0.5;" width="317.4639" x="3438.21" y="118.8869"/><ellipse cx="3514.7964" cy="134.8869" fill="#ADD1B2" rx="11" ry="11" style="stroke:#181818;stroke-width:1;"/><path d="M3517.7652,140.5275 Q3517.1871,140.8244 3516.5464,140.965 Q3515.9058,141.1213 3515.2027,141.1213 Q3512.7027,141.1213 3511.3746,139.4806 Q3510.0621,137.8244 3510.0621,134.6994 Q3510.0621,131.5744 3511.3746,129.9181 Q3512.7027,128.2619 3515.2027,128.2619 Q3515.9058,128.2619 3516.5464,128.4181 Q3517.2027,128.5744 3517.7652,128.8713 L3517.7652,131.59 Q3517.1402,131.0119 3516.5464,130.7463 Q3515.9527,130.465 3515.3277,130.465 Q3513.9839,130.465 3513.2964,131.5431 Q3512.6089,132.6056 3512.6089,134.6994 Q3512.6089,136.7931 3513.2964,137.8713 Q3513.9839,138.9338 3515.3277,138.9338 Q3515.9527,138.9338 3516.5464,138.6681 Q3517.1402,138.3869 3517.7652,137.8088 L3517.7652,140.5275 Z " fill="#000000"/><text fill="#000000" font-family="sans-serif" font-size="14" lengthAdjust="spacing" textLength="155.791" x="3535.2964" y="139.7336">MxBlueskyParameters</text><line style="stroke:#181818;stroke-width:0.5;" x1="3439.21" x2="3754.6739" y1="150.8869" y2="150.8869"/><text fill="#000000" font-family="sans-serif" font-size="14" lengthAdjust="spacing" textLength="305.4639" x="3444.21" y="167.882">SemanticVersion parameter_model_version</text><line style="stroke:#181818;stroke-width:0.5;" x1="3439.21" x2="3754.6739" y1="175.1838" y2="175.1838"/></g><!--class WithHyperionUDCFeatures--><g class="entity" data-entity="WithHyperionUDCFeatures" data-source-line="72" data-uid="ent0016" id="entity_WithHyperionUDCFeatures"><rect fill="#F1F1F1" height="64.2969" rx="2.5" ry="2.5" style="stroke:#181818;stroke-width:0.5;" width="228.6719" x="523.6" y="695.4869"/><ellipse cx="542.6983" cy="711.4869" fill="#ADD1B2" rx="11" ry="11" style="stroke:#181818;stroke-width:1;"/><path d="M545.6671,717.1275 Q545.089,717.4244 544.4483,717.565 Q543.8077,717.7213 543.1046,717.7213 Q540.6046,717.7213 539.2765,716.0806 Q537.964,714.4244 537.964,711.2994 Q537.964,708.1744 539.2765,706.5181 Q540.6046,704.8619 543.1046,704.8619 Q543.8077,704.8619 544.4483,705.0181 Q545.1046,705.1744 545.6671,705.4713 L545.6671,708.19 Q545.0421,707.6119 544.4483,707.3463 Q543.8546,707.065 543.2296,707.065 Q541.8858,707.065 541.1983,708.1431 Q540.5108,709.2056 540.5108,711.2994 Q540.5108,713.3931 541.1983,714.4713 Q541.8858,715.5338 543.2296,715.5338 Q543.8546,715.5338 544.4483,715.2681 Q545.0421,714.9869 545.6671,714.4088 L545.6671,717.1275 Z " fill="#000000"/><text fill="#000000" font-family="sans-serif" font-size="14" lengthAdjust="spacing" textLength="187.5645" x="557.6091" y="716.3336">WithHyperionUDCFeatures</text><line style="stroke:#181818;stroke-width:0.5;" x1="524.6" x2="751.2719" y1="727.4869" y2="727.4869"/><text fill="#000000" font-family="sans-serif" font-size="14" lengthAdjust="spacing" textLength="216.6719" x="529.6" y="744.482">HyperionFeatureFlags features</text><line style="stroke:#181818;stroke-width:0.5;" x1="524.6" x2="751.2719" y1="751.7838" y2="751.7838"/></g><!--class PinTipCentreThenXrayCentre--><g class="entity" data-entity="PinTipCentreThenXrayCentre" data-source-line="75" data-uid="ent0017" id="entity_PinTipCentreThenXrayCentre"><rect fill="#F1F1F1" height="64.2969" rx="2.5" ry="2.5" style="stroke:#181818;stroke-width:0.5;" width="235.8955" x="965.99" y="1017.4169"/><ellipse cx="980.99" cy="1033.4169" fill="#ADD1B2" rx="11" ry="11" style="stroke:#181818;stroke-width:1;"/><path d="M983.9588,1039.0575 Q983.3806,1039.3544 982.74,1039.495 Q982.0994,1039.6513 981.3963,1039.6513 Q978.8963,1039.6513 977.5681,1038.0106 Q976.2556,1036.3544 976.2556,1033.2294 Q976.2556,1030.1044 977.5681,1028.4481 Q978.8963,1026.7919 981.3963,1026.7919 Q982.0994,1026.7919 982.74,1026.9481 Q983.3963,1027.1044 983.9588,1027.4013 L983.9588,1030.12 Q983.3338,1029.5419 982.74,1029.2763 Q982.1463,1028.995 981.5213,1028.995 Q980.1775,1028.995 979.49,1030.0731 Q978.8025,1031.1356 978.8025,1033.2294 Q978.8025,1035.3231 979.49,1036.4013 Q980.1775,1037.4638 981.5213,1037.4638 Q982.1463,1037.4638 982.74,1037.1981 Q983.3338,1036.9169 983.9588,1036.3388 L983.9588,1039.0575 Z " fill="#000000"/><text fill="#000000" font-family="sans-serif" font-size="14" lengthAdjust="spacing" textLength="203.8955" x="994.99" y="1038.2636">PinTipCentreThenXrayCentre</text><line style="stroke:#181818;stroke-width:0.5;" x1="966.99" x2="1200.8855" y1="1049.4169" y2="1049.4169"/><text fill="#000000" font-family="sans-serif" font-size="14" lengthAdjust="spacing" textLength="130.498" x="971.99" y="1066.412">float tip_offset_um</text><line style="stroke:#181818;stroke-width:0.5;" x1="966.99" x2="1200.8855" y1="1073.7138" y2="1073.7138"/></g><!--class GridCommonWithHyperionDetectorParams--><g class="entity" data-entity="GridCommonWithHyperionDetectorParams" data-source-line="78" data-uid="ent0018" id="entity_GridCommonWithHyperionDetectorParams"><rect fill="#F1F1F1" height="48" rx="2.5" ry="2.5" style="stroke:#181818;stroke-width:0.5;" width="333.2188" x="923.33" y="884.9769"/><ellipse cx="938.33" cy="900.9769" fill="#ADD1B2" rx="11" ry="11" style="stroke:#181818;stroke-width:1;"/><path d="M941.2987,906.6175 Q940.7206,906.9144 940.08,907.055 Q939.4394,907.2113 938.7362,907.2113 Q936.2362,907.2113 934.9081,905.5706 Q933.5956,903.9144 933.5956,900.7894 Q933.5956,897.6644 934.9081,896.0081 Q936.2362,894.3519 938.7362,894.3519 Q939.4394,894.3519 940.08,894.5081 Q940.7362,894.6644 941.2987,894.9613 L941.2987,897.68 Q940.6737,897.1019 940.08,896.8363 Q939.4862,896.555 938.8612,896.555 Q937.5175,896.555 936.83,897.6331 Q936.1425,898.6956 936.1425,900.7894 Q936.1425,902.8831 936.83,903.9613 Q937.5175,905.0238 938.8612,905.0238 Q939.4862,905.0238 940.08,904.7581 Q940.6737,904.4769 941.2987,903.8988 L941.2987,906.6175 Z " fill="#000000"/><text fill="#000000" font-family="sans-serif" font-size="14" lengthAdjust="spacing" textLength="301.2188" x="952.33" y="905.8236">GridCommonWithHyperionDetectorParams</text><line style="stroke:#181818;stroke-width:0.5;" x1="924.33" x2="1255.5488" y1="916.9769" y2="916.9769"/><line style="stroke:#181818;stroke-width:0.5;" x1="924.33" x2="1255.5488" y1="924.9769" y2="924.9769"/></g><!--class GridScanWithEdgeDetect--><g class="entity" data-entity="GridScanWithEdgeDetect" data-source-line="80" data-uid="ent0019" id="entity_GridScanWithEdgeDetect"><rect fill="#F1F1F1" height="48" rx="2.5" ry="2.5" style="stroke:#181818;stroke-width:0.5;" width="209.4268" x="716.23" y="1025.5669"/><ellipse cx="731.23" cy="1041.5669" fill="#ADD1B2" rx="11" ry="11" style="stroke:#181818;stroke-width:1;"/><path d="M734.1988,1047.2075 Q733.6206,1047.5044 732.98,1047.645 Q732.3394,1047.8013 731.6363,1047.8013 Q729.1363,1047.8013 727.8081,1046.1606 Q726.4956,1044.5044 726.4956,1041.3794 Q726.4956,1038.2544 727.8081,1036.5981 Q729.1363,1034.9419 731.6363,1034.9419 Q732.3394,1034.9419 732.98,1035.0981 Q733.6363,1035.2544 734.1988,1035.5513 L734.1988,1038.27 Q733.5738,1037.6919 732.98,1037.4263 Q732.3863,1037.145 731.7613,1037.145 Q730.4175,1037.145 729.73,1038.2231 Q729.0425,1039.2856 729.0425,1041.3794 Q729.0425,1043.4731 729.73,1044.5513 Q730.4175,1045.6138 731.7613,1045.6138 Q732.3863,1045.6138 732.98,1045.3481 Q733.5738,1045.0669 734.1988,1044.4888 L734.1988,1047.2075 Z " fill="#000000"/><text fill="#000000" font-family="sans-serif" font-size="14" lengthAdjust="spacing" textLength="177.4268" x="745.23" y="1046.4136">GridScanWithEdgeDetect</text><line style="stroke:#181818;stroke-width:0.5;" x1="717.23" x2="924.6568" y1="1057.5669" y2="1057.5669"/><line style="stroke:#181818;stroke-width:0.5;" x1="717.23" x2="924.6568" y1="1065.5669" y2="1065.5669"/></g><!--class LoadCentreCollect--><g class="entity" data-entity="LoadCentreCollect" data-source-line="82" data-uid="ent0020" id="entity_LoadCentreCollect"><rect fill="#F1F1F1" height="80.5938" rx="2.5" ry="2.5" style="stroke:#181818;stroke-width:0.5;" width="338.6211" x="145.63" y="868.6769"/><ellipse cx="246.255" cy="884.6769" fill="#ADD1B2" rx="11" ry="11" style="stroke:#181818;stroke-width:1;"/><path d="M249.2238,890.3175 Q248.6456,890.6144 248.005,890.755 Q247.3644,890.9113 246.6613,890.9113 Q244.1613,890.9113 242.8331,889.2706 Q241.5206,887.6144 241.5206,884.4894 Q241.5206,881.3644 242.8331,879.7081 Q244.1613,878.0519 246.6613,878.0519 Q247.3644,878.0519 248.005,878.2081 Q248.6613,878.3644 249.2238,878.6613 L249.2238,881.38 Q248.5988,880.8019 248.005,880.5363 Q247.4113,880.255 246.7863,880.255 Q245.4425,880.255 244.755,881.3331 Q244.0675,882.3956 244.0675,884.4894 Q244.0675,886.5831 244.755,887.6613 Q245.4425,888.7238 246.7863,888.7238 Q247.4113,888.7238 248.005,888.4581 Q248.5988,888.1769 249.2238,887.5988 L249.2238,890.3175 Z " fill="#000000"/><text fill="#000000" font-family="sans-serif" font-size="14" lengthAdjust="spacing" textLength="128.8711" x="266.755" y="889.5236">LoadCentreCollect</text><line style="stroke:#181818;stroke-width:0.5;" x1="146.63" x2="483.2511" y1="900.6769" y2="900.6769"/><text fill="#000000" font-family="sans-serif" font-size="14" lengthAdjust="spacing" textLength="326.6211" x="151.63" y="917.672">RobotLoadThenCentre robot_load_then_centre</text><text fill="#000000" font-family="sans-serif" font-size="14" lengthAdjust="spacing" textLength="269.3154" x="151.63" y="933.9689">MultiRotationScan multi_rotation_scan</text><line style="stroke:#181818;stroke-width:0.5;" x1="146.63" x2="483.2511" y1="941.2706" y2="941.2706"/></g><!--class MultiRotationScan--><g class="entity" data-entity="MultiRotationScan" data-source-line="86" data-uid="ent0021" id="entity_MultiRotationScan"><rect fill="#F1F1F1" height="64.2969" rx="2.5" ry="2.5" style="stroke:#181818;stroke-width:0.5;" width="540.001" x="129.94" y="1017.4169"/><ellipse cx="331.9727" cy="1033.4169" fill="#ADD1B2" rx="11" ry="11" style="stroke:#181818;stroke-width:1;"/><path d="M334.9415,1039.0575 Q334.3633,1039.3544 333.7227,1039.495 Q333.0821,1039.6513 332.379,1039.6513 Q329.879,1039.6513 328.5508,1038.0106 Q327.2383,1036.3544 327.2383,1033.2294 Q327.2383,1030.1044 328.5508,1028.4481 Q329.879,1026.7919 332.379,1026.7919 Q333.0821,1026.7919 333.7227,1026.9481 Q334.379,1027.1044 334.9415,1027.4013 L334.9415,1030.12 Q334.3165,1029.5419 333.7227,1029.2763 Q333.129,1028.995 332.504,1028.995 Q331.1602,1028.995 330.4727,1030.0731 Q329.7852,1031.1356 329.7852,1033.2294 Q329.7852,1035.3231 330.4727,1036.4013 Q331.1602,1037.4638 332.504,1037.4638 Q333.129,1037.4638 333.7227,1037.1981 Q334.3165,1036.9169 334.9415,1036.3388 L334.9415,1039.0575 Z " fill="#000000"/><text fill="#000000" font-family="sans-serif" font-size="14" lengthAdjust="spacing" textLength="127.4355" x="352.4727" y="1038.2636">MultiRotationScan</text><line style="stroke:#181818;stroke-width:0.5;" x1="130.94" x2="668.941" y1="1049.4169" y2="1049.4169"/><line style="stroke:#181818;stroke-width:0.5;" x1="130.94" x2="668.941" y1="1057.4169" y2="1057.4169"/><text fill="#000000" font-family="sans-serif" font-size="14" lengthAdjust="spacing" textLength="528.001" x="135.94" y="1074.412">Annotated[list[RotationScanPerSweep], Len(min_length=1)] rotation_scans</text></g><!--class RotationExperiment--><g class="entity" data-entity="RotationExperiment" data-source-line="89" data-uid="ent0022" id="entity_RotationExperiment"><rect fill="#F1F1F1" height="96.8906" rx="2.5" ry="2.5" style="stroke:#181818;stroke-width:0.5;" width="332.332" x="555.77" y="860.5269"/><ellipse cx="647.6518" cy="876.5269" fill="#ADD1B2" rx="11" ry="11" style="stroke:#181818;stroke-width:1;"/><path d="M650.6206,882.1675 Q650.0425,882.4644 649.4018,882.605 Q648.7612,882.7613 648.0581,882.7613 Q645.5581,882.7613 644.23,881.1206 Q642.9175,879.4644 642.9175,876.3394 Q642.9175,873.2144 644.23,871.5581 Q645.5581,869.9019 648.0581,869.9019 Q648.7612,869.9019 649.4018,870.0581 Q650.0581,870.2144 650.6206,870.5113 L650.6206,873.23 Q649.9956,872.6519 649.4018,872.3863 Q648.8081,872.105 648.1831,872.105 Q646.8393,872.105 646.1518,873.1831 Q645.4643,874.2456 645.4643,876.3394 Q645.4643,878.4331 646.1518,879.5113 Q646.8393,880.5738 648.1831,880.5738 Q648.8081,880.5738 649.4018,880.3081 Q649.9956,880.0269 650.6206,879.4488 L650.6206,882.1675 Z " fill="#000000"/><text fill="#000000" font-family="sans-serif" font-size="14" lengthAdjust="spacing" textLength="140.0684" x="668.1518" y="881.3736">RotationExperiment</text><line style="stroke:#181818;stroke-width:0.5;" x1="556.77" x2="887.102" y1="892.5269" y2="892.5269"/><text fill="#000000" font-family="sans-serif" font-size="14" lengthAdjust="spacing" textLength="202.8018" x="561.77" y="909.522">float shutter_opening_time_s</text><text fill="#000000" font-family="sans-serif" font-size="14" lengthAdjust="spacing" textLength="202.9385" x="561.77" y="925.8189">float rotation_increment_deg</text><text fill="#000000" font-family="sans-serif" font-size="14" lengthAdjust="spacing" textLength="320.332" x="561.77" y="942.1157">IspybExperimentType ispyb_experiment_type</text><line style="stroke:#181818;stroke-width:0.5;" x1="556.77" x2="887.102" y1="949.4175" y2="949.4175"/></g><!--reverse link WithPandaGridScan to WithHyperionUDCFeatures--><g class="link" data-entity-1="WithPandaGridScan" data-entity-2="WithHyperionUDCFeatures" data-source-line="95" data-uid="lnk23" id="link_WithPandaGridScan_WithHyperionUDCFeatures"><path codeLine="95" d="M2019.0323,192.0074 C1994.4323,205.1074 1981.03,211.6069 1953.94,223.7769 C1505.22,425.3569 949.28,620.5769 731.57,695.0169" fill="none" id="WithPandaGridScan-backto-WithHyperionUDCFeatures" style="stroke:#181818;stroke-width:1;"/><polygon fill="none" points="2034.92,183.5469,2016.2121,186.7115,2021.8525,197.3033,2034.92,183.5469" style="stroke:#181818;stroke-width:1;"/></g><!--reverse link DiffractionExperiment to DiffractionExperimentWithSample--><g class="link" data-entity-1="DiffractionExperiment" data-entity-2="DiffractionExperimentWithSample" data-source-line="96" data-uid="lnk24" id="link_DiffractionExperiment_DiffractionExperimentWithSample"><path codeLine="96" d="M3581.4485,505.1816 C3579.5485,527.4316 3579.26,530.8969 3577.94,546.3269" fill="none" id="DiffractionExperiment-backto-DiffractionExperimentWithSample" style="stroke:#181818;stroke-width:1;"/><polygon fill="none" points="3582.98,487.2469,3575.4703,504.6711,3587.4267,505.6921,3582.98,487.2469" style="stroke:#181818;stroke-width:1;"/></g><!--reverse link WithSample to DiffractionExperimentWithSample--><g class="link" data-entity-1="WithSample" data-entity-2="DiffractionExperimentWithSample" data-source-line="97" data-uid="lnk25" id="link_WithSample_DiffractionExperimentWithSample"><path codeLine="97" d="M1618.4867,209.6695 C1632.5167,218.7795 1632.71,217.5869 1647.94,223.7769 C2284.66,482.7369 3117.83,548.4469 3440.31,564.6369" fill="none" id="WithSample-backto-DiffractionExperimentWithSample" style="stroke:#181818;stroke-width:1;"/><polygon fill="none" points="1603.39,199.8669,1615.2191,214.7017,1621.7542,204.6373,1603.39,199.8669" style="stroke:#181818;stroke-width:1;"/></g><!--reverse link GridCommonWithHyperionDetectorParams to PinTipCentreThenXrayCentre--><g class="link" data-entity-1="GridCommonWithHyperionDetectorParams" data-entity-2="PinTipCentreThenXrayCentre" data-source-line="98" data-uid="lnk26" id="link_GridCommonWithHyperionDetectorParams_PinTipCentreThenXrayCentre"><path codeLine="98" d="M1088.1568,951.1598 C1087.1568,974.1198 1086.41,991.4569 1085.31,1016.9769" fill="none" id="GridCommonWithHyperionDetectorParams-backto-PinTipCentreThenXrayCentre" style="stroke:#181818;stroke-width:1;"/><polygon fill="none" points="1088.94,933.1769,1082.1625,950.8988,1094.1511,951.4209,1088.94,933.1769" style="stroke:#181818;stroke-width:1;"/></g><!--reverse link WithHyperionUDCFeatures to PinTipCentreThenXrayCentre--><g class="link" data-entity-1="WithHyperionUDCFeatures" data-entity-2="PinTipCentreThenXrayCentre" data-source-line="99" data-uid="lnk27" id="link_WithHyperionUDCFeatures_PinTipCentreThenXrayCentre"><path codeLine="99" d="M592.2167,772.8573 C546.1267,820.1473 486.4,897.6869 537.94,957.4169 C597.37,1026.3069 853.46,1000.9269 942.94,1017.4169 C950.34,1018.7869 957.94,1020.2569 965.59,1021.7869" fill="none" id="WithHyperionUDCFeatures-backto-PinTipCentreThenXrayCentre" style="stroke:#181818;stroke-width:1;"/><polygon fill="none" points="604.78,759.9669,587.9199,768.6695,596.5135,777.0451,604.78,759.9669" style="stroke:#181818;stroke-width:1;"/></g><!--reverse link GridCommon to GridCommonWithHyperionDetectorParams--><g class="link" data-entity-1="GridCommon" data-entity-2="GridCommonWithHyperionDetectorParams" data-source-line="100" data-uid="lnk28" id="link_GridCommon_GridCommonWithHyperionDetectorParams"><path codeLine="100" d="M3407.3961,741.864 C2952.6461,774.464 1711.68,863.4069 1256.71,896.0169" fill="none" id="GridCommon-backto-GridCommonWithHyperionDetectorParams" style="stroke:#181818;stroke-width:1;"/><polygon fill="none" points="3425.35,740.5769,3406.967,735.8793,3407.8251,747.8486,3425.35,740.5769" style="stroke:#181818;stroke-width:1;"/></g><!--reverse link WithHyperionUDCFeatures to GridCommonWithHyperionDetectorParams--><g class="link" data-entity-1="WithHyperionUDCFeatures" data-entity-2="GridCommonWithHyperionDetectorParams" data-source-line="101" data-uid="lnk29" id="link_WithHyperionUDCFeatures_GridCommonWithHyperionDetectorParams"><path codeLine="101" d="M734.181,766.8256 C823.851,802.4056 950.86,852.7969 1031.03,884.6069" fill="none" id="WithHyperionUDCFeatures-backto-GridCommonWithHyperionDetectorParams" style="stroke:#181818;stroke-width:1;"/><polygon fill="none" points="717.45,760.1869,731.9682,772.4026,736.3939,761.2485,717.45,760.1869" style="stroke:#181818;stroke-width:1;"/></g><!--reverse link GridCommonWithHyperionDetectorParams to GridScanWithEdgeDetect--><g class="link" data-entity-1="GridCommonWithHyperionDetectorParams" data-entity-2="GridScanWithEdgeDetect" data-source-line="102" data-uid="lnk30" id="link_GridCommonWithHyperionDetectorParams_GridScanWithEdgeDetect"><path codeLine="102" d="M1028.6097,941.5724 C979.0497,967.1124 916.09,999.5469 866.45,1025.1169" fill="none" id="GridCommonWithHyperionDetectorParams-backto-GridScanWithEdgeDetect" style="stroke:#181818;stroke-width:1;"/><polygon fill="none" points="1044.61,933.3269,1025.8611,936.239,1031.3582,946.9059,1044.61,933.3269" style="stroke:#181818;stroke-width:1;"/></g><!--reverse link WithHyperionUDCFeatures to GridScanWithEdgeDetect--><g class="link" data-entity-1="WithHyperionUDCFeatures" data-entity-2="GridScanWithEdgeDetect" data-source-line="103" data-uid="lnk31" id="link_WithHyperionUDCFeatures_GridScanWithEdgeDetect"><path codeLine="103" d="M505.4179,741.9087 C320.3379,764.0887 6,821.7169 127.94,957.4169 C211.59,1050.5169 564.55,996.4469 687.94,1017.4169 C700.68,1019.5869 714.03,1022.2369 727.14,1025.0769" fill="none" id="WithHyperionUDCFeatures-backto-GridScanWithEdgeDetect" style="stroke:#181818;stroke-width:1;"/><polygon fill="none" points="523.29,739.7669,504.7039,735.9513,506.1318,747.866,523.29,739.7669" style="stroke:#181818;stroke-width:1;"/></g><!--reverse link MxBlueskyParameters to LoadCentreCollect--><g class="link" data-entity-1="MxBlueskyParameters" data-entity-2="LoadCentreCollect" data-source-line="104" data-uid="lnk32" id="link_MxBlueskyParameters_LoadCentreCollect"><path codeLine="104" d="M3719.9924,190.6071 C3765.9924,209.7971 3799.35,232.2769 3828.94,275.7769 C3968.12,480.3769 4014.18,668.4669 3828.94,832.5269 C3794.72,862.8369 583.38,855.5569 537.94,860.5269 C520.53,862.4369 502.47,865.0969 484.52,868.2069" fill="none" id="MxBlueskyParameters-backto-LoadCentreCollect" style="stroke:#181818;stroke-width:1;"/><polygon fill="none" points="3703.38,183.6769,3717.6823,196.1446,3722.3025,185.0697,3703.38,183.6769" style="stroke:#181818;stroke-width:1;"/></g><!--reverse link WithVisit to LoadCentreCollect--><g class="link" data-entity-1="WithVisit" data-entity-2="LoadCentreCollect" data-source-line="105" data-uid="lnk33" id="link_WithVisit_LoadCentreCollect"><path codeLine="105" d="M1653.564,222.411 C1646.034,225.191 1655.38,221.5169 1647.94,223.7769 C1502.11,268.1469 1454.77,231.3969 1308.94,275.7769 C931.81,390.5569 811.54,403.4669 505.94,652.4869 C429.52,714.7569 367.03,813.9569 336.05,868.6169" fill="none" id="WithVisit-backto-LoadCentreCollect" style="stroke:#181818;stroke-width:1;"/><polygon fill="none" points="1670.45,216.1769,1651.486,216.7823,1655.6421,228.0397,1670.45,216.1769" style="stroke:#181818;stroke-width:1;"/></g><!--reverse link WithSample to LoadCentreCollect--><g class="link" data-entity-1="WithSample" data-entity-2="LoadCentreCollect" data-source-line="106" data-uid="lnk34" id="link_WithSample_LoadCentreCollect"><path codeLine="106" d="M1468.2383,209.7132 C1453.5683,219.3132 1452.37,218.2669 1435.94,223.7769 C1331.3,258.8869 527.58,203.7569 443.94,275.7769 C265.9,429.0969 293.01,755.5769 308.62,868.5369" fill="none" id="WithSample-backto-LoadCentreCollect" style="stroke:#181818;stroke-width:1;"/><polygon fill="none" points="1483.3,199.8569,1464.9529,204.6926,1471.5238,214.7337,1483.3,199.8569" style="stroke:#181818;stroke-width:1;"/></g><!--reverse link WithCentreSelection to LoadCentreCollect--><g class="link" data-entity-1="WithCentreSelection" data-entity-2="LoadCentreCollect" data-source-line="107" data-uid="lnk35" id="link_WithCentreSelection_LoadCentreCollect"><path codeLine="107" d="M3325.1875,191.3974 C3354.8475,205.7274 3375.39,213.8269 3409.94,223.7769 C3488.46,246.4069 3720.4,214.0469 3773.94,275.7769 C3855,369.2469 3861.05,744.6669 3773.94,832.5269 C3742.3,864.4469 582.62,855.6369 537.94,860.5269 C520.53,862.4369 502.47,865.1069 484.52,868.2069" fill="none" id="WithCentreSelection-backto-LoadCentreCollect" style="stroke:#181818;stroke-width:1;"/><polygon fill="none" points="3308.98,183.5669,3322.5773,196.7999,3327.7977,185.9949,3308.98,183.5669" style="stroke:#181818;stroke-width:1;"/></g><!--reverse link WithHyperionUDCFeatures to LoadCentreCollect--><g class="link" data-entity-1="WithHyperionUDCFeatures" data-entity-2="LoadCentreCollect" data-source-line="108" data-uid="lnk36" id="link_WithHyperionUDCFeatures_LoadCentreCollect"><path codeLine="108" d="M586.069,771.3522 C558.379,793.4422 533.33,811.4569 495.94,832.5269 C472.81,845.5669 446.97,857.6669 422.22,868.1869" fill="none" id="WithHyperionUDCFeatures-backto-LoadCentreCollect" style="stroke:#181818;stroke-width:1;"/><polygon fill="none" points="600.14,760.1269,582.3272,766.6618,589.8108,776.0425,600.14,760.1269" style="stroke:#181818;stroke-width:1;"/></g><!--reverse link RotationExperiment to MultiRotationScan--><g class="link" data-entity-1="RotationExperiment" data-entity-2="MultiRotationScan" data-source-line="109" data-uid="lnk37" id="link_RotationExperiment_MultiRotationScan"><path codeLine="109" d="M594.1367,964.9838 C548.6967,984.5438 513.92,999.5069 473.31,1016.9869" fill="none" id="RotationExperiment-backto-MultiRotationScan" style="stroke:#181818;stroke-width:1;"/><polygon fill="none" points="610.67,957.8669,591.7644,959.4727,596.509,970.4949,610.67,957.8669" style="stroke:#181818;stroke-width:1;"/></g><!--reverse link SplitScan to MultiRotationScan--><g class="link" data-entity-1="SplitScan" data-entity-2="MultiRotationScan" data-source-line="110" data-uid="lnk38" id="link_SplitScan_MultiRotationScan"><path codeLine="110" d="M1303.0465,153.6498 C1119.7465,158.5698 492.79,181.8569 313.94,275.7769 C160.04,356.5969 55.94,395.9169 55.94,569.7469 C55.94,569.7469 55.94,569.7469 55.94,728.6369 C55.94,831.6369 24.92,880.0669 92.94,957.4169 C116.62,984.3469 147.86,1003.4969 181.34,1017.0669" fill="none" id="SplitScan-backto-MultiRotationScan" style="stroke:#181818;stroke-width:1;"/><polygon fill="none" points="1321.04,153.1669,1302.8855,147.652,1303.2075,159.6477,1321.04,153.1669" style="stroke:#181818;stroke-width:1;"/></g><!--reverse link DiffractionExperimentWithSample to GridCommon--><g class="link" data-entity-1="DiffractionExperimentWithSample" data-entity-2="GridCommon" data-source-line="111" data-uid="lnk39" id="link_DiffractionExperimentWithSample_GridCommon"><path codeLine="111" d="M3580.1811,612.8425 C3581.8211,628.7925 3582.27,633.0069 3584.5,654.5669" fill="none" id="DiffractionExperimentWithSample-backto-GridCommon" style="stroke:#181818;stroke-width:1;"/><polygon fill="none" points="3578.34,594.9369,3574.2125,613.4562,3586.1496,612.2288,3578.34,594.9369" style="stroke:#181818;stroke-width:1;"/></g><!--reverse link OptionalGonioAngleStarts to GridCommon--><g class="link" data-entity-1="OptionalGonioAngleStarts" data-entity-2="GridCommon" data-source-line="112" data-uid="lnk40" id="link_OptionalGonioAngleStarts_GridCommon"><path codeLine="112" d="M2469.7107,216.5421 C2479.7907,222.0121 2474.12,218.7869 2483.94,223.7769 C2812.1,390.5269 3206.87,563.2569 3425.53,656.5669" fill="none" id="OptionalGonioAngleStarts-backto-GridCommon" style="stroke:#181818;stroke-width:1;"/><polygon fill="none" points="2453.89,207.9569,2466.8489,221.8157,2472.5724,211.2685,2453.89,207.9569" style="stroke:#181818;stroke-width:1;"/></g><!--reverse link MxBlueskyParameters to DiffractionExperiment--><g class="link" data-entity-1="MxBlueskyParameters" data-entity-2="DiffractionExperiment" data-source-line="113" data-uid="lnk41" id="link_MxBlueskyParameters_DiffractionExperiment"><path codeLine="113" d="M3595.8623,201.2925 C3595.3323,225.2725 3594.97,241.8669 3594.24,275.3869" fill="none" id="MxBlueskyParameters-backto-DiffractionExperiment" style="stroke:#181818;stroke-width:1;"/><polygon fill="none" points="3596.26,183.2969,3589.8637,201.1599,3601.8608,201.4251,3596.26,183.2969" style="stroke:#181818;stroke-width:1;"/></g><!--reverse link WithSnapshot to DiffractionExperiment--><g class="link" data-entity-1="WithSnapshot" data-entity-2="DiffractionExperiment" data-source-line="114" data-uid="lnk42" id="link_WithSnapshot_DiffractionExperiment"><path codeLine="114" d="M3035.4034,206.9966 C3054.8434,215.3966 3058.62,216.5969 3077.94,223.7769 C3192.25,266.3069 3323.87,306.2169 3425.31,335.0869" fill="none" id="WithSnapshot-backto-DiffractionExperiment" style="stroke:#181818;stroke-width:1;"/><polygon fill="none" points="3018.88,199.8569,3033.0235,212.5044,3037.7834,201.4888,3018.88,199.8569" style="stroke:#181818;stroke-width:1;"/></g><!--reverse link WithOptionalEnergyChange to DiffractionExperiment--><g class="link" data-entity-1="WithOptionalEnergyChange" data-entity-2="DiffractionExperiment" data-source-line="115" data-uid="lnk43" id="link_WithOptionalEnergyChange_DiffractionExperiment"><path codeLine="115" d="M2685.1196,192.6001 C2709.7796,206.7601 2724.75,213.5669 2753.94,223.7769 C2979.38,302.6469 3253.59,344.2669 3425.5,364.2569" fill="none" id="WithOptionalEnergyChange-backto-DiffractionExperiment" style="stroke:#181818;stroke-width:1;"/><polygon fill="none" points="2669.51,183.6369,2682.1319,197.8033,2688.1074,187.3969,2669.51,183.6369" style="stroke:#181818;stroke-width:1;"/></g><!--reverse link WithVisit to DiffractionExperiment--><g class="link" data-entity-1="WithVisit" data-entity-2="DiffractionExperiment" data-source-line="116" data-uid="lnk44" id="link_WithVisit_DiffractionExperiment"><path codeLine="116" d="M1946.9619,222.2332 C1954.9719,225.0632 1946.02,221.6169 1953.94,223.7769 C2228.21,298.7569 3066.35,351.7469 3425.6,371.6069" fill="none" id="WithVisit-backto-DiffractionExperiment" style="stroke:#181818;stroke-width:1;"/><polygon fill="none" points="1929.99,216.2369,1944.9631,227.8905,1948.9606,216.5759,1929.99,216.2369" style="stroke:#181818;stroke-width:1;"/></g><!--reverse link DiffractionExperimentWithSample to RotationExperiment--><g class="link" data-entity-1="DiffractionExperimentWithSample" data-entity-2="RotationExperiment" data-source-line="117" data-uid="lnk45" id="link_DiffractionExperimentWithSample_RotationExperiment"><path codeLine="117" d="M3422.233,580.5571 C3028.023,604.4771 1868.08,685.3969 905.94,860.5269 C900.1,861.5969 894.17,862.7369 888.19,863.9569" fill="none" id="DiffractionExperimentWithSample-backto-RotationExperiment" style="stroke:#181818;stroke-width:1;"/><polygon fill="none" points="3440.2,579.4669,3421.8696,574.5681,3422.5964,586.5461,3440.2,579.4669" style="stroke:#181818;stroke-width:1;"/></g><!--reverse link WithHyperionUDCFeatures to RotationExperiment--><g class="link" data-entity-1="WithHyperionUDCFeatures" data-entity-2="RotationExperiment" data-source-line="118" data-uid="lnk46" id="link_WithHyperionUDCFeatures_RotationExperiment"><path codeLine="118" d="M660.2029,776.1784 C673.1729,803.8784 684.69,828.4469 699.58,860.2369" fill="none" id="WithHyperionUDCFeatures-backto-RotationExperiment" style="stroke:#181818;stroke-width:1;"/><polygon fill="none" points="652.57,759.8769,654.769,778.7227,665.6367,773.6341,652.57,759.8769" style="stroke:#181818;stroke-width:1;"/></g><!--SRC=[bLPBZzis43wRluAtja1tWTxRmyQxIGjaKoDsjmM21K5BOubOYYH8QcFLsV-U8Id93qcsSx8uyt7ccwVvqweKZcw418g_lFRwfW05bdl8wRgXtO4PoPMlAtbh6aAyy7ZXpyQ05LhH1RUy0W-MFkeS977WgKA9Cpo39HXKUssfqWe8GTaBBu1MMxQMDRYNvZRJLQNLhUdCEBeZNXVWIpIv8vdapj5_XI__DXxzSVc0f8fcNd9Lm8xCDb9pJx_HJ-Y0vb1nbJE840QlvAqrq5t-e9NGTwgGiFJSUdTgG5TGSEQ2ZkLGd6XDAIPrsHdT2pVcq6h7QccayCkCgrql2f4k5JUkr1x9BRWlgMlFB1SMCincGsPIEFybEddklFIm68HBFDPQIrexO8KLEUiWxiZVat0YE7FUqZNmIWgiLJoz1atwp27uTvvvpGA8PLgzWiMACOCa4qWeXoBCD3CMDc8xA8-F_ACXhZ9WLNKSEQ-C35KLobCN3qpawTX5cQIcpbv6vK8TMLnWF_0F67jASyl712cpjQhD99SvA6-nWoLIneZmxagRJ- -QHxwTwrhvNaDT_69Pl11I-pRiu7knsLWUyG_RC3eLejkSXmbaOMOwUh0rsjKMc4SOSmaL1WNl80qhYW9i63VgqpUhy72K3eoDgRfQWoMpE_JdqTmJnvdhynL9Gyvug-sSUykLguHpeOo1CvdzvKoptjDUuUpZna0PWrx8F4eJKuSbnYa_RDU-3QqMYUpRkSGSza8734MSnsNHbt6jjyo9_u7LLIUARVvLvBuy40xo-GC1_M3oX65wiy4b6Dntr1-txzAswvTbM3pBiAoyo9xm6DgeNu4nGPAz9ddifxUnrLcsE_XuUUuxkDlH_zpFtmCFD8FRJjgAtajUu9z0g-yfBuHQ2PDcO5M2-i_o9frsvsFTb-cGmdqx-J41xhYeOJ83zY4l8E7s-e-QvydjN4iPLRFFUgrzK0HUIKbja36abJCSEzNE8fazrjABpzhpq5_14Qs21DimYPX3sRvEfsZqTgTK443-9QxSG-q2xF8hW7d-bNu4zNCb59EW2b_-yTilp_J8nJwndO6ZBP0IwihQX_9h0qgeek_MfEtj2PLPY1qQD_prlHpQQB0JwU_VRcwcseMCJcUwSc5moVxpElmrZPCiJVSccOZZuhszymIzXinvPrTPk3xcyK6vJ67apiWsIlZ1i97-TN0ES5ZaSSJ9N-avw6GmG_XmaX9oCCMaVsTD0Ixqvcb5oTHpSW2SpFMeHtBu-hk46tiFNxfpKCjnq5M962R-VEc6-Ey0]--></g></svg>