<svg xmlns="http://www.w3.org/2000/svg" xmlns:xlink="http://www.w3.org/1999/xlink" contentStyleType="text/css" data-diagram-type="CLASS" height="1127px" preserveAspectRatio="none" style="width:2953px;height:1127px;background:#FFFFFF;" version="1.1" viewBox="0 0 2953 1127" width="2953px" zoomAndPan="magnify"><title>Hyperion Parameter Model</title><defs/><g><g class="title" data-source-line="3"><text fill="#000000" font-family="sans-serif" font-size="14" font-weight="bold" lengthAdjust="spacing" textLength="212.4951" x="1363.3324" y="22.9951">Hyperion Parameter Model</text></g><!--cluster mx_bluesky.common.parameters--><g class="cluster" data-entity="mx_bluesky.common.parameters" data-source-line="6" data-uid="ent0002" id="cluster_mx_bluesky.common.parameters"><path d="M8.5,43.2969 L269.8125,43.2969 A3.75,3.75 0 0 1 272.3125,45.7969 L279.3125,65.5938 L2525.5,65.5938 A2.5,2.5 0 0 1 2528,68.0938 L2528,822.0269 A2.5,2.5 0 0 1 2525.5,824.5269 L8.5,824.5269 A2.5,2.5 0 0 1 6,822.0269 L6,45.7969 A2.5,2.5 0 0 1 8.5,43.2969" fill="none" style="stroke:#000000;stroke-width:1.5;"/><line style="stroke:#000000;stroke-width:1.5;" x1="6" x2="279.3125" y1="65.5938" y2="65.5938"/><text fill="#000000" font-family="sans-serif" font-size="14" font-weight="bold" lengthAdjust="spacing" textLength="260.3125" x="10" y="58.292">mx_bluesky.common.parameters</text></g><!--cluster mx_bluesky.hyperion.parameters--><g class="cluster" data-entity="mx_bluesky.hyperion.parameters" data-source-line="68" data-uid="ent0014" id="cluster_mx_bluesky.hyperion.parameters"><path d="M1790.5,848.5269 L2055.0322,848.5269 A3.75,3.75 0 0 1 2057.5322,851.0269 L2064.5322,870.8238 L2891.5,870.8238 A2.5,2.5 0 0 1 2894,873.3238 L2894,1118.2169 A2.5,2.5 0 0 1 2891.5,1120.7169 L1790.5,1120.7169 A2.5,2.5 0 0 1 1788,1118.2169 L1788,851.0269 A2.5,2.5 0 0 1 1790.5,848.5269" fill="none" style="stroke:#000000;stroke-width:1.5;"/><line style="stroke:#000000;stroke-width:1.5;" x1="1788" x2="2064.5322" y1="870.8238" y2="870.8238"/><text fill="#000000" font-family="sans-serif" font-size="14" font-weight="bold" lengthAdjust="spacing" textLength="263.5322" x="1792" y="863.522">mx_bluesky.hyperion.parameters</text></g><!--class SplitScan--><g class="entity" data-entity="SplitScan" data-source-line="8" data-uid="ent0003" id="entity_SplitScan"><rect fill="#F1F1F1" height="48" rx="2.5" ry="2.5" style="stroke:#181818;stroke-width:0.5;" width="97.0781" x="30.46" y="127.0369"/><ellipse cx="45.46" cy="143.0369" fill="#ADD1B2" rx="11" ry="11" style="stroke:#181818;stroke-width:1;"/><path d="M48.4288,148.6775 Q47.8506,148.9744 47.21,149.115 Q46.5694,149.2713 45.8663,149.2713 Q43.3663,149.2713 42.0381,147.6306 Q40.7256,145.9744 40.7256,142.8494 Q40.7256,139.7244 42.0381,138.0681 Q43.3663,136.4119 45.8663,136.4119 Q46.5694,136.4119 47.21,136.5681 Q47.8663,136.7244 48.4288,137.0213 L48.4288,139.74 Q47.8038,139.1619 47.21,138.8963 Q46.6163,138.615 45.9913,138.615 Q44.6475,138.615 43.96,139.6931 Q43.2725,140.7556 43.2725,142.8494 Q43.2725,144.9431 43.96,146.0213 Q44.6475,147.0838 45.9913,147.0838 Q46.6163,147.0838 47.21,146.8181 Q47.8038,146.5369 48.4288,145.9588 L48.4288,148.6775 Z " fill="#000000"/><text fill="#000000" font-family="sans-serif" font-size="14" lengthAdjust="spacing" textLength="65.0781" x="59.46" y="147.8836">SplitScan</text><line style="stroke:#181818;stroke-width:0.5;" x1="31.46" x2="126.5381" y1="159.0369" y2="159.0369"/><line style="stroke:#181818;stroke-width:0.5;" x1="31.46" x2="126.5381" y1="167.0369" y2="167.0369"/></g><!--class WithSnapshot--><g class="entity" data-entity="WithSnapshot" data-source-line="10" data-uid="ent0004" id="entity_WithSnapshot"><rect fill="#F1F1F1" height="96.8906" rx="2.5" ry="2.5" style="stroke:#181818;stroke-width:0.5;" width="289.3477" x="898.33" y="102.5869"/><ellipse cx="989.9828" cy="118.5869" fill="#ADD1B2" rx="11" ry="11" style="stroke:#181818;stroke-width:1;"/><path d="M992.9516,124.2275 Q992.3735,124.5244 991.7328,124.665 Q991.0922,124.8212 990.3891,124.8212 Q987.8891,124.8212 986.561,123.1806 Q985.2485,121.5244 985.2485,118.3994 Q985.2485,115.2744 986.561,113.6181 Q987.8891,111.9619 990.3891,111.9619 Q991.0922,111.9619 991.7328,112.1181 Q992.3891,112.2744 992.9516,112.5712 L992.9516,115.29 Q992.3266,114.7119 991.7328,114.4462 Q991.1391,114.165 990.5141,114.165 Q989.1703,114.165 988.4828,115.2431 Q987.7953,116.3056 987.7953,118.3994 Q987.7953,120.4931 988.4828,121.5712 Q989.1703,122.6337 990.5141,122.6337 Q991.1391,122.6337 991.7328,122.3681 Q992.3266,122.0869 992.9516,121.5087 L992.9516,124.2275 Z " fill="#000000"/><text fill="#000000" font-family="sans-serif" font-size="14" lengthAdjust="spacing" textLength="97.542" x="1010.4828" y="123.4336">WithSnapshot</text><line style="stroke:#181818;stroke-width:0.5;" x1="899.33" x2="1186.6777" y1="134.5869" y2="134.5869"/><text fill="#000000" font-family="sans-serif" font-size="14" lengthAdjust="spacing" textLength="169.627" x="904.33" y="151.582">Path snapshot_directory</text><text fill="#000000" font-family="sans-serif" font-size="14" lengthAdjust="spacing" textLength="277.3477" x="904.33" y="167.8789">list[float] | None snapshot_omegas_deg</text><text fill="#000000" font-family="sans-serif" font-size="14" lengthAdjust="spacing" textLength="171.7051" x="904.33" y="184.1757">bool use_grid_snapshots</text><line style="stroke:#181818;stroke-width:0.5;" x1="899.33" x2="1186.6777" y1="191.4775" y2="191.4775"/></g><!--class WithCentreSelection--><g class="entity" data-entity="WithCentreSelection" data-source-line="15" data-uid="ent0005" id="entity_WithCentreSelection"><rect fill="#F1F1F1" height="64.2969" rx="2.5" ry="2.5" style="stroke:#181818;stroke-width:0.5;" width="618.6689" x="1529.67" y="118.8869"/><ellipse cx="1762.8883" cy="134.8869" fill="#ADD1B2" rx="11" ry="11" style="stroke:#181818;stroke-width:1;"/><path d="M1765.857,140.5275 Q1765.2789,140.8244 1764.6383,140.965 Q1763.9976,141.1213 1763.2945,141.1213 Q1760.7945,141.1213 1759.4664,139.4806 Q1758.1539,137.8244 1758.1539,134.6994 Q1758.1539,131.5744 1759.4664,129.9181 Q1760.7945,128.2619 1763.2945,128.2619 Q1763.9976,128.2619 1764.6383,128.4181 Q1765.2945,128.5744 1765.857,128.8713 L1765.857,131.59 Q1765.232,131.0119 1764.6383,130.7463 Q1764.0445,130.465 1763.4195,130.465 Q1762.0758,130.465 1761.3883,131.5431 Q1760.7008,132.6056 1760.7008,134.6994 Q1760.7008,136.7931 1761.3883,137.8713 Q1762.0758,138.9338 1763.4195,138.9338 Q1764.0445,138.9338 1764.6383,138.6681 Q1765.232,138.3869 1765.857,137.8088 L1765.857,140.5275 Z " fill="#000000"/><text fill="#000000" font-family="sans-serif" font-size="14" lengthAdjust="spacing" textLength="143.7324" x="1783.3883" y="139.7336">WithCentreSelection</text><line style="stroke:#181818;stroke-width:0.5;" x1="1530.67" x2="2147.3389" y1="150.8869" y2="150.8869"/><text fill="#000000" font-family="sans-serif" font-size="14" lengthAdjust="spacing" textLength="606.6689" x="1535.67" y="167.882">TopNByMaxCountSelection | TopNByMaxCountForEachSampleSelection select_centres</text><line style="stroke:#181818;stroke-width:0.5;" x1="1530.67" x2="2147.3389" y1="175.1838" y2="175.1838"/></g><!--class WithVisit--><g class="entity" data-entity="WithVisit" data-source-line="18" data-uid="ent0006" id="entity_WithVisit"><rect fill="#F1F1F1" height="129.4844" rx="2.5" ry="2.5" style="stroke:#181818;stroke-width:0.5;" width="271.7861" x="1223.11" y="86.2969"/><ellipse cx="1323.6359" cy="102.2969" fill="#ADD1B2" rx="11" ry="11" style="stroke:#181818;stroke-width:1;"/><path d="M1326.6046,107.9375 Q1326.0265,108.2344 1325.3859,108.375 Q1324.7453,108.5313 1324.0421,108.5313 Q1321.5421,108.5313 1320.214,106.8906 Q1318.9015,105.2344 1318.9015,102.1094 Q1318.9015,98.9844 1320.214,97.3281 Q1321.5421,95.6719 1324.0421,95.6719 Q1324.7453,95.6719 1325.3859,95.8281 Q1326.0421,95.9844 1326.6046,96.2813 L1326.6046,99 Q1325.9796,98.4219 1325.3859,98.1563 Q1324.7921,97.875 1324.1671,97.875 Q1322.8234,97.875 1322.1359,98.9531 Q1321.4484,100.0156 1321.4484,102.1094 Q1321.4484,104.2031 1322.1359,105.2813 Q1322.8234,106.3438 1324.1671,106.3438 Q1324.7921,106.3438 1325.3859,106.0781 Q1325.9796,105.7969 1326.6046,105.2188 L1326.6046,107.9375 Z " fill="#000000"/><text fill="#000000" font-family="sans-serif" font-size="14" lengthAdjust="spacing" textLength="62.2344" x="1344.1359" y="107.1436">WithVisit</text><line style="stroke:#181818;stroke-width:0.5;" x1="1224.11" x2="1493.8961" y1="118.2969" y2="118.2969"/><text fill="#000000" font-family="sans-serif" font-size="14" lengthAdjust="spacing" textLength="87.9717" x="1229.11" y="135.292">str beamline</text><text fill="#000000" font-family="sans-serif" font-size="14" lengthAdjust="spacing" textLength="51.8369" x="1229.11" y="151.5889">str visit</text><text fill="#000000" font-family="sans-serif" font-size="14" lengthAdjust="spacing" textLength="259.7861" x="1229.11" y="167.8857">str det_dist_to_beam_converter_path</text><text fill="#000000" font-family="sans-serif" font-size="14" lengthAdjust="spacing" textLength="131.5918" x="1229.11" y="184.1826">str insertion_prefix</text><text fill="#000000" font-family="sans-serif" font-size="14" lengthAdjust="spacing" textLength="245.752" x="1229.11" y="200.4795">float | None detector_distance_mm</text><line style="stroke:#181818;stroke-width:0.5;" x1="1224.11" x2="1493.8961" y1="207.7813" y2="207.7813"/></g><!--class WithSample--><g class="entity" data-entity="WithSample" data-source-line="25" data-uid="ent0007" id="entity_WithSample"><rect fill="#F1F1F1" height="96.8906" rx="2.5" ry="2.5" style="stroke:#181818;stroke-width:0.5;" width="176.3086" x="416.85" y="102.5869"/><ellipse cx="458.7243" cy="118.5869" fill="#ADD1B2" rx="11" ry="11" style="stroke:#181818;stroke-width:1;"/><path d="M461.6931,124.2275 Q461.1149,124.5244 460.4743,124.665 Q459.8337,124.8212 459.1306,124.8212 Q456.6306,124.8212 455.3024,123.1806 Q453.9899,121.5244 453.9899,118.3994 Q453.9899,115.2744 455.3024,113.6181 Q456.6306,111.9619 459.1306,111.9619 Q459.8337,111.9619 460.4743,112.1181 Q461.1306,112.2744 461.6931,112.5712 L461.6931,115.29 Q461.0681,114.7119 460.4743,114.4462 Q459.8806,114.165 459.2556,114.165 Q457.9118,114.165 457.2243,115.2431 Q456.5368,116.3056 456.5368,118.3994 Q456.5368,120.4931 457.2243,121.5712 Q457.9118,122.6337 459.2556,122.6337 Q459.8806,122.6337 460.4743,122.3681 Q461.0681,122.0869 461.6931,121.5087 L461.6931,124.2275 Z " fill="#000000"/><text fill="#000000" font-family="sans-serif" font-size="14" lengthAdjust="spacing" textLength="84.5879" x="478.6964" y="123.4336">WithSample</text><line style="stroke:#181818;stroke-width:0.5;" x1="417.85" x2="592.1586" y1="134.5869" y2="134.5869"/><text fill="#000000" font-family="sans-serif" font-size="14" lengthAdjust="spacing" textLength="93.3789" x="422.85" y="151.582">int sample_id</text><text fill="#000000" font-family="sans-serif" font-size="14" lengthAdjust="spacing" textLength="164.3086" x="422.85" y="167.8789">int | None sample_puck</text><text fill="#000000" font-family="sans-serif" font-size="14" lengthAdjust="spacing" textLength="152.3936" x="422.85" y="184.1757">int | None sample_pin</text><line style="stroke:#181818;stroke-width:0.5;" x1="417.85" x2="592.1586" y1="191.4775" y2="191.4775"/></g><!--class WithOptionalEnergyChange--><g class="entity" data-entity="WithOptionalEnergyChange" data-source-line="30" data-uid="ent0008" id="entity_WithOptionalEnergyChange"><rect fill="#F1F1F1" height="64.2969" rx="2.5" ry="2.5" style="stroke:#181818;stroke-width:0.5;" width="235.4463" x="628.28" y="118.8869"/><ellipse cx="647.4645" cy="134.8869" fill="#ADD1B2" rx="11" ry="11" style="stroke:#181818;stroke-width:1;"/><path d="M650.4332,140.5275 Q649.8551,140.8244 649.2145,140.965 Q648.5738,141.1213 647.8707,141.1213 Q645.3707,141.1213 644.0426,139.4806 Q642.7301,137.8244 642.7301,134.6994 Q642.7301,131.5744 644.0426,129.9181 Q645.3707,128.2619 647.8707,128.2619 Q648.5738,128.2619 649.2145,128.4181 Q649.8707,128.5744 650.4332,128.8713 L650.4332,131.59 Q649.8082,131.0119 649.2145,130.7463 Q648.6207,130.465 647.9957,130.465 Q646.652,130.465 645.9645,131.5431 Q645.277,132.6056 645.277,134.6994 Q645.277,136.7931 645.9645,137.8713 Q646.652,138.9338 647.9957,138.9338 Q648.6207,138.9338 649.2145,138.6681 Q649.8082,138.3869 650.4332,137.8088 L650.4332,140.5275 Z " fill="#000000"/><text fill="#000000" font-family="sans-serif" font-size="14" lengthAdjust="spacing" textLength="194.1475" x="662.3944" y="139.7336">WithOptionalEnergyChange</text><line style="stroke:#181818;stroke-width:0.5;" x1="629.28" x2="862.7263" y1="150.8869" y2="150.8869"/><text fill="#000000" font-family="sans-serif" font-size="14" lengthAdjust="spacing" textLength="223.4463" x="634.28" y="167.882">float | None demand_energy_ev</text><line style="stroke:#181818;stroke-width:0.5;" x1="629.28" x2="862.7263" y1="175.1838" y2="175.1838"/></g><!--class OptionalGonioAngleStarts--><g class="entity" data-entity="OptionalGonioAngleStarts" data-source-line="33" data-uid="ent0009" id="entity_OptionalGonioAngleStarts"><rect fill="#F1F1F1" height="113.1875" rx="2.5" ry="2.5" style="stroke:#181818;stroke-width:0.5;" width="219.3203" x="162.34" y="94.4469"/><ellipse cx="180.0633" cy="110.4469" fill="#ADD1B2" rx="11" ry="11" style="stroke:#181818;stroke-width:1;"/><path d="M183.032,116.0875 Q182.4539,116.3844 181.8133,116.525 Q181.1727,116.6813 180.4695,116.6813 Q177.9695,116.6813 176.6414,115.0406 Q175.3289,113.3844 175.3289,110.2594 Q175.3289,107.1344 176.6414,105.4781 Q177.9695,103.8219 180.4695,103.8219 Q181.1727,103.8219 181.8133,103.9781 Q182.4695,104.1344 183.032,104.4313 L183.032,107.15 Q182.407,106.5719 181.8133,106.3063 Q181.2195,106.025 180.5945,106.025 Q179.2508,106.025 178.5633,107.1031 Q177.8758,108.1656 177.8758,110.2594 Q177.8758,112.3531 178.5633,113.4313 Q179.2508,114.4938 180.5945,114.4938 Q181.2195,114.4938 181.8133,114.2281 Q182.407,113.9469 183.032,113.3688 L183.032,116.0875 Z " fill="#000000"/><text fill="#000000" font-family="sans-serif" font-size="14" lengthAdjust="spacing" textLength="181.2686" x="194.6685" y="115.2936">OptionalGonioAngleStarts</text><line style="stroke:#181818;stroke-width:0.5;" x1="163.34" x2="380.6603" y1="126.4469" y2="126.4469"/><text fill="#000000" font-family="sans-serif" font-size="14" lengthAdjust="spacing" textLength="207.3203" x="168.34" y="143.442">float | None omega_start_deg</text><text fill="#000000" font-family="sans-serif" font-size="14" lengthAdjust="spacing" textLength="180.6875" x="168.34" y="159.7389">float | None phi_start_deg</text><text fill="#000000" font-family="sans-serif" font-size="14" lengthAdjust="spacing" textLength="179.498" x="168.34" y="176.0357">float | None chi_start_deg</text><text fill="#000000" font-family="sans-serif" font-size="14" lengthAdjust="spacing" textLength="202.0771" x="168.34" y="192.3326">float | None kappa_start_deg</text><line style="stroke:#181818;stroke-width:0.5;" x1="163.34" x2="380.6603" y1="199.6344" y2="199.6344"/></g><!--class DiffractionExperimentWithSample--><g class="entity" data-entity="DiffractionExperimentWithSample" data-source-line="41" data-uid="ent0010" id="entity_DiffractionExperimentWithSample"><rect fill="#F1F1F1" height="48" rx="2.5" ry="2.5" style="stroke:#181818;stroke-width:0.5;" width="270.8545" x="2202.57" y="546.7469"/><ellipse cx="2217.57" cy="562.7469" fill="#ADD1B2" rx="11" ry="11" style="stroke:#181818;stroke-width:1;"/><path d="M2220.5388,568.3875 Q2219.9606,568.6844 2219.32,568.825 Q2218.6794,568.9813 2217.9763,568.9813 Q2215.4763,568.9813 2214.1481,567.3406 Q2212.8356,565.6844 2212.8356,562.5594 Q2212.8356,559.4344 2214.1481,557.7781 Q2215.4763,556.1219 2217.9763,556.1219 Q2218.6794,556.1219 2219.32,556.2781 Q2219.9763,556.4344 2220.5388,556.7313 L2220.5388,559.45 Q2219.9138,558.8719 2219.32,558.6063 Q2218.7263,558.325 2218.1013,558.325 Q2216.7575,558.325 2216.07,559.4031 Q2215.3825,560.4656 2215.3825,562.5594 Q2215.3825,564.6531 2216.07,565.7313 Q2216.7575,566.7938 2218.1013,566.7938 Q2218.7263,566.7938 2219.32,566.5281 Q2219.9138,566.2469 2220.5388,565.6688 L2220.5388,568.3875 Z " fill="#000000"/><text fill="#000000" font-family="sans-serif" font-size="14" lengthAdjust="spacing" textLength="238.8545" x="2231.57" y="567.5936">DiffractionExperimentWithSample</text><line style="stroke:#181818;stroke-width:0.5;" x1="2203.57" x2="2472.4245" y1="578.7469" y2="578.7469"/><line style="stroke:#181818;stroke-width:0.5;" x1="2203.57" x2="2472.4245" y1="586.7469" y2="586.7469"/></g><!--class DiffractionExperiment--><g class="entity" data-entity="DiffractionExperiment" data-source-line="43" data-uid="ent0011" id="entity_DiffractionExperiment"><rect fill="#F1F1F1" height="210.9688" rx="2.5" ry="2.5" style="stroke:#181818;stroke-width:0.5;" width="332.332" x="2171.83" y="275.7769"/><ellipse cx="2256.6127" cy="291.7769" fill="#ADD1B2" rx="11" ry="11" style="stroke:#181818;stroke-width:1;"/><path d="M2259.5815,297.4175 Q2259.0033,297.7144 2258.3627,297.855 Q2257.7221,298.0113 2257.019,298.0113 Q2254.519,298.0113 2253.1908,296.3706 Q2251.8783,294.7144 2251.8783,291.5894 Q2251.8783,288.4644 2253.1908,286.8081 Q2254.519,285.1519 2257.019,285.1519 Q2257.7221,285.1519 2258.3627,285.3081 Q2259.019,285.4644 2259.5815,285.7613 L2259.5815,288.48 Q2258.9565,287.9019 2258.3627,287.6363 Q2257.769,287.355 2257.144,287.355 Q2255.8002,287.355 2255.1127,288.4331 Q2254.4252,289.4956 2254.4252,291.5894 Q2254.4252,293.6831 2255.1127,294.7613 Q2255.8002,295.8238 2257.144,295.8238 Q2257.769,295.8238 2258.3627,295.5581 Q2258.9565,295.2769 2259.5815,294.6988 L2259.5815,297.4175 Z " fill="#000000"/><text fill="#000000" font-family="sans-serif" font-size="14" lengthAdjust="spacing" textLength="154.2666" x="2277.1127" y="296.6236">DiffractionExperiment</text><line style="stroke:#181818;stroke-width:0.5;" x1="2172.83" x2="2503.162" y1="307.7769" y2="307.7769"/><text fill="#000000" font-family="sans-serif" font-size="14" lengthAdjust="spacing" textLength="91.0137" x="2177.83" y="324.772">str file_name</text><text fill="#000000" font-family="sans-serif" font-size="14" lengthAdjust="spacing" textLength="153.7129" x="2177.83" y="341.0689">float exposure_time_s</text><text fill="#000000" font-family="sans-serif" font-size="14" lengthAdjust="spacing" textLength="89.5029" x="2177.83" y="357.3657">str comment</text><text fill="#000000" font-family="sans-serif" font-size="14" lengthAdjust="spacing" textLength="186.915" x="2177.83" y="373.6626">TriggerMode trigger_mode</text><text fill="#000000" font-family="sans-serif" font-size="14" lengthAdjust="spacing" textLength="157.9854" x="2177.83" y="389.9595">int | None run_number</text><text fill="#000000" font-family="sans-serif" font-size="14" lengthAdjust="spacing" textLength="282.3516" x="2177.83" y="406.2564">ApertureValue | None selected_aperture</text><text fill="#000000" font-family="sans-serif" font-size="14" lengthAdjust="spacing" textLength="159.2979" x="2177.83" y="422.5532">float transmission_frac</text><text fill="#000000" font-family="sans-serif" font-size="14" lengthAdjust="spacing" textLength="320.332" x="2177.83" y="438.8501">IspybExperimentType ispyb_experiment_type</text><text fill="#000000" font-family="sans-serif" font-size="14" lengthAdjust="spacing" textLength="146.1113" x="2177.83" y="455.147">str storage_directory</text><text fill="#000000" font-family="sans-serif" font-size="14" lengthAdjust="spacing" textLength="131.0518" x="2177.83" y="471.4439">bool use_roi_mode</text><line style="stroke:#181818;stroke-width:0.5;" x1="2172.83" x2="2503.162" y1="478.7456" y2="478.7456"/></g><!--class MxBlueskyParameters--><g class="entity" data-entity="MxBlueskyParameters" data-source-line="55" data-uid="ent0012" id="entity_MxBlueskyParameters"><rect fill="#F1F1F1" height="64.2969" rx="2.5" ry="2.5" style="stroke:#181818;stroke-width:0.5;" width="317.4639" x="2184.27" y="118.8869"/><ellipse cx="2260.8564" cy="134.8869" fill="#ADD1B2" rx="11" ry="11" style="stroke:#181818;stroke-width:1;"/><path d="M2263.8252,140.5275 Q2263.2471,140.8244 2262.6064,140.965 Q2261.9658,141.1213 2261.2627,141.1213 Q2258.7627,141.1213 2257.4346,139.4806 Q2256.1221,137.8244 2256.1221,134.6994 Q2256.1221,131.5744 2257.4346,129.9181 Q2258.7627,128.2619 2261.2627,128.2619 Q2261.9658,128.2619 2262.6064,128.4181 Q2263.2627,128.5744 2263.8252,128.8713 L2263.8252,131.59 Q2263.2002,131.0119 2262.6064,130.7463 Q2262.0127,130.465 2261.3877,130.465 Q2260.0439,130.465 2259.3564,131.5431 Q2258.6689,132.6056 2258.6689,134.6994 Q2258.6689,136.7931 2259.3564,137.8713 Q2260.0439,138.9338 2261.3877,138.9338 Q2262.0127,138.9338 2262.6064,138.6681 Q2263.2002,138.3869 2263.8252,137.8088 L2263.8252,140.5275 Z " fill="#000000"/><text fill="#000000" font-family="sans-serif" font-size="14" lengthAdjust="spacing" textLength="155.791" x="2281.3564" y="139.7336">MxBlueskyParameters</text><line style="stroke:#181818;stroke-width:0.5;" x1="2185.27" x2="2500.7339" y1="150.8869" y2="150.8869"/><text fill="#000000" font-family="sans-serif" font-size="14" lengthAdjust="spacing" textLength="305.4639" x="2190.27" y="167.882">SemanticVersion parameter_model_version</text><line style="stroke:#181818;stroke-width:0.5;" x1="2185.27" x2="2500.7339" y1="175.1838" y2="175.1838"/></g><!--class GridCommon--><g class="entity" data-entity="GridCommon" data-source-line="58" data-uid="ent0013" id="entity_GridCommon"><rect fill="#F1F1F1" height="145.7813" rx="2.5" ry="2.5" style="stroke:#181818;stroke-width:0.5;" width="332.332" x="2171.83" y="654.7469"/><ellipse cx="2287.5282" cy="670.7469" fill="#ADD1B2" rx="11" ry="11" style="stroke:#181818;stroke-width:1;"/><path d="M2290.497,676.3875 Q2289.9189,676.6844 2289.2782,676.825 Q2288.6376,676.9813 2287.9345,676.9813 Q2285.4345,676.9813 2284.1064,675.3406 Q2282.7939,673.6844 2282.7939,670.5594 Q2282.7939,667.4344 2284.1064,665.7781 Q2285.4345,664.1219 2287.9345,664.1219 Q2288.6376,664.1219 2289.2782,664.2781 Q2289.9345,664.4344 2290.497,664.7313 L2290.497,667.45 Q2289.872,666.8719 2289.2782,666.6063 Q2288.6845,666.325 2288.0595,666.325 Q2286.7157,666.325 2286.0282,667.4031 Q2285.3407,668.4656 2285.3407,670.5594 Q2285.3407,672.6531 2286.0282,673.7313 Q2286.7157,674.7938 2288.0595,674.7938 Q2288.6845,674.7938 2289.2782,674.5281 Q2289.872,674.2469 2290.497,673.6688 L2290.497,676.3875 Z " fill="#000000"/><text fill="#000000" font-family="sans-serif" font-size="14" lengthAdjust="spacing" textLength="92.4355" x="2308.0282" y="675.5936">GridCommon</text><line style="stroke:#181818;stroke-width:0.5;" x1="2172.83" x2="2503.162" y1="686.7469" y2="686.7469"/><text fill="#000000" font-family="sans-serif" font-size="14" lengthAdjust="spacing" textLength="125.2959" x="2177.83" y="703.742">float box_size_um</text><text fill="#000000" font-family="sans-serif" font-size="14" lengthAdjust="spacing" textLength="138.4209" x="2177.83" y="720.0389">float grid_width_um</text><text fill="#000000" font-family="sans-serif" font-size="14" lengthAdjust="spacing" textLength="153.7129" x="2177.83" y="736.3357">float exposure_time_s</text><text fill="#000000" font-family="sans-serif" font-size="14" lengthAdjust="spacing" textLength="320.332" x="2177.83" y="752.6326">IspybExperimentType ispyb_experiment_type</text><text fill="#000000" font-family="sans-serif" font-size="14" lengthAdjust="spacing" textLength="282.3516" x="2177.83" y="768.9295">ApertureValue | None selected_aperture</text><text fill="#000000" font-family="sans-serif" font-size="14" lengthAdjust="spacing" textLength="130.498" x="2177.83" y="785.2264">float tip_offset_um</text><line style="stroke:#181818;stroke-width:0.5;" x1="2172.83" x2="2503.162" y1="792.5281" y2="792.5281"/></g><!--class LoadCentreCollect--><g class="entity" data-entity="LoadCentreCollect" data-source-line="69" data-uid="ent0015" id="entity_LoadCentreCollect"><rect fill="#F1F1F1" height="80.5938" rx="2.5" ry="2.5" style="stroke:#181818;stroke-width:0.5;" width="338.6211" x="2539.69" y="891.6769"/><ellipse cx="2640.315" cy="907.6769" fill="#ADD1B2" rx="11" ry="11" style="stroke:#181818;stroke-width:1;"/><path d="M2643.2838,913.3175 Q2642.7056,913.6144 2642.065,913.755 Q2641.4244,913.9113 2640.7213,913.9113 Q2638.2213,913.9113 2636.8931,912.2706 Q2635.5806,910.6144 2635.5806,907.4894 Q2635.5806,904.3644 2636.8931,902.7081 Q2638.2213,901.0519 2640.7213,901.0519 Q2641.4244,901.0519 2642.065,901.2081 Q2642.7213,901.3644 2643.2838,901.6613 L2643.2838,904.38 Q2642.6588,903.8019 2642.065,903.5363 Q2641.4713,903.255 2640.8463,903.255 Q2639.5025,903.255 2638.815,904.3331 Q2638.1275,905.3956 2638.1275,907.4894 Q2638.1275,909.5831 2638.815,910.6613 Q2639.5025,911.7238 2640.8463,911.7238 Q2641.4713,911.7238 2642.065,911.4581 Q2642.6588,911.1769 2643.2838,910.5988 L2643.2838,913.3175 Z " fill="#000000"/><text fill="#000000" font-family="sans-serif" font-size="14" lengthAdjust="spacing" textLength="128.8711" x="2660.815" y="912.5236">LoadCentreCollect</text><line style="stroke:#181818;stroke-width:0.5;" x1="2540.69" x2="2877.3111" y1="923.6769" y2="923.6769"/><text fill="#000000" font-family="sans-serif" font-size="14" lengthAdjust="spacing" textLength="326.6211" x="2545.69" y="940.672">RobotLoadThenCentre robot_load_then_centre</text><text fill="#000000" font-family="sans-serif" font-size="14" lengthAdjust="spacing" textLength="235.0947" x="2545.69" y="956.9689">RotationScan multi_rotation_scan</text><line style="stroke:#181818;stroke-width:0.5;" x1="2540.69" x2="2877.3111" y1="964.2706" y2="964.2706"/></g><!--class GridCommonWithHyperionDetectorParams--><g class="entity" data-entity="GridCommonWithHyperionDetectorParams" data-source-line="73" data-uid="ent0016" id="entity_GridCommonWithHyperionDetectorParams"><rect fill="#F1F1F1" height="48" rx="2.5" ry="2.5" style="stroke:#181818;stroke-width:0.5;" width="333.2188" x="2171.39" y="907.9769"/><ellipse cx="2186.39" cy="923.9769" fill="#ADD1B2" rx="11" ry="11" style="stroke:#181818;stroke-width:1;"/><path d="M2189.3588,929.6175 Q2188.7806,929.9144 2188.14,930.055 Q2187.4994,930.2113 2186.7963,930.2113 Q2184.2963,930.2113 2182.9681,928.5706 Q2181.6556,926.9144 2181.6556,923.7894 Q2181.6556,920.6644 2182.9681,919.0081 Q2184.2963,917.3519 2186.7963,917.3519 Q2187.4994,917.3519 2188.14,917.5081 Q2188.7963,917.6644 2189.3588,917.9613 L2189.3588,920.68 Q2188.7338,920.1019 2188.14,919.8363 Q2187.5463,919.555 2186.9213,919.555 Q2185.5775,919.555 2184.89,920.6331 Q2184.2025,921.6956 2184.2025,923.7894 Q2184.2025,925.8831 2184.89,926.9613 Q2185.5775,928.0238 2186.9213,928.0238 Q2187.5463,928.0238 2188.14,927.7581 Q2188.7338,927.4769 2189.3588,926.8988 L2189.3588,929.6175 Z " fill="#000000"/><text fill="#000000" font-family="sans-serif" font-size="14" lengthAdjust="spacing" textLength="301.2188" x="2200.39" y="928.8236">GridCommonWithHyperionDetectorParams</text><line style="stroke:#181818;stroke-width:0.5;" x1="2172.39" x2="2503.6088" y1="939.9769" y2="939.9769"/><line style="stroke:#181818;stroke-width:0.5;" x1="2172.39" x2="2503.6088" y1="947.9769" y2="947.9769"/></g><!--class GridScanWithEdgeDetect--><g class="entity" data-entity="GridScanWithEdgeDetect" data-source-line="75" data-uid="ent0017" id="entity_GridScanWithEdgeDetect"><rect fill="#F1F1F1" height="48" rx="2.5" ry="2.5" style="stroke:#181818;stroke-width:0.5;" width="209.4268" x="2379.29" y="1048.5669"/><ellipse cx="2394.29" cy="1064.5669" fill="#ADD1B2" rx="11" ry="11" style="stroke:#181818;stroke-width:1;"/><path d="M2397.2588,1070.2075 Q2396.6806,1070.5044 2396.04,1070.645 Q2395.3994,1070.8013 2394.6963,1070.8013 Q2392.1963,1070.8013 2390.8681,1069.1606 Q2389.5556,1067.5044 2389.5556,1064.3794 Q2389.5556,1061.2544 2390.8681,1059.5981 Q2392.1963,1057.9419 2394.6963,1057.9419 Q2395.3994,1057.9419 2396.04,1058.0981 Q2396.6963,1058.2544 2397.2588,1058.5513 L2397.2588,1061.27 Q2396.6338,1060.6919 2396.04,1060.4263 Q2395.4463,1060.145 2394.8213,1060.145 Q2393.4775,1060.145 2392.79,1061.2231 Q2392.1025,1062.2856 2392.1025,1064.3794 Q2392.1025,1066.4731 2392.79,1067.5513 Q2393.4775,1068.6138 2394.8213,1068.6138 Q2395.4463,1068.6138 2396.04,1068.3481 Q2396.6338,1068.0669 2397.2588,1067.4888 L2397.2588,1070.2075 Z " fill="#000000"/><text fill="#000000" font-family="sans-serif" font-size="14" lengthAdjust="spacing" textLength="177.4268" x="2408.29" y="1069.4136">GridScanWithEdgeDetect</text><line style="stroke:#181818;stroke-width:0.5;" x1="2380.29" x2="2587.7168" y1="1080.5669" y2="1080.5669"/><line style="stroke:#181818;stroke-width:0.5;" x1="2380.29" x2="2587.7168" y1="1088.5669" y2="1088.5669"/></g><!--class PinTipCentreThenXrayCentre--><g class="entity" data-entity="PinTipCentreThenXrayCentre" data-source-line="77" data-uid="ent0018" id="entity_PinTipCentreThenXrayCentre"><rect fill="#F1F1F1" height="64.2969" rx="2.5" ry="2.5" style="stroke:#181818;stroke-width:0.5;" width="235.8955" x="2624.05" y="1040.4169"/><ellipse cx="2639.05" cy="1056.4169" fill="#ADD1B2" rx="11" ry="11" style="stroke:#181818;stroke-width:1;"/><path d="M2642.0188,1062.0575 Q2641.4406,1062.3544 2640.8,1062.495 Q2640.1594,1062.6513 2639.4563,1062.6513 Q2636.9563,1062.6513 2635.6281,1061.0106 Q2634.3156,1059.3544 2634.3156,1056.2294 Q2634.3156,1053.1044 2635.6281,1051.4481 Q2636.9563,1049.7919 2639.4563,1049.7919 Q2640.1594,1049.7919 2640.8,1049.9481 Q2641.4563,1050.1044 2642.0188,1050.4013 L2642.0188,1053.12 Q2641.3938,1052.5419 2640.8,1052.2763 Q2640.2063,1051.995 2639.5813,1051.995 Q2638.2375,1051.995 2637.55,1053.0731 Q2636.8625,1054.1356 2636.8625,1056.2294 Q2636.8625,1058.3231 2637.55,1059.4013 Q2638.2375,1060.4638 2639.5813,1060.4638 Q2640.2063,1060.4638 2640.8,1060.1981 Q2641.3938,1059.9169 2642.0188,1059.3388 L2642.0188,1062.0575 Z " fill="#000000"/><text fill="#000000" font-family="sans-serif" font-size="14" lengthAdjust="spacing" textLength="203.8955" x="2653.05" y="1061.2636">PinTipCentreThenXrayCentre</text><line style="stroke:#181818;stroke-width:0.5;" x1="2625.05" x2="2858.9455" y1="1072.4169" y2="1072.4169"/><text fill="#000000" font-family="sans-serif" font-size="14" lengthAdjust="spacing" textLength="130.498" x="2630.05" y="1089.412">float tip_offset_um</text><line style="stroke:#181818;stroke-width:0.5;" x1="2625.05" x2="2858.9455" y1="1096.7138" y2="1096.7138"/></g><!--class RotationExperiment--><g class="entity" data-entity="RotationExperiment" data-source-line="80" data-uid="ent0019" id="entity_RotationExperiment"><rect fill="#F1F1F1" height="96.8906" rx="2.5" ry="2.5" style="stroke:#181818;stroke-width:0.5;" width="332.332" x="1803.83" y="883.5269"/><ellipse cx="1895.7118" cy="899.5269" fill="#ADD1B2" rx="11" ry="11" style="stroke:#181818;stroke-width:1;"/><path d="M1898.6806,905.1675 Q1898.1025,905.4644 1897.4618,905.605 Q1896.8212,905.7613 1896.1181,905.7613 Q1893.6181,905.7613 1892.29,904.1206 Q1890.9775,902.4644 1890.9775,899.3394 Q1890.9775,896.2144 1892.29,894.5581 Q1893.6181,892.9019 1896.1181,892.9019 Q1896.8212,892.9019 1897.4618,893.0581 Q1898.1181,893.2144 1898.6806,893.5113 L1898.6806,896.23 Q1898.0556,895.6519 1897.4618,895.3863 Q1896.8681,895.105 1896.2431,895.105 Q1894.8993,895.105 1894.2118,896.1831 Q1893.5243,897.2456 1893.5243,899.3394 Q1893.5243,901.4331 1894.2118,902.5113 Q1894.8993,903.5738 1896.2431,903.5738 Q1896.8681,903.5738 1897.4618,903.3081 Q1898.0556,903.0269 1898.6806,902.4488 L1898.6806,905.1675 Z " fill="#000000"/><text fill="#000000" font-family="sans-serif" font-size="14" lengthAdjust="spacing" textLength="140.0684" x="1916.2118" y="904.3736">RotationExperiment</text><line style="stroke:#181818;stroke-width:0.5;" x1="1804.83" x2="2135.162" y1="915.5269" y2="915.5269"/><text fill="#000000" font-family="sans-serif" font-size="14" lengthAdjust="spacing" textLength="202.8018" x="1809.83" y="932.522">float shutter_opening_time_s</text><text fill="#000000" font-family="sans-serif" font-size="14" lengthAdjust="spacing" textLength="202.9385" x="1809.83" y="948.8189">float rotation_increment_deg</text><text fill="#000000" font-family="sans-serif" font-size="14" lengthAdjust="spacing" textLength="320.332" x="1809.83" y="965.1157">IspybExperimentType ispyb_experiment_type</text><line style="stroke:#181818;stroke-width:0.5;" x1="1804.83" x2="2135.162" y1="972.4175" y2="972.4175"/></g><!--class RotationScan--><g class="entity" data-entity="RotationScan" data-source-line="85" data-uid="ent0020" id="entity_RotationScan"><rect fill="#F1F1F1" height="64.2969" rx="2.5" ry="2.5" style="stroke:#181818;stroke-width:0.5;" width="540.001" x="1804" y="1040.4169"/><ellipse cx="2023.1431" cy="1056.4169" fill="#ADD1B2" rx="11" ry="11" style="stroke:#181818;stroke-width:1;"/><path d="M2026.1118,1062.0575 Q2025.5337,1062.3544 2024.8931,1062.495 Q2024.2524,1062.6513 2023.5493,1062.6513 Q2021.0493,1062.6513 2019.7212,1061.0106 Q2018.4087,1059.3544 2018.4087,1056.2294 Q2018.4087,1053.1044 2019.7212,1051.4481 Q2021.0493,1049.7919 2023.5493,1049.7919 Q2024.2524,1049.7919 2024.8931,1049.9481 Q2025.5493,1050.1044 2026.1118,1050.4013 L2026.1118,1053.12 Q2025.4868,1052.5419 2024.8931,1052.2763 Q2024.2993,1051.995 2023.6743,1051.995 Q2022.3306,1051.995 2021.6431,1053.0731 Q2020.9556,1054.1356 2020.9556,1056.2294 Q2020.9556,1058.3231 2021.6431,1059.4013 Q2022.3306,1060.4638 2023.6743,1060.4638 Q2024.2993,1060.4638 2024.8931,1060.1981 Q2025.4868,1059.9169 2026.1118,1059.3388 L2026.1118,1062.0575 Z " fill="#000000"/><text fill="#000000" font-family="sans-serif" font-size="14" lengthAdjust="spacing" textLength="93.2148" x="2043.6431" y="1061.2636">RotationScan</text><line style="stroke:#181818;stroke-width:0.5;" x1="1805" x2="2343.001" y1="1072.4169" y2="1072.4169"/><line style="stroke:#181818;stroke-width:0.5;" x1="1805" x2="2343.001" y1="1080.4169" y2="1080.4169"/><text fill="#000000" font-family="sans-serif" font-size="14" lengthAdjust="spacing" textLength="528.001" x="1810" y="1097.412">Annotated[list[RotationScanPerSweep], Len(min_length=1)] rotation_scans</text></g><!--reverse link MxBlueskyParameters to LoadCentreCollect--><g class="link" data-entity-1="MxBlueskyParameters" data-entity-2="LoadCentreCollect" data-source-line="89" data-uid="lnk21" id="link_MxBlueskyParameters_LoadCentreCollect"><path codeLine="89" d="M2519.7628,177.8266 C2635.3528,197.9666 2759.88,228.4769 2796,275.7769 C2946.16,472.4569 2883.6,601.1069 2796,832.5269 C2787.6,854.7169 2771.67,875.1169 2755.71,891.5369" fill="none" id="MxBlueskyParameters-backto-LoadCentreCollect" style="stroke:#181818;stroke-width:1;"/><polygon fill="none" points="2502.03,174.7369,2518.7329,183.7375,2520.7927,171.9156,2502.03,174.7369" style="stroke:#181818;stroke-width:1;"/></g><!--reverse link WithVisit to LoadCentreCollect--><g class="link" data-entity-1="WithVisit" data-entity-2="LoadCentreCollect" data-source-line="90" data-uid="lnk22" id="link_WithVisit_LoadCentreCollect"><path codeLine="90" d="M1503.6735,222.0857 C1512.1335,224.9757 1503.6,221.7069 1512,223.7769 C1635.32,254.2169 2562.48,187.6969 2654,275.7769 C2742.21,360.6769 2721.21,763.2869 2712.09,891.5969" fill="none" id="WithVisit-backto-LoadCentreCollect" style="stroke:#181818;stroke-width:1;"/><polygon fill="none" points="1486.64,216.2669,1501.734,227.7635,1505.6131,216.4078,1486.64,216.2669" style="stroke:#181818;stroke-width:1;"/></g><!--reverse link WithSample to LoadCentreCollect--><g class="link" data-entity-1="WithSample" data-entity-2="LoadCentreCollect" data-source-line="91" data-uid="lnk23" id="link_WithSample_LoadCentreCollect"><path codeLine="91" d="M578.3197,209.8362 C593.0597,219.4862 594.39,218.4369 611,223.7769 C712,256.2569 2436.09,210.8469 2520,275.7769 C2620.53,353.5769 2685.4,761.9069 2703.69,891.4869" fill="none" id="WithSample-backto-LoadCentreCollect" style="stroke:#181818;stroke-width:1;"/><polygon fill="none" points="563.26,199.9769,575.0333,214.8561,581.6061,204.8163,563.26,199.9769" style="stroke:#181818;stroke-width:1;"/></g><!--reverse link WithCentreSelection to LoadCentreCollect--><g class="link" data-entity-1="WithCentreSelection" data-entity-2="LoadCentreCollect" data-source-line="92" data-uid="lnk24" id="link_WithCentreSelection_LoadCentreCollect"><path codeLine="92" d="M1978.8383,187.8968 C2037.3883,202.0168 2091.21,213.5369 2156,223.7769 C2218.71,233.6969 2682.2,228.8869 2725,275.7769 C2807.17,365.8069 2740.6,764.0569 2716.69,891.5669" fill="none" id="WithCentreSelection-backto-LoadCentreCollect" style="stroke:#181818;stroke-width:1;"/><polygon fill="none" points="1961.34,183.6769,1977.4317,193.7296,1980.245,182.064,1961.34,183.6769" style="stroke:#181818;stroke-width:1;"/></g><!--reverse link GridCommon to GridCommonWithHyperionDetectorParams--><g class="link" data-entity-1="GridCommon" data-entity-2="GridCommonWithHyperionDetectorParams" data-source-line="93" data-uid="lnk25" id="link_GridCommon_GridCommonWithHyperionDetectorParams"><path codeLine="93" d="M2338,818.8269 C2338,856.2869 2338,881.5169 2338,907.5269" fill="none" id="GridCommon-backto-GridCommonWithHyperionDetectorParams" style="stroke:#181818;stroke-width:1;"/><polygon fill="none" points="2338,800.8269,2332,818.8269,2344,818.8269,2338,800.8269" style="stroke:#181818;stroke-width:1;"/></g><!--reverse link GridCommonWithHyperionDetectorParams to GridScanWithEdgeDetect--><g class="link" data-entity-1="GridCommonWithHyperionDetectorParams" data-entity-2="GridScanWithEdgeDetect" data-source-line="94" data-uid="lnk26" id="link_GridCommonWithHyperionDetectorParams_GridScanWithEdgeDetect"><path codeLine="94" d="M2375.4954,968.5686 C2402.4454,994.1486 2432.5,1022.6769 2459.48,1048.2969" fill="none" id="GridCommonWithHyperionDetectorParams-backto-GridScanWithEdgeDetect" style="stroke:#181818;stroke-width:1;"/><polygon fill="none" points="2362.44,956.1769,2371.3648,972.9204,2379.626,964.2168,2362.44,956.1769" style="stroke:#181818;stroke-width:1;"/></g><!--reverse link GridCommonWithHyperionDetectorParams to PinTipCentreThenXrayCentre--><g class="link" data-entity-1="GridCommonWithHyperionDetectorParams" data-entity-2="PinTipCentreThenXrayCentre" data-source-line="95" data-uid="lnk27" id="link_GridCommonWithHyperionDetectorParams_PinTipCentreThenXrayCentre"><path codeLine="95" d="M2423.106,962.1676 C2490.006,985.1176 2575.55,1014.4669 2649.75,1039.9169" fill="none" id="GridCommonWithHyperionDetectorParams-backto-PinTipCentreThenXrayCentre" style="stroke:#181818;stroke-width:1;"/><polygon fill="none" points="2406.08,956.3269,2421.1591,967.843,2425.0529,956.4923,2406.08,956.3269" style="stroke:#181818;stroke-width:1;"/></g><!--reverse link DiffractionExperiment to DiffractionExperimentWithSample--><g class="link" data-entity-1="DiffractionExperiment" data-entity-2="DiffractionExperimentWithSample" data-source-line="96" data-uid="lnk28" id="link_DiffractionExperiment_DiffractionExperimentWithSample"><path codeLine="96" d="M2338,505.2469 C2338,527.4969 2338,530.8969 2338,546.3269" fill="none" id="DiffractionExperiment-backto-DiffractionExperimentWithSample" style="stroke:#181818;stroke-width:1;"/><polygon fill="none" points="2338,487.2469,2332,505.2469,2344,505.2469,2338,487.2469" style="stroke:#181818;stroke-width:1;"/></g><!--reverse link WithSample to DiffractionExperimentWithSample--><g class="link" data-entity-1="WithSample" data-entity-2="DiffractionExperimentWithSample" data-source-line="97" data-uid="lnk29" id="link_WithSample_DiffractionExperimentWithSample"><path codeLine="97" d="M579.7522,209.7317 C594.1822,219.1317 595,218.0269 611,223.7769 C839.56,305.9569 915.6,234.8269 1155,275.7769 C1577.93,348.1269 2072.98,490.2669 2260.64,546.2769" fill="none" id="WithSample-backto-DiffractionExperimentWithSample" style="stroke:#181818;stroke-width:1;"/><polygon fill="none" points="564.67,199.9069,576.4772,214.7591,583.0271,204.7043,564.67,199.9069" style="stroke:#181818;stroke-width:1;"/></g><!--reverse link DiffractionExperiment to RotationExperiment--><g class="link" data-entity-1="DiffractionExperiment" data-entity-2="RotationExperiment" data-source-line="98" data-uid="lnk30" id="link_DiffractionExperiment_RotationExperiment"><path codeLine="98" d="M2460.3033,500.8962 C2476.0733,519.6262 2479.3,526.0369 2491,546.7469 C2553.86,657.9769 2611.35,741.2169 2522,832.5269 C2507.7,847.1469 2173.87,835.6869 2154,840.5269 C2117.52,849.4269 2079.85,866.3569 2048.18,883.1769" fill="none" id="DiffractionExperiment-backto-RotationExperiment" style="stroke:#181818;stroke-width:1;"/><polygon fill="none" points="2448.71,487.1269,2455.7135,504.7607,2464.8931,497.0318,2448.71,487.1269" style="stroke:#181818;stroke-width:1;"/></g><!--reverse link DiffractionExperimentWithSample to GridCommon--><g class="link" data-entity-1="DiffractionExperimentWithSample" data-entity-2="GridCommon" data-source-line="99" data-uid="lnk31" id="link_DiffractionExperimentWithSample_GridCommon"><path codeLine="99" d="M2338,612.9369 C2338,628.8869 2338,633.0069 2338,654.5669" fill="none" id="DiffractionExperimentWithSample-backto-GridCommon" style="stroke:#181818;stroke-width:1;"/><polygon fill="none" points="2338,594.9369,2332,612.9369,2344,612.9369,2338,594.9369" style="stroke:#181818;stroke-width:1;"/></g><!--reverse link OptionalGonioAngleStarts to GridCommon--><g class="link" data-entity-1="OptionalGonioAngleStarts" data-entity-2="GridCommon" data-source-line="100" data-uid="lnk32" id="link_OptionalGonioAngleStarts_GridCommon"><path codeLine="100" d="M376.2004,215.9038 C388.9004,222.1138 385.94,219.7369 399,223.7769 C527.06,263.4269 883.53,209.4069 1000,275.7769 C1100.18,332.8669 1054.2,424.0869 1151,486.7469 C1317.89,594.7869 1886.04,674.1169 2171.48,708.1969" fill="none" id="OptionalGonioAngleStarts-backto-GridCommon" style="stroke:#181818;stroke-width:1;"/><polygon fill="none" points="360.03,207.9969,373.5647,221.2939,378.836,210.5137,360.03,207.9969" style="stroke:#181818;stroke-width:1;"/></g><!--reverse link RotationExperiment to RotationScan--><g class="link" data-entity-1="RotationExperiment" data-entity-2="RotationScan" data-source-line="101" data-uid="lnk33" id="link_RotationExperiment_RotationScan"><path codeLine="101" d="M2016.5923,995.0651 C2031.4023,1014.8051 2037.35,1022.7269 2050.55,1040.3169" fill="none" id="RotationExperiment-backto-RotationScan" style="stroke:#181818;stroke-width:1;"/><polygon fill="none" points="2005.79,980.6669,2011.7929,998.6659,2021.3918,991.4643,2005.79,980.6669" style="stroke:#181818;stroke-width:1;"/></g><!--reverse link SplitScan to RotationScan--><g class="link" data-entity-1="SplitScan" data-entity-2="RotationScan" data-source-line="102" data-uid="lnk34" id="link_SplitScan_RotationScan"><path codeLine="102" d="M107.4264,189.5929 C119.6464,204.9529 126.01,210.4769 145,223.7769 C471.96,452.8869 974,170.5069 974,569.7469 C974,569.7469 974,569.7469 974,728.6369 C974,901.9169 1477.8,997.7269 1803.5,1041.5569" fill="none" id="SplitScan-backto-RotationScan" style="stroke:#181818;stroke-width:1;"/><polygon fill="none" points="96.22,175.5069,102.7311,193.3284,112.1218,185.8574,96.22,175.5069" style="stroke:#181818;stroke-width:1;"/></g><!--reverse link MxBlueskyParameters to DiffractionExperiment--><g class="link" data-entity-1="MxBlueskyParameters" data-entity-2="DiffractionExperiment" data-source-line="103" data-uid="lnk35" id="link_MxBlueskyParameters_DiffractionExperiment"><path codeLine="103" d="M2341.9223,201.2925 C2341.3923,225.2725 2341.03,241.8669 2340.3,275.3869" fill="none" id="MxBlueskyParameters-backto-DiffractionExperiment" style="stroke:#181818;stroke-width:1;"/><polygon fill="none" points="2342.32,183.2969,2335.9237,201.1599,2347.9208,201.4251,2342.32,183.2969" style="stroke:#181818;stroke-width:1;"/></g><!--reverse link WithSnapshot to DiffractionExperiment--><g class="link" data-entity-1="WithSnapshot" data-entity-2="DiffractionExperiment" data-source-line="104" data-uid="lnk36" id="link_WithSnapshot_DiffractionExperiment"><path codeLine="104" d="M1156.2065,206.8461 C1177.6465,215.9561 1183.99,217.5469 1206,223.7769 C1540.77,318.5969 1948.12,356.9369 2171.5,371.6869" fill="none" id="WithSnapshot-backto-DiffractionExperiment" style="stroke:#181818;stroke-width:1;"/><polygon fill="none" points="1139.64,199.8069,1153.8601,212.3683,1158.5529,201.3239,1139.64,199.8069" style="stroke:#181818;stroke-width:1;"/></g><!--reverse link WithOptionalEnergyChange to DiffractionExperiment--><g class="link" data-entity-1="WithOptionalEnergyChange" data-entity-2="DiffractionExperiment" data-source-line="105" data-uid="lnk37" id="link_WithOptionalEnergyChange_DiffractionExperiment"><path codeLine="105" d="M809.8531,192.6831 C834.7531,207.3731 850.68,214.4769 881,223.7769 C941.99,242.4969 1802.24,327.9869 2171.54,364.0969" fill="none" id="WithOptionalEnergyChange-backto-DiffractionExperiment" style="stroke:#181818;stroke-width:1;"/><polygon fill="none" points="794.35,183.5369,806.8044,197.8508,812.9019,187.5154,794.35,183.5369" style="stroke:#181818;stroke-width:1;"/></g><!--reverse link WithVisit to DiffractionExperiment--><g class="link" data-entity-1="WithVisit" data-entity-2="DiffractionExperiment" data-source-line="106" data-uid="lnk38" id="link_WithVisit_DiffractionExperiment"><path codeLine="106" d="M1507.2766,222.5531 C1514.4966,225.2831 1504.88,221.4769 1512,223.7769 C1734.71,295.8169 2002.55,339.0169 2171.57,361.2269" fill="none" id="WithVisit-backto-DiffractionExperiment" style="stroke:#181818;stroke-width:1;"/><polygon fill="none" points="1490.44,216.1869,1505.1545,228.1653,1509.3987,216.9409,1490.44,216.1869" style="stroke:#181818;stroke-width:1;"/></g><!--SRC=[bLPHRzis47usVmNVrW5BWBst3wcRTGEQDfYDR40H4BHqbeXG946UKdjk_lkEf2LRjcmdq8F4kuztnxllZlfbNgl0bqe3fxTiqLvLOC1BX98lrhnR2AUbmRRHrsxD62ga3N-k7NXb3R-NNZQ0uFcTBK6p0CWDIOAJ1Sp0aHgjvyOQO8naJx82tgp4GhSGdjRNXMqQQwvTPoRm3KDR0TPaSiCABKFWCwSLpWffDknbA_f7OJqpqeNQuePDxYNMF6pNebGU2dAxPXEj0dvVQYlnaV_aNocC7SmsKCaWIgZOP66jvcq0KNbLYWuI1lwcOD3JeJGPfxEJsxbrNp-kx-HgQbk3lOOy3JL_M7yhYtec6wTt1dX8Nw98TeU-7bHGyM01FL-0RBIY1ARLSzJapnBYMGCAj2A2H67DCtXAet2Ka0nI9f28t0ddOQbMR9BIqMM3RAHS9KFI522QPfZb53I5eWpoa1P2bNdPPJHBNLiyZSgL6LZyvc8uKjyIlwhrj9QcYlOFmcgaAGKaY83dta2t-RCrojwOYlA9qcCuD92AAqBKvGeFjAvM9tN56TsJT6xVwWizHtJzf9PBBrE9RrUnJnegy7ugNyu1jqMFVIbY9tKHmChPq7eGI30HCYgs3-qX9dfLLU1Z4tBCtwAXnQ0UlZN2jCq2F9lSa3yaSm-IEh4lM28ab49kjPrpzDA4HeKGUHHZPfE_WbilTc7FQIBG726PW5ueaAGvqa0SezxVxys-vxnLETWkCNUhZta-zECbrdSMEO6gUA1bR9z-QAJDMZndUM_bCxNoDCsNdXmBkn91_GUYRJfHQlWVgiHwJtYKx3USzesPLKxOvPBcPdJ_afwHELbl1-vmKkPpVh6opBDfQdLqGyVzsouiHiMy1fELt4UP8A-b8BwQxTo9M9IHWt72ygRLgAWYMIG2oKOI6jdStG6VjXCarIfi1kXeCc9lomeoRgU_LsQkN8ujHlclb-kysfnAJjxOnJlecRmXr2r6GbW7HfcgBr_MzgTIfl2GIfPQ_FN5FGmXNqgJ6sEY0ChlwRxPrzw3d_q0S8-_yIzWtZNA20scmlh3xxy-ya6UGoh-2FVv-vzNLyTbPlr5SGwGXyuvnC6zTWgwgtv6l8ODx3MWdRbZkhp1m6a-iT51ctTT6DP7ARo4F-FgcBViWhN3HBDJjzyHyDZNC8QOQTR_LuteJj9mD6Is_pzs2JTs_r_QiqVpKT3_]--></g></svg>