<svg xmlns="http://www.w3.org/2000/svg" xmlns:xlink="http://www.w3.org/1999/xlink" contentStyleType="text/css" data-diagram-type="CLASS" height="1127px" preserveAspectRatio="none" style="width:2536px;height:1127px;background:#FFFFFF;" version="1.1" viewBox="0 0 2536 1127" width="2536px" zoomAndPan="magnify"><title>Hyperion Parameter Model</title><defs/><g><g class="title" data-source-line="3"><text fill="#000000" font-family="sans-serif" font-size="14" font-weight="bold" lengthAdjust="spacing" textLength="212.4951" x="1154.7524" y="22.9951">Hyperion Parameter Model</text></g><!--cluster mx_bluesky.common.parameters--><g class="cluster" data-entity="mx_bluesky.common.parameters" data-source-line="6" data-uid="ent0002" id="cluster_mx_bluesky.common.parameters"><path d="M8.5,43.2969 L269.8125,43.2969 A3.75,3.75 0 0 1 272.3125,45.7969 L279.3125,65.5938 L2526.5,65.5938 A2.5,2.5 0 0 1 2529,68.0938 L2529,822.0269 A2.5,2.5 0 0 1 2526.5,824.5269 L8.5,824.5269 A2.5,2.5 0 0 1 6,822.0269 L6,45.7969 A2.5,2.5 0 0 1 8.5,43.2969" fill="none" style="stroke:#000000;stroke-width:1.5;"/><line style="stroke:#000000;stroke-width:1.5;" x1="6" x2="279.3125" y1="65.5938" y2="65.5938"/><text fill="#000000" font-family="sans-serif" font-size="14" font-weight="bold" lengthAdjust="spacing" textLength="260.3125" x="10" y="58.292">mx_bluesky.common.parameters</text></g><!--cluster mx_bluesky.hyperion.parameters--><g class="cluster" data-entity="mx_bluesky.hyperion.parameters" data-source-line="68" data-uid="ent0014" id="cluster_mx_bluesky.hyperion.parameters"><path d="M150.5,848.5269 L415.0322,848.5269 A3.75,3.75 0 0 1 417.5322,851.0269 L424.5322,870.8238 L1251.5,870.8238 A2.5,2.5 0 0 1 1254,873.3238 L1254,1118.2169 A2.5,2.5 0 0 1 1251.5,1120.7169 L150.5,1120.7169 A2.5,2.5 0 0 1 148,1118.2169 L148,851.0269 A2.5,2.5 0 0 1 150.5,848.5269" fill="none" style="stroke:#000000;stroke-width:1.5;"/><line style="stroke:#000000;stroke-width:1.5;" x1="148" x2="424.5322" y1="870.8238" y2="870.8238"/><text fill="#000000" font-family="sans-serif" font-size="14" font-weight="bold" lengthAdjust="spacing" textLength="263.5322" x="152" y="863.522">mx_bluesky.hyperion.parameters</text></g><!--class WithCentreSelection--><g class="entity" data-entity="WithCentreSelection" data-source-line="8" data-uid="ent0003" id="entity_WithCentreSelection"><rect fill="#F1F1F1" height="64.2969" rx="2.5" ry="2.5" style="stroke:#181818;stroke-width:0.5;" width="618.6689" x="1753.67" y="118.8869"/><ellipse cx="1986.8883" cy="134.8869" fill="#ADD1B2" rx="11" ry="11" style="stroke:#181818;stroke-width:1;"/><path d="M1989.857,140.5275 Q1989.2789,140.8244 1988.6383,140.965 Q1987.9976,141.1213 1987.2945,141.1213 Q1984.7945,141.1213 1983.4664,139.4806 Q1982.1539,137.8244 1982.1539,134.6994 Q1982.1539,131.5744 1983.4664,129.9181 Q1984.7945,128.2619 1987.2945,128.2619 Q1987.9976,128.2619 1988.6383,128.4181 Q1989.2945,128.5744 1989.857,128.8713 L1989.857,131.59 Q1989.232,131.0119 1988.6383,130.7463 Q1988.0445,130.465 1987.4195,130.465 Q1986.0758,130.465 1985.3883,131.5431 Q1984.7008,132.6056 1984.7008,134.6994 Q1984.7008,136.7931 1985.3883,137.8713 Q1986.0758,138.9338 1987.4195,138.9338 Q1988.0445,138.9338 1988.6383,138.6681 Q1989.232,138.3869 1989.857,137.8088 L1989.857,140.5275 Z " fill="#000000"/><text fill="#000000" font-family="sans-serif" font-size="14" lengthAdjust="spacing" textLength="143.7324" x="2007.3883" y="139.7336">WithCentreSelection</text><line style="stroke:#181818;stroke-width:0.5;" x1="1754.67" x2="2371.3389" y1="150.8869" y2="150.8869"/><text fill="#000000" font-family="sans-serif" font-size="14" lengthAdjust="spacing" textLength="606.6689" x="1759.67" y="167.882">TopNByMaxCountSelection | TopNByMaxCountForEachSampleSelection select_centres</text><line style="stroke:#181818;stroke-width:0.5;" x1="1754.67" x2="2371.3389" y1="175.1838" y2="175.1838"/></g><!--class WithSnapshot--><g class="entity" data-entity="WithSnapshot" data-source-line="11" data-uid="ent0004" id="entity_WithSnapshot"><rect fill="#F1F1F1" height="96.8906" rx="2.5" ry="2.5" style="stroke:#181818;stroke-width:0.5;" width="289.3477" x="386.33" y="102.5869"/><ellipse cx="477.9828" cy="118.5869" fill="#ADD1B2" rx="11" ry="11" style="stroke:#181818;stroke-width:1;"/><path d="M480.9516,124.2275 Q480.3735,124.5244 479.7328,124.665 Q479.0922,124.8212 478.3891,124.8212 Q475.8891,124.8212 474.561,123.1806 Q473.2485,121.5244 473.2485,118.3994 Q473.2485,115.2744 474.561,113.6181 Q475.8891,111.9619 478.3891,111.9619 Q479.0922,111.9619 479.7328,112.1181 Q480.3891,112.2744 480.9516,112.5712 L480.9516,115.29 Q480.3266,114.7119 479.7328,114.4462 Q479.1391,114.165 478.5141,114.165 Q477.1703,114.165 476.4828,115.2431 Q475.7953,116.3056 475.7953,118.3994 Q475.7953,120.4931 476.4828,121.5712 Q477.1703,122.6337 478.5141,122.6337 Q479.1391,122.6337 479.7328,122.3681 Q480.3266,122.0869 480.9516,121.5087 L480.9516,124.2275 Z " fill="#000000"/><text fill="#000000" font-family="sans-serif" font-size="14" lengthAdjust="spacing" textLength="97.542" x="498.4828" y="123.4336">WithSnapshot</text><line style="stroke:#181818;stroke-width:0.5;" x1="387.33" x2="674.6777" y1="134.5869" y2="134.5869"/><text fill="#000000" font-family="sans-serif" font-size="14" lengthAdjust="spacing" textLength="169.627" x="392.33" y="151.582">Path snapshot_directory</text><text fill="#000000" font-family="sans-serif" font-size="14" lengthAdjust="spacing" textLength="277.3477" x="392.33" y="167.8789">list[float] | None snapshot_omegas_deg</text><text fill="#000000" font-family="sans-serif" font-size="14" lengthAdjust="spacing" textLength="171.7051" x="392.33" y="184.1757">bool use_grid_snapshots</text><line style="stroke:#181818;stroke-width:0.5;" x1="387.33" x2="674.6777" y1="191.4775" y2="191.4775"/></g><!--class WithOptionalEnergyChange--><g class="entity" data-entity="WithOptionalEnergyChange" data-source-line="16" data-uid="ent0005" id="entity_WithOptionalEnergyChange"><rect fill="#F1F1F1" height="64.2969" rx="2.5" ry="2.5" style="stroke:#181818;stroke-width:0.5;" width="235.4463" x="710.28" y="118.8869"/><ellipse cx="729.4645" cy="134.8869" fill="#ADD1B2" rx="11" ry="11" style="stroke:#181818;stroke-width:1;"/><path d="M732.4332,140.5275 Q731.8551,140.8244 731.2145,140.965 Q730.5738,141.1213 729.8707,141.1213 Q727.3707,141.1213 726.0426,139.4806 Q724.7301,137.8244 724.7301,134.6994 Q724.7301,131.5744 726.0426,129.9181 Q727.3707,128.2619 729.8707,128.2619 Q730.5738,128.2619 731.2145,128.4181 Q731.8707,128.5744 732.4332,128.8713 L732.4332,131.59 Q731.8082,131.0119 731.2145,130.7463 Q730.6207,130.465 729.9957,130.465 Q728.652,130.465 727.9645,131.5431 Q727.277,132.6056 727.277,134.6994 Q727.277,136.7931 727.9645,137.8713 Q728.652,138.9338 729.9957,138.9338 Q730.6207,138.9338 731.2145,138.6681 Q731.8082,138.3869 732.4332,137.8088 L732.4332,140.5275 Z " fill="#000000"/><text fill="#000000" font-family="sans-serif" font-size="14" lengthAdjust="spacing" textLength="194.1475" x="744.3944" y="139.7336">WithOptionalEnergyChange</text><line style="stroke:#181818;stroke-width:0.5;" x1="711.28" x2="944.7263" y1="150.8869" y2="150.8869"/><text fill="#000000" font-family="sans-serif" font-size="14" lengthAdjust="spacing" textLength="223.4463" x="716.28" y="167.882">float | None demand_energy_ev</text><line style="stroke:#181818;stroke-width:0.5;" x1="711.28" x2="944.7263" y1="175.1838" y2="175.1838"/></g><!--class WithSample--><g class="entity" data-entity="WithSample" data-source-line="19" data-uid="ent0006" id="entity_WithSample"><rect fill="#F1F1F1" height="96.8906" rx="2.5" ry="2.5" style="stroke:#181818;stroke-width:0.5;" width="176.3086" x="980.85" y="102.5869"/><ellipse cx="1022.7243" cy="118.5869" fill="#ADD1B2" rx="11" ry="11" style="stroke:#181818;stroke-width:1;"/><path d="M1025.6931,124.2275 Q1025.1149,124.5244 1024.4743,124.665 Q1023.8337,124.8212 1023.1306,124.8212 Q1020.6306,124.8212 1019.3024,123.1806 Q1017.9899,121.5244 1017.9899,118.3994 Q1017.9899,115.2744 1019.3024,113.6181 Q1020.6306,111.9619 1023.1306,111.9619 Q1023.8337,111.9619 1024.4743,112.1181 Q1025.1306,112.2744 1025.6931,112.5712 L1025.6931,115.29 Q1025.0681,114.7119 1024.4743,114.4462 Q1023.8806,114.165 1023.2556,114.165 Q1021.9118,114.165 1021.2243,115.2431 Q1020.5368,116.3056 1020.5368,118.3994 Q1020.5368,120.4931 1021.2243,121.5712 Q1021.9118,122.6337 1023.2556,122.6337 Q1023.8806,122.6337 1024.4743,122.3681 Q1025.0681,122.0869 1025.6931,121.5087 L1025.6931,124.2275 Z " fill="#000000"/><text fill="#000000" font-family="sans-serif" font-size="14" lengthAdjust="spacing" textLength="84.5879" x="1042.6964" y="123.4336">WithSample</text><line style="stroke:#181818;stroke-width:0.5;" x1="981.85" x2="1156.1586" y1="134.5869" y2="134.5869"/><text fill="#000000" font-family="sans-serif" font-size="14" lengthAdjust="spacing" textLength="93.3789" x="986.85" y="151.582">int sample_id</text><text fill="#000000" font-family="sans-serif" font-size="14" lengthAdjust="spacing" textLength="164.3086" x="986.85" y="167.8789">int | None sample_puck</text><text fill="#000000" font-family="sans-serif" font-size="14" lengthAdjust="spacing" textLength="152.3936" x="986.85" y="184.1757">int | None sample_pin</text><line style="stroke:#181818;stroke-width:0.5;" x1="981.85" x2="1156.1586" y1="191.4775" y2="191.4775"/></g><!--class WithVisit--><g class="entity" data-entity="WithVisit" data-source-line="24" data-uid="ent0007" id="entity_WithVisit"><rect fill="#F1F1F1" height="129.4844" rx="2.5" ry="2.5" style="stroke:#181818;stroke-width:0.5;" width="271.7861" x="1192.11" y="86.2969"/><ellipse cx="1292.6359" cy="102.2969" fill="#ADD1B2" rx="11" ry="11" style="stroke:#181818;stroke-width:1;"/><path d="M1295.6046,107.9375 Q1295.0265,108.2344 1294.3859,108.375 Q1293.7453,108.5313 1293.0421,108.5313 Q1290.5421,108.5313 1289.214,106.8906 Q1287.9015,105.2344 1287.9015,102.1094 Q1287.9015,98.9844 1289.214,97.3281 Q1290.5421,95.6719 1293.0421,95.6719 Q1293.7453,95.6719 1294.3859,95.8281 Q1295.0421,95.9844 1295.6046,96.2813 L1295.6046,99 Q1294.9796,98.4219 1294.3859,98.1563 Q1293.7921,97.875 1293.1671,97.875 Q1291.8234,97.875 1291.1359,98.9531 Q1290.4484,100.0156 1290.4484,102.1094 Q1290.4484,104.2031 1291.1359,105.2813 Q1291.8234,106.3438 1293.1671,106.3438 Q1293.7921,106.3438 1294.3859,106.0781 Q1294.9796,105.7969 1295.6046,105.2188 L1295.6046,107.9375 Z " fill="#000000"/><text fill="#000000" font-family="sans-serif" font-size="14" lengthAdjust="spacing" textLength="62.2344" x="1313.1359" y="107.1436">WithVisit</text><line style="stroke:#181818;stroke-width:0.5;" x1="1193.11" x2="1462.8961" y1="118.2969" y2="118.2969"/><text fill="#000000" font-family="sans-serif" font-size="14" lengthAdjust="spacing" textLength="87.9717" x="1198.11" y="135.292">str beamline</text><text fill="#000000" font-family="sans-serif" font-size="14" lengthAdjust="spacing" textLength="51.8369" x="1198.11" y="151.5889">str visit</text><text fill="#000000" font-family="sans-serif" font-size="14" lengthAdjust="spacing" textLength="259.7861" x="1198.11" y="167.8857">str det_dist_to_beam_converter_path</text><text fill="#000000" font-family="sans-serif" font-size="14" lengthAdjust="spacing" textLength="131.5918" x="1198.11" y="184.1826">str insertion_prefix</text><text fill="#000000" font-family="sans-serif" font-size="14" lengthAdjust="spacing" textLength="245.752" x="1198.11" y="200.4795">float | None detector_distance_mm</text><line style="stroke:#181818;stroke-width:0.5;" x1="1193.11" x2="1462.8961" y1="207.7813" y2="207.7813"/></g><!--class SplitScan--><g class="entity" data-entity="SplitScan" data-source-line="31" data-uid="ent0008" id="entity_SplitScan"><rect fill="#F1F1F1" height="48" rx="2.5" ry="2.5" style="stroke:#181818;stroke-width:0.5;" width="97.0781" x="2407.46" y="127.0369"/><ellipse cx="2422.46" cy="143.0369" fill="#ADD1B2" rx="11" ry="11" style="stroke:#181818;stroke-width:1;"/><path d="M2425.4288,148.6775 Q2424.8506,148.9744 2424.21,149.115 Q2423.5694,149.2713 2422.8663,149.2713 Q2420.3663,149.2713 2419.0381,147.6306 Q2417.7256,145.9744 2417.7256,142.8494 Q2417.7256,139.7244 2419.0381,138.0681 Q2420.3663,136.4119 2422.8663,136.4119 Q2423.5694,136.4119 2424.21,136.5681 Q2424.8663,136.7244 2425.4288,137.0213 L2425.4288,139.74 Q2424.8038,139.1619 2424.21,138.8963 Q2423.6163,138.615 2422.9913,138.615 Q2421.6475,138.615 2420.96,139.6931 Q2420.2725,140.7556 2420.2725,142.8494 Q2420.2725,144.9431 2420.96,146.0213 Q2421.6475,147.0838 2422.9913,147.0838 Q2423.6163,147.0838 2424.21,146.8181 Q2424.8038,146.5369 2425.4288,145.9588 L2425.4288,148.6775 Z " fill="#000000"/><text fill="#000000" font-family="sans-serif" font-size="14" lengthAdjust="spacing" textLength="65.0781" x="2436.46" y="147.8836">SplitScan</text><line style="stroke:#181818;stroke-width:0.5;" x1="2408.46" x2="2503.5381" y1="159.0369" y2="159.0369"/><line style="stroke:#181818;stroke-width:0.5;" x1="2408.46" x2="2503.5381" y1="167.0369" y2="167.0369"/></g><!--class OptionalGonioAngleStarts--><g class="entity" data-entity="OptionalGonioAngleStarts" data-source-line="33" data-uid="ent0009" id="entity_OptionalGonioAngleStarts"><rect fill="#F1F1F1" height="113.1875" rx="2.5" ry="2.5" style="stroke:#181818;stroke-width:0.5;" width="219.3203" x="1499.34" y="94.4469"/><ellipse cx="1517.0633" cy="110.4469" fill="#ADD1B2" rx="11" ry="11" style="stroke:#181818;stroke-width:1;"/><path d="M1520.032,116.0875 Q1519.4539,116.3844 1518.8133,116.525 Q1518.1727,116.6813 1517.4695,116.6813 Q1514.9695,116.6813 1513.6414,115.0406 Q1512.3289,113.3844 1512.3289,110.2594 Q1512.3289,107.1344 1513.6414,105.4781 Q1514.9695,103.8219 1517.4695,103.8219 Q1518.1727,103.8219 1518.8133,103.9781 Q1519.4695,104.1344 1520.032,104.4313 L1520.032,107.15 Q1519.407,106.5719 1518.8133,106.3063 Q1518.2195,106.025 1517.5945,106.025 Q1516.2508,106.025 1515.5633,107.1031 Q1514.8758,108.1656 1514.8758,110.2594 Q1514.8758,112.3531 1515.5633,113.4313 Q1516.2508,114.4938 1517.5945,114.4938 Q1518.2195,114.4938 1518.8133,114.2281 Q1519.407,113.9469 1520.032,113.3688 L1520.032,116.0875 Z " fill="#000000"/><text fill="#000000" font-family="sans-serif" font-size="14" lengthAdjust="spacing" textLength="181.2686" x="1531.6685" y="115.2936">OptionalGonioAngleStarts</text><line style="stroke:#181818;stroke-width:0.5;" x1="1500.34" x2="1717.6603" y1="126.4469" y2="126.4469"/><text fill="#000000" font-family="sans-serif" font-size="14" lengthAdjust="spacing" textLength="207.3203" x="1505.34" y="143.442">float | None omega_start_deg</text><text fill="#000000" font-family="sans-serif" font-size="14" lengthAdjust="spacing" textLength="180.6875" x="1505.34" y="159.7389">float | None phi_start_deg</text><text fill="#000000" font-family="sans-serif" font-size="14" lengthAdjust="spacing" textLength="179.498" x="1505.34" y="176.0357">float | None chi_start_deg</text><text fill="#000000" font-family="sans-serif" font-size="14" lengthAdjust="spacing" textLength="202.0771" x="1505.34" y="192.3326">float | None kappa_start_deg</text><line style="stroke:#181818;stroke-width:0.5;" x1="1500.34" x2="1717.6603" y1="199.6344" y2="199.6344"/></g><!--class DiffractionExperiment--><g class="entity" data-entity="DiffractionExperiment" data-source-line="41" data-uid="ent0010" id="entity_DiffractionExperiment"><rect fill="#F1F1F1" height="210.9688" rx="2.5" ry="2.5" style="stroke:#181818;stroke-width:0.5;" width="332.332" x="29.83" y="275.7769"/><ellipse cx="114.6127" cy="291.7769" fill="#ADD1B2" rx="11" ry="11" style="stroke:#181818;stroke-width:1;"/><path d="M117.5815,297.4175 Q117.0033,297.7144 116.3627,297.855 Q115.7221,298.0113 115.019,298.0113 Q112.519,298.0113 111.1908,296.3706 Q109.8783,294.7144 109.8783,291.5894 Q109.8783,288.4644 111.1908,286.8081 Q112.519,285.1519 115.019,285.1519 Q115.7221,285.1519 116.3627,285.3081 Q117.019,285.4644 117.5815,285.7613 L117.5815,288.48 Q116.9565,287.9019 116.3627,287.6363 Q115.769,287.355 115.144,287.355 Q113.8002,287.355 113.1127,288.4331 Q112.4252,289.4956 112.4252,291.5894 Q112.4252,293.6831 113.1127,294.7613 Q113.8002,295.8238 115.144,295.8238 Q115.769,295.8238 116.3627,295.5581 Q116.9565,295.2769 117.5815,294.6988 L117.5815,297.4175 Z " fill="#000000"/><text fill="#000000" font-family="sans-serif" font-size="14" lengthAdjust="spacing" textLength="154.2666" x="135.1127" y="296.6236">DiffractionExperiment</text><line style="stroke:#181818;stroke-width:0.5;" x1="30.83" x2="361.162" y1="307.7769" y2="307.7769"/><text fill="#000000" font-family="sans-serif" font-size="14" lengthAdjust="spacing" textLength="91.0137" x="35.83" y="324.772">str file_name</text><text fill="#000000" font-family="sans-serif" font-size="14" lengthAdjust="spacing" textLength="153.7129" x="35.83" y="341.0689">float exposure_time_s</text><text fill="#000000" font-family="sans-serif" font-size="14" lengthAdjust="spacing" textLength="89.5029" x="35.83" y="357.3657">str comment</text><text fill="#000000" font-family="sans-serif" font-size="14" lengthAdjust="spacing" textLength="186.915" x="35.83" y="373.6626">TriggerMode trigger_mode</text><text fill="#000000" font-family="sans-serif" font-size="14" lengthAdjust="spacing" textLength="157.9854" x="35.83" y="389.9595">int | None run_number</text><text fill="#000000" font-family="sans-serif" font-size="14" lengthAdjust="spacing" textLength="282.3516" x="35.83" y="406.2564">ApertureValue | None selected_aperture</text><text fill="#000000" font-family="sans-serif" font-size="14" lengthAdjust="spacing" textLength="159.2979" x="35.83" y="422.5532">float transmission_frac</text><text fill="#000000" font-family="sans-serif" font-size="14" lengthAdjust="spacing" textLength="320.332" x="35.83" y="438.8501">IspybExperimentType ispyb_experiment_type</text><text fill="#000000" font-family="sans-serif" font-size="14" lengthAdjust="spacing" textLength="146.1113" x="35.83" y="455.147">str storage_directory</text><text fill="#000000" font-family="sans-serif" font-size="14" lengthAdjust="spacing" textLength="131.0518" x="35.83" y="471.4439">bool use_roi_mode</text><line style="stroke:#181818;stroke-width:0.5;" x1="30.83" x2="361.162" y1="478.7456" y2="478.7456"/></g><!--class MxBlueskyParameters--><g class="entity" data-entity="MxBlueskyParameters" data-source-line="53" data-uid="ent0011" id="entity_MxBlueskyParameters"><rect fill="#F1F1F1" height="64.2969" rx="2.5" ry="2.5" style="stroke:#181818;stroke-width:0.5;" width="317.4639" x="34.27" y="118.8869"/><ellipse cx="110.8564" cy="134.8869" fill="#ADD1B2" rx="11" ry="11" style="stroke:#181818;stroke-width:1;"/><path d="M113.8252,140.5275 Q113.2471,140.8244 112.6064,140.965 Q111.9658,141.1213 111.2627,141.1213 Q108.7627,141.1213 107.4346,139.4806 Q106.1221,137.8244 106.1221,134.6994 Q106.1221,131.5744 107.4346,129.9181 Q108.7627,128.2619 111.2627,128.2619 Q111.9658,128.2619 112.6064,128.4181 Q113.2627,128.5744 113.8252,128.8713 L113.8252,131.59 Q113.2002,131.0119 112.6064,130.7463 Q112.0127,130.465 111.3877,130.465 Q110.0439,130.465 109.3564,131.5431 Q108.6689,132.6056 108.6689,134.6994 Q108.6689,136.7931 109.3564,137.8713 Q110.0439,138.9338 111.3877,138.9338 Q112.0127,138.9338 112.6064,138.6681 Q113.2002,138.3869 113.8252,137.8088 L113.8252,140.5275 Z " fill="#000000"/><text fill="#000000" font-family="sans-serif" font-size="14" lengthAdjust="spacing" textLength="155.791" x="131.3564" y="139.7336">MxBlueskyParameters</text><line style="stroke:#181818;stroke-width:0.5;" x1="35.27" x2="350.7339" y1="150.8869" y2="150.8869"/><text fill="#000000" font-family="sans-serif" font-size="14" lengthAdjust="spacing" textLength="305.4639" x="40.27" y="167.882">SemanticVersion parameter_model_version</text><line style="stroke:#181818;stroke-width:0.5;" x1="35.27" x2="350.7339" y1="175.1838" y2="175.1838"/></g><!--class DiffractionExperimentWithSample--><g class="entity" data-entity="DiffractionExperimentWithSample" data-source-line="56" data-uid="ent0012" id="entity_DiffractionExperimentWithSample"><rect fill="#F1F1F1" height="48" rx="2.5" ry="2.5" style="stroke:#181818;stroke-width:0.5;" width="270.8545" x="60.57" y="546.7469"/><ellipse cx="75.57" cy="562.7469" fill="#ADD1B2" rx="11" ry="11" style="stroke:#181818;stroke-width:1;"/><path d="M78.5388,568.3875 Q77.9606,568.6844 77.32,568.825 Q76.6794,568.9813 75.9763,568.9813 Q73.4763,568.9813 72.1481,567.3406 Q70.8356,565.6844 70.8356,562.5594 Q70.8356,559.4344 72.1481,557.7781 Q73.4763,556.1219 75.9763,556.1219 Q76.6794,556.1219 77.32,556.2781 Q77.9763,556.4344 78.5388,556.7313 L78.5388,559.45 Q77.9138,558.8719 77.32,558.6063 Q76.7263,558.325 76.1013,558.325 Q74.7575,558.325 74.07,559.4031 Q73.3825,560.4656 73.3825,562.5594 Q73.3825,564.6531 74.07,565.7313 Q74.7575,566.7938 76.1013,566.7938 Q76.7263,566.7938 77.32,566.5281 Q77.9138,566.2469 78.5388,565.6688 L78.5388,568.3875 Z " fill="#000000"/><text fill="#000000" font-family="sans-serif" font-size="14" lengthAdjust="spacing" textLength="238.8545" x="89.57" y="567.5936">DiffractionExperimentWithSample</text><line style="stroke:#181818;stroke-width:0.5;" x1="61.57" x2="330.4245" y1="578.7469" y2="578.7469"/><line style="stroke:#181818;stroke-width:0.5;" x1="61.57" x2="330.4245" y1="586.7469" y2="586.7469"/></g><!--class GridCommon--><g class="entity" data-entity="GridCommon" data-source-line="58" data-uid="ent0013" id="entity_GridCommon"><rect fill="#F1F1F1" height="145.7813" rx="2.5" ry="2.5" style="stroke:#181818;stroke-width:0.5;" width="332.332" x="29.83" y="654.7469"/><ellipse cx="145.5282" cy="670.7469" fill="#ADD1B2" rx="11" ry="11" style="stroke:#181818;stroke-width:1;"/><path d="M148.497,676.3875 Q147.9189,676.6844 147.2782,676.825 Q146.6376,676.9813 145.9345,676.9813 Q143.4345,676.9813 142.1064,675.3406 Q140.7939,673.6844 140.7939,670.5594 Q140.7939,667.4344 142.1064,665.7781 Q143.4345,664.1219 145.9345,664.1219 Q146.6376,664.1219 147.2782,664.2781 Q147.9345,664.4344 148.497,664.7313 L148.497,667.45 Q147.872,666.8719 147.2782,666.6063 Q146.6845,666.325 146.0595,666.325 Q144.7157,666.325 144.0282,667.4031 Q143.3407,668.4656 143.3407,670.5594 Q143.3407,672.6531 144.0282,673.7313 Q144.7157,674.7938 146.0595,674.7938 Q146.6845,674.7938 147.2782,674.5281 Q147.872,674.2469 148.497,673.6688 L148.497,676.3875 Z " fill="#000000"/><text fill="#000000" font-family="sans-serif" font-size="14" lengthAdjust="spacing" textLength="92.4355" x="166.0282" y="675.5936">GridCommon</text><line style="stroke:#181818;stroke-width:0.5;" x1="30.83" x2="361.162" y1="686.7469" y2="686.7469"/><text fill="#000000" font-family="sans-serif" font-size="14" lengthAdjust="spacing" textLength="125.2959" x="35.83" y="703.742">float box_size_um</text><text fill="#000000" font-family="sans-serif" font-size="14" lengthAdjust="spacing" textLength="138.4209" x="35.83" y="720.0389">float grid_width_um</text><text fill="#000000" font-family="sans-serif" font-size="14" lengthAdjust="spacing" textLength="153.7129" x="35.83" y="736.3357">float exposure_time_s</text><text fill="#000000" font-family="sans-serif" font-size="14" lengthAdjust="spacing" textLength="320.332" x="35.83" y="752.6326">IspybExperimentType ispyb_experiment_type</text><text fill="#000000" font-family="sans-serif" font-size="14" lengthAdjust="spacing" textLength="282.3516" x="35.83" y="768.9295">ApertureValue | None selected_aperture</text><text fill="#000000" font-family="sans-serif" font-size="14" lengthAdjust="spacing" textLength="130.498" x="35.83" y="785.2264">float tip_offset_um</text><line style="stroke:#181818;stroke-width:0.5;" x1="30.83" x2="361.162" y1="792.5281" y2="792.5281"/></g><!--class RotationScan--><g class="entity" data-entity="RotationScan" data-source-line="69" data-uid="ent0015" id="entity_RotationScan"><rect fill="#F1F1F1" height="64.2969" rx="2.5" ry="2.5" style="stroke:#181818;stroke-width:0.5;" width="540.001" x="693" y="1040.4169"/><ellipse cx="912.1431" cy="1056.4169" fill="#ADD1B2" rx="11" ry="11" style="stroke:#181818;stroke-width:1;"/><path d="M915.1118,1062.0575 Q914.5337,1062.3544 913.8931,1062.495 Q913.2524,1062.6513 912.5493,1062.6513 Q910.0493,1062.6513 908.7212,1061.0106 Q907.4087,1059.3544 907.4087,1056.2294 Q907.4087,1053.1044 908.7212,1051.4481 Q910.0493,1049.7919 912.5493,1049.7919 Q913.2524,1049.7919 913.8931,1049.9481 Q914.5493,1050.1044 915.1118,1050.4013 L915.1118,1053.12 Q914.4868,1052.5419 913.8931,1052.2763 Q913.2993,1051.995 912.6743,1051.995 Q911.3306,1051.995 910.6431,1053.0731 Q909.9556,1054.1356 909.9556,1056.2294 Q909.9556,1058.3231 910.6431,1059.4013 Q911.3306,1060.4638 912.6743,1060.4638 Q913.2993,1060.4638 913.8931,1060.1981 Q914.4868,1059.9169 915.1118,1059.3388 L915.1118,1062.0575 Z " fill="#000000"/><text fill="#000000" font-family="sans-serif" font-size="14" lengthAdjust="spacing" textLength="93.2148" x="932.6431" y="1061.2636">RotationScan</text><line style="stroke:#181818;stroke-width:0.5;" x1="694" x2="1232.001" y1="1072.4169" y2="1072.4169"/><line style="stroke:#181818;stroke-width:0.5;" x1="694" x2="1232.001" y1="1080.4169" y2="1080.4169"/><text fill="#000000" font-family="sans-serif" font-size="14" lengthAdjust="spacing" textLength="528.001" x="699" y="1097.412">Annotated[list[RotationScanPerSweep], Len(min_length=1)] rotation_scans</text></g><!--class PinTipCentreThenXrayCentre--><g class="entity" data-entity="PinTipCentreThenXrayCentre" data-source-line="72" data-uid="ent0016" id="entity_PinTipCentreThenXrayCentre"><rect fill="#F1F1F1" height="64.2969" rx="2.5" ry="2.5" style="stroke:#181818;stroke-width:0.5;" width="235.8955" x="418.05" y="1040.4169"/><ellipse cx="433.05" cy="1056.4169" fill="#ADD1B2" rx="11" ry="11" style="stroke:#181818;stroke-width:1;"/><path d="M436.0188,1062.0575 Q435.4406,1062.3544 434.8,1062.495 Q434.1594,1062.6513 433.4563,1062.6513 Q430.9563,1062.6513 429.6281,1061.0106 Q428.3156,1059.3544 428.3156,1056.2294 Q428.3156,1053.1044 429.6281,1051.4481 Q430.9563,1049.7919 433.4563,1049.7919 Q434.1594,1049.7919 434.8,1049.9481 Q435.4563,1050.1044 436.0188,1050.4013 L436.0188,1053.12 Q435.3938,1052.5419 434.8,1052.2763 Q434.2063,1051.995 433.5813,1051.995 Q432.2375,1051.995 431.55,1053.0731 Q430.8625,1054.1356 430.8625,1056.2294 Q430.8625,1058.3231 431.55,1059.4013 Q432.2375,1060.4638 433.5813,1060.4638 Q434.2063,1060.4638 434.8,1060.1981 Q435.3938,1059.9169 436.0188,1059.3388 L436.0188,1062.0575 Z " fill="#000000"/><text fill="#000000" font-family="sans-serif" font-size="14" lengthAdjust="spacing" textLength="203.8955" x="447.05" y="1061.2636">PinTipCentreThenXrayCentre</text><line style="stroke:#181818;stroke-width:0.5;" x1="419.05" x2="652.9455" y1="1072.4169" y2="1072.4169"/><text fill="#000000" font-family="sans-serif" font-size="14" lengthAdjust="spacing" textLength="130.498" x="424.05" y="1089.412">float tip_offset_um</text><line style="stroke:#181818;stroke-width:0.5;" x1="419.05" x2="652.9455" y1="1096.7138" y2="1096.7138"/></g><!--class GridScanWithEdgeDetect--><g class="entity" data-entity="GridScanWithEdgeDetect" data-source-line="75" data-uid="ent0017" id="entity_GridScanWithEdgeDetect"><rect fill="#F1F1F1" height="48" rx="2.5" ry="2.5" style="stroke:#181818;stroke-width:0.5;" width="209.4268" x="173.29" y="1048.5669"/><ellipse cx="188.29" cy="1064.5669" fill="#ADD1B2" rx="11" ry="11" style="stroke:#181818;stroke-width:1;"/><path d="M191.2588,1070.2075 Q190.6806,1070.5044 190.04,1070.645 Q189.3994,1070.8013 188.6963,1070.8013 Q186.1963,1070.8013 184.8681,1069.1606 Q183.5556,1067.5044 183.5556,1064.3794 Q183.5556,1061.2544 184.8681,1059.5981 Q186.1963,1057.9419 188.6963,1057.9419 Q189.3994,1057.9419 190.04,1058.0981 Q190.6963,1058.2544 191.2588,1058.5513 L191.2588,1061.27 Q190.6338,1060.6919 190.04,1060.4263 Q189.4463,1060.145 188.8213,1060.145 Q187.4775,1060.145 186.79,1061.2231 Q186.1025,1062.2856 186.1025,1064.3794 Q186.1025,1066.4731 186.79,1067.5513 Q187.4775,1068.6138 188.8213,1068.6138 Q189.4463,1068.6138 190.04,1068.3481 Q190.6338,1068.0669 191.2588,1067.4888 L191.2588,1070.2075 Z " fill="#000000"/><text fill="#000000" font-family="sans-serif" font-size="14" lengthAdjust="spacing" textLength="177.4268" x="202.29" y="1069.4136">GridScanWithEdgeDetect</text><line style="stroke:#181818;stroke-width:0.5;" x1="174.29" x2="381.7168" y1="1080.5669" y2="1080.5669"/><line style="stroke:#181818;stroke-width:0.5;" x1="174.29" x2="381.7168" y1="1088.5669" y2="1088.5669"/></g><!--class RotationExperiment--><g class="entity" data-entity="RotationExperiment" data-source-line="77" data-uid="ent0018" id="entity_RotationExperiment"><rect fill="#F1F1F1" height="96.8906" rx="2.5" ry="2.5" style="stroke:#181818;stroke-width:0.5;" width="332.332" x="532.83" y="883.5269"/><ellipse cx="624.7118" cy="899.5269" fill="#ADD1B2" rx="11" ry="11" style="stroke:#181818;stroke-width:1;"/><path d="M627.6806,905.1675 Q627.1025,905.4644 626.4618,905.605 Q625.8212,905.7613 625.1181,905.7613 Q622.6181,905.7613 621.29,904.1206 Q619.9775,902.4644 619.9775,899.3394 Q619.9775,896.2144 621.29,894.5581 Q622.6181,892.9019 625.1181,892.9019 Q625.8212,892.9019 626.4618,893.0581 Q627.1181,893.2144 627.6806,893.5113 L627.6806,896.23 Q627.0556,895.6519 626.4618,895.3863 Q625.8681,895.105 625.2431,895.105 Q623.8993,895.105 623.2118,896.1831 Q622.5243,897.2456 622.5243,899.3394 Q622.5243,901.4331 623.2118,902.5113 Q623.8993,903.5738 625.2431,903.5738 Q625.8681,903.5738 626.4618,903.3081 Q627.0556,903.0269 627.6806,902.4488 L627.6806,905.1675 Z " fill="#000000"/><text fill="#000000" font-family="sans-serif" font-size="14" lengthAdjust="spacing" textLength="140.0684" x="645.2118" y="904.3736">RotationExperiment</text><line style="stroke:#181818;stroke-width:0.5;" x1="533.83" x2="864.162" y1="915.5269" y2="915.5269"/><text fill="#000000" font-family="sans-serif" font-size="14" lengthAdjust="spacing" textLength="202.8018" x="538.83" y="932.522">float shutter_opening_time_s</text><text fill="#000000" font-family="sans-serif" font-size="14" lengthAdjust="spacing" textLength="202.9385" x="538.83" y="948.8189">float rotation_increment_deg</text><text fill="#000000" font-family="sans-serif" font-size="14" lengthAdjust="spacing" textLength="320.332" x="538.83" y="965.1157">IspybExperimentType ispyb_experiment_type</text><line style="stroke:#181818;stroke-width:0.5;" x1="533.83" x2="864.162" y1="972.4175" y2="972.4175"/></g><!--class GridCommonWithHyperionDetectorParams--><g class="entity" data-entity="GridCommonWithHyperionDetectorParams" data-source-line="82" data-uid="ent0019" id="entity_GridCommonWithHyperionDetectorParams"><rect fill="#F1F1F1" height="48" rx="2.5" ry="2.5" style="stroke:#181818;stroke-width:0.5;" width="333.2188" x="164.39" y="907.9769"/><ellipse cx="179.39" cy="923.9769" fill="#ADD1B2" rx="11" ry="11" style="stroke:#181818;stroke-width:1;"/><path d="M182.3588,929.6175 Q181.7806,929.9144 181.14,930.055 Q180.4994,930.2113 179.7963,930.2113 Q177.2963,930.2113 175.9681,928.5706 Q174.6556,926.9144 174.6556,923.7894 Q174.6556,920.6644 175.9681,919.0081 Q177.2963,917.3519 179.7963,917.3519 Q180.4994,917.3519 181.14,917.5081 Q181.7963,917.6644 182.3588,917.9613 L182.3588,920.68 Q181.7338,920.1019 181.14,919.8363 Q180.5463,919.555 179.9213,919.555 Q178.5775,919.555 177.89,920.6331 Q177.2025,921.6956 177.2025,923.7894 Q177.2025,925.8831 177.89,926.9613 Q178.5775,928.0238 179.9213,928.0238 Q180.5463,928.0238 181.14,927.7581 Q181.7338,927.4769 182.3588,926.8988 L182.3588,929.6175 Z " fill="#000000"/><text fill="#000000" font-family="sans-serif" font-size="14" lengthAdjust="spacing" textLength="301.2188" x="193.39" y="928.8236">GridCommonWithHyperionDetectorParams</text><line style="stroke:#181818;stroke-width:0.5;" x1="165.39" x2="496.6088" y1="939.9769" y2="939.9769"/><line style="stroke:#181818;stroke-width:0.5;" x1="165.39" x2="496.6088" y1="947.9769" y2="947.9769"/></g><!--class LoadCentreCollect--><g class="entity" data-entity="LoadCentreCollect" data-source-line="84" data-uid="ent0020" id="entity_LoadCentreCollect"><rect fill="#F1F1F1" height="80.5938" rx="2.5" ry="2.5" style="stroke:#181818;stroke-width:0.5;" width="338.6211" x="899.69" y="891.6769"/><ellipse cx="1000.315" cy="907.6769" fill="#ADD1B2" rx="11" ry="11" style="stroke:#181818;stroke-width:1;"/><path d="M1003.2838,913.3175 Q1002.7056,913.6144 1002.065,913.755 Q1001.4244,913.9113 1000.7213,913.9113 Q998.2213,913.9113 996.8931,912.2706 Q995.5806,910.6144 995.5806,907.4894 Q995.5806,904.3644 996.8931,902.7081 Q998.2213,901.0519 1000.7213,901.0519 Q1001.4244,901.0519 1002.065,901.2081 Q1002.7213,901.3644 1003.2838,901.6613 L1003.2838,904.38 Q1002.6588,903.8019 1002.065,903.5363 Q1001.4713,903.255 1000.8463,903.255 Q999.5025,903.255 998.815,904.3331 Q998.1275,905.3956 998.1275,907.4894 Q998.1275,909.5831 998.815,910.6613 Q999.5025,911.7238 1000.8463,911.7238 Q1001.4713,911.7238 1002.065,911.4581 Q1002.6588,911.1769 1003.2838,910.5988 L1003.2838,913.3175 Z " fill="#000000"/><text fill="#000000" font-family="sans-serif" font-size="14" lengthAdjust="spacing" textLength="128.8711" x="1020.815" y="912.5236">LoadCentreCollect</text><line style="stroke:#181818;stroke-width:0.5;" x1="900.69" x2="1237.3111" y1="923.6769" y2="923.6769"/><text fill="#000000" font-family="sans-serif" font-size="14" lengthAdjust="spacing" textLength="326.6211" x="905.69" y="940.672">RobotLoadThenCentre robot_load_then_centre</text><text fill="#000000" font-family="sans-serif" font-size="14" lengthAdjust="spacing" textLength="235.0947" x="905.69" y="956.9689">RotationScan multi_rotation_scan</text><line style="stroke:#181818;stroke-width:0.5;" x1="900.69" x2="1237.3111" y1="964.2706" y2="964.2706"/></g><!--reverse link MxBlueskyParameters to DiffractionExperiment--><g class="link" data-entity-1="MxBlueskyParameters" data-entity-2="DiffractionExperiment" data-source-line="89" data-uid="lnk21" id="link_MxBlueskyParameters_DiffractionExperiment"><path codeLine="89" d="M193.6502,201.2953 C193.9702,225.2753 194.18,241.8669 194.62,275.3869" fill="none" id="MxBlueskyParameters-backto-DiffractionExperiment" style="stroke:#181818;stroke-width:1;"/><polygon fill="none" points="193.41,183.2969,187.6507,201.3753,199.6496,201.2152,193.41,183.2969" style="stroke:#181818;stroke-width:1;"/></g><!--reverse link WithSnapshot to DiffractionExperiment--><g class="link" data-entity-1="WithSnapshot" data-entity-2="DiffractionExperiment" data-source-line="90" data-uid="lnk22" id="link_WithSnapshot_DiffractionExperiment"><path codeLine="90" d="M445.8951,210.0128 C413.5651,232.0428 388.72,248.9669 349.96,275.3769" fill="none" id="WithSnapshot-backto-DiffractionExperiment" style="stroke:#181818;stroke-width:1;"/><polygon fill="none" points="460.77,199.8769,442.5164,205.0545,449.2737,214.9711,460.77,199.8769" style="stroke:#181818;stroke-width:1;"/></g><!--reverse link WithOptionalEnergyChange to DiffractionExperiment--><g class="link" data-entity-1="WithOptionalEnergyChange" data-entity-2="DiffractionExperiment" data-source-line="91" data-uid="lnk23" id="link_WithOptionalEnergyChange_DiffractionExperiment"><path codeLine="91" d="M761.3893,192.4933 C736.7693,206.5533 721.96,213.3369 693,223.7769 C585.42,262.5569 550.14,241.6269 441,275.7769 C415.18,283.8569 388.37,293.6969 362.37,304.0769" fill="none" id="WithOptionalEnergyChange-backto-DiffractionExperiment" style="stroke:#181818;stroke-width:1;"/><polygon fill="none" points="777.02,183.5669,758.4138,187.283,764.3647,197.7035,777.02,183.5669" style="stroke:#181818;stroke-width:1;"/></g><!--reverse link WithVisit to DiffractionExperiment--><g class="link" data-entity-1="WithVisit" data-entity-2="DiffractionExperiment" data-source-line="92" data-uid="lnk24" id="link_WithVisit_DiffractionExperiment"><path codeLine="92" d="M1182.4224,222.18 C1174.2724,225.02 1183.08,221.6469 1175,223.7769 C885.78,300.0669 797.02,215.7069 504,275.7769 C457.26,285.3569 407.82,299.9969 362.55,315.3169" fill="none" id="WithVisit-backto-DiffractionExperiment" style="stroke:#181818;stroke-width:1;"/><polygon fill="none" points="1199.42,216.2569,1180.4481,216.5141,1184.3968,227.8458,1199.42,216.2569" style="stroke:#181818;stroke-width:1;"/></g><!--reverse link RotationExperiment to RotationScan--><g class="link" data-entity-1="RotationExperiment" data-entity-2="RotationScan" data-source-line="93" data-uid="lnk25" id="link_RotationExperiment_RotationScan"><path codeLine="93" d="M806.1574,989.2334 C843.4174,1008.7934 869.55,1022.5069 902.85,1039.9869" fill="none" id="RotationExperiment-backto-RotationScan" style="stroke:#181818;stroke-width:1;"/><polygon fill="none" points="790.22,980.8669,803.3686,994.5459,808.9463,983.9209,790.22,980.8669" style="stroke:#181818;stroke-width:1;"/></g><!--reverse link SplitScan to RotationScan--><g class="link" data-entity-1="SplitScan" data-entity-2="RotationScan" data-source-line="94" data-uid="lnk26" id="link_SplitScan_RotationScan"><path codeLine="94" d="M2426.7732,189.3093 C2414.4132,204.4193 2408.33,209.8569 2390,223.7769 C2120.57,428.3669 1712,231.4469 1712,569.7469 C1712,569.7469 1712,569.7469 1712,728.6369 C1712,946.0269 1447.95,1026.1569 1233.41,1055.3969" fill="none" id="SplitScan-backto-RotationScan" style="stroke:#181818;stroke-width:1;"/><polygon fill="none" points="2438.17,175.3769,2422.1291,185.5104,2431.4174,193.1083,2438.17,175.3769" style="stroke:#181818;stroke-width:1;"/></g><!--reverse link GridCommonWithHyperionDetectorParams to PinTipCentreThenXrayCentre--><g class="link" data-entity-1="GridCommonWithHyperionDetectorParams" data-entity-2="PinTipCentreThenXrayCentre" data-source-line="95" data-uid="lnk27" id="link_GridCommonWithHyperionDetectorParams_PinTipCentreThenXrayCentre"><path codeLine="95" d="M380.2231,966.2565 C414.1931,989.2165 451.53,1014.4569 489.27,1039.9769" fill="none" id="GridCommonWithHyperionDetectorParams-backto-PinTipCentreThenXrayCentre" style="stroke:#181818;stroke-width:1;"/><polygon fill="none" points="365.31,956.1769,376.8632,971.2275,383.583,961.2855,365.31,956.1769" style="stroke:#181818;stroke-width:1;"/></g><!--reverse link GridCommonWithHyperionDetectorParams to GridScanWithEdgeDetect--><g class="link" data-entity-1="GridCommonWithHyperionDetectorParams" data-entity-2="GridScanWithEdgeDetect" data-source-line="96" data-uid="lnk28" id="link_GridCommonWithHyperionDetectorParams_GridScanWithEdgeDetect"><path codeLine="96" d="M315.7019,972.9899 C305.9219,998.5699 296.69,1022.6769 286.9,1048.2969" fill="none" id="GridCommonWithHyperionDetectorParams-backto-GridScanWithEdgeDetect" style="stroke:#181818;stroke-width:1;"/><polygon fill="none" points="322.13,956.1769,310.0975,970.8472,321.3062,975.1326,322.13,956.1769" style="stroke:#181818;stroke-width:1;"/></g><!--reverse link DiffractionExperiment to RotationExperiment--><g class="link" data-entity-1="DiffractionExperiment" data-entity-2="RotationExperiment" data-source-line="97" data-uid="lnk29" id="link_DiffractionExperiment_RotationExperiment"><path codeLine="97" d="M305.9502,500.1553 C324.3602,519.9753 331.17,527.3769 349,546.7469 C460.07,667.4069 589.84,810.4069 655.78,883.2069" fill="none" id="DiffractionExperiment-backto-RotationExperiment" style="stroke:#181818;stroke-width:1;"/><polygon fill="none" points="293.7,486.9669,301.554,504.2386,310.3463,496.0719,293.7,486.9669" style="stroke:#181818;stroke-width:1;"/></g><!--reverse link GridCommon to GridCommonWithHyperionDetectorParams--><g class="link" data-entity-1="GridCommon" data-entity-2="GridCommonWithHyperionDetectorParams" data-source-line="98" data-uid="lnk30" id="link_GridCommon_GridCommonWithHyperionDetectorParams"><path codeLine="98" d="M254.1564,815.8026 C279.1364,853.2626 298,881.5169 315.36,907.5269" fill="none" id="GridCommon-backto-GridCommonWithHyperionDetectorParams" style="stroke:#181818;stroke-width:1;"/><polygon fill="none" points="244.17,800.8269,249.1646,819.1314,259.1483,812.4737,244.17,800.8269" style="stroke:#181818;stroke-width:1;"/></g><!--reverse link DiffractionExperiment to DiffractionExperimentWithSample--><g class="link" data-entity-1="DiffractionExperiment" data-entity-2="DiffractionExperimentWithSample" data-source-line="99" data-uid="lnk31" id="link_DiffractionExperiment_DiffractionExperimentWithSample"><path codeLine="99" d="M196,505.2469 C196,527.4969 196,530.8969 196,546.3269" fill="none" id="DiffractionExperiment-backto-DiffractionExperimentWithSample" style="stroke:#181818;stroke-width:1;"/><polygon fill="none" points="196,487.2469,190,505.2469,202,505.2469,196,487.2469" style="stroke:#181818;stroke-width:1;"/></g><!--reverse link WithSample to DiffractionExperimentWithSample--><g class="link" data-entity-1="WithSample" data-entity-2="DiffractionExperimentWithSample" data-source-line="100" data-uid="lnk32" id="link_WithSample_DiffractionExperimentWithSample"><path codeLine="100" d="M993.8909,209.7011 C979.5309,219.0411 978.84,217.9269 963,223.7769 C770.42,294.9269 676.17,163.9369 504,275.7769 C412.79,335.0269 460.93,414.0869 380,486.7469 C350.14,513.5569 310.18,532.9869 275.13,546.2769" fill="none" id="WithSample-backto-DiffractionExperimentWithSample" style="stroke:#181818;stroke-width:1;"/><polygon fill="none" points="1008.98,199.8869,990.6195,204.6714,997.1623,214.7308,1008.98,199.8869" style="stroke:#181818;stroke-width:1;"/></g><!--reverse link MxBlueskyParameters to LoadCentreCollect--><g class="link" data-entity-1="MxBlueskyParameters" data-entity-2="LoadCentreCollect" data-source-line="101" data-uid="lnk33" id="link_MxBlueskyParameters_LoadCentreCollect"><path codeLine="101" d="M261.2179,193.02 C299.6379,216.73 336.91,241.4669 380,275.7769 C647.31,488.6069 932.81,785.6369 1032.32,891.5469" fill="none" id="MxBlueskyParameters-backto-LoadCentreCollect" style="stroke:#181818;stroke-width:1;"/><polygon fill="none" points="245.9,183.5669,258.0669,198.126,264.369,187.914,245.9,183.5669" style="stroke:#181818;stroke-width:1;"/></g><!--reverse link WithVisit to LoadCentreCollect--><g class="link" data-entity-1="WithVisit" data-entity-2="LoadCentreCollect" data-source-line="102" data-uid="lnk34" id="link_WithVisit_LoadCentreCollect"><path codeLine="102" d="M1301.0118,233.1878 C1249.3518,388.5878 1124.22,764.9169 1082.21,891.2569" fill="none" id="WithVisit-backto-LoadCentreCollect" style="stroke:#181818;stroke-width:1;"/><polygon fill="none" points="1306.69,216.1069,1295.3181,231.295,1306.7054,235.0805,1306.69,216.1069" style="stroke:#181818;stroke-width:1;"/></g><!--reverse link WithSample to LoadCentreCollect--><g class="link" data-entity-1="WithSample" data-entity-2="LoadCentreCollect" data-source-line="103" data-uid="lnk35" id="link_WithSample_LoadCentreCollect"><path codeLine="103" d="M1069,217.8869 C1069,360.0469 1069,760.1669 1069,891.2169" fill="none" id="WithSample-backto-LoadCentreCollect" style="stroke:#181818;stroke-width:1;"/><polygon fill="none" points="1069,199.8869,1063,217.8869,1075,217.8869,1069,199.8869" style="stroke:#181818;stroke-width:1;"/></g><!--reverse link WithCentreSelection to LoadCentreCollect--><g class="link" data-entity-1="WithCentreSelection" data-entity-2="LoadCentreCollect" data-source-line="104" data-uid="lnk36" id="link_WithCentreSelection_LoadCentreCollect"><path codeLine="104" d="M1893.0405,188.3024 C1821.2305,207.6624 1754.02,232.5369 1686,275.7769 C1650.23,298.5169 1231.77,753.4769 1105.11,891.5769" fill="none" id="WithCentreSelection-backto-LoadCentreCollect" style="stroke:#181818;stroke-width:1;"/><polygon fill="none" points="1910.42,183.6169,1891.4787,182.5092,1894.6024,194.0955,1910.42,183.6169" style="stroke:#181818;stroke-width:1;"/></g><!--reverse link DiffractionExperimentWithSample to GridCommon--><g class="link" data-entity-1="DiffractionExperimentWithSample" data-entity-2="GridCommon" data-source-line="105" data-uid="lnk37" id="link_DiffractionExperimentWithSample_GridCommon"><path codeLine="105" d="M196,612.9369 C196,628.8869 196,633.0069 196,654.5669" fill="none" id="DiffractionExperimentWithSample-backto-GridCommon" style="stroke:#181818;stroke-width:1;"/><polygon fill="none" points="196,594.9369,190,612.9369,202,612.9369,196,594.9369" style="stroke:#181818;stroke-width:1;"/></g><!--reverse link OptionalGonioAngleStarts to GridCommon--><g class="link" data-entity-1="OptionalGonioAngleStarts" data-entity-2="GridCommon" data-source-line="106" data-uid="lnk38" id="link_OptionalGonioAngleStarts_GridCommon"><path codeLine="106" d="M1496.3148,216.4866 C1485.8748,221.9866 1491.25,218.9269 1481,223.7769 C1089.72,408.9069 610.64,583.2169 362.61,669.7469" fill="none" id="OptionalGonioAngleStarts-backto-GridCommon" style="stroke:#181818;stroke-width:1;"/><polygon fill="none" points="1512.24,208.0969,1493.5182,211.1782,1499.1114,221.795,1512.24,208.0969" style="stroke:#181818;stroke-width:1;"/></g><!--SRC=[bLPBR-Cs43vRluAtja0JeFVsa7NIRO7DDbWRwGABWA2biKI48WbobBMQpN_laBHUjXmdy27YpCTvVJF3_BIkf6TRgO3HNz6WkIX1WnC81Tkqh3jmguJ6fbQNjiqob4WN_cejE6aqknDEr83WsAqfG6KUa6cIU2joM84bDHh7jD6GPIHx52MmUiStgW7_s5xcfgwDlhIT6S-UCpGbO4KcdxDS2U_PlnAh9MXqP551ZkJuELkiZVtyeRqLkwLfDFOQzeDDDNyQToFoQYLggmO3pCSldaUxFdiP-LffONrba9pS2QoOtvzv8HtTCQxD5afw_BPLHk03UVnC-GqmKqCfF2-Wp1OROnHhFF3IoO9taAc_Vso8IAWRAdZPBYkXIo3VqNfdl81Qw893X71ucWOSSwChKYFpyS1baOvTS4bgc_nnLYxrnEAzz3Baxz6n3OXQII8mdfw29dqM44hYaQFX0SHpev_04OtSKjqII6fF8igFMmTRkJlA2sD9eo6XS-1rtKUoiahYAXT4ToVgQlNHQ6ckT4cKed3e3-iLEU0-w18H4wsjv4bT_ehkKLWxjlf2lwDslPRRhHEnosvsOKvgwh5zBSEuyJ0WdM7OMUCR1nm9ndr2XQcWEzJZJfObk31R3DCth-ameT0rckkcte3B5bVa3ydSlQ01wpcEhGu55tjjvnoTqBwMtWTwGipPuczlsyqGzfe6dTO3oJZqGeuaJP5weev6UZmPVSSx8rEm7NUtkmzfxFkj4MXRXSv6cT_JCGnclmlYPSMVahotCblUyHHqm8yqSSkuN_hcs9WTz_8_u4tTYU9SVfS5LYFX4IllACixAP2Mc-sMzcPm_n9_CtkosY_SwQPCUNunA48rqg0ihhGE0YY-nHqrrjw1Mtq7i0-_ia-WVwwbvWfqYTKVl_tomDmUoJr1Xmrr9_LQshH_rnNehqwqwVHyAecX_i5huEQcAE4wZlh0JnVPP4YIGLyr63h0MD1IbpqDITi7AdNk89O-ZkhRIJfkaH1azwfTxtTIR5C_1Fp9Y29blZHAnLmMNyp6O524qYGbnKSoJg4Md1Q3thyn0JjGmUf6eUIJcaVoPuQ4_VxZucA-xxFnUtKED_VEdBiJ7uBNGCSi9lGusQnVv3Ewjt2Ghftkn7SOcU_AR3QvQRIZf0TtWz5pxbzpSMQdPSFds_0dc-YeXGz9dWUCVSyZ3lu_EmKz4_XXDRDJp_qXy7y0]--></g></svg>