<svg xmlns="http://www.w3.org/2000/svg" xmlns:xlink="http://www.w3.org/1999/xlink" version="1.1" data-diagram-type="CLASS" style="width:1083px;height:377px;background:#FFFFFF;" width="1083px" height="377px" viewBox="0 0 1083 377" zoomAndPan="magnify" preserveAspectRatio="none" contentStyleType="text/css"><?plantuml 1.2026.7beta8?><defs/><g font-family="sans-serif" lengthAdjust="spacing"><g class="title" data-source-line="3"><text x="432.187" y="22.995" fill="#000" font-size="14" textLength="212.495" font-weight="700">Hyperion Parameter Model</text></g><!--cluster mx_bluesky.common.parameters--><g class="cluster" data-qualified-name="mx_bluesky.common.parameters" id="ent0001" data-source-line="6"><path d="M201.37,43.297 L462.683,43.297 A3.75,3.75 0 0 1 465.183,45.797 L472.183,65.594 L1066.37,65.594 A2.5,2.5 0 0 1 1068.87,68.094 L1068.87,204.687 A2.5,2.5 0 0 1 1066.37,207.187 L201.37,207.187 A2.5,2.5 0 0 1 198.87,204.687 L198.87,45.797 A2.5,2.5 0 0 1 201.37,43.297" style="stroke:#000;stroke-width:1.5;" fill="none"/><line x1="198.87" y1="65.594" x2="472.183" y2="65.594" style="stroke:#000;stroke-width:1.5;"/><text x="202.87" y="58.292" fill="#000" font-size="14" textLength="260.313" font-weight="700">mx_bluesky.common.parameters</text></g><!--cluster mx_bluesky.hyperion.parameters--><g class="cluster" data-qualified-name="mx_bluesky.hyperion.parameters" id="ent0005" data-source-line="25"><path d="M164.37,231.187 L428.902,231.187 A3.75,3.75 0 0 1 431.402,233.687 L438.402,253.484 L529.37,253.484 A2.5,2.5 0 0 1 531.87,255.984 L531.87,360.277 A2.5,2.5 0 0 1 529.37,362.777 L164.37,362.777 A2.5,2.5 0 0 1 161.87,360.277 L161.87,233.687 A2.5,2.5 0 0 1 164.37,231.187" style="stroke:#000;stroke-width:1.5;" fill="none"/><line x1="161.87" y1="253.484" x2="438.402" y2="253.484" style="stroke:#000;stroke-width:1.5;"/><text x="165.87" y="246.182" fill="#000" font-size="14" textLength="263.532" font-weight="700">mx_bluesky.hyperion.parameters</text></g><!--class WithSample--><g class="entity" data-qualified-name="mx_bluesky.common.parameters.WithSample" id="ent0002" data-source-line="8"><rect x="222.71" y="86.297" width="176.309" height="96.891" fill="#F1F1F1" style="stroke:#181818;stroke-width:0.5;" rx="2.5" ry="2.5"/><ellipse cx="264.584" cy="102.297" rx="11" ry="11" fill="#ADD1B2" style="stroke:#181818;stroke-width:1;"/><path d="M267.553,107.938 Q266.975,108.234 266.334,108.375 Q265.694,108.531 264.991,108.531 Q262.491,108.531 261.162,106.891 Q259.85,105.234 259.85,102.109 Q259.85,98.984 261.162,97.328 Q262.491,95.672 264.991,95.672 Q265.694,95.672 266.334,95.828 Q266.991,95.984 267.553,96.281 L267.553,99 Q266.928,98.422 266.334,98.156 Q265.741,97.875 265.116,97.875 Q263.772,97.875 263.084,98.953 Q262.397,100.016 262.397,102.109 Q262.397,104.203 263.084,105.281 Q263.772,106.344 265.116,106.344 Q265.741,106.344 266.334,106.078 Q266.928,105.797 267.553,105.219 L267.553,107.938 Z " fill="#000"/><text x="284.556" y="107.144" fill="#000" font-size="14" textLength="84.588">WithSample</text><line x1="223.71" y1="118.297" x2="398.019" y2="118.297" style="stroke:#181818;stroke-width:0.5;"/><text x="228.71" y="135.292" fill="#000" font-size="14" textLength="93.379">int sample_id</text><text x="228.71" y="151.589" fill="#000" font-size="14" textLength="164.309">int | None sample_puck</text><text x="228.71" y="167.886" fill="#000" font-size="14" textLength="152.394">int | None sample_pin</text><line x1="223.71" y1="175.188" x2="398.019" y2="175.188" style="stroke:#181818;stroke-width:0.5;"/></g><!--class WithVisit--><g class="entity" data-qualified-name="mx_bluesky.common.parameters.WithVisit" id="ent0003" data-source-line="13"><rect x="433.99" y="86.297" width="257.752" height="96.891" fill="#F1F1F1" style="stroke:#181818;stroke-width:0.5;" rx="2.5" ry="2.5"/><ellipse cx="527.499" cy="102.297" rx="11" ry="11" fill="#ADD1B2" style="stroke:#181818;stroke-width:1;"/><path d="M530.468,107.938 Q529.889,108.234 529.249,108.375 Q528.608,108.531 527.905,108.531 Q525.405,108.531 524.077,106.891 Q522.764,105.234 522.764,102.109 Q522.764,98.984 524.077,97.328 Q525.405,95.672 527.905,95.672 Q528.608,95.672 529.249,95.828 Q529.905,95.984 530.468,96.281 L530.468,99 Q529.843,98.422 529.249,98.156 Q528.655,97.875 528.03,97.875 Q526.686,97.875 525.999,98.953 Q525.311,100.016 525.311,102.109 Q525.311,104.203 525.999,105.281 Q526.686,106.344 528.03,106.344 Q528.655,106.344 529.249,106.078 Q529.843,105.797 530.468,105.219 L530.468,107.938 Z " fill="#000"/><text x="547.999" y="107.144" fill="#000" font-size="14" textLength="62.234">WithVisit</text><line x1="434.99" y1="118.297" x2="690.742" y2="118.297" style="stroke:#181818;stroke-width:0.5;"/><text x="439.99" y="135.292" fill="#000" font-size="14" textLength="87.972">str beamline</text><text x="439.99" y="151.589" fill="#000" font-size="14" textLength="51.837">str visit</text><text x="439.99" y="167.886" fill="#000" font-size="14" textLength="245.752">float | None detector_distance_mm</text><line x1="434.99" y1="175.188" x2="690.742" y2="175.188" style="stroke:#181818;stroke-width:0.5;"/></g><!--class MxBlueskyParameters--><g class="entity" data-qualified-name="mx_bluesky.common.parameters.MxBlueskyParameters" id="ent0004" data-source-line="20"><rect x="727.13" y="102.587" width="317.464" height="64.297" fill="#F1F1F1" style="stroke:#181818;stroke-width:0.5;" rx="2.5" ry="2.5"/><ellipse cx="803.716" cy="118.587" rx="11" ry="11" fill="#ADD1B2" style="stroke:#181818;stroke-width:1;"/><path d="M806.685,124.228 Q806.107,124.524 805.466,124.665 Q804.826,124.821 804.123,124.821 Q801.623,124.821 800.295,123.181 Q798.982,121.524 798.982,118.399 Q798.982,115.274 800.295,113.618 Q801.623,111.962 804.123,111.962 Q804.826,111.962 805.466,112.118 Q806.123,112.274 806.685,112.571 L806.685,115.29 Q806.06,114.712 805.466,114.446 Q804.873,114.165 804.248,114.165 Q802.904,114.165 802.216,115.243 Q801.529,116.306 801.529,118.399 Q801.529,120.493 802.216,121.571 Q802.904,122.634 804.248,122.634 Q804.873,122.634 805.466,122.368 Q806.06,122.087 806.685,121.509 L806.685,124.228 Z " fill="#000"/><text x="824.216" y="123.434" fill="#000" font-size="14" textLength="155.791">MxBlueskyParameters</text><line x1="728.13" y1="134.587" x2="1043.594" y2="134.587" style="stroke:#181818;stroke-width:0.5;"/><text x="733.13" y="151.582" fill="#000" font-size="14" textLength="305.464">SemanticVersion parameter_model_version</text><line x1="728.13" y1="158.884" x2="1043.594" y2="158.884" style="stroke:#181818;stroke-width:0.5;"/></g><!--class LoadCentreCollect--><g class="entity" data-qualified-name="mx_bluesky.hyperion.parameters.LoadCentreCollect" id="ent0006" data-source-line="26"><rect x="177.56" y="266.187" width="338.621" height="80.594" fill="#F1F1F1" style="stroke:#181818;stroke-width:0.5;" rx="2.5" ry="2.5"/><ellipse cx="278.185" cy="282.187" rx="11" ry="11" fill="#ADD1B2" style="stroke:#181818;stroke-width:1;"/><path d="M281.154,287.828 Q280.576,288.124 279.935,288.265 Q279.294,288.421 278.591,288.421 Q276.091,288.421 274.763,286.781 Q273.451,285.124 273.451,281.999 Q273.451,278.874 274.763,277.218 Q276.091,275.562 278.591,275.562 Q279.294,275.562 279.935,275.718 Q280.591,275.874 281.154,276.171 L281.154,278.89 Q280.529,278.312 279.935,278.046 Q279.341,277.765 278.716,277.765 Q277.373,277.765 276.685,278.843 Q275.998,279.906 275.998,281.999 Q275.998,284.093 276.685,285.171 Q277.373,286.234 278.716,286.234 Q279.341,286.234 279.935,285.968 Q280.529,285.687 281.154,285.109 L281.154,287.828 Z " fill="#000"/><text x="298.685" y="287.034" fill="#000" font-size="14" textLength="128.871">LoadCentreCollect</text><line x1="178.56" y1="298.187" x2="515.181" y2="298.187" style="stroke:#181818;stroke-width:0.5;"/><text x="183.56" y="315.182" fill="#000" font-size="14" textLength="326.621">RobotLoadThenCentre robot_load_then_centre</text><text x="183.56" y="331.479" fill="#000" font-size="14" textLength="235.095">RotationScan multi_rotation_scan</text><line x1="178.56" y1="338.781" x2="515.181" y2="338.781" style="stroke:#181818;stroke-width:0.5;"/></g><!--class WithCentreSelection--><g class="entity" data-qualified-name="WithCentreSelection" id="ent0010" data-source-line="34"><rect x="7" y="110.737" width="175.732" height="48" fill="#F1F1F1" style="stroke:#181818;stroke-width:0.5;" rx="2.5" ry="2.5"/><ellipse cx="22" cy="126.737" rx="11" ry="11" fill="#ADD1B2" style="stroke:#181818;stroke-width:1;"/><path d="M24.969,132.378 Q24.391,132.674 23.75,132.815 Q23.109,132.971 22.406,132.971 Q19.906,132.971 18.578,131.331 Q17.266,129.674 17.266,126.549 Q17.266,123.424 18.578,121.768 Q19.906,120.112 22.406,120.112 Q23.109,120.112 23.75,120.268 Q24.406,120.424 24.969,120.721 L24.969,123.44 Q24.344,122.862 23.75,122.596 Q23.156,122.315 22.531,122.315 Q21.188,122.315 20.5,123.393 Q19.813,124.456 19.813,126.549 Q19.813,128.643 20.5,129.721 Q21.188,130.784 22.531,130.784 Q23.156,130.784 23.75,130.518 Q24.344,130.237 24.969,129.659 L24.969,132.378 Z " fill="#000"/><text x="36" y="131.584" fill="#000" font-size="14" textLength="143.732">WithCentreSelection</text><line x1="8" y1="142.737" x2="181.732" y2="142.737" style="stroke:#181818;stroke-width:0.5;"/><line x1="8" y1="150.737" x2="181.732" y2="150.737" style="stroke:#181818;stroke-width:0.5;"/></g><!--reverse link MxBlueskyParameters to LoadCentreCollect--><g class="link" data-entity-1="ent0004" data-entity-2="ent0006" id="lnk7" data-source-line="31" data-link-type="extension"><path d="M806.005,175.057 C772.525,190.877 746.73,201.767 707.87,215.187 C646.34,236.427 577.33,254.937 516.25,269.567" style="stroke:#181818;stroke-width:1;" fill="none" id="MxBlueskyParameters-backto-LoadCentreCollect" codeLine="31"/><polygon points="822.28,167.367,803.442,169.632,808.569,180.482,822.28,167.367" fill="none" style="stroke:#181818;stroke-width:1;stroke-linejoin:miter;stroke-miterlimit:10;"/></g><!--reverse link WithVisit to LoadCentreCollect--><g class="link" data-entity-1="ent0003" data-entity-2="ent0006" id="lnk8" data-source-line="32" data-link-type="extension"><path d="M487.967,194.599 C454.907,220.579 428.63,241.227 397.32,265.837" style="stroke:#181818;stroke-width:1;" fill="none" id="WithVisit-backto-LoadCentreCollect" codeLine="32"/><polygon points="502.12,183.477,484.26,189.881,491.674,199.316,502.12,183.477" fill="none" style="stroke:#181818;stroke-width:1;stroke-linejoin:miter;stroke-miterlimit:10;"/></g><!--reverse link WithSample to LoadCentreCollect--><g class="link" data-entity-1="ent0002" data-entity-2="ent0006" id="lnk9" data-source-line="33" data-link-type="extension"><path d="M324.724,201.085 C330.234,227.065 333.24,241.227 338.46,265.837" style="stroke:#181818;stroke-width:1;" fill="none" id="WithSample-backto-LoadCentreCollect" codeLine="33"/><polygon points="320.99,183.477,318.855,202.33,330.594,199.84,320.99,183.477" fill="none" style="stroke:#181818;stroke-width:1;stroke-linejoin:miter;stroke-miterlimit:10;"/></g><!--reverse link WithCentreSelection to LoadCentreCollect--><g class="link" data-entity-1="ent0010" data-entity-2="ent0006" id="lnk11" data-source-line="34" data-link-type="extension"><path d="M141.555,169.589 C163.805,185.619 179.62,196.747 206.87,215.187 C231.9,232.117 259.82,250.277 284.11,265.837" style="stroke:#181818;stroke-width:1;" fill="none" id="WithCentreSelection-backto-LoadCentreCollect" codeLine="34"/><polygon points="126.95,159.067,138.047,174.457,145.062,164.721,126.95,159.067" fill="none" style="stroke:#181818;stroke-width:1;stroke-linejoin:miter;stroke-miterlimit:10;"/></g><?plantuml-src VP7FRi8m3CRFv2bysmcUOATnsM5CquhOCKfJGoFoJucBg81tdzD2jGd4gVBFxkVFNrxMhScmDHQ1lwgZCD-XnwG86wXxk1KoMkMfStOHUo784F_mtaTC9dZuKaav94om2WrQaP70CybHQQmmSfj20Xyy2i5ihtO8xYXhss7UzmiTd0j-4Myo6Kw2mWwfPScJq5Rb33-6sagvQF4aPiOJvA6GfXdBCtoo_et6JkyVSkF5vO_YncH3B9WfGOtAMSCUX-fGEcAsjK5D8WsxqtoAR4mcvJLAvrZkSkzsTNmRZvkooRobGiSf6htXiWGtNInT2KuUHZv8NXubrLuZ_v_LkF8Zg6Q9dX8kWxNianT-XpfGQQnRz6CJKc6IpseaM_PI3xZCaYBMhhJou3fBHgOhafdPuEd1NV1wdi_ljuiftcS3uui-cnX9XGMKp1wF_W80?></g></svg>