<svg xmlns="http://www.w3.org/2000/svg" xmlns:xlink="http://www.w3.org/1999/xlink" contentStyleType="text/css" data-diagram-type="CLASS" height="1235px" preserveAspectRatio="none" style="width:4890px;height:1235px;background:#FFFFFF;" version="1.1" viewBox="0 0 4890 1235" width="4890px" zoomAndPan="magnify"><title>Hyperion Parameter Model</title><defs/><g><text fill="#000000" font-family="sans-serif" font-size="14" font-weight="bold" lengthAdjust="spacing" textLength="212.4951" x="2331.7974" y="22.9951">Hyperion Parameter Model</text><!--cluster mx_bluesky.common.parameters--><g class="cluster" data-entity="mx_bluesky.common.parameters" data-source-line="6" data-uid="ent0002" id="cluster_mx_bluesky.common.parameters"><path d="M8.5,43.2969 L269.8125,43.2969 A3.75,3.75 0 0 1 272.3125,45.7969 L279.3125,65.5938 L2993.5,65.5938 A2.5,2.5 0 0 1 2996,68.0938 L2996,1109.2969 A2.5,2.5 0 0 1 2993.5,1111.7969 L8.5,1111.7969 A2.5,2.5 0 0 1 6,1109.2969 L6,45.7969 A2.5,2.5 0 0 1 8.5,43.2969 " fill="none" style="stroke:#000000;stroke-width:1.5;"/><line style="stroke:#000000;stroke-width:1.5;" x1="6" x2="279.3125" y1="65.5938" y2="65.5938"/><text fill="#000000" font-family="sans-serif" font-size="14" font-weight="bold" lengthAdjust="spacing" textLength="260.3125" x="10" y="58.292">mx_bluesky.common.parameters</text></g><!--cluster mx_bluesky.hyperion.parameters--><g class="cluster" data-entity="mx_bluesky.hyperion.parameters" data-source-line="97" data-uid="ent0020" id="cluster_mx_bluesky.hyperion.parameters"><path d="M3022.5,660.4969 L3287.0322,660.4969 A3.75,3.75 0 0 1 3289.5322,662.9969 L3296.5322,682.7937 L4805.5,682.7937 A2.5,2.5 0 0 1 4808,685.2937 L4808,1225.5969 A2.5,2.5 0 0 1 4805.5,1228.0969 L3022.5,1228.0969 A2.5,2.5 0 0 1 3020,1225.5969 L3020,662.9969 A2.5,2.5 0 0 1 3022.5,660.4969 " fill="none" style="stroke:#000000;stroke-width:1.5;"/><line style="stroke:#000000;stroke-width:1.5;" x1="3020" x2="3296.5322" y1="682.7937" y2="682.7937"/><text fill="#000000" font-family="sans-serif" font-size="14" font-weight="bold" lengthAdjust="spacing" textLength="263.5322" x="3024" y="675.492">mx_bluesky.hyperion.parameters</text></g><!--class WithCentreSelection--><g class="entity" data-entity="WithCentreSelection" data-source-line="8" data-uid="ent0003" id="entity_WithCentreSelection"><rect fill="#F1F1F1" height="64.2969" rx="2.5" ry="2.5" style="stroke:#181818;stroke-width:0.5;" width="306.7861" x="2309.61" y="118.8969"/><ellipse cx="2386.8869" cy="134.8969" fill="#ADD1B2" rx="11" ry="11" style="stroke:#181818;stroke-width:1;"/><path d="M2389.8556,140.5375 Q2389.2775,140.8344 2388.6369,140.975 Q2387.9962,141.1312 2387.2931,141.1312 Q2384.7931,141.1312 2383.465,139.4906 Q2382.1525,137.8344 2382.1525,134.7094 Q2382.1525,131.5844 2383.465,129.9281 Q2384.7931,128.2719 2387.2931,128.2719 Q2387.9962,128.2719 2388.6369,128.4281 Q2389.2931,128.5844 2389.8556,128.8812 L2389.8556,131.6 Q2389.2306,131.0219 2388.6369,130.7562 Q2388.0431,130.475 2387.4181,130.475 Q2386.0744,130.475 2385.3869,131.5531 Q2384.6994,132.6156 2384.6994,134.7094 Q2384.6994,136.8031 2385.3869,137.8812 Q2386.0744,138.9437 2387.4181,138.9437 Q2388.0431,138.9437 2388.6369,138.6781 Q2389.2306,138.3969 2389.8556,137.8187 L2389.8556,140.5375 Z " fill="#000000"/><text fill="#000000" font-family="sans-serif" font-size="14" lengthAdjust="spacing" textLength="143.7324" x="2407.3869" y="139.7436">WithCentreSelection</text><line style="stroke:#181818;stroke-width:0.5;" x1="2310.61" x2="2615.3961" y1="150.8969" y2="150.8969"/><text fill="#000000" font-family="sans-serif" font-size="14" lengthAdjust="spacing" textLength="294.7861" x="2315.61" y="167.892">TopNByMaxCountSelection select_centres</text><line style="stroke:#181818;stroke-width:0.5;" x1="2310.61" x2="2615.3961" y1="175.1937" y2="175.1937"/></g><!--class OptionalGonioAngleStarts--><g class="entity" data-entity="OptionalGonioAngleStarts" data-source-line="11" data-uid="ent0004" id="entity_OptionalGonioAngleStarts"><rect fill="#F1F1F1" height="113.1875" rx="2.5" ry="2.5" style="stroke:#181818;stroke-width:0.5;" width="219.3203" x="937.34" y="94.4469"/><ellipse cx="955.0633" cy="110.4469" fill="#ADD1B2" rx="11" ry="11" style="stroke:#181818;stroke-width:1;"/><path d="M958.032,116.0875 Q957.4539,116.3844 956.8133,116.525 Q956.1727,116.6812 955.4695,116.6812 Q952.9695,116.6812 951.6414,115.0406 Q950.3289,113.3844 950.3289,110.2594 Q950.3289,107.1344 951.6414,105.4781 Q952.9695,103.8219 955.4695,103.8219 Q956.1727,103.8219 956.8133,103.9781 Q957.4695,104.1344 958.032,104.4312 L958.032,107.15 Q957.407,106.5719 956.8133,106.3062 Q956.2195,106.025 955.5945,106.025 Q954.2508,106.025 953.5633,107.1031 Q952.8758,108.1656 952.8758,110.2594 Q952.8758,112.3531 953.5633,113.4312 Q954.2508,114.4937 955.5945,114.4937 Q956.2195,114.4937 956.8133,114.2281 Q957.407,113.9469 958.032,113.3687 L958.032,116.0875 Z " fill="#000000"/><text fill="#000000" font-family="sans-serif" font-size="14" lengthAdjust="spacing" textLength="181.2686" x="969.6685" y="115.2936">OptionalGonioAngleStarts</text><line style="stroke:#181818;stroke-width:0.5;" x1="938.34" x2="1155.6603" y1="126.4469" y2="126.4469"/><text fill="#000000" font-family="sans-serif" font-size="14" lengthAdjust="spacing" textLength="207.3203" x="943.34" y="143.442">float | None omega_start_deg</text><text fill="#000000" font-family="sans-serif" font-size="14" lengthAdjust="spacing" textLength="180.6875" x="943.34" y="159.7389">float | None phi_start_deg</text><text fill="#000000" font-family="sans-serif" font-size="14" lengthAdjust="spacing" textLength="179.498" x="943.34" y="176.0357">float | None chi_start_deg</text><text fill="#000000" font-family="sans-serif" font-size="14" lengthAdjust="spacing" textLength="202.0771" x="943.34" y="192.3326">float | None kappa_start_deg</text><line style="stroke:#181818;stroke-width:0.5;" x1="938.34" x2="1155.6603" y1="199.6344" y2="199.6344"/></g><!--class SplitScan--><g class="entity" data-entity="SplitScan" data-source-line="17" data-uid="ent0005" id="entity_SplitScan"><rect fill="#F1F1F1" height="48" rx="2.5" ry="2.5" style="stroke:#181818;stroke-width:0.5;" width="97.0781" x="805.46" y="127.0469"/><ellipse cx="820.46" cy="143.0469" fill="#ADD1B2" rx="11" ry="11" style="stroke:#181818;stroke-width:1;"/><path d="M823.4288,148.6875 Q822.8506,148.9844 822.21,149.125 Q821.5694,149.2813 820.8663,149.2813 Q818.3663,149.2813 817.0381,147.6406 Q815.7256,145.9844 815.7256,142.8594 Q815.7256,139.7344 817.0381,138.0781 Q818.3663,136.4219 820.8663,136.4219 Q821.5694,136.4219 822.21,136.5781 Q822.8663,136.7344 823.4288,137.0313 L823.4288,139.75 Q822.8038,139.1719 822.21,138.9063 Q821.6163,138.625 820.9913,138.625 Q819.6475,138.625 818.96,139.7031 Q818.2725,140.7656 818.2725,142.8594 Q818.2725,144.9531 818.96,146.0313 Q819.6475,147.0938 820.9913,147.0938 Q821.6163,147.0938 822.21,146.8281 Q822.8038,146.5469 823.4288,145.9688 L823.4288,148.6875 Z " fill="#000000"/><text fill="#000000" font-family="sans-serif" font-size="14" lengthAdjust="spacing" textLength="65.0781" x="834.46" y="147.8936">SplitScan</text><line style="stroke:#181818;stroke-width:0.5;" x1="806.46" x2="901.5381" y1="159.0469" y2="159.0469"/><line style="stroke:#181818;stroke-width:0.5;" x1="806.46" x2="901.5381" y1="167.0469" y2="167.0469"/></g><!--class SpecifiedGrid--><g class="entity" data-entity="SpecifiedGrid" data-source-line="19" data-uid="ent0006" id="entity_SpecifiedGrid"><rect fill="#F1F1F1" height="48" rx="2.5" ry="2.5" style="stroke:#181818;stroke-width:0.5;" width="125.6729" x="890.16" y="357.2669"/><ellipse cx="905.16" cy="373.2669" fill="#ADD1B2" rx="11" ry="11" style="stroke:#181818;stroke-width:1;"/><path d="M908.1288,378.9075 Q907.5506,379.2044 906.91,379.345 Q906.2694,379.5012 905.5663,379.5012 Q903.0663,379.5012 901.7381,377.8606 Q900.4256,376.2044 900.4256,373.0794 Q900.4256,369.9544 901.7381,368.2981 Q903.0663,366.6419 905.5663,366.6419 Q906.2694,366.6419 906.91,366.7981 Q907.5663,366.9544 908.1288,367.2512 L908.1288,369.97 Q907.5038,369.3919 906.91,369.1262 Q906.3163,368.845 905.6913,368.845 Q904.3475,368.845 903.66,369.9231 Q902.9725,370.9856 902.9725,373.0794 Q902.9725,375.1731 903.66,376.2512 Q904.3475,377.3137 905.6913,377.3137 Q906.3163,377.3137 906.91,377.0481 Q907.5038,376.7669 908.1288,376.1887 L908.1288,378.9075 Z " fill="#000000"/><text fill="#000000" font-family="sans-serif" font-size="14" lengthAdjust="spacing" textLength="93.6729" x="919.16" y="378.1136">SpecifiedGrid</text><line style="stroke:#181818;stroke-width:0.5;" x1="891.16" x2="1014.8329" y1="389.2669" y2="389.2669"/><line style="stroke:#181818;stroke-width:0.5;" x1="891.16" x2="1014.8329" y1="397.2669" y2="397.2669"/></g><!--class XyzStarts--><g class="entity" data-entity="XyzStarts" data-source-line="21" data-uid="ent0007" id="entity_XyzStarts"><rect fill="#F1F1F1" height="96.8906" rx="2.5" ry="2.5" style="stroke:#181818;stroke-width:0.5;" width="125.3057" x="163.35" y="102.5969"/><ellipse cx="190.3141" cy="118.5969" fill="#ADD1B2" rx="11" ry="11" style="stroke:#181818;stroke-width:1;"/><path d="M193.2829,124.2375 Q192.7047,124.5344 192.0641,124.675 Q191.4235,124.8312 190.7204,124.8312 Q188.2204,124.8312 186.8922,123.1906 Q185.5797,121.5344 185.5797,118.4094 Q185.5797,115.2844 186.8922,113.6281 Q188.2204,111.9719 190.7204,111.9719 Q191.4235,111.9719 192.0641,112.1281 Q192.7204,112.2844 193.2829,112.5812 L193.2829,115.3 Q192.6579,114.7219 192.0641,114.4562 Q191.4704,114.175 190.8454,114.175 Q189.5016,114.175 188.8141,115.2531 Q188.1266,116.3156 188.1266,118.4094 Q188.1266,120.5031 188.8141,121.5812 Q189.5016,122.6437 190.8454,122.6437 Q191.4704,122.6437 192.0641,122.3781 Q192.6579,122.0969 193.2829,121.5187 L193.2829,124.2375 Z " fill="#000000"/><text fill="#000000" font-family="sans-serif" font-size="14" lengthAdjust="spacing" textLength="66.7188" x="206.9728" y="123.4436">XyzStarts</text><line style="stroke:#181818;stroke-width:0.5;" x1="164.35" x2="287.6557" y1="134.5969" y2="134.5969"/><text fill="#000000" font-family="sans-serif" font-size="14" lengthAdjust="spacing" textLength="113.3057" x="169.35" y="151.592">float x_start_um</text><text fill="#000000" font-family="sans-serif" font-size="14" lengthAdjust="spacing" textLength="113.3057" x="169.35" y="167.8889">float y_start_um</text><text fill="#000000" font-family="sans-serif" font-size="14" lengthAdjust="spacing" textLength="112.3691" x="169.35" y="184.1857">float z_start_um</text><line style="stroke:#181818;stroke-width:0.5;" x1="164.35" x2="287.6557" y1="191.4875" y2="191.4875"/></g><!--class WithVisit--><g class="entity" data-entity="WithVisit" data-source-line="26" data-uid="ent0008" id="entity_WithVisit"><rect fill="#F1F1F1" height="129.4844" rx="2.5" ry="2.5" style="stroke:#181818;stroke-width:0.5;" width="271.7861" x="1516.11" y="86.2969"/><ellipse cx="1616.6359" cy="102.2969" fill="#ADD1B2" rx="11" ry="11" style="stroke:#181818;stroke-width:1;"/><path d="M1619.6046,107.9375 Q1619.0265,108.2344 1618.3859,108.375 Q1617.7453,108.5313 1617.0421,108.5313 Q1614.5421,108.5313 1613.214,106.8906 Q1611.9015,105.2344 1611.9015,102.1094 Q1611.9015,98.9844 1613.214,97.3281 Q1614.5421,95.6719 1617.0421,95.6719 Q1617.7453,95.6719 1618.3859,95.8281 Q1619.0421,95.9844 1619.6046,96.2813 L1619.6046,99 Q1618.9796,98.4219 1618.3859,98.1563 Q1617.7921,97.875 1617.1671,97.875 Q1615.8234,97.875 1615.1359,98.9531 Q1614.4484,100.0156 1614.4484,102.1094 Q1614.4484,104.2031 1615.1359,105.2813 Q1615.8234,106.3438 1617.1671,106.3438 Q1617.7921,106.3438 1618.3859,106.0781 Q1618.9796,105.7969 1619.6046,105.2188 L1619.6046,107.9375 Z " fill="#000000"/><text fill="#000000" font-family="sans-serif" font-size="14" lengthAdjust="spacing" textLength="62.2344" x="1637.1359" y="107.1436">WithVisit</text><line style="stroke:#181818;stroke-width:0.5;" x1="1517.11" x2="1786.8961" y1="118.2969" y2="118.2969"/><text fill="#000000" font-family="sans-serif" font-size="14" lengthAdjust="spacing" textLength="87.9717" x="1522.11" y="135.292">str beamline</text><text fill="#000000" font-family="sans-serif" font-size="14" lengthAdjust="spacing" textLength="51.8369" x="1522.11" y="151.5889">str visit</text><text fill="#000000" font-family="sans-serif" font-size="14" lengthAdjust="spacing" textLength="259.7861" x="1522.11" y="167.8857">str det_dist_to_beam_converter_path</text><text fill="#000000" font-family="sans-serif" font-size="14" lengthAdjust="spacing" textLength="131.5918" x="1522.11" y="184.1826">str insertion_prefix</text><text fill="#000000" font-family="sans-serif" font-size="14" lengthAdjust="spacing" textLength="245.752" x="1522.11" y="200.4795">float | None detector_distance_mm</text><line style="stroke:#181818;stroke-width:0.5;" x1="1517.11" x2="1786.8961" y1="207.7813" y2="207.7813"/></g><!--class OptionalXyzStarts--><g class="entity" data-entity="OptionalXyzStarts" data-source-line="33" data-uid="ent0009" id="entity_OptionalXyzStarts"><rect fill="#F1F1F1" height="96.8906" rx="2.5" ry="2.5" style="stroke:#181818;stroke-width:0.5;" width="175.4473" x="1823.28" y="102.5969"/><ellipse cx="1846.1713" cy="118.5969" fill="#ADD1B2" rx="11" ry="11" style="stroke:#181818;stroke-width:1;"/><path d="M1849.14,124.2375 Q1848.5619,124.5344 1847.9213,124.675 Q1847.2806,124.8312 1846.5775,124.8312 Q1844.0775,124.8312 1842.7494,123.1906 Q1841.4369,121.5344 1841.4369,118.4094 Q1841.4369,115.2844 1842.7494,113.6281 Q1844.0775,111.9719 1846.5775,111.9719 Q1847.2806,111.9719 1847.9213,112.1281 Q1848.5775,112.2844 1849.14,112.5812 L1849.14,115.3 Q1848.515,114.7219 1847.9213,114.4562 Q1847.3275,114.175 1846.7025,114.175 Q1845.3588,114.175 1844.6713,115.2531 Q1843.9838,116.3156 1843.9838,118.4094 Q1843.9838,120.5031 1844.6713,121.5812 Q1845.3588,122.6437 1846.7025,122.6437 Q1847.3275,122.6437 1847.9213,122.3781 Q1848.515,122.0969 1849.14,121.5187 L1849.14,124.2375 Z " fill="#000000"/><text fill="#000000" font-family="sans-serif" font-size="14" lengthAdjust="spacing" textLength="125.9111" x="1861.9249" y="123.4436">OptionalXyzStarts</text><line style="stroke:#181818;stroke-width:0.5;" x1="1824.28" x2="1997.7273" y1="134.5969" y2="134.5969"/><text fill="#000000" font-family="sans-serif" font-size="14" lengthAdjust="spacing" textLength="163.4473" x="1829.28" y="151.592">float | None x_start_um</text><text fill="#000000" font-family="sans-serif" font-size="14" lengthAdjust="spacing" textLength="163.4473" x="1829.28" y="167.8889">float | None y_start_um</text><text fill="#000000" font-family="sans-serif" font-size="14" lengthAdjust="spacing" textLength="162.5107" x="1829.28" y="184.1857">float | None z_start_um</text><line style="stroke:#181818;stroke-width:0.5;" x1="1824.28" x2="1997.7273" y1="191.4875" y2="191.4875"/></g><!--class WithScan--><g class="entity" data-entity="WithScan" data-source-line="38" data-uid="ent0010" id="entity_WithScan"><rect fill="#F1F1F1" height="48" rx="2.5" ry="2.5" style="stroke:#181818;stroke-width:0.5;" width="98.1309" x="29.93" y="127.0469"/><ellipse cx="44.93" cy="143.0469" fill="#ADD1B2" rx="11" ry="11" style="stroke:#181818;stroke-width:1;"/><path d="M47.8988,148.6875 Q47.3206,148.9844 46.68,149.125 Q46.0394,149.2813 45.3363,149.2813 Q42.8363,149.2813 41.5081,147.6406 Q40.1956,145.9844 40.1956,142.8594 Q40.1956,139.7344 41.5081,138.0781 Q42.8363,136.4219 45.3363,136.4219 Q46.0394,136.4219 46.68,136.5781 Q47.3363,136.7344 47.8988,137.0313 L47.8988,139.75 Q47.2738,139.1719 46.68,138.9063 Q46.0863,138.625 45.4613,138.625 Q44.1175,138.625 43.43,139.7031 Q42.7425,140.7656 42.7425,142.8594 Q42.7425,144.9531 43.43,146.0313 Q44.1175,147.0938 45.4613,147.0938 Q46.0863,147.0938 46.68,146.8281 Q47.2738,146.5469 47.8988,145.9688 L47.8988,148.6875 Z " fill="#000000"/><text fill="#000000" font-family="sans-serif" font-size="14" lengthAdjust="spacing" textLength="66.1309" x="58.93" y="147.8936">WithScan</text><line style="stroke:#181818;stroke-width:0.5;" x1="30.93" x2="127.0609" y1="159.0469" y2="159.0469"/><line style="stroke:#181818;stroke-width:0.5;" x1="30.93" x2="127.0609" y1="167.0469" y2="167.0469"/></g><!--class WithSnapshot--><g class="entity" data-entity="WithSnapshot" data-source-line="40" data-uid="ent0011" id="entity_WithSnapshot"><rect fill="#F1F1F1" height="80.5938" rx="2.5" ry="2.5" style="stroke:#181818;stroke-width:0.5;" width="289.3477" x="1191.33" y="110.7469"/><ellipse cx="1282.9828" cy="126.7469" fill="#ADD1B2" rx="11" ry="11" style="stroke:#181818;stroke-width:1;"/><path d="M1285.9516,132.3875 Q1285.3735,132.6844 1284.7328,132.825 Q1284.0922,132.9813 1283.3891,132.9813 Q1280.8891,132.9813 1279.561,131.3406 Q1278.2485,129.6844 1278.2485,126.5594 Q1278.2485,123.4344 1279.561,121.7781 Q1280.8891,120.1219 1283.3891,120.1219 Q1284.0922,120.1219 1284.7328,120.2781 Q1285.3891,120.4344 1285.9516,120.7313 L1285.9516,123.45 Q1285.3266,122.8719 1284.7328,122.6063 Q1284.1391,122.325 1283.5141,122.325 Q1282.1703,122.325 1281.4828,123.4031 Q1280.7953,124.4656 1280.7953,126.5594 Q1280.7953,128.6531 1281.4828,129.7313 Q1282.1703,130.7938 1283.5141,130.7938 Q1284.1391,130.7938 1284.7328,130.5281 Q1285.3266,130.2469 1285.9516,129.6688 L1285.9516,132.3875 Z " fill="#000000"/><text fill="#000000" font-family="sans-serif" font-size="14" lengthAdjust="spacing" textLength="97.542" x="1303.4828" y="131.5936">WithSnapshot</text><line style="stroke:#181818;stroke-width:0.5;" x1="1192.33" x2="1479.6777" y1="142.7469" y2="142.7469"/><text fill="#000000" font-family="sans-serif" font-size="14" lengthAdjust="spacing" textLength="169.627" x="1197.33" y="159.742">Path snapshot_directory</text><text fill="#000000" font-family="sans-serif" font-size="14" lengthAdjust="spacing" textLength="277.3477" x="1197.33" y="176.0389">list[float] | None snapshot_omegas_deg</text><line style="stroke:#181818;stroke-width:0.5;" x1="1192.33" x2="1479.6777" y1="183.3406" y2="183.3406"/></g><!--class WithOptionalEnergyChange--><g class="entity" data-entity="WithOptionalEnergyChange" data-source-line="44" data-uid="ent0012" id="entity_WithOptionalEnergyChange"><rect fill="#F1F1F1" height="64.2969" rx="2.5" ry="2.5" style="stroke:#181818;stroke-width:0.5;" width="235.4463" x="323.28" y="118.8969"/><ellipse cx="342.4645" cy="134.8969" fill="#ADD1B2" rx="11" ry="11" style="stroke:#181818;stroke-width:1;"/><path d="M345.4332,140.5375 Q344.8551,140.8344 344.2145,140.975 Q343.5738,141.1312 342.8707,141.1312 Q340.3707,141.1312 339.0426,139.4906 Q337.7301,137.8344 337.7301,134.7094 Q337.7301,131.5844 339.0426,129.9281 Q340.3707,128.2719 342.8707,128.2719 Q343.5738,128.2719 344.2145,128.4281 Q344.8707,128.5844 345.4332,128.8812 L345.4332,131.6 Q344.8082,131.0219 344.2145,130.7562 Q343.6207,130.475 342.9957,130.475 Q341.652,130.475 340.9645,131.5531 Q340.277,132.6156 340.277,134.7094 Q340.277,136.8031 340.9645,137.8812 Q341.652,138.9437 342.9957,138.9437 Q343.6207,138.9437 344.2145,138.6781 Q344.8082,138.3969 345.4332,137.8187 L345.4332,140.5375 Z " fill="#000000"/><text fill="#000000" font-family="sans-serif" font-size="14" lengthAdjust="spacing" textLength="194.1475" x="357.3944" y="139.7436">WithOptionalEnergyChange</text><line style="stroke:#181818;stroke-width:0.5;" x1="324.28" x2="557.7263" y1="150.8969" y2="150.8969"/><text fill="#000000" font-family="sans-serif" font-size="14" lengthAdjust="spacing" textLength="223.4463" x="329.28" y="167.892">float | None demand_energy_ev</text><line style="stroke:#181818;stroke-width:0.5;" x1="324.28" x2="557.7263" y1="175.1937" y2="175.1937"/></g><!--class WithSample--><g class="entity" data-entity="WithSample" data-source-line="47" data-uid="ent0013" id="entity_WithSample"><rect fill="#F1F1F1" height="96.8906" rx="2.5" ry="2.5" style="stroke:#181818;stroke-width:0.5;" width="176.3086" x="593.85" y="102.5969"/><ellipse cx="635.7243" cy="118.5969" fill="#ADD1B2" rx="11" ry="11" style="stroke:#181818;stroke-width:1;"/><path d="M638.6931,124.2375 Q638.1149,124.5344 637.4743,124.675 Q636.8337,124.8312 636.1306,124.8312 Q633.6306,124.8312 632.3024,123.1906 Q630.9899,121.5344 630.9899,118.4094 Q630.9899,115.2844 632.3024,113.6281 Q633.6306,111.9719 636.1306,111.9719 Q636.8337,111.9719 637.4743,112.1281 Q638.1306,112.2844 638.6931,112.5812 L638.6931,115.3 Q638.0681,114.7219 637.4743,114.4562 Q636.8806,114.175 636.2556,114.175 Q634.9118,114.175 634.2243,115.2531 Q633.5368,116.3156 633.5368,118.4094 Q633.5368,120.5031 634.2243,121.5812 Q634.9118,122.6437 636.2556,122.6437 Q636.8806,122.6437 637.4743,122.3781 Q638.0681,122.0969 638.6931,121.5187 L638.6931,124.2375 Z " fill="#000000"/><text fill="#000000" font-family="sans-serif" font-size="14" lengthAdjust="spacing" textLength="84.5879" x="655.6964" y="123.4436">WithSample</text><line style="stroke:#181818;stroke-width:0.5;" x1="594.85" x2="769.1586" y1="134.5969" y2="134.5969"/><text fill="#000000" font-family="sans-serif" font-size="14" lengthAdjust="spacing" textLength="93.3789" x="599.85" y="151.592">int sample_id</text><text fill="#000000" font-family="sans-serif" font-size="14" lengthAdjust="spacing" textLength="164.3086" x="599.85" y="167.8889">int | None sample_puck</text><text fill="#000000" font-family="sans-serif" font-size="14" lengthAdjust="spacing" textLength="152.3936" x="599.85" y="184.1857">int | None sample_pin</text><line style="stroke:#181818;stroke-width:0.5;" x1="594.85" x2="769.1586" y1="191.4875" y2="191.4875"/></g><!--class WithPandaGridScan--><g class="entity" data-entity="WithPandaGridScan" data-source-line="52" data-uid="ent0014" id="entity_WithPandaGridScan"><rect fill="#F1F1F1" height="64.2969" rx="2.5" ry="2.5" style="stroke:#181818;stroke-width:0.5;" width="240.5664" x="2033.72" y="118.8969"/><ellipse cx="2080.3172" cy="134.8969" fill="#ADD1B2" rx="11" ry="11" style="stroke:#181818;stroke-width:1;"/><path d="M2083.2859,140.5375 Q2082.7078,140.8344 2082.0672,140.975 Q2081.4265,141.1312 2080.7234,141.1312 Q2078.2234,141.1312 2076.8953,139.4906 Q2075.5828,137.8344 2075.5828,134.7094 Q2075.5828,131.5844 2076.8953,129.9281 Q2078.2234,128.2719 2080.7234,128.2719 Q2081.4265,128.2719 2082.0672,128.4281 Q2082.7234,128.5844 2083.2859,128.8812 L2083.2859,131.6 Q2082.6609,131.0219 2082.0672,130.7562 Q2081.4734,130.475 2080.8484,130.475 Q2079.5047,130.475 2078.8172,131.5531 Q2078.1297,132.6156 2078.1297,134.7094 Q2078.1297,136.8031 2078.8172,137.8812 Q2079.5047,138.9437 2080.8484,138.9437 Q2081.4734,138.9437 2082.0672,138.6781 Q2082.6609,138.3969 2083.2859,137.8187 L2083.2859,140.5375 Z " fill="#000000"/><text fill="#000000" font-family="sans-serif" font-size="14" lengthAdjust="spacing" textLength="138.8721" x="2100.8172" y="139.7436">WithPandaGridScan</text><line style="stroke:#181818;stroke-width:0.5;" x1="2034.72" x2="2273.2864" y1="150.8969" y2="150.8969"/><text fill="#000000" font-family="sans-serif" font-size="14" lengthAdjust="spacing" textLength="228.5664" x="2039.72" y="167.892">float panda_runup_distance_mm</text><line style="stroke:#181818;stroke-width:0.5;" x1="2034.72" x2="2273.2864" y1="175.1937" y2="175.1937"/></g><!--class MxBlueskyParameters--><g class="entity" data-entity="MxBlueskyParameters" data-source-line="57" data-uid="ent0015" id="entity_MxBlueskyParameters"><rect fill="#F1F1F1" height="64.2969" rx="2.5" ry="2.5" style="stroke:#181818;stroke-width:0.5;" width="317.4639" x="2652.27" y="118.8969"/><ellipse cx="2728.8564" cy="134.8969" fill="#ADD1B2" rx="11" ry="11" style="stroke:#181818;stroke-width:1;"/><path d="M2731.8252,140.5375 Q2731.2471,140.8344 2730.6064,140.975 Q2729.9658,141.1312 2729.2627,141.1312 Q2726.7627,141.1312 2725.4346,139.4906 Q2724.1221,137.8344 2724.1221,134.7094 Q2724.1221,131.5844 2725.4346,129.9281 Q2726.7627,128.2719 2729.2627,128.2719 Q2729.9658,128.2719 2730.6064,128.4281 Q2731.2627,128.5844 2731.8252,128.8812 L2731.8252,131.6 Q2731.2002,131.0219 2730.6064,130.7562 Q2730.0127,130.475 2729.3877,130.475 Q2728.0439,130.475 2727.3564,131.5531 Q2726.6689,132.6156 2726.6689,134.7094 Q2726.6689,136.8031 2727.3564,137.8812 Q2728.0439,138.9437 2729.3877,138.9437 Q2730.0127,138.9437 2730.6064,138.6781 Q2731.2002,138.3969 2731.8252,137.8187 L2731.8252,140.5375 Z " fill="#000000"/><text fill="#000000" font-family="sans-serif" font-size="14" lengthAdjust="spacing" textLength="155.791" x="2749.3564" y="139.7436">MxBlueskyParameters</text><line style="stroke:#181818;stroke-width:0.5;" x1="2653.27" x2="2968.7339" y1="150.8969" y2="150.8969"/><text fill="#000000" font-family="sans-serif" font-size="14" lengthAdjust="spacing" textLength="305.4639" x="2658.27" y="167.892">SemanticVersion parameter_model_version</text><line style="stroke:#181818;stroke-width:0.5;" x1="2653.27" x2="2968.7339" y1="175.1937" y2="175.1937"/></g><!--class SpecifiedThreeDGridScan--><g class="entity" data-entity="SpecifiedThreeDGridScan" data-source-line="60" data-uid="ent0016" id="entity_SpecifiedThreeDGridScan"><rect fill="#F1F1F1" height="227.2656" rx="2.5" ry="2.5" style="stroke:#181818;stroke-width:0.5;" width="210.8965" x="2639.55" y="860.5369"/><ellipse cx="2654.55" cy="876.5369" fill="#ADD1B2" rx="11" ry="11" style="stroke:#181818;stroke-width:1;"/><path d="M2657.5188,882.1775 Q2656.9406,882.4744 2656.3,882.615 Q2655.6594,882.7713 2654.9563,882.7713 Q2652.4563,882.7713 2651.1281,881.1306 Q2649.8156,879.4744 2649.8156,876.3494 Q2649.8156,873.2244 2651.1281,871.5681 Q2652.4563,869.9119 2654.9563,869.9119 Q2655.6594,869.9119 2656.3,870.0681 Q2656.9563,870.2244 2657.5188,870.5213 L2657.5188,873.24 Q2656.8938,872.6619 2656.3,872.3963 Q2655.7063,872.115 2655.0813,872.115 Q2653.7375,872.115 2653.05,873.1931 Q2652.3625,874.2556 2652.3625,876.3494 Q2652.3625,878.4431 2653.05,879.5213 Q2653.7375,880.5838 2655.0813,880.5838 Q2655.7063,880.5838 2656.3,880.3181 Q2656.8938,880.0369 2657.5188,879.4588 L2657.5188,882.1775 Z " fill="#000000"/><text fill="#000000" font-family="sans-serif" font-size="14" lengthAdjust="spacing" textLength="178.8965" x="2668.55" y="881.3836">SpecifiedThreeDGridScan</text><line style="stroke:#181818;stroke-width:0.5;" x1="2640.55" x2="2849.4465" y1="892.5369" y2="892.5369"/><text fill="#000000" font-family="sans-serif" font-size="14" lengthAdjust="spacing" textLength="160.8975" x="2645.55" y="909.532">float grid1_omega_deg</text><text fill="#000000" font-family="sans-serif" font-size="14" lengthAdjust="spacing" textLength="160.8975" x="2645.55" y="925.8289">float grid2_omega_deg</text><text fill="#000000" font-family="sans-serif" font-size="14" lengthAdjust="spacing" textLength="145.127" x="2645.55" y="942.1257">float x_step_size_um</text><text fill="#000000" font-family="sans-serif" font-size="14" lengthAdjust="spacing" textLength="145.127" x="2645.55" y="958.4226">float y_step_size_um</text><text fill="#000000" font-family="sans-serif" font-size="14" lengthAdjust="spacing" textLength="144.1904" x="2645.55" y="974.7195">float z_step_size_um</text><text fill="#000000" font-family="sans-serif" font-size="14" lengthAdjust="spacing" textLength="122.2129" x="2645.55" y="991.0164">float y2_start_um</text><text fill="#000000" font-family="sans-serif" font-size="14" lengthAdjust="spacing" textLength="121.2764" x="2645.55" y="1007.3132">float z2_start_um</text><text fill="#000000" font-family="sans-serif" font-size="14" lengthAdjust="spacing" textLength="75.5645" x="2645.55" y="1023.6101">int x_steps</text><text fill="#000000" font-family="sans-serif" font-size="14" lengthAdjust="spacing" textLength="75.5645" x="2645.55" y="1039.907">int y_steps</text><text fill="#000000" font-family="sans-serif" font-size="14" lengthAdjust="spacing" textLength="74.6279" x="2645.55" y="1056.2039">int z_steps</text><text fill="#000000" font-family="sans-serif" font-size="14" lengthAdjust="spacing" textLength="154.4102" x="2645.55" y="1072.5007">bool _set_stub_offsets</text><line style="stroke:#181818;stroke-width:0.5;" x1="2640.55" x2="2849.4465" y1="1079.8025" y2="1079.8025"/></g><!--class DiffractionExperimentWithSample--><g class="entity" data-entity="DiffractionExperimentWithSample" data-source-line="73" data-uid="ent0017" id="entity_DiffractionExperimentWithSample"><rect fill="#F1F1F1" height="48" rx="2.5" ry="2.5" style="stroke:#181818;stroke-width:0.5;" width="270.8545" x="2670.57" y="546.7569"/><ellipse cx="2685.57" cy="562.7569" fill="#ADD1B2" rx="11" ry="11" style="stroke:#181818;stroke-width:1;"/><path d="M2688.5388,568.3975 Q2687.9606,568.6944 2687.32,568.835 Q2686.6794,568.9912 2685.9763,568.9912 Q2683.4763,568.9912 2682.1481,567.3506 Q2680.8356,565.6944 2680.8356,562.5694 Q2680.8356,559.4444 2682.1481,557.7881 Q2683.4763,556.1319 2685.9763,556.1319 Q2686.6794,556.1319 2687.32,556.2881 Q2687.9763,556.4444 2688.5388,556.7412 L2688.5388,559.46 Q2687.9138,558.8819 2687.32,558.6162 Q2686.7263,558.335 2686.1013,558.335 Q2684.7575,558.335 2684.07,559.4131 Q2683.3825,560.4756 2683.3825,562.5694 Q2683.3825,564.6631 2684.07,565.7412 Q2684.7575,566.8037 2686.1013,566.8037 Q2686.7263,566.8037 2687.32,566.5381 Q2687.9138,566.2569 2688.5388,565.6787 L2688.5388,568.3975 Z " fill="#000000"/><text fill="#000000" font-family="sans-serif" font-size="14" lengthAdjust="spacing" textLength="238.8545" x="2699.57" y="567.6036">DiffractionExperimentWithSample</text><line style="stroke:#181818;stroke-width:0.5;" x1="2671.57" x2="2940.4245" y1="578.7569" y2="578.7569"/><line style="stroke:#181818;stroke-width:0.5;" x1="2671.57" x2="2940.4245" y1="586.7569" y2="586.7569"/></g><!--class DiffractionExperiment--><g class="entity" data-entity="DiffractionExperiment" data-source-line="75" data-uid="ent0018" id="entity_DiffractionExperiment"><rect fill="#F1F1F1" height="210.9688" rx="2.5" ry="2.5" style="stroke:#181818;stroke-width:0.5;" width="332.332" x="2639.83" y="275.7869"/><ellipse cx="2724.6127" cy="291.7869" fill="#ADD1B2" rx="11" ry="11" style="stroke:#181818;stroke-width:1;"/><path d="M2727.5815,297.4275 Q2727.0033,297.7244 2726.3627,297.865 Q2725.7221,298.0213 2725.019,298.0213 Q2722.519,298.0213 2721.1908,296.3806 Q2719.8783,294.7244 2719.8783,291.5994 Q2719.8783,288.4744 2721.1908,286.8181 Q2722.519,285.1619 2725.019,285.1619 Q2725.7221,285.1619 2726.3627,285.3181 Q2727.019,285.4744 2727.5815,285.7713 L2727.5815,288.49 Q2726.9565,287.9119 2726.3627,287.6463 Q2725.769,287.365 2725.144,287.365 Q2723.8002,287.365 2723.1127,288.4431 Q2722.4252,289.5056 2722.4252,291.5994 Q2722.4252,293.6931 2723.1127,294.7713 Q2723.8002,295.8338 2725.144,295.8338 Q2725.769,295.8338 2726.3627,295.5681 Q2726.9565,295.2869 2727.5815,294.7088 L2727.5815,297.4275 Z " fill="#000000"/><text fill="#000000" font-family="sans-serif" font-size="14" lengthAdjust="spacing" textLength="154.2666" x="2745.1127" y="296.6336">DiffractionExperiment</text><line style="stroke:#181818;stroke-width:0.5;" x1="2640.83" x2="2971.162" y1="307.7869" y2="307.7869"/><text fill="#000000" font-family="sans-serif" font-size="14" lengthAdjust="spacing" textLength="91.0137" x="2645.83" y="324.782">str file_name</text><text fill="#000000" font-family="sans-serif" font-size="14" lengthAdjust="spacing" textLength="153.7129" x="2645.83" y="341.0789">float exposure_time_s</text><text fill="#000000" font-family="sans-serif" font-size="14" lengthAdjust="spacing" textLength="89.5029" x="2645.83" y="357.3757">str comment</text><text fill="#000000" font-family="sans-serif" font-size="14" lengthAdjust="spacing" textLength="186.915" x="2645.83" y="373.6726">TriggerMode trigger_mode</text><text fill="#000000" font-family="sans-serif" font-size="14" lengthAdjust="spacing" textLength="157.9854" x="2645.83" y="389.9695">int | None run_number</text><text fill="#000000" font-family="sans-serif" font-size="14" lengthAdjust="spacing" textLength="282.3516" x="2645.83" y="406.2664">ApertureValue | None selected_aperture</text><text fill="#000000" font-family="sans-serif" font-size="14" lengthAdjust="spacing" textLength="159.2979" x="2645.83" y="422.5632">float transmission_frac</text><text fill="#000000" font-family="sans-serif" font-size="14" lengthAdjust="spacing" textLength="320.332" x="2645.83" y="438.8601">IspybExperimentType ispyb_experiment_type</text><text fill="#000000" font-family="sans-serif" font-size="14" lengthAdjust="spacing" textLength="146.1113" x="2645.83" y="455.157">str storage_directory</text><text fill="#000000" font-family="sans-serif" font-size="14" lengthAdjust="spacing" textLength="131.0518" x="2645.83" y="471.4539">bool use_roi_mode</text><line style="stroke:#181818;stroke-width:0.5;" x1="2640.83" x2="2971.162" y1="478.7556" y2="478.7556"/></g><!--class GridCommon--><g class="entity" data-entity="GridCommon" data-source-line="87" data-uid="ent0019" id="entity_GridCommon"><rect fill="#F1F1F1" height="145.7813" rx="2.5" ry="2.5" style="stroke:#181818;stroke-width:0.5;" width="332.332" x="2639.83" y="654.7569"/><ellipse cx="2755.5282" cy="670.7569" fill="#ADD1B2" rx="11" ry="11" style="stroke:#181818;stroke-width:1;"/><path d="M2758.497,676.3975 Q2757.9189,676.6944 2757.2782,676.835 Q2756.6376,676.9912 2755.9345,676.9912 Q2753.4345,676.9912 2752.1064,675.3506 Q2750.7939,673.6944 2750.7939,670.5694 Q2750.7939,667.4444 2752.1064,665.7881 Q2753.4345,664.1319 2755.9345,664.1319 Q2756.6376,664.1319 2757.2782,664.2881 Q2757.9345,664.4444 2758.497,664.7412 L2758.497,667.46 Q2757.872,666.8819 2757.2782,666.6162 Q2756.6845,666.335 2756.0595,666.335 Q2754.7157,666.335 2754.0282,667.4131 Q2753.3407,668.4756 2753.3407,670.5694 Q2753.3407,672.6631 2754.0282,673.7412 Q2754.7157,674.8037 2756.0595,674.8037 Q2756.6845,674.8037 2757.2782,674.5381 Q2757.872,674.2569 2758.497,673.6787 L2758.497,676.3975 Z " fill="#000000"/><text fill="#000000" font-family="sans-serif" font-size="14" lengthAdjust="spacing" textLength="92.4355" x="2776.0282" y="675.6036">GridCommon</text><line style="stroke:#181818;stroke-width:0.5;" x1="2640.83" x2="2971.162" y1="686.7569" y2="686.7569"/><text fill="#000000" font-family="sans-serif" font-size="14" lengthAdjust="spacing" textLength="125.2959" x="2645.83" y="703.752">float box_size_um</text><text fill="#000000" font-family="sans-serif" font-size="14" lengthAdjust="spacing" textLength="138.4209" x="2645.83" y="720.0489">float grid_width_um</text><text fill="#000000" font-family="sans-serif" font-size="14" lengthAdjust="spacing" textLength="153.7129" x="2645.83" y="736.3457">float exposure_time_s</text><text fill="#000000" font-family="sans-serif" font-size="14" lengthAdjust="spacing" textLength="320.332" x="2645.83" y="752.6426">IspybExperimentType ispyb_experiment_type</text><text fill="#000000" font-family="sans-serif" font-size="14" lengthAdjust="spacing" textLength="282.3516" x="2645.83" y="768.9395">ApertureValue | None selected_aperture</text><text fill="#000000" font-family="sans-serif" font-size="14" lengthAdjust="spacing" textLength="130.498" x="2645.83" y="785.2364">float tip_offset_um</text><line style="stroke:#181818;stroke-width:0.5;" x1="2640.83" x2="2971.162" y1="792.5381" y2="792.5381"/></g><!--class GridCommonWithHyperionDetectorParams--><g class="entity" data-entity="GridCommonWithHyperionDetectorParams" data-source-line="98" data-uid="ent0021" id="entity_GridCommonWithHyperionDetectorParams"><rect fill="#F1F1F1" height="48" rx="2.5" ry="2.5" style="stroke:#181818;stroke-width:0.5;" width="333.2188" x="3036.39" y="950.1669"/><ellipse cx="3051.39" cy="966.1669" fill="#ADD1B2" rx="11" ry="11" style="stroke:#181818;stroke-width:1;"/><path d="M3054.3588,971.8075 Q3053.7806,972.1044 3053.14,972.245 Q3052.4994,972.4012 3051.7963,972.4012 Q3049.2963,972.4012 3047.9681,970.7606 Q3046.6556,969.1044 3046.6556,965.9794 Q3046.6556,962.8544 3047.9681,961.1981 Q3049.2963,959.5419 3051.7963,959.5419 Q3052.4994,959.5419 3053.14,959.6981 Q3053.7963,959.8544 3054.3588,960.1512 L3054.3588,962.87 Q3053.7338,962.2919 3053.14,962.0262 Q3052.5463,961.745 3051.9213,961.745 Q3050.5775,961.745 3049.89,962.8231 Q3049.2025,963.8856 3049.2025,965.9794 Q3049.2025,968.0731 3049.89,969.1512 Q3050.5775,970.2137 3051.9213,970.2137 Q3052.5463,970.2137 3053.14,969.9481 Q3053.7338,969.6669 3054.3588,969.0887 L3054.3588,971.8075 Z " fill="#000000"/><text fill="#000000" font-family="sans-serif" font-size="14" lengthAdjust="spacing" textLength="301.2188" x="3065.39" y="971.0136">GridCommonWithHyperionDetectorParams</text><line style="stroke:#181818;stroke-width:0.5;" x1="3037.39" x2="3368.6088" y1="982.1669" y2="982.1669"/><line style="stroke:#181818;stroke-width:0.5;" x1="3037.39" x2="3368.6088" y1="990.1669" y2="990.1669"/></g><!--class WithHyperionUDCFeatures--><g class="entity" data-entity="WithHyperionUDCFeatures" data-source-line="100" data-uid="ent0022" id="entity_WithHyperionUDCFeatures"><rect fill="#F1F1F1" height="64.2969" rx="2.5" ry="2.5" style="stroke:#181818;stroke-width:0.5;" width="228.6719" x="3794.66" y="695.4969"/><ellipse cx="3813.7583" cy="711.4969" fill="#ADD1B2" rx="11" ry="11" style="stroke:#181818;stroke-width:1;"/><path d="M3816.7271,717.1375 Q3816.149,717.4344 3815.5083,717.575 Q3814.8677,717.7312 3814.1646,717.7312 Q3811.6646,717.7312 3810.3365,716.0906 Q3809.024,714.4344 3809.024,711.3094 Q3809.024,708.1844 3810.3365,706.5281 Q3811.6646,704.8719 3814.1646,704.8719 Q3814.8677,704.8719 3815.5083,705.0281 Q3816.1646,705.1844 3816.7271,705.4812 L3816.7271,708.2 Q3816.1021,707.6219 3815.5083,707.3562 Q3814.9146,707.075 3814.2896,707.075 Q3812.9458,707.075 3812.2583,708.1531 Q3811.5708,709.2156 3811.5708,711.3094 Q3811.5708,713.4031 3812.2583,714.4812 Q3812.9458,715.5437 3814.2896,715.5437 Q3814.9146,715.5437 3815.5083,715.2781 Q3816.1021,714.9969 3816.7271,714.4187 L3816.7271,717.1375 Z " fill="#000000"/><text fill="#000000" font-family="sans-serif" font-size="14" lengthAdjust="spacing" textLength="187.5645" x="3828.6691" y="716.3436">WithHyperionUDCFeatures</text><line style="stroke:#181818;stroke-width:0.5;" x1="3795.66" x2="4022.3319" y1="727.4969" y2="727.4969"/><text fill="#000000" font-family="sans-serif" font-size="14" lengthAdjust="spacing" textLength="216.6719" x="3800.66" y="744.492">HyperionFeatureFlags features</text><line style="stroke:#181818;stroke-width:0.5;" x1="3795.66" x2="4022.3319" y1="751.7937" y2="751.7937"/></g><!--class LoadCentreCollect--><g class="entity" data-entity="LoadCentreCollect" data-source-line="103" data-uid="ent0023" id="entity_LoadCentreCollect"><rect fill="#F1F1F1" height="80.5938" rx="2.5" ry="2.5" style="stroke:#181818;stroke-width:0.5;" width="338.6211" x="4453.69" y="933.8669"/><ellipse cx="4554.315" cy="949.8669" fill="#ADD1B2" rx="11" ry="11" style="stroke:#181818;stroke-width:1;"/><path d="M4557.2838,955.5075 Q4556.7056,955.8044 4556.065,955.945 Q4555.4244,956.1012 4554.7213,956.1012 Q4552.2213,956.1012 4550.8931,954.4606 Q4549.5806,952.8044 4549.5806,949.6794 Q4549.5806,946.5544 4550.8931,944.8981 Q4552.2213,943.2419 4554.7213,943.2419 Q4555.4244,943.2419 4556.065,943.3981 Q4556.7213,943.5544 4557.2838,943.8512 L4557.2838,946.57 Q4556.6588,945.9919 4556.065,945.7262 Q4555.4713,945.445 4554.8463,945.445 Q4553.5025,945.445 4552.815,946.5231 Q4552.1275,947.5856 4552.1275,949.6794 Q4552.1275,951.7731 4552.815,952.8512 Q4553.5025,953.9137 4554.8463,953.9137 Q4555.4713,953.9137 4556.065,953.6481 Q4556.6588,953.3669 4557.2838,952.7887 L4557.2838,955.5075 Z " fill="#000000"/><text fill="#000000" font-family="sans-serif" font-size="14" lengthAdjust="spacing" textLength="128.8711" x="4574.815" y="954.7136">LoadCentreCollect</text><line style="stroke:#181818;stroke-width:0.5;" x1="4454.69" x2="4791.3111" y1="965.8669" y2="965.8669"/><text fill="#000000" font-family="sans-serif" font-size="14" lengthAdjust="spacing" textLength="326.6211" x="4459.69" y="982.862">RobotLoadThenCentre robot_load_then_centre</text><text fill="#000000" font-family="sans-serif" font-size="14" lengthAdjust="spacing" textLength="269.3154" x="4459.69" y="999.1589">MultiRotationScan multi_rotation_scan</text><line style="stroke:#181818;stroke-width:0.5;" x1="4454.69" x2="4791.3111" y1="1006.4606" y2="1006.4606"/></g><!--class RotationScan--><g class="entity" data-entity="RotationScan" data-source-line="107" data-uid="ent0024" id="entity_RotationScan"><rect fill="#F1F1F1" height="48" rx="2.5" ry="2.5" style="stroke:#181818;stroke-width:0.5;" width="125.2148" x="3508.39" y="1155.9469"/><ellipse cx="3523.39" cy="1171.9469" fill="#ADD1B2" rx="11" ry="11" style="stroke:#181818;stroke-width:1;"/><path d="M3526.3588,1177.5875 Q3525.7806,1177.8844 3525.14,1178.025 Q3524.4994,1178.1812 3523.7963,1178.1812 Q3521.2963,1178.1812 3519.9681,1176.5406 Q3518.6556,1174.8844 3518.6556,1171.7594 Q3518.6556,1168.6344 3519.9681,1166.9781 Q3521.2963,1165.3219 3523.7963,1165.3219 Q3524.4994,1165.3219 3525.14,1165.4781 Q3525.7963,1165.6344 3526.3588,1165.9312 L3526.3588,1168.65 Q3525.7338,1168.0719 3525.14,1167.8062 Q3524.5463,1167.525 3523.9213,1167.525 Q3522.5775,1167.525 3521.89,1168.6031 Q3521.2025,1169.6656 3521.2025,1171.7594 Q3521.2025,1173.8531 3521.89,1174.9312 Q3522.5775,1175.9937 3523.9213,1175.9937 Q3524.5463,1175.9937 3525.14,1175.7281 Q3525.7338,1175.4469 3526.3588,1174.8687 L3526.3588,1177.5875 Z " fill="#000000"/><text fill="#000000" font-family="sans-serif" font-size="14" lengthAdjust="spacing" textLength="93.2148" x="3537.39" y="1176.7936">RotationScan</text><line style="stroke:#181818;stroke-width:0.5;" x1="3509.39" x2="3632.6048" y1="1187.9469" y2="1187.9469"/><line style="stroke:#181818;stroke-width:0.5;" x1="3509.39" x2="3632.6048" y1="1195.9469" y2="1195.9469"/></g><!--class RotationScanPerSweep--><g class="entity" data-entity="RotationScanPerSweep" data-source-line="109" data-uid="ent0025" id="entity_RotationScanPerSweep"><rect fill="#F1F1F1" height="129.4844" rx="2.5" ry="2.5" style="stroke:#181818;stroke-width:0.5;" width="263.0498" x="4081.48" y="909.4269"/><ellipse cx="4127.5166" cy="925.4269" fill="#ADD1B2" rx="11" ry="11" style="stroke:#181818;stroke-width:1;"/><path d="M4130.4854,931.0675 Q4129.9072,931.3644 4129.2666,931.505 Q4128.626,931.6612 4127.9229,931.6612 Q4125.4229,931.6612 4124.0947,930.0206 Q4122.7822,928.3644 4122.7822,925.2394 Q4122.7822,922.1144 4124.0947,920.4581 Q4125.4229,918.8019 4127.9229,918.8019 Q4128.626,918.8019 4129.2666,918.9581 Q4129.9229,919.1144 4130.4854,919.4112 L4130.4854,922.13 Q4129.8604,921.5519 4129.2666,921.2862 Q4128.6729,921.005 4128.0479,921.005 Q4126.7041,921.005 4126.0166,922.0831 Q4125.3291,923.1456 4125.3291,925.2394 Q4125.3291,927.3331 4126.0166,928.4112 Q4126.7041,929.4737 4128.0479,929.4737 Q4128.6729,929.4737 4129.2666,929.2081 Q4129.8604,928.9269 4130.4854,928.3487 L4130.4854,931.0675 Z " fill="#000000"/><text fill="#000000" font-family="sans-serif" font-size="14" lengthAdjust="spacing" textLength="162.4766" x="4148.0166" y="930.2736">RotationScanPerSweep</text><line style="stroke:#181818;stroke-width:0.5;" x1="4082.48" x2="4343.5298" y1="941.4269" y2="941.4269"/><text fill="#000000" font-family="sans-serif" font-size="14" lengthAdjust="spacing" textLength="157.1787" x="4087.48" y="958.422">float omega_start_deg</text><text fill="#000000" font-family="sans-serif" font-size="14" lengthAdjust="spacing" textLength="182.9297" x="4087.48" y="974.7189">RotationAxis rotation_axis</text><text fill="#000000" font-family="sans-serif" font-size="14" lengthAdjust="spacing" textLength="147.3213" x="4087.48" y="991.0157">float scan_width_deg</text><text fill="#000000" font-family="sans-serif" font-size="14" lengthAdjust="spacing" textLength="251.0498" x="4087.48" y="1007.3126">RotationDirection rotation_direction</text><text fill="#000000" font-family="sans-serif" font-size="14" lengthAdjust="spacing" textLength="169.1279" x="4087.48" y="1023.6095">int nexus_vds_start_img</text><line style="stroke:#181818;stroke-width:0.5;" x1="4082.48" x2="4343.5298" y1="1030.9112" y2="1030.9112"/></g><!--class MultiRotationScan--><g class="entity" data-entity="MultiRotationScan" data-source-line="116" data-uid="ent0026" id="entity_MultiRotationScan"><rect fill="#F1F1F1" height="64.2969" rx="2.5" ry="2.5" style="stroke:#181818;stroke-width:0.5;" width="540.001" x="4243" y="1147.7969"/><ellipse cx="4445.0327" cy="1163.7969" fill="#ADD1B2" rx="11" ry="11" style="stroke:#181818;stroke-width:1;"/><path d="M4448.0015,1169.4375 Q4447.4233,1169.7344 4446.7827,1169.875 Q4446.1421,1170.0313 4445.439,1170.0313 Q4442.939,1170.0313 4441.6108,1168.3906 Q4440.2983,1166.7344 4440.2983,1163.6094 Q4440.2983,1160.4844 4441.6108,1158.8281 Q4442.939,1157.1719 4445.439,1157.1719 Q4446.1421,1157.1719 4446.7827,1157.3281 Q4447.439,1157.4844 4448.0015,1157.7813 L4448.0015,1160.5 Q4447.3765,1159.9219 4446.7827,1159.6563 Q4446.189,1159.375 4445.564,1159.375 Q4444.2202,1159.375 4443.5327,1160.4531 Q4442.8452,1161.5156 4442.8452,1163.6094 Q4442.8452,1165.7031 4443.5327,1166.7813 Q4444.2202,1167.8438 4445.564,1167.8438 Q4446.189,1167.8438 4446.7827,1167.5781 Q4447.3765,1167.2969 4448.0015,1166.7188 L4448.0015,1169.4375 Z " fill="#000000"/><text fill="#000000" font-family="sans-serif" font-size="14" lengthAdjust="spacing" textLength="127.4355" x="4465.5327" y="1168.6436">MultiRotationScan</text><line style="stroke:#181818;stroke-width:0.5;" x1="4244" x2="4782.001" y1="1179.7969" y2="1179.7969"/><line style="stroke:#181818;stroke-width:0.5;" x1="4244" x2="4782.001" y1="1187.7969" y2="1187.7969"/><text fill="#000000" font-family="sans-serif" font-size="14" lengthAdjust="spacing" textLength="528.001" x="4249" y="1204.792">Annotated[list[RotationScanPerSweep], Len(min_length=1)] rotation_scans</text></g><!--class GridScanWithEdgeDetect--><g class="entity" data-entity="GridScanWithEdgeDetect" data-source-line="119" data-uid="ent0027" id="entity_GridScanWithEdgeDetect"><rect fill="#F1F1F1" height="48" rx="2.5" ry="2.5" style="stroke:#181818;stroke-width:0.5;" width="209.4268" x="3702.29" y="1155.9469"/><ellipse cx="3717.29" cy="1171.9469" fill="#ADD1B2" rx="11" ry="11" style="stroke:#181818;stroke-width:1;"/><path d="M3720.2588,1177.5875 Q3719.6806,1177.8844 3719.04,1178.025 Q3718.3994,1178.1812 3717.6963,1178.1812 Q3715.1963,1178.1812 3713.8681,1176.5406 Q3712.5556,1174.8844 3712.5556,1171.7594 Q3712.5556,1168.6344 3713.8681,1166.9781 Q3715.1963,1165.3219 3717.6963,1165.3219 Q3718.3994,1165.3219 3719.04,1165.4781 Q3719.6963,1165.6344 3720.2588,1165.9312 L3720.2588,1168.65 Q3719.6338,1168.0719 3719.04,1167.8062 Q3718.4463,1167.525 3717.8213,1167.525 Q3716.4775,1167.525 3715.79,1168.6031 Q3715.1025,1169.6656 3715.1025,1171.7594 Q3715.1025,1173.8531 3715.79,1174.9312 Q3716.4775,1175.9937 3717.8213,1175.9937 Q3718.4463,1175.9937 3719.04,1175.7281 Q3719.6338,1175.4469 3720.2588,1174.8687 L3720.2588,1177.5875 Z " fill="#000000"/><text fill="#000000" font-family="sans-serif" font-size="14" lengthAdjust="spacing" textLength="177.4268" x="3731.29" y="1176.7936">GridScanWithEdgeDetect</text><line style="stroke:#181818;stroke-width:0.5;" x1="3703.29" x2="3910.7168" y1="1187.9469" y2="1187.9469"/><line style="stroke:#181818;stroke-width:0.5;" x1="3703.29" x2="3910.7168" y1="1195.9469" y2="1195.9469"/></g><!--class HyperionSpecifiedThreeDGridScan--><g class="entity" data-entity="HyperionSpecifiedThreeDGridScan" data-source-line="121" data-uid="ent0028" id="entity_HyperionSpecifiedThreeDGridScan"><rect fill="#F1F1F1" height="48" rx="2.5" ry="2.5" style="stroke:#181818;stroke-width:0.5;" width="274.293" x="3771.85" y="950.1669"/><ellipse cx="3786.85" cy="966.1669" fill="#ADD1B2" rx="11" ry="11" style="stroke:#181818;stroke-width:1;"/><path d="M3789.8188,971.8075 Q3789.2406,972.1044 3788.6,972.245 Q3787.9594,972.4012 3787.2563,972.4012 Q3784.7563,972.4012 3783.4281,970.7606 Q3782.1156,969.1044 3782.1156,965.9794 Q3782.1156,962.8544 3783.4281,961.1981 Q3784.7563,959.5419 3787.2563,959.5419 Q3787.9594,959.5419 3788.6,959.6981 Q3789.2563,959.8544 3789.8188,960.1512 L3789.8188,962.87 Q3789.1938,962.2919 3788.6,962.0262 Q3788.0063,961.745 3787.3813,961.745 Q3786.0375,961.745 3785.35,962.8231 Q3784.6625,963.8856 3784.6625,965.9794 Q3784.6625,968.0731 3785.35,969.1512 Q3786.0375,970.2137 3787.3813,970.2137 Q3788.0063,970.2137 3788.6,969.9481 Q3789.1938,969.6669 3789.8188,969.0887 L3789.8188,971.8075 Z " fill="#000000"/><text fill="#000000" font-family="sans-serif" font-size="14" lengthAdjust="spacing" textLength="242.293" x="3800.85" y="971.0136">HyperionSpecifiedThreeDGridScan</text><line style="stroke:#181818;stroke-width:0.5;" x1="3772.85" x2="4045.143" y1="982.1669" y2="982.1669"/><line style="stroke:#181818;stroke-width:0.5;" x1="3772.85" x2="4045.143" y1="990.1669" y2="990.1669"/></g><!--class PinTipCentreThenXrayCentre--><g class="entity" data-entity="PinTipCentreThenXrayCentre" data-source-line="123" data-uid="ent0029" id="entity_PinTipCentreThenXrayCentre"><rect fill="#F1F1F1" height="64.2969" rx="2.5" ry="2.5" style="stroke:#181818;stroke-width:0.5;" width="235.8955" x="3964.05" y="1147.7969"/><ellipse cx="3979.05" cy="1163.7969" fill="#ADD1B2" rx="11" ry="11" style="stroke:#181818;stroke-width:1;"/><path d="M3982.0188,1169.4375 Q3981.4406,1169.7344 3980.8,1169.875 Q3980.1594,1170.0313 3979.4563,1170.0313 Q3976.9563,1170.0313 3975.6281,1168.3906 Q3974.3156,1166.7344 3974.3156,1163.6094 Q3974.3156,1160.4844 3975.6281,1158.8281 Q3976.9563,1157.1719 3979.4563,1157.1719 Q3980.1594,1157.1719 3980.8,1157.3281 Q3981.4563,1157.4844 3982.0188,1157.7813 L3982.0188,1160.5 Q3981.3938,1159.9219 3980.8,1159.6563 Q3980.2063,1159.375 3979.5813,1159.375 Q3978.2375,1159.375 3977.55,1160.4531 Q3976.8625,1161.5156 3976.8625,1163.6094 Q3976.8625,1165.7031 3977.55,1166.7813 Q3978.2375,1167.8438 3979.5813,1167.8438 Q3980.2063,1167.8438 3980.8,1167.5781 Q3981.3938,1167.2969 3982.0188,1166.7188 L3982.0188,1169.4375 Z " fill="#000000"/><text fill="#000000" font-family="sans-serif" font-size="14" lengthAdjust="spacing" textLength="203.8955" x="3993.05" y="1168.6436">PinTipCentreThenXrayCentre</text><line style="stroke:#181818;stroke-width:0.5;" x1="3965.05" x2="4198.9455" y1="1179.7969" y2="1179.7969"/><text fill="#000000" font-family="sans-serif" font-size="14" lengthAdjust="spacing" textLength="130.498" x="3970.05" y="1196.792">float tip_offset_um</text><line style="stroke:#181818;stroke-width:0.5;" x1="3965.05" x2="4198.9455" y1="1204.0938" y2="1204.0938"/></g><!--class RotationExperiment--><g class="entity" data-entity="RotationExperiment" data-source-line="126" data-uid="ent0030" id="entity_RotationExperiment"><rect fill="#F1F1F1" height="96.8906" rx="2.5" ry="2.5" style="stroke:#181818;stroke-width:0.5;" width="332.332" x="3404.83" y="925.7269"/><ellipse cx="3496.7118" cy="941.7269" fill="#ADD1B2" rx="11" ry="11" style="stroke:#181818;stroke-width:1;"/><path d="M3499.6806,947.3675 Q3499.1025,947.6644 3498.4618,947.805 Q3497.8212,947.9613 3497.1181,947.9613 Q3494.6181,947.9613 3493.29,946.3206 Q3491.9775,944.6644 3491.9775,941.5394 Q3491.9775,938.4144 3493.29,936.7581 Q3494.6181,935.1019 3497.1181,935.1019 Q3497.8212,935.1019 3498.4618,935.2581 Q3499.1181,935.4144 3499.6806,935.7113 L3499.6806,938.43 Q3499.0556,937.8519 3498.4618,937.5863 Q3497.8681,937.305 3497.2431,937.305 Q3495.8993,937.305 3495.2118,938.3831 Q3494.5243,939.4456 3494.5243,941.5394 Q3494.5243,943.6331 3495.2118,944.7113 Q3495.8993,945.7738 3497.2431,945.7738 Q3497.8681,945.7738 3498.4618,945.5081 Q3499.0556,945.2269 3499.6806,944.6488 L3499.6806,947.3675 Z " fill="#000000"/><text fill="#000000" font-family="sans-serif" font-size="14" lengthAdjust="spacing" textLength="140.0684" x="3517.2118" y="946.5736">RotationExperiment</text><line style="stroke:#181818;stroke-width:0.5;" x1="3405.83" x2="3736.162" y1="957.7269" y2="957.7269"/><text fill="#000000" font-family="sans-serif" font-size="14" lengthAdjust="spacing" textLength="202.8018" x="3410.83" y="974.722">float shutter_opening_time_s</text><text fill="#000000" font-family="sans-serif" font-size="14" lengthAdjust="spacing" textLength="202.9385" x="3410.83" y="991.0189">float rotation_increment_deg</text><text fill="#000000" font-family="sans-serif" font-size="14" lengthAdjust="spacing" textLength="320.332" x="3410.83" y="1007.3157">IspybExperimentType ispyb_experiment_type</text><line style="stroke:#181818;stroke-width:0.5;" x1="3405.83" x2="3736.162" y1="1014.6175" y2="1014.6175"/></g><!--reverse link GridCommon to GridCommonWithHyperionDetectorParams--><g class="link" data-entity-1="GridCommon" data-entity-2="GridCommonWithHyperionDetectorParams" data-source-line="132" data-uid="lnk31" id="link_GridCommon_GridCommonWithHyperionDetectorParams"><path codeLine="132" d="M2938.8257,810.4573 C3020.9057,861.0173 3109.97,915.8669 3165.03,949.7769 " fill="none" id="GridCommon-backto-GridCommonWithHyperionDetectorParams" style="stroke:#181818;stroke-width:1;"/><polygon fill="none" points="2923.5,801.0169,2935.6789,815.5659,2941.9726,805.3487,2923.5,801.0169" style="stroke:#181818;stroke-width:1;"/></g><!--reverse link WithHyperionUDCFeatures to GridCommonWithHyperionDetectorParams--><g class="link" data-entity-1="WithHyperionUDCFeatures" data-entity-2="GridCommonWithHyperionDetectorParams" data-source-line="133" data-uid="lnk32" id="link_WithHyperionUDCFeatures_GridCommonWithHyperionDetectorParams"><path codeLine="133" d="M3776.6194,750.5761 C3668.6594,770.5161 3521.61,803.8769 3387,860.5369 C3330.04,884.5069 3270.07,924.3669 3234.63,949.6769 " fill="none" id="WithHyperionUDCFeatures-backto-GridCommonWithHyperionDetectorParams" style="stroke:#181818;stroke-width:1;"/><polygon fill="none" points="3794.32,747.3069,3775.5296,744.6759,3777.7091,756.4764,3794.32,747.3069" style="stroke:#181818;stroke-width:1;"/></g><!--reverse link WithPandaGridScan to WithHyperionUDCFeatures--><g class="link" data-entity-1="WithPandaGridScan" data-entity-2="WithHyperionUDCFeatures" data-source-line="134" data-uid="lnk33" id="link_WithPandaGridScan_WithHyperionUDCFeatures"><path codeLine="134" d="M2225.3255,191.7047 C2249.8655,204.1047 2263.53,208.8869 2292,215.7869 C2444.73,252.7669 3574.79,187.8169 3705,275.7869 C3852.9,375.7069 3895.1,610.3669 3905.75,695.2769 " fill="none" id="WithPandaGridScan-backto-WithHyperionUDCFeatures" style="stroke:#181818;stroke-width:1;"/><polygon fill="none" points="2209.26,183.5869,2222.6196,197.0599,2228.0315,186.3496,2209.26,183.5869" style="stroke:#181818;stroke-width:1;"/></g><!--reverse link MxBlueskyParameters to LoadCentreCollect--><g class="link" data-entity-1="MxBlueskyParameters" data-entity-2="LoadCentreCollect" data-source-line="135" data-uid="lnk34" id="link_MxBlueskyParameters_LoadCentreCollect"><path codeLine="135" d="M2987.8906,157.4888 C3423.8206,171.5888 4592.01,214.8269 4649,275.7869 C4823.59,462.5269 4692.72,815.1969 4641.31,933.4069 " fill="none" id="MxBlueskyParameters-backto-LoadCentreCollect" style="stroke:#181818;stroke-width:1;"/><polygon fill="none" points="2969.9,156.9069,2987.6966,163.4856,2988.0846,151.4919,2969.9,156.9069" style="stroke:#181818;stroke-width:1;"/></g><!--reverse link WithVisit to LoadCentreCollect--><g class="link" data-entity-1="WithVisit" data-entity-2="LoadCentreCollect" data-source-line="136" data-uid="lnk35" id="link_WithVisit_LoadCentreCollect"><path codeLine="136" d="M1805.378,216.1595 C1811.388,217.8495 1800.06,214.4869 1806,215.7869 C1979.81,253.7369 3249.57,191.0469 3406,275.7869 C3657.15,411.8269 3530.39,656.4369 3777,800.5369 C4002.67,932.3869 4109.07,794.6569 4362,860.5369 C4427.07,877.4869 4496.81,908.2969 4547.81,933.4169 " fill="none" id="WithVisit-backto-LoadCentreCollect" style="stroke:#181818;stroke-width:1;"/><polygon fill="none" points="1788.05,211.2869,1803.7538,221.9354,1807.0021,210.3835,1788.05,211.2869" style="stroke:#181818;stroke-width:1;"/></g><!--reverse link WithSample to LoadCentreCollect--><g class="link" data-entity-1="WithSample" data-entity-2="LoadCentreCollect" data-source-line="137" data-uid="lnk36" id="link_WithSample_LoadCentreCollect"><path codeLine="137" d="M766.2209,208.4202 C778.2909,214.8602 775.22,212.0469 788,215.7869 C1022.72,284.3769 2758.82,190.4969 2988,275.7869 C3333.38,404.3069 3288.25,662.6369 3630,800.5369 C3932.71,922.6769 4045.29,781.4869 4362,860.5369 C4427.6,876.9069 4497.74,908.0169 4548.77,933.3969 " fill="none" id="WithSample-backto-LoadCentreCollect" style="stroke:#181818;stroke-width:1;"/><polygon fill="none" points="750.34,199.9469,763.3965,213.7138,769.0453,203.1266,750.34,199.9469" style="stroke:#181818;stroke-width:1;"/></g><!--reverse link WithCentreSelection to LoadCentreCollect--><g class="link" data-entity-1="WithCentreSelection" data-entity-2="LoadCentreCollect" data-source-line="138" data-uid="lnk37" id="link_WithCentreSelection_LoadCentreCollect"><path codeLine="138" d="M2544.116,190.7138 C2572.916,203.1938 2591.17,208.9969 2624,215.7869 C2730.36,237.7669 4499.92,200.2969 4578,275.7869 C4672.09,366.7569 4639.55,799.7169 4626.99,933.6169 " fill="none" id="WithCentreSelection-backto-LoadCentreCollect" style="stroke:#181818;stroke-width:1;"/><polygon fill="none" points="2527.6,183.5569,2541.7304,196.2191,2546.5016,185.2085,2527.6,183.5569" style="stroke:#181818;stroke-width:1;"/></g><!--reverse link WithHyperionUDCFeatures to LoadCentreCollect--><g class="link" data-entity-1="WithHyperionUDCFeatures" data-entity-2="LoadCentreCollect" data-source-line="139" data-uid="lnk38" id="link_WithHyperionUDCFeatures_LoadCentreCollect"><path codeLine="139" d="M4041.412,751.9475 C4148.302,772.6375 4293.18,806.2369 4427,860.5369 C4475.19,880.0869 4526,909.5669 4563.81,933.4669 " fill="none" id="WithHyperionUDCFeatures-backto-LoadCentreCollect" style="stroke:#181818;stroke-width:1;"/><polygon fill="none" points="4023.74,748.5269,4040.2718,757.8382,4042.5522,746.0569,4023.74,748.5269" style="stroke:#181818;stroke-width:1;"/></g><!--reverse link WithScan to RotationScan--><g class="link" data-entity-1="WithScan" data-entity-2="RotationScan" data-source-line="140" data-uid="lnk39" id="link_WithScan_RotationScan"><path codeLine="140" d="M113.5187,188.5725 C189.2987,269.0625 421,519.0869 421,569.7569 C421,569.7569 421,569.7569 421,728.6469 C421,1052.5069 3064.12,1160.8869 3508.08,1176.8069 " fill="none" id="WithScan-backto-RotationScan" style="stroke:#181818;stroke-width:1;"/><polygon fill="none" points="101.18,175.4669,109.1502,192.6854,117.8872,184.4596,101.18,175.4669" style="stroke:#181818;stroke-width:1;"/></g><!--reverse link RotationScanPerSweep to RotationScan--><g class="link" data-entity-1="RotationScanPerSweep" data-entity-2="RotationScan" data-source-line="141" data-uid="lnk40" id="link_RotationScanPerSweep_RotationScan"><path codeLine="141" d="M4153.0684,1052.777 C4126.7984,1082.717 4103.46,1102.0769 4064,1119.7969 C3986.96,1154.3969 3768.23,1133.4969 3685,1147.7969 C3668.22,1150.6869 3650.33,1154.9769 3633.83,1159.4569 " fill="none" id="RotationScanPerSweep-backto-RotationScan" style="stroke:#181818;stroke-width:1;"/><polygon fill="none" points="4164.94,1039.2469,4148.5583,1048.8198,4157.5784,1056.7342,4164.94,1039.2469" style="stroke:#181818;stroke-width:1;"/></g><!--reverse link RotationExperiment to RotationScan--><g class="link" data-entity-1="RotationExperiment" data-entity-2="RotationScan" data-source-line="142" data-uid="lnk41" id="link_RotationExperiment_RotationScan"><path codeLine="142" d="M3571,1040.9469 C3571,1082.7069 3571,1123.5569 3571,1155.7169 " fill="none" id="RotationExperiment-backto-RotationScan" style="stroke:#181818;stroke-width:1;"/><polygon fill="none" points="3571,1022.9469,3565,1040.9469,3577,1040.9469,3571,1022.9469" style="stroke:#181818;stroke-width:1;"/></g><!--reverse link OptionalGonioAngleStarts to RotationScanPerSweep--><g class="link" data-entity-1="OptionalGonioAngleStarts" data-entity-2="RotationScanPerSweep" data-source-line="143" data-uid="lnk42" id="link_OptionalGonioAngleStarts_RotationScanPerSweep"><path codeLine="143" d="M1166.3935,214.3648 C1174.5235,217.3848 1165.86,213.7369 1174,215.7869 C1655.24,336.6269 2929.3,138.1069 3406,275.7869 C3721.26,366.8369 3814.02,415.5069 4041,652.4969 C4113.1,727.7769 4163.71,839.2269 4190.58,908.9569 " fill="none" id="OptionalGonioAngleStarts-backto-RotationScanPerSweep" style="stroke:#181818;stroke-width:1;"/><polygon fill="none" points="1149.52,208.0969,1164.3042,219.9892,1168.4828,208.7403,1149.52,208.0969" style="stroke:#181818;stroke-width:1;"/></g><!--reverse link OptionalXyzStarts to RotationScanPerSweep--><g class="link" data-entity-1="OptionalXyzStarts" data-entity-2="RotationScanPerSweep" data-source-line="144" data-uid="lnk43" id="link_OptionalXyzStarts_RotationScanPerSweep"><path codeLine="144" d="M1994.8293,208.5191 C2006.6993,214.9091 2003.44,212.0169 2016,215.7869 C2185.01,266.5269 3461.91,169.8069 3603,275.7869 C3799.46,423.3469 3593.63,636.9769 3777,800.5369 C3874.25,887.2769 3945.37,806.6069 4064,860.5369 C4091.31,872.9469 4118.33,891.0969 4141.72,909.2169 " fill="none" id="OptionalXyzStarts-backto-RotationScanPerSweep" style="stroke:#181818;stroke-width:1;"/><polygon fill="none" points="1978.98,199.9869,1991.9853,213.8022,1997.6734,203.236,1978.98,199.9869" style="stroke:#181818;stroke-width:1;"/></g><!--reverse link RotationExperiment to MultiRotationScan--><g class="link" data-entity-1="RotationExperiment" data-entity-2="MultiRotationScan" data-source-line="145" data-uid="lnk44" id="link_RotationExperiment_MultiRotationScan"><path codeLine="145" d="M3627.708,1035.3738 C3661.978,1069.0538 3699.9,1099.1469 3754,1119.7969 C3850.3,1156.5569 4114.27,1139.2969 4217,1147.7969 C4225.5,1148.5069 4234.13,1149.2469 4242.84,1150.0169 " fill="none" id="RotationExperiment-backto-MultiRotationScan" style="stroke:#181818;stroke-width:1;"/><polygon fill="none" points="3614.87,1022.7569,3623.5023,1039.6531,3631.9136,1031.0945,3614.87,1022.7569" style="stroke:#181818;stroke-width:1;"/></g><!--reverse link SplitScan to MultiRotationScan--><g class="link" data-entity-1="SplitScan" data-entity-2="MultiRotationScan" data-source-line="146" data-uid="lnk45" id="link_SplitScan_MultiRotationScan"><path codeLine="146" d="M882.1508,189.3279 C894.0608,203.8579 900.02,207.3969 920,215.7869 C1148.96,311.8969 2909.84,230.5569 3154,275.7869 C3921.48,417.9369 4359.23,223.3169 4810,860.5369 C4876.55,954.6069 4883.09,1030.7169 4810,1119.7969 C4800.87,1130.9269 4782.06,1139.9969 4758.13,1147.3869 " fill="none" id="SplitScan-backto-MultiRotationScan" style="stroke:#181818;stroke-width:1;"/><polygon fill="none" points="870.74,175.4069,877.5105,193.1315,886.7911,185.5243,870.74,175.4069" style="stroke:#181818;stroke-width:1;"/></g><!--reverse link DiffractionExperimentWithSample to GridCommon--><g class="link" data-entity-1="DiffractionExperimentWithSample" data-entity-2="GridCommon" data-source-line="147" data-uid="lnk46" id="link_DiffractionExperimentWithSample_GridCommon"><path codeLine="147" d="M2806,612.9369 C2806,628.8969 2806,633.0169 2806,654.5769 " fill="none" id="DiffractionExperimentWithSample-backto-GridCommon" style="stroke:#181818;stroke-width:1;"/><polygon fill="none" points="2806,594.9369,2800,612.9369,2812,612.9369,2806,594.9369" style="stroke:#181818;stroke-width:1;"/></g><!--reverse link OptionalGonioAngleStarts to GridCommon--><g class="link" data-entity-1="OptionalGonioAngleStarts" data-entity-2="GridCommon" data-source-line="148" data-uid="lnk47" id="link_OptionalGonioAngleStarts_GridCommon"><path codeLine="148" d="M1172.4065,215.3971 C1178.4765,218.0771 1168.05,213.3769 1174,215.7869 C1696.27,426.9769 2340.92,605.7569 2639.61,684.1469 " fill="none" id="OptionalGonioAngleStarts-backto-GridCommon" style="stroke:#181818;stroke-width:1;"/><polygon fill="none" points="1155.94,208.1269,1169.9831,220.8859,1174.8299,209.9083,1155.94,208.1269" style="stroke:#181818;stroke-width:1;"/></g><!--reverse link GridCommon to SpecifiedThreeDGridScan--><g class="link" data-entity-1="GridCommon" data-entity-2="SpecifiedThreeDGridScan" data-source-line="149" data-uid="lnk48" id="link_GridCommon_SpecifiedThreeDGridScan"><path codeLine="149" d="M2783.591,818.4811 C2778.951,837.0711 2778.21,840.0569 2773.19,860.1669 " fill="none" id="GridCommon-backto-SpecifiedThreeDGridScan" style="stroke:#181818;stroke-width:1;"/><polygon fill="none" points="2787.95,801.0169,2777.7696,817.0281,2789.4124,819.9341,2787.95,801.0169" style="stroke:#181818;stroke-width:1;"/></g><!--reverse link SpecifiedGrid to SpecifiedThreeDGridScan--><g class="link" data-entity-1="SpecifiedGrid" data-entity-2="SpecifiedThreeDGridScan" data-source-line="150" data-uid="lnk49" id="link_SpecifiedGrid_SpecifiedThreeDGridScan"><path codeLine="150" d="M1033.3447,408.7634 C1298.5647,496.2134 2305.56,828.2669 2639.24,938.2969 " fill="none" id="SpecifiedGrid-backto-SpecifiedThreeDGridScan" style="stroke:#181818;stroke-width:1;"/><polygon fill="none" points="1016.25,403.1269,1031.4658,414.4617,1035.2236,403.0652,1016.25,403.1269" style="stroke:#181818;stroke-width:1;"/></g><!--reverse link SplitScan to SpecifiedThreeDGridScan--><g class="link" data-entity-1="SplitScan" data-entity-2="SpecifiedThreeDGridScan" data-source-line="151" data-uid="lnk50" id="link_SplitScan_SpecifiedThreeDGridScan"><path codeLine="151" d="M842.8213,192.7179 C827.4813,251.7279 800.69,391.8469 873,486.7569 C1092.97,775.4769 2276.44,923.4469 2639.22,962.4869 " fill="none" id="SplitScan-backto-SpecifiedThreeDGridScan" style="stroke:#181818;stroke-width:1;"/><polygon fill="none" points="847.35,175.2969,837.0143,191.2083,848.6283,194.2274,847.35,175.2969" style="stroke:#181818;stroke-width:1;"/></g><!--reverse link WithOptionalEnergyChange to SpecifiedThreeDGridScan--><g class="link" data-entity-1="WithOptionalEnergyChange" data-entity-2="SpecifiedThreeDGridScan" data-source-line="152" data-uid="lnk51" id="link_WithOptionalEnergyChange_SpecifiedThreeDGridScan"><path codeLine="152" d="M473.1061,198.0298 C550.0961,306.3798 812.85,652.1269 1138,800.5369 C1407.54,923.5669 2326,961.0869 2639.29,970.4569 " fill="none" id="WithOptionalEnergyChange-backto-SpecifiedThreeDGridScan" style="stroke:#181818;stroke-width:1;"/><polygon fill="none" points="462.68,183.3569,468.2151,201.5052,477.9971,194.5545,462.68,183.3569" style="stroke:#181818;stroke-width:1;"/></g><!--reverse link GridCommonWithHyperionDetectorParams to GridScanWithEdgeDetect--><g class="link" data-entity-1="GridCommonWithHyperionDetectorParams" data-entity-2="GridScanWithEdgeDetect" data-source-line="153" data-uid="lnk52" id="link_GridCommonWithHyperionDetectorParams_GridScanWithEdgeDetect"><path codeLine="153" d="M3236.5012,1011.6128 C3268.1912,1045.0028 3319.24,1092.2669 3387,1119.7969 C3496.31,1164.2169 3534.36,1130.0069 3651,1147.7969 C3667.52,1150.3169 3684.94,1153.3869 3701.92,1156.6069 " fill="none" id="GridCommonWithHyperionDetectorParams-backto-GridScanWithEdgeDetect" style="stroke:#181818;stroke-width:1;"/><polygon fill="none" points="3224.11,998.5569,3232.1492,1015.7432,3240.8532,1007.4824,3224.11,998.5569" style="stroke:#181818;stroke-width:1;"/></g><!--reverse link WithHyperionUDCFeatures to GridScanWithEdgeDetect--><g class="link" data-entity-1="WithHyperionUDCFeatures" data-entity-2="GridScanWithEdgeDetect" data-source-line="154" data-uid="lnk53" id="link_WithHyperionUDCFeatures_GridScanWithEdgeDetect"><path codeLine="154" d="M4041.5626,749.2481 C4161.9126,770.2281 4321.35,806.3569 4362,860.5369 C4396.58,906.6169 4401.34,1077.7069 4362,1119.7969 C4330.44,1153.5569 3992.74,1141.2069 3947,1147.7969 C3932.83,1149.8469 3917.96,1152.5369 3903.42,1155.4969 " fill="none" id="WithHyperionUDCFeatures-backto-GridScanWithEdgeDetect" style="stroke:#181818;stroke-width:1;"/><polygon fill="none" points="4023.83,746.1569,4040.5322,755.159,4042.593,743.3372,4023.83,746.1569" style="stroke:#181818;stroke-width:1;"/></g><!--reverse link WithHyperionUDCFeatures to HyperionSpecifiedThreeDGridScan--><g class="link" data-entity-1="WithHyperionUDCFeatures" data-entity-2="HyperionSpecifiedThreeDGridScan" data-source-line="155" data-uid="lnk54" id="link_WithHyperionUDCFeatures_HyperionSpecifiedThreeDGridScan"><path codeLine="155" d="M3909,778.1069 C3909,827.8969 3909,905.7169 3909,949.8569 " fill="none" id="WithHyperionUDCFeatures-backto-HyperionSpecifiedThreeDGridScan" style="stroke:#181818;stroke-width:1;"/><polygon fill="none" points="3909,760.1069,3903,778.1069,3915,778.1069,3909,760.1069" style="stroke:#181818;stroke-width:1;"/></g><!--reverse link SpecifiedThreeDGridScan to HyperionSpecifiedThreeDGridScan--><g class="link" data-entity-1="SpecifiedThreeDGridScan" data-entity-2="HyperionSpecifiedThreeDGridScan" data-source-line="156" data-uid="lnk55" id="link_SpecifiedThreeDGridScan_HyperionSpecifiedThreeDGridScan"><path codeLine="156" d="M2866.3731,898.9242 C2920.1131,868.9742 2972.06,845.7369 3037.5,830.5369 C3113.26,812.9369 3664.4,803.9669 3737.5,830.5369 C3803.02,854.3469 3860.97,915.3869 3889.76,949.7369 " fill="none" id="SpecifiedThreeDGridScan-backto-HyperionSpecifiedThreeDGridScan" style="stroke:#181818;stroke-width:1;"/><polygon fill="none" points="2850.65,907.6869,2869.294,904.1652,2863.4522,893.6832,2850.65,907.6869" style="stroke:#181818;stroke-width:1;"/></g><!--reverse link MxBlueskyParameters to DiffractionExperiment--><g class="link" data-entity-1="MxBlueskyParameters" data-entity-2="DiffractionExperiment" data-source-line="157" data-uid="lnk56" id="link_MxBlueskyParameters_DiffractionExperiment"><path codeLine="157" d="M2809.9224,201.2925 C2809.3924,225.2825 2809.03,241.8769 2808.3,275.3969 " fill="none" id="MxBlueskyParameters-backto-DiffractionExperiment" style="stroke:#181818;stroke-width:1;"/><polygon fill="none" points="2810.32,183.2969,2803.9239,201.16,2815.921,201.425,2810.32,183.2969" style="stroke:#181818;stroke-width:1;"/></g><!--reverse link WithSnapshot to DiffractionExperiment--><g class="link" data-entity-1="WithSnapshot" data-entity-2="DiffractionExperiment" data-source-line="158" data-uid="lnk57" id="link_WithSnapshot_DiffractionExperiment"><path codeLine="158" d="M1439.1397,198.3028 C1463.4397,207.8228 1473.46,210.2669 1499,215.7869 C1991.88,322.3069 2149.79,128.2869 2632,275.7869 C2634.53,276.5569 2637.06,277.3769 2639.58,278.2369 " fill="none" id="WithSnapshot-backto-DiffractionExperiment" style="stroke:#181818;stroke-width:1;"/><polygon fill="none" points="1422.38,191.7369,1436.9511,203.8894,1441.3284,192.7162,1422.38,191.7369" style="stroke:#181818;stroke-width:1;"/></g><!--reverse link WithOptionalEnergyChange to DiffractionExperiment--><g class="link" data-entity-1="WithOptionalEnergyChange" data-entity-2="DiffractionExperiment" data-source-line="159" data-uid="lnk58" id="link_WithOptionalEnergyChange_DiffractionExperiment"><path codeLine="159" d="M510.5956,191.9003 C534.6356,204.3803 547.9,209.0469 576,215.7869 C1020.5,322.2769 2193.35,147.2869 2632,275.7869 C2634.45,276.5069 2636.9,277.2669 2639.35,278.0669 " fill="none" id="WithOptionalEnergyChange-backto-DiffractionExperiment" style="stroke:#181818;stroke-width:1;"/><polygon fill="none" points="494.62,183.6069,507.8311,197.2255,513.36,186.5752,494.62,183.6069" style="stroke:#181818;stroke-width:1;"/></g><!--reverse link WithVisit to DiffractionExperiment--><g class="link" data-entity-1="WithVisit" data-entity-2="DiffractionExperiment" data-source-line="160" data-uid="lnk59" id="link_WithVisit_DiffractionExperiment"><path codeLine="160" d="M1805.3822,216.0934 C1811.3822,217.8534 1800.09,214.3869 1806,215.7869 C2164.18,300.5869 2281.09,164.6769 2632,275.7869 C2634.52,276.5869 2637.04,277.4269 2639.56,278.3069 " fill="none" id="WithVisit-backto-DiffractionExperiment" style="stroke:#181818;stroke-width:1;"/><polygon fill="none" points="1788.11,211.0269,1803.6934,221.8508,1807.0711,210.336,1788.11,211.0269" style="stroke:#181818;stroke-width:1;"/></g><!--reverse link GridCommonWithHyperionDetectorParams to PinTipCentreThenXrayCentre--><g class="link" data-entity-1="GridCommonWithHyperionDetectorParams" data-entity-2="PinTipCentreThenXrayCentre" data-source-line="161" data-uid="lnk60" id="link_GridCommonWithHyperionDetectorParams_PinTipCentreThenXrayCentre"><path codeLine="161" d="M3235.6003,1011.7121 C3266.8803,1045.5921 3318.14,1093.9669 3387,1119.7969 C3499.92,1162.1569 3809.35,1132.6169 3929,1147.7969 C3940.29,1149.2369 3952,1151.0369 3963.68,1153.0469 " fill="none" id="GridCommonWithHyperionDetectorParams-backto-PinTipCentreThenXrayCentre" style="stroke:#181818;stroke-width:1;"/><polygon fill="none" points="3223.39,998.4869,3231.1919,1015.7823,3240.0088,1007.642,3223.39,998.4869" style="stroke:#181818;stroke-width:1;"/></g><!--reverse link WithHyperionUDCFeatures to PinTipCentreThenXrayCentre--><g class="link" data-entity-1="WithHyperionUDCFeatures" data-entity-2="PinTipCentreThenXrayCentre" data-source-line="162" data-uid="lnk61" id="link_WithHyperionUDCFeatures_PinTipCentreThenXrayCentre"><path codeLine="162" d="M4041.4278,747.2566 C4167.5878,767.2666 4340.53,803.3469 4384,860.5369 C4418.87,906.3969 4421.04,1075.6669 4384,1119.7969 C4360.94,1147.2769 4260.2,1140.8669 4225,1147.7969 C4216.9,1149.3969 4208.55,1151.0869 4200.14,1152.8269 " fill="none" id="WithHyperionUDCFeatures-backto-PinTipCentreThenXrayCentre" style="stroke:#181818;stroke-width:1;"/><polygon fill="none" points="4023.65,744.4369,4040.4879,753.1825,4042.3677,741.3306,4023.65,744.4369" style="stroke:#181818;stroke-width:1;"/></g><!--reverse link XyzStarts to SpecifiedGrid--><g class="link" data-entity-1="XyzStarts" data-entity-2="SpecifiedGrid" data-source-line="163" data-uid="lnk62" id="link_XyzStarts_SpecifiedGrid"><path codeLine="163" d="M294.5426,210.3076 C302.9126,216.2676 297.09,211.3569 306,215.7869 C505.57,314.8769 770.28,357.8969 889.74,373.1869 " fill="none" id="XyzStarts-backto-SpecifiedGrid" style="stroke:#181818;stroke-width:1;"/><polygon fill="none" points="279.88,199.8669,291.0623,215.1951,298.0228,205.4201,279.88,199.8669" style="stroke:#181818;stroke-width:1;"/></g><!--reverse link WithScan to SpecifiedGrid--><g class="link" data-entity-1="WithScan" data-entity-2="SpecifiedGrid" data-source-line="164" data-uid="lnk63" id="link_WithScan_SpecifiedGrid"><path codeLine="164" d="M109.3378,188.7175 C121.6278,202.6075 127.05,205.9469 146,215.7869 C267.08,278.6069 313.31,248.6569 447,275.7869 C606.55,308.1569 794.21,347.1469 889.92,367.0969 " fill="none" id="WithScan-backto-SpecifiedGrid" style="stroke:#181818;stroke-width:1;"/><polygon fill="none" points="97.41,175.2369,104.8442,192.6934,113.8313,184.7416,97.41,175.2369" style="stroke:#181818;stroke-width:1;"/></g><!--reverse link DiffractionExperimentWithSample to RotationExperiment--><g class="link" data-entity-1="DiffractionExperimentWithSample" data-entity-2="RotationExperiment" data-source-line="165" data-uid="lnk64" id="link_DiffractionExperimentWithSample_RotationExperiment"><path codeLine="165" d="M2878.5723,602.186 C2915.2723,617.806 2947.56,632.0869 2990,652.4969 C3169.54,738.7969 3213.73,762.2469 3387,860.5369 C3423.16,881.0469 3462.56,904.9469 3495.58,925.4369 " fill="none" id="DiffractionExperimentWithSample-backto-RotationExperiment" style="stroke:#181818;stroke-width:1;"/><polygon fill="none" points="2862.01,595.1369,2876.2226,607.7068,2880.922,596.6652,2862.01,595.1369" style="stroke:#181818;stroke-width:1;"/></g><!--reverse link WithHyperionUDCFeatures to RotationExperiment--><g class="link" data-entity-1="WithHyperionUDCFeatures" data-entity-2="RotationExperiment" data-source-line="166" data-uid="lnk65" id="link_WithHyperionUDCFeatures_RotationExperiment"><path codeLine="166" d="M3850.9167,770.658 C3792.9767,812.578 3704.51,876.5769 3636.97,925.4369 " fill="none" id="WithHyperionUDCFeatures-backto-RotationExperiment" style="stroke:#181818;stroke-width:1;"/><polygon fill="none" points="3865.5,760.1069,3847.3996,765.7969,3854.4337,775.5191,3865.5,760.1069" style="stroke:#181818;stroke-width:1;"/></g><!--reverse link DiffractionExperiment to DiffractionExperimentWithSample--><g class="link" data-entity-1="DiffractionExperiment" data-entity-2="DiffractionExperimentWithSample" data-source-line="167" data-uid="lnk66" id="link_DiffractionExperiment_DiffractionExperimentWithSample"><path codeLine="167" d="M2806,505.2469 C2806,527.5069 2806,530.9069 2806,546.3269 " fill="none" id="DiffractionExperiment-backto-DiffractionExperimentWithSample" style="stroke:#181818;stroke-width:1;"/><polygon fill="none" points="2806,487.2469,2800,505.2469,2812,505.2469,2806,487.2469" style="stroke:#181818;stroke-width:1;"/></g><!--reverse link WithSample to DiffractionExperimentWithSample--><g class="link" data-entity-1="WithSample" data-entity-2="DiffractionExperimentWithSample" data-source-line="168" data-uid="lnk67" id="link_WithSample_DiffractionExperimentWithSample"><path codeLine="168" d="M769.6225,208.5103 C780.7525,214.5303 776.53,211.4969 788,215.7869 C965.54,282.1069 2246.12,483.3269 2670.09,548.8769 " fill="none" id="WithSample-backto-DiffractionExperimentWithSample" style="stroke:#181818;stroke-width:1;"/><polygon fill="none" points="753.79,199.9469,766.768,213.7878,772.477,203.2329,753.79,199.9469" style="stroke:#181818;stroke-width:1;"/></g><!--SRC=[bLTRRzis57uEVmNVjW5BWFPvUqYTj1lGT47jPGMAWA2bOuc8H18abLfnyzztA4goxdQGXuZVkV3S3_tB9XMMxaG65F_pmgdB12GOxY2csv8s1wOpBbsHPrUw9CG9Xm9_bHgCK9BUSyDpS63edOeX8nOSbOXOpIDOWqQoKuPA9O4Gn9vu0ZJVisrMW7qghoALvqfUwKQDfGVYL08kHPK74cNSMlgVSEaAf3EeCOF8uSK7Sh5H-ik7yexlLwgGhgLGMtsng1AmvBLMye_sL9vzKbAeQvbai7RSE8kQTfdYZlwaNz1Agd98EBEUnc981bITYbbQj41xubftjJPMhNKct3hYwD0HWaZi1CIVZ8YFyBVoPM3mljPNv0rIZf2N8_BQYUQ3iCAX8kiCtGBFCu7vgKxFdX8-Oq1RXNNCAUQPMAJaCnZC4jFSfO59I8iGHfPf0pkn7_YDEZ0PobIAk8o0vVae9MFNQkcnXpMXd2FC-DkFS8L8hcsgV13kqHbgwpCQQYgBItAHeStVA_MFZVwMhIeJsykbLzkuT8kzavIhbCi43gEOv5p632eM1izzktYkCoyYfAEsEZ0HXsDZGq1r4JrDuaBsDDxZPTpNKWX2ROlsA3E5BFGWDw_Z1hpRVmZzshQxJzNQ- -54z817ttXj4xFSpmBs7F1nOMzI0t0pCYb1u5q8RBU3FFn-3FlQ0CsiU8511upHbsdUz-DswK8-jE4M6mvbz_3I7BPAPPJXu4EWs3Ars-7tSUxSYDtEy6eqtUxzrCnnC7KplSXOzwYVqipFrSPGs6jb2mFC8HkpWSiFKvJ1qMX4ae3n8vcwy5tbf5Skc7icYtmBXbnSutqErJrmp7DRJzKWXPZncjfSxWoNDXVMPvTvcyd5trQNswFP6zmFk5KGOz22p24QBBNOOBW9kirMXR6mm8mImTWcCBvGLjMUQ4jbg_R3RFeoOJz4xD8EE0hJ6-nyOqo4hbCVPe__czXtQRqu-njlwASlZsR5tjGJj6ezsnzY3S-_DwkFmBqvlYyRj8O-PZp1FL_JM_dFYiTXgQvKvfr2oQzggvmdR5AGWKYDnnZw63ES2RBUg-JYhiYS-AeSzmNh-vZc7i7q1OXPnDhRkeo7IVGUpFe7W6vpF5h43VVr7jyhxJKSJus8lxAkWPx4JLLcVaQrOd43XPwGi2yiUuvjVQ78ZtDzv2cQU2sb1o3-NYs9AKSUVwUVGVwQ2yaoa8bB_tptsoFjXSVsQjmB-wpUnWc4h1yZrUHqTeOsZFT2ReGEkVDP_6Pu6Kw7kLBjvw8tU-gmfeNpOrrfa48cRJC5QkkHa961ge6gu9_VQhvNZiLF__XvUNbMCv2P7dYZXjw23B8pYid48Wm2esuYxJDhYI7iW2MEmRjtYNKs4ZDtjzvsgvTCbV82sp714qnpR-unQtCJ6Rq95tZdR1WrB6cVsNCC9xRqiA9EUDPX7DRrJ0EJtgl_56lFcJcskUVeijGvNNDqSZooJlVaMsLEZ3uoWvydFDlGamL1khySJl7DntvUfZCmffdEJy_y8bWEzuBSe2Tx9JiOANtQMTqrxkPbGoVu9-zP2EVHXD4qFi7_Fm00]--></g></svg>