<svg xmlns="http://www.w3.org/2000/svg" xmlns:xlink="http://www.w3.org/1999/xlink" contentStyleType="text/css" data-diagram-type="CLASS" height="1247px" preserveAspectRatio="none" style="width:3939px;height:1247px;background:#FFFFFF;" version="1.1" viewBox="0 0 3939 1247" width="3939px" zoomAndPan="magnify"><title>Hyperion Parameter Model</title><defs/><g><g class="title" data-source-line="3"><text fill="#000000" font-family="sans-serif" font-size="14" font-weight="bold" lengthAdjust="spacing" textLength="212.4951" x="1856.3824" y="22.9951">Hyperion Parameter Model</text></g><!--cluster mx_bluesky.common.parameters--><g class="cluster" data-entity="mx_bluesky.common.parameters" data-source-line="6" data-uid="ent0002" id="cluster_mx_bluesky.common.parameters"><path d="M174.71,186.0269 L436.0225,186.0269 A3.75,3.75 0 0 1 438.5225,188.5269 L445.5225,208.3238 L2656.71,208.3238 A2.5,2.5 0 0 1 2659.21,210.8238 L2659.21,964.7569 A2.5,2.5 0 0 1 2656.71,967.2569 L174.71,967.2569 A2.5,2.5 0 0 1 172.21,964.7569 L172.21,188.5269 A2.5,2.5 0 0 1 174.71,186.0269" fill="none" style="stroke:#000000;stroke-width:1.5;"/><line style="stroke:#000000;stroke-width:1.5;" x1="172.21" x2="445.5225" y1="208.3238" y2="208.3238"/><text fill="#000000" font-family="sans-serif" font-size="14" font-weight="bold" lengthAdjust="spacing" textLength="260.3125" x="176.21" y="201.022">mx_bluesky.common.parameters</text></g><!--cluster mx_bluesky.hyperion.parameters--><g class="cluster" data-entity="mx_bluesky.hyperion.parameters" data-source-line="70" data-uid="ent0015" id="cluster_mx_bluesky.hyperion.parameters"><path d="M2685.71,803.2169 L2950.2422,803.2169 A3.75,3.75 0 0 1 2952.7422,805.7169 L2959.7422,825.5138 L3860.71,825.5138 A2.5,2.5 0 0 1 3863.21,828.0138 L3863.21,1237.9469 A2.5,2.5 0 0 1 3860.71,1240.4469 L2685.71,1240.4469 A2.5,2.5 0 0 1 2683.21,1237.9469 L2683.21,805.7169 A2.5,2.5 0 0 1 2685.71,803.2169" fill="none" style="stroke:#000000;stroke-width:1.5;"/><line style="stroke:#000000;stroke-width:1.5;" x1="2683.21" x2="2959.7422" y1="825.5138" y2="825.5138"/><text fill="#000000" font-family="sans-serif" font-size="14" font-weight="bold" lengthAdjust="spacing" textLength="263.5322" x="2687.21" y="818.212">mx_bluesky.hyperion.parameters</text></g><!--class WithSample--><g class="entity" data-entity="WithSample" data-source-line="8" data-uid="ent0003" id="entity_WithSample"><rect fill="#F1F1F1" height="96.8906" rx="2.5" ry="2.5" style="stroke:#181818;stroke-width:0.5;" width="176.3086" x="1147.05" y="245.3169"/><ellipse cx="1188.9243" cy="261.3169" fill="#ADD1B2" rx="11" ry="11" style="stroke:#181818;stroke-width:1;"/><path d="M1191.8931,266.9575 Q1191.3149,267.2544 1190.6743,267.395 Q1190.0337,267.5513 1189.3306,267.5513 Q1186.8306,267.5513 1185.5024,265.9106 Q1184.1899,264.2544 1184.1899,261.1294 Q1184.1899,258.0044 1185.5024,256.3481 Q1186.8306,254.6919 1189.3306,254.6919 Q1190.0337,254.6919 1190.6743,254.8481 Q1191.3306,255.0044 1191.8931,255.3013 L1191.8931,258.02 Q1191.2681,257.4419 1190.6743,257.1763 Q1190.0806,256.895 1189.4556,256.895 Q1188.1118,256.895 1187.4243,257.9731 Q1186.7368,259.0356 1186.7368,261.1294 Q1186.7368,263.2231 1187.4243,264.3013 Q1188.1118,265.3638 1189.4556,265.3638 Q1190.0806,265.3638 1190.6743,265.0981 Q1191.2681,264.8169 1191.8931,264.2388 L1191.8931,266.9575 Z " fill="#000000"/><text fill="#000000" font-family="sans-serif" font-size="14" lengthAdjust="spacing" textLength="84.5879" x="1208.8964" y="266.1636">WithSample</text><line style="stroke:#181818;stroke-width:0.5;" x1="1148.05" x2="1322.3586" y1="277.3169" y2="277.3169"/><text fill="#000000" font-family="sans-serif" font-size="14" lengthAdjust="spacing" textLength="93.3789" x="1153.05" y="294.312">int sample_id</text><text fill="#000000" font-family="sans-serif" font-size="14" lengthAdjust="spacing" textLength="164.3086" x="1153.05" y="310.6089">int | None sample_puck</text><text fill="#000000" font-family="sans-serif" font-size="14" lengthAdjust="spacing" textLength="152.3936" x="1153.05" y="326.9057">int | None sample_pin</text><line style="stroke:#181818;stroke-width:0.5;" x1="1148.05" x2="1322.3586" y1="334.2075" y2="334.2075"/></g><!--class WithPandaGridScan--><g class="entity" data-entity="WithPandaGridScan" data-source-line="13" data-uid="ent0004" id="entity_WithPandaGridScan"><rect fill="#F1F1F1" height="64.2969" rx="2.5" ry="2.5" style="stroke:#181818;stroke-width:0.5;" width="240.5664" x="1919.92" y="261.6169"/><ellipse cx="1966.5172" cy="277.6169" fill="#ADD1B2" rx="11" ry="11" style="stroke:#181818;stroke-width:1;"/><path d="M1969.4859,283.2575 Q1968.9078,283.5544 1968.2672,283.695 Q1967.6265,283.8513 1966.9234,283.8513 Q1964.4234,283.8513 1963.0953,282.2106 Q1961.7828,280.5544 1961.7828,277.4294 Q1961.7828,274.3044 1963.0953,272.6481 Q1964.4234,270.9919 1966.9234,270.9919 Q1967.6265,270.9919 1968.2672,271.1481 Q1968.9234,271.3044 1969.4859,271.6013 L1969.4859,274.32 Q1968.8609,273.7419 1968.2672,273.4763 Q1967.6734,273.195 1967.0484,273.195 Q1965.7047,273.195 1965.0172,274.2731 Q1964.3297,275.3356 1964.3297,277.4294 Q1964.3297,279.5231 1965.0172,280.6013 Q1965.7047,281.6638 1967.0484,281.6638 Q1967.6734,281.6638 1968.2672,281.3981 Q1968.8609,281.1169 1969.4859,280.5388 L1969.4859,283.2575 Z " fill="#000000"/><text fill="#000000" font-family="sans-serif" font-size="14" lengthAdjust="spacing" textLength="138.8721" x="1987.0172" y="282.4636">WithPandaGridScan</text><line style="stroke:#181818;stroke-width:0.5;" x1="1920.92" x2="2159.4864" y1="293.6169" y2="293.6169"/><text fill="#000000" font-family="sans-serif" font-size="14" lengthAdjust="spacing" textLength="228.5664" x="1925.92" y="310.612">float panda_runup_distance_mm</text><line style="stroke:#181818;stroke-width:0.5;" x1="1920.92" x2="2159.4864" y1="317.9138" y2="317.9138"/></g><!--class SplitScan--><g class="entity" data-entity="SplitScan" data-source-line="16" data-uid="ent0005" id="entity_SplitScan"><rect fill="#F1F1F1" height="48" rx="2.5" ry="2.5" style="stroke:#181818;stroke-width:0.5;" width="97.0781" x="2537.67" y="269.7669"/><ellipse cx="2552.67" cy="285.7669" fill="#ADD1B2" rx="11" ry="11" style="stroke:#181818;stroke-width:1;"/><path d="M2555.6388,291.4075 Q2555.0606,291.7044 2554.42,291.845 Q2553.7794,292.0013 2553.0763,292.0013 Q2550.5763,292.0013 2549.2481,290.3606 Q2547.9356,288.7044 2547.9356,285.5794 Q2547.9356,282.4544 2549.2481,280.7981 Q2550.5763,279.1419 2553.0763,279.1419 Q2553.7794,279.1419 2554.42,279.2981 Q2555.0763,279.4544 2555.6388,279.7513 L2555.6388,282.47 Q2555.0138,281.8919 2554.42,281.6263 Q2553.8263,281.345 2553.2013,281.345 Q2551.8575,281.345 2551.17,282.4231 Q2550.4825,283.4856 2550.4825,285.5794 Q2550.4825,287.6731 2551.17,288.7513 Q2551.8575,289.8138 2553.2013,289.8138 Q2553.8263,289.8138 2554.42,289.5481 Q2555.0138,289.2669 2555.6388,288.6888 L2555.6388,291.4075 Z " fill="#000000"/><text fill="#000000" font-family="sans-serif" font-size="14" lengthAdjust="spacing" textLength="65.0781" x="2566.67" y="290.6136">SplitScan</text><line style="stroke:#181818;stroke-width:0.5;" x1="2538.67" x2="2633.7481" y1="301.7669" y2="301.7669"/><line style="stroke:#181818;stroke-width:0.5;" x1="2538.67" x2="2633.7481" y1="309.7669" y2="309.7669"/></g><!--class OptionalGonioAngleStarts--><g class="entity" data-entity="OptionalGonioAngleStarts" data-source-line="18" data-uid="ent0006" id="entity_OptionalGonioAngleStarts"><rect fill="#F1F1F1" height="113.1875" rx="2.5" ry="2.5" style="stroke:#181818;stroke-width:0.5;" width="219.3203" x="1665.55" y="237.1769"/><ellipse cx="1683.2733" cy="253.1769" fill="#ADD1B2" rx="11" ry="11" style="stroke:#181818;stroke-width:1;"/><path d="M1686.242,258.8175 Q1685.6639,259.1144 1685.0233,259.255 Q1684.3827,259.4113 1683.6795,259.4113 Q1681.1795,259.4113 1679.8514,257.7706 Q1678.5389,256.1144 1678.5389,252.9894 Q1678.5389,249.8644 1679.8514,248.2081 Q1681.1795,246.5519 1683.6795,246.5519 Q1684.3827,246.5519 1685.0233,246.7081 Q1685.6795,246.8644 1686.242,247.1613 L1686.242,249.88 Q1685.617,249.3019 1685.0233,249.0363 Q1684.4295,248.755 1683.8045,248.755 Q1682.4608,248.755 1681.7733,249.8331 Q1681.0858,250.8956 1681.0858,252.9894 Q1681.0858,255.0831 1681.7733,256.1613 Q1682.4608,257.2238 1683.8045,257.2238 Q1684.4295,257.2238 1685.0233,256.9581 Q1685.617,256.6769 1686.242,256.0988 L1686.242,258.8175 Z " fill="#000000"/><text fill="#000000" font-family="sans-serif" font-size="14" lengthAdjust="spacing" textLength="181.2686" x="1697.8785" y="258.0236">OptionalGonioAngleStarts</text><line style="stroke:#181818;stroke-width:0.5;" x1="1666.55" x2="1883.8703" y1="269.1769" y2="269.1769"/><text fill="#000000" font-family="sans-serif" font-size="14" lengthAdjust="spacing" textLength="207.3203" x="1671.55" y="286.172">float | None omega_start_deg</text><text fill="#000000" font-family="sans-serif" font-size="14" lengthAdjust="spacing" textLength="180.6875" x="1671.55" y="302.4689">float | None phi_start_deg</text><text fill="#000000" font-family="sans-serif" font-size="14" lengthAdjust="spacing" textLength="179.498" x="1671.55" y="318.7657">float | None chi_start_deg</text><text fill="#000000" font-family="sans-serif" font-size="14" lengthAdjust="spacing" textLength="202.0771" x="1671.55" y="335.0626">float | None kappa_start_deg</text><line style="stroke:#181818;stroke-width:0.5;" x1="1666.55" x2="1883.8703" y1="342.3644" y2="342.3644"/></g><!--class WithOptionalEnergyChange--><g class="entity" data-entity="WithOptionalEnergyChange" data-source-line="24" data-uid="ent0007" id="entity_WithOptionalEnergyChange"><rect fill="#F1F1F1" height="64.2969" rx="2.5" ry="2.5" style="stroke:#181818;stroke-width:0.5;" width="235.4463" x="876.48" y="261.6169"/><ellipse cx="895.6645" cy="277.6169" fill="#ADD1B2" rx="11" ry="11" style="stroke:#181818;stroke-width:1;"/><path d="M898.6332,283.2575 Q898.0551,283.5544 897.4145,283.695 Q896.7738,283.8513 896.0707,283.8513 Q893.5707,283.8513 892.2426,282.2106 Q890.9301,280.5544 890.9301,277.4294 Q890.9301,274.3044 892.2426,272.6481 Q893.5707,270.9919 896.0707,270.9919 Q896.7738,270.9919 897.4145,271.1481 Q898.0707,271.3044 898.6332,271.6013 L898.6332,274.32 Q898.0082,273.7419 897.4145,273.4763 Q896.8207,273.195 896.1957,273.195 Q894.852,273.195 894.1645,274.2731 Q893.477,275.3356 893.477,277.4294 Q893.477,279.5231 894.1645,280.6013 Q894.852,281.6638 896.1957,281.6638 Q896.8207,281.6638 897.4145,281.3981 Q898.0082,281.1169 898.6332,280.5388 L898.6332,283.2575 Z " fill="#000000"/><text fill="#000000" font-family="sans-serif" font-size="14" lengthAdjust="spacing" textLength="194.1475" x="910.5944" y="282.4636">WithOptionalEnergyChange</text><line style="stroke:#181818;stroke-width:0.5;" x1="877.48" x2="1110.9263" y1="293.6169" y2="293.6169"/><text fill="#000000" font-family="sans-serif" font-size="14" lengthAdjust="spacing" textLength="223.4463" x="882.48" y="310.612">float | None demand_energy_ev</text><line style="stroke:#181818;stroke-width:0.5;" x1="877.48" x2="1110.9263" y1="317.9138" y2="317.9138"/></g><!--class WithCentreSelection--><g class="entity" data-entity="WithCentreSelection" data-source-line="27" data-uid="ent0008" id="entity_WithCentreSelection"><rect fill="#F1F1F1" height="64.2969" rx="2.5" ry="2.5" style="stroke:#181818;stroke-width:0.5;" width="306.7861" x="2195.81" y="261.6169"/><ellipse cx="2273.0869" cy="277.6169" fill="#ADD1B2" rx="11" ry="11" style="stroke:#181818;stroke-width:1;"/><path d="M2276.0556,283.2575 Q2275.4775,283.5544 2274.8369,283.695 Q2274.1962,283.8513 2273.4931,283.8513 Q2270.9931,283.8513 2269.665,282.2106 Q2268.3525,280.5544 2268.3525,277.4294 Q2268.3525,274.3044 2269.665,272.6481 Q2270.9931,270.9919 2273.4931,270.9919 Q2274.1962,270.9919 2274.8369,271.1481 Q2275.4931,271.3044 2276.0556,271.6013 L2276.0556,274.32 Q2275.4306,273.7419 2274.8369,273.4763 Q2274.2431,273.195 2273.6181,273.195 Q2272.2744,273.195 2271.5869,274.2731 Q2270.8994,275.3356 2270.8994,277.4294 Q2270.8994,279.5231 2271.5869,280.6013 Q2272.2744,281.6638 2273.6181,281.6638 Q2274.2431,281.6638 2274.8369,281.3981 Q2275.4306,281.1169 2276.0556,280.5388 L2276.0556,283.2575 Z " fill="#000000"/><text fill="#000000" font-family="sans-serif" font-size="14" lengthAdjust="spacing" textLength="143.7324" x="2293.5869" y="282.4636">WithCentreSelection</text><line style="stroke:#181818;stroke-width:0.5;" x1="2196.81" x2="2501.5961" y1="293.6169" y2="293.6169"/><text fill="#000000" font-family="sans-serif" font-size="14" lengthAdjust="spacing" textLength="294.7861" x="2201.81" y="310.612">TopNByMaxCountSelection select_centres</text><line style="stroke:#181818;stroke-width:0.5;" x1="2196.81" x2="2501.5961" y1="317.9138" y2="317.9138"/></g><!--class WithSnapshot--><g class="entity" data-entity="WithSnapshot" data-source-line="30" data-uid="ent0009" id="entity_WithSnapshot"><rect fill="#F1F1F1" height="80.5938" rx="2.5" ry="2.5" style="stroke:#181818;stroke-width:0.5;" width="289.3477" x="552.53" y="253.4669"/><ellipse cx="644.1828" cy="269.4669" fill="#ADD1B2" rx="11" ry="11" style="stroke:#181818;stroke-width:1;"/><path d="M647.1516,275.1075 Q646.5735,275.4044 645.9328,275.545 Q645.2922,275.7013 644.5891,275.7013 Q642.0891,275.7013 640.761,274.0606 Q639.4485,272.4044 639.4485,269.2794 Q639.4485,266.1544 640.761,264.4981 Q642.0891,262.8419 644.5891,262.8419 Q645.2922,262.8419 645.9328,262.9981 Q646.5891,263.1544 647.1516,263.4513 L647.1516,266.17 Q646.5266,265.5919 645.9328,265.3263 Q645.3391,265.045 644.7141,265.045 Q643.3703,265.045 642.6828,266.1231 Q641.9953,267.1856 641.9953,269.2794 Q641.9953,271.3731 642.6828,272.4513 Q643.3703,273.5138 644.7141,273.5138 Q645.3391,273.5138 645.9328,273.2481 Q646.5266,272.9669 647.1516,272.3888 L647.1516,275.1075 Z " fill="#000000"/><text fill="#000000" font-family="sans-serif" font-size="14" lengthAdjust="spacing" textLength="97.542" x="664.6828" y="274.3136">WithSnapshot</text><line style="stroke:#181818;stroke-width:0.5;" x1="553.53" x2="840.8777" y1="285.4669" y2="285.4669"/><text fill="#000000" font-family="sans-serif" font-size="14" lengthAdjust="spacing" textLength="169.627" x="558.53" y="302.462">Path snapshot_directory</text><text fill="#000000" font-family="sans-serif" font-size="14" lengthAdjust="spacing" textLength="277.3477" x="558.53" y="318.7589">list[float] | None snapshot_omegas_deg</text><line style="stroke:#181818;stroke-width:0.5;" x1="553.53" x2="840.8777" y1="326.0606" y2="326.0606"/></g><!--class WithVisit--><g class="entity" data-entity="WithVisit" data-source-line="34" data-uid="ent0010" id="entity_WithVisit"><rect fill="#F1F1F1" height="129.4844" rx="2.5" ry="2.5" style="stroke:#181818;stroke-width:0.5;" width="271.7861" x="1358.31" y="229.0269"/><ellipse cx="1458.8359" cy="245.0269" fill="#ADD1B2" rx="11" ry="11" style="stroke:#181818;stroke-width:1;"/><path d="M1461.8046,250.6675 Q1461.2265,250.9644 1460.5859,251.105 Q1459.9453,251.2613 1459.2421,251.2613 Q1456.7421,251.2613 1455.414,249.6206 Q1454.1015,247.9644 1454.1015,244.8394 Q1454.1015,241.7144 1455.414,240.0581 Q1456.7421,238.4019 1459.2421,238.4019 Q1459.9453,238.4019 1460.5859,238.5581 Q1461.2421,238.7144 1461.8046,239.0113 L1461.8046,241.73 Q1461.1796,241.1519 1460.5859,240.8863 Q1459.9921,240.605 1459.3671,240.605 Q1458.0234,240.605 1457.3359,241.6831 Q1456.6484,242.7456 1456.6484,244.8394 Q1456.6484,246.9331 1457.3359,248.0113 Q1458.0234,249.0738 1459.3671,249.0738 Q1459.9921,249.0738 1460.5859,248.8081 Q1461.1796,248.5269 1461.8046,247.9488 L1461.8046,250.6675 Z " fill="#000000"/><text fill="#000000" font-family="sans-serif" font-size="14" lengthAdjust="spacing" textLength="62.2344" x="1479.3359" y="249.8736">WithVisit</text><line style="stroke:#181818;stroke-width:0.5;" x1="1359.31" x2="1629.0961" y1="261.0269" y2="261.0269"/><text fill="#000000" font-family="sans-serif" font-size="14" lengthAdjust="spacing" textLength="87.9717" x="1364.31" y="278.022">str beamline</text><text fill="#000000" font-family="sans-serif" font-size="14" lengthAdjust="spacing" textLength="51.8369" x="1364.31" y="294.3189">str visit</text><text fill="#000000" font-family="sans-serif" font-size="14" lengthAdjust="spacing" textLength="259.7861" x="1364.31" y="310.6157">str det_dist_to_beam_converter_path</text><text fill="#000000" font-family="sans-serif" font-size="14" lengthAdjust="spacing" textLength="131.5918" x="1364.31" y="326.9126">str insertion_prefix</text><text fill="#000000" font-family="sans-serif" font-size="14" lengthAdjust="spacing" textLength="245.752" x="1364.31" y="343.2095">float | None detector_distance_mm</text><line style="stroke:#181818;stroke-width:0.5;" x1="1359.31" x2="1629.0961" y1="350.5113" y2="350.5113"/></g><!--class DiffractionExperiment--><g class="entity" data-entity="DiffractionExperiment" data-source-line="43" data-uid="ent0011" id="entity_DiffractionExperiment"><rect fill="#F1F1F1" height="210.9688" rx="2.5" ry="2.5" style="stroke:#181818;stroke-width:0.5;" width="332.332" x="196.04" y="418.5069"/><ellipse cx="280.8227" cy="434.5069" fill="#ADD1B2" rx="11" ry="11" style="stroke:#181818;stroke-width:1;"/><path d="M283.7915,440.1475 Q283.2133,440.4444 282.5727,440.585 Q281.9321,440.7413 281.229,440.7413 Q278.729,440.7413 277.4008,439.1006 Q276.0883,437.4444 276.0883,434.3194 Q276.0883,431.1944 277.4008,429.5381 Q278.729,427.8819 281.229,427.8819 Q281.9321,427.8819 282.5727,428.0381 Q283.229,428.1944 283.7915,428.4913 L283.7915,431.21 Q283.1665,430.6319 282.5727,430.3663 Q281.979,430.085 281.354,430.085 Q280.0102,430.085 279.3227,431.1631 Q278.6352,432.2256 278.6352,434.3194 Q278.6352,436.4131 279.3227,437.4913 Q280.0102,438.5538 281.354,438.5538 Q281.979,438.5538 282.5727,438.2881 Q283.1665,438.0069 283.7915,437.4288 L283.7915,440.1475 Z " fill="#000000"/><text fill="#000000" font-family="sans-serif" font-size="14" lengthAdjust="spacing" textLength="154.2666" x="301.3227" y="439.3536">DiffractionExperiment</text><line style="stroke:#181818;stroke-width:0.5;" x1="197.04" x2="527.372" y1="450.5069" y2="450.5069"/><text fill="#000000" font-family="sans-serif" font-size="14" lengthAdjust="spacing" textLength="91.0137" x="202.04" y="467.502">str file_name</text><text fill="#000000" font-family="sans-serif" font-size="14" lengthAdjust="spacing" textLength="153.7129" x="202.04" y="483.7989">float exposure_time_s</text><text fill="#000000" font-family="sans-serif" font-size="14" lengthAdjust="spacing" textLength="89.5029" x="202.04" y="500.0957">str comment</text><text fill="#000000" font-family="sans-serif" font-size="14" lengthAdjust="spacing" textLength="186.915" x="202.04" y="516.3926">TriggerMode trigger_mode</text><text fill="#000000" font-family="sans-serif" font-size="14" lengthAdjust="spacing" textLength="157.9854" x="202.04" y="532.6895">int | None run_number</text><text fill="#000000" font-family="sans-serif" font-size="14" lengthAdjust="spacing" textLength="282.3516" x="202.04" y="548.9864">ApertureValue | None selected_aperture</text><text fill="#000000" font-family="sans-serif" font-size="14" lengthAdjust="spacing" textLength="159.2979" x="202.04" y="565.2832">float transmission_frac</text><text fill="#000000" font-family="sans-serif" font-size="14" lengthAdjust="spacing" textLength="320.332" x="202.04" y="581.5801">IspybExperimentType ispyb_experiment_type</text><text fill="#000000" font-family="sans-serif" font-size="14" lengthAdjust="spacing" textLength="146.1113" x="202.04" y="597.877">str storage_directory</text><text fill="#000000" font-family="sans-serif" font-size="14" lengthAdjust="spacing" textLength="131.0518" x="202.04" y="614.1739">bool use_roi_mode</text><line style="stroke:#181818;stroke-width:0.5;" x1="197.04" x2="527.372" y1="621.4756" y2="621.4756"/></g><!--class MxBlueskyParameters--><g class="entity" data-entity="MxBlueskyParameters" data-source-line="55" data-uid="ent0012" id="entity_MxBlueskyParameters"><rect fill="#F1F1F1" height="64.2969" rx="2.5" ry="2.5" style="stroke:#181818;stroke-width:0.5;" width="317.4639" x="200.47" y="261.6169"/><ellipse cx="277.0564" cy="277.6169" fill="#ADD1B2" rx="11" ry="11" style="stroke:#181818;stroke-width:1;"/><path d="M280.0252,283.2575 Q279.4471,283.5544 278.8064,283.695 Q278.1658,283.8513 277.4627,283.8513 Q274.9627,283.8513 273.6346,282.2106 Q272.3221,280.5544 272.3221,277.4294 Q272.3221,274.3044 273.6346,272.6481 Q274.9627,270.9919 277.4627,270.9919 Q278.1658,270.9919 278.8064,271.1481 Q279.4627,271.3044 280.0252,271.6013 L280.0252,274.32 Q279.4002,273.7419 278.8064,273.4763 Q278.2127,273.195 277.5877,273.195 Q276.2439,273.195 275.5564,274.2731 Q274.8689,275.3356 274.8689,277.4294 Q274.8689,279.5231 275.5564,280.6013 Q276.2439,281.6638 277.5877,281.6638 Q278.2127,281.6638 278.8064,281.3981 Q279.4002,281.1169 280.0252,280.5388 L280.0252,283.2575 Z " fill="#000000"/><text fill="#000000" font-family="sans-serif" font-size="14" lengthAdjust="spacing" textLength="155.791" x="297.5564" y="282.4636">MxBlueskyParameters</text><line style="stroke:#181818;stroke-width:0.5;" x1="201.47" x2="516.9339" y1="293.6169" y2="293.6169"/><text fill="#000000" font-family="sans-serif" font-size="14" lengthAdjust="spacing" textLength="305.4639" x="206.47" y="310.612">SemanticVersion parameter_model_version</text><line style="stroke:#181818;stroke-width:0.5;" x1="201.47" x2="516.9339" y1="317.9138" y2="317.9138"/></g><!--class DiffractionExperimentWithSample--><g class="entity" data-entity="DiffractionExperimentWithSample" data-source-line="58" data-uid="ent0013" id="entity_DiffractionExperimentWithSample"><rect fill="#F1F1F1" height="48" rx="2.5" ry="2.5" style="stroke:#181818;stroke-width:0.5;" width="270.8545" x="226.78" y="689.4769"/><ellipse cx="241.78" cy="705.4769" fill="#ADD1B2" rx="11" ry="11" style="stroke:#181818;stroke-width:1;"/><path d="M244.7488,711.1175 Q244.1706,711.4144 243.53,711.555 Q242.8894,711.7113 242.1863,711.7113 Q239.6863,711.7113 238.3581,710.0706 Q237.0456,708.4144 237.0456,705.2894 Q237.0456,702.1644 238.3581,700.5081 Q239.6863,698.8519 242.1863,698.8519 Q242.8894,698.8519 243.53,699.0081 Q244.1863,699.1644 244.7488,699.4613 L244.7488,702.18 Q244.1238,701.6019 243.53,701.3363 Q242.9363,701.055 242.3113,701.055 Q240.9675,701.055 240.28,702.1331 Q239.5925,703.1956 239.5925,705.2894 Q239.5925,707.3831 240.28,708.4613 Q240.9675,709.5238 242.3113,709.5238 Q242.9363,709.5238 243.53,709.2581 Q244.1238,708.9769 244.7488,708.3988 L244.7488,711.1175 Z " fill="#000000"/><text fill="#000000" font-family="sans-serif" font-size="14" lengthAdjust="spacing" textLength="238.8545" x="255.78" y="710.3236">DiffractionExperimentWithSample</text><line style="stroke:#181818;stroke-width:0.5;" x1="227.78" x2="496.6345" y1="721.4769" y2="721.4769"/><line style="stroke:#181818;stroke-width:0.5;" x1="227.78" x2="496.6345" y1="729.4769" y2="729.4769"/></g><!--class GridCommon--><g class="entity" data-entity="GridCommon" data-source-line="60" data-uid="ent0014" id="entity_GridCommon"><rect fill="#F1F1F1" height="145.7813" rx="2.5" ry="2.5" style="stroke:#181818;stroke-width:0.5;" width="332.332" x="196.04" y="797.4769"/><ellipse cx="311.7382" cy="813.4769" fill="#ADD1B2" rx="11" ry="11" style="stroke:#181818;stroke-width:1;"/><path d="M314.707,819.1175 Q314.1289,819.4144 313.4882,819.555 Q312.8476,819.7113 312.1445,819.7113 Q309.6445,819.7113 308.3164,818.0706 Q307.0039,816.4144 307.0039,813.2894 Q307.0039,810.1644 308.3164,808.5081 Q309.6445,806.8519 312.1445,806.8519 Q312.8476,806.8519 313.4882,807.0081 Q314.1445,807.1644 314.707,807.4613 L314.707,810.18 Q314.082,809.6019 313.4882,809.3363 Q312.8945,809.055 312.2695,809.055 Q310.9257,809.055 310.2382,810.1331 Q309.5507,811.1956 309.5507,813.2894 Q309.5507,815.3831 310.2382,816.4613 Q310.9257,817.5238 312.2695,817.5238 Q312.8945,817.5238 313.4882,817.2581 Q314.082,816.9769 314.707,816.3988 L314.707,819.1175 Z " fill="#000000"/><text fill="#000000" font-family="sans-serif" font-size="14" lengthAdjust="spacing" textLength="92.4355" x="332.2382" y="818.3236">GridCommon</text><line style="stroke:#181818;stroke-width:0.5;" x1="197.04" x2="527.372" y1="829.4769" y2="829.4769"/><text fill="#000000" font-family="sans-serif" font-size="14" lengthAdjust="spacing" textLength="125.2959" x="202.04" y="846.472">float box_size_um</text><text fill="#000000" font-family="sans-serif" font-size="14" lengthAdjust="spacing" textLength="138.4209" x="202.04" y="862.7689">float grid_width_um</text><text fill="#000000" font-family="sans-serif" font-size="14" lengthAdjust="spacing" textLength="153.7129" x="202.04" y="879.0657">float exposure_time_s</text><text fill="#000000" font-family="sans-serif" font-size="14" lengthAdjust="spacing" textLength="320.332" x="202.04" y="895.3626">IspybExperimentType ispyb_experiment_type</text><text fill="#000000" font-family="sans-serif" font-size="14" lengthAdjust="spacing" textLength="282.3516" x="202.04" y="911.6595">ApertureValue | None selected_aperture</text><text fill="#000000" font-family="sans-serif" font-size="14" lengthAdjust="spacing" textLength="130.498" x="202.04" y="927.9564">float tip_offset_um</text><line style="stroke:#181818;stroke-width:0.5;" x1="197.04" x2="527.372" y1="935.2581" y2="935.2581"/></g><!--class PinTipCentreThenXrayCentre--><g class="entity" data-entity="PinTipCentreThenXrayCentre" data-source-line="71" data-uid="ent0016" id="entity_PinTipCentreThenXrayCentre"><rect fill="#F1F1F1" height="64.2969" rx="2.5" ry="2.5" style="stroke:#181818;stroke-width:0.5;" width="235.8955" x="3025.26" y="1160.1469"/><ellipse cx="3040.26" cy="1176.1469" fill="#ADD1B2" rx="11" ry="11" style="stroke:#181818;stroke-width:1;"/><path d="M3043.2287,1181.7875 Q3042.6506,1182.0844 3042.01,1182.225 Q3041.3694,1182.3813 3040.6662,1182.3813 Q3038.1662,1182.3813 3036.8381,1180.7406 Q3035.5256,1179.0844 3035.5256,1175.9594 Q3035.5256,1172.8344 3036.8381,1171.1781 Q3038.1662,1169.5219 3040.6662,1169.5219 Q3041.3694,1169.5219 3042.01,1169.6781 Q3042.6662,1169.8344 3043.2287,1170.1313 L3043.2287,1172.85 Q3042.6037,1172.2719 3042.01,1172.0063 Q3041.4162,1171.725 3040.7912,1171.725 Q3039.4475,1171.725 3038.76,1172.8031 Q3038.0725,1173.8656 3038.0725,1175.9594 Q3038.0725,1178.0531 3038.76,1179.1313 Q3039.4475,1180.1938 3040.7912,1180.1938 Q3041.4162,1180.1938 3042.01,1179.9281 Q3042.6037,1179.6469 3043.2287,1179.0688 L3043.2287,1181.7875 Z " fill="#000000"/><text fill="#000000" font-family="sans-serif" font-size="14" lengthAdjust="spacing" textLength="203.8955" x="3054.26" y="1180.9936">PinTipCentreThenXrayCentre</text><line style="stroke:#181818;stroke-width:0.5;" x1="3026.26" x2="3260.1555" y1="1192.1469" y2="1192.1469"/><text fill="#000000" font-family="sans-serif" font-size="14" lengthAdjust="spacing" textLength="130.498" x="3031.26" y="1209.142">float tip_offset_um</text><line style="stroke:#181818;stroke-width:0.5;" x1="3026.26" x2="3260.1555" y1="1216.4438" y2="1216.4438"/></g><!--class WithHyperionUDCFeatures--><g class="entity" data-entity="WithHyperionUDCFeatures" data-source-line="74" data-uid="ent0017" id="entity_WithHyperionUDCFeatures"><rect fill="#F1F1F1" height="64.2969" rx="2.5" ry="2.5" style="stroke:#181818;stroke-width:0.5;" width="228.6719" x="3135.87" y="838.2169"/><ellipse cx="3154.9683" cy="854.2169" fill="#ADD1B2" rx="11" ry="11" style="stroke:#181818;stroke-width:1;"/><path d="M3157.9371,859.8575 Q3157.359,860.1544 3156.7183,860.295 Q3156.0777,860.4513 3155.3746,860.4513 Q3152.8746,860.4513 3151.5465,858.8106 Q3150.234,857.1544 3150.234,854.0294 Q3150.234,850.9044 3151.5465,849.2481 Q3152.8746,847.5919 3155.3746,847.5919 Q3156.0777,847.5919 3156.7183,847.7481 Q3157.3746,847.9044 3157.9371,848.2013 L3157.9371,850.92 Q3157.3121,850.3419 3156.7183,850.0763 Q3156.1246,849.795 3155.4996,849.795 Q3154.1558,849.795 3153.4683,850.8731 Q3152.7808,851.9356 3152.7808,854.0294 Q3152.7808,856.1231 3153.4683,857.2013 Q3154.1558,858.2638 3155.4996,858.2638 Q3156.1246,858.2638 3156.7183,857.9981 Q3157.3121,857.7169 3157.9371,857.1388 L3157.9371,859.8575 Z " fill="#000000"/><text fill="#000000" font-family="sans-serif" font-size="14" lengthAdjust="spacing" textLength="187.5645" x="3169.8791" y="859.0636">WithHyperionUDCFeatures</text><line style="stroke:#181818;stroke-width:0.5;" x1="3136.87" x2="3363.5419" y1="870.2169" y2="870.2169"/><text fill="#000000" font-family="sans-serif" font-size="14" lengthAdjust="spacing" textLength="216.6719" x="3141.87" y="887.212">HyperionFeatureFlags features</text><line style="stroke:#181818;stroke-width:0.5;" x1="3136.87" x2="3363.5419" y1="894.5138" y2="894.5138"/></g><!--class GridScanWithEdgeDetect--><g class="entity" data-entity="GridScanWithEdgeDetect" data-source-line="77" data-uid="ent0018" id="entity_GridScanWithEdgeDetect"><rect fill="#F1F1F1" height="48" rx="2.5" ry="2.5" style="stroke:#181818;stroke-width:0.5;" width="209.4268" x="2765.49" y="1168.2969"/><ellipse cx="2780.49" cy="1184.2969" fill="#ADD1B2" rx="11" ry="11" style="stroke:#181818;stroke-width:1;"/><path d="M2783.4588,1189.9375 Q2782.8806,1190.2344 2782.24,1190.375 Q2781.5994,1190.5313 2780.8963,1190.5313 Q2778.3963,1190.5313 2777.0681,1188.8906 Q2775.7556,1187.2344 2775.7556,1184.1094 Q2775.7556,1180.9844 2777.0681,1179.3281 Q2778.3963,1177.6719 2780.8963,1177.6719 Q2781.5994,1177.6719 2782.24,1177.8281 Q2782.8963,1177.9844 2783.4588,1178.2813 L2783.4588,1181 Q2782.8338,1180.4219 2782.24,1180.1563 Q2781.6463,1179.875 2781.0213,1179.875 Q2779.6775,1179.875 2778.99,1180.9531 Q2778.3025,1182.0156 2778.3025,1184.1094 Q2778.3025,1186.2031 2778.99,1187.2813 Q2779.6775,1188.3438 2781.0213,1188.3438 Q2781.6463,1188.3438 2782.24,1188.0781 Q2782.8338,1187.7969 2783.4588,1187.2188 L2783.4588,1189.9375 Z " fill="#000000"/><text fill="#000000" font-family="sans-serif" font-size="14" lengthAdjust="spacing" textLength="177.4268" x="2794.49" y="1189.1436">GridScanWithEdgeDetect</text><line style="stroke:#181818;stroke-width:0.5;" x1="2766.49" x2="2973.9168" y1="1200.2969" y2="1200.2969"/><line style="stroke:#181818;stroke-width:0.5;" x1="2766.49" x2="2973.9168" y1="1208.2969" y2="1208.2969"/></g><!--class RotationExperiment--><g class="entity" data-entity="RotationExperiment" data-source-line="79" data-uid="ent0019" id="entity_RotationExperiment"><rect fill="#F1F1F1" height="96.8906" rx="2.5" ry="2.5" style="stroke:#181818;stroke-width:0.5;" width="332.332" x="3068.04" y="1003.2569"/><ellipse cx="3159.9218" cy="1019.2569" fill="#ADD1B2" rx="11" ry="11" style="stroke:#181818;stroke-width:1;"/><path d="M3162.8906,1024.8975 Q3162.3125,1025.1944 3161.6718,1025.335 Q3161.0312,1025.4913 3160.3281,1025.4913 Q3157.8281,1025.4913 3156.5,1023.8506 Q3155.1875,1022.1944 3155.1875,1019.0694 Q3155.1875,1015.9444 3156.5,1014.2881 Q3157.8281,1012.6319 3160.3281,1012.6319 Q3161.0312,1012.6319 3161.6718,1012.7881 Q3162.3281,1012.9444 3162.8906,1013.2413 L3162.8906,1015.96 Q3162.2656,1015.3819 3161.6718,1015.1163 Q3161.0781,1014.835 3160.4531,1014.835 Q3159.1093,1014.835 3158.4218,1015.9131 Q3157.7343,1016.9756 3157.7343,1019.0694 Q3157.7343,1021.1631 3158.4218,1022.2413 Q3159.1093,1023.3038 3160.4531,1023.3038 Q3161.0781,1023.3038 3161.6718,1023.0381 Q3162.2656,1022.7569 3162.8906,1022.1788 L3162.8906,1024.8975 Z " fill="#000000"/><text fill="#000000" font-family="sans-serif" font-size="14" lengthAdjust="spacing" textLength="140.0684" x="3180.4218" y="1024.1036">RotationExperiment</text><line style="stroke:#181818;stroke-width:0.5;" x1="3069.04" x2="3399.372" y1="1035.2569" y2="1035.2569"/><text fill="#000000" font-family="sans-serif" font-size="14" lengthAdjust="spacing" textLength="202.8018" x="3074.04" y="1052.252">float shutter_opening_time_s</text><text fill="#000000" font-family="sans-serif" font-size="14" lengthAdjust="spacing" textLength="202.9385" x="3074.04" y="1068.5489">float rotation_increment_deg</text><text fill="#000000" font-family="sans-serif" font-size="14" lengthAdjust="spacing" textLength="320.332" x="3074.04" y="1084.8457">IspybExperimentType ispyb_experiment_type</text><line style="stroke:#181818;stroke-width:0.5;" x1="3069.04" x2="3399.372" y1="1092.1475" y2="1092.1475"/></g><!--class LoadCentreCollect--><g class="entity" data-entity="LoadCentreCollect" data-source-line="84" data-uid="ent0020" id="entity_LoadCentreCollect"><rect fill="#F1F1F1" height="80.5938" rx="2.5" ry="2.5" style="stroke:#181818;stroke-width:0.5;" width="338.6211" x="3508.9" y="1011.4069"/><ellipse cx="3609.525" cy="1027.4069" fill="#ADD1B2" rx="11" ry="11" style="stroke:#181818;stroke-width:1;"/><path d="M3612.4938,1033.0475 Q3611.9156,1033.3444 3611.275,1033.485 Q3610.6344,1033.6413 3609.9313,1033.6413 Q3607.4313,1033.6413 3606.1031,1032.0006 Q3604.7906,1030.3444 3604.7906,1027.2194 Q3604.7906,1024.0944 3606.1031,1022.4381 Q3607.4313,1020.7819 3609.9313,1020.7819 Q3610.6344,1020.7819 3611.275,1020.9381 Q3611.9313,1021.0944 3612.4938,1021.3913 L3612.4938,1024.11 Q3611.8688,1023.5319 3611.275,1023.2663 Q3610.6813,1022.985 3610.0563,1022.985 Q3608.7125,1022.985 3608.025,1024.0631 Q3607.3375,1025.1256 3607.3375,1027.2194 Q3607.3375,1029.3131 3608.025,1030.3913 Q3608.7125,1031.4538 3610.0563,1031.4538 Q3610.6813,1031.4538 3611.275,1031.1881 Q3611.8688,1030.9069 3612.4938,1030.3288 L3612.4938,1033.0475 Z " fill="#000000"/><text fill="#000000" font-family="sans-serif" font-size="14" lengthAdjust="spacing" textLength="128.8711" x="3630.025" y="1032.2536">LoadCentreCollect</text><line style="stroke:#181818;stroke-width:0.5;" x1="3509.9" x2="3846.5211" y1="1043.4069" y2="1043.4069"/><text fill="#000000" font-family="sans-serif" font-size="14" lengthAdjust="spacing" textLength="326.6211" x="3514.9" y="1060.402">RobotLoadThenCentre robot_load_then_centre</text><text fill="#000000" font-family="sans-serif" font-size="14" lengthAdjust="spacing" textLength="269.3154" x="3514.9" y="1076.6989">MultiRotationScan multi_rotation_scan</text><line style="stroke:#181818;stroke-width:0.5;" x1="3509.9" x2="3846.5211" y1="1084.0006" y2="1084.0006"/></g><!--class GridCommonWithHyperionDetectorParams--><g class="entity" data-entity="GridCommonWithHyperionDetectorParams" data-source-line="88" data-uid="ent0021" id="entity_GridCommonWithHyperionDetectorParams"><rect fill="#F1F1F1" height="48" rx="2.5" ry="2.5" style="stroke:#181818;stroke-width:0.5;" width="333.2188" x="2699.6" y="1027.7069"/><ellipse cx="2714.6" cy="1043.7069" fill="#ADD1B2" rx="11" ry="11" style="stroke:#181818;stroke-width:1;"/><path d="M2717.5688,1049.3475 Q2716.9906,1049.6444 2716.35,1049.785 Q2715.7094,1049.9413 2715.0063,1049.9413 Q2712.5063,1049.9413 2711.1781,1048.3006 Q2709.8656,1046.6444 2709.8656,1043.5194 Q2709.8656,1040.3944 2711.1781,1038.7381 Q2712.5063,1037.0819 2715.0063,1037.0819 Q2715.7094,1037.0819 2716.35,1037.2381 Q2717.0063,1037.3944 2717.5688,1037.6913 L2717.5688,1040.41 Q2716.9438,1039.8319 2716.35,1039.5663 Q2715.7563,1039.285 2715.1313,1039.285 Q2713.7875,1039.285 2713.1,1040.3631 Q2712.4125,1041.4256 2712.4125,1043.5194 Q2712.4125,1045.6131 2713.1,1046.6913 Q2713.7875,1047.7538 2715.1313,1047.7538 Q2715.7563,1047.7538 2716.35,1047.4881 Q2716.9438,1047.2069 2717.5688,1046.6288 L2717.5688,1049.3475 Z " fill="#000000"/><text fill="#000000" font-family="sans-serif" font-size="14" lengthAdjust="spacing" textLength="301.2188" x="2728.6" y="1048.5536">GridCommonWithHyperionDetectorParams</text><line style="stroke:#181818;stroke-width:0.5;" x1="2700.6" x2="3031.8188" y1="1059.7069" y2="1059.7069"/><line style="stroke:#181818;stroke-width:0.5;" x1="2700.6" x2="3031.8188" y1="1067.7069" y2="1067.7069"/></g><!--class MultiRotationScan--><g class="entity" data-entity="MultiRotationScan" data-source-line="90" data-uid="ent0022" id="entity_MultiRotationScan"><rect fill="#F1F1F1" height="64.2969" rx="2.5" ry="2.5" style="stroke:#181818;stroke-width:0.5;" width="540.001" x="3303.21" y="1160.1469"/><ellipse cx="3505.2427" cy="1176.1469" fill="#ADD1B2" rx="11" ry="11" style="stroke:#181818;stroke-width:1;"/><path d="M3508.2115,1181.7875 Q3507.6333,1182.0844 3506.9927,1182.225 Q3506.3521,1182.3813 3505.649,1182.3813 Q3503.149,1182.3813 3501.8208,1180.7406 Q3500.5083,1179.0844 3500.5083,1175.9594 Q3500.5083,1172.8344 3501.8208,1171.1781 Q3503.149,1169.5219 3505.649,1169.5219 Q3506.3521,1169.5219 3506.9927,1169.6781 Q3507.649,1169.8344 3508.2115,1170.1313 L3508.2115,1172.85 Q3507.5865,1172.2719 3506.9927,1172.0063 Q3506.399,1171.725 3505.774,1171.725 Q3504.4302,1171.725 3503.7427,1172.8031 Q3503.0552,1173.8656 3503.0552,1175.9594 Q3503.0552,1178.0531 3503.7427,1179.1313 Q3504.4302,1180.1938 3505.774,1180.1938 Q3506.399,1180.1938 3506.9927,1179.9281 Q3507.5865,1179.6469 3508.2115,1179.0688 L3508.2115,1181.7875 Z " fill="#000000"/><text fill="#000000" font-family="sans-serif" font-size="14" lengthAdjust="spacing" textLength="127.4355" x="3525.7427" y="1180.9936">MultiRotationScan</text><line style="stroke:#181818;stroke-width:0.5;" x1="3304.21" x2="3842.211" y1="1192.1469" y2="1192.1469"/><line style="stroke:#181818;stroke-width:0.5;" x1="3304.21" x2="3842.211" y1="1200.1469" y2="1200.1469"/><text fill="#000000" font-family="sans-serif" font-size="14" lengthAdjust="spacing" textLength="528.001" x="3309.21" y="1217.142">Annotated[list[RotationScanPerSweep], Len(min_length=1)] rotation_scans</text></g><!--reverse link GridCommonWithHyperionDetectorParams to PinTipCentreThenXrayCentre--><g class="link" data-entity-1="GridCommonWithHyperionDetectorParams" data-entity-2="PinTipCentreThenXrayCentre" data-source-line="94" data-uid="lnk23" id="link_GridCommonWithHyperionDetectorParams_PinTipCentreThenXrayCentre"><path codeLine="94" d="M2928.9776,1084.1109 C2974.8476,1107.0609 3029.08,1134.1969 3079.96,1159.6469" fill="none" id="GridCommonWithHyperionDetectorParams-backto-PinTipCentreThenXrayCentre" style="stroke:#181818;stroke-width:1;"/><polygon fill="none" points="2912.88,1076.0569,2926.2929,1089.4768,2931.6623,1078.7451,2912.88,1076.0569" style="stroke:#181818;stroke-width:1;"/></g><!--reverse link WithHyperionUDCFeatures to PinTipCentreThenXrayCentre--><g class="link" data-entity-1="WithHyperionUDCFeatures" data-entity-2="PinTipCentreThenXrayCentre" data-source-line="95" data-uid="lnk24" id="link_WithHyperionUDCFeatures_PinTipCentreThenXrayCentre"><path codeLine="95" d="M3303.6492,913.9395 C3331.3092,935.4895 3355.45,953.0069 3391.21,975.2569 C3414.16,989.5469 3431.16,980.1569 3445.21,1003.2569 C3467.58,1040.0569 3470.88,1065.5769 3445.21,1100.1469 C3433.55,1115.8369 3340.99,1142.3769 3261.38,1162.7769" fill="none" id="WithHyperionUDCFeatures-backto-PinTipCentreThenXrayCentre" style="stroke:#181818;stroke-width:1;"/><polygon fill="none" points="3289.45,902.8769,3299.9617,918.6726,3307.3368,909.2065,3289.45,902.8769" style="stroke:#181818;stroke-width:1;"/></g><!--reverse link DiffractionExperiment to DiffractionExperimentWithSample--><g class="link" data-entity-1="DiffractionExperiment" data-entity-2="DiffractionExperimentWithSample" data-source-line="96" data-uid="lnk25" id="link_DiffractionExperiment_DiffractionExperimentWithSample"><path codeLine="96" d="M362.21,647.9769 C362.21,670.2269 362.21,673.6269 362.21,689.0569" fill="none" id="DiffractionExperiment-backto-DiffractionExperimentWithSample" style="stroke:#181818;stroke-width:1;"/><polygon fill="none" points="362.21,629.9769,356.21,647.9769,368.21,647.9769,362.21,629.9769" style="stroke:#181818;stroke-width:1;"/></g><!--reverse link WithSample to DiffractionExperimentWithSample--><g class="link" data-entity-1="WithSample" data-entity-2="DiffractionExperimentWithSample" data-source-line="97" data-uid="lnk26" id="link_WithSample_DiffractionExperimentWithSample"><path codeLine="97" d="M1153.1142,352.5373 C1140.4142,360.8773 1142.11,359.3069 1129.21,366.5069 C876.37,507.7269 555.15,637.7069 423.09,689.1669" fill="none" id="WithSample-backto-DiffractionExperimentWithSample" style="stroke:#181818;stroke-width:1;"/><polygon fill="none" points="1168.16,342.6569,1149.8207,347.5221,1156.4077,357.5526,1168.16,342.6569" style="stroke:#181818;stroke-width:1;"/></g><!--reverse link WithPandaGridScan to WithHyperionUDCFeatures--><g class="link" data-entity-1="WithPandaGridScan" data-entity-2="WithHyperionUDCFeatures" data-source-line="98" data-uid="lnk27" id="link_WithPandaGridScan_WithHyperionUDCFeatures"><path codeLine="98" d="M2115.6542,334.7305 C2139.8942,347.4305 2152.3,353.7069 2178.21,366.5069 C2553.01,551.7469 3008.87,760.0369 3180.45,837.8369" fill="none" id="WithPandaGridScan-backto-WithHyperionUDCFeatures" style="stroke:#181818;stroke-width:1;"/><polygon fill="none" points="2099.71,326.3769,2112.8697,340.0452,2118.4387,329.4157,2099.71,326.3769" style="stroke:#181818;stroke-width:1;"/></g><!--reverse link GridCommonWithHyperionDetectorParams to GridScanWithEdgeDetect--><g class="link" data-entity-1="GridCommonWithHyperionDetectorParams" data-entity-2="GridScanWithEdgeDetect" data-source-line="99" data-uid="lnk28" id="link_GridCommonWithHyperionDetectorParams_GridScanWithEdgeDetect"><path codeLine="99" d="M2867.3935,1093.8995 C2868.1235,1119.4795 2868.8,1142.4069 2869.54,1168.0269" fill="none" id="GridCommonWithHyperionDetectorParams-backto-GridScanWithEdgeDetect" style="stroke:#181818;stroke-width:1;"/><polygon fill="none" points="2866.88,1075.9069,2861.3959,1094.0707,2873.391,1093.7284,2866.88,1075.9069" style="stroke:#181818;stroke-width:1;"/></g><!--reverse link WithHyperionUDCFeatures to GridScanWithEdgeDetect--><g class="link" data-entity-1="WithHyperionUDCFeatures" data-entity-2="GridScanWithEdgeDetect" data-source-line="100" data-uid="lnk29" id="link_WithHyperionUDCFeatures_GridScanWithEdgeDetect"><path codeLine="100" d="M3308.6967,913.3071 C3356.1667,947.6971 3411.42,989.2969 3418.21,1003.2569 C3437.04,1041.9869 3446.37,1067.5669 3418.21,1100.1469 C3357.99,1169.8169 3098.74,1143.3369 3008.21,1160.1469 C2995.77,1162.4569 2982.75,1165.0969 2969.89,1167.8469" fill="none" id="WithHyperionUDCFeatures-backto-GridScanWithEdgeDetect" style="stroke:#181818;stroke-width:1;"/><polygon fill="none" points="3294.12,902.7469,3305.1767,918.166,3312.2168,908.4482,3294.12,902.7469" style="stroke:#181818;stroke-width:1;"/></g><!--reverse link DiffractionExperimentWithSample to RotationExperiment--><g class="link" data-entity-1="DiffractionExperimentWithSample" data-entity-2="RotationExperiment" data-source-line="101" data-uid="lnk30" id="link_DiffractionExperimentWithSample_RotationExperiment"><path codeLine="101" d="M238.2882,744.6689 C208.3782,756.6889 195.95,768.0569 178.21,795.2169 C134.45,862.2069 121.9,918.4069 178.21,975.2569 C206.28,1003.6069 3010.66,998.0469 3050.21,1003.2569 C3055.93,1004.0169 3061.73,1004.8869 3067.57,1005.8569" fill="none" id="DiffractionExperimentWithSample-backto-RotationExperiment" style="stroke:#181818;stroke-width:1;"/><polygon fill="none" points="254.99,737.9569,236.0509,739.1016,240.5256,750.2361,254.99,737.9569" style="stroke:#181818;stroke-width:1;"/></g><!--reverse link WithHyperionUDCFeatures to RotationExperiment--><g class="link" data-entity-1="WithHyperionUDCFeatures" data-entity-2="RotationExperiment" data-source-line="102" data-uid="lnk31" id="link_WithHyperionUDCFeatures_RotationExperiment"><path codeLine="102" d="M3245.8213,920.5357 C3243.3513,948.2357 3241.3,971.1769 3238.47,1002.9669" fill="none" id="WithHyperionUDCFeatures-backto-RotationExperiment" style="stroke:#181818;stroke-width:1;"/><polygon fill="none" points="3247.42,902.6069,3239.845,920.0028,3251.7976,921.0686,3247.42,902.6069" style="stroke:#181818;stroke-width:1;"/></g><!--reverse link MxBlueskyParameters to LoadCentreCollect--><g class="link" data-entity-1="MxBlueskyParameters" data-entity-2="LoadCentreCollect" data-source-line="103" data-uid="lnk32" id="link_MxBlueskyParameters_LoadCentreCollect"><path codeLine="103" d="M442.9131,333.5534 C475.4531,347.7234 498.95,356.3069 536.21,366.5069 C1769.94,704.3669 2347.39,43.2969 3382.21,795.2169 C3454.58,847.8069 3405.49,915.6569 3472.21,975.2569 C3488.33,989.6569 3507.42,1001.3869 3527.38,1010.9069" fill="none" id="MxBlueskyParameters-backto-LoadCentreCollect" style="stroke:#181818;stroke-width:1;"/><polygon fill="none" points="426.41,326.3669,440.5176,339.0545,445.3087,328.0524,426.41,326.3669" style="stroke:#181818;stroke-width:1;"/></g><!--reverse link WithVisit to LoadCentreCollect--><g class="link" data-entity-1="WithVisit" data-entity-2="LoadCentreCollect" data-source-line="104" data-uid="lnk33" id="link_WithVisit_LoadCentreCollect"><path codeLine="104" d="M1638.8527,364.6096 C1647.6627,367.5696 1639.45,364.4369 1648.21,366.5069 C1745.29,389.4969 3369.53,351.2369 3443.21,418.5069 C3535.23,502.5369 3436.36,874.8769 3510.21,975.2569 C3520.82,989.6869 3534.82,1001.4069 3550.23,1010.9169" fill="none" id="WithVisit-backto-LoadCentreCollect" style="stroke:#181818;stroke-width:1;"/><polygon fill="none" points="1621.79,358.8769,1636.9418,370.2972,1640.7636,358.9221,1621.79,358.8769" style="stroke:#181818;stroke-width:1;"/></g><!--reverse link WithSample to LoadCentreCollect--><g class="link" data-entity-1="WithSample" data-entity-2="LoadCentreCollect" data-source-line="105" data-uid="lnk34" id="link_WithSample_LoadCentreCollect"><path codeLine="105" d="M1161.4936,352.416 C1146.8236,362.006 1145.63,360.9769 1129.21,366.5069 C1029.13,400.2169 252.81,341.8169 180.21,418.5069 C10.09,598.1969 6,799.5369 180.21,975.2569 C211.87,1007.1969 3373.43,999.0169 3418.21,1003.2569 C3447.56,1006.0469 3478.55,1010.4169 3508.52,1015.4069" fill="none" id="WithSample-backto-LoadCentreCollect" style="stroke:#181818;stroke-width:1;"/><polygon fill="none" points="1176.56,342.5669,1158.2106,347.3939,1164.7767,357.4381,1176.56,342.5669" style="stroke:#181818;stroke-width:1;"/></g><!--reverse link WithCentreSelection to LoadCentreCollect--><g class="link" data-entity-1="WithCentreSelection" data-entity-2="LoadCentreCollect" data-source-line="106" data-uid="lnk35" id="link_WithCentreSelection_LoadCentreCollect"><path codeLine="106" d="M2441.0216,333.3568 C2695.2716,440.3168 3491.55,776.0169 3514.21,795.2169 C3585.99,856.0369 3637.4,956.2569 3661.95,1011.3569" fill="none" id="WithCentreSelection-backto-LoadCentreCollect" style="stroke:#181818;stroke-width:1;"/><polygon fill="none" points="2424.43,326.3769,2438.695,338.8873,2443.3482,327.8262,2424.43,326.3769" style="stroke:#181818;stroke-width:1;"/></g><!--reverse link WithHyperionUDCFeatures to LoadCentreCollect--><g class="link" data-entity-1="WithHyperionUDCFeatures" data-entity-2="LoadCentreCollect" data-source-line="107" data-uid="lnk36" id="link_WithHyperionUDCFeatures_LoadCentreCollect"><path codeLine="107" d="M3298.5864,914.4328 C3325.7464,937.5128 3351.71,956.3669 3391.21,975.2569 C3403.96,981.3569 3458.53,996.0969 3516.71,1010.9369" fill="none" id="WithHyperionUDCFeatures-backto-LoadCentreCollect" style="stroke:#181818;stroke-width:1;"/><polygon fill="none" points="3284.87,902.7769,3294.7011,919.0049,3302.4717,909.8607,3284.87,902.7769" style="stroke:#181818;stroke-width:1;"/></g><!--reverse link MxBlueskyParameters to DiffractionExperiment--><g class="link" data-entity-1="MxBlueskyParameters" data-entity-2="DiffractionExperiment" data-source-line="108" data-uid="lnk37" id="link_MxBlueskyParameters_DiffractionExperiment"><path codeLine="108" d="M359.8527,344.0254 C360.1627,368.0054 360.39,384.5969 360.83,418.1169" fill="none" id="MxBlueskyParameters-backto-DiffractionExperiment" style="stroke:#181818;stroke-width:1;"/><polygon fill="none" points="359.62,326.0269,353.8532,344.1029,365.8522,343.9478,359.62,326.0269" style="stroke:#181818;stroke-width:1;"/></g><!--reverse link WithSnapshot to DiffractionExperiment--><g class="link" data-entity-1="WithSnapshot" data-entity-2="DiffractionExperiment" data-source-line="109" data-uid="lnk38" id="link_WithSnapshot_DiffractionExperiment"><path codeLine="109" d="M623.9749,344.6525 C589.7649,367.9625 559.67,388.4669 515.96,418.2469" fill="none" id="WithSnapshot-backto-DiffractionExperiment" style="stroke:#181818;stroke-width:1;"/><polygon fill="none" points="638.85,334.5169,620.5963,339.6941,627.3534,349.6109,638.85,334.5169" style="stroke:#181818;stroke-width:1;"/></g><!--reverse link WithOptionalEnergyChange to DiffractionExperiment--><g class="link" data-entity-1="WithOptionalEnergyChange" data-entity-2="DiffractionExperiment" data-source-line="110" data-uid="lnk39" id="link_WithOptionalEnergyChange_DiffractionExperiment"><path codeLine="110" d="M924.7239,334.9681 C900.4039,348.4381 886.75,354.9669 859.21,366.5069 C751.68,411.5569 626.46,450.9069 528.61,478.8769" fill="none" id="WithOptionalEnergyChange-backto-DiffractionExperiment" style="stroke:#181818;stroke-width:1;"/><polygon fill="none" points="940.47,326.2469,921.8168,329.7194,927.631,340.2168,940.47,326.2469" style="stroke:#181818;stroke-width:1;"/></g><!--reverse link WithVisit to DiffractionExperiment--><g class="link" data-entity-1="WithVisit" data-entity-2="DiffractionExperiment" data-source-line="111" data-uid="lnk40" id="link_WithVisit_DiffractionExperiment"><path codeLine="111" d="M1346.3953,365.2444 C1339.0053,367.9744 1348.5,364.2669 1341.21,366.5069 C1063.39,451.9869 726.08,492.7869 528.67,510.6569" fill="none" id="WithVisit-backto-DiffractionExperiment" style="stroke:#181818;stroke-width:1;"/><polygon fill="none" points="1363.28,359.0069,1344.3161,359.6162,1348.4745,370.8726,1363.28,359.0069" style="stroke:#181818;stroke-width:1;"/></g><!--reverse link GridCommon to GridCommonWithHyperionDetectorParams--><g class="link" data-entity-1="GridCommon" data-entity-2="GridCommonWithHyperionDetectorParams" data-source-line="112" data-uid="lnk41" id="link_GridCommon_GridCommonWithHyperionDetectorParams"><path codeLine="112" d="M546.394,884.5626 C1001.064,917.1226 2243.64,1006.1169 2699.21,1038.7469" fill="none" id="GridCommon-backto-GridCommonWithHyperionDetectorParams" style="stroke:#181818;stroke-width:1;"/><polygon fill="none" points="528.44,883.2769,545.9654,890.5473,546.8226,878.5779,528.44,883.2769" style="stroke:#181818;stroke-width:1;"/></g><!--reverse link WithHyperionUDCFeatures to GridCommonWithHyperionDetectorParams--><g class="link" data-entity-1="WithHyperionUDCFeatures" data-entity-2="GridCommonWithHyperionDetectorParams" data-source-line="113" data-uid="lnk42" id="link_WithHyperionUDCFeatures_GridCommonWithHyperionDetectorParams"><path codeLine="113" d="M3166.571,910.4337 C3090.431,945.9937 2984.5,995.4569 2916.31,1027.3069" fill="none" id="WithHyperionUDCFeatures-backto-GridCommonWithHyperionDetectorParams" style="stroke:#181818;stroke-width:1;"/><polygon fill="none" points="3182.88,902.8169,3164.032,904.9974,3169.11,915.8701,3182.88,902.8169" style="stroke:#181818;stroke-width:1;"/></g><!--reverse link RotationExperiment to MultiRotationScan--><g class="link" data-entity-1="RotationExperiment" data-entity-2="MultiRotationScan" data-source-line="114" data-uid="lnk43" id="link_RotationExperiment_MultiRotationScan"><path codeLine="114" d="M3368.0112,1107.409 C3415.8512,1126.969 3453.21,1142.2369 3495.96,1159.7169" fill="none" id="RotationExperiment-backto-MultiRotationScan" style="stroke:#181818;stroke-width:1;"/><polygon fill="none" points="3351.35,1100.5969,3365.7405,1112.9627,3370.2819,1101.8553,3351.35,1100.5969" style="stroke:#181818;stroke-width:1;"/></g><!--reverse link SplitScan to MultiRotationScan--><g class="link" data-entity-1="SplitScan" data-entity-2="MultiRotationScan" data-source-line="115" data-uid="lnk44" id="link_SplitScan_MultiRotationScan"><path codeLine="115" d="M2652.8307,301.1579 C2890.6407,324.9379 3900.21,441.5369 3900.21,712.4769 C3900.21,712.4769 3900.21,712.4769 3900.21,871.3669 C3900.21,974.2369 3932.26,1022.1469 3865.21,1100.1469 C3842.01,1127.1369 3810.96,1146.2369 3777.75,1159.7369" fill="none" id="SplitScan-backto-MultiRotationScan" style="stroke:#181818;stroke-width:1;"/><polygon fill="none" points="2634.92,299.3669,2652.2337,307.1281,2653.4277,295.1876,2634.92,299.3669" style="stroke:#181818;stroke-width:1;"/></g><!--reverse link DiffractionExperimentWithSample to GridCommon--><g class="link" data-entity-1="DiffractionExperimentWithSample" data-entity-2="GridCommon" data-source-line="116" data-uid="lnk45" id="link_DiffractionExperimentWithSample_GridCommon"><path codeLine="116" d="M362.21,755.6669 C362.21,771.6169 362.21,775.7369 362.21,797.2969" fill="none" id="DiffractionExperimentWithSample-backto-GridCommon" style="stroke:#181818;stroke-width:1;"/><polygon fill="none" points="362.21,737.6669,356.21,755.6669,368.21,755.6669,362.21,737.6669" style="stroke:#181818;stroke-width:1;"/></g><!--reverse link OptionalGonioAngleStarts to GridCommon--><g class="link" data-entity-1="OptionalGonioAngleStarts" data-entity-2="GridCommon" data-source-line="117" data-uid="lnk46" id="link_OptionalGonioAngleStarts_GridCommon"><path codeLine="117" d="M1662.5248,359.2166 C1652.0848,364.7166 1657.45,361.6569 1647.21,366.5069 C1255.93,551.6369 776.84,725.9469 528.82,812.4769" fill="none" id="OptionalGonioAngleStarts-backto-GridCommon" style="stroke:#181818;stroke-width:1;"/><polygon fill="none" points="1678.45,350.8269,1659.7282,353.9082,1665.3214,364.525,1678.45,350.8269" style="stroke:#181818;stroke-width:1;"/></g><!--SRC=[bLPRRzis57wsVWNVjW5BWBvl3wcJTWMQpgYpR40H4BHqB16XI88yIksb-Uyz92LPjcGxWHyidXk_yvsBzCjT9JrRImMC_aM3vg843KuW56orPTs1MoKqDhMwjDiiGudayDVMWfD6iuLmeWO4nsvD0IhpW4oJn5kHmn8igT4ufes6B2FPeoY1rHk-KWtun-rbRkhQw4lRXV7iEKDJ0bOKyZdBbV2U_IknMehQAdZEPb8Zy_70PP6EFzWNYjz9RPC_Jigbpbu64HT25-AZayKo5ve2hvKHo6oGSjVenl92UXGw1rxNlUVIAed9enFzRP6e4EgZqT9SwLB14eL3tyTiSPWQIi5zqF42oWEjhUHHNNv2zoYi7KOTfjWXkw5Abjjv9NG9XwWAg2bb3j64mzDUW3beT5H71Nc8HBvtndvvlxqLcxbfDFOQvkCJpwE3tmkorCBwoY1vBmHMpBTdujUHZt7RRAQ8wcyHrqDVjiuiykP7oTrBBqDCZuwjGDHAKe_5qrFGfCS2C9QHe-71YET6Fu6ZJkEMi2GZgJs9A0jk7QpbPiGGHfW7_V0oRjHhkLux4GcvsOG9gOcE5c8OD1v6euiE6sjyuu0ZcN6VhC8ya0_nx6HPWWjJnJ0zyveEUvrDRSfrKw_0PRChkWyftBsWqUevZ5M1WejMsrsEJcXVI-z3rW5pDllaxNQrWtr78qwBWMGSUY57aYQadXYXOHuMSMMCOeq7xenCOBjwtMxUfu7lzqMOZcLeFPJvFHr33_LR83eh_fJaVPH9UeVBeJCCKpsFcwNlzfNPS2__1zxKdQWaA_vT5bWDXAEgl86MDvP0McxMQzgOuVgN-9lOa5MxQlTtPCfp8VMTj6b8xohG_pcnJQVdOxVivgVRuVzSpp-02CX2JJffA_gWH4alYLQ_Ht1OWY7EJL72THoHNG6-6XIZAKY0VDLWAB6neAKkUvwJrhMENEhSGUGshhpNLw63yDc88d4nDqf5TBElPcKmA09PIKataepJvGMdMTRj1ijcjur2sUKHScLraF0UeIVPHCSDgRrkDqViUh-ZPnIRi5rf7GHGV8kxSAXTW5j-1x0FlxFFe7-jfUOAT8dLd-z-Us1xW7niezUWON_ykBWuqK7PaHuvwpSvfSdhp01dkyVNs- -znfFR4UHle6MwlqzJSiJdJ0x9Tpmlf- -Qi9zOiSbsD0XP__OyPJ24Dsrny75molHe8cFpetbC4faDFp3EsKrz3ftp6V0qRRHhgbqRd6koyurqDiAu0vBpQBLa_HVhCODNTUWEL7RiU_VGy2S0]--></g></svg>