<svg xmlns="http://www.w3.org/2000/svg" xmlns:xlink="http://www.w3.org/1999/xlink" contentStyleType="text/css" data-diagram-type="CLASS" height="1245px" preserveAspectRatio="none" style="width:5050px;height:1245px;background:#FFFFFF;" version="1.1" viewBox="0 0 5050 1245" width="5050px" zoomAndPan="magnify"><title>Hyperion Parameter Model</title><defs/><g><text fill="#000000" font-family="sans-serif" font-size="14" font-weight="bold" lengthAdjust="spacing" textLength="212.4951" x="2411.9424" y="22.9951">Hyperion Parameter Model</text><!--cluster mx_bluesky.common.parameters--><g id="cluster_mx_bluesky.common.parameters"><path d="M8.5,53.8669 L269.8125,53.8669 A3.75,3.75 0 0 1 272.3125,56.3669 L279.3125,76.1637 L2993.5,76.1637 A2.5,2.5 0 0 1 2996,78.6637 L2996,1119.8669 A2.5,2.5 0 0 1 2993.5,1122.3669 L8.5,1122.3669 A2.5,2.5 0 0 1 6,1119.8669 L6,56.3669 A2.5,2.5 0 0 1 8.5,53.8669 " fill="#FFFFFF" fill-opacity="0.00000" style="stroke:#000000;stroke-width:1.5;"/><line style="stroke:#000000;stroke-width:1.5;" x1="6" x2="279.3125" y1="76.1637" y2="76.1637"/><text fill="#000000" font-family="sans-serif" font-size="14" font-weight="bold" lengthAdjust="spacing" textLength="260.3125" x="10" y="68.862">mx_bluesky.common.parameters</text></g><!--cluster mx_bluesky.hyperion.parameters--><g id="cluster_mx_bluesky.hyperion.parameters"><path d="M3022.5,671.0669 L3287.0322,671.0669 A3.75,3.75 0 0 1 3289.5322,673.5669 L3296.5322,693.3637 L4842.5,693.3637 A2.5,2.5 0 0 1 4845,695.8637 L4845,1236.1669 A2.5,2.5 0 0 1 4842.5,1238.6669 L3022.5,1238.6669 A2.5,2.5 0 0 1 3020,1236.1669 L3020,673.5669 A2.5,2.5 0 0 1 3022.5,671.0669 " fill="#FFFFFF" fill-opacity="0.00000" style="stroke:#000000;stroke-width:1.5;"/><line style="stroke:#000000;stroke-width:1.5;" x1="3020" x2="3296.5322" y1="693.3637" y2="693.3637"/><text fill="#000000" font-family="sans-serif" font-size="14" font-weight="bold" lengthAdjust="spacing" textLength="263.5322" x="3024" y="686.062">mx_bluesky.hyperion.parameters</text></g><!--class WithOptionalEnergyChange--><g id="elem_WithOptionalEnergyChange"><rect codeLine="8" fill="#F1F1F1" height="64.2969" id="WithOptionalEnergyChange" rx="2.5" ry="2.5" style="stroke:#181818;stroke-width:0.5;" width="235.4463" x="30.28" y="129.4669"/><ellipse cx="49.4645" cy="145.4669" fill="#ADD1B2" rx="11" ry="11" style="stroke:#181818;stroke-width:1;"/><path d="M52.4332,151.1075 Q51.8551,151.4044 51.2145,151.545 Q50.5738,151.7012 49.8707,151.7012 Q47.3707,151.7012 46.0426,150.0606 Q44.7301,148.4044 44.7301,145.2794 Q44.7301,142.1544 46.0426,140.4981 Q47.3707,138.8419 49.8707,138.8419 Q50.5738,138.8419 51.2145,138.9981 Q51.8707,139.1544 52.4332,139.4512 L52.4332,142.17 Q51.8082,141.5919 51.2145,141.3262 Q50.6207,141.045 49.9957,141.045 Q48.652,141.045 47.9645,142.1231 Q47.277,143.1856 47.277,145.2794 Q47.277,147.3731 47.9645,148.4512 Q48.652,149.5137 49.9957,149.5137 Q50.6207,149.5137 51.2145,149.2481 Q51.8082,148.9669 52.4332,148.3887 L52.4332,151.1075 Z " fill="#000000"/><text fill="#000000" font-family="sans-serif" font-size="14" lengthAdjust="spacing" textLength="194.1475" x="64.3944" y="150.3136">WithOptionalEnergyChange</text><line style="stroke:#181818;stroke-width:0.5;" x1="31.28" x2="264.7263" y1="161.4669" y2="161.4669"/><text fill="#000000" font-family="sans-serif" font-size="14" lengthAdjust="spacing" textLength="223.4463" x="36.28" y="178.462">float | None demand_energy_ev</text><line style="stroke:#181818;stroke-width:0.5;" x1="31.28" x2="264.7263" y1="185.7637" y2="185.7637"/></g><!--class WithSample--><g id="elem_WithSample"><rect codeLine="11" fill="#F1F1F1" height="96.8906" id="WithSample" rx="2.5" ry="2.5" style="stroke:#181818;stroke-width:0.5;" width="176.3086" x="460.85" y="113.1669"/><ellipse cx="502.7243" cy="129.1669" fill="#ADD1B2" rx="11" ry="11" style="stroke:#181818;stroke-width:1;"/><path d="M505.6931,134.8075 Q505.1149,135.1044 504.4743,135.245 Q503.8337,135.4012 503.1306,135.4012 Q500.6306,135.4012 499.3024,133.7606 Q497.9899,132.1044 497.9899,128.9794 Q497.9899,125.8544 499.3024,124.1981 Q500.6306,122.5419 503.1306,122.5419 Q503.8337,122.5419 504.4743,122.6981 Q505.1306,122.8544 505.6931,123.1512 L505.6931,125.87 Q505.0681,125.2919 504.4743,125.0262 Q503.8806,124.745 503.2556,124.745 Q501.9118,124.745 501.2243,125.8231 Q500.5368,126.8856 500.5368,128.9794 Q500.5368,131.0731 501.2243,132.1512 Q501.9118,133.2137 503.2556,133.2137 Q503.8806,133.2137 504.4743,132.9481 Q505.0681,132.6669 505.6931,132.0887 L505.6931,134.8075 Z " fill="#000000"/><text fill="#000000" font-family="sans-serif" font-size="14" lengthAdjust="spacing" textLength="84.5879" x="522.6964" y="134.0136">WithSample</text><line style="stroke:#181818;stroke-width:0.5;" x1="461.85" x2="636.1586" y1="145.1669" y2="145.1669"/><text fill="#000000" font-family="sans-serif" font-size="14" lengthAdjust="spacing" textLength="93.3789" x="466.85" y="162.162">int sample_id</text><text fill="#000000" font-family="sans-serif" font-size="14" lengthAdjust="spacing" textLength="164.3086" x="466.85" y="178.4589">int | None sample_puck</text><text fill="#000000" font-family="sans-serif" font-size="14" lengthAdjust="spacing" textLength="152.3936" x="466.85" y="194.7557">int | None sample_pin</text><line style="stroke:#181818;stroke-width:0.5;" x1="461.85" x2="636.1586" y1="202.0575" y2="202.0575"/></g><!--class WithScan--><g id="elem_WithScan"><rect codeLine="16" fill="#F1F1F1" height="48" id="WithScan" rx="2.5" ry="2.5" style="stroke:#181818;stroke-width:0.5;" width="98.1309" x="1689.93" y="137.6169"/><ellipse cx="1704.93" cy="153.6169" fill="#ADD1B2" rx="11" ry="11" style="stroke:#181818;stroke-width:1;"/><path d="M1707.8988,159.2575 Q1707.3206,159.5544 1706.68,159.695 Q1706.0394,159.8512 1705.3363,159.8512 Q1702.8363,159.8512 1701.5081,158.2106 Q1700.1956,156.5544 1700.1956,153.4294 Q1700.1956,150.3044 1701.5081,148.6481 Q1702.8363,146.9919 1705.3363,146.9919 Q1706.0394,146.9919 1706.68,147.1481 Q1707.3363,147.3044 1707.8988,147.6012 L1707.8988,150.32 Q1707.2738,149.7419 1706.68,149.4762 Q1706.0863,149.195 1705.4613,149.195 Q1704.1175,149.195 1703.43,150.2731 Q1702.7425,151.3356 1702.7425,153.4294 Q1702.7425,155.5231 1703.43,156.6012 Q1704.1175,157.6637 1705.4613,157.6637 Q1706.0863,157.6637 1706.68,157.3981 Q1707.2738,157.1169 1707.8988,156.5387 L1707.8988,159.2575 Z " fill="#000000"/><text fill="#000000" font-family="sans-serif" font-size="14" lengthAdjust="spacing" textLength="66.1309" x="1718.93" y="158.4636">WithScan</text><line style="stroke:#181818;stroke-width:0.5;" x1="1690.93" x2="1787.0609" y1="169.6169" y2="169.6169"/><line style="stroke:#181818;stroke-width:0.5;" x1="1690.93" x2="1787.0609" y1="177.6169" y2="177.6169"/></g><!--class WithPandaGridScan--><g id="elem_WithPandaGridScan"><rect codeLine="18" fill="#F1F1F1" height="64.2969" id="WithPandaGridScan" rx="2.5" ry="2.5" style="stroke:#181818;stroke-width:0.5;" width="240.5664" x="1822.72" y="129.4669"/><ellipse cx="1869.3172" cy="145.4669" fill="#ADD1B2" rx="11" ry="11" style="stroke:#181818;stroke-width:1;"/><path d="M1872.2859,151.1075 Q1871.7078,151.4044 1871.0672,151.545 Q1870.4265,151.7012 1869.7234,151.7012 Q1867.2234,151.7012 1865.8953,150.0606 Q1864.5828,148.4044 1864.5828,145.2794 Q1864.5828,142.1544 1865.8953,140.4981 Q1867.2234,138.8419 1869.7234,138.8419 Q1870.4265,138.8419 1871.0672,138.9981 Q1871.7234,139.1544 1872.2859,139.4512 L1872.2859,142.17 Q1871.6609,141.5919 1871.0672,141.3262 Q1870.4734,141.045 1869.8484,141.045 Q1868.5047,141.045 1867.8172,142.1231 Q1867.1297,143.1856 1867.1297,145.2794 Q1867.1297,147.3731 1867.8172,148.4512 Q1868.5047,149.5137 1869.8484,149.5137 Q1870.4734,149.5137 1871.0672,149.2481 Q1871.6609,148.9669 1872.2859,148.3887 L1872.2859,151.1075 Z " fill="#000000"/><text fill="#000000" font-family="sans-serif" font-size="14" lengthAdjust="spacing" textLength="138.8721" x="1889.8172" y="150.3136">WithPandaGridScan</text><line style="stroke:#181818;stroke-width:0.5;" x1="1823.72" x2="2062.2864" y1="161.4669" y2="161.4669"/><text fill="#000000" font-family="sans-serif" font-size="14" lengthAdjust="spacing" textLength="228.5664" x="1828.72" y="178.462">float panda_runup_distance_mm</text><line style="stroke:#181818;stroke-width:0.5;" x1="1823.72" x2="2062.2864" y1="185.7637" y2="185.7637"/></g><!--class SplitScan--><g id="elem_SplitScan"><rect codeLine="21" fill="#F1F1F1" height="48" id="SplitScan" rx="2.5" ry="2.5" style="stroke:#181818;stroke-width:0.5;" width="97.0781" x="1303.46" y="137.6169"/><ellipse cx="1318.46" cy="153.6169" fill="#ADD1B2" rx="11" ry="11" style="stroke:#181818;stroke-width:1;"/><path d="M1321.4288,159.2575 Q1320.8506,159.5544 1320.21,159.695 Q1319.5694,159.8512 1318.8663,159.8512 Q1316.3663,159.8512 1315.0381,158.2106 Q1313.7256,156.5544 1313.7256,153.4294 Q1313.7256,150.3044 1315.0381,148.6481 Q1316.3663,146.9919 1318.8663,146.9919 Q1319.5694,146.9919 1320.21,147.1481 Q1320.8663,147.3044 1321.4288,147.6012 L1321.4288,150.32 Q1320.8038,149.7419 1320.21,149.4762 Q1319.6163,149.195 1318.9913,149.195 Q1317.6475,149.195 1316.96,150.2731 Q1316.2725,151.3356 1316.2725,153.4294 Q1316.2725,155.5231 1316.96,156.6012 Q1317.6475,157.6637 1318.9913,157.6637 Q1319.6163,157.6637 1320.21,157.3981 Q1320.8038,157.1169 1321.4288,156.5387 L1321.4288,159.2575 Z " fill="#000000"/><text fill="#000000" font-family="sans-serif" font-size="14" lengthAdjust="spacing" textLength="65.0781" x="1332.46" y="158.4636">SplitScan</text><line style="stroke:#181818;stroke-width:0.5;" x1="1304.46" x2="1399.5381" y1="169.6169" y2="169.6169"/><line style="stroke:#181818;stroke-width:0.5;" x1="1304.46" x2="1399.5381" y1="177.6169" y2="177.6169"/></g><!--class SpecifiedGrid--><g id="elem_SpecifiedGrid"><rect codeLine="23" fill="#F1F1F1" height="48" id="SpecifiedGrid" rx="2.5" ry="2.5" style="stroke:#181818;stroke-width:0.5;" width="125.6729" x="1676.16" y="367.8369"/><ellipse cx="1691.16" cy="383.8369" fill="#ADD1B2" rx="11" ry="11" style="stroke:#181818;stroke-width:1;"/><path d="M1694.1288,389.4775 Q1693.5506,389.7744 1692.91,389.915 Q1692.2694,390.0712 1691.5663,390.0712 Q1689.0663,390.0712 1687.7381,388.4306 Q1686.4256,386.7744 1686.4256,383.6494 Q1686.4256,380.5244 1687.7381,378.8681 Q1689.0663,377.2119 1691.5663,377.2119 Q1692.2694,377.2119 1692.91,377.3681 Q1693.5663,377.5244 1694.1288,377.8212 L1694.1288,380.54 Q1693.5038,379.9619 1692.91,379.6962 Q1692.3163,379.415 1691.6913,379.415 Q1690.3475,379.415 1689.66,380.4931 Q1688.9725,381.5556 1688.9725,383.6494 Q1688.9725,385.7431 1689.66,386.8212 Q1690.3475,387.8837 1691.6913,387.8837 Q1692.3163,387.8837 1692.91,387.6181 Q1693.5038,387.3369 1694.1288,386.7587 L1694.1288,389.4775 Z " fill="#000000"/><text fill="#000000" font-family="sans-serif" font-size="14" lengthAdjust="spacing" textLength="93.6729" x="1705.16" y="388.6836">SpecifiedGrid</text><line style="stroke:#181818;stroke-width:0.5;" x1="1677.16" x2="1800.8329" y1="399.8369" y2="399.8369"/><line style="stroke:#181818;stroke-width:0.5;" x1="1677.16" x2="1800.8329" y1="407.8369" y2="407.8369"/></g><!--class WithCentreSelection--><g id="elem_WithCentreSelection"><rect codeLine="25" fill="#F1F1F1" height="64.2969" id="WithCentreSelection" rx="2.5" ry="2.5" style="stroke:#181818;stroke-width:0.5;" width="306.7861" x="2098.61" y="129.4669"/><ellipse cx="2175.8869" cy="145.4669" fill="#ADD1B2" rx="11" ry="11" style="stroke:#181818;stroke-width:1;"/><path d="M2178.8556,151.1075 Q2178.2775,151.4044 2177.6369,151.545 Q2176.9962,151.7012 2176.2931,151.7012 Q2173.7931,151.7012 2172.465,150.0606 Q2171.1525,148.4044 2171.1525,145.2794 Q2171.1525,142.1544 2172.465,140.4981 Q2173.7931,138.8419 2176.2931,138.8419 Q2176.9962,138.8419 2177.6369,138.9981 Q2178.2931,139.1544 2178.8556,139.4512 L2178.8556,142.17 Q2178.2306,141.5919 2177.6369,141.3262 Q2177.0431,141.045 2176.4181,141.045 Q2175.0744,141.045 2174.3869,142.1231 Q2173.6994,143.1856 2173.6994,145.2794 Q2173.6994,147.3731 2174.3869,148.4512 Q2175.0744,149.5137 2176.4181,149.5137 Q2177.0431,149.5137 2177.6369,149.2481 Q2178.2306,148.9669 2178.8556,148.3887 L2178.8556,151.1075 Z " fill="#000000"/><text fill="#000000" font-family="sans-serif" font-size="14" lengthAdjust="spacing" textLength="143.7324" x="2196.3869" y="150.3136">WithCentreSelection</text><line style="stroke:#181818;stroke-width:0.5;" x1="2099.61" x2="2404.3961" y1="161.4669" y2="161.4669"/><text fill="#000000" font-family="sans-serif" font-size="14" lengthAdjust="spacing" textLength="294.7861" x="2104.61" y="178.462">TopNByMaxCountSelection select_centres</text><line style="stroke:#181818;stroke-width:0.5;" x1="2099.61" x2="2404.3961" y1="185.7637" y2="185.7637"/></g><!--class WithVisit--><g id="elem_WithVisit"><rect codeLine="28" fill="#F1F1F1" height="129.4844" id="WithVisit" rx="2.5" ry="2.5" style="stroke:#181818;stroke-width:0.5;" width="271.7861" x="997.11" y="96.8669"/><ellipse cx="1097.6359" cy="112.8669" fill="#ADD1B2" rx="11" ry="11" style="stroke:#181818;stroke-width:1;"/><path d="M1100.6046,118.5075 Q1100.0265,118.8044 1099.3859,118.945 Q1098.7453,119.1012 1098.0421,119.1012 Q1095.5421,119.1012 1094.214,117.4606 Q1092.9015,115.8044 1092.9015,112.6794 Q1092.9015,109.5544 1094.214,107.8981 Q1095.5421,106.2419 1098.0421,106.2419 Q1098.7453,106.2419 1099.3859,106.3981 Q1100.0421,106.5544 1100.6046,106.8512 L1100.6046,109.57 Q1099.9796,108.9919 1099.3859,108.7262 Q1098.7921,108.445 1098.1671,108.445 Q1096.8234,108.445 1096.1359,109.5231 Q1095.4484,110.5856 1095.4484,112.6794 Q1095.4484,114.7731 1096.1359,115.8512 Q1096.8234,116.9137 1098.1671,116.9137 Q1098.7921,116.9137 1099.3859,116.6481 Q1099.9796,116.3669 1100.6046,115.7887 L1100.6046,118.5075 Z " fill="#000000"/><text fill="#000000" font-family="sans-serif" font-size="14" lengthAdjust="spacing" textLength="62.2344" x="1118.1359" y="117.7136">WithVisit</text><line style="stroke:#181818;stroke-width:0.5;" x1="998.11" x2="1267.8961" y1="128.8669" y2="128.8669"/><text fill="#000000" font-family="sans-serif" font-size="14" lengthAdjust="spacing" textLength="87.9717" x="1003.11" y="145.862">str beamline</text><text fill="#000000" font-family="sans-serif" font-size="14" lengthAdjust="spacing" textLength="51.8369" x="1003.11" y="162.1589">str visit</text><text fill="#000000" font-family="sans-serif" font-size="14" lengthAdjust="spacing" textLength="259.7861" x="1003.11" y="178.4557">str det_dist_to_beam_converter_path</text><text fill="#000000" font-family="sans-serif" font-size="14" lengthAdjust="spacing" textLength="131.5918" x="1003.11" y="194.7526">str insertion_prefix</text><text fill="#000000" font-family="sans-serif" font-size="14" lengthAdjust="spacing" textLength="245.752" x="1003.11" y="211.0495">float | None detector_distance_mm</text><line style="stroke:#181818;stroke-width:0.5;" x1="998.11" x2="1267.8961" y1="218.3512" y2="218.3512"/></g><!--class OptionalXyzStarts--><g id="elem_OptionalXyzStarts"><rect codeLine="35" fill="#F1F1F1" height="96.8906" id="OptionalXyzStarts" rx="2.5" ry="2.5" style="stroke:#181818;stroke-width:0.5;" width="175.4473" x="2440.28" y="113.1669"/><ellipse cx="2463.1713" cy="129.1669" fill="#ADD1B2" rx="11" ry="11" style="stroke:#181818;stroke-width:1;"/><path d="M2466.14,134.8075 Q2465.5619,135.1044 2464.9213,135.245 Q2464.2806,135.4012 2463.5775,135.4012 Q2461.0775,135.4012 2459.7494,133.7606 Q2458.4369,132.1044 2458.4369,128.9794 Q2458.4369,125.8544 2459.7494,124.1981 Q2461.0775,122.5419 2463.5775,122.5419 Q2464.2806,122.5419 2464.9213,122.6981 Q2465.5775,122.8544 2466.14,123.1512 L2466.14,125.87 Q2465.515,125.2919 2464.9213,125.0262 Q2464.3275,124.745 2463.7025,124.745 Q2462.3588,124.745 2461.6713,125.8231 Q2460.9838,126.8856 2460.9838,128.9794 Q2460.9838,131.0731 2461.6713,132.1512 Q2462.3588,133.2137 2463.7025,133.2137 Q2464.3275,133.2137 2464.9213,132.9481 Q2465.515,132.6669 2466.14,132.0887 L2466.14,134.8075 Z " fill="#000000"/><text fill="#000000" font-family="sans-serif" font-size="14" lengthAdjust="spacing" textLength="125.9111" x="2478.9249" y="134.0136">OptionalXyzStarts</text><line style="stroke:#181818;stroke-width:0.5;" x1="2441.28" x2="2614.7273" y1="145.1669" y2="145.1669"/><text fill="#000000" font-family="sans-serif" font-size="14" lengthAdjust="spacing" textLength="163.4473" x="2446.28" y="162.162">float | None x_start_um</text><text fill="#000000" font-family="sans-serif" font-size="14" lengthAdjust="spacing" textLength="163.4473" x="2446.28" y="178.4589">float | None y_start_um</text><text fill="#000000" font-family="sans-serif" font-size="14" lengthAdjust="spacing" textLength="162.5107" x="2446.28" y="194.7557">float | None z_start_um</text><line style="stroke:#181818;stroke-width:0.5;" x1="2441.28" x2="2614.7273" y1="202.0575" y2="202.0575"/></g><!--class WithSnapshot--><g id="elem_WithSnapshot"><rect codeLine="40" fill="#F1F1F1" height="80.5938" id="WithSnapshot" rx="2.5" ry="2.5" style="stroke:#181818;stroke-width:0.5;" width="289.3477" x="672.33" y="121.3169"/><ellipse cx="763.9828" cy="137.3169" fill="#ADD1B2" rx="11" ry="11" style="stroke:#181818;stroke-width:1;"/><path d="M766.9516,142.9575 Q766.3735,143.2544 765.7328,143.395 Q765.0922,143.5512 764.3891,143.5512 Q761.8891,143.5512 760.561,141.9106 Q759.2485,140.2544 759.2485,137.1294 Q759.2485,134.0044 760.561,132.3481 Q761.8891,130.6919 764.3891,130.6919 Q765.0922,130.6919 765.7328,130.8481 Q766.3891,131.0044 766.9516,131.3012 L766.9516,134.02 Q766.3266,133.4419 765.7328,133.1762 Q765.1391,132.895 764.5141,132.895 Q763.1703,132.895 762.4828,133.9731 Q761.7953,135.0356 761.7953,137.1294 Q761.7953,139.2231 762.4828,140.3012 Q763.1703,141.3637 764.5141,141.3637 Q765.1391,141.3637 765.7328,141.0981 Q766.3266,140.8169 766.9516,140.2387 L766.9516,142.9575 Z " fill="#000000"/><text fill="#000000" font-family="sans-serif" font-size="14" lengthAdjust="spacing" textLength="97.542" x="784.4828" y="142.1636">WithSnapshot</text><line style="stroke:#181818;stroke-width:0.5;" x1="673.33" x2="960.6777" y1="153.3169" y2="153.3169"/><text fill="#000000" font-family="sans-serif" font-size="14" lengthAdjust="spacing" textLength="169.627" x="678.33" y="170.312">Path snapshot_directory</text><text fill="#000000" font-family="sans-serif" font-size="14" lengthAdjust="spacing" textLength="277.3477" x="678.33" y="186.6089">list[float] | None snapshot_omegas_deg</text><line style="stroke:#181818;stroke-width:0.5;" x1="673.33" x2="960.6777" y1="193.9106" y2="193.9106"/></g><!--class OptionalGonioAngleStarts--><g id="elem_OptionalGonioAngleStarts"><rect codeLine="44" fill="#F1F1F1" height="113.1875" id="OptionalGonioAngleStarts" rx="2.5" ry="2.5" style="stroke:#181818;stroke-width:0.5;" width="219.3203" x="1435.34" y="105.0169"/><ellipse cx="1453.0633" cy="121.0169" fill="#ADD1B2" rx="11" ry="11" style="stroke:#181818;stroke-width:1;"/><path d="M1456.032,126.6575 Q1455.4539,126.9544 1454.8133,127.095 Q1454.1727,127.2512 1453.4695,127.2512 Q1450.9695,127.2512 1449.6414,125.6106 Q1448.3289,123.9544 1448.3289,120.8294 Q1448.3289,117.7044 1449.6414,116.0481 Q1450.9695,114.3919 1453.4695,114.3919 Q1454.1727,114.3919 1454.8133,114.5481 Q1455.4695,114.7044 1456.032,115.0012 L1456.032,117.72 Q1455.407,117.1419 1454.8133,116.8762 Q1454.2195,116.595 1453.5945,116.595 Q1452.2508,116.595 1451.5633,117.6731 Q1450.8758,118.7356 1450.8758,120.8294 Q1450.8758,122.9231 1451.5633,124.0012 Q1452.2508,125.0637 1453.5945,125.0637 Q1454.2195,125.0637 1454.8133,124.7981 Q1455.407,124.5169 1456.032,123.9387 L1456.032,126.6575 Z " fill="#000000"/><text fill="#000000" font-family="sans-serif" font-size="14" lengthAdjust="spacing" textLength="181.2686" x="1467.6685" y="125.8636">OptionalGonioAngleStarts</text><line style="stroke:#181818;stroke-width:0.5;" x1="1436.34" x2="1653.6603" y1="137.0169" y2="137.0169"/><text fill="#000000" font-family="sans-serif" font-size="14" lengthAdjust="spacing" textLength="207.3203" x="1441.34" y="154.012">float | None omega_start_deg</text><text fill="#000000" font-family="sans-serif" font-size="14" lengthAdjust="spacing" textLength="180.6875" x="1441.34" y="170.3089">float | None phi_start_deg</text><text fill="#000000" font-family="sans-serif" font-size="14" lengthAdjust="spacing" textLength="179.498" x="1441.34" y="186.6057">float | None chi_start_deg</text><text fill="#000000" font-family="sans-serif" font-size="14" lengthAdjust="spacing" textLength="202.0771" x="1441.34" y="202.9026">float | None kappa_start_deg</text><line style="stroke:#181818;stroke-width:0.5;" x1="1436.34" x2="1653.6603" y1="210.2044" y2="210.2044"/></g><!--class XyzStarts--><g id="elem_XyzStarts"><rect codeLine="50" fill="#F1F1F1" height="96.8906" id="XyzStarts" rx="2.5" ry="2.5" style="stroke:#181818;stroke-width:0.5;" width="125.3057" x="300.35" y="113.1669"/><ellipse cx="327.3141" cy="129.1669" fill="#ADD1B2" rx="11" ry="11" style="stroke:#181818;stroke-width:1;"/><path d="M330.2829,134.8075 Q329.7047,135.1044 329.0641,135.245 Q328.4235,135.4012 327.7204,135.4012 Q325.2204,135.4012 323.8922,133.7606 Q322.5797,132.1044 322.5797,128.9794 Q322.5797,125.8544 323.8922,124.1981 Q325.2204,122.5419 327.7204,122.5419 Q328.4235,122.5419 329.0641,122.6981 Q329.7204,122.8544 330.2829,123.1512 L330.2829,125.87 Q329.6579,125.2919 329.0641,125.0262 Q328.4704,124.745 327.8454,124.745 Q326.5016,124.745 325.8141,125.8231 Q325.1266,126.8856 325.1266,128.9794 Q325.1266,131.0731 325.8141,132.1512 Q326.5016,133.2137 327.8454,133.2137 Q328.4704,133.2137 329.0641,132.9481 Q329.6579,132.6669 330.2829,132.0887 L330.2829,134.8075 Z " fill="#000000"/><text fill="#000000" font-family="sans-serif" font-size="14" lengthAdjust="spacing" textLength="66.7188" x="343.9728" y="134.0136">XyzStarts</text><line style="stroke:#181818;stroke-width:0.5;" x1="301.35" x2="424.6557" y1="145.1669" y2="145.1669"/><text fill="#000000" font-family="sans-serif" font-size="14" lengthAdjust="spacing" textLength="113.3057" x="306.35" y="162.162">float x_start_um</text><text fill="#000000" font-family="sans-serif" font-size="14" lengthAdjust="spacing" textLength="113.3057" x="306.35" y="178.4589">float y_start_um</text><text fill="#000000" font-family="sans-serif" font-size="14" lengthAdjust="spacing" textLength="112.3691" x="306.35" y="194.7557">float z_start_um</text><line style="stroke:#181818;stroke-width:0.5;" x1="301.35" x2="424.6557" y1="202.0575" y2="202.0575"/></g><!--class SpecifiedThreeDGridScan--><g id="elem_SpecifiedThreeDGridScan"><rect codeLine="57" fill="#F1F1F1" height="227.2656" id="SpecifiedThreeDGridScan" rx="2.5" ry="2.5" style="stroke:#181818;stroke-width:0.5;" width="210.8965" x="2639.55" y="871.1069"/><ellipse cx="2654.55" cy="887.1069" fill="#ADD1B2" rx="11" ry="11" style="stroke:#181818;stroke-width:1;"/><path d="M2657.5188,892.7475 Q2656.9406,893.0444 2656.3,893.185 Q2655.6594,893.3413 2654.9563,893.3413 Q2652.4563,893.3413 2651.1281,891.7006 Q2649.8156,890.0444 2649.8156,886.9194 Q2649.8156,883.7944 2651.1281,882.1381 Q2652.4563,880.4819 2654.9563,880.4819 Q2655.6594,880.4819 2656.3,880.6381 Q2656.9563,880.7944 2657.5188,881.0913 L2657.5188,883.81 Q2656.8938,883.2319 2656.3,882.9663 Q2655.7063,882.685 2655.0813,882.685 Q2653.7375,882.685 2653.05,883.7631 Q2652.3625,884.8256 2652.3625,886.9194 Q2652.3625,889.0131 2653.05,890.0913 Q2653.7375,891.1538 2655.0813,891.1538 Q2655.7063,891.1538 2656.3,890.8881 Q2656.8938,890.6069 2657.5188,890.0288 L2657.5188,892.7475 Z " fill="#000000"/><text fill="#000000" font-family="sans-serif" font-size="14" lengthAdjust="spacing" textLength="178.8965" x="2668.55" y="891.9536">SpecifiedThreeDGridScan</text><line style="stroke:#181818;stroke-width:0.5;" x1="2640.55" x2="2849.4465" y1="903.1069" y2="903.1069"/><text fill="#000000" font-family="sans-serif" font-size="14" lengthAdjust="spacing" textLength="160.8975" x="2645.55" y="920.102">float grid1_omega_deg</text><text fill="#000000" font-family="sans-serif" font-size="14" lengthAdjust="spacing" textLength="160.8975" x="2645.55" y="936.3989">float grid2_omega_deg</text><text fill="#000000" font-family="sans-serif" font-size="14" lengthAdjust="spacing" textLength="145.127" x="2645.55" y="952.6957">float x_step_size_um</text><text fill="#000000" font-family="sans-serif" font-size="14" lengthAdjust="spacing" textLength="145.127" x="2645.55" y="968.9926">float y_step_size_um</text><text fill="#000000" font-family="sans-serif" font-size="14" lengthAdjust="spacing" textLength="144.1904" x="2645.55" y="985.2895">float z_step_size_um</text><text fill="#000000" font-family="sans-serif" font-size="14" lengthAdjust="spacing" textLength="122.2129" x="2645.55" y="1001.5864">float y2_start_um</text><text fill="#000000" font-family="sans-serif" font-size="14" lengthAdjust="spacing" textLength="121.2764" x="2645.55" y="1017.8832">float z2_start_um</text><text fill="#000000" font-family="sans-serif" font-size="14" lengthAdjust="spacing" textLength="75.5645" x="2645.55" y="1034.1801">int x_steps</text><text fill="#000000" font-family="sans-serif" font-size="14" lengthAdjust="spacing" textLength="75.5645" x="2645.55" y="1050.477">int y_steps</text><text fill="#000000" font-family="sans-serif" font-size="14" lengthAdjust="spacing" textLength="74.6279" x="2645.55" y="1066.7739">int z_steps</text><text fill="#000000" font-family="sans-serif" font-size="14" lengthAdjust="spacing" textLength="154.4102" x="2645.55" y="1083.0707">bool _set_stub_offsets</text><line style="stroke:#181818;stroke-width:0.5;" x1="2640.55" x2="2849.4465" y1="1090.3725" y2="1090.3725"/></g><!--class MxBlueskyParameters--><g id="elem_MxBlueskyParameters"><rect codeLine="70" fill="#F1F1F1" height="64.2969" id="MxBlueskyParameters" rx="2.5" ry="2.5" style="stroke:#181818;stroke-width:0.5;" width="317.4639" x="2652.27" y="129.4669"/><ellipse cx="2728.8564" cy="145.4669" fill="#ADD1B2" rx="11" ry="11" style="stroke:#181818;stroke-width:1;"/><path d="M2731.8252,151.1075 Q2731.2471,151.4044 2730.6064,151.545 Q2729.9658,151.7012 2729.2627,151.7012 Q2726.7627,151.7012 2725.4346,150.0606 Q2724.1221,148.4044 2724.1221,145.2794 Q2724.1221,142.1544 2725.4346,140.4981 Q2726.7627,138.8419 2729.2627,138.8419 Q2729.9658,138.8419 2730.6064,138.9981 Q2731.2627,139.1544 2731.8252,139.4512 L2731.8252,142.17 Q2731.2002,141.5919 2730.6064,141.3262 Q2730.0127,141.045 2729.3877,141.045 Q2728.0439,141.045 2727.3564,142.1231 Q2726.6689,143.1856 2726.6689,145.2794 Q2726.6689,147.3731 2727.3564,148.4512 Q2728.0439,149.5137 2729.3877,149.5137 Q2730.0127,149.5137 2730.6064,149.2481 Q2731.2002,148.9669 2731.8252,148.3887 L2731.8252,151.1075 Z " fill="#000000"/><text fill="#000000" font-family="sans-serif" font-size="14" lengthAdjust="spacing" textLength="155.791" x="2749.3564" y="150.3136">MxBlueskyParameters</text><line style="stroke:#181818;stroke-width:0.5;" x1="2653.27" x2="2968.7339" y1="161.4669" y2="161.4669"/><text fill="#000000" font-family="sans-serif" font-size="14" lengthAdjust="spacing" textLength="305.4639" x="2658.27" y="178.462">SemanticVersion parameter_model_version</text><line style="stroke:#181818;stroke-width:0.5;" x1="2653.27" x2="2968.7339" y1="185.7637" y2="185.7637"/></g><!--class DiffractionExperimentWithSample--><g id="elem_DiffractionExperimentWithSample"><rect codeLine="73" fill="#F1F1F1" height="48" id="DiffractionExperimentWithSample" rx="2.5" ry="2.5" style="stroke:#181818;stroke-width:0.5;" width="270.8545" x="2670.57" y="557.3269"/><ellipse cx="2685.57" cy="573.3269" fill="#ADD1B2" rx="11" ry="11" style="stroke:#181818;stroke-width:1;"/><path d="M2688.5388,578.9675 Q2687.9606,579.2644 2687.32,579.405 Q2686.6794,579.5612 2685.9763,579.5612 Q2683.4763,579.5612 2682.1481,577.9206 Q2680.8356,576.2644 2680.8356,573.1394 Q2680.8356,570.0144 2682.1481,568.3581 Q2683.4763,566.7019 2685.9763,566.7019 Q2686.6794,566.7019 2687.32,566.8581 Q2687.9763,567.0144 2688.5388,567.3112 L2688.5388,570.03 Q2687.9138,569.4519 2687.32,569.1862 Q2686.7263,568.905 2686.1013,568.905 Q2684.7575,568.905 2684.07,569.9831 Q2683.3825,571.0456 2683.3825,573.1394 Q2683.3825,575.2331 2684.07,576.3112 Q2684.7575,577.3737 2686.1013,577.3737 Q2686.7263,577.3737 2687.32,577.1081 Q2687.9138,576.8269 2688.5388,576.2487 L2688.5388,578.9675 Z " fill="#000000"/><text fill="#000000" font-family="sans-serif" font-size="14" lengthAdjust="spacing" textLength="238.8545" x="2699.57" y="578.1736">DiffractionExperimentWithSample</text><line style="stroke:#181818;stroke-width:0.5;" x1="2671.57" x2="2940.4245" y1="589.3269" y2="589.3269"/><line style="stroke:#181818;stroke-width:0.5;" x1="2671.57" x2="2940.4245" y1="597.3269" y2="597.3269"/></g><!--class GridCommon--><g id="elem_GridCommon"><rect codeLine="75" fill="#F1F1F1" height="145.7813" id="GridCommon" rx="2.5" ry="2.5" style="stroke:#181818;stroke-width:0.5;" width="332.332" x="2639.83" y="665.3269"/><ellipse cx="2755.5282" cy="681.3269" fill="#ADD1B2" rx="11" ry="11" style="stroke:#181818;stroke-width:1;"/><path d="M2758.497,686.9675 Q2757.9189,687.2644 2757.2782,687.405 Q2756.6376,687.5612 2755.9345,687.5612 Q2753.4345,687.5612 2752.1064,685.9206 Q2750.7939,684.2644 2750.7939,681.1394 Q2750.7939,678.0144 2752.1064,676.3581 Q2753.4345,674.7019 2755.9345,674.7019 Q2756.6376,674.7019 2757.2782,674.8581 Q2757.9345,675.0144 2758.497,675.3112 L2758.497,678.03 Q2757.872,677.4519 2757.2782,677.1862 Q2756.6845,676.905 2756.0595,676.905 Q2754.7157,676.905 2754.0282,677.9831 Q2753.3407,679.0456 2753.3407,681.1394 Q2753.3407,683.2331 2754.0282,684.3112 Q2754.7157,685.3737 2756.0595,685.3737 Q2756.6845,685.3737 2757.2782,685.1081 Q2757.872,684.8269 2758.497,684.2487 L2758.497,686.9675 Z " fill="#000000"/><text fill="#000000" font-family="sans-serif" font-size="14" lengthAdjust="spacing" textLength="92.4355" x="2776.0282" y="686.1736">GridCommon</text><line style="stroke:#181818;stroke-width:0.5;" x1="2640.83" x2="2971.162" y1="697.3269" y2="697.3269"/><text fill="#000000" font-family="sans-serif" font-size="14" lengthAdjust="spacing" textLength="125.2959" x="2645.83" y="714.322">float box_size_um</text><text fill="#000000" font-family="sans-serif" font-size="14" lengthAdjust="spacing" textLength="138.4209" x="2645.83" y="730.6189">float grid_width_um</text><text fill="#000000" font-family="sans-serif" font-size="14" lengthAdjust="spacing" textLength="153.7129" x="2645.83" y="746.9157">float exposure_time_s</text><text fill="#000000" font-family="sans-serif" font-size="14" lengthAdjust="spacing" textLength="320.332" x="2645.83" y="763.2126">IspybExperimentType ispyb_experiment_type</text><text fill="#000000" font-family="sans-serif" font-size="14" lengthAdjust="spacing" textLength="282.3516" x="2645.83" y="779.5095">ApertureValue | None selected_aperture</text><text fill="#000000" font-family="sans-serif" font-size="14" lengthAdjust="spacing" textLength="130.498" x="2645.83" y="795.8064">float tip_offset_um</text><line style="stroke:#181818;stroke-width:0.5;" x1="2640.83" x2="2971.162" y1="803.1081" y2="803.1081"/></g><!--class DiffractionExperiment--><g id="elem_DiffractionExperiment"><rect codeLine="83" fill="#F1F1F1" height="210.9688" id="DiffractionExperiment" rx="2.5" ry="2.5" style="stroke:#181818;stroke-width:0.5;" width="332.332" x="2639.83" y="286.3569"/><ellipse cx="2724.6127" cy="302.3569" fill="#ADD1B2" rx="11" ry="11" style="stroke:#181818;stroke-width:1;"/><path d="M2727.5815,307.9975 Q2727.0033,308.2944 2726.3627,308.435 Q2725.7221,308.5912 2725.019,308.5912 Q2722.519,308.5912 2721.1908,306.9506 Q2719.8783,305.2944 2719.8783,302.1694 Q2719.8783,299.0444 2721.1908,297.3881 Q2722.519,295.7319 2725.019,295.7319 Q2725.7221,295.7319 2726.3627,295.8881 Q2727.019,296.0444 2727.5815,296.3412 L2727.5815,299.06 Q2726.9565,298.4819 2726.3627,298.2162 Q2725.769,297.935 2725.144,297.935 Q2723.8002,297.935 2723.1127,299.0131 Q2722.4252,300.0756 2722.4252,302.1694 Q2722.4252,304.2631 2723.1127,305.3412 Q2723.8002,306.4037 2725.144,306.4037 Q2725.769,306.4037 2726.3627,306.1381 Q2726.9565,305.8569 2727.5815,305.2787 L2727.5815,307.9975 Z " fill="#000000"/><text fill="#000000" font-family="sans-serif" font-size="14" lengthAdjust="spacing" textLength="154.2666" x="2745.1127" y="307.2036">DiffractionExperiment</text><line style="stroke:#181818;stroke-width:0.5;" x1="2640.83" x2="2971.162" y1="318.3569" y2="318.3569"/><text fill="#000000" font-family="sans-serif" font-size="14" lengthAdjust="spacing" textLength="91.0137" x="2645.83" y="335.352">str file_name</text><text fill="#000000" font-family="sans-serif" font-size="14" lengthAdjust="spacing" textLength="153.7129" x="2645.83" y="351.6489">float exposure_time_s</text><text fill="#000000" font-family="sans-serif" font-size="14" lengthAdjust="spacing" textLength="89.5029" x="2645.83" y="367.9457">str comment</text><text fill="#000000" font-family="sans-serif" font-size="14" lengthAdjust="spacing" textLength="186.915" x="2645.83" y="384.2426">TriggerMode trigger_mode</text><text fill="#000000" font-family="sans-serif" font-size="14" lengthAdjust="spacing" textLength="157.9854" x="2645.83" y="400.5395">int | None run_number</text><text fill="#000000" font-family="sans-serif" font-size="14" lengthAdjust="spacing" textLength="282.3516" x="2645.83" y="416.8364">ApertureValue | None selected_aperture</text><text fill="#000000" font-family="sans-serif" font-size="14" lengthAdjust="spacing" textLength="159.2979" x="2645.83" y="433.1332">float transmission_frac</text><text fill="#000000" font-family="sans-serif" font-size="14" lengthAdjust="spacing" textLength="320.332" x="2645.83" y="449.4301">IspybExperimentType ispyb_experiment_type</text><text fill="#000000" font-family="sans-serif" font-size="14" lengthAdjust="spacing" textLength="146.1113" x="2645.83" y="465.727">str storage_directory</text><text fill="#000000" font-family="sans-serif" font-size="14" lengthAdjust="spacing" textLength="131.0518" x="2645.83" y="482.0239">bool use_roi_mode</text><line style="stroke:#181818;stroke-width:0.5;" x1="2640.83" x2="2971.162" y1="489.3256" y2="489.3256"/></g><!--class LoadCentreCollect--><g id="elem_LoadCentreCollect"><rect codeLine="98" fill="#F1F1F1" height="80.5938" id="LoadCentreCollect" rx="2.5" ry="2.5" style="stroke:#181818;stroke-width:0.5;" width="338.6211" x="4191.69" y="944.4369"/><ellipse cx="4292.315" cy="960.4369" fill="#ADD1B2" rx="11" ry="11" style="stroke:#181818;stroke-width:1;"/><path d="M4295.2838,966.0775 Q4294.7056,966.3744 4294.065,966.515 Q4293.4244,966.6712 4292.7213,966.6712 Q4290.2213,966.6712 4288.8931,965.0306 Q4287.5806,963.3744 4287.5806,960.2494 Q4287.5806,957.1244 4288.8931,955.4681 Q4290.2213,953.8119 4292.7213,953.8119 Q4293.4244,953.8119 4294.065,953.9681 Q4294.7213,954.1244 4295.2838,954.4212 L4295.2838,957.14 Q4294.6588,956.5619 4294.065,956.2962 Q4293.4713,956.015 4292.8463,956.015 Q4291.5025,956.015 4290.815,957.0931 Q4290.1275,958.1556 4290.1275,960.2494 Q4290.1275,962.3431 4290.815,963.4212 Q4291.5025,964.4837 4292.8463,964.4837 Q4293.4713,964.4837 4294.065,964.2181 Q4294.6588,963.9369 4295.2838,963.3587 L4295.2838,966.0775 Z " fill="#000000"/><text fill="#000000" font-family="sans-serif" font-size="14" lengthAdjust="spacing" textLength="128.8711" x="4312.815" y="965.2836">LoadCentreCollect</text><line style="stroke:#181818;stroke-width:0.5;" x1="4192.69" x2="4529.3111" y1="976.4369" y2="976.4369"/><text fill="#000000" font-family="sans-serif" font-size="14" lengthAdjust="spacing" textLength="326.6211" x="4197.69" y="993.432">RobotLoadThenCentre robot_load_then_centre</text><text fill="#000000" font-family="sans-serif" font-size="14" lengthAdjust="spacing" textLength="269.3154" x="4197.69" y="1009.7289">MultiRotationScan multi_rotation_scan</text><line style="stroke:#181818;stroke-width:0.5;" x1="4192.69" x2="4529.3111" y1="1017.0306" y2="1017.0306"/></g><!--class GridCommonWithHyperionDetectorParams--><g id="elem_GridCommonWithHyperionDetectorParams"><rect codeLine="102" fill="#F1F1F1" height="48" id="GridCommonWithHyperionDetectorParams" rx="2.5" ry="2.5" style="stroke:#181818;stroke-width:0.5;" width="333.2188" x="3073.39" y="960.7369"/><ellipse cx="3088.39" cy="976.7369" fill="#ADD1B2" rx="11" ry="11" style="stroke:#181818;stroke-width:1;"/><path d="M3091.3588,982.3775 Q3090.7806,982.6744 3090.14,982.815 Q3089.4994,982.9712 3088.7963,982.9712 Q3086.2963,982.9712 3084.9681,981.3306 Q3083.6556,979.6744 3083.6556,976.5494 Q3083.6556,973.4244 3084.9681,971.7681 Q3086.2963,970.1119 3088.7963,970.1119 Q3089.4994,970.1119 3090.14,970.2681 Q3090.7963,970.4244 3091.3588,970.7212 L3091.3588,973.44 Q3090.7338,972.8619 3090.14,972.5962 Q3089.5463,972.315 3088.9213,972.315 Q3087.5775,972.315 3086.89,973.3931 Q3086.2025,974.4556 3086.2025,976.5494 Q3086.2025,978.6431 3086.89,979.7212 Q3087.5775,980.7837 3088.9213,980.7837 Q3089.5463,980.7837 3090.14,980.5181 Q3090.7338,980.2369 3091.3588,979.6587 L3091.3588,982.3775 Z " fill="#000000"/><text fill="#000000" font-family="sans-serif" font-size="14" lengthAdjust="spacing" textLength="301.2188" x="3102.39" y="981.5836">GridCommonWithHyperionDetectorParams</text><line style="stroke:#181818;stroke-width:0.5;" x1="3074.39" x2="3405.6088" y1="992.7369" y2="992.7369"/><line style="stroke:#181818;stroke-width:0.5;" x1="3074.39" x2="3405.6088" y1="1000.7369" y2="1000.7369"/></g><!--class RotationScan--><g id="elem_RotationScan"><rect codeLine="104" fill="#F1F1F1" height="48" id="RotationScan" rx="2.5" ry="2.5" style="stroke:#181818;stroke-width:0.5;" width="125.2148" x="4634.39" y="1166.5169"/><ellipse cx="4649.39" cy="1182.5169" fill="#ADD1B2" rx="11" ry="11" style="stroke:#181818;stroke-width:1;"/><path d="M4652.3588,1188.1575 Q4651.7806,1188.4544 4651.14,1188.595 Q4650.4994,1188.7512 4649.7963,1188.7512 Q4647.2963,1188.7512 4645.9681,1187.1106 Q4644.6556,1185.4544 4644.6556,1182.3294 Q4644.6556,1179.2044 4645.9681,1177.5481 Q4647.2963,1175.8919 4649.7963,1175.8919 Q4650.4994,1175.8919 4651.14,1176.0481 Q4651.7963,1176.2044 4652.3588,1176.5012 L4652.3588,1179.22 Q4651.7338,1178.6419 4651.14,1178.3762 Q4650.5463,1178.095 4649.9213,1178.095 Q4648.5775,1178.095 4647.89,1179.1731 Q4647.2025,1180.2356 4647.2025,1182.3294 Q4647.2025,1184.4231 4647.89,1185.5012 Q4648.5775,1186.5637 4649.9213,1186.5637 Q4650.5463,1186.5637 4651.14,1186.2981 Q4651.7338,1186.0169 4652.3588,1185.4387 L4652.3588,1188.1575 Z " fill="#000000"/><text fill="#000000" font-family="sans-serif" font-size="14" lengthAdjust="spacing" textLength="93.2148" x="4663.39" y="1187.3636">RotationScan</text><line style="stroke:#181818;stroke-width:0.5;" x1="4635.39" x2="4758.6048" y1="1198.5169" y2="1198.5169"/><line style="stroke:#181818;stroke-width:0.5;" x1="4635.39" x2="4758.6048" y1="1206.5169" y2="1206.5169"/></g><!--class RotationExperiment--><g id="elem_RotationExperiment"><rect codeLine="106" fill="#F1F1F1" height="96.8906" id="RotationExperiment" rx="2.5" ry="2.5" style="stroke:#181818;stroke-width:0.5;" width="332.332" x="3515.83" y="936.2969"/><ellipse cx="3607.7118" cy="952.2969" fill="#ADD1B2" rx="11" ry="11" style="stroke:#181818;stroke-width:1;"/><path d="M3610.6806,957.9375 Q3610.1025,958.2344 3609.4618,958.375 Q3608.8212,958.5312 3608.1181,958.5312 Q3605.6181,958.5312 3604.29,956.8906 Q3602.9775,955.2344 3602.9775,952.1094 Q3602.9775,948.9844 3604.29,947.3281 Q3605.6181,945.6719 3608.1181,945.6719 Q3608.8212,945.6719 3609.4618,945.8281 Q3610.1181,945.9844 3610.6806,946.2812 L3610.6806,949 Q3610.0556,948.4219 3609.4618,948.1562 Q3608.8681,947.875 3608.2431,947.875 Q3606.8993,947.875 3606.2118,948.9531 Q3605.5243,950.0156 3605.5243,952.1094 Q3605.5243,954.2031 3606.2118,955.2812 Q3606.8993,956.3437 3608.2431,956.3437 Q3608.8681,956.3437 3609.4618,956.0781 Q3610.0556,955.7969 3610.6806,955.2187 L3610.6806,957.9375 Z " fill="#000000"/><text fill="#000000" font-family="sans-serif" font-size="14" lengthAdjust="spacing" textLength="140.0684" x="3628.2118" y="957.1436">RotationExperiment</text><line style="stroke:#181818;stroke-width:0.5;" x1="3516.83" x2="3847.162" y1="968.2969" y2="968.2969"/><text fill="#000000" font-family="sans-serif" font-size="14" lengthAdjust="spacing" textLength="202.8018" x="3521.83" y="985.292">float shutter_opening_time_s</text><text fill="#000000" font-family="sans-serif" font-size="14" lengthAdjust="spacing" textLength="202.9385" x="3521.83" y="1001.5889">float rotation_increment_deg</text><text fill="#000000" font-family="sans-serif" font-size="14" lengthAdjust="spacing" textLength="320.332" x="3521.83" y="1017.8857">IspybExperimentType ispyb_experiment_type</text><line style="stroke:#181818;stroke-width:0.5;" x1="3516.83" x2="3847.162" y1="1025.1875" y2="1025.1875"/></g><!--class RobotLoadThenCentre--><g id="elem_RobotLoadThenCentre"><rect codeLine="111" fill="#F1F1F1" height="64.2969" id="RobotLoadThenCentre" rx="2.5" ry="2.5" style="stroke:#181818;stroke-width:0.5;" width="212.9355" x="3306.53" y="1158.3669"/><ellipse cx="3332.2575" cy="1174.3669" fill="#ADD1B2" rx="11" ry="11" style="stroke:#181818;stroke-width:1;"/><path d="M3335.2262,1180.0075 Q3334.6481,1180.3044 3334.0075,1180.445 Q3333.3669,1180.6013 3332.6637,1180.6013 Q3330.1637,1180.6013 3328.8356,1178.9606 Q3327.5231,1177.3044 3327.5231,1174.1794 Q3327.5231,1171.0544 3328.8356,1169.3981 Q3330.1637,1167.7419 3332.6637,1167.7419 Q3333.3669,1167.7419 3334.0075,1167.8981 Q3334.6637,1168.0544 3335.2262,1168.3513 L3335.2262,1171.07 Q3334.6012,1170.4919 3334.0075,1170.2263 Q3333.4137,1169.945 3332.7887,1169.945 Q3331.445,1169.945 3330.7575,1171.0231 Q3330.07,1172.0856 3330.07,1174.1794 Q3330.07,1176.2731 3330.7575,1177.3513 Q3331.445,1178.4138 3332.7887,1178.4138 Q3333.4137,1178.4138 3334.0075,1178.1481 Q3334.6012,1177.8669 3335.2262,1177.2888 L3335.2262,1180.0075 Z " fill="#000000"/><text fill="#000000" font-family="sans-serif" font-size="14" lengthAdjust="spacing" textLength="157.0967" x="3348.6414" y="1179.2136">RobotLoadThenCentre</text><line style="stroke:#181818;stroke-width:0.5;" x1="3307.53" x2="3518.4655" y1="1190.3669" y2="1190.3669"/><text fill="#000000" font-family="sans-serif" font-size="14" lengthAdjust="spacing" textLength="200.9355" x="3312.53" y="1207.362">&lt;class 'float'&gt; thawing_time</text><line style="stroke:#181818;stroke-width:0.5;" x1="3307.53" x2="3518.4655" y1="1214.6638" y2="1214.6638"/></g><!--class GridScanWithEdgeDetect--><g id="elem_GridScanWithEdgeDetect"><rect codeLine="114" fill="#F1F1F1" height="48" id="GridScanWithEdgeDetect" rx="2.5" ry="2.5" style="stroke:#181818;stroke-width:0.5;" width="209.4268" x="3554.29" y="1166.5169"/><ellipse cx="3569.29" cy="1182.5169" fill="#ADD1B2" rx="11" ry="11" style="stroke:#181818;stroke-width:1;"/><path d="M3572.2588,1188.1575 Q3571.6806,1188.4544 3571.04,1188.595 Q3570.3994,1188.7512 3569.6963,1188.7512 Q3567.1963,1188.7512 3565.8681,1187.1106 Q3564.5556,1185.4544 3564.5556,1182.3294 Q3564.5556,1179.2044 3565.8681,1177.5481 Q3567.1963,1175.8919 3569.6963,1175.8919 Q3570.3994,1175.8919 3571.04,1176.0481 Q3571.6963,1176.2044 3572.2588,1176.5012 L3572.2588,1179.22 Q3571.6338,1178.6419 3571.04,1178.3762 Q3570.4463,1178.095 3569.8213,1178.095 Q3568.4775,1178.095 3567.79,1179.1731 Q3567.1025,1180.2356 3567.1025,1182.3294 Q3567.1025,1184.4231 3567.79,1185.5012 Q3568.4775,1186.5637 3569.8213,1186.5637 Q3570.4463,1186.5637 3571.04,1186.2981 Q3571.6338,1186.0169 3572.2588,1185.4387 L3572.2588,1188.1575 Z " fill="#000000"/><text fill="#000000" font-family="sans-serif" font-size="14" lengthAdjust="spacing" textLength="177.4268" x="3583.29" y="1187.3636">GridScanWithEdgeDetect</text><line style="stroke:#181818;stroke-width:0.5;" x1="3555.29" x2="3762.7168" y1="1198.5169" y2="1198.5169"/><line style="stroke:#181818;stroke-width:0.5;" x1="3555.29" x2="3762.7168" y1="1206.5169" y2="1206.5169"/></g><!--class PinTipCentreThenXrayCentre--><g id="elem_PinTipCentreThenXrayCentre"><rect codeLine="116" fill="#F1F1F1" height="64.2969" id="PinTipCentreThenXrayCentre" rx="2.5" ry="2.5" style="stroke:#181818;stroke-width:0.5;" width="235.8955" x="3036.05" y="1158.3669"/><ellipse cx="3051.05" cy="1174.3669" fill="#ADD1B2" rx="11" ry="11" style="stroke:#181818;stroke-width:1;"/><path d="M3054.0188,1180.0075 Q3053.4406,1180.3044 3052.8,1180.445 Q3052.1594,1180.6013 3051.4563,1180.6013 Q3048.9563,1180.6013 3047.6281,1178.9606 Q3046.3156,1177.3044 3046.3156,1174.1794 Q3046.3156,1171.0544 3047.6281,1169.3981 Q3048.9563,1167.7419 3051.4563,1167.7419 Q3052.1594,1167.7419 3052.8,1167.8981 Q3053.4563,1168.0544 3054.0188,1168.3513 L3054.0188,1171.07 Q3053.3938,1170.4919 3052.8,1170.2263 Q3052.2063,1169.945 3051.5813,1169.945 Q3050.2375,1169.945 3049.55,1171.0231 Q3048.8625,1172.0856 3048.8625,1174.1794 Q3048.8625,1176.2731 3049.55,1177.3513 Q3050.2375,1178.4138 3051.5813,1178.4138 Q3052.2063,1178.4138 3052.8,1178.1481 Q3053.3938,1177.8669 3054.0188,1177.2888 L3054.0188,1180.0075 Z " fill="#000000"/><text fill="#000000" font-family="sans-serif" font-size="14" lengthAdjust="spacing" textLength="203.8955" x="3065.05" y="1179.2136">PinTipCentreThenXrayCentre</text><line style="stroke:#181818;stroke-width:0.5;" x1="3037.05" x2="3270.9455" y1="1190.3669" y2="1190.3669"/><text fill="#000000" font-family="sans-serif" font-size="14" lengthAdjust="spacing" textLength="130.498" x="3042.05" y="1207.362">float tip_offset_um</text><line style="stroke:#181818;stroke-width:0.5;" x1="3037.05" x2="3270.9455" y1="1214.6638" y2="1214.6638"/></g><!--class HyperionSpecifiedThreeDGridScan--><g id="elem_HyperionSpecifiedThreeDGridScan"><rect codeLine="119" fill="#F1F1F1" height="48" id="HyperionSpecifiedThreeDGridScan" rx="2.5" ry="2.5" style="stroke:#181818;stroke-width:0.5;" width="274.293" x="3882.85" y="960.7369"/><ellipse cx="3897.85" cy="976.7369" fill="#ADD1B2" rx="11" ry="11" style="stroke:#181818;stroke-width:1;"/><path d="M3900.8188,982.3775 Q3900.2406,982.6744 3899.6,982.815 Q3898.9594,982.9712 3898.2563,982.9712 Q3895.7563,982.9712 3894.4281,981.3306 Q3893.1156,979.6744 3893.1156,976.5494 Q3893.1156,973.4244 3894.4281,971.7681 Q3895.7563,970.1119 3898.2563,970.1119 Q3898.9594,970.1119 3899.6,970.2681 Q3900.2563,970.4244 3900.8188,970.7212 L3900.8188,973.44 Q3900.1938,972.8619 3899.6,972.5962 Q3899.0063,972.315 3898.3813,972.315 Q3897.0375,972.315 3896.35,973.3931 Q3895.6625,974.4556 3895.6625,976.5494 Q3895.6625,978.6431 3896.35,979.7212 Q3897.0375,980.7837 3898.3813,980.7837 Q3899.0063,980.7837 3899.6,980.5181 Q3900.1938,980.2369 3900.8188,979.6587 L3900.8188,982.3775 Z " fill="#000000"/><text fill="#000000" font-family="sans-serif" font-size="14" lengthAdjust="spacing" textLength="242.293" x="3911.85" y="981.5836">HyperionSpecifiedThreeDGridScan</text><line style="stroke:#181818;stroke-width:0.5;" x1="3883.85" x2="4156.143" y1="992.7369" y2="992.7369"/><line style="stroke:#181818;stroke-width:0.5;" x1="3883.85" x2="4156.143" y1="1000.7369" y2="1000.7369"/></g><!--class MultiRotationScan--><g id="elem_MultiRotationScan"><rect codeLine="121" fill="#F1F1F1" height="64.2969" id="MultiRotationScan" rx="2.5" ry="2.5" style="stroke:#181818;stroke-width:0.5;" width="540.001" x="3929" y="1158.3669"/><ellipse cx="4131.0327" cy="1174.3669" fill="#ADD1B2" rx="11" ry="11" style="stroke:#181818;stroke-width:1;"/><path d="M4134.0015,1180.0075 Q4133.4233,1180.3044 4132.7827,1180.445 Q4132.1421,1180.6013 4131.439,1180.6013 Q4128.939,1180.6013 4127.6108,1178.9606 Q4126.2983,1177.3044 4126.2983,1174.1794 Q4126.2983,1171.0544 4127.6108,1169.3981 Q4128.939,1167.7419 4131.439,1167.7419 Q4132.1421,1167.7419 4132.7827,1167.8981 Q4133.439,1168.0544 4134.0015,1168.3513 L4134.0015,1171.07 Q4133.3765,1170.4919 4132.7827,1170.2263 Q4132.189,1169.945 4131.564,1169.945 Q4130.2202,1169.945 4129.5327,1171.0231 Q4128.8452,1172.0856 4128.8452,1174.1794 Q4128.8452,1176.2731 4129.5327,1177.3513 Q4130.2202,1178.4138 4131.564,1178.4138 Q4132.189,1178.4138 4132.7827,1178.1481 Q4133.3765,1177.8669 4134.0015,1177.2888 L4134.0015,1180.0075 Z " fill="#000000"/><text fill="#000000" font-family="sans-serif" font-size="14" lengthAdjust="spacing" textLength="127.4355" x="4151.5327" y="1179.2136">MultiRotationScan</text><line style="stroke:#181818;stroke-width:0.5;" x1="3930" x2="4468.001" y1="1190.3669" y2="1190.3669"/><line style="stroke:#181818;stroke-width:0.5;" x1="3930" x2="4468.001" y1="1198.3669" y2="1198.3669"/><text fill="#000000" font-family="sans-serif" font-size="14" lengthAdjust="spacing" textLength="528.001" x="3935" y="1215.362">Annotated[list[RotationScanPerSweep], Len(min_length=1)] rotation_scans</text></g><!--class RotationScanPerSweep--><g id="elem_RotationScanPerSweep"><rect codeLine="124" fill="#F1F1F1" height="129.4844" id="RotationScanPerSweep" rx="2.5" ry="2.5" style="stroke:#181818;stroke-width:0.5;" width="263.0498" x="4565.48" y="919.9969"/><ellipse cx="4611.5166" cy="935.9969" fill="#ADD1B2" rx="11" ry="11" style="stroke:#181818;stroke-width:1;"/><path d="M4614.4854,941.6375 Q4613.9072,941.9344 4613.2666,942.075 Q4612.626,942.2312 4611.9229,942.2312 Q4609.4229,942.2312 4608.0947,940.5906 Q4606.7822,938.9344 4606.7822,935.8094 Q4606.7822,932.6844 4608.0947,931.0281 Q4609.4229,929.3719 4611.9229,929.3719 Q4612.626,929.3719 4613.2666,929.5281 Q4613.9229,929.6844 4614.4854,929.9812 L4614.4854,932.7 Q4613.8604,932.1219 4613.2666,931.8562 Q4612.6729,931.575 4612.0479,931.575 Q4610.7041,931.575 4610.0166,932.6531 Q4609.3291,933.7156 4609.3291,935.8094 Q4609.3291,937.9031 4610.0166,938.9812 Q4610.7041,940.0437 4612.0479,940.0437 Q4612.6729,940.0437 4613.2666,939.7781 Q4613.8604,939.4969 4614.4854,938.9187 L4614.4854,941.6375 Z " fill="#000000"/><text fill="#000000" font-family="sans-serif" font-size="14" lengthAdjust="spacing" textLength="162.4766" x="4632.0166" y="940.8436">RotationScanPerSweep</text><line style="stroke:#181818;stroke-width:0.5;" x1="4566.48" x2="4827.5298" y1="951.9969" y2="951.9969"/><text fill="#000000" font-family="sans-serif" font-size="14" lengthAdjust="spacing" textLength="157.1787" x="4571.48" y="968.992">float omega_start_deg</text><text fill="#000000" font-family="sans-serif" font-size="14" lengthAdjust="spacing" textLength="182.9297" x="4571.48" y="985.2889">RotationAxis rotation_axis</text><text fill="#000000" font-family="sans-serif" font-size="14" lengthAdjust="spacing" textLength="147.3213" x="4571.48" y="1001.5857">float scan_width_deg</text><text fill="#000000" font-family="sans-serif" font-size="14" lengthAdjust="spacing" textLength="251.0498" x="4571.48" y="1017.8826">RotationDirection rotation_direction</text><text fill="#000000" font-family="sans-serif" font-size="14" lengthAdjust="spacing" textLength="169.1279" x="4571.48" y="1034.1795">int nexus_vds_start_img</text><line style="stroke:#181818;stroke-width:0.5;" x1="4566.48" x2="4827.5298" y1="1041.4812" y2="1041.4812"/></g><!--class WithHyperionUDCFeatures--><g id="elem_WithHyperionUDCFeatures"><rect codeLine="131" fill="#F1F1F1" height="64.2969" id="WithHyperionUDCFeatures" rx="2.5" ry="2.5" style="stroke:#181818;stroke-width:0.5;" width="228.6719" x="3346.66" y="706.0669"/><ellipse cx="3365.7583" cy="722.0669" fill="#ADD1B2" rx="11" ry="11" style="stroke:#181818;stroke-width:1;"/><path d="M3368.7271,727.7075 Q3368.149,728.0044 3367.5083,728.145 Q3366.8677,728.3012 3366.1646,728.3012 Q3363.6646,728.3012 3362.3365,726.6606 Q3361.024,725.0044 3361.024,721.8794 Q3361.024,718.7544 3362.3365,717.0981 Q3363.6646,715.4419 3366.1646,715.4419 Q3366.8677,715.4419 3367.5083,715.5981 Q3368.1646,715.7544 3368.7271,716.0512 L3368.7271,718.77 Q3368.1021,718.1919 3367.5083,717.9262 Q3366.9146,717.645 3366.2896,717.645 Q3364.9458,717.645 3364.2583,718.7231 Q3363.5708,719.7856 3363.5708,721.8794 Q3363.5708,723.9731 3364.2583,725.0512 Q3364.9458,726.1137 3366.2896,726.1137 Q3366.9146,726.1137 3367.5083,725.8481 Q3368.1021,725.5669 3368.7271,724.9887 L3368.7271,727.7075 Z " fill="#000000"/><text fill="#000000" font-family="sans-serif" font-size="14" lengthAdjust="spacing" textLength="187.5645" x="3380.6691" y="726.9136">WithHyperionUDCFeatures</text><line style="stroke:#181818;stroke-width:0.5;" x1="3347.66" x2="3574.3319" y1="738.0669" y2="738.0669"/><text fill="#000000" font-family="sans-serif" font-size="14" lengthAdjust="spacing" textLength="216.6719" x="3352.66" y="755.062">HyperionFeatureFlags features</text><line style="stroke:#181818;stroke-width:0.5;" x1="3347.66" x2="3574.3319" y1="762.3637" y2="762.3637"/></g><!--reverse link MxBlueskyParameters to LoadCentreCollect--><g id="link_MxBlueskyParameters_LoadCentreCollect"><path codeLine="135" d="M2987.8359,166.1633 C3476.3959,176.6533 4910.16,213.4669 4979,286.3569 C5043.38,354.5169 5019.95,412.9769 4979,497.3269 C4918.88,621.1469 4570.11,851.6569 4424.66,943.9869 " fill="#FFFFFF" fill-opacity="0.00000" id="MxBlueskyParameters-backto-LoadCentreCollect" style="stroke:#181818;stroke-width:1;"/><polygon fill="#FFFFFF" fill-opacity="0.00000" points="2969.84,165.7769,2987.7071,172.1619,2987.9647,160.1647,2969.84,165.7769" style="stroke:#181818;stroke-width:1;"/></g><!--reverse link WithVisit to LoadCentreCollect--><g id="link_WithVisit_LoadCentreCollect"><path codeLine="136" d="M1286.3437,226.9668 C1415.0537,254.4068 3550.68,204.8569 3654,286.3569 C3769.19,377.2169 3672.03,474.7869 3739,605.3269 C3793.02,710.6269 3807.24,749.0269 3908,811.1069 C4011.55,874.8969 4062.18,825.6769 4175,871.1069 C4221.75,889.9269 4270.32,919.7469 4306.1,943.9769 " fill="#FFFFFF" fill-opacity="0.00000" id="WithVisit-backto-LoadCentreCollect" style="stroke:#181818;stroke-width:1;"/><polygon fill="#FFFFFF" fill-opacity="0.00000" points="1268.99,222.1869,1284.7505,232.7514,1287.937,221.1822,1268.99,222.1869" style="stroke:#181818;stroke-width:1;"/></g><!--reverse link WithSample to LoadCentreCollect--><g id="link_WithSample_LoadCentreCollect"><path codeLine="137" d="M633.2209,219.0002 C645.2909,225.4402 642.22,222.6269 655,226.3569 C1152.91,371.4469 2491.23,137.3969 2988,286.3569 C3291.41,377.3269 3338.86,473.9969 3593,663.0669 C3672.85,722.4669 3670.67,769.3369 3761,811.1069 C3929.75,889.1369 3999.98,808.3669 4175,871.1069 C4223.33,888.4269 4272.8,919.1369 4308.57,944.1169 " fill="#FFFFFF" fill-opacity="0.00000" id="WithSample-backto-LoadCentreCollect" style="stroke:#181818;stroke-width:1;"/><polygon fill="#FFFFFF" fill-opacity="0.00000" points="617.34,210.5269,630.3965,224.2938,636.0453,213.7066,617.34,210.5269" style="stroke:#181818;stroke-width:1;"/></g><!--reverse link WithCentreSelection to LoadCentreCollect--><g id="link_WithCentreSelection_LoadCentreCollect"><path codeLine="138" d="M2340.1883,200.9276 C2370.3383,212.9576 2389.45,218.8769 2423,226.3569 C2741.17,297.2869 2842.68,189.7069 3154,286.3569 C3646.02,439.0969 4154.36,820.0269 4311.67,944.0369 " fill="#FFFFFF" fill-opacity="0.00000" id="WithCentreSelection-backto-LoadCentreCollect" style="stroke:#181818;stroke-width:1;"/><polygon fill="#FFFFFF" fill-opacity="0.00000" points="2323.47,194.2569,2337.9647,206.5003,2342.4119,195.3548,2323.47,194.2569" style="stroke:#181818;stroke-width:1;"/></g><!--reverse link WithHyperionUDCFeatures to LoadCentreCollect--><g id="link_WithHyperionUDCFeatures_LoadCentreCollect"><path codeLine="139" d="M3527.3297,779.6347 C3553.3697,794.3547 3570.52,801.7769 3602,811.1069 C3847.52,883.8169 3932.3,789.4869 4175,871.1069 C4224.02,887.5869 4273.84,918.6869 4309.57,944.0369 " fill="#FFFFFF" fill-opacity="0.00000" id="WithHyperionUDCFeatures-backto-LoadCentreCollect" style="stroke:#181818;stroke-width:1;"/><polygon fill="#FFFFFF" fill-opacity="0.00000" points="3511.66,770.7769,3524.3771,784.8579,3530.2823,774.4115,3511.66,770.7769" style="stroke:#181818;stroke-width:1;"/></g><!--reverse link GridCommon to SpecifiedThreeDGridScan--><g id="link_GridCommon_SpecifiedThreeDGridScan"><path codeLine="140" d="M2783.591,829.0511 C2778.951,847.6411 2778.21,850.6269 2773.19,870.7369 " fill="#FFFFFF" fill-opacity="0.00000" id="GridCommon-backto-SpecifiedThreeDGridScan" style="stroke:#181818;stroke-width:1;"/><polygon fill="#FFFFFF" fill-opacity="0.00000" points="2787.95,811.5869,2777.7696,827.5981,2789.4124,830.5041,2787.95,811.5869" style="stroke:#181818;stroke-width:1;"/></g><!--reverse link SpecifiedGrid to SpecifiedThreeDGridScan--><g id="link_SpecifiedGrid_SpecifiedThreeDGridScan"><path codeLine="141" d="M1759.2095,431.8761 C1771.6395,454.8361 1784.59,473.9769 1811,497.3269 C2069.74,725.9969 2455.1,882.0169 2639.4,948.1169 " fill="#FFFFFF" fill-opacity="0.00000" id="SpecifiedGrid-backto-SpecifiedThreeDGridScan" style="stroke:#181818;stroke-width:1;"/><polygon fill="#FFFFFF" fill-opacity="0.00000" points="1750.64,416.0469,1753.9331,434.7326,1764.4859,429.0195,1750.64,416.0469" style="stroke:#181818;stroke-width:1;"/></g><!--reverse link SplitScan to SpecifiedThreeDGridScan--><g id="link_SplitScan_SpecifiedThreeDGridScan"><path codeLine="142" d="M1378.6969,200.545 C1446.9669,296.335 1711.6,648.0569 2035,811.1069 C2234.64,911.7569 2495.93,955.6469 2639.34,973.2169 " fill="#FFFFFF" fill-opacity="0.00000" id="SplitScan-backto-SpecifiedThreeDGridScan" style="stroke:#181818;stroke-width:1;"/><polygon fill="#FFFFFF" fill-opacity="0.00000" points="1368.25,185.8869,1373.8109,204.0273,1383.583,197.0627,1368.25,185.8869" style="stroke:#181818;stroke-width:1;"/></g><!--reverse link WithOptionalEnergyChange to SpecifiedThreeDGridScan--><g id="link_WithOptionalEnergyChange_SpecifiedThreeDGridScan"><path codeLine="143" d="M228.6877,202.0036 C250.8777,212.5836 259.75,216.4369 283,226.3569 C952.63,511.9169 1112.21,614.0569 1813,811.1069 C2107.06,893.7869 2464.69,947.3269 2639.09,970.5169 " fill="#FFFFFF" fill-opacity="0.00000" id="WithOptionalEnergyChange-backto-SpecifiedThreeDGridScan" style="stroke:#181818;stroke-width:1;"/><polygon fill="#FFFFFF" fill-opacity="0.00000" points="212.44,194.2569,226.1054,207.4195,231.27,196.5877,212.44,194.2569" style="stroke:#181818;stroke-width:1;"/></g><!--reverse link DiffractionExperimentWithSample to GridCommon--><g id="link_DiffractionExperimentWithSample_GridCommon"><path codeLine="144" d="M2806,623.5069 C2806,639.4669 2806,643.5869 2806,665.1469 " fill="#FFFFFF" fill-opacity="0.00000" id="DiffractionExperimentWithSample-backto-GridCommon" style="stroke:#181818;stroke-width:1;"/><polygon fill="#FFFFFF" fill-opacity="0.00000" points="2806,605.5069,2800,623.5069,2812,623.5069,2806,605.5069" style="stroke:#181818;stroke-width:1;"/></g><!--reverse link OptionalGonioAngleStarts to GridCommon--><g id="link_OptionalGonioAngleStarts_GridCommon"><path codeLine="145" d="M1671.1556,226.1261 C1676.9156,228.8561 1666.38,223.8069 1672,226.3569 C1736.25,255.5369 1754.23,258.3569 1819,286.3569 C2116.42,414.9169 2459.73,574.2469 2653.01,664.9669 " fill="#FFFFFF" fill-opacity="0.00000" id="OptionalGonioAngleStarts-backto-GridCommon" style="stroke:#181818;stroke-width:1;"/><polygon fill="#FFFFFF" fill-opacity="0.00000" points="1654.89,218.4169,1668.5858,231.5479,1673.7253,220.7042,1654.89,218.4169" style="stroke:#181818;stroke-width:1;"/></g><!--reverse link XyzStarts to SpecifiedGrid--><g id="link_XyzStarts_SpecifiedGrid"><path codeLine="146" d="M429.8124,220.8302 C438.6524,227.0102 433.35,222.2769 443,226.3569 C557.85,274.8469 1431.46,361.3769 1675.72,384.8369 " fill="#FFFFFF" fill-opacity="0.00000" id="XyzStarts-backto-SpecifiedGrid" style="stroke:#181818;stroke-width:1;"/><polygon fill="#FFFFFF" fill-opacity="0.00000" points="415.06,210.5169,426.3747,225.7477,433.2502,215.9128,415.06,210.5169" style="stroke:#181818;stroke-width:1;"/></g><!--reverse link WithScan to SpecifiedGrid--><g id="link_WithScan_SpecifiedGrid"><path codeLine="147" d="M1739,203.7469 C1739,247.4969 1739,323.8469 1739,367.6369 " fill="#FFFFFF" fill-opacity="0.00000" id="WithScan-backto-SpecifiedGrid" style="stroke:#181818;stroke-width:1;"/><polygon fill="#FFFFFF" fill-opacity="0.00000" points="1739,185.7469,1733,203.7469,1745,203.7469,1739,185.7469" style="stroke:#181818;stroke-width:1;"/></g><!--reverse link DiffractionExperiment to DiffractionExperimentWithSample--><g id="link_DiffractionExperiment_DiffractionExperimentWithSample"><path codeLine="148" d="M2806,515.8169 C2806,538.0769 2806,541.4769 2806,556.8969 " fill="#FFFFFF" fill-opacity="0.00000" id="DiffractionExperiment-backto-DiffractionExperimentWithSample" style="stroke:#181818;stroke-width:1;"/><polygon fill="#FFFFFF" fill-opacity="0.00000" points="2806,497.8169,2800,515.8169,2812,515.8169,2806,497.8169" style="stroke:#181818;stroke-width:1;"/></g><!--reverse link WithSample to DiffractionExperimentWithSample--><g id="link_WithSample_DiffractionExperimentWithSample"><path codeLine="149" d="M633.581,218.8988 C645.561,225.3088 642.37,222.4969 655,226.3569 C902.71,302.0169 1563.75,242.4069 1819,286.3569 C2179.11,348.3469 2593.3,498.7169 2745.71,556.8469 " fill="#FFFFFF" fill-opacity="0.00000" id="WithSample-backto-DiffractionExperimentWithSample" style="stroke:#181818;stroke-width:1;"/><polygon fill="#FFFFFF" fill-opacity="0.00000" points="617.71,210.4069,630.7503,224.1891,636.4116,213.6084,617.71,210.4069" style="stroke:#181818;stroke-width:1;"/></g><!--reverse link GridCommon to GridCommonWithHyperionDetectorParams--><g id="link_GridCommon_GridCommonWithHyperionDetectorParams"><path codeLine="150" d="M2950.1323,820.4224 C3039.8723,870.9824 3138.3,926.4369 3198.49,960.3469 " fill="#FFFFFF" fill-opacity="0.00000" id="GridCommon-backto-GridCommonWithHyperionDetectorParams" style="stroke:#181818;stroke-width:1;"/><polygon fill="#FFFFFF" fill-opacity="0.00000" points="2934.45,811.5869,2947.1871,825.6498,2953.0775,815.1949,2934.45,811.5869" style="stroke:#181818;stroke-width:1;"/></g><!--reverse link WithHyperionUDCFeatures to GridCommonWithHyperionDetectorParams--><g id="link_WithHyperionUDCFeatures_GridCommonWithHyperionDetectorParams"><path codeLine="151" d="M3420.4907,784.0309 C3375.4907,833.8209 3300.97,916.2869 3261.07,960.4269 " fill="#FFFFFF" fill-opacity="0.00000" id="WithHyperionUDCFeatures-backto-GridCommonWithHyperionDetectorParams" style="stroke:#181818;stroke-width:1;"/><polygon fill="#FFFFFF" fill-opacity="0.00000" points="3432.56,770.6769,3416.0393,780.0078,3424.942,788.054,3432.56,770.6769" style="stroke:#181818;stroke-width:1;"/></g><!--reverse link MxBlueskyParameters to DiffractionExperiment--><g id="link_MxBlueskyParameters_DiffractionExperiment"><path codeLine="152" d="M2809.9224,211.8625 C2809.3924,235.8525 2809.03,252.4469 2808.3,285.9669 " fill="#FFFFFF" fill-opacity="0.00000" id="MxBlueskyParameters-backto-DiffractionExperiment" style="stroke:#181818;stroke-width:1;"/><polygon fill="#FFFFFF" fill-opacity="0.00000" points="2810.32,193.8669,2803.9239,211.73,2815.921,211.995,2810.32,193.8669" style="stroke:#181818;stroke-width:1;"/></g><!--reverse link WithSnapshot to DiffractionExperiment--><g id="link_WithSnapshot_DiffractionExperiment"><path codeLine="153" d="M919.2295,208.8488 C943.7495,218.4988 954.12,220.9869 980,226.3569 C1339.7,300.9669 2279.83,181.8269 2632,286.3569 C2634.45,287.0769 2636.9,287.8469 2639.35,288.6569 " fill="#FFFFFF" fill-opacity="0.00000" id="WithSnapshot-backto-DiffractionExperiment" style="stroke:#181818;stroke-width:1;"/><polygon fill="#FFFFFF" fill-opacity="0.00000" points="902.48,202.2569,917.0322,214.4319,921.4268,203.2656,902.48,202.2569" style="stroke:#181818;stroke-width:1;"/></g><!--reverse link WithOptionalEnergyChange to DiffractionExperiment--><g id="link_WithOptionalEnergyChange_DiffractionExperiment"><path codeLine="154" d="M217.5828,202.5256 C241.6228,215.0156 254.88,219.6769 283,226.3569 C791.02,347.0969 2130.62,140.4669 2632,286.3569 C2634.45,287.0669 2636.91,287.8269 2639.36,288.6269 " fill="#FFFFFF" fill-opacity="0.00000" id="WithOptionalEnergyChange-backto-DiffractionExperiment" style="stroke:#181818;stroke-width:1;"/><polygon fill="#FFFFFF" fill-opacity="0.00000" points="201.61,194.2269,214.8166,207.8499,220.3491,197.2013,201.61,194.2269" style="stroke:#181818;stroke-width:1;"/></g><!--reverse link WithVisit to DiffractionExperiment--><g id="link_WithVisit_DiffractionExperiment"><path codeLine="155" d="M1286.34,226.9476 C1578.55,292.1776 2345.32,199.9769 2632,286.3569 C2634.45,287.0869 2636.89,287.8669 2639.34,288.6869 " fill="#FFFFFF" fill-opacity="0.00000" id="WithVisit-backto-DiffractionExperiment" style="stroke:#181818;stroke-width:1;"/><polygon fill="#FFFFFF" fill-opacity="0.00000" points="1269.02,222.0469,1284.7064,232.721,1287.9736,221.1743,1269.02,222.0469" style="stroke:#181818;stroke-width:1;"/></g><!--reverse link WithScan to RotationScan--><g id="link_WithScan_RotationScan"><path codeLine="156" d="M1767.1304,199.9164 C1779.0304,214.4564 1785.01,217.9969 1805,226.3569 C2062.69,334.0769 4045.88,223.4369 4318,286.3569 C4621.01,356.4069 4953,269.3269 4953,580.3269 C4953,580.3269 4953,580.3269 4953,739.2169 C4953,914.3669 5018.89,997.3069 4905,1130.3669 C4886.11,1152.4369 4814.05,1169.4369 4760.01,1179.4369 " fill="#FFFFFF" fill-opacity="0.00000" id="WithScan-backto-RotationScan" style="stroke:#181818;stroke-width:1;"/><polygon fill="#FFFFFF" fill-opacity="0.00000" points="1755.73,185.9869,1762.4872,203.7165,1771.7735,196.1163,1755.73,185.9869" style="stroke:#181818;stroke-width:1;"/></g><!--reverse link RotationScanPerSweep to RotationScan--><g id="link_RotationScanPerSweep_RotationScan"><path codeLine="157" d="M4697,1067.9369 C4697,1107.5969 4697,1138.1369 4697,1166.2769 " fill="#FFFFFF" fill-opacity="0.00000" id="RotationScanPerSweep-backto-RotationScan" style="stroke:#181818;stroke-width:1;"/><polygon fill="#FFFFFF" fill-opacity="0.00000" points="4697,1049.9369,4691,1067.9369,4703,1067.9369,4697,1049.9369" style="stroke:#181818;stroke-width:1;"/></g><!--reverse link RotationExperiment to RotationScan--><g id="link_RotationExperiment_RotationScan"><path codeLine="158" d="M3738.5781,1046.2241 C3772.8081,1080.0241 3810.74,1110.1369 3865,1130.3669 C3994.64,1178.7069 4349.28,1145.0869 4487,1158.3669 C4536.71,1163.1669 4592.63,1171.6069 4634.26,1178.4969 " fill="#FFFFFF" fill-opacity="0.00000" id="RotationExperiment-backto-RotationScan" style="stroke:#181818;stroke-width:1;"/><polygon fill="#FFFFFF" fill-opacity="0.00000" points="3725.77,1033.5769,3734.3624,1050.4935,3742.7939,1041.9547,3725.77,1033.5769" style="stroke:#181818;stroke-width:1;"/></g><!--reverse link DiffractionExperimentWithSample to RotationExperiment--><g id="link_DiffractionExperimentWithSample_RotationExperiment"><path codeLine="159" d="M2876.5772,612.8841 C2913.3072,628.8541 2946.43,643.4169 2990,663.0669 C3200.62,758.0669 3445.63,872.5469 3580.29,935.8169 " fill="#FFFFFF" fill-opacity="0.00000" id="DiffractionExperimentWithSample-backto-RotationExperiment" style="stroke:#181818;stroke-width:1;"/><polygon fill="#FFFFFF" fill-opacity="0.00000" points="2860.07,605.7069,2874.1848,618.3865,2878.9696,607.3817,2860.07,605.7069" style="stroke:#181818;stroke-width:1;"/></g><!--reverse link WithHyperionUDCFeatures to RotationExperiment--><g id="link_WithHyperionUDCFeatures_RotationExperiment"><path codeLine="160" d="M3501.5098,784.0305 C3539.3998,825.9505 3594.7,887.1469 3638.87,936.0069 " fill="#FFFFFF" fill-opacity="0.00000" id="WithHyperionUDCFeatures-backto-RotationExperiment" style="stroke:#181818;stroke-width:1;"/><polygon fill="#FFFFFF" fill-opacity="0.00000" points="3489.44,770.6769,3497.0586,788.0538,3505.9611,780.0072,3489.44,770.6769" style="stroke:#181818;stroke-width:1;"/></g><!--reverse link GridCommonWithHyperionDetectorParams to RobotLoadThenCentre--><g id="link_GridCommonWithHyperionDetectorParams_RobotLoadThenCentre"><path codeLine="161" d="M3271.4997,1022.8385 C3302.6497,1059.5285 3351.42,1116.9769 3386.33,1158.1069 " fill="#FFFFFF" fill-opacity="0.00000" id="GridCommonWithHyperionDetectorParams-backto-RobotLoadThenCentre" style="stroke:#181818;stroke-width:1;"/><polygon fill="#FFFFFF" fill-opacity="0.00000" points="3259.85,1009.1169,3266.9259,1026.7218,3276.0736,1018.9553,3259.85,1009.1169" style="stroke:#181818;stroke-width:1;"/></g><!--reverse link WithHyperionUDCFeatures to RobotLoadThenCentre--><g id="link_WithHyperionUDCFeatures_RobotLoadThenCentre"><path codeLine="162" d="M3457.7726,788.7163 C3453.2926,855.3563 3442.63,997.2869 3424,1130.3669 C3422.74,1139.3669 3421.07,1149.0869 3419.41,1157.9869 " fill="#FFFFFF" fill-opacity="0.00000" id="WithHyperionUDCFeatures-backto-RobotLoadThenCentre" style="stroke:#181818;stroke-width:1;"/><polygon fill="#FFFFFF" fill-opacity="0.00000" points="3458.98,770.7569,3451.7862,788.3139,3463.7591,789.1188,3458.98,770.7569" style="stroke:#181818;stroke-width:1;"/></g><!--reverse link GridCommonWithHyperionDetectorParams to GridScanWithEdgeDetect--><g id="link_GridCommonWithHyperionDetectorParams_GridScanWithEdgeDetect"><path codeLine="163" d="M3286.0137,1019.6036 C3329.1437,1050.7436 3395.38,1095.4969 3471,1130.3669 C3501.76,1144.5569 3536.85,1156.6169 3568.31,1166.0769 " fill="#FFFFFF" fill-opacity="0.00000" id="GridCommonWithHyperionDetectorParams-backto-GridScanWithEdgeDetect" style="stroke:#181818;stroke-width:1;"/><polygon fill="#FFFFFF" fill-opacity="0.00000" points="3271.42,1009.0669,3282.5015,1024.4682,3289.526,1014.739,3271.42,1009.0669" style="stroke:#181818;stroke-width:1;"/></g><!--reverse link WithHyperionUDCFeatures to GridScanWithEdgeDetect--><g id="link_WithHyperionUDCFeatures_GridScanWithEdgeDetect"><path codeLine="164" d="M3459.2657,788.5686 C3456.7657,871.2086 3454.91,1074.4469 3498,1130.3669 C3507.91,1143.2269 3538.56,1155.8569 3570.51,1166.1269 " fill="#FFFFFF" fill-opacity="0.00000" id="WithHyperionUDCFeatures-backto-GridScanWithEdgeDetect" style="stroke:#181818;stroke-width:1;"/><polygon fill="#FFFFFF" fill-opacity="0.00000" points="3459.81,770.5769,3453.2685,788.3872,3465.263,788.7501,3459.81,770.5769" style="stroke:#181818;stroke-width:1;"/></g><!--reverse link GridCommonWithHyperionDetectorParams to PinTipCentreThenXrayCentre--><g id="link_GridCommonWithHyperionDetectorParams_PinTipCentreThenXrayCentre"><path codeLine="165" d="M3223.1329,1025.7012 C3207.6529,1062.3912 3184.61,1116.9769 3167.26,1158.1069 " fill="#FFFFFF" fill-opacity="0.00000" id="GridCommonWithHyperionDetectorParams-backto-PinTipCentreThenXrayCentre" style="stroke:#181818;stroke-width:1;"/><polygon fill="#FFFFFF" fill-opacity="0.00000" points="3230.13,1009.1169,3217.6047,1023.3688,3228.661,1028.0336,3230.13,1009.1169" style="stroke:#181818;stroke-width:1;"/></g><!--reverse link WithHyperionUDCFeatures to PinTipCentreThenXrayCentre--><g id="link_WithHyperionUDCFeatures_PinTipCentreThenXrayCentre"><path codeLine="166" d="M3328.6598,764.7895 C3221.4998,787.7595 3090.62,823.4169 3056,871.1069 C2988.3,964.3469 2999.36,1030.0269 3056,1130.3669 C3062.15,1141.2769 3071.21,1150.3869 3081.38,1157.9469 " fill="#FFFFFF" fill-opacity="0.00000" id="WithHyperionUDCFeatures-backto-PinTipCentreThenXrayCentre" style="stroke:#181818;stroke-width:1;"/><polygon fill="#FFFFFF" fill-opacity="0.00000" points="3346.26,761.0169,3327.4022,758.9228,3329.9173,770.6563,3346.26,761.0169" style="stroke:#181818;stroke-width:1;"/></g><!--reverse link WithHyperionUDCFeatures to HyperionSpecifiedThreeDGridScan--><g id="link_WithHyperionUDCFeatures_HyperionSpecifiedThreeDGridScan"><path codeLine="167" d="M3530.9819,779.4099 C3556.6419,793.3299 3572.29,800.3469 3602,811.1069 C3715.13,852.0769 3756.5,821.2169 3866,871.1069 C3916.19,893.9669 3966.24,934.7369 3995.1,960.4469 " fill="#FFFFFF" fill-opacity="0.00000" id="WithHyperionUDCFeatures-backto-HyperionSpecifiedThreeDGridScan" style="stroke:#181818;stroke-width:1;"/><polygon fill="#FFFFFF" fill-opacity="0.00000" points="3515.16,770.8269,3528.1209,784.6839,3533.8429,774.1359,3515.16,770.8269" style="stroke:#181818;stroke-width:1;"/></g><!--reverse link SpecifiedThreeDGridScan to HyperionSpecifiedThreeDGridScan--><g id="link_SpecifiedThreeDGridScan_HyperionSpecifiedThreeDGridScan"><path codeLine="168" d="M2866.3731,909.4942 C2920.1131,879.5442 2972.06,856.3069 3037.5,841.1069 C3125.27,820.7169 3763.81,810.3269 3848.5,841.1069 C3914.02,864.9169 3971.97,925.9569 4000.76,960.3069 " fill="#FFFFFF" fill-opacity="0.00000" id="SpecifiedThreeDGridScan-backto-HyperionSpecifiedThreeDGridScan" style="stroke:#181818;stroke-width:1;"/><polygon fill="#FFFFFF" fill-opacity="0.00000" points="2850.65,918.2569,2869.294,914.7352,2863.4522,904.2532,2850.65,918.2569" style="stroke:#181818;stroke-width:1;"/></g><!--reverse link RotationExperiment to MultiRotationScan--><g id="link_RotationExperiment_MultiRotationScan"><path codeLine="169" d="M3741.9356,1045.9243 C3776.5256,1078.3843 3813.28,1107.1469 3865,1130.3669 C3889.85,1141.5269 3916.62,1150.5869 3943.8,1157.9369 " fill="#FFFFFF" fill-opacity="0.00000" id="RotationExperiment-backto-MultiRotationScan" style="stroke:#181818;stroke-width:1;"/><polygon fill="#FFFFFF" fill-opacity="0.00000" points="3728.81,1033.6069,3737.8298,1050.2995,3746.0414,1041.549,3728.81,1033.6069" style="stroke:#181818;stroke-width:1;"/></g><!--reverse link SplitScan to MultiRotationScan--><g id="link_SplitScan_MultiRotationScan"><path codeLine="170" d="M1380.1451,199.9026 C1392.0451,214.4326 1398.02,217.9769 1418,226.3569 C1652.93,324.8769 3457.6,251.8269 3710,286.3569 C4242.07,359.1469 4882,43.2969 4882,580.3269 C4882,580.3269 4882,580.3269 4882,739.2169 C4882,913.7969 4969.49,1006.9569 4846,1130.3669 C4838.97,1137.3969 4643.41,1154.6269 4469.13,1168.6869 " fill="#FFFFFF" fill-opacity="0.00000" id="SplitScan-backto-MultiRotationScan" style="stroke:#181818;stroke-width:1;"/><polygon fill="#FFFFFF" fill-opacity="0.00000" points="1368.74,185.9769,1375.5032,203.7042,1384.787,196.1009,1368.74,185.9769" style="stroke:#181818;stroke-width:1;"/></g><!--reverse link OptionalGonioAngleStarts to RotationScanPerSweep--><g id="link_OptionalGonioAngleStarts_RotationScanPerSweep"><path codeLine="171" d="M1664.4009,224.9215 C1672.5209,227.9415 1663.87,224.3069 1672,226.3569 C2114.54,338.0369 3292.26,141.2769 3725,286.3569 C4121.05,419.1369 4494.75,773.7269 4636.76,919.6469 " fill="#FFFFFF" fill-opacity="0.00000" id="OptionalGonioAngleStarts-backto-RotationScanPerSweep" style="stroke:#181818;stroke-width:1;"/><polygon fill="#FFFFFF" fill-opacity="0.00000" points="1647.53,218.6469,1662.3094,230.5452,1666.4925,219.2979,1647.53,218.6469" style="stroke:#181818;stroke-width:1;"/></g><!--reverse link OptionalXyzStarts to RotationScanPerSweep--><g id="link_OptionalXyzStarts_RotationScanPerSweep"><path codeLine="172" d="M2605.0103,219.534 C2615.9903,225.984 2612.19,222.5569 2624,226.3569 C2802.89,283.8169 4154.01,187.8169 4314,286.3569 C4549.52,431.4069 4650.93,776.2469 4683.93,919.5569 " fill="#FFFFFF" fill-opacity="0.00000" id="OptionalXyzStarts-backto-RotationScanPerSweep" style="stroke:#181818;stroke-width:1;"/><polygon fill="#FFFFFF" fill-opacity="0.00000" points="2589.49,210.4169,2601.9712,224.7074,2608.0493,214.3605,2589.49,210.4169" style="stroke:#181818;stroke-width:1;"/></g><!--reverse link WithPandaGridScan to WithHyperionUDCFeatures--><g id="link_WithPandaGridScan_WithHyperionUDCFeatures"><path codeLine="173" d="M2015.0991,202.2378 C2039.5191,214.4878 2052.87,219.1869 2081,226.3569 C2276.75,276.2069 2803.05,205.1469 2988,286.3569 C3204.06,381.2269 3381.28,619.5669 3440.14,705.6169 " fill="#FFFFFF" fill-opacity="0.00000" id="WithPandaGridScan-backto-WithHyperionUDCFeatures" style="stroke:#181818;stroke-width:1;"/><polygon fill="#FFFFFF" fill-opacity="0.00000" points="1999.01,194.1669,2012.4088,207.6008,2017.7894,196.8748,1999.01,194.1669" style="stroke:#181818;stroke-width:1;"/></g><!--SRC=[dLXRRzis57wEVWNViW5BWFQv6v3QwGLekg3siW95GD3IiKH48WcIIgoa-Uyx52LPCYNP7V8GyTnvBjzXShxEk25RdWF1twoqyY850PfPICYc8ks1gfm9MnRvfQgYo7AB2fyg1PfBGMwPPWLOqEH69f171YmHI36AnR02XMmhDH5IG1GXxO6bG8eTtUGbc8VgCfP58SMbQiqOyX9PcOBDqEHB5EVC6F8ljzdVog8_bbzZK6cro9X8uIKws-QIMVAJV4K79862YOH2BKBXCNhj6LYnGkLEXGjBJ7sWFF77Hh-XgZ9-6ALpCRGOC_4oeDoYU_PHyyIpckYKer9TYbBHX1lBH0oqA3hDbSgv7HfRAOZvbaFYZ0rzB41OZQdD8NOPGIzhgRw-hsxORY5BOJiECVKNZMi5Cp1onmstg6gi9XjWHSwnFlNfqN7yPmAsZfTQIPqGZQLu18rLeehPp0jnOP24xgZIiEMxe2GMOv1wzE9jJRzNpolBj3M71TrHu-YqB0uOrHJZUSyOb4emPJBfhdoBeHFJd34iNSTNHMSvHlYZDdRV5RuLamMapD04qY3uZr9mUINI7CRlKAisKJdz8LTbV98Np_0Uc59zgsrKOIh378R96sJjDHp0hXtNcGPO1XsU8k6DJr8_LaT-6v9THA2euSzm45L8VHwNVHjUeKzoi-kz67-e-eVdzh2HCYSK8Gi9vORAxHQ_zuDoitllKQe3EPVLbGCPo-CxFBefww2B5Wu1wQEdTrQMVBlLh9x8wvr3pGBdiGz8hQ3BwgA6mowl6xaxlBhBANtYYSrwHDWfQKeDrA9rYZVxR5IrsRjR8rmZo2EDGaUa5gdHsHMUBUhUCRnir_WrT412MSDjFLckcZprHspqZWsyk0L3tKgO3DP9kJs0EWXccgSfQBTDYFNVTM87W8nOIaLPR43_SloQ2LDmuqf4NSo_b2iNgK6qm2NMHuwwZqe3L4lkWtsjVqRsNTOipk76yrdy8bdYqNqXSnS_Pl2Rt4Zh6EiCX6SIxMWKhvDGd5BH07nqTbFcbd-JbhawkFaaXQDWL9v43T96siqrOxlGbmrUrorlzitPDnjI1qNtYJPPQTrGI0M2YxGhjkTs8N4HQwWpN0F4wRNOXn0a26DuvvddjRVpluZDs5CRnI03xZxk_jT92lxk-zlTSh7cojjqrhzhLdKUviQXJUOaR7O8SrWnD7mbX2D0ygDUI7tkBUZL4u2w_uDy0V5RmGNDGQGs-_FDx_TaK6OpMhdMG1T_i9nQwQiTlWaxYmnFNM7HJWD00urbFGyE4Jkrf2NvuHMmAmrzJ4pZa1VfO4ctQVjdkVW0p4sjmzkMsf0-v2p5Lsl3hyTi1AV9kvyN5-50HTtRPqx00_ESnC4RR4vqv59Julk9z18JxHCD7eV7H9kdvRpOr0DxNkl8PlFA-qj5Ko-cGB1xn1puTo9H-_8Uuur6v0MF11iK_fZyOR5EWTFvXZZ9mcIlZyORzT- -n-Ic6s1QfpTBCm5qrUfZKJG6J3DYXmKT29tKYg6b-OACo9zIerOvs4l7l8KAfxiRtsN76sv4vtIdqmjotl7_rJkoLwC9-cdAKtqMxEX3K0q5ve5khE-Zu4_X6TdWFmrUTY9r_m40]--></g></svg>