<svg xmlns="http://www.w3.org/2000/svg" xmlns:xlink="http://www.w3.org/1999/xlink" contentStyleType="text/css" data-diagram-type="CLASS" height="1144px" preserveAspectRatio="none" style="width:2536px;height:1144px;background:#FFFFFF;" version="1.1" viewBox="0 0 2536 1144" width="2536px" zoomAndPan="magnify"><title>Hyperion Parameter Model</title><defs/><g><g class="title" data-source-line="3"><text fill="#000000" font-family="sans-serif" font-size="14" font-weight="bold" lengthAdjust="spacing" textLength="212.4951" x="1154.7524" y="22.9951">Hyperion Parameter Model</text></g><!--cluster mx_bluesky.common.parameters--><g class="cluster" data-entity="mx_bluesky.common.parameters" data-source-line="6" data-uid="ent0002" id="cluster_mx_bluesky.common.parameters"><path d="M8.5,43.2969 L269.8125,43.2969 A3.75,3.75 0 0 1 272.3125,45.7969 L279.3125,65.5938 L2526.5,65.5938 A2.5,2.5 0 0 1 2529,68.0938 L2529,838.3269 A2.5,2.5 0 0 1 2526.5,840.8269 L8.5,840.8269 A2.5,2.5 0 0 1 6,838.3269 L6,45.7969 A2.5,2.5 0 0 1 8.5,43.2969" fill="none" style="stroke:#000000;stroke-width:1.5;"/><line style="stroke:#000000;stroke-width:1.5;" x1="6" x2="279.3125" y1="65.5938" y2="65.5938"/><text fill="#000000" font-family="sans-serif" font-size="14" font-weight="bold" lengthAdjust="spacing" textLength="260.3125" x="10" y="58.292">mx_bluesky.common.parameters</text></g><!--cluster mx_bluesky.hyperion.parameters--><g class="cluster" data-entity="mx_bluesky.hyperion.parameters" data-source-line="69" data-uid="ent0014" id="cluster_mx_bluesky.hyperion.parameters"><path d="M198.5,864.8269 L463.0322,864.8269 A3.75,3.75 0 0 1 465.5322,867.3269 L472.5322,887.1238 L1299.5,887.1238 A2.5,2.5 0 0 1 1302,889.6238 L1302,1134.5169 A2.5,2.5 0 0 1 1299.5,1137.0169 L198.5,1137.0169 A2.5,2.5 0 0 1 196,1134.5169 L196,867.3269 A2.5,2.5 0 0 1 198.5,864.8269" fill="none" style="stroke:#000000;stroke-width:1.5;"/><line style="stroke:#000000;stroke-width:1.5;" x1="196" x2="472.5322" y1="887.1238" y2="887.1238"/><text fill="#000000" font-family="sans-serif" font-size="14" font-weight="bold" lengthAdjust="spacing" textLength="263.5322" x="200" y="879.822">mx_bluesky.hyperion.parameters</text></g><!--class WithVisit--><g class="entity" data-entity="WithVisit" data-source-line="8" data-uid="ent0003" id="entity_WithVisit"><rect fill="#F1F1F1" height="129.4844" rx="2.5" ry="2.5" style="stroke:#181818;stroke-width:0.5;" width="271.7861" x="981.11" y="86.2969"/><ellipse cx="1081.6359" cy="102.2969" fill="#ADD1B2" rx="11" ry="11" style="stroke:#181818;stroke-width:1;"/><path d="M1084.6046,107.9375 Q1084.0265,108.2344 1083.3859,108.375 Q1082.7453,108.5313 1082.0421,108.5313 Q1079.5421,108.5313 1078.214,106.8906 Q1076.9015,105.2344 1076.9015,102.1094 Q1076.9015,98.9844 1078.214,97.3281 Q1079.5421,95.6719 1082.0421,95.6719 Q1082.7453,95.6719 1083.3859,95.8281 Q1084.0421,95.9844 1084.6046,96.2813 L1084.6046,99 Q1083.9796,98.4219 1083.3859,98.1563 Q1082.7921,97.875 1082.1671,97.875 Q1080.8234,97.875 1080.1359,98.9531 Q1079.4484,100.0156 1079.4484,102.1094 Q1079.4484,104.2031 1080.1359,105.2813 Q1080.8234,106.3438 1082.1671,106.3438 Q1082.7921,106.3438 1083.3859,106.0781 Q1083.9796,105.7969 1084.6046,105.2188 L1084.6046,107.9375 Z " fill="#000000"/><text fill="#000000" font-family="sans-serif" font-size="14" lengthAdjust="spacing" textLength="62.2344" x="1102.1359" y="107.1436">WithVisit</text><line style="stroke:#181818;stroke-width:0.5;" x1="982.11" x2="1251.8961" y1="118.2969" y2="118.2969"/><text fill="#000000" font-family="sans-serif" font-size="14" lengthAdjust="spacing" textLength="87.9717" x="987.11" y="135.292">str beamline</text><text fill="#000000" font-family="sans-serif" font-size="14" lengthAdjust="spacing" textLength="51.8369" x="987.11" y="151.5889">str visit</text><text fill="#000000" font-family="sans-serif" font-size="14" lengthAdjust="spacing" textLength="259.7861" x="987.11" y="167.8857">str det_dist_to_beam_converter_path</text><text fill="#000000" font-family="sans-serif" font-size="14" lengthAdjust="spacing" textLength="131.5918" x="987.11" y="184.1826">str insertion_prefix</text><text fill="#000000" font-family="sans-serif" font-size="14" lengthAdjust="spacing" textLength="245.752" x="987.11" y="200.4795">float | None detector_distance_mm</text><line style="stroke:#181818;stroke-width:0.5;" x1="982.11" x2="1251.8961" y1="207.7813" y2="207.7813"/></g><!--class WithOptionalEnergyChange--><g class="entity" data-entity="WithOptionalEnergyChange" data-source-line="15" data-uid="ent0004" id="entity_WithOptionalEnergyChange"><rect fill="#F1F1F1" height="64.2969" rx="2.5" ry="2.5" style="stroke:#181818;stroke-width:0.5;" width="235.4463" x="710.28" y="118.8869"/><ellipse cx="729.4645" cy="134.8869" fill="#ADD1B2" rx="11" ry="11" style="stroke:#181818;stroke-width:1;"/><path d="M732.4332,140.5275 Q731.8551,140.8244 731.2145,140.965 Q730.5738,141.1212 729.8707,141.1212 Q727.3707,141.1212 726.0426,139.4806 Q724.7301,137.8244 724.7301,134.6994 Q724.7301,131.5744 726.0426,129.9181 Q727.3707,128.2619 729.8707,128.2619 Q730.5738,128.2619 731.2145,128.4181 Q731.8707,128.5744 732.4332,128.8712 L732.4332,131.59 Q731.8082,131.0119 731.2145,130.7462 Q730.6207,130.465 729.9957,130.465 Q728.652,130.465 727.9645,131.5431 Q727.277,132.6056 727.277,134.6994 Q727.277,136.7931 727.9645,137.8712 Q728.652,138.9337 729.9957,138.9337 Q730.6207,138.9337 731.2145,138.6681 Q731.8082,138.3869 732.4332,137.8087 L732.4332,140.5275 Z " fill="#000000"/><text fill="#000000" font-family="sans-serif" font-size="14" lengthAdjust="spacing" textLength="194.1475" x="744.3944" y="139.7336">WithOptionalEnergyChange</text><line style="stroke:#181818;stroke-width:0.5;" x1="711.28" x2="944.7263" y1="150.8869" y2="150.8869"/><text fill="#000000" font-family="sans-serif" font-size="14" lengthAdjust="spacing" textLength="223.4463" x="716.28" y="167.882">float | None demand_energy_ev</text><line style="stroke:#181818;stroke-width:0.5;" x1="711.28" x2="944.7263" y1="175.1837" y2="175.1837"/></g><!--class OptionalGonioAngleStarts--><g class="entity" data-entity="OptionalGonioAngleStarts" data-source-line="18" data-uid="ent0005" id="entity_OptionalGonioAngleStarts"><rect fill="#F1F1F1" height="113.1875" rx="2.5" ry="2.5" style="stroke:#181818;stroke-width:0.5;" width="219.3203" x="1499.34" y="94.4469"/><ellipse cx="1517.0633" cy="110.4469" fill="#ADD1B2" rx="11" ry="11" style="stroke:#181818;stroke-width:1;"/><path d="M1520.032,116.0875 Q1519.4539,116.3844 1518.8133,116.525 Q1518.1727,116.6813 1517.4695,116.6813 Q1514.9695,116.6813 1513.6414,115.0406 Q1512.3289,113.3844 1512.3289,110.2594 Q1512.3289,107.1344 1513.6414,105.4781 Q1514.9695,103.8219 1517.4695,103.8219 Q1518.1727,103.8219 1518.8133,103.9781 Q1519.4695,104.1344 1520.032,104.4313 L1520.032,107.15 Q1519.407,106.5719 1518.8133,106.3063 Q1518.2195,106.025 1517.5945,106.025 Q1516.2508,106.025 1515.5633,107.1031 Q1514.8758,108.1656 1514.8758,110.2594 Q1514.8758,112.3531 1515.5633,113.4313 Q1516.2508,114.4938 1517.5945,114.4938 Q1518.2195,114.4938 1518.8133,114.2281 Q1519.407,113.9469 1520.032,113.3688 L1520.032,116.0875 Z " fill="#000000"/><text fill="#000000" font-family="sans-serif" font-size="14" lengthAdjust="spacing" textLength="181.2686" x="1531.6685" y="115.2936">OptionalGonioAngleStarts</text><line style="stroke:#181818;stroke-width:0.5;" x1="1500.34" x2="1717.6603" y1="126.4469" y2="126.4469"/><text fill="#000000" font-family="sans-serif" font-size="14" lengthAdjust="spacing" textLength="207.3203" x="1505.34" y="143.442">float | None omega_start_deg</text><text fill="#000000" font-family="sans-serif" font-size="14" lengthAdjust="spacing" textLength="180.6875" x="1505.34" y="159.7389">float | None phi_start_deg</text><text fill="#000000" font-family="sans-serif" font-size="14" lengthAdjust="spacing" textLength="179.498" x="1505.34" y="176.0357">float | None chi_start_deg</text><text fill="#000000" font-family="sans-serif" font-size="14" lengthAdjust="spacing" textLength="202.0771" x="1505.34" y="192.3326">float | None kappa_start_deg</text><line style="stroke:#181818;stroke-width:0.5;" x1="1500.34" x2="1717.6603" y1="199.6344" y2="199.6344"/></g><!--class WithSnapshot--><g class="entity" data-entity="WithSnapshot" data-source-line="24" data-uid="ent0006" id="entity_WithSnapshot"><rect fill="#F1F1F1" height="96.8906" rx="2.5" ry="2.5" style="stroke:#181818;stroke-width:0.5;" width="289.3477" x="386.33" y="102.5969"/><ellipse cx="477.9828" cy="118.5969" fill="#ADD1B2" rx="11" ry="11" style="stroke:#181818;stroke-width:1;"/><path d="M480.9516,124.2375 Q480.3735,124.5344 479.7328,124.675 Q479.0922,124.8312 478.3891,124.8312 Q475.8891,124.8312 474.561,123.1906 Q473.2485,121.5344 473.2485,118.4094 Q473.2485,115.2844 474.561,113.6281 Q475.8891,111.9719 478.3891,111.9719 Q479.0922,111.9719 479.7328,112.1281 Q480.3891,112.2844 480.9516,112.5812 L480.9516,115.3 Q480.3266,114.7219 479.7328,114.4562 Q479.1391,114.175 478.5141,114.175 Q477.1703,114.175 476.4828,115.2531 Q475.7953,116.3156 475.7953,118.4094 Q475.7953,120.5031 476.4828,121.5812 Q477.1703,122.6437 478.5141,122.6437 Q479.1391,122.6437 479.7328,122.3781 Q480.3266,122.0969 480.9516,121.5187 L480.9516,124.2375 Z " fill="#000000"/><text fill="#000000" font-family="sans-serif" font-size="14" lengthAdjust="spacing" textLength="97.542" x="498.4828" y="123.4436">WithSnapshot</text><line style="stroke:#181818;stroke-width:0.5;" x1="387.33" x2="674.6777" y1="134.5969" y2="134.5969"/><text fill="#000000" font-family="sans-serif" font-size="14" lengthAdjust="spacing" textLength="169.627" x="392.33" y="151.592">Path snapshot_directory</text><text fill="#000000" font-family="sans-serif" font-size="14" lengthAdjust="spacing" textLength="277.3477" x="392.33" y="167.8889">list[float] | None snapshot_omegas_deg</text><text fill="#000000" font-family="sans-serif" font-size="14" lengthAdjust="spacing" textLength="171.7051" x="392.33" y="184.1857">bool use_grid_snapshots</text><line style="stroke:#181818;stroke-width:0.5;" x1="387.33" x2="674.6777" y1="191.4875" y2="191.4875"/></g><!--class SplitScan--><g class="entity" data-entity="SplitScan" data-source-line="29" data-uid="ent0007" id="entity_SplitScan"><rect fill="#F1F1F1" height="48" rx="2.5" ry="2.5" style="stroke:#181818;stroke-width:0.5;" width="97.0781" x="2407.46" y="127.0369"/><ellipse cx="2422.46" cy="143.0369" fill="#ADD1B2" rx="11" ry="11" style="stroke:#181818;stroke-width:1;"/><path d="M2425.4288,148.6775 Q2424.8506,148.9744 2424.21,149.115 Q2423.5694,149.2713 2422.8663,149.2713 Q2420.3663,149.2713 2419.0381,147.6306 Q2417.7256,145.9744 2417.7256,142.8494 Q2417.7256,139.7244 2419.0381,138.0681 Q2420.3663,136.4119 2422.8663,136.4119 Q2423.5694,136.4119 2424.21,136.5681 Q2424.8663,136.7244 2425.4288,137.0213 L2425.4288,139.74 Q2424.8038,139.1619 2424.21,138.8963 Q2423.6163,138.615 2422.9913,138.615 Q2421.6475,138.615 2420.96,139.6931 Q2420.2725,140.7556 2420.2725,142.8494 Q2420.2725,144.9431 2420.96,146.0213 Q2421.6475,147.0838 2422.9913,147.0838 Q2423.6163,147.0838 2424.21,146.8181 Q2424.8038,146.5369 2425.4288,145.9588 L2425.4288,148.6775 Z " fill="#000000"/><text fill="#000000" font-family="sans-serif" font-size="14" lengthAdjust="spacing" textLength="65.0781" x="2436.46" y="147.8836">SplitScan</text><line style="stroke:#181818;stroke-width:0.5;" x1="2408.46" x2="2503.5381" y1="159.0369" y2="159.0369"/><line style="stroke:#181818;stroke-width:0.5;" x1="2408.46" x2="2503.5381" y1="167.0369" y2="167.0369"/></g><!--class WithSample--><g class="entity" data-entity="WithSample" data-source-line="31" data-uid="ent0008" id="entity_WithSample"><rect fill="#F1F1F1" height="96.8906" rx="2.5" ry="2.5" style="stroke:#181818;stroke-width:0.5;" width="176.3086" x="1287.85" y="102.5969"/><ellipse cx="1329.7243" cy="118.5969" fill="#ADD1B2" rx="11" ry="11" style="stroke:#181818;stroke-width:1;"/><path d="M1332.6931,124.2375 Q1332.1149,124.5344 1331.4743,124.675 Q1330.8337,124.8312 1330.1306,124.8312 Q1327.6306,124.8312 1326.3024,123.1906 Q1324.9899,121.5344 1324.9899,118.4094 Q1324.9899,115.2844 1326.3024,113.6281 Q1327.6306,111.9719 1330.1306,111.9719 Q1330.8337,111.9719 1331.4743,112.1281 Q1332.1306,112.2844 1332.6931,112.5812 L1332.6931,115.3 Q1332.0681,114.7219 1331.4743,114.4562 Q1330.8806,114.175 1330.2556,114.175 Q1328.9118,114.175 1328.2243,115.2531 Q1327.5368,116.3156 1327.5368,118.4094 Q1327.5368,120.5031 1328.2243,121.5812 Q1328.9118,122.6437 1330.2556,122.6437 Q1330.8806,122.6437 1331.4743,122.3781 Q1332.0681,122.0969 1332.6931,121.5187 L1332.6931,124.2375 Z " fill="#000000"/><text fill="#000000" font-family="sans-serif" font-size="14" lengthAdjust="spacing" textLength="84.5879" x="1349.6964" y="123.4436">WithSample</text><line style="stroke:#181818;stroke-width:0.5;" x1="1288.85" x2="1463.1586" y1="134.5969" y2="134.5969"/><text fill="#000000" font-family="sans-serif" font-size="14" lengthAdjust="spacing" textLength="93.3789" x="1293.85" y="151.592">int sample_id</text><text fill="#000000" font-family="sans-serif" font-size="14" lengthAdjust="spacing" textLength="164.3086" x="1293.85" y="167.8889">int | None sample_puck</text><text fill="#000000" font-family="sans-serif" font-size="14" lengthAdjust="spacing" textLength="152.3936" x="1293.85" y="184.1857">int | None sample_pin</text><line style="stroke:#181818;stroke-width:0.5;" x1="1288.85" x2="1463.1586" y1="191.4875" y2="191.4875"/></g><!--class WithCentreSelection--><g class="entity" data-entity="WithCentreSelection" data-source-line="36" data-uid="ent0009" id="entity_WithCentreSelection"><rect fill="#F1F1F1" height="64.2969" rx="2.5" ry="2.5" style="stroke:#181818;stroke-width:0.5;" width="618.6689" x="1753.67" y="118.8869"/><ellipse cx="1986.8883" cy="134.8869" fill="#ADD1B2" rx="11" ry="11" style="stroke:#181818;stroke-width:1;"/><path d="M1989.857,140.5275 Q1989.2789,140.8244 1988.6383,140.965 Q1987.9976,141.1212 1987.2945,141.1212 Q1984.7945,141.1212 1983.4664,139.4806 Q1982.1539,137.8244 1982.1539,134.6994 Q1982.1539,131.5744 1983.4664,129.9181 Q1984.7945,128.2619 1987.2945,128.2619 Q1987.9976,128.2619 1988.6383,128.4181 Q1989.2945,128.5744 1989.857,128.8712 L1989.857,131.59 Q1989.232,131.0119 1988.6383,130.7462 Q1988.0445,130.465 1987.4195,130.465 Q1986.0758,130.465 1985.3883,131.5431 Q1984.7008,132.6056 1984.7008,134.6994 Q1984.7008,136.7931 1985.3883,137.8712 Q1986.0758,138.9337 1987.4195,138.9337 Q1988.0445,138.9337 1988.6383,138.6681 Q1989.232,138.3869 1989.857,137.8087 L1989.857,140.5275 Z " fill="#000000"/><text fill="#000000" font-family="sans-serif" font-size="14" lengthAdjust="spacing" textLength="143.7324" x="2007.3883" y="139.7336">WithCentreSelection</text><line style="stroke:#181818;stroke-width:0.5;" x1="1754.67" x2="2371.3389" y1="150.8869" y2="150.8869"/><text fill="#000000" font-family="sans-serif" font-size="14" lengthAdjust="spacing" textLength="606.6689" x="1759.67" y="167.882">TopNByMaxCountSelection | TopNByMaxCountForEachSampleSelection select_centres</text><line style="stroke:#181818;stroke-width:0.5;" x1="1754.67" x2="2371.3389" y1="175.1837" y2="175.1837"/></g><!--class DiffractionExperimentWithSample--><g class="entity" data-entity="DiffractionExperimentWithSample" data-source-line="41" data-uid="ent0010" id="entity_DiffractionExperimentWithSample"><rect fill="#F1F1F1" height="48" rx="2.5" ry="2.5" style="stroke:#181818;stroke-width:0.5;" width="270.8545" x="60.57" y="563.0469"/><ellipse cx="75.57" cy="579.0469" fill="#ADD1B2" rx="11" ry="11" style="stroke:#181818;stroke-width:1;"/><path d="M78.5388,584.6875 Q77.9606,584.9844 77.32,585.125 Q76.6794,585.2813 75.9763,585.2813 Q73.4763,585.2813 72.1481,583.6406 Q70.8356,581.9844 70.8356,578.8594 Q70.8356,575.7344 72.1481,574.0781 Q73.4763,572.4219 75.9763,572.4219 Q76.6794,572.4219 77.32,572.5781 Q77.9763,572.7344 78.5388,573.0313 L78.5388,575.75 Q77.9138,575.1719 77.32,574.9063 Q76.7263,574.625 76.1013,574.625 Q74.7575,574.625 74.07,575.7031 Q73.3825,576.7656 73.3825,578.8594 Q73.3825,580.9531 74.07,582.0313 Q74.7575,583.0938 76.1013,583.0938 Q76.7263,583.0938 77.32,582.8281 Q77.9138,582.5469 78.5388,581.9688 L78.5388,584.6875 Z " fill="#000000"/><text fill="#000000" font-family="sans-serif" font-size="14" lengthAdjust="spacing" textLength="238.8545" x="89.57" y="583.8936">DiffractionExperimentWithSample</text><line style="stroke:#181818;stroke-width:0.5;" x1="61.57" x2="330.4245" y1="595.0469" y2="595.0469"/><line style="stroke:#181818;stroke-width:0.5;" x1="61.57" x2="330.4245" y1="603.0469" y2="603.0469"/></g><!--class DiffractionExperiment--><g class="entity" data-entity="DiffractionExperiment" data-source-line="43" data-uid="ent0011" id="entity_DiffractionExperiment"><rect fill="#F1F1F1" height="227.2656" rx="2.5" ry="2.5" style="stroke:#181818;stroke-width:0.5;" width="332.332" x="29.83" y="275.7869"/><ellipse cx="114.6127" cy="291.7869" fill="#ADD1B2" rx="11" ry="11" style="stroke:#181818;stroke-width:1;"/><path d="M117.5815,297.4275 Q117.0033,297.7244 116.3627,297.865 Q115.7221,298.0213 115.019,298.0213 Q112.519,298.0213 111.1908,296.3806 Q109.8783,294.7244 109.8783,291.5994 Q109.8783,288.4744 111.1908,286.8181 Q112.519,285.1619 115.019,285.1619 Q115.7221,285.1619 116.3627,285.3181 Q117.019,285.4744 117.5815,285.7713 L117.5815,288.49 Q116.9565,287.9119 116.3627,287.6463 Q115.769,287.365 115.144,287.365 Q113.8002,287.365 113.1127,288.4431 Q112.4252,289.5056 112.4252,291.5994 Q112.4252,293.6931 113.1127,294.7713 Q113.8002,295.8338 115.144,295.8338 Q115.769,295.8338 116.3627,295.5681 Q116.9565,295.2869 117.5815,294.7088 L117.5815,297.4275 Z " fill="#000000"/><text fill="#000000" font-family="sans-serif" font-size="14" lengthAdjust="spacing" textLength="154.2666" x="135.1127" y="296.6336">DiffractionExperiment</text><line style="stroke:#181818;stroke-width:0.5;" x1="30.83" x2="361.162" y1="307.7869" y2="307.7869"/><text fill="#000000" font-family="sans-serif" font-size="14" lengthAdjust="spacing" textLength="91.0137" x="35.83" y="324.782">str file_name</text><text fill="#000000" font-family="sans-serif" font-size="14" lengthAdjust="spacing" textLength="153.7129" x="35.83" y="341.0789">float exposure_time_s</text><text fill="#000000" font-family="sans-serif" font-size="14" lengthAdjust="spacing" textLength="89.5029" x="35.83" y="357.3757">str comment</text><text fill="#000000" font-family="sans-serif" font-size="14" lengthAdjust="spacing" textLength="186.915" x="35.83" y="373.6726">TriggerMode trigger_mode</text><text fill="#000000" font-family="sans-serif" font-size="14" lengthAdjust="spacing" textLength="157.9854" x="35.83" y="389.9695">int | None run_number</text><text fill="#000000" font-family="sans-serif" font-size="14" lengthAdjust="spacing" textLength="282.3516" x="35.83" y="406.2664">ApertureValue | None selected_aperture</text><text fill="#000000" font-family="sans-serif" font-size="14" lengthAdjust="spacing" textLength="159.2979" x="35.83" y="422.5632">float transmission_frac</text><text fill="#000000" font-family="sans-serif" font-size="14" lengthAdjust="spacing" textLength="320.332" x="35.83" y="438.8601">IspybExperimentType ispyb_experiment_type</text><text fill="#000000" font-family="sans-serif" font-size="14" lengthAdjust="spacing" textLength="146.1113" x="35.83" y="455.157">str storage_directory</text><text fill="#000000" font-family="sans-serif" font-size="14" lengthAdjust="spacing" textLength="131.0518" x="35.83" y="471.4539">bool use_roi_mode</text><text fill="#000000" font-family="sans-serif" font-size="14" lengthAdjust="spacing" textLength="169.627" x="35.83" y="487.7507">Path snapshot_directory</text><line style="stroke:#181818;stroke-width:0.5;" x1="30.83" x2="361.162" y1="495.0525" y2="495.0525"/></g><!--class MxBlueskyParameters--><g class="entity" data-entity="MxBlueskyParameters" data-source-line="56" data-uid="ent0012" id="entity_MxBlueskyParameters"><rect fill="#F1F1F1" height="64.2969" rx="2.5" ry="2.5" style="stroke:#181818;stroke-width:0.5;" width="317.4639" x="34.27" y="118.8869"/><ellipse cx="110.8564" cy="134.8869" fill="#ADD1B2" rx="11" ry="11" style="stroke:#181818;stroke-width:1;"/><path d="M113.8252,140.5275 Q113.2471,140.8244 112.6064,140.965 Q111.9658,141.1212 111.2627,141.1212 Q108.7627,141.1212 107.4346,139.4806 Q106.1221,137.8244 106.1221,134.6994 Q106.1221,131.5744 107.4346,129.9181 Q108.7627,128.2619 111.2627,128.2619 Q111.9658,128.2619 112.6064,128.4181 Q113.2627,128.5744 113.8252,128.8712 L113.8252,131.59 Q113.2002,131.0119 112.6064,130.7462 Q112.0127,130.465 111.3877,130.465 Q110.0439,130.465 109.3564,131.5431 Q108.6689,132.6056 108.6689,134.6994 Q108.6689,136.7931 109.3564,137.8712 Q110.0439,138.9337 111.3877,138.9337 Q112.0127,138.9337 112.6064,138.6681 Q113.2002,138.3869 113.8252,137.8087 L113.8252,140.5275 Z " fill="#000000"/><text fill="#000000" font-family="sans-serif" font-size="14" lengthAdjust="spacing" textLength="155.791" x="131.3564" y="139.7336">MxBlueskyParameters</text><line style="stroke:#181818;stroke-width:0.5;" x1="35.27" x2="350.7339" y1="150.8869" y2="150.8869"/><text fill="#000000" font-family="sans-serif" font-size="14" lengthAdjust="spacing" textLength="305.4639" x="40.27" y="167.882">SemanticVersion parameter_model_version</text><line style="stroke:#181818;stroke-width:0.5;" x1="35.27" x2="350.7339" y1="175.1837" y2="175.1837"/></g><!--class GridCommon--><g class="entity" data-entity="GridCommon" data-source-line="59" data-uid="ent0013" id="entity_GridCommon"><rect fill="#F1F1F1" height="145.7813" rx="2.5" ry="2.5" style="stroke:#181818;stroke-width:0.5;" width="332.332" x="29.83" y="671.0469"/><ellipse cx="145.5282" cy="687.0469" fill="#ADD1B2" rx="11" ry="11" style="stroke:#181818;stroke-width:1;"/><path d="M148.497,692.6875 Q147.9189,692.9844 147.2782,693.125 Q146.6376,693.2813 145.9345,693.2813 Q143.4345,693.2813 142.1064,691.6406 Q140.7939,689.9844 140.7939,686.8594 Q140.7939,683.7344 142.1064,682.0781 Q143.4345,680.4219 145.9345,680.4219 Q146.6376,680.4219 147.2782,680.5781 Q147.9345,680.7344 148.497,681.0313 L148.497,683.75 Q147.872,683.1719 147.2782,682.9063 Q146.6845,682.625 146.0595,682.625 Q144.7157,682.625 144.0282,683.7031 Q143.3407,684.7656 143.3407,686.8594 Q143.3407,688.9531 144.0282,690.0313 Q144.7157,691.0938 146.0595,691.0938 Q146.6845,691.0938 147.2782,690.8281 Q147.872,690.5469 148.497,689.9688 L148.497,692.6875 Z " fill="#000000"/><text fill="#000000" font-family="sans-serif" font-size="14" lengthAdjust="spacing" textLength="92.4355" x="166.0282" y="691.8936">GridCommon</text><line style="stroke:#181818;stroke-width:0.5;" x1="30.83" x2="361.162" y1="703.0469" y2="703.0469"/><text fill="#000000" font-family="sans-serif" font-size="14" lengthAdjust="spacing" textLength="125.2959" x="35.83" y="720.042">float box_size_um</text><text fill="#000000" font-family="sans-serif" font-size="14" lengthAdjust="spacing" textLength="138.4209" x="35.83" y="736.3389">float grid_width_um</text><text fill="#000000" font-family="sans-serif" font-size="14" lengthAdjust="spacing" textLength="153.7129" x="35.83" y="752.6357">float exposure_time_s</text><text fill="#000000" font-family="sans-serif" font-size="14" lengthAdjust="spacing" textLength="320.332" x="35.83" y="768.9326">IspybExperimentType ispyb_experiment_type</text><text fill="#000000" font-family="sans-serif" font-size="14" lengthAdjust="spacing" textLength="282.3516" x="35.83" y="785.2295">ApertureValue | None selected_aperture</text><text fill="#000000" font-family="sans-serif" font-size="14" lengthAdjust="spacing" textLength="130.498" x="35.83" y="801.5264">float tip_offset_um</text><line style="stroke:#181818;stroke-width:0.5;" x1="30.83" x2="361.162" y1="808.8281" y2="808.8281"/></g><!--class LoadCentreCollect--><g class="entity" data-entity="LoadCentreCollect" data-source-line="70" data-uid="ent0015" id="entity_LoadCentreCollect"><rect fill="#F1F1F1" height="80.5938" rx="2.5" ry="2.5" style="stroke:#181818;stroke-width:0.5;" width="338.6211" x="947.69" y="907.9769"/><ellipse cx="1048.315" cy="923.9769" fill="#ADD1B2" rx="11" ry="11" style="stroke:#181818;stroke-width:1;"/><path d="M1051.2838,929.6175 Q1050.7056,929.9144 1050.065,930.055 Q1049.4244,930.2113 1048.7213,930.2113 Q1046.2213,930.2113 1044.8931,928.5706 Q1043.5806,926.9144 1043.5806,923.7894 Q1043.5806,920.6644 1044.8931,919.0081 Q1046.2213,917.3519 1048.7213,917.3519 Q1049.4244,917.3519 1050.065,917.5081 Q1050.7213,917.6644 1051.2838,917.9613 L1051.2838,920.68 Q1050.6588,920.1019 1050.065,919.8363 Q1049.4713,919.555 1048.8463,919.555 Q1047.5025,919.555 1046.815,920.6331 Q1046.1275,921.6956 1046.1275,923.7894 Q1046.1275,925.8831 1046.815,926.9613 Q1047.5025,928.0238 1048.8463,928.0238 Q1049.4713,928.0238 1050.065,927.7581 Q1050.6588,927.4769 1051.2838,926.8988 L1051.2838,929.6175 Z " fill="#000000"/><text fill="#000000" font-family="sans-serif" font-size="14" lengthAdjust="spacing" textLength="128.8711" x="1068.815" y="928.8236">LoadCentreCollect</text><line style="stroke:#181818;stroke-width:0.5;" x1="948.69" x2="1285.3111" y1="939.9769" y2="939.9769"/><text fill="#000000" font-family="sans-serif" font-size="14" lengthAdjust="spacing" textLength="326.6211" x="953.69" y="956.972">RobotLoadThenCentre robot_load_then_centre</text><text fill="#000000" font-family="sans-serif" font-size="14" lengthAdjust="spacing" textLength="235.0947" x="953.69" y="973.2689">RotationScan multi_rotation_scan</text><line style="stroke:#181818;stroke-width:0.5;" x1="948.69" x2="1285.3111" y1="980.5706" y2="980.5706"/></g><!--class GridScanWithEdgeDetect--><g class="entity" data-entity="GridScanWithEdgeDetect" data-source-line="74" data-uid="ent0016" id="entity_GridScanWithEdgeDetect"><rect fill="#F1F1F1" height="48" rx="2.5" ry="2.5" style="stroke:#181818;stroke-width:0.5;" width="209.4268" x="492.29" y="1064.8669"/><ellipse cx="507.29" cy="1080.8669" fill="#ADD1B2" rx="11" ry="11" style="stroke:#181818;stroke-width:1;"/><path d="M510.2588,1086.5075 Q509.6806,1086.8044 509.04,1086.945 Q508.3994,1087.1013 507.6963,1087.1013 Q505.1963,1087.1013 503.8681,1085.4606 Q502.5556,1083.8044 502.5556,1080.6794 Q502.5556,1077.5544 503.8681,1075.8981 Q505.1963,1074.2419 507.6963,1074.2419 Q508.3994,1074.2419 509.04,1074.3981 Q509.6963,1074.5544 510.2588,1074.8513 L510.2588,1077.57 Q509.6338,1076.9919 509.04,1076.7263 Q508.4463,1076.445 507.8213,1076.445 Q506.4775,1076.445 505.79,1077.5231 Q505.1025,1078.5856 505.1025,1080.6794 Q505.1025,1082.7731 505.79,1083.8513 Q506.4775,1084.9138 507.8213,1084.9138 Q508.4463,1084.9138 509.04,1084.6481 Q509.6338,1084.3669 510.2588,1083.7888 L510.2588,1086.5075 Z " fill="#000000"/><text fill="#000000" font-family="sans-serif" font-size="14" lengthAdjust="spacing" textLength="177.4268" x="521.29" y="1085.7136">GridScanWithEdgeDetect</text><line style="stroke:#181818;stroke-width:0.5;" x1="493.29" x2="700.7168" y1="1096.8669" y2="1096.8669"/><line style="stroke:#181818;stroke-width:0.5;" x1="493.29" x2="700.7168" y1="1104.8669" y2="1104.8669"/></g><!--class PinTipCentreThenXrayCentre--><g class="entity" data-entity="PinTipCentreThenXrayCentre" data-source-line="76" data-uid="ent0017" id="entity_PinTipCentreThenXrayCentre"><rect fill="#F1F1F1" height="64.2969" rx="2.5" ry="2.5" style="stroke:#181818;stroke-width:0.5;" width="235.8955" x="221.05" y="1056.7169"/><ellipse cx="236.05" cy="1072.7169" fill="#ADD1B2" rx="11" ry="11" style="stroke:#181818;stroke-width:1;"/><path d="M239.0188,1078.3575 Q238.4406,1078.6544 237.8,1078.795 Q237.1594,1078.9513 236.4563,1078.9513 Q233.9563,1078.9513 232.6281,1077.3106 Q231.3156,1075.6544 231.3156,1072.5294 Q231.3156,1069.4044 232.6281,1067.7481 Q233.9563,1066.0919 236.4563,1066.0919 Q237.1594,1066.0919 237.8,1066.2481 Q238.4563,1066.4044 239.0188,1066.7013 L239.0188,1069.42 Q238.3938,1068.8419 237.8,1068.5763 Q237.2063,1068.295 236.5813,1068.295 Q235.2375,1068.295 234.55,1069.3731 Q233.8625,1070.4356 233.8625,1072.5294 Q233.8625,1074.6231 234.55,1075.7013 Q235.2375,1076.7638 236.5813,1076.7638 Q237.2063,1076.7638 237.8,1076.4981 Q238.3938,1076.2169 239.0188,1075.6388 L239.0188,1078.3575 Z " fill="#000000"/><text fill="#000000" font-family="sans-serif" font-size="14" lengthAdjust="spacing" textLength="203.8955" x="250.05" y="1077.5636">PinTipCentreThenXrayCentre</text><line style="stroke:#181818;stroke-width:0.5;" x1="222.05" x2="455.9455" y1="1088.7169" y2="1088.7169"/><text fill="#000000" font-family="sans-serif" font-size="14" lengthAdjust="spacing" textLength="130.498" x="227.05" y="1105.712">float tip_offset_um</text><line style="stroke:#181818;stroke-width:0.5;" x1="222.05" x2="455.9455" y1="1113.0138" y2="1113.0138"/></g><!--class RotationExperiment--><g class="entity" data-entity="RotationExperiment" data-source-line="79" data-uid="ent0018" id="entity_RotationExperiment"><rect fill="#F1F1F1" height="96.8906" rx="2.5" ry="2.5" style="stroke:#181818;stroke-width:0.5;" width="332.332" x="580.83" y="899.8269"/><ellipse cx="672.7118" cy="915.8269" fill="#ADD1B2" rx="11" ry="11" style="stroke:#181818;stroke-width:1;"/><path d="M675.6806,921.4675 Q675.1025,921.7644 674.4618,921.905 Q673.8212,922.0613 673.1181,922.0613 Q670.6181,922.0613 669.29,920.4206 Q667.9775,918.7644 667.9775,915.6394 Q667.9775,912.5144 669.29,910.8581 Q670.6181,909.2019 673.1181,909.2019 Q673.8212,909.2019 674.4618,909.3581 Q675.1181,909.5144 675.6806,909.8113 L675.6806,912.53 Q675.0556,911.9519 674.4618,911.6863 Q673.8681,911.405 673.2431,911.405 Q671.8993,911.405 671.2118,912.4831 Q670.5243,913.5456 670.5243,915.6394 Q670.5243,917.7331 671.2118,918.8113 Q671.8993,919.8738 673.2431,919.8738 Q673.8681,919.8738 674.4618,919.6081 Q675.0556,919.3269 675.6806,918.7488 L675.6806,921.4675 Z " fill="#000000"/><text fill="#000000" font-family="sans-serif" font-size="14" lengthAdjust="spacing" textLength="140.0684" x="693.2118" y="920.6736">RotationExperiment</text><line style="stroke:#181818;stroke-width:0.5;" x1="581.83" x2="912.162" y1="931.8269" y2="931.8269"/><text fill="#000000" font-family="sans-serif" font-size="14" lengthAdjust="spacing" textLength="202.8018" x="586.83" y="948.822">float shutter_opening_time_s</text><text fill="#000000" font-family="sans-serif" font-size="14" lengthAdjust="spacing" textLength="202.9385" x="586.83" y="965.1189">float rotation_increment_deg</text><text fill="#000000" font-family="sans-serif" font-size="14" lengthAdjust="spacing" textLength="320.332" x="586.83" y="981.4157">IspybExperimentType ispyb_experiment_type</text><line style="stroke:#181818;stroke-width:0.5;" x1="581.83" x2="912.162" y1="988.7175" y2="988.7175"/></g><!--class GridCommonWithHyperionDetectorParams--><g class="entity" data-entity="GridCommonWithHyperionDetectorParams" data-source-line="84" data-uid="ent0019" id="entity_GridCommonWithHyperionDetectorParams"><rect fill="#F1F1F1" height="48" rx="2.5" ry="2.5" style="stroke:#181818;stroke-width:0.5;" width="333.2188" x="212.39" y="924.2769"/><ellipse cx="227.39" cy="940.2769" fill="#ADD1B2" rx="11" ry="11" style="stroke:#181818;stroke-width:1;"/><path d="M230.3588,945.9175 Q229.7806,946.2144 229.14,946.355 Q228.4994,946.5113 227.7963,946.5113 Q225.2963,946.5113 223.9681,944.8706 Q222.6556,943.2144 222.6556,940.0894 Q222.6556,936.9644 223.9681,935.3081 Q225.2963,933.6519 227.7963,933.6519 Q228.4994,933.6519 229.14,933.8081 Q229.7963,933.9644 230.3588,934.2613 L230.3588,936.98 Q229.7338,936.4019 229.14,936.1363 Q228.5463,935.855 227.9213,935.855 Q226.5775,935.855 225.89,936.9331 Q225.2025,937.9956 225.2025,940.0894 Q225.2025,942.1831 225.89,943.2613 Q226.5775,944.3238 227.9213,944.3238 Q228.5463,944.3238 229.14,944.0581 Q229.7338,943.7769 230.3588,943.1988 L230.3588,945.9175 Z " fill="#000000"/><text fill="#000000" font-family="sans-serif" font-size="14" lengthAdjust="spacing" textLength="301.2188" x="241.39" y="945.1236">GridCommonWithHyperionDetectorParams</text><line style="stroke:#181818;stroke-width:0.5;" x1="213.39" x2="544.6088" y1="956.2769" y2="956.2769"/><line style="stroke:#181818;stroke-width:0.5;" x1="213.39" x2="544.6088" y1="964.2769" y2="964.2769"/></g><!--class RotationScan--><g class="entity" data-entity="RotationScan" data-source-line="86" data-uid="ent0020" id="entity_RotationScan"><rect fill="#F1F1F1" height="64.2969" rx="2.5" ry="2.5" style="stroke:#181818;stroke-width:0.5;" width="540.001" x="741" y="1056.7169"/><ellipse cx="960.1431" cy="1072.7169" fill="#ADD1B2" rx="11" ry="11" style="stroke:#181818;stroke-width:1;"/><path d="M963.1118,1078.3575 Q962.5337,1078.6544 961.8931,1078.795 Q961.2524,1078.9513 960.5493,1078.9513 Q958.0493,1078.9513 956.7212,1077.3106 Q955.4087,1075.6544 955.4087,1072.5294 Q955.4087,1069.4044 956.7212,1067.7481 Q958.0493,1066.0919 960.5493,1066.0919 Q961.2524,1066.0919 961.8931,1066.2481 Q962.5493,1066.4044 963.1118,1066.7013 L963.1118,1069.42 Q962.4868,1068.8419 961.8931,1068.5763 Q961.2993,1068.295 960.6743,1068.295 Q959.3306,1068.295 958.6431,1069.3731 Q957.9556,1070.4356 957.9556,1072.5294 Q957.9556,1074.6231 958.6431,1075.7013 Q959.3306,1076.7638 960.6743,1076.7638 Q961.2993,1076.7638 961.8931,1076.4981 Q962.4868,1076.2169 963.1118,1075.6388 L963.1118,1078.3575 Z " fill="#000000"/><text fill="#000000" font-family="sans-serif" font-size="14" lengthAdjust="spacing" textLength="93.2148" x="980.6431" y="1077.5636">RotationScan</text><line style="stroke:#181818;stroke-width:0.5;" x1="742" x2="1280.001" y1="1088.7169" y2="1088.7169"/><line style="stroke:#181818;stroke-width:0.5;" x1="742" x2="1280.001" y1="1096.7169" y2="1096.7169"/><text fill="#000000" font-family="sans-serif" font-size="14" lengthAdjust="spacing" textLength="528.001" x="747" y="1113.712">Annotated[list[RotationScanPerSweep], Len(min_length=1)] rotation_scans</text></g><!--reverse link DiffractionExperiment to DiffractionExperimentWithSample--><g class="link" data-entity-1="DiffractionExperiment" data-entity-2="DiffractionExperimentWithSample" data-source-line="90" data-uid="lnk21" id="link_DiffractionExperiment_DiffractionExperimentWithSample"><path codeLine="90" d="M196,521.3669 C196,543.8969 196,547.3369 196,562.7369" fill="none" id="DiffractionExperiment-backto-DiffractionExperimentWithSample" style="stroke:#181818;stroke-width:1;"/><polygon fill="none" points="196,503.3669,190,521.3669,202,521.3669,196,503.3669" style="stroke:#181818;stroke-width:1;"/></g><!--reverse link WithSample to DiffractionExperimentWithSample--><g class="link" data-entity-1="WithSample" data-entity-2="DiffractionExperimentWithSample" data-source-line="91" data-uid="lnk22" id="link_WithSample_DiffractionExperimentWithSample"><path codeLine="91" d="M1301.94,209.6904 C1287.35,219.2204 1286.28,218.1669 1270,223.7869 C1112.49,278.1269 664.84,189.9869 522,275.7869 C419.9,337.1069 469.7,424.6869 380,503.0469 C349.52,529.6769 309.09,549.1769 273.89,562.5469" fill="none" id="WithSample-backto-DiffractionExperimentWithSample" style="stroke:#181818;stroke-width:1;"/><polygon fill="none" points="1317.01,199.8469,1298.6588,204.6671,1305.2212,214.7137,1317.01,199.8469" style="stroke:#181818;stroke-width:1;"/></g><!--reverse link MxBlueskyParameters to LoadCentreCollect--><g class="link" data-entity-1="MxBlueskyParameters" data-entity-2="LoadCentreCollect" data-source-line="92" data-uid="lnk23" id="link_MxBlueskyParameters_LoadCentreCollect"><path codeLine="92" d="M260.5623,193.1075 C298.9023,216.9675 336.39,241.8169 380,275.7869 C663.02,496.2269 970.82,799.8369 1077.79,907.4769" fill="none" id="MxBlueskyParameters-backto-LoadCentreCollect" style="stroke:#181818;stroke-width:1;"/><polygon fill="none" points="245.28,183.5969,257.3921,198.2016,263.7325,188.0134,245.28,183.5969" style="stroke:#181818;stroke-width:1;"/></g><!--reverse link WithVisit to LoadCentreCollect--><g class="link" data-entity-1="WithVisit" data-entity-2="LoadCentreCollect" data-source-line="93" data-uid="lnk24" id="link_WithVisit_LoadCentreCollect"><path codeLine="93" d="M1117,234.1069 C1117,392.2969 1117,779.8369 1117,907.8969" fill="none" id="WithVisit-backto-LoadCentreCollect" style="stroke:#181818;stroke-width:1;"/><polygon fill="none" points="1117,216.1069,1111,234.1069,1123,234.1069,1117,216.1069" style="stroke:#181818;stroke-width:1;"/></g><!--reverse link WithSample to LoadCentreCollect--><g class="link" data-entity-1="WithSample" data-entity-2="LoadCentreCollect" data-source-line="94" data-uid="lnk25" id="link_WithSample_LoadCentreCollect"><path codeLine="94" d="M1354.9057,216.812 C1307.8657,361.242 1173.06,775.1469 1129.82,907.9069" fill="none" id="WithSample-backto-LoadCentreCollect" style="stroke:#181818;stroke-width:1;"/><polygon fill="none" points="1360.48,199.6969,1349.2007,214.9539,1360.6107,218.6701,1360.48,199.6969" style="stroke:#181818;stroke-width:1;"/></g><!--reverse link WithCentreSelection to LoadCentreCollect--><g class="link" data-entity-1="WithCentreSelection" data-entity-2="LoadCentreCollect" data-source-line="95" data-uid="lnk26" id="link_WithCentreSelection_LoadCentreCollect"><path codeLine="95" d="M1904.8396,188.5764 C1836.9196,208.0864 1773.85,232.8269 1710,275.7869 C1692.44,287.5969 1275.72,765.1369 1151.58,907.5769" fill="none" id="WithCentreSelection-backto-LoadCentreCollect" style="stroke:#181818;stroke-width:1;"/><polygon fill="none" points="1922.14,183.6069,1903.1831,182.8096,1906.4961,194.3432,1922.14,183.6069" style="stroke:#181818;stroke-width:1;"/></g><!--reverse link MxBlueskyParameters to DiffractionExperiment--><g class="link" data-entity-1="MxBlueskyParameters" data-entity-2="DiffractionExperiment" data-source-line="96" data-uid="lnk27" id="link_MxBlueskyParameters_DiffractionExperiment"><path codeLine="96" d="M193.6263,201.4255 C193.9263,225.2855 194.14,241.6669 194.57,275.4769" fill="none" id="MxBlueskyParameters-backto-DiffractionExperiment" style="stroke:#181818;stroke-width:1;"/><polygon fill="none" points="193.4,183.4269,187.6268,201.5009,199.6258,201.35,193.4,183.4269" style="stroke:#181818;stroke-width:1;"/></g><!--reverse link WithSnapshot to DiffractionExperiment--><g class="link" data-entity-1="WithSnapshot" data-entity-2="DiffractionExperiment" data-source-line="97" data-uid="lnk28" id="link_WithSnapshot_DiffractionExperiment"><path codeLine="97" d="M448.502,210.2535 C417.432,232.1735 393.88,248.7969 356.11,275.4369" fill="none" id="WithSnapshot-backto-DiffractionExperiment" style="stroke:#181818;stroke-width:1;"/><polygon fill="none" points="463.21,199.8769,445.0431,205.3508,451.9608,215.1561,463.21,199.8769" style="stroke:#181818;stroke-width:1;"/></g><!--reverse link WithOptionalEnergyChange to DiffractionExperiment--><g class="link" data-entity-1="WithOptionalEnergyChange" data-entity-2="DiffractionExperiment" data-source-line="98" data-uid="lnk29" id="link_WithOptionalEnergyChange_DiffractionExperiment"><path codeLine="98" d="M761.0136,192.5258 C736.4336,206.5058 721.79,213.2469 693,223.7869 C590.51,261.2969 556.83,242.1569 453,275.7869 C423.22,285.4269 392.21,297.3269 362.44,309.7369" fill="none" id="WithOptionalEnergyChange-backto-DiffractionExperiment" style="stroke:#181818;stroke-width:1;"/><polygon fill="none" points="776.66,183.6269,758.0473,187.3104,763.98,197.7413,776.66,183.6269" style="stroke:#181818;stroke-width:1;"/></g><!--reverse link WithVisit to DiffractionExperiment--><g class="link" data-entity-1="WithVisit" data-entity-2="DiffractionExperiment" data-source-line="99" data-uid="lnk30" id="link_WithVisit_DiffractionExperiment"><path codeLine="99" d="M970.0954,222.1654 C962.0454,225.0054 970.96,221.5869 963,223.7869 C743.34,284.2869 673.34,217.7969 453,275.7869 C423.08,283.6569 392.2,294.5569 362.66,306.4869" fill="none" id="WithVisit-backto-DiffractionExperiment" style="stroke:#181818;stroke-width:1;"/><polygon fill="none" points="987.07,216.1769,968.0992,216.5072,972.0916,227.8236,987.07,216.1769" style="stroke:#181818;stroke-width:1;"/></g><!--reverse link GridCommonWithHyperionDetectorParams to GridScanWithEdgeDetect--><g class="link" data-entity-1="GridCommonWithHyperionDetectorParams" data-entity-2="GridScanWithEdgeDetect" data-source-line="100" data-uid="lnk31" id="link_GridCommonWithHyperionDetectorParams_GridScanWithEdgeDetect"><path codeLine="100" d="M430.6806,982.1333 C470.9206,1007.7133 520.1,1038.9769 560.39,1064.5969" fill="none" id="GridCommonWithHyperionDetectorParams-backto-GridScanWithEdgeDetect" style="stroke:#181818;stroke-width:1;"/><polygon fill="none" points="415.49,972.4769,427.4618,987.1968,433.8994,977.0698,415.49,972.4769" style="stroke:#181818;stroke-width:1;"/></g><!--reverse link GridCommonWithHyperionDetectorParams to PinTipCentreThenXrayCentre--><g class="link" data-entity-1="GridCommonWithHyperionDetectorParams" data-entity-2="PinTipCentreThenXrayCentre" data-source-line="101" data-uid="lnk32" id="link_GridCommonWithHyperionDetectorParams_PinTipCentreThenXrayCentre"><path codeLine="101" d="M367.3132,989.7723 C360.6932,1012.7323 355.48,1030.7569 348.12,1056.2769" fill="none" id="GridCommonWithHyperionDetectorParams-backto-PinTipCentreThenXrayCentre" style="stroke:#181818;stroke-width:1;"/><polygon fill="none" points="372.3,972.4769,361.5481,988.1101,373.0784,991.4346,372.3,972.4769" style="stroke:#181818;stroke-width:1;"/></g><!--reverse link DiffractionExperiment to RotationExperiment--><g class="link" data-entity-1="DiffractionExperiment" data-entity-2="RotationExperiment" data-source-line="102" data-uid="lnk33" id="link_DiffractionExperiment_RotationExperiment"><path codeLine="102" d="M320.4908,516.2315 C440.6608,637.6715 613.32,812.1669 699.68,899.4569" fill="none" id="DiffractionExperiment-backto-RotationExperiment" style="stroke:#181818;stroke-width:1;"/><polygon fill="none" points="307.83,503.4369,316.226,520.4518,324.7557,512.0112,307.83,503.4369" style="stroke:#181818;stroke-width:1;"/></g><!--reverse link GridCommon to GridCommonWithHyperionDetectorParams--><g class="link" data-entity-1="GridCommon" data-entity-2="GridCommonWithHyperionDetectorParams" data-source-line="103" data-uid="lnk34" id="link_GridCommon_GridCommonWithHyperionDetectorParams"><path codeLine="103" d="M273.364,830.4767 C307.244,867.9367 334.27,897.8169 357.79,923.8269" fill="none" id="GridCommon-backto-GridCommonWithHyperionDetectorParams" style="stroke:#181818;stroke-width:1;"/><polygon fill="none" points="261.29,817.1269,268.9141,834.5014,277.814,826.452,261.29,817.1269" style="stroke:#181818;stroke-width:1;"/></g><!--reverse link RotationExperiment to RotationScan--><g class="link" data-entity-1="RotationExperiment" data-entity-2="RotationScan" data-source-line="104" data-uid="lnk35" id="link_RotationExperiment_RotationScan"><path codeLine="104" d="M854.1574,1005.5334 C891.4174,1025.0934 917.55,1038.8069 950.85,1056.2869" fill="none" id="RotationExperiment-backto-RotationScan" style="stroke:#181818;stroke-width:1;"/><polygon fill="none" points="838.22,997.1669,851.3686,1010.8459,856.9463,1000.2209,838.22,997.1669" style="stroke:#181818;stroke-width:1;"/></g><!--reverse link SplitScan to RotationScan--><g class="link" data-entity-1="SplitScan" data-entity-2="RotationScan" data-source-line="105" data-uid="lnk36" id="link_SplitScan_RotationScan"><path codeLine="105" d="M2426.2522,189.3644 C2413.8422,204.3344 2407.96,209.6569 2390,223.7869 C2128.82,429.1969 1736,253.7669 1736,586.0469 C1736,586.0469 1736,586.0469 1736,744.9369 C1736,953.6269 1487.51,1035.4969 1281.48,1067.5169" fill="none" id="SplitScan-backto-RotationScan" style="stroke:#181818;stroke-width:1;"/><polygon fill="none" points="2437.74,175.5069,2421.6331,185.5351,2430.8714,193.1937,2437.74,175.5069" style="stroke:#181818;stroke-width:1;"/></g><!--reverse link DiffractionExperimentWithSample to GridCommon--><g class="link" data-entity-1="DiffractionExperimentWithSample" data-entity-2="GridCommon" data-source-line="106" data-uid="lnk37" id="link_DiffractionExperimentWithSample_GridCommon"><path codeLine="106" d="M196,629.2369 C196,645.1869 196,649.3069 196,670.8669" fill="none" id="DiffractionExperimentWithSample-backto-GridCommon" style="stroke:#181818;stroke-width:1;"/><polygon fill="none" points="196,611.2369,190,629.2369,202,629.2369,196,611.2369" style="stroke:#181818;stroke-width:1;"/></g><!--reverse link OptionalGonioAngleStarts to GridCommon--><g class="link" data-entity-1="OptionalGonioAngleStarts" data-entity-2="GridCommon" data-source-line="107" data-uid="lnk38" id="link_OptionalGonioAngleStarts_GridCommon"><path codeLine="107" d="M1497.0843,216.4811 C1486.7243,222.0011 1492.15,218.8869 1482,223.7869 C1090.07,412.5969 610.75,593.5069 362.65,683.6069" fill="none" id="OptionalGonioAngleStarts-backto-GridCommon" style="stroke:#181818;stroke-width:1;"/><polygon fill="none" points="1512.97,208.0169,1494.2628,211.1858,1499.9057,221.7763,1512.97,208.0169" style="stroke:#181818;stroke-width:1;"/></g><!--SRC=[bLPBRziu43wRluAtxGAR0Brt3wcJxHPeki7Qo2vG10GjZIKYV86aKgjk_dk7f2LBjXmdo27YFBvvy9kXVrlMmjEra43nFs-2kQX0W-C1IhfgQNTWLd8T6YKlRKj8404T_cujE64qlUEEAmZWwAqfGH8FWMgKUCiBM815TJ2EQgE149GzyWgesh2LRC0_jfU5KSheIzl1UBebmLGGQeJSaa9ox-b_8jJtmekm9JCV75q1Lr8WOZezHKt-B26mKlZ0Wc7HY1L6Fu53N6PvgBEHq1v5c3op3jPYGsPhQNYWF-bNp39YG84v9o2k2s1AaUT19l_OwCpb3RQdQkSrrnLiZq0KroM3PCBWgGVed3yPBSoLhYGi0dV17m8O1HLdFkfO2TM1rjRYfAvuGVV8hHsY3ijQQ6vzRMAFxx1NrE_Es0UN6jAIcSIMV4k83nraRvOozZdeoXX96m-iSg9adOdluosi565HSBqTfy2LbR6NGWVgqu69CX-xS5bgc-9nKYxq274EEZZaeSGAiEy8lJJswyVsbc_cfj6Xro3EMFENSJUysAMqD_FfYnK9DnRqV4pNQx5UEvxiRpPnJXHQ3-jxVibmn_4ubonEKdU5iB76DmvOG3FcirKS7_J1ifoeAd1n26d8tqpXOTGarsYc6xK2HsPN62yWt3t7IUoxcAg3al6TjWiU7DTU2U_ZsCISoUopj-rgd_OIDmBk4PGnw8Kie3Hdwf51EFj3DlKiSKRiaZt5lAvZjvkFUN7qUoTEpY9EMn35FHxZ9VNR9A5AzfJbFSedPEKyBPv-x5Pcmxpu0QnHdIXnzxieGpqG7jt26zhmnfOBoynwZGirXdzEVnCBjDvjul4ApNL-CRpC4p0tCeR1SlyrAnEYObc3pahgeenXr98XaVMEtT4sy4ZEEAbKDJ88lAeiOXvbeuP6eqZocxA2wxH3zqI_4tefR8uMu_xlU9jFsrFbPiSkWz5uP0TVDo5UiR6WXQxw2ydQFa-X2mVf4j9cUlrr7PCbLjSzVDUxLoBnq6-F4ixBRNQbTHH0-Isjpg7s3jpYEu1z-8D-0VrE2Sqaw2hKVxx__O6E-fptpEIse1z-NboSspXa__aw-uanouv7Z2Bzs_oImJ3sjCN1eZvbUZAnoOh8y5qxPpVrh9_p6HG-RVGQycJ_wH5w0y3f6Nk9ESS3DWYvp-nS2kGOPumVIoFzip-XEqF9mrJ8gHzIXuQ_0000]--></g></svg>