<svg xmlns="http://www.w3.org/2000/svg" xmlns:xlink="http://www.w3.org/1999/xlink" contentStyleType="text/css" data-diagram-type="CLASS" height="1235px" preserveAspectRatio="none" style="width:5138px;height:1235px;background:#FFFFFF;" version="1.1" viewBox="0 0 5138 1235" width="5138px" zoomAndPan="magnify"><title>Hyperion Parameter Model</title><defs/><g><text fill="#000000" font-family="sans-serif" font-size="14" font-weight="bold" lengthAdjust="spacing" textLength="212.4951" x="2456.1974" y="22.9951">Hyperion Parameter Model</text><!--cluster mx_bluesky.common.parameters--><g class="cluster" data-entity="mx_bluesky.common.parameters" data-source-line="6" data-uid="ent0002" id="cluster_mx_bluesky.common.parameters"><path d="M8.5,43.2969 L269.8125,43.2969 A3.75,3.75 0 0 1 272.3125,45.7969 L279.3125,65.5938 L2991.5,65.5938 A2.5,2.5 0 0 1 2994,68.0938 L2994,1109.2969 A2.5,2.5 0 0 1 2991.5,1111.7969 L8.5,1111.7969 A2.5,2.5 0 0 1 6,1109.2969 L6,45.7969 A2.5,2.5 0 0 1 8.5,43.2969 " fill="none" style="stroke:#000000;stroke-width:1.5;"/><line style="stroke:#000000;stroke-width:1.5;" x1="6" x2="279.3125" y1="65.5938" y2="65.5938"/><text fill="#000000" font-family="sans-serif" font-size="14" font-weight="bold" lengthAdjust="spacing" textLength="260.3125" x="10" y="58.292">mx_bluesky.common.parameters</text></g><!--cluster mx_bluesky.hyperion.parameters--><g class="cluster" data-entity="mx_bluesky.hyperion.parameters" data-source-line="97" data-uid="ent0020" id="cluster_mx_bluesky.hyperion.parameters"><path d="M3020.5,660.4969 L3285.0322,660.4969 A3.75,3.75 0 0 1 3287.5322,662.9969 L3294.5322,682.7937 L4803.5,682.7937 A2.5,2.5 0 0 1 4806,685.2937 L4806,1225.5969 A2.5,2.5 0 0 1 4803.5,1228.0969 L3020.5,1228.0969 A2.5,2.5 0 0 1 3018,1225.5969 L3018,662.9969 A2.5,2.5 0 0 1 3020.5,660.4969 " fill="none" style="stroke:#000000;stroke-width:1.5;"/><line style="stroke:#000000;stroke-width:1.5;" x1="3018" x2="3294.5322" y1="682.7937" y2="682.7937"/><text fill="#000000" font-family="sans-serif" font-size="14" font-weight="bold" lengthAdjust="spacing" textLength="263.5322" x="3022" y="675.492">mx_bluesky.hyperion.parameters</text></g><!--class WithPandaGridScan--><g class="entity" data-entity="WithPandaGridScan" data-source-line="8" data-uid="ent0003" id="entity_WithPandaGridScan"><rect fill="#F1F1F1" height="64.2969" rx="2.5" ry="2.5" style="stroke:#181818;stroke-width:0.5;" width="240.5664" x="1821.72" y="118.8969"/><ellipse cx="1868.3172" cy="134.8969" fill="#ADD1B2" rx="11" ry="11" style="stroke:#181818;stroke-width:1;"/><path d="M1871.2859,140.5375 Q1870.7078,140.8344 1870.0672,140.975 Q1869.4265,141.1312 1868.7234,141.1312 Q1866.2234,141.1312 1864.8953,139.4906 Q1863.5828,137.8344 1863.5828,134.7094 Q1863.5828,131.5844 1864.8953,129.9281 Q1866.2234,128.2719 1868.7234,128.2719 Q1869.4265,128.2719 1870.0672,128.4281 Q1870.7234,128.5844 1871.2859,128.8812 L1871.2859,131.6 Q1870.6609,131.0219 1870.0672,130.7562 Q1869.4734,130.475 1868.8484,130.475 Q1867.5047,130.475 1866.8172,131.5531 Q1866.1297,132.6156 1866.1297,134.7094 Q1866.1297,136.8031 1866.8172,137.8812 Q1867.5047,138.9437 1868.8484,138.9437 Q1869.4734,138.9437 1870.0672,138.6781 Q1870.6609,138.3969 1871.2859,137.8187 L1871.2859,140.5375 Z " fill="#000000"/><text fill="#000000" font-family="sans-serif" font-size="14" lengthAdjust="spacing" textLength="138.8721" x="1888.8172" y="139.7436">WithPandaGridScan</text><line style="stroke:#181818;stroke-width:0.5;" x1="1822.72" x2="2061.2864" y1="150.8969" y2="150.8969"/><text fill="#000000" font-family="sans-serif" font-size="14" lengthAdjust="spacing" textLength="228.5664" x="1827.72" y="167.892">float panda_runup_distance_mm</text><line style="stroke:#181818;stroke-width:0.5;" x1="1822.72" x2="2061.2864" y1="175.1937" y2="175.1937"/></g><!--class SplitScan--><g class="entity" data-entity="SplitScan" data-source-line="11" data-uid="ent0004" id="entity_SplitScan"><rect fill="#F1F1F1" height="48" rx="2.5" ry="2.5" style="stroke:#181818;stroke-width:0.5;" width="97.0781" x="1250.46" y="127.0469"/><ellipse cx="1265.46" cy="143.0469" fill="#ADD1B2" rx="11" ry="11" style="stroke:#181818;stroke-width:1;"/><path d="M1268.4288,148.6875 Q1267.8506,148.9844 1267.21,149.125 Q1266.5694,149.2813 1265.8663,149.2813 Q1263.3663,149.2813 1262.0381,147.6406 Q1260.7256,145.9844 1260.7256,142.8594 Q1260.7256,139.7344 1262.0381,138.0781 Q1263.3663,136.4219 1265.8663,136.4219 Q1266.5694,136.4219 1267.21,136.5781 Q1267.8663,136.7344 1268.4288,137.0313 L1268.4288,139.75 Q1267.8038,139.1719 1267.21,138.9063 Q1266.6163,138.625 1265.9913,138.625 Q1264.6475,138.625 1263.96,139.7031 Q1263.2725,140.7656 1263.2725,142.8594 Q1263.2725,144.9531 1263.96,146.0313 Q1264.6475,147.0938 1265.9913,147.0938 Q1266.6163,147.0938 1267.21,146.8281 Q1267.8038,146.5469 1268.4288,145.9688 L1268.4288,148.6875 Z " fill="#000000"/><text fill="#000000" font-family="sans-serif" font-size="14" lengthAdjust="spacing" textLength="65.0781" x="1279.46" y="147.8936">SplitScan</text><line style="stroke:#181818;stroke-width:0.5;" x1="1251.46" x2="1346.5381" y1="159.0469" y2="159.0469"/><line style="stroke:#181818;stroke-width:0.5;" x1="1251.46" x2="1346.5381" y1="167.0469" y2="167.0469"/></g><!--class WithSnapshot--><g class="entity" data-entity="WithSnapshot" data-source-line="13" data-uid="ent0005" id="entity_WithSnapshot"><rect fill="#F1F1F1" height="80.5938" rx="2.5" ry="2.5" style="stroke:#181818;stroke-width:0.5;" width="289.3477" x="714.33" y="110.7469"/><ellipse cx="805.9828" cy="126.7469" fill="#ADD1B2" rx="11" ry="11" style="stroke:#181818;stroke-width:1;"/><path d="M808.9516,132.3875 Q808.3735,132.6844 807.7328,132.825 Q807.0922,132.9813 806.3891,132.9813 Q803.8891,132.9813 802.561,131.3406 Q801.2485,129.6844 801.2485,126.5594 Q801.2485,123.4344 802.561,121.7781 Q803.8891,120.1219 806.3891,120.1219 Q807.0922,120.1219 807.7328,120.2781 Q808.3891,120.4344 808.9516,120.7313 L808.9516,123.45 Q808.3266,122.8719 807.7328,122.6063 Q807.1391,122.325 806.5141,122.325 Q805.1703,122.325 804.4828,123.4031 Q803.7953,124.4656 803.7953,126.5594 Q803.7953,128.6531 804.4828,129.7313 Q805.1703,130.7938 806.5141,130.7938 Q807.1391,130.7938 807.7328,130.5281 Q808.3266,130.2469 808.9516,129.6688 L808.9516,132.3875 Z " fill="#000000"/><text fill="#000000" font-family="sans-serif" font-size="14" lengthAdjust="spacing" textLength="97.542" x="826.4828" y="131.5936">WithSnapshot</text><line style="stroke:#181818;stroke-width:0.5;" x1="715.33" x2="1002.6777" y1="142.7469" y2="142.7469"/><text fill="#000000" font-family="sans-serif" font-size="14" lengthAdjust="spacing" textLength="169.627" x="720.33" y="159.742">Path snapshot_directory</text><text fill="#000000" font-family="sans-serif" font-size="14" lengthAdjust="spacing" textLength="277.3477" x="720.33" y="176.0389">list[float] | None snapshot_omegas_deg</text><line style="stroke:#181818;stroke-width:0.5;" x1="715.33" x2="1002.6777" y1="183.3406" y2="183.3406"/></g><!--class WithScan--><g class="entity" data-entity="WithScan" data-source-line="17" data-uid="ent0006" id="entity_WithScan"><rect fill="#F1F1F1" height="48" rx="2.5" ry="2.5" style="stroke:#181818;stroke-width:0.5;" width="98.1309" x="1688.93" y="127.0469"/><ellipse cx="1703.93" cy="143.0469" fill="#ADD1B2" rx="11" ry="11" style="stroke:#181818;stroke-width:1;"/><path d="M1706.8988,148.6875 Q1706.3206,148.9844 1705.68,149.125 Q1705.0394,149.2813 1704.3363,149.2813 Q1701.8363,149.2813 1700.5081,147.6406 Q1699.1956,145.9844 1699.1956,142.8594 Q1699.1956,139.7344 1700.5081,138.0781 Q1701.8363,136.4219 1704.3363,136.4219 Q1705.0394,136.4219 1705.68,136.5781 Q1706.3363,136.7344 1706.8988,137.0313 L1706.8988,139.75 Q1706.2738,139.1719 1705.68,138.9063 Q1705.0863,138.625 1704.4613,138.625 Q1703.1175,138.625 1702.43,139.7031 Q1701.7425,140.7656 1701.7425,142.8594 Q1701.7425,144.9531 1702.43,146.0313 Q1703.1175,147.0938 1704.4613,147.0938 Q1705.0863,147.0938 1705.68,146.8281 Q1706.2738,146.5469 1706.8988,145.9688 L1706.8988,148.6875 Z " fill="#000000"/><text fill="#000000" font-family="sans-serif" font-size="14" lengthAdjust="spacing" textLength="66.1309" x="1717.93" y="147.8936">WithScan</text><line style="stroke:#181818;stroke-width:0.5;" x1="1689.93" x2="1786.0609" y1="159.0469" y2="159.0469"/><line style="stroke:#181818;stroke-width:0.5;" x1="1689.93" x2="1786.0609" y1="167.0469" y2="167.0469"/></g><!--class SpecifiedGrid--><g class="entity" data-entity="SpecifiedGrid" data-source-line="19" data-uid="ent0007" id="entity_SpecifiedGrid"><rect fill="#F1F1F1" height="48" rx="2.5" ry="2.5" style="stroke:#181818;stroke-width:0.5;" width="125.6729" x="1675.16" y="357.2669"/><ellipse cx="1690.16" cy="373.2669" fill="#ADD1B2" rx="11" ry="11" style="stroke:#181818;stroke-width:1;"/><path d="M1693.1288,378.9075 Q1692.5506,379.2044 1691.91,379.345 Q1691.2694,379.5012 1690.5663,379.5012 Q1688.0663,379.5012 1686.7381,377.8606 Q1685.4256,376.2044 1685.4256,373.0794 Q1685.4256,369.9544 1686.7381,368.2981 Q1688.0663,366.6419 1690.5663,366.6419 Q1691.2694,366.6419 1691.91,366.7981 Q1692.5663,366.9544 1693.1288,367.2512 L1693.1288,369.97 Q1692.5038,369.3919 1691.91,369.1262 Q1691.3163,368.845 1690.6913,368.845 Q1689.3475,368.845 1688.66,369.9231 Q1687.9725,370.9856 1687.9725,373.0794 Q1687.9725,375.1731 1688.66,376.2512 Q1689.3475,377.3137 1690.6913,377.3137 Q1691.3163,377.3137 1691.91,377.0481 Q1692.5038,376.7669 1693.1288,376.1887 L1693.1288,378.9075 Z " fill="#000000"/><text fill="#000000" font-family="sans-serif" font-size="14" lengthAdjust="spacing" textLength="93.6729" x="1704.16" y="378.1136">SpecifiedGrid</text><line style="stroke:#181818;stroke-width:0.5;" x1="1676.16" x2="1799.8329" y1="389.2669" y2="389.2669"/><line style="stroke:#181818;stroke-width:0.5;" x1="1676.16" x2="1799.8329" y1="397.2669" y2="397.2669"/></g><!--class WithOptionalEnergyChange--><g class="entity" data-entity="WithOptionalEnergyChange" data-source-line="21" data-uid="ent0008" id="entity_WithOptionalEnergyChange"><rect fill="#F1F1F1" height="64.2969" rx="2.5" ry="2.5" style="stroke:#181818;stroke-width:0.5;" width="235.4463" x="30.28" y="118.8969"/><ellipse cx="49.4645" cy="134.8969" fill="#ADD1B2" rx="11" ry="11" style="stroke:#181818;stroke-width:1;"/><path d="M52.4332,140.5375 Q51.8551,140.8344 51.2145,140.975 Q50.5738,141.1312 49.8707,141.1312 Q47.3707,141.1312 46.0426,139.4906 Q44.7301,137.8344 44.7301,134.7094 Q44.7301,131.5844 46.0426,129.9281 Q47.3707,128.2719 49.8707,128.2719 Q50.5738,128.2719 51.2145,128.4281 Q51.8707,128.5844 52.4332,128.8812 L52.4332,131.6 Q51.8082,131.0219 51.2145,130.7562 Q50.6207,130.475 49.9957,130.475 Q48.652,130.475 47.9645,131.5531 Q47.277,132.6156 47.277,134.7094 Q47.277,136.8031 47.9645,137.8812 Q48.652,138.9437 49.9957,138.9437 Q50.6207,138.9437 51.2145,138.6781 Q51.8082,138.3969 52.4332,137.8187 L52.4332,140.5375 Z " fill="#000000"/><text fill="#000000" font-family="sans-serif" font-size="14" lengthAdjust="spacing" textLength="194.1475" x="64.3944" y="139.7436">WithOptionalEnergyChange</text><line style="stroke:#181818;stroke-width:0.5;" x1="31.28" x2="264.7263" y1="150.8969" y2="150.8969"/><text fill="#000000" font-family="sans-serif" font-size="14" lengthAdjust="spacing" textLength="223.4463" x="36.28" y="167.892">float | None demand_energy_ev</text><line style="stroke:#181818;stroke-width:0.5;" x1="31.28" x2="264.7263" y1="175.1937" y2="175.1937"/></g><!--class OptionalGonioAngleStarts--><g class="entity" data-entity="OptionalGonioAngleStarts" data-source-line="24" data-uid="ent0009" id="entity_OptionalGonioAngleStarts"><rect fill="#F1F1F1" height="113.1875" rx="2.5" ry="2.5" style="stroke:#181818;stroke-width:0.5;" width="219.3203" x="460.34" y="94.4469"/><ellipse cx="478.0633" cy="110.4469" fill="#ADD1B2" rx="11" ry="11" style="stroke:#181818;stroke-width:1;"/><path d="M481.032,116.0875 Q480.4539,116.3844 479.8133,116.525 Q479.1727,116.6812 478.4695,116.6812 Q475.9695,116.6812 474.6414,115.0406 Q473.3289,113.3844 473.3289,110.2594 Q473.3289,107.1344 474.6414,105.4781 Q475.9695,103.8219 478.4695,103.8219 Q479.1727,103.8219 479.8133,103.9781 Q480.4695,104.1344 481.032,104.4312 L481.032,107.15 Q480.407,106.5719 479.8133,106.3062 Q479.2195,106.025 478.5945,106.025 Q477.2508,106.025 476.5633,107.1031 Q475.8758,108.1656 475.8758,110.2594 Q475.8758,112.3531 476.5633,113.4312 Q477.2508,114.4937 478.5945,114.4937 Q479.2195,114.4937 479.8133,114.2281 Q480.407,113.9469 481.032,113.3687 L481.032,116.0875 Z " fill="#000000"/><text fill="#000000" font-family="sans-serif" font-size="14" lengthAdjust="spacing" textLength="181.2686" x="492.6685" y="115.2936">OptionalGonioAngleStarts</text><line style="stroke:#181818;stroke-width:0.5;" x1="461.34" x2="678.6603" y1="126.4469" y2="126.4469"/><text fill="#000000" font-family="sans-serif" font-size="14" lengthAdjust="spacing" textLength="207.3203" x="466.34" y="143.442">float | None omega_start_deg</text><text fill="#000000" font-family="sans-serif" font-size="14" lengthAdjust="spacing" textLength="180.6875" x="466.34" y="159.7389">float | None phi_start_deg</text><text fill="#000000" font-family="sans-serif" font-size="14" lengthAdjust="spacing" textLength="179.498" x="466.34" y="176.0357">float | None chi_start_deg</text><text fill="#000000" font-family="sans-serif" font-size="14" lengthAdjust="spacing" textLength="202.0771" x="466.34" y="192.3326">float | None kappa_start_deg</text><line style="stroke:#181818;stroke-width:0.5;" x1="461.34" x2="678.6603" y1="199.6344" y2="199.6344"/></g><!--class OptionalXyzStarts--><g class="entity" data-entity="OptionalXyzStarts" data-source-line="30" data-uid="ent0010" id="entity_OptionalXyzStarts"><rect fill="#F1F1F1" height="96.8906" rx="2.5" ry="2.5" style="stroke:#181818;stroke-width:0.5;" width="175.4473" x="2097.28" y="102.5969"/><ellipse cx="2120.1713" cy="118.5969" fill="#ADD1B2" rx="11" ry="11" style="stroke:#181818;stroke-width:1;"/><path d="M2123.14,124.2375 Q2122.5619,124.5344 2121.9213,124.675 Q2121.2806,124.8312 2120.5775,124.8312 Q2118.0775,124.8312 2116.7494,123.1906 Q2115.4369,121.5344 2115.4369,118.4094 Q2115.4369,115.2844 2116.7494,113.6281 Q2118.0775,111.9719 2120.5775,111.9719 Q2121.2806,111.9719 2121.9213,112.1281 Q2122.5775,112.2844 2123.14,112.5812 L2123.14,115.3 Q2122.515,114.7219 2121.9213,114.4562 Q2121.3275,114.175 2120.7025,114.175 Q2119.3588,114.175 2118.6713,115.2531 Q2117.9838,116.3156 2117.9838,118.4094 Q2117.9838,120.5031 2118.6713,121.5812 Q2119.3588,122.6437 2120.7025,122.6437 Q2121.3275,122.6437 2121.9213,122.3781 Q2122.515,122.0969 2123.14,121.5187 L2123.14,124.2375 Z " fill="#000000"/><text fill="#000000" font-family="sans-serif" font-size="14" lengthAdjust="spacing" textLength="125.9111" x="2135.9249" y="123.4436">OptionalXyzStarts</text><line style="stroke:#181818;stroke-width:0.5;" x1="2098.28" x2="2271.7273" y1="134.5969" y2="134.5969"/><text fill="#000000" font-family="sans-serif" font-size="14" lengthAdjust="spacing" textLength="163.4473" x="2103.28" y="151.592">float | None x_start_um</text><text fill="#000000" font-family="sans-serif" font-size="14" lengthAdjust="spacing" textLength="163.4473" x="2103.28" y="167.8889">float | None y_start_um</text><text fill="#000000" font-family="sans-serif" font-size="14" lengthAdjust="spacing" textLength="162.5107" x="2103.28" y="184.1857">float | None z_start_um</text><line style="stroke:#181818;stroke-width:0.5;" x1="2098.28" x2="2271.7273" y1="191.4875" y2="191.4875"/></g><!--class WithVisit--><g class="entity" data-entity="WithVisit" data-source-line="35" data-uid="ent0011" id="entity_WithVisit"><rect fill="#F1F1F1" height="129.4844" rx="2.5" ry="2.5" style="stroke:#181818;stroke-width:0.5;" width="271.7861" x="1382.11" y="86.2969"/><ellipse cx="1482.6359" cy="102.2969" fill="#ADD1B2" rx="11" ry="11" style="stroke:#181818;stroke-width:1;"/><path d="M1485.6046,107.9375 Q1485.0265,108.2344 1484.3859,108.375 Q1483.7453,108.5313 1483.0421,108.5313 Q1480.5421,108.5313 1479.214,106.8906 Q1477.9015,105.2344 1477.9015,102.1094 Q1477.9015,98.9844 1479.214,97.3281 Q1480.5421,95.6719 1483.0421,95.6719 Q1483.7453,95.6719 1484.3859,95.8281 Q1485.0421,95.9844 1485.6046,96.2813 L1485.6046,99 Q1484.9796,98.4219 1484.3859,98.1563 Q1483.7921,97.875 1483.1671,97.875 Q1481.8234,97.875 1481.1359,98.9531 Q1480.4484,100.0156 1480.4484,102.1094 Q1480.4484,104.2031 1481.1359,105.2813 Q1481.8234,106.3438 1483.1671,106.3438 Q1483.7921,106.3438 1484.3859,106.0781 Q1484.9796,105.7969 1485.6046,105.2188 L1485.6046,107.9375 Z " fill="#000000"/><text fill="#000000" font-family="sans-serif" font-size="14" lengthAdjust="spacing" textLength="62.2344" x="1503.1359" y="107.1436">WithVisit</text><line style="stroke:#181818;stroke-width:0.5;" x1="1383.11" x2="1652.8961" y1="118.2969" y2="118.2969"/><text fill="#000000" font-family="sans-serif" font-size="14" lengthAdjust="spacing" textLength="87.9717" x="1388.11" y="135.292">str beamline</text><text fill="#000000" font-family="sans-serif" font-size="14" lengthAdjust="spacing" textLength="51.8369" x="1388.11" y="151.5889">str visit</text><text fill="#000000" font-family="sans-serif" font-size="14" lengthAdjust="spacing" textLength="259.7861" x="1388.11" y="167.8857">str det_dist_to_beam_converter_path</text><text fill="#000000" font-family="sans-serif" font-size="14" lengthAdjust="spacing" textLength="131.5918" x="1388.11" y="184.1826">str insertion_prefix</text><text fill="#000000" font-family="sans-serif" font-size="14" lengthAdjust="spacing" textLength="245.752" x="1388.11" y="200.4795">float | None detector_distance_mm</text><line style="stroke:#181818;stroke-width:0.5;" x1="1383.11" x2="1652.8961" y1="207.7813" y2="207.7813"/></g><!--class XyzStarts--><g class="entity" data-entity="XyzStarts" data-source-line="42" data-uid="ent0012" id="entity_XyzStarts"><rect fill="#F1F1F1" height="96.8906" rx="2.5" ry="2.5" style="stroke:#181818;stroke-width:0.5;" width="125.3057" x="300.35" y="102.5969"/><ellipse cx="327.3141" cy="118.5969" fill="#ADD1B2" rx="11" ry="11" style="stroke:#181818;stroke-width:1;"/><path d="M330.2829,124.2375 Q329.7047,124.5344 329.0641,124.675 Q328.4235,124.8312 327.7204,124.8312 Q325.2204,124.8312 323.8922,123.1906 Q322.5797,121.5344 322.5797,118.4094 Q322.5797,115.2844 323.8922,113.6281 Q325.2204,111.9719 327.7204,111.9719 Q328.4235,111.9719 329.0641,112.1281 Q329.7204,112.2844 330.2829,112.5812 L330.2829,115.3 Q329.6579,114.7219 329.0641,114.4562 Q328.4704,114.175 327.8454,114.175 Q326.5016,114.175 325.8141,115.2531 Q325.1266,116.3156 325.1266,118.4094 Q325.1266,120.5031 325.8141,121.5812 Q326.5016,122.6437 327.8454,122.6437 Q328.4704,122.6437 329.0641,122.3781 Q329.6579,122.0969 330.2829,121.5187 L330.2829,124.2375 Z " fill="#000000"/><text fill="#000000" font-family="sans-serif" font-size="14" lengthAdjust="spacing" textLength="66.7188" x="343.9728" y="123.4436">XyzStarts</text><line style="stroke:#181818;stroke-width:0.5;" x1="301.35" x2="424.6557" y1="134.5969" y2="134.5969"/><text fill="#000000" font-family="sans-serif" font-size="14" lengthAdjust="spacing" textLength="113.3057" x="306.35" y="151.592">float x_start_um</text><text fill="#000000" font-family="sans-serif" font-size="14" lengthAdjust="spacing" textLength="113.3057" x="306.35" y="167.8889">float y_start_um</text><text fill="#000000" font-family="sans-serif" font-size="14" lengthAdjust="spacing" textLength="112.3691" x="306.35" y="184.1857">float z_start_um</text><line style="stroke:#181818;stroke-width:0.5;" x1="301.35" x2="424.6557" y1="191.4875" y2="191.4875"/></g><!--class WithCentreSelection--><g class="entity" data-entity="WithCentreSelection" data-source-line="47" data-uid="ent0013" id="entity_WithCentreSelection"><rect fill="#F1F1F1" height="64.2969" rx="2.5" ry="2.5" style="stroke:#181818;stroke-width:0.5;" width="306.7861" x="2307.61" y="118.8969"/><ellipse cx="2384.8869" cy="134.8969" fill="#ADD1B2" rx="11" ry="11" style="stroke:#181818;stroke-width:1;"/><path d="M2387.8556,140.5375 Q2387.2775,140.8344 2386.6369,140.975 Q2385.9962,141.1312 2385.2931,141.1312 Q2382.7931,141.1312 2381.465,139.4906 Q2380.1525,137.8344 2380.1525,134.7094 Q2380.1525,131.5844 2381.465,129.9281 Q2382.7931,128.2719 2385.2931,128.2719 Q2385.9962,128.2719 2386.6369,128.4281 Q2387.2931,128.5844 2387.8556,128.8812 L2387.8556,131.6 Q2387.2306,131.0219 2386.6369,130.7562 Q2386.0431,130.475 2385.4181,130.475 Q2384.0744,130.475 2383.3869,131.5531 Q2382.6994,132.6156 2382.6994,134.7094 Q2382.6994,136.8031 2383.3869,137.8812 Q2384.0744,138.9437 2385.4181,138.9437 Q2386.0431,138.9437 2386.6369,138.6781 Q2387.2306,138.3969 2387.8556,137.8187 L2387.8556,140.5375 Z " fill="#000000"/><text fill="#000000" font-family="sans-serif" font-size="14" lengthAdjust="spacing" textLength="143.7324" x="2405.3869" y="139.7436">WithCentreSelection</text><line style="stroke:#181818;stroke-width:0.5;" x1="2308.61" x2="2613.3961" y1="150.8969" y2="150.8969"/><text fill="#000000" font-family="sans-serif" font-size="14" lengthAdjust="spacing" textLength="294.7861" x="2313.61" y="167.892">TopNByMaxCountSelection select_centres</text><line style="stroke:#181818;stroke-width:0.5;" x1="2308.61" x2="2613.3961" y1="175.1937" y2="175.1937"/></g><!--class WithSample--><g class="entity" data-entity="WithSample" data-source-line="50" data-uid="ent0014" id="entity_WithSample"><rect fill="#F1F1F1" height="96.8906" rx="2.5" ry="2.5" style="stroke:#181818;stroke-width:0.5;" width="176.3086" x="1038.85" y="102.5969"/><ellipse cx="1080.7243" cy="118.5969" fill="#ADD1B2" rx="11" ry="11" style="stroke:#181818;stroke-width:1;"/><path d="M1083.6931,124.2375 Q1083.1149,124.5344 1082.4743,124.675 Q1081.8337,124.8312 1081.1306,124.8312 Q1078.6306,124.8312 1077.3024,123.1906 Q1075.9899,121.5344 1075.9899,118.4094 Q1075.9899,115.2844 1077.3024,113.6281 Q1078.6306,111.9719 1081.1306,111.9719 Q1081.8337,111.9719 1082.4743,112.1281 Q1083.1306,112.2844 1083.6931,112.5812 L1083.6931,115.3 Q1083.0681,114.7219 1082.4743,114.4562 Q1081.8806,114.175 1081.2556,114.175 Q1079.9118,114.175 1079.2243,115.2531 Q1078.5368,116.3156 1078.5368,118.4094 Q1078.5368,120.5031 1079.2243,121.5812 Q1079.9118,122.6437 1081.2556,122.6437 Q1081.8806,122.6437 1082.4743,122.3781 Q1083.0681,122.0969 1083.6931,121.5187 L1083.6931,124.2375 Z " fill="#000000"/><text fill="#000000" font-family="sans-serif" font-size="14" lengthAdjust="spacing" textLength="84.5879" x="1100.6964" y="123.4436">WithSample</text><line style="stroke:#181818;stroke-width:0.5;" x1="1039.85" x2="1214.1586" y1="134.5969" y2="134.5969"/><text fill="#000000" font-family="sans-serif" font-size="14" lengthAdjust="spacing" textLength="93.3789" x="1044.85" y="151.592">int sample_id</text><text fill="#000000" font-family="sans-serif" font-size="14" lengthAdjust="spacing" textLength="164.3086" x="1044.85" y="167.8889">int | None sample_puck</text><text fill="#000000" font-family="sans-serif" font-size="14" lengthAdjust="spacing" textLength="152.3936" x="1044.85" y="184.1857">int | None sample_pin</text><line style="stroke:#181818;stroke-width:0.5;" x1="1039.85" x2="1214.1586" y1="191.4875" y2="191.4875"/></g><!--class SpecifiedThreeDGridScan--><g class="entity" data-entity="SpecifiedThreeDGridScan" data-source-line="57" data-uid="ent0015" id="entity_SpecifiedThreeDGridScan"><rect fill="#F1F1F1" height="227.2656" rx="2.5" ry="2.5" style="stroke:#181818;stroke-width:0.5;" width="210.8965" x="2637.55" y="860.5369"/><ellipse cx="2652.55" cy="876.5369" fill="#ADD1B2" rx="11" ry="11" style="stroke:#181818;stroke-width:1;"/><path d="M2655.5188,882.1775 Q2654.9406,882.4744 2654.3,882.615 Q2653.6594,882.7713 2652.9563,882.7713 Q2650.4563,882.7713 2649.1281,881.1306 Q2647.8156,879.4744 2647.8156,876.3494 Q2647.8156,873.2244 2649.1281,871.5681 Q2650.4563,869.9119 2652.9563,869.9119 Q2653.6594,869.9119 2654.3,870.0681 Q2654.9563,870.2244 2655.5188,870.5213 L2655.5188,873.24 Q2654.8938,872.6619 2654.3,872.3963 Q2653.7063,872.115 2653.0813,872.115 Q2651.7375,872.115 2651.05,873.1931 Q2650.3625,874.2556 2650.3625,876.3494 Q2650.3625,878.4431 2651.05,879.5213 Q2651.7375,880.5838 2653.0813,880.5838 Q2653.7063,880.5838 2654.3,880.3181 Q2654.8938,880.0369 2655.5188,879.4588 L2655.5188,882.1775 Z " fill="#000000"/><text fill="#000000" font-family="sans-serif" font-size="14" lengthAdjust="spacing" textLength="178.8965" x="2666.55" y="881.3836">SpecifiedThreeDGridScan</text><line style="stroke:#181818;stroke-width:0.5;" x1="2638.55" x2="2847.4465" y1="892.5369" y2="892.5369"/><text fill="#000000" font-family="sans-serif" font-size="14" lengthAdjust="spacing" textLength="160.8975" x="2643.55" y="909.532">float grid1_omega_deg</text><text fill="#000000" font-family="sans-serif" font-size="14" lengthAdjust="spacing" textLength="160.8975" x="2643.55" y="925.8289">float grid2_omega_deg</text><text fill="#000000" font-family="sans-serif" font-size="14" lengthAdjust="spacing" textLength="145.127" x="2643.55" y="942.1257">float x_step_size_um</text><text fill="#000000" font-family="sans-serif" font-size="14" lengthAdjust="spacing" textLength="145.127" x="2643.55" y="958.4226">float y_step_size_um</text><text fill="#000000" font-family="sans-serif" font-size="14" lengthAdjust="spacing" textLength="144.1904" x="2643.55" y="974.7195">float z_step_size_um</text><text fill="#000000" font-family="sans-serif" font-size="14" lengthAdjust="spacing" textLength="122.2129" x="2643.55" y="991.0164">float y2_start_um</text><text fill="#000000" font-family="sans-serif" font-size="14" lengthAdjust="spacing" textLength="121.2764" x="2643.55" y="1007.3132">float z2_start_um</text><text fill="#000000" font-family="sans-serif" font-size="14" lengthAdjust="spacing" textLength="75.5645" x="2643.55" y="1023.6101">int x_steps</text><text fill="#000000" font-family="sans-serif" font-size="14" lengthAdjust="spacing" textLength="75.5645" x="2643.55" y="1039.907">int y_steps</text><text fill="#000000" font-family="sans-serif" font-size="14" lengthAdjust="spacing" textLength="74.6279" x="2643.55" y="1056.2039">int z_steps</text><text fill="#000000" font-family="sans-serif" font-size="14" lengthAdjust="spacing" textLength="154.4102" x="2643.55" y="1072.5007">bool _set_stub_offsets</text><line style="stroke:#181818;stroke-width:0.5;" x1="2638.55" x2="2847.4465" y1="1079.8025" y2="1079.8025"/></g><!--class MxBlueskyParameters--><g class="entity" data-entity="MxBlueskyParameters" data-source-line="70" data-uid="ent0016" id="entity_MxBlueskyParameters"><rect fill="#F1F1F1" height="64.2969" rx="2.5" ry="2.5" style="stroke:#181818;stroke-width:0.5;" width="317.4639" x="2650.27" y="118.8969"/><ellipse cx="2726.8564" cy="134.8969" fill="#ADD1B2" rx="11" ry="11" style="stroke:#181818;stroke-width:1;"/><path d="M2729.8252,140.5375 Q2729.2471,140.8344 2728.6064,140.975 Q2727.9658,141.1312 2727.2627,141.1312 Q2724.7627,141.1312 2723.4346,139.4906 Q2722.1221,137.8344 2722.1221,134.7094 Q2722.1221,131.5844 2723.4346,129.9281 Q2724.7627,128.2719 2727.2627,128.2719 Q2727.9658,128.2719 2728.6064,128.4281 Q2729.2627,128.5844 2729.8252,128.8812 L2729.8252,131.6 Q2729.2002,131.0219 2728.6064,130.7562 Q2728.0127,130.475 2727.3877,130.475 Q2726.0439,130.475 2725.3564,131.5531 Q2724.6689,132.6156 2724.6689,134.7094 Q2724.6689,136.8031 2725.3564,137.8812 Q2726.0439,138.9437 2727.3877,138.9437 Q2728.0127,138.9437 2728.6064,138.6781 Q2729.2002,138.3969 2729.8252,137.8187 L2729.8252,140.5375 Z " fill="#000000"/><text fill="#000000" font-family="sans-serif" font-size="14" lengthAdjust="spacing" textLength="155.791" x="2747.3564" y="139.7436">MxBlueskyParameters</text><line style="stroke:#181818;stroke-width:0.5;" x1="2651.27" x2="2966.7339" y1="150.8969" y2="150.8969"/><text fill="#000000" font-family="sans-serif" font-size="14" lengthAdjust="spacing" textLength="305.4639" x="2656.27" y="167.892">SemanticVersion parameter_model_version</text><line style="stroke:#181818;stroke-width:0.5;" x1="2651.27" x2="2966.7339" y1="175.1937" y2="175.1937"/></g><!--class GridCommon--><g class="entity" data-entity="GridCommon" data-source-line="73" data-uid="ent0017" id="entity_GridCommon"><rect fill="#F1F1F1" height="145.7813" rx="2.5" ry="2.5" style="stroke:#181818;stroke-width:0.5;" width="332.332" x="2637.83" y="654.7569"/><ellipse cx="2753.5282" cy="670.7569" fill="#ADD1B2" rx="11" ry="11" style="stroke:#181818;stroke-width:1;"/><path d="M2756.497,676.3975 Q2755.9189,676.6944 2755.2782,676.835 Q2754.6376,676.9912 2753.9345,676.9912 Q2751.4345,676.9912 2750.1064,675.3506 Q2748.7939,673.6944 2748.7939,670.5694 Q2748.7939,667.4444 2750.1064,665.7881 Q2751.4345,664.1319 2753.9345,664.1319 Q2754.6376,664.1319 2755.2782,664.2881 Q2755.9345,664.4444 2756.497,664.7412 L2756.497,667.46 Q2755.872,666.8819 2755.2782,666.6162 Q2754.6845,666.335 2754.0595,666.335 Q2752.7157,666.335 2752.0282,667.4131 Q2751.3407,668.4756 2751.3407,670.5694 Q2751.3407,672.6631 2752.0282,673.7412 Q2752.7157,674.8037 2754.0595,674.8037 Q2754.6845,674.8037 2755.2782,674.5381 Q2755.872,674.2569 2756.497,673.6787 L2756.497,676.3975 Z " fill="#000000"/><text fill="#000000" font-family="sans-serif" font-size="14" lengthAdjust="spacing" textLength="92.4355" x="2774.0282" y="675.6036">GridCommon</text><line style="stroke:#181818;stroke-width:0.5;" x1="2638.83" x2="2969.162" y1="686.7569" y2="686.7569"/><text fill="#000000" font-family="sans-serif" font-size="14" lengthAdjust="spacing" textLength="125.2959" x="2643.83" y="703.752">float box_size_um</text><text fill="#000000" font-family="sans-serif" font-size="14" lengthAdjust="spacing" textLength="138.4209" x="2643.83" y="720.0489">float grid_width_um</text><text fill="#000000" font-family="sans-serif" font-size="14" lengthAdjust="spacing" textLength="153.7129" x="2643.83" y="736.3457">float exposure_time_s</text><text fill="#000000" font-family="sans-serif" font-size="14" lengthAdjust="spacing" textLength="320.332" x="2643.83" y="752.6426">IspybExperimentType ispyb_experiment_type</text><text fill="#000000" font-family="sans-serif" font-size="14" lengthAdjust="spacing" textLength="282.3516" x="2643.83" y="768.9395">ApertureValue | None selected_aperture</text><text fill="#000000" font-family="sans-serif" font-size="14" lengthAdjust="spacing" textLength="130.498" x="2643.83" y="785.2364">float tip_offset_um</text><line style="stroke:#181818;stroke-width:0.5;" x1="2638.83" x2="2969.162" y1="792.5381" y2="792.5381"/></g><!--class DiffractionExperimentWithSample--><g class="entity" data-entity="DiffractionExperimentWithSample" data-source-line="81" data-uid="ent0018" id="entity_DiffractionExperimentWithSample"><rect fill="#F1F1F1" height="48" rx="2.5" ry="2.5" style="stroke:#181818;stroke-width:0.5;" width="270.8545" x="2668.57" y="546.7569"/><ellipse cx="2683.57" cy="562.7569" fill="#ADD1B2" rx="11" ry="11" style="stroke:#181818;stroke-width:1;"/><path d="M2686.5388,568.3975 Q2685.9606,568.6944 2685.32,568.835 Q2684.6794,568.9912 2683.9763,568.9912 Q2681.4763,568.9912 2680.1481,567.3506 Q2678.8356,565.6944 2678.8356,562.5694 Q2678.8356,559.4444 2680.1481,557.7881 Q2681.4763,556.1319 2683.9763,556.1319 Q2684.6794,556.1319 2685.32,556.2881 Q2685.9763,556.4444 2686.5388,556.7412 L2686.5388,559.46 Q2685.9138,558.8819 2685.32,558.6162 Q2684.7263,558.335 2684.1013,558.335 Q2682.7575,558.335 2682.07,559.4131 Q2681.3825,560.4756 2681.3825,562.5694 Q2681.3825,564.6631 2682.07,565.7412 Q2682.7575,566.8037 2684.1013,566.8037 Q2684.7263,566.8037 2685.32,566.5381 Q2685.9138,566.2569 2686.5388,565.6787 L2686.5388,568.3975 Z " fill="#000000"/><text fill="#000000" font-family="sans-serif" font-size="14" lengthAdjust="spacing" textLength="238.8545" x="2697.57" y="567.6036">DiffractionExperimentWithSample</text><line style="stroke:#181818;stroke-width:0.5;" x1="2669.57" x2="2938.4245" y1="578.7569" y2="578.7569"/><line style="stroke:#181818;stroke-width:0.5;" x1="2669.57" x2="2938.4245" y1="586.7569" y2="586.7569"/></g><!--class DiffractionExperiment--><g class="entity" data-entity="DiffractionExperiment" data-source-line="83" data-uid="ent0019" id="entity_DiffractionExperiment"><rect fill="#F1F1F1" height="210.9688" rx="2.5" ry="2.5" style="stroke:#181818;stroke-width:0.5;" width="332.332" x="2637.83" y="275.7869"/><ellipse cx="2722.6127" cy="291.7869" fill="#ADD1B2" rx="11" ry="11" style="stroke:#181818;stroke-width:1;"/><path d="M2725.5815,297.4275 Q2725.0033,297.7244 2724.3627,297.865 Q2723.7221,298.0213 2723.019,298.0213 Q2720.519,298.0213 2719.1908,296.3806 Q2717.8783,294.7244 2717.8783,291.5994 Q2717.8783,288.4744 2719.1908,286.8181 Q2720.519,285.1619 2723.019,285.1619 Q2723.7221,285.1619 2724.3627,285.3181 Q2725.019,285.4744 2725.5815,285.7713 L2725.5815,288.49 Q2724.9565,287.9119 2724.3627,287.6463 Q2723.769,287.365 2723.144,287.365 Q2721.8002,287.365 2721.1127,288.4431 Q2720.4252,289.5056 2720.4252,291.5994 Q2720.4252,293.6931 2721.1127,294.7713 Q2721.8002,295.8338 2723.144,295.8338 Q2723.769,295.8338 2724.3627,295.5681 Q2724.9565,295.2869 2725.5815,294.7088 L2725.5815,297.4275 Z " fill="#000000"/><text fill="#000000" font-family="sans-serif" font-size="14" lengthAdjust="spacing" textLength="154.2666" x="2743.1127" y="296.6336">DiffractionExperiment</text><line style="stroke:#181818;stroke-width:0.5;" x1="2638.83" x2="2969.162" y1="307.7869" y2="307.7869"/><text fill="#000000" font-family="sans-serif" font-size="14" lengthAdjust="spacing" textLength="91.0137" x="2643.83" y="324.782">str file_name</text><text fill="#000000" font-family="sans-serif" font-size="14" lengthAdjust="spacing" textLength="153.7129" x="2643.83" y="341.0789">float exposure_time_s</text><text fill="#000000" font-family="sans-serif" font-size="14" lengthAdjust="spacing" textLength="89.5029" x="2643.83" y="357.3757">str comment</text><text fill="#000000" font-family="sans-serif" font-size="14" lengthAdjust="spacing" textLength="186.915" x="2643.83" y="373.6726">TriggerMode trigger_mode</text><text fill="#000000" font-family="sans-serif" font-size="14" lengthAdjust="spacing" textLength="157.9854" x="2643.83" y="389.9695">int | None run_number</text><text fill="#000000" font-family="sans-serif" font-size="14" lengthAdjust="spacing" textLength="282.3516" x="2643.83" y="406.2664">ApertureValue | None selected_aperture</text><text fill="#000000" font-family="sans-serif" font-size="14" lengthAdjust="spacing" textLength="159.2979" x="2643.83" y="422.5632">float transmission_frac</text><text fill="#000000" font-family="sans-serif" font-size="14" lengthAdjust="spacing" textLength="320.332" x="2643.83" y="438.8601">IspybExperimentType ispyb_experiment_type</text><text fill="#000000" font-family="sans-serif" font-size="14" lengthAdjust="spacing" textLength="146.1113" x="2643.83" y="455.157">str storage_directory</text><text fill="#000000" font-family="sans-serif" font-size="14" lengthAdjust="spacing" textLength="131.0518" x="2643.83" y="471.4539">bool use_roi_mode</text><line style="stroke:#181818;stroke-width:0.5;" x1="2638.83" x2="2969.162" y1="478.7556" y2="478.7556"/></g><!--class GridCommonWithHyperionDetectorParams--><g class="entity" data-entity="GridCommonWithHyperionDetectorParams" data-source-line="98" data-uid="ent0021" id="entity_GridCommonWithHyperionDetectorParams"><rect fill="#F1F1F1" height="48" rx="2.5" ry="2.5" style="stroke:#181818;stroke-width:0.5;" width="333.2188" x="3034.39" y="950.1669"/><ellipse cx="3049.39" cy="966.1669" fill="#ADD1B2" rx="11" ry="11" style="stroke:#181818;stroke-width:1;"/><path d="M3052.3588,971.8075 Q3051.7806,972.1044 3051.14,972.245 Q3050.4994,972.4012 3049.7963,972.4012 Q3047.2963,972.4012 3045.9681,970.7606 Q3044.6556,969.1044 3044.6556,965.9794 Q3044.6556,962.8544 3045.9681,961.1981 Q3047.2963,959.5419 3049.7963,959.5419 Q3050.4994,959.5419 3051.14,959.6981 Q3051.7963,959.8544 3052.3588,960.1512 L3052.3588,962.87 Q3051.7338,962.2919 3051.14,962.0262 Q3050.5463,961.745 3049.9213,961.745 Q3048.5775,961.745 3047.89,962.8231 Q3047.2025,963.8856 3047.2025,965.9794 Q3047.2025,968.0731 3047.89,969.1512 Q3048.5775,970.2137 3049.9213,970.2137 Q3050.5463,970.2137 3051.14,969.9481 Q3051.7338,969.6669 3052.3588,969.0887 L3052.3588,971.8075 Z " fill="#000000"/><text fill="#000000" font-family="sans-serif" font-size="14" lengthAdjust="spacing" textLength="301.2188" x="3063.39" y="971.0136">GridCommonWithHyperionDetectorParams</text><line style="stroke:#181818;stroke-width:0.5;" x1="3035.39" x2="3366.6088" y1="982.1669" y2="982.1669"/><line style="stroke:#181818;stroke-width:0.5;" x1="3035.39" x2="3366.6088" y1="990.1669" y2="990.1669"/></g><!--class RotationExperiment--><g class="entity" data-entity="RotationExperiment" data-source-line="100" data-uid="ent0022" id="entity_RotationExperiment"><rect fill="#F1F1F1" height="96.8906" rx="2.5" ry="2.5" style="stroke:#181818;stroke-width:0.5;" width="332.332" x="3476.83" y="925.7269"/><ellipse cx="3568.7118" cy="941.7269" fill="#ADD1B2" rx="11" ry="11" style="stroke:#181818;stroke-width:1;"/><path d="M3571.6806,947.3675 Q3571.1025,947.6644 3570.4618,947.805 Q3569.8212,947.9613 3569.1181,947.9613 Q3566.6181,947.9613 3565.29,946.3206 Q3563.9775,944.6644 3563.9775,941.5394 Q3563.9775,938.4144 3565.29,936.7581 Q3566.6181,935.1019 3569.1181,935.1019 Q3569.8212,935.1019 3570.4618,935.2581 Q3571.1181,935.4144 3571.6806,935.7113 L3571.6806,938.43 Q3571.0556,937.8519 3570.4618,937.5863 Q3569.8681,937.305 3569.2431,937.305 Q3567.8993,937.305 3567.2118,938.3831 Q3566.5243,939.4456 3566.5243,941.5394 Q3566.5243,943.6331 3567.2118,944.7113 Q3567.8993,945.7738 3569.2431,945.7738 Q3569.8681,945.7738 3570.4618,945.5081 Q3571.0556,945.2269 3571.6806,944.6488 L3571.6806,947.3675 Z " fill="#000000"/><text fill="#000000" font-family="sans-serif" font-size="14" lengthAdjust="spacing" textLength="140.0684" x="3589.2118" y="946.5736">RotationExperiment</text><line style="stroke:#181818;stroke-width:0.5;" x1="3477.83" x2="3808.162" y1="957.7269" y2="957.7269"/><text fill="#000000" font-family="sans-serif" font-size="14" lengthAdjust="spacing" textLength="202.8018" x="3482.83" y="974.722">float shutter_opening_time_s</text><text fill="#000000" font-family="sans-serif" font-size="14" lengthAdjust="spacing" textLength="202.9385" x="3482.83" y="991.0189">float rotation_increment_deg</text><text fill="#000000" font-family="sans-serif" font-size="14" lengthAdjust="spacing" textLength="320.332" x="3482.83" y="1007.3157">IspybExperimentType ispyb_experiment_type</text><line style="stroke:#181818;stroke-width:0.5;" x1="3477.83" x2="3808.162" y1="1014.6175" y2="1014.6175"/></g><!--class HyperionSpecifiedThreeDGridScan--><g class="entity" data-entity="HyperionSpecifiedThreeDGridScan" data-source-line="105" data-uid="ent0023" id="entity_HyperionSpecifiedThreeDGridScan"><rect fill="#F1F1F1" height="48" rx="2.5" ry="2.5" style="stroke:#181818;stroke-width:0.5;" width="274.293" x="3843.85" y="950.1669"/><ellipse cx="3858.85" cy="966.1669" fill="#ADD1B2" rx="11" ry="11" style="stroke:#181818;stroke-width:1;"/><path d="M3861.8188,971.8075 Q3861.2406,972.1044 3860.6,972.245 Q3859.9594,972.4012 3859.2563,972.4012 Q3856.7563,972.4012 3855.4281,970.7606 Q3854.1156,969.1044 3854.1156,965.9794 Q3854.1156,962.8544 3855.4281,961.1981 Q3856.7563,959.5419 3859.2563,959.5419 Q3859.9594,959.5419 3860.6,959.6981 Q3861.2563,959.8544 3861.8188,960.1512 L3861.8188,962.87 Q3861.1938,962.2919 3860.6,962.0262 Q3860.0063,961.745 3859.3813,961.745 Q3858.0375,961.745 3857.35,962.8231 Q3856.6625,963.8856 3856.6625,965.9794 Q3856.6625,968.0731 3857.35,969.1512 Q3858.0375,970.2137 3859.3813,970.2137 Q3860.0063,970.2137 3860.6,969.9481 Q3861.1938,969.6669 3861.8188,969.0887 L3861.8188,971.8075 Z " fill="#000000"/><text fill="#000000" font-family="sans-serif" font-size="14" lengthAdjust="spacing" textLength="242.293" x="3872.85" y="971.0136">HyperionSpecifiedThreeDGridScan</text><line style="stroke:#181818;stroke-width:0.5;" x1="3844.85" x2="4117.143" y1="982.1669" y2="982.1669"/><line style="stroke:#181818;stroke-width:0.5;" x1="3844.85" x2="4117.143" y1="990.1669" y2="990.1669"/></g><!--class MultiRotationScan--><g class="entity" data-entity="MultiRotationScan" data-source-line="107" data-uid="ent0024" id="entity_MultiRotationScan"><rect fill="#F1F1F1" height="64.2969" rx="2.5" ry="2.5" style="stroke:#181818;stroke-width:0.5;" width="540.001" x="3614" y="1147.7969"/><ellipse cx="3816.0327" cy="1163.7969" fill="#ADD1B2" rx="11" ry="11" style="stroke:#181818;stroke-width:1;"/><path d="M3819.0015,1169.4375 Q3818.4233,1169.7344 3817.7827,1169.875 Q3817.1421,1170.0313 3816.439,1170.0313 Q3813.939,1170.0313 3812.6108,1168.3906 Q3811.2983,1166.7344 3811.2983,1163.6094 Q3811.2983,1160.4844 3812.6108,1158.8281 Q3813.939,1157.1719 3816.439,1157.1719 Q3817.1421,1157.1719 3817.7827,1157.3281 Q3818.439,1157.4844 3819.0015,1157.7813 L3819.0015,1160.5 Q3818.3765,1159.9219 3817.7827,1159.6563 Q3817.189,1159.375 3816.564,1159.375 Q3815.2202,1159.375 3814.5327,1160.4531 Q3813.8452,1161.5156 3813.8452,1163.6094 Q3813.8452,1165.7031 3814.5327,1166.7813 Q3815.2202,1167.8438 3816.564,1167.8438 Q3817.189,1167.8438 3817.7827,1167.5781 Q3818.3765,1167.2969 3819.0015,1166.7188 L3819.0015,1169.4375 Z " fill="#000000"/><text fill="#000000" font-family="sans-serif" font-size="14" lengthAdjust="spacing" textLength="127.4355" x="3836.5327" y="1168.6436">MultiRotationScan</text><line style="stroke:#181818;stroke-width:0.5;" x1="3615" x2="4153.001" y1="1179.7969" y2="1179.7969"/><line style="stroke:#181818;stroke-width:0.5;" x1="3615" x2="4153.001" y1="1187.7969" y2="1187.7969"/><text fill="#000000" font-family="sans-serif" font-size="14" lengthAdjust="spacing" textLength="528.001" x="3620" y="1204.792">Annotated[list[RotationScanPerSweep], Len(min_length=1)] rotation_scans</text></g><!--class RotationScanPerSweep--><g class="entity" data-entity="RotationScanPerSweep" data-source-line="110" data-uid="ent0025" id="entity_RotationScanPerSweep"><rect fill="#F1F1F1" height="129.4844" rx="2.5" ry="2.5" style="stroke:#181818;stroke-width:0.5;" width="263.0498" x="4153.48" y="909.4269"/><ellipse cx="4199.5166" cy="925.4269" fill="#ADD1B2" rx="11" ry="11" style="stroke:#181818;stroke-width:1;"/><path d="M4202.4854,931.0675 Q4201.9072,931.3644 4201.2666,931.505 Q4200.626,931.6612 4199.9229,931.6612 Q4197.4229,931.6612 4196.0947,930.0206 Q4194.7822,928.3644 4194.7822,925.2394 Q4194.7822,922.1144 4196.0947,920.4581 Q4197.4229,918.8019 4199.9229,918.8019 Q4200.626,918.8019 4201.2666,918.9581 Q4201.9229,919.1144 4202.4854,919.4112 L4202.4854,922.13 Q4201.8604,921.5519 4201.2666,921.2862 Q4200.6729,921.005 4200.0479,921.005 Q4198.7041,921.005 4198.0166,922.0831 Q4197.3291,923.1456 4197.3291,925.2394 Q4197.3291,927.3331 4198.0166,928.4112 Q4198.7041,929.4737 4200.0479,929.4737 Q4200.6729,929.4737 4201.2666,929.2081 Q4201.8604,928.9269 4202.4854,928.3487 L4202.4854,931.0675 Z " fill="#000000"/><text fill="#000000" font-family="sans-serif" font-size="14" lengthAdjust="spacing" textLength="162.4766" x="4220.0166" y="930.2736">RotationScanPerSweep</text><line style="stroke:#181818;stroke-width:0.5;" x1="4154.48" x2="4415.5298" y1="941.4269" y2="941.4269"/><text fill="#000000" font-family="sans-serif" font-size="14" lengthAdjust="spacing" textLength="157.1787" x="4159.48" y="958.422">float omega_start_deg</text><text fill="#000000" font-family="sans-serif" font-size="14" lengthAdjust="spacing" textLength="182.9297" x="4159.48" y="974.7189">RotationAxis rotation_axis</text><text fill="#000000" font-family="sans-serif" font-size="14" lengthAdjust="spacing" textLength="147.3213" x="4159.48" y="991.0157">float scan_width_deg</text><text fill="#000000" font-family="sans-serif" font-size="14" lengthAdjust="spacing" textLength="251.0498" x="4159.48" y="1007.3126">RotationDirection rotation_direction</text><text fill="#000000" font-family="sans-serif" font-size="14" lengthAdjust="spacing" textLength="169.1279" x="4159.48" y="1023.6095">int nexus_vds_start_img</text><line style="stroke:#181818;stroke-width:0.5;" x1="4154.48" x2="4415.5298" y1="1030.9112" y2="1030.9112"/></g><!--class PinTipCentreThenXrayCentre--><g class="entity" data-entity="PinTipCentreThenXrayCentre" data-source-line="117" data-uid="ent0026" id="entity_PinTipCentreThenXrayCentre"><rect fill="#F1F1F1" height="64.2969" rx="2.5" ry="2.5" style="stroke:#181818;stroke-width:0.5;" width="235.8955" x="3074.05" y="1147.7969"/><ellipse cx="3089.05" cy="1163.7969" fill="#ADD1B2" rx="11" ry="11" style="stroke:#181818;stroke-width:1;"/><path d="M3092.0188,1169.4375 Q3091.4406,1169.7344 3090.8,1169.875 Q3090.1594,1170.0313 3089.4563,1170.0313 Q3086.9563,1170.0313 3085.6281,1168.3906 Q3084.3156,1166.7344 3084.3156,1163.6094 Q3084.3156,1160.4844 3085.6281,1158.8281 Q3086.9563,1157.1719 3089.4563,1157.1719 Q3090.1594,1157.1719 3090.8,1157.3281 Q3091.4563,1157.4844 3092.0188,1157.7813 L3092.0188,1160.5 Q3091.3938,1159.9219 3090.8,1159.6563 Q3090.2063,1159.375 3089.5813,1159.375 Q3088.2375,1159.375 3087.55,1160.4531 Q3086.8625,1161.5156 3086.8625,1163.6094 Q3086.8625,1165.7031 3087.55,1166.7813 Q3088.2375,1167.8438 3089.5813,1167.8438 Q3090.2063,1167.8438 3090.8,1167.5781 Q3091.3938,1167.2969 3092.0188,1166.7188 L3092.0188,1169.4375 Z " fill="#000000"/><text fill="#000000" font-family="sans-serif" font-size="14" lengthAdjust="spacing" textLength="203.8955" x="3103.05" y="1168.6436">PinTipCentreThenXrayCentre</text><line style="stroke:#181818;stroke-width:0.5;" x1="3075.05" x2="3308.9455" y1="1179.7969" y2="1179.7969"/><text fill="#000000" font-family="sans-serif" font-size="14" lengthAdjust="spacing" textLength="130.498" x="3080.05" y="1196.792">float tip_offset_um</text><line style="stroke:#181818;stroke-width:0.5;" x1="3075.05" x2="3308.9455" y1="1204.0938" y2="1204.0938"/></g><!--class WithHyperionUDCFeatures--><g class="entity" data-entity="WithHyperionUDCFeatures" data-source-line="120" data-uid="ent0027" id="entity_WithHyperionUDCFeatures"><rect fill="#F1F1F1" height="64.2969" rx="2.5" ry="2.5" style="stroke:#181818;stroke-width:0.5;" width="228.6719" x="3326.66" y="695.4969"/><ellipse cx="3345.7583" cy="711.4969" fill="#ADD1B2" rx="11" ry="11" style="stroke:#181818;stroke-width:1;"/><path d="M3348.7271,717.1375 Q3348.149,717.4344 3347.5083,717.575 Q3346.8677,717.7312 3346.1646,717.7312 Q3343.6646,717.7312 3342.3365,716.0906 Q3341.024,714.4344 3341.024,711.3094 Q3341.024,708.1844 3342.3365,706.5281 Q3343.6646,704.8719 3346.1646,704.8719 Q3346.8677,704.8719 3347.5083,705.0281 Q3348.1646,705.1844 3348.7271,705.4812 L3348.7271,708.2 Q3348.1021,707.6219 3347.5083,707.3562 Q3346.9146,707.075 3346.2896,707.075 Q3344.9458,707.075 3344.2583,708.1531 Q3343.5708,709.2156 3343.5708,711.3094 Q3343.5708,713.4031 3344.2583,714.4812 Q3344.9458,715.5437 3346.2896,715.5437 Q3346.9146,715.5437 3347.5083,715.2781 Q3348.1021,714.9969 3348.7271,714.4187 L3348.7271,717.1375 Z " fill="#000000"/><text fill="#000000" font-family="sans-serif" font-size="14" lengthAdjust="spacing" textLength="187.5645" x="3360.6691" y="716.3436">WithHyperionUDCFeatures</text><line style="stroke:#181818;stroke-width:0.5;" x1="3327.66" x2="3554.3319" y1="727.4969" y2="727.4969"/><text fill="#000000" font-family="sans-serif" font-size="14" lengthAdjust="spacing" textLength="216.6719" x="3332.66" y="744.492">HyperionFeatureFlags features</text><line style="stroke:#181818;stroke-width:0.5;" x1="3327.66" x2="3554.3319" y1="751.7937" y2="751.7937"/></g><!--class LoadCentreCollect--><g class="entity" data-entity="LoadCentreCollect" data-source-line="123" data-uid="ent0028" id="entity_LoadCentreCollect"><rect fill="#F1F1F1" height="80.5938" rx="2.5" ry="2.5" style="stroke:#181818;stroke-width:0.5;" width="338.6211" x="4451.69" y="933.8669"/><ellipse cx="4552.315" cy="949.8669" fill="#ADD1B2" rx="11" ry="11" style="stroke:#181818;stroke-width:1;"/><path d="M4555.2838,955.5075 Q4554.7056,955.8044 4554.065,955.945 Q4553.4244,956.1012 4552.7213,956.1012 Q4550.2213,956.1012 4548.8931,954.4606 Q4547.5806,952.8044 4547.5806,949.6794 Q4547.5806,946.5544 4548.8931,944.8981 Q4550.2213,943.2419 4552.7213,943.2419 Q4553.4244,943.2419 4554.065,943.3981 Q4554.7213,943.5544 4555.2838,943.8512 L4555.2838,946.57 Q4554.6588,945.9919 4554.065,945.7262 Q4553.4713,945.445 4552.8463,945.445 Q4551.5025,945.445 4550.815,946.5231 Q4550.1275,947.5856 4550.1275,949.6794 Q4550.1275,951.7731 4550.815,952.8512 Q4551.5025,953.9137 4552.8463,953.9137 Q4553.4713,953.9137 4554.065,953.6481 Q4554.6588,953.3669 4555.2838,952.7887 L4555.2838,955.5075 Z " fill="#000000"/><text fill="#000000" font-family="sans-serif" font-size="14" lengthAdjust="spacing" textLength="128.8711" x="4572.815" y="954.7136">LoadCentreCollect</text><line style="stroke:#181818;stroke-width:0.5;" x1="4452.69" x2="4789.3111" y1="965.8669" y2="965.8669"/><text fill="#000000" font-family="sans-serif" font-size="14" lengthAdjust="spacing" textLength="326.6211" x="4457.69" y="982.862">RobotLoadThenCentre robot_load_then_centre</text><text fill="#000000" font-family="sans-serif" font-size="14" lengthAdjust="spacing" textLength="269.3154" x="4457.69" y="999.1589">MultiRotationScan multi_rotation_scan</text><line style="stroke:#181818;stroke-width:0.5;" x1="4452.69" x2="4789.3111" y1="1006.4606" y2="1006.4606"/></g><!--class RotationScan--><g class="entity" data-entity="RotationScan" data-source-line="127" data-uid="ent0029" id="entity_RotationScan"><rect fill="#F1F1F1" height="48" rx="2.5" ry="2.5" style="stroke:#181818;stroke-width:0.5;" width="125.2148" x="4222.39" y="1155.9469"/><ellipse cx="4237.39" cy="1171.9469" fill="#ADD1B2" rx="11" ry="11" style="stroke:#181818;stroke-width:1;"/><path d="M4240.3588,1177.5875 Q4239.7806,1177.8844 4239.14,1178.025 Q4238.4994,1178.1812 4237.7963,1178.1812 Q4235.2963,1178.1812 4233.9681,1176.5406 Q4232.6556,1174.8844 4232.6556,1171.7594 Q4232.6556,1168.6344 4233.9681,1166.9781 Q4235.2963,1165.3219 4237.7963,1165.3219 Q4238.4994,1165.3219 4239.14,1165.4781 Q4239.7963,1165.6344 4240.3588,1165.9312 L4240.3588,1168.65 Q4239.7338,1168.0719 4239.14,1167.8062 Q4238.5463,1167.525 4237.9213,1167.525 Q4236.5775,1167.525 4235.89,1168.6031 Q4235.2025,1169.6656 4235.2025,1171.7594 Q4235.2025,1173.8531 4235.89,1174.9312 Q4236.5775,1175.9937 4237.9213,1175.9937 Q4238.5463,1175.9937 4239.14,1175.7281 Q4239.7338,1175.4469 4240.3588,1174.8687 L4240.3588,1177.5875 Z " fill="#000000"/><text fill="#000000" font-family="sans-serif" font-size="14" lengthAdjust="spacing" textLength="93.2148" x="4251.39" y="1176.7936">RotationScan</text><line style="stroke:#181818;stroke-width:0.5;" x1="4223.39" x2="4346.6048" y1="1187.9469" y2="1187.9469"/><line style="stroke:#181818;stroke-width:0.5;" x1="4223.39" x2="4346.6048" y1="1195.9469" y2="1195.9469"/></g><!--class GridScanWithEdgeDetect--><g class="entity" data-entity="GridScanWithEdgeDetect" data-source-line="129" data-uid="ent0030" id="entity_GridScanWithEdgeDetect"><rect fill="#F1F1F1" height="48" rx="2.5" ry="2.5" style="stroke:#181818;stroke-width:0.5;" width="209.4268" x="3345.29" y="1155.9469"/><ellipse cx="3360.29" cy="1171.9469" fill="#ADD1B2" rx="11" ry="11" style="stroke:#181818;stroke-width:1;"/><path d="M3363.2588,1177.5875 Q3362.6806,1177.8844 3362.04,1178.025 Q3361.3994,1178.1812 3360.6963,1178.1812 Q3358.1963,1178.1812 3356.8681,1176.5406 Q3355.5556,1174.8844 3355.5556,1171.7594 Q3355.5556,1168.6344 3356.8681,1166.9781 Q3358.1963,1165.3219 3360.6963,1165.3219 Q3361.3994,1165.3219 3362.04,1165.4781 Q3362.6963,1165.6344 3363.2588,1165.9312 L3363.2588,1168.65 Q3362.6338,1168.0719 3362.04,1167.8062 Q3361.4463,1167.525 3360.8213,1167.525 Q3359.4775,1167.525 3358.79,1168.6031 Q3358.1025,1169.6656 3358.1025,1171.7594 Q3358.1025,1173.8531 3358.79,1174.9312 Q3359.4775,1175.9937 3360.8213,1175.9937 Q3361.4463,1175.9937 3362.04,1175.7281 Q3362.6338,1175.4469 3363.2588,1174.8687 L3363.2588,1177.5875 Z " fill="#000000"/><text fill="#000000" font-family="sans-serif" font-size="14" lengthAdjust="spacing" textLength="177.4268" x="3374.29" y="1176.7936">GridScanWithEdgeDetect</text><line style="stroke:#181818;stroke-width:0.5;" x1="3346.29" x2="3553.7168" y1="1187.9469" y2="1187.9469"/><line style="stroke:#181818;stroke-width:0.5;" x1="3346.29" x2="3553.7168" y1="1195.9469" y2="1195.9469"/></g><!--reverse link GridCommon to GridCommonWithHyperionDetectorParams--><g class="link" data-entity-1="GridCommon" data-entity-2="GridCommonWithHyperionDetectorParams" data-source-line="132" data-uid="lnk31" id="link_GridCommon_GridCommonWithHyperionDetectorParams"><path codeLine="132" d="M2936.8257,810.4573 C3018.9057,861.0173 3107.97,915.8669 3163.03,949.7769 " fill="none" id="GridCommon-backto-GridCommonWithHyperionDetectorParams" style="stroke:#181818;stroke-width:1;"/><polygon fill="none" points="2921.5,801.0169,2933.6789,815.5659,2939.9726,805.3487,2921.5,801.0169" style="stroke:#181818;stroke-width:1;"/></g><!--reverse link WithHyperionUDCFeatures to GridCommonWithHyperionDetectorParams--><g class="link" data-entity-1="WithHyperionUDCFeatures" data-entity-2="GridCommonWithHyperionDetectorParams" data-source-line="133" data-uid="lnk32" id="link_WithHyperionUDCFeatures_GridCommonWithHyperionDetectorParams"><path codeLine="133" d="M3397.5113,772.9529 C3348.6413,822.7429 3267.21,905.7169 3223.88,949.8569 " fill="none" id="WithHyperionUDCFeatures-backto-GridCommonWithHyperionDetectorParams" style="stroke:#181818;stroke-width:1;"/><polygon fill="none" points="3410.12,760.1069,3393.2293,768.75,3401.7933,777.1558,3410.12,760.1069" style="stroke:#181818;stroke-width:1;"/></g><!--reverse link DiffractionExperimentWithSample to GridCommon--><g class="link" data-entity-1="DiffractionExperimentWithSample" data-entity-2="GridCommon" data-source-line="134" data-uid="lnk33" id="link_DiffractionExperimentWithSample_GridCommon"><path codeLine="134" d="M2804,612.9369 C2804,628.8969 2804,633.0169 2804,654.5769 " fill="none" id="DiffractionExperimentWithSample-backto-GridCommon" style="stroke:#181818;stroke-width:1;"/><polygon fill="none" points="2804,594.9369,2798,612.9369,2810,612.9369,2804,594.9369" style="stroke:#181818;stroke-width:1;"/></g><!--reverse link OptionalGonioAngleStarts to GridCommon--><g class="link" data-entity-1="OptionalGonioAngleStarts" data-entity-2="GridCommon" data-source-line="135" data-uid="lnk34" id="link_OptionalGonioAngleStarts_GridCommon"><path codeLine="135" d="M690.1504,214.4565 C698.0304,217.4165 689.13,213.6969 697,215.7869 C1179.25,343.7269 1337.91,139.9369 1818,275.7869 C2006.87,329.2269 2028.39,403.1869 2206,486.7569 C2348.97,554.0169 2516.22,620.0869 2637.44,665.7969 " fill="none" id="OptionalGonioAngleStarts-backto-GridCommon" style="stroke:#181818;stroke-width:1;"/><polygon fill="none" points="673.3,208.1269,688.0405,220.0733,692.2603,208.8397,673.3,208.1269" style="stroke:#181818;stroke-width:1;"/></g><!--reverse link DiffractionExperimentWithSample to RotationExperiment--><g class="link" data-entity-1="DiffractionExperimentWithSample" data-entity-2="RotationExperiment" data-source-line="136" data-uid="lnk35" id="link_DiffractionExperimentWithSample_RotationExperiment"><path codeLine="136" d="M2875.5529,602.3046 C2912.2529,618.1046 2944.96,632.5269 2988,652.4969 C3189.14,745.8169 3421.6,861.5169 3548.41,925.3169 " fill="none" id="DiffractionExperimentWithSample-backto-RotationExperiment" style="stroke:#181818;stroke-width:1;"/><polygon fill="none" points="2859.02,595.1869,2873.1804,607.8156,2877.9255,596.7936,2859.02,595.1869" style="stroke:#181818;stroke-width:1;"/></g><!--reverse link WithHyperionUDCFeatures to RotationExperiment--><g class="link" data-entity-1="WithHyperionUDCFeatures" data-entity-2="RotationExperiment" data-source-line="137" data-uid="lnk36" id="link_WithHyperionUDCFeatures_RotationExperiment"><path codeLine="137" d="M3478.4559,773.9825 C3513.0959,815.9025 3563.21,876.5769 3603.57,925.4369 " fill="none" id="WithHyperionUDCFeatures-backto-RotationExperiment" style="stroke:#181818;stroke-width:1;"/><polygon fill="none" points="3466.99,760.1069,3473.8307,777.8045,3483.0811,770.1605,3466.99,760.1069" style="stroke:#181818;stroke-width:1;"/></g><!--reverse link WithHyperionUDCFeatures to HyperionSpecifiedThreeDGridScan--><g class="link" data-entity-1="WithHyperionUDCFeatures" data-entity-2="HyperionSpecifiedThreeDGridScan" data-source-line="138" data-uid="lnk37" id="link_WithHyperionUDCFeatures_HyperionSpecifiedThreeDGridScan"><path codeLine="138" d="M3511.4181,768.7598 C3537.0281,782.5898 3552.51,789.5769 3582,800.5369 C3687.08,839.5869 3725.37,813.2069 3827,860.5369 C3876.85,883.7469 3926.8,924.2169 3955.76,949.7969 " fill="none" id="WithHyperionUDCFeatures-backto-HyperionSpecifiedThreeDGridScan" style="stroke:#181818;stroke-width:1;"/><polygon fill="none" points="3495.58,760.2069,3508.5672,774.0392,3514.2691,763.4805,3495.58,760.2069" style="stroke:#181818;stroke-width:1;"/></g><!--reverse link SpecifiedThreeDGridScan to HyperionSpecifiedThreeDGridScan--><g class="link" data-entity-1="SpecifiedThreeDGridScan" data-entity-2="HyperionSpecifiedThreeDGridScan" data-source-line="139" data-uid="lnk38" id="link_SpecifiedThreeDGridScan_HyperionSpecifiedThreeDGridScan"><path codeLine="139" d="M2864.3731,898.9242 C2918.1131,868.9742 2970.06,845.7369 3035.5,830.5369 C3119.27,811.0769 3728.67,801.1569 3809.5,830.5369 C3875.02,854.3469 3932.97,915.3869 3961.76,949.7369 " fill="none" id="SpecifiedThreeDGridScan-backto-HyperionSpecifiedThreeDGridScan" style="stroke:#181818;stroke-width:1;"/><polygon fill="none" points="2848.65,907.6869,2867.294,904.1652,2861.4522,893.6832,2848.65,907.6869" style="stroke:#181818;stroke-width:1;"/></g><!--reverse link GridCommon to SpecifiedThreeDGridScan--><g class="link" data-entity-1="GridCommon" data-entity-2="SpecifiedThreeDGridScan" data-source-line="140" data-uid="lnk39" id="link_GridCommon_SpecifiedThreeDGridScan"><path codeLine="140" d="M2781.591,818.4811 C2776.951,837.0711 2776.21,840.0569 2771.19,860.1669 " fill="none" id="GridCommon-backto-SpecifiedThreeDGridScan" style="stroke:#181818;stroke-width:1;"/><polygon fill="none" points="2785.95,801.0169,2775.7696,817.0281,2787.4124,819.9341,2785.95,801.0169" style="stroke:#181818;stroke-width:1;"/></g><!--reverse link SpecifiedGrid to SpecifiedThreeDGridScan--><g class="link" data-entity-1="SpecifiedGrid" data-entity-2="SpecifiedThreeDGridScan" data-source-line="141" data-uid="lnk40" id="link_SpecifiedGrid_SpecifiedThreeDGridScan"><path codeLine="141" d="M1793.2267,414.74 C1936.9967,499.27 2417.95,782.0469 2637.34,911.0469 " fill="none" id="SpecifiedGrid-backto-SpecifiedThreeDGridScan" style="stroke:#181818;stroke-width:1;"/><polygon fill="none" points="1777.71,405.6169,1790.1857,419.9122,1796.2678,409.5677,1777.71,405.6169" style="stroke:#181818;stroke-width:1;"/></g><!--reverse link SplitScan to SpecifiedThreeDGridScan--><g class="link" data-entity-1="SplitScan" data-entity-2="SpecifiedThreeDGridScan" data-source-line="142" data-uid="lnk41" id="link_SplitScan_SpecifiedThreeDGridScan"><path codeLine="142" d="M1332.2607,188.3918 C1385.2307,245.7618 1517.66,384.1669 1658,486.7569 C1886.13,653.5169 1952.39,686.6169 2211,800.5369 C2354.29,863.6569 2528.14,915.7569 2637.2,945.6669 " fill="none" id="SplitScan-backto-SpecifiedThreeDGridScan" style="stroke:#181818;stroke-width:1;"/><polygon fill="none" points="1320.05,175.1669,1327.8523,192.4621,1336.669,184.3216,1320.05,175.1669" style="stroke:#181818;stroke-width:1;"/></g><!--reverse link WithOptionalEnergyChange to SpecifiedThreeDGridScan--><g class="link" data-entity-1="WithOptionalEnergyChange" data-entity-2="SpecifiedThreeDGridScan" data-source-line="143" data-uid="lnk42" id="link_WithOptionalEnergyChange_SpecifiedThreeDGridScan"><path codeLine="143" d="M227.8923,191.3648 C250.2523,202.0448 259.43,205.9869 283,215.7869 C988.64,509.1969 1164.4,593.3869 1900,800.5369 C2161.35,874.1369 2476.52,930.2369 2637.35,956.5969 " fill="none" id="WithOptionalEnergyChange-backto-SpecifiedThreeDGridScan" style="stroke:#181818;stroke-width:1;"/><polygon fill="none" points="211.65,183.6069,225.3064,196.779,230.4783,185.9507,211.65,183.6069" style="stroke:#181818;stroke-width:1;"/></g><!--reverse link RotationExperiment to MultiRotationScan--><g class="link" data-entity-1="RotationExperiment" data-entity-2="MultiRotationScan" data-source-line="144" data-uid="lnk43" id="link_RotationExperiment_MultiRotationScan"><path codeLine="144" d="M3713.2457,1034.5683 C3758.6057,1072.9183 3807.25,1114.0569 3846.6,1147.3269 " fill="none" id="RotationExperiment-backto-MultiRotationScan" style="stroke:#181818;stroke-width:1;"/><polygon fill="none" points="3699.5,1022.9469,3709.3719,1039.1502,3717.1195,1029.9864,3699.5,1022.9469" style="stroke:#181818;stroke-width:1;"/></g><!--reverse link SplitScan to MultiRotationScan--><g class="link" data-entity-1="SplitScan" data-entity-2="MultiRotationScan" data-source-line="145" data-uid="lnk44" id="link_SplitScan_MultiRotationScan"><path codeLine="145" d="M1327.1451,189.3426 C1339.0451,203.8726 1345.02,207.4169 1365,215.7869 C1611.47,318.9669 3504.65,236.8969 3769,275.7869 C4258.62,347.8169 4843,74.8669 4843,569.7569 C4843,569.7569 4843,569.7569 4843,728.6469 C4843,815.9169 4871.02,1059.4269 4808,1119.7969 C4783.78,1142.9969 4238.45,1145.4069 4205,1147.7969 C4188.39,1148.9869 4171.3,1150.3269 4154.07,1151.7569 " fill="none" id="SplitScan-backto-MultiRotationScan" style="stroke:#181818;stroke-width:1;"/><polygon fill="none" points="1315.74,175.4169,1322.5032,193.1442,1331.787,185.5409,1315.74,175.4169" style="stroke:#181818;stroke-width:1;"/></g><!--reverse link OptionalGonioAngleStarts to RotationScanPerSweep--><g class="link" data-entity-1="OptionalGonioAngleStarts" data-entity-2="RotationScanPerSweep" data-source-line="146" data-uid="lnk45" id="link_OptionalGonioAngleStarts_RotationScanPerSweep"><path codeLine="146" d="M689.4002,214.3565 C697.5302,217.3665 688.86,213.7469 697,215.7869 C1190.56,339.5469 2493.39,148.2669 2986,275.7869 C3474.57,402.2569 3536.14,586.1069 3993,800.5369 C4055.39,829.8169 4076.27,826.1469 4136,860.5369 C4160.45,874.6069 4185.49,892.1269 4207.9,909.1169 " fill="none" id="OptionalGonioAngleStarts-backto-RotationScanPerSweep" style="stroke:#181818;stroke-width:1;"/><polygon fill="none" points="672.52,208.1069,687.317,219.9832,691.4834,208.7298,672.52,208.1069" style="stroke:#181818;stroke-width:1;"/></g><!--reverse link OptionalXyzStarts to RotationScanPerSweep--><g class="link" data-entity-1="OptionalXyzStarts" data-entity-2="RotationScanPerSweep" data-source-line="147" data-uid="lnk46" id="link_OptionalXyzStarts_RotationScanPerSweep"><path codeLine="147" d="M2268.5229,208.4009 C2280.4829,214.8509 2277.33,211.9969 2290,215.7869 C2471.63,270.0569 3839.19,167.8169 3995,275.7869 C4210.56,425.1469 4266.31,766.7769 4280.38,909.0969 " fill="none" id="OptionalXyzStarts-backto-RotationScanPerSweep" style="stroke:#181818;stroke-width:1;"/><polygon fill="none" points="2252.68,199.8569,2265.6749,213.6819,2271.371,203.12,2252.68,199.8569" style="stroke:#181818;stroke-width:1;"/></g><!--reverse link GridCommonWithHyperionDetectorParams to PinTipCentreThenXrayCentre--><g class="link" data-entity-1="GridCommonWithHyperionDetectorParams" data-entity-2="PinTipCentreThenXrayCentre" data-source-line="148" data-uid="lnk47" id="link_GridCommonWithHyperionDetectorParams_PinTipCentreThenXrayCentre"><path codeLine="148" d="M3199.176,1016.5294 C3197.556,1053.2194 3195.2,1106.4069 3193.39,1147.5369 " fill="none" id="GridCommonWithHyperionDetectorParams-backto-PinTipCentreThenXrayCentre" style="stroke:#181818;stroke-width:1;"/><polygon fill="none" points="3199.97,998.5469,3193.1818,1016.2647,3205.1702,1016.794,3199.97,998.5469" style="stroke:#181818;stroke-width:1;"/></g><!--reverse link WithHyperionUDCFeatures to PinTipCentreThenXrayCentre--><g class="link" data-entity-1="WithHyperionUDCFeatures" data-entity-2="PinTipCentreThenXrayCentre" data-source-line="149" data-uid="lnk48" id="link_WithHyperionUDCFeatures_PinTipCentreThenXrayCentre"><path codeLine="149" d="M3436.8913,778.2227 C3429.4213,866.4427 3408.33,1092.5369 3385,1119.7969 C3379.15,1126.6369 3346.9,1137.5169 3310.39,1148.0869 " fill="none" id="WithHyperionUDCFeatures-backto-PinTipCentreThenXrayCentre" style="stroke:#181818;stroke-width:1;"/><polygon fill="none" points="3438.41,760.2869,3430.9127,777.7165,3442.8699,778.7289,3438.41,760.2869" style="stroke:#181818;stroke-width:1;"/></g><!--reverse link WithPandaGridScan to WithHyperionUDCFeatures--><g class="link" data-entity-1="WithPandaGridScan" data-entity-2="WithHyperionUDCFeatures" data-source-line="150" data-uid="lnk49" id="link_WithPandaGridScan_WithHyperionUDCFeatures"><path codeLine="150" d="M2014.0991,191.6678 C2038.5191,203.9178 2051.87,208.6169 2080,215.7869 C2275.53,265.5869 2802.05,192.8669 2986,275.7869 C3196.88,370.8369 3365.45,609.0669 3421.25,695.0569 " fill="none" id="WithPandaGridScan-backto-WithHyperionUDCFeatures" style="stroke:#181818;stroke-width:1;"/><polygon fill="none" points="1998.01,183.5969,2011.4088,197.0308,2016.7894,186.3048,1998.01,183.5969" style="stroke:#181818;stroke-width:1;"/></g><!--reverse link DiffractionExperiment to DiffractionExperimentWithSample--><g class="link" data-entity-1="DiffractionExperiment" data-entity-2="DiffractionExperimentWithSample" data-source-line="151" data-uid="lnk50" id="link_DiffractionExperiment_DiffractionExperimentWithSample"><path codeLine="151" d="M2804,505.2469 C2804,527.5069 2804,530.9069 2804,546.3269 " fill="none" id="DiffractionExperiment-backto-DiffractionExperimentWithSample" style="stroke:#181818;stroke-width:1;"/><polygon fill="none" points="2804,487.2469,2798,505.2469,2810,505.2469,2804,487.2469" style="stroke:#181818;stroke-width:1;"/></g><!--reverse link WithSample to DiffractionExperimentWithSample--><g class="link" data-entity-1="WithSample" data-entity-2="DiffractionExperimentWithSample" data-source-line="152" data-uid="lnk51" id="link_WithSample_DiffractionExperimentWithSample"><path codeLine="152" d="M1211.9175,208.3665 C1223.8075,214.7165 1220.49,211.8969 1233,215.7869 C1648.43,344.9169 1790.52,160.4669 2210,275.7869 C2407.6,330.1069 2435.43,397.7069 2620,486.7569 C2663.4,507.6869 2713.26,530.0769 2750.12,546.3269 " fill="none" id="WithSample-backto-DiffractionExperimentWithSample" style="stroke:#181818;stroke-width:1;"/><polygon fill="none" points="1196.04,199.8869,1209.091,213.659,1214.7441,203.074,1196.04,199.8869" style="stroke:#181818;stroke-width:1;"/></g><!--reverse link MxBlueskyParameters to LoadCentreCollect--><g class="link" data-entity-1="MxBlueskyParameters" data-entity-2="LoadCentreCollect" data-source-line="153" data-uid="lnk52" id="link_MxBlueskyParameters_LoadCentreCollect"><path codeLine="153" d="M2986.0954,155.7821 C3469.2254,166.6621 4872.5,204.2569 4940,275.7869 C5131.89,479.1369 4794.3,818.1369 4666.78,933.4069 " fill="none" id="MxBlueskyParameters-backto-LoadCentreCollect" style="stroke:#181818;stroke-width:1;"/><polygon fill="none" points="2968.1,155.3769,2985.9604,161.7806,2986.2305,149.7836,2968.1,155.3769" style="stroke:#181818;stroke-width:1;"/></g><!--reverse link WithVisit to LoadCentreCollect--><g class="link" data-entity-1="WithVisit" data-entity-2="LoadCentreCollect" data-source-line="154" data-uid="lnk53" id="link_WithVisit_LoadCentreCollect"><path codeLine="154" d="M1671.3516,216.3946 C1791.0716,242.0346 3769.36,212.2269 3874,275.7869 C3965.64,331.4469 3921.13,405.4269 3991,486.7569 C4162.78,686.6769 4428.34,858.7169 4552.56,933.4369 " fill="none" id="WithVisit-backto-LoadCentreCollect" style="stroke:#181818;stroke-width:1;"/><polygon fill="none" points="1654,211.6069,1669.7557,222.1784,1672.9475,210.6107,1654,211.6069" style="stroke:#181818;stroke-width:1;"/></g><!--reverse link WithSample to LoadCentreCollect--><g class="link" data-entity-1="WithSample" data-entity-2="LoadCentreCollect" data-source-line="155" data-uid="lnk54" id="link_WithSample_LoadCentreCollect"><path codeLine="155" d="M1211.2209,208.4402 C1223.2909,214.8802 1220.22,212.0669 1233,215.7869 C1489.23,290.3469 3388.94,170.1469 3634,275.7869 C3784.9,340.8269 4010.82,721.6969 4155,800.5369 C4266.28,861.3869 4316.07,813.8469 4434,860.5369 C4481.22,879.2269 4530.24,909.2169 4566.24,933.5469 " fill="none" id="WithSample-backto-LoadCentreCollect" style="stroke:#181818;stroke-width:1;"/><polygon fill="none" points="1195.34,199.9669,1208.3965,213.7338,1214.0453,203.1466,1195.34,199.9669" style="stroke:#181818;stroke-width:1;"/></g><!--reverse link WithCentreSelection to LoadCentreCollect--><g class="link" data-entity-1="WithCentreSelection" data-entity-2="LoadCentreCollect" data-source-line="156" data-uid="lnk55" id="link_WithCentreSelection_LoadCentreCollect"><path codeLine="156" d="M2542.5464,190.6997 C2571.2764,203.0997 2589.35,208.8669 2622,215.7869 C2783.33,249.9569 3959.27,198.5969 4105,275.7869 C4388.49,425.9469 4557.45,809.0069 4606.21,933.4569 " fill="none" id="WithCentreSelection-backto-LoadCentreCollect" style="stroke:#181818;stroke-width:1;"/><polygon fill="none" points="2526.02,183.5669,2540.1688,196.2086,2544.924,185.1909,2526.02,183.5669" style="stroke:#181818;stroke-width:1;"/></g><!--reverse link WithHyperionUDCFeatures to LoadCentreCollect--><g class="link" data-entity-1="WithHyperionUDCFeatures" data-entity-2="LoadCentreCollect" data-source-line="157" data-uid="lnk56" id="link_WithHyperionUDCFeatures_LoadCentreCollect"><path codeLine="157" d="M3573.2378,756.6095 C3648.6478,771.9695 3732.04,787.6669 3822,800.5369 C4092.55,839.2469 4174.56,774.5869 4434,860.5369 C4483.47,876.9269 4533.74,908.1969 4569.69,933.6469 " fill="none" id="WithHyperionUDCFeatures-backto-LoadCentreCollect" style="stroke:#181818;stroke-width:1;"/><polygon fill="none" points="3555.6,753.0169,3572.0403,762.4887,3574.4354,750.7302,3555.6,753.0169" style="stroke:#181818;stroke-width:1;"/></g><!--reverse link MxBlueskyParameters to DiffractionExperiment--><g class="link" data-entity-1="MxBlueskyParameters" data-entity-2="DiffractionExperiment" data-source-line="158" data-uid="lnk57" id="link_MxBlueskyParameters_DiffractionExperiment"><path codeLine="158" d="M2807.9224,201.2925 C2807.3924,225.2825 2807.03,241.8769 2806.3,275.3969 " fill="none" id="MxBlueskyParameters-backto-DiffractionExperiment" style="stroke:#181818;stroke-width:1;"/><polygon fill="none" points="2808.32,183.2969,2801.9239,201.16,2813.921,201.425,2808.32,183.2969" style="stroke:#181818;stroke-width:1;"/></g><!--reverse link WithSnapshot to DiffractionExperiment--><g class="link" data-entity-1="WithSnapshot" data-entity-2="DiffractionExperiment" data-source-line="159" data-uid="lnk58" id="link_WithSnapshot_DiffractionExperiment"><path codeLine="159" d="M961.0996,198.454 C985.3596,208.044 995.41,210.4369 1021,215.7869 C1371.23,288.9969 2287.04,173.8069 2630,275.7869 C2632.45,276.5169 2634.9,277.2869 2637.35,278.0969 " fill="none" id="WithSnapshot-backto-DiffractionExperiment" style="stroke:#181818;stroke-width:1;"/><polygon fill="none" points="944.36,191.8369,958.8938,204.0339,963.3053,192.8742,944.36,191.8369" style="stroke:#181818;stroke-width:1;"/></g><!--reverse link WithOptionalEnergyChange to DiffractionExperiment--><g class="link" data-entity-1="WithOptionalEnergyChange" data-entity-2="DiffractionExperiment" data-source-line="160" data-uid="lnk59" id="link_WithOptionalEnergyChange_DiffractionExperiment"><path codeLine="160" d="M217.5828,191.9556 C241.6228,204.4456 254.88,209.0969 283,215.7869 C790.59,336.4269 2129.05,130.0169 2630,275.7869 C2632.45,276.4969 2634.91,277.2569 2637.36,278.0569 " fill="none" id="WithOptionalEnergyChange-backto-DiffractionExperiment" style="stroke:#181818;stroke-width:1;"/><polygon fill="none" points="201.61,183.6569,214.8166,197.2799,220.3491,186.6313,201.61,183.6569" style="stroke:#181818;stroke-width:1;"/></g><!--reverse link WithVisit to DiffractionExperiment--><g class="link" data-entity-1="WithVisit" data-entity-2="DiffractionExperiment" data-source-line="161" data-uid="lnk60" id="link_WithVisit_DiffractionExperiment"><path codeLine="161" d="M1671.3517,216.322 C2087.2917,313.102 2222.22,148.9169 2630,275.7869 C2632.52,276.5669 2635.05,277.3969 2637.57,278.2669 " fill="none" id="WithVisit-backto-DiffractionExperiment" style="stroke:#181818;stroke-width:1;"/><polygon fill="none" points="1654.05,211.3569,1669.6966,222.0892,1673.0067,210.5547,1654.05,211.3569" style="stroke:#181818;stroke-width:1;"/></g><!--reverse link WithScan to RotationScan--><g class="link" data-entity-1="WithScan" data-entity-2="RotationScan" data-source-line="162" data-uid="lnk61" id="link_WithScan_RotationScan"><path codeLine="162" d="M1766.1157,189.3802 C1778.0157,203.9302 1783.99,207.4769 1804,215.7869 C1961.28,281.1269 4740.87,163.5869 4869,275.7869 C4968.44,362.8669 4914,437.5769 4914,569.7569 C4914,569.7569 4914,569.7569 4914,728.6469 C4914,903.6369 4993.58,996.9069 4869,1119.7969 C4832.43,1155.8769 4491.2,1171.8169 4347.9,1176.9569 " fill="none" id="WithScan-backto-RotationScan" style="stroke:#181818;stroke-width:1;"/><polygon fill="none" points="1754.72,175.4469,1761.4712,193.1788,1770.7601,185.5817,1754.72,175.4469" style="stroke:#181818;stroke-width:1;"/></g><!--reverse link RotationScanPerSweep to RotationScan--><g class="link" data-entity-1="RotationScanPerSweep" data-entity-2="RotationScan" data-source-line="163" data-uid="lnk62" id="link_RotationScanPerSweep_RotationScan"><path codeLine="163" d="M4285,1057.3669 C4285,1097.0269 4285,1127.5669 4285,1155.7069 " fill="none" id="RotationScanPerSweep-backto-RotationScan" style="stroke:#181818;stroke-width:1;"/><polygon fill="none" points="4285,1039.3669,4279,1057.3669,4291,1057.3669,4285,1039.3669" style="stroke:#181818;stroke-width:1;"/></g><!--reverse link RotationExperiment to RotationScan--><g class="link" data-entity-1="RotationExperiment" data-entity-2="RotationScan" data-source-line="164" data-uid="lnk63" id="link_RotationExperiment_RotationScan"><path codeLine="164" d="M3700.2383,1035.3523 C3734.5683,1068.8223 3772.3,1098.6769 3826,1119.7969 C3969.57,1176.2769 4020.07,1120.9569 4172,1147.7969 C4188.43,1150.7069 4205.93,1154.9469 4222.13,1159.3669 " fill="none" id="RotationExperiment-backto-RotationScan" style="stroke:#181818;stroke-width:1;"/><polygon fill="none" points="3687.35,1022.7869,3696.0498,1039.6485,3704.4268,1031.0562,3687.35,1022.7869" style="stroke:#181818;stroke-width:1;"/></g><!--reverse link GridCommonWithHyperionDetectorParams to GridScanWithEdgeDetect--><g class="link" data-entity-1="GridCommonWithHyperionDetectorParams" data-entity-2="GridScanWithEdgeDetect" data-source-line="165" data-uid="lnk64" id="link_GridCommonWithHyperionDetectorParams_GridScanWithEdgeDetect"><path codeLine="165" d="M3243.4911,1009.9453 C3291.4011,1049.1453 3373.45,1116.2969 3421.39,1155.5269 " fill="none" id="GridCommonWithHyperionDetectorParams-backto-GridScanWithEdgeDetect" style="stroke:#181818;stroke-width:1;"/><polygon fill="none" points="3229.56,998.5469,3239.6916,1014.589,3247.2906,1005.3016,3229.56,998.5469" style="stroke:#181818;stroke-width:1;"/></g><!--reverse link WithHyperionUDCFeatures to GridScanWithEdgeDetect--><g class="link" data-entity-1="WithHyperionUDCFeatures" data-entity-2="GridScanWithEdgeDetect" data-source-line="166" data-uid="lnk65" id="link_WithHyperionUDCFeatures_GridScanWithEdgeDetect"><path codeLine="166" d="M3441.9884,777.9433 C3443.6884,863.3133 3448.04,1080.7569 3449.54,1155.7069 " fill="none" id="WithHyperionUDCFeatures-backto-GridScanWithEdgeDetect" style="stroke:#181818;stroke-width:1;"/><polygon fill="none" points="3441.63,759.9469,3435.9896,778.0628,3447.9872,777.8239,3441.63,759.9469" style="stroke:#181818;stroke-width:1;"/></g><!--reverse link XyzStarts to SpecifiedGrid--><g class="link" data-entity-1="XyzStarts" data-entity-2="SpecifiedGrid" data-source-line="167" data-uid="lnk66" id="link_XyzStarts_SpecifiedGrid"><path codeLine="167" d="M429.8124,210.2602 C438.6524,216.4402 433.35,211.7069 443,215.7869 C557.76,264.2469 1430.69,350.7969 1674.77,374.2669 " fill="none" id="XyzStarts-backto-SpecifiedGrid" style="stroke:#181818;stroke-width:1;"/><polygon fill="none" points="415.06,199.9469,426.3747,215.1777,433.2502,205.3428,415.06,199.9469" style="stroke:#181818;stroke-width:1;"/></g><!--reverse link WithScan to SpecifiedGrid--><g class="link" data-entity-1="WithScan" data-entity-2="SpecifiedGrid" data-source-line="168" data-uid="lnk67" id="link_WithScan_SpecifiedGrid"><path codeLine="168" d="M1738,193.1769 C1738,236.9269 1738,313.2769 1738,357.0669 " fill="none" id="WithScan-backto-SpecifiedGrid" style="stroke:#181818;stroke-width:1;"/><polygon fill="none" points="1738,175.1769,1732,193.1769,1744,193.1769,1738,175.1769" style="stroke:#181818;stroke-width:1;"/></g><!--SRC=[bLVTRzis47-E_Wg-RGEM0Etpzf0wQJUWwOBPomeK0K5BPuc8H18abLfnyx_tI4golkqW3z5zykxukplwbqt63Tdn70Z-PwMLboa8qCn2GhOLQGYgSYPiMUHNgeeYooqQ_5Kfq5mASiyqAy229dSoWJmoO8b0Zb4iXZKe55kfYP02eWXvJom5KkpfDY_1F5LNiImAAQvKuyQGGsHb2ZP3buSepfanv7zkitic4lP9ysGTCt68BdQvP9OenwMw5AMY2JUMYHXeKKIljULQvTm6YzUEixLWocJIefzxPZDYQXfzQ8Wnu2gwoD7TDt_A8_b1lc02HpLPGCeCJI3jk-qTj5OGyns7n4NTF_yVPR5uBB_52gVLAcCYXJQd-h042aoEWbUXyDmwQ8m_IS7bjKXpM5kchHawy45IusG-qhvKPNnM5Y_8dfXINQ_3gBvMBzFXx6kZiXW8gZd1or7GBTu3DzpTdB6QR84LEKTiUUhPIS9d0jO3Wbf9dHADfNW6ZGYZ2cyyA75Xa8LXKwLXn_UZ6x0U39F86kSvJd2SsKnAAn1MOxlaU1w6WoutKdtvKDsn_KgMmhOIOlmNZRs1wQEF5IftCEB24kC9ofD0DW0EN5N6JvDyBj3ZwxW1MoXlCWrmCsh351dlGbTq8UFOxyTiLoXGrF0N61Hhp7sPrdq_hcoNvL8BfvX0L5tYfI6sKkQ4uiX2HhcbShV3xsDHx_OVmfHgXvoxxBNhIylZ1oJTZRIZYnPk0jBdm6-zk6Aj_9HhoxML-s56hbJqEqzirc72NabJQg2M5q0nuB-DghQtUpTx2qJ01gSmpcxaKMYPr28tkhX6sgBj0yCSsdlsw864ibhQd6IvgjFlGlE6xtQQUU0T3-r2RL6nRb6tOAXR2RDPEIst1z06WQzvce9ssuJOyEqBsyCh3dmgoc8B-is9QYPCmOsx8kfYVbDHNQG69m8kiUwgy3Wg3L0jUGZsrVzDxBkiNfpzZJT4Ygjnis9lwYdaGMYEDVzNMZOgU4ZIPALrW9GA11TfM-WWrRKXvIBMuBFppNb-7PeGcX1dnqFRIMLkUHDmFJckXN0CIBxvJTkLteDUVmTGZx-Jpo1-BRYWEOZKPd- - - -tn6Bz1LJEgHzT1Mv7HBcoqh_VuzcazCgJQ8gAVkYDx5ZV-tbtdjsP9mmeW5R0l3NrEJ7qWBuvhyfwB3LTXtcyo45yrgm9rMEx5BYJ-krbz1EPWxGPImwrP7tEMuhEkbhVsdoLBma4hcRlcEBYKjj8wWOia234fv54C9A6u0aIzQQABqHMImd5expOcB-FG6uMEutAvJL88q3xuNZc2d_pnu_Boh6Q8Peho1WydHjpGKpJt-1efdkLutCFBARrL_qI3HZFyyuo7DtRo4CSvfLe_rvVLvfxGorRZuWNz4RA7OOmLbb4mDOcYqVjuGVSSv0Rp-N6o38mJThqVMy5YnjqqpeF9YHQ8XjrmId_YFHOCHxCjQdydB2bqpvxM6BpBbrHdIprMdyrZiW1HzmVhARtvhfYtwTHf8O0M2Br6c8BlWjeG8Jsbyr4_lKTERuC9cq4xzcRL8F6Ux2S0]--></g></svg>