<?plantuml 1.2026.2beta1?><svg xmlns="http://www.w3.org/2000/svg" xmlns:xlink="http://www.w3.org/1999/xlink" contentStyleType="text/css" data-diagram-type="CLASS" height="1176px" preserveAspectRatio="none" style="width:3483px;height:1176px;background:#FFFFFF;" version="1.1" viewBox="0 0 3483 1176" width="3483px" zoomAndPan="magnify"><title>Hyperion Parameter Model</title><defs/><g><g class="title" data-source-line="3"><text fill="#000000" font-family="sans-serif" font-size="14" font-weight="bold" lengthAdjust="spacing" textLength="212.4951" x="1628.6474" y="22.9951">Hyperion Parameter Model</text></g><!--cluster mx_bluesky.common.parameters--><g class="cluster" data-qualified-name="mx_bluesky.common.parameters" data-source-line="6" id="ent0002"><path d="M8.5,43.2969 L269.8125,43.2969 A3.75,3.75 0 0 1 272.3125,45.7969 L279.3125,65.5938 L3100.5,65.5938 A2.5,2.5 0 0 1 3103,68.0938 L3103,887.2169 A2.5,2.5 0 0 1 3100.5,889.7169 L8.5,889.7169 A2.5,2.5 0 0 1 6,887.2169 L6,45.7969 A2.5,2.5 0 0 1 8.5,43.2969" fill="none" style="stroke:#000000;stroke-width:1.5;"/><line style="stroke:#000000;stroke-width:1.5;" x1="6" x2="279.3125" y1="65.5938" y2="65.5938"/><text fill="#000000" font-family="sans-serif" font-size="14" font-weight="bold" lengthAdjust="spacing" textLength="260.3125" x="10" y="58.292">mx_bluesky.common.parameters</text></g><!--cluster mx_bluesky.hyperion.parameters--><g class="cluster" data-qualified-name="mx_bluesky.hyperion.parameters" data-source-line="77" id="ent0016"><path d="M2651.5,913.7169 L2916.0322,913.7169 A3.75,3.75 0 0 1 2918.5322,916.2169 L2925.5322,936.0138 L3385.5,936.0138 A2.5,2.5 0 0 1 3388,938.5138 L3388,1167.1069 A2.5,2.5 0 0 1 3385.5,1169.6069 L2651.5,1169.6069 A2.5,2.5 0 0 1 2649,1167.1069 L2649,916.2169 A2.5,2.5 0 0 1 2651.5,913.7169" fill="none" style="stroke:#000000;stroke-width:1.5;"/><line style="stroke:#000000;stroke-width:1.5;" x1="2649" x2="2925.5322" y1="936.0138" y2="936.0138"/><text fill="#000000" font-family="sans-serif" font-size="14" font-weight="bold" lengthAdjust="spacing" textLength="263.5322" x="2653" y="928.712">mx_bluesky.hyperion.parameters</text></g><!--class OptionalGonioAngleStarts--><g class="entity" data-qualified-name="mx_bluesky.common.parameters.OptionalGonioAngleStarts" data-source-line="8" id="ent0003"><rect fill="#F1F1F1" height="113.1875" rx="2.5" ry="2.5" style="stroke:#181818;stroke-width:0.5;" width="219.3203" x="30.34" y="94.4469"/><ellipse cx="48.0633" cy="110.4469" fill="#ADD1B2" rx="11" ry="11" style="stroke:#181818;stroke-width:1;"/><path d="M51.032,116.0875 Q50.4539,116.3844 49.8133,116.525 Q49.1727,116.6812 48.4695,116.6812 Q45.9695,116.6812 44.6414,115.0406 Q43.3289,113.3844 43.3289,110.2594 Q43.3289,107.1344 44.6414,105.4781 Q45.9695,103.8219 48.4695,103.8219 Q49.1727,103.8219 49.8133,103.9781 Q50.4695,104.1344 51.032,104.4312 L51.032,107.15 Q50.407,106.5719 49.8133,106.3062 Q49.2195,106.025 48.5945,106.025 Q47.2508,106.025 46.5633,107.1031 Q45.8758,108.1656 45.8758,110.2594 Q45.8758,112.3531 46.5633,113.4312 Q47.2508,114.4937 48.5945,114.4937 Q49.2195,114.4937 49.8133,114.2281 Q50.407,113.9469 51.032,113.3687 L51.032,116.0875 Z " fill="#000000"/><text fill="#000000" font-family="sans-serif" font-size="14" lengthAdjust="spacing" textLength="181.2686" x="62.6685" y="115.2936">OptionalGonioAngleStarts</text><line style="stroke:#181818;stroke-width:0.5;" x1="31.34" x2="248.6603" y1="126.4469" y2="126.4469"/><text fill="#000000" font-family="sans-serif" font-size="14" lengthAdjust="spacing" textLength="207.3203" x="36.34" y="143.442">float | None omega_start_deg</text><text fill="#000000" font-family="sans-serif" font-size="14" lengthAdjust="spacing" textLength="180.6875" x="36.34" y="159.7389">float | None phi_start_deg</text><text fill="#000000" font-family="sans-serif" font-size="14" lengthAdjust="spacing" textLength="179.498" x="36.34" y="176.0357">float | None chi_start_deg</text><text fill="#000000" font-family="sans-serif" font-size="14" lengthAdjust="spacing" textLength="202.0771" x="36.34" y="192.3326">float | None kappa_start_deg</text><line style="stroke:#181818;stroke-width:0.5;" x1="31.34" x2="248.6603" y1="199.6344" y2="199.6344"/></g><!--class WithSample--><g class="entity" data-qualified-name="mx_bluesky.common.parameters.WithSample" data-source-line="14" id="ent0004"><rect fill="#F1F1F1" height="96.8906" rx="2.5" ry="2.5" style="stroke:#181818;stroke-width:0.5;" width="176.3086" x="740.85" y="102.5869"/><ellipse cx="782.7243" cy="118.5869" fill="#ADD1B2" rx="11" ry="11" style="stroke:#181818;stroke-width:1;"/><path d="M785.6931,124.2275 Q785.1149,124.5244 784.4743,124.665 Q783.8337,124.8212 783.1306,124.8212 Q780.6306,124.8212 779.3024,123.1806 Q777.9899,121.5244 777.9899,118.3994 Q777.9899,115.2744 779.3024,113.6181 Q780.6306,111.9619 783.1306,111.9619 Q783.8337,111.9619 784.4743,112.1181 Q785.1306,112.2744 785.6931,112.5712 L785.6931,115.29 Q785.0681,114.7119 784.4743,114.4462 Q783.8806,114.165 783.2556,114.165 Q781.9118,114.165 781.2243,115.2431 Q780.5368,116.3056 780.5368,118.3994 Q780.5368,120.4931 781.2243,121.5712 Q781.9118,122.6337 783.2556,122.6337 Q783.8806,122.6337 784.4743,122.3681 Q785.0681,122.0869 785.6931,121.5087 L785.6931,124.2275 Z " fill="#000000"/><text fill="#000000" font-family="sans-serif" font-size="14" lengthAdjust="spacing" textLength="84.5879" x="802.6964" y="123.4336">WithSample</text><line style="stroke:#181818;stroke-width:0.5;" x1="741.85" x2="916.1586" y1="134.5869" y2="134.5869"/><text fill="#000000" font-family="sans-serif" font-size="14" lengthAdjust="spacing" textLength="93.3789" x="746.85" y="151.582">int sample_id</text><text fill="#000000" font-family="sans-serif" font-size="14" lengthAdjust="spacing" textLength="164.3086" x="746.85" y="167.8789">int | None sample_puck</text><text fill="#000000" font-family="sans-serif" font-size="14" lengthAdjust="spacing" textLength="152.3936" x="746.85" y="184.1757">int | None sample_pin</text><line style="stroke:#181818;stroke-width:0.5;" x1="741.85" x2="916.1586" y1="191.4775" y2="191.4775"/></g><!--class WithSnapshot--><g class="entity" data-qualified-name="mx_bluesky.common.parameters.WithSnapshot" data-source-line="19" id="ent0005"><rect fill="#F1F1F1" height="96.8906" rx="2.5" ry="2.5" style="stroke:#181818;stroke-width:0.5;" width="289.3477" x="416.33" y="102.5869"/><ellipse cx="507.9828" cy="118.5869" fill="#ADD1B2" rx="11" ry="11" style="stroke:#181818;stroke-width:1;"/><path d="M510.9516,124.2275 Q510.3735,124.5244 509.7328,124.665 Q509.0922,124.8212 508.3891,124.8212 Q505.8891,124.8212 504.561,123.1806 Q503.2485,121.5244 503.2485,118.3994 Q503.2485,115.2744 504.561,113.6181 Q505.8891,111.9619 508.3891,111.9619 Q509.0922,111.9619 509.7328,112.1181 Q510.3891,112.2744 510.9516,112.5712 L510.9516,115.29 Q510.3266,114.7119 509.7328,114.4462 Q509.1391,114.165 508.5141,114.165 Q507.1703,114.165 506.4828,115.2431 Q505.7953,116.3056 505.7953,118.3994 Q505.7953,120.4931 506.4828,121.5712 Q507.1703,122.6337 508.5141,122.6337 Q509.1391,122.6337 509.7328,122.3681 Q510.3266,122.0869 510.9516,121.5087 L510.9516,124.2275 Z " fill="#000000"/><text fill="#000000" font-family="sans-serif" font-size="14" lengthAdjust="spacing" textLength="97.542" x="528.4828" y="123.4336">WithSnapshot</text><line style="stroke:#181818;stroke-width:0.5;" x1="417.33" x2="704.6777" y1="134.5869" y2="134.5869"/><text fill="#000000" font-family="sans-serif" font-size="14" lengthAdjust="spacing" textLength="169.627" x="422.33" y="151.582">Path snapshot_directory</text><text fill="#000000" font-family="sans-serif" font-size="14" lengthAdjust="spacing" textLength="277.3477" x="422.33" y="167.8789">list[float] | None snapshot_omegas_deg</text><text fill="#000000" font-family="sans-serif" font-size="14" lengthAdjust="spacing" textLength="171.7051" x="422.33" y="184.1757">bool use_grid_snapshots</text><line style="stroke:#181818;stroke-width:0.5;" x1="417.33" x2="704.6777" y1="191.4775" y2="191.4775"/></g><!--class WithCentreSelection--><g class="entity" data-qualified-name="mx_bluesky.common.parameters.WithCentreSelection" data-source-line="24" id="ent0006"><rect fill="#F1F1F1" height="64.2969" rx="2.5" ry="2.5" style="stroke:#181818;stroke-width:0.5;" width="618.6689" x="1529.67" y="118.8869"/><ellipse cx="1762.8883" cy="134.8869" fill="#ADD1B2" rx="11" ry="11" style="stroke:#181818;stroke-width:1;"/><path d="M1765.857,140.5275 Q1765.2789,140.8244 1764.6383,140.965 Q1763.9976,141.1212 1763.2945,141.1212 Q1760.7945,141.1212 1759.4664,139.4806 Q1758.1539,137.8244 1758.1539,134.6994 Q1758.1539,131.5744 1759.4664,129.9181 Q1760.7945,128.2619 1763.2945,128.2619 Q1763.9976,128.2619 1764.6383,128.4181 Q1765.2945,128.5744 1765.857,128.8712 L1765.857,131.59 Q1765.232,131.0119 1764.6383,130.7462 Q1764.0445,130.465 1763.4195,130.465 Q1762.0758,130.465 1761.3883,131.5431 Q1760.7008,132.6056 1760.7008,134.6994 Q1760.7008,136.7931 1761.3883,137.8712 Q1762.0758,138.9337 1763.4195,138.9337 Q1764.0445,138.9337 1764.6383,138.6681 Q1765.232,138.3869 1765.857,137.8087 L1765.857,140.5275 Z " fill="#000000"/><text fill="#000000" font-family="sans-serif" font-size="14" lengthAdjust="spacing" textLength="143.7324" x="1783.3883" y="139.7336">WithCentreSelection</text><line style="stroke:#181818;stroke-width:0.5;" x1="1530.67" x2="2147.3389" y1="150.8869" y2="150.8869"/><text fill="#000000" font-family="sans-serif" font-size="14" lengthAdjust="spacing" textLength="606.6689" x="1535.67" y="167.882">TopNByMaxCountSelection | TopNByMaxCountForEachSampleSelection select_centres</text><line style="stroke:#181818;stroke-width:0.5;" x1="1530.67" x2="2147.3389" y1="175.1837" y2="175.1837"/></g><!--class WithOptionalEnergyChange--><g class="entity" data-qualified-name="mx_bluesky.common.parameters.WithOptionalEnergyChange" data-source-line="27" id="ent0007"><rect fill="#F1F1F1" height="64.2969" rx="2.5" ry="2.5" style="stroke:#181818;stroke-width:0.5;" width="235.4463" x="952.28" y="118.8869"/><ellipse cx="971.4645" cy="134.8869" fill="#ADD1B2" rx="11" ry="11" style="stroke:#181818;stroke-width:1;"/><path d="M974.4332,140.5275 Q973.8551,140.8244 973.2145,140.965 Q972.5738,141.1212 971.8707,141.1212 Q969.3707,141.1212 968.0426,139.4806 Q966.7301,137.8244 966.7301,134.6994 Q966.7301,131.5744 968.0426,129.9181 Q969.3707,128.2619 971.8707,128.2619 Q972.5738,128.2619 973.2145,128.4181 Q973.8707,128.5744 974.4332,128.8712 L974.4332,131.59 Q973.8082,131.0119 973.2145,130.7462 Q972.6207,130.465 971.9957,130.465 Q970.652,130.465 969.9645,131.5431 Q969.277,132.6056 969.277,134.6994 Q969.277,136.7931 969.9645,137.8712 Q970.652,138.9337 971.9957,138.9337 Q972.6207,138.9337 973.2145,138.6681 Q973.8082,138.3869 974.4332,137.8087 L974.4332,140.5275 Z " fill="#000000"/><text fill="#000000" font-family="sans-serif" font-size="14" lengthAdjust="spacing" textLength="194.1475" x="986.3944" y="139.7336">WithOptionalEnergyChange</text><line style="stroke:#181818;stroke-width:0.5;" x1="953.28" x2="1186.7263" y1="150.8869" y2="150.8869"/><text fill="#000000" font-family="sans-serif" font-size="14" lengthAdjust="spacing" textLength="223.4463" x="958.28" y="167.882">float | None demand_energy_ev</text><line style="stroke:#181818;stroke-width:0.5;" x1="953.28" x2="1186.7263" y1="175.1837" y2="175.1837"/></g><!--class WithVisit--><g class="entity" data-qualified-name="mx_bluesky.common.parameters.WithVisit" data-source-line="30" id="ent0008"><rect fill="#F1F1F1" height="129.4844" rx="2.5" ry="2.5" style="stroke:#181818;stroke-width:0.5;" width="271.7861" x="1223.11" y="86.2969"/><ellipse cx="1323.6359" cy="102.2969" fill="#ADD1B2" rx="11" ry="11" style="stroke:#181818;stroke-width:1;"/><path d="M1326.6046,107.9375 Q1326.0265,108.2344 1325.3859,108.375 Q1324.7453,108.5313 1324.0421,108.5313 Q1321.5421,108.5313 1320.214,106.8906 Q1318.9015,105.2344 1318.9015,102.1094 Q1318.9015,98.9844 1320.214,97.3281 Q1321.5421,95.6719 1324.0421,95.6719 Q1324.7453,95.6719 1325.3859,95.8281 Q1326.0421,95.9844 1326.6046,96.2813 L1326.6046,99 Q1325.9796,98.4219 1325.3859,98.1563 Q1324.7921,97.875 1324.1671,97.875 Q1322.8234,97.875 1322.1359,98.9531 Q1321.4484,100.0156 1321.4484,102.1094 Q1321.4484,104.2031 1322.1359,105.2813 Q1322.8234,106.3438 1324.1671,106.3438 Q1324.7921,106.3438 1325.3859,106.0781 Q1325.9796,105.7969 1326.6046,105.2188 L1326.6046,107.9375 Z " fill="#000000"/><text fill="#000000" font-family="sans-serif" font-size="14" lengthAdjust="spacing" textLength="62.2344" x="1344.1359" y="107.1436">WithVisit</text><line style="stroke:#181818;stroke-width:0.5;" x1="1224.11" x2="1493.8961" y1="118.2969" y2="118.2969"/><text fill="#000000" font-family="sans-serif" font-size="14" lengthAdjust="spacing" textLength="87.9717" x="1229.11" y="135.292">str beamline</text><text fill="#000000" font-family="sans-serif" font-size="14" lengthAdjust="spacing" textLength="51.8369" x="1229.11" y="151.5889">str visit</text><text fill="#000000" font-family="sans-serif" font-size="14" lengthAdjust="spacing" textLength="259.7861" x="1229.11" y="167.8857">str det_dist_to_beam_converter_path</text><text fill="#000000" font-family="sans-serif" font-size="14" lengthAdjust="spacing" textLength="245.752" x="1229.11" y="184.1826">float | None detector_distance_mm</text><text fill="#000000" font-family="sans-serif" font-size="14" lengthAdjust="spacing" textLength="131.5918" x="1229.11" y="200.4795">str insertion_prefix</text><line style="stroke:#181818;stroke-width:0.5;" x1="1224.11" x2="1493.8961" y1="207.7813" y2="207.7813"/></g><!--class SplitScan--><g class="entity" data-qualified-name="mx_bluesky.common.parameters.SplitScan" data-source-line="37" id="ent0009"><rect fill="#F1F1F1" height="48" rx="2.5" ry="2.5" style="stroke:#181818;stroke-width:0.5;" width="97.0781" x="284.46" y="127.0369"/><ellipse cx="299.46" cy="143.0369" fill="#ADD1B2" rx="11" ry="11" style="stroke:#181818;stroke-width:1;"/><path d="M302.4288,148.6775 Q301.8506,148.9744 301.21,149.115 Q300.5694,149.2713 299.8663,149.2713 Q297.3663,149.2713 296.0381,147.6306 Q294.7256,145.9744 294.7256,142.8494 Q294.7256,139.7244 296.0381,138.0681 Q297.3663,136.4119 299.8663,136.4119 Q300.5694,136.4119 301.21,136.5681 Q301.8663,136.7244 302.4288,137.0213 L302.4288,139.74 Q301.8038,139.1619 301.21,138.8963 Q300.6163,138.615 299.9913,138.615 Q298.6475,138.615 297.96,139.6931 Q297.2725,140.7556 297.2725,142.8494 Q297.2725,144.9431 297.96,146.0213 Q298.6475,147.0838 299.9913,147.0838 Q300.6163,147.0838 301.21,146.8181 Q301.8038,146.5369 302.4288,145.9588 L302.4288,148.6775 Z " fill="#000000"/><text fill="#000000" font-family="sans-serif" font-size="14" lengthAdjust="spacing" textLength="65.0781" x="313.46" y="147.8836">SplitScan</text><line style="stroke:#181818;stroke-width:0.5;" x1="285.46" x2="380.5381" y1="159.0369" y2="159.0369"/><line style="stroke:#181818;stroke-width:0.5;" x1="285.46" x2="380.5381" y1="167.0369" y2="167.0369"/></g><!--class MxBlueskyParameters--><g class="entity" data-qualified-name="mx_bluesky.common.parameters.MxBlueskyParameters" data-source-line="41" id="ent0010"><rect fill="#F1F1F1" height="64.2969" rx="2.5" ry="2.5" style="stroke:#181818;stroke-width:0.5;" width="317.4639" x="2472.27" y="118.8869"/><ellipse cx="2548.8564" cy="134.8869" fill="#ADD1B2" rx="11" ry="11" style="stroke:#181818;stroke-width:1;"/><path d="M2551.8252,140.5275 Q2551.2471,140.8244 2550.6064,140.965 Q2549.9658,141.1212 2549.2627,141.1212 Q2546.7627,141.1212 2545.4346,139.4806 Q2544.1221,137.8244 2544.1221,134.6994 Q2544.1221,131.5744 2545.4346,129.9181 Q2546.7627,128.2619 2549.2627,128.2619 Q2549.9658,128.2619 2550.6064,128.4181 Q2551.2627,128.5744 2551.8252,128.8712 L2551.8252,131.59 Q2551.2002,131.0119 2550.6064,130.7462 Q2550.0127,130.465 2549.3877,130.465 Q2548.0439,130.465 2547.3564,131.5431 Q2546.6689,132.6056 2546.6689,134.6994 Q2546.6689,136.7931 2547.3564,137.8712 Q2548.0439,138.9337 2549.3877,138.9337 Q2550.0127,138.9337 2550.6064,138.6681 Q2551.2002,138.3869 2551.8252,137.8087 L2551.8252,140.5275 Z " fill="#000000"/><text fill="#000000" font-family="sans-serif" font-size="14" lengthAdjust="spacing" textLength="155.791" x="2569.3564" y="139.7336">MxBlueskyParameters</text><line style="stroke:#181818;stroke-width:0.5;" x1="2473.27" x2="2788.7339" y1="150.8869" y2="150.8869"/><text fill="#000000" font-family="sans-serif" font-size="14" lengthAdjust="spacing" textLength="305.4639" x="2478.27" y="167.882">SemanticVersion parameter_model_version</text><line style="stroke:#181818;stroke-width:0.5;" x1="2473.27" x2="2788.7339" y1="175.1837" y2="175.1837"/></g><!--class RotationExperiment--><g class="entity" data-qualified-name="mx_bluesky.common.parameters.RotationExperiment" data-source-line="44" id="ent0011"><rect fill="#F1F1F1" height="96.8906" rx="2.5" ry="2.5" style="stroke:#181818;stroke-width:0.5;" width="332.332" x="2575.83" y="563.0469"/><ellipse cx="2667.7118" cy="579.0469" fill="#ADD1B2" rx="11" ry="11" style="stroke:#181818;stroke-width:1;"/><path d="M2670.6806,584.6875 Q2670.1025,584.9844 2669.4618,585.125 Q2668.8212,585.2813 2668.1181,585.2813 Q2665.6181,585.2813 2664.29,583.6406 Q2662.9775,581.9844 2662.9775,578.8594 Q2662.9775,575.7344 2664.29,574.0781 Q2665.6181,572.4219 2668.1181,572.4219 Q2668.8212,572.4219 2669.4618,572.5781 Q2670.1181,572.7344 2670.6806,573.0313 L2670.6806,575.75 Q2670.0556,575.1719 2669.4618,574.9063 Q2668.8681,574.625 2668.2431,574.625 Q2666.8993,574.625 2666.2118,575.7031 Q2665.5243,576.7656 2665.5243,578.8594 Q2665.5243,580.9531 2666.2118,582.0313 Q2666.8993,583.0938 2668.2431,583.0938 Q2668.8681,583.0938 2669.4618,582.8281 Q2670.0556,582.5469 2670.6806,581.9688 L2670.6806,584.6875 Z " fill="#000000"/><text fill="#000000" font-family="sans-serif" font-size="14" lengthAdjust="spacing" textLength="140.0684" x="2688.2118" y="583.8936">RotationExperiment</text><line style="stroke:#181818;stroke-width:0.5;" x1="2576.83" x2="2907.162" y1="595.0469" y2="595.0469"/><text fill="#000000" font-family="sans-serif" font-size="14" lengthAdjust="spacing" textLength="202.8018" x="2581.83" y="612.042">float shutter_opening_time_s</text><text fill="#000000" font-family="sans-serif" font-size="14" lengthAdjust="spacing" textLength="202.9385" x="2581.83" y="628.3389">float rotation_increment_deg</text><text fill="#000000" font-family="sans-serif" font-size="14" lengthAdjust="spacing" textLength="320.332" x="2581.83" y="644.6357">IspybExperimentType ispyb_experiment_type</text><line style="stroke:#181818;stroke-width:0.5;" x1="2576.83" x2="2907.162" y1="651.9375" y2="651.9375"/></g><!--class RotationScan--><g class="entity" data-qualified-name="mx_bluesky.common.parameters.RotationScan" data-source-line="49" id="ent0012"><rect fill="#F1F1F1" height="64.2969" rx="2.5" ry="2.5" style="stroke:#181818;stroke-width:0.5;" width="540.001" x="2539" y="760.6769"/><ellipse cx="2758.1431" cy="776.6769" fill="#ADD1B2" rx="11" ry="11" style="stroke:#181818;stroke-width:1;"/><path d="M2761.1118,782.3175 Q2760.5337,782.6144 2759.8931,782.755 Q2759.2524,782.9112 2758.5493,782.9112 Q2756.0493,782.9112 2754.7212,781.2706 Q2753.4087,779.6144 2753.4087,776.4894 Q2753.4087,773.3644 2754.7212,771.7081 Q2756.0493,770.0519 2758.5493,770.0519 Q2759.2524,770.0519 2759.8931,770.2081 Q2760.5493,770.3644 2761.1118,770.6612 L2761.1118,773.38 Q2760.4868,772.8019 2759.8931,772.5362 Q2759.2993,772.255 2758.6743,772.255 Q2757.3306,772.255 2756.6431,773.3331 Q2755.9556,774.3956 2755.9556,776.4894 Q2755.9556,778.5831 2756.6431,779.6612 Q2757.3306,780.7237 2758.6743,780.7237 Q2759.2993,780.7237 2759.8931,780.4581 Q2760.4868,780.1769 2761.1118,779.5987 L2761.1118,782.3175 Z " fill="#000000"/><text fill="#000000" font-family="sans-serif" font-size="14" lengthAdjust="spacing" textLength="93.2148" x="2778.6431" y="781.5236">RotationScan</text><line style="stroke:#181818;stroke-width:0.5;" x1="2540" x2="3078.001" y1="792.6769" y2="792.6769"/><line style="stroke:#181818;stroke-width:0.5;" x1="2540" x2="3078.001" y1="800.6769" y2="800.6769"/><text fill="#000000" font-family="sans-serif" font-size="14" lengthAdjust="spacing" textLength="528.001" x="2545" y="817.672">Annotated[list[RotationScanPerSweep], Len(min_length=1)] rotation_scans</text></g><!--class GridCommon--><g class="entity" data-qualified-name="mx_bluesky.common.parameters.GridCommon" data-source-line="52" id="ent0013"><rect fill="#F1F1F1" height="145.7813" rx="2.5" ry="2.5" style="stroke:#181818;stroke-width:0.5;" width="332.332" x="2171.83" y="719.9369"/><ellipse cx="2287.5282" cy="735.9369" fill="#ADD1B2" rx="11" ry="11" style="stroke:#181818;stroke-width:1;"/><path d="M2290.497,741.5775 Q2289.9189,741.8744 2289.2782,742.015 Q2288.6376,742.1712 2287.9345,742.1712 Q2285.4345,742.1712 2284.1064,740.5306 Q2282.7939,738.8744 2282.7939,735.7494 Q2282.7939,732.6244 2284.1064,730.9681 Q2285.4345,729.3119 2287.9345,729.3119 Q2288.6376,729.3119 2289.2782,729.4681 Q2289.9345,729.6244 2290.497,729.9212 L2290.497,732.64 Q2289.872,732.0619 2289.2782,731.7962 Q2288.6845,731.515 2288.0595,731.515 Q2286.7157,731.515 2286.0282,732.5931 Q2285.3407,733.6556 2285.3407,735.7494 Q2285.3407,737.8431 2286.0282,738.9212 Q2286.7157,739.9837 2288.0595,739.9837 Q2288.6845,739.9837 2289.2782,739.7181 Q2289.872,739.4369 2290.497,738.8587 L2290.497,741.5775 Z " fill="#000000"/><text fill="#000000" font-family="sans-serif" font-size="14" lengthAdjust="spacing" textLength="92.4355" x="2308.0282" y="740.7836">GridCommon</text><line style="stroke:#181818;stroke-width:0.5;" x1="2172.83" x2="2503.162" y1="751.9369" y2="751.9369"/><text fill="#000000" font-family="sans-serif" font-size="14" lengthAdjust="spacing" textLength="125.2959" x="2177.83" y="768.932">float box_size_um</text><text fill="#000000" font-family="sans-serif" font-size="14" lengthAdjust="spacing" textLength="138.4209" x="2177.83" y="785.2289">float grid_width_um</text><text fill="#000000" font-family="sans-serif" font-size="14" lengthAdjust="spacing" textLength="153.7129" x="2177.83" y="801.5257">float exposure_time_s</text><text fill="#000000" font-family="sans-serif" font-size="14" lengthAdjust="spacing" textLength="320.332" x="2177.83" y="817.8226">IspybExperimentType ispyb_experiment_type</text><text fill="#000000" font-family="sans-serif" font-size="14" lengthAdjust="spacing" textLength="282.3516" x="2177.83" y="834.1195">ApertureValue | None selected_aperture</text><text fill="#000000" font-family="sans-serif" font-size="14" lengthAdjust="spacing" textLength="130.498" x="2177.83" y="850.4164">float tip_offset_um</text><line style="stroke:#181818;stroke-width:0.5;" x1="2172.83" x2="2503.162" y1="857.7181" y2="857.7181"/></g><!--class DiffractionExperiment--><g class="entity" data-qualified-name="mx_bluesky.common.parameters.DiffractionExperiment" data-source-line="60" id="ent0014"><rect fill="#F1F1F1" height="227.2656" rx="2.5" ry="2.5" style="stroke:#181818;stroke-width:0.5;" width="332.332" x="2171.83" y="275.7769"/><ellipse cx="2256.6127" cy="291.7769" fill="#ADD1B2" rx="11" ry="11" style="stroke:#181818;stroke-width:1;"/><path d="M2259.5815,297.4175 Q2259.0033,297.7144 2258.3627,297.855 Q2257.7221,298.0112 2257.019,298.0112 Q2254.519,298.0112 2253.1908,296.3706 Q2251.8783,294.7144 2251.8783,291.5894 Q2251.8783,288.4644 2253.1908,286.8081 Q2254.519,285.1519 2257.019,285.1519 Q2257.7221,285.1519 2258.3627,285.3081 Q2259.019,285.4644 2259.5815,285.7612 L2259.5815,288.48 Q2258.9565,287.9019 2258.3627,287.6362 Q2257.769,287.355 2257.144,287.355 Q2255.8002,287.355 2255.1127,288.4331 Q2254.4252,289.4956 2254.4252,291.5894 Q2254.4252,293.6831 2255.1127,294.7612 Q2255.8002,295.8237 2257.144,295.8237 Q2257.769,295.8237 2258.3627,295.5581 Q2258.9565,295.2769 2259.5815,294.6987 L2259.5815,297.4175 Z " fill="#000000"/><text fill="#000000" font-family="sans-serif" font-size="14" lengthAdjust="spacing" textLength="154.2666" x="2277.1127" y="296.6236">DiffractionExperiment</text><line style="stroke:#181818;stroke-width:0.5;" x1="2172.83" x2="2503.162" y1="307.7769" y2="307.7769"/><text fill="#000000" font-family="sans-serif" font-size="14" lengthAdjust="spacing" textLength="91.0137" x="2177.83" y="324.772">str file_name</text><text fill="#000000" font-family="sans-serif" font-size="14" lengthAdjust="spacing" textLength="153.7129" x="2177.83" y="341.0689">float exposure_time_s</text><text fill="#000000" font-family="sans-serif" font-size="14" lengthAdjust="spacing" textLength="89.5029" x="2177.83" y="357.3657">str comment</text><text fill="#000000" font-family="sans-serif" font-size="14" lengthAdjust="spacing" textLength="186.915" x="2177.83" y="373.6626">TriggerMode trigger_mode</text><text fill="#000000" font-family="sans-serif" font-size="14" lengthAdjust="spacing" textLength="157.9854" x="2177.83" y="389.9595">int | None run_number</text><text fill="#000000" font-family="sans-serif" font-size="14" lengthAdjust="spacing" textLength="282.3516" x="2177.83" y="406.2564">ApertureValue | None selected_aperture</text><text fill="#000000" font-family="sans-serif" font-size="14" lengthAdjust="spacing" textLength="159.2979" x="2177.83" y="422.5532">float transmission_frac</text><text fill="#000000" font-family="sans-serif" font-size="14" lengthAdjust="spacing" textLength="320.332" x="2177.83" y="438.8501">IspybExperimentType ispyb_experiment_type</text><text fill="#000000" font-family="sans-serif" font-size="14" lengthAdjust="spacing" textLength="146.1113" x="2177.83" y="455.147">str storage_directory</text><text fill="#000000" font-family="sans-serif" font-size="14" lengthAdjust="spacing" textLength="131.0518" x="2177.83" y="471.4439">bool use_roi_mode</text><text fill="#000000" font-family="sans-serif" font-size="14" lengthAdjust="spacing" textLength="169.627" x="2177.83" y="487.7407">Path snapshot_directory</text><line style="stroke:#181818;stroke-width:0.5;" x1="2172.83" x2="2503.162" y1="495.0425" y2="495.0425"/></g><!--class DiffractionExperimentWithSample--><g class="entity" data-qualified-name="mx_bluesky.common.parameters.DiffractionExperimentWithSample" data-source-line="73" id="ent0015"><rect fill="#F1F1F1" height="48" rx="2.5" ry="2.5" style="stroke:#181818;stroke-width:0.5;" width="270.8545" x="2202.57" y="587.4869"/><ellipse cx="2217.57" cy="603.4869" fill="#ADD1B2" rx="11" ry="11" style="stroke:#181818;stroke-width:1;"/><path d="M2220.5388,609.1275 Q2219.9606,609.4244 2219.32,609.565 Q2218.6794,609.7212 2217.9763,609.7212 Q2215.4763,609.7212 2214.1481,608.0806 Q2212.8356,606.4244 2212.8356,603.2994 Q2212.8356,600.1744 2214.1481,598.5181 Q2215.4763,596.8619 2217.9763,596.8619 Q2218.6794,596.8619 2219.32,597.0181 Q2219.9763,597.1744 2220.5388,597.4712 L2220.5388,600.19 Q2219.9138,599.6119 2219.32,599.3462 Q2218.7263,599.065 2218.1013,599.065 Q2216.7575,599.065 2216.07,600.1431 Q2215.3825,601.2056 2215.3825,603.2994 Q2215.3825,605.3931 2216.07,606.4712 Q2216.7575,607.5337 2218.1013,607.5337 Q2218.7263,607.5337 2219.32,607.2681 Q2219.9138,606.9869 2220.5388,606.4087 L2220.5388,609.1275 Z " fill="#000000"/><text fill="#000000" font-family="sans-serif" font-size="14" lengthAdjust="spacing" textLength="238.8545" x="2231.57" y="608.3336">DiffractionExperimentWithSample</text><line style="stroke:#181818;stroke-width:0.5;" x1="2203.57" x2="2472.4245" y1="619.4869" y2="619.4869"/><line style="stroke:#181818;stroke-width:0.5;" x1="2203.57" x2="2472.4245" y1="627.4869" y2="627.4869"/></g><!--class GridScanWithEdgeDetect--><g class="entity" data-qualified-name="mx_bluesky.hyperion.parameters.GridScanWithEdgeDetect" data-source-line="78" id="ent0017"><rect fill="#F1F1F1" height="48" rx="2.5" ry="2.5" style="stroke:#181818;stroke-width:0.5;" width="209.4268" x="2696.29" y="1097.4569"/><ellipse cx="2711.29" cy="1113.4569" fill="#ADD1B2" rx="11" ry="11" style="stroke:#181818;stroke-width:1;"/><path d="M2714.2588,1119.0975 Q2713.6806,1119.3944 2713.04,1119.535 Q2712.3994,1119.6912 2711.6963,1119.6912 Q2709.1963,1119.6912 2707.8681,1118.0506 Q2706.5556,1116.3944 2706.5556,1113.2694 Q2706.5556,1110.1444 2707.8681,1108.4881 Q2709.1963,1106.8319 2711.6963,1106.8319 Q2712.3994,1106.8319 2713.04,1106.9881 Q2713.6963,1107.1444 2714.2588,1107.4412 L2714.2588,1110.16 Q2713.6338,1109.5819 2713.04,1109.3162 Q2712.4463,1109.035 2711.8213,1109.035 Q2710.4775,1109.035 2709.79,1110.1131 Q2709.1025,1111.1756 2709.1025,1113.2694 Q2709.1025,1115.3631 2709.79,1116.4412 Q2710.4775,1117.5037 2711.8213,1117.5037 Q2712.4463,1117.5037 2713.04,1117.2381 Q2713.6338,1116.9569 2714.2588,1116.3787 L2714.2588,1119.0975 Z " fill="#000000"/><text fill="#000000" font-family="sans-serif" font-size="14" lengthAdjust="spacing" textLength="177.4268" x="2725.29" y="1118.3036">GridScanWithEdgeDetect</text><line style="stroke:#181818;stroke-width:0.5;" x1="2697.29" x2="2904.7168" y1="1129.4569" y2="1129.4569"/><line style="stroke:#181818;stroke-width:0.5;" x1="2697.29" x2="2904.7168" y1="1137.4569" y2="1137.4569"/></g><!--class LoadCentreCollect--><g class="entity" data-qualified-name="mx_bluesky.hyperion.parameters.LoadCentreCollect" data-source-line="80" id="ent0018"><rect fill="#F1F1F1" height="80.5938" rx="2.5" ry="2.5" style="stroke:#181818;stroke-width:0.5;" width="338.6211" x="3033.69" y="948.7169"/><ellipse cx="3134.315" cy="964.7169" fill="#ADD1B2" rx="11" ry="11" style="stroke:#181818;stroke-width:1;"/><path d="M3137.2838,970.3575 Q3136.7056,970.6544 3136.065,970.795 Q3135.4244,970.9513 3134.7213,970.9513 Q3132.2213,970.9513 3130.8931,969.3106 Q3129.5806,967.6544 3129.5806,964.5294 Q3129.5806,961.4044 3130.8931,959.7481 Q3132.2213,958.0919 3134.7213,958.0919 Q3135.4244,958.0919 3136.065,958.2481 Q3136.7213,958.4044 3137.2838,958.7013 L3137.2838,961.42 Q3136.6588,960.8419 3136.065,960.5763 Q3135.4713,960.295 3134.8463,960.295 Q3133.5025,960.295 3132.815,961.3731 Q3132.1275,962.4356 3132.1275,964.5294 Q3132.1275,966.6231 3132.815,967.7013 Q3133.5025,968.7638 3134.8463,968.7638 Q3135.4713,968.7638 3136.065,968.4981 Q3136.6588,968.2169 3137.2838,967.6388 L3137.2838,970.3575 Z " fill="#000000"/><text fill="#000000" font-family="sans-serif" font-size="14" lengthAdjust="spacing" textLength="128.8711" x="3154.815" y="969.5636">LoadCentreCollect</text><line style="stroke:#181818;stroke-width:0.5;" x1="3034.69" x2="3371.3111" y1="980.7169" y2="980.7169"/><text fill="#000000" font-family="sans-serif" font-size="14" lengthAdjust="spacing" textLength="326.6211" x="3039.69" y="997.712">RobotLoadThenCentre robot_load_then_centre</text><text fill="#000000" font-family="sans-serif" font-size="14" lengthAdjust="spacing" textLength="235.0947" x="3039.69" y="1014.0089">RotationScan multi_rotation_scan</text><line style="stroke:#181818;stroke-width:0.5;" x1="3034.69" x2="3371.3111" y1="1021.3106" y2="1021.3106"/></g><!--class PinTipCentreThenXrayCentre--><g class="entity" data-qualified-name="mx_bluesky.hyperion.parameters.PinTipCentreThenXrayCentre" data-source-line="84" id="ent0019"><rect fill="#F1F1F1" height="64.2969" rx="2.5" ry="2.5" style="stroke:#181818;stroke-width:0.5;" width="235.8955" x="2941.05" y="1089.3069"/><ellipse cx="2956.05" cy="1105.3069" fill="#ADD1B2" rx="11" ry="11" style="stroke:#181818;stroke-width:1;"/><path d="M2959.0188,1110.9475 Q2958.4406,1111.2444 2957.8,1111.385 Q2957.1594,1111.5413 2956.4563,1111.5413 Q2953.9563,1111.5413 2952.6281,1109.9006 Q2951.3156,1108.2444 2951.3156,1105.1194 Q2951.3156,1101.9944 2952.6281,1100.3381 Q2953.9563,1098.6819 2956.4563,1098.6819 Q2957.1594,1098.6819 2957.8,1098.8381 Q2958.4563,1098.9944 2959.0188,1099.2913 L2959.0188,1102.01 Q2958.3938,1101.4319 2957.8,1101.1663 Q2957.2063,1100.885 2956.5813,1100.885 Q2955.2375,1100.885 2954.55,1101.9631 Q2953.8625,1103.0256 2953.8625,1105.1194 Q2953.8625,1107.2131 2954.55,1108.2913 Q2955.2375,1109.3538 2956.5813,1109.3538 Q2957.2063,1109.3538 2957.8,1109.0881 Q2958.3938,1108.8069 2959.0188,1108.2288 L2959.0188,1110.9475 Z " fill="#000000"/><text fill="#000000" font-family="sans-serif" font-size="14" lengthAdjust="spacing" textLength="203.8955" x="2970.05" y="1110.1536">PinTipCentreThenXrayCentre</text><line style="stroke:#181818;stroke-width:0.5;" x1="2942.05" x2="3175.9455" y1="1121.3069" y2="1121.3069"/><text fill="#000000" font-family="sans-serif" font-size="14" lengthAdjust="spacing" textLength="130.498" x="2947.05" y="1138.302">float tip_offset_um</text><line style="stroke:#181818;stroke-width:0.5;" x1="2942.05" x2="3175.9455" y1="1145.6038" y2="1145.6038"/></g><!--class GridCommonWithHyperionDetectorParams--><g class="entity" data-qualified-name="mx_bluesky.hyperion.parameters.GridCommonWithHyperionDetectorParams" data-source-line="87" id="ent0020"><rect fill="#F1F1F1" height="48" rx="2.5" ry="2.5" style="stroke:#181818;stroke-width:0.5;" width="333.2188" x="2665.39" y="965.0169"/><ellipse cx="2680.39" cy="981.0169" fill="#ADD1B2" rx="11" ry="11" style="stroke:#181818;stroke-width:1;"/><path d="M2683.3588,986.6575 Q2682.7806,986.9544 2682.14,987.095 Q2681.4994,987.2512 2680.7963,987.2512 Q2678.2963,987.2512 2676.9681,985.6106 Q2675.6556,983.9544 2675.6556,980.8294 Q2675.6556,977.7044 2676.9681,976.0481 Q2678.2963,974.3919 2680.7963,974.3919 Q2681.4994,974.3919 2682.14,974.5481 Q2682.7963,974.7044 2683.3588,975.0012 L2683.3588,977.72 Q2682.7338,977.1419 2682.14,976.8762 Q2681.5463,976.595 2680.9213,976.595 Q2679.5775,976.595 2678.89,977.6731 Q2678.2025,978.7356 2678.2025,980.8294 Q2678.2025,982.9231 2678.89,984.0012 Q2679.5775,985.0637 2680.9213,985.0637 Q2681.5463,985.0637 2682.14,984.7981 Q2682.7338,984.5169 2683.3588,983.9387 L2683.3588,986.6575 Z " fill="#000000"/><text fill="#000000" font-family="sans-serif" font-size="14" lengthAdjust="spacing" textLength="301.2188" x="2694.39" y="985.8636">GridCommonWithHyperionDetectorParams</text><line style="stroke:#181818;stroke-width:0.5;" x1="2666.39" x2="2997.6088" y1="997.0169" y2="997.0169"/><line style="stroke:#181818;stroke-width:0.5;" x1="2666.39" x2="2997.6088" y1="1005.0169" y2="1005.0169"/></g><!--reverse link GridCommonWithHyperionDetectorParams to GridScanWithEdgeDetect--><g class="link" data-entity-1="ent0020" data-entity-2="ent0017" data-link-type="extension" data-source-line="90" id="lnk21"><path codeLine="90" d="M2822.2995,1030.8494 C2816.6595,1054.5894 2812.12,1073.6669 2806.49,1097.3369" fill="none" id="GridCommonWithHyperionDetectorParams-backto-GridScanWithEdgeDetect" style="stroke:#181818;stroke-width:1;"/><polygon fill="none" points="2826.46,1013.3369,2816.462,1029.4626,2828.137,1032.2363,2826.46,1013.3369" style="stroke:#181818;stroke-width:1;"/></g><!--reverse link DiffractionExperiment to RotationExperiment--><g class="link" data-entity-1="ent0014" data-entity-2="ent0011" data-link-type="extension" data-source-line="91" id="lnk22"><path codeLine="91" d="M2520.4575,489.8063 C2571.7575,517.7463 2610.39,538.7969 2654.17,562.6469" fill="none" id="DiffractionExperiment-backto-RotationExperiment" style="stroke:#181818;stroke-width:1;"/><polygon fill="none" points="2504.65,481.1969,2517.5877,495.0755,2523.3273,484.5371,2504.65,481.1969" style="stroke:#181818;stroke-width:1;"/></g><!--reverse link RotationExperiment to RotationScan--><g class="link" data-entity-1="ent0011" data-entity-2="ent0012" data-link-type="extension" data-source-line="92" id="lnk23"><path codeLine="92" d="M2766.0787,676.9389 C2777.9387,708.6889 2786.91,732.6869 2797.27,760.4269" fill="none" id="RotationExperiment-backto-RotationScan" style="stroke:#181818;stroke-width:1;"/><polygon fill="none" points="2759.78,660.0769,2760.458,679.0384,2771.6993,674.8393,2759.78,660.0769" style="stroke:#181818;stroke-width:1;"/></g><!--reverse link SplitScan to RotationScan--><g class="link" data-entity-1="ent0009" data-entity-2="ent0012" data-link-type="extension" data-source-line="93" id="lnk24"><path codeLine="93" d="M361.4164,189.6029 C373.6364,204.9629 380,210.4969 399,223.7769 C664.4,409.3469 759.97,416.3869 1072,503.0469 C1699.85,677.4169 1882.98,592.4169 2522,719.9369 C2578.92,731.2969 2641.51,746.6269 2693.67,760.2269" fill="none" id="SplitScan-backto-RotationScan" style="stroke:#181818;stroke-width:1;"/><polygon fill="none" points="350.21,175.5169,356.7211,193.3384,366.1118,185.8674,350.21,175.5169" style="stroke:#181818;stroke-width:1;"/></g><!--reverse link MxBlueskyParameters to LoadCentreCollect--><g class="link" data-entity-1="ent0010" data-entity-2="ent0018" data-link-type="extension" data-source-line="94" id="lnk25"><path codeLine="94" d="M2808.0942,159.872 C2985.0242,171.052 3236.4,199.3369 3300,275.7769 C3476.79,488.2669 3410.33,644.2769 3300,897.7169 C3291.51,917.2269 3276.49,934.4269 3260.76,948.4469" fill="none" id="MxBlueskyParameters-backto-LoadCentreCollect" style="stroke:#181818;stroke-width:1;"/><polygon fill="none" points="2790.13,158.7369,2807.7158,165.8601,2808.4726,153.884,2790.13,158.7369" style="stroke:#181818;stroke-width:1;"/></g><!--reverse link WithVisit to LoadCentreCollect--><g class="link" data-entity-1="ent0008" data-entity-2="ent0018" data-link-type="extension" data-source-line="95" id="lnk26"><path codeLine="95" d="M1503.2324,222.0302 C1511.8424,224.9402 1503.44,221.7269 1512,223.7769 C1600.97,245.0869 3092.3,212.1169 3158,275.7769 C3254.21,369.0069 3219.99,812.9569 3207.04,948.5769" fill="none" id="WithVisit-backto-LoadCentreCollect" style="stroke:#181818;stroke-width:1;"/><polygon fill="none" points="1486.18,216.2669,1501.3113,227.7144,1505.1535,216.3461,1486.18,216.2669" style="stroke:#181818;stroke-width:1;"/></g><!--reverse link WithSample to LoadCentreCollect--><g class="link" data-entity-1="ent0004" data-entity-2="ent0018" data-link-type="extension" data-source-line="96" id="lnk27"><path codeLine="96" d="M902.0138,209.7105 C916.8238,219.4405 918.28,218.4269 935,223.7769 C1049.33,260.3469 3004.93,196.4369 3095,275.7769 C3146.15,320.8369 3188.5,805.6369 3199.95,948.5669" fill="none" id="WithSample-backto-LoadCentreCollect" style="stroke:#181818;stroke-width:1;"/><polygon fill="none" points="886.97,199.8269,898.7192,214.725,905.3083,204.6959,886.97,199.8269" style="stroke:#181818;stroke-width:1;"/></g><!--reverse link WithCentreSelection to LoadCentreCollect--><g class="link" data-entity-1="ent0006" data-entity-2="ent0018" data-link-type="extension" data-source-line="97" id="lnk28"><path codeLine="97" d="M1973.3805,187.9507 C2032.8405,202.7007 2089.05,214.6469 2156,223.7769 C2215.13,231.8369 3187.83,232.5669 3229,275.7769 C3324.33,375.8469 3248.31,760.8669 3229,897.7169 C3226.61,914.6769 3221.8,932.9169 3216.97,948.5269" fill="none" id="WithCentreSelection-backto-LoadCentreCollect" style="stroke:#181818;stroke-width:1;"/><polygon fill="none" points="1955.91,183.6169,1971.9359,193.7742,1974.8251,182.1272,1955.91,183.6169" style="stroke:#181818;stroke-width:1;"/></g><!--reverse link DiffractionExperimentWithSample to GridCommon--><g class="link" data-entity-1="ent0015" data-entity-2="ent0013" data-link-type="extension" data-source-line="98" id="lnk29"><path codeLine="98" d="M2338,653.9369 C2338,675.2069 2338,689.6969 2338,719.5269" fill="none" id="DiffractionExperimentWithSample-backto-GridCommon" style="stroke:#181818;stroke-width:1;"/><polygon fill="none" points="2338,635.9369,2332,653.9369,2344,653.9369,2338,635.9369" style="stroke:#181818;stroke-width:1;"/></g><!--reverse link OptionalGonioAngleStarts to GridCommon--><g class="link" data-entity-1="ent0003" data-entity-2="ent0013" data-link-type="extension" data-source-line="99" id="lnk30"><path codeLine="99" d="M173.9078,223.8925 C228.0878,333.1325 356.77,557.5469 553,659.9369 C694.32,733.6769 1755.83,773.9369 2171.65,787.0169" fill="none" id="OptionalGonioAngleStarts-backto-GridCommon" style="stroke:#181818;stroke-width:1;"/><polygon fill="none" points="165.91,207.7669,168.5326,226.5584,179.283,221.2265,165.91,207.7669" style="stroke:#181818;stroke-width:1;"/></g><!--reverse link MxBlueskyParameters to DiffractionExperiment--><g class="link" data-entity-1="ent0010" data-entity-2="ent0014" data-link-type="extension" data-source-line="100" id="lnk31"><path codeLine="100" d="M2577.7807,194.9691 C2548.2307,218.8091 2519.8,241.7469 2478.05,275.4269" fill="none" id="MxBlueskyParameters-backto-DiffractionExperiment" style="stroke:#181818;stroke-width:1;"/><polygon fill="none" points="2591.79,183.6669,2574.0133,190.2994,2581.5481,199.6389,2591.79,183.6669" style="stroke:#181818;stroke-width:1;"/></g><!--reverse link WithSnapshot to DiffractionExperiment--><g class="link" data-entity-1="ent0005" data-entity-2="ent0014" data-link-type="extension" data-source-line="101" id="lnk32"><path codeLine="101" d="M672.1074,206.941 C693.8074,216.231 700.55,217.8269 723,223.7769 C1238.89,360.5969 1875.29,385.0869 2171.6,388.5669" fill="none" id="WithSnapshot-backto-DiffractionExperiment" style="stroke:#181818;stroke-width:1;"/><polygon fill="none" points="655.56,199.8569,669.746,212.4568,674.4687,201.4252,655.56,199.8569" style="stroke:#181818;stroke-width:1;"/></g><!--reverse link WithOptionalEnergyChange to DiffractionExperiment--><g class="link" data-entity-1="ent0007" data-entity-2="ent0014" data-link-type="extension" data-source-line="102" id="lnk33"><path codeLine="102" d="M1135.4275,192.5985 C1160.3975,207.0185 1176.05,214.0269 1206,223.7769 C1295.96,253.0869 1879.24,329.9869 2171.55,367.3869" fill="none" id="WithOptionalEnergyChange-backto-DiffractionExperiment" style="stroke:#181818;stroke-width:1;"/><polygon fill="none" points="1119.84,183.5969,1132.4269,197.7944,1138.4281,187.4027,1119.84,183.5969" style="stroke:#181818;stroke-width:1;"/></g><!--reverse link WithVisit to DiffractionExperiment--><g class="link" data-entity-1="ent0008" data-entity-2="ent0014" data-link-type="extension" data-source-line="103" id="lnk34"><path codeLine="103" d="M1507.7164,222.66 C1514.7964,225.35 1505.03,221.4869 1512,223.7769 C1734.78,297.0069 2002.6,343.0969 2171.6,367.3169" fill="none" id="WithVisit-backto-DiffractionExperiment" style="stroke:#181818;stroke-width:1;"/><polygon fill="none" points="1490.89,216.2669,1505.5854,228.2688,1509.8474,217.0512,1490.89,216.2669" style="stroke:#181818;stroke-width:1;"/></g><!--reverse link GridCommonWithHyperionDetectorParams to PinTipCentreThenXrayCentre--><g class="link" data-entity-1="ent0020" data-entity-2="ent0019" data-link-type="extension" data-source-line="104" id="lnk35"><path codeLine="104" d="M2888.4566,1022.4554 C2925.0866,1043.5054 2963.54,1065.5969 3003.97,1088.8369" fill="none" id="GridCommonWithHyperionDetectorParams-backto-PinTipCentreThenXrayCentre" style="stroke:#181818;stroke-width:1;"/><polygon fill="none" points="2872.85,1013.4869,2885.467,1027.6576,2891.4461,1017.2532,2872.85,1013.4869" style="stroke:#181818;stroke-width:1;"/></g><!--reverse link GridCommon to GridCommonWithHyperionDetectorParams--><g class="link" data-entity-1="ent0013" data-entity-2="ent0020" data-link-type="extension" data-source-line="105" id="lnk36"><path codeLine="105" d="M2471.896,874.6938 C2493.086,886.1438 2499.46,888.6269 2521,897.7169 C2588.34,926.1469 2667.48,948.9869 2729.08,964.5769" fill="none" id="GridCommon-backto-GridCommonWithHyperionDetectorParams" style="stroke:#181818;stroke-width:1;"/><polygon fill="none" points="2456.06,866.1369,2469.0437,879.9725,2474.7483,869.4152,2456.06,866.1369" style="stroke:#181818;stroke-width:1;"/></g><!--reverse link DiffractionExperiment to DiffractionExperimentWithSample--><g class="link" data-entity-1="ent0014" data-entity-2="ent0015" data-link-type="extension" data-source-line="106" id="lnk37"><path codeLine="106" d="M2338,521.3469 C2338,553.2269 2338,566.7769 2338,587.2869" fill="none" id="DiffractionExperiment-backto-DiffractionExperimentWithSample" style="stroke:#181818;stroke-width:1;"/><polygon fill="none" points="2338,503.3469,2332,521.3469,2344,521.3469,2338,503.3469" style="stroke:#181818;stroke-width:1;"/></g><!--reverse link WithSample to DiffractionExperimentWithSample--><g class="link" data-entity-1="ent0004" data-entity-2="ent0015" data-link-type="extension" data-source-line="107" id="lnk38"><path codeLine="107" d="M907.7094,209.7353 C921.2394,218.5153 920.67,217.1769 935,223.7769 C1375.98,427.0769 1945.57,543.0769 2202.14,588.2769" fill="none" id="WithSample-backto-DiffractionExperimentWithSample" style="stroke:#181818;stroke-width:1;"/><polygon fill="none" points="892.61,199.9369,904.4432,214.7684,910.9755,204.7022,892.61,199.9369" style="stroke:#181818;stroke-width:1;"/></g><?plantuml-src bLPBRziu43vRluAttGKs0Nhl7b8dsnPeka5jP0iK0K5BOua8No17gLqt_xr3KPAjoB9J-13DU_Zncs7-M5OoiBLKmEYlgD5Ub6302uI2hRQi4xXJmc2jrQNRPXbAf80FMmTUMiFkX1SQ43oxjGMeB00oGvhWH0uBS6H6wvcn1hACT8-Y1AOtVALg28_RozngRSsbwz84jilGbe0LfTnbkH8XiFySKYsXtbiZxPKf5InGU0oxRBPMLY3xoJvJ0MOrb8A7QEC5b2-ihfAJjlo4xL4uTvZrkUtgVudLGcYdWFgG1bbe12wB9BRXhTRL-UDHlJJ3Z4QuK5cad7S2AnPQcHVIGqvORhEPaW6_DJq-zDawjmQ3a8wnibQnEW0llInuvn86zUPWqDDDAKfE85FPfNMVtsrlnMPkQuEzXIeDBVzQVoFo5eAzMsY-UDxa7TRgxl66Y5LkvvKm9RoymmAqC0M7neN3qo31lGmo8XFGinK8hIJHgf6UeYLz5X312iZHykZ4SskUm1Evk2D4H_MmWRK94IO7hdNA8qsWA6gOEmzhkUaxMJWbSP4B0kkPVYEwtcxU9NRtmn6PkeW7GvdVanXnwYdFTPmS_fJqVPKl5aMiVhE9ewO9pXwgKDKO0wq38qt9aSmyT5RV1d9fSWynCB7XOt3RrJxRaaQO1fzq77ebHzAEMaXddLqP4nLGV6i8U6Yz0x_u3k0U_cQVmFoffU4AJ8dLFs_-UjXt5CXrJudtnCfvC__zoLPsmuFy0RpMdQhXxdTPO7MWf8vjg3tqHt_zuMPN92F5tWkwfNv-6jP2mKLhxIgXTDokrxJNOlckzMkvNdkHZ-udyYPkL1vtu6IpqIikFegXSVEoBC77zSamVJUC62mBNnjkQhq2_zlzUu9Son2vnMFFluLLx3JGTD3MFbn0_MBnLhRDJYshauWThj3dvdVaYQZQjsRuIEmf5FaN4zqK9LmtqxphgtwoeaWRRcwLQaopBtPbCHgM5PXa98QIZXDW1QTHDktsYhvxZZDTAvHyGEQ-q9qqI-bIjfZtgnVR9ErECsa_1F4CtRjwtMwbPeE41CvhFDdRdnSN4wXaHwyWHOoNJJPM3LrZWQnVXKTiHzPWyXfTIjRlzbCEYIYdF5wyPLEkPwYunp2XdKtz-p5od3pnqOhPuND_pk_OqtakvW3HuqwlPzGqlG-IlCHZEkafAfwvdH4LplZ_0W00?></g></svg>