<svg xmlns="http://www.w3.org/2000/svg" xmlns:xlink="http://www.w3.org/1999/xlink" contentStyleType="text/css" data-diagram-type="CLASS" height="1127px" preserveAspectRatio="none" style="width:2952px;height:1127px;background:#FFFFFF;" version="1.1" viewBox="0 0 2952 1127" width="2952px" zoomAndPan="magnify"><title>Hyperion Parameter Model</title><defs/><g><g class="title" data-source-line="3"><text fill="#000000" font-family="sans-serif" font-size="14" font-weight="bold" lengthAdjust="spacing" textLength="212.4951" x="1362.8324" y="22.9951">Hyperion Parameter Model</text></g><!--cluster mx_bluesky.common.parameters--><g class="cluster" data-entity="mx_bluesky.common.parameters" data-source-line="6" data-uid="ent0002" id="cluster_mx_bluesky.common.parameters"><path d="M8.5,43.2969 L269.8125,43.2969 A3.75,3.75 0 0 1 272.3125,45.7969 L279.3125,65.5938 L2524.5,65.5938 A2.5,2.5 0 0 1 2527,68.0938 L2527,822.0269 A2.5,2.5 0 0 1 2524.5,824.5269 L8.5,824.5269 A2.5,2.5 0 0 1 6,822.0269 L6,45.7969 A2.5,2.5 0 0 1 8.5,43.2969" fill="none" style="stroke:#000000;stroke-width:1.5;"/><line style="stroke:#000000;stroke-width:1.5;" x1="6" x2="279.3125" y1="65.5938" y2="65.5938"/><text fill="#000000" font-family="sans-serif" font-size="14" font-weight="bold" lengthAdjust="spacing" textLength="260.3125" x="10" y="58.292">mx_bluesky.common.parameters</text></g><!--cluster mx_bluesky.hyperion.parameters--><g class="cluster" data-entity="mx_bluesky.hyperion.parameters" data-source-line="68" data-uid="ent0014" id="cluster_mx_bluesky.hyperion.parameters"><path d="M1789.5,848.5269 L2054.0322,848.5269 A3.75,3.75 0 0 1 2056.5322,851.0269 L2063.5322,870.8238 L2890.5,870.8238 A2.5,2.5 0 0 1 2893,873.3238 L2893,1118.2169 A2.5,2.5 0 0 1 2890.5,1120.7169 L1789.5,1120.7169 A2.5,2.5 0 0 1 1787,1118.2169 L1787,851.0269 A2.5,2.5 0 0 1 1789.5,848.5269" fill="none" style="stroke:#000000;stroke-width:1.5;"/><line style="stroke:#000000;stroke-width:1.5;" x1="1787" x2="2063.5322" y1="870.8238" y2="870.8238"/><text fill="#000000" font-family="sans-serif" font-size="14" font-weight="bold" lengthAdjust="spacing" textLength="263.5322" x="1791" y="863.522">mx_bluesky.hyperion.parameters</text></g><!--class WithSnapshot--><g class="entity" data-entity="WithSnapshot" data-source-line="8" data-uid="ent0003" id="entity_WithSnapshot"><rect fill="#F1F1F1" height="96.8906" rx="2.5" ry="2.5" style="stroke:#181818;stroke-width:0.5;" width="289.3477" x="686.33" y="102.5869"/><ellipse cx="777.9828" cy="118.5869" fill="#ADD1B2" rx="11" ry="11" style="stroke:#181818;stroke-width:1;"/><path d="M780.9516,124.2275 Q780.3735,124.5244 779.7328,124.665 Q779.0922,124.8212 778.3891,124.8212 Q775.8891,124.8212 774.561,123.1806 Q773.2485,121.5244 773.2485,118.3994 Q773.2485,115.2744 774.561,113.6181 Q775.8891,111.9619 778.3891,111.9619 Q779.0922,111.9619 779.7328,112.1181 Q780.3891,112.2744 780.9516,112.5712 L780.9516,115.29 Q780.3266,114.7119 779.7328,114.4462 Q779.1391,114.165 778.5141,114.165 Q777.1703,114.165 776.4828,115.2431 Q775.7953,116.3056 775.7953,118.3994 Q775.7953,120.4931 776.4828,121.5712 Q777.1703,122.6337 778.5141,122.6337 Q779.1391,122.6337 779.7328,122.3681 Q780.3266,122.0869 780.9516,121.5087 L780.9516,124.2275 Z " fill="#000000"/><text fill="#000000" font-family="sans-serif" font-size="14" lengthAdjust="spacing" textLength="97.542" x="798.4828" y="123.4336">WithSnapshot</text><line style="stroke:#181818;stroke-width:0.5;" x1="687.33" x2="974.6777" y1="134.5869" y2="134.5869"/><text fill="#000000" font-family="sans-serif" font-size="14" lengthAdjust="spacing" textLength="169.627" x="692.33" y="151.582">Path snapshot_directory</text><text fill="#000000" font-family="sans-serif" font-size="14" lengthAdjust="spacing" textLength="277.3477" x="692.33" y="167.8789">list[float] | None snapshot_omegas_deg</text><text fill="#000000" font-family="sans-serif" font-size="14" lengthAdjust="spacing" textLength="171.7051" x="692.33" y="184.1757">bool use_grid_snapshots</text><line style="stroke:#181818;stroke-width:0.5;" x1="687.33" x2="974.6777" y1="191.4775" y2="191.4775"/></g><!--class SplitScan--><g class="entity" data-entity="SplitScan" data-source-line="13" data-uid="ent0004" id="entity_SplitScan"><rect fill="#F1F1F1" height="48" rx="2.5" ry="2.5" style="stroke:#181818;stroke-width:0.5;" width="97.0781" x="30.46" y="127.0369"/><ellipse cx="45.46" cy="143.0369" fill="#ADD1B2" rx="11" ry="11" style="stroke:#181818;stroke-width:1;"/><path d="M48.4288,148.6775 Q47.8506,148.9744 47.21,149.115 Q46.5694,149.2713 45.8663,149.2713 Q43.3663,149.2713 42.0381,147.6306 Q40.7256,145.9744 40.7256,142.8494 Q40.7256,139.7244 42.0381,138.0681 Q43.3663,136.4119 45.8663,136.4119 Q46.5694,136.4119 47.21,136.5681 Q47.8663,136.7244 48.4288,137.0213 L48.4288,139.74 Q47.8038,139.1619 47.21,138.8963 Q46.6163,138.615 45.9913,138.615 Q44.6475,138.615 43.96,139.6931 Q43.2725,140.7556 43.2725,142.8494 Q43.2725,144.9431 43.96,146.0213 Q44.6475,147.0838 45.9913,147.0838 Q46.6163,147.0838 47.21,146.8181 Q47.8038,146.5369 48.4288,145.9588 L48.4288,148.6775 Z " fill="#000000"/><text fill="#000000" font-family="sans-serif" font-size="14" lengthAdjust="spacing" textLength="65.0781" x="59.46" y="147.8836">SplitScan</text><line style="stroke:#181818;stroke-width:0.5;" x1="31.46" x2="126.5381" y1="159.0369" y2="159.0369"/><line style="stroke:#181818;stroke-width:0.5;" x1="31.46" x2="126.5381" y1="167.0369" y2="167.0369"/></g><!--class WithOptionalEnergyChange--><g class="entity" data-entity="WithOptionalEnergyChange" data-source-line="15" data-uid="ent0005" id="entity_WithOptionalEnergyChange"><rect fill="#F1F1F1" height="64.2969" rx="2.5" ry="2.5" style="stroke:#181818;stroke-width:0.5;" width="235.4463" x="416.28" y="118.8869"/><ellipse cx="435.4645" cy="134.8869" fill="#ADD1B2" rx="11" ry="11" style="stroke:#181818;stroke-width:1;"/><path d="M438.4332,140.5275 Q437.8551,140.8244 437.2145,140.965 Q436.5738,141.1213 435.8707,141.1213 Q433.3707,141.1213 432.0426,139.4806 Q430.7301,137.8244 430.7301,134.6994 Q430.7301,131.5744 432.0426,129.9181 Q433.3707,128.2619 435.8707,128.2619 Q436.5738,128.2619 437.2145,128.4181 Q437.8707,128.5744 438.4332,128.8713 L438.4332,131.59 Q437.8082,131.0119 437.2145,130.7463 Q436.6207,130.465 435.9957,130.465 Q434.652,130.465 433.9645,131.5431 Q433.277,132.6056 433.277,134.6994 Q433.277,136.7931 433.9645,137.8713 Q434.652,138.9338 435.9957,138.9338 Q436.6207,138.9338 437.2145,138.6681 Q437.8082,138.3869 438.4332,137.8088 L438.4332,140.5275 Z " fill="#000000"/><text fill="#000000" font-family="sans-serif" font-size="14" lengthAdjust="spacing" textLength="194.1475" x="450.3944" y="139.7336">WithOptionalEnergyChange</text><line style="stroke:#181818;stroke-width:0.5;" x1="417.28" x2="650.7263" y1="150.8869" y2="150.8869"/><text fill="#000000" font-family="sans-serif" font-size="14" lengthAdjust="spacing" textLength="223.4463" x="422.28" y="167.882">float | None demand_energy_ev</text><line style="stroke:#181818;stroke-width:0.5;" x1="417.28" x2="650.7263" y1="175.1838" y2="175.1838"/></g><!--class OptionalGonioAngleStarts--><g class="entity" data-entity="OptionalGonioAngleStarts" data-source-line="18" data-uid="ent0006" id="entity_OptionalGonioAngleStarts"><rect fill="#F1F1F1" height="113.1875" rx="2.5" ry="2.5" style="stroke:#181818;stroke-width:0.5;" width="219.3203" x="162.34" y="94.4469"/><ellipse cx="180.0633" cy="110.4469" fill="#ADD1B2" rx="11" ry="11" style="stroke:#181818;stroke-width:1;"/><path d="M183.032,116.0875 Q182.4539,116.3844 181.8133,116.525 Q181.1727,116.6813 180.4695,116.6813 Q177.9695,116.6813 176.6414,115.0406 Q175.3289,113.3844 175.3289,110.2594 Q175.3289,107.1344 176.6414,105.4781 Q177.9695,103.8219 180.4695,103.8219 Q181.1727,103.8219 181.8133,103.9781 Q182.4695,104.1344 183.032,104.4313 L183.032,107.15 Q182.407,106.5719 181.8133,106.3063 Q181.2195,106.025 180.5945,106.025 Q179.2508,106.025 178.5633,107.1031 Q177.8758,108.1656 177.8758,110.2594 Q177.8758,112.3531 178.5633,113.4313 Q179.2508,114.4938 180.5945,114.4938 Q181.2195,114.4938 181.8133,114.2281 Q182.407,113.9469 183.032,113.3688 L183.032,116.0875 Z " fill="#000000"/><text fill="#000000" font-family="sans-serif" font-size="14" lengthAdjust="spacing" textLength="181.2686" x="194.6685" y="115.2936">OptionalGonioAngleStarts</text><line style="stroke:#181818;stroke-width:0.5;" x1="163.34" x2="380.6603" y1="126.4469" y2="126.4469"/><text fill="#000000" font-family="sans-serif" font-size="14" lengthAdjust="spacing" textLength="207.3203" x="168.34" y="143.442">float | None omega_start_deg</text><text fill="#000000" font-family="sans-serif" font-size="14" lengthAdjust="spacing" textLength="180.6875" x="168.34" y="159.7389">float | None phi_start_deg</text><text fill="#000000" font-family="sans-serif" font-size="14" lengthAdjust="spacing" textLength="179.498" x="168.34" y="176.0357">float | None chi_start_deg</text><text fill="#000000" font-family="sans-serif" font-size="14" lengthAdjust="spacing" textLength="202.0771" x="168.34" y="192.3326">float | None kappa_start_deg</text><line style="stroke:#181818;stroke-width:0.5;" x1="163.34" x2="380.6603" y1="199.6344" y2="199.6344"/></g><!--class WithSample--><g class="entity" data-entity="WithSample" data-source-line="24" data-uid="ent0007" id="entity_WithSample"><rect fill="#F1F1F1" height="96.8906" rx="2.5" ry="2.5" style="stroke:#181818;stroke-width:0.5;" width="176.3086" x="1010.85" y="102.5869"/><ellipse cx="1052.7243" cy="118.5869" fill="#ADD1B2" rx="11" ry="11" style="stroke:#181818;stroke-width:1;"/><path d="M1055.6931,124.2275 Q1055.1149,124.5244 1054.4743,124.665 Q1053.8337,124.8212 1053.1306,124.8212 Q1050.6306,124.8212 1049.3024,123.1806 Q1047.9899,121.5244 1047.9899,118.3994 Q1047.9899,115.2744 1049.3024,113.6181 Q1050.6306,111.9619 1053.1306,111.9619 Q1053.8337,111.9619 1054.4743,112.1181 Q1055.1306,112.2744 1055.6931,112.5712 L1055.6931,115.29 Q1055.0681,114.7119 1054.4743,114.4462 Q1053.8806,114.165 1053.2556,114.165 Q1051.9118,114.165 1051.2243,115.2431 Q1050.5368,116.3056 1050.5368,118.3994 Q1050.5368,120.4931 1051.2243,121.5712 Q1051.9118,122.6337 1053.2556,122.6337 Q1053.8806,122.6337 1054.4743,122.3681 Q1055.0681,122.0869 1055.6931,121.5087 L1055.6931,124.2275 Z " fill="#000000"/><text fill="#000000" font-family="sans-serif" font-size="14" lengthAdjust="spacing" textLength="84.5879" x="1072.6964" y="123.4336">WithSample</text><line style="stroke:#181818;stroke-width:0.5;" x1="1011.85" x2="1186.1586" y1="134.5869" y2="134.5869"/><text fill="#000000" font-family="sans-serif" font-size="14" lengthAdjust="spacing" textLength="93.3789" x="1016.85" y="151.582">int sample_id</text><text fill="#000000" font-family="sans-serif" font-size="14" lengthAdjust="spacing" textLength="164.3086" x="1016.85" y="167.8789">int | None sample_puck</text><text fill="#000000" font-family="sans-serif" font-size="14" lengthAdjust="spacing" textLength="152.3936" x="1016.85" y="184.1757">int | None sample_pin</text><line style="stroke:#181818;stroke-width:0.5;" x1="1011.85" x2="1186.1586" y1="191.4775" y2="191.4775"/></g><!--class WithVisit--><g class="entity" data-entity="WithVisit" data-source-line="29" data-uid="ent0008" id="entity_WithVisit"><rect fill="#F1F1F1" height="129.4844" rx="2.5" ry="2.5" style="stroke:#181818;stroke-width:0.5;" width="271.7861" x="1222.11" y="86.2969"/><ellipse cx="1322.6359" cy="102.2969" fill="#ADD1B2" rx="11" ry="11" style="stroke:#181818;stroke-width:1;"/><path d="M1325.6046,107.9375 Q1325.0265,108.2344 1324.3859,108.375 Q1323.7453,108.5313 1323.0421,108.5313 Q1320.5421,108.5313 1319.214,106.8906 Q1317.9015,105.2344 1317.9015,102.1094 Q1317.9015,98.9844 1319.214,97.3281 Q1320.5421,95.6719 1323.0421,95.6719 Q1323.7453,95.6719 1324.3859,95.8281 Q1325.0421,95.9844 1325.6046,96.2813 L1325.6046,99 Q1324.9796,98.4219 1324.3859,98.1563 Q1323.7921,97.875 1323.1671,97.875 Q1321.8234,97.875 1321.1359,98.9531 Q1320.4484,100.0156 1320.4484,102.1094 Q1320.4484,104.2031 1321.1359,105.2813 Q1321.8234,106.3438 1323.1671,106.3438 Q1323.7921,106.3438 1324.3859,106.0781 Q1324.9796,105.7969 1325.6046,105.2188 L1325.6046,107.9375 Z " fill="#000000"/><text fill="#000000" font-family="sans-serif" font-size="14" lengthAdjust="spacing" textLength="62.2344" x="1343.1359" y="107.1436">WithVisit</text><line style="stroke:#181818;stroke-width:0.5;" x1="1223.11" x2="1492.8961" y1="118.2969" y2="118.2969"/><text fill="#000000" font-family="sans-serif" font-size="14" lengthAdjust="spacing" textLength="87.9717" x="1228.11" y="135.292">str beamline</text><text fill="#000000" font-family="sans-serif" font-size="14" lengthAdjust="spacing" textLength="51.8369" x="1228.11" y="151.5889">str visit</text><text fill="#000000" font-family="sans-serif" font-size="14" lengthAdjust="spacing" textLength="259.7861" x="1228.11" y="167.8857">str det_dist_to_beam_converter_path</text><text fill="#000000" font-family="sans-serif" font-size="14" lengthAdjust="spacing" textLength="131.5918" x="1228.11" y="184.1826">str insertion_prefix</text><text fill="#000000" font-family="sans-serif" font-size="14" lengthAdjust="spacing" textLength="245.752" x="1228.11" y="200.4795">float | None detector_distance_mm</text><line style="stroke:#181818;stroke-width:0.5;" x1="1223.11" x2="1492.8961" y1="207.7813" y2="207.7813"/></g><!--class WithCentreSelection--><g class="entity" data-entity="WithCentreSelection" data-source-line="36" data-uid="ent0009" id="entity_WithCentreSelection"><rect fill="#F1F1F1" height="64.2969" rx="2.5" ry="2.5" style="stroke:#181818;stroke-width:0.5;" width="618.6689" x="1528.67" y="118.8869"/><ellipse cx="1761.8883" cy="134.8869" fill="#ADD1B2" rx="11" ry="11" style="stroke:#181818;stroke-width:1;"/><path d="M1764.857,140.5275 Q1764.2789,140.8244 1763.6383,140.965 Q1762.9976,141.1213 1762.2945,141.1213 Q1759.7945,141.1213 1758.4664,139.4806 Q1757.1539,137.8244 1757.1539,134.6994 Q1757.1539,131.5744 1758.4664,129.9181 Q1759.7945,128.2619 1762.2945,128.2619 Q1762.9976,128.2619 1763.6383,128.4181 Q1764.2945,128.5744 1764.857,128.8713 L1764.857,131.59 Q1764.232,131.0119 1763.6383,130.7463 Q1763.0445,130.465 1762.4195,130.465 Q1761.0758,130.465 1760.3883,131.5431 Q1759.7008,132.6056 1759.7008,134.6994 Q1759.7008,136.7931 1760.3883,137.8713 Q1761.0758,138.9338 1762.4195,138.9338 Q1763.0445,138.9338 1763.6383,138.6681 Q1764.232,138.3869 1764.857,137.8088 L1764.857,140.5275 Z " fill="#000000"/><text fill="#000000" font-family="sans-serif" font-size="14" lengthAdjust="spacing" textLength="143.7324" x="1782.3883" y="139.7336">WithCentreSelection</text><line style="stroke:#181818;stroke-width:0.5;" x1="1529.67" x2="2146.3389" y1="150.8869" y2="150.8869"/><text fill="#000000" font-family="sans-serif" font-size="14" lengthAdjust="spacing" textLength="606.6689" x="1534.67" y="167.882">TopNByMaxCountSelection | TopNByMaxCountForEachSampleSelection select_centres</text><line style="stroke:#181818;stroke-width:0.5;" x1="1529.67" x2="2146.3389" y1="175.1838" y2="175.1838"/></g><!--class MxBlueskyParameters--><g class="entity" data-entity="MxBlueskyParameters" data-source-line="41" data-uid="ent0010" id="entity_MxBlueskyParameters"><rect fill="#F1F1F1" height="64.2969" rx="2.5" ry="2.5" style="stroke:#181818;stroke-width:0.5;" width="317.4639" x="2183.27" y="118.8869"/><ellipse cx="2259.8564" cy="134.8869" fill="#ADD1B2" rx="11" ry="11" style="stroke:#181818;stroke-width:1;"/><path d="M2262.8252,140.5275 Q2262.2471,140.8244 2261.6064,140.965 Q2260.9658,141.1213 2260.2627,141.1213 Q2257.7627,141.1213 2256.4346,139.4806 Q2255.1221,137.8244 2255.1221,134.6994 Q2255.1221,131.5744 2256.4346,129.9181 Q2257.7627,128.2619 2260.2627,128.2619 Q2260.9658,128.2619 2261.6064,128.4181 Q2262.2627,128.5744 2262.8252,128.8713 L2262.8252,131.59 Q2262.2002,131.0119 2261.6064,130.7463 Q2261.0127,130.465 2260.3877,130.465 Q2259.0439,130.465 2258.3564,131.5431 Q2257.6689,132.6056 2257.6689,134.6994 Q2257.6689,136.7931 2258.3564,137.8713 Q2259.0439,138.9338 2260.3877,138.9338 Q2261.0127,138.9338 2261.6064,138.6681 Q2262.2002,138.3869 2262.8252,137.8088 L2262.8252,140.5275 Z " fill="#000000"/><text fill="#000000" font-family="sans-serif" font-size="14" lengthAdjust="spacing" textLength="155.791" x="2280.3564" y="139.7336">MxBlueskyParameters</text><line style="stroke:#181818;stroke-width:0.5;" x1="2184.27" x2="2499.7339" y1="150.8869" y2="150.8869"/><text fill="#000000" font-family="sans-serif" font-size="14" lengthAdjust="spacing" textLength="305.4639" x="2189.27" y="167.882">SemanticVersion parameter_model_version</text><line style="stroke:#181818;stroke-width:0.5;" x1="2184.27" x2="2499.7339" y1="175.1838" y2="175.1838"/></g><!--class DiffractionExperimentWithSample--><g class="entity" data-entity="DiffractionExperimentWithSample" data-source-line="44" data-uid="ent0011" id="entity_DiffractionExperimentWithSample"><rect fill="#F1F1F1" height="48" rx="2.5" ry="2.5" style="stroke:#181818;stroke-width:0.5;" width="270.8545" x="2201.57" y="546.7469"/><ellipse cx="2216.57" cy="562.7469" fill="#ADD1B2" rx="11" ry="11" style="stroke:#181818;stroke-width:1;"/><path d="M2219.5388,568.3875 Q2218.9606,568.6844 2218.32,568.825 Q2217.6794,568.9813 2216.9763,568.9813 Q2214.4763,568.9813 2213.1481,567.3406 Q2211.8356,565.6844 2211.8356,562.5594 Q2211.8356,559.4344 2213.1481,557.7781 Q2214.4763,556.1219 2216.9763,556.1219 Q2217.6794,556.1219 2218.32,556.2781 Q2218.9763,556.4344 2219.5388,556.7313 L2219.5388,559.45 Q2218.9138,558.8719 2218.32,558.6063 Q2217.7263,558.325 2217.1013,558.325 Q2215.7575,558.325 2215.07,559.4031 Q2214.3825,560.4656 2214.3825,562.5594 Q2214.3825,564.6531 2215.07,565.7313 Q2215.7575,566.7938 2217.1013,566.7938 Q2217.7263,566.7938 2218.32,566.5281 Q2218.9138,566.2469 2219.5388,565.6688 L2219.5388,568.3875 Z " fill="#000000"/><text fill="#000000" font-family="sans-serif" font-size="14" lengthAdjust="spacing" textLength="238.8545" x="2230.57" y="567.5936">DiffractionExperimentWithSample</text><line style="stroke:#181818;stroke-width:0.5;" x1="2202.57" x2="2471.4245" y1="578.7469" y2="578.7469"/><line style="stroke:#181818;stroke-width:0.5;" x1="2202.57" x2="2471.4245" y1="586.7469" y2="586.7469"/></g><!--class DiffractionExperiment--><g class="entity" data-entity="DiffractionExperiment" data-source-line="46" data-uid="ent0012" id="entity_DiffractionExperiment"><rect fill="#F1F1F1" height="210.9688" rx="2.5" ry="2.5" style="stroke:#181818;stroke-width:0.5;" width="332.332" x="2170.83" y="275.7769"/><ellipse cx="2255.6127" cy="291.7769" fill="#ADD1B2" rx="11" ry="11" style="stroke:#181818;stroke-width:1;"/><path d="M2258.5815,297.4175 Q2258.0033,297.7144 2257.3627,297.855 Q2256.7221,298.0113 2256.019,298.0113 Q2253.519,298.0113 2252.1908,296.3706 Q2250.8783,294.7144 2250.8783,291.5894 Q2250.8783,288.4644 2252.1908,286.8081 Q2253.519,285.1519 2256.019,285.1519 Q2256.7221,285.1519 2257.3627,285.3081 Q2258.019,285.4644 2258.5815,285.7613 L2258.5815,288.48 Q2257.9565,287.9019 2257.3627,287.6363 Q2256.769,287.355 2256.144,287.355 Q2254.8002,287.355 2254.1127,288.4331 Q2253.4252,289.4956 2253.4252,291.5894 Q2253.4252,293.6831 2254.1127,294.7613 Q2254.8002,295.8238 2256.144,295.8238 Q2256.769,295.8238 2257.3627,295.5581 Q2257.9565,295.2769 2258.5815,294.6988 L2258.5815,297.4175 Z " fill="#000000"/><text fill="#000000" font-family="sans-serif" font-size="14" lengthAdjust="spacing" textLength="154.2666" x="2276.1127" y="296.6236">DiffractionExperiment</text><line style="stroke:#181818;stroke-width:0.5;" x1="2171.83" x2="2502.162" y1="307.7769" y2="307.7769"/><text fill="#000000" font-family="sans-serif" font-size="14" lengthAdjust="spacing" textLength="91.0137" x="2176.83" y="324.772">str file_name</text><text fill="#000000" font-family="sans-serif" font-size="14" lengthAdjust="spacing" textLength="153.7129" x="2176.83" y="341.0689">float exposure_time_s</text><text fill="#000000" font-family="sans-serif" font-size="14" lengthAdjust="spacing" textLength="89.5029" x="2176.83" y="357.3657">str comment</text><text fill="#000000" font-family="sans-serif" font-size="14" lengthAdjust="spacing" textLength="186.915" x="2176.83" y="373.6626">TriggerMode trigger_mode</text><text fill="#000000" font-family="sans-serif" font-size="14" lengthAdjust="spacing" textLength="157.9854" x="2176.83" y="389.9595">int | None run_number</text><text fill="#000000" font-family="sans-serif" font-size="14" lengthAdjust="spacing" textLength="282.3516" x="2176.83" y="406.2564">ApertureValue | None selected_aperture</text><text fill="#000000" font-family="sans-serif" font-size="14" lengthAdjust="spacing" textLength="159.2979" x="2176.83" y="422.5532">float transmission_frac</text><text fill="#000000" font-family="sans-serif" font-size="14" lengthAdjust="spacing" textLength="320.332" x="2176.83" y="438.8501">IspybExperimentType ispyb_experiment_type</text><text fill="#000000" font-family="sans-serif" font-size="14" lengthAdjust="spacing" textLength="146.1113" x="2176.83" y="455.147">str storage_directory</text><text fill="#000000" font-family="sans-serif" font-size="14" lengthAdjust="spacing" textLength="131.0518" x="2176.83" y="471.4439">bool use_roi_mode</text><line style="stroke:#181818;stroke-width:0.5;" x1="2171.83" x2="2502.162" y1="478.7456" y2="478.7456"/></g><!--class GridCommon--><g class="entity" data-entity="GridCommon" data-source-line="58" data-uid="ent0013" id="entity_GridCommon"><rect fill="#F1F1F1" height="145.7813" rx="2.5" ry="2.5" style="stroke:#181818;stroke-width:0.5;" width="332.332" x="2170.83" y="654.7469"/><ellipse cx="2286.5282" cy="670.7469" fill="#ADD1B2" rx="11" ry="11" style="stroke:#181818;stroke-width:1;"/><path d="M2289.497,676.3875 Q2288.9189,676.6844 2288.2782,676.825 Q2287.6376,676.9813 2286.9345,676.9813 Q2284.4345,676.9813 2283.1064,675.3406 Q2281.7939,673.6844 2281.7939,670.5594 Q2281.7939,667.4344 2283.1064,665.7781 Q2284.4345,664.1219 2286.9345,664.1219 Q2287.6376,664.1219 2288.2782,664.2781 Q2288.9345,664.4344 2289.497,664.7313 L2289.497,667.45 Q2288.872,666.8719 2288.2782,666.6063 Q2287.6845,666.325 2287.0595,666.325 Q2285.7157,666.325 2285.0282,667.4031 Q2284.3407,668.4656 2284.3407,670.5594 Q2284.3407,672.6531 2285.0282,673.7313 Q2285.7157,674.7938 2287.0595,674.7938 Q2287.6845,674.7938 2288.2782,674.5281 Q2288.872,674.2469 2289.497,673.6688 L2289.497,676.3875 Z " fill="#000000"/><text fill="#000000" font-family="sans-serif" font-size="14" lengthAdjust="spacing" textLength="92.4355" x="2307.0282" y="675.5936">GridCommon</text><line style="stroke:#181818;stroke-width:0.5;" x1="2171.83" x2="2502.162" y1="686.7469" y2="686.7469"/><text fill="#000000" font-family="sans-serif" font-size="14" lengthAdjust="spacing" textLength="125.2959" x="2176.83" y="703.742">float box_size_um</text><text fill="#000000" font-family="sans-serif" font-size="14" lengthAdjust="spacing" textLength="138.4209" x="2176.83" y="720.0389">float grid_width_um</text><text fill="#000000" font-family="sans-serif" font-size="14" lengthAdjust="spacing" textLength="153.7129" x="2176.83" y="736.3357">float exposure_time_s</text><text fill="#000000" font-family="sans-serif" font-size="14" lengthAdjust="spacing" textLength="320.332" x="2176.83" y="752.6326">IspybExperimentType ispyb_experiment_type</text><text fill="#000000" font-family="sans-serif" font-size="14" lengthAdjust="spacing" textLength="282.3516" x="2176.83" y="768.9295">ApertureValue | None selected_aperture</text><text fill="#000000" font-family="sans-serif" font-size="14" lengthAdjust="spacing" textLength="130.498" x="2176.83" y="785.2264">float tip_offset_um</text><line style="stroke:#181818;stroke-width:0.5;" x1="2171.83" x2="2502.162" y1="792.5281" y2="792.5281"/></g><!--class LoadCentreCollect--><g class="entity" data-entity="LoadCentreCollect" data-source-line="69" data-uid="ent0015" id="entity_LoadCentreCollect"><rect fill="#F1F1F1" height="80.5938" rx="2.5" ry="2.5" style="stroke:#181818;stroke-width:0.5;" width="338.6211" x="2538.69" y="891.6769"/><ellipse cx="2639.315" cy="907.6769" fill="#ADD1B2" rx="11" ry="11" style="stroke:#181818;stroke-width:1;"/><path d="M2642.2838,913.3175 Q2641.7056,913.6144 2641.065,913.755 Q2640.4244,913.9113 2639.7213,913.9113 Q2637.2213,913.9113 2635.8931,912.2706 Q2634.5806,910.6144 2634.5806,907.4894 Q2634.5806,904.3644 2635.8931,902.7081 Q2637.2213,901.0519 2639.7213,901.0519 Q2640.4244,901.0519 2641.065,901.2081 Q2641.7213,901.3644 2642.2838,901.6613 L2642.2838,904.38 Q2641.6588,903.8019 2641.065,903.5363 Q2640.4713,903.255 2639.8463,903.255 Q2638.5025,903.255 2637.815,904.3331 Q2637.1275,905.3956 2637.1275,907.4894 Q2637.1275,909.5831 2637.815,910.6613 Q2638.5025,911.7238 2639.8463,911.7238 Q2640.4713,911.7238 2641.065,911.4581 Q2641.6588,911.1769 2642.2838,910.5988 L2642.2838,913.3175 Z " fill="#000000"/><text fill="#000000" font-family="sans-serif" font-size="14" lengthAdjust="spacing" textLength="128.8711" x="2659.815" y="912.5236">LoadCentreCollect</text><line style="stroke:#181818;stroke-width:0.5;" x1="2539.69" x2="2876.3111" y1="923.6769" y2="923.6769"/><text fill="#000000" font-family="sans-serif" font-size="14" lengthAdjust="spacing" textLength="326.6211" x="2544.69" y="940.672">RobotLoadThenCentre robot_load_then_centre</text><text fill="#000000" font-family="sans-serif" font-size="14" lengthAdjust="spacing" textLength="235.0947" x="2544.69" y="956.9689">RotationScan multi_rotation_scan</text><line style="stroke:#181818;stroke-width:0.5;" x1="2539.69" x2="2876.3111" y1="964.2706" y2="964.2706"/></g><!--class GridScanWithEdgeDetect--><g class="entity" data-entity="GridScanWithEdgeDetect" data-source-line="73" data-uid="ent0016" id="entity_GridScanWithEdgeDetect"><rect fill="#F1F1F1" height="48" rx="2.5" ry="2.5" style="stroke:#181818;stroke-width:0.5;" width="209.4268" x="2378.29" y="1048.5669"/><ellipse cx="2393.29" cy="1064.5669" fill="#ADD1B2" rx="11" ry="11" style="stroke:#181818;stroke-width:1;"/><path d="M2396.2588,1070.2075 Q2395.6806,1070.5044 2395.04,1070.645 Q2394.3994,1070.8013 2393.6963,1070.8013 Q2391.1963,1070.8013 2389.8681,1069.1606 Q2388.5556,1067.5044 2388.5556,1064.3794 Q2388.5556,1061.2544 2389.8681,1059.5981 Q2391.1963,1057.9419 2393.6963,1057.9419 Q2394.3994,1057.9419 2395.04,1058.0981 Q2395.6963,1058.2544 2396.2588,1058.5513 L2396.2588,1061.27 Q2395.6338,1060.6919 2395.04,1060.4263 Q2394.4463,1060.145 2393.8213,1060.145 Q2392.4775,1060.145 2391.79,1061.2231 Q2391.1025,1062.2856 2391.1025,1064.3794 Q2391.1025,1066.4731 2391.79,1067.5513 Q2392.4775,1068.6138 2393.8213,1068.6138 Q2394.4463,1068.6138 2395.04,1068.3481 Q2395.6338,1068.0669 2396.2588,1067.4888 L2396.2588,1070.2075 Z " fill="#000000"/><text fill="#000000" font-family="sans-serif" font-size="14" lengthAdjust="spacing" textLength="177.4268" x="2407.29" y="1069.4136">GridScanWithEdgeDetect</text><line style="stroke:#181818;stroke-width:0.5;" x1="2379.29" x2="2586.7168" y1="1080.5669" y2="1080.5669"/><line style="stroke:#181818;stroke-width:0.5;" x1="2379.29" x2="2586.7168" y1="1088.5669" y2="1088.5669"/></g><!--class RotationExperiment--><g class="entity" data-entity="RotationExperiment" data-source-line="75" data-uid="ent0017" id="entity_RotationExperiment"><rect fill="#F1F1F1" height="96.8906" rx="2.5" ry="2.5" style="stroke:#181818;stroke-width:0.5;" width="332.332" x="1802.83" y="883.5269"/><ellipse cx="1894.7118" cy="899.5269" fill="#ADD1B2" rx="11" ry="11" style="stroke:#181818;stroke-width:1;"/><path d="M1897.6806,905.1675 Q1897.1025,905.4644 1896.4618,905.605 Q1895.8212,905.7613 1895.1181,905.7613 Q1892.6181,905.7613 1891.29,904.1206 Q1889.9775,902.4644 1889.9775,899.3394 Q1889.9775,896.2144 1891.29,894.5581 Q1892.6181,892.9019 1895.1181,892.9019 Q1895.8212,892.9019 1896.4618,893.0581 Q1897.1181,893.2144 1897.6806,893.5113 L1897.6806,896.23 Q1897.0556,895.6519 1896.4618,895.3863 Q1895.8681,895.105 1895.2431,895.105 Q1893.8993,895.105 1893.2118,896.1831 Q1892.5243,897.2456 1892.5243,899.3394 Q1892.5243,901.4331 1893.2118,902.5113 Q1893.8993,903.5738 1895.2431,903.5738 Q1895.8681,903.5738 1896.4618,903.3081 Q1897.0556,903.0269 1897.6806,902.4488 L1897.6806,905.1675 Z " fill="#000000"/><text fill="#000000" font-family="sans-serif" font-size="14" lengthAdjust="spacing" textLength="140.0684" x="1915.2118" y="904.3736">RotationExperiment</text><line style="stroke:#181818;stroke-width:0.5;" x1="1803.83" x2="2134.162" y1="915.5269" y2="915.5269"/><text fill="#000000" font-family="sans-serif" font-size="14" lengthAdjust="spacing" textLength="202.8018" x="1808.83" y="932.522">float shutter_opening_time_s</text><text fill="#000000" font-family="sans-serif" font-size="14" lengthAdjust="spacing" textLength="202.9385" x="1808.83" y="948.8189">float rotation_increment_deg</text><text fill="#000000" font-family="sans-serif" font-size="14" lengthAdjust="spacing" textLength="320.332" x="1808.83" y="965.1157">IspybExperimentType ispyb_experiment_type</text><line style="stroke:#181818;stroke-width:0.5;" x1="1803.83" x2="2134.162" y1="972.4175" y2="972.4175"/></g><!--class PinTipCentreThenXrayCentre--><g class="entity" data-entity="PinTipCentreThenXrayCentre" data-source-line="80" data-uid="ent0018" id="entity_PinTipCentreThenXrayCentre"><rect fill="#F1F1F1" height="64.2969" rx="2.5" ry="2.5" style="stroke:#181818;stroke-width:0.5;" width="235.8955" x="2623.05" y="1040.4169"/><ellipse cx="2638.05" cy="1056.4169" fill="#ADD1B2" rx="11" ry="11" style="stroke:#181818;stroke-width:1;"/><path d="M2641.0188,1062.0575 Q2640.4406,1062.3544 2639.8,1062.495 Q2639.1594,1062.6513 2638.4563,1062.6513 Q2635.9563,1062.6513 2634.6281,1061.0106 Q2633.3156,1059.3544 2633.3156,1056.2294 Q2633.3156,1053.1044 2634.6281,1051.4481 Q2635.9563,1049.7919 2638.4563,1049.7919 Q2639.1594,1049.7919 2639.8,1049.9481 Q2640.4563,1050.1044 2641.0188,1050.4013 L2641.0188,1053.12 Q2640.3938,1052.5419 2639.8,1052.2763 Q2639.2063,1051.995 2638.5813,1051.995 Q2637.2375,1051.995 2636.55,1053.0731 Q2635.8625,1054.1356 2635.8625,1056.2294 Q2635.8625,1058.3231 2636.55,1059.4013 Q2637.2375,1060.4638 2638.5813,1060.4638 Q2639.2063,1060.4638 2639.8,1060.1981 Q2640.3938,1059.9169 2641.0188,1059.3388 L2641.0188,1062.0575 Z " fill="#000000"/><text fill="#000000" font-family="sans-serif" font-size="14" lengthAdjust="spacing" textLength="203.8955" x="2652.05" y="1061.2636">PinTipCentreThenXrayCentre</text><line style="stroke:#181818;stroke-width:0.5;" x1="2624.05" x2="2857.9455" y1="1072.4169" y2="1072.4169"/><text fill="#000000" font-family="sans-serif" font-size="14" lengthAdjust="spacing" textLength="130.498" x="2629.05" y="1089.412">float tip_offset_um</text><line style="stroke:#181818;stroke-width:0.5;" x1="2624.05" x2="2857.9455" y1="1096.7138" y2="1096.7138"/></g><!--class GridCommonWithHyperionDetectorParams--><g class="entity" data-entity="GridCommonWithHyperionDetectorParams" data-source-line="83" data-uid="ent0019" id="entity_GridCommonWithHyperionDetectorParams"><rect fill="#F1F1F1" height="48" rx="2.5" ry="2.5" style="stroke:#181818;stroke-width:0.5;" width="333.2188" x="2170.39" y="907.9769"/><ellipse cx="2185.39" cy="923.9769" fill="#ADD1B2" rx="11" ry="11" style="stroke:#181818;stroke-width:1;"/><path d="M2188.3588,929.6175 Q2187.7806,929.9144 2187.14,930.055 Q2186.4994,930.2113 2185.7963,930.2113 Q2183.2963,930.2113 2181.9681,928.5706 Q2180.6556,926.9144 2180.6556,923.7894 Q2180.6556,920.6644 2181.9681,919.0081 Q2183.2963,917.3519 2185.7963,917.3519 Q2186.4994,917.3519 2187.14,917.5081 Q2187.7963,917.6644 2188.3588,917.9613 L2188.3588,920.68 Q2187.7338,920.1019 2187.14,919.8363 Q2186.5463,919.555 2185.9213,919.555 Q2184.5775,919.555 2183.89,920.6331 Q2183.2025,921.6956 2183.2025,923.7894 Q2183.2025,925.8831 2183.89,926.9613 Q2184.5775,928.0238 2185.9213,928.0238 Q2186.5463,928.0238 2187.14,927.7581 Q2187.7338,927.4769 2188.3588,926.8988 L2188.3588,929.6175 Z " fill="#000000"/><text fill="#000000" font-family="sans-serif" font-size="14" lengthAdjust="spacing" textLength="301.2188" x="2199.39" y="928.8236">GridCommonWithHyperionDetectorParams</text><line style="stroke:#181818;stroke-width:0.5;" x1="2171.39" x2="2502.6088" y1="939.9769" y2="939.9769"/><line style="stroke:#181818;stroke-width:0.5;" x1="2171.39" x2="2502.6088" y1="947.9769" y2="947.9769"/></g><!--class RotationScan--><g class="entity" data-entity="RotationScan" data-source-line="85" data-uid="ent0020" id="entity_RotationScan"><rect fill="#F1F1F1" height="64.2969" rx="2.5" ry="2.5" style="stroke:#181818;stroke-width:0.5;" width="540.001" x="1803" y="1040.4169"/><ellipse cx="2022.1431" cy="1056.4169" fill="#ADD1B2" rx="11" ry="11" style="stroke:#181818;stroke-width:1;"/><path d="M2025.1118,1062.0575 Q2024.5337,1062.3544 2023.8931,1062.495 Q2023.2524,1062.6513 2022.5493,1062.6513 Q2020.0493,1062.6513 2018.7212,1061.0106 Q2017.4087,1059.3544 2017.4087,1056.2294 Q2017.4087,1053.1044 2018.7212,1051.4481 Q2020.0493,1049.7919 2022.5493,1049.7919 Q2023.2524,1049.7919 2023.8931,1049.9481 Q2024.5493,1050.1044 2025.1118,1050.4013 L2025.1118,1053.12 Q2024.4868,1052.5419 2023.8931,1052.2763 Q2023.2993,1051.995 2022.6743,1051.995 Q2021.3306,1051.995 2020.6431,1053.0731 Q2019.9556,1054.1356 2019.9556,1056.2294 Q2019.9556,1058.3231 2020.6431,1059.4013 Q2021.3306,1060.4638 2022.6743,1060.4638 Q2023.2993,1060.4638 2023.8931,1060.1981 Q2024.4868,1059.9169 2025.1118,1059.3388 L2025.1118,1062.0575 Z " fill="#000000"/><text fill="#000000" font-family="sans-serif" font-size="14" lengthAdjust="spacing" textLength="93.2148" x="2042.6431" y="1061.2636">RotationScan</text><line style="stroke:#181818;stroke-width:0.5;" x1="1804" x2="2342.001" y1="1072.4169" y2="1072.4169"/><line style="stroke:#181818;stroke-width:0.5;" x1="1804" x2="2342.001" y1="1080.4169" y2="1080.4169"/><text fill="#000000" font-family="sans-serif" font-size="14" lengthAdjust="spacing" textLength="528.001" x="1809" y="1097.412">Annotated[list[RotationScanPerSweep], Len(min_length=1)] rotation_scans</text></g><!--reverse link MxBlueskyParameters to LoadCentreCollect--><g class="link" data-entity-1="MxBlueskyParameters" data-entity-2="LoadCentreCollect" data-source-line="89" data-uid="lnk21" id="link_MxBlueskyParameters_LoadCentreCollect"><path codeLine="89" d="M2518.7628,177.8266 C2634.3528,197.9666 2758.88,228.4769 2795,275.7769 C2945.16,472.4569 2882.6,601.1069 2795,832.5269 C2786.6,854.7169 2770.67,875.1169 2754.71,891.5369" fill="none" id="MxBlueskyParameters-backto-LoadCentreCollect" style="stroke:#181818;stroke-width:1;"/><polygon fill="none" points="2501.03,174.7369,2517.7329,183.7375,2519.7927,171.9156,2501.03,174.7369" style="stroke:#181818;stroke-width:1;"/></g><!--reverse link WithVisit to LoadCentreCollect--><g class="link" data-entity-1="WithVisit" data-entity-2="LoadCentreCollect" data-source-line="90" data-uid="lnk22" id="link_WithVisit_LoadCentreCollect"><path codeLine="90" d="M1502.6735,222.0857 C1511.1335,224.9757 1502.6,221.7069 1511,223.7769 C1634.32,254.2169 2561.48,187.6969 2653,275.7769 C2741.21,360.6769 2720.21,763.2869 2711.09,891.5969" fill="none" id="WithVisit-backto-LoadCentreCollect" style="stroke:#181818;stroke-width:1;"/><polygon fill="none" points="1485.64,216.2669,1500.734,227.7635,1504.6131,216.4078,1485.64,216.2669" style="stroke:#181818;stroke-width:1;"/></g><!--reverse link WithSample to LoadCentreCollect--><g class="link" data-entity-1="WithSample" data-entity-2="LoadCentreCollect" data-source-line="91" data-uid="lnk23" id="link_WithSample_LoadCentreCollect"><path codeLine="91" d="M1172.365,209.6933 C1187.105,219.3533 1188.43,218.3369 1205,223.7769 C1343.82,269.3669 2404,185.6469 2519,275.7769 C2619.05,354.1969 2684.24,762.1069 2702.65,891.5269" fill="none" id="WithSample-backto-LoadCentreCollect" style="stroke:#181818;stroke-width:1;"/><polygon fill="none" points="1157.31,199.8269,1169.0762,214.7117,1175.6538,204.675,1157.31,199.8269" style="stroke:#181818;stroke-width:1;"/></g><!--reverse link WithCentreSelection to LoadCentreCollect--><g class="link" data-entity-1="WithCentreSelection" data-entity-2="LoadCentreCollect" data-source-line="92" data-uid="lnk24" id="link_WithCentreSelection_LoadCentreCollect"><path codeLine="92" d="M1977.8383,187.8968 C2036.3883,202.0168 2090.21,213.5369 2155,223.7769 C2217.71,233.6969 2681.2,228.8869 2724,275.7769 C2806.17,365.8069 2739.6,764.0569 2715.69,891.5669" fill="none" id="WithCentreSelection-backto-LoadCentreCollect" style="stroke:#181818;stroke-width:1;"/><polygon fill="none" points="1960.34,183.6769,1976.4317,193.7296,1979.245,182.064,1960.34,183.6769" style="stroke:#181818;stroke-width:1;"/></g><!--reverse link GridCommonWithHyperionDetectorParams to GridScanWithEdgeDetect--><g class="link" data-entity-1="GridCommonWithHyperionDetectorParams" data-entity-2="GridScanWithEdgeDetect" data-source-line="93" data-uid="lnk25" id="link_GridCommonWithHyperionDetectorParams_GridScanWithEdgeDetect"><path codeLine="93" d="M2374.4954,968.5686 C2401.4454,994.1486 2431.5,1022.6769 2458.48,1048.2969" fill="none" id="GridCommonWithHyperionDetectorParams-backto-GridScanWithEdgeDetect" style="stroke:#181818;stroke-width:1;"/><polygon fill="none" points="2361.44,956.1769,2370.3648,972.9204,2378.626,964.2168,2361.44,956.1769" style="stroke:#181818;stroke-width:1;"/></g><!--reverse link DiffractionExperiment to RotationExperiment--><g class="link" data-entity-1="DiffractionExperiment" data-entity-2="RotationExperiment" data-source-line="94" data-uid="lnk26" id="link_DiffractionExperiment_RotationExperiment"><path codeLine="94" d="M2459.3033,500.8962 C2475.0733,519.6262 2478.3,526.0369 2490,546.7469 C2552.86,657.9769 2610.35,741.2169 2521,832.5269 C2506.7,847.1469 2172.87,835.6869 2153,840.5269 C2116.52,849.4269 2078.85,866.3569 2047.18,883.1769" fill="none" id="DiffractionExperiment-backto-RotationExperiment" style="stroke:#181818;stroke-width:1;"/><polygon fill="none" points="2447.71,487.1269,2454.7135,504.7607,2463.8931,497.0318,2447.71,487.1269" style="stroke:#181818;stroke-width:1;"/></g><!--reverse link MxBlueskyParameters to DiffractionExperiment--><g class="link" data-entity-1="MxBlueskyParameters" data-entity-2="DiffractionExperiment" data-source-line="95" data-uid="lnk27" id="link_MxBlueskyParameters_DiffractionExperiment"><path codeLine="95" d="M2340.9223,201.2925 C2340.3923,225.2725 2340.03,241.8669 2339.3,275.3869" fill="none" id="MxBlueskyParameters-backto-DiffractionExperiment" style="stroke:#181818;stroke-width:1;"/><polygon fill="none" points="2341.32,183.2969,2334.9237,201.1599,2346.9208,201.4251,2341.32,183.2969" style="stroke:#181818;stroke-width:1;"/></g><!--reverse link WithSnapshot to DiffractionExperiment--><g class="link" data-entity-1="WithSnapshot" data-entity-2="DiffractionExperiment" data-source-line="96" data-uid="lnk28" id="link_WithSnapshot_DiffractionExperiment"><path codeLine="96" d="M942.6074,206.8909 C964.1674,216.1209 970.74,217.7069 993,223.7769 C1406.59,336.6469 1913.53,368.1169 2170.53,376.8869" fill="none" id="WithSnapshot-backto-DiffractionExperiment" style="stroke:#181818;stroke-width:1;"/><polygon fill="none" points="926.06,199.8069,940.246,212.4067,944.9687,201.3751,926.06,199.8069" style="stroke:#181818;stroke-width:1;"/></g><!--reverse link WithOptionalEnergyChange to DiffractionExperiment--><g class="link" data-entity-1="WithOptionalEnergyChange" data-entity-2="DiffractionExperiment" data-source-line="97" data-uid="lnk29" id="link_WithOptionalEnergyChange_DiffractionExperiment"><path codeLine="97" d="M597.4734,192.7064 C622.4034,207.4864 638.49,214.6369 669,223.7769 C686.9,229.1369 1751.54,326.7869 2170.36,365.0569" fill="none" id="WithOptionalEnergyChange-backto-DiffractionExperiment" style="stroke:#181818;stroke-width:1;"/><polygon fill="none" points="581.99,183.5269,594.4136,197.8675,600.5333,187.5452,581.99,183.5269" style="stroke:#181818;stroke-width:1;"/></g><!--reverse link WithVisit to DiffractionExperiment--><g class="link" data-entity-1="WithVisit" data-entity-2="DiffractionExperiment" data-source-line="98" data-uid="lnk30" id="link_WithVisit_DiffractionExperiment"><path codeLine="98" d="M1506.2766,222.5531 C1513.4966,225.2831 1503.88,221.4769 1511,223.7769 C1733.71,295.8169 2001.55,339.0169 2170.57,361.2269" fill="none" id="WithVisit-backto-DiffractionExperiment" style="stroke:#181818;stroke-width:1;"/><polygon fill="none" points="1489.44,216.1869,1504.1545,228.1653,1508.3987,216.9409,1489.44,216.1869" style="stroke:#181818;stroke-width:1;"/></g><!--reverse link GridCommonWithHyperionDetectorParams to PinTipCentreThenXrayCentre--><g class="link" data-entity-1="GridCommonWithHyperionDetectorParams" data-entity-2="PinTipCentreThenXrayCentre" data-source-line="99" data-uid="lnk31" id="link_GridCommonWithHyperionDetectorParams_PinTipCentreThenXrayCentre"><path codeLine="99" d="M2422.106,962.1676 C2489.006,985.1176 2574.55,1014.4669 2648.75,1039.9169" fill="none" id="GridCommonWithHyperionDetectorParams-backto-PinTipCentreThenXrayCentre" style="stroke:#181818;stroke-width:1;"/><polygon fill="none" points="2405.08,956.3269,2420.1591,967.843,2424.0529,956.4923,2405.08,956.3269" style="stroke:#181818;stroke-width:1;"/></g><!--reverse link DiffractionExperiment to DiffractionExperimentWithSample--><g class="link" data-entity-1="DiffractionExperiment" data-entity-2="DiffractionExperimentWithSample" data-source-line="100" data-uid="lnk32" id="link_DiffractionExperiment_DiffractionExperimentWithSample"><path codeLine="100" d="M2337,505.2469 C2337,527.4969 2337,530.8969 2337,546.3269" fill="none" id="DiffractionExperiment-backto-DiffractionExperimentWithSample" style="stroke:#181818;stroke-width:1;"/><polygon fill="none" points="2337,487.2469,2331,505.2469,2343,505.2469,2337,487.2469" style="stroke:#181818;stroke-width:1;"/></g><!--reverse link WithSample to DiffractionExperimentWithSample--><g class="link" data-entity-1="WithSample" data-entity-2="DiffractionExperimentWithSample" data-source-line="101" data-uid="lnk33" id="link_WithSample_DiffractionExperimentWithSample"><path codeLine="101" d="M1178.1417,209.6271 C1191.5717,218.3571 1190.86,217.0269 1205,223.7769 C1557.52,392.2469 2010.8,501.3069 2220.74,546.2769" fill="none" id="WithSample-backto-DiffractionExperimentWithSample" style="stroke:#181818;stroke-width:1;"/><polygon fill="none" points="1163.05,199.8169,1174.8717,214.6576,1181.4118,204.5965,1163.05,199.8169" style="stroke:#181818;stroke-width:1;"/></g><!--reverse link DiffractionExperimentWithSample to GridCommon--><g class="link" data-entity-1="DiffractionExperimentWithSample" data-entity-2="GridCommon" data-source-line="102" data-uid="lnk34" id="link_DiffractionExperimentWithSample_GridCommon"><path codeLine="102" d="M2337,612.9369 C2337,628.8869 2337,633.0069 2337,654.5669" fill="none" id="DiffractionExperimentWithSample-backto-GridCommon" style="stroke:#181818;stroke-width:1;"/><polygon fill="none" points="2337,594.9369,2331,612.9369,2343,612.9369,2337,594.9369" style="stroke:#181818;stroke-width:1;"/></g><!--reverse link OptionalGonioAngleStarts to GridCommon--><g class="link" data-entity-1="OptionalGonioAngleStarts" data-entity-2="GridCommon" data-source-line="103" data-uid="lnk35" id="link_OptionalGonioAngleStarts_GridCommon"><path codeLine="103" d="M376.974,216.0268 C389.444,222.1368 386.22,219.6869 399,223.7769 C607.99,290.6969 679.35,214.2769 890,275.7769 C1091.66,334.6569 1115.39,415.4269 1313,486.7469 C1606.69,592.7469 1964.92,664.1769 2170.43,699.9169" fill="none" id="OptionalGonioAngleStarts-backto-GridCommon" style="stroke:#181818;stroke-width:1;"/><polygon fill="none" points="360.81,208.1069,374.334,221.4148,379.614,210.6388,360.81,208.1069" style="stroke:#181818;stroke-width:1;"/></g><!--reverse link GridCommon to GridCommonWithHyperionDetectorParams--><g class="link" data-entity-1="GridCommon" data-entity-2="GridCommonWithHyperionDetectorParams" data-source-line="104" data-uid="lnk36" id="link_GridCommon_GridCommonWithHyperionDetectorParams"><path codeLine="104" d="M2337,818.8269 C2337,856.2869 2337,881.5169 2337,907.5269" fill="none" id="GridCommon-backto-GridCommonWithHyperionDetectorParams" style="stroke:#181818;stroke-width:1;"/><polygon fill="none" points="2337,800.8269,2331,818.8269,2343,818.8269,2337,800.8269" style="stroke:#181818;stroke-width:1;"/></g><!--reverse link RotationExperiment to RotationScan--><g class="link" data-entity-1="RotationExperiment" data-entity-2="RotationScan" data-source-line="105" data-uid="lnk37" id="link_RotationExperiment_RotationScan"><path codeLine="105" d="M2015.5923,995.0651 C2030.4023,1014.8051 2036.35,1022.7269 2049.55,1040.3169" fill="none" id="RotationExperiment-backto-RotationScan" style="stroke:#181818;stroke-width:1;"/><polygon fill="none" points="2004.79,980.6669,2010.7929,998.6659,2020.3918,991.4643,2004.79,980.6669" style="stroke:#181818;stroke-width:1;"/></g><!--reverse link SplitScan to RotationScan--><g class="link" data-entity-1="SplitScan" data-entity-2="RotationScan" data-source-line="106" data-uid="lnk38" id="link_SplitScan_RotationScan"><path codeLine="106" d="M108.0675,189.4895 C120.3875,204.6595 126.51,210.0769 145,223.7769 C429.91,434.9269 864,215.1269 864,569.7469 C864,569.7469 864,569.7469 864,728.6369 C864,922.4769 1446.45,1012.4369 1802.81,1049.3469" fill="none" id="SplitScan-backto-RotationScan" style="stroke:#181818;stroke-width:1;"/><polygon fill="none" points="96.72,175.5169,103.41,193.272,112.7251,185.7069,96.72,175.5169" style="stroke:#181818;stroke-width:1;"/></g><!--SRC=[bLPBR-Cs43wRluAtja0JeFVsa7NIRO7DDgYDjC0Y86XfB16XI88SPQrwyzyx92tPYlp8mWUBCyDvVFFDI3yiQnNuMcdWz2zRj5SL6F0IeUIhZlS7uRGqs3RwsdMCeKAwy4Vdm2jh-8FqiW44p-zj2Pe5G6v84fmiO06Er6WzDzO0OoHxbXNmPYDMkeNmt5qNjccikNQzcy2t36q5M9FBBIkq387_ex1U6Eb2RN7BPWyIQnvsPr4g3mN5wDXCgu1VrjfAVEBV-6UAkJUp3LGoY18gDbjPgtaRG5HUbQ8t2Unr5s_XjC958Srs4CKK_d989KjzHxXKtRoMfW9A9mNiuvNGI5CAI2O2NWO7_UMFrYXxOoeD2vGUmri7AKyHeYudEzAwMftK5MTqpzAvGw-7PIrautGiH1da8Hs4AlEnHp5BNLiy7vKhC_Bug8AAZGhe-GfaenLrFvrUeYO_bX1x5r2W5T585DQyW2SE24SDpaRA118HSC9vMAlD16rClK-Ef2b0DCqeapaOzCH3JMRaXN9QMlVvGtSlDtFR6Xmqv76i-TtwErdimDcRXVGaYkGtCkPrIjVxpOVCxc4uOfSNaHceYaSwHay3vKKJ9qUyPFcG_grQhxrCKUysSTeQYddOhxE6E_JZT8iuZprmi74sj1u4afa8sIeE8TqXSBogAl1nb3dcvvJTgEc-DSAqpGeyczrGF2HtZv8g7bYHC89Io9ss3uvUcj2e4EiKCMSs-pEuRhLFUqbxXROHoGGCGe4apPa6QZPjaCEX7uRPMvMJxO7vIDCzJ_jb6BALtOYW_WFHDhqexO2lgiJwG3Y1wJlo_4vCb1DslQQz6SE_fj-HFLdl5kvuK-OwFrbPPgBFhOvXgDo_xSfYL2nhC5d9VPG9YbeAuglPaJZQeepiYHkFDwr6HLXcaGWa6m4QZI8BxyeARjFuxPdOEnhHC9SPwXOZrwq3eqmru9grGpXb2Wy9oxJ3tezwdyA3CalbSi6nz7-zxF9fUmhnjsI9rVNljzlTWacJ7AQLvfV4xCQOA83oIte57MeVm2- -0hYdd_adC3ysoWWDfiBwjrz-Uk8ZdFCwER8z-A_VhgwcRMR3hZrdaDV5EOitI_AKwNiGodUFyuGTNLJvnfGvft4uweOTVYDSiZls8hzqvm3duqRlX-SqHyz1TE5zCEdr9ViB-dqdSr7ir0VCn73_-5Pr6XWs9S2O695ERFWkc-h-1m00]--></g></svg>