<svg xmlns="http://www.w3.org/2000/svg" xmlns:xlink="http://www.w3.org/1999/xlink" contentStyleType="text/css" data-diagram-type="CLASS" height="1322px" preserveAspectRatio="none" style="width:1449px;height:1322px;background:#FFFFFF;" version="1.1" viewBox="0 0 1449 1322" width="1449px" zoomAndPan="magnify"><title>Gridscan Parameter Relationships</title><defs/><g><text fill="#000000" font-family="sans-serif" font-size="14" font-weight="bold" lengthAdjust="spacing" textLength="269.2949" x="583.2365" y="22.9951">Gridscan Parameter Relationships</text><!--class DiffractionExperiment--><g id="elem_DiffractionExperiment"><rect codeLine="3" fill="#F1F1F1" height="48" id="DiffractionExperiment" rx="2.5" ry="2.5" style="stroke:#181818;stroke-width:0.5;" width="186.2666" x="165.78" y="202.1869"/><ellipse cx="180.78" cy="218.1869" fill="#ADD1B2" rx="11" ry="11" style="stroke:#181818;stroke-width:1;"/><path d="M183.7488,223.8275 Q183.1706,224.1244 182.53,224.265 Q181.8894,224.4213 181.1863,224.4213 Q178.6863,224.4213 177.3581,222.7806 Q176.0456,221.1244 176.0456,217.9994 Q176.0456,214.8744 177.3581,213.2181 Q178.6863,211.5619 181.1863,211.5619 Q181.8894,211.5619 182.53,211.7181 Q183.1863,211.8744 183.7488,212.1713 L183.7488,214.89 Q183.1238,214.3119 182.53,214.0463 Q181.9363,213.765 181.3113,213.765 Q179.9675,213.765 179.28,214.8431 Q178.5925,215.9056 178.5925,217.9994 Q178.5925,220.0931 179.28,221.1713 Q179.9675,222.2338 181.3113,222.2338 Q181.9363,222.2338 182.53,221.9681 Q183.1238,221.6869 183.7488,221.1088 L183.7488,223.8275 Z " fill="#000000"/><text fill="#000000" font-family="sans-serif" font-size="14" lengthAdjust="spacing" textLength="154.2666" x="194.78" y="223.0336">DiffractionExperiment</text><line style="stroke:#181818;stroke-width:0.5;" x1="166.78" x2="351.0466" y1="234.1869" y2="234.1869"/><line style="stroke:#181818;stroke-width:0.5;" x1="166.78" x2="351.0466" y1="242.1869" y2="242.1869"/></g><!--class DiffractionExperimentWithSample--><g id="elem_DiffractionExperimentWithSample"><rect codeLine="4" fill="#F1F1F1" height="48" id="DiffractionExperimentWithSample" rx="2.5" ry="2.5" style="stroke:#181818;stroke-width:0.5;" width="270.8545" x="123.49" y="311.1869"/><ellipse cx="138.49" cy="327.1869" fill="#ADD1B2" rx="11" ry="11" style="stroke:#181818;stroke-width:1;"/><path d="M141.4588,332.8275 Q140.8806,333.1244 140.24,333.265 Q139.5994,333.4213 138.8963,333.4213 Q136.3963,333.4213 135.0681,331.7806 Q133.7556,330.1244 133.7556,326.9994 Q133.7556,323.8744 135.0681,322.2181 Q136.3963,320.5619 138.8963,320.5619 Q139.5994,320.5619 140.24,320.7181 Q140.8963,320.8744 141.4588,321.1713 L141.4588,323.89 Q140.8338,323.3119 140.24,323.0463 Q139.6463,322.765 139.0213,322.765 Q137.6775,322.765 136.99,323.8431 Q136.3025,324.9056 136.3025,326.9994 Q136.3025,329.0931 136.99,330.1713 Q137.6775,331.2338 139.0213,331.2338 Q139.6463,331.2338 140.24,330.9681 Q140.8338,330.6869 141.4588,330.1088 L141.4588,332.8275 Z " fill="#000000"/><text fill="#000000" font-family="sans-serif" font-size="14" lengthAdjust="spacing" textLength="238.8545" x="152.49" y="332.0336">DiffractionExperimentWithSample</text><line style="stroke:#181818;stroke-width:0.5;" x1="124.49" x2="393.3445" y1="343.1869" y2="343.1869"/><line style="stroke:#181818;stroke-width:0.5;" x1="124.49" x2="393.3445" y1="351.1869" y2="351.1869"/></g><!--class GridCommon--><g id="elem_GridCommon"><rect codeLine="5" fill="#F1F1F1" height="80.5938" id="GridCommon" rx="2.5" ry="2.5" style="stroke:#181818;stroke-width:0.5;" width="129.8105" x="194.01" y="428.3369"/><ellipse cx="211.4287" cy="444.3369" fill="#ADD1B2" rx="11" ry="11" style="stroke:#181818;stroke-width:1;"/><path d="M214.3975,449.9775 Q213.8194,450.2744 213.1787,450.415 Q212.5381,450.5712 211.835,450.5712 Q209.335,450.5712 208.0069,448.9306 Q206.6944,447.2744 206.6944,444.1494 Q206.6944,441.0244 208.0069,439.3681 Q209.335,437.7119 211.835,437.7119 Q212.5381,437.7119 213.1787,437.8681 Q213.835,438.0244 214.3975,438.3212 L214.3975,441.04 Q213.7725,440.4619 213.1787,440.1962 Q212.585,439.915 211.96,439.915 Q210.6162,439.915 209.9287,440.9931 Q209.2412,442.0556 209.2412,444.1494 Q209.2412,446.2431 209.9287,447.3212 Q210.6162,448.3837 211.96,448.3837 Q212.585,448.3837 213.1787,448.1181 Q213.7725,447.8369 214.3975,447.2587 L214.3975,449.9775 Z " fill="#000000"/><text fill="#000000" font-family="sans-serif" font-size="14" lengthAdjust="spacing" textLength="92.4355" x="225.9663" y="449.1836">GridCommon</text><line style="stroke:#181818;stroke-width:0.5;" x1="195.01" x2="322.8205" y1="460.3369" y2="460.3369"/><text fill="#000000" font-family="sans-serif" font-size="14" lengthAdjust="spacing" textLength="102.5186" x="200.01" y="477.332">grid_width_um</text><text fill="#000000" font-family="sans-serif" font-size="14" lengthAdjust="spacing" textLength="117.8105" x="200.01" y="493.6289">exposure_time_s</text><line style="stroke:#181818;stroke-width:0.5;" x1="195.01" x2="322.8205" y1="500.9306" y2="500.9306"/></g><!--class GridScanWithEdgeDetect--><g id="elem_GridScanWithEdgeDetect"><rect codeLine="9" fill="#F1F1F1" height="64.2969" id="GridScanWithEdgeDetect" rx="2.5" ry="2.5" style="stroke:#181818;stroke-width:0.5;" width="209.4268" x="230.2" y="675.5669"/><ellipse cx="245.2" cy="691.5669" fill="#ADD1B2" rx="11" ry="11" style="stroke:#181818;stroke-width:1;"/><path d="M248.1688,697.2075 Q247.5906,697.5044 246.95,697.645 Q246.3094,697.8013 245.6063,697.8013 Q243.1063,697.8013 241.7781,696.1606 Q240.4656,694.5044 240.4656,691.3794 Q240.4656,688.2544 241.7781,686.5981 Q243.1063,684.9419 245.6063,684.9419 Q246.3094,684.9419 246.95,685.0981 Q247.6063,685.2544 248.1688,685.5513 L248.1688,688.27 Q247.5438,687.6919 246.95,687.4263 Q246.3563,687.145 245.7313,687.145 Q244.3875,687.145 243.7,688.2231 Q243.0125,689.2856 243.0125,691.3794 Q243.0125,693.4731 243.7,694.5513 Q244.3875,695.6138 245.7313,695.6138 Q246.3563,695.6138 246.95,695.3481 Q247.5438,695.0669 248.1688,694.4888 L248.1688,697.2075 Z " fill="#000000"/><text fill="#000000" font-family="sans-serif" font-size="14" lengthAdjust="spacing" textLength="177.4268" x="259.2" y="696.4136">GridScanWithEdgeDetect</text><line style="stroke:#181818;stroke-width:0.5;" x1="231.2" x2="438.6268" y1="707.5669" y2="707.5669"/><text fill="#000000" font-family="sans-serif" font-size="14" lengthAdjust="spacing" textLength="89.3936" x="236.2" y="724.562">box_size_um</text><line style="stroke:#181818;stroke-width:0.5;" x1="231.2" x2="438.6268" y1="731.8638" y2="731.8638"/></g><!--class HyperionGridCommon--><g id="elem_HyperionGridCommon"><rect codeLine="12" fill="#F1F1F1" height="64.2969" id="HyperionGridCommon" rx="2.5" ry="2.5" style="stroke:#181818;stroke-width:0.5;" width="187.832" x="7" y="675.5669"/><ellipse cx="22" cy="691.5669" fill="#ADD1B2" rx="11" ry="11" style="stroke:#181818;stroke-width:1;"/><path d="M24.9688,697.2075 Q24.3906,697.5044 23.75,697.645 Q23.1094,697.8013 22.4063,697.8013 Q19.9063,697.8013 18.5781,696.1606 Q17.2656,694.5044 17.2656,691.3794 Q17.2656,688.2544 18.5781,686.5981 Q19.9063,684.9419 22.4063,684.9419 Q23.1094,684.9419 23.75,685.0981 Q24.4063,685.2544 24.9688,685.5513 L24.9688,688.27 Q24.3438,687.6919 23.75,687.4263 Q23.1563,687.145 22.5313,687.145 Q21.1875,687.145 20.5,688.2231 Q19.8125,689.2856 19.8125,691.3794 Q19.8125,693.4731 20.5,694.5513 Q21.1875,695.6138 22.5313,695.6138 Q23.1563,695.6138 23.75,695.3481 Q24.3438,695.0669 24.9688,694.4888 L24.9688,697.2075 Z " fill="#000000"/><text fill="#000000" font-family="sans-serif" font-size="14" lengthAdjust="spacing" textLength="155.832" x="36" y="696.4136">HyperionGridCommon</text><line style="stroke:#181818;stroke-width:0.5;" x1="8" x2="193.832" y1="707.5669" y2="707.5669"/><text fill="#000000" font-family="sans-serif" font-size="14" lengthAdjust="spacing" textLength="117.0449" x="13" y="724.562">enable_dev_shm</text><line style="stroke:#181818;stroke-width:0.5;" x1="8" x2="193.832" y1="731.8638" y2="731.8638"/></g><!--class HyperionThreeDGridScan--><g id="elem_HyperionThreeDGridScan"><rect codeLine="15" fill="#F1F1F1" height="292.4531" id="HyperionThreeDGridScan" rx="2.5" ry="2.5" style="stroke:#181818;stroke-width:0.5;" width="210.001" x="477.92" y="898.3469"/><ellipse cx="492.92" cy="914.3469" fill="#ADD1B2" rx="11" ry="11" style="stroke:#181818;stroke-width:1;"/><path d="M495.8888,919.9875 Q495.3106,920.2844 494.67,920.425 Q494.0294,920.5813 493.3263,920.5813 Q490.8263,920.5813 489.4981,918.9406 Q488.1856,917.2844 488.1856,914.1594 Q488.1856,911.0344 489.4981,909.3781 Q490.8263,907.7219 493.3263,907.7219 Q494.0294,907.7219 494.67,907.8781 Q495.3263,908.0344 495.8888,908.3313 L495.8888,911.05 Q495.2638,910.4719 494.67,910.2063 Q494.0763,909.925 493.4513,909.925 Q492.1075,909.925 491.42,911.0031 Q490.7325,912.0656 490.7325,914.1594 Q490.7325,916.2531 491.42,917.3313 Q492.1075,918.3938 493.4513,918.3938 Q494.0763,918.3938 494.67,918.1281 Q495.2638,917.8469 495.8888,917.2688 L495.8888,919.9875 Z " fill="#000000"/><text fill="#000000" font-family="sans-serif" font-size="14" lengthAdjust="spacing" textLength="178.001" x="506.92" y="919.1936">HyperionThreeDGridScan</text><line style="stroke:#181818;stroke-width:0.5;" x1="478.92" x2="686.921" y1="930.3469" y2="930.3469"/><text fill="#000000" font-family="sans-serif" font-size="14" lengthAdjust="spacing" textLength="109.2246" x="483.92" y="947.342">x_step_size_um</text><text fill="#000000" font-family="sans-serif" font-size="14" lengthAdjust="spacing" textLength="109.2246" x="483.92" y="963.6389">y_step_size_um</text><text fill="#000000" font-family="sans-serif" font-size="14" lengthAdjust="spacing" textLength="108.2881" x="483.92" y="979.9357">z_step_size_um</text><text fill="#000000" font-family="sans-serif" font-size="14" lengthAdjust="spacing" textLength="86.3105" x="483.92" y="996.2326">y2_start_um</text><text fill="#000000" font-family="sans-serif" font-size="14" lengthAdjust="spacing" textLength="85.374" x="483.92" y="1012.5295">z2_start_um</text><line style="stroke:#181818;stroke-width:1;" x1="478.92" x2="686.921" y1="1019.8313" y2="1019.8313"/><text fill="#000000" font-family="sans-serif" font-size="14" lengthAdjust="spacing" textLength="82.8174" x="483.92" y="1036.8264">grid_1_spec</text><text fill="#000000" font-family="sans-serif" font-size="14" lengthAdjust="spacing" textLength="82.8174" x="483.92" y="1053.1232">grid_2_spec</text><text fill="#000000" font-family="sans-serif" font-size="14" lengthAdjust="spacing" textLength="88.5869" x="483.92" y="1069.4201">scan_indices</text><text fill="#000000" font-family="sans-serif" font-size="14" lengthAdjust="spacing" textLength="71.9346" x="483.92" y="1085.717">scan_spec</text><text fill="#000000" font-family="sans-serif" font-size="14" lengthAdjust="spacing" textLength="82.4414" x="483.92" y="1102.0139">scan_points</text><text fill="#000000" font-family="sans-serif" font-size="14" lengthAdjust="spacing" textLength="151.2178" x="483.92" y="1118.3107">scan_points_first_grid</text><text fill="#000000" font-family="sans-serif" font-size="14" lengthAdjust="spacing" textLength="173.79" x="483.92" y="1134.6076">scan_points_second_grid</text><text fill="#000000" font-family="sans-serif" font-size="14" lengthAdjust="spacing" textLength="89.2842" x="483.92" y="1150.9045">num_images</text><text fill="#000000" font-family="sans-serif" font-size="14" lengthAdjust="spacing" textLength="87.0762" x="483.92" y="1167.2014">FGS_Params</text><text fill="#000000" font-family="sans-serif" font-size="14" lengthAdjust="spacing" textLength="137.8809" x="483.92" y="1183.4982">panda_FGS_Params</text></g><!--class MxBlueSkyParameters--><g id="elem_MxBlueSkyParameters"><rect codeLine="33" fill="#F1F1F1" height="48" id="MxBlueSkyParameters" rx="2.5" ry="2.5" style="stroke:#181818;stroke-width:0.5;" width="189.3838" x="164.22" y="68.7469"/><ellipse cx="179.22" cy="84.7469" fill="#ADD1B2" rx="11" ry="11" style="stroke:#181818;stroke-width:1;"/><path d="M182.1888,90.3875 Q181.6106,90.6844 180.97,90.825 Q180.3294,90.9813 179.6263,90.9813 Q177.1263,90.9813 175.7981,89.3406 Q174.4856,87.6844 174.4856,84.5594 Q174.4856,81.4344 175.7981,79.7781 Q177.1263,78.1219 179.6263,78.1219 Q180.3294,78.1219 180.97,78.2781 Q181.6263,78.4344 182.1888,78.7313 L182.1888,81.45 Q181.5638,80.8719 180.97,80.6063 Q180.3763,80.325 179.7513,80.325 Q178.4075,80.325 177.72,81.4031 Q177.0325,82.4656 177.0325,84.5594 Q177.0325,86.6531 177.72,87.7313 Q178.4075,88.7938 179.7513,88.7938 Q180.3763,88.7938 180.97,88.5281 Q181.5638,88.2469 182.1888,87.6688 L182.1888,90.3875 Z " fill="#000000"/><text fill="#000000" font-family="sans-serif" font-size="14" lengthAdjust="spacing" textLength="157.3838" x="193.22" y="89.5936">MxBlueSkyParameters</text><line style="stroke:#181818;stroke-width:0.5;" x1="165.22" x2="352.6038" y1="100.7469" y2="100.7469"/><line style="stroke:#181818;stroke-width:0.5;" x1="165.22" x2="352.6038" y1="108.7469" y2="108.7469"/></g><!--class SpecifiedGrid--><g id="elem_SpecifiedGrid"><rect codeLine="34" fill="#F1F1F1" height="48" id="SpecifiedGrid" rx="2.5" ry="2.5" style="stroke:#181818;stroke-width:0.5;" width="125.6729" x="475.08" y="683.7069"/><ellipse cx="490.08" cy="699.7069" fill="#ADD1B2" rx="11" ry="11" style="stroke:#181818;stroke-width:1;"/><path d="M493.0488,705.3475 Q492.4706,705.6444 491.83,705.785 Q491.1894,705.9413 490.4863,705.9413 Q487.9863,705.9413 486.6581,704.3006 Q485.3456,702.6444 485.3456,699.5194 Q485.3456,696.3944 486.6581,694.7381 Q487.9863,693.0819 490.4863,693.0819 Q491.1894,693.0819 491.83,693.2381 Q492.4863,693.3944 493.0488,693.6913 L493.0488,696.41 Q492.4238,695.8319 491.83,695.5663 Q491.2363,695.285 490.6113,695.285 Q489.2675,695.285 488.58,696.3631 Q487.8925,697.4256 487.8925,699.5194 Q487.8925,701.6131 488.58,702.6913 Q489.2675,703.7538 490.6113,703.7538 Q491.2363,703.7538 491.83,703.4881 Q492.4238,703.2069 493.0488,702.6288 L493.0488,705.3475 Z " fill="#000000"/><text fill="#000000" font-family="sans-serif" font-size="14" lengthAdjust="spacing" textLength="93.6729" x="504.08" y="704.5536">SpecifiedGrid</text><line style="stroke:#181818;stroke-width:0.5;" x1="476.08" x2="599.7529" y1="715.7069" y2="715.7069"/><line style="stroke:#181818;stroke-width:0.5;" x1="476.08" x2="599.7529" y1="723.7069" y2="723.7069"/></g><!--class XyzStarts--><g id="elem_XyzStarts"><rect codeLine="35" fill="#F1F1F1" height="96.8906" id="XyzStarts" rx="2.5" ry="2.5" style="stroke:#181818;stroke-width:0.5;" width="98.7188" x="420.56" y="420.1869"/><ellipse cx="435.56" cy="436.1869" fill="#ADD1B2" rx="11" ry="11" style="stroke:#181818;stroke-width:1;"/><path d="M438.5288,441.8275 Q437.9506,442.1244 437.31,442.265 Q436.6694,442.4213 435.9663,442.4213 Q433.4663,442.4213 432.1381,440.7806 Q430.8256,439.1244 430.8256,435.9994 Q430.8256,432.8744 432.1381,431.2181 Q433.4663,429.5619 435.9663,429.5619 Q436.6694,429.5619 437.31,429.7181 Q437.9663,429.8744 438.5288,430.1713 L438.5288,432.89 Q437.9038,432.3119 437.31,432.0463 Q436.7163,431.765 436.0913,431.765 Q434.7475,431.765 434.06,432.8431 Q433.3725,433.9056 433.3725,435.9994 Q433.3725,438.0931 434.06,439.1713 Q434.7475,440.2338 436.0913,440.2338 Q436.7163,440.2338 437.31,439.9681 Q437.9038,439.6869 438.5288,439.1088 L438.5288,441.8275 Z " fill="#000000"/><text fill="#000000" font-family="sans-serif" font-size="14" lengthAdjust="spacing" textLength="66.7188" x="449.56" y="441.0336">XyzStarts</text><line style="stroke:#181818;stroke-width:0.5;" x1="421.56" x2="518.2788" y1="452.1869" y2="452.1869"/><text fill="#000000" font-family="sans-serif" font-size="14" lengthAdjust="spacing" textLength="77.4033" x="426.56" y="469.182">x_start_um</text><text fill="#000000" font-family="sans-serif" font-size="14" lengthAdjust="spacing" textLength="77.4033" x="426.56" y="485.4789">y_start_um</text><text fill="#000000" font-family="sans-serif" font-size="14" lengthAdjust="spacing" textLength="76.4668" x="426.56" y="501.7757">z_start_um</text><line style="stroke:#181818;stroke-width:0.5;" x1="421.56" x2="518.2788" y1="509.0775" y2="509.0775"/></g><!--class OptionalXYZStarts--><g id="elem_OptionalXYZStarts"><rect codeLine="40" fill="#F1F1F1" height="96.8906" id="OptionalXYZStarts" rx="2.5" ry="2.5" style="stroke:#181818;stroke-width:0.5;" width="160.4199" x="403.71" y="44.2969"/><ellipse cx="418.71" cy="60.2969" fill="#ADD1B2" rx="11" ry="11" style="stroke:#181818;stroke-width:1;"/><path d="M421.6788,65.9375 Q421.1006,66.2344 420.46,66.375 Q419.8194,66.5313 419.1163,66.5313 Q416.6163,66.5313 415.2881,64.8906 Q413.9756,63.2344 413.9756,60.1094 Q413.9756,56.9844 415.2881,55.3281 Q416.6163,53.6719 419.1163,53.6719 Q419.8194,53.6719 420.46,53.8281 Q421.1163,53.9844 421.6788,54.2813 L421.6788,57 Q421.0538,56.4219 420.46,56.1563 Q419.8663,55.875 419.2413,55.875 Q417.8975,55.875 417.21,56.9531 Q416.5225,58.0156 416.5225,60.1094 Q416.5225,62.2031 417.21,63.2813 Q417.8975,64.3438 419.2413,64.3438 Q419.8663,64.3438 420.46,64.0781 Q421.0538,63.7969 421.6788,63.2188 L421.6788,65.9375 Z " fill="#000000"/><text fill="#000000" font-family="sans-serif" font-size="14" lengthAdjust="spacing" textLength="128.4199" x="432.71" y="65.1436">OptionalXYZStarts</text><line style="stroke:#181818;stroke-width:0.5;" x1="404.71" x2="563.1299" y1="76.2969" y2="76.2969"/><text fill="#000000" font-family="sans-serif" font-size="14" lengthAdjust="spacing" textLength="77.4033" x="409.71" y="93.292">x_start_um</text><text fill="#000000" font-family="sans-serif" font-size="14" lengthAdjust="spacing" textLength="77.4033" x="409.71" y="109.5889">y_start_um</text><text fill="#000000" font-family="sans-serif" font-size="14" lengthAdjust="spacing" textLength="76.4668" x="409.71" y="125.8857">z_start_um</text><line style="stroke:#181818;stroke-width:0.5;" x1="404.71" x2="563.1299" y1="133.1875" y2="133.1875"/></g><!--class RotationScanPerSweep--><g id="elem_RotationScanPerSweep"><rect codeLine="45" fill="#F1F1F1" height="48" id="RotationScanPerSweep" rx="2.5" ry="2.5" style="stroke:#181818;stroke-width:0.5;" width="194.4766" x="386.68" y="202.1869"/><ellipse cx="401.68" cy="218.1869" fill="#ADD1B2" rx="11" ry="11" style="stroke:#181818;stroke-width:1;"/><path d="M404.6488,223.8275 Q404.0706,224.1244 403.43,224.265 Q402.7894,224.4213 402.0863,224.4213 Q399.5863,224.4213 398.2581,222.7806 Q396.9456,221.1244 396.9456,217.9994 Q396.9456,214.8744 398.2581,213.2181 Q399.5863,211.5619 402.0863,211.5619 Q402.7894,211.5619 403.43,211.7181 Q404.0863,211.8744 404.6488,212.1713 L404.6488,214.89 Q404.0238,214.3119 403.43,214.0463 Q402.8363,213.765 402.2113,213.765 Q400.8675,213.765 400.18,214.8431 Q399.4925,215.9056 399.4925,217.9994 Q399.4925,220.0931 400.18,221.1713 Q400.8675,222.2338 402.2113,222.2338 Q402.8363,222.2338 403.43,221.9681 Q404.0238,221.6869 404.6488,221.1088 L404.6488,223.8275 Z " fill="#000000"/><text fill="#000000" font-family="sans-serif" font-size="14" lengthAdjust="spacing" textLength="162.4766" x="415.68" y="223.0336">RotationScanPerSweep</text><line style="stroke:#181818;stroke-width:0.5;" x1="387.68" x2="580.1566" y1="234.1869" y2="234.1869"/><line style="stroke:#181818;stroke-width:0.5;" x1="387.68" x2="580.1566" y1="242.1869" y2="242.1869"/></g><!--class GridParamUpdate--><g id="elem_GridParamUpdate"><rect codeLine="56" fill="#F1F1F1" height="227.2656" id="GridParamUpdate" rx="2.5" ry="2.5" style="stroke:#181818;stroke-width:0.5;" width="157.0771" x="635.38" y="594.0769"/><ellipse cx="650.38" cy="610.0769" fill="#ADD1B2" rx="11" ry="11" style="stroke:#181818;stroke-width:1;"/><path d="M653.3488,615.7175 Q652.7706,616.0144 652.13,616.155 Q651.4894,616.3113 650.7863,616.3113 Q648.2863,616.3113 646.9581,614.6706 Q645.6456,613.0144 645.6456,609.8894 Q645.6456,606.7644 646.9581,605.1081 Q648.2863,603.4519 650.7863,603.4519 Q651.4894,603.4519 652.13,603.6081 Q652.7863,603.7644 653.3488,604.0613 L653.3488,606.78 Q652.7238,606.2019 652.13,605.9363 Q651.5363,605.655 650.9113,605.655 Q649.5675,605.655 648.88,606.7331 Q648.1925,607.7956 648.1925,609.8894 Q648.1925,611.9831 648.88,613.0613 Q649.5675,614.1238 650.9113,614.1238 Q651.5363,614.1238 652.13,613.8581 Q652.7238,613.5769 653.3488,612.9988 L653.3488,615.7175 Z " fill="#000000"/><text fill="#000000" font-family="sans-serif" font-size="14" lengthAdjust="spacing" textLength="125.0771" x="664.38" y="614.9236">GridParamUpdate</text><line style="stroke:#181818;stroke-width:0.5;" x1="636.38" x2="791.4571" y1="626.0769" y2="626.0769"/><text fill="#000000" font-family="sans-serif" font-size="14" lengthAdjust="spacing" textLength="77.4033" x="641.38" y="643.072">x_start_um</text><text fill="#000000" font-family="sans-serif" font-size="14" lengthAdjust="spacing" textLength="77.4033" x="641.38" y="659.3689">y_start_um</text><text fill="#000000" font-family="sans-serif" font-size="14" lengthAdjust="spacing" textLength="86.3105" x="641.38" y="675.6657">y2_start_um</text><text fill="#000000" font-family="sans-serif" font-size="14" lengthAdjust="spacing" textLength="76.4668" x="641.38" y="691.9626">z_start_um</text><text fill="#000000" font-family="sans-serif" font-size="14" lengthAdjust="spacing" textLength="85.374" x="641.38" y="708.2595">z2_start_um</text><text fill="#000000" font-family="sans-serif" font-size="14" lengthAdjust="spacing" textLength="52.8623" x="641.38" y="724.5564">x_steps</text><text fill="#000000" font-family="sans-serif" font-size="14" lengthAdjust="spacing" textLength="52.8623" x="641.38" y="740.8532">y_steps</text><text fill="#000000" font-family="sans-serif" font-size="14" lengthAdjust="spacing" textLength="51.9258" x="641.38" y="757.1501">z_steps</text><text fill="#000000" font-family="sans-serif" font-size="14" lengthAdjust="spacing" textLength="109.2246" x="641.38" y="773.447">x_step_size_um</text><text fill="#000000" font-family="sans-serif" font-size="14" lengthAdjust="spacing" textLength="109.2246" x="641.38" y="789.7439">y_step_size_um</text><text fill="#000000" font-family="sans-serif" font-size="14" lengthAdjust="spacing" textLength="108.2881" x="641.38" y="806.0407">z_step_size_um</text><line style="stroke:#181818;stroke-width:0.5;" x1="636.38" x2="791.4571" y1="813.3425" y2="813.3425"/></g><!--class GridDetectionCallback--><g id="elem_GridDetectionCallback"><rect codeLine="70" fill="#F1F1F1" height="64.2969" id="GridDetectionCallback" rx="2.5" ry="2.5" style="stroke:#181818;stroke-width:0.5;" width="319.2959" x="554.27" y="436.4869"/><ellipse cx="631.27" cy="452.4869" fill="#ADD1B2" rx="11" ry="11" style="stroke:#181818;stroke-width:1;"/><path d="M634.2388,458.1275 Q633.6606,458.4244 633.02,458.565 Q632.3794,458.7213 631.6763,458.7213 Q629.1763,458.7213 627.8481,457.0806 Q626.5356,455.4244 626.5356,452.2994 Q626.5356,449.1744 627.8481,447.5181 Q629.1763,445.8619 631.6763,445.8619 Q632.3794,445.8619 633.02,446.0181 Q633.6763,446.1744 634.2388,446.4713 L634.2388,449.19 Q633.6138,448.6119 633.02,448.3463 Q632.4263,448.065 631.8013,448.065 Q630.4575,448.065 629.77,449.1431 Q629.0825,450.2056 629.0825,452.2994 Q629.0825,454.3931 629.77,455.4713 Q630.4575,456.5338 631.8013,456.5338 Q632.4263,456.5338 633.02,456.2681 Q633.6138,455.9869 634.2388,455.4088 L634.2388,458.1275 Z " fill="#000000"/><text fill="#000000" font-family="sans-serif" font-size="14" lengthAdjust="spacing" textLength="156.7959" x="651.77" y="457.3336">GridDetectionCallback</text><line style="stroke:#181818;stroke-width:0.5;" x1="555.27" x2="872.5659" y1="468.4869" y2="468.4869"/><line style="stroke:#181818;stroke-width:0.5;" x1="555.27" x2="872.5659" y1="476.4869" y2="476.4869"/><text fill="#000000" font-family="sans-serif" font-size="14" lengthAdjust="spacing" textLength="307.2959" x="560.27" y="493.482">get_grid_parameters() -&gt; GridParamUpdate</text></g><!--class experiment_plans--><g id="elem_experiment_plans"><rect codeLine="77" fill="#F1F1F1" height="96.8906" id="experiment_plans" rx="2.5" ry="2.5" style="stroke:#181818;stroke-width:0.5;" width="843.708" x="599.06" y="44.2969"/><ellipse cx="954.0742" cy="60.2969" fill="#ADD1B2" rx="11" ry="11" style="stroke:#181818;stroke-width:1;"/><path d="M957.0429,65.9375 Q956.4648,66.2344 955.8242,66.375 Q955.1835,66.5313 954.4804,66.5313 Q951.9804,66.5313 950.6523,64.8906 Q949.3398,63.2344 949.3398,60.1094 Q949.3398,56.9844 950.6523,55.3281 Q951.9804,53.6719 954.4804,53.6719 Q955.1835,53.6719 955.8242,53.8281 Q956.4804,53.9844 957.0429,54.2813 L957.0429,57 Q956.4179,56.4219 955.8242,56.1563 Q955.2304,55.875 954.6054,55.875 Q953.2617,55.875 952.5742,56.9531 Q951.8867,58.0156 951.8867,60.1094 Q951.8867,62.2031 952.5742,63.2813 Q953.2617,64.3438 954.6054,64.3438 Q955.2304,64.3438 955.8242,64.0781 Q956.4179,63.7969 957.0429,63.2188 L957.0429,65.9375 Z " fill="#000000"/><text fill="#000000" font-family="sans-serif" font-size="14" lengthAdjust="spacing" textLength="125.1797" x="974.5742" y="65.1436">experiment_plans</text><line style="stroke:#181818;stroke-width:0.5;" x1="600.06" x2="1441.768" y1="76.2969" y2="76.2969"/><line style="stroke:#181818;stroke-width:0.5;" x1="600.06" x2="1441.768" y1="84.2969" y2="84.2969"/><text fill="#000000" font-family="sans-serif" font-size="14" lengthAdjust="spacing" textLength="218.9277" x="605.06" y="101.292">grid_detect_then_xray_centre()</text><text fill="#000000" font-family="sans-serif" font-size="14" lengthAdjust="spacing" textLength="220.958" x="605.06" y="117.5889">flyscan_xray_centre_no_move()</text><text fill="#000000" font-family="sans-serif" font-size="14" lengthAdjust="spacing" textLength="831.708" x="605.06" y="133.8857">create_parameters_for_flyscan_xray_centre(GridScanWithEdgeDetect, GridParamUpdate) -&gt; HyperionThreeDGridScan</text></g><!--class AbstractExperimentBase--><g id="elem_AbstractExperimentBase"><rect codeLine="83" fill="#F1F1F1" height="48" id="AbstractExperimentBase" rx="2.5" ry="2.5" style="stroke:#181818;stroke-width:0.5;" width="205.749" x="966.04" y="444.6369"/><ellipse cx="981.04" cy="460.6369" fill="#ADD1B2" rx="11" ry="11" style="stroke:#181818;stroke-width:1;"/><path d="M984.0088,466.2775 Q983.4306,466.5744 982.79,466.715 Q982.1494,466.8713 981.4463,466.8713 Q978.9463,466.8713 977.6181,465.2306 Q976.3056,463.5744 976.3056,460.4494 Q976.3056,457.3244 977.6181,455.6681 Q978.9463,454.0119 981.4463,454.0119 Q982.1494,454.0119 982.79,454.1681 Q983.4463,454.3244 984.0088,454.6213 L984.0088,457.34 Q983.3838,456.7619 982.79,456.4963 Q982.1963,456.215 981.5713,456.215 Q980.2275,456.215 979.54,457.2931 Q978.8525,458.3556 978.8525,460.4494 Q978.8525,462.5431 979.54,463.6213 Q980.2275,464.6838 981.5713,464.6838 Q982.1963,464.6838 982.79,464.4181 Q983.3838,464.1369 984.0088,463.5588 L984.0088,466.2775 Z " fill="#000000"/><text fill="#000000" font-family="sans-serif" font-size="14" lengthAdjust="spacing" textLength="173.749" x="995.04" y="465.4836">AbstractExperimentBase</text><line style="stroke:#181818;stroke-width:0.5;" x1="967.04" x2="1170.789" y1="476.6369" y2="476.6369"/><line style="stroke:#181818;stroke-width:0.5;" x1="967.04" x2="1170.789" y1="484.6369" y2="484.6369"/></g><!--class AbstractExperimentWithBeamParams--><g id="elem_AbstractExperimentWithBeamParams"><rect codeLine="84" fill="#F1F1F1" height="48" id="AbstractExperimentWithBeamParams" rx="2.5" ry="2.5" style="stroke:#181818;stroke-width:0.5;" width="296.4756" x="889.68" y="683.7069"/><ellipse cx="904.68" cy="699.7069" fill="#ADD1B2" rx="11" ry="11" style="stroke:#181818;stroke-width:1;"/><path d="M907.6488,705.3475 Q907.0706,705.6444 906.43,705.785 Q905.7894,705.9413 905.0863,705.9413 Q902.5863,705.9413 901.2581,704.3006 Q899.9456,702.6444 899.9456,699.5194 Q899.9456,696.3944 901.2581,694.7381 Q902.5863,693.0819 905.0863,693.0819 Q905.7894,693.0819 906.43,693.2381 Q907.0863,693.3944 907.6488,693.6913 L907.6488,696.41 Q907.0238,695.8319 906.43,695.5663 Q905.8363,695.285 905.2113,695.285 Q903.8675,695.285 903.18,696.3631 Q902.4925,697.4256 902.4925,699.5194 Q902.4925,701.6131 903.18,702.6913 Q903.8675,703.7538 905.2113,703.7538 Q905.8363,703.7538 906.43,703.4881 Q907.0238,703.2069 907.6488,702.6288 L907.6488,705.3475 Z " fill="#000000"/><text fill="#000000" font-family="sans-serif" font-size="14" lengthAdjust="spacing" textLength="264.4756" x="918.68" y="704.5536">AbstractExperimentWithBeamParams</text><line style="stroke:#181818;stroke-width:0.5;" x1="890.68" x2="1185.1556" y1="715.7069" y2="715.7069"/><line style="stroke:#181818;stroke-width:0.5;" x1="890.68" x2="1185.1556" y1="723.7069" y2="723.7069"/></g><!--class GridScanParamsCommon--><g id="elem_GridScanParamsCommon"><rect codeLine="85" fill="#F1F1F1" height="227.2656" id="GridScanParamsCommon" rx="2.5" ry="2.5" style="stroke:#181818;stroke-width:0.5;" width="210.7598" x="722.54" y="930.9369"/><ellipse cx="737.54" cy="946.9369" fill="#ADD1B2" rx="11" ry="11" style="stroke:#181818;stroke-width:1;"/><path d="M740.5088,952.5775 Q739.9306,952.8744 739.29,953.015 Q738.6494,953.1713 737.9463,953.1713 Q735.4463,953.1713 734.1181,951.5306 Q732.8056,949.8744 732.8056,946.7494 Q732.8056,943.6244 734.1181,941.9681 Q735.4463,940.3119 737.9463,940.3119 Q738.6494,940.3119 739.29,940.4681 Q739.9463,940.6244 740.5088,940.9213 L740.5088,943.64 Q739.8838,943.0619 739.29,942.7963 Q738.6963,942.515 738.0713,942.515 Q736.7275,942.515 736.04,943.5931 Q735.3525,944.6556 735.3525,946.7494 Q735.3525,948.8431 736.04,949.9213 Q736.7275,950.9838 738.0713,950.9838 Q738.6963,950.9838 739.29,950.7181 Q739.8838,950.4369 740.5088,949.8588 L740.5088,952.5775 Z " fill="#000000"/><text fill="#000000" font-family="sans-serif" font-size="14" lengthAdjust="spacing" textLength="178.7598" x="751.54" y="951.7836">GridScanParamsCommon</text><line style="stroke:#181818;stroke-width:0.5;" x1="723.54" x2="932.2998" y1="962.9369" y2="962.9369"/><text fill="#000000" font-family="sans-serif" font-size="14" lengthAdjust="spacing" textLength="52.8623" x="728.54" y="979.932">x_steps</text><text fill="#000000" font-family="sans-serif" font-size="14" lengthAdjust="spacing" textLength="52.8623" x="728.54" y="996.2289">y_steps</text><text fill="#000000" font-family="sans-serif" font-size="14" lengthAdjust="spacing" textLength="51.9258" x="728.54" y="1012.5257">z_steps</text><text fill="#000000" font-family="sans-serif" font-size="14" lengthAdjust="spacing" textLength="113.9893" x="728.54" y="1028.8226">x_step_size_mm</text><text fill="#000000" font-family="sans-serif" font-size="14" lengthAdjust="spacing" textLength="113.9893" x="728.54" y="1045.1195">y_step_size_mm</text><text fill="#000000" font-family="sans-serif" font-size="14" lengthAdjust="spacing" textLength="113.0527" x="728.54" y="1061.4164">z_step_size_mm</text><text fill="#000000" font-family="sans-serif" font-size="14" lengthAdjust="spacing" textLength="82.168" x="728.54" y="1077.7132">x_start_mm</text><text fill="#000000" font-family="sans-serif" font-size="14" lengthAdjust="spacing" textLength="91.0752" x="728.54" y="1094.0101">y1_start_mm</text><text fill="#000000" font-family="sans-serif" font-size="14" lengthAdjust="spacing" textLength="91.0752" x="728.54" y="1110.307">y2_start_mm</text><text fill="#000000" font-family="sans-serif" font-size="14" lengthAdjust="spacing" textLength="90.1387" x="728.54" y="1126.6039">z1_start_mm</text><text fill="#000000" font-family="sans-serif" font-size="14" lengthAdjust="spacing" textLength="90.1387" x="728.54" y="1142.9007">z2_start_mm</text><line style="stroke:#181818;stroke-width:0.5;" x1="723.54" x2="932.2998" y1="1150.2025" y2="1150.2025"/></g><!--class PandAGridScanParams--><g id="elem_PandAGridScanParams"><rect codeLine="98" fill="#F1F1F1" height="48" id="PandAGridScanParams" rx="2.5" ry="2.5" style="stroke:#181818;stroke-width:0.5;" width="192.0635" x="495.88" y="1267.7969"/><ellipse cx="510.88" cy="1283.7969" fill="#ADD1B2" rx="11" ry="11" style="stroke:#181818;stroke-width:1;"/><path d="M513.8488,1289.4375 Q513.2706,1289.7344 512.63,1289.875 Q511.9894,1290.0313 511.2863,1290.0313 Q508.7863,1290.0313 507.4581,1288.3906 Q506.1456,1286.7344 506.1456,1283.6094 Q506.1456,1280.4844 507.4581,1278.8281 Q508.7863,1277.1719 511.2863,1277.1719 Q511.9894,1277.1719 512.63,1277.3281 Q513.2863,1277.4844 513.8488,1277.7813 L513.8488,1280.5 Q513.2238,1279.9219 512.63,1279.6563 Q512.0363,1279.375 511.4113,1279.375 Q510.0675,1279.375 509.38,1280.4531 Q508.6925,1281.5156 508.6925,1283.6094 Q508.6925,1285.7031 509.38,1286.7813 Q510.0675,1287.8438 511.4113,1287.8438 Q512.0363,1287.8438 512.63,1287.5781 Q513.2238,1287.2969 513.8488,1286.7188 L513.8488,1289.4375 Z " fill="#000000"/><text fill="#000000" font-family="sans-serif" font-size="14" lengthAdjust="spacing" textLength="160.0635" x="524.88" y="1288.6436">PandAGridScanParams</text><line style="stroke:#181818;stroke-width:0.5;" x1="496.88" x2="686.9435" y1="1299.7969" y2="1299.7969"/><line style="stroke:#181818;stroke-width:0.5;" x1="496.88" x2="686.9435" y1="1307.7969" y2="1307.7969"/></g><!--class ZebraGridScanParams--><g id="elem_ZebraGridScanParams"><rect codeLine="99" fill="#F1F1F1" height="48" id="ZebraGridScanParams" rx="2.5" ry="2.5" style="stroke:#181818;stroke-width:0.5;" width="189.1309" x="726.35" y="1267.7969"/><ellipse cx="741.35" cy="1283.7969" fill="#ADD1B2" rx="11" ry="11" style="stroke:#181818;stroke-width:1;"/><path d="M744.3188,1289.4375 Q743.7406,1289.7344 743.1,1289.875 Q742.4594,1290.0313 741.7563,1290.0313 Q739.2563,1290.0313 737.9281,1288.3906 Q736.6156,1286.7344 736.6156,1283.6094 Q736.6156,1280.4844 737.9281,1278.8281 Q739.2563,1277.1719 741.7563,1277.1719 Q742.4594,1277.1719 743.1,1277.3281 Q743.7563,1277.4844 744.3188,1277.7813 L744.3188,1280.5 Q743.6938,1279.9219 743.1,1279.6563 Q742.5063,1279.375 741.8813,1279.375 Q740.5375,1279.375 739.85,1280.4531 Q739.1625,1281.5156 739.1625,1283.6094 Q739.1625,1285.7031 739.85,1286.7813 Q740.5375,1287.8438 741.8813,1287.8438 Q742.5063,1287.8438 743.1,1287.5781 Q743.6938,1287.2969 744.3188,1286.7188 L744.3188,1289.4375 Z " fill="#000000"/><text fill="#000000" font-family="sans-serif" font-size="14" lengthAdjust="spacing" textLength="157.1309" x="755.35" y="1288.6436">ZebraGridScanParams</text><line style="stroke:#181818;stroke-width:0.5;" x1="727.35" x2="914.4809" y1="1299.7969" y2="1299.7969"/><line style="stroke:#181818;stroke-width:0.5;" x1="727.35" x2="914.4809" y1="1307.7969" y2="1307.7969"/></g><!--reverse link MxBlueSkyParameters to DiffractionExperiment--><g id="link_MxBlueSkyParameters_DiffractionExperiment"><path codeLine="47" d="M258.92,135.2469 C258.92,159.1669 258.92,178.0369 258.92,201.8869 " fill="none" id="MxBlueSkyParameters-backto-DiffractionExperiment" style="stroke:#181818;stroke-width:1;"/><polygon fill="none" points="258.92,117.2469,252.92,135.2469,264.92,135.2469,258.92,117.2469" style="stroke:#181818;stroke-width:1;"/></g><!--reverse link DiffractionExperiment to DiffractionExperimentWithSample--><g id="link_DiffractionExperiment_DiffractionExperimentWithSample"><path codeLine="48" d="M258.92,268.6669 C258.92,286.5069 258.92,292.9369 258.92,310.7569 " fill="none" id="DiffractionExperiment-backto-DiffractionExperimentWithSample" style="stroke:#181818;stroke-width:1;"/><polygon fill="none" points="258.92,250.6669,252.92,268.6669,264.92,268.6669,258.92,250.6669" style="stroke:#181818;stroke-width:1;"/></g><!--reverse link DiffractionExperimentWithSample to GridCommon--><g id="link_DiffractionExperimentWithSample_GridCommon"><path codeLine="49" d="M258.92,377.6869 C258.92,396.5869 258.92,405.5769 258.92,427.8369 " fill="none" id="DiffractionExperimentWithSample-backto-GridCommon" style="stroke:#181818;stroke-width:1;"/><polygon fill="none" points="258.92,359.6869,252.92,377.6869,264.92,377.6869,258.92,359.6869" style="stroke:#181818;stroke-width:1;"/></g><!--reverse link GridCommon to GridScanWithEdgeDetect--><g id="link_GridCommon_GridScanWithEdgeDetect"><path codeLine="50" d="M277.1356,526.4574 C292.0956,573.1174 311.12,632.4769 324.83,675.2469 " fill="none" id="GridCommon-backto-GridScanWithEdgeDetect" style="stroke:#181818;stroke-width:1;"/><polygon fill="none" points="271.64,509.3169,271.422,528.2893,282.8491,524.6256,271.64,509.3169" style="stroke:#181818;stroke-width:1;"/></g><!--reverse link GridCommon to HyperionGridCommon--><g id="link_GridCommon_HyperionGridCommon"><path codeLine="51" d="M222.4869,524.2948 C191.3869,570.9548 150.39,632.4769 121.88,675.2469 " fill="none" id="GridCommon-backto-HyperionGridCommon" style="stroke:#181818;stroke-width:1;"/><polygon fill="none" points="232.47,509.3169,217.4942,520.9671,227.4795,527.6225,232.47,509.3169" style="stroke:#181818;stroke-width:1;"/></g><!--reverse link HyperionGridCommon to HyperionThreeDGridScan--><g id="link_HyperionGridCommon_HyperionThreeDGridScan"><path codeLine="52" d="M140.1564,753.3055 C161.7764,777.1655 181.44,796.6869 212.92,821.3469 C296.53,886.8469 400.99,947.9469 477.57,989.4269 " fill="none" id="HyperionGridCommon-backto-HyperionThreeDGridScan" style="stroke:#181818;stroke-width:1;"/><polygon fill="none" points="128.07,739.9669,135.7102,757.3343,144.6026,749.2767,128.07,739.9669" style="stroke:#181818;stroke-width:1;"/></g><!--reverse link SpecifiedGrid to HyperionThreeDGridScan--><g id="link_SpecifiedGrid_HyperionThreeDGridScan"><path codeLine="53" d="M543.4399,749.8262 C548.0999,784.4662 554.82,834.4669 563.36,898.0369 " fill="none" id="SpecifiedGrid-backto-HyperionThreeDGridScan" style="stroke:#181818;stroke-width:1;"/><polygon fill="none" points="541.04,731.9869,537.4934,750.6261,549.3863,749.0262,541.04,731.9869" style="stroke:#181818;stroke-width:1;"/></g><!--reverse link XyzStarts to SpecifiedGrid--><g id="link_XyzStarts_SpecifiedGrid"><path codeLine="54" d="M488.5604,534.6299 C502.9804,584.9299 520.16,644.8069 531.19,683.2569 " fill="none" id="XyzStarts-backto-SpecifiedGrid" style="stroke:#181818;stroke-width:1;"/><polygon fill="none" points="483.6,517.3269,482.7928,536.2834,494.3281,532.9764,483.6,517.3269" style="stroke:#181818;stroke-width:1;"/></g><!--reverse link OptionalXYZStarts to RotationScanPerSweep--><g id="link_OptionalXYZStarts_RotationScanPerSweep"><path codeLine="55" d="M483.92,159.5669 C483.92,180.1269 483.92,185.2069 483.92,201.8969 " fill="none" id="OptionalXYZStarts-backto-RotationScanPerSweep" style="stroke:#181818;stroke-width:1;"/><polygon fill="none" points="483.92,141.5669,477.92,159.5669,489.92,159.5669,483.92,141.5669" style="stroke:#181818;stroke-width:1;"/></g><!--link GridDetectionCallback to GridParamUpdate--><g id="link_GridDetectionCallback_GridParamUpdate"><path codeLine="74" d="M712.41,501.2769 C711.82,515.3069 711.21,532.0069 710.92,547.0769 C710.62,562.1869 710.5403,572.0871 710.6703,587.7771 " fill="none" id="GridDetectionCallback-to-GridParamUpdate" style="stroke:#181818;stroke-width:1;"/><polygon fill="#181818" points="710.72,593.7769,714.6453,584.744,710.6786,588.777,706.6456,584.8103,710.72,593.7769" style="stroke:#181818;stroke-width:1;"/><text fill="#000000" font-family="sans-serif" font-size="13" lengthAdjust="spacing" textLength="330.7192" x="711.92" y="560.1438">generates from event. Adds 0.5 to get box-centres</text></g><!--link GridParamUpdate to HyperionThreeDGridScan--><g id="link_GridParamUpdate_HyperionThreeDGridScan"><path codeLine="75" d="M669.75,821.6169 C660.17,846.1069 652.0868,866.7596 642.0868,892.3096 " fill="none" id="GridParamUpdate-to-HyperionThreeDGridScan" style="stroke:#181818;stroke-width:1;"/><polygon fill="#181818" points="639.9,897.8969,646.9051,890.9738,641.7223,893.2408,639.4553,888.0581,639.9,897.8969" style="stroke:#181818;stroke-width:1;"/><text fill="#000000" font-family="sans-serif" font-size="13" lengthAdjust="spacing" textLength="263.2373" x="656.92" y="864.4138">combines with GridScanWithEdgeDetect</text></g><!--reverse link AbstractExperimentBase to AbstractExperimentWithBeamParams--><g id="link_AbstractExperimentBase_AbstractExperimentWithBeamParams"><path codeLine="101" d="M1063.5547,510.6447 C1057.6247,555.9647 1046.89,638.0569 1040.96,683.4569 " fill="none" id="AbstractExperimentBase-backto-AbstractExperimentWithBeamParams" style="stroke:#181818;stroke-width:1;"/><polygon fill="none" points="1065.89,492.7969,1057.6054,509.8663,1069.5039,511.4232,1065.89,492.7969" style="stroke:#181818;stroke-width:1;"/></g><!--reverse link AbstractExperimentWithBeamParams to GridScanParamsCommon--><g id="link_AbstractExperimentWithBeamParams_GridScanParamsCommon"><path codeLine="102" d="M1013.7557,747.2356 C988.2657,787.8756 943.66,859.0069 898.81,930.5269 " fill="none" id="AbstractExperimentWithBeamParams-backto-GridScanParamsCommon" style="stroke:#181818;stroke-width:1;"/><polygon fill="none" points="1023.32,731.9869,1008.6728,744.0476,1018.8387,750.4237,1023.32,731.9869" style="stroke:#181818;stroke-width:1;"/></g><!--reverse link GridScanParamsCommon to PandAGridScanParams--><g id="link_GridScanParamsCommon_PandAGridScanParams"><path codeLine="103" d="M803.9884,1175.6731 C794.5084,1204.6231 785.73,1216.4669 763.92,1237.7969 C752.13,1249.3169 720.85,1260.3469 688.14,1269.3269 " fill="none" id="GridScanParamsCommon-backto-PandAGridScanParams" style="stroke:#181818;stroke-width:1;"/><polygon fill="none" points="809.59,1158.5669,798.2863,1173.8059,809.6905,1177.5403,809.59,1158.5669" style="stroke:#181818;stroke-width:1;"/></g><!--reverse link GridScanParamsCommon to ZebraGridScanParams--><g id="link_GridScanParamsCommon_ZebraGridScanParams"><path codeLine="104" d="M824.1763,1176.4895 C823.0063,1217.4695 822.31,1241.9069 821.59,1267.3269 " fill="none" id="GridScanParamsCommon-backto-ZebraGridScanParams" style="stroke:#181818;stroke-width:1;"/><polygon fill="none" points="824.69,1158.4969,818.1787,1176.3183,830.1739,1176.6608,824.69,1158.4969" style="stroke:#181818;stroke-width:1;"/></g><!--link HyperionThreeDGridScan to ZebraGridScanParams--><g id="link_HyperionThreeDGridScan_ZebraGridScanParams"><path codeLine="106" d="M688.3,1178.6369 C706.94,1199.3169 726.84,1219.7769 746.92,1237.7969 C758.68,1248.3569 767.6207,1255.3116 780.1507,1264.0616 " fill="none" id="HyperionThreeDGridScan-to-ZebraGridScanParams" style="stroke:#181818;stroke-width:1;"/><polygon fill="#181818" points="785.07,1267.4969,779.9813,1259.0645,780.9706,1264.6342,775.4009,1265.6235,785.07,1267.4969" style="stroke:#181818;stroke-width:1;"/><text fill="#000000" font-family="sans-serif" font-size="13" lengthAdjust="spacing" textLength="65.6665" x="747.92" y="1233.8638">generates</text></g><!--link HyperionThreeDGridScan to PandAGridScanParams--><g id="link_HyperionThreeDGridScan_PandAGridScanParams"><path codeLine="107" d="M582.58,1191.2769 C583.09,1206.9869 583.85,1222.7369 584.92,1237.7969 C585.61,1247.5169 586.0768,1252.235 587.3668,1261.435 " fill="none" id="HyperionThreeDGridScan-to-PandAGridScanParams" style="stroke:#181818;stroke-width:1;"/><polygon fill="#181818" points="588.2,1267.3769,590.9115,1257.9086,587.5057,1262.4253,582.989,1259.0195,588.2,1267.3769" style="stroke:#181818;stroke-width:1;"/><text fill="#000000" font-family="sans-serif" font-size="13" lengthAdjust="spacing" textLength="65.6665" x="585.92" y="1233.8638">generates</text></g><!--SRC=[fLN9Rjmm3BthAtHCW3fe0lGI50MoDRqK3U8MJNCHD3QT4M8ja3J9UDhyUoMliYrFkinfI3uk8lbeosm9-5gpt6HKu1kgAGSB6jz2IIsJmgoPCWXb9JK6NxAYq3Jp-gkj0iqu2BlFzftPTKgvAg55-KmNadCfy4-4tU_1ASWpo-sQR7YjWQsIPgE1M1U26FGIkAQkI1_pAd-0IrTdPjimAxabXkt01-aSFbM-32bcEK7GLGaaXoTYrdFyrxK6kEpIjJukl0NLv_2gQgxQHL0dJaUrxI4JEKc6FXmJeo0Rv9D1zkCXJEGi0pCencObcR1cAfE2QME93pWp6SYao0URs732E7reStoyJacz4esegCWf2PHTvpvlpyiDf8zLlp-cjQIkG5Omo7qxMzrTjKjz1qpGsg0XrQHVWzYb-wBybj7oxiVz_mMwbRPUSZ_d6z3fCu12AF8Q_FvNaYoiVrIxno7Wn2ls9iYmlYZOvDuqfyGCDYS2Yd1Z11rp08t6k1Sv3BT6ZUS_7rmDYevX87qzXcygfnR-QD0pnkqdOCDi4r3Q15ms_yx-5nGyeXcDU-G5BSiLpHwx-mSDDOdgb-tW42SVfYztqJmSnMCbSmTywc8BqEwlmOMM7CEJswuZV9Rd1hyzUeUjzDdzwKmoPz6EzDCOFkx2MJp5cUGh9bpqPxT-IxlOjW3wzIQgfCA4rp-laSIkGP2jfXLfgZauh255MTKNAx0G8GcNJnqYq-1g3Hf82gb9nEyWNkERQUlg_Y_iTp_KivMndhi3SS-fWKMZJtaEbBUNS_n9QvIZRzJVRYMVRoMVRoNd8_vqJiSJ-MGixoRsNM3lJkcD-pQSZT_JMkvXfUd4WkBTQyx1gyrx3J0-Zc5pKRJZDJpsW6Lqz54BJF4aYk13WkvpZHGMklu6]--></g></svg>