<svg xmlns="http://www.w3.org/2000/svg" xmlns:xlink="http://www.w3.org/1999/xlink" contentStyleType="text/css" data-diagram-type="CLASS" height="1104px" preserveAspectRatio="none" style="width:4022px;height:1104px;background:#FFFFFF;" version="1.1" viewBox="0 0 4022 1104" width="4022px" zoomAndPan="magnify"><title>Hyperion Parameter Model</title><defs/><g><g class="title" data-source-line="3"><text fill="#000000" font-family="sans-serif" font-size="14" font-weight="bold" lengthAdjust="spacing" textLength="212.4951" x="1897.8024" y="22.9951">Hyperion Parameter Model</text></g><!--cluster mx_bluesky.common.parameters--><g class="cluster" data-entity="mx_bluesky.common.parameters" data-source-line="6" data-uid="ent0002" id="cluster_mx_bluesky.common.parameters"><path d="M1299.36,43.2969 L1560.6725,43.2969 A3.75,3.75 0 0 1 1563.1725,45.7969 L1570.1725,65.5938 L3780.36,65.5938 A2.5,2.5 0 0 1 3782.86,68.0938 L3782.86,822.0269 A2.5,2.5 0 0 1 3780.36,824.5269 L1299.36,824.5269 A2.5,2.5 0 0 1 1296.86,822.0269 L1296.86,45.7969 A2.5,2.5 0 0 1 1299.36,43.2969" fill="none" style="stroke:#000000;stroke-width:1.5;"/><line style="stroke:#000000;stroke-width:1.5;" x1="1296.86" x2="1570.1725" y1="65.5938" y2="65.5938"/><text fill="#000000" font-family="sans-serif" font-size="14" font-weight="bold" lengthAdjust="spacing" textLength="260.3125" x="1300.86" y="58.292">mx_bluesky.common.parameters</text></g><!--cluster mx_bluesky.hyperion.parameters--><g class="cluster" data-entity="mx_bluesky.hyperion.parameters" data-source-line="71" data-uid="ent0015" id="cluster_mx_bluesky.hyperion.parameters"><path d="M95.36,660.4869 L359.8922,660.4869 A3.75,3.75 0 0 1 362.3922,662.9869 L369.3922,682.7838 L1270.36,682.7838 A2.5,2.5 0 0 1 1272.86,685.2838 L1272.86,1095.2169 A2.5,2.5 0 0 1 1270.36,1097.7169 L95.36,1097.7169 A2.5,2.5 0 0 1 92.86,1095.2169 L92.86,662.9869 A2.5,2.5 0 0 1 95.36,660.4869" fill="none" style="stroke:#000000;stroke-width:1.5;"/><line style="stroke:#000000;stroke-width:1.5;" x1="92.86" x2="369.3922" y1="682.7838" y2="682.7838"/><text fill="#000000" font-family="sans-serif" font-size="14" font-weight="bold" lengthAdjust="spacing" textLength="263.5322" x="96.86" y="675.482">mx_bluesky.hyperion.parameters</text></g><!--class WithOptionalEnergyChange--><g class="entity" data-entity="WithOptionalEnergyChange" data-source-line="8" data-uid="ent0003" id="entity_WithOptionalEnergyChange"><rect fill="#F1F1F1" height="64.2969" rx="2.5" ry="2.5" style="stroke:#181818;stroke-width:0.5;" width="235.4463" x="2536.14" y="118.8869"/><ellipse cx="2555.3245" cy="134.8869" fill="#ADD1B2" rx="11" ry="11" style="stroke:#181818;stroke-width:1;"/><path d="M2558.2932,140.5275 Q2557.7151,140.8244 2557.0745,140.965 Q2556.4338,141.1213 2555.7307,141.1213 Q2553.2307,141.1213 2551.9026,139.4806 Q2550.5901,137.8244 2550.5901,134.6994 Q2550.5901,131.5744 2551.9026,129.9181 Q2553.2307,128.2619 2555.7307,128.2619 Q2556.4338,128.2619 2557.0745,128.4181 Q2557.7307,128.5744 2558.2932,128.8713 L2558.2932,131.59 Q2557.6682,131.0119 2557.0745,130.7463 Q2556.4807,130.465 2555.8557,130.465 Q2554.512,130.465 2553.8245,131.5431 Q2553.137,132.6056 2553.137,134.6994 Q2553.137,136.7931 2553.8245,137.8713 Q2554.512,138.9338 2555.8557,138.9338 Q2556.4807,138.9338 2557.0745,138.6681 Q2557.6682,138.3869 2558.2932,137.8088 L2558.2932,140.5275 Z " fill="#000000"/><text fill="#000000" font-family="sans-serif" font-size="14" lengthAdjust="spacing" textLength="194.1475" x="2570.2544" y="139.7336">WithOptionalEnergyChange</text><line style="stroke:#181818;stroke-width:0.5;" x1="2537.14" x2="2770.5863" y1="150.8869" y2="150.8869"/><text fill="#000000" font-family="sans-serif" font-size="14" lengthAdjust="spacing" textLength="223.4463" x="2542.14" y="167.882">float | None demand_energy_ev</text><line style="stroke:#181818;stroke-width:0.5;" x1="2537.14" x2="2770.5863" y1="175.1838" y2="175.1838"/></g><!--class WithSnapshot--><g class="entity" data-entity="WithSnapshot" data-source-line="11" data-uid="ent0004" id="entity_WithSnapshot"><rect fill="#F1F1F1" height="96.8906" rx="2.5" ry="2.5" style="stroke:#181818;stroke-width:0.5;" width="289.3477" x="2806.19" y="102.5869"/><ellipse cx="2897.8428" cy="118.5869" fill="#ADD1B2" rx="11" ry="11" style="stroke:#181818;stroke-width:1;"/><path d="M2900.8116,124.2275 Q2900.2335,124.5244 2899.5928,124.665 Q2898.9522,124.8213 2898.2491,124.8213 Q2895.7491,124.8213 2894.421,123.1806 Q2893.1085,121.5244 2893.1085,118.3994 Q2893.1085,115.2744 2894.421,113.6181 Q2895.7491,111.9619 2898.2491,111.9619 Q2898.9522,111.9619 2899.5928,112.1181 Q2900.2491,112.2744 2900.8116,112.5713 L2900.8116,115.29 Q2900.1866,114.7119 2899.5928,114.4463 Q2898.9991,114.165 2898.3741,114.165 Q2897.0303,114.165 2896.3428,115.2431 Q2895.6553,116.3056 2895.6553,118.3994 Q2895.6553,120.4931 2896.3428,121.5713 Q2897.0303,122.6338 2898.3741,122.6338 Q2898.9991,122.6338 2899.5928,122.3681 Q2900.1866,122.0869 2900.8116,121.5088 L2900.8116,124.2275 Z " fill="#000000"/><text fill="#000000" font-family="sans-serif" font-size="14" lengthAdjust="spacing" textLength="97.542" x="2918.3428" y="123.4336">WithSnapshot</text><line style="stroke:#181818;stroke-width:0.5;" x1="2807.19" x2="3094.5377" y1="134.5869" y2="134.5869"/><text fill="#000000" font-family="sans-serif" font-size="14" lengthAdjust="spacing" textLength="169.627" x="2812.19" y="151.582">Path snapshot_directory</text><text fill="#000000" font-family="sans-serif" font-size="14" lengthAdjust="spacing" textLength="277.3477" x="2812.19" y="167.8789">list[float] | None snapshot_omegas_deg</text><text fill="#000000" font-family="sans-serif" font-size="14" lengthAdjust="spacing" textLength="171.7051" x="2812.19" y="184.1757">bool use_grid_snapshots</text><line style="stroke:#181818;stroke-width:0.5;" x1="2807.19" x2="3094.5377" y1="191.4775" y2="191.4775"/></g><!--class WithSample--><g class="entity" data-entity="WithSample" data-source-line="16" data-uid="ent0005" id="entity_WithSample"><rect fill="#F1F1F1" height="96.8906" rx="2.5" ry="2.5" style="stroke:#181818;stroke-width:0.5;" width="176.3086" x="1795.71" y="102.5869"/><ellipse cx="1837.5843" cy="118.5869" fill="#ADD1B2" rx="11" ry="11" style="stroke:#181818;stroke-width:1;"/><path d="M1840.5531,124.2275 Q1839.9749,124.5244 1839.3343,124.665 Q1838.6937,124.8213 1837.9906,124.8213 Q1835.4906,124.8213 1834.1624,123.1806 Q1832.8499,121.5244 1832.8499,118.3994 Q1832.8499,115.2744 1834.1624,113.6181 Q1835.4906,111.9619 1837.9906,111.9619 Q1838.6937,111.9619 1839.3343,112.1181 Q1839.9906,112.2744 1840.5531,112.5713 L1840.5531,115.29 Q1839.9281,114.7119 1839.3343,114.4463 Q1838.7406,114.165 1838.1156,114.165 Q1836.7718,114.165 1836.0843,115.2431 Q1835.3968,116.3056 1835.3968,118.3994 Q1835.3968,120.4931 1836.0843,121.5713 Q1836.7718,122.6338 1838.1156,122.6338 Q1838.7406,122.6338 1839.3343,122.3681 Q1839.9281,122.0869 1840.5531,121.5088 L1840.5531,124.2275 Z " fill="#000000"/><text fill="#000000" font-family="sans-serif" font-size="14" lengthAdjust="spacing" textLength="84.5879" x="1857.5564" y="123.4336">WithSample</text><line style="stroke:#181818;stroke-width:0.5;" x1="1796.71" x2="1971.0186" y1="134.5869" y2="134.5869"/><text fill="#000000" font-family="sans-serif" font-size="14" lengthAdjust="spacing" textLength="93.3789" x="1801.71" y="151.582">int sample_id</text><text fill="#000000" font-family="sans-serif" font-size="14" lengthAdjust="spacing" textLength="164.3086" x="1801.71" y="167.8789">int | None sample_puck</text><text fill="#000000" font-family="sans-serif" font-size="14" lengthAdjust="spacing" textLength="152.3936" x="1801.71" y="184.1757">int | None sample_pin</text><line style="stroke:#181818;stroke-width:0.5;" x1="1796.71" x2="1971.0186" y1="191.4775" y2="191.4775"/></g><!--class SplitScan--><g class="entity" data-entity="SplitScan" data-source-line="21" data-uid="ent0006" id="entity_SplitScan"><rect fill="#F1F1F1" height="48" rx="2.5" ry="2.5" style="stroke:#181818;stroke-width:0.5;" width="97.0781" x="1321.33" y="127.0369"/><ellipse cx="1336.33" cy="143.0369" fill="#ADD1B2" rx="11" ry="11" style="stroke:#181818;stroke-width:1;"/><path d="M1339.2988,148.6775 Q1338.7206,148.9744 1338.08,149.115 Q1337.4394,149.2713 1336.7363,149.2713 Q1334.2363,149.2713 1332.9081,147.6306 Q1331.5956,145.9744 1331.5956,142.8494 Q1331.5956,139.7244 1332.9081,138.0681 Q1334.2363,136.4119 1336.7363,136.4119 Q1337.4394,136.4119 1338.08,136.5681 Q1338.7363,136.7244 1339.2988,137.0213 L1339.2988,139.74 Q1338.6738,139.1619 1338.08,138.8963 Q1337.4863,138.615 1336.8613,138.615 Q1335.5175,138.615 1334.83,139.6931 Q1334.1425,140.7556 1334.1425,142.8494 Q1334.1425,144.9431 1334.83,146.0213 Q1335.5175,147.0838 1336.8613,147.0838 Q1337.4863,147.0838 1338.08,146.8181 Q1338.6738,146.5369 1339.2988,145.9588 L1339.2988,148.6775 Z " fill="#000000"/><text fill="#000000" font-family="sans-serif" font-size="14" lengthAdjust="spacing" textLength="65.0781" x="1350.33" y="147.8836">SplitScan</text><line style="stroke:#181818;stroke-width:0.5;" x1="1322.33" x2="1417.4081" y1="159.0369" y2="159.0369"/><line style="stroke:#181818;stroke-width:0.5;" x1="1322.33" x2="1417.4081" y1="167.0369" y2="167.0369"/></g><!--class WithCentreSelection--><g class="entity" data-entity="WithCentreSelection" data-source-line="23" data-uid="ent0007" id="entity_WithCentreSelection"><rect fill="#F1F1F1" height="64.2969" rx="2.5" ry="2.5" style="stroke:#181818;stroke-width:0.5;" width="306.7861" x="1453.47" y="118.8869"/><ellipse cx="1530.7469" cy="134.8869" fill="#ADD1B2" rx="11" ry="11" style="stroke:#181818;stroke-width:1;"/><path d="M1533.7156,140.5275 Q1533.1375,140.8244 1532.4969,140.965 Q1531.8562,141.1213 1531.1531,141.1213 Q1528.6531,141.1213 1527.325,139.4806 Q1526.0125,137.8244 1526.0125,134.6994 Q1526.0125,131.5744 1527.325,129.9181 Q1528.6531,128.2619 1531.1531,128.2619 Q1531.8562,128.2619 1532.4969,128.4181 Q1533.1531,128.5744 1533.7156,128.8713 L1533.7156,131.59 Q1533.0906,131.0119 1532.4969,130.7463 Q1531.9031,130.465 1531.2781,130.465 Q1529.9344,130.465 1529.2469,131.5431 Q1528.5594,132.6056 1528.5594,134.6994 Q1528.5594,136.7931 1529.2469,137.8713 Q1529.9344,138.9338 1531.2781,138.9338 Q1531.9031,138.9338 1532.4969,138.6681 Q1533.0906,138.3869 1533.7156,137.8088 L1533.7156,140.5275 Z " fill="#000000"/><text fill="#000000" font-family="sans-serif" font-size="14" lengthAdjust="spacing" textLength="143.7324" x="1551.2469" y="139.7336">WithCentreSelection</text><line style="stroke:#181818;stroke-width:0.5;" x1="1454.47" x2="1759.2561" y1="150.8869" y2="150.8869"/><text fill="#000000" font-family="sans-serif" font-size="14" lengthAdjust="spacing" textLength="294.7861" x="1459.47" y="167.882">TopNByMaxCountSelection select_centres</text><line style="stroke:#181818;stroke-width:0.5;" x1="1454.47" x2="1759.2561" y1="175.1838" y2="175.1838"/></g><!--class WithPandaGridScan--><g class="entity" data-entity="WithPandaGridScan" data-source-line="26" data-uid="ent0008" id="entity_WithPandaGridScan"><rect fill="#F1F1F1" height="64.2969" rx="2.5" ry="2.5" style="stroke:#181818;stroke-width:0.5;" width="240.5664" x="2006.58" y="118.8869"/><ellipse cx="2053.1772" cy="134.8869" fill="#ADD1B2" rx="11" ry="11" style="stroke:#181818;stroke-width:1;"/><path d="M2056.1459,140.5275 Q2055.5678,140.8244 2054.9272,140.965 Q2054.2865,141.1213 2053.5834,141.1213 Q2051.0834,141.1213 2049.7553,139.4806 Q2048.4428,137.8244 2048.4428,134.6994 Q2048.4428,131.5744 2049.7553,129.9181 Q2051.0834,128.2619 2053.5834,128.2619 Q2054.2865,128.2619 2054.9272,128.4181 Q2055.5834,128.5744 2056.1459,128.8713 L2056.1459,131.59 Q2055.5209,131.0119 2054.9272,130.7463 Q2054.3334,130.465 2053.7084,130.465 Q2052.3647,130.465 2051.6772,131.5431 Q2050.9897,132.6056 2050.9897,134.6994 Q2050.9897,136.7931 2051.6772,137.8713 Q2052.3647,138.9338 2053.7084,138.9338 Q2054.3334,138.9338 2054.9272,138.6681 Q2055.5209,138.3869 2056.1459,137.8088 L2056.1459,140.5275 Z " fill="#000000"/><text fill="#000000" font-family="sans-serif" font-size="14" lengthAdjust="spacing" textLength="138.8721" x="2073.6772" y="139.7336">WithPandaGridScan</text><line style="stroke:#181818;stroke-width:0.5;" x1="2007.58" x2="2246.1464" y1="150.8869" y2="150.8869"/><text fill="#000000" font-family="sans-serif" font-size="14" lengthAdjust="spacing" textLength="228.5664" x="2012.58" y="167.882">float panda_runup_distance_mm</text><line style="stroke:#181818;stroke-width:0.5;" x1="2007.58" x2="2246.1464" y1="175.1838" y2="175.1838"/></g><!--class OptionalGonioAngleStarts--><g class="entity" data-entity="OptionalGonioAngleStarts" data-source-line="29" data-uid="ent0009" id="entity_OptionalGonioAngleStarts"><rect fill="#F1F1F1" height="113.1875" rx="2.5" ry="2.5" style="stroke:#181818;stroke-width:0.5;" width="219.3203" x="2282.2" y="94.4469"/><ellipse cx="2299.9233" cy="110.4469" fill="#ADD1B2" rx="11" ry="11" style="stroke:#181818;stroke-width:1;"/><path d="M2302.892,116.0875 Q2302.3139,116.3844 2301.6733,116.525 Q2301.0327,116.6813 2300.3295,116.6813 Q2297.8295,116.6813 2296.5014,115.0406 Q2295.1889,113.3844 2295.1889,110.2594 Q2295.1889,107.1344 2296.5014,105.4781 Q2297.8295,103.8219 2300.3295,103.8219 Q2301.0327,103.8219 2301.6733,103.9781 Q2302.3295,104.1344 2302.892,104.4313 L2302.892,107.15 Q2302.267,106.5719 2301.6733,106.3063 Q2301.0795,106.025 2300.4545,106.025 Q2299.1108,106.025 2298.4233,107.1031 Q2297.7358,108.1656 2297.7358,110.2594 Q2297.7358,112.3531 2298.4233,113.4313 Q2299.1108,114.4938 2300.4545,114.4938 Q2301.0795,114.4938 2301.6733,114.2281 Q2302.267,113.9469 2302.892,113.3688 L2302.892,116.0875 Z " fill="#000000"/><text fill="#000000" font-family="sans-serif" font-size="14" lengthAdjust="spacing" textLength="181.2686" x="2314.5285" y="115.2936">OptionalGonioAngleStarts</text><line style="stroke:#181818;stroke-width:0.5;" x1="2283.2" x2="2500.5203" y1="126.4469" y2="126.4469"/><text fill="#000000" font-family="sans-serif" font-size="14" lengthAdjust="spacing" textLength="207.3203" x="2288.2" y="143.442">float | None omega_start_deg</text><text fill="#000000" font-family="sans-serif" font-size="14" lengthAdjust="spacing" textLength="180.6875" x="2288.2" y="159.7389">float | None phi_start_deg</text><text fill="#000000" font-family="sans-serif" font-size="14" lengthAdjust="spacing" textLength="179.498" x="2288.2" y="176.0357">float | None chi_start_deg</text><text fill="#000000" font-family="sans-serif" font-size="14" lengthAdjust="spacing" textLength="202.0771" x="2288.2" y="192.3326">float | None kappa_start_deg</text><line style="stroke:#181818;stroke-width:0.5;" x1="2283.2" x2="2500.5203" y1="199.6344" y2="199.6344"/></g><!--class WithVisit--><g class="entity" data-entity="WithVisit" data-source-line="35" data-uid="ent0010" id="entity_WithVisit"><rect fill="#F1F1F1" height="129.4844" rx="2.5" ry="2.5" style="stroke:#181818;stroke-width:0.5;" width="271.7861" x="3130.97" y="86.2969"/><ellipse cx="3231.4959" cy="102.2969" fill="#ADD1B2" rx="11" ry="11" style="stroke:#181818;stroke-width:1;"/><path d="M3234.4646,107.9375 Q3233.8865,108.2344 3233.2459,108.375 Q3232.6053,108.5313 3231.9021,108.5313 Q3229.4021,108.5313 3228.074,106.8906 Q3226.7615,105.2344 3226.7615,102.1094 Q3226.7615,98.9844 3228.074,97.3281 Q3229.4021,95.6719 3231.9021,95.6719 Q3232.6053,95.6719 3233.2459,95.8281 Q3233.9021,95.9844 3234.4646,96.2813 L3234.4646,99 Q3233.8396,98.4219 3233.2459,98.1563 Q3232.6521,97.875 3232.0271,97.875 Q3230.6834,97.875 3229.9959,98.9531 Q3229.3084,100.0156 3229.3084,102.1094 Q3229.3084,104.2031 3229.9959,105.2813 Q3230.6834,106.3438 3232.0271,106.3438 Q3232.6521,106.3438 3233.2459,106.0781 Q3233.8396,105.7969 3234.4646,105.2188 L3234.4646,107.9375 Z " fill="#000000"/><text fill="#000000" font-family="sans-serif" font-size="14" lengthAdjust="spacing" textLength="62.2344" x="3251.9959" y="107.1436">WithVisit</text><line style="stroke:#181818;stroke-width:0.5;" x1="3131.97" x2="3401.7561" y1="118.2969" y2="118.2969"/><text fill="#000000" font-family="sans-serif" font-size="14" lengthAdjust="spacing" textLength="87.9717" x="3136.97" y="135.292">str beamline</text><text fill="#000000" font-family="sans-serif" font-size="14" lengthAdjust="spacing" textLength="51.8369" x="3136.97" y="151.5889">str visit</text><text fill="#000000" font-family="sans-serif" font-size="14" lengthAdjust="spacing" textLength="259.7861" x="3136.97" y="167.8857">str det_dist_to_beam_converter_path</text><text fill="#000000" font-family="sans-serif" font-size="14" lengthAdjust="spacing" textLength="131.5918" x="3136.97" y="184.1826">str insertion_prefix</text><text fill="#000000" font-family="sans-serif" font-size="14" lengthAdjust="spacing" textLength="245.752" x="3136.97" y="200.4795">float | None detector_distance_mm</text><line style="stroke:#181818;stroke-width:0.5;" x1="3131.97" x2="3401.7561" y1="207.7813" y2="207.7813"/></g><!--class DiffractionExperimentWithSample--><g class="entity" data-entity="DiffractionExperimentWithSample" data-source-line="44" data-uid="ent0011" id="entity_DiffractionExperimentWithSample"><rect fill="#F1F1F1" height="48" rx="2.5" ry="2.5" style="stroke:#181818;stroke-width:0.5;" width="270.8545" x="3441.44" y="546.7469"/><ellipse cx="3456.44" cy="562.7469" fill="#ADD1B2" rx="11" ry="11" style="stroke:#181818;stroke-width:1;"/><path d="M3459.4088,568.3875 Q3458.8306,568.6844 3458.19,568.825 Q3457.5494,568.9813 3456.8463,568.9813 Q3454.3463,568.9813 3453.0181,567.3406 Q3451.7056,565.6844 3451.7056,562.5594 Q3451.7056,559.4344 3453.0181,557.7781 Q3454.3463,556.1219 3456.8463,556.1219 Q3457.5494,556.1219 3458.19,556.2781 Q3458.8463,556.4344 3459.4088,556.7313 L3459.4088,559.45 Q3458.7838,558.8719 3458.19,558.6063 Q3457.5963,558.325 3456.9713,558.325 Q3455.6275,558.325 3454.94,559.4031 Q3454.2525,560.4656 3454.2525,562.5594 Q3454.2525,564.6531 3454.94,565.7313 Q3455.6275,566.7938 3456.9713,566.7938 Q3457.5963,566.7938 3458.19,566.5281 Q3458.7838,566.2469 3459.4088,565.6688 L3459.4088,568.3875 Z " fill="#000000"/><text fill="#000000" font-family="sans-serif" font-size="14" lengthAdjust="spacing" textLength="238.8545" x="3470.44" y="567.5936">DiffractionExperimentWithSample</text><line style="stroke:#181818;stroke-width:0.5;" x1="3442.44" x2="3711.2945" y1="578.7469" y2="578.7469"/><line style="stroke:#181818;stroke-width:0.5;" x1="3442.44" x2="3711.2945" y1="586.7469" y2="586.7469"/></g><!--class MxBlueskyParameters--><g class="entity" data-entity="MxBlueskyParameters" data-source-line="46" data-uid="ent0012" id="entity_MxBlueskyParameters"><rect fill="#F1F1F1" height="64.2969" rx="2.5" ry="2.5" style="stroke:#181818;stroke-width:0.5;" width="317.4639" x="3439.13" y="118.8869"/><ellipse cx="3515.7164" cy="134.8869" fill="#ADD1B2" rx="11" ry="11" style="stroke:#181818;stroke-width:1;"/><path d="M3518.6852,140.5275 Q3518.1071,140.8244 3517.4664,140.965 Q3516.8258,141.1213 3516.1227,141.1213 Q3513.6227,141.1213 3512.2946,139.4806 Q3510.9821,137.8244 3510.9821,134.6994 Q3510.9821,131.5744 3512.2946,129.9181 Q3513.6227,128.2619 3516.1227,128.2619 Q3516.8258,128.2619 3517.4664,128.4181 Q3518.1227,128.5744 3518.6852,128.8713 L3518.6852,131.59 Q3518.0602,131.0119 3517.4664,130.7463 Q3516.8727,130.465 3516.2477,130.465 Q3514.9039,130.465 3514.2164,131.5431 Q3513.5289,132.6056 3513.5289,134.6994 Q3513.5289,136.7931 3514.2164,137.8713 Q3514.9039,138.9338 3516.2477,138.9338 Q3516.8727,138.9338 3517.4664,138.6681 Q3518.0602,138.3869 3518.6852,137.8088 L3518.6852,140.5275 Z " fill="#000000"/><text fill="#000000" font-family="sans-serif" font-size="14" lengthAdjust="spacing" textLength="155.791" x="3536.2164" y="139.7336">MxBlueskyParameters</text><line style="stroke:#181818;stroke-width:0.5;" x1="3440.13" x2="3755.5939" y1="150.8869" y2="150.8869"/><text fill="#000000" font-family="sans-serif" font-size="14" lengthAdjust="spacing" textLength="305.4639" x="3445.13" y="167.882">SemanticVersion parameter_model_version</text><line style="stroke:#181818;stroke-width:0.5;" x1="3440.13" x2="3755.5939" y1="175.1838" y2="175.1838"/></g><!--class DiffractionExperiment--><g class="entity" data-entity="DiffractionExperiment" data-source-line="49" data-uid="ent0013" id="entity_DiffractionExperiment"><rect fill="#F1F1F1" height="210.9688" rx="2.5" ry="2.5" style="stroke:#181818;stroke-width:0.5;" width="332.332" x="3426.7" y="275.7769"/><ellipse cx="3511.4827" cy="291.7769" fill="#ADD1B2" rx="11" ry="11" style="stroke:#181818;stroke-width:1;"/><path d="M3514.4515,297.4175 Q3513.8733,297.7144 3513.2327,297.855 Q3512.5921,298.0113 3511.889,298.0113 Q3509.389,298.0113 3508.0608,296.3706 Q3506.7483,294.7144 3506.7483,291.5894 Q3506.7483,288.4644 3508.0608,286.8081 Q3509.389,285.1519 3511.889,285.1519 Q3512.5921,285.1519 3513.2327,285.3081 Q3513.889,285.4644 3514.4515,285.7613 L3514.4515,288.48 Q3513.8265,287.9019 3513.2327,287.6363 Q3512.639,287.355 3512.014,287.355 Q3510.6702,287.355 3509.9827,288.4331 Q3509.2952,289.4956 3509.2952,291.5894 Q3509.2952,293.6831 3509.9827,294.7613 Q3510.6702,295.8238 3512.014,295.8238 Q3512.639,295.8238 3513.2327,295.5581 Q3513.8265,295.2769 3514.4515,294.6988 L3514.4515,297.4175 Z " fill="#000000"/><text fill="#000000" font-family="sans-serif" font-size="14" lengthAdjust="spacing" textLength="154.2666" x="3531.9827" y="296.6236">DiffractionExperiment</text><line style="stroke:#181818;stroke-width:0.5;" x1="3427.7" x2="3758.032" y1="307.7769" y2="307.7769"/><text fill="#000000" font-family="sans-serif" font-size="14" lengthAdjust="spacing" textLength="91.0137" x="3432.7" y="324.772">str file_name</text><text fill="#000000" font-family="sans-serif" font-size="14" lengthAdjust="spacing" textLength="153.7129" x="3432.7" y="341.0689">float exposure_time_s</text><text fill="#000000" font-family="sans-serif" font-size="14" lengthAdjust="spacing" textLength="89.5029" x="3432.7" y="357.3657">str comment</text><text fill="#000000" font-family="sans-serif" font-size="14" lengthAdjust="spacing" textLength="186.915" x="3432.7" y="373.6626">TriggerMode trigger_mode</text><text fill="#000000" font-family="sans-serif" font-size="14" lengthAdjust="spacing" textLength="157.9854" x="3432.7" y="389.9595">int | None run_number</text><text fill="#000000" font-family="sans-serif" font-size="14" lengthAdjust="spacing" textLength="282.3516" x="3432.7" y="406.2564">ApertureValue | None selected_aperture</text><text fill="#000000" font-family="sans-serif" font-size="14" lengthAdjust="spacing" textLength="159.2979" x="3432.7" y="422.5532">float transmission_frac</text><text fill="#000000" font-family="sans-serif" font-size="14" lengthAdjust="spacing" textLength="320.332" x="3432.7" y="438.8501">IspybExperimentType ispyb_experiment_type</text><text fill="#000000" font-family="sans-serif" font-size="14" lengthAdjust="spacing" textLength="146.1113" x="3432.7" y="455.147">str storage_directory</text><text fill="#000000" font-family="sans-serif" font-size="14" lengthAdjust="spacing" textLength="131.0518" x="3432.7" y="471.4439">bool use_roi_mode</text><line style="stroke:#181818;stroke-width:0.5;" x1="3427.7" x2="3758.032" y1="478.7456" y2="478.7456"/></g><!--class GridCommon--><g class="entity" data-entity="GridCommon" data-source-line="61" data-uid="ent0014" id="entity_GridCommon"><rect fill="#F1F1F1" height="145.7813" rx="2.5" ry="2.5" style="stroke:#181818;stroke-width:0.5;" width="332.332" x="3426.7" y="654.7469"/><ellipse cx="3542.3982" cy="670.7469" fill="#ADD1B2" rx="11" ry="11" style="stroke:#181818;stroke-width:1;"/><path d="M3545.367,676.3875 Q3544.7889,676.6844 3544.1482,676.825 Q3543.5076,676.9813 3542.8045,676.9813 Q3540.3045,676.9813 3538.9764,675.3406 Q3537.6639,673.6844 3537.6639,670.5594 Q3537.6639,667.4344 3538.9764,665.7781 Q3540.3045,664.1219 3542.8045,664.1219 Q3543.5076,664.1219 3544.1482,664.2781 Q3544.8045,664.4344 3545.367,664.7313 L3545.367,667.45 Q3544.742,666.8719 3544.1482,666.6063 Q3543.5545,666.325 3542.9295,666.325 Q3541.5857,666.325 3540.8982,667.4031 Q3540.2107,668.4656 3540.2107,670.5594 Q3540.2107,672.6531 3540.8982,673.7313 Q3541.5857,674.7938 3542.9295,674.7938 Q3543.5545,674.7938 3544.1482,674.5281 Q3544.742,674.2469 3545.367,673.6688 L3545.367,676.3875 Z " fill="#000000"/><text fill="#000000" font-family="sans-serif" font-size="14" lengthAdjust="spacing" textLength="92.4355" x="3562.8982" y="675.5936">GridCommon</text><line style="stroke:#181818;stroke-width:0.5;" x1="3427.7" x2="3758.032" y1="686.7469" y2="686.7469"/><text fill="#000000" font-family="sans-serif" font-size="14" lengthAdjust="spacing" textLength="125.2959" x="3432.7" y="703.742">float box_size_um</text><text fill="#000000" font-family="sans-serif" font-size="14" lengthAdjust="spacing" textLength="138.4209" x="3432.7" y="720.0389">float grid_width_um</text><text fill="#000000" font-family="sans-serif" font-size="14" lengthAdjust="spacing" textLength="153.7129" x="3432.7" y="736.3357">float exposure_time_s</text><text fill="#000000" font-family="sans-serif" font-size="14" lengthAdjust="spacing" textLength="320.332" x="3432.7" y="752.6326">IspybExperimentType ispyb_experiment_type</text><text fill="#000000" font-family="sans-serif" font-size="14" lengthAdjust="spacing" textLength="282.3516" x="3432.7" y="768.9295">ApertureValue | None selected_aperture</text><text fill="#000000" font-family="sans-serif" font-size="14" lengthAdjust="spacing" textLength="130.498" x="3432.7" y="785.2264">float tip_offset_um</text><line style="stroke:#181818;stroke-width:0.5;" x1="3427.7" x2="3758.032" y1="792.5281" y2="792.5281"/></g><!--class GridCommonWithHyperionDetectorParams--><g class="entity" data-entity="GridCommonWithHyperionDetectorParams" data-source-line="72" data-uid="ent0016" id="entity_GridCommonWithHyperionDetectorParams"><rect fill="#F1F1F1" height="48" rx="2.5" ry="2.5" style="stroke:#181818;stroke-width:0.5;" width="333.2188" x="923.25" y="884.9769"/><ellipse cx="938.25" cy="900.9769" fill="#ADD1B2" rx="11" ry="11" style="stroke:#181818;stroke-width:1;"/><path d="M941.2188,906.6175 Q940.6406,906.9144 940,907.055 Q939.3594,907.2113 938.6563,907.2113 Q936.1563,907.2113 934.8281,905.5706 Q933.5156,903.9144 933.5156,900.7894 Q933.5156,897.6644 934.8281,896.0081 Q936.1563,894.3519 938.6563,894.3519 Q939.3594,894.3519 940,894.5081 Q940.6563,894.6644 941.2188,894.9613 L941.2188,897.68 Q940.5938,897.1019 940,896.8363 Q939.4063,896.555 938.7813,896.555 Q937.4375,896.555 936.75,897.6331 Q936.0625,898.6956 936.0625,900.7894 Q936.0625,902.8831 936.75,903.9613 Q937.4375,905.0238 938.7813,905.0238 Q939.4063,905.0238 940,904.7581 Q940.5938,904.4769 941.2188,903.8988 L941.2188,906.6175 Z " fill="#000000"/><text fill="#000000" font-family="sans-serif" font-size="14" lengthAdjust="spacing" textLength="301.2188" x="952.25" y="905.8236">GridCommonWithHyperionDetectorParams</text><line style="stroke:#181818;stroke-width:0.5;" x1="924.25" x2="1255.4688" y1="916.9769" y2="916.9769"/><line style="stroke:#181818;stroke-width:0.5;" x1="924.25" x2="1255.4688" y1="924.9769" y2="924.9769"/></g><!--class WithHyperionUDCFeatures--><g class="entity" data-entity="WithHyperionUDCFeatures" data-source-line="74" data-uid="ent0017" id="entity_WithHyperionUDCFeatures"><rect fill="#F1F1F1" height="64.2969" rx="2.5" ry="2.5" style="stroke:#181818;stroke-width:0.5;" width="228.6719" x="523.53" y="695.4869"/><ellipse cx="542.6283" cy="711.4869" fill="#ADD1B2" rx="11" ry="11" style="stroke:#181818;stroke-width:1;"/><path d="M545.5971,717.1275 Q545.019,717.4244 544.3783,717.565 Q543.7377,717.7213 543.0346,717.7213 Q540.5346,717.7213 539.2065,716.0806 Q537.894,714.4244 537.894,711.2994 Q537.894,708.1744 539.2065,706.5181 Q540.5346,704.8619 543.0346,704.8619 Q543.7377,704.8619 544.3783,705.0181 Q545.0346,705.1744 545.5971,705.4713 L545.5971,708.19 Q544.9721,707.6119 544.3783,707.3463 Q543.7846,707.065 543.1596,707.065 Q541.8158,707.065 541.1283,708.1431 Q540.4408,709.2056 540.4408,711.2994 Q540.4408,713.3931 541.1283,714.4713 Q541.8158,715.5338 543.1596,715.5338 Q543.7846,715.5338 544.3783,715.2681 Q544.9721,714.9869 545.5971,714.4088 L545.5971,717.1275 Z " fill="#000000"/><text fill="#000000" font-family="sans-serif" font-size="14" lengthAdjust="spacing" textLength="187.5645" x="557.5391" y="716.3336">WithHyperionUDCFeatures</text><line style="stroke:#181818;stroke-width:0.5;" x1="524.53" x2="751.2019" y1="727.4869" y2="727.4869"/><text fill="#000000" font-family="sans-serif" font-size="14" lengthAdjust="spacing" textLength="216.6719" x="529.53" y="744.482">HyperionFeatureFlags features</text><line style="stroke:#181818;stroke-width:0.5;" x1="524.53" x2="751.2019" y1="751.7838" y2="751.7838"/></g><!--class RotationExperiment--><g class="entity" data-entity="RotationExperiment" data-source-line="77" data-uid="ent0018" id="entity_RotationExperiment"><rect fill="#F1F1F1" height="96.8906" rx="2.5" ry="2.5" style="stroke:#181818;stroke-width:0.5;" width="332.332" x="555.7" y="860.5269"/><ellipse cx="647.5818" cy="876.5269" fill="#ADD1B2" rx="11" ry="11" style="stroke:#181818;stroke-width:1;"/><path d="M650.5506,882.1675 Q649.9725,882.4644 649.3318,882.605 Q648.6912,882.7613 647.9881,882.7613 Q645.4881,882.7613 644.16,881.1206 Q642.8475,879.4644 642.8475,876.3394 Q642.8475,873.2144 644.16,871.5581 Q645.4881,869.9019 647.9881,869.9019 Q648.6912,869.9019 649.3318,870.0581 Q649.9881,870.2144 650.5506,870.5113 L650.5506,873.23 Q649.9256,872.6519 649.3318,872.3863 Q648.7381,872.105 648.1131,872.105 Q646.7693,872.105 646.0818,873.1831 Q645.3943,874.2456 645.3943,876.3394 Q645.3943,878.4331 646.0818,879.5113 Q646.7693,880.5738 648.1131,880.5738 Q648.7381,880.5738 649.3318,880.3081 Q649.9256,880.0269 650.5506,879.4488 L650.5506,882.1675 Z " fill="#000000"/><text fill="#000000" font-family="sans-serif" font-size="14" lengthAdjust="spacing" textLength="140.0684" x="668.0818" y="881.3736">RotationExperiment</text><line style="stroke:#181818;stroke-width:0.5;" x1="556.7" x2="887.032" y1="892.5269" y2="892.5269"/><text fill="#000000" font-family="sans-serif" font-size="14" lengthAdjust="spacing" textLength="202.8018" x="561.7" y="909.522">float shutter_opening_time_s</text><text fill="#000000" font-family="sans-serif" font-size="14" lengthAdjust="spacing" textLength="202.9385" x="561.7" y="925.8189">float rotation_increment_deg</text><text fill="#000000" font-family="sans-serif" font-size="14" lengthAdjust="spacing" textLength="320.332" x="561.7" y="942.1157">IspybExperimentType ispyb_experiment_type</text><line style="stroke:#181818;stroke-width:0.5;" x1="556.7" x2="887.032" y1="949.4175" y2="949.4175"/></g><!--class LoadCentreCollect--><g class="entity" data-entity="LoadCentreCollect" data-source-line="82" data-uid="ent0019" id="entity_LoadCentreCollect"><rect fill="#F1F1F1" height="80.5938" rx="2.5" ry="2.5" style="stroke:#181818;stroke-width:0.5;" width="338.6211" x="145.55" y="868.6769"/><ellipse cx="246.175" cy="884.6769" fill="#ADD1B2" rx="11" ry="11" style="stroke:#181818;stroke-width:1;"/><path d="M249.1438,890.3175 Q248.5656,890.6144 247.925,890.755 Q247.2844,890.9113 246.5813,890.9113 Q244.0813,890.9113 242.7531,889.2706 Q241.4406,887.6144 241.4406,884.4894 Q241.4406,881.3644 242.7531,879.7081 Q244.0813,878.0519 246.5813,878.0519 Q247.2844,878.0519 247.925,878.2081 Q248.5813,878.3644 249.1438,878.6613 L249.1438,881.38 Q248.5188,880.8019 247.925,880.5363 Q247.3313,880.255 246.7063,880.255 Q245.3625,880.255 244.675,881.3331 Q243.9875,882.3956 243.9875,884.4894 Q243.9875,886.5831 244.675,887.6613 Q245.3625,888.7238 246.7063,888.7238 Q247.3313,888.7238 247.925,888.4581 Q248.5188,888.1769 249.1438,887.5988 L249.1438,890.3175 Z " fill="#000000"/><text fill="#000000" font-family="sans-serif" font-size="14" lengthAdjust="spacing" textLength="128.8711" x="266.675" y="889.5236">LoadCentreCollect</text><line style="stroke:#181818;stroke-width:0.5;" x1="146.55" x2="483.1711" y1="900.6769" y2="900.6769"/><text fill="#000000" font-family="sans-serif" font-size="14" lengthAdjust="spacing" textLength="326.6211" x="151.55" y="917.672">RobotLoadThenCentre robot_load_then_centre</text><text fill="#000000" font-family="sans-serif" font-size="14" lengthAdjust="spacing" textLength="235.0947" x="151.55" y="933.9689">RotationScan multi_rotation_scan</text><line style="stroke:#181818;stroke-width:0.5;" x1="146.55" x2="483.1711" y1="941.2706" y2="941.2706"/></g><!--class PinTipCentreThenXrayCentre--><g class="entity" data-entity="PinTipCentreThenXrayCentre" data-source-line="86" data-uid="ent0020" id="entity_PinTipCentreThenXrayCentre"><rect fill="#F1F1F1" height="64.2969" rx="2.5" ry="2.5" style="stroke:#181818;stroke-width:0.5;" width="235.8955" x="705.92" y="1017.4169"/><ellipse cx="720.92" cy="1033.4169" fill="#ADD1B2" rx="11" ry="11" style="stroke:#181818;stroke-width:1;"/><path d="M723.8888,1039.0575 Q723.3106,1039.3544 722.67,1039.495 Q722.0294,1039.6513 721.3263,1039.6513 Q718.8263,1039.6513 717.4981,1038.0106 Q716.1856,1036.3544 716.1856,1033.2294 Q716.1856,1030.1044 717.4981,1028.4481 Q718.8263,1026.7919 721.3263,1026.7919 Q722.0294,1026.7919 722.67,1026.9481 Q723.3263,1027.1044 723.8888,1027.4013 L723.8888,1030.12 Q723.2638,1029.5419 722.67,1029.2763 Q722.0763,1028.995 721.4513,1028.995 Q720.1075,1028.995 719.42,1030.0731 Q718.7325,1031.1356 718.7325,1033.2294 Q718.7325,1035.3231 719.42,1036.4013 Q720.1075,1037.4638 721.4513,1037.4638 Q722.0763,1037.4638 722.67,1037.1981 Q723.2638,1036.9169 723.8888,1036.3388 L723.8888,1039.0575 Z " fill="#000000"/><text fill="#000000" font-family="sans-serif" font-size="14" lengthAdjust="spacing" textLength="203.8955" x="734.92" y="1038.2636">PinTipCentreThenXrayCentre</text><line style="stroke:#181818;stroke-width:0.5;" x1="706.92" x2="940.8155" y1="1049.4169" y2="1049.4169"/><text fill="#000000" font-family="sans-serif" font-size="14" lengthAdjust="spacing" textLength="130.498" x="711.92" y="1066.412">float tip_offset_um</text><line style="stroke:#181818;stroke-width:0.5;" x1="706.92" x2="940.8155" y1="1073.7138" y2="1073.7138"/></g><!--class RotationScan--><g class="entity" data-entity="RotationScan" data-source-line="89" data-uid="ent0021" id="entity_RotationScan"><rect fill="#F1F1F1" height="64.2969" rx="2.5" ry="2.5" style="stroke:#181818;stroke-width:0.5;" width="540.001" x="123.86" y="1017.4169"/><ellipse cx="343.0031" cy="1033.4169" fill="#ADD1B2" rx="11" ry="11" style="stroke:#181818;stroke-width:1;"/><path d="M345.9718,1039.0575 Q345.3937,1039.3544 344.7531,1039.495 Q344.1124,1039.6513 343.4093,1039.6513 Q340.9093,1039.6513 339.5812,1038.0106 Q338.2687,1036.3544 338.2687,1033.2294 Q338.2687,1030.1044 339.5812,1028.4481 Q340.9093,1026.7919 343.4093,1026.7919 Q344.1124,1026.7919 344.7531,1026.9481 Q345.4093,1027.1044 345.9718,1027.4013 L345.9718,1030.12 Q345.3468,1029.5419 344.7531,1029.2763 Q344.1593,1028.995 343.5343,1028.995 Q342.1906,1028.995 341.5031,1030.0731 Q340.8156,1031.1356 340.8156,1033.2294 Q340.8156,1035.3231 341.5031,1036.4013 Q342.1906,1037.4638 343.5343,1037.4638 Q344.1593,1037.4638 344.7531,1037.1981 Q345.3468,1036.9169 345.9718,1036.3388 L345.9718,1039.0575 Z " fill="#000000"/><text fill="#000000" font-family="sans-serif" font-size="14" lengthAdjust="spacing" textLength="93.2148" x="363.5031" y="1038.2636">RotationScan</text><line style="stroke:#181818;stroke-width:0.5;" x1="124.86" x2="662.861" y1="1049.4169" y2="1049.4169"/><line style="stroke:#181818;stroke-width:0.5;" x1="124.86" x2="662.861" y1="1057.4169" y2="1057.4169"/><text fill="#000000" font-family="sans-serif" font-size="14" lengthAdjust="spacing" textLength="528.001" x="129.86" y="1074.412">Annotated[list[RotationScanPerSweep], Len(min_length=1)] rotation_scans</text></g><!--class GridScanWithEdgeDetect--><g class="entity" data-entity="GridScanWithEdgeDetect" data-source-line="92" data-uid="ent0022" id="entity_GridScanWithEdgeDetect"><rect fill="#F1F1F1" height="48" rx="2.5" ry="2.5" style="stroke:#181818;stroke-width:0.5;" width="209.4268" x="981.15" y="1025.5669"/><ellipse cx="996.15" cy="1041.5669" fill="#ADD1B2" rx="11" ry="11" style="stroke:#181818;stroke-width:1;"/><path d="M999.1188,1047.2075 Q998.5406,1047.5044 997.9,1047.645 Q997.2594,1047.8013 996.5563,1047.8013 Q994.0563,1047.8013 992.7281,1046.1606 Q991.4156,1044.5044 991.4156,1041.3794 Q991.4156,1038.2544 992.7281,1036.5981 Q994.0563,1034.9419 996.5563,1034.9419 Q997.2594,1034.9419 997.9,1035.0981 Q998.5563,1035.2544 999.1188,1035.5513 L999.1188,1038.27 Q998.4938,1037.6919 997.9,1037.4263 Q997.3063,1037.145 996.6813,1037.145 Q995.3375,1037.145 994.65,1038.2231 Q993.9625,1039.2856 993.9625,1041.3794 Q993.9625,1043.4731 994.65,1044.5513 Q995.3375,1045.6138 996.6813,1045.6138 Q997.3063,1045.6138 997.9,1045.3481 Q998.4938,1045.0669 999.1188,1044.4888 L999.1188,1047.2075 Z " fill="#000000"/><text fill="#000000" font-family="sans-serif" font-size="14" lengthAdjust="spacing" textLength="177.4268" x="1010.15" y="1046.4136">GridScanWithEdgeDetect</text><line style="stroke:#181818;stroke-width:0.5;" x1="982.15" x2="1189.5768" y1="1057.5669" y2="1057.5669"/><line style="stroke:#181818;stroke-width:0.5;" x1="982.15" x2="1189.5768" y1="1065.5669" y2="1065.5669"/></g><!--reverse link DiffractionExperiment to DiffractionExperimentWithSample--><g class="link" data-entity-1="DiffractionExperiment" data-entity-2="DiffractionExperimentWithSample" data-source-line="95" data-uid="lnk23" id="link_DiffractionExperiment_DiffractionExperimentWithSample"><path codeLine="95" d="M3582.3785,505.1816 C3580.4785,527.4316 3580.18,530.8969 3578.86,546.3269" fill="none" id="DiffractionExperiment-backto-DiffractionExperimentWithSample" style="stroke:#181818;stroke-width:1;"/><polygon fill="none" points="3583.91,487.2469,3576.4003,504.6711,3588.3567,505.6921,3583.91,487.2469" style="stroke:#181818;stroke-width:1;"/></g><!--reverse link WithSample to DiffractionExperimentWithSample--><g class="link" data-entity-1="WithSample" data-entity-2="DiffractionExperimentWithSample" data-source-line="96" data-uid="lnk24" id="link_WithSample_DiffractionExperimentWithSample"><path codeLine="96" d="M1960.4873,209.6898 C1974.2273,218.6898 1974.06,217.3969 1988.86,223.7769 C2497.54,443.0269 3159.89,529.4669 3441.1,557.8569" fill="none" id="WithSample-backto-DiffractionExperimentWithSample" style="stroke:#181818;stroke-width:1;"/><polygon fill="none" points="1945.43,199.8269,1957.1997,214.7089,1963.775,204.6706,1945.43,199.8269" style="stroke:#181818;stroke-width:1;"/></g><!--reverse link GridCommon to GridCommonWithHyperionDetectorParams--><g class="link" data-entity-1="GridCommon" data-entity-2="GridCommonWithHyperionDetectorParams" data-source-line="97" data-uid="lnk25" id="link_GridCommon_GridCommonWithHyperionDetectorParams"><path codeLine="97" d="M3408.256,741.8634 C2953.326,774.4634 1711.85,863.4069 1256.7,896.0169" fill="none" id="GridCommon-backto-GridCommonWithHyperionDetectorParams" style="stroke:#181818;stroke-width:1;"/><polygon fill="none" points="3426.21,740.5769,3407.8272,735.8788,3408.6849,747.8481,3426.21,740.5769" style="stroke:#181818;stroke-width:1;"/></g><!--reverse link WithHyperionUDCFeatures to GridCommonWithHyperionDetectorParams--><g class="link" data-entity-1="WithHyperionUDCFeatures" data-entity-2="GridCommonWithHyperionDetectorParams" data-source-line="98" data-uid="lnk26" id="link_WithHyperionUDCFeatures_GridCommonWithHyperionDetectorParams"><path codeLine="98" d="M734.1013,766.8249 C823.7813,802.4049 950.78,852.7969 1030.96,884.6069" fill="none" id="WithHyperionUDCFeatures-backto-GridCommonWithHyperionDetectorParams" style="stroke:#181818;stroke-width:1;"/><polygon fill="none" points="717.37,760.1869,731.8886,772.402,736.314,761.2478,717.37,760.1869" style="stroke:#181818;stroke-width:1;"/></g><!--reverse link DiffractionExperimentWithSample to GridCommon--><g class="link" data-entity-1="DiffractionExperimentWithSample" data-entity-2="GridCommon" data-source-line="99" data-uid="lnk27" id="link_DiffractionExperimentWithSample_GridCommon"><path codeLine="99" d="M3581.1122,612.8413 C3582.7622,628.7913 3583.19,633.0069 3585.42,654.5669" fill="none" id="DiffractionExperimentWithSample-backto-GridCommon" style="stroke:#181818;stroke-width:1;"/><polygon fill="none" points="3579.26,594.9369,3575.144,613.4587,3587.0803,612.2239,3579.26,594.9369" style="stroke:#181818;stroke-width:1;"/></g><!--reverse link OptionalGonioAngleStarts to GridCommon--><g class="link" data-entity-1="OptionalGonioAngleStarts" data-entity-2="GridCommon" data-source-line="100" data-uid="lnk28" id="link_OptionalGonioAngleStarts_GridCommon"><path codeLine="100" d="M2505.0306,216.6306 C2514.9906,222.0506 2509.19,218.7869 2518.86,223.7769 C2836.13,387.3569 3216.26,560.0169 3428.59,654.4269" fill="none" id="OptionalGonioAngleStarts-backto-GridCommon" style="stroke:#181818;stroke-width:1;"/><polygon fill="none" points="2489.22,208.0269,2502.1627,221.9008,2507.8985,211.3604,2489.22,208.0269" style="stroke:#181818;stroke-width:1;"/></g><!--reverse link WithPandaGridScan to WithHyperionUDCFeatures--><g class="link" data-entity-1="WithPandaGridScan" data-entity-2="WithHyperionUDCFeatures" data-source-line="101" data-uid="lnk29" id="link_WithPandaGridScan_WithHyperionUDCFeatures"><path codeLine="101" d="M2054.8099,192.0476 C2030.3399,205.2176 2016.96,211.7069 1989.86,223.7769 C1530.66,428.4269 960.26,621.3469 735.44,695.0769" fill="none" id="WithPandaGridScan-backto-WithHyperionUDCFeatures" style="stroke:#181818;stroke-width:1;"/><polygon fill="none" points="2070.66,183.5169,2051.9663,186.7642,2057.6534,197.331,2070.66,183.5169" style="stroke:#181818;stroke-width:1;"/></g><!--reverse link DiffractionExperimentWithSample to RotationExperiment--><g class="link" data-entity-1="DiffractionExperimentWithSample" data-entity-2="RotationExperiment" data-source-line="102" data-uid="lnk30" id="link_DiffractionExperimentWithSample_RotationExperiment"><path codeLine="102" d="M3423.103,580.5562 C3028.753,604.4662 1868.36,685.3569 905.86,860.5269 C900.02,861.5969 894.09,862.7369 888.11,863.9569" fill="none" id="DiffractionExperimentWithSample-backto-RotationExperiment" style="stroke:#181818;stroke-width:1;"/><polygon fill="none" points="3441.07,579.4669,3422.7399,574.5672,3423.4661,586.5452,3441.07,579.4669" style="stroke:#181818;stroke-width:1;"/></g><!--reverse link WithHyperionUDCFeatures to RotationExperiment--><g class="link" data-entity-1="WithHyperionUDCFeatures" data-entity-2="RotationExperiment" data-source-line="103" data-uid="lnk31" id="link_WithHyperionUDCFeatures_RotationExperiment"><path codeLine="103" d="M660.1329,776.1784 C673.1029,803.8784 684.61,828.4469 699.51,860.2369" fill="none" id="WithHyperionUDCFeatures-backto-RotationExperiment" style="stroke:#181818;stroke-width:1;"/><polygon fill="none" points="652.5,759.8769,654.699,778.7227,665.5667,773.6341,652.5,759.8769" style="stroke:#181818;stroke-width:1;"/></g><!--reverse link MxBlueskyParameters to LoadCentreCollect--><g class="link" data-entity-1="MxBlueskyParameters" data-entity-2="LoadCentreCollect" data-source-line="104" data-uid="lnk32" id="link_MxBlueskyParameters_LoadCentreCollect"><path codeLine="104" d="M3720.9124,190.6071 C3766.9124,209.7971 3800.27,232.2769 3829.86,275.7769 C3969.04,480.3769 4015.1,668.4669 3829.86,832.5269 C3795.63,862.8469 583.32,855.5569 537.86,860.5269 C520.45,862.4369 502.4,865.0969 484.44,868.2069" fill="none" id="MxBlueskyParameters-backto-LoadCentreCollect" style="stroke:#181818;stroke-width:1;"/><polygon fill="none" points="3704.3,183.6769,3718.6023,196.1446,3723.2225,185.0697,3704.3,183.6769" style="stroke:#181818;stroke-width:1;"/></g><!--reverse link WithVisit to LoadCentreCollect--><g class="link" data-entity-1="WithVisit" data-entity-2="LoadCentreCollect" data-source-line="105" data-uid="lnk33" id="link_WithVisit_LoadCentreCollect"><path codeLine="105" d="M3405.9072,222.6362 C3413.1772,225.4362 3403.66,221.5369 3410.86,223.7769 C3488.87,248.0869 3721.33,214.0469 3774.86,275.7769 C3855.93,369.2469 3861.97,744.6669 3774.86,832.5269 C3743.21,864.4569 582.56,855.6369 537.86,860.5269 C520.45,862.4369 502.4,865.1069 484.44,868.2069" fill="none" id="WithVisit-backto-LoadCentreCollect" style="stroke:#181818;stroke-width:1;"/><polygon fill="none" points="3389.11,216.1669,3403.7508,228.2353,3408.0637,217.0372,3389.11,216.1669" style="stroke:#181818;stroke-width:1;"/></g><!--reverse link WithSample to LoadCentreCollect--><g class="link" data-entity-1="WithSample" data-entity-2="LoadCentreCollect" data-source-line="106" data-uid="lnk34" id="link_WithSample_LoadCentreCollect"><path codeLine="106" d="M1808.7409,209.6711 C1794.3809,219.0111 1793.7,217.9069 1777.86,223.7769 C1589.09,293.7669 1521.77,221.6169 1327.86,275.7769 C940.81,383.8969 818.53,400.0269 505.86,652.4869 C429.17,714.4169 366.79,813.7469 335.89,868.5169" fill="none" id="WithSample-backto-LoadCentreCollect" style="stroke:#181818;stroke-width:1;"/><polygon fill="none" points="1823.83,199.8569,1805.4695,204.6414,1812.0123,214.7008,1823.83,199.8569" style="stroke:#181818;stroke-width:1;"/></g><!--reverse link WithCentreSelection to LoadCentreCollect--><g class="link" data-entity-1="WithCentreSelection" data-entity-2="LoadCentreCollect" data-source-line="107" data-uid="lnk35" id="link_WithCentreSelection_LoadCentreCollect"><path codeLine="107" d="M1529.7471,191.2582 C1497.8271,206.2482 1473.84,215.0969 1435.86,223.7769 C1328.27,248.3869 527.5,203.7569 443.86,275.7769 C265.83,429.0969 292.93,755.5769 308.54,868.5369" fill="none" id="WithCentreSelection-backto-LoadCentreCollect" style="stroke:#181818;stroke-width:1;"/><polygon fill="none" points="1546.04,183.6069,1527.1967,185.8272,1532.2976,196.6891,1546.04,183.6069" style="stroke:#181818;stroke-width:1;"/></g><!--reverse link WithHyperionUDCFeatures to LoadCentreCollect--><g class="link" data-entity-1="WithHyperionUDCFeatures" data-entity-2="LoadCentreCollect" data-source-line="108" data-uid="lnk36" id="link_WithHyperionUDCFeatures_LoadCentreCollect"><path codeLine="108" d="M585.989,771.3522 C558.299,793.4422 533.25,811.4569 495.86,832.5269 C472.73,845.5669 446.89,857.6669 422.14,868.1869" fill="none" id="WithHyperionUDCFeatures-backto-LoadCentreCollect" style="stroke:#181818;stroke-width:1;"/><polygon fill="none" points="600.06,760.1269,582.2472,766.6618,589.7308,776.0425,600.06,760.1269" style="stroke:#181818;stroke-width:1;"/></g><!--reverse link GridCommonWithHyperionDetectorParams to PinTipCentreThenXrayCentre--><g class="link" data-entity-1="GridCommonWithHyperionDetectorParams" data-entity-2="PinTipCentreThenXrayCentre" data-source-line="109" data-uid="lnk37" id="link_GridCommonWithHyperionDetectorParams_PinTipCentreThenXrayCentre"><path codeLine="109" d="M1029.0772,941.6448 C984.9572,964.6348 933.23,991.5869 884.36,1017.0469" fill="none" id="GridCommonWithHyperionDetectorParams-backto-PinTipCentreThenXrayCentre" style="stroke:#181818;stroke-width:1;"/><polygon fill="none" points="1045.04,933.3269,1026.3045,936.3238,1031.8498,946.9657,1045.04,933.3269" style="stroke:#181818;stroke-width:1;"/></g><!--reverse link WithHyperionUDCFeatures to PinTipCentreThenXrayCentre--><g class="link" data-entity-1="WithHyperionUDCFeatures" data-entity-2="PinTipCentreThenXrayCentre" data-source-line="110" data-uid="lnk38" id="link_WithHyperionUDCFeatures_PinTipCentreThenXrayCentre"><path codeLine="110" d="M505.3577,741.887 C320.2977,764.047 6,821.6469 127.86,957.4169 C210.58,1049.5769 559.65,997.4569 681.86,1017.4169 C689.59,1018.6769 697.52,1020.0969 705.5,1021.6069" fill="none" id="WithHyperionUDCFeatures-backto-PinTipCentreThenXrayCentre" style="stroke:#181818;stroke-width:1;"/><polygon fill="none" points="523.23,739.7469,504.6443,735.9296,506.0711,747.8444,523.23,739.7469" style="stroke:#181818;stroke-width:1;"/></g><!--reverse link RotationExperiment to RotationScan--><g class="link" data-entity-1="RotationExperiment" data-entity-2="RotationScan" data-source-line="111" data-uid="lnk39" id="link_RotationExperiment_RotationScan"><path codeLine="111" d="M591.9489,964.8717 C545.6489,984.4317 509.97,999.5069 468.6,1016.9869" fill="none" id="RotationExperiment-backto-RotationScan" style="stroke:#181818;stroke-width:1;"/><polygon fill="none" points="608.53,957.8669,589.614,959.3447,594.2839,970.3988,608.53,957.8669" style="stroke:#181818;stroke-width:1;"/></g><!--reverse link SplitScan to RotationScan--><g class="link" data-entity-1="SplitScan" data-entity-2="RotationScan" data-source-line="112" data-uid="lnk40" id="link_SplitScan_RotationScan"><path codeLine="112" d="M1302.9665,153.6498 C1119.6665,158.5698 492.71,181.8569 313.86,275.7769 C159.96,356.5969 55.86,395.9169 55.86,569.7469 C55.86,569.7469 55.86,569.7469 55.86,728.6369 C55.86,831.6369 25.06,879.8869 92.86,957.4169 C116.41,984.3369 147.61,1003.4569 181,1016.9869" fill="none" id="SplitScan-backto-RotationScan" style="stroke:#181818;stroke-width:1;"/><polygon fill="none" points="1320.96,153.1669,1302.8055,147.652,1303.1275,159.6477,1320.96,153.1669" style="stroke:#181818;stroke-width:1;"/></g><!--reverse link GridCommonWithHyperionDetectorParams to GridScanWithEdgeDetect--><g class="link" data-entity-1="GridCommonWithHyperionDetectorParams" data-entity-2="GridScanWithEdgeDetect" data-source-line="113" data-uid="lnk41" id="link_GridCommonWithHyperionDetectorParams_GridScanWithEdgeDetect"><path codeLine="113" d="M1088.6765,951.1695 C1087.9465,976.7495 1087.28,999.6769 1086.54,1025.2969" fill="none" id="GridCommonWithHyperionDetectorParams-backto-GridScanWithEdgeDetect" style="stroke:#181818;stroke-width:1;"/><polygon fill="none" points="1089.19,933.1769,1082.679,950.9984,1094.6741,951.3407,1089.19,933.1769" style="stroke:#181818;stroke-width:1;"/></g><!--reverse link WithHyperionUDCFeatures to GridScanWithEdgeDetect--><g class="link" data-entity-1="WithHyperionUDCFeatures" data-entity-2="GridScanWithEdgeDetect" data-source-line="114" data-uid="lnk42" id="link_WithHyperionUDCFeatures_GridScanWithEdgeDetect"><path codeLine="114" d="M592.1051,772.8858 C545.9551,820.2258 486.16,897.8269 537.86,957.4169 C599.79,1028.7969 866.08,999.4769 958.86,1017.4169 C970.57,1019.6869 982.81,1022.3269 994.88,1025.1069" fill="none" id="WithHyperionUDCFeatures-backto-GridScanWithEdgeDetect" style="stroke:#181818;stroke-width:1;"/><polygon fill="none" points="604.67,759.9969,587.8088,768.6975,596.4014,777.0741,604.67,759.9969" style="stroke:#181818;stroke-width:1;"/></g><!--reverse link MxBlueskyParameters to DiffractionExperiment--><g class="link" data-entity-1="MxBlueskyParameters" data-entity-2="DiffractionExperiment" data-source-line="115" data-uid="lnk43" id="link_MxBlueskyParameters_DiffractionExperiment"><path codeLine="115" d="M3596.7823,201.2925 C3596.2523,225.2725 3595.9,241.8669 3595.16,275.3869" fill="none" id="MxBlueskyParameters-backto-DiffractionExperiment" style="stroke:#181818;stroke-width:1;"/><polygon fill="none" points="3597.18,183.2969,3590.7837,201.1599,3602.7808,201.4251,3597.18,183.2969" style="stroke:#181818;stroke-width:1;"/></g><!--reverse link WithSnapshot to DiffractionExperiment--><g class="link" data-entity-1="WithSnapshot" data-entity-2="DiffractionExperiment" data-source-line="116" data-uid="lnk44" id="link_WithSnapshot_DiffractionExperiment"><path codeLine="116" d="M3071.9813,207.0084 C3091.2713,215.3184 3094.8,216.4869 3113.86,223.7769 C3216.42,262.9869 3333.54,301.3669 3426.3,330.2969" fill="none" id="WithSnapshot-backto-DiffractionExperiment" style="stroke:#181818;stroke-width:1;"/><polygon fill="none" points="3055.45,199.8869,3069.6074,212.5189,3074.3551,201.498,3055.45,199.8869" style="stroke:#181818;stroke-width:1;"/></g><!--reverse link WithOptionalEnergyChange to DiffractionExperiment--><g class="link" data-entity-1="WithOptionalEnergyChange" data-entity-2="DiffractionExperiment" data-source-line="117" data-uid="lnk45" id="link_WithOptionalEnergyChange_DiffractionExperiment"><path codeLine="117" d="M2720.0867,192.4878 C2744.7567,206.6278 2759.72,213.4569 2788.86,223.7769 C3002.16,299.3169 3260.93,341.4069 3426.24,362.4469" fill="none" id="WithOptionalEnergyChange-backto-DiffractionExperiment" style="stroke:#181818;stroke-width:1;"/><polygon fill="none" points="2704.47,183.5369,2717.103,197.6934,2723.0703,187.2823,2704.47,183.5369" style="stroke:#181818;stroke-width:1;"/></g><!--reverse link WithVisit to DiffractionExperiment--><g class="link" data-entity-1="WithVisit" data-entity-2="DiffractionExperiment" data-source-line="118" data-uid="lnk46" id="link_WithVisit_DiffractionExperiment"><path codeLine="118" d="M3373.2859,226.5396 C3399.5559,244.9296 3414.16,255.1569 3442.96,275.3169" fill="none" id="WithVisit-backto-DiffractionExperiment" style="stroke:#181818;stroke-width:1;"/><polygon fill="none" points="3358.54,216.2169,3369.845,231.4549,3376.7268,221.6243,3358.54,216.2169" style="stroke:#181818;stroke-width:1;"/></g><!--SRC=[bLRTRzis47-s_Wg-RGEM07tV7b8dxGeqdL5xsO0Y86ZfB16HI88yfVRS_Eyzaf8YMV97u0UBz_dZtUzE-cLLICSsiWH6_w96VPM30YiGChRUiVR0JIaKrbLvRNP9WXB9uQ-T0IkrOWjXHGK8bjth3Ch40J954cT42aimf4PjcT8AaeHaJo87Lctvkgp1FUskKrrLMbsRDenZ-mHr3bXGo7sIbi8vzg_4uc-3b4-KTmGgtyqBeNBO9xDDgGMo7-mB9M0PL49b7889X-VafHTWgOHnXKPoMWWic6lEF9CMKWAvIsQbTFWjX7niOtPcke9SE9v1dipMMfUiTi1pApFUchXXFb6PqaEK2faB1owpU6nZHwcfqwT9kLHTnAKf9IvJeVQ397DGQAdE9Ts0oaFPLjfyUR-x5zkvhXLs6kR24q-3mn3fWeecFj9DOlocfiPBkQrLRQX43eLAWLTLvzasvADMKj-el8Gb2elki2cXRjnvNIpUG6iAULINdj0z2MFwKVltUP1E-ZOxj6mDeYebaI-SdhqcFcQ0uLeSDVT6FDNg6InHa1kYHpIIof68hicDXOtSZlY6WJa7zNaPC_XMRZPMX4xSRVteLDI7FajQ_FVRzt4oki7o1LrwOgDC7-ZeczcD2w_yrF7dAE-YJAPhAk87dliHRIy3MwDTRO4ZcN4NhVnSaW_noSey1-kdcs5y3aa7X2MMS5LNQx39x8Ro8OLx47IHZj61VP1nqMZRv6Y5SfLq7Zxtc9FP9sTswrVOArerjA18ng4JSYHfHEge0RHK-cFSZQVLCe9j2-DPFWyhfwFfMc-va_y3hwjM5ARwkyomw0b7PNe3pZVMH1gkDnjQfJxzI_XDhCwYsS73vNbuJq-oTblVDdmDt7B3JTBQ_7Cx_m32m_74QwMDw4CfSdfbDFhE_wj6CU9Ql8ihQlGyrGQKL7bNlAYrZIENAhKG2XP6_VBIjX0-Qv75PJZNfQyh8VYgrngzObM0YahAI39EoJDE0wgQVUXj8nA_0bbLboXv1ywHh4kqa6ebJOpcu_vdnIwUziVwDonIisHlbF82oBw5bqvVkm2x_0vW7dzddq7zMad5Ir0v5d- - - -sH3M2v0REzi-_bNPP3xFK-a6To7R0_VbnTdLjCoUlZPVQln8lsbn0nESA_DqGu0-imKdBivJKo7BqVeyKHn9VX68_BwGfCs4-y9gBjQ0wIxeruog0FRzhYu4lZbEdHYupDBsbkz3q-TwTpdl0RrtLORz_kfFlmcj1TZdvwEiyJVyBdQEidkPVqFttFsKrzOv_pwL5hqkWd]--></g></svg>