<?plantuml 1.2026.2beta3?><svg xmlns="http://www.w3.org/2000/svg" xmlns:xlink="http://www.w3.org/1999/xlink" contentStyleType="text/css" data-diagram-type="CLASS" height="402px" preserveAspectRatio="none" style="width:1089px;height:402px;background:#FFFFFF;" version="1.1" viewBox="0 0 1089 402" width="1089px" zoomAndPan="magnify"><title>Hyperion Parameter Model</title><defs/><g><g class="title" data-source-line="3"><text fill="#000000" font-family="sans-serif" font-size="14" font-weight="bold" lengthAdjust="spacing" textLength="212.4951" x="431.6874" y="22.9951">Hyperion Parameter Model</text></g><!--cluster mx_bluesky.common.parameters--><g class="cluster" data-qualified-name="mx_bluesky.common.parameters" data-source-line="6" id="ent0002"><path d="M201.37,43.2969 L462.6825,43.2969 A3.75,3.75 0 0 1 465.1825,45.7969 L472.1825,65.5938 L1080.37,65.5938 A2.5,2.5 0 0 1 1082.87,68.0938 L1082.87,237.2869 A2.5,2.5 0 0 1 1080.37,239.7869 L201.37,239.7869 A2.5,2.5 0 0 1 198.87,237.2869 L198.87,45.7969 A2.5,2.5 0 0 1 201.37,43.2969" fill="none" style="stroke:#000000;stroke-width:1.5;"/><line style="stroke:#000000;stroke-width:1.5;" x1="198.87" x2="472.1825" y1="65.5938" y2="65.5938"/><text fill="#000000" font-family="sans-serif" font-size="14" font-weight="bold" lengthAdjust="spacing" textLength="260.3125" x="202.87" y="58.292">mx_bluesky.common.parameters</text></g><!--cluster mx_bluesky.hyperion.parameters--><g class="cluster" data-qualified-name="mx_bluesky.hyperion.parameters" data-source-line="27" id="ent0006"><path d="M164.37,263.7869 L428.9022,263.7869 A3.75,3.75 0 0 1 431.4022,266.2869 L438.4022,286.0838 L529.37,286.0838 A2.5,2.5 0 0 1 531.87,288.5838 L531.87,392.8769 A2.5,2.5 0 0 1 529.37,395.3769 L164.37,395.3769 A2.5,2.5 0 0 1 161.87,392.8769 L161.87,266.2869 A2.5,2.5 0 0 1 164.37,263.7869" fill="none" style="stroke:#000000;stroke-width:1.5;"/><line style="stroke:#000000;stroke-width:1.5;" x1="161.87" x2="438.4022" y1="286.0838" y2="286.0838"/><text fill="#000000" font-family="sans-serif" font-size="14" font-weight="bold" lengthAdjust="spacing" textLength="263.5322" x="165.87" y="278.782">mx_bluesky.hyperion.parameters</text></g><!--class WithSample--><g class="entity" data-qualified-name="mx_bluesky.common.parameters.WithSample" data-source-line="8" id="ent0003"><rect fill="#F1F1F1" height="96.8906" rx="2.5" ry="2.5" style="stroke:#181818;stroke-width:0.5;" width="176.3086" x="222.71" y="102.5969"/><ellipse cx="264.5843" cy="118.5969" fill="#ADD1B2" rx="11" ry="11" style="stroke:#181818;stroke-width:1;"/><path d="M267.5531,124.2375 Q266.9749,124.5344 266.3343,124.675 Q265.6937,124.8313 264.9906,124.8313 Q262.4906,124.8313 261.1624,123.1906 Q259.8499,121.5344 259.8499,118.4094 Q259.8499,115.2844 261.1624,113.6281 Q262.4906,111.9719 264.9906,111.9719 Q265.6937,111.9719 266.3343,112.1281 Q266.9906,112.2844 267.5531,112.5813 L267.5531,115.3 Q266.9281,114.7219 266.3343,114.4563 Q265.7406,114.175 265.1156,114.175 Q263.7718,114.175 263.0843,115.2531 Q262.3968,116.3156 262.3968,118.4094 Q262.3968,120.5031 263.0843,121.5813 Q263.7718,122.6438 265.1156,122.6438 Q265.7406,122.6438 266.3343,122.3781 Q266.9281,122.0969 267.5531,121.5188 L267.5531,124.2375 Z " fill="#000000"/><text fill="#000000" font-family="sans-serif" font-size="14" lengthAdjust="spacing" textLength="84.5879" x="284.5564" y="123.4436">WithSample</text><line style="stroke:#181818;stroke-width:0.5;" x1="223.71" x2="398.0186" y1="134.5969" y2="134.5969"/><text fill="#000000" font-family="sans-serif" font-size="14" lengthAdjust="spacing" textLength="93.3789" x="228.71" y="151.592">int sample_id</text><text fill="#000000" font-family="sans-serif" font-size="14" lengthAdjust="spacing" textLength="164.3086" x="228.71" y="167.8889">int | None sample_puck</text><text fill="#000000" font-family="sans-serif" font-size="14" lengthAdjust="spacing" textLength="152.3936" x="228.71" y="184.1857">int | None sample_pin</text><line style="stroke:#181818;stroke-width:0.5;" x1="223.71" x2="398.0186" y1="191.4875" y2="191.4875"/></g><!--class WithVisit--><g class="entity" data-qualified-name="mx_bluesky.common.parameters.WithVisit" data-source-line="13" id="ent0004"><rect fill="#F1F1F1" height="129.4844" rx="2.5" ry="2.5" style="stroke:#181818;stroke-width:0.5;" width="271.7861" x="433.97" y="86.2969"/><ellipse cx="534.4959" cy="102.2969" fill="#ADD1B2" rx="11" ry="11" style="stroke:#181818;stroke-width:1;"/><path d="M537.4646,107.9375 Q536.8865,108.2344 536.2459,108.375 Q535.6053,108.5313 534.9021,108.5313 Q532.4021,108.5313 531.074,106.8906 Q529.7615,105.2344 529.7615,102.1094 Q529.7615,98.9844 531.074,97.3281 Q532.4021,95.6719 534.9021,95.6719 Q535.6053,95.6719 536.2459,95.8281 Q536.9021,95.9844 537.4646,96.2813 L537.4646,99 Q536.8396,98.4219 536.2459,98.1563 Q535.6521,97.875 535.0271,97.875 Q533.6834,97.875 532.9959,98.9531 Q532.3084,100.0156 532.3084,102.1094 Q532.3084,104.2031 532.9959,105.2813 Q533.6834,106.3438 535.0271,106.3438 Q535.6521,106.3438 536.2459,106.0781 Q536.8396,105.7969 537.4646,105.2188 L537.4646,107.9375 Z " fill="#000000"/><text fill="#000000" font-family="sans-serif" font-size="14" lengthAdjust="spacing" textLength="62.2344" x="554.9959" y="107.1436">WithVisit</text><line style="stroke:#181818;stroke-width:0.5;" x1="434.97" x2="704.7561" y1="118.2969" y2="118.2969"/><text fill="#000000" font-family="sans-serif" font-size="14" lengthAdjust="spacing" textLength="87.9717" x="439.97" y="135.292">str beamline</text><text fill="#000000" font-family="sans-serif" font-size="14" lengthAdjust="spacing" textLength="51.8369" x="439.97" y="151.5889">str visit</text><text fill="#000000" font-family="sans-serif" font-size="14" lengthAdjust="spacing" textLength="259.7861" x="439.97" y="167.8857">str det_dist_to_beam_converter_path</text><text fill="#000000" font-family="sans-serif" font-size="14" lengthAdjust="spacing" textLength="245.752" x="439.97" y="184.1826">float | None detector_distance_mm</text><text fill="#000000" font-family="sans-serif" font-size="14" lengthAdjust="spacing" textLength="131.5918" x="439.97" y="200.4795">str insertion_prefix</text><line style="stroke:#181818;stroke-width:0.5;" x1="434.97" x2="704.7561" y1="207.7813" y2="207.7813"/></g><!--class MxBlueskyParameters--><g class="entity" data-qualified-name="mx_bluesky.common.parameters.MxBlueskyParameters" data-source-line="22" id="ent0005"><rect fill="#F1F1F1" height="64.2969" rx="2.5" ry="2.5" style="stroke:#181818;stroke-width:0.5;" width="317.4639" x="741.13" y="118.8969"/><ellipse cx="817.7164" cy="134.8969" fill="#ADD1B2" rx="11" ry="11" style="stroke:#181818;stroke-width:1;"/><path d="M820.6852,140.5375 Q820.1071,140.8344 819.4664,140.975 Q818.8258,141.1312 818.1227,141.1312 Q815.6227,141.1312 814.2946,139.4906 Q812.9821,137.8344 812.9821,134.7094 Q812.9821,131.5844 814.2946,129.9281 Q815.6227,128.2719 818.1227,128.2719 Q818.8258,128.2719 819.4664,128.4281 Q820.1227,128.5844 820.6852,128.8812 L820.6852,131.6 Q820.0602,131.0219 819.4664,130.7562 Q818.8727,130.475 818.2477,130.475 Q816.9039,130.475 816.2164,131.5531 Q815.5289,132.6156 815.5289,134.7094 Q815.5289,136.8031 816.2164,137.8812 Q816.9039,138.9437 818.2477,138.9437 Q818.8727,138.9437 819.4664,138.6781 Q820.0602,138.3969 820.6852,137.8187 L820.6852,140.5375 Z " fill="#000000"/><text fill="#000000" font-family="sans-serif" font-size="14" lengthAdjust="spacing" textLength="155.791" x="838.2164" y="139.7436">MxBlueskyParameters</text><line style="stroke:#181818;stroke-width:0.5;" x1="742.13" x2="1057.5939" y1="150.8969" y2="150.8969"/><text fill="#000000" font-family="sans-serif" font-size="14" lengthAdjust="spacing" textLength="305.4639" x="747.13" y="167.892">SemanticVersion parameter_model_version</text><line style="stroke:#181818;stroke-width:0.5;" x1="742.13" x2="1057.5939" y1="175.1937" y2="175.1937"/></g><!--class LoadCentreCollect--><g class="entity" data-qualified-name="mx_bluesky.hyperion.parameters.LoadCentreCollect" data-source-line="28" id="ent0007"><rect fill="#F1F1F1" height="80.5938" rx="2.5" ry="2.5" style="stroke:#181818;stroke-width:0.5;" width="338.6211" x="177.56" y="298.7869"/><ellipse cx="278.185" cy="314.7869" fill="#ADD1B2" rx="11" ry="11" style="stroke:#181818;stroke-width:1;"/><path d="M281.1538,320.4275 Q280.5756,320.7244 279.935,320.865 Q279.2944,321.0212 278.5913,321.0212 Q276.0913,321.0212 274.7631,319.3806 Q273.4506,317.7244 273.4506,314.5994 Q273.4506,311.4744 274.7631,309.8181 Q276.0913,308.1619 278.5913,308.1619 Q279.2944,308.1619 279.935,308.3181 Q280.5913,308.4744 281.1538,308.7712 L281.1538,311.49 Q280.5288,310.9119 279.935,310.6462 Q279.3413,310.365 278.7163,310.365 Q277.3725,310.365 276.685,311.4431 Q275.9975,312.5056 275.9975,314.5994 Q275.9975,316.6931 276.685,317.7712 Q277.3725,318.8337 278.7163,318.8337 Q279.3413,318.8337 279.935,318.5681 Q280.5288,318.2869 281.1538,317.7087 L281.1538,320.4275 Z " fill="#000000"/><text fill="#000000" font-family="sans-serif" font-size="14" lengthAdjust="spacing" textLength="128.8711" x="298.685" y="319.6336">LoadCentreCollect</text><line style="stroke:#181818;stroke-width:0.5;" x1="178.56" x2="515.1811" y1="330.7869" y2="330.7869"/><text fill="#000000" font-family="sans-serif" font-size="14" lengthAdjust="spacing" textLength="326.6211" x="183.56" y="347.782">RobotLoadThenCentre robot_load_then_centre</text><text fill="#000000" font-family="sans-serif" font-size="14" lengthAdjust="spacing" textLength="235.0947" x="183.56" y="364.0789">RotationScan multi_rotation_scan</text><line style="stroke:#181818;stroke-width:0.5;" x1="178.56" x2="515.1811" y1="371.3806" y2="371.3806"/></g><!--class WithCentreSelection--><g class="entity" data-qualified-name="WithCentreSelection" data-source-line="36" id="ent0011"><rect fill="#F1F1F1" height="48" rx="2.5" ry="2.5" style="stroke:#181818;stroke-width:0.5;" width="175.7324" x="7" y="127.0369"/><ellipse cx="22" cy="143.0369" fill="#ADD1B2" rx="11" ry="11" style="stroke:#181818;stroke-width:1;"/><path d="M24.9688,148.6775 Q24.3906,148.9744 23.75,149.115 Q23.1094,149.2713 22.4063,149.2713 Q19.9063,149.2713 18.5781,147.6306 Q17.2656,145.9744 17.2656,142.8494 Q17.2656,139.7244 18.5781,138.0681 Q19.9063,136.4119 22.4063,136.4119 Q23.1094,136.4119 23.75,136.5681 Q24.4063,136.7244 24.9688,137.0213 L24.9688,139.74 Q24.3438,139.1619 23.75,138.8963 Q23.1563,138.615 22.5313,138.615 Q21.1875,138.615 20.5,139.6931 Q19.8125,140.7556 19.8125,142.8494 Q19.8125,144.9431 20.5,146.0213 Q21.1875,147.0838 22.5313,147.0838 Q23.1563,147.0838 23.75,146.8181 Q24.3438,146.5369 24.9688,145.9588 L24.9688,148.6775 Z " fill="#000000"/><text fill="#000000" font-family="sans-serif" font-size="14" lengthAdjust="spacing" textLength="143.7324" x="36" y="147.8836">WithCentreSelection</text><line style="stroke:#181818;stroke-width:0.5;" x1="8" x2="181.7324" y1="159.0369" y2="159.0369"/><line style="stroke:#181818;stroke-width:0.5;" x1="8" x2="181.7324" y1="167.0369" y2="167.0369"/></g><!--reverse link MxBlueskyParameters to LoadCentreCollect--><g class="link" data-entity-1="ent0005" data-entity-2="ent0007" data-link-type="extension" data-source-line="33" id="lnk8"><path codeLine="33" d="M834.2611,192.7308 C799.4711,213.4308 766.94,230.5669 721.87,247.7869 C656.34,272.8169 581.65,292.4769 516.27,306.9769" fill="none" id="MxBlueskyParameters-backto-LoadCentreCollect" style="stroke:#181818;stroke-width:1;"/><polygon fill="none" points="849.73,183.5269,831.1931,187.5745,837.3291,197.8871,849.73,183.5269" style="stroke:#181818;stroke-width:1;"/></g><!--reverse link WithVisit to LoadCentreCollect--><g class="link" data-entity-1="ent0004" data-entity-2="ent0007" data-link-type="extension" data-source-line="34" id="lnk9"><path codeLine="34" d="M479.3,227.5997 C446.55,254.9297 423.16,274.4269 394.47,298.3669" fill="none" id="WithVisit-backto-LoadCentreCollect" style="stroke:#181818;stroke-width:1;"/><polygon fill="none" points="493.12,216.0669,475.4557,222.9931,483.1443,232.2064,493.12,216.0669" style="stroke:#181818;stroke-width:1;"/></g><!--reverse link WithSample to LoadCentreCollect--><g class="link" data-entity-1="ent0003" data-entity-2="ent0007" data-link-type="extension" data-source-line="35" id="lnk10"><path codeLine="35" d="M323.5555,217.6199 C329.4655,248.1999 333.63,269.6769 339.21,298.4869" fill="none" id="WithSample-backto-LoadCentreCollect" style="stroke:#181818;stroke-width:1;"/><polygon fill="none" points="320.14,199.9469,317.6646,218.7584,329.4465,216.4813,320.14,199.9469" style="stroke:#181818;stroke-width:1;"/></g><!--reverse link WithCentreSelection to LoadCentreCollect--><g class="link" data-entity-1="ent0011" data-entity-2="ent0007" data-link-type="extension" data-source-line="36" id="lnk12"><path codeLine="36" d="M133.6586,187.5712 C155.8486,207.6112 175.89,224.7169 206.87,247.7869 C230.53,265.4069 257.56,283.3169 281.52,298.4969" fill="none" id="WithCentreSelection-backto-LoadCentreCollect" style="stroke:#181818;stroke-width:1;"/><polygon fill="none" points="120.3,175.5069,129.6372,192.024,137.6801,183.1183,120.3,175.5069" style="stroke:#181818;stroke-width:1;"/></g><?plantuml-src VLBBJWCn33oJh_2DK_i5dE320H1YApXQQTRjHirBYRTgrVRVSJPj1QBYjF7O7e_7UxyOR86LTGJorIF7sPe2PStKmt8Fbm2Jqu57x-PfhnHRbeRdVQ9iOu1tdRKdfWoliIUd2Z44GKhIXZfAakQO8SH0IWcsqMi2lyEb6wbizdCJlOzXdYuq1GwAuvfu4Cg3CawN0b-MXqxxvEYWxcnWA5E0jc_X4Tw4_uAcqMnkuZQeqm_6Jrii2s7X34lItbdHE4NRccdFdXXxMnWvOYr24yEMiYZ5f7bGToiNzNMIL9EHVQSM7GoXzut7XY9TuXYcJ2kx4oMdluk-xXwRBrTRYmZioCi1hFcKi7f-DGjzzHot3PyeJxTC7ixN-crp6_aITVz4WJCzHUT4lGpyYCl8DR4OABGav8gXBDkZI0ve9hZMigvxTKO7yADZY_aCOH5iqdHZBtWupcP_fwlhPVuhQ3_3VnKDwQW2rRFRfTy0?></g></svg>