<svg xmlns="http://www.w3.org/2000/svg" xmlns:xlink="http://www.w3.org/1999/xlink" version="1.1" data-diagram-type="SEQUENCE" style="width:700px;height:312px;background:#FFFFFF;" width="700px" height="312px" viewBox="0 0 700 312" zoomAndPan="magnify" preserveAspectRatio="none" contentStyleType="text/css"><?plantuml 1.2026.7beta8?><defs/><g font-family="sans-serif" lengthAdjust="spacing"><rect x="16" y="11" width="323.189" height="286.523" fill="#DDD" style="stroke:#181818;stroke-width:0.5;"/><text x="80.691" y="23.067" fill="#000" font-size="13" textLength="193.807" font-weight="700">Request Coordinate Space</text><rect x="444.066" y="11" width="239.029" height="286.523" fill="#DDD" style="stroke:#181818;stroke-width:0.5;"/><text x="461.066" y="23.067" fill="#000" font-size="13" textLength="205.029" font-weight="700">Hardware Coordinate Space</text><g><title>GDA.Agamemnon</title><rect x="86.083" y="78.43" width="8" height="164.797" fill="#000" fill-opacity="0"/><line x1="89.583" y1="78.43" x2="89.583" y2="243.227" style="stroke:#181818;stroke-width:0.5;stroke-dasharray:5,5;"/></g><g><title>Hyperion</title><rect x="292.991" y="78.43" width="8" height="164.797" fill="#000" fill-opacity="0"/><line x1="296.491" y1="78.43" x2="296.491" y2="243.227" style="stroke:#181818;stroke-width:0.5;stroke-dasharray:5,5;"/></g><g><title>omega_flip</title><rect x="393.127" y="78.43" width="8" height="164.797" fill="#000" fill-opacity="0"/><line x1="396.627" y1="78.43" x2="396.627" y2="243.227" style="stroke:#181818;stroke-width:0.5;stroke-dasharray:5,5;"/></g><g><title>Ophyd Devices</title><rect x="511.864" y="78.43" width="8" height="164.797" fill="#000" fill-opacity="0"/><line x1="515.364" y1="78.43" x2="515.364" y2="243.227" style="stroke:#181818;stroke-width:0.5;stroke-dasharray:5,5;"/></g><g><title>Nexus File</title><rect x="624.868" y="78.43" width="8" height="164.797" fill="#000" fill-opacity="0"/><line x1="628.368" y1="78.43" x2="628.368" y2="243.227" style="stroke:#181818;stroke-width:0.5;stroke-dasharray:5,5;"/></g><rect x="20" y="47.133" width="139.166" height="30.297" fill="#E2E2F0" style="stroke:#181818;stroke-width:0.5;" rx="2.5" ry="2.5"/><text x="27" y="67.128" fill="#000" font-size="14" textLength="125.166">GDA/Agamemnon</text><rect x="257.792" y="47.133" width="77.396" height="30.297" fill="#E2E2F0" style="stroke:#181818;stroke-width:0.5;" rx="2.5" ry="2.5"/><text x="264.792" y="67.128" fill="#000" font-size="14" textLength="63.396">Hyperion</text><text x="355.189" y="75.128" fill="#000" font-size="14" textLength="76.877">omega_flip</text><path d="M376.127,34.133 L376.127,58.133 M376.127,46.133 L393.127,46.133" style="stroke:#181818;stroke-width:0.5;" fill="none"/><ellipse cx="405.127" cy="46.133" rx="12" ry="12" fill="#E2E2F0" style="stroke:#181818;stroke-width:0.5;"/><rect x="455.577" y="47.133" width="119.574" height="30.297" fill="#E2E2F0" style="stroke:#181818;stroke-width:0.5;" rx="2.5" ry="2.5"/><text x="462.577" y="67.128" fill="#000" font-size="14" textLength="105.574">Ophyd Devices</text><rect x="585.151" y="47.133" width="86.434" height="30.297" fill="#E2E2F0" style="stroke:#181818;stroke-width:0.5;" rx="2.5" ry="2.5"/><text x="592.151" y="67.128" fill="#000" font-size="14" textLength="72.434">Nexus File</text><rect x="20" y="243.227" width="139.166" height="30.297" fill="#E2E2F0" style="stroke:#181818;stroke-width:0.5;" rx="2.5" ry="2.5"/><text x="27" y="263.222" fill="#000" font-size="14" textLength="125.166">GDA/Agamemnon</text><rect x="257.792" y="243.227" width="77.396" height="30.297" fill="#E2E2F0" style="stroke:#181818;stroke-width:0.5;" rx="2.5" ry="2.5"/><text x="264.792" y="263.222" fill="#000" font-size="14" textLength="63.396">Hyperion</text><text x="355.189" y="256.222" fill="#000" font-size="14" textLength="76.877">omega_flip</text><path d="M376.127,263.523 L376.127,287.523 M376.127,275.523 L393.127,275.523" style="stroke:#181818;stroke-width:0.5;" fill="none"/><ellipse cx="405.127" cy="275.523" rx="12" ry="12" fill="#E2E2F0" style="stroke:#181818;stroke-width:0.5;"/><rect x="455.577" y="243.227" width="119.574" height="30.297" fill="#E2E2F0" style="stroke:#181818;stroke-width:0.5;" rx="2.5" ry="2.5"/><text x="462.577" y="263.222" fill="#000" font-size="14" textLength="105.574">Ophyd Devices</text><rect x="585.151" y="243.227" width="86.434" height="30.297" fill="#E2E2F0" style="stroke:#181818;stroke-width:0.5;" rx="2.5" ry="2.5"/><text x="592.151" y="263.222" fill="#000" font-size="14" textLength="72.434">Nexus File</text><polygon points="284.491,118.695,294.491,122.695,284.491,126.695,288.491,122.695" fill="#181818" style="stroke:#181818;stroke-width:1;stroke-linejoin:miter;stroke-miterlimit:10;"/><line x1="89.583" y1="122.695" x2="290.491" y2="122.695" style="stroke:#181818;stroke-width:1;"/><text x="96.583" y="102.497" fill="#000" font-size="13" textLength="116.391">Hyperion Request</text><text x="96.583" y="117.629" fill="#000" font-size="13" textLength="182.908">(Request Coordinate Space)</text><polygon points="503.364,147.828,513.364,151.828,503.364,155.828,507.364,151.828" fill="#181818" style="stroke:#181818;stroke-width:1;stroke-linejoin:miter;stroke-miterlimit:10;"/><line x1="296.491" y1="151.828" x2="509.364" y2="151.828" style="stroke:#181818;stroke-width:1;"/><text x="303.491" y="146.762" fill="#000" font-size="13" textLength="130.552">Rotation Operations</text><polygon points="616.368,176.961,626.368,180.961,616.368,184.961,620.368,180.961" fill="#181818" style="stroke:#181818;stroke-width:1;stroke-linejoin:miter;stroke-miterlimit:10;"/><line x1="515.364" y1="180.961" x2="622.368" y2="180.961" style="stroke:#181818;stroke-width:1;"/><text x="522.364" y="175.895" fill="#000" font-size="13" textLength="68.821">PCAP Data</text><polygon points="616.368,221.227,626.368,225.227,616.368,229.227,620.368,225.227" fill="#181818" style="stroke:#181818;stroke-width:1;stroke-linejoin:miter;stroke-miterlimit:10;"/><line x1="296.491" y1="225.227" x2="622.368" y2="225.227" style="stroke:#181818;stroke-width:1;"/><text x="303.491" y="205.028" fill="#000" font-size="13" textLength="102.045">Write metadata</text><text x="303.491" y="220.161" fill="#000" font-size="13" textLength="280.592">Record actual hardware coordinate system</text><?plantuml-src XP11JyCm38Nl-HLMJt10t7j0gbR1JcmgXrqcJMvYjaXD71ANjVz-sGI5LaBSBBzdlyzkUO2YeO-Uai2AEHhhKGZU0cegLC0eLjk0Ng1ugQl7weYEd6S_rzPZe6ZPA_86MXwKQhdt1kC8xEY8X_VEXcipfwqncZD6-Yzk4qwZWPe-hQQqq5vfw1CysouFJP4BG7XuchZAgOAlO_V-xg-pxzLapYiM72KqB2XNSPDDjogfXUaszuknXEsgsaADWZ1VFZFjeiqCZWHDTkvzGpgJ0MhfiOFJzz_q3syQav2x0000?></g></svg>