<svg xmlns="http://www.w3.org/2000/svg" xmlns:xlink="http://www.w3.org/1999/xlink" contentStyleType="text/css" data-diagram-type="CLASS" height="1235px" preserveAspectRatio="none" style="width:5050px;height:1235px;background:#FFFFFF;" version="1.1" viewBox="0 0 5050 1235" width="5050px" zoomAndPan="magnify"><title>Hyperion Parameter Model</title><defs/><g><text fill="#000000" font-family="sans-serif" font-size="14" font-weight="bold" lengthAdjust="spacing" textLength="212.4951" x="2411.9424" y="22.9951">Hyperion Parameter Model</text><!--cluster mx_bluesky.common.parameters--><g id="cluster_mx_bluesky.common.parameters"><path d="M8.5,43.2969 L269.8125,43.2969 A3.75,3.75 0 0 1 272.3125,45.7969 L279.3125,65.5938 L2993.5,65.5938 A2.5,2.5 0 0 1 2996,68.0938 L2996,1109.2969 A2.5,2.5 0 0 1 2993.5,1111.7969 L8.5,1111.7969 A2.5,2.5 0 0 1 6,1109.2969 L6,45.7969 A2.5,2.5 0 0 1 8.5,43.2969 " fill="#FFFFFF" fill-opacity="0.00000" style="stroke:#000000;stroke-width:1.5;"/><line style="stroke:#000000;stroke-width:1.5;" x1="6" x2="279.3125" y1="65.5938" y2="65.5938"/><text fill="#000000" font-family="sans-serif" font-size="14" font-weight="bold" lengthAdjust="spacing" textLength="260.3125" x="10" y="58.292">mx_bluesky.common.parameters</text></g><!--cluster mx_bluesky.hyperion.parameters--><g id="cluster_mx_bluesky.hyperion.parameters"><path d="M3022.5,660.4969 L3287.0322,660.4969 A3.75,3.75 0 0 1 3289.5322,662.9969 L3296.5322,682.7937 L4842.5,682.7937 A2.5,2.5 0 0 1 4845,685.2937 L4845,1225.5969 A2.5,2.5 0 0 1 4842.5,1228.0969 L3022.5,1228.0969 A2.5,2.5 0 0 1 3020,1225.5969 L3020,662.9969 A2.5,2.5 0 0 1 3022.5,660.4969 " fill="#FFFFFF" fill-opacity="0.00000" style="stroke:#000000;stroke-width:1.5;"/><line style="stroke:#000000;stroke-width:1.5;" x1="3020" x2="3296.5322" y1="682.7937" y2="682.7937"/><text fill="#000000" font-family="sans-serif" font-size="14" font-weight="bold" lengthAdjust="spacing" textLength="263.5322" x="3024" y="675.492">mx_bluesky.hyperion.parameters</text></g><!--class XyzStarts--><g id="elem_XyzStarts"><rect codeLine="8" fill="#F1F1F1" height="96.8906" id="XyzStarts" rx="2.5" ry="2.5" style="stroke:#181818;stroke-width:0.5;" width="125.3057" x="30.35" y="102.5969"/><ellipse cx="57.3141" cy="118.5969" fill="#ADD1B2" rx="11" ry="11" style="stroke:#181818;stroke-width:1;"/><path d="M60.2829,124.2375 Q59.7047,124.5344 59.0641,124.675 Q58.4235,124.8312 57.7204,124.8312 Q55.2204,124.8312 53.8922,123.1906 Q52.5797,121.5344 52.5797,118.4094 Q52.5797,115.2844 53.8922,113.6281 Q55.2204,111.9719 57.7204,111.9719 Q58.4235,111.9719 59.0641,112.1281 Q59.7204,112.2844 60.2829,112.5812 L60.2829,115.3 Q59.6579,114.7219 59.0641,114.4562 Q58.4704,114.175 57.8454,114.175 Q56.5016,114.175 55.8141,115.2531 Q55.1266,116.3156 55.1266,118.4094 Q55.1266,120.5031 55.8141,121.5812 Q56.5016,122.6437 57.8454,122.6437 Q58.4704,122.6437 59.0641,122.3781 Q59.6579,122.0969 60.2829,121.5187 L60.2829,124.2375 Z " fill="#000000"/><text fill="#000000" font-family="sans-serif" font-size="14" lengthAdjust="spacing" textLength="66.7188" x="73.9728" y="123.4436">XyzStarts</text><line style="stroke:#181818;stroke-width:0.5;" x1="31.35" x2="154.6557" y1="134.5969" y2="134.5969"/><text fill="#000000" font-family="sans-serif" font-size="14" lengthAdjust="spacing" textLength="113.3057" x="36.35" y="151.592">float x_start_um</text><text fill="#000000" font-family="sans-serif" font-size="14" lengthAdjust="spacing" textLength="113.3057" x="36.35" y="167.8889">float y_start_um</text><text fill="#000000" font-family="sans-serif" font-size="14" lengthAdjust="spacing" textLength="112.3691" x="36.35" y="184.1857">float z_start_um</text><line style="stroke:#181818;stroke-width:0.5;" x1="31.35" x2="154.6557" y1="191.4875" y2="191.4875"/></g><!--class WithPandaGridScan--><g id="elem_WithPandaGridScan"><rect codeLine="13" fill="#F1F1F1" height="64.2969" id="WithPandaGridScan" rx="2.5" ry="2.5" style="stroke:#181818;stroke-width:0.5;" width="240.5664" x="1822.72" y="118.8969"/><ellipse cx="1869.3172" cy="134.8969" fill="#ADD1B2" rx="11" ry="11" style="stroke:#181818;stroke-width:1;"/><path d="M1872.2859,140.5375 Q1871.7078,140.8344 1871.0672,140.975 Q1870.4265,141.1312 1869.7234,141.1312 Q1867.2234,141.1312 1865.8953,139.4906 Q1864.5828,137.8344 1864.5828,134.7094 Q1864.5828,131.5844 1865.8953,129.9281 Q1867.2234,128.2719 1869.7234,128.2719 Q1870.4265,128.2719 1871.0672,128.4281 Q1871.7234,128.5844 1872.2859,128.8812 L1872.2859,131.6 Q1871.6609,131.0219 1871.0672,130.7562 Q1870.4734,130.475 1869.8484,130.475 Q1868.5047,130.475 1867.8172,131.5531 Q1867.1297,132.6156 1867.1297,134.7094 Q1867.1297,136.8031 1867.8172,137.8812 Q1868.5047,138.9437 1869.8484,138.9437 Q1870.4734,138.9437 1871.0672,138.6781 Q1871.6609,138.3969 1872.2859,137.8187 L1872.2859,140.5375 Z " fill="#000000"/><text fill="#000000" font-family="sans-serif" font-size="14" lengthAdjust="spacing" textLength="138.8721" x="1889.8172" y="139.7436">WithPandaGridScan</text><line style="stroke:#181818;stroke-width:0.5;" x1="1823.72" x2="2062.2864" y1="150.8969" y2="150.8969"/><text fill="#000000" font-family="sans-serif" font-size="14" lengthAdjust="spacing" textLength="228.5664" x="1828.72" y="167.892">float panda_runup_distance_mm</text><line style="stroke:#181818;stroke-width:0.5;" x1="1823.72" x2="2062.2864" y1="175.1937" y2="175.1937"/></g><!--class WithCentreSelection--><g id="elem_WithCentreSelection"><rect codeLine="16" fill="#F1F1F1" height="64.2969" id="WithCentreSelection" rx="2.5" ry="2.5" style="stroke:#181818;stroke-width:0.5;" width="306.7861" x="2098.61" y="118.8969"/><ellipse cx="2175.8869" cy="134.8969" fill="#ADD1B2" rx="11" ry="11" style="stroke:#181818;stroke-width:1;"/><path d="M2178.8556,140.5375 Q2178.2775,140.8344 2177.6369,140.975 Q2176.9962,141.1312 2176.2931,141.1312 Q2173.7931,141.1312 2172.465,139.4906 Q2171.1525,137.8344 2171.1525,134.7094 Q2171.1525,131.5844 2172.465,129.9281 Q2173.7931,128.2719 2176.2931,128.2719 Q2176.9962,128.2719 2177.6369,128.4281 Q2178.2931,128.5844 2178.8556,128.8812 L2178.8556,131.6 Q2178.2306,131.0219 2177.6369,130.7562 Q2177.0431,130.475 2176.4181,130.475 Q2175.0744,130.475 2174.3869,131.5531 Q2173.6994,132.6156 2173.6994,134.7094 Q2173.6994,136.8031 2174.3869,137.8812 Q2175.0744,138.9437 2176.4181,138.9437 Q2177.0431,138.9437 2177.6369,138.6781 Q2178.2306,138.3969 2178.8556,137.8187 L2178.8556,140.5375 Z " fill="#000000"/><text fill="#000000" font-family="sans-serif" font-size="14" lengthAdjust="spacing" textLength="143.7324" x="2196.3869" y="139.7436">WithCentreSelection</text><line style="stroke:#181818;stroke-width:0.5;" x1="2099.61" x2="2404.3961" y1="150.8969" y2="150.8969"/><text fill="#000000" font-family="sans-serif" font-size="14" lengthAdjust="spacing" textLength="294.7861" x="2104.61" y="167.892">TopNByMaxCountSelection select_centres</text><line style="stroke:#181818;stroke-width:0.5;" x1="2099.61" x2="2404.3961" y1="175.1937" y2="175.1937"/></g><!--class SpecifiedGrid--><g id="elem_SpecifiedGrid"><rect codeLine="19" fill="#F1F1F1" height="48" id="SpecifiedGrid" rx="2.5" ry="2.5" style="stroke:#181818;stroke-width:0.5;" width="125.6729" x="1676.16" y="357.2669"/><ellipse cx="1691.16" cy="373.2669" fill="#ADD1B2" rx="11" ry="11" style="stroke:#181818;stroke-width:1;"/><path d="M1694.1288,378.9075 Q1693.5506,379.2044 1692.91,379.345 Q1692.2694,379.5012 1691.5663,379.5012 Q1689.0663,379.5012 1687.7381,377.8606 Q1686.4256,376.2044 1686.4256,373.0794 Q1686.4256,369.9544 1687.7381,368.2981 Q1689.0663,366.6419 1691.5663,366.6419 Q1692.2694,366.6419 1692.91,366.7981 Q1693.5663,366.9544 1694.1288,367.2512 L1694.1288,369.97 Q1693.5038,369.3919 1692.91,369.1262 Q1692.3163,368.845 1691.6913,368.845 Q1690.3475,368.845 1689.66,369.9231 Q1688.9725,370.9856 1688.9725,373.0794 Q1688.9725,375.1731 1689.66,376.2512 Q1690.3475,377.3137 1691.6913,377.3137 Q1692.3163,377.3137 1692.91,377.0481 Q1693.5038,376.7669 1694.1288,376.1887 L1694.1288,378.9075 Z " fill="#000000"/><text fill="#000000" font-family="sans-serif" font-size="14" lengthAdjust="spacing" textLength="93.6729" x="1705.16" y="378.1136">SpecifiedGrid</text><line style="stroke:#181818;stroke-width:0.5;" x1="1677.16" x2="1800.8329" y1="389.2669" y2="389.2669"/><line style="stroke:#181818;stroke-width:0.5;" x1="1677.16" x2="1800.8329" y1="397.2669" y2="397.2669"/></g><!--class WithScan--><g id="elem_WithScan"><rect codeLine="21" fill="#F1F1F1" height="48" id="WithScan" rx="2.5" ry="2.5" style="stroke:#181818;stroke-width:0.5;" width="98.1309" x="1689.93" y="127.0469"/><ellipse cx="1704.93" cy="143.0469" fill="#ADD1B2" rx="11" ry="11" style="stroke:#181818;stroke-width:1;"/><path d="M1707.8988,148.6875 Q1707.3206,148.9844 1706.68,149.125 Q1706.0394,149.2813 1705.3363,149.2813 Q1702.8363,149.2813 1701.5081,147.6406 Q1700.1956,145.9844 1700.1956,142.8594 Q1700.1956,139.7344 1701.5081,138.0781 Q1702.8363,136.4219 1705.3363,136.4219 Q1706.0394,136.4219 1706.68,136.5781 Q1707.3363,136.7344 1707.8988,137.0313 L1707.8988,139.75 Q1707.2738,139.1719 1706.68,138.9063 Q1706.0863,138.625 1705.4613,138.625 Q1704.1175,138.625 1703.43,139.7031 Q1702.7425,140.7656 1702.7425,142.8594 Q1702.7425,144.9531 1703.43,146.0313 Q1704.1175,147.0938 1705.4613,147.0938 Q1706.0863,147.0938 1706.68,146.8281 Q1707.2738,146.5469 1707.8988,145.9688 L1707.8988,148.6875 Z " fill="#000000"/><text fill="#000000" font-family="sans-serif" font-size="14" lengthAdjust="spacing" textLength="66.1309" x="1718.93" y="147.8936">WithScan</text><line style="stroke:#181818;stroke-width:0.5;" x1="1690.93" x2="1787.0609" y1="159.0469" y2="159.0469"/><line style="stroke:#181818;stroke-width:0.5;" x1="1690.93" x2="1787.0609" y1="167.0469" y2="167.0469"/></g><!--class WithVisit--><g id="elem_WithVisit"><rect codeLine="23" fill="#F1F1F1" height="129.4844" id="WithVisit" rx="2.5" ry="2.5" style="stroke:#181818;stroke-width:0.5;" width="271.7861" x="1128.11" y="86.2969"/><ellipse cx="1228.6359" cy="102.2969" fill="#ADD1B2" rx="11" ry="11" style="stroke:#181818;stroke-width:1;"/><path d="M1231.6046,107.9375 Q1231.0265,108.2344 1230.3859,108.375 Q1229.7453,108.5313 1229.0421,108.5313 Q1226.5421,108.5313 1225.214,106.8906 Q1223.9015,105.2344 1223.9015,102.1094 Q1223.9015,98.9844 1225.214,97.3281 Q1226.5421,95.6719 1229.0421,95.6719 Q1229.7453,95.6719 1230.3859,95.8281 Q1231.0421,95.9844 1231.6046,96.2813 L1231.6046,99 Q1230.9796,98.4219 1230.3859,98.1563 Q1229.7921,97.875 1229.1671,97.875 Q1227.8234,97.875 1227.1359,98.9531 Q1226.4484,100.0156 1226.4484,102.1094 Q1226.4484,104.2031 1227.1359,105.2813 Q1227.8234,106.3438 1229.1671,106.3438 Q1229.7921,106.3438 1230.3859,106.0781 Q1230.9796,105.7969 1231.6046,105.2188 L1231.6046,107.9375 Z " fill="#000000"/><text fill="#000000" font-family="sans-serif" font-size="14" lengthAdjust="spacing" textLength="62.2344" x="1249.1359" y="107.1436">WithVisit</text><line style="stroke:#181818;stroke-width:0.5;" x1="1129.11" x2="1398.8961" y1="118.2969" y2="118.2969"/><text fill="#000000" font-family="sans-serif" font-size="14" lengthAdjust="spacing" textLength="87.9717" x="1134.11" y="135.292">str beamline</text><text fill="#000000" font-family="sans-serif" font-size="14" lengthAdjust="spacing" textLength="51.8369" x="1134.11" y="151.5889">str visit</text><text fill="#000000" font-family="sans-serif" font-size="14" lengthAdjust="spacing" textLength="259.7861" x="1134.11" y="167.8857">str det_dist_to_beam_converter_path</text><text fill="#000000" font-family="sans-serif" font-size="14" lengthAdjust="spacing" textLength="131.5918" x="1134.11" y="184.1826">str insertion_prefix</text><text fill="#000000" font-family="sans-serif" font-size="14" lengthAdjust="spacing" textLength="245.752" x="1134.11" y="200.4795">float | None detector_distance_mm</text><line style="stroke:#181818;stroke-width:0.5;" x1="1129.11" x2="1398.8961" y1="207.7813" y2="207.7813"/></g><!--class WithSnapshot--><g id="elem_WithSnapshot"><rect codeLine="30" fill="#F1F1F1" height="80.5938" id="WithSnapshot" rx="2.5" ry="2.5" style="stroke:#181818;stroke-width:0.5;" width="289.3477" x="672.33" y="110.7469"/><ellipse cx="763.9828" cy="126.7469" fill="#ADD1B2" rx="11" ry="11" style="stroke:#181818;stroke-width:1;"/><path d="M766.9516,132.3875 Q766.3735,132.6844 765.7328,132.825 Q765.0922,132.9813 764.3891,132.9813 Q761.8891,132.9813 760.561,131.3406 Q759.2485,129.6844 759.2485,126.5594 Q759.2485,123.4344 760.561,121.7781 Q761.8891,120.1219 764.3891,120.1219 Q765.0922,120.1219 765.7328,120.2781 Q766.3891,120.4344 766.9516,120.7313 L766.9516,123.45 Q766.3266,122.8719 765.7328,122.6063 Q765.1391,122.325 764.5141,122.325 Q763.1703,122.325 762.4828,123.4031 Q761.7953,124.4656 761.7953,126.5594 Q761.7953,128.6531 762.4828,129.7313 Q763.1703,130.7938 764.5141,130.7938 Q765.1391,130.7938 765.7328,130.5281 Q766.3266,130.2469 766.9516,129.6688 L766.9516,132.3875 Z " fill="#000000"/><text fill="#000000" font-family="sans-serif" font-size="14" lengthAdjust="spacing" textLength="97.542" x="784.4828" y="131.5936">WithSnapshot</text><line style="stroke:#181818;stroke-width:0.5;" x1="673.33" x2="960.6777" y1="142.7469" y2="142.7469"/><text fill="#000000" font-family="sans-serif" font-size="14" lengthAdjust="spacing" textLength="169.627" x="678.33" y="159.742">Path snapshot_directory</text><text fill="#000000" font-family="sans-serif" font-size="14" lengthAdjust="spacing" textLength="277.3477" x="678.33" y="176.0389">list[float] | None snapshot_omegas_deg</text><line style="stroke:#181818;stroke-width:0.5;" x1="673.33" x2="960.6777" y1="183.3406" y2="183.3406"/></g><!--class WithSample--><g id="elem_WithSample"><rect codeLine="34" fill="#F1F1F1" height="96.8906" id="WithSample" rx="2.5" ry="2.5" style="stroke:#181818;stroke-width:0.5;" width="176.3086" x="460.85" y="102.5969"/><ellipse cx="502.7243" cy="118.5969" fill="#ADD1B2" rx="11" ry="11" style="stroke:#181818;stroke-width:1;"/><path d="M505.6931,124.2375 Q505.1149,124.5344 504.4743,124.675 Q503.8337,124.8312 503.1306,124.8312 Q500.6306,124.8312 499.3024,123.1906 Q497.9899,121.5344 497.9899,118.4094 Q497.9899,115.2844 499.3024,113.6281 Q500.6306,111.9719 503.1306,111.9719 Q503.8337,111.9719 504.4743,112.1281 Q505.1306,112.2844 505.6931,112.5812 L505.6931,115.3 Q505.0681,114.7219 504.4743,114.4562 Q503.8806,114.175 503.2556,114.175 Q501.9118,114.175 501.2243,115.2531 Q500.5368,116.3156 500.5368,118.4094 Q500.5368,120.5031 501.2243,121.5812 Q501.9118,122.6437 503.2556,122.6437 Q503.8806,122.6437 504.4743,122.3781 Q505.0681,122.0969 505.6931,121.5187 L505.6931,124.2375 Z " fill="#000000"/><text fill="#000000" font-family="sans-serif" font-size="14" lengthAdjust="spacing" textLength="84.5879" x="522.6964" y="123.4436">WithSample</text><line style="stroke:#181818;stroke-width:0.5;" x1="461.85" x2="636.1586" y1="134.5969" y2="134.5969"/><text fill="#000000" font-family="sans-serif" font-size="14" lengthAdjust="spacing" textLength="93.3789" x="466.85" y="151.592">int sample_id</text><text fill="#000000" font-family="sans-serif" font-size="14" lengthAdjust="spacing" textLength="164.3086" x="466.85" y="167.8889">int | None sample_puck</text><text fill="#000000" font-family="sans-serif" font-size="14" lengthAdjust="spacing" textLength="152.3936" x="466.85" y="184.1857">int | None sample_pin</text><line style="stroke:#181818;stroke-width:0.5;" x1="461.85" x2="636.1586" y1="191.4875" y2="191.4875"/></g><!--class OptionalGonioAngleStarts--><g id="elem_OptionalGonioAngleStarts"><rect codeLine="39" fill="#F1F1F1" height="113.1875" id="OptionalGonioAngleStarts" rx="2.5" ry="2.5" style="stroke:#181818;stroke-width:0.5;" width="219.3203" x="1435.34" y="94.4469"/><ellipse cx="1453.0633" cy="110.4469" fill="#ADD1B2" rx="11" ry="11" style="stroke:#181818;stroke-width:1;"/><path d="M1456.032,116.0875 Q1455.4539,116.3844 1454.8133,116.525 Q1454.1727,116.6812 1453.4695,116.6812 Q1450.9695,116.6812 1449.6414,115.0406 Q1448.3289,113.3844 1448.3289,110.2594 Q1448.3289,107.1344 1449.6414,105.4781 Q1450.9695,103.8219 1453.4695,103.8219 Q1454.1727,103.8219 1454.8133,103.9781 Q1455.4695,104.1344 1456.032,104.4312 L1456.032,107.15 Q1455.407,106.5719 1454.8133,106.3062 Q1454.2195,106.025 1453.5945,106.025 Q1452.2508,106.025 1451.5633,107.1031 Q1450.8758,108.1656 1450.8758,110.2594 Q1450.8758,112.3531 1451.5633,113.4312 Q1452.2508,114.4937 1453.5945,114.4937 Q1454.2195,114.4937 1454.8133,114.2281 Q1455.407,113.9469 1456.032,113.3687 L1456.032,116.0875 Z " fill="#000000"/><text fill="#000000" font-family="sans-serif" font-size="14" lengthAdjust="spacing" textLength="181.2686" x="1467.6685" y="115.2936">OptionalGonioAngleStarts</text><line style="stroke:#181818;stroke-width:0.5;" x1="1436.34" x2="1653.6603" y1="126.4469" y2="126.4469"/><text fill="#000000" font-family="sans-serif" font-size="14" lengthAdjust="spacing" textLength="207.3203" x="1441.34" y="143.442">float | None omega_start_deg</text><text fill="#000000" font-family="sans-serif" font-size="14" lengthAdjust="spacing" textLength="180.6875" x="1441.34" y="159.7389">float | None phi_start_deg</text><text fill="#000000" font-family="sans-serif" font-size="14" lengthAdjust="spacing" textLength="179.498" x="1441.34" y="176.0357">float | None chi_start_deg</text><text fill="#000000" font-family="sans-serif" font-size="14" lengthAdjust="spacing" textLength="202.0771" x="1441.34" y="192.3326">float | None kappa_start_deg</text><line style="stroke:#181818;stroke-width:0.5;" x1="1436.34" x2="1653.6603" y1="199.6344" y2="199.6344"/></g><!--class SplitScan--><g id="elem_SplitScan"><rect codeLine="45" fill="#F1F1F1" height="48" id="SplitScan" rx="2.5" ry="2.5" style="stroke:#181818;stroke-width:0.5;" width="97.0781" x="996.46" y="127.0469"/><ellipse cx="1011.46" cy="143.0469" fill="#ADD1B2" rx="11" ry="11" style="stroke:#181818;stroke-width:1;"/><path d="M1014.4288,148.6875 Q1013.8506,148.9844 1013.21,149.125 Q1012.5694,149.2813 1011.8663,149.2813 Q1009.3663,149.2813 1008.0381,147.6406 Q1006.7256,145.9844 1006.7256,142.8594 Q1006.7256,139.7344 1008.0381,138.0781 Q1009.3663,136.4219 1011.8663,136.4219 Q1012.5694,136.4219 1013.21,136.5781 Q1013.8663,136.7344 1014.4288,137.0313 L1014.4288,139.75 Q1013.8038,139.1719 1013.21,138.9063 Q1012.6163,138.625 1011.9913,138.625 Q1010.6475,138.625 1009.96,139.7031 Q1009.2725,140.7656 1009.2725,142.8594 Q1009.2725,144.9531 1009.96,146.0313 Q1010.6475,147.0938 1011.9913,147.0938 Q1012.6163,147.0938 1013.21,146.8281 Q1013.8038,146.5469 1014.4288,145.9688 L1014.4288,148.6875 Z " fill="#000000"/><text fill="#000000" font-family="sans-serif" font-size="14" lengthAdjust="spacing" textLength="65.0781" x="1025.46" y="147.8936">SplitScan</text><line style="stroke:#181818;stroke-width:0.5;" x1="997.46" x2="1092.5381" y1="159.0469" y2="159.0469"/><line style="stroke:#181818;stroke-width:0.5;" x1="997.46" x2="1092.5381" y1="167.0469" y2="167.0469"/></g><!--class OptionalXyzStarts--><g id="elem_OptionalXyzStarts"><rect codeLine="47" fill="#F1F1F1" height="96.8906" id="OptionalXyzStarts" rx="2.5" ry="2.5" style="stroke:#181818;stroke-width:0.5;" width="175.4473" x="2440.28" y="102.5969"/><ellipse cx="2463.1713" cy="118.5969" fill="#ADD1B2" rx="11" ry="11" style="stroke:#181818;stroke-width:1;"/><path d="M2466.14,124.2375 Q2465.5619,124.5344 2464.9213,124.675 Q2464.2806,124.8312 2463.5775,124.8312 Q2461.0775,124.8312 2459.7494,123.1906 Q2458.4369,121.5344 2458.4369,118.4094 Q2458.4369,115.2844 2459.7494,113.6281 Q2461.0775,111.9719 2463.5775,111.9719 Q2464.2806,111.9719 2464.9213,112.1281 Q2465.5775,112.2844 2466.14,112.5812 L2466.14,115.3 Q2465.515,114.7219 2464.9213,114.4562 Q2464.3275,114.175 2463.7025,114.175 Q2462.3588,114.175 2461.6713,115.2531 Q2460.9838,116.3156 2460.9838,118.4094 Q2460.9838,120.5031 2461.6713,121.5812 Q2462.3588,122.6437 2463.7025,122.6437 Q2464.3275,122.6437 2464.9213,122.3781 Q2465.515,122.0969 2466.14,121.5187 L2466.14,124.2375 Z " fill="#000000"/><text fill="#000000" font-family="sans-serif" font-size="14" lengthAdjust="spacing" textLength="125.9111" x="2478.9249" y="123.4436">OptionalXyzStarts</text><line style="stroke:#181818;stroke-width:0.5;" x1="2441.28" x2="2614.7273" y1="134.5969" y2="134.5969"/><text fill="#000000" font-family="sans-serif" font-size="14" lengthAdjust="spacing" textLength="163.4473" x="2446.28" y="151.592">float | None x_start_um</text><text fill="#000000" font-family="sans-serif" font-size="14" lengthAdjust="spacing" textLength="163.4473" x="2446.28" y="167.8889">float | None y_start_um</text><text fill="#000000" font-family="sans-serif" font-size="14" lengthAdjust="spacing" textLength="162.5107" x="2446.28" y="184.1857">float | None z_start_um</text><line style="stroke:#181818;stroke-width:0.5;" x1="2441.28" x2="2614.7273" y1="191.4875" y2="191.4875"/></g><!--class WithOptionalEnergyChange--><g id="elem_WithOptionalEnergyChange"><rect codeLine="52" fill="#F1F1F1" height="64.2969" id="WithOptionalEnergyChange" rx="2.5" ry="2.5" style="stroke:#181818;stroke-width:0.5;" width="235.4463" x="190.28" y="118.8969"/><ellipse cx="209.4645" cy="134.8969" fill="#ADD1B2" rx="11" ry="11" style="stroke:#181818;stroke-width:1;"/><path d="M212.4332,140.5375 Q211.8551,140.8344 211.2145,140.975 Q210.5738,141.1312 209.8707,141.1312 Q207.3707,141.1312 206.0426,139.4906 Q204.7301,137.8344 204.7301,134.7094 Q204.7301,131.5844 206.0426,129.9281 Q207.3707,128.2719 209.8707,128.2719 Q210.5738,128.2719 211.2145,128.4281 Q211.8707,128.5844 212.4332,128.8812 L212.4332,131.6 Q211.8082,131.0219 211.2145,130.7562 Q210.6207,130.475 209.9957,130.475 Q208.652,130.475 207.9645,131.5531 Q207.277,132.6156 207.277,134.7094 Q207.277,136.8031 207.9645,137.8812 Q208.652,138.9437 209.9957,138.9437 Q210.6207,138.9437 211.2145,138.6781 Q211.8082,138.3969 212.4332,137.8187 L212.4332,140.5375 Z " fill="#000000"/><text fill="#000000" font-family="sans-serif" font-size="14" lengthAdjust="spacing" textLength="194.1475" x="224.3944" y="139.7436">WithOptionalEnergyChange</text><line style="stroke:#181818;stroke-width:0.5;" x1="191.28" x2="424.7263" y1="150.8969" y2="150.8969"/><text fill="#000000" font-family="sans-serif" font-size="14" lengthAdjust="spacing" textLength="223.4463" x="196.28" y="167.892">float | None demand_energy_ev</text><line style="stroke:#181818;stroke-width:0.5;" x1="191.28" x2="424.7263" y1="175.1937" y2="175.1937"/></g><!--class DiffractionExperiment--><g id="elem_DiffractionExperiment"><rect codeLine="57" fill="#F1F1F1" height="210.9688" id="DiffractionExperiment" rx="2.5" ry="2.5" style="stroke:#181818;stroke-width:0.5;" width="332.332" x="2639.83" y="275.7869"/><ellipse cx="2724.6127" cy="291.7869" fill="#ADD1B2" rx="11" ry="11" style="stroke:#181818;stroke-width:1;"/><path d="M2727.5815,297.4275 Q2727.0033,297.7244 2726.3627,297.865 Q2725.7221,298.0213 2725.019,298.0213 Q2722.519,298.0213 2721.1908,296.3806 Q2719.8783,294.7244 2719.8783,291.5994 Q2719.8783,288.4744 2721.1908,286.8181 Q2722.519,285.1619 2725.019,285.1619 Q2725.7221,285.1619 2726.3627,285.3181 Q2727.019,285.4744 2727.5815,285.7713 L2727.5815,288.49 Q2726.9565,287.9119 2726.3627,287.6463 Q2725.769,287.365 2725.144,287.365 Q2723.8002,287.365 2723.1127,288.4431 Q2722.4252,289.5056 2722.4252,291.5994 Q2722.4252,293.6931 2723.1127,294.7713 Q2723.8002,295.8338 2725.144,295.8338 Q2725.769,295.8338 2726.3627,295.5681 Q2726.9565,295.2869 2727.5815,294.7088 L2727.5815,297.4275 Z " fill="#000000"/><text fill="#000000" font-family="sans-serif" font-size="14" lengthAdjust="spacing" textLength="154.2666" x="2745.1127" y="296.6336">DiffractionExperiment</text><line style="stroke:#181818;stroke-width:0.5;" x1="2640.83" x2="2971.162" y1="307.7869" y2="307.7869"/><text fill="#000000" font-family="sans-serif" font-size="14" lengthAdjust="spacing" textLength="91.0137" x="2645.83" y="324.782">str file_name</text><text fill="#000000" font-family="sans-serif" font-size="14" lengthAdjust="spacing" textLength="153.7129" x="2645.83" y="341.0789">float exposure_time_s</text><text fill="#000000" font-family="sans-serif" font-size="14" lengthAdjust="spacing" textLength="89.5029" x="2645.83" y="357.3757">str comment</text><text fill="#000000" font-family="sans-serif" font-size="14" lengthAdjust="spacing" textLength="186.915" x="2645.83" y="373.6726">TriggerMode trigger_mode</text><text fill="#000000" font-family="sans-serif" font-size="14" lengthAdjust="spacing" textLength="157.9854" x="2645.83" y="389.9695">int | None run_number</text><text fill="#000000" font-family="sans-serif" font-size="14" lengthAdjust="spacing" textLength="282.3516" x="2645.83" y="406.2664">ApertureValue | None selected_aperture</text><text fill="#000000" font-family="sans-serif" font-size="14" lengthAdjust="spacing" textLength="159.2979" x="2645.83" y="422.5632">float transmission_frac</text><text fill="#000000" font-family="sans-serif" font-size="14" lengthAdjust="spacing" textLength="320.332" x="2645.83" y="438.8601">IspybExperimentType ispyb_experiment_type</text><text fill="#000000" font-family="sans-serif" font-size="14" lengthAdjust="spacing" textLength="146.1113" x="2645.83" y="455.157">str storage_directory</text><text fill="#000000" font-family="sans-serif" font-size="14" lengthAdjust="spacing" textLength="131.0518" x="2645.83" y="471.4539">bool use_roi_mode</text><line style="stroke:#181818;stroke-width:0.5;" x1="2640.83" x2="2971.162" y1="478.7556" y2="478.7556"/></g><!--class GridCommon--><g id="elem_GridCommon"><rect codeLine="69" fill="#F1F1F1" height="145.7813" id="GridCommon" rx="2.5" ry="2.5" style="stroke:#181818;stroke-width:0.5;" width="332.332" x="2639.83" y="654.7569"/><ellipse cx="2755.5282" cy="670.7569" fill="#ADD1B2" rx="11" ry="11" style="stroke:#181818;stroke-width:1;"/><path d="M2758.497,676.3975 Q2757.9189,676.6944 2757.2782,676.835 Q2756.6376,676.9912 2755.9345,676.9912 Q2753.4345,676.9912 2752.1064,675.3506 Q2750.7939,673.6944 2750.7939,670.5694 Q2750.7939,667.4444 2752.1064,665.7881 Q2753.4345,664.1319 2755.9345,664.1319 Q2756.6376,664.1319 2757.2782,664.2881 Q2757.9345,664.4444 2758.497,664.7412 L2758.497,667.46 Q2757.872,666.8819 2757.2782,666.6162 Q2756.6845,666.335 2756.0595,666.335 Q2754.7157,666.335 2754.0282,667.4131 Q2753.3407,668.4756 2753.3407,670.5694 Q2753.3407,672.6631 2754.0282,673.7412 Q2754.7157,674.8037 2756.0595,674.8037 Q2756.6845,674.8037 2757.2782,674.5381 Q2757.872,674.2569 2758.497,673.6787 L2758.497,676.3975 Z " fill="#000000"/><text fill="#000000" font-family="sans-serif" font-size="14" lengthAdjust="spacing" textLength="92.4355" x="2776.0282" y="675.6036">GridCommon</text><line style="stroke:#181818;stroke-width:0.5;" x1="2640.83" x2="2971.162" y1="686.7569" y2="686.7569"/><text fill="#000000" font-family="sans-serif" font-size="14" lengthAdjust="spacing" textLength="125.2959" x="2645.83" y="703.752">float box_size_um</text><text fill="#000000" font-family="sans-serif" font-size="14" lengthAdjust="spacing" textLength="138.4209" x="2645.83" y="720.0489">float grid_width_um</text><text fill="#000000" font-family="sans-serif" font-size="14" lengthAdjust="spacing" textLength="153.7129" x="2645.83" y="736.3457">float exposure_time_s</text><text fill="#000000" font-family="sans-serif" font-size="14" lengthAdjust="spacing" textLength="320.332" x="2645.83" y="752.6426">IspybExperimentType ispyb_experiment_type</text><text fill="#000000" font-family="sans-serif" font-size="14" lengthAdjust="spacing" textLength="282.3516" x="2645.83" y="768.9395">ApertureValue | None selected_aperture</text><text fill="#000000" font-family="sans-serif" font-size="14" lengthAdjust="spacing" textLength="130.498" x="2645.83" y="785.2364">float tip_offset_um</text><line style="stroke:#181818;stroke-width:0.5;" x1="2640.83" x2="2971.162" y1="792.5381" y2="792.5381"/></g><!--class DiffractionExperimentWithSample--><g id="elem_DiffractionExperimentWithSample"><rect codeLine="77" fill="#F1F1F1" height="48" id="DiffractionExperimentWithSample" rx="2.5" ry="2.5" style="stroke:#181818;stroke-width:0.5;" width="270.8545" x="2670.57" y="546.7569"/><ellipse cx="2685.57" cy="562.7569" fill="#ADD1B2" rx="11" ry="11" style="stroke:#181818;stroke-width:1;"/><path d="M2688.5388,568.3975 Q2687.9606,568.6944 2687.32,568.835 Q2686.6794,568.9912 2685.9763,568.9912 Q2683.4763,568.9912 2682.1481,567.3506 Q2680.8356,565.6944 2680.8356,562.5694 Q2680.8356,559.4444 2682.1481,557.7881 Q2683.4763,556.1319 2685.9763,556.1319 Q2686.6794,556.1319 2687.32,556.2881 Q2687.9763,556.4444 2688.5388,556.7412 L2688.5388,559.46 Q2687.9138,558.8819 2687.32,558.6162 Q2686.7263,558.335 2686.1013,558.335 Q2684.7575,558.335 2684.07,559.4131 Q2683.3825,560.4756 2683.3825,562.5694 Q2683.3825,564.6631 2684.07,565.7412 Q2684.7575,566.8037 2686.1013,566.8037 Q2686.7263,566.8037 2687.32,566.5381 Q2687.9138,566.2569 2688.5388,565.6787 L2688.5388,568.3975 Z " fill="#000000"/><text fill="#000000" font-family="sans-serif" font-size="14" lengthAdjust="spacing" textLength="238.8545" x="2699.57" y="567.6036">DiffractionExperimentWithSample</text><line style="stroke:#181818;stroke-width:0.5;" x1="2671.57" x2="2940.4245" y1="578.7569" y2="578.7569"/><line style="stroke:#181818;stroke-width:0.5;" x1="2671.57" x2="2940.4245" y1="586.7569" y2="586.7569"/></g><!--class MxBlueskyParameters--><g id="elem_MxBlueskyParameters"><rect codeLine="79" fill="#F1F1F1" height="64.2969" id="MxBlueskyParameters" rx="2.5" ry="2.5" style="stroke:#181818;stroke-width:0.5;" width="317.4639" x="2652.27" y="118.8969"/><ellipse cx="2728.8564" cy="134.8969" fill="#ADD1B2" rx="11" ry="11" style="stroke:#181818;stroke-width:1;"/><path d="M2731.8252,140.5375 Q2731.2471,140.8344 2730.6064,140.975 Q2729.9658,141.1312 2729.2627,141.1312 Q2726.7627,141.1312 2725.4346,139.4906 Q2724.1221,137.8344 2724.1221,134.7094 Q2724.1221,131.5844 2725.4346,129.9281 Q2726.7627,128.2719 2729.2627,128.2719 Q2729.9658,128.2719 2730.6064,128.4281 Q2731.2627,128.5844 2731.8252,128.8812 L2731.8252,131.6 Q2731.2002,131.0219 2730.6064,130.7562 Q2730.0127,130.475 2729.3877,130.475 Q2728.0439,130.475 2727.3564,131.5531 Q2726.6689,132.6156 2726.6689,134.7094 Q2726.6689,136.8031 2727.3564,137.8812 Q2728.0439,138.9437 2729.3877,138.9437 Q2730.0127,138.9437 2730.6064,138.6781 Q2731.2002,138.3969 2731.8252,137.8187 L2731.8252,140.5375 Z " fill="#000000"/><text fill="#000000" font-family="sans-serif" font-size="14" lengthAdjust="spacing" textLength="155.791" x="2749.3564" y="139.7436">MxBlueskyParameters</text><line style="stroke:#181818;stroke-width:0.5;" x1="2653.27" x2="2968.7339" y1="150.8969" y2="150.8969"/><text fill="#000000" font-family="sans-serif" font-size="14" lengthAdjust="spacing" textLength="305.4639" x="2658.27" y="167.892">SemanticVersion parameter_model_version</text><line style="stroke:#181818;stroke-width:0.5;" x1="2653.27" x2="2968.7339" y1="175.1937" y2="175.1937"/></g><!--class SpecifiedThreeDGridScan--><g id="elem_SpecifiedThreeDGridScan"><rect codeLine="82" fill="#F1F1F1" height="227.2656" id="SpecifiedThreeDGridScan" rx="2.5" ry="2.5" style="stroke:#181818;stroke-width:0.5;" width="210.8965" x="2639.55" y="860.5369"/><ellipse cx="2654.55" cy="876.5369" fill="#ADD1B2" rx="11" ry="11" style="stroke:#181818;stroke-width:1;"/><path d="M2657.5188,882.1775 Q2656.9406,882.4744 2656.3,882.615 Q2655.6594,882.7713 2654.9563,882.7713 Q2652.4563,882.7713 2651.1281,881.1306 Q2649.8156,879.4744 2649.8156,876.3494 Q2649.8156,873.2244 2651.1281,871.5681 Q2652.4563,869.9119 2654.9563,869.9119 Q2655.6594,869.9119 2656.3,870.0681 Q2656.9563,870.2244 2657.5188,870.5213 L2657.5188,873.24 Q2656.8938,872.6619 2656.3,872.3963 Q2655.7063,872.115 2655.0813,872.115 Q2653.7375,872.115 2653.05,873.1931 Q2652.3625,874.2556 2652.3625,876.3494 Q2652.3625,878.4431 2653.05,879.5213 Q2653.7375,880.5838 2655.0813,880.5838 Q2655.7063,880.5838 2656.3,880.3181 Q2656.8938,880.0369 2657.5188,879.4588 L2657.5188,882.1775 Z " fill="#000000"/><text fill="#000000" font-family="sans-serif" font-size="14" lengthAdjust="spacing" textLength="178.8965" x="2668.55" y="881.3836">SpecifiedThreeDGridScan</text><line style="stroke:#181818;stroke-width:0.5;" x1="2640.55" x2="2849.4465" y1="892.5369" y2="892.5369"/><text fill="#000000" font-family="sans-serif" font-size="14" lengthAdjust="spacing" textLength="160.8975" x="2645.55" y="909.532">float grid1_omega_deg</text><text fill="#000000" font-family="sans-serif" font-size="14" lengthAdjust="spacing" textLength="160.8975" x="2645.55" y="925.8289">float grid2_omega_deg</text><text fill="#000000" font-family="sans-serif" font-size="14" lengthAdjust="spacing" textLength="145.127" x="2645.55" y="942.1257">float x_step_size_um</text><text fill="#000000" font-family="sans-serif" font-size="14" lengthAdjust="spacing" textLength="145.127" x="2645.55" y="958.4226">float y_step_size_um</text><text fill="#000000" font-family="sans-serif" font-size="14" lengthAdjust="spacing" textLength="144.1904" x="2645.55" y="974.7195">float z_step_size_um</text><text fill="#000000" font-family="sans-serif" font-size="14" lengthAdjust="spacing" textLength="122.2129" x="2645.55" y="991.0164">float y2_start_um</text><text fill="#000000" font-family="sans-serif" font-size="14" lengthAdjust="spacing" textLength="121.2764" x="2645.55" y="1007.3132">float z2_start_um</text><text fill="#000000" font-family="sans-serif" font-size="14" lengthAdjust="spacing" textLength="75.5645" x="2645.55" y="1023.6101">int x_steps</text><text fill="#000000" font-family="sans-serif" font-size="14" lengthAdjust="spacing" textLength="75.5645" x="2645.55" y="1039.907">int y_steps</text><text fill="#000000" font-family="sans-serif" font-size="14" lengthAdjust="spacing" textLength="74.6279" x="2645.55" y="1056.2039">int z_steps</text><text fill="#000000" font-family="sans-serif" font-size="14" lengthAdjust="spacing" textLength="154.4102" x="2645.55" y="1072.5007">bool _set_stub_offsets</text><line style="stroke:#181818;stroke-width:0.5;" x1="2640.55" x2="2849.4465" y1="1079.8025" y2="1079.8025"/></g><!--class GridScanWithEdgeDetect--><g id="elem_GridScanWithEdgeDetect"><rect codeLine="98" fill="#F1F1F1" height="48" id="GridScanWithEdgeDetect" rx="2.5" ry="2.5" style="stroke:#181818;stroke-width:0.5;" width="209.4268" x="3307.29" y="1155.9469"/><ellipse cx="3322.29" cy="1171.9469" fill="#ADD1B2" rx="11" ry="11" style="stroke:#181818;stroke-width:1;"/><path d="M3325.2588,1177.5875 Q3324.6806,1177.8844 3324.04,1178.025 Q3323.3994,1178.1812 3322.6963,1178.1812 Q3320.1963,1178.1812 3318.8681,1176.5406 Q3317.5556,1174.8844 3317.5556,1171.7594 Q3317.5556,1168.6344 3318.8681,1166.9781 Q3320.1963,1165.3219 3322.6963,1165.3219 Q3323.3994,1165.3219 3324.04,1165.4781 Q3324.6963,1165.6344 3325.2588,1165.9312 L3325.2588,1168.65 Q3324.6338,1168.0719 3324.04,1167.8062 Q3323.4463,1167.525 3322.8213,1167.525 Q3321.4775,1167.525 3320.79,1168.6031 Q3320.1025,1169.6656 3320.1025,1171.7594 Q3320.1025,1173.8531 3320.79,1174.9312 Q3321.4775,1175.9937 3322.8213,1175.9937 Q3323.4463,1175.9937 3324.04,1175.7281 Q3324.6338,1175.4469 3325.2588,1174.8687 L3325.2588,1177.5875 Z " fill="#000000"/><text fill="#000000" font-family="sans-serif" font-size="14" lengthAdjust="spacing" textLength="177.4268" x="3336.29" y="1176.7936">GridScanWithEdgeDetect</text><line style="stroke:#181818;stroke-width:0.5;" x1="3308.29" x2="3515.7168" y1="1187.9469" y2="1187.9469"/><line style="stroke:#181818;stroke-width:0.5;" x1="3308.29" x2="3515.7168" y1="1195.9469" y2="1195.9469"/></g><!--class RotationExperiment--><g id="elem_RotationExperiment"><rect codeLine="100" fill="#F1F1F1" height="96.8906" id="RotationExperiment" rx="2.5" ry="2.5" style="stroke:#181818;stroke-width:0.5;" width="332.332" x="3515.83" y="925.7269"/><ellipse cx="3607.7118" cy="941.7269" fill="#ADD1B2" rx="11" ry="11" style="stroke:#181818;stroke-width:1;"/><path d="M3610.6806,947.3675 Q3610.1025,947.6644 3609.4618,947.805 Q3608.8212,947.9613 3608.1181,947.9613 Q3605.6181,947.9613 3604.29,946.3206 Q3602.9775,944.6644 3602.9775,941.5394 Q3602.9775,938.4144 3604.29,936.7581 Q3605.6181,935.1019 3608.1181,935.1019 Q3608.8212,935.1019 3609.4618,935.2581 Q3610.1181,935.4144 3610.6806,935.7113 L3610.6806,938.43 Q3610.0556,937.8519 3609.4618,937.5863 Q3608.8681,937.305 3608.2431,937.305 Q3606.8993,937.305 3606.2118,938.3831 Q3605.5243,939.4456 3605.5243,941.5394 Q3605.5243,943.6331 3606.2118,944.7113 Q3606.8993,945.7738 3608.2431,945.7738 Q3608.8681,945.7738 3609.4618,945.5081 Q3610.0556,945.2269 3610.6806,944.6488 L3610.6806,947.3675 Z " fill="#000000"/><text fill="#000000" font-family="sans-serif" font-size="14" lengthAdjust="spacing" textLength="140.0684" x="3628.2118" y="946.5736">RotationExperiment</text><line style="stroke:#181818;stroke-width:0.5;" x1="3516.83" x2="3847.162" y1="957.7269" y2="957.7269"/><text fill="#000000" font-family="sans-serif" font-size="14" lengthAdjust="spacing" textLength="202.8018" x="3521.83" y="974.722">float shutter_opening_time_s</text><text fill="#000000" font-family="sans-serif" font-size="14" lengthAdjust="spacing" textLength="202.9385" x="3521.83" y="991.0189">float rotation_increment_deg</text><text fill="#000000" font-family="sans-serif" font-size="14" lengthAdjust="spacing" textLength="320.332" x="3521.83" y="1007.3157">IspybExperimentType ispyb_experiment_type</text><line style="stroke:#181818;stroke-width:0.5;" x1="3516.83" x2="3847.162" y1="1014.6175" y2="1014.6175"/></g><!--class LoadCentreCollect--><g id="elem_LoadCentreCollect"><rect codeLine="105" fill="#F1F1F1" height="80.5938" id="LoadCentreCollect" rx="2.5" ry="2.5" style="stroke:#181818;stroke-width:0.5;" width="338.6211" x="4191.69" y="933.8669"/><ellipse cx="4292.315" cy="949.8669" fill="#ADD1B2" rx="11" ry="11" style="stroke:#181818;stroke-width:1;"/><path d="M4295.2838,955.5075 Q4294.7056,955.8044 4294.065,955.945 Q4293.4244,956.1012 4292.7213,956.1012 Q4290.2213,956.1012 4288.8931,954.4606 Q4287.5806,952.8044 4287.5806,949.6794 Q4287.5806,946.5544 4288.8931,944.8981 Q4290.2213,943.2419 4292.7213,943.2419 Q4293.4244,943.2419 4294.065,943.3981 Q4294.7213,943.5544 4295.2838,943.8512 L4295.2838,946.57 Q4294.6588,945.9919 4294.065,945.7262 Q4293.4713,945.445 4292.8463,945.445 Q4291.5025,945.445 4290.815,946.5231 Q4290.1275,947.5856 4290.1275,949.6794 Q4290.1275,951.7731 4290.815,952.8512 Q4291.5025,953.9137 4292.8463,953.9137 Q4293.4713,953.9137 4294.065,953.6481 Q4294.6588,953.3669 4295.2838,952.7887 L4295.2838,955.5075 Z " fill="#000000"/><text fill="#000000" font-family="sans-serif" font-size="14" lengthAdjust="spacing" textLength="128.8711" x="4312.815" y="954.7136">LoadCentreCollect</text><line style="stroke:#181818;stroke-width:0.5;" x1="4192.69" x2="4529.3111" y1="965.8669" y2="965.8669"/><text fill="#000000" font-family="sans-serif" font-size="14" lengthAdjust="spacing" textLength="326.6211" x="4197.69" y="982.862">RobotLoadThenCentre robot_load_then_centre</text><text fill="#000000" font-family="sans-serif" font-size="14" lengthAdjust="spacing" textLength="269.3154" x="4197.69" y="999.1589">MultiRotationScan multi_rotation_scan</text><line style="stroke:#181818;stroke-width:0.5;" x1="4192.69" x2="4529.3111" y1="1006.4606" y2="1006.4606"/></g><!--class WithHyperionUDCFeatures--><g id="elem_WithHyperionUDCFeatures"><rect codeLine="109" fill="#F1F1F1" height="64.2969" id="WithHyperionUDCFeatures" rx="2.5" ry="2.5" style="stroke:#181818;stroke-width:0.5;" width="228.6719" x="3346.66" y="695.4969"/><ellipse cx="3365.7583" cy="711.4969" fill="#ADD1B2" rx="11" ry="11" style="stroke:#181818;stroke-width:1;"/><path d="M3368.7271,717.1375 Q3368.149,717.4344 3367.5083,717.575 Q3366.8677,717.7312 3366.1646,717.7312 Q3363.6646,717.7312 3362.3365,716.0906 Q3361.024,714.4344 3361.024,711.3094 Q3361.024,708.1844 3362.3365,706.5281 Q3363.6646,704.8719 3366.1646,704.8719 Q3366.8677,704.8719 3367.5083,705.0281 Q3368.1646,705.1844 3368.7271,705.4812 L3368.7271,708.2 Q3368.1021,707.6219 3367.5083,707.3562 Q3366.9146,707.075 3366.2896,707.075 Q3364.9458,707.075 3364.2583,708.1531 Q3363.5708,709.2156 3363.5708,711.3094 Q3363.5708,713.4031 3364.2583,714.4812 Q3364.9458,715.5437 3366.2896,715.5437 Q3366.9146,715.5437 3367.5083,715.2781 Q3368.1021,714.9969 3368.7271,714.4187 L3368.7271,717.1375 Z " fill="#000000"/><text fill="#000000" font-family="sans-serif" font-size="14" lengthAdjust="spacing" textLength="187.5645" x="3380.6691" y="716.3436">WithHyperionUDCFeatures</text><line style="stroke:#181818;stroke-width:0.5;" x1="3347.66" x2="3574.3319" y1="727.4969" y2="727.4969"/><text fill="#000000" font-family="sans-serif" font-size="14" lengthAdjust="spacing" textLength="216.6719" x="3352.66" y="744.492">HyperionFeatureFlags features</text><line style="stroke:#181818;stroke-width:0.5;" x1="3347.66" x2="3574.3319" y1="751.7937" y2="751.7937"/></g><!--class RobotLoadThenCentre--><g id="elem_RobotLoadThenCentre"><rect codeLine="112" fill="#F1F1F1" height="64.2969" id="RobotLoadThenCentre" rx="2.5" ry="2.5" style="stroke:#181818;stroke-width:0.5;" width="212.9355" x="3551.53" y="1147.7969"/><ellipse cx="3577.2575" cy="1163.7969" fill="#ADD1B2" rx="11" ry="11" style="stroke:#181818;stroke-width:1;"/><path d="M3580.2262,1169.4375 Q3579.6481,1169.7344 3579.0075,1169.875 Q3578.3669,1170.0313 3577.6637,1170.0313 Q3575.1637,1170.0313 3573.8356,1168.3906 Q3572.5231,1166.7344 3572.5231,1163.6094 Q3572.5231,1160.4844 3573.8356,1158.8281 Q3575.1637,1157.1719 3577.6637,1157.1719 Q3578.3669,1157.1719 3579.0075,1157.3281 Q3579.6637,1157.4844 3580.2262,1157.7813 L3580.2262,1160.5 Q3579.6012,1159.9219 3579.0075,1159.6563 Q3578.4137,1159.375 3577.7887,1159.375 Q3576.445,1159.375 3575.7575,1160.4531 Q3575.07,1161.5156 3575.07,1163.6094 Q3575.07,1165.7031 3575.7575,1166.7813 Q3576.445,1167.8438 3577.7887,1167.8438 Q3578.4137,1167.8438 3579.0075,1167.5781 Q3579.6012,1167.2969 3580.2262,1166.7188 L3580.2262,1169.4375 Z " fill="#000000"/><text fill="#000000" font-family="sans-serif" font-size="14" lengthAdjust="spacing" textLength="157.0967" x="3593.6414" y="1168.6436">RobotLoadThenCentre</text><line style="stroke:#181818;stroke-width:0.5;" x1="3552.53" x2="3763.4655" y1="1179.7969" y2="1179.7969"/><text fill="#000000" font-family="sans-serif" font-size="14" lengthAdjust="spacing" textLength="200.9355" x="3557.53" y="1196.792">&lt;class 'float'&gt; thawing_time</text><line style="stroke:#181818;stroke-width:0.5;" x1="3552.53" x2="3763.4655" y1="1204.0938" y2="1204.0938"/></g><!--class MultiRotationScan--><g id="elem_MultiRotationScan"><rect codeLine="115" fill="#F1F1F1" height="64.2969" id="MultiRotationScan" rx="2.5" ry="2.5" style="stroke:#181818;stroke-width:0.5;" width="540.001" x="3929" y="1147.7969"/><ellipse cx="4131.0327" cy="1163.7969" fill="#ADD1B2" rx="11" ry="11" style="stroke:#181818;stroke-width:1;"/><path d="M4134.0015,1169.4375 Q4133.4233,1169.7344 4132.7827,1169.875 Q4132.1421,1170.0313 4131.439,1170.0313 Q4128.939,1170.0313 4127.6108,1168.3906 Q4126.2983,1166.7344 4126.2983,1163.6094 Q4126.2983,1160.4844 4127.6108,1158.8281 Q4128.939,1157.1719 4131.439,1157.1719 Q4132.1421,1157.1719 4132.7827,1157.3281 Q4133.439,1157.4844 4134.0015,1157.7813 L4134.0015,1160.5 Q4133.3765,1159.9219 4132.7827,1159.6563 Q4132.189,1159.375 4131.564,1159.375 Q4130.2202,1159.375 4129.5327,1160.4531 Q4128.8452,1161.5156 4128.8452,1163.6094 Q4128.8452,1165.7031 4129.5327,1166.7813 Q4130.2202,1167.8438 4131.564,1167.8438 Q4132.189,1167.8438 4132.7827,1167.5781 Q4133.3765,1167.2969 4134.0015,1166.7188 L4134.0015,1169.4375 Z " fill="#000000"/><text fill="#000000" font-family="sans-serif" font-size="14" lengthAdjust="spacing" textLength="127.4355" x="4151.5327" y="1168.6436">MultiRotationScan</text><line style="stroke:#181818;stroke-width:0.5;" x1="3930" x2="4468.001" y1="1179.7969" y2="1179.7969"/><line style="stroke:#181818;stroke-width:0.5;" x1="3930" x2="4468.001" y1="1187.7969" y2="1187.7969"/><text fill="#000000" font-family="sans-serif" font-size="14" lengthAdjust="spacing" textLength="528.001" x="3935" y="1204.792">Annotated[list[RotationScanPerSweep], Len(min_length=1)] rotation_scans</text></g><!--class RotationScanPerSweep--><g id="elem_RotationScanPerSweep"><rect codeLine="118" fill="#F1F1F1" height="129.4844" id="RotationScanPerSweep" rx="2.5" ry="2.5" style="stroke:#181818;stroke-width:0.5;" width="263.0498" x="4565.48" y="909.4269"/><ellipse cx="4611.5166" cy="925.4269" fill="#ADD1B2" rx="11" ry="11" style="stroke:#181818;stroke-width:1;"/><path d="M4614.4854,931.0675 Q4613.9072,931.3644 4613.2666,931.505 Q4612.626,931.6612 4611.9229,931.6612 Q4609.4229,931.6612 4608.0947,930.0206 Q4606.7822,928.3644 4606.7822,925.2394 Q4606.7822,922.1144 4608.0947,920.4581 Q4609.4229,918.8019 4611.9229,918.8019 Q4612.626,918.8019 4613.2666,918.9581 Q4613.9229,919.1144 4614.4854,919.4112 L4614.4854,922.13 Q4613.8604,921.5519 4613.2666,921.2862 Q4612.6729,921.005 4612.0479,921.005 Q4610.7041,921.005 4610.0166,922.0831 Q4609.3291,923.1456 4609.3291,925.2394 Q4609.3291,927.3331 4610.0166,928.4112 Q4610.7041,929.4737 4612.0479,929.4737 Q4612.6729,929.4737 4613.2666,929.2081 Q4613.8604,928.9269 4614.4854,928.3487 L4614.4854,931.0675 Z " fill="#000000"/><text fill="#000000" font-family="sans-serif" font-size="14" lengthAdjust="spacing" textLength="162.4766" x="4632.0166" y="930.2736">RotationScanPerSweep</text><line style="stroke:#181818;stroke-width:0.5;" x1="4566.48" x2="4827.5298" y1="941.4269" y2="941.4269"/><text fill="#000000" font-family="sans-serif" font-size="14" lengthAdjust="spacing" textLength="157.1787" x="4571.48" y="958.422">float omega_start_deg</text><text fill="#000000" font-family="sans-serif" font-size="14" lengthAdjust="spacing" textLength="182.9297" x="4571.48" y="974.7189">RotationAxis rotation_axis</text><text fill="#000000" font-family="sans-serif" font-size="14" lengthAdjust="spacing" textLength="147.3213" x="4571.48" y="991.0157">float scan_width_deg</text><text fill="#000000" font-family="sans-serif" font-size="14" lengthAdjust="spacing" textLength="251.0498" x="4571.48" y="1007.3126">RotationDirection rotation_direction</text><text fill="#000000" font-family="sans-serif" font-size="14" lengthAdjust="spacing" textLength="169.1279" x="4571.48" y="1023.6095">int nexus_vds_start_img</text><line style="stroke:#181818;stroke-width:0.5;" x1="4566.48" x2="4827.5298" y1="1030.9112" y2="1030.9112"/></g><!--class RotationScan--><g id="elem_RotationScan"><rect codeLine="125" fill="#F1F1F1" height="48" id="RotationScan" rx="2.5" ry="2.5" style="stroke:#181818;stroke-width:0.5;" width="125.2148" x="4634.39" y="1155.9469"/><ellipse cx="4649.39" cy="1171.9469" fill="#ADD1B2" rx="11" ry="11" style="stroke:#181818;stroke-width:1;"/><path d="M4652.3588,1177.5875 Q4651.7806,1177.8844 4651.14,1178.025 Q4650.4994,1178.1812 4649.7963,1178.1812 Q4647.2963,1178.1812 4645.9681,1176.5406 Q4644.6556,1174.8844 4644.6556,1171.7594 Q4644.6556,1168.6344 4645.9681,1166.9781 Q4647.2963,1165.3219 4649.7963,1165.3219 Q4650.4994,1165.3219 4651.14,1165.4781 Q4651.7963,1165.6344 4652.3588,1165.9312 L4652.3588,1168.65 Q4651.7338,1168.0719 4651.14,1167.8062 Q4650.5463,1167.525 4649.9213,1167.525 Q4648.5775,1167.525 4647.89,1168.6031 Q4647.2025,1169.6656 4647.2025,1171.7594 Q4647.2025,1173.8531 4647.89,1174.9312 Q4648.5775,1175.9937 4649.9213,1175.9937 Q4650.5463,1175.9937 4651.14,1175.7281 Q4651.7338,1175.4469 4652.3588,1174.8687 L4652.3588,1177.5875 Z " fill="#000000"/><text fill="#000000" font-family="sans-serif" font-size="14" lengthAdjust="spacing" textLength="93.2148" x="4663.39" y="1176.7936">RotationScan</text><line style="stroke:#181818;stroke-width:0.5;" x1="4635.39" x2="4758.6048" y1="1187.9469" y2="1187.9469"/><line style="stroke:#181818;stroke-width:0.5;" x1="4635.39" x2="4758.6048" y1="1195.9469" y2="1195.9469"/></g><!--class HyperionSpecifiedThreeDGridScan--><g id="elem_HyperionSpecifiedThreeDGridScan"><rect codeLine="127" fill="#F1F1F1" height="48" id="HyperionSpecifiedThreeDGridScan" rx="2.5" ry="2.5" style="stroke:#181818;stroke-width:0.5;" width="274.293" x="3882.85" y="950.1669"/><ellipse cx="3897.85" cy="966.1669" fill="#ADD1B2" rx="11" ry="11" style="stroke:#181818;stroke-width:1;"/><path d="M3900.8188,971.8075 Q3900.2406,972.1044 3899.6,972.245 Q3898.9594,972.4012 3898.2563,972.4012 Q3895.7563,972.4012 3894.4281,970.7606 Q3893.1156,969.1044 3893.1156,965.9794 Q3893.1156,962.8544 3894.4281,961.1981 Q3895.7563,959.5419 3898.2563,959.5419 Q3898.9594,959.5419 3899.6,959.6981 Q3900.2563,959.8544 3900.8188,960.1512 L3900.8188,962.87 Q3900.1938,962.2919 3899.6,962.0262 Q3899.0063,961.745 3898.3813,961.745 Q3897.0375,961.745 3896.35,962.8231 Q3895.6625,963.8856 3895.6625,965.9794 Q3895.6625,968.0731 3896.35,969.1512 Q3897.0375,970.2137 3898.3813,970.2137 Q3899.0063,970.2137 3899.6,969.9481 Q3900.1938,969.6669 3900.8188,969.0887 L3900.8188,971.8075 Z " fill="#000000"/><text fill="#000000" font-family="sans-serif" font-size="14" lengthAdjust="spacing" textLength="242.293" x="3911.85" y="971.0136">HyperionSpecifiedThreeDGridScan</text><line style="stroke:#181818;stroke-width:0.5;" x1="3883.85" x2="4156.143" y1="982.1669" y2="982.1669"/><line style="stroke:#181818;stroke-width:0.5;" x1="3883.85" x2="4156.143" y1="990.1669" y2="990.1669"/></g><!--class PinTipCentreThenXrayCentre--><g id="elem_PinTipCentreThenXrayCentre"><rect codeLine="129" fill="#F1F1F1" height="64.2969" id="PinTipCentreThenXrayCentre" rx="2.5" ry="2.5" style="stroke:#181818;stroke-width:0.5;" width="235.8955" x="3036.05" y="1147.7969"/><ellipse cx="3051.05" cy="1163.7969" fill="#ADD1B2" rx="11" ry="11" style="stroke:#181818;stroke-width:1;"/><path d="M3054.0188,1169.4375 Q3053.4406,1169.7344 3052.8,1169.875 Q3052.1594,1170.0313 3051.4563,1170.0313 Q3048.9563,1170.0313 3047.6281,1168.3906 Q3046.3156,1166.7344 3046.3156,1163.6094 Q3046.3156,1160.4844 3047.6281,1158.8281 Q3048.9563,1157.1719 3051.4563,1157.1719 Q3052.1594,1157.1719 3052.8,1157.3281 Q3053.4563,1157.4844 3054.0188,1157.7813 L3054.0188,1160.5 Q3053.3938,1159.9219 3052.8,1159.6563 Q3052.2063,1159.375 3051.5813,1159.375 Q3050.2375,1159.375 3049.55,1160.4531 Q3048.8625,1161.5156 3048.8625,1163.6094 Q3048.8625,1165.7031 3049.55,1166.7813 Q3050.2375,1167.8438 3051.5813,1167.8438 Q3052.2063,1167.8438 3052.8,1167.5781 Q3053.3938,1167.2969 3054.0188,1166.7188 L3054.0188,1169.4375 Z " fill="#000000"/><text fill="#000000" font-family="sans-serif" font-size="14" lengthAdjust="spacing" textLength="203.8955" x="3065.05" y="1168.6436">PinTipCentreThenXrayCentre</text><line style="stroke:#181818;stroke-width:0.5;" x1="3037.05" x2="3270.9455" y1="1179.7969" y2="1179.7969"/><text fill="#000000" font-family="sans-serif" font-size="14" lengthAdjust="spacing" textLength="130.498" x="3042.05" y="1196.792">float tip_offset_um</text><line style="stroke:#181818;stroke-width:0.5;" x1="3037.05" x2="3270.9455" y1="1204.0938" y2="1204.0938"/></g><!--class GridCommonWithHyperionDetectorParams--><g id="elem_GridCommonWithHyperionDetectorParams"><rect codeLine="132" fill="#F1F1F1" height="48" id="GridCommonWithHyperionDetectorParams" rx="2.5" ry="2.5" style="stroke:#181818;stroke-width:0.5;" width="333.2188" x="3073.39" y="950.1669"/><ellipse cx="3088.39" cy="966.1669" fill="#ADD1B2" rx="11" ry="11" style="stroke:#181818;stroke-width:1;"/><path d="M3091.3588,971.8075 Q3090.7806,972.1044 3090.14,972.245 Q3089.4994,972.4012 3088.7963,972.4012 Q3086.2963,972.4012 3084.9681,970.7606 Q3083.6556,969.1044 3083.6556,965.9794 Q3083.6556,962.8544 3084.9681,961.1981 Q3086.2963,959.5419 3088.7963,959.5419 Q3089.4994,959.5419 3090.14,959.6981 Q3090.7963,959.8544 3091.3588,960.1512 L3091.3588,962.87 Q3090.7338,962.2919 3090.14,962.0262 Q3089.5463,961.745 3088.9213,961.745 Q3087.5775,961.745 3086.89,962.8231 Q3086.2025,963.8856 3086.2025,965.9794 Q3086.2025,968.0731 3086.89,969.1512 Q3087.5775,970.2137 3088.9213,970.2137 Q3089.5463,970.2137 3090.14,969.9481 Q3090.7338,969.6669 3091.3588,969.0887 L3091.3588,971.8075 Z " fill="#000000"/><text fill="#000000" font-family="sans-serif" font-size="14" lengthAdjust="spacing" textLength="301.2188" x="3102.39" y="971.0136">GridCommonWithHyperionDetectorParams</text><line style="stroke:#181818;stroke-width:0.5;" x1="3074.39" x2="3405.6088" y1="982.1669" y2="982.1669"/><line style="stroke:#181818;stroke-width:0.5;" x1="3074.39" x2="3405.6088" y1="990.1669" y2="990.1669"/></g><!--reverse link GridCommonWithHyperionDetectorParams to GridScanWithEdgeDetect--><g id="link_GridCommonWithHyperionDetectorParams_GridScanWithEdgeDetect"><path codeLine="135" d="M3271.3408,1012.3015 C3304.4308,1051.5015 3359.12,1116.2969 3392.24,1155.5269 " fill="#FFFFFF" fill-opacity="0.00000" id="GridCommonWithHyperionDetectorParams-backto-GridScanWithEdgeDetect" style="stroke:#181818;stroke-width:1;"/><polygon fill="#FFFFFF" fill-opacity="0.00000" points="3259.73,998.5469,3266.7559,1016.1718,3275.9256,1008.4313,3259.73,998.5469" style="stroke:#181818;stroke-width:1;"/></g><!--reverse link WithHyperionUDCFeatures to GridScanWithEdgeDetect--><g id="link_WithHyperionUDCFeatures_GridScanWithEdgeDetect"><path codeLine="136" d="M3458.0319,778.1821 C3453.8819,844.8621 3443.71,986.8769 3424,1119.7969 C3422.23,1131.7169 3419.63,1144.8669 3417.3,1155.7269 " fill="#FFFFFF" fill-opacity="0.00000" id="WithHyperionUDCFeatures-backto-GridScanWithEdgeDetect" style="stroke:#181818;stroke-width:1;"/><polygon fill="#FFFFFF" fill-opacity="0.00000" points="3459.15,760.2169,3452.0435,777.8094,3464.0203,778.5548,3459.15,760.2169" style="stroke:#181818;stroke-width:1;"/></g><!--reverse link DiffractionExperimentWithSample to RotationExperiment--><g id="link_DiffractionExperimentWithSample_RotationExperiment"><path codeLine="137" d="M2876.5772,602.3141 C2913.3072,618.2841 2946.43,632.8469 2990,652.4969 C3200.62,747.4969 3445.63,861.9769 3580.29,925.2469 " fill="#FFFFFF" fill-opacity="0.00000" id="DiffractionExperimentWithSample-backto-RotationExperiment" style="stroke:#181818;stroke-width:1;"/><polygon fill="#FFFFFF" fill-opacity="0.00000" points="2860.07,595.1369,2874.1848,607.8165,2878.9696,596.8117,2860.07,595.1369" style="stroke:#181818;stroke-width:1;"/></g><!--reverse link WithHyperionUDCFeatures to RotationExperiment--><g id="link_WithHyperionUDCFeatures_RotationExperiment"><path codeLine="138" d="M3501.5098,773.4605 C3539.3998,815.3805 3594.7,876.5769 3638.87,925.4369 " fill="#FFFFFF" fill-opacity="0.00000" id="WithHyperionUDCFeatures-backto-RotationExperiment" style="stroke:#181818;stroke-width:1;"/><polygon fill="#FFFFFF" fill-opacity="0.00000" points="3489.44,760.1069,3497.0586,777.4838,3505.9611,769.4372,3489.44,760.1069" style="stroke:#181818;stroke-width:1;"/></g><!--reverse link MxBlueskyParameters to LoadCentreCollect--><g id="link_MxBlueskyParameters_LoadCentreCollect"><path codeLine="139" d="M2987.8359,155.5933 C3476.3959,166.0833 4910.16,202.8969 4979,275.7869 C5043.38,343.9469 5019.95,402.4069 4979,486.7569 C4918.88,610.5769 4570.11,841.0869 4424.66,933.4169 " fill="#FFFFFF" fill-opacity="0.00000" id="MxBlueskyParameters-backto-LoadCentreCollect" style="stroke:#181818;stroke-width:1;"/><polygon fill="#FFFFFF" fill-opacity="0.00000" points="2969.84,155.2069,2987.7071,161.5919,2987.9647,149.5947,2969.84,155.2069" style="stroke:#181818;stroke-width:1;"/></g><!--reverse link WithVisit to LoadCentreCollect--><g id="link_WithVisit_LoadCentreCollect"><path codeLine="140" d="M1417.3829,216.186 C1423.3929,217.856 1412.06,214.5169 1418,215.7869 C1539.55,241.6469 3556.38,198.8969 3654,275.7869 C3769.35,366.6269 3672.79,464.2169 3740,594.7569 C3794.17,699.9769 3808.26,738.4169 3909,800.5369 C4012.16,864.1469 4062.6,815.2269 4175,860.5369 C4221.74,879.3769 4270.32,909.1969 4306.1,933.4169 " fill="#FFFFFF" fill-opacity="0.00000" id="WithVisit-backto-LoadCentreCollect" style="stroke:#181818;stroke-width:1;"/><polygon fill="#FFFFFF" fill-opacity="0.00000" points="1400.04,211.3669,1415.7765,221.9669,1418.9893,210.405,1400.04,211.3669" style="stroke:#181818;stroke-width:1;"/></g><!--reverse link WithSample to LoadCentreCollect--><g id="link_WithSample_LoadCentreCollect"><path codeLine="141" d="M633.2209,208.4302 C645.2909,214.8702 642.22,212.0569 655,215.7869 C1152.91,360.8769 2491.23,126.8269 2988,275.7869 C3291.41,366.7569 3338.58,463.8069 3593,652.4969 C3673.2,711.9769 3671.31,758.7469 3762,800.5369 C3930.46,878.1669 4000.41,797.9169 4175,860.5369 C4223.33,877.8669 4272.8,908.5769 4308.56,933.5469 " fill="#FFFFFF" fill-opacity="0.00000" id="WithSample-backto-LoadCentreCollect" style="stroke:#181818;stroke-width:1;"/><polygon fill="#FFFFFF" fill-opacity="0.00000" points="617.34,199.9569,630.3965,213.7238,636.0453,203.1366,617.34,199.9569" style="stroke:#181818;stroke-width:1;"/></g><!--reverse link WithCentreSelection to LoadCentreCollect--><g id="link_WithCentreSelection_LoadCentreCollect"><path codeLine="142" d="M2339.7675,190.1995 C2370.0075,202.2695 2389.29,208.2669 2423,215.7869 C2741.61,286.7969 2843.27,178.9569 3155,275.7869 C3646.69,428.5069 4154.56,809.4569 4311.72,933.4669 " fill="#FFFFFF" fill-opacity="0.00000" id="WithCentreSelection-backto-LoadCentreCollect" style="stroke:#181818;stroke-width:1;"/><polygon fill="#FFFFFF" fill-opacity="0.00000" points="2323.05,183.5269,2337.5433,195.772,2341.9917,184.627,2323.05,183.5269" style="stroke:#181818;stroke-width:1;"/></g><!--reverse link WithHyperionUDCFeatures to LoadCentreCollect--><g id="link_WithHyperionUDCFeatures_LoadCentreCollect"><path codeLine="143" d="M3527.3297,769.0647 C3553.3697,783.7847 3570.52,791.2069 3602,800.5369 C3847.52,873.2469 3932.3,778.9169 4175,860.5369 C4224.02,877.0169 4273.84,908.1169 4309.57,933.4669 " fill="#FFFFFF" fill-opacity="0.00000" id="WithHyperionUDCFeatures-backto-LoadCentreCollect" style="stroke:#181818;stroke-width:1;"/><polygon fill="#FFFFFF" fill-opacity="0.00000" points="3511.66,760.2069,3524.3771,774.2879,3530.2823,763.8415,3511.66,760.2069" style="stroke:#181818;stroke-width:1;"/></g><!--reverse link MxBlueskyParameters to DiffractionExperiment--><g id="link_MxBlueskyParameters_DiffractionExperiment"><path codeLine="144" d="M2809.9224,201.2925 C2809.3924,225.2825 2809.03,241.8769 2808.3,275.3969 " fill="#FFFFFF" fill-opacity="0.00000" id="MxBlueskyParameters-backto-DiffractionExperiment" style="stroke:#181818;stroke-width:1;"/><polygon fill="#FFFFFF" fill-opacity="0.00000" points="2810.32,183.2969,2803.9239,201.16,2815.921,201.425,2810.32,183.2969" style="stroke:#181818;stroke-width:1;"/></g><!--reverse link WithSnapshot to DiffractionExperiment--><g id="link_WithSnapshot_DiffractionExperiment"><path codeLine="145" d="M918.6657,198.3138 C943.0357,207.9638 953.26,210.4169 979,215.7869 C1338.84,290.8169 2279.62,171.1969 2632,275.7869 C2634.45,276.5069 2636.9,277.2769 2639.35,278.0869 " fill="#FFFFFF" fill-opacity="0.00000" id="WithSnapshot-backto-DiffractionExperiment" style="stroke:#181818;stroke-width:1;"/><polygon fill="#FFFFFF" fill-opacity="0.00000" points="901.93,191.6869,916.4567,203.8924,920.8747,192.7353,901.93,191.6869" style="stroke:#181818;stroke-width:1;"/></g><!--reverse link WithOptionalEnergyChange to DiffractionExperiment--><g id="link_WithOptionalEnergyChange_DiffractionExperiment"><path codeLine="146" d="M377.5843,191.9229 C401.6343,204.4129 414.89,209.0769 443,215.7869 C916.33,328.7469 2164.88,139.3869 2632,275.7869 C2634.45,276.4969 2636.91,277.2569 2639.36,278.0569 " fill="#FFFFFF" fill-opacity="0.00000" id="WithOptionalEnergyChange-backto-DiffractionExperiment" style="stroke:#181818;stroke-width:1;"/><polygon fill="#FFFFFF" fill-opacity="0.00000" points="361.61,183.6269,374.8189,197.2476,380.3496,186.5981,361.61,183.6269" style="stroke:#181818;stroke-width:1;"/></g><!--reverse link WithVisit to DiffractionExperiment--><g id="link_WithVisit_DiffractionExperiment"><path codeLine="147" d="M1417.3904,216.1062 C1423.4004,217.8062 1412.07,214.4569 1418,215.7869 C1945.09,334.1569 2115.13,118.6769 2632,275.7869 C2634.53,276.5569 2637.06,277.3669 2639.59,278.2169 " fill="#FFFFFF" fill-opacity="0.00000" id="WithVisit-backto-DiffractionExperiment" style="stroke:#181818;stroke-width:1;"/><polygon fill="#FFFFFF" fill-opacity="0.00000" points="1400.07,211.2069,1415.7573,221.8796,1419.0235,210.3327,1400.07,211.2069" style="stroke:#181818;stroke-width:1;"/></g><!--reverse link DiffractionExperimentWithSample to GridCommon--><g id="link_DiffractionExperimentWithSample_GridCommon"><path codeLine="148" d="M2806,612.9369 C2806,628.8969 2806,633.0169 2806,654.5769 " fill="#FFFFFF" fill-opacity="0.00000" id="DiffractionExperimentWithSample-backto-GridCommon" style="stroke:#181818;stroke-width:1;"/><polygon fill="#FFFFFF" fill-opacity="0.00000" points="2806,594.9369,2800,612.9369,2812,612.9369,2806,594.9369" style="stroke:#181818;stroke-width:1;"/></g><!--reverse link OptionalGonioAngleStarts to GridCommon--><g id="link_OptionalGonioAngleStarts_GridCommon"><path codeLine="149" d="M1666.286,214.5468 C1673.786,217.4768 1664.55,213.5669 1672,215.7869 C1895.36,282.4169 1976.06,190.5369 2193,275.7869 C2307.43,320.7469 2579.5,538.6569 2719.5,654.2569 " fill="#FFFFFF" fill-opacity="0.00000" id="OptionalGonioAngleStarts-backto-GridCommon" style="stroke:#181818;stroke-width:1;"/><polygon fill="#FFFFFF" fill-opacity="0.00000" points="1649.52,207.9969,1664.1027,220.1355,1668.4693,208.9581,1649.52,207.9969" style="stroke:#181818;stroke-width:1;"/></g><!--reverse link WithPandaGridScan to WithHyperionUDCFeatures--><g id="link_WithPandaGridScan_WithHyperionUDCFeatures"><path codeLine="150" d="M2015.0991,191.6678 C2039.5191,203.9178 2052.87,208.6169 2081,215.7869 C2276.75,265.6369 2803.05,194.5769 2988,275.7869 C3204.06,370.6569 3381.28,608.9969 3440.14,695.0469 " fill="#FFFFFF" fill-opacity="0.00000" id="WithPandaGridScan-backto-WithHyperionUDCFeatures" style="stroke:#181818;stroke-width:1;"/><polygon fill="#FFFFFF" fill-opacity="0.00000" points="1999.01,183.5969,2012.4088,197.0308,2017.7894,186.3048,1999.01,183.5969" style="stroke:#181818;stroke-width:1;"/></g><!--reverse link GridCommonWithHyperionDetectorParams to RobotLoadThenCentre--><g id="link_GridCommonWithHyperionDetectorParams_RobotLoadThenCentre"><path codeLine="151" d="M3286.0265,1009.0098 C3329.1665,1040.1398 3395.4,1084.8669 3471,1119.7969 C3496.35,1131.5169 3524.64,1141.7869 3551.4,1150.3469 " fill="#FFFFFF" fill-opacity="0.00000" id="GridCommonWithHyperionDetectorParams-backto-RobotLoadThenCentre" style="stroke:#181818;stroke-width:1;"/><polygon fill="#FFFFFF" fill-opacity="0.00000" points="3271.43,998.4769,3282.5155,1013.8753,3289.5375,1004.1443,3271.43,998.4769" style="stroke:#181818;stroke-width:1;"/></g><!--reverse link WithHyperionUDCFeatures to RobotLoadThenCentre--><g id="link_WithHyperionUDCFeatures_RobotLoadThenCentre"><path codeLine="152" d="M3459.2778,777.9887 C3456.7878,860.6187 3454.97,1063.8369 3498,1119.7969 C3505.85,1130.0169 3526.85,1140.1169 3551.14,1149.0069 " fill="#FFFFFF" fill-opacity="0.00000" id="WithHyperionUDCFeatures-backto-RobotLoadThenCentre" style="stroke:#181818;stroke-width:1;"/><polygon fill="#FFFFFF" fill-opacity="0.00000" points="3459.82,759.9969,3453.2806,777.808,3465.2751,778.1694,3459.82,759.9969" style="stroke:#181818;stroke-width:1;"/></g><!--reverse link DiffractionExperiment to DiffractionExperimentWithSample--><g id="link_DiffractionExperiment_DiffractionExperimentWithSample"><path codeLine="153" d="M2806,505.2469 C2806,527.5069 2806,530.9069 2806,546.3269 " fill="#FFFFFF" fill-opacity="0.00000" id="DiffractionExperiment-backto-DiffractionExperimentWithSample" style="stroke:#181818;stroke-width:1;"/><polygon fill="#FFFFFF" fill-opacity="0.00000" points="2806,487.2469,2800,505.2469,2812,505.2469,2806,487.2469" style="stroke:#181818;stroke-width:1;"/></g><!--reverse link WithSample to DiffractionExperimentWithSample--><g id="link_WithSample_DiffractionExperimentWithSample"><path codeLine="154" d="M633.5465,208.4485 C645.5265,214.8485 642.35,212.0069 655,215.7869 C982.74,313.6569 1861.43,191.8169 2193,275.7869 C2398.97,327.9469 2429.8,396.1769 2622,486.7569 C2665.9,507.4469 2716.16,530.0369 2753.04,546.4269 " fill="#FFFFFF" fill-opacity="0.00000" id="WithSample-backto-DiffractionExperimentWithSample" style="stroke:#181818;stroke-width:1;"/><polygon fill="#FFFFFF" fill-opacity="0.00000" points="617.67,199.9669,630.7193,213.7406,636.3737,203.1563,617.67,199.9669" style="stroke:#181818;stroke-width:1;"/></g><!--reverse link RotationExperiment to MultiRotationScan--><g id="link_RotationExperiment_MultiRotationScan"><path codeLine="155" d="M3741.9356,1035.3543 C3776.5256,1067.8143 3813.28,1096.5769 3865,1119.7969 C3889.85,1130.9569 3916.62,1140.0169 3943.8,1147.3669 " fill="#FFFFFF" fill-opacity="0.00000" id="RotationExperiment-backto-MultiRotationScan" style="stroke:#181818;stroke-width:1;"/><polygon fill="#FFFFFF" fill-opacity="0.00000" points="3728.81,1023.0369,3737.8298,1039.7295,3746.0414,1030.979,3728.81,1023.0369" style="stroke:#181818;stroke-width:1;"/></g><!--reverse link SplitScan to MultiRotationScan--><g id="link_SplitScan_MultiRotationScan"><path codeLine="156" d="M1073.1551,189.3126 C1085.0551,203.8426 1091.03,207.3869 1111,215.7869 C1326.36,306.3969 2980.55,252.1269 3213,275.7869 C3587.66,313.9169 4882,193.1569 4882,569.7569 C4882,569.7569 4882,569.7569 4882,728.6469 C4882,815.9369 4907.74,1058.0969 4846,1119.7969 C4838.97,1126.8269 4643.41,1144.0569 4469.13,1158.1169 " fill="#FFFFFF" fill-opacity="0.00000" id="SplitScan-backto-MultiRotationScan" style="stroke:#181818;stroke-width:1;"/><polygon fill="#FFFFFF" fill-opacity="0.00000" points="1061.75,175.3869,1068.5132,193.1142,1077.797,185.5109,1061.75,175.3869" style="stroke:#181818;stroke-width:1;"/></g><!--reverse link OptionalGonioAngleStarts to RotationScanPerSweep--><g id="link_OptionalGonioAngleStarts_RotationScanPerSweep"><path codeLine="157" d="M1664.4009,214.3515 C1672.5209,217.3715 1663.87,213.7269 1672,215.7869 C2111.3,326.6969 3279.82,133.5469 3710,275.7869 C4110.65,408.2569 4490.98,763.0269 4635.62,909.0369 " fill="#FFFFFF" fill-opacity="0.00000" id="OptionalGonioAngleStarts-backto-RotationScanPerSweep" style="stroke:#181818;stroke-width:1;"/><polygon fill="#FFFFFF" fill-opacity="0.00000" points="1647.53,208.0769,1662.3094,219.9752,1666.4925,208.7279,1647.53,208.0769" style="stroke:#181818;stroke-width:1;"/></g><!--reverse link OptionalXyzStarts to RotationScanPerSweep--><g id="link_OptionalXyzStarts_RotationScanPerSweep"><path codeLine="158" d="M2605.0103,208.964 C2615.9903,215.414 2612.19,211.9869 2624,215.7869 C2802.89,273.2469 4154.01,177.2469 4314,275.7869 C4549.52,420.8369 4650.93,765.6769 4683.93,908.9869 " fill="#FFFFFF" fill-opacity="0.00000" id="OptionalXyzStarts-backto-RotationScanPerSweep" style="stroke:#181818;stroke-width:1;"/><polygon fill="#FFFFFF" fill-opacity="0.00000" points="2589.49,199.8469,2601.9712,214.1374,2608.0493,203.7905,2589.49,199.8469" style="stroke:#181818;stroke-width:1;"/></g><!--reverse link WithScan to RotationScan--><g id="link_WithScan_RotationScan"><path codeLine="159" d="M1767.111,189.3841 C1779.011,203.9441 1784.99,207.4769 1805,215.7869 C1964.23,281.9169 4778.27,162.2069 4908,275.7869 C5007.45,362.8469 4953,437.5769 4953,569.7569 C4953,569.7569 4953,569.7569 4953,728.6469 C4953,903.6369 5021.54,986.6369 4908,1119.7969 C4888.78,1142.3469 4814.84,1159.3469 4759.89,1169.2169 " fill="#FFFFFF" fill-opacity="0.00000" id="WithScan-backto-RotationScan" style="stroke:#181818;stroke-width:1;"/><polygon fill="#FFFFFF" fill-opacity="0.00000" points="1755.72,175.4469,1762.4652,193.1811,1771.7567,185.5871,1755.72,175.4469" style="stroke:#181818;stroke-width:1;"/></g><!--reverse link RotationScanPerSweep to RotationScan--><g id="link_RotationScanPerSweep_RotationScan"><path codeLine="160" d="M4697,1057.3669 C4697,1097.0269 4697,1127.5669 4697,1155.7069 " fill="#FFFFFF" fill-opacity="0.00000" id="RotationScanPerSweep-backto-RotationScan" style="stroke:#181818;stroke-width:1;"/><polygon fill="#FFFFFF" fill-opacity="0.00000" points="4697,1039.3669,4691,1057.3669,4703,1057.3669,4697,1039.3669" style="stroke:#181818;stroke-width:1;"/></g><!--reverse link RotationExperiment to RotationScan--><g id="link_RotationExperiment_RotationScan"><path codeLine="161" d="M3738.5781,1035.6541 C3772.8081,1069.4541 3810.74,1099.5669 3865,1119.7969 C3994.64,1168.1369 4349.28,1134.5169 4487,1147.7969 C4536.71,1152.5969 4592.63,1161.0369 4634.26,1167.9269 " fill="#FFFFFF" fill-opacity="0.00000" id="RotationExperiment-backto-RotationScan" style="stroke:#181818;stroke-width:1;"/><polygon fill="#FFFFFF" fill-opacity="0.00000" points="3725.77,1023.0069,3734.3624,1039.9235,3742.7939,1031.3847,3725.77,1023.0069" style="stroke:#181818;stroke-width:1;"/></g><!--reverse link SpecifiedThreeDGridScan to HyperionSpecifiedThreeDGridScan--><g id="link_SpecifiedThreeDGridScan_HyperionSpecifiedThreeDGridScan"><path codeLine="162" d="M2866.3731,898.9242 C2920.1131,868.9742 2972.06,845.7369 3037.5,830.5369 C3125.27,810.1469 3763.81,799.7569 3848.5,830.5369 C3914.02,854.3469 3971.97,915.3869 4000.76,949.7369 " fill="#FFFFFF" fill-opacity="0.00000" id="SpecifiedThreeDGridScan-backto-HyperionSpecifiedThreeDGridScan" style="stroke:#181818;stroke-width:1;"/><polygon fill="#FFFFFF" fill-opacity="0.00000" points="2850.65,907.6869,2869.294,904.1652,2863.4522,893.6832,2850.65,907.6869" style="stroke:#181818;stroke-width:1;"/></g><!--reverse link WithHyperionUDCFeatures to HyperionSpecifiedThreeDGridScan--><g id="link_WithHyperionUDCFeatures_HyperionSpecifiedThreeDGridScan"><path codeLine="163" d="M3530.9819,768.8399 C3556.6419,782.7599 3572.29,789.7769 3602,800.5369 C3715.13,841.5069 3756.5,810.6469 3866,860.5369 C3916.19,883.3969 3966.24,924.1669 3995.1,949.8769 " fill="#FFFFFF" fill-opacity="0.00000" id="WithHyperionUDCFeatures-backto-HyperionSpecifiedThreeDGridScan" style="stroke:#181818;stroke-width:1;"/><polygon fill="#FFFFFF" fill-opacity="0.00000" points="3515.16,760.2569,3528.1209,774.1139,3533.8429,763.5659,3515.16,760.2569" style="stroke:#181818;stroke-width:1;"/></g><!--reverse link GridCommonWithHyperionDetectorParams to PinTipCentreThenXrayCentre--><g id="link_GridCommonWithHyperionDetectorParams_PinTipCentreThenXrayCentre"><path codeLine="164" d="M3223.1329,1015.1312 C3207.6529,1051.8212 3184.61,1106.4069 3167.26,1147.5369 " fill="#FFFFFF" fill-opacity="0.00000" id="GridCommonWithHyperionDetectorParams-backto-PinTipCentreThenXrayCentre" style="stroke:#181818;stroke-width:1;"/><polygon fill="#FFFFFF" fill-opacity="0.00000" points="3230.13,998.5469,3217.6047,1012.7988,3228.661,1017.4636,3230.13,998.5469" style="stroke:#181818;stroke-width:1;"/></g><!--reverse link WithHyperionUDCFeatures to PinTipCentreThenXrayCentre--><g id="link_WithHyperionUDCFeatures_PinTipCentreThenXrayCentre"><path codeLine="165" d="M3328.6598,754.2195 C3221.4998,777.1895 3090.62,812.8469 3056,860.5369 C2988.3,953.7769 2999.36,1019.4569 3056,1119.7969 C3062.15,1130.7069 3071.21,1139.8169 3081.38,1147.3769 " fill="#FFFFFF" fill-opacity="0.00000" id="WithHyperionUDCFeatures-backto-PinTipCentreThenXrayCentre" style="stroke:#181818;stroke-width:1;"/><polygon fill="#FFFFFF" fill-opacity="0.00000" points="3346.26,750.4469,3327.4022,748.3528,3329.9173,760.0863,3346.26,750.4469" style="stroke:#181818;stroke-width:1;"/></g><!--reverse link XyzStarts to SpecifiedGrid--><g id="link_XyzStarts_SpecifiedGrid"><path codeLine="166" d="M159.2854,210.1403 C168.2554,216.4203 163.14,211.7469 173,215.7869 C452.86,330.3969 1418.69,369.7569 1675.74,378.3369 " fill="#FFFFFF" fill-opacity="0.00000" id="XyzStarts-backto-SpecifiedGrid" style="stroke:#181818;stroke-width:1;"/><polygon fill="#FFFFFF" fill-opacity="0.00000" points="144.54,199.8169,155.8443,215.0554,162.7265,205.2252,144.54,199.8169" style="stroke:#181818;stroke-width:1;"/></g><!--reverse link WithScan to SpecifiedGrid--><g id="link_WithScan_SpecifiedGrid"><path codeLine="167" d="M1739,193.1769 C1739,236.9269 1739,313.2769 1739,357.0669 " fill="#FFFFFF" fill-opacity="0.00000" id="WithScan-backto-SpecifiedGrid" style="stroke:#181818;stroke-width:1;"/><polygon fill="#FFFFFF" fill-opacity="0.00000" points="1739,175.1769,1733,193.1769,1745,193.1769,1739,175.1769" style="stroke:#181818;stroke-width:1;"/></g><!--reverse link GridCommon to GridCommonWithHyperionDetectorParams--><g id="link_GridCommon_GridCommonWithHyperionDetectorParams"><path codeLine="168" d="M2950.1323,809.8524 C3039.8723,860.4124 3138.3,915.8669 3198.49,949.7769 " fill="#FFFFFF" fill-opacity="0.00000" id="GridCommon-backto-GridCommonWithHyperionDetectorParams" style="stroke:#181818;stroke-width:1;"/><polygon fill="#FFFFFF" fill-opacity="0.00000" points="2934.45,801.0169,2947.1871,815.0798,2953.0775,804.6249,2934.45,801.0169" style="stroke:#181818;stroke-width:1;"/></g><!--reverse link WithHyperionUDCFeatures to GridCommonWithHyperionDetectorParams--><g id="link_WithHyperionUDCFeatures_GridCommonWithHyperionDetectorParams"><path codeLine="169" d="M3420.4907,773.4609 C3375.4907,823.2509 3300.97,905.7169 3261.07,949.8569 " fill="#FFFFFF" fill-opacity="0.00000" id="WithHyperionUDCFeatures-backto-GridCommonWithHyperionDetectorParams" style="stroke:#181818;stroke-width:1;"/><polygon fill="#FFFFFF" fill-opacity="0.00000" points="3432.56,760.1069,3416.0393,769.4378,3424.942,777.484,3432.56,760.1069" style="stroke:#181818;stroke-width:1;"/></g><!--reverse link GridCommon to SpecifiedThreeDGridScan--><g id="link_GridCommon_SpecifiedThreeDGridScan"><path codeLine="170" d="M2783.591,818.4811 C2778.951,837.0711 2778.21,840.0569 2773.19,860.1669 " fill="#FFFFFF" fill-opacity="0.00000" id="GridCommon-backto-SpecifiedThreeDGridScan" style="stroke:#181818;stroke-width:1;"/><polygon fill="#FFFFFF" fill-opacity="0.00000" points="2787.95,801.0169,2777.7696,817.0281,2789.4124,819.9341,2787.95,801.0169" style="stroke:#181818;stroke-width:1;"/></g><!--reverse link SpecifiedGrid to SpecifiedThreeDGridScan--><g id="link_SpecifiedGrid_SpecifiedThreeDGridScan"><path codeLine="171" d="M1767.5612,419.8992 C1821.8112,490.3592 1983.51,688.5069 2175,800.5369 C2323.59,887.4669 2520.01,934.3469 2639.19,956.4969 " fill="#FFFFFF" fill-opacity="0.00000" id="SpecifiedGrid-backto-SpecifiedThreeDGridScan" style="stroke:#181818;stroke-width:1;"/><polygon fill="#FFFFFF" fill-opacity="0.00000" points="1756.58,405.6369,1762.807,423.5596,1772.3153,416.2388,1756.58,405.6369" style="stroke:#181818;stroke-width:1;"/></g><!--reverse link SplitScan to SpecifiedThreeDGridScan--><g id="link_SplitScan_SpecifiedThreeDGridScan"><path codeLine="172" d="M1079.9562,188.2962 C1092.3362,200.8162 1095.64,203.3569 1111,215.7869 C1472.93,508.5569 1552.53,616.1969 1980,800.5369 C2203.48,896.9069 2487.84,942.8569 2639.11,961.8169 " fill="#FFFFFF" fill-opacity="0.00000" id="SplitScan-backto-SpecifiedThreeDGridScan" style="stroke:#181818;stroke-width:1;"/><polygon fill="#FFFFFF" fill-opacity="0.00000" points="1067.3,175.4969,1075.6897,192.5149,1084.2226,184.0774,1067.3,175.4969" style="stroke:#181818;stroke-width:1;"/></g><!--reverse link WithOptionalEnergyChange to SpecifiedThreeDGridScan--><g id="link_WithOptionalEnergyChange_SpecifiedThreeDGridScan"><path codeLine="173" d="M377.9803,191.842 C401.9703,204.242 415.07,208.8769 443,215.7869 C740.12,289.2369 1530.92,172.4069 1819,275.7869 C2002.27,341.5469 2437.53,706.3269 2639.14,880.5269 " fill="#FFFFFF" fill-opacity="0.00000" id="WithOptionalEnergyChange-backto-SpecifiedThreeDGridScan" style="stroke:#181818;stroke-width:1;"/><polygon fill="#FFFFFF" fill-opacity="0.00000" points="361.99,183.5769,375.2252,197.172,380.7353,186.5119,361.99,183.5769" style="stroke:#181818;stroke-width:1;"/></g><!--SRC=[bLVVRzis47ws_WgzPGEM0ErpDo2rqsv0qmMrcnKe0eAMpX8HYIH8Ah6Ivd_VaPHaoPJavCdc_UBnxhkFrDacPphUiG9Y_AML4USPS53KG1flwxXT45bGRggok91r51bcqE7lMe9YWiStLD4I3AZuMgHGH1fCp56Y9KrW3HBLHgYO2mvHXB9xca5Sxicsg43VrnU9A4l1BsGRHiVFaH4Pc1n3FaT9GRMEVzHFQqELqS_HObS8Qk8zqLP0ghALr87awI1vQGBznqn-GtbAFokMhXFAku3IIecgU2L9oj2H9q3AeUSIk55ug08IWsT7tusGNp_MrtI_51KtdIRMxXz9d8FkWgmb96p78BNRFmzY-sJwabkccS4zj57n5cXPC2oXMprOZV-RWd7f4YE8DIA9u0-Wi914KfDx8yOrYZ0l8XNisBuzyw_uAxR5ni1aXPeyzvfJgNDXaxd1eB5krkYWd6STBGhq_Ud2thLnEpDHGaOrII4RXgMbB023CcvYxHQ4fNxPXl1IMINtetB6kuZ_Idj2MdmMd8bBdXLm19d6rINJ8CDcDDJAd4tgaXdTFPMo7_NGyOAPOM_RH4DGDx52R3UAUaenWVHsfokSuwnUvfHdy1mqlqJa4t0c11umm4iuW2kssodgi7srjvDV8h8RR5e28NRasyYmbq9N2eX1CwAzbPrpzC6HKIpBG5csY8t_JqfS3FgBSqXuLMv1HOjBtCzWk5kAbD41m0qOf8GssdPpeoZN9TFQmjtc72t-qRBU7jBU87KXuQ6CG2Sa1gK-Kus0HfBgWtihH15N6eWIp2VRbjaEyj9HM5VOhS06iYVejIb3A_B8KfFtX46Ptf3d6sl2916x7L9p7o6ZFUtFPMjulV_eoRhZUWlPjGMEOSajBYtbTGpk2bIG1oyFkM-JAu1LGC2sHkyyLVJdouhVXs8x8o2FwroFIf_6RT-75qPVPD7eTz5-KVSNJ-t2GOFOqcfJRPioQpT5BsFtNTvSdCCRxm0cMnFRXAiqWvKZvaCZlWb3Wn7qgUkyChRsGW9dFEimvRMgSIIC9meSZbmjNu-uDeKlWgR-6boAed3PBRw9hJ1MiSc1UoNkY3A2cwS4YOGtDs6qkAuAmzfpsBF6fPMGBaEDiW69jI-Dxwlb9w0MrXPzhRGHVIfeXa-PHjyhM90P-dxmoZDNcxE_OfFJnxPc1z0V9ugEbvnR0QG_tMtNrzw0MZy2oBi_uY_0VoiP9mNmpEH_lllzBXwSJWVzx0VeEXhSKwtrvHvVQrr4YgiE11YdePc1nyencHtIpYrjHHxE7FQL9W-fRZPaPJQQvG6BRGCcnxerl65ymwGllct33qNhhXLp_7IWrZuCLirZnN6HVdPZzXhB-CEly_E92OicS3RhSu8-lMyuiVDxZTYFiA-t3KOnwbwDSmRzzCOjZfwvSwQJ1mdD9yynMiYe_-uyPJVspZdbqwlJkD6h-dj0NZJr_WmCWsyGRp5HpZU0UuJjJg4jT1WzzaoT3XK9q7NAFWIxzmkeD-fUqLC6yyKVuzaeU8RFsBOVQA59D6O_OtPyrgDZZdAfjpn1kFETFkNyUf1Dq_by1ZD-HnqOV2GVbNweEsHzF6JJfpZDzISZ76yxLTH1igTC1m2Vw_4qsKru_Gy0]--></g></svg>